<?xml version="1.0" encoding="UTF-8" standalone="no"?>
<!-- Created with Inkscape (http://www.inkscape.org/) -->

<svg
   width="32"
   height="32"
   viewBox="0 0 8.4666665 8.4666665"
   version="1.1"
   id="svg5"
   inkscape:version="1.2 (dc2aedaf03, 2022-05-15)"
   sodipodi:docname="accessories-camera.svg"
   xmlns:inkscape="http://www.inkscape.org/namespaces/inkscape"
   xmlns:sodipodi="http://sodipodi.sourceforge.net/DTD/sodipodi-0.dtd"
   xmlns="http://www.w3.org/2000/svg"
   xmlns:svg="http://www.w3.org/2000/svg">
  <sodipodi:namedview
     id="namedview7"
     pagecolor="#ffffff"
     bordercolor="#666666"
     borderopacity="1.0"
     inkscape:pageshadow="2"
     inkscape:pageopacity="0.0"
     inkscape:pagecheckerboard="0"
     inkscape:document-units="px"
     showgrid="false"
     units="px"
     height="48px"
     inkscape:zoom="25"
     inkscape:cx="16"
     inkscape:cy="16"
     inkscape:window-width="1920"
     inkscape:window-height="1016"
     inkscape:window-x="0"
     inkscape:window-y="0"
     inkscape:window-maximized="1"
     inkscape:current-layer="svg5"
     showguides="false"
     inkscape:showpageshadow="2"
     inkscape:deskcolor="#d1d1d1" />
  <defs
     id="defs2" />
  <rect
     style="opacity:1;fill:#6f6f6f;fill-opacity:1;stroke-width:0.264583"
     id="rect1162"
     width="7.4083333"
     height="6.0854163"
     x="0.52916664"
     y="1.8520833"
     ry="0.52916664" />
  <rect
     style="fill:#6f6f6f;fill-opacity:1;stroke-width:0.264583"
     id="rect4935"
     width="2.6458333"
     height="1.7197917"
     x="2.9104161"
     y="0.79374999"
     ry="0.52916664" />
  <rect
     style="fill:#acacac;fill-opacity:1;stroke-width:0.264583"
     id="rect4777"
     width="2.1166666"
     height="1.4552083"
     x="3.1749997"
     y="1.0583333"
     ry="0.39687499" />
  <rect
     style="fill:#ececec;fill-opacity:1;stroke-width:0.264583"
     id="rect1147"
     width="6.8791666"
     height="5.2916665"
     x="0.79375005"
     y="2.1166666"
     ry="0.39687499" />
  <rect
     style="fill:#424242;fill-opacity:1;stroke-width:0.18871"
     id="rect1083"
     width="6.8791666"
     height="3.7041667"
     x="0.79375005"
     y="2.9104164" />
  <circle
     style="fill:#ececec;fill-opacity:1;stroke-width:0.130123"
     id="path10609"
     cx="4.2333331"
     cy="4.7624998"
     r="1.5875" />
  <circle
     style="fill:#48b9c7;fill-opacity:1;stroke-width:0.0814097"
     id="path12167"
     cx="4.2333331"
     cy="4.7624998"
     r="1.0583333" />
  <circle
     style="opacity:0.25;fill:#ffffff;fill-opacity:1;stroke-width:0.099219"
     id="path13933"
     cx="4.2333331"
     cy="4.7624998"
     r="0.79374993" />
  <path
     id="path13989"
     style="opacity:0.25;fill:#ffffff;fill-opacity:1;stroke-width:0.099219"
     d="M 3.6725149,4.2016815 A 0.79374989,0.79374989 0 0 0 3.4395834,4.7625 0.79374989,0.79374989 0 0 0 4.2333333,5.5562497 0.79374989,0.79374989 0 0 0 4.7941519,5.3233182 Z" />
  <path
     id="path13994"
     style="opacity:0.25;fill:#ffffff;fill-opacity:1;stroke-width:0.099219"
     d="M 4.7945392,4.2012939 3.6725149,5.3233182 A 0.79374978,0.79374978 0 0 0 4.2333333,5.5562497 0.79374978,0.79374978 0 0 0 5.0270831,4.7625 0.79374978,0.79374978 0 0 0 4.7945392,4.2012939 Z" />
  <rect
     style="fill:#ffce51;fill-opacity:1;stroke-width:0.132291"
     id="rect9397"
     width="1.5875"
     height="0.52916664"
     x="3.4395833"
     y="1.3229166"
     ry="0.26458332" />
</svg>
