<?xml version="1.0" encoding="UTF-8" standalone="no"?>
<!-- Created with Inkscape (http://www.inkscape.org/) -->

<svg
   width="32"
   height="32"
   viewBox="0 0 8.4666666 8.4666666"
   version="1.1"
   id="svg5"
   inkscape:version="1.2 (dc2aedaf03, 2022-05-15)"
   sodipodi:docname="accessories-clipboard.svg"
   xmlns:inkscape="http://www.inkscape.org/namespaces/inkscape"
   xmlns:sodipodi="http://sodipodi.sourceforge.net/DTD/sodipodi-0.dtd"
   xmlns="http://www.w3.org/2000/svg"
   xmlns:svg="http://www.w3.org/2000/svg">
  <sodipodi:namedview
     id="namedview7"
     pagecolor="#ffffff"
     bordercolor="#666666"
     borderopacity="1.0"
     inkscape:pageshadow="2"
     inkscape:pageopacity="0.0"
     inkscape:pagecheckerboard="0"
     inkscape:document-units="px"
     showgrid="false"
     units="px"
     height="48px"
     inkscape:zoom="25.0625"
     inkscape:cx="14.763092"
     inkscape:cy="13.506234"
     inkscape:window-width="1920"
     inkscape:window-height="1010"
     inkscape:window-x="0"
     inkscape:window-y="0"
     inkscape:window-maximized="1"
     inkscape:current-layer="svg5"
     showguides="true"
     inkscape:showpageshadow="2"
     inkscape:deskcolor="#d1d1d1" />
  <defs
     id="defs2" />
  <rect
     style="opacity:1;fill:#50443f;fill-opacity:1;stroke-width:0.264583"
     id="rect1162"
     width="5.8208332"
     height="7.1437497"
     x="1.3229166"
     y="0.79374999"
     ry="0.52916664" />
  <rect
     style="fill:#a18887;fill-opacity:1;stroke-width:0.264583"
     id="rect1142"
     width="5.2916665"
     height="6.3499999"
     x="1.5875"
     y="1.0583333"
     ry="0.39687499" />
  <rect
     style="fill:#ffffff;fill-opacity:1;stroke-width:0.529167"
     id="rect2331"
     width="4.2333331"
     height="5.2916665"
     x="2.1166666"
     y="1.5875" />
  <path
     d="M 4.2333333,0 C 3.6470166,0 3.175,0.4720167 3.175,1.0583333 V 2.1166666 H 5.2916666 V 1.0583333 C 5.2916666,0.4720167 4.8196499,0 4.2333333,0 Z"
     style="fill:#666666;fill-opacity:1;stroke-width:0.264583"
     id="path2311" />
  <path
     d="m 4.2333333,0.26458333 c -0.438376,0 -0.79375,0.35537399 -0.79375,0.79374997 V 1.3229167 H 2.8985315 c -0.1401313,0 -0.2526982,0.1125669 -0.2526982,0.2526982 V 2.1166667 H 5.8208332 V 1.5756149 c 0,-0.1401313 -0.1125669,-0.2526982 -0.2526982,-0.2526982 H 5.0270832 V 1.0583333 c 0,-0.43837598 -0.355374,-0.79374997 -0.7937499,-0.79374997 z"
     style="fill:#cccccc;fill-opacity:1;stroke-width:0.264583"
     id="path982" />
  <circle
     style="fill:#ffffff;fill-opacity:1;stroke-width:0.529167"
     id="path2437"
     cx="4.2333331"
     cy="0.92604166"
     r="0.39687499" />
</svg>
