<?xml version="1.0" encoding="UTF-8" standalone="no"?>
<!-- Created with Inkscape (http://www.inkscape.org/) -->

<svg
   width="32"
   height="32"
   viewBox="0 0 8.4666665 8.4666665"
   version="1.1"
   id="svg5"
   inkscape:version="1.2 (dc2aedaf03, 2022-05-15)"
   sodipodi:docname="accessories-document-viewer.svg"
   xmlns:inkscape="http://www.inkscape.org/namespaces/inkscape"
   xmlns:sodipodi="http://sodipodi.sourceforge.net/DTD/sodipodi-0.dtd"
   xmlns="http://www.w3.org/2000/svg"
   xmlns:svg="http://www.w3.org/2000/svg">
  <sodipodi:namedview
     id="namedview7"
     pagecolor="#ffffff"
     bordercolor="#666666"
     borderopacity="1.0"
     inkscape:pageshadow="2"
     inkscape:pageopacity="0.0"
     inkscape:pagecheckerboard="0"
     inkscape:document-units="px"
     showgrid="false"
     units="px"
     height="48px"
     inkscape:zoom="8.8498833"
     inkscape:cx="-11.41258"
     inkscape:cy="20.734737"
     inkscape:window-width="1920"
     inkscape:window-height="1014"
     inkscape:window-x="0"
     inkscape:window-y="0"
     inkscape:window-maximized="1"
     inkscape:current-layer="svg5"
     inkscape:showpageshadow="2"
     inkscape:deskcolor="#d1d1d1" />
  <defs
     id="defs2" />
  <path
     d="m 7.4083319,2.5135417 v 5.2916666 c 0,0.3664479 -0.2950104,0.6614583 -0.6614583,0.6614583 H 1.719793 c -0.3656171,0 -0.6621912,-0.2958306 -0.6614583,-0.6614583 V 0.92604167 c 0,-0.36644793 0.2950104,-0.66145834 0.6614583,-0.66145834 h 3.4395806"
     style="fill:#6f6f6f;stroke-width:0.264583"
     id="path2928" />
  <path
     d="M 7.1437486,2.6458334 V 7.4083333 C 7.1437486,7.7014916 6.9077403,7.9375 6.6145819,7.9375 H 1.852082 C 1.5589237,7.9375 1.3229153,7.7014916 1.3229153,7.4083333 V 1.0583334 c 0,-0.29315833 0.2360084,-0.52916674 0.5291667,-0.52916674 h 3.175"
     style="fill:#ececec;stroke-width:0.264583"
     id="path2808" />
  <path
     id="rect2184"
     style="display:inline;vector-effect:none;fill:#474341;fill-opacity:0.972917;stroke:none;stroke-width:0.529167;stroke-linecap:round;stroke-miterlimit:4;stroke-dasharray:none;stroke-opacity:0.501961;enable-background:new;opacity:0.7"
     d="m 2.5016566,4.2333332 c -0.066813,0 -0.1204066,0.053594 -0.1204066,0.1204066 v 0.02376 c 0,0.066813 0.053594,0.1204065 0.1204066,0.1204065 H 5.96501 c 0.066813,0 0.1204066,-0.053594 0.1204066,-0.1204065 v -0.02376 c 0,-0.066813 -0.053594,-0.1204066 -0.1204066,-0.1204066 z m 0,0.79375 c -0.066813,0 -0.1204066,0.053594 -0.1204066,0.1204066 v 0.02376 c 0,0.066813 0.053594,0.1204065 0.1204066,0.1204065 H 5.96501 c 0.066813,0 0.1204066,-0.053594 0.1204066,-0.1204065 v -0.02376 c 0,-0.066813 -0.053594,-0.1204066 -0.1204066,-0.1204066 z m 0,0.79375 c -0.066813,0 -0.1204066,0.053594 -0.1204066,0.1204066 v 0.023759 c 0,0.066813 0.053594,0.1204066 0.1204066,0.1204066 H 5.96501 c 0.066813,0 0.1204066,-0.053594 0.1204066,-0.1204066 v -0.023759 c 0,-0.066813 -0.053594,-0.1204066 -0.1204066,-0.1204066 z m 0,0.79375 c -0.066813,0 -0.1204066,0.053594 -0.1204066,0.1204066 v 0.02376 c 0,0.066813 0.053594,0.1204066 0.1204066,0.1204066 h 2.1404368 c 0.066813,0 0.1204065,-0.053594 0.1204065,-0.1204066 v -0.02376 c 0,-0.066813 -0.053594,-0.1204066 -0.1204065,-0.1204066 z"
     sodipodi:nodetypes="ssssssssssssssssssssssssssssssssssss" />
  <path
     d="M 7.1437486,3.175 H 5.2916653 C 4.998507,3.175 4.7624986,2.9389917 4.7624986,2.6458334 V 0.52916666 H 5.027082 L 7.1437486,2.6458334 Z"
     style="fill:#6f6f6f;fill-opacity:0.502;stroke-width:0.264583"
     id="path3168" />
  <path
     d="m 7.1437486,2.6458334 h -1.5875 C 5.2630903,2.6458334 5.027082,2.409825 5.027082,2.1166667 V 0.52916666"
     style="fill:#fafafa;stroke-width:0.264583"
     id="path3048" />
  <rect
     style="fill:#671d00;fill-opacity:1;stroke-width:0.264583"
     id="rect12483"
     width="3.96875"
     height="3.96875"
     x="3.7041664"
     y="4.4979167"
     ry="0.92604166" />
  <rect
     style="fill:#cf3b00;fill-opacity:1;stroke-width:0.264583"
     id="rect15701"
     width="3.4395833"
     height="3.175"
     x="3.96875"
     y="4.7624998"
     ry="0.79374999" />
  <path
     d="M 5.6885416,5.6885413 C 5.2393664,5.689335 4.8293442,5.9459994 4.6302082,6.3513225 4.8300798,6.7556191 5.2399537,7.011278 5.6885416,7.0114579 6.1377167,7.0106642 6.5477415,6.7539998 6.7468749,6.3486767 6.547006,5.9443801 6.1371294,5.6887212 5.6885416,5.6885413 Z m 0,0.1322916 c 0.2922508,0 0.5291666,0.2369159 0.5291666,0.5291667 0,0.2922508 -0.2369158,0.5291666 -0.5291666,0.5291666 -0.2922482,0 -0.5291667,-0.2369158 -0.5291667,-0.5291666 0,-0.2922508 0.2369185,-0.5291667 0.5291667,-0.5291667 z m 0,0.2645834 c -0.1461241,0 -0.2645834,0.1184566 -0.2645834,0.2645833 0,0.1461267 0.1184593,0.2645833 0.2645834,0.2645833 0.1461267,0 0.2645833,-0.1184566 0.2645833,-0.2645833 0,-0.1461267 -0.1184566,-0.2645833 -0.2645833,-0.2645833 z"
     style="fill:#ffffff;stroke-width:0.264583"
     id="path16801" />
</svg>
