<?xml version="1.0" encoding="UTF-8" standalone="no"?>
<!-- Created with Inkscape (http://www.inkscape.org/) -->

<svg
   width="32"
   height="32"
   viewBox="0 0 8.4666666 8.4666666"
   version="1.1"
   id="svg5"
   inkscape:version="1.2 (dc2aedaf03, 2022-05-15)"
   sodipodi:docname="applications-engineering.svg"
   xmlns:inkscape="http://www.inkscape.org/namespaces/inkscape"
   xmlns:sodipodi="http://sodipodi.sourceforge.net/DTD/sodipodi-0.dtd"
   xmlns="http://www.w3.org/2000/svg"
   xmlns:svg="http://www.w3.org/2000/svg">
  <sodipodi:namedview
     id="namedview7"
     pagecolor="#ffffff"
     bordercolor="#666666"
     borderopacity="1.0"
     inkscape:pageshadow="2"
     inkscape:pageopacity="0.0"
     inkscape:pagecheckerboard="0"
     inkscape:document-units="px"
     showgrid="false"
     units="px"
     height="48px"
     inkscape:zoom="25.53125"
     inkscape:cx="15.980416"
     inkscape:cy="16"
     inkscape:window-width="1846"
     inkscape:window-height="1011"
     inkscape:window-x="74"
     inkscape:window-y="32"
     inkscape:window-maximized="1"
     inkscape:current-layer="svg5"
     inkscape:showpageshadow="2"
     inkscape:deskcolor="#d1d1d1" />
  <defs
     id="defs2" />
  <rect
     style="opacity:1;fill:#d1a023;fill-opacity:1;stroke-width:0.264583"
     id="rect1162"
     width="6.8791666"
     height="6.8791666"
     x="0.79374999"
     y="0.79374999"
     ry="0.66145831" />
  <path
     id="rect1014"
     style="opacity:0.5;fill:#000000;stroke-width:0.264583"
     d="m 1.4552083,0.79374999 c -0.3664479,0 -0.66145831,0.29501041 -0.66145831,0.66145831 v 5.5562499 c 0,0.366448 0.29501041,0.6614584 0.66145831,0.6614584 h 5.55625 c 0.3664479,0 0.6614583,-0.2950104 0.6614583,-0.6614584 V 1.4552083 c 0,-0.3664479 -0.2950104,-0.66145831 -0.6614583,-0.66145831 z M 1.5875,1.0583333 h 5.2916666 c 0.2931583,0 0.5291667,0.2360084 0.5291667,0.5291667 v 5.0270833 c 0,0.2931583 -0.2360084,0.5291666 -0.5291667,0.5291666 H 1.5875 c -0.2931583,0 -0.5291667,-0.2360083 -0.5291667,-0.5291666 V 1.5875 c 0,-0.2931583 0.2360084,-0.5291667 0.5291667,-0.5291667 z"
     sodipodi:nodetypes="ssssssssssssssssss" />
  <path
     d="M 5.025533,2.38125 C 4.934363,2.415063 4.8490863,2.463021 4.7728348,2.5233604 4.4085035,2.8181062 4.4034738,3.3032621 4.7619838,3.6075329 c 0.075142,0.0635 0.1727967,0.1097068 0.2635488,0.1472776 0,0.2143125 -7.937e-4,0.3507926 0,0.5420837 0.3942292,0.1984375 0.6217841,0.4661217 0.7932341,0.730705 V 3.7708284 C 5.9101404,3.7353917 5.995405,3.6858728 6.0714653,3.6240693 6.4357939,3.3293235 6.4403103,2.8439031 6.0817999,2.5398968 6.0046474,2.4776287 5.918371,2.4276058 5.8260008,2.3915846 L 5.8203175,2.9822457 5.5541837,3.1755159 H 5.2896004 L 5.025533,2.9719111 Z M 4.2322988,4.4979166 c -1.0578014,0 -1.5869812,0.79375 -1.5869812,1.5875 H 2.1828127 c -0.066146,0 -0.066146,0.04154 -0.066146,0.066146 v 0.3968749 c 0,0.066146 0.036513,0.066146 0.066146,0.066146 h 4.0994911 c 0.051594,0.00159 0.066146,-0.034396 0.066146,-0.066146 v -0.396875 c 0.00556,-0.038629 0,-0.066146 -0.066146,-0.066146 H 5.819283 c 0,-0.79375 -0.5291799,-1.5875 -1.5869842,-1.5874999 z m 0,0.79375 c 0.6217709,0 0.7937501,0.4661959 0.7937501,0.79375 H 3.4390675 c 0,-0.3167062 0.1857508,-0.79375 0.7932313,-0.79375 z"
     id="path7012"
     style="opacity:0.5;fill:#000000;stroke-width:0.264583"
     sodipodi:nodetypes="cccccccccccccccscsssscscscssccs" />
  <path
     d="m 5.025533,2.1166667 c -0.09117,0.033813 -0.1764467,0.081771 -0.2526982,0.1421104 -0.3643313,0.2947458 -0.369361,0.7799017 -0.010851,1.0841725 0.075142,0.0635 0.1727967,0.1097068 0.2635488,0.1472776 0,0.2143125 -7.937e-4,0.3507926 0,0.5420836 0.3942291,0.1984375 0.6217841,0.4661218 0.7932341,0.7307051 V 3.5062451 C 5.9101404,3.4708084 5.995405,3.4212895 6.0714653,3.359486 6.4357939,3.0647402 6.4403103,2.5793198 6.0817999,2.2753135 6.0046474,2.2130454 5.918371,2.1630225 5.8260008,2.1270013 L 5.8203175,2.7176624 5.5541837,2.9109326 H 5.2896004 L 5.025533,2.7073278 Z M 4.2322988,4.2333332 c -1.0578014,0 -1.5869812,0.7937501 -1.5869812,1.5875001 H 2.1828127 c -0.066146,0 -0.066146,0.04154 -0.066146,0.066146 v 0.3968749 c 0,0.066146 0.036513,0.066146 0.066146,0.066146 h 4.0994911 c 0.051594,0.00159 0.066146,-0.034396 0.066146,-0.066146 v -0.396875 c 0.00556,-0.038629 0,-0.066146 -0.066146,-0.066146 H 5.819283 c 0,-0.79375 -0.5291799,-1.5875 -1.5869842,-1.5875 z m 0,0.7937501 c 0.6217709,0 0.7937501,0.4661959 0.7937501,0.79375 H 3.4390675 c 0,-0.3167062 0.1857508,-0.79375 0.7932313,-0.79375 z"
     style="opacity:1;fill:#ffffff;stroke-width:0.264583"
     id="path8252" />
</svg>
