<?xml version="1.0" encoding="UTF-8" standalone="no"?>
<!-- Created with Inkscape (http://www.inkscape.org/) -->

<svg
   width="32"
   height="32"
   viewBox="0 0 8.4666666 8.4666666"
   version="1.1"
   id="svg5"
   inkscape:version="1.2 (dc2aedaf03, 2022-05-15)"
   sodipodi:docname="applications-office.svg"
   xmlns:inkscape="http://www.inkscape.org/namespaces/inkscape"
   xmlns:sodipodi="http://sodipodi.sourceforge.net/DTD/sodipodi-0.dtd"
   xmlns="http://www.w3.org/2000/svg"
   xmlns:svg="http://www.w3.org/2000/svg">
  <sodipodi:namedview
     id="namedview7"
     pagecolor="#ffffff"
     bordercolor="#666666"
     borderopacity="1.0"
     inkscape:pageshadow="2"
     inkscape:pageopacity="0.0"
     inkscape:pagecheckerboard="0"
     inkscape:document-units="px"
     showgrid="false"
     units="px"
     height="48px"
     inkscape:zoom="25.5625"
     inkscape:cx="16.03912"
     inkscape:cy="16"
     inkscape:window-width="1846"
     inkscape:window-height="1011"
     inkscape:window-x="0"
     inkscape:window-y="0"
     inkscape:window-maximized="1"
     inkscape:current-layer="svg5"
     inkscape:showpageshadow="2"
     inkscape:deskcolor="#d1d1d1" />
  <defs
     id="defs2" />
  <rect
     style="opacity:1;fill:#faa41a;fill-opacity:1;stroke-width:0.264583"
     id="rect1162"
     width="6.8791666"
     height="6.8791666"
     x="0.79374999"
     y="0.79374999"
     ry="0.66145831" />
  <path
     id="rect1014"
     style="opacity:0.5;fill:#000000;stroke-width:0.264583"
     d="m 1.4552083,0.79374999 c -0.3664479,0 -0.66145831,0.29501041 -0.66145831,0.66145831 v 5.5562499 c 0,0.366448 0.29501041,0.6614584 0.66145831,0.6614584 h 5.55625 c 0.3664479,0 0.6614583,-0.2950104 0.6614583,-0.6614584 V 1.4552083 c 0,-0.3664479 -0.2950104,-0.66145831 -0.6614583,-0.66145831 z M 1.5875,1.0583333 h 5.2916666 c 0.2931583,0 0.5291667,0.2360084 0.5291667,0.5291667 v 5.0270833 c 0,0.2931583 -0.2360084,0.5291666 -0.5291667,0.5291666 H 1.5875 c -0.2931583,0 -0.5291667,-0.2360083 -0.5291667,-0.5291666 V 1.5875 c 0,-0.2931583 0.2360084,-0.5291667 0.5291667,-0.5291667 z"
     sodipodi:nodetypes="ssssssssssssssssss" />
  <path
     d="M 2.9104166,2.6458333 C 2.38125,2.6458333 2.38125,3.175 2.38125,3.175 v 2.6458333 c 0,0.5291666 0.5291666,0.5291666 0.5291666,0.5291666 h 2.6458333 c 0,0 0.5291667,0 0.5291667,-0.5291666 V 3.175 c 0,-0.5291667 -0.5291667,-0.5291667 -0.5291667,-0.5291667 z m 0,0.530225 H 5.0270833 V 3.4406417 H 2.9104166 Z m 0,0.79375 h 2.38125 v 0.2645833 h -2.38125 z m 0,0.79375 h 1.5875 v 0.2645833 h -1.5875 z m 0,0.79375 h 2.38125 v 0.2645833 h -2.38125 z"
     id="path11330"
     style="opacity:0.2;fill:#000000;stroke-width:0.264583"
     sodipodi:nodetypes="ccsccsscccccccccccccccccccccc" />
  <path
     d="M 2.9104166,2.38125 C 2.38125,2.38125 2.38125,2.9104167 2.38125,2.9104167 V 5.55625 c 0,0.5291666 0.5291666,0.5291666 0.5291666,0.5291666 h 2.6458333 c 0,0 0.5291667,0 0.5291667,-0.5291666 V 2.9104167 C 6.0854166,2.38125 5.5562499,2.38125 5.5562499,2.38125 Z m 0,0.530225 H 5.0270833 V 3.1760584 H 2.9104166 Z m 0,0.79375 h 2.38125 v 0.2645833 h -2.38125 z m 0,0.79375 h 1.5875 v 0.2645833 h -1.5875 z m 0,0.79375 h 2.38125 v 0.2645833 h -2.38125 z"
     style="fill:#ffffff;stroke-width:0.264583"
     id="path11844"
     sodipodi:nodetypes="ccsccsscccccccccccccccccccccc" />
</svg>
