<?xml version="1.0" encoding="UTF-8" standalone="no"?>
<!-- Created with Inkscape (http://www.inkscape.org/) -->

<svg
   width="32"
   height="32"
   viewBox="0 0 8.4666666 8.4666666"
   version="1.1"
   id="svg5"
   inkscape:version="1.2 (dc2aedaf03, 2022-05-15)"
   sodipodi:docname="applications-games.svg"
   xmlns:inkscape="http://www.inkscape.org/namespaces/inkscape"
   xmlns:sodipodi="http://sodipodi.sourceforge.net/DTD/sodipodi-0.dtd"
   xmlns="http://www.w3.org/2000/svg"
   xmlns:svg="http://www.w3.org/2000/svg">
  <sodipodi:namedview
     id="namedview7"
     pagecolor="#ffffff"
     bordercolor="#666666"
     borderopacity="1.0"
     inkscape:pageshadow="2"
     inkscape:pageopacity="0.0"
     inkscape:pagecheckerboard="0"
     inkscape:document-units="px"
     showgrid="false"
     units="px"
     height="48px"
     inkscape:zoom="9.4343297"
     inkscape:cx="-1.5899381"
     inkscape:cy="8.9566512"
     inkscape:window-width="1920"
     inkscape:window-height="1010"
     inkscape:window-x="0"
     inkscape:window-y="0"
     inkscape:window-maximized="1"
     inkscape:current-layer="svg5"
     inkscape:showpageshadow="2"
     inkscape:deskcolor="#d1d1d1" />
  <defs
     id="defs2" />
  <rect
     style="opacity:1;fill:#3f51b5;fill-opacity:1;stroke-width:0.264583"
     id="rect1162"
     width="6.8791666"
     height="6.8791666"
     x="0.79374999"
     y="0.79374999"
     ry="0.66145831" />
  <path
     id="rect1014"
     style="opacity:0.5;fill:#000000;stroke-width:0.264583"
     d="m 1.4552083,0.79374999 c -0.3664479,0 -0.66145831,0.29501041 -0.66145831,0.66145831 v 5.5562499 c 0,0.366448 0.29501041,0.6614584 0.66145831,0.6614584 h 5.55625 c 0.3664479,0 0.6614583,-0.2950104 0.6614583,-0.6614584 V 1.4552083 c 0,-0.3664479 -0.2950104,-0.66145831 -0.6614583,-0.66145831 z M 1.5875,1.0583333 h 5.2916666 c 0.2931583,0 0.5291667,0.2360084 0.5291667,0.5291667 v 5.0270833 c 0,0.2931583 -0.2360084,0.5291666 -0.5291667,0.5291666 H 1.5875 c -0.2931583,0 -0.5291667,-0.2360083 -0.5291667,-0.5291666 V 1.5875 c 0,-0.2931583 0.2360084,-0.5291667 0.5291667,-0.5291667 z"
     sodipodi:nodetypes="ssssssssssssssssss" />
  <path
     d="m 2.9101857,2.38125 c -0.1465975,0 -0.2645817,0.117984 -0.2645817,0.2645815 L 2.1267755,5.7531087 c -1.399e-4,5.291e-4 -3.783e-4,10e-4 -5.159e-4,0.00156 -0.00542,0.02117 -0.00827,0.043241 -0.00827,0.066145 0,0.1465974 0.117984,0.2650993 0.2645815,0.2650993 0.1191092,0 0.2192906,-0.078188 0.2526963,-0.1860337 L 3.1763142,5.017771 H 5.2624778 L 5.832464,5.9003952 c 0.033545,0.1076047 0.1337569,0.1855185 0.2526933,0.1855185 0.1465976,0 0.2645815,-0.118502 0.2645815,-0.2650993 0,-0.019621 -0.0022,-0.03846 -0.0062,-0.056843 h 5.291e-4 L 5.8221273,2.6365298 h -0.00154 C 5.8156236,2.4943555 5.6994225,2.38125 5.5559981,2.38125 H 5.0268349 c -0.1434216,0 -0.2591076,0.1131084 -0.2640634,0.2552798 H 3.7039273 C 3.6989742,2.4943555 3.5827731,2.38125 3.4393487,2.38125 Z m 0.6624852,0.5203763 h 0.2645814 c 0.07352,0 0.1322922,0.05907 0.1322922,0.1322892 v 0.396874 h 0.3968708 c 0.073223,0 0.1322893,0.059066 0.1322893,0.1322892 v 0.2645814 c 2.399e-4,0.073161 -0.059128,0.1325306 -0.1322893,0.1322923 H 3.9695445 v 0.396871 c 2.384e-4,0.073161 -0.059131,0.132529 -0.1322922,0.132289 H 3.5726709 C 3.499511,4.4893508 3.4401433,4.429983 3.4403816,4.3568234 V 3.9599524 H 3.0435077 C 2.9703468,3.9601907 2.9109787,3.9008212 2.9112184,3.8276601 V 3.5630787 c 0,-0.072926 0.058768,-0.1322892 0.1322893,-0.1322892 h 0.3968739 v -0.396874 c 0,-0.07322 0.059066,-0.1322892 0.1322893,-0.1322892 z m 1.4061049,0.00465 c 0.015632,0.00285 0.031578,0.00413 0.048059,0.00413 h 0.068214 C 5.2089633,2.9400744 5.2929673,3.0427592 5.2929673,3.1662082 5.2932848,3.3126646 5.1743233,3.4313893 5.0278677,3.4307897 4.8816144,3.4311072 4.7629744,3.3124616 4.7632863,3.1662082 c 0,-0.1298308 0.092538,-0.2368848 0.2154895,-0.2599293 z M 5.2929673,3.695371 c 0.1464457,0 0.2640634,0.1183533 0.2640634,0.2650967 0,0.146743 -0.1178381,0.2640633 -0.2645814,0.2640633 -0.1464457,0 -0.2645816,-0.1178352 -0.2645816,-0.2645784 0,-0.1467434 0.1183562,-0.2645816 0.2650996,-0.2645816 z"
     style="fill:#fafafb;fill-opacity:1;stroke-width:0.264581"
     id="path1035" />
</svg>
