<?xml version="1.0" encoding="UTF-8" standalone="no"?>
<!-- Created with Inkscape (http://www.inkscape.org/) -->

<svg
   width="32"
   height="32"
   viewBox="0 0 8.4666666 8.4666666"
   version="1.1"
   id="svg5"
   inkscape:version="1.2 (dc2aedaf03, 2022-05-15)"
   sodipodi:docname="baloo.svg"
   xmlns:inkscape="http://www.inkscape.org/namespaces/inkscape"
   xmlns:sodipodi="http://sodipodi.sourceforge.net/DTD/sodipodi-0.dtd"
   xmlns="http://www.w3.org/2000/svg"
   xmlns:svg="http://www.w3.org/2000/svg">
  <sodipodi:namedview
     id="namedview7"
     pagecolor="#ffffff"
     bordercolor="#666666"
     borderopacity="1.0"
     inkscape:pageshadow="2"
     inkscape:pageopacity="0.0"
     inkscape:pagecheckerboard="0"
     inkscape:document-units="px"
     showgrid="false"
     units="px"
     height="48px"
     inkscape:zoom="25"
     inkscape:cx="15.98"
     inkscape:cy="16"
     inkscape:window-width="1920"
     inkscape:window-height="1016"
     inkscape:window-x="0"
     inkscape:window-y="0"
     inkscape:window-maximized="1"
     inkscape:current-layer="svg5"
     inkscape:showpageshadow="2"
     inkscape:deskcolor="#d1d1d1" />
  <defs
     id="defs2" />
  <rect
     style="opacity:1;fill:#25668c;fill-opacity:1;stroke-width:0.264583"
     id="rect1162"
     width="6.8791666"
     height="6.8791666"
     x="0.79374999"
     y="0.79374999"
     ry="0.66145831" />
  <rect
     style="opacity:1;fill:#3daee9;fill-opacity:1;stroke-width:0.264583"
     id="rect1077"
     width="6.3499999"
     height="6.0854168"
     x="1.0583333"
     y="1.0583333"
     ry="0.52916664" />
  <path
     id="path19114"
     style="fill:#ffffff;stroke-width:0.290372"
     d="M 4.2865678,1.8520833 C 4.1568313,2.2414717 4.1322655,2.2228984 4.0922645,2.6391155 3.8856206,2.8119996 3.8579301,3.008091 3.8669551,3.1992879 3.87675,3.406902 4.0295458,3.5427131 4.2090531,3.5522381 4.4317209,3.5515237 4.5616226,3.3465849 4.5821569,3.1476116 4.6062313,2.914337 4.5634614,2.7622762 4.3847531,2.6422159 4.3800568,2.3265799 4.3662852,2.2520201 4.2865678,1.8520833 Z M 3.5062537,2.0711914 C 3.3765168,2.4605797 3.3519513,2.4420065 3.3119503,2.8582236 3.1053065,3.0311077 3.078133,3.2271991 3.0871579,3.418396 3.0969528,3.62601 3.2497483,3.7618212 3.4292557,3.7713462 3.6519237,3.7706318 3.7813087,3.565693 3.8018427,3.3667197 3.8259171,3.133445 3.7836632,2.9813842 3.6049557,2.8613243 3.6002593,2.545688 3.5859718,2.4711281 3.5062537,2.0711914 Z m 1.4846638,0.098702 C 4.9112007,2.5698302 4.8969129,2.6449067 4.8922155,2.960543 4.7135077,3.080603 4.6712543,3.2321471 4.6953284,3.4654217 4.7158628,3.664395 4.8452477,3.8698619 5.0679155,3.8705649 5.2474228,3.8610399 5.4002192,3.7252288 5.4100135,3.5176147 5.4190385,3.3264178 5.3913472,3.1298097 5.1847042,2.9569256 5.1447031,2.5407085 5.1206541,2.5592818 4.9909175,2.1698934 Z M 2.7243893,2.6897584 C 2.5946524,3.0791467 2.5700869,3.0605735 2.5300859,3.4767903 2.3234421,3.6496746 2.2962686,3.8457661 2.3052932,4.036963 c 0.00979,0.207614 0.162074,0.3434249 0.3415814,0.3529499 h 5.291e-4 C 2.8700715,4.3891985 2.9994565,4.18426 3.0199908,3.9852864 3.0440652,3.7520118 3.0018112,3.5999512 2.8231037,3.479891 2.8184074,3.1642547 2.8041199,3.0896949 2.7244017,2.6897584 Z m 3.0179036,0.018603 C 5.662576,3.108298 5.648805,3.1828578 5.6441076,3.4984941 5.4653995,3.6185541 5.4226297,3.7706149 5.4467036,4.0038895 5.4672379,4.2028628 5.5971396,4.407813 5.8198076,4.408516 5.9993147,4.398991 6.152111,4.2631801 6.1619054,4.0555658 6.1709303,3.8643689 6.143239,3.6682775 5.9365963,3.4953935 5.896595,3.0791764 5.8720295,3.0977496 5.7422929,2.7083614 Z M 4.1842484,3.7207026 C 3.9090479,3.7251634 3.7318342,3.8642197 3.2835282,4.2033605 2.6645183,4.5575881 2.4789808,4.7538568 2.4701411,5.2730627 c -0.00977,0.5739987 0.7843972,0.7587972 1.4236859,0.504362 0.1948875,-0.077562 0.6152443,-0.083944 0.8397419,0.00827 0.4664745,0.1411965 1.2937498,0.049833 1.306897,-0.578776 C 6.0669985,4.6801889 5.7078777,4.530781 5.1630001,4.2033605 4.83718,3.9070692 4.6745965,3.7415324 4.2405758,3.7217363 4.221248,3.7208632 4.2025952,3.7204134 4.1842484,3.7207044 Z" />
</svg>
