<?xml version="1.0" encoding="UTF-8" standalone="no"?>
<!-- Created with Inkscape (http://www.inkscape.org/) -->

<svg
   width="32"
   height="32"
   viewBox="0 0 8.4666666 8.4666666"
   version="1.1"
   id="svg5"
   inkscape:version="1.2 (dc2aedaf03, 2022-05-15)"
   sodipodi:docname="calls-app.svg"
   xmlns:inkscape="http://www.inkscape.org/namespaces/inkscape"
   xmlns:sodipodi="http://sodipodi.sourceforge.net/DTD/sodipodi-0.dtd"
   xmlns="http://www.w3.org/2000/svg"
   xmlns:svg="http://www.w3.org/2000/svg">
  <sodipodi:namedview
     id="namedview7"
     pagecolor="#ffffff"
     bordercolor="#666666"
     borderopacity="1.0"
     inkscape:pageshadow="2"
     inkscape:pageopacity="0.0"
     inkscape:pagecheckerboard="0"
     inkscape:document-units="px"
     showgrid="false"
     units="px"
     height="48px"
     inkscape:zoom="25.5625"
     inkscape:cx="16"
     inkscape:cy="16"
     inkscape:window-width="1846"
     inkscape:window-height="1015"
     inkscape:window-x="0"
     inkscape:window-y="0"
     inkscape:window-maximized="1"
     inkscape:current-layer="svg5"
     inkscape:showpageshadow="2"
     inkscape:deskcolor="#d1d1d1" />
  <defs
     id="defs2" />
  <rect
     style="opacity:1;fill:#73c48f;fill-opacity:1;stroke-width:0.264583"
     id="rect1162"
     width="6.8791666"
     height="6.8791666"
     x="0.79374999"
     y="0.79374999"
     ry="0.66145831" />
  <path
     id="rect1014"
     style="opacity:0.5;fill:#000000;stroke-width:0.264583"
     d="m 1.4552083,0.79374999 c -0.3664479,0 -0.66145831,0.29501041 -0.66145831,0.66145831 v 5.5562499 c 0,0.366448 0.29501041,0.6614584 0.66145831,0.6614584 h 5.55625 c 0.3664479,0 0.6614583,-0.2950104 0.6614583,-0.6614584 V 1.4552083 c 0,-0.3664479 -0.2950104,-0.66145831 -0.6614583,-0.66145831 z M 1.5875,1.0583333 h 5.2916666 c 0.2931583,0 0.5291667,0.2360084 0.5291667,0.5291667 v 5.0270833 c 0,0.2931583 -0.2360084,0.5291666 -0.5291667,0.5291666 H 1.5875 c -0.2931583,0 -0.5291667,-0.2360083 -0.5291667,-0.5291666 V 1.5875 c 0,-0.2931583 0.2360084,-0.5291667 0.5291667,-0.5291667 z"
     sodipodi:nodetypes="ssssssssssssssssss" />
  <path
     d="m 5.0564806,2.1166674 c -0.1954386,0 -0.3527777,0.1573395 -0.3527777,0.3527787 V 3.2925933 L 5.2403952,3.8292855 C 4.9904666,4.4776079 4.4789706,4.9906396 3.8314019,5.242513 L 3.2925924,4.7037037 h -0.823148 c -0.1954381,0 -0.3527777,0.1573386 -0.3527777,0.3527779 v 0.9407403 c 0,0.1954387 0.1573395,0.3527774 0.3527777,0.3527774 H 2.9398149 C 4.8880886,6.3499993 6.35,4.8880884 6.35,2.9398157 V 2.4694461 C 6.35,2.2740069 6.19266,2.1166674 5.9972213,2.1166674 Z"
     style="fill:#f9f9f9;fill-opacity:1;stroke-width:0.235185;filter:url(#filter7554)"
     id="path3989" />
</svg>
