<?xml version="1.0" encoding="UTF-8" standalone="no"?>
<!-- Created with Inkscape (http://www.inkscape.org/) -->

<svg
   width="32"
   height="32"
   viewBox="0 0 8.4666666 8.4666666"
   version="1.1"
   id="svg5"
   inkscape:version="1.2 (dc2aedaf03, 2022-05-15)"
   sodipodi:docname="cuttlefish.svg"
   xmlns:inkscape="http://www.inkscape.org/namespaces/inkscape"
   xmlns:sodipodi="http://sodipodi.sourceforge.net/DTD/sodipodi-0.dtd"
   xmlns="http://www.w3.org/2000/svg"
   xmlns:svg="http://www.w3.org/2000/svg">
  <sodipodi:namedview
     id="namedview7"
     pagecolor="#ffffff"
     bordercolor="#666666"
     borderopacity="1.0"
     inkscape:pageshadow="2"
     inkscape:pageopacity="0.0"
     inkscape:pagecheckerboard="0"
     inkscape:document-units="px"
     showgrid="false"
     units="px"
     height="48px"
     inkscape:zoom="13.342157"
     inkscape:cx="-1.7613344"
     inkscape:cy="9.4437504"
     inkscape:window-width="1920"
     inkscape:window-height="1009"
     inkscape:window-x="0"
     inkscape:window-y="0"
     inkscape:window-maximized="1"
     inkscape:current-layer="svg5"
     inkscape:showpageshadow="2"
     inkscape:deskcolor="#d1d1d1" />
  <defs
     id="defs2" />
  <rect
     style="opacity:1;fill:#ffce51;fill-opacity:1;stroke-width:0.264583"
     id="rect1162"
     width="6.8791666"
     height="6.8791666"
     x="0.79374999"
     y="0.79374999"
     ry="0.66145831" />
  <path
     id="rect1014"
     style="opacity:0.5;fill:#000000;stroke-width:0.264583"
     d="m 1.4552083,0.79374999 c -0.3664479,0 -0.66145831,0.29501041 -0.66145831,0.66145831 v 5.5562499 c 0,0.366448 0.29501041,0.6614584 0.66145831,0.6614584 h 5.55625 c 0.3664479,0 0.6614583,-0.2950104 0.6614583,-0.6614584 V 1.4552083 c 0,-0.3664479 -0.2950104,-0.66145831 -0.6614583,-0.66145831 z M 1.5875,1.0583333 h 5.2916666 c 0.2931583,0 0.5291667,0.2360084 0.5291667,0.5291667 v 5.0270833 c 0,0.2931583 -0.2360084,0.5291666 -0.5291667,0.5291666 H 1.5875 c -0.2931583,0 -0.5291667,-0.2360083 -0.5291667,-0.5291666 V 1.5875 c 0,-0.2931583 0.2360084,-0.5291667 0.5291667,-0.5291667 z"
     sodipodi:nodetypes="ssssssssssssssssss" />
  <path
     d="m 4.2241751,2.1172467 c -0.8109479,0 -1.7293166,0.6746875 -1.9288918,1.4215269 -0.093932,0.5621337 0.015467,0.9588235 0.2991908,1.231159 0.0076,0.079513 0.022786,0.1590226 0.016123,0.2385351 -1.512e-4,0.00235 -6.059e-4,0.00469 -7.567e-4,0.00703 -0.00151,0.014954 -0.00378,0.029901 -0.00724,0.044855 -0.00151,0.00611 -0.00376,0.012293 -0.00558,0.018397 -0.00333,0.011369 -0.00659,0.022733 -0.01137,0.034105 -0.00399,0.00945 -0.00977,0.018865 -0.014877,0.028318 -0.00475,0.00881 -0.00866,0.017637 -0.014469,0.026458 -0.011929,0.018058 -0.025858,0.0361 -0.042788,0.054158 -0.066119,0.06985 -0.1239837,0.1140355 -0.1735984,0.1426105 -0.1488281,0.08599 -0.2232501,0.033073 -0.2232501,0.1389062 0,0.1146519 0.2619243,0.3224213 0.5020998,0.244946 0.036949,-0.011914 0.073432,-0.030456 0.1083125,-0.057258 0.017441,-0.013396 0.03452,-0.028869 0.051057,-0.046508 0.030316,-0.032337 0.056642,-0.062561 0.079994,-0.090951 0.023102,-0.027831 0.042704,-0.053393 0.060359,-0.077724 0.00404,0.035454 0.00171,0.080338 -0.015503,0.1488281 -0.068479,0.2726002 -0.4305564,0.2496609 -0.2571459,0.4431771 0.1343687,0.1499447 0.5360194,0.1557417 0.75819,-0.039068 -0.088556,0.2008189 -0.223176,0.3212043 0.03556,0.3212043 0.396875,0 0.79375,-0.2820458 0.79375,-0.7053792 0,0.4233333 0.396875,0.705485 0.79375,0.705485 0.2587493,0 0.124116,-0.1204118 0.035555,-0.3212306 0.2221759,0.1948101 0.6238346,0.1890183 0.75819,0.039068 C 5.9942506,5.8743828 5.6321789,5.8973196 5.5636888,5.6247167 5.5464539,5.5561103 5.5441149,5.5111602 5.5481869,5.4756822 c 0.035833,0.04939 0.080518,0.1050555 0.1403535,0.1688809 0.2645833,0.2820458 0.6614583,-2.646e-4 0.6614583,-0.1412875 0,-0.1411129 -0.1322916,6.8e-5 -0.396875,-0.2821517 C 5.8054598,5.0636122 5.8619086,4.906111 5.873336,4.7485782 6.1794589,4.4717447 6.2794185,4.0780182 6.1530799,3.5381095 5.8712987,2.7376391 5.0352154,2.1166091 4.2241087,2.1166091 Z"
     style="fill:#393634;fill-opacity:1;stroke-width:0.264583"
     id="path308" />
</svg>
