<?xml version="1.0" encoding="UTF-8" standalone="no"?>
<!-- Created with Inkscape (http://www.inkscape.org/) -->

<svg
   width="32"
   height="32"
   viewBox="0 0 8.4666665 8.4666665"
   version="1.1"
   id="svg5"
   inkscape:version="1.2 (dc2aedaf03, 2022-05-15)"
   sodipodi:docname="desktop-environment-mate.svg"
   xmlns:inkscape="http://www.inkscape.org/namespaces/inkscape"
   xmlns:sodipodi="http://sodipodi.sourceforge.net/DTD/sodipodi-0.dtd"
   xmlns="http://www.w3.org/2000/svg"
   xmlns:svg="http://www.w3.org/2000/svg">
  <sodipodi:namedview
     id="namedview7"
     pagecolor="#ffffff"
     bordercolor="#666666"
     borderopacity="1.0"
     inkscape:pageshadow="2"
     inkscape:pageopacity="0.0"
     inkscape:pagecheckerboard="0"
     inkscape:document-units="px"
     showgrid="false"
     units="px"
     height="48px"
     inkscape:zoom="25.53125"
     inkscape:cx="15.980416"
     inkscape:cy="16"
     inkscape:window-width="1846"
     inkscape:window-height="1011"
     inkscape:window-x="74"
     inkscape:window-y="32"
     inkscape:window-maximized="1"
     inkscape:current-layer="svg5"
     showguides="true"
     inkscape:showpageshadow="2"
     inkscape:deskcolor="#d1d1d1" />
  <defs
     id="defs2" />
  <path
     id="rect5567"
     style="opacity:1;fill:#87a752;fill-opacity:1;stroke-width:0.264583"
     d="m 4.2333333,0.26458332 c 2.1986875,0 3.96875,1.77006248 3.96875,3.96874998 v 0.2645836 c 0,2.1986875 -1.7700625,3.96875 -3.96875,3.96875 -2.1986875,0 -3.96874998,-1.7700625 -3.96874998,-3.96875 V 4.2333333 c 0,-2.1986875 1.77006248,-3.96874998 3.96874998,-3.96874998 z"
     sodipodi:nodetypes="sssssss" />
  <path
     id="path1427"
     style="opacity:0.5;fill:#000000;fill-opacity:1;stroke-width:0.264583"
     d="M 16 1 C 7.6900002 1 1 7.6900002 1 16 L 1 17 C 1 25.31 7.6900002 32 16 32 C 24.31 32 31 25.31 31 17 L 31 16 C 31 7.6900002 24.31 1 16 1 z M 16 2 A 14 14 0 0 1 30 16 A 14 14 0 0 1 16 30 A 14 14 0 0 1 2 16 A 14 14 0 0 1 16 2 z "
     transform="scale(0.26458333)" />
  <path
     id="path23866"
     style="fill:#ffffff;fill-opacity:1;stroke-width:0.529167;stroke-linejoin:round"
     d="M 4.2333334,2.1166666 A 2.1166666,2.1166666 0 0 0 2.4928711,3.0303059 l 0.2268596,0.135909 A 1.8520833,1.8520833 0 0 1 4.2333334,2.3812499 1.8520833,1.8520833 0 0 1 6.0854167,4.2333333 1.8520833,1.8520833 0 0 1 4.2333334,6.0854166 1.8520833,1.8520833 0 0 1 2.7197307,5.3004516 L 2.4928711,5.4363606 A 2.1166666,2.1166666 0 0 0 4.2333334,6.3499999 2.1166666,2.1166666 0 0 0 6.35,4.2333333 2.1166666,2.1166666 0 0 0 4.2333334,2.1166666 Z m 0,0.79375 A 1.3229166,1.3229166 0 0 0 3.1755168,3.4401 L 3.4039266,3.5770426 A 1.0583333,1.0583333 0 0 1 4.2333334,3.1749999 1.0583333,1.0583333 0 0 1 5.2916667,4.2333333 1.0583333,1.0583333 0 0 1 4.2333334,5.2916666 1.0583333,1.0583333 0 0 1 3.4039266,4.8896239 L 3.1755168,5.0265665 A 1.3229166,1.3229166 0 0 0 4.2333334,5.5562499 1.3229166,1.3229166 0 0 0 5.55625,4.2333333 1.3229166,1.3229166 0 0 0 4.2333334,2.9104166 Z M 2.1166667,3.1749999 V 5.2916666 L 3.96875,4.2333333 Z" />
</svg>
