<?xml version="1.0" encoding="UTF-8" standalone="no"?>
<!-- Created with Inkscape (http://www.inkscape.org/) -->

<svg
   width="32"
   height="32"
   viewBox="0 0 8.4666666 8.4666666"
   version="1.1"
   id="svg5"
   inkscape:version="1.1.2 (0a00cf5339, 2022-02-04, custom)"
   sodipodi:docname="desktop-environment-kde.svg"
   xmlns:inkscape="http://www.inkscape.org/namespaces/inkscape"
   xmlns:sodipodi="http://sodipodi.sourceforge.net/DTD/sodipodi-0.dtd"
   xmlns="http://www.w3.org/2000/svg"
   xmlns:svg="http://www.w3.org/2000/svg">
  <sodipodi:namedview
     id="namedview7"
     pagecolor="#ffffff"
     bordercolor="#666666"
     borderopacity="1.0"
     inkscape:pageshadow="2"
     inkscape:pageopacity="0.0"
     inkscape:pagecheckerboard="0"
     inkscape:document-units="px"
     showgrid="false"
     units="px"
     height="48px"
     inkscape:zoom="13.342157"
     inkscape:cx="15.402307"
     inkscape:cy="18.81255"
     inkscape:window-width="1920"
     inkscape:window-height="1017"
     inkscape:window-x="0"
     inkscape:window-y="0"
     inkscape:window-maximized="1"
     inkscape:current-layer="svg5" />
  <defs
     id="defs2" />
  <rect
     style="opacity:1;fill:#25668c;fill-opacity:1;stroke-width:0.264583"
     id="rect1162"
     width="6.8791666"
     height="6.8791666"
     x="0.79374999"
     y="0.79374999"
     ry="0.66145831" />
  <rect
     style="opacity:1;fill:#3daee9;fill-opacity:1;stroke-width:0.264583"
     id="rect1077"
     width="6.3499999"
     height="6.0854168"
     x="1.0583333"
     y="1.0583333"
     ry="0.52916664" />
  <path
     d="M 4.7624999,1.3229167 3.7041666,1.4831136 V 5.3113037 L 4.7624999,5.0270833 V 3.5481037 L 5.8208332,5.2916666 6.8791665,4.8947916 5.5562499,3.3072916 6.8796833,1.5880168 5.8528727,1.3229167 4.7624999,3.0582113 Z M 2.6075926,2.3610962 c -0.025028,0 -0.050055,0.00975 -0.069246,0.028939 L 2.1223509,2.8060303 c -0.038382,0.038382 -0.029142,0.093215 0,0.1390094 l 0.4304647,0.6759279 c -0.031893,0.066204 -0.059511,0.1343845 -0.082682,0.2041218 -0.00102,0.003 -0.00262,0.00578 -0.00362,0.00878 L 1.685685,4.0075064 C 1.632697,4.0192834 1.5875,4.0514114 1.5875,4.1056924 v 0.2599325 0.2599325 c 0,0.054281 0.045197,0.08641 0.098185,0.098185 l 0.7808309,0.1736328 c 0.00171,0.00513 0.00444,0.00987 0.0062,0.014986 0.022555,0.067744 0.049306,0.1340186 0.080099,0.1984375 L 2.1223508,5.7862102 c -0.029142,0.045795 -0.038383,0.1006271 0,0.1390094 L 2.5383462,6.341215 c 0.038382,0.038382 0.1001097,0.038382 0.138493,0 L 3.3517334,5.911267 c 0.066347,0.032266 0.1347007,0.060229 0.2046385,0.083716 0.00459,0.00161 0.00883,0.00411 0.013436,0.00568 l 0.1731159,0.7803139 c 0,0.054281 0.043905,0.098185 0.098185,0.098185 h 0.587561 c 0.054281,0 0.08641,-0.045197 0.098185,-0.098185 L 4.6999709,5.9768948 c 0.079535,-0.029901 0.1567439,-0.065656 0.2309937,-0.1069702 l 0.6588744,0.471289 c 0.038383,0.038382 0.1001106,0.038382 0.138493,0 L 6.1443271,5.9252183 c 0.038382,-0.038382 0.029142,-0.093215 0,-0.1390095 L 5.8936965,5.4058703 5.8673414,5.415689 c -0.059598,0.022386 -0.1266891,-8.467e-4 -0.15968,-0.055294 L 5.444112,4.9263143 c -0.2195872,0.5252495 -0.7381697,0.894519 -1.3430704,0.894519 -0.8036894,0 -1.4552085,-0.651519 -1.4552085,-1.4552084 0,-0.6167225 0.3843865,-1.1425634 0.9260418,-1.3544393 V 2.7212808 l -0.00206,0.0093 c -0.00584,0.00198 -0.011232,0.00518 -0.017052,0.00723 -0.06901,0.022918 -0.1364972,0.050188 -0.2020548,0.081649 L 2.6768392,2.390035 C 2.6576472,2.370844 2.6326202,2.361096 2.6075926,2.3610962 Z"
     style="fill:#ffffff;stroke-width:0.264583"
     id="path858" />
</svg>
