<?xml version="1.0" encoding="UTF-8" standalone="no"?>
<!-- Created with Inkscape (http://www.inkscape.org/) -->

<svg
   width="32"
   height="32"
   viewBox="0 0 8.4666665 8.4666665"
   version="1.1"
   id="svg5"
   inkscape:version="1.2 (dc2aedaf03, 2022-05-15)"
   sodipodi:docname="discord.svg"
   xmlns:inkscape="http://www.inkscape.org/namespaces/inkscape"
   xmlns:sodipodi="http://sodipodi.sourceforge.net/DTD/sodipodi-0.dtd"
   xmlns="http://www.w3.org/2000/svg"
   xmlns:svg="http://www.w3.org/2000/svg">
  <sodipodi:namedview
     id="namedview7"
     pagecolor="#ffffff"
     bordercolor="#666666"
     borderopacity="1.0"
     inkscape:pageshadow="2"
     inkscape:pageopacity="0.0"
     inkscape:pagecheckerboard="0"
     inkscape:document-units="px"
     showgrid="false"
     units="px"
     height="48px"
     inkscape:zoom="17.721864"
     inkscape:cx="17.915723"
     inkscape:cy="22.091356"
     inkscape:window-width="1920"
     inkscape:window-height="1017"
     inkscape:window-x="0"
     inkscape:window-y="0"
     inkscape:window-maximized="1"
     inkscape:current-layer="svg5"
     showguides="true"
     inkscape:showpageshadow="2"
     inkscape:deskcolor="#d1d1d1" />
  <defs
     id="defs2" />
  <path
     id="rect5567"
     style="opacity:1;fill:#5865f4;fill-opacity:1;stroke-width:0.264583"
     d="m 4.2333333,0.26458332 c 2.1986875,0 3.96875,1.77006248 3.96875,3.96874998 v 0.2645836 c 0,2.1986875 -1.7700625,3.96875 -3.96875,3.96875 -2.1986875,0 -3.96874998,-1.7700625 -3.96874998,-3.96875 V 4.2333333 c 0,-2.1986875 1.77006248,-3.96874998 3.96874998,-3.96874998 z"
     sodipodi:nodetypes="sssssss" />
  <path
     d="m 3.5513089,2.3811739 c -0.3401448,0.059782 -0.665721,0.1646388 -0.9694498,0.3069579 -0.00263,0.00116 -0.00471,0.00318 -0.0062,0.00569 -0.6174084,0.9412714 -0.7868043,1.8594869 -0.7038329,2.7662394 3.836e-4,0.00443 0.00282,0.00816 0.0062,0.010853 0.4073484,0.3052691 0.8018155,0.4910772 1.1890747,0.6139161 0.0062,0.00193 0.01311,-4.762e-4 0.017052,-0.00568 L 3.3187643,5.8154213 C 3.1892399,5.7652825 3.0663655,5.7039746 2.9477274,5.6345538 c -0.00938,-0.00559 -0.010684,-0.019278 -0.00206,-0.025839 0.024966,-0.019092 0.050575,-0.038855 0.074414,-0.058911 0.00432,-0.00366 0.00992,-0.00438 0.014986,-0.00206 0.7794014,0.3631296 1.6234468,0.3631296 2.3936524,0 0.00507,-0.00251 0.011001,-0.00214 0.015502,0.00156 0.023847,0.020058 0.048744,0.040338 0.073897,0.059428 0.00863,0.00656 0.00783,0.020243 -0.00156,0.025839 -0.1186381,0.070769 -0.2418408,0.1309203 -0.3715536,0.1808676 0,0 0.2516632,0.2694069 0.2351267,0.2632051 0.00376,0.0054 0.010337,0.00813 0.016536,0.0062 0.3891378,-0.1228389 0.7837929,-0.3086468 1.191142,-0.6139161 0.00357,-0.0027 0.00583,-0.00642 0.0062,-0.010853 0.0993,-1.0483051 -0.1665377,-1.9589914 -0.7043497,-2.7662394 -0.0013,-0.0027 -0.00357,-0.00453 -0.0062,-0.00569 C 5.5799148,2.5460204 5.2548557,2.4416803 4.9145232,2.3817065 c -0.0062,-0.00117 -0.012308,0.00146 -0.015502,0.00723 -0.041862,0.075979 -0.088451,0.1375818 -0.1209228,0.2154907 -0.3660494,-0.055923 -0.7302791,-0.055923 -1.0888226,0 -0.032479,-0.079641 -0.080423,-0.1395114 -0.122473,-0.2154907 -0.00319,-0.00559 -0.0093,-0.0082 -0.015502,-0.00723 z m -0.1122424,1.5875 c 0.2969935,0 0.5343263,0.2395728 0.5296834,0.5291667 0,0.2916787 -0.2350114,0.5291666 -0.5296834,0.5291666 -0.2900463,0 -0.5286499,-0.2374879 -0.5286499,-0.5291666 0,-0.2916794 0.2339691,-0.5291667 0.5286499,-0.5291667 z m 1.5880168,0 c 0.2970024,0 0.5338016,0.2395728 0.5291666,0.5291667 3e-7,0.2916787 -0.2321642,0.5291666 -0.5291666,0.5291666 -0.2900371,0 -0.5291667,-0.2374879 -0.5291667,-0.5291666 0,-0.2916794 0.2344862,-0.5291667 0.5291667,-0.5291667 z"
     style="fill:#ffffff;stroke-width:0.264583"
     id="path304"
     sodipodi:nodetypes="ccccccccccccccccccccccccccccccscsssscsss" />
  <path
     id="path1427"
     style="opacity:0.5;fill:#000000;fill-opacity:1;stroke-width:0.264583"
     d="M 16 1 C 7.6900002 1 1 7.6900002 1 16 L 1 17 C 1 25.31 7.6900002 32 16 32 C 24.31 32 31 25.31 31 17 L 31 16 C 31 7.6900002 24.31 1 16 1 z M 16 2 A 14 14 0 0 1 30 16 A 14 14 0 0 1 16 30 A 14 14 0 0 1 2 16 A 14 14 0 0 1 16 2 z "
     transform="scale(0.26458333)" />
</svg>
