<?xml version="1.0" encoding="UTF-8" standalone="no"?>
<!-- Created with Inkscape (http://www.inkscape.org/) -->

<svg
   width="32"
   height="32"
   viewBox="0 0 32 32.000001"
   version="1.1"
   id="svg5"
   inkscape:version="1.2.1 (9c6d41e410, 2022-07-14, custom)"
   sodipodi:docname="dolphin-emu.svg"
   xmlns:inkscape="http://www.inkscape.org/namespaces/inkscape"
   xmlns:sodipodi="http://sodipodi.sourceforge.net/DTD/sodipodi-0.dtd"
   xmlns="http://www.w3.org/2000/svg"
   xmlns:svg="http://www.w3.org/2000/svg">
  <sodipodi:namedview
     id="namedview7"
     pagecolor="#ffffff"
     bordercolor="#000000"
     borderopacity="0.25"
     inkscape:showpageshadow="2"
     inkscape:pageopacity="0.0"
     inkscape:pagecheckerboard="0"
     inkscape:deskcolor="#d1d1d1"
     inkscape:document-units="px"
     showgrid="false"
     showguides="false"
     inkscape:zoom="25.0625"
     inkscape:cx="16"
     inkscape:cy="16"
     inkscape:window-width="1920"
     inkscape:window-height="1011"
     inkscape:window-x="0"
     inkscape:window-y="0"
     inkscape:window-maximized="1"
     inkscape:current-layer="svg5" />
  <defs
     id="defs2" />
  <rect
     style="fill:#ededed;fill-opacity:1;stroke-width:0.999999"
     id="rect1162"
     width="26"
     height="26"
     x="3"
     y="3"
     ry="2.5" />
  <path
     id="rect1014"
     style="opacity:0.5;fill:#000000;stroke-width:0.999999"
     d="M 5.4999999,3 C 4.115,3 3,4.115 3,5.4999999 V 26.5 C 3,27.885 4.115,29 5.4999999,29 H 26.500001 c 1.385,0 2.5,-1.115 2.5,-2.5 V 5.4999999 C 29.000001,4.115 27.885001,3 26.500001,3 Z M 6,3.9999999 h 20.000001 c 1.107999,0 2,0.8920002 2,2.0000001 v 19 c 0,1.108 -0.892001,2 -2,2 H 6 C 4.8920002,27 3.9999999,26.108 3.9999999,25 V 6 C 3.9999999,4.8920001 4.8920002,3.9999999 6,3.9999999 Z"
     sodipodi:nodetypes="ssssssssssssssssss" />
  <path
     d="m 18.937371,11.010623 c -0.931983,0.05978 -1.768966,0.606034 -1.925388,0.679741 -0.49957,-0.147413 -1.074483,-0.442242 -1.743578,-0.556897 -2.316854,-0.393103 -4.276639,0.237501 -5.261036,0.917242 -1.2890521,0.895129 -1.2538362,1.9 -1.3603016,2.316854 -0.065848,0.262069 -0.6551724,0.737069 -0.6469828,1.071207 0.011464,0.434052 0.2866378,0.581465 0.2866378,0.581465 0.2456892,-0.01941 0.614224,-0.196551 0.927069,-0.327585 0.4668104,-0.188363 0.4995695,-0.294829 1.7738796,-0.483191 0.581466,-0.09009 1.201423,-0.114655 1.660044,-0.114655 0.180172,0.376724 0.622414,1.152285 1.391422,1.524096 0.458621,0.212931 1.143276,0.303017 1.447113,0.360344 l 0.887758,0.131035 v -0.360345 h -0.0011 c 0,0 -0.745259,-0.311207 -1.203879,-0.769827 -0.196552,-0.196553 -0.196552,-0.425863 -0.24569,-0.655174 0.70431,0.131035 1.335733,0.237501 2.826251,0.802587 1.372586,0.524138 2.309483,1.289052 2.310302,1.289871 l 0.0011,0.0011 0.0022,0.0022 v -0.360345 l -0.0034,-0.0022 c -0.01245,-0.01548 -0.97375,-1.207155 -2.590388,-2.004827 -1.336552,-0.655174 -2.433966,-0.985216 -3.953967,-1.058923 -1.578966,-0.07658 -2.628061,0.106465 -2.742716,0.122844 0.139224,-0.270258 0.409483,-0.72069 1.145733,-1.067112 1.090863,-0.507758 2.805776,-0.597845 4.775389,-0.09828 2.782026,0.7125 3.731207,2.024484 4.928536,3.274225 1.273491,1.328363 2.373362,3.560863 2.374181,3.56332 l 0.001,0.0023 0.0023,0.0056 v -0.360301 l -0.01007,-0.02793 C 23.93656,19.22889 23.604876,18.155225 23.047161,17.124148 22.310091,15.765483 21.67785,14.794191 20.623022,13.808156 19.885953,13.259449 19.138238,12.511733 19.265996,12.189061 19.593583,11.755009 20.495264,11.48475 20.49854,11.48475 h 0.0022 v -10e-4 -0.360345 c 0,0 -0.565087,-0.196551 -1.560949,-0.131034 z m 1.114612,6.408406 c 0,0 0.0089,0.0078 0,0 z"
     style="fill:#0096f4;stroke-width:0.799756"
     id="path1698" />
</svg>
