<?xml version="1.0" encoding="UTF-8" standalone="no"?>
<!-- Created with Inkscape (http://www.inkscape.org/) -->

<svg
   width="32"
   height="32"
   viewBox="0 0 8.4666665 8.4666665"
   version="1.1"
   id="svg5"
   inkscape:version="1.1.2 (0a00cf5339, 2022-02-04, custom)"
   sodipodi:docname="elisa.svg"
   xmlns:inkscape="http://www.inkscape.org/namespaces/inkscape"
   xmlns:sodipodi="http://sodipodi.sourceforge.net/DTD/sodipodi-0.dtd"
   xmlns="http://www.w3.org/2000/svg"
   xmlns:svg="http://www.w3.org/2000/svg">
  <sodipodi:namedview
     id="namedview7"
     pagecolor="#ffffff"
     bordercolor="#666666"
     borderopacity="1.0"
     inkscape:pageshadow="2"
     inkscape:pageopacity="0.0"
     inkscape:pagecheckerboard="0"
     inkscape:document-units="px"
     showgrid="false"
     units="px"
     height="48px"
     inkscape:zoom="18.227272"
     inkscape:cx="8.6408981"
     inkscape:cy="18.735662"
     inkscape:window-width="1920"
     inkscape:window-height="1005"
     inkscape:window-x="0"
     inkscape:window-y="0"
     inkscape:window-maximized="1"
     inkscape:current-layer="svg5"
     showguides="false" />
  <defs
     id="defs2" />
  <rect
     style="opacity:1;fill:#676767;fill-opacity:1;stroke-width:0.264583"
     id="rect1162"
     width="7.4083333"
     height="5.8208332"
     x="0.52916664"
     y="1.8520833"
     ry="0.52916664" />
  <rect
     style="opacity:1;fill:#43b9a9;fill-opacity:1;stroke-width:0.383418"
     id="rect1437"
     width="5.8208332"
     height="3.7041667"
     x="1.3229166"
     y="2.6458333"
     ry="0.26458332" />
  <rect
     style="fill:#676767;fill-opacity:1;stroke-width:0.264583;stroke-linecap:round"
     id="rect1758"
     width="4.7624998"
     height="1.5875"
     x="1.8520833"
     y="3.7041667"
     ry="0.79374999" />
  <circle
     style="fill:#f2f2f2;fill-opacity:1;stroke-width:0.211666;stroke-linecap:round"
     id="path1964"
     cx="2.645833"
     cy="4.4979157"
     r="0.52916634" />
  <circle
     style="fill:#f2f2f2;fill-opacity:1;stroke-width:0.211666;stroke-linecap:round"
     id="path1964-3"
     cx="5.8208327"
     cy="4.4979167"
     r="0.52916634" />
  <rect
     style="fill:#cdcdcd;fill-opacity:1;stroke-width:0.289836;stroke-linecap:round"
     id="rect2117"
     width="1.5875"
     height="1.0583327"
     x="3.439584"
     y="3.9687502" />
  <path
     id="rect2367"
     style="fill:#74582d;fill-opacity:1;stroke-width:0.264583;stroke-linecap:round"
     d="M 3.4395835,3.9687507 V 5.0270833 H 4.001306 A 1.4552073,1.4552073 0 0 0 4.1010414,4.497917 1.4552073,1.4552073 0 0 0 4.001306,3.9687507 Z" />
  <path
     id="rect1825"
     style="opacity:0.5;fill:#000000;fill-opacity:1;stroke-width:0.264583"
     d="m 1.0583333,1.8520834 c -0.2931583,0 -0.52916664,0.2360084 -0.52916664,0.5291667 v 4.7625 c 0,0.2931583 0.23600834,0.5291667 0.52916664,0.5291667 h 6.35 c 0.2931583,0 0.5291666,-0.2360084 0.5291666,-0.5291667 v -4.7625 c 0,-0.2931583 -0.2360083,-0.5291667 -0.5291666,-0.5291667 z M 1.190625,2.1166668 h 6.0854166 c 0.2198687,0 0.396875,0.1770062 0.396875,0.396875 V 6.746875 c 0,0.2198688 -0.1770063,0.396875 -0.396875,0.396875 H 1.190625 c -0.21986876,0 -0.39687501,-0.1770062 -0.39687501,-0.396875 V 2.5135418 c 0,-0.2198688 0.17700625,-0.396875 0.39687501,-0.396875 z"
     sodipodi:nodetypes="ssssssssssssssssss" />
</svg>
