<?xml version="1.0" encoding="UTF-8" standalone="no"?>
<!-- Created with Inkscape (http://www.inkscape.org/) -->

<svg
   width="32"
   height="32"
   viewBox="0 0 8.4666665 8.4666665"
   version="1.1"
   id="svg5"
   inkscape:version="1.1.2 (0a00cf5339, 2022-02-04, custom)"
   sodipodi:docname="emacs.svg"
   xmlns:inkscape="http://www.inkscape.org/namespaces/inkscape"
   xmlns:sodipodi="http://sodipodi.sourceforge.net/DTD/sodipodi-0.dtd"
   xmlns="http://www.w3.org/2000/svg"
   xmlns:svg="http://www.w3.org/2000/svg">
  <sodipodi:namedview
     id="namedview7"
     pagecolor="#ffffff"
     bordercolor="#666666"
     borderopacity="1.0"
     inkscape:pageshadow="2"
     inkscape:pageopacity="0.0"
     inkscape:pagecheckerboard="0"
     inkscape:document-units="px"
     showgrid="false"
     units="px"
     height="48px"
     inkscape:zoom="25.0625"
     inkscape:cx="16.01995"
     inkscape:cy="16"
     inkscape:window-width="1920"
     inkscape:window-height="1017"
     inkscape:window-x="0"
     inkscape:window-y="0"
     inkscape:window-maximized="1"
     inkscape:current-layer="svg5" />
  <defs
     id="defs2" />
  <path
     id="rect5567"
     style="opacity:1;fill:#583d78;stroke-width:0.264583;fill-opacity:1"
     d="m 4.2333333,0.26458332 c 2.1986875,0 3.96875,1.77006248 3.96875,3.96874998 v 0.2645836 c 0,2.1986875 -1.7700625,3.96875 -3.96875,3.96875 -2.1986875,0 -3.96874998,-1.7700625 -3.96874998,-3.96875 V 4.2333333 c 0,-2.1986875 1.77006248,-3.96874998 3.96874998,-3.96874998 z" />
  <circle
     style="opacity:1;fill:#9c6ed5;fill-opacity:1;stroke-width:0.264583"
     id="path4871"
     cx="4.2333331"
     cy="4.2333331"
     r="3.7041667" />
  <path
     d="m 2.5943365,6.6655363 c 0,0 0.2838978,0.082434 0.6618022,0.1295583 0.1530403,0.019084 0.73533,0.085789 1.1817879,0.084042 0,0 0.5437452,5.027e-4 0.8438885,-0.042021 C 5.5958756,6.7925045 5.7737814,6.7355689 5.8728149,6.6219488 5.8754078,6.5948582 5.9206093,6.5065506 5.7985305,6.4213918 5.486428,6.2036717 5.0829649,6.1440822 4.2992691,5.9579479 3.4326528,5.7400661 3.1736787,5.5314131 3.044271,5.3804416 2.9216048,5.2291107 3.0672976,4.9148281 3.7656045,4.7606554 4.1191672,4.6746152 5.435972,4.6588067 5.435972,4.6588067 5.0581734,4.358875 4.3489314,3.8218766 4.2039662,3.7076825 4.076818,3.6075245 3.8719141,3.4538227 3.8499007,3.3164696 3.8201907,3.182765 4.0306482,3.1183866 4.1420801,3.1109597 c 0.3590131,-0.02476 0.849286,0.017333 1.2850548,0.1039919 0.2190485,0.043561 0.2575057,0.037142 0.2575057,0.037142 C 5.9966108,3.2669499 6.2392602,3.1035329 6.2268777,2.7593601 6.2243906,2.4102424 5.8753523,2.1302868 5.4890342,2.118063 5.1252321,2.1065457 4.2287444,2.1700589 4.2287444,2.1700589 5.2736369,2.3854747 5.4444519,2.4404367 5.498956,2.5662196 5.531235,2.640541 5.445246,2.7143862 5.157379,2.6999665 4.8438477,2.6842503 4.2014394,2.6083412 4.2014394,2.6083412 3.5899873,2.5142554 3.1640081,2.4251173 2.9782706,2.6677667 2.8569486,2.8262918 2.9956061,3.0193716 3.0500759,3.1332483 3.2927253,3.556661 3.712328,3.847147 3.9785782,4.0518551 4.0787627,4.1288833 4.3846342,4.2994575 4.3846342,4.2994575 3.433854,4.0394753 2.6761932,4.1855597 2.1958422,4.438115 1.6436833,4.7649548 1.7381396,5.3164788 2.6142808,5.8321253 3.1317792,6.1366871 3.3894305,6.2829753 4.2367057,6.3870092 4.7319528,6.4659772 4.8057451,6.4982879 4.801988,6.53951 4.796678,6.597549 4.2158036,6.619541 4.056154,6.630553 3.6499657,6.658564 2.5994641,6.665568 2.5942254,6.665568 Z"
     style="opacity:0.3;fill:#000000;stroke-width:0.0700042"
     id="path1017" />
  <path
     d="m 2.5943365,6.4009528 c 0,0 0.2838979,0.082434 0.6618023,0.1295585 0.1530403,0.019084 0.73533,0.085789 1.1817879,0.084042 0,0 0.5437452,5.027e-4 0.8438885,-0.042021 C 5.5958756,6.5279211 5.7737814,6.4709854 5.872815,6.3573654 5.8754079,6.3302747 5.9206093,6.2419673 5.7985306,6.1568085 5.4864281,5.9390882 5.0829649,5.8794988 4.2992691,5.6933644 3.4326529,5.4754827 3.1736787,5.2668296 3.044271,5.1158583 2.9216049,4.9645273 3.0672977,4.6502446 3.7656045,4.4960719 4.1191672,4.410032 5.435972,4.3942232 5.435972,4.3942232 5.0581735,4.0942915 4.3489314,3.5572932 4.2039662,3.443099 4.076818,3.342941 3.8719141,3.1892393 3.8499008,3.0518861 3.8201907,2.9181816 4.0306483,2.8538032 4.1420802,2.8463763 c 0.3590131,-0.02476 0.849286,0.017333 1.2850547,0.1039918 0.2190486,0.043561 0.2575058,0.037142 0.2575058,0.037142 C 5.9966109,3.0023667 6.2392602,2.8389495 6.2268777,2.4947768 6.2243907,2.1456591 5.8753523,1.8657035 5.4890342,1.8534797 5.1252321,1.8419624 4.2287444,1.9054756 4.2287444,1.9054756 5.2736369,2.1208914 5.4444519,2.1758534 5.4989561,2.3016363 5.5312353,2.3759577 5.4452457,2.4498029 5.157379,2.4353832 4.8438478,2.4196669 4.2014394,2.3437579 4.2014394,2.3437579 3.5899874,2.2496721 3.1640082,2.160534 2.9782707,2.4031834 2.8569487,2.5617085 2.9956062,2.7547882 3.050076,2.8686648 3.2927253,3.2920775 3.712328,3.5825636 3.9785783,3.7872717 4.0787627,3.8642998 4.3846343,4.0348741 4.3846343,4.0348741 3.4338541,3.7748918 2.6761933,3.9209762 2.1958422,4.1735316 1.6436833,4.5003714 1.7381396,5.0518953 2.6142808,5.5675418 c 0.5174985,0.3045619 0.7751498,0.45085 1.6224249,0.5548841 0.4952471,0.078968 0.5690394,0.1112785 0.5652823,0.1525006 -0.00531,0.058039 -0.5861843,0.080031 -0.7458339,0.091043 -0.4061883,0.028011 -1.45669,0.035015 -1.4619287,0.035015 z"
     style="fill:#ffffff;stroke-width:0.264583"
     id="path858-3"
     sodipodi:nodetypes="csccccccccsccscccccccccscccccccc" />
</svg>
