<?xml version="1.0" encoding="UTF-8" standalone="no"?>
<!-- Created with Inkscape (http://www.inkscape.org/) -->

<svg
   width="32"
   height="32"
   viewBox="0 0 8.4666666 8.4666666"
   version="1.1"
   id="svg5"
   inkscape:version="1.2 (dc2aedaf03, 2022-05-15)"
   sodipodi:docname="gnome-boxes.svg"
   xmlns:inkscape="http://www.inkscape.org/namespaces/inkscape"
   xmlns:sodipodi="http://sodipodi.sourceforge.net/DTD/sodipodi-0.dtd"
   xmlns="http://www.w3.org/2000/svg"
   xmlns:svg="http://www.w3.org/2000/svg">
  <sodipodi:namedview
     id="namedview7"
     pagecolor="#ffffff"
     bordercolor="#666666"
     borderopacity="1.0"
     inkscape:pageshadow="2"
     inkscape:pageopacity="0.0"
     inkscape:pagecheckerboard="0"
     inkscape:document-units="px"
     showgrid="false"
     units="px"
     height="48px"
     inkscape:zoom="25.4375"
     inkscape:cx="15.980344"
     inkscape:cy="16"
     inkscape:window-width="1920"
     inkscape:window-height="1011"
     inkscape:window-x="0"
     inkscape:window-y="0"
     inkscape:window-maximized="1"
     inkscape:current-layer="svg5"
     inkscape:showpageshadow="2"
     inkscape:deskcolor="#d1d1d1" />
  <defs
     id="defs2" />
  <rect
     style="opacity:1;fill:#424242;fill-opacity:1;stroke-width:0.264583"
     id="rect1162"
     width="6.8791666"
     height="6.8791666"
     x="0.79374999"
     y="0.79374999"
     ry="0.66145831" />
  <path
     d="M 2.3812501,2.5683184 V 5.8983483 L 2.5683187,6.0854167 H 5.8983481 L 6.0854167,5.8983483 V 2.5683184 L 5.8983481,2.38125 H 2.5683187 Z m 0.451652,0.077515 H 5.6337648 L 5.1045981,3.175 H 3.3620687 Z M 2.6458334,2.8329017 3.1750001,3.3620684 V 5.1045983 L 2.6458334,5.633765 Z m 3.175,0 V 5.633765 L 5.2916667,5.1045983 V 3.3620684 Z m -2.38125,0.6066817 h 1.5875 v 1.5875 h -1.5875 z M 3.3620687,5.2916667 H 5.1045981 L 5.6337648,5.8208333 H 2.8329021 Z"
     style="color:#000000;opacity:0.6;fill:#ffffff;stroke:none;stroke-width:0.264583;stroke-linecap:round;-inkscape-stroke:none"
     id="path1138" />
  <path
     d="m 2.5135417,2.1166667 c -0.219188,0 -0.396875,0.177687 -0.396875,0.396875 0,0.219188 0.177687,0.396875 0.396875,0.396875 0.219188,0 0.396875,-0.177687 0.396875,-0.396875 0,-0.219188 -0.177687,-0.396875 -0.396875,-0.396875 z m 3.4395833,0 c -0.2191879,0 -0.396875,0.177687 -0.396875,0.396875 0,0.219188 0.1776871,0.396875 0.396875,0.396875 0.219188,0 0.396875,-0.177687 0.396875,-0.396875 0,-0.219188 -0.177687,-0.396875 -0.396875,-0.396875 z m -2.6458333,0.79375 c -0.219188,0 -0.396875,0.177687 -0.396875,0.396875 0,0.219188 0.177687,0.396875 0.396875,0.396875 0.219188,0 0.396875,-0.177687 0.396875,-0.396875 0,-0.219188 -0.177687,-0.396875 -0.396875,-0.396875 z m 1.8520832,0 c -0.2191878,0 -0.3968749,0.177687 -0.3968749,0.396875 0,0.219188 0.1776871,0.396875 0.3968749,0.396875 0.219188,0 0.3968751,-0.177687 0.3968751,-0.396875 0,-0.219188 -0.1776871,-0.396875 -0.3968751,-0.396875 z M 3.3072917,4.7625 c -0.219188,0 -0.396875,0.177687 -0.396875,0.396875 0,0.2191879 0.177687,0.396875 0.396875,0.396875 0.219188,0 0.396875,-0.1776871 0.396875,-0.396875 0,-0.219188 -0.177687,-0.396875 -0.396875,-0.396875 z m 1.8520833,0 c -0.2191879,0 -0.396875,0.177687 -0.396875,0.396875 0,0.2191879 0.1776871,0.396875 0.396875,0.396875 0.219188,0 0.396875,-0.1776871 0.396875,-0.396875 C 5.55625,4.940187 5.378563,4.7625 5.159375,4.7625 Z M 2.5135417,5.55625 c -0.219188,0 -0.396875,0.177687 -0.396875,0.396875 0,0.2191879 0.177687,0.396875 0.396875,0.396875 0.219188,0 0.396875,-0.1776871 0.396875,-0.396875 0,-0.219188 -0.177687,-0.396875 -0.396875,-0.396875 z m 3.4395833,0 C 5.7339371,5.55625 5.55625,5.733937 5.55625,5.953125 5.55625,6.1723129 5.7339371,6.35 5.953125,6.35 6.172313,6.35 6.35,6.1723129 6.35,5.953125 6.35,5.733937 6.172313,5.55625 5.953125,5.55625 Z"
     id="path3577"
     style="fill:#ffffff;stroke-width:0.264583" />
  <path
     id="rect1014"
     style="opacity:0.5;fill:#000000;stroke-width:0.264583"
     d="m 1.4552083,0.79374999 c -0.3664479,0 -0.66145831,0.29501041 -0.66145831,0.66145831 v 5.5562499 c 0,0.366448 0.29501041,0.6614584 0.66145831,0.6614584 h 5.55625 c 0.3664479,0 0.6614583,-0.2950104 0.6614583,-0.6614584 V 1.4552083 c 0,-0.3664479 -0.2950104,-0.66145831 -0.6614583,-0.66145831 z M 1.5875,1.0583333 h 5.2916666 c 0.2931583,0 0.5291667,0.2360084 0.5291667,0.5291667 v 5.0270833 c 0,0.2931583 -0.2360084,0.5291666 -0.5291667,0.5291666 H 1.5875 c -0.2931583,0 -0.5291667,-0.2360083 -0.5291667,-0.5291666 V 1.5875 c 0,-0.2931583 0.2360084,-0.5291667 0.5291667,-0.5291667 z"
     sodipodi:nodetypes="ssssssssssssssssss" />
</svg>
