<?xml version="1.0" encoding="UTF-8" standalone="no"?>
<!-- Created with Inkscape (http://www.inkscape.org/) -->

<svg
   width="32"
   height="32"
   viewBox="0 0 8.4666666 8.4666666"
   version="1.1"
   id="svg5"
   inkscape:version="1.2 (dc2aedaf03, 2022-05-15)"
   sodipodi:docname="goa-account-lastfm.svg"
   xmlns:inkscape="http://www.inkscape.org/namespaces/inkscape"
   xmlns:sodipodi="http://sodipodi.sourceforge.net/DTD/sodipodi-0.dtd"
   xmlns="http://www.w3.org/2000/svg"
   xmlns:svg="http://www.w3.org/2000/svg">
  <sodipodi:namedview
     id="namedview7"
     pagecolor="#ffffff"
     bordercolor="#666666"
     borderopacity="1.0"
     inkscape:pageshadow="2"
     inkscape:pageopacity="0.0"
     inkscape:pagecheckerboard="0"
     inkscape:document-units="px"
     showgrid="false"
     units="px"
     height="48px"
     inkscape:zoom="12.71875"
     inkscape:cx="7.3120393"
     inkscape:cy="16.943489"
     inkscape:window-width="1846"
     inkscape:window-height="1011"
     inkscape:window-x="74"
     inkscape:window-y="32"
     inkscape:window-maximized="1"
     inkscape:current-layer="svg5"
     inkscape:showpageshadow="2"
     inkscape:deskcolor="#d1d1d1" />
  <defs
     id="defs2" />
  <rect
     style="fill:#cf3b00;fill-opacity:1;stroke-width:0.264583"
     id="rect1162"
     width="6.8791666"
     height="6.8791666"
     x="0.79375005"
     y="0.79374999"
     ry="0.66145831" />
  <path
     id="rect1014"
     style="opacity:0.5;fill:#000000;stroke-width:0.264583"
     d="m 1.4552083,0.79374999 c -0.3664479,0 -0.66145831,0.29501041 -0.66145831,0.66145831 v 5.5562499 c 0,0.366448 0.29501041,0.6614584 0.66145831,0.6614584 h 5.55625 c 0.3664479,0 0.6614583,-0.2950104 0.6614583,-0.6614584 V 1.4552083 c 0,-0.3664479 -0.2950104,-0.66145831 -0.6614583,-0.66145831 z M 1.5875,1.0583333 h 5.2916666 c 0.2931583,0 0.5291667,0.2360084 0.5291667,0.5291667 v 5.2916666 c 0,0.2931583 -0.2360084,0.5291666 -0.5291667,0.5291666 H 1.5875 c -0.2931583,0 -0.5291667,-0.2360083 -0.5291667,-0.5291666 V 1.5875 c 0,-0.2931583 0.2360084,-0.5291667 0.5291667,-0.5291667 z"
     sodipodi:nodetypes="ssssssssssssssssss" />
  <path
     d="M 3.1892121,5.2791481 C 3.1045132,5.2675064 2.9538467,5.2177648 2.8533479,5.1686316 2.1985591,4.8499675 1.9307796,4.0473804 2.2532876,3.3713435 2.6217284,2.5983633 3.6270412,2.4013281 4.2319879,2.9835437 4.4069241,3.1516335 4.484619,3.2950642 4.7480006,3.9310696 c 0.274946,0.6651095 0.3257655,0.7696729 0.4148624,0.8583347 0.095449,0.094324 0.1838947,0.126074 0.3531298,0.126074 0.2780409,0 0.476595,-0.1745456 0.476595,-0.4180946 0,-0.2061369 -0.071343,-0.2721504 -0.4352229,-0.4033573 C 5.0032377,3.8910116 4.823741,3.7075496 4.8230893,3.3390908 c 0,-0.1965589 0.049028,-0.3276071 0.1736331,-0.4634177 C 5.1755677,2.68176 5.4840677,2.6177308 5.7570592,2.7140127 c 0.1164614,0.042042 0.3601339,0.2610908 0.3601339,0.3237971 0,0.030427 -0.1412192,0.1234281 -0.2195661,0.145415 C 5.856255,3.1940728 5.820584,3.1800448 5.7728591,3.1334298 5.6761061,3.0391318 5.6106277,3.0100017 5.494818,3.0100017 c -0.1998573,0 -0.3238109,0.1221052 -0.3238109,0.3193256 0,0.1965589 0.078835,0.2630487 0.4726858,0.3980656 0.5427255,0.1861344 0.7030022,0.3542242 0.7062597,0.7431881 0.00326,0.3360473 -0.1457801,0.5784321 -0.4422267,0.7218627 -0.1348668,0.064691 -0.1806371,0.072972 -0.4008546,0.072972 -0.3143636,0 -0.4555831,-0.059399 -0.6318223,-0.2610908 C 4.7566334,4.8686735 4.6364258,4.6140385 4.2515338,3.6845308 4.0919088,3.2993769 3.8870022,3.1105967 3.5452741,3.0363017 3.3721297,2.9987573 3.131063,3.0336558 2.9738812,3.1177139 2.8206084,3.1991262 2.6494187,3.3827735 2.5686286,3.5507046 c -0.066782,0.1363133 -0.073134,0.1745456 -0.073134,0.4116387 0,0.2261658 0.00896,0.2797704 0.064827,0.40386 0.084699,0.1894417 0.2513281,0.3644635 0.4345714,0.4587875 0.1324237,0.067839 0.1736331,0.076279 0.384892,0.076279 0.2029518,0 0.2550745,-0.00979 0.3760962,-0.068501 0.1381251,-0.0685 0.3238115,-0.2365897 0.399552,-0.3625049 l 0.039418,-0.065352 0.077695,0.18034 c 0.043327,0.099589 0.078184,0.1932517 0.078184,0.2101057 0,0.049821 -0.1755878,0.2126191 -0.3365159,0.3140339 C 3.7698894,5.2626116 3.4892425,5.3199998 3.1895381,5.2786454"
     style="fill:#ffffff;stroke-width:0.264583"
     id="path16950" />
</svg>
