<?xml version="1.0" encoding="UTF-8" standalone="no"?>
<!-- Created with Inkscape (http://www.inkscape.org/) -->

<svg
   width="32"
   height="32"
   viewBox="0 0 8.4666666 8.4666666"
   version="1.1"
   id="svg5"
   inkscape:version="1.2 (dc2aedaf03, 2022-05-15)"
   sodipodi:docname="goa-account-google.svg"
   xmlns:inkscape="http://www.inkscape.org/namespaces/inkscape"
   xmlns:sodipodi="http://sodipodi.sourceforge.net/DTD/sodipodi-0.dtd"
   xmlns="http://www.w3.org/2000/svg"
   xmlns:svg="http://www.w3.org/2000/svg">
  <sodipodi:namedview
     id="namedview7"
     pagecolor="#ffffff"
     bordercolor="#666666"
     borderopacity="1.0"
     inkscape:pageshadow="2"
     inkscape:pageopacity="0.0"
     inkscape:pagecheckerboard="0"
     inkscape:document-units="px"
     showgrid="false"
     units="px"
     height="48px"
     inkscape:zoom="35.09375"
     inkscape:cx="16.05699"
     inkscape:cy="16.569902"
     inkscape:window-width="1846"
     inkscape:window-height="1011"
     inkscape:window-x="0"
     inkscape:window-y="0"
     inkscape:window-maximized="1"
     inkscape:current-layer="svg5"
     inkscape:showpageshadow="2"
     inkscape:deskcolor="#d1d1d1" />
  <defs
     id="defs2" />
  <rect
     style="opacity:1;fill:#ededed;fill-opacity:1;stroke-width:0.264583"
     id="rect1162"
     width="6.8791666"
     height="6.8791666"
     x="0.79374999"
     y="0.79374999"
     ry="0.66145831" />
  <path
     id="rect1014"
     style="opacity:0.5;fill:#000000;stroke-width:0.264583"
     d="m 1.4552083,0.79374999 c -0.3664479,0 -0.66145831,0.29501041 -0.66145831,0.66145831 v 5.5562499 c 0,0.366448 0.29501041,0.6614584 0.66145831,0.6614584 h 5.55625 c 0.3664479,0 0.6614583,-0.2950104 0.6614583,-0.6614584 V 1.4552083 c 0,-0.3664479 -0.2950104,-0.66145831 -0.6614583,-0.66145831 z M 1.5875,1.0583333 h 5.2916666 c 0.2931583,0 0.5291667,0.2360084 0.5291667,0.5291667 v 5.2916666 c 0,0.2931583 -0.2360084,0.5291666 -0.5291667,0.5291666 H 1.5875 c -0.2931583,0 -0.5291667,-0.2360083 -0.5291667,-0.5291666 V 1.5875 c 0,-0.2931583 0.2360084,-0.5291667 0.5291667,-0.5291667 z"
     sodipodi:nodetypes="ssssssssssssssssss" />
  <path
     id="path782"
     style="fill:#3f51b5;fill-opacity:1;stroke-width:0.15119"
     d="M 4.2333333,3.7796143 V 4.4979167 H 5.5283447 A 1.3229166,1.3229166 0 0 1 5.005896,5.3061361 L 5.672522,5.8089477 C 6.0906091,5.421901 6.35,4.8577488 6.35,4.2333333 6.35,4.1317372 6.3412,4.0334691 6.327779,3.9361939 L 6.329329,3.9237919 6.304524,3.7796147 H 5.9500244 5.8208333 5.4756348 Z" />
  <path
     id="path784"
     style="fill:#cf3b00;fill-opacity:1;stroke-width:0.15119"
     d="m 4.2782918,2.1166667 c -0.830004,0 -1.5691016,0.4775796 -1.9285644,1.173055 L 3.0086019,3.7351726 A 1.3229166,1.3229166 0 0 1 4.2333333,2.9104167 1.3229166,1.3229166 0 0 1 5.1433553,3.2731853 L 5.6973266,2.6835572 C 5.33015,2.3327957 4.8336849,2.1166667 4.2782918,2.1166667 Z" />
  <path
     id="path786"
     style="fill:#faa41a;fill-opacity:1;stroke-width:0.15119"
     d="m 2.3481771,3.2897217 c -0.146562,0.2842379 -0.2315104,0.6049454 -0.2315104,0.9436115 0,0.3507617 0.089645,0.680198 0.2454631,0.9704834 L 3.0137696,4.7454468 A 1.3229166,1.3229166 0 0 1 2.9104167,4.2333332 1.3229166,1.3229166 0 0 1 3.0080852,3.7351726 L 2.8540894,3.6313029 Z" />
  <path
     id="path788"
     style="fill:#479863;fill-opacity:1;stroke-width:0.15119"
     d="M 3.0148031,4.7459635 2.3636801,5.2038166 C 2.7277714,5.884173 3.4590872,6.35 4.2782918,6.35 4.8213428,6.35 5.3068882,6.1461022 5.672522,5.8089477 L 5.0126139,5.3009684 A 1.3229166,1.3229166 0 0 1 4.2333333,5.55625 1.3229166,1.3229166 0 0 1 3.0148031,4.7459635 Z" />
</svg>
