<?xml version="1.0" encoding="UTF-8" standalone="no"?>
<!-- Created with Inkscape (http://www.inkscape.org/) -->

<svg
   width="32"
   height="32"
   viewBox="0 0 8.4666665 8.4666665"
   version="1.1"
   id="svg5"
   inkscape:version="1.1.2 (0a00cf5339, 2022-02-04, custom)"
   sodipodi:docname="google-chrome-beta.svg"
   xmlns:inkscape="http://www.inkscape.org/namespaces/inkscape"
   xmlns:sodipodi="http://sodipodi.sourceforge.net/DTD/sodipodi-0.dtd"
   xmlns="http://www.w3.org/2000/svg"
   xmlns:svg="http://www.w3.org/2000/svg">
  <sodipodi:namedview
     id="namedview7"
     pagecolor="#ffffff"
     bordercolor="#666666"
     borderopacity="1.0"
     inkscape:pageshadow="2"
     inkscape:pageopacity="0.0"
     inkscape:pagecheckerboard="0"
     inkscape:document-units="px"
     showgrid="false"
     units="px"
     height="48px"
     inkscape:zoom="25.0625"
     inkscape:cx="15.98005"
     inkscape:cy="16"
     inkscape:window-width="1920"
     inkscape:window-height="1017"
     inkscape:window-x="0"
     inkscape:window-y="0"
     inkscape:window-maximized="1"
     inkscape:current-layer="svg5"
     showguides="false" />
  <defs
     id="defs2" />
  <path
     id="rect5567"
     style="opacity:1;fill:#671d00;stroke-width:0.264583;fill-opacity:1"
     d="m 4.2333333,0.26458332 c 2.1986875,0 3.96875,1.77006248 3.96875,3.96874998 v 0.2645836 c 0,2.1986875 -1.7700625,3.96875 -3.96875,3.96875 -2.1986875,0 -3.96874998,-1.7700625 -3.96874998,-3.96875 V 4.2333333 c 0,-2.1986875 1.77006248,-3.96874998 3.96874998,-3.96874998 z" />
  <path
     id="rect2363"
     style="opacity:1;fill:#234c31;fill-opacity:1;stroke-width:0.999999"
     d="M 2.1875 10.123047 C 1.4231223 11.926148 1 13.911886 1 16 L 1 17 C 1 24.982436 7.1732024 31.469693 15.025391 31.96875 L 20 25.5 L 22 19.5 L 9 20 L 2.1875 10.123047 z "
     transform="scale(0.26458333)" />
  <path
     id="path1744"
     style="opacity:1;fill:#7d520d;fill-opacity:1;stroke-width:0.264583"
     d="m 16,8 6,11.5 -6.982422,12.466797 C 15.342374,31.987608 15.672387,32.013395 16,32 24.31,32 31,25.31 31,17 v -1 c 0,-2.945728 -0.841428,-5.687228 -2.296875,-8 z"
     transform="scale(0.26458333)"
     sodipodi:nodetypes="ccccsscc" />
  <circle
     style="opacity:1;fill:#cf3d00;fill-opacity:1;stroke-width:0.264583"
     id="path4871"
     cx="4.2333331"
     cy="4.2333331"
     r="3.7041667" />
  <path
     id="path3007"
     style="opacity:1;fill:#479863;fill-opacity:1;stroke-width:0.264583"
     d="M 2.8945312 11.089844 A 14 14 0 0 0 2 16 A 14 14 0 0 0 16 30 A 14 14 0 0 0 16.123047 29.996094 L 20.017578 25.466797 L 22.017578 19.466797 L 9.0175781 19.966797 L 2.8945312 11.089844 z "
     transform="scale(0.26458333)" />
  <path
     id="rect1188"
     style="opacity:1;fill:#faa41a;stroke-width:0.999999"
     d="M 16 8 L 22 19.5 L 16.123047 29.996094 A 14 14 0 0 0 30 16 A 14 14 0 0 0 27.486328 8 L 16 8 z "
     transform="scale(0.26458333)" />
  <circle
     style="fill:#ffffff;stroke-width:0.176389"
     id="path925"
     cx="4.2333331"
     cy="4.2333331"
     r="2.1166666" />
  <circle
     style="fill:#3e55d7;fill-opacity:1;stroke-width:0.264583"
     id="path13193"
     cx="4.2333331"
     cy="4.2333331"
     r="1.5875" />
  <path
     id="rect850"
     style="fill:#212121;fill-opacity:1;stroke-width:0.999999"
     d="M 1.0332031 18 C 1.544574 25.840142 8.0261409 32 16 32 C 23.973859 32 30.455426 25.840142 30.966797 18 L 1.0332031 18 z "
     transform="scale(0.26458333)" />
  <path
     id="rect1100"
     style="fill:#424242;fill-opacity:1;stroke-width:0.999999"
     d="M 2.1464844 18 A 14 14 0 0 0 16 30 A 14 14 0 0 0 29.853516 18 L 2.1464844 18 z "
     transform="scale(0.26458333)" />
  <path
     d="m 2.1166666,5.2916666 v 1.5334113 h 0.4230577 c 0.4050822,0 0.6073703,-0.1453207 0.6073703,-0.4361487 0,-0.1187054 -0.032553,-0.2061307 -0.097841,-0.262516 -0.065288,-0.056387 -0.1506195,-0.093471 -0.2559704,-0.1112767 0.080126,-0.01632 0.1476703,-0.054333 0.2025715,-0.113688 0.056385,-0.059353 0.084405,-0.1335242 0.084405,-0.2225532 0,-0.130576 -0.051851,-0.2276509 -0.1557184,-0.291455 C 2.8221581,5.323636 2.6738152,5.2916666 2.4794352,5.2916666 Z m 2.7708901,0.071313 -0.2046386,0.02446 v 0.264928 H 4.4782795 v 0.1577851 h 0.2046386 v 0.707967 c 0,0.1083186 0.027437,0.191211 0.082338,0.2490804 0.056385,0.056387 0.1341616,0.084749 0.2335775,0.084749 0.097932,0 0.1857022,-0.026853 0.2628607,-0.08027 L 5.183835,6.6359428 c -0.057869,0.03116 -0.1100645,0.046853 -0.1560629,0.046853 -0.05045,0 -0.086608,-0.013253 -0.1088649,-0.039967 -0.020773,-0.028193 -0.031351,-0.072833 -0.031351,-0.13367 V 5.8101499 H 5.1435271 L 5.1659205,5.6523648 H 4.8875567 Z m -2.5593612,0.095774 h 0.1736328 c 0.121673,0 0.2121206,0.016859 0.2714734,0.050987 0.060837,0.034128 0.091295,0.095628 0.091295,0.1846572 0,0.078642 -0.028947,0.1395596 -0.086816,0.1825902 C 2.7213957,5.920021 2.6487351,5.941415 2.5597062,5.941415 H 2.3281955 Z m 1.5334119,0.1667425 c -0.099416,0 -0.1862584,0.026853 -0.2604492,0.080271 -0.072707,0.053417 -0.1290911,0.1275889 -0.1691543,0.2225535 -0.038579,0.09348 -0.057877,0.201132 -0.057877,0.3228053 0,0.1869607 0.045224,0.3337924 0.1357369,0.4406268 0.091997,0.1068353 0.2198745,0.1601966 0.3830944,0.1601966 0.1483819,0 0.2846368,-0.049173 0.4092775,-0.1471053 L 4.2133516,6.5825435 c -0.051933,0.035613 -0.1016904,0.06154 -0.1491726,0.077859 -0.047482,0.01632 -0.099333,0.02446 -0.1557184,0.02446 -0.089029,0 -0.1616895,-0.03046 -0.2180745,-0.091294 -0.056385,-0.060835 -0.089282,-0.1558186 -0.098185,-0.2849106 h 0.7479304 c 0.00297,-0.035613 0.00448,-0.070258 0.00448,-0.104386 0,-0.181026 -0.041619,-0.3227413 -0.1247124,-0.4251249 C 4.1368034,5.6767641 4.0174083,5.6254963 3.8616074,5.6254961 Z m 1.9788627,0 c -0.1246406,0 -0.259729,0.026853 -0.4051432,0.080271 L 5.4863139,5.85494 C 5.6109545,5.813393 5.7165121,5.792587 5.8025735,5.792587 c 0.083094,0 0.1445941,0.017787 0.1846572,0.0534 0.040063,0.035613 0.059945,0.095017 0.059945,0.1781114 v 0.086472 H 5.8669975 c -0.1647039,0 -0.2922373,0.03348 -0.3827502,0.1002519 -0.089029,0.066772 -0.1336698,0.1626807 -0.1336698,0.287321 0,0.1053507 0.033481,0.1906824 0.1002524,0.2559704 0.066772,0.065287 0.1581473,0.09784 0.273885,0.09784 0.1543172,0 0.2706905,-0.05882 0.3493328,-0.176044 0.017806,0.056387 0.045242,0.098006 0.082338,0.1247127 0.037095,0.026713 0.085924,0.043913 0.146761,0.051333 l 0.046853,-0.142627 c -0.032644,-0.011873 -0.057059,-0.028727 -0.07338,-0.050987 -0.016321,-0.02374 -0.02446,-0.059313 -0.02446,-0.106798 V 6.0151432 c 0,-0.1246407 -0.034064,-0.2205493 -0.1023194,-0.2873209 C 6.0815841,5.65956 5.9784652,5.6254963 5.8404701,5.6254961 Z M 3.866086,5.7881049 c 0.091997,0 0.1610519,0.030458 0.2070502,0.091295 0.045999,0.06084 0.068902,0.1488453 0.068902,0.2645833 v 0.013433 H 3.5922008 C 3.6070388,5.9111049 3.6984146,5.7881042 3.866086,5.7881049 Z m -1.5378905,0.315915 h 0.2514919 c 0.1023833,0 0.1852762,0.02232 0.2490803,0.066835 0.063804,0.044513 0.095774,0.1171746 0.095774,0.218074 0,0.103865 -0.033481,0.174431 -0.1002522,0.211529 -0.065288,0.0371 -0.1599242,0.055467 -0.2845649,0.055467 H 2.3281955 Z m 3.545692,0.1426273 c 0.00656,-1.567e-4 0.013211,0 0.019981,0 h 0.1533072 v 0.2690616 c -0.066772,0.1216727 -0.1587306,0.1825898 -0.2759522,0.1825898 -0.066772,0 -0.1171116,-0.017787 -0.1512396,-0.0534 -0.034128,-0.035613 -0.051332,-0.088391 -0.051332,-0.1581297 0,-0.1552447 0.1019264,-0.235272 0.3052356,-0.2401233 z"
     style="font-size:3.33859px;line-height:1.25;font-family:'Fira Sans';-inkscape-font-specification:'Fira Sans';fill:#ffffff;stroke-width:0.0556433"
     id="path5340" />
</svg>
