<?xml version="1.0" encoding="UTF-8" standalone="no"?>
<!-- Created with Inkscape (http://www.inkscape.org/) -->

<svg
   width="32"
   height="32"
   viewBox="0 0 8.4666665 8.4666665"
   version="1.1"
   id="svg5"
   inkscape:version="1.2 (dc2aedaf03, 2022-05-15)"
   sodipodi:docname="ibus-hangul.svg"
   xmlns:inkscape="http://www.inkscape.org/namespaces/inkscape"
   xmlns:sodipodi="http://sodipodi.sourceforge.net/DTD/sodipodi-0.dtd"
   xmlns="http://www.w3.org/2000/svg"
   xmlns:svg="http://www.w3.org/2000/svg">
  <sodipodi:namedview
     id="namedview7"
     pagecolor="#ffffff"
     bordercolor="#666666"
     borderopacity="1.0"
     inkscape:pageshadow="2"
     inkscape:pageopacity="0.0"
     inkscape:pagecheckerboard="0"
     inkscape:document-units="px"
     showgrid="false"
     units="px"
     height="48px"
     inkscape:zoom="16"
     inkscape:cx="16.40625"
     inkscape:cy="22.90625"
     inkscape:window-width="1846"
     inkscape:window-height="1011"
     inkscape:window-x="0"
     inkscape:window-y="0"
     inkscape:window-maximized="1"
     inkscape:current-layer="svg5"
     inkscape:showpageshadow="2"
     inkscape:deskcolor="#d1d1d1" />
  <defs
     id="defs2" />
  <path
     id="rect5567"
     style="opacity:1;fill:#1f285a;stroke-width:0.264583"
     d="m 4.2333333,0.26458332 c 2.1986875,0 3.96875,1.77006248 3.96875,3.96874998 v 0.2645836 c 0,2.1986875 -1.7700625,3.96875 -3.96875,3.96875 -2.1986875,0 -3.96874998,-1.7700625 -3.96874998,-3.96875 V 4.2333333 c 0,-2.1986875 1.77006248,-3.96874998 3.96874998,-3.96874998 z" />
  <circle
     style="opacity:1;fill:#3f51b5;fill-opacity:1;stroke-width:0.264583"
     id="path4871"
     cx="4.2333331"
     cy="4.2333331"
     r="3.7041667" />
  <path
     id="path934-7"
     style="fill:#7f6728;fill-opacity:1;stroke-width:0.529166"
     d="m 6.3846231,0.89400226 c -0.00228,1.1322e-4 -0.00444,4.0261e-4 -0.00672,5.1677e-4 L 6.2373453,2.4577311 6.2569823,2.5021728 6.2373453,2.7223144 7.3830117,5.2875324 6.9055215,6.4564533 C 6.692806,6.837851 6.4622554,7.0294471 5.9789631,7.4992837 5.7757469,7.5995767 5.4963145,7.7054966 5.1562743,7.8186441 5.1561404,7.8188486 4.2333332,8.4666665 4.2333332,8.4666665 c 2.1900527,0 3.9544089,-1.7562322 3.9682332,-3.9429117 1.15e-5,-0.00969 5.062e-4,-0.016752 5.168e-4,-0.025838 V 4.2333332 c 0,-1.4046171 -0.722407,-2.6343234 -1.8174601,-3.33933094 z"
     sodipodi:nodetypes="ccccccccccccsc" />
  <path
     id="path1114"
     style="fill:#671d00;fill-opacity:1;stroke-width:1.05833;stroke-linejoin:round"
     d="M 4.2333333,0.26458332 A 3.96875,3.96875 0 0 0 0.83767496,2.1833292 C 0.73144715,2.7442171 0.63654766,3.3079431 0.68471272,4.0617675 2.2558719,4.0362183 3.4952273,4.2926846 3.628719,2.4215576 3.845661,1.9102216 4.4092805,1.5922393 5.0002115,1.56993 5.5394646,1.5495734 6.4947071,1.2888106 6.9060383,1.6381429 L 7.7142577,2.3275065 A 3.96875,3.96875 0 0 0 4.2333333,0.26458332 Z" />
  <path
     d="M 5.1927374,0.93747074 C 5.1101884,0.93461374 5.0285254,0.93479926 4.948517,0.93783326 4.1825658,0.9667485 3.2725099,1.4691568 2.9618375,2.2014156 2.6110389,3.0282543 2.3718822,4.2265612 4.2274506,4.2265612 4.717847,3.3833019 5.9992061,3.5542995 6.5399353,4.271492 7.0188119,4.906647 6.9928011,5.7707289 6.6348699,6.4484601 6.3357643,7.0148063 5.8313579,7.577678 5.1561404,7.8188486 6.7560407,7.4069338 7.9374998,5.9543289 7.9374998,4.2265612 7.9374998,3.2213081 7.5371752,2.3073818 6.8870617,1.6390562 6.8556569,1.6118923 6.8212561,1.5875279 6.7885041,1.5615142 6.3224505,1.2042787 5.7372385,0.95622132 5.1927374,0.93747074 Z"
     style="fill:#ffce51;fill-opacity:1;fill-rule:evenodd;stroke-width:0.37104"
     id="path886" />
  <path
     d="M 4.1618658,0.52991845 C 3.5566479,0.54211167 2.9460865,0.7027366 2.3849262,1.0266933 1.5142723,1.5293186 0.92300542,2.3329862 0.66922289,3.2301125 c -0.00708,0.03689 -0.010812,0.075476 -0.016668,0.113052 C 0.5605557,4.0173083 0.78573248,4.695186 1.1112836,5.2128642 1.5193045,5.8616785 2.2548452,6.3165621 3.0443941,6.2194579 3.9359219,6.1098117 4.7249224,5.0858922 4.23977,4.2396054 3.2642211,4.23657 2.7718619,3.0412987 3.1226607,2.2144598 3.4333325,1.4822011 4.1948852,1.0726405 4.9608362,1.0437236 5.6009038,1.0195614 6.3405741,1.1749395 6.8870617,1.6390562 6.1641169,0.90188661 5.170562,0.50959641 4.1618658,0.52991845 Z"
     style="fill:#cf3b00;fill-opacity:1;fill-rule:evenodd;stroke-width:0.37104"
     id="path858" />
</svg>
