<?xml version="1.0" encoding="UTF-8" standalone="no"?>
<!-- Created with Inkscape (http://www.inkscape.org/) -->

<svg
   width="32"
   height="32"
   viewBox="0 0 8.4666665 8.4666665"
   version="1.1"
   id="svg5"
   inkscape:version="1.2 (dc2aedaf03, 2022-05-15)"
   sodipodi:docname="inkscape.svg"
   xmlns:inkscape="http://www.inkscape.org/namespaces/inkscape"
   xmlns:sodipodi="http://sodipodi.sourceforge.net/DTD/sodipodi-0.dtd"
   xmlns="http://www.w3.org/2000/svg"
   xmlns:svg="http://www.w3.org/2000/svg">
  <sodipodi:namedview
     id="namedview7"
     pagecolor="#ffffff"
     bordercolor="#666666"
     borderopacity="1.0"
     inkscape:pageshadow="2"
     inkscape:pageopacity="0.0"
     inkscape:pagecheckerboard="0"
     inkscape:document-units="px"
     showgrid="false"
     units="px"
     height="48px"
     inkscape:zoom="12.96875"
     inkscape:cx="31.961446"
     inkscape:cy="32"
     inkscape:window-width="1920"
     inkscape:window-height="1009"
     inkscape:window-x="0"
     inkscape:window-y="0"
     inkscape:window-maximized="1"
     inkscape:current-layer="svg5"
     inkscape:showpageshadow="2"
     inkscape:deskcolor="#d1d1d1" />
  <defs
     id="defs2" />
  <rect
     style="opacity:1;fill:#444444;fill-opacity:1;stroke-width:0.264583"
     id="rect845"
     width="5.1736622"
     height="5.1736622"
     x="3.4000654"
     y="-2.5868311"
     ry="0.52916664"
     transform="rotate(45)" />
  <path
     id="rect474"
     style="opacity:0.5;fill:#000000;stroke-width:0.264583"
     d="m 4.2333429,0.79386502 c -0.135265,0 -0.2704903,0.051899 -0.3741373,0.155546 L 0.94930573,3.8593109 c -0.20729404,0.207294 -0.20729404,0.5409807 -3e-8,0.7482747 l 2.9099002,2.9099001 c 0.207294,0.2072941 0.5409806,0.207294 0.7482746,-1e-7 L 7.5173804,4.6075858 c 0.207294,-0.207294 0.2072941,-0.5409806 10e-8,-0.7482746 L 4.6074803,0.94941102 c -0.103647,-0.103647 -0.2388724,-0.155546 -0.3741374,-0.155546 z m 0,0.21859128 c 0.067733,0 0.1352104,0.025656 0.1870687,0.077515 l 2.7781249,2.7781248 c 0.1035811,0.1031982 0.1035811,0.2709395 0,0.3741374 l -2.778125,2.7781249 c -0.1031982,0.1035815 -0.2709396,0.1035816 -0.3741373,0 L 1.2681493,4.2422333 c -0.1035816,-0.1031981 -0.1035816,-0.2709395 0,-0.3741374 L 4.0462742,1.089971 c 0.04954,-0.04972 0.1168801,-0.077616 0.1870687,-0.077515 z" />
  <path
     d="m 4.2333432,2.5999562 c -0.074789,0 -0.1495762,0.028253 -0.2060827,0.088084 L 2.9985101,3.7483673 c -0.056506,0.058169 -0.086421,0.1346183 -0.088084,0.2110681 v 0.00499 c 0,0.2276876 0.6066136,0.00665 0.6614582,0.2841943 0.029915,0.1512378 -0.3307291,0.081436 -0.3307291,0.2326738 0,0.177829 0.5102202,0.056506 0.6564723,0.2010966 0.059831,0.146252 -0.1961107,0.122985 -0.149576,0.2592651 0.08476,0.088084 0.2775465,0.038223 0.3141095,0.1811528 C 4.105372,5.2856798 4.3812564,5.2574265 4.5424664,5.137765 4.6288882,5.0496798 4.4111722,5.0097928 4.4959317,4.9200475 4.5823537,4.8319637 5.0044907,4.8502451 5.0078147,4.6574584 4.9679277,4.5361359 4.8083792,4.5161925 4.8067172,4.3732641 4.7984092,4.2519412 4.9363502,4.2868424 5.3751067,4.1671816 5.549612,4.084084 5.55626,4.040873 5.55626,3.9644233 v -0.00499 C 5.554585,3.882986 5.5196977,3.8065361 5.4631902,3.7483676 L 4.4394257,2.6880398 c -0.058169,-0.05983 -0.131295,-0.088084 -0.2060825,-0.088084 z m 0.019945,0.222702 c 0.078112,0 0.290842,0.262589 0.480305,0.4603616 0.054844,0.071464 -0.019945,0.1445901 -0.019945,0.1445901 L 4.3164407,3.2098938 4.1402735,3.4475534 3.9857116,3.2148797 3.8926421,3.5771859 3.6184195,3.4126523 3.6915455,3.3195828 4.12033,2.8791647 c 0.031577,-0.033239 0.058167,-0.056506 0.1329567,-0.056506 z m 1.1783265,1.5921532 c -0.021605,-0.00167 -0.04155,0 -0.056506,0.00499 -0.028255,0.00831 -0.16121,0.013295 -0.149577,0.1130125 0.1196615,0.05152 0.3024763,0.091407 0.3240823,-0.00997 C 5.566234,4.4480559 5.49477,4.4164789 5.4316147,4.4148164 Z M 3.3807599,4.7505261 c -0.011637,0.00167 -0.019944,0.00499 -0.029915,0.00997 -0.091407,0.034898 -0.1528999,0.1080275 -0.06814,0.1396044 0.08476,0.031579 0.1429281,-0.00167 0.2177161,-0.04155 0.074788,-0.039887 0.071464,-0.046535 0.066479,-0.061492 -0.00998,0.00168 -0.078111,-0.039887 -0.1495758,-0.046535 -0.011637,-0.00168 -0.02493,-0.00168 -0.036563,0 z"
     style="fill:#ffffff;stroke-width:0.166196"
     id="path1246" />
</svg>
