<?xml version="1.0" encoding="UTF-8" standalone="no"?>
<!-- Created with Inkscape (http://www.inkscape.org/) -->

<svg
   width="32"
   height="32"
   viewBox="0 0 8.4666665 8.4666665"
   version="1.1"
   id="svg5"
   inkscape:version="1.1.2 (0a00cf5339, 2022-02-04, custom)"
   sodipodi:docname="internet-web-browser.svg"
   xmlns:inkscape="http://www.inkscape.org/namespaces/inkscape"
   xmlns:sodipodi="http://sodipodi.sourceforge.net/DTD/sodipodi-0.dtd"
   xmlns="http://www.w3.org/2000/svg"
   xmlns:svg="http://www.w3.org/2000/svg">
  <sodipodi:namedview
     id="namedview7"
     pagecolor="#ffffff"
     bordercolor="#666666"
     borderopacity="1.0"
     inkscape:pageshadow="2"
     inkscape:pageopacity="0.0"
     inkscape:pagecheckerboard="0"
     inkscape:document-units="px"
     showgrid="false"
     units="px"
     height="48px"
     inkscape:zoom="25.03125"
     inkscape:cx="15.980025"
     inkscape:cy="16"
     inkscape:window-width="1920"
     inkscape:window-height="1017"
     inkscape:window-x="0"
     inkscape:window-y="0"
     inkscape:window-maximized="1"
     inkscape:current-layer="svg5" />
  <defs
     id="defs2" />
  <path
     id="rect5567"
     style="opacity:1;fill:#1f285a;stroke-width:0.264583"
     d="m 4.2333333,0.26458332 c 2.1986875,0 3.96875,1.77006248 3.96875,3.96874998 v 0.2645836 c 0,2.1986875 -1.7700625,3.96875 -3.96875,3.96875 -2.1986875,0 -3.96874998,-1.7700625 -3.96874998,-3.96875 V 4.2333333 c 0,-2.1986875 1.77006248,-3.96874998 3.96874998,-3.96874998 z" />
  <circle
     style="opacity:1;fill:#3f51b5;fill-opacity:1;stroke-width:0.264583"
     id="path4871"
     cx="4.2333331"
     cy="4.2333331"
     r="3.7041667" />
  <path
     d="m 4.2333332,0.52916666 c -0.4863042,0 -0.9487958,0.0955146 -1.3734521,0.26458333 H 3.1808207 C 2.8812515,1.1154171 2.6281881,1.569585 2.4436915,2.1166666 H 1.1922124 C 1.0763249,2.2833541 0.97604782,2.4606249 0.88820615,2.6458333 H 2.2957895 C 2.1973354,3.0646263 2.1382539,3.5121955 2.1211645,3.9687499 H 0.54266036 c -0.00635,0.087842 -0.0134937,0.1751542 -0.0134937,0.2645833 0,0.089429 0.007144,0.1767417 0.0132292,0.2645834 H 2.1232811 C 2.1392881,4.954082 2.1971951,5.401638 2.2944665,5.8208332 H 0.88820615 C 0.97604812,6.0060416 1.0760603,6.1833124 1.1922124,6.3499999 H 2.445279 C 2.6298497,6.8971397 2.8830083,7.3513128 3.1826728,7.6729165 H 2.8598811 c 0.4246563,0.1688042 0.8871479,0.2645834 1.3731875,0.2645834 0.4860396,0 0.9490604,-0.095515 1.3737166,-0.2645834 H 5.2858457 C 5.5854149,7.3512493 5.8384782,6.8970815 6.0229748,6.3499999 H 7.274454 C 7.3903415,6.1833124 7.4906186,6.0060416 7.5781956,5.8208332 H 6.1706123 C 6.2690664,5.4020375 6.3281479,4.9544683 6.3452373,4.4979166 h 1.5787688 c 0.00609,-0.087842 0.013229,-0.1751542 0.013229,-0.2645834 0,-0.089429 -0.00714,-0.1767416 -0.013229,-0.2645833 H 6.3431207 C 6.3271927,3.5126109 6.2693813,3.0650576 6.1721998,2.6458333 H 7.5781956 C 7.4908831,2.4606249 7.3903415,2.2833541 7.274454,2.1166666 H 6.0213873 C 5.8368166,1.5695241 5.583658,1.115351 5.2839936,0.79374999 H 5.6067852 C 5.182129,0.62494583 4.7196373,0.52916666 4.2333332,0.52916666 Z M 3.9687498,0.84243332 V 2.1166666 H 2.9844999 C 3.227861,1.4410848 3.5788572,0.98667624 3.9687498,0.84243332 Z m 0.5291667,0.00344 C 4.8882431,0.98829544 5.2399325,1.4415187 5.4840186,2.1166666 H 4.4979165 Z M 2.8268082,2.6458333 H 3.9687498 V 3.9687499 H 2.6519186 c 0.016484,-0.4619545 0.075885,-0.9119288 0.174625,-1.3229166 z m 1.6711083,0 h 1.143 c 0.09874,0.4109878 0.1581362,0.8609621 0.174625,1.3229166 H 4.4979165 Z M 2.6511249,4.4979166 H 3.9687498 V 5.8208332 H 2.8257499 C 2.72701,5.4098454 2.6676137,4.9598711 2.6511249,4.4979166 Z m 1.8467916,0 H 5.8147477 C 5.7982642,4.9598711 5.7388626,5.4098454 5.6401227,5.8208332 H 4.4979165 Z M 2.9826478,6.3499999 h 0.986102 V 7.6207936 C 3.5784233,7.4783684 3.2267338,7.0251451 2.9826478,6.3499999 Z m 1.5152687,0 h 0.98425 C 5.2388054,7.025579 4.8878092,7.4799877 4.4979165,7.6242332 Z"
     style="fill:#94a6ff;stroke-width:0.264583"
     id="path892" />
</svg>
