<?xml version="1.0" encoding="UTF-8" standalone="no"?>
<!-- Created with Inkscape (http://www.inkscape.org/) -->

<svg
   width="32"
   height="32"
   viewBox="0 0 8.4666666 8.4666666"
   version="1.1"
   id="svg5"
   inkscape:version="1.2 (dc2aedaf03, 2022-05-15)"
   sodipodi:docname="kleopatra.svg"
   xmlns:inkscape="http://www.inkscape.org/namespaces/inkscape"
   xmlns:sodipodi="http://sodipodi.sourceforge.net/DTD/sodipodi-0.dtd"
   xmlns="http://www.w3.org/2000/svg"
   xmlns:svg="http://www.w3.org/2000/svg">
  <sodipodi:namedview
     id="namedview7"
     pagecolor="#ffffff"
     bordercolor="#666666"
     borderopacity="1.0"
     inkscape:pageshadow="2"
     inkscape:pageopacity="0.0"
     inkscape:pagecheckerboard="0"
     inkscape:document-units="px"
     showgrid="false"
     units="px"
     height="48px"
     inkscape:zoom="25"
     inkscape:cx="16"
     inkscape:cy="16"
     inkscape:window-width="1920"
     inkscape:window-height="1016"
     inkscape:window-x="0"
     inkscape:window-y="0"
     inkscape:window-maximized="1"
     inkscape:current-layer="svg5"
     inkscape:showpageshadow="2"
     inkscape:deskcolor="#d1d1d1" />
  <defs
     id="defs2" />
  <rect
     style="opacity:1;fill:#d3b165;fill-opacity:1;stroke-width:0.264583"
     id="rect1162"
     width="6.8791666"
     height="6.8791666"
     x="0.79374999"
     y="0.79374999"
     ry="0.66145831" />
  <path
     id="rect1014"
     style="opacity:0.5;fill:#000000;stroke-width:0.264583"
     d="m 1.4552083,0.79374999 c -0.3664479,0 -0.66145831,0.29501041 -0.66145831,0.66145831 v 5.5562499 c 0,0.366448 0.29501041,0.6614584 0.66145831,0.6614584 h 5.55625 c 0.3664479,0 0.6614583,-0.2950104 0.6614583,-0.6614584 V 1.4552083 c 0,-0.3664479 -0.2950104,-0.66145831 -0.6614583,-0.66145831 z M 1.5875,1.0583333 h 5.2916666 c 0.2931583,0 0.5291667,0.2360084 0.5291667,0.5291667 v 5.0270833 c 0,0.2931583 -0.2360084,0.5291666 -0.5291667,0.5291666 H 1.5875 c -0.2931583,0 -0.5291667,-0.2360083 -0.5291667,-0.5291666 V 1.5875 c 0,-0.2931583 0.2360084,-0.5291667 0.5291667,-0.5291667 z"
     sodipodi:nodetypes="ssssssssssssssssss" />
  <path
     d="m 3.8648729,2.9104166 c -0.349806,0 -0.718182,0.094437 -1.0968323,0.2808614 -0.308211,0.1517445 -0.44004,0.1444652 -0.3671609,0.2164571 0.025708,0.025396 0.00805,0.1631432 0.4397663,-0.00303 0.2950353,-0.1135657 0.6577938,-0.2094462 0.853953,-0.225826 0.3028868,-0.025292 0.6636322,0.053369 1.3022461,0.2837036 0.2293281,0.082714 0.4930579,0.1695672 0.5860108,0.1930114 0.1987978,0.05014 0.2197616,0.042336 0.3855061,0.042892 l 0.1170472,2.583e-4 v -0.098444 c 0,-0.1121792 -0.013592,-0.1227316 -0.1568381,-0.1227316 -0.3193521,0 -0.3988843,-0.050899 -0.8795327,-0.2612243 C 4.5342209,2.9910635 4.2222501,2.9104166 3.8648729,2.9104166 Z M 3.6561002,3.5733581 c -0.053293,0.00193 -0.1010129,0.00695 -0.1392681,0.014728 -0.1764403,0.03587 -0.412654,0.1661548 -0.5575886,0.2984314 -0.2246547,0.2050343 -0.478584,0.6412343 -0.4537191,0.7378906 0.011197,0.043525 0.022965,0.046357 0.2209167,0.054518 0.1149131,0.00474 0.2341434,0.030573 0.4105536,0.057103 l 0.3338297,0.048059 V 4.9189637 C 3.4154924,5.1663171 3.4550364,5.2469901 3.4648844,5.3370749 3.5017584,5.6631112 3.5022484,5.698473 3.5876159,5.686666 3.7194904,5.47508 3.7347135,5.1223314 3.7356689,4.8884744 L 3.8700278,5.017149 c 0.3686556,0.320929 0.4773207,0.2634096 0.7934915,0.4134601 0.2615072,0.1052005 0.5915355,0.1516928 0.8441502,0.1335837 0.1552868,0 0.3515185,-0.1697504 0.3513997,-0.3661273 -6.66e-5,-0.151424 -0.043237,-0.2335062 -0.148314,-0.2821538 -0.1931723,-0.089433 -0.4074686,0.016748 -0.4074686,0.2152325 0,0.1948066 0.1902936,0.3029833 0.3165181,0.1798338 0.052653,-0.051371 0.065554,-0.1378066 0.028164,-0.1899108 -0.016595,-0.023125 -0.018373,-0.019264 -0.00801,0.016536 0.035762,0.1235453 -0.061755,0.2090206 -0.173891,0.1524455 -0.1171919,-0.059126 -0.094959,-0.2490568 0.032814,-0.2803446 0.063114,-0.015454 0.1735923,0.038508 0.214974,0.1209228 0.022302,0.044411 0.023251,0.071343 0.00414,0.1335836 C 5.6552888,5.4683979 5.2674371,5.4693832 4.8433529,5.2675686 4.7405572,5.2186498 4.6027861,5.1448726 4.5371699,5.103496 4.4240785,5.0321818 4.286261,5.0253915 4.0888769,4.8561751 3.9843133,4.7665324 3.9688687,4.7786567 4.2415809,4.7352523 4.3199856,4.7227746 4.6551937,4.657925 4.8568046,4.5910751 5.2149766,4.4723139 5.2285833,4.3637337 5.447466,4.3621975 5.5706734,4.3613244 5.366044,4.3537875 5.5704559,4.3624621 l 0.3826616,0.015498 V 4.181073 3.9844442 L 5.5094753,3.9735937 C 4.8907522,3.9577377 5.1923499,3.9897621 4.5537199,3.7490582 4.4317737,3.7030961 4.3017976,3.6475651 4.2165312,3.6258099 4.065321,3.587229 3.815979,3.5675686 3.6561002,3.5733583 Z m 0.7245036,0.3134176 c 0.00741,0 0.1130072,0.058337 0.2831867,0.1294495 0.1701797,0.071112 0.3312983,0.1345089 0.3581178,0.1410766 0.02682,0.00657 0.048834,0.018968 0.048834,0.027388 0,0.00842 -0.1031774,0.1182243 -0.229185,0.1792681 C 4.5845863,4.488446 4.4320138,4.5405496 4.1837164,4.5525767 l -0.060978,0.00259 0.066146,-0.050643 c 0.036409,-0.027995 0.09142,-0.092809 0.122215,-0.1439188 0.048857,-0.081087 0.056069,-0.1667189 0.056069,-0.3097508 0,-0.090155 0.00602,-0.1640729 0.013435,-0.1640727 z m -1.1089763,0.04315 c 0.030521,-0.00564 0.030461,0.040554 0.030747,0.1328084 5.688e-4,0.1815497 0.045181,0.3332922 0.1736328,0.437392 l 0.083974,0.068213 -0.3945495,-0.035915 C 2.9556622,4.5129008 2.7925907,4.4927564 2.7869025,4.4872068 2.7665144,4.467316 2.8790896,4.2624078 3.0439928,4.1079507 3.1667755,3.9929461 3.2411068,3.9355675 3.2716275,3.9299257 Z"
     style="fill:#482f00;stroke-width:0.264583"
     id="path4016" />
</svg>
