<?xml version="1.0" encoding="UTF-8" standalone="no"?>
<!-- Created with Inkscape (http://www.inkscape.org/) -->

<svg
   width="32"
   height="32"
   viewBox="0 0 8.4666666 8.4666666"
   version="1.1"
   id="svg5"
   inkscape:version="1.2 (dc2aedaf03, 2022-05-15)"
   sodipodi:docname="kontact.svg"
   xmlns:inkscape="http://www.inkscape.org/namespaces/inkscape"
   xmlns:sodipodi="http://sodipodi.sourceforge.net/DTD/sodipodi-0.dtd"
   xmlns="http://www.w3.org/2000/svg"
   xmlns:svg="http://www.w3.org/2000/svg">
  <sodipodi:namedview
     id="namedview7"
     pagecolor="#ffffff"
     bordercolor="#666666"
     borderopacity="1.0"
     inkscape:pageshadow="2"
     inkscape:pageopacity="0.0"
     inkscape:pagecheckerboard="0"
     inkscape:document-units="px"
     showgrid="false"
     units="px"
     height="48px"
     inkscape:zoom="25.0625"
     inkscape:cx="16"
     inkscape:cy="20.78803"
     inkscape:window-width="1920"
     inkscape:window-height="1016"
     inkscape:window-x="0"
     inkscape:window-y="0"
     inkscape:window-maximized="1"
     inkscape:current-layer="svg5"
     showguides="true"
     inkscape:showpageshadow="2"
     inkscape:deskcolor="#d1d1d1" />
  <defs
     id="defs2" />
  <rect
     style="opacity:1;fill:#a27100;fill-opacity:1;stroke-width:0.529167;stroke-linecap:round;stroke-linejoin:round"
     id="rect1228"
     width="7.4083333"
     height="6.0854168"
     x="0.52916664"
     y="1.8520833"
     ry="0.52916664" />
  <rect
     style="opacity:1;fill:#ffce51;fill-opacity:1;stroke-width:0.529167;stroke-linecap:round;stroke-linejoin:round"
     id="rect2077"
     width="7.4083333"
     height="5.8208332"
     x="0.52916664"
     y="1.8520833"
     ry="0.52916664" />
  <path
     d="m 1.0583333,7.6729166 h 6.3499999 c 0.2931584,0 0.5291667,-0.2360083 0.5291667,-0.5291666 L 4.2333333,2.1166667 0.52916666,7.14375 c 0,0.2931583 0.2360083,0.5291666 0.52916664,0.5291666 z"
     style="fill:#c29a32;stroke-width:0.264583"
     id="path1138" />
  <path
     d="M 7.9374998,2.38125 V 2.6458333 L 4.2333335,5.5562499 0.5291655,2.6458333 V 2.38125 Z"
     style="fill-opacity:1;stroke-width:0.264583;fill:#000000;opacity:0.3"
     id="path1191" />
  <path
     d="m 1.0583333,1.8520834 h 6.3499999 c 0.2931583,0 0.5291666,0.2360083 0.5291666,0.5291666 L 4.2333332,5.2916666 0.52916664,2.38125 c 0,-0.2931583 0.23600833,-0.5291666 0.52916666,-0.5291666 z"
     style="fill:#ffee7d;stroke-width:0.264583"
     id="path972" />
  <path
     id="rect1162"
     style="opacity:0.4;fill:#333333;fill-opacity:1;stroke-width:0.264583"
     d="m 1.0583333,1.8520834 c -0.29315831,0 -0.52916664,0.2360083 -0.52916664,0.5291666 v 4.7625 c 0,0.2931583 0.23600833,0.5291666 0.52916664,0.5291666 h 6.3499999 c 0.2931584,0 0.5291667,-0.2360083 0.5291667,-0.5291666 v -4.7625 c 0,-0.2931583 -0.2360083,-0.5291666 -0.5291667,-0.5291666 z m 0,0.2645833 h 6.3499999 c 0.1465792,0 0.2645834,0.1180041 0.2645834,0.2645833 v 4.7625 c 0,0.1465791 -0.1180042,0.2645833 -0.2645834,0.2645833 H 1.0583333 c -0.14657914,0 -0.26458331,-0.1180042 -0.26458331,-0.2645833 v -4.7625 c 0,-0.1465792 0.11800417,-0.2645833 0.26458331,-0.2645833 z" />
  <rect
     style="fill:#245c63;fill-opacity:1;stroke-width:0.264583"
     id="rect12483"
     width="3.96875"
     height="3.96875"
     x="4.2333331"
     y="4.4979167"
     ry="0.92604166" />
  <rect
     style="fill:#48b9c7;fill-opacity:1;stroke-width:0.264583"
     id="rect15701"
     width="3.4395833"
     height="3.175"
     x="4.4979167"
     y="4.7624998"
     ry="0.79374999" />
  <path
     d="m 6.0854161,5.2916667 c 0.5845009,0 1.0583329,0.473832 1.0583329,1.0583333 V 6.4822917 C 7.143638,6.8525411 6.681438,7.0209791 6.443133,6.7376142 6.346043,6.8282742 6.2182511,6.8788451 6.0854161,6.8791671 5.6139463,6.8791671 5.3779187,6.3091809 5.7112579,5.9758417 6.0445971,5.6425025 6.614583,5.8785297 6.614583,6.35 v 0.1322917 c 0,0.1763885 0.264583,0.1763885 0.264583,0 V 6.35 C 6.879166,5.6427952 6.0241875,5.2887538 5.5241787,5.7887625 5.02417,6.2887713 5.3782114,7.1437501 6.0854161,7.1437501 H 6.746874 c 0,0 0.132292,0 0.132292,0.132291 -0.0082,0.132292 -0.132292,0.132292 -0.132292,0.132292 H 6.0854161 c -1.4111103,0 -1.4111103,-2.1166664 0,-2.1166664 z m 0,0.79375 c -0.3527775,0 -0.3527775,0.5291667 0,0.5291667 0.3527779,0 0.3527779,-0.5291667 0,-0.5291667 z"
     style="fill:#ffffff;stroke-width:0.264583"
     id="path3853" />
</svg>
