<?xml version="1.0" encoding="UTF-8" standalone="no"?>
<!-- Created with Inkscape (http://www.inkscape.org/) -->

<svg
   width="32"
   height="32"
   viewBox="0 0 8.4666665 8.4666665"
   version="1.1"
   id="svg5"
   inkscape:version="1.2 (dc2aedaf03, 2022-05-15)"
   sodipodi:docname="lastfm.svg"
   xmlns:inkscape="http://www.inkscape.org/namespaces/inkscape"
   xmlns:sodipodi="http://sodipodi.sourceforge.net/DTD/sodipodi-0.dtd"
   xmlns="http://www.w3.org/2000/svg"
   xmlns:svg="http://www.w3.org/2000/svg">
  <sodipodi:namedview
     id="namedview7"
     pagecolor="#ffffff"
     bordercolor="#666666"
     borderopacity="1.0"
     inkscape:pageshadow="2"
     inkscape:pageopacity="0.0"
     inkscape:pagecheckerboard="0"
     inkscape:document-units="px"
     showgrid="false"
     units="px"
     height="48px"
     inkscape:zoom="25.03125"
     inkscape:cx="16.03995"
     inkscape:cy="16.03995"
     inkscape:window-width="1846"
     inkscape:window-height="1011"
     inkscape:window-x="0"
     inkscape:window-y="0"
     inkscape:window-maximized="1"
     inkscape:current-layer="svg5"
     inkscape:showpageshadow="2"
     inkscape:deskcolor="#d1d1d1" />
  <defs
     id="defs2" />
  <path
     id="rect5567"
     style="opacity:1;fill:#cf3b00;stroke-width:0.264583;fill-opacity:1"
     d="m 4.2333333,0.26458332 c 2.1986875,0 3.96875,1.77006248 3.96875,3.96874998 v 0.2645836 c 0,2.1986875 -1.7700625,3.96875 -3.96875,3.96875 -2.1986875,0 -3.96874998,-1.7700625 -3.96874998,-3.96875 V 4.2333333 c 0,-2.1986875 1.77006248,-3.96874998 3.96874998,-3.96874998 z" />
  <path
     id="rect2558"
     style="fill:#000000;fill-opacity:1;stroke-width:0.264583;opacity:0.5"
     d="M 4.2333332 0.26458333 C 2.0346479 0.26458333 0.26458333 2.0346479 0.26458333 4.2333332 L 0.26458333 4.4979166 C 0.26458333 6.6966019 2.0346479 8.4666665 4.2333332 8.4666665 C 6.4320186 8.4666665 8.2020832 6.6966019 8.2020832 4.4979166 L 8.2020832 4.2333332 C 8.2020832 2.0346479 6.4320186 0.26458333 4.2333332 0.26458333 z M 4.2333332 0.52916666 A 3.7041667 3.7041667 0 0 1 7.9374998 4.2333332 A 3.7041667 3.7041667 0 0 1 4.2333332 7.9374998 A 3.7041667 3.7041667 0 0 1 0.52916666 4.2333332 A 3.7041667 3.7041667 0 0 1 4.2333332 0.52916666 z " />
  <path
     d="M 3.1892121,5.5437313 C 3.1045132,5.5320896 2.9538467,5.482348 2.8533479,5.4332148 2.1985591,5.1145507 1.9307796,4.3119636 2.2532876,3.6359268 2.6217284,2.8629466 3.6270412,2.6659114 4.2319879,3.248127 4.4069241,3.4162168 4.484619,3.5596475 4.7480006,4.1956528 c 0.274946,0.6651095 0.3257655,0.7696729 0.4148624,0.8583347 0.095449,0.094324 0.1838947,0.126074 0.3531298,0.126074 0.2780409,0 0.476595,-0.1745456 0.476595,-0.4180946 0,-0.2061368 -0.071343,-0.2721504 -0.4352229,-0.4033572 C 5.0032377,4.1555948 4.823741,3.9721328 4.8230893,3.6036741 c 0,-0.1965589 0.049028,-0.3276071 0.1736331,-0.4634177 0.1788453,-0.1939131 0.4873453,-0.2579423 0.7603368,-0.1616604 0.1164614,0.042042 0.3601339,0.2610908 0.3601339,0.3237971 0,0.030427 -0.1412192,0.1234281 -0.2195661,0.145415 C 5.856255,3.4586561 5.820584,3.4446281 5.7728591,3.3980131 5.6761061,3.3037151 5.6106277,3.274585 5.494818,3.274585 c -0.1998573,0 -0.3238109,0.1221052 -0.3238109,0.3193256 0,0.1965589 0.078835,0.2630487 0.4726858,0.3980655 0.5427255,0.1861344 0.7030022,0.3542242 0.7062597,0.7431881 0.00326,0.3360473 -0.1457801,0.5784321 -0.4422267,0.7218627 -0.1348668,0.064691 -0.1806371,0.072972 -0.4008546,0.072972 -0.3143636,0 -0.4555831,-0.059399 -0.6318223,-0.2610908 C 4.7566334,5.1332567 4.6364258,4.8786217 4.2515338,3.949114 4.0919088,3.5639602 3.8870022,3.37518 3.5452741,3.300885 3.3721297,3.2633406 3.131063,3.2982391 2.9738812,3.3822972 2.8206084,3.4637095 2.6494187,3.6473568 2.5686286,3.8152878 c -0.066782,0.1363133 -0.073134,0.1745456 -0.073134,0.4116387 0,0.2261658 0.00896,0.2797704 0.064827,0.40386 0.084699,0.1894417 0.2513281,0.3644636 0.4345714,0.4587875 0.1324237,0.067839 0.1736331,0.076279 0.384892,0.076279 0.2029518,0 0.2550745,-0.00979 0.3760962,-0.068501 0.1381251,-0.0685 0.3238115,-0.2365897 0.399552,-0.3625049 l 0.039418,-0.065352 0.077695,0.18034 c 0.043327,0.099589 0.078184,0.1932517 0.078184,0.2101057 0,0.049821 -0.1755878,0.2126191 -0.3365159,0.3140339 C 3.7698894,5.5271948 3.4892425,5.584583 3.1895381,5.5432286"
     style="fill:#ffffff;stroke-width:0.264583"
     id="path16950" />
</svg>
