<?xml version="1.0" encoding="UTF-8" standalone="no"?>
<!-- Created with Inkscape (http://www.inkscape.org/) -->

<svg
   width="32"
   height="32"
   viewBox="0 0 8.4666666 8.4666666"
   version="1.1"
   id="svg5"
   inkscape:version="1.2 (dc2aedaf03, 2022-05-15)"
   sodipodi:docname="libreoffice-writer.svg"
   xmlns:inkscape="http://www.inkscape.org/namespaces/inkscape"
   xmlns:sodipodi="http://sodipodi.sourceforge.net/DTD/sodipodi-0.dtd"
   xmlns="http://www.w3.org/2000/svg"
   xmlns:svg="http://www.w3.org/2000/svg">
  <sodipodi:namedview
     id="namedview7"
     pagecolor="#ffffff"
     bordercolor="#666666"
     borderopacity="1.0"
     inkscape:pageshadow="2"
     inkscape:pageopacity="0.0"
     inkscape:pagecheckerboard="0"
     inkscape:document-units="px"
     showgrid="false"
     units="px"
     height="48px"
     inkscape:zoom="25"
     inkscape:cx="16"
     inkscape:cy="16"
     inkscape:window-width="1920"
     inkscape:window-height="1016"
     inkscape:window-x="0"
     inkscape:window-y="0"
     inkscape:window-maximized="1"
     inkscape:current-layer="svg5"
     inkscape:showpageshadow="2"
     inkscape:deskcolor="#d1d1d1" />
  <defs
     id="defs2" />
  <rect
     style="opacity:1;fill:#1f285a;fill-opacity:1;stroke-width:0.264583"
     id="rect1162"
     width="6.3499999"
     height="8.2020836"
     x="1.0583333"
     y="0.26458332"
     ry="0.66145831" />
  <rect
     style="opacity:1;fill:#3f51b5;fill-opacity:1;stroke-width:0.264583"
     id="rect1077"
     width="5.8208332"
     height="7.4083333"
     x="1.3229166"
     y="0.52916664"
     ry="0.52916664" />
  <path
     id="rect2184"
     style="display:inline;opacity:1;vector-effect:none;fill:#ffffff;fill-opacity:0.972917;stroke:none;stroke-width:0.529167;stroke-linecap:round;stroke-miterlimit:4;stroke-dasharray:none;stroke-opacity:0.501961;enable-background:new"
     d="m 2.5016565,4.2333333 c -0.066813,0 -0.1204066,0.053594 -0.1204066,0.1204066 v 0.02376 c 0,0.066813 0.053594,0.1204065 0.1204066,0.1204065 h 3.4633534 c 0.066813,0 0.1204066,-0.053594 0.1204066,-0.1204065 v -0.02376 c 0,-0.066813 -0.053594,-0.1204066 -0.1204066,-0.1204066 z m 0,0.79375 c -0.066813,0 -0.1204066,0.053594 -0.1204066,0.1204066 v 0.02376 c 0,0.066813 0.053594,0.1204065 0.1204066,0.1204065 h 3.4633534 c 0.066813,0 0.1204066,-0.053594 0.1204066,-0.1204065 v -0.02376 c 0,-0.066813 -0.053594,-0.1204066 -0.1204066,-0.1204066 z m 0,0.79375 c -0.066813,0 -0.1204066,0.053594 -0.1204066,0.1204066 v 0.023759 c 0,0.066813 0.053594,0.1204066 0.1204066,0.1204066 h 3.4633534 c 0.066813,0 0.1204066,-0.053594 0.1204066,-0.1204066 v -0.023759 c 0,-0.066813 -0.053594,-0.1204066 -0.1204066,-0.1204066 z m 0,0.79375 c -0.066813,0 -0.1204066,0.053594 -0.1204066,0.1204066 v 0.02376 c 0,0.066813 0.053594,0.1204066 0.1204066,0.1204066 h 2.1404368 c 0.066813,0 0.1204065,-0.053594 0.1204065,-0.1204066 v -0.02376 c 0,-0.066813 -0.053594,-0.1204066 -0.1204065,-0.1204066 z"
     sodipodi:nodetypes="ssssssssssssssssssssssssssssssssssss" />
  <path
     d="m 4.2333333,0.52916662 h 2.38125 c 0.2931583,0 0.5291667,0.2360083 0.5291667,0.52916658 v 2.3812501 z"
     style="fill:#1f285a;fill-opacity:1;stroke-width:0.264583;opacity:0.5"
     id="path3168"
     sodipodi:nodetypes="csscc" />
  <path
     d="m 5.0270834,0.52916666 h 1.5875 c 0.2931583,0 0.5291666,0.2360084 0.5291666,0.52916674 v 1.5875"
     style="fill:#6a7ce0;stroke-width:0.264583;fill-opacity:1"
     id="path3048" />
</svg>
