<?xml version="1.0" encoding="UTF-8" standalone="no"?>
<!-- Created with Inkscape (http://www.inkscape.org/) -->

<svg
   width="32"
   height="32"
   viewBox="0 0 8.4666665 8.4666665"
   version="1.1"
   id="svg5"
   inkscape:version="1.2 (dc2aedaf03, 2022-05-15)"
   sodipodi:docname="lutris.svg"
   xmlns:inkscape="http://www.inkscape.org/namespaces/inkscape"
   xmlns:sodipodi="http://sodipodi.sourceforge.net/DTD/sodipodi-0.dtd"
   xmlns="http://www.w3.org/2000/svg"
   xmlns:svg="http://www.w3.org/2000/svg">
  <sodipodi:namedview
     id="namedview7"
     pagecolor="#ffffff"
     bordercolor="#666666"
     borderopacity="1.0"
     inkscape:pageshadow="2"
     inkscape:pageopacity="0.0"
     inkscape:pagecheckerboard="0"
     inkscape:document-units="px"
     showgrid="false"
     units="px"
     height="48px"
     inkscape:zoom="25.4375"
     inkscape:cx="16"
     inkscape:cy="16"
     inkscape:window-width="1846"
     inkscape:window-height="1011"
     inkscape:window-x="0"
     inkscape:window-y="0"
     inkscape:window-maximized="1"
     inkscape:current-layer="svg5"
     inkscape:showpageshadow="2"
     inkscape:deskcolor="#d1d1d1"
     showguides="false" />
  <defs
     id="defs2" />
  <path
     id="rect5567"
     style="opacity:1;fill:#7d520d;stroke-width:0.194028;fill-opacity:1"
     d="m 4.7624999,1.8520833 c 1.6123708,0 2.9104166,1.2980458 2.9104166,2.9104166 v 0.2645833 c 0,1.6123708 -1.2980458,2.9104166 -2.9104166,2.9104166 -1.6123708,0 -2.9104166,-1.2980458 -2.9104166,-2.9104166 V 4.7624999 c 0,-1.6123708 1.2980458,-2.9104166 2.9104166,-2.9104166 z"
     sodipodi:nodetypes="sssssss" />
  <circle
     style="opacity:1;fill:#faa41a;fill-opacity:1;stroke-width:0.188988"
     id="path4871"
     cx="4.7624998"
     cy="4.7624998"
     r="2.6458333" />
  <path
     id="path38534"
     style="color:#000000;fill:#4a342b;fill-opacity:1;stroke:none;stroke-width:0.999918"
     d="M 4.115511,0.26458333 C 2.0322924,0.26271567 0.32052104,1.9804542 0.26613362,4.1294636 c -0.002052,0.080994 -0.001616,0.1613767 0.001034,0.241329 -2.3924e-4,0.00774 -8.3689e-4,0.015502 -0.001034,0.023254 C 0.21081874,6.5771473 1.8866831,8.4076669 4.0137084,8.4651162 5.0483074,8.4930386 5.8834614,8.0829408 6.5784097,7.428487 6.6440665,7.3730003 6.689514,7.3287515 6.689514,7.3287515 l 0.0062,-0.00362 0.00362,-0.00413 c 0,0 0.1922676,-0.2007335 0.3886067,-0.4842081 0.1693943,-0.2445722 0.3136417,-0.5709779 0.377238,-0.910022 0.00461,-0.00763 0.018696,-0.01624 0.023254,-0.023771 l -0.011369,-0.00362 c 0.00266,-0.016136 -0.00749,-0.102314 -0.019637,-0.199471 0.0026,-0.012642 0.00537,-0.025043 0.00775,-0.037724 0.00461,-0.00763 0.018696,-0.01624 0.023254,-0.023771 l -0.011369,-0.00362 C 7.4843039,5.5908494 7.406062,5.0720893 7.40885,5.0270832 7.1383995,5.3673512 6.7467914,5.8848754 6.3401814,6.0916177 6.138093,6.1850894 5.9565619,6.2624093 5.7794921,6.3220946 c -0.00477,0.00114 -0.00796,0.00282 -0.013436,0.00413 -0.083212,0.019859 -0.1704877,0.035973 -0.2619995,0.048576 -0.00884,0.00122 -0.021523,0.00241 -0.03514,0.00413 -0.097353,0.012344 -0.1957934,0.020963 -0.2986898,0.025321 -0.00177,7.4e-5 -0.013705,0.00145 -0.033073,0.00207 -0.1027532,0.00351 -0.2095234,0.00217 -0.3167765,-0.00207 -0.020308,-7.976e-4 -0.025626,-2.964e-4 -0.01912,0 -0.049292,-0.00218 -0.051649,-0.0041 -0.07028,-0.00775 -0.018631,-0.00365 -0.061475,-0.011739 -0.1291911,-0.019637 -0.023248,-0.00272 -0.038551,-0.0046 -0.047026,-0.00568 h -0.00155 c -0.1072695,-0.013631 -0.2141856,-0.031068 -0.322461,-0.05271 -0.018363,-0.00367 -0.036412,-0.00843 -0.05271,-0.011886 -0.104784,-0.022233 -0.2088323,-0.048359 -0.3105754,-0.078031 -0.033138,-0.00967 -0.064134,-0.019402 -0.095601,-0.029456 -0.027869,-0.0089 -0.054159,-0.016338 -0.074414,-0.023254 C 3.6662077,6.165181 3.6340781,6.1522661 3.5977131,6.1386433 3.5667503,6.1270452 3.5390364,6.1184532 3.5160644,6.1091877 3.4889584,6.0982555 3.4601624,6.0832867 3.4261474,6.0683633 3.3951624,6.0547705 3.367571,6.0444499 3.348116,6.0352904 3.29355,6.0095987 3.2411528,5.9823813 3.1915364,5.9551919 h -0.00155 C 3.152251,5.9342711 3.1161573,5.9130684 3.0824991,5.8905964 3.0064784,5.8398422 2.9409623,5.783064 2.8794108,5.722648 2.6894558,5.5288242 2.6260092,5.3244101 2.6096598,5.128369 2.5300358,4.2333333 3.2696602,3.6579829 3.7992512,3.4189127 4.4011178,3.2076007 5.0890387,3.0761544 5.6079263,3.2432128 l 0.011369,0.00362 0.011886,0.00207 c 0.4353155,0.098224 0.7535971,0.2434536 1.2030273,0.4025594 0.00289,0.0011 0.00905,0.00455 0.011886,0.00568 0.036836,0.014624 0.073783,0.026351 0.1405599,0.042891 l 0.00982,0.00207 0.011886,0.00207 c 0.2493467,0.0395 0.4571862,0.020505 0.6268351,-0.05116 C 7.8048394,3.5813522 7.9236741,3.453817 7.9886624,3.329002 8.0945753,3.1074379 8.1905461,2.876139 8.0899454,2.6220618 V 2.6215454 L 8.051188,2.4773681 V 2.4768514 C 8.0510823,2.4763017 8.044828,2.4422334 8.037752,2.4019204 8.034782,2.3849884 8.031372,2.3668324 8.028452,2.3486934 8.024172,2.3221134 8.020372,2.2958364 8.018117,2.2753134 8.017612,2.2622234 8.0172703,2.2490554 8.016567,2.2355224 8.0268805,2.0819018 8.0175807,1.903313 7.9886595,1.6608805 7.9688629,1.4949205 7.9080637,1.356417 7.8460326,1.2490193 7.7840014,1.1416216 7.7537923,1.0834682 7.6486286,1.0066569 7.6097469,0.97837357 7.358607,0.78208692 7.0801878,0.67282714 6.8493638,0.58229916 6.5685948,0.51129879 6.2461302,0.54777017 6.2381495,0.53609858 6.2351006,0.53042398 6.2249429,0.51469726 6.203236,0.48108948 6.1788217,0.44062598 6.137093,0.39325764 6.0953642,0.34588929 6.0195913,0.26305253 5.8694091,0.26665039 c -0.01746,4.1824e-4 -0.032569,9.8416e-4 -0.042892,0.002067 -0.0037,3.8734e-4 -0.00963,0.001014 -0.013953,0.00155 -0.00864,0.001072 -0.015761,0.002061 -0.026872,0.004134 -0.01815,0.003384 -0.033383,0.0071 -0.043408,0.009819 -0.022809,0.006193 -0.043398,0.013642 -0.064079,0.0232544 -0.090149,0.0419041 -0.1153546,0.0936992 -0.1348755,0.12712402 -0.019521,0.0334248 -0.030607,0.0587482 -0.039274,0.0837158 -0.00841,0.0242336 -0.011783,0.0461654 -0.01757,0.0687296 C 5.0841769,0.42581136 4.6709615,0.27892936 4.2152465,0.26665039 4.1829285,0.26577686 4.1494433,0.26461544 4.115511,0.26458333 Z"
     sodipodi:nodetypes="cccccccccscccccccccccccscccscccscccsssscccsccccccccccccccccccscccscccssssscccscccc" />
  <path
     style="color:#000000;fill:#696463;stroke:none;fill-opacity:1"
     d="M 5.6796875,1.3222656 C 5.2402296,1.3217407 4.7993093,1.444397 4.4765625,1.5566406 v 0.00195 C 3.8848397,1.7679828 3.4843872,1.950429 2.9941406,2.3007813 l -0.00195,0.00195 C 2.864166,2.3956965 2.3391706,2.770983 2.0039063,3.3359375 v 0.00391 l -0.00195,0.00195 C 1.1109841,4.9170187 1.7155384,6.66672 2.9746094,7.0820312 3.5762989,7.3062672 3.8456685,7.3283013 4.5055481,7.2523501 5.6538976,7.0528043 7.1642054,6.2867683 7.40885,5.0270832 7.309241,5.1188802 6.6455109,5.9024304 6.6171879,5.9277344 c -0.00911,0.00772 -0.00337,0.00386 -0.015625,0.013672 -0.034611,0.0277 -0.038997,0.025736 -0.042969,0.027344 -0.2112513,0.1836414 -0.3704466,0.1647066 -0.5644531,0.2851562 -5.042e-4,1.874e-4 -0.00145,-1.869e-4 -0.00195,0 C 5.2970197,6.5114078 4.061706,6.4282711 3.1914063,5.9511719 2.8616047,5.7687388 2.7473638,5.5793779 2.6914063,5.3847656 2.6354487,5.1901533 2.6530032,4.9817886 2.6660156,4.7890625 2.6844604,4.5167096 2.8842399,3.8037387 3.7988281,3.4140625 4.4007032,3.2027564 5.0885168,3.0712187 5.6074219,3.2382813 l 0.011719,0.00391 0.011719,0.00195 c 0.4200352,0.094772 0.7394915,0.2723699 1.1972656,0.4355469 0.00521,0.00208 0.014615,0.00977 0.019531,0.011719 0.03663,0.014483 0.071963,0.024485 0.1386719,0.041016 l 0.00977,0.00195 0.011719,0.00195 c 0.5054163,0.080051 0.8680601,-0.1324328 1.0292969,-0.375 C 8.1983461,3.1187609 8.2011719,2.8632813 8.2011719,2.8632813 l 0.00195,-0.027344 -0.035156,-0.1933594 -0.085937,-0.2167968 -0.041016,-0.089844 -0.00391,-0.00977 c -0.00284,-0.022928 -0.00389,-0.034739 -0.00977,-0.072266 l -0.451161,0.017583 C 7.4107715,2.2068314 7.2671746,2.1375159 7.1152344,1.9941406 6.9180737,1.808094 6.6690658,1.5646543 6.2636719,1.4238281 6.0753706,1.3507876 5.8775319,1.3225017 5.6796875,1.3222656 Z"
     id="path43467"
     sodipodi:nodetypes="sccccccccccccccccsccccccccccsccccccccscs" />
  <path
     style="color:#000000;fill:#4a342b;stroke:none;fill-opacity:1"
     d="m 2.9667969,2.2675781 c 0,0 -0.1354318,0.026675 -0.2246094,0.0625 C 2.6530099,2.3659027 2.5354621,2.4203735 2.4121094,2.5058594 2.1654039,2.6768311 1.8899892,2.9882822 1.8574219,3.4492188 V 3.4355469 L 1.8164062,3.78125 2.1308594,3.765625 c 0.220091,-0.011152 0.5015471,0.044394 0.6777344,0.1679688 l 0.00195,0.00195 0.00195,0.00195 c 0.07478,0.050484 0.1684333,0.135506 0.3027344,0.2089844 0.1343011,0.073478 0.3391205,0.1231209 0.5371094,0.052734 C 3.7780374,4.1551382 3.9176677,4.0518623 3.9609375,3.9023438 4.0042073,3.7528252 3.961994,3.6354064 3.921875,3.5332031 L 3.9199219,3.53125 C 3.8938727,3.467356 3.8567538,3.370509 3.8066406,3.2714844 3.7565275,3.1724597 3.7034172,3.0683436 3.5878906,2.9765625 3.4099023,2.8357116 3.2494727,2.8377866 3.1523438,2.8085938 c -0.028705,-0.00863 -0.032223,-0.011565 -0.044922,-0.017578 0.00222,-0.00458 0.00408,-0.013812 0.068359,-0.097656 L 3.5019531,2.2675781 Z"
     id="path48929"
     sodipodi:nodetypes="csscccccccscsccscccccc" />
  <path
     style="color:#000000;fill:#946857;stroke:none;stroke-width:0.529167"
     d="M 4.1158554,0.52916807 C 2.1780255,0.52743047 0.58135898,2.1233274 0.53041854,4.1364659 0.47860875,6.181559 2.0413657,7.8827417 4.0207213,7.9362114 c 0.9643094,0.02603 1.7171056,-0.3438726 2.3774921,-0.9665766 0.070513,-0.058834 0.1088797,-0.0955 0.1088797,-0.0955 0,0 0.7161295,-0.7516434 0.7545623,-1.37209 C 7.078926,5.8039399 6.911309,6.1062118 6.4564516,6.3300734 6.2478472,6.4267069 6.0566437,6.5089235 5.8639429,6.5738882 c -0.012338,0.00314 -0.024728,0.00605 -0.037258,0.00904 -0.091273,0.021786 -0.1869355,0.040087 -0.287211,0.053899 -0.012152,0.00167 -0.024627,0.00315 -0.036896,0.0047 -0.1039988,0.013189 -0.2113818,0.022794 -0.3222985,0.027492 -0.011417,4.762e-4 -0.023249,3.439e-4 -0.034726,7.144e-4 -0.1094237,0.00374 -0.2213369,0.00342 -0.3349593,-0.00108 -0.00741,-2.911e-4 -0.014639,-3.2e-5 -0.022066,-3.704e-4 -0.1155478,-0.00512 -0.100553,-0.015601 -0.2179831,-0.0293 -0.016759,-0.00196 -0.033511,-0.00329 -0.05028,-0.00543 C 4.4059549,6.6190309 4.2916903,6.5998383 4.1780714,6.5771246 4.1597146,6.5734548 4.1413946,6.569793 4.1230889,6.5659116 4.0119025,6.542316 3.9017133,6.5146208 3.7935556,6.4830726 3.7588785,6.4729576 3.7243308,6.4625383 3.6901017,6.4516007 3.6642334,6.4433351 3.6382717,6.4353791 3.6126923,6.4266426 3.576138,6.4141569 3.5404287,6.4006605 3.5045359,6.3872125 3.4752613,6.3762455 3.445782,6.3655431 3.416998,6.3539322 3.383643,6.3404781 3.3512387,6.325926 3.3186084,6.3116084 3.2909544,6.2994746 3.2628599,6.2878276 3.2357729,6.2750723 3.1767989,6.2473011 3.1188292,6.2182573 3.0628675,6.1875307 3.0183307,6.1628953 2.9759447,6.1370985 2.9355397,6.1101176 2.8427487,6.0481567 2.7617637,5.9798645 2.6892036,5.9082654 2.3114439,5.5227481 2.3289825,5.0694515 2.3488186,4.7756489 2.3738109,4.4066002 2.6832039,3.5968979 3.7013152,3.1680647 4.3303648,2.9459457 5.0701749,2.7906001 5.688643,2.9897255 c 0.4652258,0.1049729 0.7997597,0.2576139 1.24217,0.4138335 0,0 -0.00358,0.0077 0.1186463,0.037983 C 7.909856,3.5778411 7.8132765,2.8690011 7.8132765,2.8690011 L 7.7458376,2.7031193 v 0 c -0.014917,-0.087413 0.050554,-0.1563525 0.050554,-0.1563525 0,0 -0.053034,-0.1954632 -0.044096,-0.3246419 0.00906,-0.1291192 0.00175,-0.2946266 -0.026405,-0.5306764 C 7.6977358,1.4553807 7.5428051,1.2556114 7.4925758,1.218918 7.4422317,1.1822907 7.2076511,1.0054369 6.9829026,0.91722459 6.7580168,0.82901115 6.5307284,0.7638194 6.2507675,0.80327563 c -0.031085,0.004396 -0.060507,0.009149 -0.091155,0.0137462 -0.00543,-0.001722 -0.00968,-0.003685 -0.015555,-0.005426 C 6.0373015,0.77989023 5.9617847,0.52757782 5.8745711,0.5296675 c -0.00668,1.6005e-4 -0.013425,7.3025e-4 -0.020257,0.001447 -0.00673,7.0379e-4 -0.013703,0.001603 -0.020619,0.002894 h -3.705e-4 c -0.00705,0.001315 -0.014057,0.003089 -0.021341,0.005064 -0.00795,0.002159 -0.015616,0.004986 -0.022788,0.00832 C 5.7381568,0.57112098 5.7068902,0.84572001 5.6875579,0.90429599 5.2397594,0.67794187 4.7390674,0.54492401 4.2080958,0.53061494 c -0.030927,-8.3608e-4 -0.061481,-0.001418 -0.09224,-0.001447 z M 6.0889369,6.5058803 c -0.065737,0.0245 -0.1370957,0.045234 -0.210525,0.064391 0.073388,-0.019145 0.1448316,-0.039907 0.210525,-0.064391 z"
     id="path38532" />
  <path
     d="M 5.6786437,1.5875014 C 5.2910278,1.5870384 4.8708153,1.7004608 4.5639124,1.8071943 3.9819026,2.0131463 3.6190035,2.1798186 3.147424,2.5168305 3.0223769,2.6076328 2.5309851,2.9684345 2.2324095,3.4715648 1.4072823,4.9303791 1.9911049,6.4793579 3.0581329,6.8313228 c 1.1731339,0.438727 2.2960777,0.5654397 3.7085124,-0.682806 -0.1215742,0.097297 0,0 -0.677904,0.3532497 C 5.2897435,6.7995384 4.0104847,6.7038881 3.0627787,6.1835593 2.3003546,5.7618167 2.3768693,5.140838 2.4017855,4.7718051 2.4267778,4.4027725 2.6832511,3.5929678 3.7013625,3.1641531 4.330412,2.9420439 5.0700907,2.786716 5.6885587,2.985833 c 0.4652262,0.1049681 0.7996299,0.2949125 1.2420399,0.4511254 0,0 -0.00364,0.00758 0.1185836,0.037868 C 7.9095789,3.6111014 7.937398,2.853915 7.937398,2.853915 L 7.9128658,2.7159503 7.8379649,2.5287564 7.8022708,2.4485545 7.7807416,2.4050907 c 0,0 -0.0062,-0.054724 -0.014901,-0.1103268 C 7.7493616,2.5026006 7.6666006,2.615452 7.6666006,2.615452 6.9978755,2.4886642 6.8783503,1.9120923 6.1732614,1.6700771 6.0242398,1.61147 5.8548327,1.5877116 5.6786437,1.5875014 Z m 1.0880016,4.5610154 c 0.07789,-0.062336 0.1156258,-0.1049297 0.1156375,-0.1049009 -0.03868,0.03614 -0.077192,0.070925 -0.1156375,0.1049009 z"
     style="fill:#d3c9c6;stroke-width:0.264583"
     id="path43053" />
  <path
     style="color:#000000;fill:#d3c9c6;stroke:none;stroke-width:0.529167;-inkscape-stroke:none"
     d="M 5.6786437,1.5875014 C 5.2910278,1.5870384 4.8708153,1.7004608 4.5639124,1.8071943 3.9819026,2.0131463 3.6190035,2.1798186 3.147424,2.5168305 3.0223769,2.6076328 2.5309851,2.9684345 2.2324095,3.4715648 1.4072823,4.9303791 1.9911049,6.4793579 3.0581329,6.8313228 c 1.1731339,0.438727 2.2960777,0.5654397 3.7085124,-0.682806 -0.1215742,0.097297 0,0 -0.677904,0.3532497 C 5.2897435,6.7995384 4.0104847,6.7038881 3.0627787,6.1835593 2.3003546,5.7618167 2.3768693,5.140838 2.4017855,4.7718051 2.4267778,4.4027725 2.6832511,3.5929678 3.7013625,3.1641531 4.330412,2.9420439 5.0700907,2.786716 5.6885587,2.985833 c 0.4652262,0.1049681 0.7996299,0.2949125 1.2420399,0.4511254 0,0 -0.00364,0.00758 0.1185836,0.037868 C 7.9095789,3.6111014 7.937398,2.853915 7.937398,2.853915 L 7.9128658,2.7159503 7.8379649,2.5287564 7.8022708,2.4485545 7.7807416,2.4050907 c 0,0 -0.0062,-0.054724 -0.014901,-0.1103268 C 7.7493616,2.5026006 7.6666006,2.615452 7.6666006,2.615452 6.9978755,2.4886642 6.8783503,1.9120923 6.1732614,1.6700771 6.0242398,1.61147 5.8548327,1.5877116 5.6786437,1.5875014 Z m 1.0880016,4.5610154 c 0.07789,-0.062336 0.1156258,-0.1049297 0.1156375,-0.1049009 -0.03868,0.03614 -0.077192,0.070925 -0.1156375,0.1049009 z"
     id="path43465" />
  <path
     style="color:#000000;fill:#946857;stroke:none;stroke-width:0.529167;-inkscape-stroke:none"
     d="m 2.1206766,3.4682073 -0.00401,0.033048 C 2.3857461,3.4876209 2.715538,3.5459292 2.9601755,3.7175142 3.149841,3.8455579 3.3206959,4.0366474 3.5638742,3.9501956 3.730128,3.8918907 3.7393657,3.7931593 3.6756371,3.6308105 3.6218203,3.4988077 3.5328608,3.2708628 3.422856,3.1834686 3.2643857,3.0580632 2.854711,3.1018547 2.8341573,2.8396084 2.818711,2.7156477 2.8967914,2.6224103 2.9660537,2.5320625 c -1.278e-4,0 -0.7933239,0.1994181 -0.8453771,0.9361448 z"
     id="path48927" />
  <path
     d="m 7.6795904,2.6458337 c 0,0 -0.030483,0.096121 -0.1736198,0.1045552 -0.1430804,0.00855 -0.1183339,0.2075251 0.00574,0.3189298 0.1241266,0.1114618 0.2212007,0.1420304 0.303933,0.056495 0.08262,-0.085365 0.2855415,-0.2269987 -0.1360498,-0.4799804 z"
     style="fill:#424242;stroke-width:0.264583;fill-opacity:1"
     id="path45294" />
  <circle
     style="opacity:1;fill:#424242;fill-opacity:1;stroke:none;stroke-width:0.529167;stroke-linejoin:round;stroke-dasharray:none;stroke-opacity:1"
     id="path47129"
     cx="6.614583"
     cy="2.1166666"
     r="0.26458332" />
  <ellipse
     style="opacity:1;fill:#424242;fill-opacity:1;stroke:none;stroke-width:0.324048;stroke-linejoin:round;stroke-dasharray:none;stroke-opacity:1"
     id="path47443"
     cx="7.7258329"
     cy="2.315104"
     rx="0.13229166"
     ry="0.1984375" />
</svg>
