<?xml version="1.0" encoding="UTF-8" standalone="no"?>
<svg
   width="32"
   height="32"
   version="1.1"
   id="svg16"
   sodipodi:docname="microsoft-edge.svg"
   inkscape:version="1.2 (dc2aedaf03, 2022-05-15)"
   xmlns:inkscape="http://www.inkscape.org/namespaces/inkscape"
   xmlns:sodipodi="http://sodipodi.sourceforge.net/DTD/sodipodi-0.dtd"
   xmlns="http://www.w3.org/2000/svg"
   xmlns:svg="http://www.w3.org/2000/svg">
  <defs
     id="defs20" />
  <sodipodi:namedview
     id="namedview18"
     pagecolor="#ffffff"
     bordercolor="#000000"
     borderopacity="0.25"
     inkscape:showpageshadow="2"
     inkscape:pageopacity="0.0"
     inkscape:pagecheckerboard="0"
     inkscape:deskcolor="#d1d1d1"
     showgrid="false"
     inkscape:zoom="16.000001"
     inkscape:cx="5.4687497"
     inkscape:cy="17.937499"
     inkscape:window-width="1920"
     inkscape:window-height="1011"
     inkscape:window-x="0"
     inkscape:window-y="0"
     inkscape:window-maximized="1"
     inkscape:current-layer="svg16"
     showguides="false" />
  <path
     id="path8726"
     style="opacity:1;fill:#0b6e5f;fill-opacity:1;stroke-width:2;stroke-linecap:round;stroke-linejoin:bevel"
     d="M 16,1 C 7.7157535,0.99999978 1,7.7157535 1,16 v 1 c 0,8.284247 6.7157536,15 15,15 5.118691,0 10.124902,-3.078115 12.697266,-7.011719 0.146363,-0.230571 0.210524,-0.49272 0.208984,-0.751953 v 0 -1.066406 h -0.0039 c -0.01499,-0.356279 -0.149648,-0.700591 -0.373047,-0.9375 -0.399243,-0.423381 -1.156858,-0.597761 -1.744141,-0.271484 l -0.117187,0.06641 -0.09766,0.0957 c -1.02857,1.011996 -2.844276,1.347169 -4.376953,1.355469 -4.410976,0 -8.243713,-3.257957 -8.644531,-6.919922 0.12357,-0.723109 0.566892,-1.357024 1.220703,-1.720703 0.354955,-0.167217 0.717767,-0.341232 1.21875,-0.332032 h 0.0039 0.0059 c 0.795206,0.0058 1.53959,0.381788 2.015625,1.019532 v 0.002 c 0.135189,0.180478 0.227159,0.385095 0.302734,0.595703 -0.07578,0.29117 -0.20059,0.571375 -0.40039,0.849609 0.0083,-0.07164 -0.617188,0.541923 -0.617188,1.304688 v 1 c 0,0.718311 0.451388,1.267645 0.94336,1.611328 h 0.002 c 1.045237,0.726767 2.304293,0.949329 3.324218,1.058594 1.019925,0.10926 1.789169,0.07031 1.792969,0.07031 h 0.002 c 1.343843,-0.0032 2.661622,-0.367552 3.816407,-1.052734 1.322572,-0.773199 2.418291,-1.786158 3.092104,-3.052886 C 30.733198,17.044834 30.996749,16.058737 31,14.949219 31.0024,14.732149 30.9968,14.522812 30.98633,14.316406 30.99313,14.195163 30.99964,14.073555 31,13.949219 31.03013,11.250205 29.991099,9.3588619 29.652344,8.6894531 l -0.002,-0.00195 v -0.00195 C 29.563965,8.5163187 29.466267,8.3555161 29.373047,8.1914062 26.192698,3.2563078 21.334058,1 16,1 Z"
     sodipodi:nodetypes="sssscccccscccccccccccccccccssscscccccccs" />
  <path
     id="path15537"
     style="color:#000000;fill:#05436d;fill-opacity:1;stroke:none;stroke-width:2"
     d="m 10.75,8.0976562 c -4.7246956,1e-7 -8.6975002,3.7073638 -8.75,7.7031248 0,0 -0.5225537,1.674088 -0.8886719,2.996094 C 1.9997826,26.233309 8.324318,32 16,32 c 3.823855,0 7.583911,-1.717586 10.314453,-4.226562 l -6.175781,0.552734 c -1.994745,0.628845 -4.704358,0.325301 -6.455078,-0.769531 l -0.01172,-0.0059 c -0.002,-0.0012 -0.0039,-0.0027 -0.0059,-0.0039 -0.860375,-0.535024 -1.607435,-1.235417 -2.195313,-2.060547 l -0.002,-0.0039 -0.0039,-0.0059 c -2.7080577,-3.709713 -1.243489,-4.918701 2.669922,-6.888671 -0.306124,-0.649007 -0.509522,-1.331145 -0.585938,-2.029297 0.12357,-0.723109 0.566893,-1.357025 1.220703,-1.720703 0.354955,-0.167217 0.717768,-0.341232 1.21875,-0.332032 h 0.0039 0.0059 c 0.795205,0.0058 1.53959,0.381788 2.015625,1.019532 v 0.002 c 0.135189,0.180478 0.227159,0.385095 0.302734,0.595703 3.7e-5,4.8e-5 1.074219,-0.146485 1.074219,-0.146485 0.147087,-0.958902 -0.09055,-2.003088 -0.673828,-3.103515 C 18.066059,11.749991 17.130822,10.137467 15.34375,9.1992188 13.316069,8.1352137 11.132787,8.0976562 10.75,8.0976562 Z"
     sodipodi:nodetypes="sccsccccccccccccccccccccs" />
  <path
     id="path13947"
     style="fill:#07294d;fill-opacity:1;stroke-width:2;stroke-linecap:round;stroke-linejoin:bevel"
     d="m 9.0605469,11.988281 v 9.085938 l 4.9375001,8.048828 6.572265,0.103515 c 1.750308,-0.190403 3.00059,-0.324471 4.63086,-0.527343 1.394669,-1.070963 2.596984,-2.33604 3.496094,-3.710938 0.14636,-0.230571 0.210524,-0.49272 0.208984,-0.751953 v -1.066406 h -0.0039 c -0.01499,-0.356279 -0.149648,-0.700591 -0.373047,-0.9375 -0.399243,-0.423381 -1.156858,-0.597761 -1.744141,-0.271484 l -0.117187,0.06641 -0.09766,0.0957 c -1.028564,1.011993 -2.844279,1.347169 -4.376953,1.355469 -4.410961,0 -8.243713,-3.257969 -8.644531,-6.919922 6.68e-4,-0.0039 0.0013,-0.0078 0.002,-0.01172 -0.353511,-1.192392 -0.191264,-1.969821 -0.04106,-3.005859 z"
     sodipodi:nodetypes="cccccccccscccccccc" />
  <path
     style="fill:#0e539b"
     class="cls-1"
     d="m 27.271997,22.836176 c -1.341607,1.319982 -3.422748,1.633304 -5.079057,1.641441 -5.175302,0 -9.683458,-3.979415 -9.683458,-8.547101 0.01349,-1.2475 0.700967,-2.39007 1.796919,-2.986439 -4.6809571,0.196836 -5.8840075,5.073993 -5.8840075,7.931395 0,8.079021 7.4468785,8.898077 9.0513095,8.898077 0.865102,0 2.169865,-0.251513 2.952941,-0.498651 l 0.143272,-0.04811 c 3.01336,-1.041599 5.582269,-3.077935 7.28392,-5.773853 0.243032,-0.382853 -0.185406,-0.837 -0.581839,-0.616753 z"
     id="path7652" />
  <path
     id="path9923"
     style="opacity:0.25;fill:#000000"
     d="M 14.306641,12.943359 C 9.6256883,13.140195 8.421875,18.017601 8.421875,20.875 c 0,2.790034 0.8882678,4.713473 2.117187,6.037109 -2.7042349,-3.882231 -1.5094378,-9.104503 2.119141,-11.939453 0.258277,-0.854605 0.841922,-1.590426 1.648438,-2.029297 z" />
  <path
     style="fill:#0b87da"
     class="cls-3"
     d="m 13.143889,28.400072 c -0.975495,-0.605378 -1.82089,-1.398618 -2.487032,-2.3336 -3.2323204,-4.427893 -1.2687571,-10.699961 3.649544,-13.122395 0.341229,-0.160749 0.924161,-0.451629 1.699582,-0.437412 1.107462,0.0081 2.147255,0.53416 2.809667,1.421592 0.441654,0.589615 0.685162,1.303958 0.695582,2.040532 0,-0.02296 2.675146,-8.7045216 -8.749453,-8.7045216 -4.8012627,0 -8.7494535,4.5556576 -8.7494535,8.5525206 -0.018938,2.114288 0.4335063,4.206232 1.3244485,6.123784 3.0139297,6.429771 10.36556,9.584272 17.102994,7.3387 -2.306468,0.727117 -5.235651,0.407404 -7.286035,-0.874826 z"
     id="path7656"
     sodipodi:nodetypes="ccccccsccccc" />
  <path
     id="path9151"
     style="opacity:0.25;fill:#000000"
     d="M 16,3 C 8.344736,2.9992433 2.1076522,9.1473149 2,16.800781 2.052496,12.805016 6.0252993,9.0976562 10.75,9.0976562 c 0.382787,0 2.566067,0.037556 4.59375,1.1015628 1.787074,0.938249 2.722308,2.550771 3.373047,3.673828 0.419906,0.792207 0.661535,1.555917 0.708984,2.279297 l 6.340576,-0.330688 c 0.08008,-0.379652 0.12412,-0.781735 0.125,-1.210938 0.02843,-2.450604 3.233698,-3.748362 2.868409,-4.470093 C 26.442257,5.6079351 21.439968,3 16,3 Z"
     sodipodi:nodetypes="ccsccccccc" />
  <path
     style="fill:#17dcbe"
     class="cls-5"
     d="m 18.660348,17.658625 c -0.08859,0.11482 -0.360916,0.273382 -0.360916,0.618939 0,0.285411 0.185927,0.559889 0.516218,0.790625 1.572715,1.093532 4.537686,0.949186 4.545342,0.949186 1.165346,-0.0028 2.308604,-0.318123 3.310574,-0.913101 2.056743,-1.200762 3.323193,-2.781541 3.328073,-5.162895 C 30.028073,11.490772 29.124694,9.8614084 28.759404,9.1396763 26.441893,4.6069826 21.439393,2.0000001 15.99942,2.0000001 8.3441482,1.9992434 2.1079473,8.1469114 2.000295,15.800385 2.052792,11.804616 6.0250435,8.0974061 10.749749,8.0974061 c 0.382787,0 2.565777,0.037181 4.593462,1.1011878 1.787076,0.9382501 2.723268,2.5513461 3.374008,3.6744041 0.945825,1.784423 0.98653,3.42337 -0.05687,4.785627 z"
     id="path7660"
     sodipodi:nodetypes="cscccccccsccc" />
</svg>
