<?xml version="1.0" encoding="UTF-8" standalone="no"?>
<!-- Created with Inkscape (http://www.inkscape.org/) -->

<svg
   width="32"
   height="32"
   viewBox="0 0 8.4666666 8.4666666"
   version="1.1"
   id="svg5"
   inkscape:version="1.2 (dc2aedaf03, 2022-05-15)"
   sodipodi:docname="mintinstall.svg"
   xmlns:inkscape="http://www.inkscape.org/namespaces/inkscape"
   xmlns:sodipodi="http://sodipodi.sourceforge.net/DTD/sodipodi-0.dtd"
   xmlns="http://www.w3.org/2000/svg"
   xmlns:svg="http://www.w3.org/2000/svg">
  <sodipodi:namedview
     id="namedview7"
     pagecolor="#ffffff"
     bordercolor="#666666"
     borderopacity="1.0"
     inkscape:pageshadow="2"
     inkscape:pageopacity="0.0"
     inkscape:pagecheckerboard="0"
     inkscape:document-units="px"
     showgrid="false"
     units="px"
     height="48px"
     inkscape:zoom="17.721864"
     inkscape:cx="18.959631"
     inkscape:cy="19.185341"
     inkscape:window-width="1846"
     inkscape:window-height="1011"
     inkscape:window-x="0"
     inkscape:window-y="0"
     inkscape:window-maximized="1"
     inkscape:current-layer="svg5"
     showguides="true"
     inkscape:showpageshadow="2"
     inkscape:deskcolor="#d1d1d1" />
  <defs
     id="defs2" />
  <rect
     style="opacity:1;fill:#396247;fill-opacity:1;stroke-width:0.264583"
     id="rect1162"
     width="6.8791666"
     height="6.8791666"
     x="0.79374999"
     y="0.79374999"
     ry="0.66145831" />
  <rect
     style="fill:#73c48f;fill-opacity:1;stroke-width:0.264583"
     id="rect1142"
     width="6.3499999"
     height="6.0854168"
     x="1.0583333"
     y="1.0583333"
     ry="0.52916664" />
  <path
     id="path6"
     style="text-indent:0;text-decoration-line:none;text-transform:none;stroke-width:0.264583;fill:#ffffff"
     d="M 5.4246706,1.8522788 C 5.347652,1.8508527 5.2684839,1.8570413 5.1910932,1.8770835 4.6976453,2.005671 4.4020809,2.5071556 4.5306684,2.9974287 a 0.92154374,0.92154374 0 0 0 0.1328084,0.2785358 c -0.02831,0.0045 -0.4304647,0.6867798 -0.4304647,0.6867798 l 0.9022705,0.00569 0.2123903,-0.2950726 c 0.1005414,0.00793 0.2063541,0.00553 0.3095416,-0.021192 C 6.1506624,3.5235822 6.4464914,3.0226143 6.3176393,2.5323415 6.2909164,2.4299477 6.2414393,2.3368846 6.1853476,2.2538055 L 5.825163,2.8635873 A 0.2619375,0.2619375 0 0 1 5.4660117,2.9571218 L 5.235018,2.8227621 A 0.25796875,0.25796875 0 0 1 5.1409671,2.4661948 L 5.5006348,1.8558962 c -0.025135,-0.00198 -0.050291,-0.00314 -0.075964,-0.00362 z M 3.077527,2.0352134 c -0.00277,-4.55e-5 -0.00562,5.054e-4 -0.00827,0.00103 -0.060854,0.012435 -0.1170245,0.034594 -0.1731161,0.057878 -0.0045,0.1651 0.022953,0.3815953 -0.041341,0.4382162 -0.063235,0.055563 -0.2744513,0.00893 -0.4376992,-0.00827 a 0.96043749,0.96043749 0 0 0 -0.082682,0.1984376 c 0.1262062,0.104775 0.301439,0.2220515 0.3054077,0.3059244 0.00423,0.084931 -0.1649925,0.2129896 -0.2800862,0.3307292 0.027252,0.068262 0.06596,0.1303734 0.1069702,0.1901693 0.1608666,-0.033602 0.3611687,-0.098822 0.429431,-0.049609 0.069586,0.050271 0.069796,0.2661708 0.090434,0.4299479 C 3.0527214,3.949511 3.1223728,3.957448 3.1932811,3.96274 3.2676301,3.8159016 3.3430488,3.6134292 3.4242759,3.590675 3.5076196,3.5671271 3.6788175,3.7119203 3.8206341,3.7973807 3.8783133,3.7574287 3.9295888,3.70815 3.9772138,3.6568208 3.9102742,3.5054792 3.7867675,3.3150453 3.8206341,3.2351412 3.8542362,3.155237 4.078483,3.1106547 4.2335289,3.0532401 c 0.00106,-0.019579 0.00827,-0.038551 0.00827,-0.058394 0,-0.050271 -0.00913,-0.1001448 -0.016536,-0.1488281 C 4.0649231,2.8036843 3.8376336,2.7827037 3.7958295,2.7059745 3.7542899,2.6295099 3.8597263,2.4251854 3.9115847,2.2677583 A 0.97419582,0.97419582 0 0 0 3.7384686,2.1437349 C 3.6061769,2.2429536 3.4515941,2.406863 3.3663983,2.3917818 3.2827899,2.3769651 3.1912317,2.1748896 3.1023317,2.0362479 c -0.00794,0.00139 -0.016494,-8.969e-4 -0.024805,-0.00103 z m 0.1570963,0.4971273 c 0.2460625,0 0.4454509,0.1998926 0.4454509,0.4464843 a 0.44608749,0.44608749 0 1 1 -0.8914185,0 c 0,-0.2465917 0.1996406,-0.4464843 0.4459676,-0.4464843 z m -0.3240111,1.6944702 0.00206,1.5874999 c 0,0.1508125 0.1217207,0.2645834 0.2640666,0.2645834 h 2.1145997 c 0.1383771,0 0.2635498,-0.1176073 0.2635498,-0.2480469 l -0.00258,-1.6040364 z m 1.0583333,0.2645833 h 0.5291667 v 0.396875 H 4.7626955 L 4.2335289,5.5497275 h 0.396875 a 0.13229166,0.13229166 0 0 1 0,0.2645833 h -0.79375 a 0.13229166,0.13229166 0 0 1 0,-0.2645833 h 0.396875 L 3.7043622,4.8882692 h 0.2645833 z" />
</svg>
