<?xml version="1.0" encoding="UTF-8" standalone="no"?>
<!-- Created with Inkscape (http://www.inkscape.org/) -->

<svg
   width="32"
   height="32"
   viewBox="0 0 8.4666666 8.4666666"
   version="1.1"
   id="svg5"
   inkscape:version="1.1.2 (0a00cf5339, 2022-02-04, custom)"
   sodipodi:docname="office-address-book.svg"
   xmlns:inkscape="http://www.inkscape.org/namespaces/inkscape"
   xmlns:sodipodi="http://sodipodi.sourceforge.net/DTD/sodipodi-0.dtd"
   xmlns="http://www.w3.org/2000/svg"
   xmlns:svg="http://www.w3.org/2000/svg">
  <sodipodi:namedview
     id="namedview7"
     pagecolor="#ffffff"
     bordercolor="#666666"
     borderopacity="1.0"
     inkscape:pageshadow="2"
     inkscape:pageopacity="0.0"
     inkscape:pagecheckerboard="0"
     inkscape:document-units="px"
     showgrid="false"
     units="px"
     height="48px"
     inkscape:zoom="25.0625"
     inkscape:cx="15.98005"
     inkscape:cy="16"
     inkscape:window-width="1920"
     inkscape:window-height="1017"
     inkscape:window-x="0"
     inkscape:window-y="0"
     inkscape:window-maximized="1"
     inkscape:current-layer="svg5" />
  <defs
     id="defs2" />
  <rect
     style="opacity:1;fill:#245c63;fill-opacity:1;stroke-width:0.264583"
     id="rect1162"
     width="5.8208332"
     height="6.8791666"
     x="1.3229166"
     y="0.79374999"
     ry="0.52916664" />
  <rect
     style="opacity:1;fill:#dedede;fill-opacity:1;stroke-width:0.264583"
     id="rect1077"
     width="5.2916665"
     height="6.3499999"
     x="1.5875"
     y="1.0583334"
     ry="0.39687499" />
  <rect
     style="opacity:0.2;fill:#000000;fill-opacity:1;stroke-width:0.529167;stroke-linecap:round"
     id="rect13603"
     width="1.5875001"
     height="1.3229167"
     x="5.8208332"
     y="1.3229165"
     ry="0.26458332" />
  <rect
     style="fill:#faa41a;fill-opacity:1;stroke-width:0.529167;stroke-linecap:round"
     id="rect6113"
     width="1.5875"
     height="1.3229166"
     x="5.8208332"
     y="1.5874999"
     ry="0.26458332" />
  <rect
     style="opacity:0.2;fill:#000000;fill-opacity:1;stroke-width:0.529167;stroke-linecap:round"
     id="rect13774"
     width="1.5875001"
     height="1.3229167"
     x="5.8208332"
     y="2.3812499"
     ry="0.26458332" />
  <rect
     style="fill:#73c48f;fill-opacity:1;stroke-width:0.529167;stroke-linecap:round"
     id="rect6495"
     width="1.5875001"
     height="1.3229167"
     x="5.8208332"
     y="2.6458333"
     ry="0.26458332" />
  <rect
     style="opacity:0.2;fill:#000000;fill-opacity:1;stroke-width:0.529167;stroke-linecap:round"
     id="rect13878"
     width="1.5875001"
     height="1.322917"
     x="5.8208332"
     y="3.4395833"
     ry="0.26458332" />
  <rect
     style="fill:#b84acb;fill-opacity:1;stroke-width:0.529167;stroke-linecap:round"
     id="rect6725"
     width="1.5875001"
     height="1.3229167"
     x="5.8208332"
     y="3.7041664"
     ry="0.26458332" />
  <rect
     style="opacity:0.2;fill:#000000;fill-opacity:1;stroke-width:0.529167;stroke-linecap:round"
     id="rect13982"
     width="1.5875001"
     height="1.322917"
     x="5.8208332"
     y="4.4979167"
     ry="0.26458332" />
  <rect
     style="fill:#f15d22;fill-opacity:1;stroke-width:0.529167;stroke-linecap:round"
     id="rect6955"
     width="1.5875001"
     height="1.322917"
     x="5.8208332"
     y="4.7624998"
     ry="0.26458332" />
  <rect
     style="fill:#245c63;fill-opacity:1;stroke-width:0.529167;stroke-linecap:round"
     id="rect1345"
     width="5.2916665"
     height="6.3499999"
     x="1.3229166"
     y="0.52916664"
     ry="0.52916664" />
  <rect
     style="fill:#48b9c7;fill-opacity:1;stroke-width:0.529167;stroke-linecap:round"
     id="rect5488"
     width="4.7624998"
     height="5.8208332"
     x="1.5875"
     y="0.79374999"
     ry="0.39687499" />
  <path
     d="m 4.2333326,2.9104166 c 0.5845016,0 1.0583333,0.4738317 1.0583333,1.0583333 V 4.1010416 C 5.2915548,4.4712915 4.8293542,4.6397279 4.5910492,4.3563645 4.4939763,4.4470478 4.3661719,4.4976202 4.2333326,4.4979166 3.761861,4.4979166 3.5258341,3.92793 3.8591747,3.594592 4.1925127,3.2612514 4.7624992,3.497281 4.7624992,3.9687499 v 0.1322917 c 0,0.1763897 0.2645834,0.1763897 0.2645834,0 V 3.9687499 c 0,-0.7072048 -0.8549799,-1.0612464 -1.3549868,-0.5612368 C 3.1720862,3.90752 3.5261278,4.7624999 4.2333326,4.7624999 h 0.6614583 c 0,0 0.1322917,0 0.1322917,0.1322917 -0.0082,0.1322916 -0.1322917,0.1322916 -0.1322917,0.1322916 H 4.2333326 c -1.4111102,0 -1.4111102,-2.1166666 0,-2.1166666 z m 0,0.79375 c -0.3527769,0 -0.3527769,0.5291666 0,0.5291666 0.3527769,0 0.3527769,-0.5291666 0,-0.5291666 z"
     id="path4563"
     style="stroke-width:0.264583;fill:#000000;opacity:0.2"
     sodipodi:nodetypes="ssccccsssscscccsssss" />
  <path
     d="m 4.2333326,2.6458333 c 0.5845016,0 1.0583333,0.4738317 1.0583333,1.0583333 V 3.8364583 C 5.2915548,4.2067083 4.8293541,4.3751447 4.5910492,4.0917812 4.4939762,4.1824642 4.3661719,4.233037 4.2333326,4.2333333 3.761861,4.2333333 3.5258341,3.6633467 3.8591747,3.3300087 4.1925126,2.9966681 4.7624992,3.2326977 4.7624992,3.7041666 v 0.1322917 c 0,0.1763898 0.2645834,0.1763898 0.2645834,0 V 3.7041666 c 0,-0.7072048 -0.8549799,-1.0612464 -1.3549868,-0.5612368 -0.5000096,0.5000069 -0.145968,1.3549868 0.5612368,1.3549868 h 0.6614583 c 0,0 0.1322917,0 0.1322917,0.1322917 C 5.0188826,4.7625 4.8947909,4.7625 4.8947909,4.7625 H 4.2333326 c -1.4111102,0 -1.4111102,-2.1166667 0,-2.1166667 z m 0,0.7937499 c -0.3527769,0 -0.3527769,0.5291668 0,0.5291668 0.3527769,0 0.3527769,-0.5291668 0,-0.5291668 z"
     style="stroke-width:0.0700042;fill:#ffffff"
     id="path14135" />
  <path
     id="rect5700"
     style="fill:#16393e;fill-opacity:1;stroke-width:0.529167;stroke-linecap:round"
     d="M 1.984375,0.79374999 H 2.1166667 V 7.408333 H 1.984375 C 1.7645062,7.408333 1.5875,7.2313268 1.5875,7.011458 V 1.190625 c 0,-0.21986876 0.1770062,-0.39687501 0.396875,-0.39687501 z"
     sodipodi:nodetypes="sccssss" />
</svg>
