<?xml version="1.0" encoding="UTF-8" standalone="no"?>
<!-- Created with Inkscape (http://www.inkscape.org/) -->

<svg
   width="32"
   height="32"
   viewBox="0 0 8.4666665 8.4666665"
   version="1.1"
   id="svg5"
   inkscape:version="1.2 (dc2aedaf03, 2022-05-15)"
   sodipodi:docname="office-calendar.svg"
   xmlns:inkscape="http://www.inkscape.org/namespaces/inkscape"
   xmlns:sodipodi="http://sodipodi.sourceforge.net/DTD/sodipodi-0.dtd"
   xmlns="http://www.w3.org/2000/svg"
   xmlns:svg="http://www.w3.org/2000/svg">
  <sodipodi:namedview
     id="namedview7"
     pagecolor="#ffffff"
     bordercolor="#666666"
     borderopacity="1.0"
     inkscape:pageshadow="2"
     inkscape:pageopacity="0.0"
     inkscape:pagecheckerboard="0"
     inkscape:document-units="px"
     showgrid="false"
     units="px"
     height="48px"
     inkscape:zoom="24.9375"
     inkscape:cx="16"
     inkscape:cy="16"
     inkscape:window-width="1920"
     inkscape:window-height="1014"
     inkscape:window-x="0"
     inkscape:window-y="0"
     inkscape:window-maximized="1"
     inkscape:current-layer="svg5"
     showguides="false"
     inkscape:showpageshadow="2"
     inkscape:deskcolor="#d1d1d1" />
  <defs
     id="defs2" />
  <rect
     style="opacity:1;fill:#767676;fill-opacity:1;stroke-width:0.264583"
     id="rect1162"
     width="7.4083333"
     height="5.8208332"
     x="0.52916664"
     y="1.8520833"
     ry="0.52916664" />
  <rect
     style="opacity:1;fill:#ededed;fill-opacity:1;stroke-width:0.469115"
     id="rect1437"
     width="6.8791666"
     height="5.0270834"
     x="0.79374999"
     y="2.1166666"
     ry="0.39687499" />
  <circle
     style="opacity:0.2;fill:#000000;fill-opacity:1;stroke-width:0.264583"
     id="path34682"
     cx="5.0270834"
     cy="6.0854168"
     r="0.79374999" />
  <circle
     style="fill:#faa414;fill-opacity:1;stroke-width:0.264583"
     id="path6926"
     cx="5.0270834"
     cy="5.8208332"
     r="0.79374999" />
  <path
     d="M 1.3229166,3.7041666 V 4.7625 H 2.38125 V 3.7041666 Z m 1.5875,0 V 4.7625 H 3.9687499 V 3.7041666 Z m 1.5875,0 V 4.7625 H 5.5562499 V 3.7041666 Z m 1.5875,0 V 4.7625 H 7.1437499 V 3.7041666 Z m -4.7625,1.5875 V 6.3499999 H 2.38125 V 5.2916666 Z m 1.5875,0 V 6.3499999 H 3.9687499 V 5.2916666 Z m 3.175,0 V 6.3499999 H 7.1437499 V 5.2916666 Z"
     id="path35958"
     style="stroke-width:0.264583;fill:#000000;opacity:0.24" />
  <path
     id="rect38107"
     style="opacity:1;fill:#faa414;stroke-width:0.264583"
     d="m 1.190625,2.1166666 h 6.0854166 c 0.2198687,0 0.396875,0.1770062 0.396875,0.3968749 V 3.1749999 H 0.79374999 V 2.5135415 c 0,-0.2198687 0.17700625,-0.3968749 0.39687501,-0.3968749 z"
     sodipodi:nodetypes="sssccss" />
</svg>
