<?xml version="1.0" encoding="UTF-8" standalone="no"?>
<!-- Created with Inkscape (http://www.inkscape.org/) -->

<svg
   width="32"
   height="32"
   viewBox="0 0 8.4666665 8.4666665"
   version="1.1"
   id="svg5"
   inkscape:version="1.1.2 (0a00cf5339, 2022-02-04, custom)"
   sodipodi:docname="org.xfce.terminal-settings.svg"
   xmlns:inkscape="http://www.inkscape.org/namespaces/inkscape"
   xmlns:sodipodi="http://sodipodi.sourceforge.net/DTD/sodipodi-0.dtd"
   xmlns="http://www.w3.org/2000/svg"
   xmlns:svg="http://www.w3.org/2000/svg">
  <sodipodi:namedview
     id="namedview7"
     pagecolor="#ffffff"
     bordercolor="#666666"
     borderopacity="1.0"
     inkscape:pageshadow="2"
     inkscape:pageopacity="0.0"
     inkscape:pagecheckerboard="0"
     inkscape:document-units="px"
     showgrid="false"
     units="px"
     height="48px"
     inkscape:zoom="25.0625"
     inkscape:cx="15.98005"
     inkscape:cy="16"
     inkscape:window-width="1920"
     inkscape:window-height="1017"
     inkscape:window-x="0"
     inkscape:window-y="0"
     inkscape:window-maximized="1"
     inkscape:current-layer="svg5"
     showguides="false" />
  <defs
     id="defs2" />
  <rect
     style="opacity:1;fill:#cdcdcd;fill-opacity:1;stroke-width:0.264583"
     id="rect1162"
     width="7.4083333"
     height="5.8208332"
     x="0.52916664"
     y="1.8520833"
     ry="0.52916664" />
  <rect
     style="opacity:1;fill:#424242;fill-opacity:1;stroke-width:0.383418"
     id="rect1437"
     width="5.8208332"
     height="3.96875"
     x="1.3229166"
     y="2.6458333"
     ry="0.26458332" />
  <path
     d="m 2.38125,2.9104168 v 0.2645834 c -0.2922508,0 -0.5291666,0.236916 -0.5291666,0.5291666 0,0.2922507 0.2369158,0.5291667 0.5291666,0.5291667 V 4.7625001 H 1.8520834 V 5.0270835 H 2.38125 V 5.2916668 H 2.6458334 V 5.0270835 C 2.9380839,5.0270835 3.175,4.7901674 3.175,4.4979167 3.175,4.2056661 2.9380839,3.9687502 2.6458334,3.9687502 V 3.4395835 H 2.9104167 V 3.1750002 H 2.6458334 V 2.9104168 Z m 0,0.5291667 v 0.5291667 c -0.1461254,0 -0.2645833,-0.118458 -0.2645833,-0.2645834 0,-0.1461253 0.1184579,-0.2645833 0.2645833,-0.2645833 z m 0.2645834,0.79375 c 0.1461251,0 0.2645833,0.1184581 0.2645833,0.2645832 0,0.1461254 -0.1184582,0.2645834 -0.2645833,0.2645834 z m 0.7937497,0.79375 H 4.7625 V 5.2916668 H 3.4395831 Z"
     id="path1129"
     style="fill:#f6f6f6;fill-opacity:1;stroke-width:0.264583"
     sodipodi:nodetypes="ccsccccccccscccccccccsccsccccccc" />
  <path
     id="rect1825"
     style="opacity:0.5;fill:#000000;fill-opacity:1;stroke-width:0.264583"
     d="m 1.0583333,1.8520834 c -0.2931583,0 -0.52916664,0.2360084 -0.52916664,0.5291667 v 4.7625 c 0,0.2931583 0.23600834,0.5291667 0.52916664,0.5291667 h 6.35 c 0.2931583,0 0.5291666,-0.2360084 0.5291666,-0.5291667 v -4.7625 c 0,-0.2931583 -0.2360083,-0.5291667 -0.5291666,-0.5291667 z M 1.190625,2.1166668 h 6.0854166 c 0.2198687,0 0.396875,0.1770062 0.396875,0.396875 V 6.746875 c 0,0.2198688 -0.1770063,0.396875 -0.396875,0.396875 H 1.190625 c -0.21986876,0 -0.39687501,-0.1770062 -0.39687501,-0.396875 V 2.5135418 c 0,-0.2198688 0.17700625,-0.396875 0.39687501,-0.396875 z"
     sodipodi:nodetypes="ssssssssssssssssss" />
  <path
     id="rect845"
     style="fill:#552d5d;fill-opacity:1;stroke-width:0.283482"
     d="m 6.4822916,4.2333332 c 1.0993437,0 1.984375,0.8850311 1.984375,1.984375 v 0.2645833 c 0,1.0993438 -0.8850313,1.9843751 -1.984375,1.9843751 -1.0993438,0 -1.984375,-0.8850313 -1.984375,-1.9843751 V 6.2177082 c 0,-1.0993439 0.8850312,-1.984375 1.984375,-1.984375 z"
     sodipodi:nodetypes="sssssss" />
  <circle
     style="fill:#aa5abb;fill-opacity:1;stroke-width:0.245684"
     id="path1099"
     cx="6.4822917"
     cy="6.2177086"
     r="1.7197917" />
  <path
     d="M 6.2486645,5.2916665 6.228027,5.537729 C 6.1500596,5.5667401 6.0775902,5.60879 6.0137145,5.6620832 L 5.789877,5.5565144 5.5562499,5.9613269 l 0.2032,0.141023 c -0.00728,0.040879 -0.011086,0.082303 -0.011377,0.1238249 -7.9e-6,0.041677 0.00352,0.083278 0.010583,0.1243542 L 5.5562499,6.4907582 5.789877,6.8955707 6.0129207,6.7905311 c 0.064193,0.052996 0.1369325,0.094688 0.2151063,0.1232958 l 0.020638,0.2465917 h 0.4672536 l 0.020637,-0.2460625 c 0.077967,-0.029011 0.1504368,-0.071061 0.2143125,-0.1243542 l 0.2238375,0.1055688 0.2336271,-0.4048125 -0.2032,-0.1407584 c 0.00728,-0.040879 0.011086,-0.082303 0.011377,-0.1238249 7.9e-6,-0.041677 -0.00352,-0.083278 -0.010583,-0.1243542 L 7.4083332,5.9610624 7.1747061,5.5565144 6.9516624,5.661554 C 6.8874692,5.6085585 6.8147299,5.5668657 6.7365561,5.5382582 L 6.7159186,5.2916665 Z m 0.233627,0.6672792 c 0.1475449,0 0.2671102,0.1196853 0.2669646,0.2672291 0,0.1475439 -0.1196842,0.2671109 -0.2672291,0.2669646 -0.1474417,-1.46e-4 -0.2668456,-0.1197887 -0.2667,-0.2672291 1.455e-4,-0.1473372 0.119626,-0.2667 0.2669645,-0.2667 z"
     style="fill:#fafafb;stroke-width:0.264583"
     id="path1697" />
</svg>
