<?xml version="1.0" encoding="UTF-8" standalone="no"?>
<!-- Created with Inkscape (http://www.inkscape.org/) -->

<svg
   width="32"
   height="32"
   viewBox="0 0 8.4666665 8.4666665"
   version="1.1"
   id="svg5"
   inkscape:version="1.2 (dc2aedaf03, 2022-05-15)"
   sodipodi:docname="org.gnome.TextEditor.svg"
   xmlns:inkscape="http://www.inkscape.org/namespaces/inkscape"
   xmlns:sodipodi="http://sodipodi.sourceforge.net/DTD/sodipodi-0.dtd"
   xmlns="http://www.w3.org/2000/svg"
   xmlns:svg="http://www.w3.org/2000/svg">
  <sodipodi:namedview
     id="namedview7"
     pagecolor="#ffffff"
     bordercolor="#666666"
     borderopacity="1.0"
     inkscape:pageshadow="2"
     inkscape:pageopacity="0.0"
     inkscape:pagecheckerboard="0"
     inkscape:document-units="px"
     showgrid="false"
     units="px"
     height="48px"
     inkscape:zoom="16"
     inkscape:cx="18.34375"
     inkscape:cy="26.25"
     inkscape:window-width="1920"
     inkscape:window-height="1011"
     inkscape:window-x="0"
     inkscape:window-y="0"
     inkscape:window-maximized="1"
     inkscape:current-layer="svg5"
     inkscape:showpageshadow="2"
     inkscape:deskcolor="#d1d1d1" />
  <defs
     id="defs2" />
  <path
     d="M 7.4083319,6.2177082 V 0.92604163 c 0,-0.3664479 -0.2950104,-0.6614583 -0.6614583,-0.6614583 H 1.719793 c -0.3656171,0 -0.6621912,0.2958306 -0.6614583,0.6614583 V 7.8052083 c 0,0.3664479 0.2950104,0.6614583 0.6614583,0.6614583 h 3.4395806"
     style="fill:#6f6f6f;stroke-width:0.264583"
     id="path2928" />
  <path
     d="M 7.1437486,5.8208333 V 1.0583334 c 0,-0.29315834 -0.2360083,-0.52916674 -0.5291667,-0.52916674 H 1.852082 c -0.2931583,0 -0.5291667,0.2360084 -0.5291667,0.52916674 v 6.3499999 c 0,0.2931583 0.2360084,0.5291667 0.5291667,0.5291667 h 3.175"
     style="fill:#ececec;stroke-width:0.264583"
     id="path2808"
     sodipodi:nodetypes="cssssssc" />
  <path
     id="rect2184"
     style="display:inline;opacity:0.7;vector-effect:none;fill:#474341;fill-opacity:0.972917;stroke:none;stroke-width:0.529167;stroke-linecap:round;stroke-miterlimit:4;stroke-dasharray:none;stroke-opacity:0.501961;enable-background:new"
     d="m 2.5016566,2.9104165 c -0.066813,0 -0.1204066,0.053594 -0.1204066,0.1204066 v 0.02376 c 0,0.066813 0.053594,0.1204065 0.1204066,0.1204065 H 5.96501 c 0.066813,0 0.1204066,-0.053594 0.1204066,-0.1204065 v -0.02376 c 0,-0.066813 -0.053594,-0.1204066 -0.1204066,-0.1204066 z m 0,0.79375 c -0.066813,0 -0.1204066,0.053594 -0.1204066,0.1204066 v 0.02376 c 0,0.066813 0.053594,0.1204065 0.1204066,0.1204065 H 5.96501 c 0.066813,0 0.1204066,-0.053594 0.1204066,-0.1204065 v -0.02376 c 0,-0.066813 -0.053594,-0.1204066 -0.1204066,-0.1204066 z m 0,0.79375 c -0.066813,0 -0.1204066,0.053594 -0.1204066,0.1204066 v 0.023759 c 0,0.066813 0.053594,0.1204066 0.1204066,0.1204066 H 5.96501 c 0.066813,0 0.1204066,-0.053594 0.1204066,-0.1204066 v -0.023759 c 0,-0.066813 -0.053594,-0.1204066 -0.1204066,-0.1204066 z m 0,0.79375 c -0.066813,0 -0.1204066,0.053594 -0.1204066,0.1204066 v 0.02376 c 0,0.066813 0.053594,0.1204066 0.1204066,0.1204066 h 2.1404368 c 0.066813,0 0.1204065,-0.053594 0.1204065,-0.1204066 v -0.02376 c 0,-0.066813 -0.053594,-0.1204066 -0.1204065,-0.1204066 z"
     sodipodi:nodetypes="ssssssssssssssssssssssssssssssssssss" />
  <path
     d="M 7.1437486,5.2916667 H 5.2916653 c -0.2931583,0 -0.5291667,0.2360083 -0.5291667,0.5291666 V 7.9375 H 5.027082 L 7.1437486,5.8208333 Z"
     style="fill:#6f6f6f;fill-opacity:0.502;stroke-width:0.264583"
     id="path3168" />
  <path
     d="m 7.1437486,5.8208333 h -1.5875 C 5.2630903,5.8208333 5.027082,6.0568417 5.027082,6.35 v 1.5875"
     style="fill:#fafafa;stroke-width:0.264583"
     id="path3048" />
  <path
     id="rect356"
     style="fill:#1f285a;stroke-width:0.529167;stroke-linejoin:bevel"
     d="m 1.7197916,0.26458332 h 5.0270818 c 0.3664479,0 0.6614584,0.29501041 0.6614584,0.66145831 V 1.8520833 H 1.0583333 V 0.92604163 c 0,-0.3664479 0.2950104,-0.66145831 0.6614583,-0.66145831 z"
     sodipodi:nodetypes="sssccss" />
  <path
     id="path463"
     style="fill:#3f51b5;stroke-width:0.264583;fill-opacity:1"
     d="M 1.8520833 0.52916666 C 1.5589253 0.52916666 1.3229166 0.76517527 1.3229166 1.0583333 L 1.3229166 1.8520833 L 7.1437499 1.8520833 L 7.1437499 1.0583333 C 7.1437499 0.76517527 6.9077413 0.52916666 6.6145832 0.52916666 L 1.8520833 0.52916666 z " />
  <g
     id="g862"
     transform="matrix(0.66667454,0,0,0.66667454,-0.63583639,-1.4122938)">
    <path
       id="rect214"
       style="fill:#a27100;stroke-width:0.396875"
       d="m 11.445803,4.5929021 c -0.152173,0 -0.304043,0.05858 -0.420646,0.175183 L 6.2543895,9.538853 5.8332266,9.9595 c -0.00167,0.0017 -0.00302,0.0035 -0.00465,0.0052 l -0.4159954,0.415995 v 1.403015 h 1.4030153 l 0.420646,-0.420646 0.4211629,-0.421163 4.7707676,-4.7707678 c 0.233206,-0.2332062 0.233206,-0.6086031 0,-0.8418092 L 11.866966,4.7680851 C 11.750363,4.6514822 11.597977,4.5929021 11.445803,4.5929021 Z" />
    <path
       d="M 10.884674,5.1889012 12.007205,6.311433 11.165306,7.1533319 10.042775,6.0308001 Z"
       style="fill:#d4d1ca;stroke-width:0.396875"
       id="path1621" />
    <path
       d="M 10.323405,6.311433 10.884671,6.8726989 6.3945441,11.362826 5.8332782,10.80156 Z"
       style="fill:#ffce51;stroke-width:0.396875"
       id="path1861" />
    <path
       d="M 10.042772,6.0308001 10.323405,6.311433 5.8332782,10.80156 5.5526452,10.520927 Z"
       style="fill:#fffa7d;stroke-width:0.396875"
       id="path2019" />
    <path
       d="M 10.884671,6.8726989 11.165304,7.1533319 6.675177,11.643459 6.3945441,11.362826 Z"
       style="fill:#d1a023;stroke-width:0.396875"
       id="path1741" />
    <path
       d="m 5.5526452,10.520927 v 1.122532 H 6.675177 Z"
       style="fill:#f5f2e3;stroke-width:0.396875"
       id="path1215" />
    <path
       d="m 5.5526452,11.362826 0.280633,0.280633 h -0.280633 z"
       style="fill:#3c3c3c;stroke-width:0.396875"
       id="path1335" />
    <path
       id="rect234"
       style="fill:#ff8989;stroke-width:0.396875"
       d="m 11.445803,4.7918564 c -0.101448,0 -0.202867,0.038537 -0.280603,0.1162719 l -0.280603,0.2806031 0.280603,0.280603 0.280603,0.2811198 0.280603,0.2806031 c 6.09e-4,6.085e-4 0.0015,9.525e-4 0.0021,0.00156 l 0.278536,0.2790529 0.266134,-0.2666505 c 0.005,-0.00456 0.0096,-0.00909 0.01447,-0.013952 0.15547,-0.1554708 0.15547,-0.4062521 0,-0.5617229 L 11.726406,4.9081283 C 11.648671,4.8303929 11.547252,4.7918564 11.445803,4.7918564 Z" />
  </g>
</svg>
