<?xml version="1.0" encoding="UTF-8" standalone="no"?>
<!-- Created with Inkscape (http://www.inkscape.org/) -->

<svg
   width="32"
   height="32"
   viewBox="0 0 8.4666665 8.466667"
   version="1.1"
   id="svg1099"
   inkscape:version="1.2 (dc2aedaf03, 2022-05-15)"
   sodipodi:docname="pop-cosmic-applications.svg"
   xmlns:inkscape="http://www.inkscape.org/namespaces/inkscape"
   xmlns:sodipodi="http://sodipodi.sourceforge.net/DTD/sodipodi-0.dtd"
   xmlns="http://www.w3.org/2000/svg"
   xmlns:svg="http://www.w3.org/2000/svg">
  <sodipodi:namedview
     id="namedview1101"
     pagecolor="#ffffff"
     bordercolor="#666666"
     borderopacity="1.0"
     inkscape:pageshadow="2"
     inkscape:pageopacity="0.0"
     inkscape:pagecheckerboard="0"
     inkscape:document-units="px"
     showgrid="false"
     units="px"
     inkscape:zoom="17.987029"
     inkscape:cx="15.038615"
     inkscape:cy="13.898905"
     inkscape:window-width="1920"
     inkscape:window-height="1011"
     inkscape:window-x="0"
     inkscape:window-y="0"
     inkscape:window-maximized="1"
     inkscape:current-layer="svg1099"
     inkscape:showpageshadow="2"
     inkscape:deskcolor="#d1d1d1"
     showguides="true"
     inkscape:lockguides="false" />
  <defs
     id="defs1096" />
  <path
     id="rect1993"
     style="opacity:1;fill:#48b9c7;fill-opacity:1;stroke-width:0.529167;stroke-linejoin:round"
     d="M 3.571875 3.175 C 3.3520065 3.175 3.175 3.3520065 3.175 3.571875 L 3.175 4.8947917 C 3.175 5.1146603 3.3520065 5.2916667 3.571875 5.2916667 L 4.8947917 5.2916667 C 5.1146603 5.2916667 5.2916667 5.1146603 5.2916667 4.8947917 L 5.2916667 3.571875 C 5.2916667 3.3520065 5.1146603 3.175 4.8947917 3.175 L 3.571875 3.175 z M 1.190625 5.5562501 C 0.97075647 5.5562501 0.79375001 5.7332565 0.79375001 5.9531251 L 0.79375001 7.2760417 C 0.79375001 7.4959103 0.97075647 7.6729167 1.190625 7.6729167 L 2.5135417 7.6729167 C 2.7334102 7.6729167 2.9104167 7.4959103 2.9104167 7.2760417 L 2.9104167 5.9531251 C 2.9104167 5.7332565 2.7334102 5.5562501 2.5135417 5.5562501 L 1.190625 5.5562501 z " />
  <rect
     style="opacity:1;fill:#966800;fill-opacity:1;stroke-width:0.529167;stroke-linejoin:round"
     id="rect1870"
     width="2.116667"
     height="2.1166663"
     x="5.5562506"
     y="3.1750002"
     ry="0.39687499" />
  <rect
     style="opacity:1;fill:#ffad00;stroke-width:0.529167;stroke-linejoin:round;fill-opacity:1"
     id="rect1126"
     width="1.5875012"
     height="1.3229169"
     x="5.8208303"
     y="3.4395838"
     ry="0.26458335" />
  <path
     id="rect2144"
     style="opacity:1;fill:#94ebeb;fill-opacity:1;stroke-width:0.529167;stroke-linejoin:round"
     d="M 3.7041667 3.4395834 C 3.5575877 3.4395834 3.4395834 3.5575877 3.4395834 3.7041667 L 3.4395834 4.4979167 C 3.4395834 4.6444957 3.5575877 4.7625 3.7041667 4.7625 L 4.7625 4.7625 C 4.9090791 4.7625 5.0270834 4.6444957 5.0270834 4.4979167 L 5.0270834 3.7041667 C 5.0270834 3.5575877 4.9090791 3.4395834 4.7625 3.4395834 L 3.7041667 3.4395834 z M 1.3229167 5.8208334 C 1.1763377 5.8208334 1.0583333 5.9388377 1.0583333 6.0854167 L 1.0583333 6.8791667 C 1.0583333 7.0257458 1.1763377 7.1437501 1.3229167 7.1437501 L 2.38125 7.1437501 C 2.5278291 7.1437501 2.6458334 7.0257458 2.6458334 6.8791667 L 2.6458334 6.0854167 C 2.6458334 5.9388377 2.5278291 5.8208334 2.38125 5.8208334 L 1.3229167 5.8208334 z " />
  <path
     id="rect2364"
     style="opacity:1;fill:#a38c0d;fill-opacity:1;stroke-width:0.529167;stroke-linejoin:round"
     d="m 3.571875,0.7937502 c -0.2198685,0 -0.3968751,0.1770065 -0.3968751,0.396875 v 1.3229167 c 0,0.2198685 0.1770066,0.396875 0.3968751,0.396875 h 1.3229167 c 0.219868,0 0.396875,-0.1770065 0.396875,-0.396875 V 1.1906252 c 0,-0.2198685 -0.177007,-0.396875 -0.396875,-0.396875 z m -2.3812501,2.38125 c -0.21986849,0 -0.39687489,0.1770065 -0.39687489,0.396875 v 1.3229167 c 0,0.2198685 0.1770064,0.396875 0.39687489,0.396875 h 1.3229167 c 0.2198686,0 0.3968751,-0.1770065 0.3968751,-0.396875 V 3.5718752 c 0,-0.2198685 -0.1770065,-0.396875 -0.3968751,-0.396875 z m 4.7624998,2.3812501 c -0.219868,0 -0.396875,0.1770064 -0.396875,0.396875 v 1.3229166 c 0,0.2198686 0.177007,0.396875 0.396875,0.396875 h 1.322917 c 0.219869,0 0.396875,-0.1770064 0.396875,-0.396875 V 5.9531253 c 0,-0.2198686 -0.177006,-0.396875 -0.396875,-0.396875 z" />
  <path
     id="rect2459"
     style="opacity:1;fill:#f7e062;fill-opacity:1;stroke-width:0.529167;stroke-linejoin:round"
     d="M 3.7041667 1.0583333 C 3.5575877 1.0583333 3.4395834 1.1763377 3.4395834 1.3229167 L 3.4395834 2.1166667 C 3.4395834 2.2632457 3.5575877 2.38125 3.7041667 2.38125 L 4.7625 2.38125 C 4.9090791 2.38125 5.0270834 2.2632457 5.0270834 2.1166667 L 5.0270834 1.3229167 C 5.0270834 1.1763377 4.9090791 1.0583333 4.7625 1.0583333 L 3.7041667 1.0583333 z M 1.3229167 3.4395834 C 1.1763377 3.4395834 1.0583333 3.5575877 1.0583333 3.7041667 L 1.0583333 4.4979167 C 1.0583333 4.6444957 1.1763377 4.7625 1.3229167 4.7625 L 2.38125 4.7625 C 2.5278291 4.7625 2.6458334 4.6444957 2.6458334 4.4979167 L 2.6458334 3.7041667 C 2.6458334 3.5575877 2.5278291 3.4395834 2.38125 3.4395834 L 1.3229167 3.4395834 z M 6.0854167 5.8208334 C 5.9388377 5.8208334 5.8208334 5.9388377 5.8208334 6.0854167 L 5.8208334 6.8791667 C 5.8208334 7.0257458 5.9388377 7.1437501 6.0854167 7.1437501 L 7.1437501 7.1437501 C 7.2903291 7.1437501 7.4083334 7.0257458 7.4083334 6.8791667 L 7.4083334 6.0854167 C 7.4083334 5.9388377 7.2903291 5.8208334 7.1437501 5.8208334 L 6.0854167 5.8208334 z " />
  <path
     id="rect2692"
     style="opacity:1;fill:#245c63;fill-opacity:1;stroke-width:0.529167;stroke-linejoin:round"
     d="M 1.190625 0.79375001 C 0.97075648 0.79375001 0.79375001 0.97075648 0.79375001 1.190625 L 0.79375001 2.5135417 C 0.79375001 2.7334102 0.97075648 2.9104167 1.190625 2.9104167 L 2.5135417 2.9104167 C 2.7334102 2.9104167 2.9104167 2.7334102 2.9104167 2.5135417 L 2.9104167 1.190625 C 2.9104167 0.97075648 2.7334102 0.79375001 2.5135417 0.79375001 L 1.190625 0.79375001 z M 5.9531251 0.79375001 C 5.7332565 0.79375001 5.5562501 0.97075648 5.5562501 1.190625 L 5.5562501 2.5135417 C 5.5562501 2.7334102 5.7332565 2.9104167 5.9531251 2.9104167 L 7.2760417 2.9104167 C 7.4959103 2.9104167 7.6729167 2.7334102 7.6729167 2.5135417 L 7.6729167 1.190625 C 7.6729167 0.97075648 7.4959103 0.79375001 7.2760417 0.79375001 L 5.9531251 0.79375001 z M 3.571875 5.5562501 C 3.3520065 5.5562501 3.175 5.7332565 3.175 5.9531251 L 3.175 7.2760417 C 3.175 7.4959103 3.3520065 7.6729167 3.571875 7.6729167 L 4.8947917 7.6729167 C 5.1146602 7.6729167 5.2916667 7.4959103 5.2916667 7.2760417 L 5.2916667 5.9531251 C 5.2916667 5.7332565 5.1146602 5.5562501 4.8947917 5.5562501 L 3.571875 5.5562501 z " />
  <path
     id="rect2787"
     style="opacity:1;fill:#48b9c7;fill-opacity:1;stroke-width:0.529167;stroke-linejoin:round"
     d="M 1.3229167 1.0583333 C 1.1763377 1.0583333 1.0583333 1.1763377 1.0583333 1.3229167 L 1.0583333 2.1166667 C 1.0583333 2.2632457 1.1763377 2.38125 1.3229167 2.38125 L 2.38125 2.38125 C 2.5278291 2.38125 2.6458334 2.2632457 2.6458334 2.1166667 L 2.6458334 1.3229167 C 2.6458334 1.1763377 2.5278291 1.0583333 2.38125 1.0583333 L 1.3229167 1.0583333 z M 6.0854167 1.0583333 C 5.9388377 1.0583333 5.8208334 1.1763377 5.8208334 1.3229167 L 5.8208334 2.1166667 C 5.8208334 2.2632457 5.9388377 2.38125 6.0854167 2.38125 L 7.1437501 2.38125 C 7.2903291 2.38125 7.4083334 2.2632457 7.4083334 2.1166667 L 7.4083334 1.3229167 C 7.4083334 1.1763377 7.2903291 1.0583333 7.1437501 1.0583333 L 6.0854167 1.0583333 z M 3.7041667 5.8208334 C 3.5575877 5.8208334 3.4395834 5.9388377 3.4395834 6.0854167 L 3.4395834 6.8791667 C 3.4395834 7.0257458 3.5575877 7.1437501 3.7041667 7.1437501 L 4.7625 7.1437501 C 4.9090791 7.1437501 5.0270834 7.0257458 5.0270834 6.8791667 L 5.0270834 6.0854167 C 5.0270834 5.9388377 4.9090791 5.8208334 4.7625 5.8208334 L 3.7041667 5.8208334 z " />
</svg>
