<?xml version="1.0" encoding="UTF-8" standalone="no"?>
<!-- Created with Inkscape (http://www.inkscape.org/) -->

<svg
   width="32"
   height="32"
   viewBox="0 0 8.4666666 8.4666666"
   version="1.1"
   id="svg5"
   inkscape:version="1.2 (dc2aedaf03, 2022-05-15)"
   sodipodi:docname="pop-cosmic-workspaces.svg"
   xmlns:inkscape="http://www.inkscape.org/namespaces/inkscape"
   xmlns:sodipodi="http://sodipodi.sourceforge.net/DTD/sodipodi-0.dtd"
   xmlns="http://www.w3.org/2000/svg"
   xmlns:svg="http://www.w3.org/2000/svg">
  <sodipodi:namedview
     id="namedview7"
     pagecolor="#ffffff"
     bordercolor="#666666"
     borderopacity="1.0"
     inkscape:pageshadow="2"
     inkscape:pageopacity="0.0"
     inkscape:pagecheckerboard="0"
     inkscape:document-units="px"
     showgrid="false"
     units="px"
     height="48px"
     inkscape:zoom="18.05332"
     inkscape:cx="13.155475"
     inkscape:cy="7.6163276"
     inkscape:window-width="1920"
     inkscape:window-height="1010"
     inkscape:window-x="0"
     inkscape:window-y="0"
     inkscape:window-maximized="1"
     inkscape:current-layer="svg5"
     inkscape:showpageshadow="2"
     inkscape:deskcolor="#d1d1d1" />
  <defs
     id="defs2" />
  <rect
     style="opacity:1;fill:#245c63;fill-opacity:1;stroke-width:0.264583"
     id="rect1162"
     width="6.8791666"
     height="6.6145835"
     x="0.79374999"
     y="1.0583333"
     ry="0.66145831" />
  <rect
     style="fill:#48b9c7;fill-opacity:1;stroke-width:0.529167"
     id="rect3513"
     width="6.3499999"
     height="5.8208332"
     x="1.0583333"
     y="1.3229167"
     ry="0.52916664" />
  <path
     id="rect1821"
     style="fill:#3a95a0;fill-opacity:1;stroke-width:0.264583"
     d="m 1.4552086,1.8520833 c -0.07329,0 -0.1322917,0.059002 -0.1322917,0.1322917 v 2.1166664 c 0,0.07329 0.059002,0.1322917 0.1322917,0.1322917 h 2.9104167 c 0.073289,0 0.1322916,-0.059002 0.1322916,-0.1322917 V 1.984375 c 0,-0.07329 -0.059002,-0.1322917 -0.1322916,-0.1322917 z m 3.7041663,0.5291666 c -0.073289,0 -0.1322915,0.059002 -0.1322915,0.1322917 v 1.3229167 c 0,0.07329 0.059002,0.1322917 0.1322915,0.1322917 h 1.8520838 c 0.073289,0 0.1322915,-0.059002 0.1322915,-0.1322917 V 2.5135416 c 0,-0.07329 -0.059002,-0.1322917 -0.1322915,-0.1322917 z M 2.7781252,4.7624998 c -0.07329,0 -0.1322917,0.059002 -0.1322917,0.1322917 v 2.1166671 c 0,0.073289 0.059002,0.1322915 0.1322917,0.1322915 h 2.9104163 c 0.073289,0 0.1322922,-0.059002 0.1322922,-0.1322915 V 4.8947915 c 0,-0.073289 -0.059003,-0.1322917 -0.1322922,-0.1322917 z"
     sodipodi:nodetypes="sssssssssssssssssssssssssss" />
  <rect
     style="fill:#ededed;fill-opacity:1;stroke-width:0.264583"
     id="rect1503"
     width="3.175"
     height="2.3812499"
     x="1.3229166"
     y="1.5875"
     ry="0.13229166" />
  <path
     d="m 1.4552083,1.5875 h 2.9104169 c 0.07329,0 0.1322915,0.059002 0.1322915,0.1322917 v 0.3968748 h -3.175 V 1.7197917 c 0,-0.07329 0.059002,-0.1322917 0.1322916,-0.1322917 z"
     style="fill:#ffad00;stroke-width:0.264583"
     id="path2155"
     sodipodi:nodetypes="sssccss" />
  <rect
     style="fill:#ededed;fill-opacity:1;stroke-width:0.529167"
     id="rect1817"
     width="2.1166666"
     height="1.5875"
     x="5.0270834"
     y="2.1166668"
     ry="0.13229166" />
  <path
     d="m 5.1593752,2.1166667 h 1.8520834 c 0.07329,0 0.132291,0.059002 0.132291,0.1322917 V 2.3812496 H 5.0270832 V 2.2489584 c 0,-0.07329 0.059003,-0.1322917 0.132292,-0.1322917 z"
     style="fill:#ffad00;stroke-width:0.264584"
     id="path2099"
     sodipodi:nodetypes="sssccss" />
  <rect
     style="fill:#ededed;fill-opacity:1;stroke-width:0.264583"
     id="rect1819"
     width="3.175"
     height="2.3812499"
     x="2.6458335"
     y="4.4979167"
     ry="0.13229166" />
  <path
     d="m 2.7781247,4.4979166 h 2.9104162 c 0.07329,0 0.1322922,0.059003 0.1322922,0.132292 V 5.027083 h -3.175 V 4.6302086 c 0,-0.073289 0.059002,-0.132292 0.1322916,-0.132292 z"
     style="fill:#ffad00;stroke-width:0.264583"
     id="path2127"
     sodipodi:nodetypes="sssccss" />
</svg>
