<?xml version="1.0" encoding="UTF-8" standalone="no"?>
<!-- Created with Inkscape (http://www.inkscape.org/) -->

<svg
   width="32"
   height="32"
   viewBox="0 0 8.4666666 8.4666666"
   version="1.1"
   id="svg5"
   inkscape:version="1.2 (dc2aedaf03, 2022-05-15)"
   sodipodi:docname="preferences-desktop-keyboard.svg"
   xmlns:inkscape="http://www.inkscape.org/namespaces/inkscape"
   xmlns:sodipodi="http://sodipodi.sourceforge.net/DTD/sodipodi-0.dtd"
   xmlns="http://www.w3.org/2000/svg"
   xmlns:svg="http://www.w3.org/2000/svg">
  <sodipodi:namedview
     id="namedview7"
     pagecolor="#ffffff"
     bordercolor="#666666"
     borderopacity="1.0"
     inkscape:pageshadow="2"
     inkscape:pageopacity="0.0"
     inkscape:pagecheckerboard="0"
     inkscape:document-units="px"
     showgrid="false"
     units="px"
     height="48px"
     inkscape:zoom="24.78125"
     inkscape:cx="15.979823"
     inkscape:cy="16"
     inkscape:window-width="1920"
     inkscape:window-height="1014"
     inkscape:window-x="0"
     inkscape:window-y="0"
     inkscape:window-maximized="1"
     inkscape:current-layer="svg5"
     inkscape:showpageshadow="2"
     inkscape:deskcolor="#d1d1d1" />
  <defs
     id="defs2" />
  <rect
     style="opacity:1;fill:#4f4b49;fill-opacity:1;stroke-width:0.264583"
     id="rect1162"
     width="6.8791666"
     height="6.8791666"
     x="0.79374999"
     y="0.79374999"
     ry="0.66145831" />
  <rect
     style="fill:#d1cdcb;stroke-width:0.264583;fill-opacity:1"
     id="rect4147"
     width="6.3499999"
     height="6.0854168"
     x="1.0583333"
     y="1.0583333"
     ry="0.52916664" />
  <rect
     style="fill:#ffffff;fill-opacity:1;stroke-width:0.275387"
     id="rect7118"
     width="3.4395833"
     height="2.6458333"
     x="2.6458333"
     y="2.6458333"
     ry="0.13229166" />
  <path
     d="m 2.9104166,2.38125 c 0,0 -0.5291666,0 -0.5291666,0.5291667 v 2.1166666 c 0,0.5291667 0.5291666,0.5291667 0.5291666,0.5291667 h 2.9104167 c 0,0 0.5291666,0 0.5291666,-0.5291667 V 2.9104167 C 6.3499999,2.38125 5.8208333,2.38125 5.8208333,2.38125 Z m 0.066146,0.5291667 h 0.396875 c 0.036531,0 0.066146,0.029615 0.066146,0.066146 v 0.396875 c 0,0.036531 -0.029615,0.066146 -0.066146,0.066146 h -0.396875 c -0.036531,0 -0.066146,-0.029615 -0.066146,-0.066146 v -0.396875 c 0,-0.036531 0.029615,-0.066146 0.066146,-0.066146 z m 0.79375,0 h 0.3968749 c 0.036531,0 0.066146,0.029615 0.066146,0.066146 v 0.396875 c 0,0.036531 -0.029615,0.066146 -0.066146,0.066146 h -0.396875 c -0.036531,0 -0.066146,-0.029615 -0.066146,-0.066146 v -0.396875 c 0,-0.036531 0.029615,-0.066146 0.066146,-0.066146 z m 0.7937499,0 h 0.396875 c 0.036531,0 0.066146,0.029615 0.066146,0.066146 v 0.396875 c 0,0.036531 -0.029615,0.066146 -0.066146,0.066146 h -0.396875 c -0.036531,0 -0.066146,-0.029615 -0.066146,-0.066146 v -0.396875 c 0,-0.036531 0.029615,-0.066146 0.066146,-0.066146 z m 0.79375,0 h 0.396875 c 0.036531,0 0.066146,0.029615 0.066146,0.066146 v 0.396875 c 0,0.036531 -0.029615,0.066146 -0.066146,0.066146 h -0.396875 c -0.036531,0 -0.066146,-0.029615 -0.066146,-0.066146 v -0.396875 c 0,-0.036531 0.029615,-0.066146 0.066146,-0.066146 z m -2.3812499,0.79375 h 0.396875 c 0.036531,0 0.066146,0.029615 0.066146,0.066146 v 0.396875 c 0,0.036531 -0.029615,0.066146 -0.066146,0.066146 h -0.396875 c -0.036531,0 -0.066146,-0.029615 -0.066146,-0.066146 v -0.396875 c 0,-0.036531 0.029615,-0.066146 0.066146,-0.066146 z m 0.79375,0 h 0.3968749 c 0.036531,0 0.066146,0.029615 0.066146,0.066146 v 0.396875 c 0,0.036531 -0.029615,0.066146 -0.066146,0.066146 h -0.396875 c -0.036531,0 -0.066146,-0.029615 -0.066146,-0.066146 v -0.396875 c 0,-0.036531 0.029615,-0.066146 0.066146,-0.066146 z m 0.7937499,0 h 0.396875 c 0.036531,0 0.066146,0.029615 0.066146,0.066146 v 0.396875 c 0,0.036531 -0.029615,0.066146 -0.066146,0.066146 h -0.396875 c -0.036531,0 -0.066146,-0.029615 -0.066146,-0.066146 v -0.396875 c 0,-0.036531 0.029615,-0.066146 0.066146,-0.066146 z m 0.79375,0 h 0.396875 c 0.036531,0 0.066146,0.029615 0.066146,0.066146 v 0.396875 c 0,0.036531 -0.029615,0.066146 -0.066146,0.066146 h -0.396875 c -0.036531,0 -0.066146,-0.029615 -0.066146,-0.066146 v -0.396875 c 0,-0.036531 0.029615,-0.066146 0.066146,-0.066146 z m -1.8520833,0.79375 h 1.7197917 c 0.036531,0 0.066146,0.029615 0.066146,0.066146 v 0.396875 c 0,0.036531 -0.029615,0.066146 -0.066146,0.066146 H 3.5057291 c -0.036531,0 -0.066146,-0.029615 -0.066146,-0.066146 v -0.396875 c 0,-0.036531 0.029615,-0.066146 0.066146,-0.066146 z"
     style="fill:#2b2928;stroke-width:0.264583;filter:url(#filter7554)"
     id="path1224" />
</svg>
