<?xml version="1.0" encoding="UTF-8" standalone="no"?>
<!-- Created with Inkscape (http://www.inkscape.org/) -->

<svg
   width="32"
   height="32"
   viewBox="0 0 8.4666666 8.4666666"
   version="1.1"
   id="svg5"
   inkscape:version="1.2 (dc2aedaf03, 2022-05-15)"
   sodipodi:docname="preferences-desktop-locale.svg"
   xmlns:inkscape="http://www.inkscape.org/namespaces/inkscape"
   xmlns:sodipodi="http://sodipodi.sourceforge.net/DTD/sodipodi-0.dtd"
   xmlns="http://www.w3.org/2000/svg"
   xmlns:svg="http://www.w3.org/2000/svg">
  <sodipodi:namedview
     id="namedview7"
     pagecolor="#ffffff"
     bordercolor="#666666"
     borderopacity="1.0"
     inkscape:pageshadow="2"
     inkscape:pageopacity="0.0"
     inkscape:pagecheckerboard="0"
     inkscape:document-units="px"
     showgrid="false"
     units="px"
     height="48px"
     inkscape:zoom="24.78125"
     inkscape:cx="8.2320303"
     inkscape:cy="16.040353"
     inkscape:window-width="1920"
     inkscape:window-height="1014"
     inkscape:window-x="0"
     inkscape:window-y="0"
     inkscape:window-maximized="1"
     inkscape:current-layer="svg5"
     inkscape:showpageshadow="2"
     inkscape:deskcolor="#d1d1d1" />
  <defs
     id="defs2" />
  <rect
     style="opacity:1;fill:#7b736e;fill-opacity:1;stroke-width:0.264583"
     id="rect1162"
     width="6.8791666"
     height="6.8791666"
     x="0.79374999"
     y="0.79374999"
     ry="0.66145831" />
  <path
     d="m 2.6458333,3.4395833 c -0.5291666,0 -0.5291666,0.5291667 -0.5291666,0.5291667 V 5.8208333 C 2.1166667,6.3407396 2.6458333,6.35 2.6458333,6.35 h 2.38125 V 5.2916667 H 4.3489561 c -0.00265,0.038364 -0.00635,0.078317 -0.00794,0.1158875 h 0.115623 V 5.5398458 H 4.3243499 c -0.021431,0.1870604 -0.09525,0.2809875 -0.2233082,0.2809875 -0.047197,-0.00159 -0.094181,-0.00714 -0.1404938,-0.016404 L 3.9356771,5.6721375 c 0.069585,0.010583 0.1280583,0.016404 0.1653646,0.016404 0.037306,0 0.055562,-0.052652 0.066146,-0.1486959 H 3.5470042 C 3.5583813,5.4625875 3.5636729,5.3744812 3.571875,5.2916667 H 3.3898417 C 3.3286541,5.4733375 3.2482975,5.6479757 3.1501292,5.8126312 L 3.0178375,5.7052104 C 3.1022396,5.5694792 3.1734125,5.4334833 3.2329438,5.2916667 H 3.1747354 V 4.6550792 c -0.00582,-0.00503 -0.010319,-0.011906 -0.016404,-0.016669 l 0.016669,-0.016404 v -0.471223 c -0.00609,-0.00503 -0.010583,-0.011906 -0.016669,-0.016669 l 0.016669,-0.016404 V 3.4395833 Z m 0.024871,0.7194021 H 3.0921854 V 5.4239583 H 2.9519563 V 5.2834646 H 2.8111979 V 5.4901042 H 2.6707042 Z m 0.140229,0.1404938 V 5.1511729 H 2.9516917 V 4.2994792 Z m 0.9181042,0.9921875 c -0.00529,0.037835 -0.011113,0.080169 -0.016669,0.1158875 h 0.4712229 c 0.0037,-0.039423 0.00529,-0.076729 0.00847,-0.1158875 H 4.0677042 l -0.057679,0.074348 c -0.0254,-0.027781 -0.054769,-0.048948 -0.08255,-0.074083 z"
     style="opacity:0.5;fill:#ffffff;stroke-width:0.264583"
     id="path1665" />
  <path
     d="m 3.4395833,2.1166667 v 2.9104166 h 2.38125 c 0,0 0.5291667,0 0.5291667,-0.5291666 V 2.6458334 c 0,0 0,-0.5291667 -0.5291667,-0.5291667 z M 4.6466124,2.6458334 H 5.1427062 L 5.7216146,4.4979167 H 5.2834645 L 5.167577,4.0597667 H 4.6053375 l -0.1156229,0.43815 h -0.421746 z m 0.2315105,0.314325 C 4.8328791,3.15595 4.7886937,3.3789938 4.7378936,3.5634083 l -0.049742,0.1656292 h 0.396875 L 5.0434875,3.5636729 C 4.9924229,3.3789938 4.9350082,3.1533042 4.8865895,2.9601584 Z"
     id="path1637"
     style="fill:#ffffff;stroke-width:0.264583" />
  <path
     id="rect1014"
     style="opacity:0.5;fill:#000000;stroke-width:0.264583"
     d="m 1.4552083,0.79374999 c -0.3664479,0 -0.66145831,0.29501041 -0.66145831,0.66145831 v 5.5562499 c 0,0.366448 0.29501041,0.6614584 0.66145831,0.6614584 h 5.55625 c 0.3664479,0 0.6614583,-0.2950104 0.6614583,-0.6614584 V 1.4552083 c 0,-0.3664479 -0.2950104,-0.66145831 -0.6614583,-0.66145831 z M 1.5875,1.0583333 h 5.2916666 c 0.2931583,0 0.5291667,0.2360084 0.5291667,0.5291667 v 5.0270833 c 0,0.2931583 -0.2360084,0.5291666 -0.5291667,0.5291666 H 1.5875 c -0.2931583,0 -0.5291667,-0.2360083 -0.5291667,-0.5291666 V 1.5875 c 0,-0.2931583 0.2360084,-0.5291667 0.5291667,-0.5291667 z"
     sodipodi:nodetypes="ssssssssssssssssss" />
</svg>
