<?xml version="1.0" encoding="UTF-8" standalone="no"?>
<!-- Created with Inkscape (http://www.inkscape.org/) -->

<svg
   width="32"
   height="32"
   viewBox="0 0 8.4666666 8.4666666"
   version="1.1"
   id="svg5"
   inkscape:version="1.1.2 (0a00cf5339, 2022-02-04, custom)"
   sodipodi:docname="preferences-system-time.svg"
   xmlns:inkscape="http://www.inkscape.org/namespaces/inkscape"
   xmlns:sodipodi="http://sodipodi.sourceforge.net/DTD/sodipodi-0.dtd"
   xmlns="http://www.w3.org/2000/svg"
   xmlns:svg="http://www.w3.org/2000/svg">
  <sodipodi:namedview
     id="namedview7"
     pagecolor="#ffffff"
     bordercolor="#666666"
     borderopacity="1.0"
     inkscape:pageshadow="2"
     inkscape:pageopacity="0.0"
     inkscape:pagecheckerboard="0"
     inkscape:document-units="px"
     showgrid="false"
     units="px"
     height="48px"
     inkscape:zoom="13.342157"
     inkscape:cx="-1.7613344"
     inkscape:cy="9.3688"
     inkscape:window-width="1920"
     inkscape:window-height="1017"
     inkscape:window-x="0"
     inkscape:window-y="0"
     inkscape:window-maximized="1"
     inkscape:current-layer="svg5" />
  <defs
     id="defs2" />
  <rect
     style="opacity:1;fill:#ececec;fill-opacity:1;stroke-width:0.264583"
     id="rect1162"
     width="6.8791666"
     height="6.8791666"
     x="0.79374999"
     y="0.79374999"
     ry="0.66145831" />
  <path
     d="M 3.4395833,2.1166667 V 2.3812501 H 3.175 c -0.4352396,0 -0.79375,0.3585104 -0.79375,0.79375 v 2.1166665 c 0,0.4352396 0.3585104,0.79375 0.79375,0.79375 H 3.4395833 V 6.35 h 1.5875 V 6.0854167 h 0.2645833 c 0.4352396,0 0.79375,-0.3585104 0.79375,-0.79375 V 3.1750001 c 0,-0.4352396 -0.3585104,-0.79375 -0.79375,-0.79375 H 5.0270833 V 2.1166667 Z M 3.175,2.9104167 h 2.1166666 c 0.1510771,0 0.2645834,0.1135063 0.2645834,0.2645834 v 2.1166665 c 0,0.1510771 -0.1135063,0.2645833 -0.2645834,0.2645833 H 3.175 c -0.1510771,0 -0.2645833,-0.1135062 -0.2645833,-0.2645833 V 3.1750001 C 2.9104167,3.023923 3.0239229,2.9104167 3.175,2.9104167 Z M 3.7041667,3.1750001 V 4.3857783 L 4.8947916,5.0730759 5.159375,4.6152224 4.2333333,4.0803698 V 3.1750001 Z"
     style="font-variant-ligatures:normal;font-variant-position:normal;font-variant-caps:normal;font-variant-numeric:normal;font-variant-alternates:normal;font-variant-east-asian:normal;font-feature-settings:normal;font-variation-settings:normal;text-indent:0;text-decoration-line:none;text-decoration-style:solid;text-decoration-color:#000000;text-transform:none;text-orientation:mixed;white-space:normal;shape-padding:0;shape-margin:0;inline-size:0;isolation:auto;mix-blend-mode:normal;fill:#474341;stroke-width:0.264583"
     id="path1169" />
  <path
     id="rect1014"
     style="opacity:0.5;fill:#000000;stroke-width:0.264583"
     d="m 1.4552083,0.79374999 c -0.3664479,0 -0.66145831,0.29501041 -0.66145831,0.66145831 v 5.5562499 c 0,0.366448 0.29501041,0.6614584 0.66145831,0.6614584 h 5.55625 c 0.3664479,0 0.6614583,-0.2950104 0.6614583,-0.6614584 V 1.4552083 c 0,-0.3664479 -0.2950104,-0.66145831 -0.6614583,-0.66145831 z M 1.5875,1.0583333 h 5.2916666 c 0.2931583,0 0.5291667,0.2360084 0.5291667,0.5291667 v 5.0270833 c 0,0.2931583 -0.2360084,0.5291666 -0.5291667,0.5291666 H 1.5875 c -0.2931583,0 -0.5291667,-0.2360083 -0.5291667,-0.5291666 V 1.5875 c 0,-0.2931583 0.2360084,-0.5291667 0.5291667,-0.5291667 z"
     sodipodi:nodetypes="ssssssssssssssssss" />
</svg>
