<?xml version="1.0" encoding="UTF-8" standalone="no"?>
<!-- Created with Inkscape (http://www.inkscape.org/) -->

<svg
   width="32"
   height="32"
   viewBox="0 0 8.4666665 8.4666665"
   version="1.1"
   id="svg5"
   inkscape:version="1.1.2 (0a00cf5339, 2022-02-04, custom)"
   sodipodi:docname="preferences-desktop-wallpaper.svg"
   xmlns:inkscape="http://www.inkscape.org/namespaces/inkscape"
   xmlns:sodipodi="http://sodipodi.sourceforge.net/DTD/sodipodi-0.dtd"
   xmlns="http://www.w3.org/2000/svg"
   xmlns:svg="http://www.w3.org/2000/svg">
  <sodipodi:namedview
     id="namedview7"
     pagecolor="#ffffff"
     bordercolor="#666666"
     borderopacity="1.0"
     inkscape:pageshadow="2"
     inkscape:pageopacity="0.0"
     inkscape:pagecheckerboard="0"
     inkscape:document-units="px"
     showgrid="false"
     units="px"
     height="48px"
     inkscape:zoom="18.227272"
     inkscape:cx="12.426434"
     inkscape:cy="18.763093"
     inkscape:window-width="1920"
     inkscape:window-height="1017"
     inkscape:window-x="0"
     inkscape:window-y="0"
     inkscape:window-maximized="1"
     inkscape:current-layer="svg5"
     showguides="false" />
  <defs
     id="defs2" />
  <rect
     style="opacity:1;fill:#cdcdcd;fill-opacity:1;stroke-width:0.264583"
     id="rect1162"
     width="7.4083333"
     height="5.8208332"
     x="0.52916664"
     y="1.8520833"
     ry="0.52916664" />
  <rect
     style="opacity:1;fill:#48b9c7;fill-opacity:1;stroke-width:0.370417"
     id="rect1437"
     width="5.8208332"
     height="3.7041667"
     x="1.3229166"
     y="2.6458333" />
  <path
     d="m 3.175,3.1749999 c -0.4352395,0 -0.7937498,0.3585104 -0.7937498,0.79375 v 1.5875 c 0,0.4352395 0.3585103,0.7937499 0.7937498,0.7937499 h 2.1166668 c 0.4352396,0 0.79375,-0.3585104 0.79375,-0.7937499 v -1.5875 c 0,-0.4352396 -0.3585104,-0.79375 -0.79375,-0.79375 z m 0,0.5291667 h 2.1166668 c 0.1510771,0 0.2645831,0.1135062 0.2645831,0.2645833 v 1.5875 c 0,0.151077 -0.113506,0.2645833 -0.2645831,0.2645833 H 3.175 c -0.151077,0 -0.2645833,-0.1135063 -0.2645833,-0.2645833 v -1.5875 C 2.9104167,3.8176728 3.023923,3.7041666 3.175,3.7041666 Z M 4.2333333,4.4979165 5.2916668,5.5562499 H 3.175 Z"
     style="fill:#000000;stroke-width:0.0185219;opacity:0.2"
     id="path1387" />
  <path
     d="M 3.175,3.9687499 V 5.0270832 L 3.571875,4.6302082 3.9687499,5.0270832 4.6302083,4.3656249 5.2916666,5.0270832 V 3.9687499 Z"
     style="opacity:0.1;fill:#000000;stroke-width:0.264583"
     id="path12465"
     sodipodi:nodetypes="cccccccc" />
  <path
     d="M 3.175,3.7041666 V 4.7624999 L 3.571875,4.365625 3.96875,4.7624999 4.6302083,4.1010416 5.2916666,4.7624999 V 3.7041666 Z"
     style="opacity:0.5;fill:#ffffff;stroke-width:0.0700042"
     id="path1587" />
  <path
     id="rect1825"
     style="opacity:0.5;fill:#000000;fill-opacity:1;stroke-width:0.264583"
     d="m 1.0583333,1.8520834 c -0.2931583,0 -0.52916664,0.2360084 -0.52916664,0.5291667 v 4.7625 c 0,0.2931583 0.23600834,0.5291667 0.52916664,0.5291667 h 6.35 c 0.2931583,0 0.5291666,-0.2360084 0.5291666,-0.5291667 v -4.7625 c 0,-0.2931583 -0.2360083,-0.5291667 -0.5291666,-0.5291667 z M 1.190625,2.1166668 h 6.0854166 c 0.2198687,0 0.396875,0.1770062 0.396875,0.396875 V 6.746875 c 0,0.2198688 -0.1770063,0.396875 -0.396875,0.396875 H 1.190625 c -0.21986876,0 -0.39687501,-0.1770062 -0.39687501,-0.396875 V 2.5135418 c 0,-0.2198688 0.17700625,-0.396875 0.39687501,-0.396875 z"
     sodipodi:nodetypes="ssssssssssssssssss" />
  <path
     d="m 3.175,2.9104166 c -0.4352396,0 -0.7937499,0.3585105 -0.7937499,0.79375 v 1.5875 c 0,0.4352395 0.3585103,0.7937499 0.7937499,0.7937499 h 2.1166667 c 0.4352396,0 0.79375,-0.3585104 0.79375,-0.7937499 v -1.5875 c 0,-0.4352395 -0.3585104,-0.79375 -0.79375,-0.79375 z m 0,0.5291667 h 2.1166667 c 0.1510771,0 0.2645833,0.1135062 0.2645833,0.2645833 v 1.5875 c 0,0.151077 -0.1135062,0.2645833 -0.2645833,0.2645833 H 3.175 c -0.1510771,0 -0.2645833,-0.1135063 -0.2645833,-0.2645833 v -1.5875 c 0,-0.1510771 0.1135062,-0.2645833 0.2645833,-0.2645833 z M 4.2333333,4.2333332 5.2916667,5.2916666 H 3.175 Z"
     style="fill:#ffffff;stroke-width:0.0700042"
     id="path1187"
     sodipodi:nodetypes="sssssssssssssssssscccc" />
</svg>
