<?xml version="1.0" encoding="UTF-8" standalone="no"?>
<!-- Created with Inkscape (http://www.inkscape.org/) -->

<svg
   width="32"
   height="32"
   viewBox="0 0 8.4666666 8.4666666"
   version="1.1"
   id="svg5"
   inkscape:version="1.2 (dc2aedaf03, 2022-05-15)"
   sodipodi:docname="session-properties.svg"
   xmlns:inkscape="http://www.inkscape.org/namespaces/inkscape"
   xmlns:sodipodi="http://sodipodi.sourceforge.net/DTD/sodipodi-0.dtd"
   xmlns="http://www.w3.org/2000/svg"
   xmlns:svg="http://www.w3.org/2000/svg">
  <sodipodi:namedview
     id="namedview7"
     pagecolor="#ffffff"
     bordercolor="#666666"
     borderopacity="1.0"
     inkscape:pageshadow="2"
     inkscape:pageopacity="0.0"
     inkscape:pagecheckerboard="0"
     inkscape:document-units="px"
     showgrid="false"
     units="px"
     height="48px"
     inkscape:zoom="25.9375"
     inkscape:cx="16"
     inkscape:cy="16"
     inkscape:window-width="1920"
     inkscape:window-height="1009"
     inkscape:window-x="0"
     inkscape:window-y="0"
     inkscape:window-maximized="1"
     inkscape:current-layer="svg5"
     inkscape:showpageshadow="2"
     inkscape:deskcolor="#d1d1d1" />
  <defs
     id="defs2" />
  <rect
     style="opacity:1;fill:#48b9c7;fill-opacity:1;stroke-width:0.264583"
     id="rect1162"
     width="6.8791666"
     height="6.8791666"
     x="0.79374999"
     y="0.79374999"
     ry="0.66145831" />
  <path
     id="rect1014"
     style="opacity:0.5;fill:#000000;stroke-width:0.264583"
     d="m 1.4552083,0.79374999 c -0.3664479,0 -0.66145831,0.29501041 -0.66145831,0.66145831 v 5.5562499 c 0,0.366448 0.29501041,0.6614584 0.66145831,0.6614584 h 5.55625 c 0.3664479,0 0.6614583,-0.2950104 0.6614583,-0.6614584 V 1.4552083 c 0,-0.3664479 -0.2950104,-0.66145831 -0.6614583,-0.66145831 z M 1.5875,1.0583333 h 5.2916666 c 0.2931583,0 0.5291667,0.2360084 0.5291667,0.5291667 v 5.0270833 c 0,0.2931583 -0.2360084,0.5291666 -0.5291667,0.5291666 H 1.5875 c -0.2931583,0 -0.5291667,-0.2360083 -0.5291667,-0.5291666 V 1.5875 c 0,-0.2931583 0.2360084,-0.5291667 0.5291667,-0.5291667 z"
     sodipodi:nodetypes="ssssssssssssssssss" />
  <path
     d="m 2.6458334,2.1166667 c -0.2931584,0 -0.5291667,0.2360084 -0.5291667,0.5291667 v 1.5875 c 0,0.2931583 0.2360083,0.5291666 0.5291667,0.5291666 H 4.7625 c 0.2931583,0 0.5291667,-0.2360083 0.5291667,-0.5291666 v -1.5875 c 0,-0.2931583 -0.2360084,-0.5291667 -0.5291667,-0.5291667 z m 0,0.5291667 H 4.7625 v 1.5875 H 2.6458334 Z"
     style="fill:#ffffff;stroke-width:0.278897;stroke-linecap:square;paint-order:fill markers stroke"
     id="path43230" />
  <path
     d="m 5.55625,3.1750001 v 0.5291666 h 0.2645833 v 1.5875 H 3.7041668 V 5.0270834 H 3.1750001 v 0.2645833 c 0,0.2931583 0.2360083,0.5291666 0.5291667,0.5291666 H 5.8208333 C 6.1139916,5.8208333 6.35,5.584825 6.35,5.2916667 v -1.5875 C 6.35,3.4110084 6.1139916,3.1750001 5.8208333,3.1750001 Z"
     style="opacity:0.7;fill:#ffffff;stroke-width:0.278897;stroke-linecap:square;paint-order:fill markers stroke"
     id="path43258" />
</svg>
