<?xml version="1.0" encoding="UTF-8" standalone="no"?>
<!-- Created with Inkscape (http://www.inkscape.org/) -->

<svg
   width="32"
   height="32"
   viewBox="0 0 8.4666665 8.4666665"
   version="1.1"
   id="svg5"
   inkscape:version="1.2 (dc2aedaf03, 2022-05-15)"
   sodipodi:docname="steam.svg"
   xmlns:inkscape="http://www.inkscape.org/namespaces/inkscape"
   xmlns:sodipodi="http://sodipodi.sourceforge.net/DTD/sodipodi-0.dtd"
   xmlns="http://www.w3.org/2000/svg"
   xmlns:svg="http://www.w3.org/2000/svg">
  <sodipodi:namedview
     id="namedview7"
     pagecolor="#ffffff"
     bordercolor="#666666"
     borderopacity="1.0"
     inkscape:pageshadow="2"
     inkscape:pageopacity="0.0"
     inkscape:pagecheckerboard="0"
     inkscape:document-units="px"
     showgrid="false"
     units="px"
     height="48px"
     inkscape:zoom="25.03125"
     inkscape:cx="16.019975"
     inkscape:cy="16.019975"
     inkscape:window-width="1920"
     inkscape:window-height="1009"
     inkscape:window-x="0"
     inkscape:window-y="0"
     inkscape:window-maximized="1"
     inkscape:current-layer="svg5"
     inkscape:showpageshadow="2"
     inkscape:deskcolor="#d1d1d1" />
  <defs
     id="defs2" />
  <path
     id="rect5567"
     style="opacity:1;fill:#1f285a;stroke-width:0.264583"
     d="m 4.2333333,0.26458332 c 2.1986875,0 3.96875,1.77006248 3.96875,3.96874998 v 0.2645836 c 0,2.1986875 -1.7700625,3.96875 -3.96875,3.96875 -2.1986875,0 -3.96874998,-1.7700625 -3.96874998,-3.96875 V 4.2333333 c 0,-2.1986875 1.77006248,-3.96874998 3.96874998,-3.96874998 z" />
  <circle
     style="opacity:1;fill:#3f51b5;fill-opacity:1;stroke-width:0.264583"
     id="path4871"
     cx="4.2333331"
     cy="4.2333331"
     r="3.7041667" />
  <path
     d="M 5.423958,2.1166666 C 4.6379289,2.1179966 3.995017,2.7432947 3.9718504,3.5289836 L 3.0835325,4.769218 C 2.897256,4.7854157 2.7185959,4.8506747 2.5657346,4.9583535 L 0.53950166,4.0261108 c -0.00538,0.068964 -0.00883,0.1380654 -0.010335,0.2072225 4.048e-4,0.3447404 0.048931,0.687737 0.1441773,1.0190591 L 2.1239011,5.9195353 C 2.1747513,6.4624179 2.6297424,6.8778156 3.1749997,6.8791666 3.751117,6.8784257 4.2208124,6.4170003 4.2317829,5.8409871 L 5.614644,5.0131307 c 0.7231597,-0.095584 1.263818,-0.7118069 1.2645223,-1.4412558 0,-0.8036893 -0.6515189,-1.4552083 -1.4552083,-1.4552083 z m 0,0.5291667 c 0.5114388,0 0.9260417,0.4146029 0.9260417,0.9260416 0,0.5114388 -0.4146029,0.9260417 -0.9260417,0.9260417 -0.5114387,0 -0.9260416,-0.4146029 -0.9260416,-0.9260417 0,-0.5114387 0.4146029,-0.9260416 0.9260416,-0.9260416 z m 0,0.2645833 c -0.3653133,0 -0.6614583,0.296145 -0.6614583,0.6614583 0,0.3653134 0.296145,0.6614584 0.6614583,0.6614584 0.3653134,0 0.6614584,-0.296145 0.6614584,-0.6614584 0,-0.3653133 -0.296145,-0.6614583 -0.6614584,-0.6614583 z M 3.1749997,5.0270832 c 0.3453501,6.43e-5 0.6510274,0.2234198 0.7560263,0.5524212 l 0.027389,0.1173054 c 0.00669,0.041007 0.010141,0.082475 0.010335,0.1240234 0,0.438376 -0.355374,0.79375 -0.79375,0.79375 C 2.8269761,6.6141334 2.5198362,6.3870246 2.4174233,6.0544106 L 2.9538245,6.301424 C 3.6035763,6.621069 4.0615883,5.6258568 3.396175,5.3402425 l -0.5348512,-0.24598 c 0.098897,-0.043508 0.2056349,-0.066368 0.3136759,-0.067179 z"
     style="fill:#ffffff;stroke-width:0.264583"
     id="path362" />
</svg>
