<?xml version="1.0" encoding="UTF-8" standalone="no"?>
<!-- Created with Inkscape (http://www.inkscape.org/) -->

<svg
   width="32"
   height="32"
   viewBox="0 0 8.4666666 8.4666666"
   version="1.1"
   id="svg5"
   inkscape:version="1.2 (dc2aedaf03, 2022-05-15)"
   sodipodi:docname="system-error.svg"
   xmlns:inkscape="http://www.inkscape.org/namespaces/inkscape"
   xmlns:sodipodi="http://sodipodi.sourceforge.net/DTD/sodipodi-0.dtd"
   xmlns="http://www.w3.org/2000/svg"
   xmlns:svg="http://www.w3.org/2000/svg">
  <sodipodi:namedview
     id="namedview7"
     pagecolor="#ffffff"
     bordercolor="#666666"
     borderopacity="1.0"
     inkscape:pageshadow="2"
     inkscape:pageopacity="0.0"
     inkscape:pagecheckerboard="0"
     inkscape:document-units="px"
     showgrid="false"
     units="px"
     height="48px"
     inkscape:zoom="18.868659"
     inkscape:cx="16.111373"
     inkscape:cy="12.719505"
     inkscape:window-width="1920"
     inkscape:window-height="1016"
     inkscape:window-x="0"
     inkscape:window-y="0"
     inkscape:window-maximized="1"
     inkscape:current-layer="svg5"
     inkscape:showpageshadow="2"
     inkscape:deskcolor="#d1d1d1" />
  <defs
     id="defs2" />
  <rect
     style="opacity:1;fill:#cf3b00;fill-opacity:1;stroke-width:0.264583"
     id="rect1162"
     width="6.8791666"
     height="6.8791666"
     x="0.79374999"
     y="0.79374999"
     ry="0.52916664" />
  <path
     d="M 3.96875,1.5875 V 5.0270833 H 4.7625 V 1.5875 Z m 0,4.2333332 v 0.79375 H 4.7625 v -0.79375 z"
     style="fill:#ffffff;stroke-width:0.264583"
     id="path1939" />
  <path
     id="rect3059"
     style="opacity:0.5;fill:#000000;stroke-width:0.264583"
     d="M 1.3229167 0.79374999 C 1.0297586 0.79374999 0.79374999 1.0297586 0.79374999 1.3229167 L 0.79374999 7.1437499 C 0.79374999 7.436908 1.0297586 7.6729166 1.3229167 7.6729166 L 7.1437499 7.6729166 C 7.436908 7.6729166 7.6729166 7.436908 7.6729166 7.1437499 L 7.6729166 1.3229167 C 7.6729166 1.0297586 7.436908 0.79374999 7.1437499 0.79374999 L 1.3229167 0.79374999 z M 1.3229167 1.0583333 L 7.1437499 1.0583333 C 7.290329 1.0583333 7.4083333 1.1763376 7.4083333 1.3229167 L 7.4083333 6.8791666 C 7.4083333 7.0257456 7.290329 7.1437499 7.1437499 7.1437499 L 1.3229167 7.1437499 C 1.1763376 7.1437499 1.0583333 7.0257456 1.0583333 6.8791666 L 1.0583333 1.3229167 C 1.0583333 1.1763376 1.1763376 1.0583333 1.3229167 1.0583333 z " />
</svg>
