<?xml version="1.0" encoding="UTF-8" standalone="no"?>
<!-- Created with Inkscape (http://www.inkscape.org/) -->

<svg
   width="32"
   height="32"
   viewBox="0 0 8.4666665 8.4666665"
   version="1.1"
   id="svg5"
   inkscape:version="1.2 (dc2aedaf03, 2022-05-15)"
   sodipodi:docname="system-config-printer.svg"
   xmlns:inkscape="http://www.inkscape.org/namespaces/inkscape"
   xmlns:sodipodi="http://sodipodi.sourceforge.net/DTD/sodipodi-0.dtd"
   xmlns="http://www.w3.org/2000/svg"
   xmlns:svg="http://www.w3.org/2000/svg">
  <sodipodi:namedview
     id="namedview7"
     pagecolor="#ffffff"
     bordercolor="#666666"
     borderopacity="1.0"
     inkscape:pageshadow="2"
     inkscape:pageopacity="0.0"
     inkscape:pagecheckerboard="0"
     inkscape:document-units="px"
     showgrid="false"
     units="px"
     height="48px"
     inkscape:zoom="18.227272"
     inkscape:cx="12.508729"
     inkscape:cy="18.763093"
     inkscape:window-width="1846"
     inkscape:window-height="1015"
     inkscape:window-x="0"
     inkscape:window-y="0"
     inkscape:window-maximized="1"
     inkscape:current-layer="svg5"
     showguides="false"
     inkscape:showpageshadow="2"
     inkscape:deskcolor="#d1d1d1" />
  <defs
     id="defs2" />
  <rect
     style="opacity:1;fill:#dedede;fill-opacity:1;stroke-width:0.264583"
     id="rect8995"
     width="4.7624998"
     height="2.1166666"
     x="1.8520833"
     y="0.52916664"
     ry="0.26458332" />
  <path
     d="m 2.1166666,0.52916666 c -0.1465792,0 -0.2645833,0.11800417 -0.2645833,0.26458333 V 2.7781249 c 0,0.1465792 0.1180041,0.2645833 0.2645833,0.2645833 V 0.79374999 H 6.3499999 V 3.0427082 c 0.1465791,0 0.2645833,-0.1180041 0.2645833,-0.2645833 V 0.79374999 c 0,-0.14657916 -0.1180042,-0.26458333 -0.2645833,-0.26458333 z"
     style="fill-opacity:1;stroke-width:0.264583;fill:#000000;opacity:0.5"
     id="path6690" />
  <rect
     style="opacity:1;fill:#474341;fill-opacity:1;stroke-width:0.264583"
     id="rect1162"
     width="6.8791666"
     height="3.4395833"
     x="0.79374999"
     y="2.3812499"
     ry="0.52916664" />
  <circle
     style="fill:#73c48f;fill-opacity:1;stroke-width:0.264583"
     id="path12007"
     cx="1.7197917"
     cy="3.4395833"
     r="0.26458332" />
  <path
     id="rect2970"
     style="opacity:0.5;fill:#ffffff;fill-opacity:1;stroke-width:0.264583"
     d="m 1.3229166,2.38125 c -0.293158,0 -0.52916659,0.2360086 -0.52916659,0.5291667 v 2.3812499 c 0,0.293158 0.23600859,0.5291667 0.52916659,0.5291667 h 5.8208332 c 0.2931581,0 0.5291667,-0.2360087 0.5291667,-0.5291667 V 2.9104167 C 7.6729165,2.6172586 7.4369079,2.38125 7.1437498,2.38125 Z m 0,0.2645833 h 5.8208332 c 0.146579,0 0.2645834,0.1180043 0.2645834,0.2645834 v 2.1166666 c 0,0.146579 -0.1180044,0.2645833 -0.2645834,0.2645833 H 1.3229166 c -0.146579,0 -0.2645833,-0.1180043 -0.2645833,-0.2645833 V 2.9104167 c 0,-0.1465791 0.1180043,-0.2645834 0.2645833,-0.2645834 z" />
  <rect
     style="opacity:1;fill:#dedede;fill-opacity:1;stroke-width:0.264583"
     id="rect10501"
     width="4.7624998"
     height="3.7041667"
     x="1.8520833"
     y="4.2333331"
     ry="0.26458332" />
  <path
     d="m 2.1166666,4.2333332 c -0.1465792,0 -0.2645833,0.1180041 -0.2645833,0.2645833 v 3.175 c 0,0.1465791 0.1180041,0.2645833 0.2645833,0.2645833 h 4.2333333 c 0.1465792,0 0.2645833,-0.1180042 0.2645833,-0.2645833 v -3.175 c 0,-0.1465792 -0.1180041,-0.2645833 -0.2645833,-0.2645833 V 7.4083331 H 2.1166666 Z"
     style="fill-opacity:1;stroke-width:0.264583;fill:#000000;opacity:0.5"
     id="path8197" />
  <path
     id="rect845"
     style="fill:#552d5d;fill-opacity:1;stroke-width:0.302381"
     d="m 6.3499998,3.9687499 c 1.1726334,0 2.1166667,0.9440332 2.1166667,2.1166666 v 0.2645834 c 0,1.1726333 -0.9440333,2.1166667 -2.1166667,2.1166667 -1.1726333,0 -2.1166665,-0.9440334 -2.1166665,-2.1166667 V 6.0854165 c 0,-1.1726334 0.9440332,-2.1166665 2.1166665,-2.1166666 z"
     sodipodi:nodetypes="sssssss" />
  <circle
     style="fill:#aa5abb;fill-opacity:1;stroke-width:0.264583"
     id="path1099"
     cx="6.3499994"
     cy="6.0854168"
     r="1.8520833" />
  <path
     d="M 6.1171665,5.1509082 6.096529,5.3969707 C 6.0185616,5.4259818 5.9460922,5.4680317 5.8822165,5.5213249 L 5.658379,5.4157561 5.4247519,5.8205686 l 0.2032,0.141023 c -0.00728,0.040879 -0.011086,0.082303 -0.011377,0.1238249 -7.9e-6,0.041677 0.00352,0.083278 0.010583,0.1243542 L 5.4247519,6.3499999 5.658379,6.7548124 5.8814227,6.6497728 c 0.064193,0.052996 0.1369326,0.094688 0.2151064,0.1232958 l 0.020638,0.2465917 h 0.4672535 l 0.020637,-0.2460625 c 0.077967,-0.029011 0.1504368,-0.071061 0.2143125,-0.1243542 l 0.2238375,0.1055688 0.2336271,-0.4048125 -0.2032,-0.1407584 c 0.00728,-0.040879 0.011086,-0.082303 0.011377,-0.1238249 7.9e-6,-0.041677 -0.00352,-0.083278 -0.010583,-0.1243542 L 7.2768352,5.8203041 7.0432081,5.4157561 6.8201644,5.5207957 C 6.7559712,5.4678002 6.6832319,5.4261074 6.6050581,5.3974999 L 6.5844206,5.1509082 Z m 0.233627,0.6672792 c 0.1475449,0 0.2671103,0.1196854 0.2669646,0.2672291 0,0.1475439 -0.1196842,0.2671109 -0.2672291,0.2669646 -0.1474417,-1.46e-4 -0.2668456,-0.1197887 -0.2667,-0.2672291 1.455e-4,-0.1473372 0.119626,-0.2667 0.2669645,-0.2667 z"
     style="fill:#fafafb;stroke-width:0.264583"
     id="path1697" />
</svg>
