<?xml version="1.0" encoding="UTF-8" standalone="no"?>
<!-- Created with Inkscape (http://www.inkscape.org/) -->

<svg
   width="32"
   height="32"
   viewBox="0 0 8.4666666 8.4666666"
   version="1.1"
   id="svg5"
   inkscape:version="1.1.2 (0a00cf5339, 2022-02-04, custom)"
   sodipodi:docname="system-software-update.svg"
   xmlns:inkscape="http://www.inkscape.org/namespaces/inkscape"
   xmlns:sodipodi="http://sodipodi.sourceforge.net/DTD/sodipodi-0.dtd"
   xmlns="http://www.w3.org/2000/svg"
   xmlns:svg="http://www.w3.org/2000/svg">
  <sodipodi:namedview
     id="namedview7"
     pagecolor="#ffffff"
     bordercolor="#666666"
     borderopacity="1.0"
     inkscape:pageshadow="2"
     inkscape:pageopacity="0.0"
     inkscape:pagecheckerboard="0"
     inkscape:document-units="px"
     showgrid="false"
     units="px"
     height="48px"
     inkscape:zoom="13.342157"
     inkscape:cx="-10.005878"
     inkscape:cy="9.9684032"
     inkscape:window-width="1920"
     inkscape:window-height="1002"
     inkscape:window-x="0"
     inkscape:window-y="0"
     inkscape:window-maximized="1"
     inkscape:current-layer="svg5" />
  <defs
     id="defs2" />
  <rect
     style="opacity:1;fill:#de8800;fill-opacity:1;stroke-width:0.264583"
     id="rect1162"
     width="6.8791666"
     height="6.8791666"
     x="0.79374999"
     y="0.79374999"
     ry="0.66145831" />
  <path
     d="m 5.3970539,1.8521836 c -0.067808,5.001e-4 -0.1369216,0.00727 -0.2046385,0.024805 -0.493448,0.1285875 -0.7890124,0.630072 -0.6604249,1.1203452 0.0283,0.09965 0.073198,0.193815 0.1328084,0.2785359 -0.02831,0.0045 -0.4304647,0.6867802 -0.4304647,0.6867797 l 0.9022705,0.00569 0.2123903,-0.2950725 c 0.1005414,0.00793 0.2063541,0.00554 0.3095416,-0.021188 C 6.1519848,3.5234855 6.4478138,3.0225179 6.3189615,2.5322449 6.2922386,2.4298511 6.2427615,2.3367881 6.1866698,2.2537089 L 5.8264851,2.8634901 c -0.07317,0.125241 -0.2341864,0.1671743 -0.3591512,0.093534 L 5.2363402,2.822667 C 5.110557,2.7512073 5.0681152,2.5903016 5.1422893,2.4660996 L 5.501957,1.855801 C 5.476822,1.853821 5.451665,1.852661 5.425993,1.852181 c -0.00963,-1.787e-4 -0.019251,-7.15e-5 -0.028939,0 z M 3.0788491,2.0351182 c -0.00277,-4.55e-5 -0.00562,5.08e-4 -0.00827,0.00103 -0.060854,0.012435 -0.1170247,0.034594 -0.1731161,0.057878 -0.0045,0.1651 0.022953,0.3815952 -0.041341,0.4382161 -0.063235,0.055561 -0.2744515,0.00893 -0.4376994,-0.00827 -0.0349,0.062843 -0.062634,0.129406 -0.082682,0.1984376 0.1262062,0.104775 0.301439,0.2220516 0.3054077,0.3059245 0.00423,0.084931 -0.1649925,0.2129896 -0.2800862,0.3307295 0.027252,0.068262 0.06596,0.1303731 0.1069702,0.190169 0.1608666,-0.033602 0.3611689,-0.098822 0.4294311,-0.049609 0.069586,0.050271 0.069796,0.2661711 0.090434,0.4299479 0.066146,0.019844 0.1357974,0.027781 0.2067057,0.033073 C 3.2689522,3.8158102 3.3443698,3.6133327 3.4255969,3.590578 3.5089409,3.5670301 3.6801385,3.7118233 3.8219552,3.7972838 3.8796343,3.7573317 3.9309098,3.7080536 3.9785348,3.6567239 3.9115947,3.5053825 3.7880885,3.3149484 3.8219552,3.2350442 3.8555573,3.15514 4.0798041,3.1105577 4.2348499,3.0531431 c 0.00106,-0.019579 0.00827,-0.038551 0.00827,-0.058394 0,-0.050271 -0.00913,-0.1001448 -0.016537,-0.1488282 C 4.0662423,2.8035868 3.8389549,2.7826067 3.797151,2.7058775 3.7556109,2.6294129 3.8610476,2.4250884 3.9129062,2.2676613 3.8599062,2.2201183 3.8018545,2.1785287 3.7397904,2.1436379 3.6074985,2.2428566 3.4529157,2.406766 3.3677198,2.3916848 3.2841115,2.3768681 3.1925532,2.1747926 3.1036532,2.0361509 c -0.00794,0.00139 -0.016494,-8.996e-4 -0.024805,-0.00103 z m 0.1457275,0.4971273 c 0.00383,-9.71e-5 0.00752,0 0.011369,0 0.2460625,0 0.4454509,0.1998927 0.4454509,0.4464844 0.025516,0.619271 -0.9169366,0.619271 -0.8914186,0 0,-0.2427388 0.1935935,-0.4403722 0.4345986,-0.4464844 z m -0.3126423,1.6944702 0.00206,1.5874997 c 0,0.1508125 0.1217208,0.2645836 0.2640666,0.2645836 h 2.1145993 c 0.1383771,0 0.2635498,-0.1176075 0.2635498,-0.2480471 L 5.5536211,4.2267157 Z M 4.234851,4.4912988 4.7640174,5.1527571 H 4.499434 V 5.8142154 H 3.9702676 V 5.1527571 H 3.705684 Z"
     style="text-indent:0;text-decoration-line:none;text-transform:none;fill:#ffffff;stroke-width:0.0700042"
     id="path936" />
  <path
     id="rect1014"
     style="opacity:0.5;fill:#000000;stroke-width:0.264583"
     d="m 1.4552083,0.79374999 c -0.3664479,0 -0.66145831,0.29501041 -0.66145831,0.66145831 v 5.5562499 c 0,0.366448 0.29501041,0.6614584 0.66145831,0.6614584 h 5.55625 c 0.3664479,0 0.6614583,-0.2950104 0.6614583,-0.6614584 V 1.4552083 c 0,-0.3664479 -0.2950104,-0.66145831 -0.6614583,-0.66145831 z M 1.5875,1.0583333 h 5.2916666 c 0.2931583,0 0.5291667,0.2360084 0.5291667,0.5291667 v 5.0270833 c 0,0.2931583 -0.2360084,0.5291666 -0.5291667,0.5291666 H 1.5875 c -0.2931583,0 -0.5291667,-0.2360083 -0.5291667,-0.5291666 V 1.5875 c 0,-0.2931583 0.2360084,-0.5291667 0.5291667,-0.5291667 z"
     sodipodi:nodetypes="ssssssssssssssssss" />
</svg>
