<?xml version="1.0" encoding="UTF-8" standalone="no"?>
<!-- Created with Inkscape (http://www.inkscape.org/) -->

<svg
   width="32"
   height="32"
   viewBox="0 0 8.4666665 8.4666665"
   version="1.1"
   id="svg5"
   inkscape:version="1.1.2 (0a00cf5339, 2022-02-04, custom)"
   sodipodi:docname="user-info.svg"
   xmlns:inkscape="http://www.inkscape.org/namespaces/inkscape"
   xmlns:sodipodi="http://sodipodi.sourceforge.net/DTD/sodipodi-0.dtd"
   xmlns="http://www.w3.org/2000/svg"
   xmlns:svg="http://www.w3.org/2000/svg">
  <sodipodi:namedview
     id="namedview7"
     pagecolor="#ffffff"
     bordercolor="#666666"
     borderopacity="1.0"
     inkscape:pageshadow="2"
     inkscape:pageopacity="0.0"
     inkscape:pagecheckerboard="0"
     inkscape:document-units="px"
     showgrid="false"
     units="px"
     height="48px"
     inkscape:zoom="17.721864"
     inkscape:cx="13.9658"
     inkscape:cy="22.458135"
     inkscape:window-width="1920"
     inkscape:window-height="1017"
     inkscape:window-x="0"
     inkscape:window-y="0"
     inkscape:window-maximized="1"
     inkscape:current-layer="svg5" />
  <defs
     id="defs2" />
  <path
     id="rect5567"
     style="opacity:1;fill:#245c63;stroke-width:0.264583;fill-opacity:1"
     d="m 4.2333333,0.26458332 c 2.1986875,0 3.96875,1.77006248 3.96875,3.96874998 v 0.2645836 c 0,2.1986875 -1.7700625,3.96875 -3.96875,3.96875 -2.1986875,0 -3.96874998,-1.7700625 -3.96874998,-3.96875 V 4.2333333 c 0,-2.1986875 1.77006248,-3.96874998 3.96874998,-3.96874998 z" />
  <circle
     style="opacity:1;fill:#48b9c7;fill-opacity:1;stroke-width:0.264583"
     id="path4871"
     cx="4.2333331"
     cy="4.2333331"
     r="3.7041667" />
  <path
     d="m 4.2333941,2.38125 c 0.4383775,0 0.79375,0.3553884 0.79375,0.79375 0,0.4383617 -0.3553725,0.79375 -0.79375,0.79375 -0.4383775,0 -0.79375,-0.3553883 -0.79375,-0.79375 0,-0.4383616 0.3553725,-0.79375 0.79375,-0.79375 z m 0,2.1166667 C 5.8208332,4.4971229 5.8208332,5.557139 5.8208332,5.557139 V 5.8217223 H 2.6458333 V 5.557139 c 0,0 0,-1.0583333 1.5875608,-1.0592223 z"
     style="color:#000000;font-style:normal;font-variant:normal;font-weight:normal;font-stretch:normal;font-size:medium;line-height:normal;font-family:Sans;-inkscape-font-specification:Sans;text-indent:0;text-align:start;text-decoration:none;text-decoration-line:none;letter-spacing:normal;word-spacing:normal;text-transform:none;writing-mode:lr-tb;direction:ltr;baseline-shift:baseline;text-anchor:start;display:inline;overflow:visible;visibility:visible;fill:#ffffff;fill-opacity:1;stroke:none;stroke-width:0.529167;marker:none;enable-background:accumulate"
     id="path1066" />
  <path
     id="rect845"
     style="fill:#1f285a;stroke-width:0.264583"
     d="m 6.3499999,4.4979165 c 1.0260542,0 1.8520834,0.8260291 1.8520834,1.8520833 v 0.2645833 c 0,1.0260542 -0.8260292,1.8520834 -1.8520834,1.8520834 -1.0260541,0 -1.8520833,-0.8260292 -1.8520833,-1.8520834 V 6.3499998 c 0,-1.0260542 0.8260292,-1.8520833 1.8520833,-1.8520833 z" />
  <circle
     style="fill:#3f51b5;fill-opacity:1;stroke-width:0.264583"
     id="path1186"
     cx="6.3499999"
     cy="6.3499999"
     r="1.5875" />
  <path
     d="m 6.3499999,5.0270832 c -0.1461241,0 -0.2645833,0.118458 -0.2645833,0.2645834 0,0.1461254 0.1184592,0.2645833 0.2645833,0.2645833 0.1461241,0 0.2645833,-0.1184579 0.2645833,-0.2645833 0,-0.1461254 -0.1184592,-0.2645834 -0.2645833,-0.2645834 z m -0.2645833,0.79375 V 7.6729165 H 6.6145832 V 5.8208332 Z"
     style="fill:#ffffff;stroke-width:0.264583"
     id="path974" />
</svg>
