<?xml version="1.0" encoding="UTF-8" standalone="no"?>
<!-- Created with Inkscape (http://www.inkscape.org/) -->

<svg
   width="32"
   height="32"
   viewBox="0 0 8.4666665 8.4666665"
   version="1.1"
   id="svg5"
   inkscape:version="1.2.1 (9c6d41e410, 2022-07-14, custom)"
   sodipodi:docname="utilities-terminal_su.svg"
   xmlns:inkscape="http://www.inkscape.org/namespaces/inkscape"
   xmlns:sodipodi="http://sodipodi.sourceforge.net/DTD/sodipodi-0.dtd"
   xmlns="http://www.w3.org/2000/svg"
   xmlns:svg="http://www.w3.org/2000/svg">
  <sodipodi:namedview
     id="namedview7"
     pagecolor="#ffffff"
     bordercolor="#666666"
     borderopacity="1.0"
     inkscape:pageshadow="2"
     inkscape:pageopacity="0.0"
     inkscape:pagecheckerboard="0"
     inkscape:document-units="px"
     showgrid="false"
     units="px"
     height="48px"
     inkscape:zoom="25.0625"
     inkscape:cx="15.541147"
     inkscape:cy="16"
     inkscape:window-width="1920"
     inkscape:window-height="1011"
     inkscape:window-x="0"
     inkscape:window-y="0"
     inkscape:window-maximized="1"
     inkscape:current-layer="svg5"
     showguides="false"
     inkscape:showpageshadow="2"
     inkscape:deskcolor="#d1d1d1" />
  <defs
     id="defs2" />
  <rect
     style="opacity:1;fill:#cdcdcd;fill-opacity:1;stroke-width:0.264583"
     id="rect1162"
     width="7.4083333"
     height="5.8208332"
     x="0.52916664"
     y="1.8520833"
     ry="0.52916664" />
  <rect
     style="opacity:1;fill:#ac1800;fill-opacity:1;stroke-width:0.383418"
     id="rect1437"
     width="5.8208332"
     height="3.96875"
     x="1.3229166"
     y="2.6458333"
     ry="0.26458332" />
  <path
     id="rect1825"
     style="opacity:0.5;fill:#000000;fill-opacity:1;stroke-width:0.264583"
     d="m 1.0583333,1.8520834 c -0.2931583,0 -0.52916664,0.2360084 -0.52916664,0.5291667 v 4.7625 c 0,0.2931583 0.23600834,0.5291667 0.52916664,0.5291667 h 6.35 c 0.2931583,0 0.5291666,-0.2360084 0.5291666,-0.5291667 v -4.7625 c 0,-0.2931583 -0.2360083,-0.5291667 -0.5291666,-0.5291667 z M 1.190625,2.1166668 h 6.0854166 c 0.2198687,0 0.396875,0.1770062 0.396875,0.396875 V 6.746875 c 0,0.2198688 -0.1770063,0.396875 -0.396875,0.396875 H 1.190625 c -0.21986876,0 -0.39687501,-0.1770062 -0.39687501,-0.396875 V 2.5135418 c 0,-0.2198688 0.17700625,-0.396875 0.39687501,-0.396875 z"
     sodipodi:nodetypes="ssssssssssssssssss" />
  <path
     id="path4379"
     style="fill:#ffffff;fill-opacity:1;stroke-width:0.132291"
     d="M 2.1166666,2.9104169 V 3.4395834 H 1.8520833 V 3.7041669 H 2.1166666 V 4.2333332 H 1.8520833 V 4.4979163 H 2.1166666 V 5.0270832 H 2.38125 V 4.4979163 H 2.9104166 V 5.0270832 H 3.175 V 4.4979163 H 3.4395833 V 4.2333332 H 3.175 V 3.7041669 H 3.4395833 V 3.4395834 H 3.175 V 2.9104169 H 2.9104166 V 3.4395834 H 2.38125 V 2.9104169 Z M 2.38125,3.7041669 H 2.9104166 V 4.2333332 H 2.38125 Z M 3.7041801,4.7624998 V 5.0270832 H 5.0270698 V 4.7624998 Z"
     sodipodi:nodetypes="ccccccccccccccccccccccccccccccccccccccc" />
</svg>
