<?xml version="1.0" encoding="UTF-8" standalone="no"?>
<!-- Created with Inkscape (http://www.inkscape.org/) -->

<svg
   width="32"
   height="32"
   viewBox="0 0 8.4666665 8.4666665"
   version="1.1"
   id="svg5"
   inkscape:version="1.1.2 (0a00cf5339, 2022-02-04, custom)"
   sodipodi:docname="utilities-terminal.svg"
   xmlns:inkscape="http://www.inkscape.org/namespaces/inkscape"
   xmlns:sodipodi="http://sodipodi.sourceforge.net/DTD/sodipodi-0.dtd"
   xmlns="http://www.w3.org/2000/svg"
   xmlns:svg="http://www.w3.org/2000/svg">
  <sodipodi:namedview
     id="namedview7"
     pagecolor="#ffffff"
     bordercolor="#666666"
     borderopacity="1.0"
     inkscape:pageshadow="2"
     inkscape:pageopacity="0.0"
     inkscape:pagecheckerboard="0"
     inkscape:document-units="px"
     showgrid="false"
     units="px"
     height="48px"
     inkscape:zoom="18.227272"
     inkscape:cx="12.426434"
     inkscape:cy="18.763093"
     inkscape:window-width="1920"
     inkscape:window-height="1017"
     inkscape:window-x="0"
     inkscape:window-y="0"
     inkscape:window-maximized="1"
     inkscape:current-layer="svg5"
     showguides="false" />
  <defs
     id="defs2" />
  <rect
     style="opacity:1;fill:#cdcdcd;fill-opacity:1;stroke-width:0.264583"
     id="rect1162"
     width="7.4083333"
     height="5.8208332"
     x="0.52916664"
     y="1.8520833"
     ry="0.52916664" />
  <rect
     style="opacity:1;fill:#424242;fill-opacity:1;stroke-width:0.383418"
     id="rect1437"
     width="5.8208332"
     height="3.96875"
     x="1.3229166"
     y="2.6458333"
     ry="0.26458332" />
  <path
     d="m 2.38125,2.9104168 v 0.2645834 c -0.2922508,0 -0.5291666,0.236916 -0.5291666,0.5291666 0,0.2922507 0.2369158,0.5291667 0.5291666,0.5291667 V 4.7625001 H 1.8520834 V 5.0270835 H 2.38125 V 5.2916668 H 2.6458334 V 5.0270835 C 2.9380839,5.0270835 3.175,4.7901674 3.175,4.4979167 3.175,4.2056661 2.9380839,3.9687502 2.6458334,3.9687502 V 3.4395835 H 2.9104167 V 3.1750002 H 2.6458334 V 2.9104168 Z m 0,0.5291667 v 0.5291667 c -0.1461254,0 -0.2645833,-0.118458 -0.2645833,-0.2645834 0,-0.1461253 0.1184579,-0.2645833 0.2645833,-0.2645833 z m 0.2645834,0.79375 c 0.1461251,0 0.2645833,0.1184581 0.2645833,0.2645832 0,0.1461254 -0.1184582,0.2645834 -0.2645833,0.2645834 z m 0.7937497,0.79375 H 4.7625 V 5.2916668 H 3.4395831 Z"
     id="path1129"
     style="fill:#f6f6f6;fill-opacity:1;stroke-width:0.264583"
     sodipodi:nodetypes="ccsccccccccscccccccccsccsccccccc" />
  <path
     id="rect1825"
     style="opacity:0.5;fill:#000000;fill-opacity:1;stroke-width:0.264583"
     d="m 1.0583333,1.8520834 c -0.2931583,0 -0.52916664,0.2360084 -0.52916664,0.5291667 v 4.7625 c 0,0.2931583 0.23600834,0.5291667 0.52916664,0.5291667 h 6.35 c 0.2931583,0 0.5291666,-0.2360084 0.5291666,-0.5291667 v -4.7625 c 0,-0.2931583 -0.2360083,-0.5291667 -0.5291666,-0.5291667 z M 1.190625,2.1166668 h 6.0854166 c 0.2198687,0 0.396875,0.1770062 0.396875,0.396875 V 6.746875 c 0,0.2198688 -0.1770063,0.396875 -0.396875,0.396875 H 1.190625 c -0.21986876,0 -0.39687501,-0.1770062 -0.39687501,-0.396875 V 2.5135418 c 0,-0.2198688 0.17700625,-0.396875 0.39687501,-0.396875 z"
     sodipodi:nodetypes="ssssssssssssssssss" />
</svg>
