<?xml version="1.0" encoding="UTF-8" standalone="no"?>
<!-- Created with Inkscape (http://www.inkscape.org/) -->

<svg
   width="32"
   height="32"
   viewBox="0 0 8.4666665 8.4666665"
   version="1.1"
   id="svg5"
   inkscape:version="1.2 (dc2aedaf03, 2022-05-15)"
   sodipodi:docname="vscodium.svg"
   xmlns:inkscape="http://www.inkscape.org/namespaces/inkscape"
   xmlns:sodipodi="http://sodipodi.sourceforge.net/DTD/sodipodi-0.dtd"
   xmlns="http://www.w3.org/2000/svg"
   xmlns:svg="http://www.w3.org/2000/svg">
  <sodipodi:namedview
     id="namedview7"
     pagecolor="#ffffff"
     bordercolor="#666666"
     borderopacity="1.0"
     inkscape:pageshadow="2"
     inkscape:pageopacity="0.0"
     inkscape:pagecheckerboard="0"
     inkscape:document-units="px"
     showgrid="false"
     units="px"
     height="48px"
     inkscape:zoom="17.721864"
     inkscape:cx="18.028578"
     inkscape:cy="22.204211"
     inkscape:window-width="1846"
     inkscape:window-height="1011"
     inkscape:window-x="0"
     inkscape:window-y="0"
     inkscape:window-maximized="1"
     inkscape:current-layer="svg5"
     showguides="true"
     inkscape:showpageshadow="2"
     inkscape:deskcolor="#d1d1d1" />
  <defs
     id="defs2" />
  <path
     id="rect5567"
     style="opacity:1;fill:#dedede;fill-opacity:1;stroke-width:0.264583"
     d="m 4.2333333,0.26458332 c 2.1986875,0 3.96875,1.77006248 3.96875,3.96874998 v 0.2645836 c 0,2.1986875 -1.7700625,3.96875 -3.96875,3.96875 -2.1986875,0 -3.96874998,-1.7700625 -3.96874998,-3.96875 V 4.2333333 c 0,-2.1986875 1.77006248,-3.96874998 3.96874998,-3.96874998 z"
     sodipodi:nodetypes="sssssss" />
  <path
     id="path1427"
     style="opacity:0.5;fill:#000000;fill-opacity:1;stroke-width:0.264583"
     d="M 16 1 C 7.6900002 1 1 7.6900002 1 16 L 1 17 C 1 25.31 7.6900002 32 16 32 C 24.31 32 31 25.31 31 17 L 31 16 C 31 7.6900002 24.31 1 16 1 z M 16 2 A 14 14 0 0 1 30 16 A 14 14 0 0 1 16 30 A 14 14 0 0 1 2 16 A 14 14 0 0 1 16 2 z "
     transform="scale(0.26458333)" />
  <path
     d="M 4.1373014,6.0772026 C 4.0980481,6.0664738 4.0638758,6.0413807 4.0399697,6.0057122 4.0046901,5.9530786 3.9929389,5.9149244 3.9499206,5.7132934 3.9319818,5.6292101 3.9055476,5.5732574 3.8609791,5.525041 3.7832151,5.440889 3.6934137,5.4110135 3.4807198,5.3985212 3.2427776,5.3845459 3.1583306,5.3635936 3.0788342,5.2988037 2.9884595,5.2251504 2.9507435,5.1419111 2.8967819,4.8969228 2.8634174,4.7455005 2.8443575,4.6843976 2.8050392,4.6028848 2.7328905,4.4532721 2.6337219,4.336997 2.4901151,4.2336005 2.3975516,4.1669573 2.3699584,4.126431 2.3852012,4.0795191 c 0.012377,-0.037986 0.051812,-0.06244 0.1007579,-0.06244 0.039397,0 0.063381,0.00974 0.094661,0.038445 0.02999,0.027509 0.047721,0.053535 0.08915,0.1308762 0.037859,0.070652 0.074207,0.1221237 0.086271,0.1221237 0.0073,0 0.00847,-0.029804 0.00847,-0.214212 0,-0.1281284 0.00235,-0.2228466 0.00586,-0.2356974 0.00704,-0.025818 0.035045,-0.051386 0.056215,-0.051356 0.035162,5.29e-5 0.065283,0.033781 0.080669,0.090326 0.00352,0.012819 0.018239,0.141351 0.032765,0.2856177 0.014539,0.1442654 0.028583,0.2646124 0.031215,0.2674368 0.00808,0.0087 0.044999,-0.037597 0.069061,-0.086741 0.02362,-0.048227 0.039579,-0.1097544 0.039748,-0.1532532 6.51e-5,-0.013758 -0.00651,-0.057538 -0.014565,-0.097285 -0.011986,-0.059048 -0.013562,-0.076429 -0.0086,-0.095008 0.015647,-0.059027 0.080278,-0.068744 0.1226839,-0.018444 0.030694,0.036419 0.041285,0.077651 0.041051,0.1599764 0,0.089194 -0.00769,0.122383 -0.072553,0.3229689 -0.056033,0.1733074 -0.073686,0.2501199 -0.07353,0.3198759 0,0.2501477 0.2067533,0.4130424 0.5523974,0.4363919 0.030785,0.00206 0.055968,0.00185 0.055968,-5.292e-4 0,-0.00235 -0.019267,-0.040133 -0.042823,-0.083938 C 3.5589395,5.0037391 3.5260179,4.8983145 3.5260179,4.7893909 c 0,-0.081982 0.011856,-0.132047 0.064019,-0.2686434 C 3.6612999,4.3338736 3.6682829,4.3035167 3.6683479,4.1802698 3.6684,4.1160908 3.6654779,4.0761443 3.6583179,4.042361 3.6195058,3.8584385 3.5239721,3.7005115 3.389146,3.5973452 3.3357055,3.5564525 3.3197333,3.5476392 3.1830703,3.4835756 3.0516054,3.4219476 3.0173811,3.4005071 2.9648003,3.3468271 2.9083242,3.289181 2.8843659,3.2420441 2.8805096,3.1810299 c -0.00235,-0.037701 -0.00143,-0.043648 0.00808,-0.048699 0.021744,-0.011628 0.067889,-0.013745 0.1091089,-0.00501 0.0765,0.016195 0.1450399,0.060268 0.25467,0.1637414 0.1168084,0.1102492 0.1825995,0.1509554 0.2629819,0.1627135 0.039136,0.00573 0.043109,0.00534 0.050483,-0.00489 0.011983,-0.016623 0.010159,-0.07847 -0.00339,-0.1150471 C 3.537483,3.2664361 3.4839642,3.2163782 3.3643288,3.1485523 3.2874509,3.1049648 3.2356128,3.0676692 3.2124492,3.0392794 3.1558298,2.9698726 3.1443262,2.8681218 3.187253,2.8163137 c 0.04066,-0.04906 0.1095519,-0.054603 0.1889832,-0.015206 0.038628,0.019165 0.055916,0.033226 0.1145285,0.093202 0.1710175,0.174969 0.2739904,0.4045096 0.3193146,0.7118125 0.012118,0.082035 0.010552,0.3910951 -0.00262,0.4983717 -0.012507,0.1022932 -0.032283,0.2236854 -0.05559,0.3404447 -0.02018,0.1011118 -0.021757,0.1474933 -0.00625,0.1823151 0.011464,0.025551 0.035149,0.042645 0.059186,0.042645 0.02715,0 0.075263,-0.031476 0.1306962,-0.085497 0.090531,-0.088241 0.1412618,-0.1737135 0.1702752,-0.2868599 0.012637,-0.049322 0.014878,-0.073657 0.018579,-0.2022515 0.00391,-0.1359138 0.00508,-0.1481336 0.017444,-0.1739344 0.017939,-0.037642 0.051056,-0.061676 0.084994,-0.061676 0.022005,0 0.028713,0.00312 0.047304,0.02199 0.048451,0.049201 0.046783,0.1137867 -0.00886,0.3435006 -0.039683,0.1637294 -0.092668,0.2898947 -0.1598658,0.380611 -0.020193,0.027251 -0.07951,0.090989 -0.1318167,0.1416434 -0.06281,0.060819 -0.1047336,0.106695 -0.1234288,0.1350808 -0.1094087,0.1661067 -0.051083,0.3288599 0.128638,0.3589999 0.075184,0.012607 0.1584849,-0.011867 0.2154039,-0.063304 C 4.2734563,5.1065668 4.347533,4.9469317 4.3994363,4.7357982 4.4765615,4.4220936 4.5013146,4.0808486 4.4610974,3.8855054 4.4247236,3.7088418 4.3516888,3.5607308 4.249094,3.4556105 4.2210968,3.426931 4.1604519,3.3771073 4.098908,3.3322313 3.9273691,3.2071562 3.8583864,3.126371 3.8345191,3.0225696 c -0.011856,-0.051512 -0.00886,-0.1039375 0.00651,-0.1156837 0.019854,-0.015126 0.06983,-0.022562 0.1043408,-0.015524 0.085476,0.017432 0.1604909,0.085185 0.2395707,0.2163882 0.062156,0.1031121 0.090596,0.1415759 0.1332494,0.1801786 0.031632,0.028631 0.047708,0.03651 0.047708,0.023389 0,-0.00345 -0.01519,-0.035582 -0.033742,-0.071404 C 4.197243,2.9794651 4.1003672,2.7830715 4.0873394,2.7435903 c -0.029391,-0.089061 -0.012637,-0.152187 0.047773,-0.1792922 0.06854,-0.030786 0.1447795,0.0191 0.1813877,0.1186775 0.00782,0.021245 0.058378,0.1943643 0.1123792,0.3847094 0.1165867,0.4109496 0.1086789,0.3851156 0.1169516,0.3823772 0.01016,-0.00336 0.048086,-0.097422 0.06725,-0.1667193 0.02513,-0.090905 0.036022,-0.1856938 0.032192,-0.2805138 -0.00378,-0.09292 -0.01347,-0.152998 -0.047526,-0.2931888 -0.018317,-0.075433 -0.025196,-0.1155462 -0.025196,-0.146976 0,-0.074165 0.029065,-0.1345724 0.079106,-0.1644491 0.055486,-0.033117 0.1392293,-0.016476 0.1953408,0.038812 0.055108,0.054316 0.072969,0.1131834 0.068175,0.2248098 -0.00508,0.1193761 -0.024466,0.1918097 -0.1331066,0.4983731 -0.09685,0.2733146 -0.1259279,0.3751937 -0.1433984,0.5023723 -0.011464,0.083346 -0.011205,0.2149157 0,0.2849615 0.01016,0.061194 0.030694,0.1289963 0.039826,0.1318948 0.00326,0.00106 0.03141,-0.070932 0.062495,-0.1599367 0.076122,-0.2178935 0.086388,-0.2424442 0.1101513,-0.2636347 0.047109,-0.042007 0.1170168,-0.00606 0.1170168,0.060183 0,0.055343 -0.117525,0.4051339 -0.4170109,1.2411974 -0.0836,0.233381 -0.1512022,0.4284014 -0.1501992,0.4333796 0.0013,0.00587 0.1208733,-0.1010232 0.3404719,-0.3040116 0.4693059,-0.433816 0.4763671,-0.4411886 0.5067222,-0.5297843 0.012118,-0.035552 0.013771,-0.048394 0.011205,-0.090944 C 5.2553083,4.3978644 5.233004,4.3391058 5.1652841,4.2178168 5.0851492,4.07432 5.0596275,4.0133415 5.0512767,3.9454851 5.0343011,3.8075182 5.1558779,3.7177649 5.2416929,3.8049081 c 0.047643,0.048376 0.1136427,0.2149289 0.1424736,0.3595568 0.00795,0.039955 0.014486,0.078063 0.014486,0.084684 0,0.033503 0.017769,0.00569 0.089463,-0.1400295 0.1037153,-0.2108067 0.1228923,-0.2396807 0.1786128,-0.268937 0.048894,-0.025672 0.108653,0.00106 0.1412359,0.063214 0.017613,0.033598 0.017079,0.096924 -0.0013,0.1535497 -0.048516,0.149606 -0.2397659,0.468245 -0.4457377,0.742647 -0.011464,0.015229 -0.017743,0.027687 -0.014031,0.027687 0.00378,0 0.021405,-0.00864 0.039305,-0.019201 0.1108546,-0.065419 0.1893088,-0.069675 0.2666296,-0.014462 0.023646,0.016886 0.049949,0.066936 0.049871,0.094866 -1.042e-4,0.031573 -0.017457,0.068173 -0.040817,0.086081 -0.042728,0.032756 -0.087518,0.043354 -0.2143838,0.050725 C 5.2386758,5.0374205 5.0800997,5.094466 4.9279465,5.2121712 4.8080244,5.3049434 4.7379082,5.3985106 4.6179599,5.6258433 4.5203157,5.8109114 4.4745356,5.8779846 4.3832488,5.9697818 c -0.066117,0.066487 -0.1154665,0.098125 -0.171682,0.1100772 -0.0367,0.00781 -0.036478,0.00781 -0.074859,-0.00267 z"
     style="fill:#6a7ce0;fill-opacity:1;stroke-width:0.264583"
     id="path319" />
</svg>
