<?xml version="1.0" encoding="UTF-8" standalone="no"?>
<!-- Created with Inkscape (http://www.inkscape.org/) -->

<svg
   width="32"
   height="32"
   viewBox="0 0 8.4666665 8.4666665"
   version="1.1"
   id="svg5"
   inkscape:version="1.1.2 (0a00cf5339, 2022-02-04, custom)"
   sodipodi:docname="weather.svg"
   xmlns:inkscape="http://www.inkscape.org/namespaces/inkscape"
   xmlns:sodipodi="http://sodipodi.sourceforge.net/DTD/sodipodi-0.dtd"
   xmlns="http://www.w3.org/2000/svg"
   xmlns:svg="http://www.w3.org/2000/svg">
  <sodipodi:namedview
     id="namedview7"
     pagecolor="#ffffff"
     bordercolor="#666666"
     borderopacity="1.0"
     inkscape:pageshadow="2"
     inkscape:pageopacity="0.0"
     inkscape:pagecheckerboard="0"
     inkscape:document-units="px"
     showgrid="false"
     units="px"
     height="48px"
     inkscape:zoom="1"
     inkscape:cx="16"
     inkscape:cy="15.5"
     inkscape:window-width="1920"
     inkscape:window-height="1017"
     inkscape:window-x="0"
     inkscape:window-y="0"
     inkscape:window-maximized="1"
     inkscape:current-layer="svg5"
     showguides="false" />
  <defs
     id="defs2" />
  <circle
     style="fill:#ffce51;fill-opacity:1;stroke-width:0.429947"
     id="path934"
     cx="4.2333331"
     cy="4.2333331"
     r="3.4395833" />
  <path
     id="path4871"
     style="opacity:0.4;fill:#000000;fill-opacity:1;stroke-width:0.245683"
     d="m 4.2333333,0.79375025 c -1.8996293,0 -3.43958326,1.53995405 -3.43958326,3.43958325 0,1.8996292 1.53995396,3.4395833 3.43958326,3.4395833 1.8996292,0 3.4395834,-1.5399541 3.4395834,-3.4395833 0,-1.8996292 -1.5399542,-3.43958325 -3.4395834,-3.43958325 z m 0,0.26458335 c 1.7535038,0 3.1750004,1.4214958 3.1750004,3.1749999 0,1.7535038 -1.4214966,3.175 -3.1750004,3.175 -1.7535042,0 -3.1749999,-1.4214962 -3.1749999,-3.175 0,-1.7535041 1.4214957,-3.1749999 3.1749999,-3.1749999 z" />
  <path
     id="rect6"
     d="M 5.5562548,3.9687499 C 4.8961494,3.9705284 4.3060268,4.3806101 4.0741749,4.9986611 3.881258,4.687436 3.5411715,4.498043 3.1750049,4.4979165 c -0.5845013,0 -1.0583333,0.473832 -1.0583333,1.0583333 6.851e-4,0.01121 0.00155,0.022408 0.00259,0.03359 -0.4585393,0.1161785 -0.79634,0.5290948 -0.79634,1.0247434 0,0.5863166 0.4720166,1.0583333 1.0583333,1.0583333 h 4.2333333 c 0.5863166,0 1.0583333,-0.4720167 1.0583333,-1.0583333 0,-0.3971858 -0.2169689,-0.7413491 -0.5389854,-0.9224243 0.00522,-0.045142 0.00849,-0.090486 0.00982,-0.1359091 -1e-7,-0.876752 -0.710748,-1.5874999 -1.5875,-1.5874999 z"
     style="fill:#ffffff;stroke-width:0.264583"
     sodipodi:nodetypes="sccccssssccss" />
  <path
     id="path940"
     style="opacity:0.4;fill:#000000;stroke-width:0.0700042"
     d="M 5.5562549,3.9687499 C 4.8961494,3.9705226 4.306027,4.3806101 4.074175,4.9986612 3.881258,4.687436 3.5411716,4.4980431 3.1750049,4.4979166 c -0.5845014,0 -1.0583333,0.4738319 -1.0583333,1.0583333 6.853e-4,0.01121 0.00154,0.022408 0.00258,0.03359 -0.4585405,0.1161786 -0.796335,0.5290953 -0.796335,1.0247437 0,0.5863167 0.4720166,1.0583333 1.0583333,1.0583333 h 4.2333333 c 0.5863167,0 1.0583333,-0.4720166 1.0583333,-1.0583333 0,-0.3971856 -0.2169686,-0.741349 -0.538985,-0.9224242 0.00522,-0.045142 0.00849,-0.090486 0.00982,-0.1359091 1.3e-6,-0.8767519 -0.7107481,-1.5875 -1.5875,-1.5875 z m 0,0.2645834 a 1.3229166,1.3229166 0 0 1 1.3229166,1.3229166 1.3229166,1.3229166 0 0 1 -0.028939,0.2728516 c 0.3169018,0.049431 0.5581055,0.3219955 0.5581055,0.6531901 0,0.3664479 -0.2950104,0.6614583 -0.6614583,0.6614583 H 2.2489633 c -0.3664479,0 -0.6614584,-0.2950104 -0.6614584,-0.6614583 0,-0.366448 0.2950105,-0.6614584 0.6614584,-0.6614584 H 2.427247 a 0.79374999,0.79374999 0 0 1 -0.045992,-0.2645833 0.79374999,0.79374999 0 0 1 0.79375,-0.79375 0.79374999,0.79374999 0 0 1 0.79375,0.79375 0.79374999,0.79374999 0 0 1 -0.045992,0.2645833 H 4.260727 A 1.3229166,1.3229166 0 0 1 4.2333382,5.5562499 1.3229166,1.3229166 0 0 1 5.5562549,4.2333333 Z" />
</svg>
