<?xml version="1.0" encoding="UTF-8" standalone="no"?>
<!-- Created with Inkscape (http://www.inkscape.org/) -->

<svg
   width="48"
   height="48"
   viewBox="0 0 12.7 12.7"
   version="1.1"
   id="svg5"
   inkscape:version="1.1.2 (0a00cf5339, 2022-02-04, custom)"
   sodipodi:docname="application-pdf.svg"
   xmlns:inkscape="http://www.inkscape.org/namespaces/inkscape"
   xmlns:sodipodi="http://sodipodi.sourceforge.net/DTD/sodipodi-0.dtd"
   xmlns="http://www.w3.org/2000/svg"
   xmlns:svg="http://www.w3.org/2000/svg">
  <sodipodi:namedview
     id="namedview7"
     pagecolor="#ffffff"
     bordercolor="#666666"
     borderopacity="1.0"
     inkscape:pageshadow="2"
     inkscape:pageopacity="0.0"
     inkscape:pagecheckerboard="0"
     inkscape:document-units="px"
     showgrid="false"
     units="px"
     height="48px"
     inkscape:zoom="16.708333"
     inkscape:cx="24.029925"
     inkscape:cy="24"
     inkscape:window-width="1920"
     inkscape:window-height="1017"
     inkscape:window-x="0"
     inkscape:window-y="0"
     inkscape:window-maximized="1"
     inkscape:current-layer="svg5"
     showguides="false" />
  <defs
     id="defs2" />
  <path
     d="M 2.8045867,0.52916972 C 2.2779889,0.52784972 1.8507651,0.95507212 1.8520864,1.4816697 V 11.48292 c 0,0.527843 0.4249211,0.9525 0.9525003,0.9525 H 9.895685 c 0.527579,0 0.9525,-0.424657 0.9525,-0.9525 V 3.9687531 L 7.4083366,0.52916972 Z"
     style="fill:#671d00;stroke-width:0.264583;fill-opacity:1"
     id="path1062" />
  <path
     d="m 10.583337,3.9687531 v 7.1437499 c 0,0.439737 -0.354013,0.79375 -0.79375,0.79375 H 2.91042 c -0.4397375,0 -0.79375,-0.354013 -0.79375,-0.79375 V 1.5875031 c 0,-0.4397375 0.3540125,-0.79375008 0.79375,-0.79375008 h 4.4979166"
     style="fill:#cf3b00;stroke-width:0.264583;fill-opacity:1"
     id="path942" />
  <path
     d="M 10.583337,4.4979197 H 7.9375033 c -0.4397375,0 -0.79375,-0.3540125 -0.79375,-0.79375 V 0.79375302 H 7.4083366 L 10.583337,3.9687531 Z"
     style="opacity:0.5;fill:#671d00;fill-opacity:1;stroke-width:0.264583"
     id="path1182" />
  <path
     d="M 10.583337,3.9687531 H 8.2020866 c -0.4397375,0 -0.79375,-0.3540125 -0.79375,-0.79375 V 0.79375312"
     style="fill:#f15d23;stroke-width:0.264583;fill-opacity:1"
     id="path1302" />
  <path
     d="M 4.7625001,8.2020834 C 4.7625001,7.617582 4.2886682,7.14375 3.7041668,7.14375 H 2.6458334 v 3.175 H 3.1750002 V 9.2604167 h 0.5291666 c 0.5845014,0 1.0583333,-0.473832 1.0583333,-1.0583333 z m -0.5291666,0 c 0,0.2922505 -0.2369161,0.5291666 -0.5291667,0.5291666 H 3.1750002 V 7.6729167 h 0.5291666 c 0.2922506,0 0.5291667,0.2369161 0.5291667,0.5291667 z M 5.2916668,7.14375 v 3.175 h 1.0583333 c 0.5863167,0 1.0583333,-0.4720167 1.0583333,-1.0583333 V 8.2020834 C 7.4083334,7.6157667 6.9363168,7.14375 6.3500001,7.14375 H 5.8208335 Z m 0.5291667,0.5291667 h 0.5291666 c 0.2931583,0 0.5291667,0.2360083 0.5291667,0.5291667 v 1.0583333 c 0,0.2931583 -0.2360084,0.5291667 -0.5291667,0.5291667 H 5.8208335 Z M 7.9375001,7.14375 v 3.175 H 8.4666668 V 8.9958334 H 9.5250001 V 8.4666667 H 8.4666668 v -0.79375 H 10.054167 V 7.14375 H 8.2020834 Z"
     id="path1510"
     style="fill:#f6f6f6;fill-opacity:1;stroke-width:0.264583" />
</svg>
