<?xml version="1.0" encoding="UTF-8" standalone="no"?>
<!-- Created with Inkscape (http://www.inkscape.org/) -->

<svg
   width="48"
   height="48"
   viewBox="0 0 12.7 12.7"
   version="1.1"
   id="svg5"
   inkscape:version="1.2 (dc2aedaf03, 2022-05-15)"
   sodipodi:docname="application-x-ms-dos-executable.svg"
   xmlns:inkscape="http://www.inkscape.org/namespaces/inkscape"
   xmlns:sodipodi="http://sodipodi.sourceforge.net/DTD/sodipodi-0.dtd"
   xmlns="http://www.w3.org/2000/svg"
   xmlns:svg="http://www.w3.org/2000/svg">
  <sodipodi:namedview
     id="namedview7"
     pagecolor="#ffffff"
     bordercolor="#666666"
     borderopacity="1.0"
     inkscape:pageshadow="2"
     inkscape:pageopacity="0.0"
     inkscape:pagecheckerboard="0"
     inkscape:document-units="px"
     showgrid="false"
     units="px"
     height="48px"
     inkscape:zoom="17.291667"
     inkscape:cx="24"
     inkscape:cy="24"
     inkscape:window-width="1920"
     inkscape:window-height="1009"
     inkscape:window-x="0"
     inkscape:window-y="0"
     inkscape:window-maximized="1"
     inkscape:current-layer="svg5"
     inkscape:showpageshadow="2"
     inkscape:deskcolor="#d1d1d1" />
  <defs
     id="defs2" />
  <rect
     style="opacity:1;fill:#48b9c7;fill-opacity:1;stroke-width:0.264583"
     id="rect1162"
     width="10.583333"
     height="10.31875"
     x="1.0583333"
     y="1.3229166"
     ry="0.92604166" />
  <path
     id="rect1316"
     style="opacity:0.5;fill:#000000;stroke-width:0.264583"
     d="m 1.984375,1.3229167 c -0.5130271,0 -0.9260417,0.4130146 -0.9260417,0.9260417 v 8.4666666 c 0,0.513027 0.4130146,0.926042 0.9260417,0.926042 h 8.73125 c 0.513027,0 0.926042,-0.413015 0.926042,-0.926042 V 2.2489584 c 0,-0.5130271 -0.413015,-0.9260417 -0.926042,-0.9260417 z M 2.1166666,1.5875 h 8.4666664 c 0.439738,0 0.79375,0.3540125 0.79375,0.79375 v 7.672917 c 0,0.439737 -0.354012,0.79375 -0.79375,0.79375 H 2.1166666 c -0.4397375,0 -0.7937499,-0.354013 -0.7937499,-0.79375 V 2.38125 c 0,-0.4397375 0.3540124,-0.79375 0.7937499,-0.79375 z"
     sodipodi:nodetypes="ssssssssssssssssss" />
  <path
     id="rect845"
     style="opacity:0.3;fill:#000000;stroke-width:0.264583"
     d="m 3.7041667,3.4395833 c -0.1465792,0 -0.2645834,0.1180041 -0.2645834,0.2645834 v 2.381195 H 6.0854168 V 3.4395833 Z m 2.910294,0 v 2.6457784 h 2.6459558 v -2.381195 c 0,-0.1465793 -0.118004,-0.2645834 -0.264583,-0.2645834 z M 3.4395833,6.6146385 v 2.3811953 c 0,0.146579 0.1180042,0.264583 0.2645834,0.264583 H 6.0854168 V 6.6146385 Z m 3.1748774,0 v 2.6457783 h 2.3813728 c 0.146579,0 0.264583,-0.114391 0.264583,-0.264583 V 6.6146385 Z"
     sodipodi:nodetypes="sscccscccssccsscccccsscc" />
  <path
     d="M 3.7041666,3.175 H 6.0854167 V 5.8207784 H 3.4395833 V 3.4395833 C 3.4395833,3.2930041 3.5575874,3.175 3.7041666,3.175 Z M 6.0854167,6.3500551 V 8.9958338 H 3.7041666 c -0.1465792,0 -0.2645833,-0.118004 -0.2645833,-0.264584 V 6.3500551 Z m 3.1749998,0 v 2.3811947 c 0,0.14658 -0.113972,0.264584 -0.264583,0.264584 H 6.6144604 V 6.3500551 Z M 6.6144609,3.175 h 2.3813726 c 0.146579,0 0.264583,0.131208 0.264583,0.2645833 V 5.8207784 H 6.6144609 Z"
     style="fill:#ffffff;fill-opacity:1;stroke-width:0.0700042"
     id="path2168"
     sodipodi:nodetypes="scccssccsscccssccccssccc" />
</svg>
