<?xml version="1.0" encoding="UTF-8" standalone="no"?>
<!-- Created with Inkscape (http://www.inkscape.org/) -->

<svg
   width="48"
   height="48"
   viewBox="0 0 12.7 12.7"
   version="1.1"
   id="svg5"
   inkscape:version="1.1.2 (0a00cf5339, 2022-02-04, custom)"
   sodipodi:docname="application-illustrator.svg"
   xmlns:inkscape="http://www.inkscape.org/namespaces/inkscape"
   xmlns:sodipodi="http://sodipodi.sourceforge.net/DTD/sodipodi-0.dtd"
   xmlns="http://www.w3.org/2000/svg"
   xmlns:svg="http://www.w3.org/2000/svg">
  <sodipodi:namedview
     id="namedview7"
     pagecolor="#ffffff"
     bordercolor="#666666"
     borderopacity="1.0"
     inkscape:pageshadow="2"
     inkscape:pageopacity="0.0"
     inkscape:pagecheckerboard="0"
     inkscape:document-units="px"
     showgrid="false"
     units="px"
     height="48px"
     inkscape:zoom="16.708333"
     inkscape:cx="23.970075"
     inkscape:cy="24"
     inkscape:window-width="1920"
     inkscape:window-height="1017"
     inkscape:window-x="0"
     inkscape:window-y="0"
     inkscape:window-maximized="1"
     inkscape:current-layer="svg5"
     showguides="true" />
  <defs
     id="defs2" />
  <rect
     style="opacity:1;fill:#245c63;fill-opacity:1;stroke-width:0.264583"
     id="rect1162"
     width="11.1125"
     height="8.4666662"
     x="0.79374999"
     y="2.9104166"
     ry="0.79374999" />
  <rect
     style="opacity:1;fill:#48b9c7;fill-opacity:1;stroke-width:0.264583"
     id="rect1237"
     width="10.583333"
     height="7.4083333"
     x="1.0583333"
     y="3.175"
     ry="0.66145831" />
  <rect
     style="opacity:1;fill:#f6f6f6;fill-opacity:1;stroke-width:0.383418"
     id="rect1437"
     width="8.7312498"
     height="5.8208332"
     x="1.8520833"
     y="3.96875"
     ry="0.52916664" />
  <path
     d="m 8.0438942,4.5905208 c -0.1505161,0 -0.2766721,0.048924 -0.3782695,0.1467617 -0.097838,0.097835 -0.1467617,0.2182283 -0.1467617,0.3612171 0,0.1429914 0.048924,0.2633821 0.1467617,0.3612197 0.1015974,0.097835 0.2277534,0.1467591 0.3782695,0.1467591 0.158041,0 0.2861205,-0.047003 0.3839581,-0.1410758 0.097835,-0.097835 0.1467591,-0.2201492 0.1467591,-0.366903 0,-0.1467538 -0.048924,-0.2671445 -0.1467591,-0.3612171 C 8.3300147,4.6394449 8.2019352,4.5905208 8.0438942,4.5905208 Z M 5.0358093,5.2566305 3.8560375,9.1680188 H 4.815668 L 5.0130737,8.3272444 H 6.1530548 L 6.3561436,9.1680188 H 7.3385124 L 6.158738,5.2566305 Z m 0.5472536,0.6717929 0.411861,1.7270254 H 5.1712019 Z M 7.6036117,6.170787 V 9.1680188 H 8.4955486 V 6.170787 Z"
     style="font-weight:bold;font-size:21.333px;line-height:1.25;font-family:'Fira Sans';letter-spacing:0;word-spacing:0;fill:#ff7c00;stroke-width:0.0661458"
     id="path31507" />
</svg>
