<?xml version="1.0" encoding="UTF-8" standalone="no"?>
<!-- Created with Inkscape (http://www.inkscape.org/) -->

<svg
   width="48"
   height="48"
   viewBox="0 0 12.7 12.7"
   version="1.1"
   id="svg5"
   inkscape:version="1.2 (dc2aedaf03, 2022-05-15)"
   sodipodi:docname="application-x-epub.svg"
   xmlns:inkscape="http://www.inkscape.org/namespaces/inkscape"
   xmlns:sodipodi="http://sodipodi.sourceforge.net/DTD/sodipodi-0.dtd"
   xmlns="http://www.w3.org/2000/svg"
   xmlns:svg="http://www.w3.org/2000/svg">
  <sodipodi:namedview
     id="namedview7"
     pagecolor="#ffffff"
     bordercolor="#666666"
     borderopacity="1.0"
     inkscape:pageshadow="2"
     inkscape:pageopacity="0.0"
     inkscape:pagecheckerboard="0"
     inkscape:document-units="px"
     showgrid="false"
     units="px"
     height="48px"
     inkscape:zoom="16.520833"
     inkscape:cx="24.06053"
     inkscape:cy="23.969736"
     inkscape:window-width="1920"
     inkscape:window-height="1014"
     inkscape:window-x="0"
     inkscape:window-y="0"
     inkscape:window-maximized="1"
     inkscape:current-layer="svg5"
     showguides="false"
     inkscape:showpageshadow="2"
     inkscape:deskcolor="#d1d1d1" />
  <defs
     id="defs2" />
  <rect
     style="opacity:1;fill:#425c0b;fill-opacity:1;stroke-width:0.264583"
     id="rect1162"
     width="8.7312498"
     height="10.31875"
     x="2.1166666"
     y="1.0583333"
     ry="0.79374999" />
  <rect
     style="fill:#dedede;fill-opacity:1;stroke-width:0.383418"
     id="rect1437"
     width="8.2020836"
     height="9.7895832"
     x="2.3812499"
     y="1.3229166"
     ry="0.63499999" />
  <rect
     style="fill:#425c0b;fill-opacity:1;stroke-width:0.264583"
     id="rect4694"
     width="8.2020836"
     height="9.5249996"
     x="2.1166666"
     y="0.79374999"
     ry="0.79374999" />
  <rect
     style="opacity:1;fill:#85b916;fill-opacity:1;stroke-width:0.264583"
     id="rect1237"
     width="7.6729169"
     height="8.9958334"
     x="2.3812499"
     y="1.0583333"
     ry="0.63499999" />
  <path
     d="m 3.01625,1.0583333 c -0.3518958,0 -0.635,0.2831042 -0.635,0.635 V 10.4775 c 0,0.351631 0.2831042,0.635 0.635,0.635 H 3.175 V 1.0583333 Z"
     style="fill:#293907;stroke-width:0.264583;fill-opacity:1"
     id="path10119" />
  <path
     d="M 6.6145632,7.4876655 4.9834069,5.8565092 6.6145632,4.2256175 7.1582819,4.7693364 6.0708444,5.8565092 6.6145632,6.400228 8.2454547,4.7693364 6.8246423,3.3485239 c -0.1160304,-0.1160068 -0.3041279,-0.1160068 -0.4201583,0 L 4.1063132,5.64643 c -0.116037,0.1161211 -0.116037,0.3043019 0,0.420423 L 6.404484,8.3647591 c 0.1161521,0.1161522 0.3042708,0.1161522 0.4201583,0 L 9.1228127,6.066853 c 0.116037,-0.1161211 0.116037,-0.3043019 0,-0.420423 L 8.7894377,5.313055 Z"
     style="fill:#ffffff;stroke-width:0.264583"
     id="path8854" />
</svg>
