<?xml version="1.0" encoding="UTF-8" standalone="no"?>
<!-- Created with Inkscape (http://www.inkscape.org/) -->

<svg
   width="48"
   height="48"
   viewBox="0 0 12.7 12.7"
   version="1.1"
   id="svg5"
   inkscape:version="1.2 (dc2aedaf03, 2022-05-15)"
   sodipodi:docname="application-x-theme.svg"
   xmlns:inkscape="http://www.inkscape.org/namespaces/inkscape"
   xmlns:sodipodi="http://sodipodi.sourceforge.net/DTD/sodipodi-0.dtd"
   xmlns="http://www.w3.org/2000/svg"
   xmlns:svg="http://www.w3.org/2000/svg">
  <sodipodi:namedview
     id="namedview7"
     pagecolor="#ffffff"
     bordercolor="#666666"
     borderopacity="1.0"
     inkscape:pageshadow="2"
     inkscape:pageopacity="0.0"
     inkscape:pagecheckerboard="0"
     inkscape:document-units="px"
     showgrid="false"
     units="px"
     height="48px"
     inkscape:zoom="17.145833"
     inkscape:cx="23.970838"
     inkscape:cy="24"
     inkscape:window-width="1920"
     inkscape:window-height="1016"
     inkscape:window-x="0"
     inkscape:window-y="0"
     inkscape:window-maximized="1"
     inkscape:current-layer="svg5"
     showguides="false"
     inkscape:showpageshadow="2"
     inkscape:deskcolor="#d1d1d1" />
  <defs
     id="defs2" />
  <path
     d="M 2.8045867,0.52916972 C 2.2779889,0.52784972 1.8507651,0.95507212 1.8520864,1.4816697 V 11.48292 c 0,0.527843 0.4249211,0.9525 0.9525003,0.9525 H 9.895685 c 0.527579,0 0.9525,-0.424657 0.9525,-0.9525 V 3.9687531 L 7.4083366,0.52916972 Z"
     style="fill:#552d5d;stroke-width:0.264583;fill-opacity:1"
     id="path1062" />
  <path
     d="m 10.583337,3.9687531 v 7.1437499 c 0,0.439737 -0.354013,0.79375 -0.79375,0.79375 H 2.91042 c -0.4397375,0 -0.79375,-0.354013 -0.79375,-0.79375 V 1.5875031 c 0,-0.4397375 0.3540125,-0.79375008 0.79375,-0.79375008 h 4.4979166"
     style="fill:#aa5abb;stroke-width:0.264583;fill-opacity:1"
     id="path942" />
  <path
     d="M 10.583337,4.4979197 H 7.9375033 c -0.4397375,0 -0.79375,-0.3540125 -0.79375,-0.79375 V 0.79375302 H 7.4083366 L 10.583337,3.9687531 Z"
     style="opacity:0.5;fill:#552d5d;fill-opacity:1;stroke-width:0.264583"
     id="path1182" />
  <path
     d="M 10.583337,3.9687531 H 8.2020866 c -0.4397375,0 -0.79375,-0.3540125 -0.79375,-0.79375 V 0.79375312"
     style="fill:#bb7bc9;stroke-width:0.264583;fill-opacity:1"
     id="path1302" />
  <path
     d="M 8.5863378,5.5584971 C 8.2277704,5.5132982 7.2924065,6.1544438 6.37056,7.0766537 5.9594711,7.4879914 5.6026978,7.8944816 5.3294435,8.2778913 5.6497018,8.3799259 5.9078088,8.6378626 6.0097903,8.9582381 6.393054,8.6849048 6.8004666,8.3296854 7.2116919,7.91845 8.2575625,6.8721448 8.9170011,5.8356226 8.6846693,5.603012 8.6607893,5.578962 8.6282093,5.563868 8.5863378,5.5584971 Z M 5.1593569,8.7303483 v 6.799e-4 C 3.9688143,9.0501763 4.8616553,9.8040788 3.96875,10.318931 c 1.1905426,0 1.7859103,-0.5959234 1.7859103,-0.9932794 0,-0.1980761 0.02019,-0.5623404 -0.5953034,-0.5953033 z"
     style="color:#444444;fill:#ffffff;stroke-width:0.340173"
     id="path347" />
</svg>
