<?xml version="1.0" encoding="UTF-8" standalone="no"?>
<!-- Created with Inkscape (http://www.inkscape.org/) -->

<svg
   width="48"
   height="48"
   viewBox="0 0 12.7 12.7"
   version="1.1"
   id="svg5"
   inkscape:version="1.2 (dc2aedaf03, 2022-05-15)"
   sodipodi:docname="application-x-hwp.svg"
   xmlns:inkscape="http://www.inkscape.org/namespaces/inkscape"
   xmlns:sodipodi="http://sodipodi.sourceforge.net/DTD/sodipodi-0.dtd"
   xmlns="http://www.w3.org/2000/svg"
   xmlns:svg="http://www.w3.org/2000/svg">
  <sodipodi:namedview
     id="namedview7"
     pagecolor="#ffffff"
     bordercolor="#666666"
     borderopacity="1.0"
     inkscape:pageshadow="2"
     inkscape:pageopacity="0.0"
     inkscape:pagecheckerboard="0"
     inkscape:document-units="px"
     showgrid="false"
     units="px"
     height="48px"
     inkscape:zoom="16.958333"
     inkscape:cx="24"
     inkscape:cy="24"
     inkscape:window-width="1846"
     inkscape:window-height="1011"
     inkscape:window-x="0"
     inkscape:window-y="0"
     inkscape:window-maximized="1"
     inkscape:current-layer="svg5"
     showguides="false"
     inkscape:showpageshadow="2"
     inkscape:deskcolor="#d1d1d1" />
  <defs
     id="defs2" />
  <path
     d="M 2.8045867,0.52916972 C 2.2779889,0.52784972 1.8507651,0.95507212 1.8520864,1.4816697 V 11.48292 c 0,0.527843 0.4249211,0.9525 0.9525003,0.9525 H 9.895685 c 0.527579,0 0.9525,-0.424657 0.9525,-0.9525 V 3.9687531 L 7.4083366,0.52916972 Z"
     style="fill:#245c63;stroke-width:0.264583;fill-opacity:1"
     id="path1062" />
  <path
     d="m 10.583337,3.9687531 v 7.1437499 c 0,0.439737 -0.354013,0.79375 -0.79375,0.79375 H 2.91042 c -0.4397375,0 -0.79375,-0.354013 -0.79375,-0.79375 V 1.5875031 c 0,-0.4397375 0.3540125,-0.79375008 0.79375,-0.79375008 h 4.4979166"
     style="fill:#48b9c7;stroke-width:0.264583;fill-opacity:1"
     id="path942" />
  <path
     d="M 10.583337,4.4979197 H 7.9375033 c -0.4397375,0 -0.79375,-0.3540125 -0.79375,-0.79375 V 0.79375302 H 7.4083366 L 10.583337,3.9687531 Z"
     style="opacity:0.5;fill:#245c63;fill-opacity:1;stroke-width:0.264583"
     id="path1182" />
  <path
     d="M 10.583337,3.9687531 H 8.2020866 c -0.4397375,0 -0.79375,-0.3540125 -0.79375,-0.79375 V 0.79375312"
     style="fill:#67d8e9;stroke-width:0.264583;fill-opacity:1"
     id="path1302" />
  <path
     id="rect1445"
     style="fill:#ffffff;stroke-width:0.529167;stroke-linejoin:round"
     d="M 6.0854167 5.0270833 L 6.0854167 5.55625 L 4.2333333 5.55625 L 4.2333333 6.0854167 L 8.4666667 6.0854167 L 8.4666667 5.55625 L 6.6145833 5.55625 L 6.6145833 5.0270833 L 6.0854167 5.0270833 z M 6.35 6.6145833 A 1.3229166 1.3229166 0 0 0 5.0270833 7.9375 A 1.3229166 1.3229166 0 0 0 6.35 9.2604167 A 1.3229166 1.3229166 0 0 0 7.6729167 7.9375 A 1.3229166 1.3229166 0 0 0 6.35 6.6145833 z M 6.35 7.14375 A 0.79374999 0.79374999 0 0 1 7.14375 7.9375 A 0.79374999 0.79374999 0 0 1 6.35 8.73125 A 0.79374999 0.79374999 0 0 1 5.55625 7.9375 A 0.79374999 0.79374999 0 0 1 6.35 7.14375 z M 6.0854167 9.7895833 L 6.0854167 10.31875 L 6.6145833 10.31875 L 6.6145833 9.7895833 L 6.0854167 9.7895833 z M 4.2333333 10.054167 L 4.2333333 11.377083 L 8.4666667 11.377083 L 8.4666667 10.847917 L 4.7625 10.847917 L 4.7625 10.054167 L 4.2333333 10.054167 z " />
</svg>
