<?xml version="1.0" encoding="UTF-8" standalone="no"?>
<!-- Created with Inkscape (http://www.inkscape.org/) -->

<svg
   width="48"
   height="48"
   viewBox="0 0 12.7 12.7"
   version="1.1"
   id="svg5"
   inkscape:version="1.2 (dc2aedaf03, 2022-05-15)"
   sodipodi:docname="application-x-mswinurl.svg"
   xmlns:inkscape="http://www.inkscape.org/namespaces/inkscape"
   xmlns:sodipodi="http://sodipodi.sourceforge.net/DTD/sodipodi-0.dtd"
   xmlns="http://www.w3.org/2000/svg"
   xmlns:svg="http://www.w3.org/2000/svg">
  <sodipodi:namedview
     id="namedview7"
     pagecolor="#ffffff"
     bordercolor="#666666"
     borderopacity="1.0"
     inkscape:pageshadow="2"
     inkscape:pageopacity="0.0"
     inkscape:pagecheckerboard="0"
     inkscape:document-units="px"
     showgrid="false"
     units="px"
     height="48px"
     inkscape:zoom="17.145833"
     inkscape:cx="24"
     inkscape:cy="28.665857"
     inkscape:window-width="1846"
     inkscape:window-height="1011"
     inkscape:window-x="0"
     inkscape:window-y="0"
     inkscape:window-maximized="1"
     inkscape:current-layer="svg5"
     showguides="false"
     inkscape:showpageshadow="2"
     inkscape:deskcolor="#d1d1d1" />
  <defs
     id="defs2" />
  <path
     d="M 2.8045867,0.52916972 C 2.2779889,0.52784972 1.8507651,0.95507212 1.8520864,1.4816697 V 11.48292 c 0,0.527843 0.4249211,0.9525 0.9525003,0.9525 H 9.895685 c 0.527579,0 0.9525,-0.424657 0.9525,-0.9525 V 3.9687531 L 7.4083366,0.52916972 Z"
     style="fill:#353e70;stroke-width:0.264583;fill-opacity:1"
     id="path1062" />
  <path
     d="m 10.583337,3.9687531 v 7.1437499 c 0,0.439737 -0.354013,0.79375 -0.79375,0.79375 H 2.91042 c -0.4397375,0 -0.79375,-0.354013 -0.79375,-0.79375 V 1.5875031 c 0,-0.4397375 0.3540125,-0.79375008 0.79375,-0.79375008 h 4.4979166"
     style="fill:#6a7ce0;stroke-width:0.264583;fill-opacity:1"
     id="path942" />
  <path
     d="m 6.3499999,6.35 c -1.1657541,0 -2.1166666,0.9509125 -2.1166666,2.1166667 0,1.1657536 0.9509125,2.1166663 2.1166666,2.1166663 1.1657542,0 2.1166667,-0.9509127 2.1166667,-2.1166663 C 8.4666666,7.3009125 7.5157541,6.35 6.3499999,6.35 Z m 0,0.5291667 c 0.5900209,0 1.1006667,0.3190875 1.3745104,0.79375 H 4.9754895 c 0.2826412,-0.491961 0.8071379,-0.794848 1.3745104,-0.79375 z M 4.8569562,7.9295625 c 0.012171,0.00397 0.024342,0.00794 0.037835,0.00794 h 2.9104166 c 0.013229,0 0.025665,-0.00397 0.037835,-0.00794 0.059796,0.1680104 0.094456,0.3481917 0.094456,0.5371042 0,0.1889125 -0.034396,0.3690937 -0.094456,0.5371041 -0.012092,-0.00466 -0.024871,-0.00733 -0.037835,-0.00794 H 4.8947916 c -0.012965,5.292e-4 -0.025717,0.00331 -0.037835,0.00794 -0.06217,-0.1722622 -0.094126,-0.3539675 -0.094457,-0.5371041 0,-0.1889125 0.034396,-0.3690938 0.094457,-0.5371042 z M 4.9754895,9.2604167 H 7.7245103 C 7.4509312,9.7350793 6.9400208,10.054166 6.3499999,10.054166 c -0.5900208,0 -1.1006666,-0.3190867 -1.3745104,-0.7937493 z"
     style="font-variant-ligatures:normal;font-variant-position:normal;font-variant-caps:normal;font-variant-numeric:normal;font-variant-alternates:normal;font-variant-east-asian:normal;font-feature-settings:normal;font-variation-settings:normal;text-indent:0;text-decoration-line:none;text-decoration-style:solid;text-decoration-color:#000000;text-transform:none;text-orientation:mixed;white-space:normal;shape-padding:0;shape-margin:0;inline-size:0;isolation:auto;mix-blend-mode:normal;fill:#ffffff;stroke-width:0.264583"
     id="path920" />
  <path
     d="m 6.2177083,6.6145834 c -0.0381,0 -0.071438,0.015875 -0.095515,0.041275 C 5.9010016,6.7378794 5.7152641,6.9344646 5.5790037,7.1876709 5.3980287,7.5236917 5.2916662,7.972425 5.2916662,8.4666667 c 0,0.4942417 0.1063625,0.9424458 0.2873375,1.2784666 0.136525,0.253206 0.3222625,0.4505847 0.5437187,0.5323417 0.023813,0.02514 0.05715,0.04128 0.094985,0.04128 h 0.2645833 c 0.036079,-5.1e-5 0.070541,-0.01498 0.09525,-0.04128 C 6.7987333,10.195455 6.9849999,9.9983393 7.1215249,9.7451333 7.3024999,9.4091125 7.4083332,8.9609084 7.4083332,8.4666667 7.4083332,7.972425 7.3024999,7.5236917 7.1215249,7.1876709 6.9852645,6.9344646 6.7992624,6.7378792 6.5778062,6.6558584 6.5530676,6.629453 6.518476,6.6144987 6.4822916,6.6145834 H 6.3499999 Z M 6.0854166,6.9783855 V 9.9544183 C 5.9875208,9.8816583 5.8935937,9.7718563 5.8115729,9.6194563 5.6573208,9.3331771 5.5562499,8.9222792 5.5562499,8.4666667 c 0,-0.4556125 0.1010709,-0.8670396 0.255323,-1.1535833 C 5.8935939,7.160948 5.9875208,7.0508813 6.0854166,6.9783855 Z m 0.5291667,0 c 0.097896,0.072496 0.1918229,0.1825625 0.2738437,0.3349625 0.1542521,0.2862791 0.2553229,0.6977062 0.2553229,1.1533187 0,0.4556125 -0.1010708,0.8665104 -0.2553229,1.1527896 -0.082021,0.1524 -0.1759479,0.262467 -0.2738437,0.334962 z"
     style="font-variant-ligatures:normal;font-variant-position:normal;font-variant-caps:normal;font-variant-numeric:normal;font-variant-alternates:normal;font-variant-east-asian:normal;font-feature-settings:normal;font-variation-settings:normal;text-indent:0;text-decoration-line:none;text-decoration-style:solid;text-decoration-color:#000000;text-transform:none;text-orientation:mixed;white-space:normal;shape-padding:0;shape-margin:0;inline-size:0;opacity:0.5;isolation:auto;mix-blend-mode:normal;fill:#ffffff;stroke-width:0.264583"
     id="path1040" />
  <path
     d="M 10.583337,4.4979197 H 7.9375033 c -0.4397375,0 -0.79375,-0.3540125 -0.79375,-0.79375 V 0.79375302 H 7.4083366 L 10.583337,3.9687531 Z"
     style="opacity:0.5;fill:#353e70;fill-opacity:1;stroke-width:0.264583"
     id="path1182" />
  <path
     d="M 10.583337,3.9687531 H 8.2020866 c -0.4397375,0 -0.79375,-0.3540125 -0.79375,-0.79375 V 0.79375312"
     style="fill:#b5bef0;stroke-width:0.264583;fill-opacity:1"
     id="path1302" />
</svg>
