<?xml version="1.0" encoding="UTF-8" standalone="no"?>
<!-- Created with Inkscape (http://www.inkscape.org/) -->

<svg
   width="48"
   height="48"
   viewBox="0 0 12.7 12.7"
   version="1.1"
   id="svg5"
   inkscape:version="1.2 (dc2aedaf03, 2022-05-15)"
   sodipodi:docname="font-x-generic.svg"
   xmlns:inkscape="http://www.inkscape.org/namespaces/inkscape"
   xmlns:sodipodi="http://sodipodi.sourceforge.net/DTD/sodipodi-0.dtd"
   xmlns="http://www.w3.org/2000/svg"
   xmlns:svg="http://www.w3.org/2000/svg">
  <sodipodi:namedview
     id="namedview7"
     pagecolor="#ffffff"
     bordercolor="#666666"
     borderopacity="1.0"
     inkscape:pageshadow="2"
     inkscape:pageopacity="0.0"
     inkscape:pagecheckerboard="0"
     inkscape:document-units="px"
     showgrid="false"
     units="px"
     height="48px"
     inkscape:zoom="11.814576"
     inkscape:cx="7.3637852"
     inkscape:cy="20.779417"
     inkscape:window-width="1920"
     inkscape:window-height="1014"
     inkscape:window-x="0"
     inkscape:window-y="0"
     inkscape:window-maximized="1"
     inkscape:current-layer="svg5"
     showguides="false"
     inkscape:showpageshadow="2"
     inkscape:deskcolor="#d1d1d1" />
  <defs
     id="defs2" />
  <path
     d="M 2.8045867,0.52916972 C 2.2779889,0.52784972 1.8507651,0.95507212 1.8520864,1.4816697 V 11.48292 c 0,0.527843 0.4249211,0.9525 0.9525003,0.9525 H 9.895685 c 0.527579,0 0.9525,-0.424657 0.9525,-0.9525 V 3.9687531 L 7.4083366,0.52916972 Z"
     style="fill:#6f6f6f;stroke-width:0.264583;fill-opacity:1"
     id="path1062" />
  <path
     d="m 10.583337,3.9687531 v 7.1437499 c 0,0.439737 -0.354013,0.79375 -0.79375,0.79375 H 2.91042 c -0.4397375,0 -0.79375,-0.354013 -0.79375,-0.79375 V 1.5875031 c 0,-0.4397375 0.3540125,-0.79375008 0.79375,-0.79375008 h 4.4979166"
     style="fill:#ececec;stroke-width:0.264583;fill-opacity:1"
     id="path942" />
  <path
     d="M 3.96875,9.7895833 H 4.4979166 L 6.6145832,4.497917 H 7.1437499 L 9.2604166,9.7895833 H 9.7895833 V 10.31875 H 7.9374999 V 9.7895833 H 8.4666666 L 8.0883124,8.73125 H 5.6779583 L 5.2916666,9.7895833 H 5.8208333 V 10.31875 H 3.96875 Z m 1.8520833,-1.5875 H 7.9374999 L 6.8812832,5.4445958 Z"
     id="path10053"
     style="fill:#000000;stroke-width:0.264583" />
  <path
     d="M 2.9104166,4.4979167 V 10.31875 h 0.79375 V 10.054167 H 3.175 V 4.7625 H 3.7041666 V 4.4979167 Z M 3.96875,10.583333 v 0.79375 h 5.8208333 v -0.79375 H 9.5249993 V 11.1125 h -5.291666 v -0.529167 z"
     style="color:#000000;opacity:0.25;fill:#000000;fill-opacity:1;stroke:none;stroke-width:0.264583;-inkscape-stroke:none"
     id="path10089" />
  <path
     d="M 10.583337,4.4979197 H 7.9375033 c -0.4397375,0 -0.79375,-0.3540125 -0.79375,-0.79375 V 0.79375302 H 7.4083366 L 10.583337,3.9687531 Z"
     style="opacity:0.5;fill:#6f6f6f;fill-opacity:1;stroke-width:0.264583"
     id="path1182" />
  <path
     d="M 10.583337,3.9687531 H 8.2020866 c -0.4397375,0 -0.79375,-0.3540125 -0.79375,-0.79375 V 0.79375312"
     style="fill:#fafafa;stroke-width:0.264583;fill-opacity:1"
     id="path1302" />
</svg>
