<?xml version="1.0" encoding="UTF-8" standalone="no"?>
<!-- Created with Inkscape (http://www.inkscape.org/) -->

<svg
   width="48"
   height="48"
   viewBox="0 0 12.7 12.7"
   version="1.1"
   id="svg5"
   inkscape:version="1.1.2 (0a00cf5339, 2022-02-04, custom)"
   sodipodi:docname="image-x-xcf.svg"
   xmlns:inkscape="http://www.inkscape.org/namespaces/inkscape"
   xmlns:sodipodi="http://sodipodi.sourceforge.net/DTD/sodipodi-0.dtd"
   xmlns="http://www.w3.org/2000/svg"
   xmlns:svg="http://www.w3.org/2000/svg">
  <sodipodi:namedview
     id="namedview7"
     pagecolor="#ffffff"
     bordercolor="#666666"
     borderopacity="1.0"
     inkscape:pageshadow="2"
     inkscape:pageopacity="0.0"
     inkscape:pagecheckerboard="0"
     inkscape:document-units="px"
     showgrid="false"
     units="px"
     height="48px"
     inkscape:zoom="11.814576"
     inkscape:cx="16.462715"
     inkscape:cy="19.55212"
     inkscape:window-width="1920"
     inkscape:window-height="1017"
     inkscape:window-x="0"
     inkscape:window-y="0"
     inkscape:window-maximized="1"
     inkscape:current-layer="svg5"
     showguides="true" />
  <defs
     id="defs2" />
  <rect
     style="opacity:1;fill:#245c63;fill-opacity:1;stroke-width:0.264583"
     id="rect1162"
     width="11.1125"
     height="8.4666662"
     x="0.79374999"
     y="2.9104166"
     ry="0.79374999" />
  <rect
     style="opacity:1;fill:#48b9c7;fill-opacity:1;stroke-width:0.264583"
     id="rect1237"
     width="10.583333"
     height="7.4083333"
     x="1.0583333"
     y="3.175"
     ry="0.66145831" />
  <rect
     style="opacity:1;fill:#f6f6f6;fill-opacity:1;stroke-width:0.383418"
     id="rect1437"
     width="8.7312498"
     height="5.8208332"
     x="1.8520833"
     y="3.96875"
     ry="0.52916664" />
  <path
     d="m 6.6645022,5.34035 c -0.2568231,0 -0.4866798,0.060547 -0.6898798,0.1819011 C 5.7742455,5.6407844 5.6159426,5.8158618 5.5002324,6.0472849 5.3873426,6.278708 5.331251,6.5541631 5.331251,6.8730733 c 0,0.3273796 0.054782,0.6080813 0.1648486,0.8423275 0.1128871,0.2314205 0.2698777,0.4064979 0.4702545,0.5250312 0.2003769,0.1185334 0.435999,0.1777683 0.7069323,0.1777683 0.1890898,0 0.3610266,-0.035383 0.5162497,-0.1059365 C 7.3475797,8.2417073 7.4815118,8.1515453 7.5915784,8.0414786 L 7.282553,7.6435691 c -0.1016,0.0762 -0.196215,0.1354349 -0.2837047,0.1777682 -0.087487,0.03951 -0.1847268,0.05891 -0.2919704,0.05891 -0.2032,0 -0.3628125,-0.081772 -0.4785228,-0.2454619 -0.1128897,-0.1665107 -0.168984,-0.4202223 -0.168984,-0.7617121 0,-0.3471333 0.056094,-0.6039829 0.168984,-0.7704957 0.1157103,-0.1665103 0.2726981,-0.2501133 0.4702546,-0.2501133 0.095954,0 0.1861185,0.017304 0.2707851,0.05116 0.084667,0.033867 0.1708918,0.084712 0.2583815,0.152445 L 7.5579869,5.662295 C 7.4309869,5.5550515 7.2952292,5.474589 7.1512959,5.4209659 7.010183,5.3673428 6.8479458,5.34035 6.6645022,5.34035 Z M 2.8543991,5.4121818 3.6124938,6.7883246 2.7913542,8.3463686 H 3.5277425 L 4.0228044,7.2286072 4.5266478,8.3463686 H 5.2847425 L 4.4377663,6.763004 5.2123948,5.4121818 H 4.4760065 L 4.0315885,6.3521749 3.6083584,5.4121818 Z m 5.0462047,0 V 8.3463686 H 8.5951351 V 7.1820987 H 9.4503795 V 6.6865209 H 8.5951351 v -0.778764 h 0.9818502 l 0.072348,-0.4955751 z"
     style="font-weight:bold;font-size:16px;line-height:1.25;font-family:'Fira Sans';letter-spacing:0;word-spacing:0;fill:#393634;fill-opacity:1;stroke-width:0.0497417;opacity:0.5"
     id="path31891" />
</svg>
