<?xml version="1.0" encoding="UTF-8" standalone="no"?>
<!-- Created with Inkscape (http://www.inkscape.org/) -->

<svg
   width="48"
   height="48"
   viewBox="0 0 12.7 12.7"
   version="1.1"
   id="svg5"
   inkscape:version="1.2 (dc2aedaf03, 2022-05-15)"
   sodipodi:docname="package-x-deb.svg"
   xmlns:inkscape="http://www.inkscape.org/namespaces/inkscape"
   xmlns:sodipodi="http://sodipodi.sourceforge.net/DTD/sodipodi-0.dtd"
   xmlns="http://www.w3.org/2000/svg"
   xmlns:svg="http://www.w3.org/2000/svg">
  <sodipodi:namedview
     id="namedview7"
     pagecolor="#ffffff"
     bordercolor="#666666"
     borderopacity="1.0"
     inkscape:pageshadow="2"
     inkscape:pageopacity="0.0"
     inkscape:pagecheckerboard="0"
     inkscape:document-units="px"
     showgrid="false"
     units="px"
     height="48px"
     inkscape:zoom="16.708333"
     inkscape:cx="24"
     inkscape:cy="24"
     inkscape:window-width="1920"
     inkscape:window-height="1009"
     inkscape:window-x="0"
     inkscape:window-y="0"
     inkscape:window-maximized="1"
     inkscape:current-layer="svg5"
     inkscape:showpageshadow="2"
     inkscape:deskcolor="#d1d1d1" />
  <defs
     id="defs2" />
  <rect
     style="opacity:1;fill:#c64278;fill-opacity:1;stroke-width:0.264583"
     id="rect1162"
     width="10.583333"
     height="10.31875"
     x="1.0583333"
     y="1.0583333"
     ry="0.79374999" />
  <path
     d="M 2.0174478,8.2020833 1.8520833,8.408789 3.6876301,9.8774357 1.8665533,10.969874 2.0029778,11.197252 3.9553144,10.025229 H 8.6454671 L 10.597803,11.197252 10.734228,10.969874 8.9131511,9.8774357 10.748698,8.408789 10.583333,8.2020833 8.6351321,9.7606457 H 3.965649 Z"
     style="color:#000000;opacity:0.25;fill:#000000;fill-opacity:1;stroke-width:0.264583;-inkscape-stroke:none"
     id="path1744" />
  <rect
     style="fill:#e68bb2;fill-opacity:1;stroke-width:0.264583"
     id="rect1149"
     width="10.054167"
     height="6.8791666"
     x="1.3229166"
     y="1.3229166"
     ry="0.66145831" />
  <path
     d="M 1.8520833,2.9104167 V 6.6145834 H 3.175 c 0.7328959,0 1.3229167,-0.5900208 1.3229167,-1.3229167 V 4.2333334 C 4.4979167,3.5004375 3.9078959,2.9104167 3.175,2.9104167 Z m 3.1750001,0 V 6.6145834 H 7.6729167 V 6.0854167 H 5.55625 V 5.0270834 h 1.5875 V 4.4979167 H 5.55625 V 3.4395834 H 7.6729167 V 2.9104167 Z m 3.1750002,0 v 3.7041667 h 1.5875 c 0.5845014,0 1.0583334,-0.4738158 1.0583334,-1.0583333 -1.22e-4,-0.4499505 -0.284718,-0.8506355 -0.709517,-0.998908 0.11711,-0.17399 0.179885,-0.3788833 0.18035,-0.5885921 0,-0.5845175 -0.4738314,-1.0583333 -1.0583334,-1.0583333 z M 2.38125,3.4395834 H 3.175 c 0.4397375,0 0.79375,0.3540125 0.79375,0.79375 v 1.0583333 c 0,0.4397375 -0.3540125,0.79375 -0.79375,0.79375 H 2.38125 Z m 6.3500001,0 h 0.5291665 c 0.2922485,0 0.529167,0.2369079 0.529167,0.5291666 0,0.2922588 -0.2369185,0.5291667 -0.529167,0.5291667 H 8.7312501 Z m 0,1.5875 h 1.0583335 c 0.2922484,0 0.5291664,0.2369079 0.5291664,0.5291667 0,0.2922587 -0.236918,0.5291666 -0.5291664,0.5291666 H 8.7312501 Z"
     id="path13123"
     style="stroke-width:0.264583;fill:#a21042;fill-opacity:1" />
</svg>
