<?xml version="1.0" encoding="UTF-8" standalone="no"?>
<!-- Created with Inkscape (http://www.inkscape.org/) -->

<svg
   width="48"
   height="48"
   viewBox="0 0 12.7 12.7"
   version="1.1"
   id="svg5"
   inkscape:version="1.2 (dc2aedaf03, 2022-05-15)"
   sodipodi:docname="package-x-rpm.svg"
   xmlns:inkscape="http://www.inkscape.org/namespaces/inkscape"
   xmlns:sodipodi="http://sodipodi.sourceforge.net/DTD/sodipodi-0.dtd"
   xmlns="http://www.w3.org/2000/svg"
   xmlns:svg="http://www.w3.org/2000/svg">
  <sodipodi:namedview
     id="namedview7"
     pagecolor="#ffffff"
     bordercolor="#666666"
     borderopacity="1.0"
     inkscape:pageshadow="2"
     inkscape:pageopacity="0.0"
     inkscape:pagecheckerboard="0"
     inkscape:document-units="px"
     showgrid="false"
     units="px"
     height="48px"
     inkscape:zoom="16.708333"
     inkscape:cx="24"
     inkscape:cy="24"
     inkscape:window-width="1920"
     inkscape:window-height="1009"
     inkscape:window-x="0"
     inkscape:window-y="0"
     inkscape:window-maximized="1"
     inkscape:current-layer="svg5"
     inkscape:showpageshadow="2"
     inkscape:deskcolor="#d1d1d1" />
  <defs
     id="defs2" />
  <rect
     style="opacity:1;fill:#a71d1d;fill-opacity:1;stroke-width:0.264583"
     id="rect1162"
     width="10.583333"
     height="10.31875"
     x="1.0583333"
     y="1.0583333"
     ry="0.79374999" />
  <path
     d="M 2.0174478,8.2020833 1.8520833,8.408789 3.6876301,9.8774357 1.8665533,10.969874 2.0029778,11.197252 3.9553144,10.025229 H 8.6454671 L 10.597803,11.197252 10.734228,10.969874 8.9131511,9.8774357 10.748698,8.408789 10.583333,8.2020833 8.6351321,9.7606457 H 3.965649 Z"
     style="color:#000000;opacity:0.25;fill:#000000;fill-opacity:1;stroke-width:0.264583;-inkscape-stroke:none"
     id="path1744" />
  <rect
     style="fill:#d67d7d;fill-opacity:1;stroke-width:0.264583"
     id="rect1149"
     width="10.054167"
     height="6.8791666"
     x="1.3229166"
     y="1.3229166"
     ry="0.66145831" />
  <path
     d="m 7.14375,4.2333333 c 0,-0.5845014 -0.473832,-1.0583334 -1.0583333,-1.0583334 H 5.0270834 v 3.175 H 5.55625 V 5.2916666 h 0.5291667 c 0.5845013,0 1.0583333,-0.473832 1.0583333,-1.0583333 z m -0.5291666,0 c 0,0.2922505 -0.2369162,0.5291666 -0.5291667,0.5291666 H 5.55625 V 3.7041666 h 0.5291667 c 0.2922505,0 0.5291667,0.2369161 0.5291667,0.5291667 z m 1.0583333,2.1166666 v -3.175 h 0.5291666 l 0.79375,2.1166667 0.79375,-2.1166667 H 10.31875 v 3.175 H 9.7895833 V 4.4979166 L 9.2604167,6.3499999 H 8.73125 L 8.2020833,4.4979166 v 1.8520833 z m -5.2916666,0 H 2.9104167 V 5.2916666 H 3.4395834 L 3.96875,6.3499999 H 4.4979167 L 4.0079084,5.1252437 C 4.3128433,4.931131 4.4976159,4.5948094 4.4979167,4.2333333 c 0,-0.5845014 -0.473832,-1.0583334 -1.0583333,-1.0583334 H 2.3812501 v 1.0583334 z m 0.5291666,-1.5875 V 3.7041666 h 0.5291667 c 0.2922505,0 0.5291666,0.2369161 0.5291666,0.5291667 0,0.2922505 -0.2369161,0.5291666 -0.5291666,0.5291666 z"
     id="path536"
     style="stroke-width:0.264583;fill:#a21010;fill-opacity:1" />
</svg>
