<?xml version="1.0" encoding="UTF-8" standalone="no"?>
<!-- Created with Inkscape (http://www.inkscape.org/) -->

<svg
   width="48"
   height="48"
   viewBox="0 0 12.7 12.7"
   version="1.1"
   id="svg5"
   inkscape:version="1.1.2 (0a00cf5339, 2022-02-04, custom)"
   sodipodi:docname="playlist.svg"
   xmlns:inkscape="http://www.inkscape.org/namespaces/inkscape"
   xmlns:sodipodi="http://sodipodi.sourceforge.net/DTD/sodipodi-0.dtd"
   xmlns="http://www.w3.org/2000/svg"
   xmlns:svg="http://www.w3.org/2000/svg">
  <sodipodi:namedview
     id="namedview7"
     pagecolor="#ffffff"
     bordercolor="#666666"
     borderopacity="1.0"
     inkscape:pageshadow="2"
     inkscape:pageopacity="0.0"
     inkscape:pagecheckerboard="0"
     inkscape:document-units="px"
     showgrid="false"
     units="px"
     height="48px"
     inkscape:zoom="11.814576"
     inkscape:cx="23.657218"
     inkscape:cy="20.652455"
     inkscape:window-width="1920"
     inkscape:window-height="1017"
     inkscape:window-x="0"
     inkscape:window-y="0"
     inkscape:window-maximized="1"
     inkscape:current-layer="svg5"
     showguides="false" />
  <defs
     id="defs2" />
  <path
     d="M 2.8045867,0.52916972 C 2.2779889,0.52784972 1.8507651,0.95507212 1.8520864,1.4816697 V 11.48292 c 0,0.527843 0.4249211,0.9525 0.9525003,0.9525 H 9.895685 c 0.527579,0 0.9525,-0.424657 0.9525,-0.9525 V 3.9687531 L 7.4083366,0.52916972 Z"
     style="fill:#6f6f6f;stroke-width:0.264583;fill-opacity:1"
     id="path1062" />
  <path
     d="m 10.583337,3.9687531 v 7.1437499 c 0,0.439737 -0.354013,0.79375 -0.79375,0.79375 H 2.91042 c -0.4397375,0 -0.79375,-0.354013 -0.79375,-0.79375 V 1.5875031 c 0,-0.4397375 0.3540125,-0.79375008 0.79375,-0.79375008 h 4.4979166"
     style="fill:#ececec;stroke-width:0.264583;fill-opacity:1"
     id="path942" />
  <path
     d="M 10.583337,4.4979197 H 7.9375033 c -0.4397375,0 -0.79375,-0.3540125 -0.79375,-0.79375 V 0.79375302 H 7.4083366 L 10.583337,3.9687531 Z"
     style="opacity:0.5;fill:#6f6f6f;fill-opacity:1;stroke-width:0.264583"
     id="path1182" />
  <path
     d="M 10.583337,3.9687531 H 8.2020866 c -0.4397375,0 -0.79375,-0.3540125 -0.79375,-0.79375 V 0.79375312"
     style="fill:#fafafa;stroke-width:0.264583;fill-opacity:1"
     id="path1302" />
  <path
     id="path1164"
     style="opacity:0.7;fill:#474341;fill-opacity:1;stroke-width:0.264583"
     d="m 4.7630167,1.5874999 a 0.396875,0.396875 0 0 0 -0.396875,0.396875 v 1.2278254 a 0.58049583,0.58049583 0 0 0 -0.1984375,-0.0372 0.59531249,0.59531249 0 1 0 0.5953125,0.5953125 V 2.3812499 h 1.190625 v 0.8309504 a 0.58049583,0.58049583 0 0 0 -0.1984375,-0.0372 0.59531249,0.59531249 0 1 0 0.5953125,0.5953125 V 1.9843749 A 0.396875,0.396875 0 0 0 5.9536417,1.5874999 Z M 3.4395833,6.3499998 v 0.79375 h 0.79375 v -0.79375 z m 1.5875,0 v 0.79375 h 4.3656249 v -0.79375 z m -1.5875,1.5875 v 0.7937501 h 0.79375 V 7.9374998 Z m 1.5875,0 V 8.7312499 H 9.3927082 V 7.9374998 Z m -1.5875,1.5874995 v 0.7937497 h 0.79375 V 9.5249993 Z m 1.5875,0 V 10.318749 H 9.3927082 V 9.5249993 Z" />
</svg>
