<?xml version="1.0" encoding="UTF-8" standalone="no"?>
<!-- Created with Inkscape (http://www.inkscape.org/) -->

<svg
   width="48"
   height="48"
   viewBox="0 0 12.7 12.7"
   version="1.1"
   id="svg5"
   inkscape:version="1.1.2 (0a00cf5339, 2022-02-04, custom)"
   sodipodi:docname="text-x-generic-template.svg"
   xmlns:inkscape="http://www.inkscape.org/namespaces/inkscape"
   xmlns:sodipodi="http://sodipodi.sourceforge.net/DTD/sodipodi-0.dtd"
   xmlns="http://www.w3.org/2000/svg"
   xmlns:svg="http://www.w3.org/2000/svg">
  <sodipodi:namedview
     id="namedview7"
     pagecolor="#ffffff"
     bordercolor="#666666"
     borderopacity="1.0"
     inkscape:pageshadow="2"
     inkscape:pageopacity="0.0"
     inkscape:pagecheckerboard="0"
     inkscape:document-units="px"
     showgrid="false"
     units="px"
     height="48px"
     inkscape:zoom="8.3541668"
     inkscape:cx="17.775561"
     inkscape:cy="24.418952"
     inkscape:window-width="1920"
     inkscape:window-height="1017"
     inkscape:window-x="0"
     inkscape:window-y="0"
     inkscape:window-maximized="1"
     inkscape:current-layer="svg5"
     showguides="false" />
  <defs
     id="defs2" />
  <path
     d="M 2.8045867,0.52916972 C 2.2779889,0.52784972 1.8507651,0.95507212 1.8520864,1.4816697 V 11.48292 c 0,0.527843 0.4249211,0.9525 0.9525003,0.9525 H 9.895685 c 0.527579,0 0.9525,-0.424657 0.9525,-0.9525 V 3.9687531 L 7.4083366,0.52916972 Z"
     style="fill:#6f6f6f;stroke-width:0.264583;fill-opacity:1"
     id="path1062" />
  <path
     d="m 10.583337,3.9687531 v 7.1437499 c 0,0.439737 -0.354013,0.79375 -0.79375,0.79375 H 2.91042 c -0.4397375,0 -0.79375,-0.354013 -0.79375,-0.79375 V 1.5875031 c 0,-0.4397375 0.3540125,-0.79375008 0.79375,-0.79375008 h 4.4979166"
     style="fill:#ececec;stroke-width:0.264583;fill-opacity:1"
     id="path942" />
  <path
     d="M 10.583337,4.4979197 H 7.9375033 c -0.4397375,0 -0.79375,-0.3540125 -0.79375,-0.79375 V 0.79375302 H 7.4083366 L 10.583337,3.9687531 Z"
     style="opacity:0.5;fill:#6f6f6f;fill-opacity:1;stroke-width:0.264583"
     id="path1182" />
  <path
     d="M 10.583337,3.9687531 H 8.2020866 c -0.4397375,0 -0.79375,-0.3540125 -0.79375,-0.79375 V 0.79375312"
     style="fill:#fafafa;stroke-width:0.264583;fill-opacity:1"
     id="path1302" />
  <path
     id="path859"
     style="fill:#9a9a9a;stroke-width:0.264583"
     d="m 6.3500001,5.2916666 a 1.5875,1.5875 0 0 0 -1.5875,1.5875 1.5875,1.5875 0 0 0 0.4676717,1.1198225 L 4.4586426,8.7705406 A 0.39694019,0.39694019 0 0 0 3.9082886,9.3208739 L 3.1750001,10.054166 v 0.79375 l 0.79375,-0.396875 0.559139,-0.5591437 A 3.1777781,3.1777781 0 0 0 6.9561645,10.412809 3.1765875,3.1765875 0 0 0 8.1705607,9.8903623 l 0.5606894,0.5606787 0.79375,0.396875 v -0.79375 L 8.7917113,9.3208739 A 3.1765875,3.1765875 0 0 0 9.3699706,8.2775424 0.396875,0.396875 0 0 0 8.9932495,7.7525033 H 8.9927203 A 0.396875,0.396875 0 0 0 8.6149654,8.0315593 C 8.5280784,8.2987885 8.3960741,8.5434487 8.2289426,8.7581316 L 7.469816,7.9989891 a 1.5875,1.5875 0 0 0 0.4676716,-1.1198225 1.5875,1.5875 0 0 0 -1.5874999,-1.5875 z m 0,0.79375 a 0.79374999,0.79374999 0 0 1 0.79375,0.79375 0.79374999,0.79374999 0 0 1 -0.2325442,0.5612077 L 6.3500001,6.8791666 5.788794,7.4403743 a 0.79374999,0.79374999 0 0 1 -0.2325439,-0.5612077 0.79374999,0.79374999 0 0 1 0.79375,-0.79375 z M 5.9970499,8.4227458 a 1.5875,1.5875 0 0 0 0.3529502,0.043921 1.5875,1.5875 0 0 0 0.3534667,-0.043392 L 7.6005696,9.3203712 C 7.3596146,9.4690935 7.0915102,9.5772553 6.8042357,9.6330023 6.2070598,9.7489433 5.6003707,9.6303563 5.0989136,9.3208739 Z" />
</svg>
