<?xml version="1.0" encoding="UTF-8" standalone="no"?>
<!-- Created with Inkscape (http://www.inkscape.org/) -->

<svg
   width="48"
   height="48"
   viewBox="0 0 12.7 12.7"
   version="1.1"
   id="svg5"
   inkscape:version="1.2 (dc2aedaf03, 2022-05-15)"
   sodipodi:docname="text-css.svg"
   xmlns:inkscape="http://www.inkscape.org/namespaces/inkscape"
   xmlns:sodipodi="http://sodipodi.sourceforge.net/DTD/sodipodi-0.dtd"
   xmlns="http://www.w3.org/2000/svg"
   xmlns:svg="http://www.w3.org/2000/svg">
  <sodipodi:namedview
     id="namedview7"
     pagecolor="#ffffff"
     bordercolor="#666666"
     borderopacity="1.0"
     inkscape:pageshadow="2"
     inkscape:pageopacity="0.0"
     inkscape:pagecheckerboard="0"
     inkscape:document-units="px"
     showgrid="false"
     units="px"
     height="48px"
     inkscape:zoom="16.958333"
     inkscape:cx="23.970516"
     inkscape:cy="24"
     inkscape:window-width="1920"
     inkscape:window-height="1011"
     inkscape:window-x="0"
     inkscape:window-y="0"
     inkscape:window-maximized="1"
     inkscape:current-layer="svg5"
     showguides="false"
     inkscape:showpageshadow="2"
     inkscape:deskcolor="#d1d1d1" />
  <defs
     id="defs2" />
  <path
     d="M 2.8045867,0.52916972 C 2.2779889,0.52784972 1.8507651,0.95507212 1.8520864,1.4816697 V 11.48292 c 0,0.527843 0.4249211,0.9525 0.9525003,0.9525 H 9.895685 c 0.527579,0 0.9525,-0.424657 0.9525,-0.9525 V 3.9687531 L 7.4083366,0.52916972 Z"
     style="fill:#6f6f6f;stroke-width:0.264583;fill-opacity:1"
     id="path1062" />
  <path
     d="m 10.583337,3.9687531 v 7.1437499 c 0,0.439737 -0.354013,0.79375 -0.79375,0.79375 H 2.91042 c -0.4397375,0 -0.79375,-0.354013 -0.79375,-0.79375 V 1.5875031 c 0,-0.4397375 0.3540125,-0.79375008 0.79375,-0.79375008 h 4.4979166"
     style="fill:#ececec;stroke-width:0.264583;fill-opacity:1"
     id="path942" />
  <path
     d="m 7.4284919,10.307902 -0.08613,-0.25408 C 7.4973937,10.002142 7.6086439,9.9117063 7.6761126,9.7825193 7.7435796,9.6547603 7.777313,9.4961423 7.777313,9.3066663 V 8.865235 c 0,-0.1535994 0.032299,-0.2878138 0.096896,-0.4026429 C 7.9388062,8.3477452 8.0385727,8.2594627 8.1735087,8.1977442 8.0385727,8.1388831 7.9388062,8.0520381 7.874209,7.9372089 7.8096118,7.8223621 7.7773133,7.6867102 7.7773133,7.5302533 V 7.0866794 c 0,-0.1894769 -0.033734,-0.348818 -0.1012005,-0.4780227 C 7.6086441,6.4780232 7.4973939,6.3875886 7.3423621,6.3373529 l 0.08613,-0.2519362 c 0.2784827,0.078952 0.47658,0.2045581 0.5942912,0.3768196 0.1191438,0.1708327 0.1787154,0.3789804 0.1787154,0.6244431 v 0.4435739 c 0,0.1622073 0.0366,0.287805 0.109815,0.3767931 0.07321,0.087577 0.186614,0.1313657 0.34021,0.1313657 v 0.316521 c -0.153596,0 -0.266999,0.045217 -0.34021,0.1356519 -0.07321,0.089006 -0.109815,0.2138891 -0.109815,0.37465 v 0.4414313 c 0,0.244016 -0.059572,0.452155 -0.1787154,0.624416 C 7.9050721,10.103344 7.7069748,10.22895 7.4284919,10.307902 Z m -2.0385352,0 C 5.1100362,10.22895 4.9105034,10.103344 4.7913581,9.9310823 4.6736484,9.7588213 4.6147938,9.5506823 4.6147938,9.3066663 V 8.865235 c 0,-0.1607609 -0.036605,-0.2856442 -0.1098154,-0.37465 C 4.43177,8.4001504 4.3190847,8.3549331 4.1669229,8.3549331 v -0.316521 c 0.1521618,0 0.2648471,-0.043789 0.3380554,-0.1313657 0.07321,-0.088988 0.1098154,-0.2145858 0.1098154,-0.3767931 V 7.0866794 c 0,-0.2454627 0.058855,-0.4536104 0.1765643,-0.6244431 0.1191454,-0.1722615 0.3186782,-0.297868 0.5985987,-0.3768196 l 0.086127,0.2519362 c -0.1579032,0.050236 -0.2705884,0.1406703 -0.3380553,0.2713038 -0.066033,0.1292047 -0.09905,0.2885458 -0.09905,0.4780227 v 0.4435739 c 0,0.1507244 -0.030145,0.2835011 -0.090434,0.3983302 -0.060291,0.1148469 -0.1514448,0.2045671 -0.2734601,0.2691607 0.1220152,0.06604 0.2131687,0.1571889 0.2734601,0.2734468 0.06029,0.1148469 0.090434,0.2461948 0.090434,0.394044 v 0.4414313 c 0,0.189476 0.033017,0.348094 0.09905,0.475853 0.067467,0.129187 0.1801521,0.2196217 0.3380554,0.2713027 z"
     id="path365"
     style="fill:#6f6f6f;fill-opacity:1;stroke-width:0.264583;opacity:0.7"
     sodipodi:nodetypes="cccsscccssccccssccccssccccssccccssccccsscccssccc" />
  <path
     d="M 10.583337,4.4979197 H 7.9375033 c -0.4397375,0 -0.79375,-0.3540125 -0.79375,-0.79375 V 0.79375302 H 7.4083366 L 10.583337,3.9687531 Z"
     style="opacity:0.5;fill:#6f6f6f;fill-opacity:1;stroke-width:0.264583"
     id="path1182" />
  <path
     d="M 10.583337,3.9687531 H 8.2020866 c -0.4397375,0 -0.79375,-0.3540125 -0.79375,-0.79375 V 0.79375312"
     style="fill:#fafafa;stroke-width:0.264583;fill-opacity:1"
     id="path1302" />
</svg>
