<?xml version="1.0" encoding="UTF-8" standalone="no"?>
<!-- Created with Inkscape (http://www.inkscape.org/) -->

<svg
   width="48"
   height="48"
   viewBox="0 0 12.7 12.7"
   version="1.1"
   id="svg5"
   inkscape:version="1.2 (dc2aedaf03, 2022-05-15)"
   sodipodi:docname="text-x-html.svg"
   xmlns:inkscape="http://www.inkscape.org/namespaces/inkscape"
   xmlns:sodipodi="http://sodipodi.sourceforge.net/DTD/sodipodi-0.dtd"
   xmlns="http://www.w3.org/2000/svg"
   xmlns:svg="http://www.w3.org/2000/svg">
  <sodipodi:namedview
     id="namedview7"
     pagecolor="#ffffff"
     bordercolor="#666666"
     borderopacity="1.0"
     inkscape:pageshadow="2"
     inkscape:pageopacity="0.0"
     inkscape:pagecheckerboard="0"
     inkscape:document-units="px"
     showgrid="false"
     units="px"
     height="48px"
     inkscape:zoom="16.708334"
     inkscape:cx="10.982543"
     inkscape:cy="35.551122"
     inkscape:window-width="1920"
     inkscape:window-height="1014"
     inkscape:window-x="0"
     inkscape:window-y="0"
     inkscape:window-maximized="1"
     inkscape:current-layer="svg5"
     showguides="false"
     inkscape:showpageshadow="2"
     inkscape:deskcolor="#d1d1d1" />
  <defs
     id="defs2" />
  <path
     d="M 2.8045867,0.52916972 C 2.2779889,0.52784972 1.8507651,0.95507212 1.8520864,1.4816697 V 11.48292 c 0,0.527843 0.4249211,0.9525 0.9525003,0.9525 H 9.895685 c 0.527579,0 0.9525,-0.424657 0.9525,-0.9525 V 3.9687531 L 7.4083366,0.52916972 Z"
     style="fill:#6f6f6f;stroke-width:0.264583;fill-opacity:1"
     id="path1062" />
  <path
     d="m 10.583337,3.9687531 v 7.1437499 c 0,0.439737 -0.354013,0.79375 -0.79375,0.79375 H 2.91042 c -0.4397375,0 -0.79375,-0.354013 -0.79375,-0.79375 V 1.5875031 c 0,-0.4397375 0.3540125,-0.79375008 0.79375,-0.79375008 h 4.4979166"
     style="fill:#ececec;stroke-width:0.264583;fill-opacity:1"
     id="path942" />
  <path
     d="m 4.0158458,5.55625 0.4246562,4.762764 1.9055291,0.529167 1.9105563,-0.529696 0.4251854,-4.7619705 z m 0.8683624,0.9736666 h 2.9257625 l -0.014023,0.1566333 -0.026458,0.2963334 -0.011642,0.1312333 h -2.2352 l 0.053181,0.5979583 h 2.1288378 l -0.014288,0.1568979 -0.1373187,1.5380229 -0.00873,0.09869 -1.1953874,0.3312584 -0.00265,7.937e-4 L 5.1495853,9.5054207 5.0675645,8.5883749 h 0.5865812 l 0.04154,0.4656667 0.6506104,0.1756833 h 5.288e-4 L 6.998229,9.053777 7.066227,8.2962749 H 5.0416353 L 4.8982312,6.6865499 4.8842082,6.529652 Z"
     style="fill:#e44d26;stroke-width:0.264583"
     id="path355" />
  <path
     d="m 4.0158458,5.55625 0.4246563,4.762764 1.9055291,0.529167 0.00265,-7.94e-4 V 9.8369437 L 6.3460312,9.8377374 5.1495853,9.5054208 5.0675645,8.5883749 h 0.5865812 l 0.04154,0.4656667 0.6506104,0.1759479 5.292e-4,-2.646e-4 0.00212,-5.291e-4 V 8.2962749 h -1.30731 L 4.8979665,6.68655 4.8839437,6.5299166 H 6.348677 V 5.55625 Z m 1.5065375,1.5578666 0.053446,0.5979583 H 6.3489416 V 7.1141166 h -0.00212 z"
     style="opacity:0.1;stroke-width:0.264583;fill:#000000"
     id="path558" />
  <path
     d="M 10.583337,4.4979197 H 7.9375033 c -0.4397375,0 -0.79375,-0.3540125 -0.79375,-0.79375 V 0.79375302 H 7.4083366 L 10.583337,3.9687531 Z"
     style="opacity:0.5;fill:#6f6f6f;fill-opacity:1;stroke-width:0.264583"
     id="path1182" />
  <path
     d="M 10.583337,3.9687531 H 8.2020866 c -0.4397375,0 -0.79375,-0.3540125 -0.79375,-0.79375 V 0.79375312"
     style="fill:#fafafa;stroke-width:0.264583;fill-opacity:1"
     id="path1302" />
</svg>
