<?xml version="1.0" encoding="UTF-8" standalone="no"?>
<!-- Created with Inkscape (http://www.inkscape.org/) -->

<svg
   width="48"
   height="48"
   viewBox="0 0 12.7 12.7"
   version="1.1"
   id="svg5"
   inkscape:version="1.2 (dc2aedaf03, 2022-05-15)"
   sodipodi:docname="text-x-rust.svg"
   xmlns:inkscape="http://www.inkscape.org/namespaces/inkscape"
   xmlns:sodipodi="http://sodipodi.sourceforge.net/DTD/sodipodi-0.dtd"
   xmlns="http://www.w3.org/2000/svg"
   xmlns:svg="http://www.w3.org/2000/svg">
  <sodipodi:namedview
     id="namedview7"
     pagecolor="#ffffff"
     bordercolor="#666666"
     borderopacity="1.0"
     inkscape:pageshadow="2"
     inkscape:pageopacity="0.0"
     inkscape:pagecheckerboard="0"
     inkscape:document-units="px"
     showgrid="false"
     units="px"
     height="48px"
     inkscape:zoom="11.814576"
     inkscape:cx="7.4061058"
     inkscape:cy="20.948699"
     inkscape:window-width="1846"
     inkscape:window-height="1011"
     inkscape:window-x="0"
     inkscape:window-y="0"
     inkscape:window-maximized="1"
     inkscape:current-layer="svg5"
     showguides="false"
     inkscape:showpageshadow="2"
     inkscape:deskcolor="#d1d1d1" />
  <defs
     id="defs2" />
  <path
     d="M 2.8045867,0.52916972 C 2.2779889,0.52784972 1.8507651,0.95507212 1.8520864,1.4816697 V 11.48292 c 0,0.527843 0.4249211,0.9525 0.9525003,0.9525 H 9.895685 c 0.527579,0 0.9525,-0.424657 0.9525,-0.9525 V 3.9687531 L 7.4083366,0.52916972 Z"
     style="fill:#6f6f6f;stroke-width:0.264583;fill-opacity:1"
     id="path1062" />
  <path
     d="m 10.583337,3.9687531 v 7.1437499 c 0,0.439737 -0.354013,0.79375 -0.79375,0.79375 H 2.91042 c -0.4397375,0 -0.79375,-0.354013 -0.79375,-0.79375 V 1.5875031 c 0,-0.4397375 0.3540125,-0.79375008 0.79375,-0.79375008 h 4.4979166"
     style="fill:#ececec;stroke-width:0.264583;fill-opacity:1"
     id="path942" />
  <path
     d="m 6.3496288,5.5562939 c -0.025723,-6.085e-4 -0.04994,0.012094 -0.064079,0.03359 L 6.1480906,5.812609 6.0829782,5.8193268 5.9046946,5.6276071 c -0.036248,-0.038894 -0.10912,-0.023651 -0.1276408,0.026355 L 5.6850698,5.897358 5.6220246,5.9159608 5.4101513,5.764032 C 5.3672888,5.7333404 5.2997621,5.7591372 5.2912954,5.8136414 L 5.2489208,6.070991 5.1905265,6.101997 4.9528148,5.9939933 c -0.048154,-0.022225 -0.1101204,0.019166 -0.1080037,0.072347 l 0.0093,0.2609659 -0.049609,0.041341 -0.2557983,-0.059945 c -0.051594,-0.011906 -0.1041548,0.04039 -0.091984,0.091984 l 0.059944,0.2557984 -0.041341,0.049609 -0.260966,-0.0093 c -0.052916,-0.00476 -0.094307,0.060883 -0.072347,0.1090372 L 4.2334758,7.00737 V 7.074033 L 4.2190058,7.100905 3.9616572,7.14328 c -0.052388,0.0082 -0.080818,0.077279 -0.050126,0.120406 l 0.1524455,0.2113566 -0.018603,0.063045 -0.2444295,0.09095 c -0.049477,0.018256 -0.063951,0.092427 -0.025321,0.1286743 l 0.1917197,0.1767334 -0.00775,0.065629 -0.221692,0.138493 c -0.044979,0.027781 -0.044979,0.1014098 0,0.129191 l 0.221692,0.1374593 0.00775,0.065629 -0.1917197,0.1777669 c -0.038629,0.035983 -0.024157,0.10912 0.025321,0.1276408 l 0.2444295,0.091467 0.018603,0.063045 -0.1524455,0.2118736 c -0.030956,0.043391 -0.00225,0.1119394 0.050126,0.1204061 l 0.2573486,0.041341 0.01447,0.027388 v 0.06718 l -0.091467,0.2015383 c -0.02196,0.04815 0.019696,0.110121 0.072347,0.108004 l 0.2609659,-0.0098 0.041341,0.05013 -0.059945,0.2552817 c -0.012171,0.05186 0.04039,0.104155 0.091984,0.09198 l 0.2557984,-0.05994 0.049609,0.04134 -0.0093,0.261482 c -0.00212,0.05292 0.05985,0.09327 0.1080037,0.07131 l 0.2377117,-0.106971 0.058394,0.02997 0.042375,0.257349 c 0.00847,0.05239 0.075993,0.08057 0.1188558,0.04961 l 0.2118733,-0.151929 0.063045,0.0186 0.091984,0.24443 c 0.018521,0.04948 0.090359,0.06448 0.1266074,0.02532 l 0.1788003,-0.19172 0.065629,0.0078 0.1374592,0.221175 c 0.027781,0.04498 0.1024435,0.04498 0.1302247,0 l 0.1364258,-0.221692 0.065629,-0.0072 0.1788004,0.19172 c 0.035983,0.03889 0.10912,0.02416 0.1276408,-0.02532 l 0.090951,-0.244429 0.063045,-0.0186 0.2118733,0.151929 c 0.042863,0.03069 0.1114227,0.0049 0.1198893,-0.04961 l 0.041341,-0.257348 0.058394,-0.02997 0.2377117,0.106971 c 0.048154,0.02223 0.1098558,-0.0176 0.1080038,-0.07131 l -0.00982,-0.261482 0.050126,-0.04134 0.2557983,0.05995 c 0.051594,0.01217 0.1038903,-0.04013 0.091984,-0.09198 l -0.060462,-0.2552817 0.041858,-0.05013 0.260966,0.0098 c 0.052916,0.0048 0.094572,-0.05985 0.072347,-0.108004 L 8.4502743,9.3627818 8.4812803,9.3043874 8.7386289,9.2630463 c 0.052388,-0.0082 0.08083,-0.077279 0.049609,-0.120406 L 8.6363095,8.9307667 8.6549124,8.8677215 8.8993418,8.7762543 c 0.049741,-0.018256 0.064215,-0.091393 0.025321,-0.1276409 L 8.7329427,8.4708465 8.7401765,8.4052174 8.9618684,8.2677582 c 0.044979,-0.028046 0.044979,-0.1014098 0,-0.129191 L 8.7401765,8.0000742 8.7329427,7.9344451 8.9246625,7.7577116 C 8.9635562,7.721464 8.9490835,7.6475582 8.8993418,7.6290373 L 8.6549124,7.5380868 8.6363095,7.4750416 8.7882383,7.2631683 C 8.8194593,7.2205703 8.7910183,7.1517457 8.7386293,7.143279 L 8.4812817,7.1009026 8.4502757,7.0435417 8.5582794,6.80583 C 8.5805044,6.7574112 8.539113,6.6946761 8.4859325,6.6967928 l -0.2609659,0.0093 -0.041858,-0.049609 0.060461,-0.2557984 c 0.011906,-0.051858 -0.04039,-0.1041548 -0.091984,-0.091984 l -0.2547649,0.059945 -0.05116,-0.041341 0.00982,-0.260966 c 0.00212,-0.052916 -0.05985,-0.094307 -0.1080037,-0.072347 L 7.5097645,6.101997 7.4513701,6.070991 7.4110627,5.8136425 C 7.4025961,5.7615196 7.33275,5.7330768 7.289623,5.7640331 L 7.0782664,5.9159619 7.0152212,5.897359 6.9242707,5.6539633 C 6.9057498,5.603957 6.8326132,5.5892435 6.7966299,5.6276081 L 6.6178295,5.8193278 6.5532338,5.8126101 6.4157746,5.5898846 c -0.014609,-0.021779 -0.03942,-0.034478 -0.065629,-0.033591 z m 5.167e-4,0.7214029 c 1.0628601,-6.41e-5 1.9244945,0.8615703 1.9244304,1.9244304 -0.00164,0.088625 -0.00942,0.1770298 -0.023254,0.2645833 H 7.8053538 c 0,0 0.1322911,0.5291667 -0.396875,0.5291667 -0.2495018,0 -0.5291667,-0.5291667 -0.5291667,-0.5291667 h 0.1322917 c 0.439737,0 0.79375,-0.354013 0.79375,-0.79375 0,-0.4397369 -0.354013,-0.7937499 -0.79375,-0.7937499 H 6.3501455 4.9615997 C 5.322883,6.4974965 5.8245743,6.2801653 6.3501455,6.2776968 Z M 4.6050324,7.4083772 h 0.1576131 v 1.5875 H 4.6050324 C 4.4893603,8.7471019 4.4282209,8.4764681 4.425715,8.2021272 4.428225,7.9277863 4.48936,7.6571525 4.6050324,7.4083772 Z m 0.9513631,0 h 1.190625 c 0.1465789,0 0.2645833,0.1180044 0.2645833,0.2645833 0,0.146579 -0.1180044,0.2645834 -0.2645833,0.2645834 h -1.190625 z m 0,1.0583333 h 0.2645833 c 0.5291662,0 0.5291672,1.0583338 1.0583333,1.0583338 H 7.7386912 C 7.377408,9.9067583 6.8757167,10.124089 6.3501455,10.126558 5.8245743,10.124089 5.322883,9.9067583 4.9615997,9.5250443 H 6.0855622 V 8.9958772 H 5.5563955 Z"
     id="path11496"
     style="fill:#1976d2;fill-opacity:1;stroke-width:0.264583" />
  <path
     d="M 10.583337,4.4979197 H 7.9375033 c -0.4397375,0 -0.79375,-0.3540125 -0.79375,-0.79375 V 0.79375302 H 7.4083366 L 10.583337,3.9687531 Z"
     style="opacity:0.5;fill:#6f6f6f;fill-opacity:1;stroke-width:0.264583"
     id="path1182" />
  <path
     d="M 10.583337,3.9687531 H 8.2020866 c -0.4397375,0 -0.79375,-0.3540125 -0.79375,-0.79375 V 0.79375312"
     style="fill:#fafafa;stroke-width:0.264583;fill-opacity:1"
     id="path1302" />
</svg>
