<?xml version="1.0" encoding="UTF-8" standalone="no"?>
<!-- Created with Inkscape (http://www.inkscape.org/) -->

<svg
   width="64"
   height="64"
   viewBox="0 0 16.933333 16.933333"
   version="1.1"
   id="svg5"
   inkscape:version="1.2 (dc2aedaf03, 2022-05-15)"
   sodipodi:docname="folder-green-pictures.svg"
   xmlns:inkscape="http://www.inkscape.org/namespaces/inkscape"
   xmlns:sodipodi="http://sodipodi.sourceforge.net/DTD/sodipodi-0.dtd"
   xmlns="http://www.w3.org/2000/svg"
   xmlns:svg="http://www.w3.org/2000/svg">
  <sodipodi:namedview
     id="namedview7"
     pagecolor="#ffffff"
     bordercolor="#666666"
     borderopacity="1.0"
     inkscape:pageshadow="2"
     inkscape:pageopacity="0.0"
     inkscape:pagecheckerboard="0"
     inkscape:document-units="px"
     showgrid="false"
     units="px"
     height="48px"
     inkscape:zoom="12.515625"
     inkscape:cx="32.0799"
     inkscape:cy="32.0799"
     inkscape:window-width="1846"
     inkscape:window-height="1011"
     inkscape:window-x="0"
     inkscape:window-y="0"
     inkscape:window-maximized="1"
     inkscape:current-layer="svg5"
     inkscape:showpageshadow="2"
     inkscape:deskcolor="#d1d1d1" />
  <defs
     id="defs2" />
  <path
     d="m 2.38125,1.3229167 h 4.7625 l 1.3229167,1.3229167 h 6.0854163 c 0.586316,0 1.058333,0.4720166 1.058333,1.0583333 V 14.552084 c 0,0.586316 -0.472017,1.058333 -1.058333,1.058333 H 2.38125 c -0.5863166,0 -1.0583333,-0.472017 -1.0583333,-1.058333 V 2.38125 c 0,-0.5863166 0.4720167,-1.0583333 1.0583333,-1.0583333 z"
     style="opacity:1;vector-effect:none;fill:#73c48f;fill-opacity:1;stroke:none;stroke-width:0.264583;stroke-linecap:round;stroke-linejoin:miter;stroke-miterlimit:4;stroke-dasharray:none;stroke-dashoffset:0;stroke-opacity:0.392157"
     id="path2724" />
  <path
     d="m 2.3812501,1.3229167 c -0.5863167,0 -1.0583333,0.4720167 -1.0583333,1.0583334 V 14.552083 c 0,0.586317 0.4720166,1.058334 1.0583333,1.058334 H 14.552083 c 0.586317,0 1.058334,-0.472017 1.058334,-1.058334 V 3.7041667 c 0,-0.5863166 -0.472017,-1.0583333 -1.058334,-1.0583333 H 8.4666667 L 7.14375,1.3229167 Z m 0,2.1166667 H 14.552083 c 0.439738,0 0.79375,0.3540125 0.79375,0.79375 v 9.7895836 c 0,0.439737 -0.354012,0.79375 -0.79375,0.79375 H 2.3812501 c -0.4397375,0 -0.79375,-0.354013 -0.79375,-0.79375 V 4.2333334 c 0,-0.4397375 0.3540125,-0.79375 0.79375,-0.79375 z"
     style="display:inline;vector-effect:none;fill:#000000;fill-opacity:0.25;stroke:none;stroke-width:0.264583;stroke-linecap:round;stroke-linejoin:miter;stroke-miterlimit:4;stroke-dasharray:none;stroke-dashoffset:0;stroke-opacity:0.392157;enable-background:new"
     id="path3134" />
  <path
     d="m 2.38125,3.1749999 c -0.5863167,0 -1.0583334,0.4720166 -1.0583334,1.0583333 V 14.552084 c 0,0.586317 0.4720167,1.058333 1.0583334,1.058333 h 12.170833 c 0.586317,0 1.058334,-0.472016 1.058334,-1.058333 V 4.2333332 c 0,-0.5863167 -0.472017,-1.0583333 -1.058334,-1.0583333 z m 0,0.2645833 h 12.170833 c 0.439738,0 0.79375,0.3540125 0.79375,0.79375 v 9.7895838 c 0,0.439738 -0.354012,0.79375 -0.79375,0.79375 H 2.38125 c -0.4397375,0 -0.79375,-0.354012 -0.79375,-0.79375 V 4.2333332 c 0,-0.4397375 0.3540125,-0.79375 0.79375,-0.79375 z"
     style="display:inline;vector-effect:none;fill:#000000;fill-opacity:0.25;stroke:none;stroke-width:0.529167;stroke-linecap:round;stroke-miterlimit:4;stroke-dasharray:none;stroke-opacity:1;enable-background:new"
     id="path2915" />
  <path
     d="M 7.9374996,6.0854165 6.8791663,7.1437498 h -1.5875 c -0.2931583,0 -0.5291666,0.2360083 -0.5291666,0.5291667 v 4.2333325 c 0,0.293159 0.2360083,0.529167 0.5291666,0.529167 h 6.3499997 c 0.293159,0 0.529167,-0.236008 0.529167,-0.529167 V 7.6729165 c 0,-0.2931584 -0.236008,-0.5291667 -0.529167,-0.5291667 h -1.5875 L 8.995833,6.0854165 Z M 8.466666,8.2020831 c 0.876755,0 1.5875,0.7107502 1.5875,1.5875 0,0.8767499 -0.710745,1.5874999 -1.5875,1.5874999 -0.8767495,0 -1.5874997,-0.71075 -1.5874997,-1.5874999 0,-0.8767498 0.7107502,-1.5875 1.5874997,-1.5875 z"
     style="display:inline;opacity:0.3;vector-effect:none;fill:#000000;fill-opacity:1;stroke:none;stroke-width:0.280016;stroke-linecap:square;stroke-opacity:1;enable-background:new"
     id="path993" />
  <path
     d="M 7.9374999,5.8208332 6.8791666,6.8791665 h -1.5875 c -0.2931584,0 -0.5291667,0.2360083 -0.5291667,0.5291667 v 4.2333338 c 0,0.293158 0.2360083,0.529166 0.5291667,0.529166 h 6.3499994 c 0.293159,0 0.529167,-0.236008 0.529167,-0.529166 V 7.4083332 c 0,-0.2931584 -0.236008,-0.5291667 -0.529167,-0.5291667 h -1.5875 L 8.9958332,5.8208332 Z m 0.5291666,2.1166666 c 0.8767551,0 1.5874995,0.7107502 1.5874995,1.5875 0,0.8767502 -0.7107444,1.5875002 -1.5874995,1.5875002 -0.8767497,0 -1.5874999,-0.71075 -1.5874999,-1.5875002 0,-0.8767498 0.7107502,-1.5875 1.5874999,-1.5875 z"
     style="display:inline;vector-effect:none;fill:#ffffff;fill-opacity:1;stroke:none;stroke-width:1.05833;stroke-linecap:square;stroke-opacity:1;enable-background:new"
     id="path14587"
     sodipodi:nodetypes="ccsssssssscccsssss" />
</svg>
