<?xml version="1.0" encoding="UTF-8" standalone="no"?>
<!-- Created with Inkscape (http://www.inkscape.org/) -->

<svg
   width="64"
   height="64"
   viewBox="0 0 16.933333 16.933333"
   version="1.1"
   id="svg5"
   inkscape:version="1.2 (dc2aedaf03, 2022-05-15)"
   sodipodi:docname="folder-orange-system.svg"
   xmlns:inkscape="http://www.inkscape.org/namespaces/inkscape"
   xmlns:sodipodi="http://sodipodi.sourceforge.net/DTD/sodipodi-0.dtd"
   xmlns="http://www.w3.org/2000/svg"
   xmlns:svg="http://www.w3.org/2000/svg">
  <sodipodi:namedview
     id="namedview7"
     pagecolor="#ffffff"
     bordercolor="#666666"
     borderopacity="1.0"
     inkscape:pageshadow="2"
     inkscape:pageopacity="0.0"
     inkscape:pagecheckerboard="0"
     inkscape:document-units="px"
     showgrid="false"
     units="px"
     height="48px"
     inkscape:zoom="12.859375"
     inkscape:cx="32"
     inkscape:cy="32"
     inkscape:window-width="1846"
     inkscape:window-height="1011"
     inkscape:window-x="0"
     inkscape:window-y="0"
     inkscape:window-maximized="1"
     inkscape:current-layer="svg5"
     inkscape:showpageshadow="2"
     inkscape:deskcolor="#d1d1d1" />
  <defs
     id="defs2" />
  <path
     d="m 2.38125,1.3229167 h 4.7625 l 1.3229167,1.3229167 h 6.0854163 c 0.586316,0 1.058333,0.4720166 1.058333,1.0583333 V 14.552084 c 0,0.586316 -0.472017,1.058333 -1.058333,1.058333 H 2.38125 c -0.5863166,0 -1.0583333,-0.472017 -1.0583333,-1.058333 V 2.38125 c 0,-0.5863166 0.4720167,-1.0583333 1.0583333,-1.0583333 z"
     style="opacity:1;vector-effect:none;fill:#faa41a;fill-opacity:1;stroke:none;stroke-width:0.264583;stroke-linecap:round;stroke-linejoin:miter;stroke-miterlimit:4;stroke-dasharray:none;stroke-dashoffset:0;stroke-opacity:0.392157"
     id="path2724" />
  <path
     d="m 2.3812501,1.3229167 c -0.5863167,0 -1.0583333,0.4720167 -1.0583333,1.0583334 V 14.552083 c 0,0.586317 0.4720166,1.058334 1.0583333,1.058334 H 14.552083 c 0.586317,0 1.058334,-0.472017 1.058334,-1.058334 V 3.7041667 c 0,-0.5863166 -0.472017,-1.0583333 -1.058334,-1.0583333 H 8.4666667 L 7.14375,1.3229167 Z m 0,2.1166667 H 14.552083 c 0.439738,0 0.79375,0.3540125 0.79375,0.79375 v 9.7895836 c 0,0.439737 -0.354012,0.79375 -0.79375,0.79375 H 2.3812501 c -0.4397375,0 -0.79375,-0.354013 -0.79375,-0.79375 V 4.2333334 c 0,-0.4397375 0.3540125,-0.79375 0.79375,-0.79375 z"
     style="display:inline;vector-effect:none;fill:#000000;fill-opacity:0.25;stroke:none;stroke-width:0.264583;stroke-linecap:round;stroke-linejoin:miter;stroke-miterlimit:4;stroke-dasharray:none;stroke-dashoffset:0;stroke-opacity:0.392157;enable-background:new"
     id="path3134" />
  <path
     d="m 2.38125,3.1749999 c -0.5863167,0 -1.0583334,0.4720166 -1.0583334,1.0583333 V 14.552084 c 0,0.586317 0.4720167,1.058333 1.0583334,1.058333 h 12.170833 c 0.586317,0 1.058334,-0.472016 1.058334,-1.058333 V 4.2333332 c 0,-0.5863167 -0.472017,-1.0583333 -1.058334,-1.0583333 z m 0,0.2645833 h 12.170833 c 0.439738,0 0.79375,0.3540125 0.79375,0.79375 v 9.7895838 c 0,0.439738 -0.354012,0.79375 -0.79375,0.79375 H 2.38125 c -0.4397375,0 -0.79375,-0.354012 -0.79375,-0.79375 V 4.2333332 c 0,-0.4397375 0.3540125,-0.79375 0.79375,-0.79375 z"
     style="display:inline;vector-effect:none;fill:#000000;fill-opacity:0.25;stroke:none;stroke-width:0.529167;stroke-linecap:round;stroke-miterlimit:4;stroke-dasharray:none;stroke-opacity:1;enable-background:new"
     id="path2915" />
  <path
     d="m 7.3702332,5.2916665 -0.093132,1.1154832 c -0.353644,0.130512 -0.6825308,0.320188 -0.972608,0.5609168 l -1.0128268,-0.47625 -1.0583332,1.8330332 0.92075,0.6392336 c -0.03312,0.185164 -0.05046,0.37282 -0.05186,0.5609165 2.264e-4,0.188724 0.01652,0.3770718 0.048684,0.5630332 l -0.917574,0.637116 1.0583332,1.833033 1.0107084,-0.47625 c 0.290552,0.240084 0.619796,0.429038 0.9736668,0.5588 l 0.094192,1.1176 h 2.1166661 l 0.093134,-1.115483 c 0.3536428,-0.130514 0.6825303,-0.320188 0.9726083,-0.560917 l 1.012825,0.47625 1.058332,-1.833033 -0.920749,-0.639232 C 11.73617,9.9007486 11.75351,9.7130966 11.75491,9.5249998 11.754683,9.3362759 11.73839,9.1479277 11.70623,8.9619665 l 0.917573,-0.6371168 -1.058332,-1.8330332 -1.010709,0.47625 C 10.264206,6.7279825 9.9349621,6.5390289 9.5810917,6.4092665 l -0.094192,-1.1176 z m 1.0583332,3.0236584 c 0.6680845,0 1.2096753,0.5415912 1.2096753,1.2096749 0,0.6680842 -0.5415908,1.2096742 -1.2096753,1.2096742 -0.6680844,0 -1.2096748,-0.54159 -1.2096748,-1.2096742 0,-0.6680837 0.5415904,-1.2096749 1.2096748,-1.2096749 z"
     style="opacity:0.3;fill:#000000;stroke-width:1.05833"
     id="path308" />
  <path
     d="m 7.3702332,5.0270832 -0.093132,1.1154832 c -0.353644,0.130512 -0.6825308,0.320188 -0.972608,0.5609168 L 5.2916664,6.2272332 4.2333332,8.0602664 5.1540832,8.6995 c -0.03312,0.185164 -0.05046,0.37282 -0.05186,0.5609165 2.264e-4,0.188724 0.01652,0.377072 0.048684,0.5630331 l -0.917574,0.6371164 1.0583332,1.833033 1.0107084,-0.47625 c 0.290552,0.240084 0.619796,0.429038 0.9736668,0.5588 l 0.094192,1.1176 h 2.1166661 l 0.093134,-1.115483 c 0.3536428,-0.130514 0.6825303,-0.320188 0.9726083,-0.560917 l 1.012825,0.47625 1.058332,-1.833033 L 11.70305,9.8213336 C 11.73617,9.6361653 11.75351,9.4485133 11.75491,9.2604165 11.754683,9.0716926 11.73839,8.8833444 11.706226,8.6973832 l 0.917573,-0.6371168 -1.058332,-1.8330332 -1.010709,0.47625 C 10.264206,6.4633992 9.9349621,6.2744456 9.5810917,6.1446832 l -0.094192,-1.1176 z m 1.0583332,3.0236584 c 0.6680845,0 1.2096753,0.5415912 1.2096753,1.2096749 0,0.6680831 -0.5415908,1.2096745 -1.2096753,1.2096745 -0.6680844,0 -1.2096748,-0.5415914 -1.2096748,-1.2096745 0,-0.6680837 0.5415904,-1.2096749 1.2096748,-1.2096749 z"
     style="fill:#fefeff;fill-opacity:1;stroke-width:1.05833"
     id="path892"
     sodipodi:nodetypes="cccccccccccccccccccccccccccsssss" />
</svg>
