<?xml version="1.0" encoding="UTF-8" standalone="no"?>
<!-- Created with Inkscape (http://www.inkscape.org/) -->

<svg
   width="32"
   height="32"
   viewBox="0 0 8.4666665 8.4666665"
   version="1.1"
   id="svg5"
   inkscape:version="1.2 (dc2aedaf03, 2022-05-15)"
   sodipodi:docname="emblem-system.svg"
   xmlns:inkscape="http://www.inkscape.org/namespaces/inkscape"
   xmlns:sodipodi="http://sodipodi.sourceforge.net/DTD/sodipodi-0.dtd"
   xmlns="http://www.w3.org/2000/svg"
   xmlns:svg="http://www.w3.org/2000/svg">
  <sodipodi:namedview
     id="namedview7"
     pagecolor="#ffffff"
     bordercolor="#666666"
     borderopacity="1.0"
     inkscape:pageshadow="2"
     inkscape:pageopacity="0.0"
     inkscape:pagecheckerboard="0"
     inkscape:document-units="px"
     showgrid="false"
     units="px"
     height="48px"
     inkscape:zoom="25.75"
     inkscape:cx="15.980583"
     inkscape:cy="16"
     inkscape:window-width="1920"
     inkscape:window-height="1014"
     inkscape:window-x="0"
     inkscape:window-y="0"
     inkscape:window-maximized="1"
     inkscape:current-layer="svg5"
     inkscape:showpageshadow="2"
     inkscape:deskcolor="#d1d1d1" />
  <defs
     id="defs2" />
  <path
     id="rect5567"
     style="opacity:1;fill:#574f4a;fill-opacity:1;stroke-width:0.264583"
     d="m 4.2333333,0.26458332 c 2.1986875,0 3.96875,1.77006248 3.96875,3.96874998 v 0.2645836 c 0,2.1986875 -1.7700625,3.96875 -3.96875,3.96875 -2.1986875,0 -3.96874998,-1.7700625 -3.96874998,-3.96875 V 4.2333333 c 0,-2.1986875 1.77006248,-3.96874998 3.96874998,-3.96874998 z"
     sodipodi:nodetypes="sssssss" />
  <path
     id="path1427"
     style="opacity:0.5;fill:#000000;fill-opacity:1;stroke-width:0.264583"
     d="M 16 1 C 7.6900002 1 1 7.6900002 1 16 L 1 17 C 1 25.31 7.6900002 32 16 32 C 24.31 32 31 25.31 31 17 L 31 16 C 31 7.6900002 24.31 1 16 1 z M 16 2 A 14 14 0 0 1 30 16 A 14 14 0 0 1 16 30 A 14 14 0 0 1 2 16 A 14 14 0 0 1 16 2 z "
     transform="scale(0.26458333)" />
  <path
     d="m 3.7703123,2.38125 -0.040746,0.4878916 c -0.154742,0.057306 -0.2986101,0.1405131 -0.42545,0.2460625 L 2.8606749,2.9061833 2.397654,3.7083999 l 0.4026959,0.2794 c -0.01434,0.081068 -0.021775,0.1632075 -0.022225,0.2455334 4.01e-5,0.082649 0.00712,0.1651447 0.021167,0.2465916 L 2.3979186,4.7582666 2.8609394,5.5604833 3.3030582,5.3519915 c 0.127276,0.1050898 0.2715031,0.187761 0.4265083,0.244475 l 0.040746,0.48895 H 4.696354 L 4.7371,5.5975248 C 4.8918421,5.5402188 5.0357101,5.4570118 5.16255,5.3514623 l 0.4434417,0.2090209 0.4630208,-0.8022166 -0.4026958,-0.2794 c 0.01434,-0.081068 0.021775,-0.1632074 0.022225,-0.2455333 -4.02e-5,-0.082649 -0.00712,-0.1651447 -0.021167,-0.2465917 L 6.0687477,3.7083999 5.6057269,2.9061833 5.1636082,3.114675 C 5.0363322,3.009585 4.8921052,2.9269139 4.7370998,2.8702 L 4.6963538,2.38125 Z m 0.4630209,1.3229166 c 0.2922505,0 0.5291666,0.2369161 0.5291666,0.5291667 0,0.2922505 -0.2369161,0.5291666 -0.5291666,0.5291666 -0.2922506,0 -0.5291667,-0.2369161 -0.5291667,-0.5291666 0,-0.2922506 0.2369161,-0.5291667 0.5291667,-0.5291667 z"
     style="fill:#ffffff;stroke-width:0.264583"
     id="path12168" />
</svg>
