<?xml version="1.0" encoding="UTF-8" standalone="no"?>
<!-- Created with Inkscape (http://www.inkscape.org/) -->

<svg
   width="32"
   height="32"
   viewBox="0 0 8.4666665 8.4666665"
   version="1.1"
   id="svg5"
   inkscape:version="1.2 (dc2aedaf03, 2022-05-15)"
   sodipodi:docname="emblem-synchronizing.svg"
   xmlns:inkscape="http://www.inkscape.org/namespaces/inkscape"
   xmlns:sodipodi="http://sodipodi.sourceforge.net/DTD/sodipodi-0.dtd"
   xmlns="http://www.w3.org/2000/svg"
   xmlns:svg="http://www.w3.org/2000/svg">
  <sodipodi:namedview
     id="namedview7"
     pagecolor="#ffffff"
     bordercolor="#666666"
     borderopacity="1.0"
     inkscape:pageshadow="2"
     inkscape:pageopacity="0.0"
     inkscape:pagecheckerboard="0"
     inkscape:document-units="px"
     showgrid="false"
     units="px"
     height="48px"
     inkscape:zoom="17.721864"
     inkscape:cx="6.1223808"
     inkscape:cy="18.338929"
     inkscape:window-width="1920"
     inkscape:window-height="1014"
     inkscape:window-x="0"
     inkscape:window-y="0"
     inkscape:window-maximized="1"
     inkscape:current-layer="svg5"
     inkscape:showpageshadow="2"
     inkscape:deskcolor="#d1d1d1" />
  <defs
     id="defs2" />
  <path
     id="rect5567"
     style="opacity:1;fill:#73c48f;fill-opacity:1;stroke-width:0.264583"
     d="m 4.2333333,0.26458332 c 2.1986875,0 3.96875,1.77006248 3.96875,3.96874998 v 0.2645836 c 0,2.1986875 -1.7700625,3.96875 -3.96875,3.96875 -2.1986875,0 -3.96874998,-1.7700625 -3.96874998,-3.96875 V 4.2333333 c 0,-2.1986875 1.77006248,-3.96874998 3.96874998,-3.96874998 z"
     sodipodi:nodetypes="sssssss" />
  <path
     id="path1427"
     style="opacity:0.5;fill:#000000;fill-opacity:1;stroke-width:0.264583"
     d="M 16 1 C 7.6900002 1 1 7.6900002 1 16 L 1 17 C 1 25.31 7.6900002 32 16 32 C 24.31 32 31 25.31 31 17 L 31 16 C 31 7.6900002 24.31 1 16 1 z M 16 2 A 14 14 0 0 1 30 16 A 14 14 0 0 1 16 30 A 14 14 0 0 1 2 16 A 14 14 0 0 1 16 2 z "
     transform="scale(0.26458333)" />
  <path
     d="M 6.3499999,4.2333332 H 5.8208333 C 5.8208833,3.5191867 5.3436832,2.8930645 4.6550791,2.703777 4.6466091,2.701127 4.6386751,2.697687 4.6302081,2.695577 4.5627391,2.678115 4.4942123,2.670706 4.4235685,2.662504 4.3619205,2.655094 4.2970977,2.645835 4.2333331,2.645835 4.0706561,2.6458655 3.9089537,2.670942 3.7539081,2.720183 v 0.00847 C 3.5330556,2.7965592 3.3298252,2.9121747 3.1585958,3.0673145 L 3.4726562,3.4893249 C 3.605477,3.353329 3.7790437,3.2652228 3.96875,3.2162749 v -0.00794 c 0.1005416,-0.023813 0.2090208,-0.032544 0.314325,-0.025135 0.04789,0.00344 0.09234,0.00767 0.1402291,0.016669 0.4942417,0.089429 0.8683625,0.5138208 0.8683625,1.0334625 H 4.7624999 l 0.79375,1.0583333 z M 5.3080708,5.3990873 4.9940104,4.9773415 C 4.8611895,5.1133373 4.6876229,5.2014436 4.4979166,5.2503915 v 0.00794 C 4.397375,5.2821415 4.2888958,5.2908725 4.1835916,5.2834645 4.1365636,5.2806545 4.0897396,5.2750845 4.0433625,5.2667955 3.5488562,5.1773665 3.175,4.7529749 3.175,4.2333332 h 0.5291666 l -0.79375,-1.0583333 -0.79375,1.0583333 h 0.5291667 c -5e-5,0.7141464 0.4771501,1.3402688 1.1657542,1.5295562 0.00847,0.00238 0.016404,0.00609 0.024871,0.0082 0.067469,0.017462 0.1359958,0.024871 0.2066396,0.033073 0.061648,0.00741 0.1264708,0.016669 0.1902354,0.016669 0.1626907,-1.162e-4 0.3243934,-0.025281 0.479425,-0.074613 v -0.00794 C 4.9336576,5.6702157 5.1368917,5.5544173 5.3080708,5.3990873 Z"
     style="fill:#474341;stroke-width:0.264583"
     id="path302" />
</svg>
