<?xml version="1.0" encoding="UTF-8" standalone="no"?>
<!-- Created with Inkscape (http://www.inkscape.org/) -->

<svg
   width="32"
   height="32"
   viewBox="0 0 8.4666665 8.4666665"
   version="1.1"
   id="svg5"
   inkscape:version="1.2 (dc2aedaf03, 2022-05-15)"
   sodipodi:docname="emblem-symbolic-link.svg"
   xmlns:inkscape="http://www.inkscape.org/namespaces/inkscape"
   xmlns:sodipodi="http://sodipodi.sourceforge.net/DTD/sodipodi-0.dtd"
   xmlns="http://www.w3.org/2000/svg"
   xmlns:svg="http://www.w3.org/2000/svg">
  <sodipodi:namedview
     id="namedview7"
     pagecolor="#ffffff"
     bordercolor="#666666"
     borderopacity="1.0"
     inkscape:pageshadow="2"
     inkscape:pageopacity="0.0"
     inkscape:pagecheckerboard="0"
     inkscape:document-units="px"
     showgrid="false"
     units="px"
     height="48px"
     inkscape:zoom="17.721864"
     inkscape:cx="6.0377396"
     inkscape:cy="18.367142"
     inkscape:window-width="1920"
     inkscape:window-height="1014"
     inkscape:window-x="0"
     inkscape:window-y="0"
     inkscape:window-maximized="1"
     inkscape:current-layer="svg5"
     inkscape:showpageshadow="2"
     inkscape:deskcolor="#d1d1d1" />
  <defs
     id="defs2" />
  <path
     id="rect5567"
     style="opacity:1;fill:#dedede;fill-opacity:1;stroke-width:0.264583"
     d="m 4.2333333,0.26458332 c 2.1986875,0 3.96875,1.77006248 3.96875,3.96874998 v 0.2645836 c 0,2.1986875 -1.7700625,3.96875 -3.96875,3.96875 -2.1986875,0 -3.96874998,-1.7700625 -3.96874998,-3.96875 V 4.2333333 c 0,-2.1986875 1.77006248,-3.96874998 3.96874998,-3.96874998 z"
     sodipodi:nodetypes="sssssss" />
  <path
     d="M 2.9104128,2.6460979 V 3.4398478 H 4.4658982 L 2.798494,5.107252 C 2.7037732,5.180277 2.6548253,5.3019853 2.6529732,5.4242228 h -0.00714 v 0.396875 h 0.396875 v -0.00397 C 3.1646773,5.8158061 3.2866503,5.7652707 3.3596753,5.6684332 L 5.0270794,4.0007645 v 1.5531042 l 0.79375,0.00238 V 2.6458333 H 2.9104128 Z"
     style="fill:#474341;stroke-width:0.264583"
     id="path1636" />
  <path
     id="path1427"
     style="opacity:0.5;fill:#000000;fill-opacity:1;stroke-width:0.264583"
     d="M 16 1 C 7.6900002 1 1 7.6900002 1 16 L 1 17 C 1 25.31 7.6900002 32 16 32 C 24.31 32 31 25.31 31 17 L 31 16 C 31 7.6900002 24.31 1 16 1 z M 16 2 A 14 14 0 0 1 30 16 A 14 14 0 0 1 16 30 A 14 14 0 0 1 2 16 A 14 14 0 0 1 16 2 z "
     transform="scale(0.26458333)" />
</svg>
