<?xml version="1.0" encoding="UTF-8" standalone="no"?>
<!-- Created with Inkscape (http://www.inkscape.org/) -->

<svg
   width="32"
   height="32"
   viewBox="0 0 8.4666665 8.4666665"
   version="1.1"
   id="svg5"
   inkscape:version="1.2 (dc2aedaf03, 2022-05-15)"
   sodipodi:docname="emblem-photos.svg"
   xmlns:inkscape="http://www.inkscape.org/namespaces/inkscape"
   xmlns:sodipodi="http://sodipodi.sourceforge.net/DTD/sodipodi-0.dtd"
   xmlns="http://www.w3.org/2000/svg"
   xmlns:svg="http://www.w3.org/2000/svg">
  <sodipodi:namedview
     id="namedview7"
     pagecolor="#ffffff"
     bordercolor="#666666"
     borderopacity="1.0"
     inkscape:pageshadow="2"
     inkscape:pageopacity="0.0"
     inkscape:pagecheckerboard="0"
     inkscape:document-units="px"
     showgrid="false"
     units="px"
     height="48px"
     inkscape:zoom="25.75"
     inkscape:cx="15.980583"
     inkscape:cy="16"
     inkscape:window-width="1920"
     inkscape:window-height="1014"
     inkscape:window-x="0"
     inkscape:window-y="0"
     inkscape:window-maximized="1"
     inkscape:current-layer="svg5"
     inkscape:showpageshadow="2"
     inkscape:deskcolor="#d1d1d1" />
  <defs
     id="defs2" />
  <path
     id="rect5567"
     style="opacity:1;fill:#48b9c7;fill-opacity:1;stroke-width:0.264583"
     d="m 4.2333333,0.26458332 c 2.1986875,0 3.96875,1.77006248 3.96875,3.96874998 v 0.2645836 c 0,2.1986875 -1.7700625,3.96875 -3.96875,3.96875 -2.1986875,0 -3.96874998,-1.7700625 -3.96874998,-3.96875 V 4.2333333 c 0,-2.1986875 1.77006248,-3.96874998 3.96874998,-3.96874998 z"
     sodipodi:nodetypes="sssssss" />
  <path
     id="path1427"
     style="opacity:0.5;fill:#000000;fill-opacity:1;stroke-width:0.264583"
     d="M 16 1 C 7.6900002 1 1 7.6900002 1 16 L 1 17 C 1 25.31 7.6900002 32 16 32 C 24.31 32 31 25.31 31 17 L 31 16 C 31 7.6900002 24.31 1 16 1 z M 16 2 A 14 14 0 0 1 30 16 A 14 14 0 0 1 16 30 A 14 14 0 0 1 2 16 A 14 14 0 0 1 16 2 z "
     transform="scale(0.26458333)" />
  <path
     d="m 3.1749999,3.4395833 v 1.0583333 l 0.396875,-0.396875 0.396875,0.396875 0.6614583,-0.6614583 0.6614584,0.6614583 V 3.4395833 Z"
     style="opacity:0.5;fill:#ffffff;stroke-width:0.264583"
     id="path18376" />
  <path
     d="M 4.2333332,3.9687499 5.2916665,5.0270832 H 3.1749999 Z"
     style="fill:#ffffff;stroke-width:0.264583"
     id="path19856" />
  <path
     d="m 3.1749999,2.6458333 c -0.4351602,0 -0.79375,0.3585898 -0.79375,0.79375 v 1.5875 c 0,0.4351602 0.3585898,0.7937499 0.79375,0.7937499 h 2.1166666 c 0.4351602,0 0.79375,-0.3585897 0.79375,-0.7937499 v -1.5875 c 0,-0.4351602 -0.3585898,-0.79375 -0.79375,-0.79375 z m 0,0.5291666 h 2.1166666 c 0.1511538,0 0.2645834,0.1134269 0.2645834,0.2645834 v 1.5875 c 0,0.1511564 -0.1134296,0.2645833 -0.2645834,0.2645833 H 3.1749999 c -0.1511565,0 -0.2645833,-0.1134269 -0.2645833,-0.2645833 v -1.5875 c 0,-0.1511565 0.1134268,-0.2645834 0.2645833,-0.2645834 z"
     style="color:#000000;fill:#ffffff;stroke:none;stroke-width:0.264583;stroke-linecap:round;-inkscape-stroke:none"
     id="path16896" />
</svg>
