<?xml version="1.0" encoding="UTF-8" standalone="no"?>
<!-- Created with Inkscape (http://www.inkscape.org/) -->

<svg
   width="64"
   height="64"
   viewBox="0 0 16.933333 16.933334"
   version="1.1"
   id="svg1099"
   inkscape:version="1.2 (dc2aedaf03, 2022-05-15)"
   sodipodi:docname="emblem-system.svg"
   xmlns:inkscape="http://www.inkscape.org/namespaces/inkscape"
   xmlns:sodipodi="http://sodipodi.sourceforge.net/DTD/sodipodi-0.dtd"
   xmlns="http://www.w3.org/2000/svg"
   xmlns:svg="http://www.w3.org/2000/svg">
  <sodipodi:namedview
     id="namedview1101"
     pagecolor="#ffffff"
     bordercolor="#666666"
     borderopacity="1.0"
     inkscape:pageshadow="2"
     inkscape:pageopacity="0.0"
     inkscape:pagecheckerboard="0"
     inkscape:document-units="px"
     showgrid="false"
     units="px"
     inkscape:zoom="6.265625"
     inkscape:cx="-0.39900249"
     inkscape:cy="35.830424"
     inkscape:window-width="1846"
     inkscape:window-height="1016"
     inkscape:window-x="0"
     inkscape:window-y="0"
     inkscape:window-maximized="1"
     inkscape:current-layer="svg1099"
     inkscape:showpageshadow="2"
     inkscape:deskcolor="#d1d1d1" />
  <defs
     id="defs1096" />
  <rect
     style="opacity:1;fill:#574f4a;stroke-width:0.264583;fill-opacity:1"
     id="rect1196"
     width="15.875"
     height="16.404167"
     x="0.5291667"
     y="0.5291667"
     ry="7.9375" />
  <path
     d="M 7.5406252,5.0270834 7.4588689,6.0028668 C 7.1495895,6.1174517 6.8620372,6.2837739 6.6084981,6.4947272 L 5.7216147,6.0772147 4.795573,7.6811189 5.6007001,8.2404481 c -0.028666,0.1620499 -0.043536,0.3262389 -0.04445,0.4908021 9.53e-5,0.1652101 0.014258,0.3301119 0.042333,0.4929188 L 4.795573,9.7813815 5.7216147,11.385285 6.6063814,10.968831 c 0.2543921,0.210128 0.5426634,0.375468 0.8524875,0.48895 l 0.081756,0.977636 h 1.8520837 l 0.081756,-0.975519 C 9.7837623,11.345232 10.071316,11.17882 10.324836,10.967773 l 0.886883,0.417512 0.926042,-1.6039035 -0.805127,-0.5593292 c 0.02867,-0.1620499 0.04354,-0.3262389 0.04445,-0.4908021 -9.5e-5,-0.1652101 -0.01426,-0.3301119 -0.04233,-0.4929188 L 12.137761,7.6811189 11.211719,6.0772147 10.326953,6.4936689 C 10.07256,6.2835408 9.784289,6.1182008 9.4744648,6.0047189 L 9.3927086,5.0270834 Z m 0.9260417,2.6458334 c 0.5845014,0 1.0583333,0.473832 1.0583333,1.0583334 0,0.5845014 -0.4738319,1.0583334 -1.0583333,1.0583334 -0.5845014,0 -1.0583334,-0.473832 -1.0583334,-1.0583334 0,-0.5845014 0.473832,-1.0583334 1.0583334,-1.0583334 z"
     style="fill:#ffffff;stroke-width:0.264583"
     id="path332" />
  <path
     id="rect15068"
     style="opacity:0.5;fill:#000000;stroke-width:0.264583"
     d="M 8.4666667 0.52916667 C 4.0692961 0.52916667 0.52916667 4.0692961 0.52916667 8.4666667 L 0.52916667 8.9958334 C 0.52916667 13.393204 4.0692961 16.933333 8.4666667 16.933333 C 12.864037 16.933333 16.404167 13.393204 16.404167 8.9958334 L 16.404167 8.4666667 C 16.404167 4.0692961 12.864037 0.52916667 8.4666667 0.52916667 z M 8.4666667 0.79375001 A 7.6729169 7.6729169 0 0 1 16.139583 8.4666667 A 7.6729169 7.6729169 0 0 1 8.4666667 16.139583 A 7.6729169 7.6729169 0 0 1 0.79375001 8.4666667 A 7.6729169 7.6729169 0 0 1 8.4666667 0.79375001 z " />
</svg>
