<?xml version="1.0" encoding="UTF-8" standalone="no"?>
<!-- Created with Inkscape (http://www.inkscape.org/) -->

<svg
   width="16"
   height="16"
   viewBox="0 0 4.2333333 4.2333335"
   version="1.1"
   id="svg5"
   inkscape:version="1.2 (dc2aedaf03, 2022-05-15)"
   sodipodi:docname="application-x-gzip.svg"
   xmlns:inkscape="http://www.inkscape.org/namespaces/inkscape"
   xmlns:sodipodi="http://sodipodi.sourceforge.net/DTD/sodipodi-0.dtd"
   xmlns="http://www.w3.org/2000/svg"
   xmlns:svg="http://www.w3.org/2000/svg">
  <sodipodi:namedview
     id="namedview7"
     pagecolor="#ffffff"
     bordercolor="#666666"
     borderopacity="1.0"
     inkscape:pageshadow="2"
     inkscape:pageopacity="0.0"
     inkscape:pagecheckerboard="0"
     inkscape:document-units="px"
     showgrid="false"
     units="px"
     width="24px"
     inkscape:zoom="17.699767"
     inkscape:cx="2.8248959"
     inkscape:cy="9.4916504"
     inkscape:window-width="1920"
     inkscape:window-height="1009"
     inkscape:window-x="0"
     inkscape:window-y="0"
     inkscape:window-maximized="1"
     inkscape:current-layer="svg5"
     inkscape:showpageshadow="2"
     inkscape:deskcolor="#d1d1d1" />
  <defs
     id="defs2" />
  <rect
     style="fill:#a19282;fill-opacity:1;stroke-width:0.264583"
     id="rect1052"
     width="3.96875"
     height="3.7041667"
     x="0.26458335"
     y="0.26458335"
     ry="0.26458335" />
  <rect
     style="opacity:1;fill:#d7c3ad;fill-opacity:1;stroke-width:0.264583"
     id="rect1190"
     width="3.4395833"
     height="2.6458335"
     x="0.5291667"
     y="0.5291667"
     ry="0.13229167" />
  <path
     d="m 1.0583333,2.1166667 c 0,0.2931584 0.2360083,0.5291667 0.5291667,0.5291667 0.2931583,0 0.5291667,-0.2360083 0.5291667,-0.5291667 V 1.8520834 H 1.5875 v 0.2645833 h 0.2645833 c 0,0.1465792 -0.1180041,0.2645834 -0.2645833,0.2645834 -0.1465792,0 -0.2645834,-0.1180042 -0.2645834,-0.2645834 V 1.5875 c 0,-0.1465791 0.1180042,-0.2645833 0.2645834,-0.2645833 0.1465792,0 0.2645833,0.1180042 0.2645833,0.2645833 h 0.2645834 c 0,-0.2931583 -0.2360084,-0.5291666 -0.5291667,-0.5291666 -0.2931584,0 -0.5291667,0.2360083 -0.5291667,0.5291666 z M 2.38125,1.3229167 H 3.175 L 2.38125,2.3812501 V 2.6458334 H 3.4395834 V 2.3812501 H 2.6458333 L 3.4395834,1.3229167 V 1.0583334 H 2.38125 Z"
     style="fill:#635749;stroke-width:0.264583"
     id="path477" />
</svg>
