<?xml version="1.0" encoding="UTF-8" standalone="no"?>
<!-- Created with Inkscape (http://www.inkscape.org/) -->

<svg
   width="16"
   height="16"
   viewBox="0 0 4.2333333 4.2333335"
   version="1.1"
   id="svg5"
   inkscape:version="1.2 (dc2aedaf03, 2022-05-15)"
   sodipodi:docname="application-x-javascript.svg"
   xmlns:inkscape="http://www.inkscape.org/namespaces/inkscape"
   xmlns:sodipodi="http://sodipodi.sourceforge.net/DTD/sodipodi-0.dtd"
   xmlns="http://www.w3.org/2000/svg"
   xmlns:svg="http://www.w3.org/2000/svg">
  <sodipodi:namedview
     id="namedview7"
     pagecolor="#ffffff"
     bordercolor="#666666"
     borderopacity="1.0"
     inkscape:pageshadow="2"
     inkscape:pageopacity="0.0"
     inkscape:pagecheckerboard="0"
     inkscape:document-units="px"
     showgrid="false"
     units="px"
     width="24px"
     inkscape:zoom="35.399533"
     inkscape:cx="0.31073856"
     inkscape:cy="9.23741"
     inkscape:window-width="1920"
     inkscape:window-height="1014"
     inkscape:window-x="0"
     inkscape:window-y="0"
     inkscape:window-maximized="1"
     inkscape:current-layer="svg5"
     inkscape:showpageshadow="2"
     inkscape:deskcolor="#d1d1d1" />
  <defs
     id="defs2" />
  <rect
     style="fill:#7b6f0f;fill-opacity:1;stroke-width:0.264583"
     id="rect1052"
     width="4.2333336"
     height="4.2333336"
     x="0"
     y="0"
     ry="0.5291667" />
  <rect
     style="opacity:1;fill:#f7df1e;fill-opacity:1;stroke-width:0.264583"
     id="rect1190"
     width="3.7041667"
     height="3.7041667"
     x="0.26458335"
     y="0.26458335"
     ry="0.39687499" />
  <path
     d="m 1.8808807,3.7590942 c -0.034451,0 -0.065672,-0.00265 -0.093664,-0.00794 -0.027992,-0.00441 -0.057059,-0.011377 -0.087204,-0.020902 l 0.020995,-0.2422236 c 0.015073,0.00547 0.040372,0.010319 0.0759,0.014552 0.036604,0.00423 0.064595,0.00635 0.083974,0.00635 0.063519,0 0.1135804,-0.027993 0.1501847,-0.083979 0.037681,-0.054892 0.056521,-0.1307832 0.056521,-0.2276736 V 1.5565438 L 1.8243607,1.5113265 V 1.3062215 H 2.4057204 V 3.197278 c 0,0.1797756 -0.046294,0.3181173 -0.1388803,0.4150254 C 2.1742531,3.7102704 2.0456003,3.759253 1.8808818,3.759253 Z M 2.0714376,0.87489773 V 0.5341673 H 2.4057193 V 0.87489773 Z M 1.9023006,3.6411959 C 1.6923648,3.5819822 1.5427185,3.4877818 1.4533613,3.3585944 1.3650808,3.2294071 1.3209405,3.073303 1.3209405,2.8902819 V 2.5592352 c 0,-0.1205794 -0.027453,-0.2142419 -0.082359,-0.2809874 C 1.1836749,2.2104086 1.0991625,2.176489 0.98504377,2.176489 V 1.9391048 c 0.11411873,0 0.19863113,-0.032835 0.25353753,-0.098504 0.054906,-0.066746 0.082359,-0.160946 0.082359,-0.2826014 v -0.332661 c 0,-0.1840971 0.04414,-0.34021011 0.1324208,-0.46833901 C 1.5427181,0.62781215 1.6923646,0.53361168 1.9023004,0.47439792 L 1.966896,0.66333689 C 1.8484709,0.7010312 1.7639584,0.76886153 1.7133585,0.86682793 1.6638353,0.96371835 1.6390737,1.0832218 1.6390737,1.2253384 V 1.557999 c 0,0.1130476 -0.022608,0.212628 -0.067825,0.298741 -0.045217,0.086131 -0.1135805,0.1534231 -0.2050907,0.2018771 0.09151,0.049512 0.1598737,0.1178719 0.2050907,0.2050786 0.045217,0.086131 0.067825,0.1846438 0.067825,0.2955395 v 0.3310467 c 0,0.142099 0.024762,0.2610644 0.074285,0.3568965 0.0506,0.09689 0.1351124,0.1647119 0.2535375,0.2034646 z m 0.6192644,0 L 2.45697,3.450643 C 2.5732417,3.41189 2.6566778,3.3440688 2.7072778,3.2471784 c 0.0506,-0.095832 0.0759,-0.2147975 0.0759,-0.3568965 V 2.5592352 c 0,-0.1151996 0.024223,-0.2158646 0.07267,-0.3019954 C 2.9042936,2.1711091 2.9791169,2.1049016 3.0803166,2.0586171 2.9791169,2.014467 2.9042936,1.9493266 2.855847,1.8631959 2.8074005,1.7770828 2.7831771,1.6753505 2.7831771,1.557999 V 1.2253384 c 0,-0.1421166 -0.0253,-0.26162005 -0.0759,-0.35851047 C 2.6566771,0.76886153 2.573241,0.7010312 2.4569693,0.66333689 l 0.064595,-0.18893897 c 0.2088589,0.0592138 0.3574288,0.15341423 0.4457094,0.28260147 0.089357,0.1281289 0.1340356,0.28424191 0.1340356,0.46833901 V 1.557999 c 0,0.1216554 0.027453,0.2158559 0.082359,0.2826014 0.054906,0.06567 0.1399569,0.098504 0.2551522,0.098504 v 0.2373842 c -0.1151953,0 -0.2002461,0.03392 -0.2551522,0.1017588 -0.054906,0.066746 -0.082359,0.160408 -0.082359,0.2809874 v 0.3310467 c 0,0.1830211 -0.044679,0.3391252 -0.1340356,0.4683125 C 2.8789927,3.4877814 2.7304232,3.5819818 2.521565,3.6411959 Z"
     style="letter-spacing:-0.85;fill:#030300;fill-opacity:1;stroke-width:0.264583"
     id="path970" />
</svg>
