<?xml version="1.0" encoding="UTF-8" standalone="no"?>
<!-- Created with Inkscape (http://www.inkscape.org/) -->

<svg
   width="16"
   height="16"
   viewBox="0 0 4.2333333 4.2333335"
   version="1.1"
   id="svg5"
   inkscape:version="1.2.1 (9c6d41e410, 2022-07-14, custom)"
   sodipodi:docname="application-x-alpm-package.svg"
   xmlns:inkscape="http://www.inkscape.org/namespaces/inkscape"
   xmlns:sodipodi="http://sodipodi.sourceforge.net/DTD/sodipodi-0.dtd"
   xmlns="http://www.w3.org/2000/svg"
   xmlns:svg="http://www.w3.org/2000/svg">
  <sodipodi:namedview
     id="namedview7"
     pagecolor="#ffffff"
     bordercolor="#666666"
     borderopacity="1.0"
     inkscape:pageshadow="2"
     inkscape:pageopacity="0.0"
     inkscape:pagecheckerboard="0"
     inkscape:document-units="px"
     showgrid="false"
     units="px"
     width="24px"
     inkscape:zoom="50.125"
     inkscape:cx="8"
     inkscape:cy="8"
     inkscape:window-width="1920"
     inkscape:window-height="1011"
     inkscape:window-x="0"
     inkscape:window-y="0"
     inkscape:window-maximized="1"
     inkscape:current-layer="svg5"
     inkscape:showpageshadow="2"
     inkscape:deskcolor="#d1d1d1" />
  <defs
     id="defs2" />
  <rect
     style="fill:#2176a0;fill-opacity:1;stroke-width:0.264583"
     id="rect1052"
     width="3.96875"
     height="3.7041667"
     x="0.26458335"
     y="0.26458335"
     ry="0.26458335" />
  <rect
     style="opacity:1;fill:#82c4e5;fill-opacity:1;stroke-width:0.264583"
     id="rect1190"
     width="3.4395833"
     height="2.6458335"
     x="0.5291667"
     y="0.5291667"
     ry="0.13229167" />
  <path
     id="path358"
     style="opacity:1;fill:#1a5b7c;fill-opacity:1;stroke-width:0.264583"
     d="M 0.79375001 1.3229167 L 0.79375001 1.5875 L 1.3229167 1.5875 L 0.79375001 2.38125 L 0.79375001 2.6458334 L 1.5875 2.6458334 L 1.5875 2.38125 L 1.0583333 2.38125 L 1.5875 1.5875 L 1.5875 1.3229167 L 0.79375001 1.3229167 z M 2.2386231 1.3229167 C 2.0241701 1.3283467 1.8520834 1.5040293 1.8520834 1.7197917 C 1.8520834 1.9389788 2.0297712 2.1166667 2.2489584 2.1166667 C 2.3220213 2.1166667 2.38125 2.1758957 2.38125 2.2489584 C 2.38125 2.3220213 2.322021 2.38125 2.2489584 2.38125 L 1.8520834 2.38125 L 1.8520834 2.6458334 L 2.2489584 2.6458334 C 2.4681455 2.6458334 2.6458334 2.4681452 2.6458334 2.2489584 C 2.6458334 2.0297712 2.4681455 1.8520834 2.2489584 1.8520834 C 2.1758964 1.8520834 2.1166667 1.7928543 2.1166667 1.7197917 C 2.1166667 1.6467288 2.1758957 1.5875 2.2489584 1.5875 L 2.6458334 1.5875 L 2.6458334 1.3229167 L 2.2489584 1.3229167 C 2.2455384 1.3229167 2.2420284 1.3228304 2.2386231 1.3229167 z M 2.9104167 1.3229167 L 2.9104167 1.5875 L 3.175 1.5875 L 3.175 2.6458334 L 3.4395834 2.6458334 L 3.4395834 1.5875 L 3.7041667 1.5875 L 3.7041667 1.3229167 L 2.9104167 1.3229167 z " />
</svg>
