<?xml version="1.0" encoding="UTF-8" standalone="no"?>
<!-- Created with Inkscape (http://www.inkscape.org/) -->

<svg
   width="16"
   height="16"
   viewBox="0 0 4.2333333 4.2333335"
   version="1.1"
   id="svg5"
   inkscape:version="1.2 (dc2aedaf03, 2022-05-15)"
   sodipodi:docname="application-x-cd-image.svg"
   xmlns:inkscape="http://www.inkscape.org/namespaces/inkscape"
   xmlns:sodipodi="http://sodipodi.sourceforge.net/DTD/sodipodi-0.dtd"
   xmlns="http://www.w3.org/2000/svg"
   xmlns:svg="http://www.w3.org/2000/svg">
  <sodipodi:namedview
     id="namedview7"
     pagecolor="#ffffff"
     bordercolor="#666666"
     borderopacity="1.0"
     inkscape:pageshadow="2"
     inkscape:pageopacity="0.0"
     inkscape:pagecheckerboard="0"
     inkscape:document-units="px"
     showgrid="false"
     units="px"
     width="24px"
     inkscape:zoom="35.399533"
     inkscape:cx="0.31073856"
     inkscape:cy="9.23741"
     inkscape:window-width="1920"
     inkscape:window-height="1014"
     inkscape:window-x="0"
     inkscape:window-y="0"
     inkscape:window-maximized="1"
     inkscape:current-layer="svg5"
     inkscape:showpageshadow="2"
     inkscape:deskcolor="#d1d1d1" />
  <defs
     id="defs2" />
  <rect
     style="fill:#6f6f6f;fill-opacity:1;stroke-width:0.264583"
     id="rect1052"
     width="4.2333336"
     height="4.2333336"
     x="0"
     y="0"
     ry="0.5291667" />
  <rect
     style="opacity:1;fill:#ececec;fill-opacity:1;stroke-width:0.264583"
     id="rect1190"
     width="3.7041667"
     height="3.7041667"
     x="0.26458335"
     y="0.26458335"
     ry="0.39687499" />
  <path
     d="m 2.1166668,1.0583334 c -0.5845013,0 -1.0583334,0.4738423 -1.0583334,1.0583333 0,0.5844911 0.4738321,1.0583334 1.0583334,1.0583334 0.5845014,0 1.0583334,-0.4738423 1.0583334,-1.0583334 0,-0.584491 -0.473832,-1.0583333 -1.0583334,-1.0583333 z m 0,0.79375 c 0.1461254,0 0.2645834,0.118454 0.2645834,0.2645833 0,0.1461294 -0.118458,0.2645834 -0.2645834,0.2645834 -0.1461254,0 -0.2645833,-0.118454 -0.2645833,-0.2645834 0,-0.1461293 0.1184579,-0.2645833 0.2645833,-0.2645833 z"
     style="fill:#474341;fill-opacity:1;stroke-width:0.264583;opacity:0.7"
     id="path302" />
</svg>
