<?xml version="1.0" encoding="UTF-8" standalone="no"?>
<!-- Created with Inkscape (http://www.inkscape.org/) -->

<svg
   width="16"
   height="16"
   viewBox="0 0 4.2333333 4.2333335"
   version="1.1"
   id="svg5"
   inkscape:version="1.2 (dc2aedaf03, 2022-05-15)"
   sodipodi:docname="application-x-zip.svg"
   xmlns:inkscape="http://www.inkscape.org/namespaces/inkscape"
   xmlns:sodipodi="http://sodipodi.sourceforge.net/DTD/sodipodi-0.dtd"
   xmlns="http://www.w3.org/2000/svg"
   xmlns:svg="http://www.w3.org/2000/svg">
  <sodipodi:namedview
     id="namedview7"
     pagecolor="#ffffff"
     bordercolor="#666666"
     borderopacity="1.0"
     inkscape:pageshadow="2"
     inkscape:pageopacity="0.0"
     inkscape:pagecheckerboard="0"
     inkscape:document-units="px"
     showgrid="false"
     units="px"
     width="24px"
     inkscape:zoom="17.699767"
     inkscape:cx="2.8248959"
     inkscape:cy="9.4351525"
     inkscape:window-width="1920"
     inkscape:window-height="1014"
     inkscape:window-x="0"
     inkscape:window-y="0"
     inkscape:window-maximized="1"
     inkscape:current-layer="svg5"
     inkscape:showpageshadow="2"
     inkscape:deskcolor="#d1d1d1" />
  <defs
     id="defs2" />
  <rect
     style="fill:#a19282;fill-opacity:1;stroke-width:0.264583"
     id="rect1052"
     width="3.96875"
     height="3.7041667"
     x="0.26458335"
     y="0.26458335"
     ry="0.26458335" />
  <rect
     style="opacity:1;fill:#d7c3ad;fill-opacity:1;stroke-width:0.264583"
     id="rect1190"
     width="3.4395833"
     height="2.6458335"
     x="0.5291667"
     y="0.5291667"
     ry="0.13229167" />
  <path
     d="M 3.7041667,1.5875001 C 3.7041667,1.2952495 3.4672506,1.0583333 3.175,1.0583333 H 2.6458333 V 2.6458334 H 2.9104167 V 2.1166667 H 3.175 c 0.2922506,0 0.5291667,-0.2369158 0.5291667,-0.5291666 z m -0.2645833,0 c 0,0.1461254 -0.118458,0.2645833 -0.2645834,0.2645833 H 2.9104167 V 1.3229167 H 3.175 c 0.1461254,0 0.2645834,0.118458 0.2645834,0.2645834 z M 2.38125,1.0583333 V 2.6458334 H 2.1166667 V 1.0583333 Z m -1.58749999,0 H 1.8520833 v 0.2645834 l -0.79375,1.0583334 h 0.79375 V 2.6458334 H 0.79375001 V 2.3812501 L 1.5875,1.3229167 H 0.79375001 Z"
     style="fill-opacity:1;stroke-width:0.264583;fill:#000000;opacity:0.7"
     id="path358" />
</svg>
