<?xml version="1.0" encoding="UTF-8" standalone="no"?>
<!-- Created with Inkscape (http://www.inkscape.org/) -->

<svg
   width="16"
   height="16"
   viewBox="0 0 4.2333333 4.2333335"
   version="1.1"
   id="svg5"
   inkscape:version="1.1.2 (0a00cf5339, 2022-02-04, custom)"
   sodipodi:docname="image-x-generic.svg"
   xmlns:inkscape="http://www.inkscape.org/namespaces/inkscape"
   xmlns:sodipodi="http://sodipodi.sourceforge.net/DTD/sodipodi-0.dtd"
   xmlns="http://www.w3.org/2000/svg"
   xmlns:svg="http://www.w3.org/2000/svg">
  <sodipodi:namedview
     id="namedview7"
     pagecolor="#ffffff"
     bordercolor="#666666"
     borderopacity="1.0"
     inkscape:pageshadow="2"
     inkscape:pageopacity="0.0"
     inkscape:pagecheckerboard="0"
     inkscape:document-units="px"
     showgrid="false"
     units="px"
     width="24px"
     inkscape:zoom="25.03125"
     inkscape:cx="2.8164794"
     inkscape:cy="8.1098627"
     inkscape:window-width="1920"
     inkscape:window-height="1017"
     inkscape:window-x="0"
     inkscape:window-y="0"
     inkscape:window-maximized="1"
     inkscape:current-layer="svg5" />
  <defs
     id="defs2" />
  <path
     d="M 1.8520833,1.3229167 1.5875,1.5875001 H 1.190625 c -0.07329,0 -0.1322917,0.059002 -0.1322917,0.1322916 v 1.0583334 c 0,0.07329 0.059002,0.1322917 0.1322917,0.1322917 h 1.5875 c 0.07329,0 0.1322917,-0.059002 0.1322917,-0.1322917 V 1.7197917 c 0,-0.07329 -0.059002,-0.1322916 -0.1322917,-0.1322916 H 2.38125 L 2.1166667,1.3229167 Z M 1.984375,1.8520834 c 0.2191888,0 0.396875,0.1776942 0.396875,0.396875 0,0.2191808 -0.1776862,0.396875 -0.396875,0.396875 -0.2191861,0 -0.396875,-0.1776942 -0.396875,-0.396875 0,-0.2191808 0.1776889,-0.396875 0.396875,-0.396875 z"
     style="display:inline;vector-effect:none;fill:#1c8d9b;fill-opacity:1;stroke:none;stroke-width:0.264583;stroke-linecap:square;stroke-opacity:1;enable-background:new"
     id="path25645"
     sodipodi:nodetypes="ccsssssssscccsssss" />
  <rect
     style="fill:#245c63;fill-opacity:1;stroke-width:0.264583"
     id="rect1052"
     width="4.2333336"
     height="3.7041667"
     x="0"
     y="0.26458335"
     ry="1.0583334" />
  <rect
     style="opacity:1;fill:#48b9c7;fill-opacity:1;stroke-width:0.264583"
     id="rect1190"
     width="3.7041667"
     height="3.175"
     x="0.26458335"
     y="0.5291667"
     ry="0.92604166" />
  <rect
     style="fill:#fbfefe;fill-opacity:1;stroke-width:0.264583"
     id="rect1156"
     width="2.6458335"
     height="2.1166668"
     x="0.79374999"
     y="1.0583334"
     ry="0.39687499" />
  <path
     d="M 1.0583333,1.7197917 V 2.7781251 H 3.175 V 1.7197917 Z m 1.0583334,0.1322917 c 0.5291666,0 0.5291666,0.79375 0,0.79375 -0.5291667,0 -0.5291667,-0.79375 0,-0.79375 z"
     style="fill-opacity:1;stroke-width:0.264583;fill:#1c8d9b;opacity:0.5"
     id="path1308" />
  <path
     d="M 1.8520833,1.3229167 1.5875,1.5875001 H 1.190625 c -0.07329,0 -0.1322917,0.059002 -0.1322917,0.1322916 H 3.175 c 0,-0.07329 -0.059002,-0.1322916 -0.1322916,-0.1322916 H 2.6458333 L 2.38125,1.3229167 Z m -0.79375,1.4552084 c 0,0.07329 0.059002,0.1322917 0.1322917,0.1322917 h 1.8520834 c 0.07329,0 0.1322916,-0.059002 0.1322916,-0.1322917 z"
     id="path1188"
     style="stroke-width:0.264583;fill:#1c8d9b;fill-opacity:1" />
</svg>
