<?xml version="1.0" encoding="UTF-8" standalone="no"?>
<!-- Created with Inkscape (http://www.inkscape.org/) -->

<svg
   width="16"
   height="16"
   viewBox="0 0 4.2333333 4.2333335"
   version="1.1"
   id="svg5"
   inkscape:version="1.1.2 (0a00cf5339, 2022-02-04, custom)"
   sodipodi:docname="image-x-xcf.svg"
   xmlns:inkscape="http://www.inkscape.org/namespaces/inkscape"
   xmlns:sodipodi="http://sodipodi.sourceforge.net/DTD/sodipodi-0.dtd"
   xmlns="http://www.w3.org/2000/svg"
   xmlns:svg="http://www.w3.org/2000/svg">
  <sodipodi:namedview
     id="namedview7"
     pagecolor="#ffffff"
     bordercolor="#666666"
     borderopacity="1.0"
     inkscape:pageshadow="2"
     inkscape:pageopacity="0.0"
     inkscape:pagecheckerboard="0"
     inkscape:document-units="px"
     showgrid="false"
     units="px"
     width="24px"
     inkscape:zoom="48.625"
     inkscape:cx="7.9897172"
     inkscape:cy="8"
     inkscape:window-width="1920"
     inkscape:window-height="1002"
     inkscape:window-x="0"
     inkscape:window-y="0"
     inkscape:window-maximized="1"
     inkscape:current-layer="svg5" />
  <defs
     id="defs2" />
  <rect
     style="fill:#245c63;fill-opacity:1;stroke-width:0.264583"
     id="rect1052"
     width="4.2333336"
     height="3.7041667"
     x="0"
     y="0.26458335"
     ry="1.0583334" />
  <rect
     style="opacity:1;fill:#48b9c7;fill-opacity:1;stroke-width:0.264583"
     id="rect1190"
     width="3.7041667"
     height="3.175"
     x="0.26458335"
     y="0.5291667"
     ry="0.92604166" />
  <rect
     style="fill:#fbfefe;fill-opacity:1;stroke-width:0.264583"
     id="rect1156"
     width="2.6458335"
     height="2.1166668"
     x="0.79374999"
     y="1.0583334"
     ry="0.26458335" />
  <path
     d="m 0.79375001,1.3229167 0.26458339,0.79375 -0.26458339,0.79375 H 1.0583334 l 0.1322916,-0.396875 0.1322917,0.396875 h 0.2645834 l -0.2645834,-0.79375 0.2645834,-0.79375 H 1.3229167 L 1.190625,1.7197917 1.0583334,1.3229167 Z m 1.19062509,0 c -0.2198688,0 -0.396875,0.1770063 -0.396875,0.396875 v 0.79375 c 0,0.2198688 0.1770062,0.396875 0.396875,0.396875 0.2198687,0 0.396875,-0.1770062 0.396875,-0.396875 V 2.3812501 H 2.1166667 v 0.1322916 c 0,0.1763898 -0.2645833,0.1763898 -0.2645833,0 v -0.79375 c 0,-0.1763898 0.2645833,-0.1763898 0.2645833,0 V 1.8520834 H 2.3812501 V 1.7197917 c 0,-0.2198687 -0.1770063,-0.396875 -0.396875,-0.396875 z m 0.6614583,0 v 1.5875 H 2.9104168 V 2.3812501 H 3.1750001 V 2.1166667 H 2.9104168 V 1.5875 H 3.4395834 V 1.3229167 H 2.9104168 Z"
     id="path1087"
     style="stroke-width:0.264583;fill:#9b9291;fill-opacity:1;opacity:0.75" />
</svg>
