<?xml version="1.0" encoding="UTF-8" standalone="no"?>
<!-- Created with Inkscape (http://www.inkscape.org/) -->

<svg
   width="16"
   height="16"
   viewBox="0 0 4.2333333 4.2333333"
   version="1.1"
   id="svg5"
   inkscape:version="1.2 (dc2aedaf03, 2022-05-15)"
   sodipodi:docname="package-x-rpm.svg"
   xmlns:inkscape="http://www.inkscape.org/namespaces/inkscape"
   xmlns:sodipodi="http://sodipodi.sourceforge.net/DTD/sodipodi-0.dtd"
   xmlns="http://www.w3.org/2000/svg"
   xmlns:svg="http://www.w3.org/2000/svg">
  <sodipodi:namedview
     id="namedview7"
     pagecolor="#ffffff"
     bordercolor="#666666"
     borderopacity="1.0"
     inkscape:pageshadow="2"
     inkscape:pageopacity="0.0"
     inkscape:pagecheckerboard="0"
     inkscape:document-units="px"
     showgrid="false"
     units="px"
     height="48px"
     inkscape:zoom="16.708333"
     inkscape:cx="24"
     inkscape:cy="24"
     inkscape:window-width="1920"
     inkscape:window-height="1009"
     inkscape:window-x="0"
     inkscape:window-y="0"
     inkscape:window-maximized="1"
     inkscape:current-layer="svg5"
     inkscape:showpageshadow="2"
     inkscape:deskcolor="#d1d1d1" />
  <defs
     id="defs2" />
  <rect
     style="opacity:1;fill:#a71d1d;fill-opacity:1;stroke-width:0.264583"
     id="rect1162"
     width="3.96875"
     height="3.7041667"
     x="0.26458332"
     y="0.26458332"
     ry="0.26458332" />
  <rect
     style="fill:#d67d7d;fill-opacity:1;stroke-width:0.264583"
     id="rect1149"
     width="3.4395833"
     height="2.6458333"
     x="0.5291667"
     y="0.5291667"
     ry="0.13229166" />
  <path
     d="M 1.8520833,2.6458333 H 2.1166666 V 2.1166666 c 0.1322917,0 0.2010834,-0.039952 0.2841625,-0.083344 C 2.8459583,1.748708 2.6450083,1.0592284 2.1166666,1.0583333 H 1.8520833 V 1.5875 Z M 2.1166666,1.5875 V 1.3229166 c 0.3527777,0 0.3527777,0.5291667 0,0.5291667 z M 0.79375,2.6458333 H 1.0583333 V 2.1166666 L 1.3229167,2.6458333 H 1.5875 L 1.3424958,2.0335875 C 1.7882853,1.7491322 1.5871459,1.0588161 1.0583333,1.0583333 H 0.79375 V 1.5875 Z M 1.0583333,1.5875 V 1.3229166 c 0.3527777,0 0.3527777,0.5291667 0,0.5291667 z m 1.5875,1.0583333 v -1.5875 H 2.9104166 L 3.175,1.5875 3.4395833,1.0583333 h 0.2645833 v 1.5875 H 3.4395833 V 1.7197916 L 3.175,2.1166666 2.9104166,1.7197916 v 0.9260417 z"
     style="fill:#a21010;fill-opacity:1;stroke-width:0.264583"
     id="path1131" />
</svg>
