<?xml version="1.0" encoding="UTF-8" standalone="no"?>
<!-- Created with Inkscape (http://www.inkscape.org/) -->

<svg
   width="16"
   height="16"
   viewBox="0 0 4.2333333 4.2333335"
   version="1.1"
   id="svg5"
   inkscape:version="1.2 (dc2aedaf03, 2022-05-15)"
   sodipodi:docname="text-x-java.svg"
   xmlns:inkscape="http://www.inkscape.org/namespaces/inkscape"
   xmlns:sodipodi="http://sodipodi.sourceforge.net/DTD/sodipodi-0.dtd"
   xmlns="http://www.w3.org/2000/svg"
   xmlns:svg="http://www.w3.org/2000/svg">
  <sodipodi:namedview
     id="namedview7"
     pagecolor="#ffffff"
     bordercolor="#666666"
     borderopacity="1.0"
     inkscape:pageshadow="2"
     inkscape:pageopacity="0.0"
     inkscape:pagecheckerboard="0"
     inkscape:document-units="px"
     showgrid="false"
     units="px"
     width="24px"
     inkscape:zoom="35.399533"
     inkscape:cx="0.31073856"
     inkscape:cy="9.23741"
     inkscape:window-width="1920"
     inkscape:window-height="1014"
     inkscape:window-x="0"
     inkscape:window-y="0"
     inkscape:window-maximized="1"
     inkscape:current-layer="svg5"
     inkscape:showpageshadow="2"
     inkscape:deskcolor="#d1d1d1" />
  <defs
     id="defs2" />
  <rect
     style="fill:#6e271b;fill-opacity:1;stroke-width:0.264583"
     id="rect1052"
     width="4.2333336"
     height="4.2333336"
     x="0"
     y="0"
     ry="0.5291667" />
  <rect
     style="opacity:1;fill:#dd4f37;fill-opacity:1;stroke-width:0.264583"
     id="rect1190"
     width="3.7041667"
     height="3.7041667"
     x="0.26458335"
     y="0.26458335"
     ry="0.39687499" />
  <path
     d="m 3.0863239,3.254375 c 0,0 0.089958,0.074083 -0.09869,0.1312334 C 2.6288593,3.4940875 1.494326,3.5268959 1.1792072,3.3898417 1.0659655,3.3403646 1.278426,3.2721021 1.345101,3.25755 1.414951,3.2427334 1.4546385,3.2453792 1.4546385,3.2453792 1.3286968,3.1564792 0.64025103,3.419475 1.1051239,3.4948813 2.3724781,3.7004626 3.4149364,3.4022771 3.0863239,3.2541105 Z M 2.7934302,2.8575 C 3.3892718,2.5479375 3.113576,2.2505459 2.9214885,2.2904979 c -0.047096,0.00979 -0.067998,0.018521 -0.067998,0.018521 0,0 0.017463,-0.027517 0.0508,-0.039423 0.3802062,-0.1336146 0.6728354,0.3942291 -0.1227667,0.6035145 0,0 0.00926,-0.0082 0.011906,-0.01561 z M 2.2642635,2.0372917 c 0.1534583,0.1764771 -0.040217,0.3349625 -0.040217,0.3349625 0,0 0.3889375,-0.2005542 0.2103438,-0.4521729 -0.1666872,-0.2344209 -0.2947456,-0.3508376 0.397669,-0.7522105 0,0 -1.0869083,0.2711979 -0.5677958,0.8694209 z m -0.5061479,0.238125 c 0,0 -0.5767917,0.1370542 -0.2042584,0.1867958 0.1574271,0.021167 0.4709584,0.01614 0.763323,-0.00794 0.2389187,-0.020108 0.4786312,-0.062971 0.4786312,-0.062971 0,0 -0.084137,0.035983 -0.1452562,0.077523 -0.5860521,0.1542521 -1.71793958,0.08255 -1.391973,-0.075142 0.2754313,-0.13335 0.4995334,-0.1182687 0.4995334,-0.1182687 z m -0.058208,0.714375 c 0,0 -0.1211792,0.070644 0.086519,0.094456 0.2513541,0.028575 0.3802062,0.024606 0.657225,-0.027781 0,0 0.073025,0.045508 0.1748896,0.085196 C 1.9967697,3.4078334 1.211751,3.1263167 1.6999076,2.9897917 Z M 1.6239718,2.6458334 c 0,0 -0.1359958,0.1005416 0.071967,0.1222375 0.2685521,0.027781 0.4807479,0.029898 0.8482542,-0.040746 0,0 0.0508,0.051594 0.1304395,0.07964 C 1.9232156,3.0265688 1.0863385,2.8241625 1.6242364,2.6458334 Z M 2.4343906,0.52916667 c 0,0 0.3299354,0.32993542 -0.3130021,0.83740623 -0.5154084,0.4071938 -0.117475,0.6392334 0,0.9043459 C 1.8202926,1.9994563 1.5996301,1.7602729 1.7477968,1.5380229 1.9650197,1.2117917 2.567476,1.0533062 2.4343906,0.52916667 Z M 1.8168531,3.7041667 c 0.5715,0.036512 1.4499167,-0.020373 1.4705542,-0.2910417 0,0 -0.039687,0.1026584 -0.4725459,0.1841501 -0.4878917,0.09181 -1.0900833,0.081227 -1.4467417,0.022225 0,0 0.073025,0.06059 0.4487334,0.084667 z"
     id="path4034"
     style="fill:#ffffff;stroke-width:0.264583" />
</svg>
