<?xml version="1.0" encoding="UTF-8" standalone="no"?>
<!-- Created with Inkscape (http://www.inkscape.org/) -->

<svg
   width="16"
   height="16"
   viewBox="0 0 4.2333333 4.2333335"
   version="1.1"
   id="svg5"
   inkscape:version="1.2 (dc2aedaf03, 2022-05-15)"
   sodipodi:docname="text-x-markdown.svg"
   xmlns:inkscape="http://www.inkscape.org/namespaces/inkscape"
   xmlns:sodipodi="http://sodipodi.sourceforge.net/DTD/sodipodi-0.dtd"
   xmlns="http://www.w3.org/2000/svg"
   xmlns:svg="http://www.w3.org/2000/svg">
  <sodipodi:namedview
     id="namedview7"
     pagecolor="#ffffff"
     bordercolor="#666666"
     borderopacity="1.0"
     inkscape:pageshadow="2"
     inkscape:pageopacity="0.0"
     inkscape:pagecheckerboard="0"
     inkscape:document-units="px"
     showgrid="false"
     units="px"
     width="24px"
     inkscape:zoom="25.03125"
     inkscape:cx="2.7965044"
     inkscape:cy="8.1098627"
     inkscape:window-width="1920"
     inkscape:window-height="1014"
     inkscape:window-x="0"
     inkscape:window-y="0"
     inkscape:window-maximized="1"
     inkscape:current-layer="svg5"
     inkscape:showpageshadow="2"
     inkscape:deskcolor="#d1d1d1" />
  <defs
     id="defs2" />
  <rect
     style="fill:#455a64;fill-opacity:1;stroke-width:0.264583"
     id="rect1052"
     width="4.2333336"
     height="4.2333336"
     x="0"
     y="0"
     ry="0.5291667" />
  <path
     d="m 0.79375004,1.0583334 c -0.1441979,0 -0.2645833,0.1203854 -0.2645833,0.2645833 v 1.5875001 c 0,0.1441979 0.1203854,0.2645833 0.2645833,0.2645833 H 3.4395834 c 0.1441979,0 0.2645834,-0.1203854 0.2645834,-0.2645833 V 1.3229167 c 0,-0.1441979 -0.1203855,-0.2645833 -0.2645834,-0.2645833 z m 0,0.2645833 H 3.4395834 V 2.9104168 H 0.79375004 Z M 1.0583334,1.5875001 V 2.6458334 H 1.3229167 V 2.0669251 L 1.5875,2.4804688 1.8520834,2.0669251 V 2.6458334 H 2.1166667 V 1.5875001 H 1.8520834 L 1.5875,2.0010438 1.3229167,1.5875001 Z m 1.5875,0 V 2.1166667 H 2.3812501 L 2.6458334,2.6458334 H 2.9104167 L 3.1750001,2.1166667 H 2.9104167 V 1.5875001 Z"
     style="color:#000000;text-indent:0;text-decoration-line:none;text-decoration-style:solid;text-decoration-color:#000000;text-transform:none;white-space:normal;isolation:auto;mix-blend-mode:normal;fill:#ffffff;stroke-width:0.264583"
     id="path410" />
</svg>
