<?xml version="1.0" encoding="UTF-8" standalone="no"?>
<!-- Created with Inkscape (http://www.inkscape.org/) -->

<svg
   width="16"
   height="16"
   viewBox="0 0 4.2333333 4.2333335"
   version="1.1"
   id="svg5"
   inkscape:version="1.2 (dc2aedaf03, 2022-05-15)"
   sodipodi:docname="text-x-python.svg"
   xmlns:inkscape="http://www.inkscape.org/namespaces/inkscape"
   xmlns:sodipodi="http://sodipodi.sourceforge.net/DTD/sodipodi-0.dtd"
   xmlns="http://www.w3.org/2000/svg"
   xmlns:svg="http://www.w3.org/2000/svg">
  <sodipodi:namedview
     id="namedview7"
     pagecolor="#ffffff"
     bordercolor="#666666"
     borderopacity="1.0"
     inkscape:pageshadow="2"
     inkscape:pageopacity="0.0"
     inkscape:pagecheckerboard="0"
     inkscape:document-units="px"
     showgrid="false"
     units="px"
     width="24px"
     inkscape:zoom="25.03125"
     inkscape:cx="2.8963795"
     inkscape:cy="8.1098627"
     inkscape:window-width="1920"
     inkscape:window-height="1011"
     inkscape:window-x="0"
     inkscape:window-y="0"
     inkscape:window-maximized="1"
     inkscape:current-layer="svg5"
     inkscape:showpageshadow="2"
     inkscape:deskcolor="#d1d1d1" />
  <defs
     id="defs2" />
  <rect
     style="fill:#6f6f6f;fill-opacity:1;stroke-width:0.264583"
     id="rect1052"
     width="3.7041667"
     height="3.7041667"
     x="0.26458335"
     y="0.26458335"
     ry="0.39687499" />
  <rect
     style="opacity:1;fill:#ececec;fill-opacity:1;stroke-width:0.264583"
     id="rect1190"
     width="3.175"
     height="3.175"
     x="0.5291667"
     y="0.5291667"
     ry="0.26458335" />
  <path
     d="m 1.8523479,0.79348542 c 0,0 -0.5402792,-0.02831 -0.5291667,0.26458338 V 1.3226521 H 1.0585979 c -0.29315828,0 -0.26458328,0.5291666 -0.26458328,0.5291666 v 0.5291667 c 0,0.5291667 0.26458328,0.5291667 0.26458328,0.5291667 H 2.9106812 V 1.0580688 c 0,-0.26458338 -0.5291667,-0.26458338 -0.5291667,-0.26458338 z"
     style="fill:#3776ab;stroke-width:0.264583"
     id="path8964" />
  <path
     d="m 2.3815145,3.4393187 c 0.5291667,0 0.5291667,-0.2645833 0.5291667,-0.2645833 V 2.9101521 h 0.2645833 c 0.2645834,0 0.2645834,-0.5291667 0.2645834,-0.5291667 V 1.8518187 c 0,-0.5291666 -0.2645834,-0.5291666 -0.2645834,-0.5291666 H 2.9106812 v 0.5291666 c 0,0.2645834 -0.2645833,0.2645834 -0.2645833,0.2645834 H 1.5877645 c -0.2645833,0 -0.2645833,0.5291666 -0.2645833,0.5291666 v 0.5291667 c 0,0.2931583 0.5291667,0.2645833 0.5291667,0.2645833 z"
     style="fill:#ffd343;stroke-width:0.264583"
     id="path8992" />
  <path
     d="m 1.7197916,1.0583333 c -0.073062,0 -0.1322916,0.05923 -0.1322916,0.1322917 0,0.073062 0.059229,0.1322917 0.1322916,0.1322917 0.073063,0 0.1322917,-0.05923 0.1322917,-0.1322917 0,-0.073062 -0.059229,-0.1322917 -0.1322917,-0.1322917 z m 0.79375,1.8520834 c -0.073063,0 -0.1322916,0.05923 -0.1322916,0.1322916 0,0.073062 0.059229,0.1322917 0.1322916,0.1322917 0.073063,0 0.1322917,-0.05923 0.1322917,-0.1322917 0,-0.073062 -0.059229,-0.1322916 -0.1322917,-0.1322916 z"
     style="fill:#ffffff;stroke-width:0.264583"
     id="path9021" />
</svg>
