<?xml version="1.0" encoding="UTF-8" standalone="no"?>
<!-- Created with Inkscape (http://www.inkscape.org/) -->

<svg
   width="16"
   height="16"
   viewBox="0 0 4.2333333 4.2333333"
   version="1.1"
   id="svg5"
   inkscape:version="1.1.2 (0a00cf5339, 2022-02-04, custom)"
   sodipodi:docname="video-x-generic.svg"
   xmlns:inkscape="http://www.inkscape.org/namespaces/inkscape"
   xmlns:sodipodi="http://sodipodi.sourceforge.net/DTD/sodipodi-0.dtd"
   xmlns="http://www.w3.org/2000/svg"
   xmlns:svg="http://www.w3.org/2000/svg">
  <sodipodi:namedview
     id="namedview7"
     pagecolor="#ffffff"
     bordercolor="#666666"
     borderopacity="1.0"
     inkscape:pageshadow="2"
     inkscape:pageopacity="0.0"
     inkscape:pagecheckerboard="0"
     inkscape:document-units="px"
     showgrid="false"
     units="px"
     height="48px"
     inkscape:zoom="50.125"
     inkscape:cx="7.9900249"
     inkscape:cy="8"
     inkscape:window-width="1920"
     inkscape:window-height="1017"
     inkscape:window-x="0"
     inkscape:window-y="0"
     inkscape:window-maximized="1"
     inkscape:current-layer="svg5" />
  <defs
     id="defs2" />
  <rect
     style="opacity:1;fill:#782e11;fill-opacity:1;stroke-width:0.264583"
     id="rect1162"
     width="3.96875"
     height="3.7041667"
     x="0.26458332"
     y="0.26458332"
     ry="0.52916664" />
  <rect
     style="opacity:1;fill:#f15d22;fill-opacity:1;stroke-width:0.264583"
     id="rect1038"
     width="3.4395833"
     height="3.175"
     x="0.52916664"
     y="0.52916664"
     ry="0.39687499" />
  <path
     d="m 0.92604163,0.52916666 c -0.21986871,0 -0.39687496,0.1770062 -0.39687496,0.396875 V 1.5875 H 3.9687499 V 0.92604166 c 0,-0.2198688 -0.1770062,-0.396875 -0.396875,-0.396875 z"
     id="path1138"
     style="fill:#000000;stroke-width:0.264583"
     sodipodi:nodetypes="ssccsss" />
  <path
     d="M 1.0583333,0.52916666 0.52916667,1.5875 H 1.0583333 L 1.5875,0.52916666 Z m 1.0583333,0 L 1.5875,1.5875 H 2.1166666 L 2.6458333,0.52916666 Z m 1.0583333,0 L 2.6458333,1.5875 H 3.1749999 L 3.693832,0.55035446 C 3.654552,0.53691366 3.613391,0.52974346 3.5718749,0.52916136 Z"
     style="fill:#f7f7f7;fill-opacity:1;stroke-width:0.264583"
     id="path1276"
     sodipodi:nodetypes="cccccccccccccccc" />
  <path
     d="m 1.5213542,1.8520833 c -0.2565136,0 -0.4630209,0.2065073 -0.4630209,0.4630208 0,0.2064412 0.133948,0.3801983 0.3198773,0.4402826 -0.031358,0.043491 -0.049609,0.097084 -0.049609,0.1550299 V 3.175 c 0,0.1465791 0.1180042,0.2645833 0.2645834,0.2645833 h 1.0583333 c 0.1465792,0 0.2645834,-0.1180042 0.2645834,-0.2645833 l 0.5291667,0.2645833 v -0.79375 L 2.9161013,2.9104166 c 0,-0.080988 -0.036055,-0.1530813 -0.093018,-0.2015384 0.1319398,-0.08141 0.2196254,-0.2267228 0.2196254,-0.3937741 0,-0.2565135 -0.2065073,-0.4630208 -0.4630209,-0.4630208 -0.2565135,0 -0.4630208,0.2065073 -0.4630208,0.4630208 0,0.1299673 0.053339,0.2467928 0.1390094,0.3307292 H 1.8453656 C 1.9310522,2.5618942 1.984375,2.445086 1.984375,2.3151041 c 0,-0.2565135 -0.2065073,-0.4630208 -0.4630208,-0.4630208 z m 0,0.2645833 c 0.1099344,0 0.1984375,0.088503 0.1984375,0.1984375 0,0.1099344 -0.088503,0.1984375 -0.1984375,0.1984375 -0.1099344,0 -0.1984375,-0.088503 -0.1984375,-0.1984375 0,-0.1099344 0.088503,-0.1984375 0.1984375,-0.1984375 z m 1.0583333,0 c 0.1099344,0 0.1984375,0.088503 0.1984375,0.1984375 0,0.1099344 -0.088503,0.1984375 -0.1984375,0.1984375 -0.1099343,0 -0.1984375,-0.088503 -0.1984375,-0.1984375 0,-0.1099344 0.088503,-0.1984375 0.1984375,-0.1984375 z"
     style="stroke-width:0.132292;fill:#f9f9f9"
     id="path1724" />
</svg>
