<?xml version="1.0" encoding="UTF-8" standalone="no"?>
<!-- Created with Inkscape (http://www.inkscape.org/) -->

<svg
   width="48"
   height="48"
   viewBox="0 0 12.7 12.7"
   version="1.1"
   id="svg5"
   inkscape:version="1.2 (dc2aedaf03, 2022-05-15)"
   sodipodi:docname="accessories-dictionary.svg"
   xmlns:inkscape="http://www.inkscape.org/namespaces/inkscape"
   xmlns:sodipodi="http://sodipodi.sourceforge.net/DTD/sodipodi-0.dtd"
   xmlns="http://www.w3.org/2000/svg"
   xmlns:svg="http://www.w3.org/2000/svg">
  <sodipodi:namedview
     id="namedview7"
     pagecolor="#ffffff"
     bordercolor="#666666"
     borderopacity="1.0"
     inkscape:pageshadow="2"
     inkscape:pageopacity="0.0"
     inkscape:pagecheckerboard="0"
     inkscape:document-units="px"
     showgrid="false"
     units="px"
     height="48px"
     inkscape:zoom="16.520833"
     inkscape:cx="12.348046"
     inkscape:cy="24.06053"
     inkscape:window-width="1920"
     inkscape:window-height="1014"
     inkscape:window-x="0"
     inkscape:window-y="0"
     inkscape:window-maximized="1"
     inkscape:current-layer="svg5"
     showguides="false"
     inkscape:showpageshadow="2"
     inkscape:deskcolor="#d1d1d1" />
  <defs
     id="defs2" />
  <rect
     style="opacity:1;fill:#560c00;fill-opacity:1;stroke-width:0.264583"
     id="rect1162"
     width="8.7312498"
     height="10.31875"
     x="2.1166666"
     y="1.0583333"
     ry="0.79374999" />
  <rect
     style="fill:#f6f6f6;fill-opacity:1;stroke-width:0.383418"
     id="rect1437"
     width="8.2020836"
     height="9.7895832"
     x="2.3812499"
     y="1.3229166"
     ry="0.63499999" />
  <rect
     style="fill:#560c00;fill-opacity:1;stroke-width:0.264583"
     id="rect4694"
     width="8.2020836"
     height="9.5249996"
     x="2.1166666"
     y="0.79374999"
     ry="0.79374999" />
  <rect
     style="opacity:1;fill:#f15d22;fill-opacity:1;stroke-width:0.264583"
     id="rect1237"
     width="7.6729169"
     height="8.9958334"
     x="2.3812499"
     y="1.0583333"
     ry="0.63499999" />
  <path
     d="M 7.408333,4.2333334 V 4.7625001 H 8.73125 L 7.408333,6.8791666 V 7.4083333 H 9.524999 V 6.8791666 H 8.202083 L 9.524999,4.7625001 V 4.2333334 H 8.995833 Z m -2.645833,0 c -0.586317,0 -1.058334,0.4720167 -1.058334,1.0583334 V 7.4083333 H 4.233333 V 6.35 H 5.291666 V 7.4083333 H 5.820833 V 5.2916668 c 0,-0.5863167 -0.472017,-1.0583334 -1.058333,-1.0583334 z m 0,0.5291667 c 0.293158,0 0.529166,0.2360082 0.529166,0.5291667 V 5.8208334 H 4.233333 V 5.2916668 c 0,-0.2931585 0.236008,-0.5291667 0.529167,-0.5291667 z M 6.085416,5.8208334 H 7.408333 V 6.35 H 6.085416 Z"
     style="fill:#000000;stroke-width:0.264583;opacity:0.2"
     id="path6607" />
  <path
     d="M 7.4083329,3.9687499 V 4.4979166 H 8.7312495 L 7.4083329,6.6145832 V 7.1437499 H 9.5249995 V 6.6145832 H 8.2020829 L 9.5249995,4.4979166 V 3.9687499 H 8.9958328 Z m -2.6458333,0 c -0.5863167,0 -1.0583334,0.4720167 -1.0583334,1.0583334 V 7.1437499 H 4.2333329 V 6.0854166 H 5.2916662 V 7.1437499 H 5.8208329 V 5.0270833 c 0,-0.5863167 -0.4720167,-1.0583334 -1.0583333,-1.0583334 z m 0,0.5291667 c 0.2931583,0 0.5291666,0.2360083 0.5291666,0.5291667 V 5.5562499 H 4.2333329 V 5.0270833 c 0,-0.2931584 0.2360083,-0.5291667 0.5291667,-0.5291667 z M 6.0854162,5.5562499 H 7.4083329 V 6.0854166 H 6.0854162 Z"
     style="fill:#ededed;stroke-width:0.264583"
     id="path1335"
     sodipodi:nodetypes="ccccccccccccssccccccssssccssccccc" />
  <path
     d="m 3.01625,1.0583333 c -0.3518958,0 -0.635,0.2831042 -0.635,0.635 V 10.4775 c 0,0.351631 0.2831042,0.635 0.635,0.635 H 3.175 V 1.0583333 Z"
     style="fill:#350700;stroke-width:0.264583;fill-opacity:1"
     id="path10119" />
</svg>
