<?xml version="1.0" encoding="UTF-8" standalone="no"?>
<!-- Created with Inkscape (http://www.inkscape.org/) -->

<svg
   width="48"
   height="48"
   viewBox="0 0 12.7 12.7"
   version="1.1"
   id="svg5"
   inkscape:version="1.1.2 (0a00cf5339, 2022-02-04, custom)"
   sodipodi:docname="accessories-calculator.svg"
   xmlns:inkscape="http://www.inkscape.org/namespaces/inkscape"
   xmlns:sodipodi="http://sodipodi.sourceforge.net/DTD/sodipodi-0.dtd"
   xmlns="http://www.w3.org/2000/svg"
   xmlns:svg="http://www.w3.org/2000/svg">
  <sodipodi:namedview
     id="namedview7"
     pagecolor="#ffffff"
     bordercolor="#666666"
     borderopacity="1.0"
     inkscape:pageshadow="2"
     inkscape:pageopacity="0.0"
     inkscape:pagecheckerboard="0"
     inkscape:document-units="px"
     showgrid="false"
     units="px"
     height="48px"
     inkscape:zoom="16.708333"
     inkscape:cx="23.970075"
     inkscape:cy="24"
     inkscape:window-width="1920"
     inkscape:window-height="1017"
     inkscape:window-x="0"
     inkscape:window-y="0"
     inkscape:window-maximized="1"
     inkscape:current-layer="svg5" />
  <defs
     id="defs2" />
  <rect
     style="opacity:1;fill:#dedede;fill-opacity:1;stroke-width:0.264583"
     id="rect1162"
     width="10.583333"
     height="10.847917"
     x="1.0583333"
     y="1.0583333"
     ry="0.92604166" />
  <path
     id="rect4333"
     style="opacity:0.5;fill:#000000;fill-opacity:1;stroke-width:0.264583"
     d="m 2.6458333,1.8520833 c -0.4397375,0 -0.79375,0.3540125 -0.79375,0.79375 v 2.6458333 c 0,0.4397375 0.3540125,0.79375 0.79375,0.79375 h 2.6458333 c 0.4397375,0 0.79375,-0.3540125 0.79375,-0.79375 V 2.6458333 c 0,-0.4397375 -0.3540125,-0.79375 -0.79375,-0.79375 z m 4.7624999,0 c -0.4397375,0 -0.7937499,0.3540125 -0.7937499,0.79375 v 2.6458333 c 0,0.4397375 0.3540124,0.79375 0.7937499,0.79375 h 2.6458338 c 0.439737,0 0.79375,-0.3540125 0.79375,-0.79375 V 2.6458333 c 0,-0.4397375 -0.354013,-0.79375 -0.79375,-0.79375 z m -4.7624999,4.7625 c -0.4397375,0 -0.79375,0.3540125 -0.79375,0.79375 v 2.6458337 c 0,0.439737 0.3540125,0.79375 0.79375,0.79375 h 2.6458333 c 0.4397375,0 0.79375,-0.354013 0.79375,-0.79375 V 7.4083333 c 0,-0.4397375 -0.3540125,-0.79375 -0.79375,-0.79375 z m 4.7624999,0 c -0.4397375,0 -0.7937499,0.3540125 -0.7937499,0.79375 v 2.6458337 c 0,0.439737 0.3540124,0.79375 0.7937499,0.79375 h 2.6458338 c 0.439737,0 0.79375,-0.354013 0.79375,-0.79375 V 7.4083333 c 0,-0.4397375 -0.354013,-0.79375 -0.79375,-0.79375 z" />
  <rect
     style="fill:#73c48f;fill-opacity:1;stroke-width:0.264583"
     id="rect1083"
     width="4.2333331"
     height="4.2333331"
     x="6.6145835"
     y="6.3499999"
     ry="0.79374999" />
  <path
     id="rect1316"
     style="opacity:0.5;fill:#000000;stroke-width:0.264583"
     d="m 1.984375,1.0583333 c -0.5130271,0 -0.9260417,0.4130146 -0.9260417,0.9260417 v 8.995833 c 0,0.513027 0.4130146,0.926042 0.9260417,0.926042 h 8.73125 c 0.513027,0 0.926042,-0.413015 0.926042,-0.926042 V 1.984375 c 0,-0.5130271 -0.413015,-0.9260417 -0.926042,-0.9260417 z m 0.1322916,0.2645833 h 8.4666664 c 0.439738,0 0.79375,0.3540125 0.79375,0.79375 v 8.4666664 c 0,0.439737 -0.354012,0.79375 -0.79375,0.79375 H 2.1166666 c -0.4397375,0 -0.7937499,-0.354013 -0.7937499,-0.79375 V 2.1166666 c 0,-0.4397375 0.3540124,-0.79375 0.7937499,-0.79375 z"
     sodipodi:nodetypes="ssssssssssssssssss" />
  <rect
     style="opacity:1;fill:#aaaaaa;fill-opacity:1;stroke-width:0.264583"
     id="rect933"
     width="4.2333331"
     height="4.2333331"
     x="1.8520827"
     y="6.3499999"
     ry="0.79374999" />
  <rect
     style="opacity:1;fill:#aaaaaa;fill-opacity:1;stroke-width:0.264583"
     id="rect1147"
     width="4.2333331"
     height="4.2333331"
     x="1.8520827"
     y="1.5875001"
     ry="0.79374999" />
  <rect
     style="opacity:1;fill:#aaaaaa;fill-opacity:1;stroke-width:0.264583"
     id="rect1506"
     width="4.2333331"
     height="4.2333331"
     x="6.614583"
     y="1.5875001"
     ry="0.79374999" />
  <path
     id="path9264"
     style="opacity:0.2;fill:#000000;stroke-width:0.070004"
     d="m 29,9.5 -1.5,1.5 4,4 -4,4 1.5,1.5 4,-4 4,4 1.5,-1.5 -4,-4 4,-4 -1.5,-1.5 -4,4 z M 14,10 v 4 h -4 v 2 h 4 v 4 h 2 v -4 h 4 v -2 h -4 v -4 z m 0,18 v 2 h 2 v -2 z m 14,2 v 2 H 38 V 30 Z M 9,32 v 2 h 12 v -2 z m 19,2 v 2 h 10 v -2 z m -14,2 v 2 h 2 v -2 z"
     transform="scale(0.26458333)" />
  <path
     d="M 10.186459,2.6458332 9.128125,3.7041666 10.186459,4.7624999 9.7895838,5.1593749 8.73125,4.1010416 7.6729167,5.1593749 7.2760417,4.7624999 8.334375,3.7041666 7.2760417,2.6458332 7.6729167,2.2489582 8.73125,3.3072916 9.7895838,2.2489582 Z"
     style="fill:#ffffff;stroke-width:0.0700042"
     id="path4546"
     sodipodi:nodetypes="ccccccccccccc" />
  <path
     id="rect4743"
     style="opacity:1;fill:#ffffff;fill-opacity:1;stroke-width:0.999999"
     d="M 14 9 L 14 13 L 10 13 L 10 15 L 14 15 L 14 19 L 16 19 L 16 15 L 20 15 L 20 13 L 16 13 L 16 9 L 14 9 z "
     transform="scale(0.26458333)" />
  <path
     id="rect8814"
     style="opacity:1;fill:#ffffff;fill-opacity:1;stroke-width:0.264583"
     d="M 7.4083336,7.6729169 V 8.2020836 H 10.054167 V 7.6729169 Z m 0,1.0583333 V 9.2604169 H 10.054167 V 8.7312502 Z" />
  <path
     id="rect8921"
     style="opacity:1;fill:#ffffff;fill-opacity:1;stroke-width:0.264583"
     d="M 3.7041663,7.1437499 V 7.6729166 H 4.233333 V 7.1437499 Z M 2.3812496,8.2020832 v 0.5291667 h 3.175 V 8.2020832 Z M 3.7041663,9.2604166 V 9.7895832 H 4.233333 V 9.2604166 Z" />
</svg>
