<?xml version="1.0" encoding="UTF-8" standalone="no"?>
<!-- Created with Inkscape (http://www.inkscape.org/) -->

<svg
   width="48"
   height="48"
   viewBox="0 0 12.7 12.7"
   version="1.1"
   id="svg5"
   inkscape:version="1.1.2 (0a00cf5339, 2022-02-04, custom)"
   sodipodi:docname="accessories-screenshot.svg"
   xmlns:inkscape="http://www.inkscape.org/namespaces/inkscape"
   xmlns:sodipodi="http://sodipodi.sourceforge.net/DTD/sodipodi-0.dtd"
   xmlns="http://www.w3.org/2000/svg"
   xmlns:svg="http://www.w3.org/2000/svg">
  <sodipodi:namedview
     id="namedview7"
     pagecolor="#ffffff"
     bordercolor="#666666"
     borderopacity="1.0"
     inkscape:pageshadow="2"
     inkscape:pageopacity="0.0"
     inkscape:pagecheckerboard="0"
     inkscape:document-units="px"
     showgrid="false"
     units="px"
     height="48px"
     inkscape:zoom="8.2236326"
     inkscape:cx="35.811425"
     inkscape:cy="13.072082"
     inkscape:window-width="1920"
     inkscape:window-height="1005"
     inkscape:window-x="0"
     inkscape:window-y="0"
     inkscape:window-maximized="1"
     inkscape:current-layer="svg5"
     showguides="false" />
  <defs
     id="defs2" />
  <rect
     style="opacity:1;fill:#6f6f6f;fill-opacity:1;stroke-width:0.264583"
     id="rect1162"
     width="11.1125"
     height="8.4666662"
     x="0.79374999"
     y="2.9104166"
     ry="0.79374999" />
  <rect
     style="opacity:1;fill:#dedede;fill-opacity:1;stroke-width:0.264583"
     id="rect1147"
     width="10.583333"
     height="7.4083333"
     x="1.0583333"
     y="3.175"
     ry="0.66145831" />
  <rect
     style="fill:#48b9c7;fill-opacity:1;stroke-width:0.293418"
     id="rect1083"
     width="9.5249996"
     height="5.8208332"
     x="1.5875"
     y="3.7041667" />
  <path
     d="M 1.8520833,4.2333333 V 6.3499999 H 2.38125 v -1.5875 H 4.4979166 V 4.2333333 H 2.38125 Z m 6.3500002,0 v 0.5291666 h 2.1166655 v 1.5875 h 0.529167 V 4.2333333 H 10.318749 Z M 1.8520833,7.4083332 V 9.5250001 H 4.4979166 V 8.9958331 H 2.38125 V 7.4083332 Z m 8.4666657,0 V 8.9958331 H 8.2020835 v 0.529167 H 10.847916 V 7.4083332 Z"
     id="path1152"
     style="opacity:0.2;fill:#000000;stroke-width:0.264583"
     sodipodi:nodetypes="cccccccccccccccccccccccccccccc" />
  <path
     d="M 1.8520833,3.96875 V 6.0854167 H 2.38125 v -1.5875 H 4.4979166 V 3.96875 H 2.38125 Z m 6.3500003,0 v 0.5291667 h 2.1166654 v 1.5875 h 0.529167 V 3.96875 H 10.318749 Z M 1.8520833,7.1437497 V 9.2604171 H 4.4979166 V 8.7312497 H 2.38125 v -1.5875 z m 8.4666657,0 v 1.5875 H 8.2020836 V 9.2604171 H 10.847916 V 7.1437497 Z"
     style="opacity:1;fill:#ffffff;stroke-width:0.0700042"
     id="path976" />
</svg>
