<?xml version="1.0" encoding="UTF-8" standalone="no"?>
<!-- Created with Inkscape (http://www.inkscape.org/) -->

<svg
   width="48"
   height="48"
   viewBox="0 0 12.7 12.7"
   version="1.1"
   id="svg5"
   inkscape:version="1.2 (dc2aedaf03, 2022-05-15)"
   sodipodi:docname="applications-utilities.svg"
   xmlns:inkscape="http://www.inkscape.org/namespaces/inkscape"
   xmlns:sodipodi="http://sodipodi.sourceforge.net/DTD/sodipodi-0.dtd"
   xmlns="http://www.w3.org/2000/svg"
   xmlns:svg="http://www.w3.org/2000/svg">
  <sodipodi:namedview
     id="namedview7"
     pagecolor="#ffffff"
     bordercolor="#666666"
     borderopacity="1.0"
     inkscape:pageshadow="2"
     inkscape:pageopacity="0.0"
     inkscape:pagecheckerboard="0"
     inkscape:document-units="px"
     showgrid="false"
     units="px"
     height="48px"
     inkscape:zoom="16.6875"
     inkscape:cx="24.029963"
     inkscape:cy="24.089888"
     inkscape:window-width="1846"
     inkscape:window-height="1011"
     inkscape:window-x="0"
     inkscape:window-y="0"
     inkscape:window-maximized="1"
     inkscape:current-layer="svg5"
     inkscape:showpageshadow="2"
     inkscape:deskcolor="#d1d1d1" />
  <defs
     id="defs2" />
  <rect
     style="opacity:1;fill:#9c27b0;fill-opacity:1;stroke-width:0.264583"
     id="rect1162"
     width="10.583333"
     height="10.31875"
     x="1.0583333"
     y="1.3229166"
     ry="0.92604166" />
  <path
     id="rect1316"
     style="opacity:0.5;fill:#000000;stroke-width:0.264583"
     d="m 1.984375,1.3229167 c -0.5130271,0 -0.9260417,0.4130146 -0.9260417,0.9260417 v 8.4666666 c 0,0.513027 0.4130146,0.926042 0.9260417,0.926042 h 8.73125 c 0.513027,0 0.926042,-0.413015 0.926042,-0.926042 V 2.2489584 c 0,-0.5130271 -0.413015,-0.9260417 -0.926042,-0.9260417 z M 2.1166666,1.5875 h 8.4666664 c 0.439738,0 0.79375,0.3540125 0.79375,0.79375 v 7.672917 c 0,0.439737 -0.354012,0.79375 -0.79375,0.79375 H 2.1166666 c -0.4397375,0 -0.7937499,-0.354013 -0.7937499,-0.79375 V 2.38125 c 0,-0.4397375 0.3540124,-0.79375 0.7937499,-0.79375 z"
     sodipodi:nodetypes="ssssssssssssssssss" />
  <path
     d="m 5.2916667,4.4979166 c -0.4397375,0 -0.79375,0.3540125 -0.79375,0.79375 v 2.6458333 c 0,0.4397375 0.3540125,0.79375 0.79375,0.79375 0.4397375,0 0.79375,-0.3540125 0.79375,-0.79375 V 5.2916666 c 0,-0.4397375 -0.3540125,-0.79375 -0.79375,-0.79375 z m 0.6697265,0 C 6.1936974,4.6865645 6.35,4.97205 6.35,5.2916666 V 5.55625 h 0.5622396 c -0.019579,-0.2891896 0.3302,-0.5291667 0.5291666,-0.5291667 0.1799167,0 0.2645833,0.00317 0.2645833,0.2645833 V 5.55625 h 0.322461 C 8.3533588,5.3975 8.4992236,5.0351531 8.4992236,4.8451823 8.4992236,4.6507135 7.868576,4.4979166 7.5240885,4.4979166 Z M 6.35,5.8208333 V 6.961333 c 0.7318375,0.7040535 1.6205729,0.6371695 1.6205729,0.6371695 0,0 0.093332,-0.4019814 -0.504362,-1.0660856 L 6.839376,5.8208333 Z M 7.1370322,6.4910758 7.582482,6.9504797 C 7.1064966,6.994136 7.0134718,6.7239091 7.1370322,6.4910758 Z"
     id="path17059"
     style="stroke-width:0.264583;fill:#000000;opacity:0.2"
     sodipodi:nodetypes="ssssssscsccssccsscccccccccc" />
  <path
     d="m 5.2916667,4.2333333 c -0.4397375,0 -0.79375,0.3540125 -0.79375,0.79375 v 2.6458333 c 0,0.4397375 0.3540125,0.79375 0.79375,0.79375 0.4397375,0 0.79375,-0.3540125 0.79375,-0.79375 V 5.0270833 c 0,-0.4397375 -0.3540125,-0.79375 -0.79375,-0.79375 z m 0.6697265,0 C 6.1936974,4.4219812 6.35,4.7074667 6.35,5.0270833 V 5.2916667 H 6.9122396 C 6.8926606,5.0024771 7.2424396,4.7625 7.4414062,4.7625 c 0.1799167,0 0.2645833,0.00317 0.2645833,0.2645833 v 0.2645834 h 0.322461 C 8.3533588,5.1329167 8.4992236,4.7705698 8.4992236,4.580599 8.4992236,4.3861302 7.868576,4.2333333 7.5240885,4.2333333 Z M 6.35,5.55625 v 1.1404997 c 0.7318375,0.7040535 1.6205729,0.6371695 1.6205729,0.6371695 0,0 0.093332,-0.4019814 -0.504362,-1.0660856 L 6.839376,5.55625 Z M 7.1370322,6.2264925 7.582482,6.6858964 C 7.1064966,6.7295527 7.0134718,6.4593258 7.1370322,6.2264925 Z"
     style="stroke-width:0.264583;fill:#ffffff"
     id="path17626" />
</svg>
