<?xml version="1.0" encoding="UTF-8" standalone="no"?>
<!-- Created with Inkscape (http://www.inkscape.org/) -->

<svg
   width="48"
   height="48"
   viewBox="0 0 12.7 12.7"
   version="1.1"
   id="svg5"
   inkscape:version="1.2 (dc2aedaf03, 2022-05-15)"
   sodipodi:docname="applications-all.svg"
   xmlns:inkscape="http://www.inkscape.org/namespaces/inkscape"
   xmlns:sodipodi="http://sodipodi.sourceforge.net/DTD/sodipodi-0.dtd"
   xmlns="http://www.w3.org/2000/svg"
   xmlns:svg="http://www.w3.org/2000/svg">
  <sodipodi:namedview
     id="namedview7"
     pagecolor="#ffffff"
     bordercolor="#666666"
     borderopacity="1.0"
     inkscape:pageshadow="2"
     inkscape:pageopacity="0.0"
     inkscape:pagecheckerboard="0"
     inkscape:document-units="px"
     showgrid="false"
     units="px"
     height="48px"
     inkscape:zoom="16.6875"
     inkscape:cx="24.179775"
     inkscape:cy="24.2397"
     inkscape:window-width="1920"
     inkscape:window-height="1017"
     inkscape:window-x="0"
     inkscape:window-y="0"
     inkscape:window-maximized="1"
     inkscape:current-layer="svg5"
     inkscape:showpageshadow="2"
     inkscape:deskcolor="#d1d1d1" />
  <defs
     id="defs2" />
  <rect
     style="opacity:1;fill:#48b9c7;fill-opacity:1;stroke-width:0.264583"
     id="rect1162"
     width="10.583333"
     height="10.31875"
     x="1.0583333"
     y="1.3229166"
     ry="0.92604166" />
  <path
     id="rect1316"
     style="opacity:0.5;fill:#000000;stroke-width:0.264583"
     d="m 1.984375,1.3229167 c -0.5130271,0 -0.9260417,0.4130146 -0.9260417,0.9260417 v 8.4666666 c 0,0.513027 0.4130146,0.926042 0.9260417,0.926042 h 8.73125 c 0.513027,0 0.926042,-0.413015 0.926042,-0.926042 V 2.2489584 c 0,-0.5130271 -0.413015,-0.9260417 -0.926042,-0.9260417 z M 2.1166666,1.5875 h 8.4666664 c 0.439738,0 0.79375,0.3540125 0.79375,0.79375 v 7.672917 c 0,0.439737 -0.354012,0.79375 -0.79375,0.79375 H 2.1166666 c -0.4397375,0 -0.7937499,-0.354013 -0.7937499,-0.79375 V 2.38125 c 0,-0.4397375 0.3540124,-0.79375 0.7937499,-0.79375 z"
     sodipodi:nodetypes="ssssssssssssssssss" />
  <path
     id="path235"
     style="fill:#ffffff;stroke-width:0.198437"
     d="M 4.6302082,3.96875 A 0.39687499,0.39687499 0 0 0 4.2333333,4.3656249 0.39687499,0.39687499 0 0 0 4.6302082,4.7624999 0.39687499,0.39687499 0 0 0 5.0270832,4.3656249 0.39687499,0.39687499 0 0 0 4.6302082,3.96875 Z m 1.5875,0 A 0.39687499,0.39687499 0 0 0 5.8208332,4.3656249 0.39687499,0.39687499 0 0 0 6.2177082,4.7624999 0.39687499,0.39687499 0 0 0 6.6145831,4.3656249 0.39687499,0.39687499 0 0 0 6.2177082,3.96875 Z m 1.5875,0 a 0.39687499,0.39687499 0 0 0 -0.396875,0.3968749 0.39687499,0.39687499 0 0 0 0.396875,0.396875 0.39687499,0.39687499 0 0 0 0.396875,-0.396875 A 0.39687499,0.39687499 0 0 0 7.8052082,3.96875 Z m -3.175,1.5874999 a 0.39687499,0.39687499 0 0 0 -0.3968749,0.396875 0.39687499,0.39687499 0 0 0 0.3968749,0.396875 0.39687499,0.39687499 0 0 0 0.396875,-0.396875 0.39687499,0.39687499 0 0 0 -0.396875,-0.396875 z m 1.5875,0 a 0.39687499,0.39687499 0 0 0 -0.396875,0.396875 0.39687499,0.39687499 0 0 0 0.396875,0.396875 0.39687499,0.39687499 0 0 0 0.3968749,-0.396875 0.39687499,0.39687499 0 0 0 -0.3968749,-0.396875 z m 1.5875,0 a 0.39687499,0.39687499 0 0 0 -0.396875,0.396875 0.39687499,0.39687499 0 0 0 0.396875,0.396875 0.39687499,0.39687499 0 0 0 0.396875,-0.396875 0.39687499,0.39687499 0 0 0 -0.396875,-0.396875 z m -3.175,1.5875 a 0.39687499,0.39687499 0 0 0 -0.3968749,0.396875 0.39687499,0.39687499 0 0 0 0.3968749,0.396875 0.39687499,0.39687499 0 0 0 0.396875,-0.396875 0.39687499,0.39687499 0 0 0 -0.396875,-0.396875 z m 1.5875,0 a 0.39687499,0.39687499 0 0 0 -0.396875,0.396875 0.39687499,0.39687499 0 0 0 0.396875,0.396875 0.39687499,0.39687499 0 0 0 0.3968749,-0.396875 0.39687499,0.39687499 0 0 0 -0.3968749,-0.396875 z m 1.5875,0 a 0.39687499,0.39687499 0 0 0 -0.396875,0.396875 0.39687499,0.39687499 0 0 0 0.396875,0.396875 0.39687499,0.39687499 0 0 0 0.396875,-0.396875 0.39687499,0.39687499 0 0 0 -0.396875,-0.396875 z" />
</svg>
