<?xml version="1.0" encoding="UTF-8" standalone="no"?>
<!-- Created with Inkscape (http://www.inkscape.org/) -->

<svg
   width="48"
   height="48"
   viewBox="0 0 12.7 12.7"
   version="1.1"
   id="svg5"
   inkscape:version="1.2 (dc2aedaf03, 2022-05-15)"
   sodipodi:docname="applications-educations.svg"
   xmlns:inkscape="http://www.inkscape.org/namespaces/inkscape"
   xmlns:sodipodi="http://sodipodi.sourceforge.net/DTD/sodipodi-0.dtd"
   xmlns="http://www.w3.org/2000/svg"
   xmlns:svg="http://www.w3.org/2000/svg">
  <sodipodi:namedview
     id="namedview7"
     pagecolor="#ffffff"
     bordercolor="#666666"
     borderopacity="1.0"
     inkscape:pageshadow="2"
     inkscape:pageopacity="0.0"
     inkscape:pagecheckerboard="0"
     inkscape:document-units="px"
     showgrid="false"
     units="px"
     height="48px"
     inkscape:zoom="16.6875"
     inkscape:cx="24.11985"
     inkscape:cy="24.11985"
     inkscape:window-width="1846"
     inkscape:window-height="1011"
     inkscape:window-x="0"
     inkscape:window-y="0"
     inkscape:window-maximized="1"
     inkscape:current-layer="svg5"
     inkscape:showpageshadow="2"
     inkscape:deskcolor="#d1d1d1" />
  <defs
     id="defs2" />
  <rect
     style="opacity:1;fill:#2e7153;fill-opacity:1;stroke-width:0.264583"
     id="rect1162"
     width="10.583333"
     height="10.31875"
     x="1.0583333"
     y="1.3229166"
     ry="0.92604166" />
  <path
     id="rect1316"
     style="opacity:0.5;fill:#000000;stroke-width:0.264583"
     d="m 1.984375,1.3229167 c -0.5130271,0 -0.9260417,0.4130146 -0.9260417,0.9260417 v 8.4666666 c 0,0.513027 0.4130146,0.926042 0.9260417,0.926042 h 8.73125 c 0.513027,0 0.926042,-0.413015 0.926042,-0.926042 V 2.2489584 c 0,-0.5130271 -0.413015,-0.9260417 -0.926042,-0.9260417 z M 2.1166666,1.5875 h 8.4666664 c 0.439738,0 0.79375,0.3540125 0.79375,0.79375 v 7.672917 c 0,0.439737 -0.354012,0.79375 -0.79375,0.79375 H 2.1166666 c -0.4397375,0 -0.7937499,-0.354013 -0.7937499,-0.79375 V 2.38125 c 0,-0.4397375 0.3540124,-0.79375 0.7937499,-0.79375 z"
     sodipodi:nodetypes="ssssssssssssssssss" />
  <path
     d="m 8.0009999,5.0138628 c 0,0.00988 -0.00415,0.018079 -0.012435,0.024606 h -0.024606 l 0.00979,-0.014817 c 0.00494,-0.00811 0.014023,-0.011377 0.027252,-0.00979 z m 1.4395979,1.9632083 c 0,0.041098 -0.022225,0.083079 -0.066675,0.1259417 -0.04445,0.039511 -0.066675,0.081492 -0.066675,0.1259416 l -0.017198,-0.00238 h -0.00979 c -0.00988,0 -0.017285,-0.00326 -0.022225,-0.00979 l 0.024606,-0.019844 c -0.00988,-0.022932 -0.026371,-0.034396 -0.049477,-0.034396 -0.013052,0 -0.026194,0.00326 -0.039423,0.00979 l -0.04445,0.019579 c -0.014817,0.0067 -0.023019,0.019931 -0.024606,0.039688 v 0.029633 l 0.012171,0.012171 c -0.00653,0.00177 -0.013052,0.00265 -0.019579,0.00265 h -0.014817 c -0.0067,0 -0.016582,-0.00177 -0.029633,-0.00529 -0.011642,-0.00476 -0.021519,-0.014552 -0.029633,-0.029369 l -0.04445,0.039423 c -0.018169,0.011464 -0.033867,0.017198 -0.047096,0.017198 -0.00988,0 -0.021344,-0.00406 -0.034396,-0.012171 -0.00988,-0.00353 -0.018169,-0.00273 -0.024871,0.00238 -0.00494,0.00494 -0.00741,0.014817 -0.00741,0.029633 v 0.037042 L 8.7714666,7.2855753 c -0.022931,0.042863 -0.056709,0.064294 -0.1013354,0.064294 -0.019756,0 -0.053446,-0.00573 -0.1010708,-0.017198 l -0.1013355,-0.017462 -0.037042,0.00265 -0.056885,-0.056885 c -0.013052,0 -0.022932,0.009 -0.029633,0.026988 l -0.014817,0.042069 0.012435,0.012435 -0.012435,0.012171 C 8.3095914,7.3101815 8.2717568,7.2764913 8.2158416,7.2535607 8.1599264,7.2288671 8.1031291,7.2165191 8.0454499,7.2165191 8.0272809,7.2066391 8.0058509,7.1810651 7.9811559,7.13979 c -0.019756,-0.042686 -0.040305,-0.064029 -0.061648,-0.064029 -0.014817,0 -0.029633,0.00494 -0.04445,0.014817 -0.00988,-0.00988 -0.025487,-0.00988 -0.046831,0 l -0.039688,0.014817 c -0.011464,0 -0.02046,-0.011464 -0.026987,-0.034396 -0.031397,0 -0.075847,-0.018169 -0.13335,-0.054504 -0.056092,-0.036337 -0.097279,-0.054505 -0.1235606,-0.054505 l -0.039687,0.00741 c 0.014994,-0.019756 0.02249,-0.038629 0.02249,-0.056621 0,-0.017992 -0.019756,-0.046037 -0.059267,-0.084137 -0.039511,-0.039511 -0.056797,-0.076553 -0.051858,-0.111125 -0.037923,0 -0.056885,0.017285 -0.056885,0.051858 l 0.00265,0.037042 c 0,0.016581 0.00159,0.028928 0.00476,0.037042 l -0.00741,0.032279 c -0.022931,-0.0067 -0.036954,-0.033867 -0.042069,-0.081492 0,-0.046214 -0.013229,-0.075847 -0.039688,-0.0889 l 0.056885,-0.056885 c -0.021167,-0.00653 -0.04004,-0.011464 -0.056621,-0.014817 -0.016581,-0.00335 -0.035542,-0.00503 -0.056885,-0.00503 l -0.00503,-0.037042 c 0,-0.019756 0.00415,-0.04445 0.012435,-0.074083 l 0.012436,-0.069056 c 0,-0.018169 -0.00415,-0.03466 -0.012436,-0.049477 -0.00494,-0.014817 -0.018169,-0.030427 -0.039687,-0.046831 0.00511,-0.00494 0.00926,-0.017285 0.012435,-0.037042 l -0.00476,-0.051858 c -0.031397,-0.00988 -0.047096,-0.02884 -0.047096,-0.056885 l 0.014817,-0.0889 c -0.00494,-0.011464 -0.009,-0.019667 -0.012171,-0.024606 -0.028046,0.00494 -0.047802,0.021431 -0.059267,0.049477 l -0.029633,0.076729 -0.010054,-0.042333 c 0,-0.017992 0.011554,-0.04348 0.03466,-0.076465 0.024694,-0.032985 0.037042,-0.056797 0.037042,-0.071438 l -0.00503,-0.024871 0.032279,0.00741 c 0.00653,-0.00494 0.012258,-0.014023 0.017198,-0.027252 l 0.00503,-0.039423 v -0.034396 c 0,-0.018169 0.00246,-0.033867 0.00741,-0.047096 0.00494,-0.013229 0.018169,-0.020638 0.039688,-0.022225 0.0097,-0.00829 0.017021,-0.017375 0.02196,-0.027252 0.00653,-0.011464 0.00979,-0.027869 0.00979,-0.049212 -0.00494,-0.016581 -0.016404,-0.024871 -0.034396,-0.024871 -0.014817,0 -0.026371,0.00177 -0.03466,0.00529 l -0.019844,0.00714 c 0.00494,-0.022931 0.02884,-0.053358 0.071702,-0.091281 0.04445,-0.037923 0.066675,-0.073289 0.066675,-0.1060979 0,-0.019756 -0.00415,-0.037923 -0.012435,-0.054504 h 0.019844 c 0,0.039511 0.00167,0.072496 0.00503,0.098954 0.00494,0.024694 0.022225,0.041981 0.051858,0.051858 0.027869,0.00494 0.044274,-0.00917 0.049212,-0.042333 0.00494,-0.034396 0.019757,-0.054063 0.04445,-0.059002 l 0.00529,-0.027252 c 0,-0.00988 -0.00503,-0.028752 -0.015081,-0.056621 l -0.014817,-0.042333 c 0,-0.016227 0.00415,-0.028575 0.012435,-0.037042 l -0.00503,0.024871 c 0,0.022931 0.012348,0.046037 0.037042,0.069321 l 0.069056,0.056621 c 0.023106,-0.014817 0.043744,-0.037835 0.061913,-0.069056 0.019757,-0.031221 0.032985,-0.064999 0.039688,-0.1013354 -0.00177,-0.00829 -0.010935,-0.016491 -0.027517,-0.024606 -0.014817,-0.00829 -0.024694,-0.018963 -0.029633,-0.032015 0.018169,-0.00829 0.03466,-0.00423 0.049477,0.012171 l 0.04445,0.04445 0.056885,-0.069056 0.012171,0.012435 c 0.00988,-0.0067 0.016491,-0.019931 0.019844,-0.039688 l -0.00979,-0.064029 c 0,-0.016582 0.011464,-0.028134 0.034396,-0.03466 l 0.012435,0.138377 c 0.019756,0.00159 0.032103,-0.011642 0.037042,-0.039688 0.00653,-0.029633 0.013142,-0.047713 0.019844,-0.054239 l 0.041804,0.00238 c 0.024694,0 0.04445,-0.00246 0.059267,-0.00741 0.014817,-0.00653 0.023106,-0.018873 0.024871,-0.037042 l -0.00503,-0.022225 c -0.00653,-0.029633 0.00582,-0.046919 0.037042,-0.051858 0.031221,-0.00653 0.050183,-0.016404 0.056885,-0.029633 l 0.022225,0.039688 c 0.00317,0.00317 0.014639,0.00476 0.034396,0.00476 l 0.012435,-0.076729 c 0.00829,0.00511 0.017375,0.00273 0.027252,-0.00714 l 0.029633,-0.029633 v -0.012435 c 0.011464,0 0.027869,0.00573 0.049213,0.017198 l 0.051858,0.019844 c 0.014817,-0.00829 0.027164,-0.024784 0.037042,-0.049477 0.00988,-0.026458 0.020637,-0.043744 0.032279,-0.051858 l -0.00265,0.04445 c 0,0.019757 0.0075,0.034572 0.02249,0.04445 0.026458,0.00494 0.045332,-0.00573 0.056621,-0.032015 v -0.012435 l 0.04445,0.042069 c 0.00829,0.00494 0.016581,0.00741 0.024871,0.00741 0.00317,0 0.011377,-0.00167 0.024606,-0.00503 0.00494,-0.027869 0.026371,-0.053446 0.064294,-0.076729 0.039511,-0.024694 0.06253,-0.041099 0.069056,-0.049213 0.032985,-0.00653 0.051946,0.00582 0.056885,0.037042 l 0.012171,0.07911 c 0.00353,-0.00177 0.006,-0.00344 0.00741,-0.00503 0.00988,-0.00829 0.022225,-0.022312 0.037042,-0.042069 0.00988,0.023106 0.034572,0.03466 0.074083,0.03466 l 0.027252,-0.00238 0.012435,-0.00741 c 0.00988,0.00829 0.014817,0.01905 0.014817,0.032279 0,0.013052 -0.00988,0.036865 -0.029633,0.071438 -0.019757,0.029633 -0.029633,0.049389 -0.029633,0.059267 0,0.00988 0.00741,0.014817 0.022225,0.014817 l 0.046831,-0.00741 0.00979,0.027252 c -0.00159,0.00159 -0.00238,0.00326 -0.00238,0.00503 -0.00811,0.00653 -0.02046,0.013936 -0.037042,0.022225 -0.024693,0.00653 -0.037835,0.017992 -0.039423,0.034396 h -0.032015 c -0.00335,-0.00494 -0.00582,-0.00908 -0.00741,-0.012435 -0.0067,-0.00811 -0.016581,-0.018698 -0.029633,-0.03175 -0.022932,0.027869 -0.045156,0.041804 -0.066675,0.041804 -0.00988,0 -0.025577,-0.00573 -0.047096,-0.017198 -0.016404,-0.013229 -0.03616,-0.023106 -0.059267,-0.029633 l -0.074083,-0.010054 c -0.011464,0 -0.026281,8.732e-4 -0.04445,0.00265 -0.016404,0.0014 -0.034484,0.00468 -0.054239,0.00979 l -0.128323,0.022225 C 8.0759651,5.3265122 7.9170389,5.4235259 7.8083833,5.5073107 7.7014916,5.5914482 7.6480458,5.7025732 7.6480458,5.8406857 l -0.039687,-0.00714 c -0.024694,0 -0.041099,0.024693 -0.049213,0.074083 0,0.04445 -0.00415,0.072408 -0.012435,0.083873 0.00829,0.024694 0.012435,0.050271 0.012435,0.076729 0,0.031221 -0.00829,0.074789 -0.024871,0.1307042 -0.014817,0.054328 -0.022225,0.092251 -0.022225,0.1137708 0,0.022931 0.00335,0.04348 0.010054,0.061648 0.00653,0.016404 0.021344,0.03616 0.04445,0.059267 -0.00177,0.022931 7.144e-4,0.041804 0.00741,0.056621 l 0.074083,0.061913 c 0.039511,0.026458 0.071614,0.071702 0.096308,0.1357312 0.026458,0.062618 0.057679,0.093927 0.093662,0.093927 l 0.037042,-0.00741 c 0.021518,0.037747 0.080786,0.075671 0.1778,0.1137708 0.09719,0.035983 0.1581327,0.08449 0.1828271,0.1455208 0.018169,0.00494 0.030515,-7.937e-4 0.037042,-0.017198 0.00177,-0.00829 0.00423,-0.016581 0.00741,-0.024871 0.00177,0 0.00344,-7.938e-4 0.00503,-0.00238 l 0.2121959,0.061913 c 0.1086556,0.027869 0.1893535,0.057503 0.2420937,0.0889 0.014817,-0.023106 0.034572,-0.038806 0.059267,-0.047096 0.024694,-0.00811 0.053534,-0.012171 0.086519,-0.012171 h 0.051858 l 0.081492,-0.00741 c 0.021344,-0.00494 0.041892,-0.018169 0.061648,-0.039688 0.05274,-0.026458 0.084049,-0.065969 0.093927,-0.1185333 l 0.019838,-0.1407599 c 0.014817,0.014817 0.028751,0.023019 0.041804,0.024606 0.011464,0 0.030427,-0.018079 0.056885,-0.05424 l 0.046831,-0.059267 c -0.00494,-0.028046 0.00582,-0.047008 0.032279,-0.056885 l 0.05424,0.1359958 c 0.019756,0.04445 0.029633,0.087224 0.029633,0.1283229 0,0.022932 -0.00494,0.050888 -0.014817,0.083873 z M 7.1366062,6.4584878 c -0.00494,0.00494 -0.0082,0.00908 -0.00979,0.012435 0,0.00159 -7.937e-4,0.00406 -0.00238,0.00741 l -0.012435,-0.04445 z m -0.012171,0.076729 h -0.012435 v -0.012435 h 0.012435 z M 7.4207687,6.900342 H 7.4083337 V 6.8633 h 0.012435 z M 8.6701312,5.0262982 8.6529333,4.9966649 c -0.00494,-0.016582 -0.014023,-0.025665 -0.027252,-0.027252 l -0.012171,0.032015 c 0.00811,0.00988 0.018785,0.018963 0.032014,0.027252 0.00988,0.00335 0.018079,0.00257 0.024606,-0.00238 z M 7.3194333,5.7644857 h -0.037042 l 0.024606,0.019844 0.010054,-0.012435 z m -0.049477,0.1902354 c -0.00988,0 -0.02055,0.00573 -0.032015,0.017198 l -0.012435,0.019844 h 0.024871 l 0.017198,-0.019844 z m 0.2518833,0.1703917 c -0.00653,-0.00653 -0.014729,-0.009 -0.024606,-0.00741 v 0.064294 c 0.013229,-0.00494 0.020638,-0.014023 0.022225,-0.027252 z M 7.3194333,6.26349 V 6.2386189 H 7.3069983 V 6.26349 Z m -0.037042,0.2714625 h -0.019844 v 0.037042 l 0.012435,-0.012171 z M 9.364133,6.8437212 c -0.013229,-0.00494 -0.021431,-0.00908 -0.024606,-0.012435 -0.016581,0.00988 -0.026458,0.018963 -0.029633,0.027252 -0.00494,0.00494 -0.00741,0.014023 -0.00741,0.027252 l 0.012171,0.026987 H 9.32709 l 0.029633,-0.034396 c 0.00653,-0.00988 0.009,-0.021431 0.00741,-0.03466 z m 0,0.1703916 v -0.024606 c -0.00494,-0.00494 -0.017285,-0.00908 -0.037042,-0.012435 -0.00335,0.011464 -0.00167,0.021344 0.00503,0.029633 0.00653,0.00653 0.017198,0.009 0.032015,0.00741 z M 8.406077,7.1154482 c -0.00829,0 -0.01411,0.00159 -0.017462,0.00476 l -0.014817,0.019844 c 0.00494,0.00988 0.013229,0.012348 0.024871,0.00741 l 0.00741,-0.014817 z m -0.2841625,0.032015 -0.00979,-0.027252 c -0.00829,-0.00318 -0.015698,-0.00476 -0.022225,-0.00476 v 0.04445 c 0.016404,0 0.027076,-0.00415 0.032015,-0.012435 z M 6.7601041,5.0297378 c -0.00829,0.00494 -0.016491,0.00741 -0.024606,0.00741 -0.00494,0 -0.012348,-0.00167 -0.022225,-0.00503 l -0.032279,-0.024606 c -0.013052,-0.011464 -0.024519,-0.022138 -0.034396,-0.032015 h 0.034396 c 0,0.013052 0.011554,0.024519 0.03466,0.034396 0.022931,0.00494 0.037747,0.011554 0.04445,0.019844 z m 0.049477,1.0644187 -0.027252,0.00476 v -0.026987 c 0.00494,0.00159 0.00908,0.00406 0.012435,0.00741 z M 6.9402854,5.3088732 c -0.00494,-0.00988 -0.009,-0.015698 -0.012171,-0.017463 l -0.014817,-0.012171 -0.024871,0.00476 c -0.014817,0 -0.032103,-0.012348 -0.051858,-0.037042 -0.00653,-0.00988 -0.015523,-0.018873 -0.026988,-0.026988 -0.00335,-0.00177 -0.0075,-0.00511 -0.012435,-0.010054 -0.011464,0 -0.023813,0.00661 -0.037042,0.019844 l 0.037042,0.0889 c 0.00494,0.013229 0.00908,0.033779 0.012435,0.061648 0.00653,-0.014817 0.018873,-0.026281 0.037042,-0.034396 l 0.0889,-0.00979 -0.012435,0.04445 -0.061648,0.017198 0.022225,0.024606 c 0.00494,0.00494 0.00741,0.013142 0.00741,0.024606 l -0.00741,0.024871 -0.019844,-0.00741 c -0.00494,-0.00335 -0.013142,-0.00503 -0.024606,-0.00503 l -0.029633,0.029633 0.037042,0.029633 c 0.017992,0.00988 0.026987,0.024694 0.026987,0.04445 -0.027869,0.00988 -0.060766,0.032103 -0.09869,0.066675 l -0.1161521,0.1084792 -0.012171,0.049477 0.034396,0.00503 -0.1137708,0.086519 -0.024342,-0.047096 c -0.0067,-0.011464 -0.01905,-0.013052 -0.037042,-0.00476 l -0.029632,0.039427 h -0.022225 c 0.00988,-0.018169 0.00326,-0.029633 -0.019844,-0.034396 l -0.042069,-0.015081 -0.00979,0.03466 0.00741,0.034396 0.024606,0.042333 c 0.0067,0.00653 0.013316,0.00979 0.019844,0.00979 l 0.019844,0.00238 0.022225,-0.03466 h 0.029633 c 0.00494,0.028046 -0.00582,0.057679 -0.032279,0.0889 -0.026281,0.031221 -0.039423,0.053446 -0.039423,0.066675 0,0.011464 0.00326,0.023813 0.00979,0.037042 l 0.049477,0.051858 c 0.029633,-0.018169 0.04445,-0.047802 0.04445,-0.0889 l 0.00741,-0.069056 h 0.049477 c 0.00317,0.00811 0.00564,0.022932 0.00741,0.04445 0.00318,0.019756 0.00476,0.041981 0.00476,0.066675 0,0.052564 0.013229,0.096132 0.039688,0.1307042 l -0.00741,0.056885 c 0,0.019756 0.00988,0.034572 0.029633,0.04445 l 0.019579,-0.024606 0.010054,-0.04445 -0.00265,-0.049477 c 0,-0.031221 0.015698,-0.046831 0.047096,-0.046831 l 0.022225,0.00238 0.022225,0.00979 0.022225,0.017198 c -0.019756,0.00494 -0.035366,0.016404 -0.046831,0.034396 -0.00829,0.019931 -0.012435,0.043921 -0.012435,0.071967 v 0.039423 l 0.00979,0.051858 c 0.029633,0.00829 0.04445,0.022312 0.04445,0.042069 0,0.013052 -0.009,0.031133 -0.026988,0.05424 l -0.027252,0.039688 0.022225,0.00212 0.049477,-0.00741 v -0.012171 h 0.012171 v 0.086254 c -0.00494,-0.013052 -0.014817,-0.019579 -0.029633,-0.019579 -0.00988,0 -0.017285,0.00653 -0.022225,0.019579 l 0.017463,0.049477 c -0.026458,0 -0.042157,0.018079 -0.047096,0.05424 0,0.029633 -0.00494,0.051065 -0.014817,0.064294 -0.00988,-0.014817 -0.014817,-0.030427 -0.014817,-0.046831 l 0.00741,-0.047096 0.010054,-0.05424 c 0,-0.029633 -0.019757,-0.04445 -0.059267,-0.04445 l -0.049477,0.046831 c -0.00829,0.00988 -0.012435,0.024694 -0.012435,0.04445 l 0.029633,0.017462 c 0.016582,0.00494 0.02734,0.012348 0.032279,0.022225 l -0.051858,0.093662 c -0.014817,0.024694 -0.022225,0.048507 -0.022225,0.071438 0,0.022932 0.009,0.043568 0.026987,0.061913 0,0.011464 -0.00573,0.025487 -0.017198,0.042069 l -0.032014,0.037042 c -0.00494,-0.00829 -0.00741,-0.017375 -0.00741,-0.027252 l 0.00741,-0.039687 0.00979,-0.046567 c 0,-0.019756 -0.013229,-0.032985 -0.039688,-0.039688 -0.00476,0.00494 -0.016227,0.028046 -0.034396,0.069321 -0.011464,0.034572 -0.03369,0.049389 -0.066675,0.04445 0,0.027869 -0.00494,0.05909 -0.014817,0.093662 L 6.4047662,7.177627 6.3923312,7.145877 c -0.00494,-0.016582 -0.014023,-0.028134 -0.027252,-0.03466 -0.00653,0.00335 -0.010671,0.014817 -0.012435,0.034396 0,0.016581 -0.00741,0.02734 -0.022225,0.032279 l -0.019842,-0.0172 c -0.00653,-0.00494 -0.013052,-0.00335 -0.019579,0.00476 -0.014817,0.00829 -0.026281,0.025577 -0.034396,0.051858 -0.00847,0.026458 -0.020815,0.040481 -0.037042,0.042069 l -0.029898,-0.00741 c -0.00653,0.024694 -0.03616,0.039511 -0.0889,0.04445 -0.049389,0 -0.076553,0.018963 -0.081492,0.056885 -0.00653,-0.00353 -0.010671,-0.010142 -0.012435,-0.019844 l 0.010054,-0.049477 c 0,-0.013052 -0.010761,-0.02046 -0.032279,-0.022225 -0.014817,-0.00494 -0.032896,0.00246 -0.05424,0.022225 -0.019756,0.019756 -0.035366,0.031221 -0.046831,0.034396 l -0.012436,-0.1010708 -0.022225,-0.00741 c -0.011464,0 -0.028751,0.00582 -0.051858,0.017463 l -0.042069,0.014817 c -0.016404,0 -0.024606,-0.017285 -0.024606,-0.051858 l -0.014817,-0.017463 -0.012435,-0.00741 -0.022225,0.024871 c 0.00335,0.00318 0.00503,0.00723 0.00503,0.012171 0.00159,0.00494 0.00326,0.00829 0.00503,0.010054 l -0.027252,0.017198 c 0.00494,-0.024694 -0.00741,-0.046919 -0.037042,-0.066675 -0.028046,-0.019756 -0.044538,-0.037042 -0.049477,-0.051858 -0.024694,0.00653 -0.037835,0.02046 -0.039423,0.041804 l 0.00503,0.027252 0.00476,0.032015 c 0,0.016581 -0.010583,0.02981 -0.03175,0.039688 -0.018344,-0.00494 -0.029986,-0.030515 -0.034925,-0.076729 0,-0.047625 -0.022225,-0.067381 -0.066675,-0.059267 -0.00317,0.021518 -0.00891,0.038806 -0.017198,0.051858 -0.00829,0.013229 -0.021518,0.016581 -0.039688,0.010054 l 0.00529,-0.027252 -0.010054,-0.046831 -0.00741,-0.056885 0.00741,-0.037042 c 0.00494,-0.00988 0.019756,-0.021344 0.04445,-0.034396 l -0.00238,-0.03466 0.00265,-0.039688 c 0,-0.026281 -0.010761,-0.045156 -0.032279,-0.056621 h -0.039688 l 0.015081,-0.042069 c 0.00494,-0.011464 0.013142,-0.018079 0.024606,-0.019844 l -0.012435,-0.083873 c -0.00159,-0.026458 -0.00485,-0.049477 -0.00979,-0.069056 -0.00335,-0.019756 -0.00908,-0.037042 -0.017198,-0.051858 0.014817,0 0.027164,-0.00582 0.037042,-0.017463 0.011464,-0.013052 0.019666,-0.027869 0.024606,-0.04445 -0.00177,-0.017992 7.144e-4,-0.044274 0.00741,-0.078846 0.00988,-0.029633 0.014817,-0.051064 0.014817,-0.064294 0,-0.014817 -0.00326,-0.02884 -0.00979,-0.042069 l -0.024871,-0.034396 c 0.018169,-0.014817 0.027252,-0.033779 0.027252,-0.056885 0,-0.011464 -0.0082,-0.032896 -0.024606,-0.064294 l -0.024871,-0.059267 c 0,-0.019756 0.011554,-0.038629 0.03466,-0.056621 -0.00335,-0.00494 -0.013229,-0.00908 -0.029633,-0.012435 l -0.022225,0.024606 v -0.039158 c 0.014817,0 0.025487,-0.00653 0.032015,-0.019579 l 0.019844,-0.04445 -0.029633,-0.061913 c 0.00988,-0.00811 0.017285,-0.023725 0.022225,-0.046831 0.00494,-0.022931 0.014817,-0.04101 0.029633,-0.05424 l -0.017198,-0.032279 c -0.00494,-0.016404 -0.014023,-0.027869 -0.027252,-0.034396 l -0.051858,0.014817 c 0,-0.00829 0.011464,-0.026458 0.034396,-0.054504 0.024694,-0.027869 0.038806,-0.048419 0.042333,-0.061648 0,-0.014817 -0.010761,-0.030427 -0.032279,-0.046831 l -0.00238,-0.081492 -0.00503,-0.061913 c 0,-0.024694 0.00246,-0.04445 0.00741,-0.059267 l -0.00979,-0.046831 -0.00238,-0.046831 c 0,-0.083961 0.023019,-0.1564568 0.069056,-0.2174874 0.026458,0.00335 0.055298,-0.00732 0.086519,-0.032015 0.031221,-0.026458 0.055915,-0.041275 0.074083,-0.04445 0.021344,0 0.043568,0.014023 0.066675,0.042069 0.00829,-0.00177 0.022312,-0.016581 0.042069,-0.04445 0.019756,-0.023106 0.037042,-0.036336 0.051858,-0.039687 0.011464,0 0.027076,0.00741 0.046831,0.022225 0.019756,0 0.037835,-0.013936 0.05424,-0.041804 0.016581,-0.029633 0.034749,-0.046126 0.054504,-0.049477 0.016404,0 0.031221,0.00415 0.04445,0.012435 0.00494,-0.00988 0.011464,-0.015698 0.019579,-0.017463 l 0.064294,0.027252 -0.00741,0.024606 c 0,0.013229 0.00908,0.024783 0.027252,0.03466 0.013052,0.00335 0.032808,0.00503 0.059267,0.00503 l 0.022225,-0.034396 -0.047096,-0.017462 c -0.013052,-0.0067 -0.022048,-0.018169 -0.026987,-0.034396 l 0.022225,-0.00529 c 0.014817,0 0.034572,0.00582 0.059267,0.017463 l 0.05424,0.014817 c 0.011464,0 0.024694,-0.00494 0.039688,-0.014817 v 0.074083 l 0.026987,0.00741 c 0.014817,0 0.033779,-0.014023 0.056885,-0.042069 0.019756,-0.029633 0.03616,-0.04445 0.049212,-0.04445 0.014817,0 0.034572,0.014817 0.059267,0.04445 l 0.056885,-0.00979 h 0.037042 l 0.024606,-0.00265 -0.0889,0.047096 0.098954,0.039688 c 0.011464,0 0.023813,-0.00415 0.037042,-0.012435 0,0.027869 0.023019,0.047625 0.069056,0.059267 0.047625,0.011464 0.080521,0.029545 0.09869,0.05424 0.041275,0.019756 0.076729,0.041981 0.1063625,0.066675 0.029633,0.024693 0.056797,0.056797 0.081492,0.096308 z m -1.5753292,1.089025 -0.017463,-0.049477 h 0.017463 z m 1.5086542,0.029633 -0.051858,-0.012435 c 0.00494,-0.014817 0.00988,-0.025487 0.014817,-0.032015 0.0067,-0.00829 0.01411,-0.01411 0.022225,-0.017462 0.00988,0 0.014817,0.010761 0.014817,0.032279 z m -0.1135063,0.3825875 -0.00238,0.029633 c 0,0.013229 -0.00326,0.020638 -0.00979,0.022225 l -0.017462,-0.051858 z m -0.205052,0.3286125 c -0.022931,0 -0.039335,-0.013229 -0.049212,-0.039688 l 0.049212,-0.012171 z M 6.1772271,4.9506274 c -0.00653,-0.00653 -0.00811,-0.013936 -0.00476,-0.022225 h -0.022225 v 0.03466 c 0.013052,0 0.022048,-0.00415 0.026987,-0.012435 z m 0.2026708,0.039688 v -0.049477 h -0.054504 c -0.013052,0.014817 -0.012171,0.027164 0.00265,0.037042 0.014639,0.00988 0.031838,0.014023 0.051594,0.012435 z m -0.054504,0.1137708 -0.00238,-0.027517 c 0,-0.017992 -0.00326,-0.029457 -0.00979,-0.034396 v 0.061648 z m 0.333375,0.061383 c -0.00317,-0.00317 -0.013052,-0.00644 -0.029633,-0.00979 v 0.039687 c 0.00988,-0.0067 0.018169,-0.014994 0.024871,-0.024871 0,-0.00159 0.00159,-0.00326 0.00476,-0.00503 z m -0.1653646,0 -0.027252,0.069321 h 0.017462 l 0.022225,-0.054504 c -0.00494,-0.00988 -0.00908,-0.014817 -0.012436,-0.014817 z m 0.1754188,0.1534583 v -0.052123 c 0,-0.021344 -0.011554,-0.032015 -0.03466,-0.032015 l -0.014817,0.1010708 c 0.00829,0.00494 0.018169,0.00335 0.029633,-0.00476 z m 0,0.068792 c -0.018169,0 -0.031397,0.00741 -0.039687,0.022225 h 0.029633 z m -0.074083,0.032279 h -0.027252 v 0.029633 l 0.022225,-0.00503 c 0.00494,0 0.00741,-0.00167 0.00741,-0.00503 0.00159,-0.00494 7.938e-4,-0.011464 -0.00238,-0.019579 z m -0.1013355,0.051858 v 0.026987 h 0.022225 l 0.00979,-0.00979 c -0.00159,-0.00988 -0.012258,-0.015611 -0.032015,-0.017197 z m -0.07911,0.1137709 v -0.047096 l 0.00265,-0.049477 c 0,-0.042863 -0.00415,-0.075759 -0.012436,-0.09869 -0.0067,-0.024694 -0.02399,-0.048507 -0.051858,-0.071438 -0.028046,-0.010054 -0.05274,-0.025752 -0.074083,-0.047096 -0.021519,-0.021519 -0.034749,-0.043744 -0.039688,-0.066675 0,0.024693 -0.00326,0.037923 -0.00979,0.039688 -0.00335,-0.019931 -0.012435,-0.034837 -0.027252,-0.044715 -0.013052,-0.011464 -0.029457,-0.018079 -0.049213,-0.019844 -0.016581,0 -0.030604,0.00829 -0.042069,0.024871 l -0.081492,-0.029633 c -0.018169,-0.00829 -0.036248,-0.024783 -0.05424,-0.049477 -0.00988,-0.00494 -0.019756,-0.00415 -0.029633,0.00238 -0.00988,0.00494 -0.017285,0.014023 -0.022225,0.027252 -0.013229,0.013052 -0.028046,0.021254 -0.04445,0.024606 -0.014817,0 -0.036248,-0.013229 -0.064294,-0.039688 -0.024693,-0.027869 -0.041187,-0.04348 -0.049477,-0.046831 l -0.041804,0.059267 c -0.013229,0.028046 -0.031397,0.049477 -0.054504,0.064294 l 0.010054,0.039688 -0.010054,0.044185 -0.00741,0.047096 0.00741,0.032015 0.039688,-0.051858 c 0.019756,-0.022932 0.031221,-0.046743 0.034396,-0.071438 l 0.012435,0.019579 0.014817,0.019844 c -0.011464,0.00653 -0.022931,0.016404 -0.034396,0.029633 l -0.010054,0.032015 c 0,0.013229 0.00988,0.035454 0.029633,0.066675 0.019756,0.031221 0.029633,0.053446 0.029633,0.066675 0,0.018169 -0.018079,0.032191 -0.05424,0.042069 0.00494,-0.00988 0.011464,-0.015698 0.019579,-0.017462 l 0.032279,0.017462 c 0.00988,0.00988 0.018079,0.023813 0.024606,0.041804 l 0.00741,0.047096 -0.00503,0.069056 -0.00476,0.051858 c 0.022932,0.00653 0.036865,0.032103 0.041804,0.076729 0,0.041099 0.012348,0.066587 0.037042,0.076465 0,-0.036336 0.00661,-0.058561 0.019844,-0.066675 0.014817,-0.00988 0.034572,-0.014817 0.059267,-0.014817 h 0.032015 c 0.016581,0 0.02981,-0.00246 0.039688,-0.00741 0.011464,-0.0067 0.019666,-0.020725 0.024606,-0.042069 l 0.024606,0.00503 c 0.018169,0 0.039599,-0.017285 0.064294,-0.051858 0.021344,-0.036336 0.046037,-0.054504 0.074083,-0.054504 l -0.00238,0.037042 0.00741,0.066675 0.00741,0.061913 -0.00503,0.037042 h 0.022225 v -0.010054 c 0.00494,-0.029633 0.021431,-0.046919 0.049477,-0.051858 0.00494,-0.00653 0.00908,-0.017111 0.012435,-0.03175 0,-0.026458 -0.013229,-0.042157 -0.039687,-0.047096 l -0.00979,-0.042069 c 0,-0.026458 0.0082,-0.051153 0.024606,-0.074083 l 0.051858,-0.071438 0.03466,0.039423 c 0.00653,0.00653 0.019756,0.009 0.039687,0.00741 z M 5.6636708,5.5385315 c 0.00494,-0.00988 0.00167,-0.019756 -0.00979,-0.029633 l -0.024871,-0.019844 -0.017198,0.022225 c 0.00988,0.026458 0.027164,0.035542 0.051859,0.027252 z m 0.955675,0.046831 v -0.012435 c -0.00494,-0.00988 -0.012348,-0.012348 -0.022225,-0.00741 -0.00653,0.00353 -0.010671,0.010142 -0.012435,0.019844 z m -1.000125,0.00503 h -0.029633 v 0.029633 c 0,0.014817 0.00741,0.022225 0.022225,0.022225 0.00653,-0.0067 0.00979,-0.013316 0.00979,-0.019844 z m 0.9088438,0.1010708 c 0,-0.013052 -0.00415,-0.022048 -0.012435,-0.026987 v 0.039687 z m -0.7977188,0.012435 c -0.00494,-0.026458 -0.014023,-0.040481 -0.027252,-0.042069 -0.013052,0 -0.026194,0.010761 -0.039423,0.032279 -0.011464,0.021344 -0.01561,0.041099 -0.012435,0.059267 0.00335,0.00494 0.00582,0.010671 0.00741,0.017198 0.00335,0.00653 0.0067,0.016404 0.010054,0.029633 0.00317,0.011464 0.014639,0.017198 0.034396,0.017198 l -0.00238,-0.04445 c 0,-0.016404 -0.00326,-0.032015 -0.00979,-0.046831 0.016404,-0.016404 0.029633,-0.023813 0.039688,-0.022225 z m -0.1629833,0.034396 h -0.017198 l 0.012171,0.027252 z m 0.2248958,0.1905 c 0.00476,-0.011642 0.0014,-0.019931 -0.010054,-0.024871 l -0.029633,-0.014817 c -0.011464,0.00829 -0.018079,0.019756 -0.019844,0.034396 l 0.010054,0.017462 0.032015,-0.00238 c 0.00988,-0.00335 0.01561,-0.00661 0.017198,-0.00979 z m 0.078846,0.064029 -0.014817,-0.064294 0.00979,0.069321 z m -0.1801812,0.049477 v -0.049477 h -0.022225 z m 0.5482167,-0.049477 -0.012435,0.024606 c -0.00494,0.011642 -0.00415,0.019931 0.00238,0.024871 z m -0.7112,0.049477 v -0.034396 c -0.0067,-0.00847 -0.011642,-0.0127 -0.014817,-0.0127 l -0.024871,-0.00238 -0.022225,0.027252 c -0.00494,0.00829 -0.00159,0.015698 0.010054,0.022225 z M 5.641446,6.1433711 v -0.022225 c -0.00988,-0.00653 -0.017285,-0.00979 -0.022225,-0.00979 H 5.602023 c -0.00494,0.00988 -0.00246,0.018079 0.00741,0.024606 z m -0.1137708,0.00741 h -0.012171 c -0.011464,0.00494 -0.018079,0.015698 -0.019844,0.032279 0,0.014817 0.00494,0.024694 0.014817,0.029633 z M 6.4836146,6.30159 6.4934046,6.279365 6.4762066,6.22248 c -0.00988,0.013229 -0.014817,0.028046 -0.014817,0.04445 0,0.014817 0.00741,0.026281 0.022225,0.034396 z M 5.6808687,6.29656 h -0.029633 l -0.00979,0.07911 h 0.027252 z m 0.8519584,0.1084792 v -0.051594 c -0.00811,-0.00335 -0.013846,-0.00503 -0.017198,-0.00503 v 0.056885 z M 5.5379937,6.3137607 h -0.02249 l -0.00741,0.066675 -0.00979,0.051858 c 0,0.019756 0.00988,0.038717 0.029633,0.056885 0.014817,-0.014817 0.022225,-0.033779 0.022225,-0.056885 z m 0.9059334,0.2026708 0.00529,-0.032279 c 0,-0.027869 -0.011642,-0.064911 -0.034925,-0.111125 -0.00653,-0.016404 -0.013052,-0.035278 -0.019579,-0.056621 -0.0067,-0.022931 -0.011642,-0.041098 -0.014817,-0.054504 l -0.054504,0.00741 c -0.027869,0 -0.052564,-0.0082 -0.074083,-0.024606 l 0.00265,-0.029633 0.00714,-0.019844 c -0.016404,-0.00494 -0.032808,0.00167 -0.049213,0.019844 -0.016582,0.016404 -0.02981,0.026281 -0.039688,0.029633 -0.024694,-0.00494 -0.045244,-0.023019 -0.061648,-0.05424 -0.014817,-0.032985 -0.032103,-0.051946 -0.051858,-0.056885 l 0.012435,0.049477 c -0.028046,0.014817 -0.050271,0.022225 -0.066675,0.022225 -0.011642,0 -0.018256,-0.00829 -0.019844,-0.024871 l 0.00741,-0.046831 0.00741,-0.056885 c 0,-0.021167 -0.0082,-0.04004 -0.024606,-0.056621 0.014817,-0.014817 0.022225,-0.034572 0.022225,-0.059267 0,-0.00335 -0.00167,-0.00582 -0.00503,-0.00741 -0.00159,-0.00335 -0.00326,-0.00582 -0.00503,-0.00741 -0.00159,0.00159 -0.00485,0.00406 -0.00979,0.00741 -0.00494,0.00159 -0.013142,0.009 -0.024606,0.022225 -0.011642,0.011464 -0.017463,0.027958 -0.017463,0.049477 0,0.014817 0.00335,0.031221 0.010054,0.049213 l 0.029633,0.046831 c 0,0.019757 -0.013229,0.030515 -0.039688,0.032279 h -0.039423 c -0.014817,0 -0.024694,0.00988 -0.029633,0.029633 -0.00988,-0.00988 -0.019757,-0.025577 -0.029633,-0.047096 l -0.00503,-0.041804 -0.049213,0.056621 c 0.014817,0.014817 0.022225,0.030515 0.022225,0.047096 0,0.00829 -0.012348,0.0239 -0.037042,0.046831 -0.024694,0.019756 -0.037042,0.038717 -0.037042,0.056885 0.00988,0.00988 0.027958,0.014817 0.05424,0.014817 l 0.046831,-0.00265 v 0.034925 c 0,0.019756 -0.00573,0.029633 -0.017198,0.029633 -0.024693,0 -0.039511,0.00326 -0.04445,0.00979 0.03616,0.014817 0.05424,0.03616 0.05424,0.064029 l -0.014817,0.054504 -0.012171,0.051858 0.00741,0.032015 c 0.014817,0.013229 0.022225,0.026458 0.022225,0.039688 0,0.011464 -0.00661,0.026194 -0.019844,0.044185 l -0.017198,0.039687 c 0,0.014817 0.010671,0.028046 0.032015,0.039688 -0.011464,0.01129 -0.022138,0.019402 -0.032015,0.024342 -0.00988,0.00494 -0.012348,0.015698 -0.00741,0.032279 0.00811,0.00653 0.015523,0.016404 0.022225,0.029633 0.00653,0.011464 0.00979,0.024694 0.00979,0.039688 l -0.00741,0.053975 c -0.00494,0.023106 -0.00573,0.040393 -0.00238,0.051858 0.014817,-0.00988 0.026281,-0.014817 0.034396,-0.014817 0.010054,0 0.015875,0.011554 0.017462,0.03466 v 0.039688 c 0,0.027869 0.00494,0.045949 0.014817,0.05424 0.016404,0 0.028752,0.00159 0.037042,0.00476 h 0.037042 c 0.065793,0 0.1266473,-0.013142 0.1825625,-0.039423 0.056092,-0.028046 0.1046869,-0.067557 0.1457854,-0.1185333 0.019756,-0.013229 0.037042,-0.032985 0.051858,-0.059267 l 0.039688,-0.081492 c 0,-0.013229 0.00246,-0.026458 0.00741,-0.039687 0.00653,-0.014639 0.02046,-0.02196 0.041804,-0.02196 l -0.00238,-0.014817 v -0.012435 c 0,-0.018169 0.00741,-0.046126 0.022225,-0.083873 l 0.024871,-0.071438 c 0,-0.014994 -0.00494,-0.029898 -0.014817,-0.044715 z M 5.7525708,6.5063775 c -0.00829,-0.00653 -0.014904,-0.010583 -0.019844,-0.012171 -0.00494,-0.00177 -0.009,-0.00344 -0.012171,-0.00503 l 0.022225,0.061648 -0.019844,0.032279 c -0.00829,0.017992 -0.022312,0.024519 -0.042069,0.019579 l -0.00238,0.071702 0.00741,0.086519 c 0.00494,0.024694 0.016491,0.048507 0.03466,0.071438 0,-0.029633 0.00326,-0.050183 0.00979,-0.061648 -0.014817,-0.00988 -0.025487,-0.021344 -0.032015,-0.034396 l -0.00979,-0.032279 c 0,-0.013229 0.012348,-0.036248 0.037042,-0.069056 0.024694,-0.034572 0.037042,-0.063412 0.037042,-0.086519 0,-0.014817 -0.00335,-0.02884 -0.010054,-0.042069 z M 5.5377291,6.857215 5.5475191,6.802711 c 0,-0.031221 -0.012348,-0.045156 -0.037042,-0.041804 -0.013052,0.00811 -0.022048,0.019579 -0.026987,0.034396 -0.00494,0.013229 -0.00741,0.033867 -0.00741,0.061913 z m 0.2667,0.1677457 -0.012435,-0.017198 -0.00979,0.017198 z m -0.2936875,0.074083 -0.00265,-0.039423 c 0,-0.029633 -0.00326,-0.050183 -0.00979,-0.061648 l -0.019844,0.069056 c 0,0.013229 0.00335,0.0239 0.010054,0.032015 z m -1.9176999,-1.0374309 -0.012435,0.00503 c -0.00653,-0.00177 -0.00653,-0.012523 0,-0.032279 l 0.012435,-0.034396 0.012435,0.026988 z m 0.9532937,0 c 0,0.00988 -8.731e-4,0.018079 -0.00265,0.024606 0,0.00494 -7.144e-4,0.00988 -0.00212,0.014817 l -0.010054,-0.051858 z m 0.5926667,1.4001751 -0.042069,0.042069 c -0.00988,0.013052 -0.016491,0.028663 -0.019844,0.046831 -0.00318,-0.00335 -0.00723,-0.022312 -0.012171,-0.056885 0,-0.029633 -0.00908,-0.046038 -0.027252,-0.049212 l -0.024606,0.00741 c -0.024694,0.021344 -0.041187,0.049301 -0.049477,0.083873 l -0.037042,0.00979 c -0.024694,0 -0.046919,-0.017285 -0.066675,-0.051858 l -0.049477,-0.096308 c 0.00494,-0.024693 -0.00246,-0.056797 -0.022225,-0.096308 -0.017992,-0.039511 -0.026988,-0.070732 -0.026988,-0.093663 -0.036336,-0.00988 -0.058561,-0.04445 -0.066675,-0.1037167 0,-0.057679 -0.021431,-0.094721 -0.064294,-0.111125 0,-0.049389 -0.017285,-0.098778 -0.051858,-0.1481666 L 4.4770146,6.6987294 c -0.014817,0.00494 -0.029633,0.00415 -0.04445,-0.00238 -0.013052,-0.00653 -0.027869,-0.018873 -0.04445,-0.037042 -0.021344,0.00829 -0.045156,0.012435 -0.071438,0.012435 -0.024694,0 -0.053534,-0.00415 -0.086519,-0.012435 l -0.083873,-0.012435 c -0.029633,0 -0.058473,0.00829 -0.086519,0.024871 l -0.00741,-0.024871 c -0.00494,-0.00988 -0.00908,-0.016404 -0.012435,-0.019579 -0.059267,0.014817 -0.1012473,0.059267 -0.1259416,0.13335 L 3.879583,6.9532601 C 3.859827,6.9285661 3.845011,6.8980502 3.835133,6.8617141 l 0.00979,0.017463 c 0.011464,0.00494 0.019667,0.00406 0.024606,-0.00265 l 0.014817,-0.024606 c 0,-0.019756 -0.00988,-0.045332 -0.029633,-0.076729 -0.017992,-0.031044 -0.026988,-0.052388 -0.026988,-0.064029 0,-0.019757 0.017285,-0.037042 0.051858,-0.051858 0,-0.014817 -0.00335,-0.025487 -0.010054,-0.032015 -0.017992,0 -0.033602,0.00494 -0.046831,0.014817 l -0.04445,0.056885 c 0.011464,0.019756 0.017198,0.042686 0.017198,0.068792 0,0.014994 -7.937e-4,0.026635 -0.00238,0.034925 -0.00159,0.00811 -0.00732,0.027869 -0.017198,0.059267 L 3.75867,6.9532571 c 0,0.037923 0.019757,0.071702 0.059267,0.1013354 L 3.766079,7.2199586 c -0.00988,0.039511 -0.034572,0.079022 -0.074083,0.1185333 -0.011642,-0.024693 -0.026458,-0.038717 -0.04445,-0.042069 -0.00494,0.00177 -0.010761,0.00423 -0.017463,0.00741 -0.00653,0.00335 -0.017198,0.010761 -0.032014,0.022225 -0.014817,0.00988 -0.031309,0.016491 -0.049477,0.019844 -0.014817,0 -0.030427,-0.00908 -0.046831,-0.027252 L 3.474509,7.3583369 H 3.452283 v -0.019845 c -0.013052,0.00988 -0.026987,0.015611 -0.041804,0.017198 -0.014817,0 -0.028046,-0.018079 -0.039687,-0.05424 L 3.348566,7.2347749 3.388253,7.2175769 C 3.383313,7.205935 3.370084,7.1911189 3.348566,7.173127 3.328809,7.1533699 3.318933,7.1352029 3.318933,7.1186229 c 0,-0.00988 0.00335,-0.021344 0.010054,-0.034396 l 0.019579,-0.047096 c 0.00494,-0.00811 0.022225,-0.018785 0.051858,-0.032015 0.00829,0.00653 0.021519,0.013142 0.039687,0.019844 0.019756,-0.014817 0.029633,-0.031309 0.029633,-0.049477 0,-0.014817 -0.00829,-0.034572 -0.024871,-0.059267 C 3.430056,6.8897579 3.422648,6.8692079 3.422648,6.8545679 L 3.430058,6.8273159 3.45731,6.7064015 C 3.46719,6.6339055 3.495145,6.5943945 3.541183,6.587868 L 3.50176,6.53601 C 3.49188,6.521193 3.486943,6.5054951 3.486943,6.488914 c 0,-0.00988 0.00494,-0.024694 0.014817,-0.04445 L 3.454928,6.395252 C 3.441699,6.3770831 3.435084,6.3589161 3.435084,6.340748 c 0,-0.013052 0.00167,-0.022048 0.00503,-0.026987 0.03616,0 0.070732,-0.017285 0.1037167,-0.051858 L 3.6030977,6.19999 V 6.160567 c 0.011464,0 0.02046,7.937e-4 0.026987,0.00238 l 0.042333,0.00979 c 0.013052,0 0.023635,-0.00741 0.03175,-0.022225 l 0.012435,-0.039688 0.00265,-0.034396 c 0,-0.022932 -0.0075,-0.051682 -0.02249,-0.086254 l -0.04445,-0.1137708 0.064294,0.010054 c 0.00494,-0.00988 0.00494,-0.019756 0,-0.029633 l -0.022225,-0.03466 c 0.00494,-0.011464 0.009,-0.019667 0.012171,-0.024606 l 0.059267,-0.03466 -0.04445,-0.04445 c -0.014817,-0.014817 -0.029633,-0.019756 -0.04445,-0.014817 l 0.010054,-0.064294 c 0,-0.029633 0.00159,-0.052652 0.00476,-0.069056 h 0.024871 c 0,0.014817 -0.00335,0.026281 -0.010054,0.034396 0.00829,0.00829 0.020638,0.01411 0.037042,0.017462 0.016581,0 0.035542,-0.00661 0.056885,-0.019844 l 0.04445,-0.022225 c 0.00494,-0.00829 0.00741,-0.014023 0.00741,-0.017198 l 0.00503,-0.032015 -0.022225,-0.010054 -0.034396,0.022225 c -0.014994,0.014817 -0.029898,0.018169 -0.044715,0.010054 l 0.00979,-0.066675 0.010054,-0.069321 c 0,-0.021344 -0.00335,-0.038629 -0.010054,-0.051858 0.00353,-0.00318 0.012613,-0.00476 0.027252,-0.00476 0.00829,0 0.016491,0.00988 0.024606,0.029633 l -0.017198,0.029633 c -0.00494,0.00653 -0.00326,0.013052 0.00503,0.019579 0.021344,-0.00988 0.03616,-0.019756 0.04445,-0.029633 0.00988,-0.011464 0.014817,-0.023813 0.014817,-0.037042 0,-0.011464 -0.00573,-0.029545 -0.017198,-0.05424 l -0.017463,-0.061648 c 0,-0.011642 8.732e-4,-0.020725 0.00265,-0.027252 0.00318,-0.00829 0.011377,-0.018963 0.024606,-0.032015 l -0.00265,-0.03466 c 0,-0.011464 -0.00653,-0.02055 -0.019579,-0.027252 l -0.019844,0.00741 -0.019844,0.00503 0.086519,-0.1431396 c 0.024694,-0.037924 0.057591,-0.056885 0.09869,-0.056885 0,-0.024694 0.00829,-0.037924 0.024871,-0.039687 l 0.041804,0.012435 c 0.019757,0.00494 0.037042,0.00582 0.051858,0.00265 0.029633,0.039335 0.062618,0.059002 0.098954,0.059002 0.016404,0 0.031221,-0.00326 0.04445,-0.00979 0.00494,0.00653 0.00406,0.01561 -0.00265,0.027252 l -0.017198,0.022225 c 0.023106,0.00159 0.040393,0.010583 0.051858,0.026988 0.011642,0.016581 0.017463,0.038806 0.017463,0.066675 l -0.00265,0.049477 -0.00212,0.049477 -0.022225,0.071438 c 0,0.011642 0.00326,0.021518 0.00979,0.029633 0.019757,0.00494 0.036248,0.014817 0.049477,0.029633 l 0.051858,0.084137 -0.010054,0.066675 c 0,0.032808 0.00582,0.077258 0.017463,0.13335 l 0.022225,0.093662 c -0.00335,0.00829 -0.00257,0.020638 0.00238,0.037042 0.00494,0.014817 0.013936,0.023106 0.026987,0.024871 0.011642,-0.00494 0.01905,-0.00908 0.022225,-0.012435 l 0.010054,-0.00979 c -0.00988,0.017992 -0.014817,0.038541 -0.014817,0.061648 0,0.019757 0.00573,0.047713 0.017198,0.083873 l 0.017198,0.074083 c 0,0.026458 -0.00653,0.048683 -0.019579,0.066675 0.017992,0.011642 0.031926,0.049565 0.041804,0.1137708 0.0067,0.059267 0.01905,0.090488 0.037042,0.093662 0.013229,0 0.029721,-0.009 0.049477,-0.026987 h 0.012435 l 0.00476,0.029633 c 0,0.021344 -0.00653,0.042686 -0.019579,0.064029 -0.013229,0.019756 -0.028928,0.036248 -0.047096,0.049477 0.0067,0.00494 0.012523,0.0082 0.017462,0.00979 0.00494,0.00177 0.009,0.00344 0.012171,0.00503 0.019756,0 0.034572,-0.00167 0.04445,-0.00503 0.026458,0 0.051153,0.020637 0.074083,0.061913 0.022931,0.041098 0.040217,0.063324 0.051858,0.066675 0.013229,0 0.029721,-0.018169 0.049477,-0.054504 0,0.028046 0.021431,0.054416 0.064294,0.07911 0.03616,0.019756 0.05424,0.050183 0.05424,0.091281 -0.014817,0 -0.033778,-0.014817 -0.056885,-0.04445 -0.022931,-0.029633 -0.04101,-0.046038 -0.05424,-0.049213 -0.014817,0 -0.032896,0.013142 -0.05424,0.039423 0,0.014817 0.0082,0.031309 0.024606,0.049477 l 0.024606,0.034396 c 0,0.00988 -0.009,0.019756 -0.026987,0.029633 h -0.022219 c 0,-0.029633 -0.00582,-0.049389 -0.017462,-0.059267 h -0.022225 l -0.00741,0.032279 c 0,0.016404 0.00415,0.032015 0.012435,0.046831 l 0.034396,0.032015 0.012435,-0.012171 c 0.018169,0.00653 0.028928,0.018873 0.032279,0.037042 l -0.012435,0.03175 -0.00979,0.032279 c 0,0.013229 0.00988,0.024693 0.029633,0.034396 0.027869,-0.00476 0.039335,-0.025223 0.034396,-0.061383 0.0067,0.042686 0.015788,0.079728 0.027252,0.111125 0.011464,0.031221 0.032015,0.069056 0.061648,0.1135062 l -0.00979,0.00503 c 0.028046,0.014817 0.05274,0.053446 0.074083,0.1158875 0.022931,0.059267 0.052564,0.096308 0.0889,0.111125 0,0.028046 0.00908,0.062618 0.027252,0.1037167 0.019756,0.042863 0.031221,0.076641 0.034396,0.1013354 z M 3.3782,6.7778399 c -0.011464,0.00811 -0.021344,0.012171 -0.029633,0.012171 L 3.373173,6.760378 c 0.0067,0.00353 0.00838,0.00935 0.00503,0.017462 z M 3.328723,6.9011357 h -0.00979 v -0.039423 h 0.00979 z m 0.019844,0.074083 H 3.29909 l 0.010054,-0.04445 0.029633,0.014817 c 0.00988,0.00494 0.013142,0.014817 0.00979,0.029633 z M 3.29909,7.2297479 3.284273,7.2519729 3.269456,7.269171 c -0.013052,0 -0.021254,-0.00741 -0.024606,-0.022225 0,-0.011464 0.00494,-0.021344 0.014817,-0.029633 0.024694,0 0.037924,0.00415 0.039688,0.012435 z m 0.5310187,0 -0.00741,0.04445 c -0.00159,0.011464 -0.00732,0.022931 -0.017198,0.034396 -0.00494,-0.00494 -0.00741,-0.011464 -0.00741,-0.019579 0,-0.024694 0.010671,-0.04445 0.032014,-0.059267 z m -0.5408083,0.0889 -0.00238,0.019579 c -0.00494,0.0067 -0.00908,0.010054 -0.012436,0.010054 H 3.2596674 V 7.318648 Z m 0.5953125,-2.26695 c -0.014994,0.00494 -0.023283,0.01561 -0.024871,0.032015 l 0.00979,0.017198 h 0.010054 l 0.00979,-0.024606 c 0.00653,-0.011464 0.00485,-0.019667 -0.00503,-0.024606 z m 0.1553104,0.061648 v -0.012435 h -0.019579 v 0.012435 z m 0.010054,0.4788959 v -0.083873 c -0.018169,-0.00159 -0.032191,0.012523 -0.042069,0.042333 -0.00653,0.027869 -0.023019,0.041804 -0.049477,0.041804 l -0.00979,0.046831 c 0.00829,0.00988 0.015698,0.014817 0.022225,0.014817 l 0.019844,-0.034396 c 0.011464,-0.019931 0.023813,-0.031485 0.037042,-0.03466 z m -0.2148417,0.091546 c -0.00335,-0.013229 -0.00997,-0.0239 -0.019844,-0.032015 -0.00988,-0.00829 -0.019756,-0.010761 -0.029633,-0.00741 v 0.069056 c 0.011464,-0.00653 0.02055,-0.00979 0.027252,-0.00979 0.014817,0 0.022225,-0.00661 0.022225,-0.019844 z M 4.4278021,5.8962482 4.4177479,5.8221649 C 4.3849396,5.8055834 4.3635964,5.766867 4.3537187,5.7060128 l -0.010054,-0.096308 c -0.021167,0.00829 -0.03175,0.019756 -0.03175,0.034396 0,0.011642 0.00653,0.028134 0.019579,0.049477 0.013052,0.019756 0.019579,0.035454 0.019579,0.047096 0,0.00811 -0.00494,0.018785 -0.014817,0.032015 l 0.032279,0.091281 c 0.00653,0.021519 0.026281,0.032279 0.059267,0.032278 z M 3.9486417,5.797294 V 5.782477 h -0.017198 v 0.014817 z m -0.064294,0.1383771 c -0.00494,-0.011464 -0.013142,-0.018079 -0.024606,-0.019844 -0.011464,0.0067 -0.018873,0.013317 -0.022225,0.019844 l -0.00741,0.042069 c 0.00988,0.014817 0.026371,0.022225 0.049477,0.022225 l 0.00979,-0.024871 z m 0.5606521,0.051858 v -0.022225 c -0.00494,-0.00829 -0.013142,-0.00908 -0.024606,-0.00238 -0.0067,0.00494 -0.00759,0.013142 -0.00265,0.024606 z M 4.3042417,6.4172128 c 0.00988,-0.032985 0.014817,-0.063412 0.014817,-0.091281 0,-0.051153 -0.023813,-0.1318506 -0.071438,-0.2420937 -0.047801,-0.1120069 -0.072496,-0.174625 -0.074083,-0.1878542 -0.0067,-0.00811 -0.012523,-0.033602 -0.017463,-0.076465 0,-0.041099 -0.01561,-0.061648 -0.046831,-0.061648 -0.014817,0.018169 -0.028839,0.039599 -0.042069,0.064294 -0.00653,0.013052 -0.00979,0.026987 -0.00979,0.041804 0,0.00988 7.938e-4,0.017285 0.00238,0.022225 h 0.03969 c 0.016227,0.00494 0.024342,0.025577 0.024342,0.061913 -0.00653,0.00988 -0.018873,0.016404 -0.037042,0.019579 l -0.046831,-0.00238 -0.017198,0.017463 -0.00265,0.017198 c 0.00829,0.00494 0.018256,0.00494 0.029898,0 l 0.022225,-0.00979 c 0.00988,0.00653 0.01561,0.013052 0.017198,0.019579 0.00335,0.019756 -0.00653,0.029633 -0.029633,0.029633 -0.019756,0 -0.034572,0.00494 -0.04445,0.014817 l -0.00979,0.024871 c 0.00159,0.00494 0.00406,0.00988 0.00741,0.014817 0.00318,0.00318 0.010583,0.00891 0.022225,0.017198 0.011464,0.00829 0.019667,0.018169 0.024606,0.029633 0,0.011464 -0.0082,0.019667 -0.024606,0.024606 -0.016404,0.00494 -0.028751,0.00988 -0.037042,0.014817 0.00159,0.00829 0.00979,0.014904 0.024606,0.019844 0.013229,0.00159 0.022312,0.00653 0.027252,0.014817 -0.014817,0 -0.027164,0.00741 -0.037042,0.022225 -0.00829,0.013229 -0.017375,0.022312 -0.027252,0.027252 -0.00494,0.041098 0.010671,0.074789 0.046831,0.1010709 0.036336,0 0.069321,8.731e-4 0.098954,0.00265 0.029633,0.00177 0.058385,0.00582 0.086254,0.012171 0.029633,0.00653 0.058473,0.018873 0.086519,0.037042 z M 3.9311792,6.1703565 v -0.010054 l -0.012171,-0.00979 z m -0.2246313,0.04445 c -0.013052,0 -0.026194,0.009 -0.039423,0.026987 -0.011464,0.018169 -0.019667,0.038806 -0.024606,0.061913 0.00318,0.00494 0.00564,0.00988 0.00741,0.014817 0.00317,0.00494 0.00564,0.012348 0.00741,0.022225 0.00159,0.00988 0.00979,0.014817 0.024606,0.014817 l 0.00979,-0.076729 z m 0.059267,0.372798 c 0.00494,-0.011464 8.731e-4,-0.019666 -0.012171,-0.024606 -0.013052,-0.00494 -0.02046,-0.00829 -0.022225,-0.010054 l -0.00503,-0.00476 c -0.014817,0 -0.022225,0.00573 -0.022225,0.017198 0,0.00988 0.00908,0.0239 0.027252,0.042069 l 0.019579,-0.00503 z m -0.1135063,0.083873 v -0.074083 h -0.019844 c -0.011464,0.00177 -0.017992,0.013317 -0.019579,0.03466 v 0.039688 z m -0.0889,0.054504 c -0.00335,-0.00335 -0.0075,-0.019844 -0.012435,-0.049477 0,-0.024694 -0.009,-0.037923 -0.026988,-0.039688 -0.016581,0.011642 -0.024871,0.025752 -0.024871,0.042333 0,0.0097 0.00335,0.020286 0.010054,0.03175 l 0.019579,0.027252 c 0.018169,0 0.029721,-0.00406 0.03466,-0.012171 z m 0.3209393,0.051858 V 6.7603774 Z M 3.7263917,6.8519233 V 6.7209544 H 3.7065479 V 6.8519233 Z M 3.5536188,6.952994 V 6.901136 c -0.013229,-0.00494 -0.022312,-0.00246 -0.027252,0.00741 l -0.00238,0.04445 z m 0.098689,0.1656292 c -0.00653,-0.016581 -0.00979,-0.040481 -0.00979,-0.071702 0,-0.034572 -0.00335,-0.058385 -0.010054,-0.071437 0,0.0097 -7.938e-4,0.017904 -0.00238,0.024606 -0.00159,0.0067 -0.00653,0.021518 -0.014817,0.04445 l -0.017198,0.059267 c 0,0.011464 0.00167,0.019666 0.00503,0.024606 l 0.026987,-0.00238 z m -0.2468562,0.13335 -0.017463,-0.022225 -0.00979,0.00476 0.022225,0.022225 z"
     id="path308"
     style="stroke-width:0.264583;fill:#ffffff" />
</svg>
