<?xml version="1.0" encoding="UTF-8" standalone="no"?>
<!-- Created with Inkscape (http://www.inkscape.org/) -->

<svg
   width="48"
   height="48"
   viewBox="0 0 12.7 12.7"
   version="1.1"
   id="svg5"
   inkscape:version="1.2 (dc2aedaf03, 2022-05-15)"
   sodipodi:docname="applications-engineering.svg"
   xmlns:inkscape="http://www.inkscape.org/namespaces/inkscape"
   xmlns:sodipodi="http://sodipodi.sourceforge.net/DTD/sodipodi-0.dtd"
   xmlns="http://www.w3.org/2000/svg"
   xmlns:svg="http://www.w3.org/2000/svg">
  <sodipodi:namedview
     id="namedview7"
     pagecolor="#ffffff"
     bordercolor="#666666"
     borderopacity="1.0"
     inkscape:pageshadow="2"
     inkscape:pageopacity="0.0"
     inkscape:pagecheckerboard="0"
     inkscape:document-units="px"
     showgrid="false"
     units="px"
     height="48px"
     inkscape:zoom="16.6875"
     inkscape:cx="24.11985"
     inkscape:cy="24.11985"
     inkscape:window-width="1846"
     inkscape:window-height="1011"
     inkscape:window-x="0"
     inkscape:window-y="0"
     inkscape:window-maximized="1"
     inkscape:current-layer="svg5"
     inkscape:showpageshadow="2"
     inkscape:deskcolor="#d1d1d1" />
  <defs
     id="defs2" />
  <rect
     style="opacity:1;fill:#d1a023;fill-opacity:1;stroke-width:0.264583"
     id="rect1162"
     width="10.583333"
     height="10.31875"
     x="1.0583333"
     y="1.3229166"
     ry="0.92604166" />
  <path
     id="rect1316"
     style="opacity:0.5;fill:#000000;stroke-width:0.264583"
     d="m 1.984375,1.3229167 c -0.5130271,0 -0.9260417,0.4130146 -0.9260417,0.9260417 v 8.4666666 c 0,0.513027 0.4130146,0.926042 0.9260417,0.926042 h 8.73125 c 0.513027,0 0.926042,-0.413015 0.926042,-0.926042 V 2.2489584 c 0,-0.5130271 -0.413015,-0.9260417 -0.926042,-0.9260417 z M 2.1166666,1.5875 h 8.4666664 c 0.439738,0 0.79375,0.3540125 0.79375,0.79375 v 7.672917 c 0,0.439737 -0.354012,0.79375 -0.79375,0.79375 H 2.1166666 c -0.4397375,0 -0.7937499,-0.354013 -0.7937499,-0.79375 V 2.38125 c 0,-0.4397375 0.3540124,-0.79375 0.7937499,-0.79375 z"
     sodipodi:nodetypes="ssssssssssssssssss" />
  <path
     d="M 7.4083326,3.042708 C 6.921236,3.246106 6.614583,3.655698 6.614583,4.103108 c 0,0.462604 0.322696,0.863293 0.7937496,1.0604 V 6.24613 c 0.5425267,0.189176 1.002109,0.538795 1.322917,0.990637 V 5.191543 C 9.2023008,5.03326 9.5249998,4.698003 9.5249998,4.2354 9.5244998,3.788387 9.2179498,3.246941 8.7312496,3.043741 V 4.2354 L 8.3343746,4.499983 H 7.8052076 L 7.4083326,4.2354 Z M 6.482291,6.352583 c -1.38819,0 -2.513541,1.066122 -2.513541,2.3812513 H 3.307291 c -0.07329,0 -0.132291,0.059 -0.132291,0.132292 v 0.529166 c 0,0.07329 0.059,0.132292 0.132291,0.132292 h 6.3499998 c 0.07329,0 0.132292,-0.059 0.132292,-0.132292 v -0.529166 c 0,-0.07329 -0.059,-0.132292 -0.132292,-0.132292 H 8.9958326 c 0,-1.3151293 -1.125351,-2.3812513 -2.5135416,-2.3812513 z m 0,0.661458 c 0.9498146,0 1.7197916,0.7699779 1.7197916,1.7197933 H 4.7625 c 0,-0.9498154 0.769977,-1.7197933 1.719791,-1.7197933 z"
     style="opacity:0.5;fill:#000000;stroke-width:0.0661455"
     id="path2527" />
  <path
     d="M 7.4083326,2.778125 C 6.921236,2.981523 6.614583,3.391115 6.614583,3.838525 c 0,0.462604 0.322696,0.863293 0.7937496,1.0604 v 1.082622 c 0.5425267,0.189176 1.002109,0.538795 1.322917,0.990637 V 4.92696 C 9.2023008,4.768677 9.5249998,4.43342 9.5249998,3.970817 9.5244998,3.523804 9.2179498,2.982358 8.7312496,2.779158 V 3.970817 L 8.3343746,4.2354 H 7.8052076 L 7.4083326,3.970817 Z M 6.482291,6.088 C 5.094101,6.088 3.96875,7.154122 3.96875,8.4692513 H 3.307291 c -0.07329,0 -0.132291,0.059 -0.132291,0.132292 v 0.529166 c 0,0.07329 0.059,0.132292 0.132291,0.132292 h 6.3499998 c 0.07329,0 0.132292,-0.059 0.132292,-0.132292 v -0.529166 c 0,-0.07329 -0.059,-0.132292 -0.132292,-0.132292 H 8.9958326 C 8.9958326,7.154122 7.8704816,6.088 6.482291,6.088 Z m 0,0.661458 c 0.9498146,0 1.7197916,0.769978 1.7197916,1.7197933 H 4.7625 C 4.7625,7.519436 5.532477,6.749458 6.482291,6.749458 Z"
     id="path367"
     style="fill:#ffffff;stroke-width:0.0661455"
     sodipodi:nodetypes="cscccccccccccscsssssssscssccs" />
</svg>
