<?xml version="1.0" encoding="UTF-8" standalone="no"?>
<!-- Created with Inkscape (http://www.inkscape.org/) -->

<svg
   width="48"
   height="48"
   viewBox="0 0 12.7 12.7"
   version="1.1"
   id="svg5"
   inkscape:version="1.2 (dc2aedaf03, 2022-05-15)"
   sodipodi:docname="applications-system.svg"
   xmlns:inkscape="http://www.inkscape.org/namespaces/inkscape"
   xmlns:sodipodi="http://sodipodi.sourceforge.net/DTD/sodipodi-0.dtd"
   xmlns="http://www.w3.org/2000/svg"
   xmlns:svg="http://www.w3.org/2000/svg">
  <sodipodi:namedview
     id="namedview7"
     pagecolor="#ffffff"
     bordercolor="#666666"
     borderopacity="1.0"
     inkscape:pageshadow="2"
     inkscape:pageopacity="0.0"
     inkscape:pagecheckerboard="0"
     inkscape:document-units="px"
     showgrid="false"
     units="px"
     height="48px"
     inkscape:zoom="16.708333"
     inkscape:cx="23.700749"
     inkscape:cy="24"
     inkscape:window-width="1846"
     inkscape:window-height="1011"
     inkscape:window-x="0"
     inkscape:window-y="0"
     inkscape:window-maximized="1"
     inkscape:current-layer="svg5"
     inkscape:showpageshadow="2"
     inkscape:deskcolor="#d1d1d1"
     showguides="true" />
  <defs
     id="defs2" />
  <rect
     style="opacity:1;fill:#424242;fill-opacity:1;stroke-width:0.264583"
     id="rect1162"
     width="5.8208332"
     height="3.7041667"
     x="3.4395833"
     y="7.6729169"
     ry="0.39687499" />
  <rect
     style="opacity:1;fill:#848484;fill-opacity:1;stroke-width:0.264583"
     id="rect3774"
     width="5.2916665"
     height="2.6458333"
     x="3.7041667"
     y="7.9375"
     ry="0.39687499" />
  <rect
     style="opacity:1;fill:#6f6f6f;fill-opacity:1;stroke-width:0.264583"
     id="rect2173"
     width="11.1125"
     height="7.9375"
     x="0.79374993"
     y="1.3229166"
     ry="0.52916664" />
  <rect
     style="opacity:1;fill:#acacac;fill-opacity:1;stroke-width:0.264583"
     id="rect2175"
     width="10.583333"
     height="6.8791671"
     x="1.0583335"
     y="1.5875002"
     ry="0.39687499" />
  <rect
     style="fill:#464646;fill-opacity:1;stroke-width:0.383418"
     id="rect1437"
     width="9.5249996"
     height="5.2916665"
     x="1.5875002"
     y="2.1166666"
     ry="0.26458332" />
  <rect
     style="fill:#424242;fill-opacity:1;stroke-width:0.529167"
     id="rect15516"
     width="2.6458333"
     height="0.52916664"
     x="5.0270834"
     y="7.6729169"
     ry="0.26458332" />
  <path
     d="M 5.8869791,2.9104167 5.8462333,3.3983083 C 5.6914912,3.4556142 5.5476232,3.5388214 5.4207833,3.6443708 L 4.9773417,3.43535 4.5143208,4.2375667 4.9170167,4.5169666 c -0.014341,0.081068 -0.021775,0.1632075 -0.022225,0.2455334 4.02e-5,0.082649 0.00712,0.1651447 0.021167,0.2465916 L 4.5143208,5.2874333 4.9773417,6.08965 5.419725,5.8811583 c 0.1272759,0.1050899 0.271503,0.187761 0.4265083,0.244475 l 0.040746,0.48895 H 6.813021 L 6.853767,6.1266916 C 7.0085091,6.0693856 7.1523771,5.9861786 7.279217,5.8806291 L 7.7223941,6.08965 8.1854149,5.2874333 7.7829837,5.0080333 C 7.7973237,4.9269653 7.8047587,4.8448259 7.8052087,4.7625 7.8051685,4.679851 7.7980887,4.5973553 7.7840417,4.5159083 L 8.1856791,4.2375667 7.7226583,3.43535 7.280275,3.6438417 C 7.152999,3.5387518 7.008772,3.4560806 6.8537666,3.3993667 l -0.040746,-0.48895 z M 6.35,4.2333333 c 0.2922505,0 0.5291666,0.2369161 0.5291666,0.5291667 0,0.2922505 -0.2369161,0.5291666 -0.5291666,0.5291666 -0.2922506,0 -0.5291667,-0.2369161 -0.5291667,-0.5291666 0,-0.2922506 0.2369161,-0.5291667 0.5291667,-0.5291667 z"
     style="fill:#ffffff;stroke-width:0.264583"
     id="path312" />
</svg>
