<?xml version="1.0" encoding="UTF-8" standalone="no"?>
<!-- Created with Inkscape (http://www.inkscape.org/) -->

<svg
   width="48"
   height="48"
   viewBox="0 0 12.7 12.7"
   version="1.1"
   id="svg5"
   inkscape:version="1.1.2 (0a00cf5339, 2022-02-04, custom)"
   sodipodi:docname="applications-accessories.svg"
   xmlns:inkscape="http://www.inkscape.org/namespaces/inkscape"
   xmlns:sodipodi="http://sodipodi.sourceforge.net/DTD/sodipodi-0.dtd"
   xmlns="http://www.w3.org/2000/svg"
   xmlns:svg="http://www.w3.org/2000/svg">
  <sodipodi:namedview
     id="namedview7"
     pagecolor="#ffffff"
     bordercolor="#666666"
     borderopacity="1.0"
     inkscape:pageshadow="2"
     inkscape:pageopacity="0.0"
     inkscape:pagecheckerboard="0"
     inkscape:document-units="px"
     showgrid="false"
     units="px"
     height="48px"
     inkscape:zoom="11.814576"
     inkscape:cx="21.202623"
     inkscape:cy="23.530256"
     inkscape:window-width="1920"
     inkscape:window-height="1017"
     inkscape:window-x="0"
     inkscape:window-y="0"
     inkscape:window-maximized="1"
     inkscape:current-layer="svg5" />
  <defs
     id="defs2" />
  <rect
     style="opacity:1;fill:#7b746e;fill-opacity:1;stroke-width:0.264583"
     id="rect1162"
     width="10.583333"
     height="10.31875"
     x="1.0583333"
     y="1.0583333"
     ry="0.92604166" />
  <path
     d="m 8.0045745,2.6461127 c -0.115665,-0.00212 -0.234479,0.00757 -0.350366,0.037724 v 5.292e-4 C 6.9139038,2.8769831 6.4704251,3.6290901 6.663571,4.3643672 6.7040522,4.5178255 6.7783869,4.6575467 6.8625244,4.78243 6.8196619,4.7893092 6.2170866,5.8123419 6.2170866,5.8123419 l 1.3528889,0.00826 0.318328,-0.4423516 c 0.150812,0.011906 0.310055,0.00818 0.464571,-0.032038 C 9.0931785,5.1535907 9.5371735,4.4012186 9.3440275,3.6662064 9.3038115,3.5124832 9.2292115,3.3727623 9.1450745,3.2481432 L 8.6050545,4.163332 C 8.4952175,4.3509454 8.2539105,4.4137043 8.0665855,4.3033757 L 7.7198375,4.1018373 C 7.5314145,3.9944191 7.4680125,3.753164 7.5792785,3.5669873 l 0.539501,-0.9151911 c -0.0377,-0.00296 -0.07565,-0.00497 -0.114205,-0.00569 z m -3.521231,0.2749206 c -0.00415,-5.82e-5 -0.00791,2.381e-4 -0.01188,0.00106 -0.091281,0.018521 -0.1757971,0.05189 -0.2599346,0.086815 -0.00661,0.2479146 0.034298,0.5721297 -0.06201,0.6573253 -0.094721,0.083607 -0.4115516,0.013253 -0.6562912,-0.012411 -0.052348,0.094266 -0.093951,0.1941089 -0.1240234,0.2976563 0.1894417,0.1568976 0.4520195,0.3329434 0.4583695,0.4588854 0.00635,0.1275291 -0.2483909,0.319352 -0.4211638,0.4960934 0.040746,0.1023941 0.098803,0.1958264 0.1607159,0.2852555 0.2410354,-0.050271 0.5420095,-0.1482328 0.6444033,-0.074414 0.1042458,0.075142 0.1046903,0.3991214 0.1359111,0.6449193 0.098954,0.029898 0.2029143,0.041407 0.3095414,0.049609 C 4.7683711,5.5916926 4.8820203,5.2881175 5.0037286,5.253722 5.1291411,5.2185321 5.3855488,5.4357207 5.5980092,5.5637791 5.6839565,5.5022343 5.7629663,5.4315403 5.8336524,5.3529405 5.7331108,5.1259279 5.5477384,4.8400142 5.5980092,4.7204222 5.6485446,4.6005663 5.9845231,4.5338248 6.2170919,4.4475707 c 0.00185,-0.029104 0.012912,-0.057184 0.012912,-0.086818 0,-0.075935 -0.013679,-0.1504818 -0.024792,-0.2232422 C 5.9649707,4.0734819 5.6237667,4.0417663 5.561325,3.9266722 5.4991479,3.8123722 5.6569163,3.5056196 5.7344392,3.2693469 5.6548605,3.198015 5.5676962,3.1356289 5.4745073,3.0833131 5.2760698,3.2322735 5.0449642,3.4778727 4.917435,3.4553834 4.7917579,3.4331584 4.6546932,3.1300438 4.5210786,2.9220813 c -0.011906,0.00185 -0.025294,-7.937e-4 -0.037724,-0.00106 z m 0.2356432,0.7451725 c 0.8929687,0 0.8929687,1.3394531 0,1.3394531 -0.3693584,0 -0.6686921,-0.2998393 -0.6686921,-0.6697268 0,-0.3698875 0.2993337,-0.6697263 0.6686921,-0.6697263 z m -0.4857592,2.4096714 0.0031,2.5135418 c 0,0.226483 0.1825758,0.396875 0.3963591,0.396875 h 3.1718989 c 0.207434,0 0.394809,-0.176808 0.394809,-0.372071 l -0.0031,-2.5383458 z"
     style="text-indent:0;text-decoration-line:none;text-transform:none;fill:#ffffff;fill-opacity:1;stroke-width:0.0700042"
     id="path956" />
  <path
     id="rect1149"
     style="opacity:0.5;fill:#000000;fill-opacity:1;stroke-width:0.999999"
     d="M 7.5 4 C 5.561 4 4 5.561 4 7.5 L 4 39.5 C 4 41.439 5.561 43 7.5 43 L 40.5 43 C 42.439 43 44 41.439 44 39.5 L 44 7.5 C 44 5.561 42.439 4 40.5 4 L 7.5 4 z M 8 5 L 40 5 C 41.662 5 43 6.338 43 8 L 43 37 C 43 38.662 41.662 40 40 40 L 8 40 C 6.338 40 5 38.662 5 37 L 5 8 C 5 6.338 6.338 5 8 5 z "
     transform="scale(0.26458333)" />
  <path
     d="m 8.0045745,2.6461129 c -0.1156652,-0.00212 -0.234479,0.00757 -0.3503665,0.037724 V 2.684366 C 6.9139038,2.876983 6.4704251,3.6290902 6.663571,4.3643673 6.7040522,4.5178256 6.7783869,4.6575468 6.8625244,4.7824301 6.8196619,4.7893093 6.2170866,5.8123419 6.2170866,5.8123419 l 1.3528886,0.00826 0.3183282,-0.4423516 C 8.0391159,5.3901563 8.198358,5.3864303 8.3528747,5.3462123 9.0931788,5.1535903 9.5371735,4.4012184 9.3440276,3.666206 9.303811,3.512483 9.2292117,3.3727619 9.1450742,3.2481431 L 8.6050543,4.1633316 C 8.4952179,4.350945 8.2539099,4.4137041 8.0665849,4.3033755 L 7.7198379,4.1018371 C 7.5314149,3.9944189 7.4680128,3.7531639 7.579278,3.5669872 L 8.1187793,2.6517961 c -0.037703,-0.00296 -0.07565,-0.00497 -0.1142048,-0.00569 z m -3.521231,0.2749206 c -0.00415,-5.82e-5 -0.00791,2.381e-4 -0.01188,0.00106 -0.091281,0.018521 -0.1757971,0.05189 -0.2599346,0.086815 -0.00661,0.2479146 0.034298,0.5721297 -0.06201,0.6573255 -0.094721,0.083607 -0.4115516,0.013254 -0.6562912,-0.012411 -0.052348,0.094266 -0.093951,0.1941089 -0.1240235,0.2976562 0.1894417,0.1568979 0.4520195,0.3329437 0.4583695,0.4588854 0.00635,0.1275292 -0.2483908,0.3193521 -0.4211638,0.4960937 0.040746,0.1023938 0.098803,0.1958261 0.1607159,0.2852553 0.2410354,-0.050271 0.5420095,-0.1482328 0.6444033,-0.074414 0.1042458,0.075142 0.1046903,0.3991213 0.1359111,0.6449192 0.098954,0.029898 0.2029143,0.041407 0.3095414,0.049609 C 4.7683712,5.5916953 4.8820203,5.2881203 5.0037286,5.2537245 5.1291411,5.2185349 5.3855488,5.4357234 5.5980092,5.5637817 5.6839565,5.502237 5.7629664,5.431543 5.8336524,5.3529432 5.7331108,5.1259307 5.5477384,4.8400167 5.5980092,4.720425 5.6485446,4.6005688 5.9845231,4.5338276 6.2170919,4.4475734 c 0.00185,-0.029104 0.012912,-0.057184 0.012912,-0.086818 0,-0.075935 -0.013679,-0.1504817 -0.024792,-0.2232422 C 5.9649704,4.0734844 5.6237664,4.0417688 5.5613248,3.926675 5.4991477,3.812375 5.6569161,3.5056224 5.734439,3.2693495 5.6548603,3.1980178 5.5676959,3.1356317 5.474507,3.0833157 5.2760695,3.2322761 5.0449639,3.4778755 4.9174348,3.455386 4.7917577,3.433161 4.6546929,3.1300464 4.5210783,2.9220839 c -0.011906,0.00185 -0.025294,-7.938e-4 -0.037724,-0.00106 z M 4.7189867,3.666206 c 0.8929687,0 0.8929687,1.3394531 0,1.3394531 -0.3693583,0 -0.6686921,-0.2998391 -0.6686921,-0.6697266 0,-0.3698875 0.2993338,-0.6697265 0.6686921,-0.6697265 z m -0.4857591,2.4096715 0.0031,2.5135416 c 0,0.2264833 0.1825757,0.396875 0.396359,0.396875 h 3.1718991 c 0.2074333,0 0.3948086,-0.1768078 0.3948086,-0.3720703 l -0.0031,-2.5383463 z"
     style="text-indent:0;text-decoration-line:none;text-transform:none;fill:#ffffff;fill-opacity:1;stroke-width:0.264583"
     id="path944"
     sodipodi:nodetypes="cccccccccccccccccccccccccccccccccccsccccccccssssccssccc" />
</svg>
