<?xml version="1.0" encoding="UTF-8" standalone="no"?>
<!-- Created with Inkscape (http://www.inkscape.org/) -->

<svg
   width="48"
   height="48"
   viewBox="0 0 12.7 12.7"
   version="1.1"
   id="svg5"
   inkscape:version="1.2 (dc2aedaf03, 2022-05-15)"
   sodipodi:docname="applications-games.svg"
   xmlns:inkscape="http://www.inkscape.org/namespaces/inkscape"
   xmlns:sodipodi="http://sodipodi.sourceforge.net/DTD/sodipodi-0.dtd"
   xmlns="http://www.w3.org/2000/svg"
   xmlns:svg="http://www.w3.org/2000/svg">
  <sodipodi:namedview
     id="namedview7"
     pagecolor="#ffffff"
     bordercolor="#666666"
     borderopacity="1.0"
     inkscape:pageshadow="2"
     inkscape:pageopacity="0.0"
     inkscape:pagecheckerboard="0"
     inkscape:document-units="px"
     showgrid="false"
     units="px"
     height="48px"
     inkscape:zoom="16.708333"
     inkscape:cx="24"
     inkscape:cy="24"
     inkscape:window-width="1846"
     inkscape:window-height="1011"
     inkscape:window-x="0"
     inkscape:window-y="0"
     inkscape:window-maximized="1"
     inkscape:current-layer="svg5"
     inkscape:showpageshadow="2"
     inkscape:deskcolor="#d1d1d1" />
  <defs
     id="defs2" />
  <rect
     style="opacity:1;fill:#3f51b5;fill-opacity:1;stroke-width:0.264583"
     id="rect1162"
     width="10.583333"
     height="10.31875"
     x="1.0583333"
     y="1.3229166"
     ry="0.92604166" />
  <path
     id="rect1316"
     style="opacity:0.5;fill:#000000;stroke-width:0.264583"
     d="m 1.984375,1.3229167 c -0.5130271,0 -0.9260417,0.4130146 -0.9260417,0.9260417 v 8.4666666 c 0,0.513027 0.4130146,0.926042 0.9260417,0.926042 h 8.73125 c 0.513027,0 0.926042,-0.413015 0.926042,-0.926042 V 2.2489584 c 0,-0.5130271 -0.413015,-0.9260417 -0.926042,-0.9260417 z M 2.1166666,1.5875 h 8.4666664 c 0.439738,0 0.79375,0.3540125 0.79375,0.79375 v 7.672917 c 0,0.439737 -0.354012,0.79375 -0.79375,0.79375 H 2.1166666 c -0.4397375,0 -0.7937499,-0.354013 -0.7937499,-0.79375 V 2.38125 c 0,-0.4397375 0.3540124,-0.79375 0.7937499,-0.79375 z"
     sodipodi:nodetypes="ssssssssssssssssss" />
  <path
     d="m 4.36564,3.7042276 c -0.219869,0 -0.396875,0.1770062 -0.396875,0.396875 v 5.291e-4 L 3.1941364,8.7411295 c -0.012409,0.038539 -0.019129,0.0797 -0.019129,0.122473 0,0.2198688 0.1770062,0.396875 0.3968749,0.396875 0.1207665,0 0.2286,-0.053403 0.3012731,-0.1379749 h 5.292e-4 l 0.00159,-0.00265 c 0.025585,-0.030292 0.046882,-0.064683 0.062529,-0.1018038 L 4.762534,7.6734405 h 3.129007 l 0.8754,1.3554737 c 0.01617,0.035444 0.03767,0.06776 0.06305,0.096634 l 0.0021,0.00362 h 5.3e-4 c 0.07254,0.08074 0.177985,0.1312572 0.295579,0.1312572 0.219869,0 0.396875,-0.1770063 0.396875,-0.396875 0,-0.043688 -0.0067,-0.085807 -0.01963,-0.125058 L 8.731342,4.1015709 v -5.292e-4 c 0,-0.2198687 -0.177007,-0.396875 -0.396875,-0.396875 h -0.79375 c -0.219869,0 -0.396875,0.1770063 -0.396875,0.396875 v 5.292e-4 h -1.5875 v -5.292e-4 c 0,-0.2198687 -0.177007,-0.396875 -0.396875,-0.396875 z"
     style="fill:#000000;fill-opacity:1;stroke-width:0.264586;opacity:0.2"
     id="path3605" />
  <path
     d="m 4.3656326,3.4396442 c -0.2198688,0 -0.396875,0.1770062 -0.396875,0.396875 v 5.291e-4 L 3.194129,8.4765461 C 3.18172,8.5150851 3.175,8.5562461 3.175,8.5990191 c 0,0.2198688 0.1770062,0.396875 0.3968749,0.396875 0.1207665,0 0.2286,-0.053403 0.3012731,-0.1379749 h 5.292e-4 l 0.00159,-0.00265 c 0.025585,-0.030292 0.046882,-0.064683 0.062529,-0.1018038 L 4.7625261,7.4088571 h 3.1290074 l 0.8754004,1.3554737 c 0.016166,0.035444 0.037674,0.06776 0.063045,0.096634 l 0.00212,0.00362 h 5.292e-4 c 0.072541,0.08074 0.1779852,0.1312572 0.2955793,0.1312572 0.2198687,0 0.3968749,-0.1770063 0.3968749,-0.396875 0,-0.043688 -0.00672,-0.085807 -0.019632,-0.125058 L 8.7313342,3.8369875 v -5.292e-4 c 0,-0.2198687 -0.1770062,-0.396875 -0.3968749,-0.396875 h -0.79375 c -0.2198688,0 -0.396875,0.1770063 -0.396875,0.396875 v 5.292e-4 h -1.5875 v -5.292e-4 c 0,-0.2198687 -0.1770063,-0.396875 -0.396875,-0.396875 z"
     style="fill:#ffffff;fill-opacity:1;stroke-width:0.264586"
     id="path2073"
     sodipodi:nodetypes="csccssccccccccccssccssssccscc" />
  <path
     d="m 4.8932805,4.4994988 c -0.073215,0 -0.1317757,0.058558 -0.1317757,0.1317758 V 5.0271151 H 4.3656643 c -0.073215,0 -0.1322916,0.059076 -0.1322916,0.1322916 V 5.42399 c 0,0.073215 0.059076,0.1322917 0.1322916,0.1322917 h 0.3958405 v 0.3984255 c 0,0.073215 0.05856,0.1322916 0.1317757,0.1322916 h 0.2650993 c 0.073218,0 0.1317757,-0.059076 0.1317757,-0.1322916 V 5.5562817 h 0.3989414 c 0.073218,0 0.1317757,-0.059076 0.1317757,-0.1322917 V 5.1594067 c 0,-0.073215 -0.058558,-0.1322916 -0.1317757,-0.1322916 H 5.2901555 V 4.6312746 c 0,-0.073218 -0.058558,-0.1317758 -0.1317757,-0.1317758 z m 2.38125,0 c -0.2191888,0 -0.396875,0.1776863 -0.396875,0.396875 0,0.2191888 0.1776862,0.396875 0.396875,0.396875 0.2191888,0 0.396875,-0.1776862 0.396875,-0.396875 0,-0.2191887 -0.1776862,-0.396875 -0.396875,-0.396875 z m 0.79375,1.3213662 c -0.2191888,0 -0.396875,0.1776863 -0.396875,0.396875 0,0.2191888 0.1776862,0.396875 0.396875,0.396875 0.2191888,0 0.396875,-0.1776862 0.396875,-0.396875 0,-0.2191887 -0.1776862,-0.396875 -0.396875,-0.396875 z"
     style="stroke-width:0.396875;fill:#3f51b5;fill-opacity:1"
     id="path2045" />
</svg>
