<?xml version="1.0" encoding="UTF-8" standalone="no"?>
<!-- Created with Inkscape (http://www.inkscape.org/) -->

<svg
   width="48"
   height="48"
   viewBox="0 0 12.7 12.7"
   version="1.1"
   id="svg5"
   inkscape:version="1.2 (dc2aedaf03, 2022-05-15)"
   sodipodi:docname="applications-development.svg"
   xmlns:inkscape="http://www.inkscape.org/namespaces/inkscape"
   xmlns:sodipodi="http://sodipodi.sourceforge.net/DTD/sodipodi-0.dtd"
   xmlns="http://www.w3.org/2000/svg"
   xmlns:svg="http://www.w3.org/2000/svg">
  <sodipodi:namedview
     id="namedview7"
     pagecolor="#ffffff"
     bordercolor="#666666"
     borderopacity="1.0"
     inkscape:pageshadow="2"
     inkscape:pageopacity="0.0"
     inkscape:pagecheckerboard="0"
     inkscape:document-units="px"
     showgrid="false"
     units="px"
     height="48px"
     inkscape:zoom="17.145833"
     inkscape:cx="24"
     inkscape:cy="24"
     inkscape:window-width="1846"
     inkscape:window-height="1011"
     inkscape:window-x="0"
     inkscape:window-y="0"
     inkscape:window-maximized="1"
     inkscape:current-layer="svg5"
     inkscape:showpageshadow="2"
     inkscape:deskcolor="#d1d1d1" />
  <defs
     id="defs2" />
  <rect
     style="opacity:1;fill:#7b746e;fill-opacity:1;stroke-width:0.264583"
     id="rect1162"
     width="10.583333"
     height="10.31875"
     x="1.0583333"
     y="1.3229166"
     ry="0.92604166" />
  <path
     id="rect1316"
     style="opacity:0.5;fill:#000000;stroke-width:0.264583"
     d="m 1.984375,1.3229167 c -0.5130271,0 -0.9260417,0.4130146 -0.9260417,0.9260417 v 8.4666666 c 0,0.513027 0.4130146,0.926042 0.9260417,0.926042 h 8.73125 c 0.513027,0 0.926042,-0.413015 0.926042,-0.926042 V 2.2489584 c 0,-0.5130271 -0.413015,-0.9260417 -0.926042,-0.9260417 z M 2.1166666,1.5875 h 8.4666664 c 0.439738,0 0.79375,0.3540125 0.79375,0.79375 v 7.672917 c 0,0.439737 -0.354012,0.79375 -0.79375,0.79375 H 2.1166666 c -0.4397375,0 -0.7937499,-0.354013 -0.7937499,-0.79375 V 2.38125 c 0,-0.4397375 0.3540124,-0.79375 0.7937499,-0.79375 z"
     sodipodi:nodetypes="ssssssssssssssssss" />
  <path
     d="M 9.177409,4.371345 8.4257656,5.1229884 c -0.1554703,0.1554703 -0.4057955,0.1554704 -0.561266,0 L 7.5838666,4.8423553 c -0.1554703,-0.1554702 -0.1554703,-0.4057956 0,-0.561266 L 8.3347792,3.5301768 C 7.7994102,3.32625 7.1942075,3.4554152 6.7887398,3.8601398 6.4026431,4.2468616 6.265751,4.8172927 6.4342945,5.3371172 L 3.4211437,8.3502676 c -0.1554705,0.155471 -0.1554705,0.405796 0,0.561266 l 0.3741774,0.374178 c 0.1554705,0.15547 0.4057955,0.15547 0.561266,0 L 7.369007,6.2732914 C 7.8891852,6.4419494 8.4600048,6.3047494 8.8467152,5.9181152 9.2519929,5.5126703 9.3814689,4.907064 9.177409,4.371345 Z"
     style="fill:#000000;stroke-width:0.485071;stroke-linejoin:round;opacity:0.2"
     id="path613" />
  <path
     id="path466"
     style="fill:#ffffff;stroke-width:0.485071;stroke-linejoin:round"
     d="M 9.177409,4.1068132 8.4257656,4.8584566 c -0.1554703,0.1554703 -0.4057955,0.1554704 -0.561266,0 L 7.5838666,4.5778235 c -0.1554703,-0.1554702 -0.1554703,-0.4057956 0,-0.561266 L 8.3347792,3.265645 C 7.7994102,3.0617182 7.1942075,3.1908834 6.7887398,3.595608 6.4026431,3.9823298 6.265751,4.5527609 6.4342945,5.0725854 L 3.4211437,8.0857362 c -0.1554705,0.1554705 -0.1554705,0.4057955 0,0.561266 l 0.3741774,0.3741773 c 0.1554705,0.1554705 0.4057955,0.1554705 0.561266,0 L 7.369007,6.0087596 C 7.8891852,6.1774176 8.4600048,6.0402176 8.8467152,5.6535834 9.2519925,5.2481385 9.3814689,4.6425322 9.177409,4.1068132 Z"
     sodipodi:nodetypes="csssscccssssccc" />
</svg>
