<?xml version="1.0" encoding="UTF-8" standalone="no"?>
<!-- Created with Inkscape (http://www.inkscape.org/) -->

<svg
   width="48"
   height="48"
   viewBox="0 0 12.7 12.7"
   version="1.1"
   id="svg5"
   inkscape:version="1.2 (dc2aedaf03, 2022-05-15)"
   sodipodi:docname="applications-science.svg"
   xmlns:inkscape="http://www.inkscape.org/namespaces/inkscape"
   xmlns:sodipodi="http://sodipodi.sourceforge.net/DTD/sodipodi-0.dtd"
   xmlns="http://www.w3.org/2000/svg"
   xmlns:svg="http://www.w3.org/2000/svg">
  <sodipodi:namedview
     id="namedview7"
     pagecolor="#ffffff"
     bordercolor="#666666"
     borderopacity="1.0"
     inkscape:pageshadow="2"
     inkscape:pageopacity="0.0"
     inkscape:pagecheckerboard="0"
     inkscape:document-units="px"
     showgrid="false"
     units="px"
     height="48px"
     inkscape:zoom="16.708333"
     inkscape:cx="24"
     inkscape:cy="24"
     inkscape:window-width="1846"
     inkscape:window-height="1011"
     inkscape:window-x="0"
     inkscape:window-y="0"
     inkscape:window-maximized="1"
     inkscape:current-layer="svg5"
     inkscape:showpageshadow="2"
     inkscape:deskcolor="#d1d1d1" />
  <defs
     id="defs2" />
  <rect
     style="opacity:1;fill:#479863;fill-opacity:1;stroke-width:0.264583"
     id="rect1162"
     width="10.583333"
     height="10.31875"
     x="1.0583333"
     y="1.3229166"
     ry="0.92604166" />
  <path
     id="rect1316"
     style="opacity:0.5;fill:#000000;stroke-width:0.264583"
     d="m 1.984375,1.3229167 c -0.5130271,0 -0.9260417,0.4130146 -0.9260417,0.9260417 v 8.4666666 c 0,0.513027 0.4130146,0.926042 0.9260417,0.926042 h 8.73125 c 0.513027,0 0.926042,-0.413015 0.926042,-0.926042 V 2.2489584 c 0,-0.5130271 -0.413015,-0.9260417 -0.926042,-0.9260417 z M 2.1166666,1.5875 h 8.4666664 c 0.439738,0 0.79375,0.3540125 0.79375,0.79375 v 7.672917 c 0,0.439737 -0.354012,0.79375 -0.79375,0.79375 H 2.1166666 c -0.4397375,0 -0.7937499,-0.354013 -0.7937499,-0.79375 V 2.38125 c 0,-0.4397375 0.3540124,-0.79375 0.7937499,-0.79375 z"
     sodipodi:nodetypes="ssssssssssssssssss" />
  <g
     id="g22395"
     transform="translate(0,0.26458332)"
     style="fill:#000000;opacity:0.2">
    <path
       d="M 5.1603813,2.9501042 C 4.7513011,2.9499904 4.6095797,3.4939341 4.9667064,3.6934511 L 5.1619688,3.8017979 V 4.8662167 C 5.1103751,4.9471792 5.0627501,5.0198073 4.9873439,5.1499823 4.8793939,5.3365135 4.7472345,5.5706698 4.6039626,5.8274479 4.3101825,6.354527 4.0187413,6.8829052 3.729647,7.4125666 3.5022376,7.8280948 3.5109689,8.3864979 3.8487095,8.8071854 4.1162032,9.1643729 4.5384782,9.2596229 4.888522,9.2596229 h 2.9158406 c 0.349647,0 0.772319,-0.09525 1.039812,-0.4524375 0.337344,-0.4202907 0.345282,-0.9775031 0.119063,-1.3930313 v -0.00159 C 8.5016716,6.4727666 7.9813688,5.7389448 7.5495688,4.874551 V 3.8017979 L 7.7440376,3.6934511 C 8.1009786,3.4940372 7.959628,2.9503979 7.5507594,2.9501042 Z m 0.7953375,0.79375 H 6.755422 v 1.2330906 c 0,0.060534 0.013838,0.1202663 0.040481,0.174625 0.4770437,0.9751219 1.0215562,1.7236281 1.4628816,2.6261218 0.0026,0.00534 0.0052,0.010636 0.0079,0.015875 0.09485,0.1738313 0.10041,0.3500438 -0.03969,0.5214938 -0.0049,0.00569 -0.0097,0.011509 -0.01429,0.017462 -0.05715,0.078978 -0.1940717,0.13335 -0.4083842,0.13335 H 4.8881251 c -0.2143125,0 -0.3508375,-0.054372 -0.4083844,-0.13335 -0.00447,-0.00595 -0.0091,-0.011774 -0.013891,-0.017462 C 4.3253564,8.1436104 4.3309126,7.9673979 4.4261626,7.7931698 4.7138097,7.2658922 5.0037956,6.7398953 5.2961126,6.2151948 5.4381938,5.960401 5.5699563,5.728626 5.6743345,5.5484448 5.7787126,5.3682635 5.8688032,5.2249917 5.8795188,5.2103073 c 0.049424,-0.067781 0.076099,-0.1494764 0.0762,-0.2333625 z"
       style="font-variant-ligatures:normal;font-variant-position:normal;font-variant-caps:normal;font-variant-numeric:normal;font-variant-alternates:normal;font-feature-settings:normal;text-indent:0;text-decoration-line:none;text-decoration-style:solid;text-decoration-color:#000000;text-transform:none;text-orientation:mixed;white-space:normal;shape-padding:0;isolation:auto;mix-blend-mode:normal;stroke-width:0.264583;fill:#000000"
       id="path21044"
       sodipodi:nodetypes="ccccccccssccccccccccscccccssccccsccc" />
    <path
       d="M 5.6445688,6.35 4.7640355,7.9372354 h 3.175 L 7.0585022,6.35 Z"
       style="opacity:0.5;stroke-width:0.264583;fill:#000000"
       id="path21072"
       sodipodi:nodetypes="ccccc" />
  </g>
  <g
     id="g22399"
     style="fill:#ffffff">
    <path
       d="M 5.1603813,2.9516942 C 4.7513011,2.9515804 4.6095797,3.4955241 4.9667064,3.6950411 L 5.1619688,3.8033879 V 4.8678067 C 5.1103751,4.9487692 5.0627501,5.0213973 4.9873439,5.1515723 4.8793939,5.3381035 4.7472345,5.5722598 4.6039626,5.8290379 4.3101825,6.356117 4.0187413,6.8844952 3.729647,7.4141566 3.5022376,7.8296848 3.5109689,8.3880879 3.8487095,8.8087754 4.1162032,9.1659629 4.5384782,9.2612129 4.888522,9.2612129 h 2.9158406 c 0.349647,0 0.772319,-0.09525 1.039812,-0.4524375 0.337344,-0.4202907 0.345282,-0.9775031 0.119063,-1.3930313 v -0.00159 C 8.5016716,6.4743566 7.9813688,5.7405348 7.5495688,4.876141 V 3.8033879 L 7.7440376,3.6950411 C 8.1009786,3.4956272 7.959628,2.9519879 7.5507594,2.9516942 Z m 0.7953375,0.79375 H 6.755422 v 1.2330906 c 0,0.060534 0.013838,0.1202663 0.040481,0.174625 0.4770437,0.9751219 1.0215562,1.7236281 1.4628816,2.6261218 0.0026,0.00534 0.0052,0.010636 0.0079,0.015875 0.09485,0.1738313 0.10041,0.3500438 -0.03969,0.5214938 -0.0049,0.00569 -0.0097,0.011509 -0.01429,0.017462 -0.05715,0.078978 -0.1940717,0.13335 -0.4083842,0.13335 H 4.8881251 c -0.2143125,0 -0.3508375,-0.054372 -0.4083844,-0.13335 -0.00447,-0.00595 -0.0091,-0.011774 -0.013891,-0.017462 C 4.3253564,8.1452004 4.3309126,7.9689879 4.4261626,7.7947598 4.7138097,7.2674822 5.0037956,6.7414853 5.2961126,6.2167848 5.4381938,5.961991 5.5699563,5.730216 5.6743345,5.5500348 5.7787126,5.3698535 5.8688032,5.2265817 5.8795188,5.2118973 c 0.049424,-0.067781 0.076099,-0.1494764 0.0762,-0.2333625 z"
       style="font-variant-ligatures:normal;font-variant-position:normal;font-variant-caps:normal;font-variant-numeric:normal;font-variant-alternates:normal;font-feature-settings:normal;text-indent:0;text-decoration-line:none;text-decoration-style:solid;text-decoration-color:#000000;text-transform:none;text-orientation:mixed;white-space:normal;shape-padding:0;isolation:auto;mix-blend-mode:normal;stroke-width:0.264583;fill:#ffffff"
       id="path22345" />
    <path
       d="M 5.6445688,6.35 4.7640355,7.9372354 h 3.175 L 7.0585022,6.35 Z"
       style="opacity:0.5;stroke-width:0.264583;fill:#ffffff"
       id="path22373" />
  </g>
</svg>
