<?xml version="1.0" encoding="UTF-8" standalone="no"?>
<!-- Created with Inkscape (http://www.inkscape.org/) -->

<svg
   width="48"
   height="48"
   viewBox="0 0 12.7 12.7"
   version="1.1"
   id="svg5"
   inkscape:version="1.2 (dc2aedaf03, 2022-05-15)"
   sodipodi:docname="cs-overview.svg"
   xmlns:inkscape="http://www.inkscape.org/namespaces/inkscape"
   xmlns:sodipodi="http://sodipodi.sourceforge.net/DTD/sodipodi-0.dtd"
   xmlns="http://www.w3.org/2000/svg"
   xmlns:svg="http://www.w3.org/2000/svg">
  <sodipodi:namedview
     id="namedview7"
     pagecolor="#ffffff"
     bordercolor="#666666"
     borderopacity="1.0"
     inkscape:pageshadow="2"
     inkscape:pageopacity="0.0"
     inkscape:pagecheckerboard="0"
     inkscape:document-units="px"
     showgrid="false"
     units="px"
     height="48px"
     inkscape:zoom="17.020833"
     inkscape:cx="24"
     inkscape:cy="24"
     inkscape:window-width="1920"
     inkscape:window-height="1010"
     inkscape:window-x="0"
     inkscape:window-y="0"
     inkscape:window-maximized="1"
     inkscape:current-layer="svg5"
     showguides="false"
     inkscape:showpageshadow="2"
     inkscape:deskcolor="#d1d1d1" />
  <defs
     id="defs2" />
  <rect
     style="opacity:1;fill:#245c63;fill-opacity:1;stroke-width:0.264583"
     id="rect1162"
     width="11.1125"
     height="8.4666662"
     x="0.79374999"
     y="2.9104166"
     ry="0.79374999" />
  <rect
     style="opacity:1;fill:#48b9c7;stroke-width:0.529167;fill-opacity:1"
     id="rect341"
     width="11.1125"
     height="7.9375"
     x="0.79374999"
     y="2.9104166"
     ry="0.79374999" />
  <path
     id="path1046"
     style="opacity:0.5;fill:#ffffff;fill-opacity:1;stroke-width:0.529167"
     d="M 1.5875 2.9104167 C 1.1477629 2.9104167 0.79375 3.2644296 0.79375 3.7041667 L 0.79375 5.55625 A 2.6458333 2.6458333 0 0 0 3.4395833 2.9104167 L 1.5875 2.9104167 z M 11.90625 8.2020833 A 2.6458333 2.6458333 0 0 0 9.2604167 10.847917 L 11.1125 10.847917 C 11.552237 10.847917 11.90625 10.493904 11.90625 10.054167 L 11.90625 8.2020833 z " />
  <path
     id="rect1147"
     style="opacity:0.35;fill:#000000;fill-opacity:1;stroke-width:0.264583"
     d="m 1.5875,2.9104167 c -0.4397371,0 -0.79375,0.3540129 -0.79375,0.79375 v 6.3500003 c 0,0.439737 0.3540129,0.79375 0.79375,0.79375 h 9.525 c 0.439737,0 0.79375,-0.354013 0.79375,-0.79375 V 3.7041667 c 0,-0.4397371 -0.354013,-0.79375 -0.79375,-0.79375 z M 1.7197917,3.175 h 9.2604163 c 0.366448,0 0.661459,0.2950108 0.661459,0.6614583 V 9.921875 c 0,0.366448 -0.295011,0.661458 -0.661459,0.661458 H 1.7197917 c -0.3664476,0 -0.6614584,-0.29501 -0.6614584,-0.661458 V 3.8364583 C 1.0583333,3.4700108 1.3533441,3.175 1.7197917,3.175 Z"
     sodipodi:nodetypes="ssssssssssssssssss" />
</svg>
