<?xml version="1.0" encoding="UTF-8" standalone="no"?>
<!-- Created with Inkscape (http://www.inkscape.org/) -->

<svg
   width="48"
   height="48"
   viewBox="0 0 12.7 12.7"
   version="1.1"
   id="svg5"
   inkscape:version="1.2 (dc2aedaf03, 2022-05-15)"
   sodipodi:docname="cuttlefish.svg"
   xmlns:inkscape="http://www.inkscape.org/namespaces/inkscape"
   xmlns:sodipodi="http://sodipodi.sourceforge.net/DTD/sodipodi-0.dtd"
   xmlns="http://www.w3.org/2000/svg"
   xmlns:svg="http://www.w3.org/2000/svg">
  <sodipodi:namedview
     id="namedview7"
     pagecolor="#ffffff"
     bordercolor="#666666"
     borderopacity="1.0"
     inkscape:pageshadow="2"
     inkscape:pageopacity="0.0"
     inkscape:pagecheckerboard="0"
     inkscape:document-units="px"
     showgrid="false"
     units="px"
     height="48px"
     inkscape:zoom="16.6875"
     inkscape:cx="24.059925"
     inkscape:cy="24.089888"
     inkscape:window-width="1920"
     inkscape:window-height="1009"
     inkscape:window-x="0"
     inkscape:window-y="0"
     inkscape:window-maximized="1"
     inkscape:current-layer="svg5"
     inkscape:showpageshadow="2"
     inkscape:deskcolor="#d1d1d1" />
  <defs
     id="defs2" />
  <rect
     style="opacity:1;fill:#ffce51;fill-opacity:1;stroke-width:0.264583"
     id="rect1162"
     width="10.583333"
     height="10.31875"
     x="1.0583333"
     y="1.3229166"
     ry="0.92604166" />
  <path
     d="m 6.3362636,3.1758679 c -1.2164224,0 -2.593976,1.0120317 -2.893339,2.1322913 -0.140898,0.843201 0.0232,1.4382359 0.4487864,1.8467394 0.0114,0.1192695 0.034179,0.238534 0.024184,0.3578028 -2.268e-4,0.00352 -9.088e-4,0.00704 -0.00113,0.010545 -0.00227,0.022431 -0.00567,0.044852 -0.01086,0.067282 -0.00227,0.00917 -0.00564,0.01844 -0.00837,0.027596 -0.005,0.017053 -0.00988,0.034099 -0.017055,0.051158 -0.00598,0.014175 -0.014655,0.028298 -0.022315,0.042477 -0.00713,0.013215 -0.01299,0.026456 -0.021704,0.039687 -0.017894,0.027087 -0.038787,0.05415 -0.064184,0.081237 -0.099183,0.1047747 -0.1859797,0.171053 -0.2604018,0.2139155 -0.2232422,0.1289835 -0.3348753,0.04961 -0.3348753,0.2083594 0,0.1719779 0.3928866,0.4836321 0.75315,0.3674191 0.055424,-0.01787 0.1101481,-0.04568 0.1624689,-0.08589 0.026161,-0.02009 0.05178,-0.043303 0.076586,-0.069762 0.045474,-0.048506 0.084963,-0.093842 0.1199911,-0.1364251 0.034653,-0.041747 0.064056,-0.080089 0.090539,-0.116586 0.00606,0.053181 0.00256,0.120507 -0.023255,0.2232422 -0.1027186,0.4089009 -0.6458349,0.3744919 -0.385719,0.6647659 0.2015531,0.224917 0.8040294,0.233613 1.1372855,-0.0586 -0.1328341,0.301228 -0.3347642,0.481807 0.05334,0.481807 0.5953128,0 1.1906256,-0.423069 1.1906256,-1.0580697 0,0.6350007 0.5953127,1.0582287 1.1906255,1.0582287 0.3881241,0 0.1861741,-0.180619 0.053332,-0.481847 0.3332631,0.292213 0.9357514,0.283526 1.137284,0.0586 C 8.9913781,8.8115744 8.4482703,8.8459794 8.3455351,8.4370753 8.3196827,8.3341657 8.3161742,8.2667405 8.3222823,8.2135235 c 0.053748,0.074085 0.120777,0.1575833 0.2105303,0.2533214 0.3968745,0.4230685 0.9921875,-3.969e-4 0.9921875,-0.2119313 0,-0.2116695 -0.198437,1.02e-4 -0.595313,-0.4232278 C 8.708191,7.5954182 8.7928646,7.3591663 8.8100066,7.122867 9.2691911,6.7076165 9.4191301,6.1170265 9.2296231,5.3071631 8.8069496,4.1064569 7.5528246,3.1749115 6.336164,3.1749115 Z"
     style="fill:#393634;fill-opacity:1;stroke-width:0.396875"
     id="path2347" />
  <path
     id="rect1316"
     style="opacity:0.5;fill:#000000;stroke-width:0.264583"
     d="m 1.984375,1.3229167 c -0.5130271,0 -0.9260417,0.4130146 -0.9260417,0.9260417 v 8.4666666 c 0,0.513027 0.4130146,0.926042 0.9260417,0.926042 h 8.73125 c 0.513027,0 0.926042,-0.413015 0.926042,-0.926042 V 2.2489584 c 0,-0.5130271 -0.413015,-0.9260417 -0.926042,-0.9260417 z M 2.1166666,1.5875 h 8.4666664 c 0.439738,0 0.79375,0.3540125 0.79375,0.79375 v 7.672917 c 0,0.439737 -0.354012,0.79375 -0.79375,0.79375 H 2.1166666 c -0.4397375,0 -0.7937499,-0.354013 -0.7937499,-0.79375 V 2.38125 c 0,-0.4397375 0.3540124,-0.79375 0.7937499,-0.79375 z"
     sodipodi:nodetypes="ssssssssssssssssss" />
</svg>
