<?xml version="1.0" encoding="UTF-8" standalone="no"?>
<!-- Created with Inkscape (http://www.inkscape.org/) -->

<svg
   width="48"
   height="48"
   viewBox="0 0 12.7 12.7"
   version="1.1"
   id="svg5"
   inkscape:version="1.2 (dc2aedaf03, 2022-05-15)"
   sodipodi:docname="dconf-editor.svg"
   xmlns:inkscape="http://www.inkscape.org/namespaces/inkscape"
   xmlns:sodipodi="http://sodipodi.sourceforge.net/DTD/sodipodi-0.dtd"
   xmlns="http://www.w3.org/2000/svg"
   xmlns:svg="http://www.w3.org/2000/svg">
  <sodipodi:namedview
     id="namedview7"
     pagecolor="#ffffff"
     bordercolor="#666666"
     borderopacity="1.0"
     inkscape:pageshadow="2"
     inkscape:pageopacity="0.0"
     inkscape:pagecheckerboard="0"
     inkscape:document-units="px"
     showgrid="false"
     units="px"
     height="48px"
     inkscape:zoom="8.4791665"
     inkscape:cx="12.029484"
     inkscape:cy="35.027028"
     inkscape:window-width="1846"
     inkscape:window-height="1011"
     inkscape:window-x="0"
     inkscape:window-y="0"
     inkscape:window-maximized="1"
     inkscape:current-layer="svg5"
     inkscape:showpageshadow="2"
     inkscape:deskcolor="#d1d1d1" />
  <defs
     id="defs2" />
  <rect
     style="fill:#cf3b00;fill-opacity:1;stroke-width:0.264583"
     id="rect1162"
     width="10.583333"
     height="10.31875"
     x="1.0583333"
     y="1.3229166"
     ry="0.92604166" />
  <path
     id="rect1316"
     style="opacity:0.5;fill:#000000;stroke-width:0.264583"
     d="m 1.9843751,1.3229169 c -0.5130271,0 -0.9260417,0.4130146 -0.9260417,0.9260417 v 8.4666664 c 0,0.513027 0.4130146,0.926042 0.9260417,0.926042 h 8.7312499 c 0.513027,0 0.926042,-0.413015 0.926042,-0.926042 V 2.2489586 c 0,-0.5130271 -0.413015,-0.9260417 -0.926042,-0.9260417 z m 0.1322916,0.2645833 h 8.4666663 c 0.439738,0 0.79375,0.3540125 0.79375,0.79375 v 7.6729168 c 0,0.439737 -0.354012,0.79375 -0.79375,0.79375 H 2.1166667 c -0.4397375,0 -0.7937499,-0.354013 -0.7937499,-0.79375 V 2.3812502 c 0,-0.4397375 0.3540124,-0.79375 0.7937499,-0.79375 z"
     sodipodi:nodetypes="ssssssssssssssssss" />
  <path
     id="path583"
     style="fill:#ffffff;stroke-width:0.453572;stroke-linejoin:round"
     d="M 6.35,3.175 A 3.175,3.175 0 0 0 3.175,6.35 3.175,3.175 0 0 0 6.35,9.5250003 3.175,3.175 0 0 0 9.5250003,6.35 3.175,3.175 0 0 0 9.3493003,5.3087199 L 8.9229693,5.7350505 A 2.6458333,2.6458333 0 0 1 8.9958333,6.35 2.6458333,2.6458333 0 0 1 6.35,8.9958333 2.6458333,2.6458333 0 0 1 3.7041667,6.35 2.6458333,2.6458333 0 0 1 6.35,3.7041667 2.6458333,2.6458333 0 0 1 8.0713423,4.3408203 L 8.4465133,3.9656494 A 3.175,3.175 0 0 0 6.35,3.175 Z M 9.3430993,3.8178548 6.35,6.8109538 5.0079631,5.4694336 4.6338257,5.843571 5.9758627,7.1850912 6.35,7.5592286 6.7241374,7.1850912 9.7177529,4.1919922 Z" />
</svg>
