<?xml version="1.0" encoding="UTF-8" standalone="no"?>
<!-- Created with Inkscape (http://www.inkscape.org/) -->

<svg
   width="48"
   height="48"
   viewBox="0 0 12.7 12.7"
   version="1.1"
   id="svg5"
   inkscape:version="1.2 (dc2aedaf03, 2022-05-15)"
   sodipodi:docname="deja-dup.svg"
   xmlns:inkscape="http://www.inkscape.org/namespaces/inkscape"
   xmlns:sodipodi="http://sodipodi.sourceforge.net/DTD/sodipodi-0.dtd"
   xmlns="http://www.w3.org/2000/svg"
   xmlns:svg="http://www.w3.org/2000/svg">
  <sodipodi:namedview
     id="namedview7"
     pagecolor="#ffffff"
     bordercolor="#666666"
     borderopacity="1.0"
     inkscape:pageshadow="2"
     inkscape:pageopacity="0.0"
     inkscape:pagecheckerboard="0"
     inkscape:document-units="px"
     showgrid="false"
     units="px"
     height="48px"
     inkscape:zoom="17.041667"
     inkscape:cx="24"
     inkscape:cy="24"
     inkscape:window-width="1846"
     inkscape:window-height="1015"
     inkscape:window-x="0"
     inkscape:window-y="0"
     inkscape:window-maximized="1"
     inkscape:current-layer="svg5"
     showguides="false"
     inkscape:showpageshadow="2"
     inkscape:deskcolor="#d1d1d1"
     inkscape:lockguides="false" />
  <defs
     id="defs2" />
  <rect
     style="opacity:1;fill:#222222;fill-opacity:1;stroke-width:0.264583"
     id="rect1319"
     width="8.9958334"
     height="12.170834"
     x="1.8520833"
     y="0.52916664"
     ry="0.92604166" />
  <rect
     style="opacity:1;fill:#444444;fill-opacity:1;stroke-width:0.264583"
     id="rect1162"
     width="8.4666662"
     height="11.1125"
     x="2.1166666"
     y="0.79374999"
     ry="0.79374999" />
  <rect
     style="fill:#6f6f6f;fill-opacity:1;stroke:none;stroke-width:0.264583;stroke-linecap:square;stroke-linejoin:bevel"
     id="rect29955"
     width="6.8791666"
     height="9.5249996"
     x="2.9104166"
     y="1.5875"
     ry="0.52916664" />
  <path
     d="m 4.0258447,6.688507 c 0.069475,0.114581 0.195493,0.1905746 0.3398197,0.1905741 l 1.2994093,4.79e-5 c 0.1410895,0.2443213 0.4012377,0.3954174 0.6833668,0.3969051 l 0.6494884,1.1249447 c 0.1099634,0.190463 0.3518201,0.255266 0.5422836,0.145303 0.1904632,-0.109964 0.2552703,-0.35182 0.1453068,-0.542284 L 7.0368051,6.8803955 C 7.107455,6.7595791 7.1449075,6.6222315 7.1453751,6.4822752 7.1450576,6.3428141 7.1080003,6.205898 7.0379484,6.0853068 L 7.6863297,4.9618889 C 7.7962934,4.7714296 7.7314663,4.5296441 7.541007,4.4196806 7.3505436,4.3097169 7.1087586,4.374544 6.9987951,4.565007 L 6.3499616,5.6886815 C 6.0669461,5.6891842 5.8055955,5.840301 5.6639651,6.0853221 L 4.365711,6.0852033 c -0.2199277,3e-7 -0.396961,0.1769777 -0.396961,0.3969054 0,0.075601 0.02069,0.146371 0.057086,0.2063861 z"
     style="opacity:0.2;fill:#000000;stroke-width:0.264655"
     id="path71106" />
  <path
     d="m 4.0258447,6.4239236 c 0.069475,0.114581 0.195493,0.1905746 0.3398197,0.1905741 l 1.2994093,4.79e-5 C 5.8061632,6.8588669 6.0663114,7.009963 6.3484405,7.0114507 L 6.9979289,8.1363953 C 7.1078923,8.3268588 7.349749,8.3916619 7.5402125,8.2816981 7.7306757,8.1717344 7.7954828,7.929878 7.6855193,7.7394145 L 7.0368051,6.6158121 C 7.107455,6.4949957 7.1449075,6.3576481 7.1453751,6.2176918 7.1450576,6.0782307 7.1080003,5.9413146 7.0379484,5.8207234 L 7.6863297,4.6973055 C 7.7962934,4.5068462 7.7314663,4.2650607 7.541007,4.1550972 7.3505436,4.0451335 7.1087586,4.1099606 6.9987951,4.3004236 L 6.3499616,5.4240981 C 6.0669461,5.4246008 5.8055955,5.5757176 5.6639651,5.8207387 L 4.365711,5.8206199 c -0.2199277,3e-7 -0.396961,0.1769777 -0.396961,0.3969054 0,0.075601 0.02069,0.146371 0.057086,0.2063861 z"
     id="path70688"
     style="fill:#cdcdcd;fill-opacity:1;stroke-width:0.264655"
     sodipodi:nodetypes="sccccsccccccccccsss" />
  <path
     id="rect35821"
     style="opacity:0.2;fill:#000000;fill-opacity:1;stroke:none;stroke-width:0.132291;stroke-linecap:square;stroke-linejoin:bevel"
     d="m 2.778125,3.4395834 c -0.07329,0 -0.1322917,0.059002 -0.1322917,0.1322915 v 0.7937503 c 0,0.073289 0.059002,0.1322915 0.1322917,0.1322915 h 0.2645833 c 0.07329,0 0.1322917,-0.059002 0.1322917,-0.1322915 V 3.5718749 c 0,-0.073289 -0.059002,-0.1322915 -0.1322917,-0.1322915 z m 0,5.2916667 c -0.07329,0 -0.1322917,0.059002 -0.1322917,0.1322915 v 0.7937502 c 0,0.07329 0.059002,0.132291 0.1322917,0.132291 h 0.2645833 c 0.07329,0 0.1322917,-0.059 0.1322917,-0.132291 V 8.8635416 c 0,-0.073289 -0.059002,-0.1322915 -0.1322917,-0.1322915 z"
     sodipodi:nodetypes="ssssssssssssssssss" />
  <path
     id="rect34365"
     style="fill:#bbbbbb;fill-opacity:1;stroke:none;stroke-width:0.132291;stroke-linecap:square;stroke-linejoin:bevel"
     d="m 2.778125,3.175 c -0.07329,0 -0.1322917,0.059002 -0.1322917,0.1322917 v 0.7937501 c 0,0.073289 0.059002,0.1322914 0.1322917,0.1322914 h 0.2645833 c 0.07329,0 0.1322917,-0.059002 0.1322917,-0.1322914 V 3.3072917 C 3.175,3.2340017 3.115998,3.175 3.0427083,3.175 Z m 0,5.2916665 c -0.07329,0 -0.1322917,0.059003 -0.1322917,0.132292 v 0.7937493 c 0,0.07329 0.059002,0.132292 0.1322917,0.132292 h 0.2645833 c 0.07329,0 0.1322917,-0.059 0.1322917,-0.132292 V 8.5989585 c 0,-0.073289 -0.059002,-0.132292 -0.1322917,-0.132292 z"
     sodipodi:nodetypes="ssssssssssssssssss" />
</svg>
