<?xml version="1.0" encoding="UTF-8" standalone="no"?>
<!-- Created with Inkscape (http://www.inkscape.org/) -->

<svg
   width="48"
   height="48"
   viewBox="0 0 12.7 12.7"
   version="1.1"
   id="svg5"
   inkscape:version="1.2 (dc2aedaf03, 2022-05-15)"
   sodipodi:docname="discord.svg"
   xmlns:inkscape="http://www.inkscape.org/namespaces/inkscape"
   xmlns:sodipodi="http://sodipodi.sourceforge.net/DTD/sodipodi-0.dtd"
   xmlns="http://www.w3.org/2000/svg"
   xmlns:svg="http://www.w3.org/2000/svg">
  <sodipodi:namedview
     id="namedview7"
     pagecolor="#ffffff"
     bordercolor="#666666"
     borderopacity="1.0"
     inkscape:pageshadow="2"
     inkscape:pageopacity="0.0"
     inkscape:pagecheckerboard="0"
     inkscape:document-units="px"
     showgrid="false"
     units="px"
     height="48px"
     inkscape:zoom="17.020833"
     inkscape:cx="24.058752"
     inkscape:cy="24.058752"
     inkscape:window-width="1920"
     inkscape:window-height="1017"
     inkscape:window-x="0"
     inkscape:window-y="0"
     inkscape:window-maximized="1"
     inkscape:current-layer="svg5"
     showguides="false"
     inkscape:showpageshadow="2"
     inkscape:deskcolor="#d1d1d1" />
  <defs
     id="defs2" />
  <rect
     style="opacity:1;fill:#5865f4;fill-opacity:1;stroke-width:0.264583"
     id="rect1040"
     width="11.641666"
     height="12.170834"
     x="0.52916664"
     y="0.52916664"
     ry="5.8208332" />
  <path
     id="rect1496"
     style="opacity:0.5;fill:#000000;stroke-width:0.264583"
     d="M 6.35 0.52916667 C 3.1252619 0.52916667 0.52916667 3.1252619 0.52916667 6.35 L 0.52916667 6.8791667 C 0.52916667 10.103905 3.1252619 12.7 6.35 12.7 C 9.5747381 12.7 12.170833 10.103905 12.170833 6.8791667 L 12.170833 6.35 C 12.170833 3.1252619 9.5747381 0.52916667 6.35 0.52916667 z M 6.35 0.79375 A 5.5562501 5.5562501 0 0 1 11.90625 6.35 A 5.5562501 5.5562501 0 0 1 6.35 11.90625 A 5.5562501 5.5562501 0 0 1 0.79375 6.35 A 5.5562501 5.5562501 0 0 1 6.35 0.79375 z " />
  <path
     d="m 5.3644535,3.7045466 c -0.4913276,0.0854 -0.9617051,0.2349103 -1.4004314,0.4382162 -0.0038,0.00167 -0.00663,0.00417 -0.00878,0.00775 -0.8918257,1.3446238 -1.1363248,2.6563838 -1.0164754,3.9516967 5.556e-4,0.00634 0.0039,0.012168 0.00878,0.01602 0.588401,0.4360831 1.1583416,0.7009546 1.7177244,0.8764323 0.00895,0.00276 0.018592,-3.175e-4 0.024289,-0.00775 C 4.821882,8.8045512 4.9398263,8.6914791 5.0409596,8.4892684 5.0469286,8.4774256 5.0412771,8.4634636 5.0290745,8.4587791 4.841981,8.3871548 4.6640421,8.3000831 4.4926734,8.2009138 c -0.013555,-0.00799 -0.015047,-0.027839 -0.00259,-0.037207 0.036062,-0.027271 0.072536,-0.055583 0.1069703,-0.084233 0.00623,-0.00523 0.014896,-0.00641 0.02222,-0.0031 1.125819,0.5187374 2.3446179,0.5187374 3.4571535,0 0.00732,-0.00358 0.015719,-0.00267 0.02222,0.00259 0.034444,0.02865 0.070637,0.057479 0.1069702,0.084749 0.01247,0.00937 0.011491,0.029218 -0.00206,0.037207 -0.1713688,0.1010957 -0.3495524,0.1865146 -0.5369182,0.2578653 -0.012197,0.00468 -0.017338,0.018648 -0.011369,0.030489 0.1033036,0.2019274 0.2210022,0.3147563 0.350883,0.4971272 0.00543,0.00772 0.015335,0.011028 0.024289,0.00827 0.5620962,-0.1754778 1.1319074,-0.4403492 1.720309,-0.8764323 0.0052,-0.00385 0.0088,-0.00968 0.0093,-0.01602 C 9.9034862,6.604695 9.5193936,5.3042079 8.742542,4.1510389 8.740642,4.1471889 8.737562,4.1444189 8.733762,4.1427689 8.2952981,3.9397398 7.825437,3.790229 7.3338382,3.7045554 c -0.00895,-0.00167 -0.018127,0.00209 -0.022738,0.010335 -0.060469,0.1085375 -0.1272455,0.1972134 -0.1741498,0.3085077 -0.5287463,-0.079887 -1.0551263,-0.079887 -1.5730305,0 C 5.5170059,3.9096302 5.4479266,3.8234279 5.3871865,3.71489 5.3825748,3.7069022 5.3734017,3.7031769 5.3644482,3.7045554 Z M 5.1587812,6.0852799 c 0.3712657,0 0.6677792,0.2994665 0.6619751,0.6614583 0,0.3645987 -0.2936113,0.6614583 -0.6619751,0.6614583 -0.3625802,0 -0.6609416,-0.2968596 -0.6609416,-0.6614583 0,-0.3645987 0.2925675,-0.6614583 0.6609416,-0.6614583 z m 2.3817667,0 c 0.3712763,0 0.6672525,0.2994665 0.6614583,0.6614583 3e-7,0.3645987 -0.290182,0.6614583 -0.6614583,0.6614583 -0.3625696,0 -0.6614583,-0.2968596 -0.6614583,-0.6614583 0,-0.3645987 0.2930842,-0.6614583 0.6614583,-0.6614583 z"
     style="fill:#ffffff;stroke-width:0.264583"
     id="path1424" />
</svg>
