<?xml version="1.0" encoding="UTF-8" standalone="no"?>
<!-- Created with Inkscape (http://www.inkscape.org/) -->

<svg
   width="48"
   height="48"
   viewBox="0 0 12.7 12.7"
   version="1.1"
   id="svg5"
   inkscape:version="1.1.2 (0a00cf5339, 2022-02-04, custom)"
   sodipodi:docname="disk-burner.svg"
   xmlns:inkscape="http://www.inkscape.org/namespaces/inkscape"
   xmlns:sodipodi="http://sodipodi.sourceforge.net/DTD/sodipodi-0.dtd"
   xmlns="http://www.w3.org/2000/svg"
   xmlns:svg="http://www.w3.org/2000/svg">
  <sodipodi:namedview
     id="namedview7"
     pagecolor="#ffffff"
     bordercolor="#666666"
     borderopacity="1.0"
     inkscape:pageshadow="2"
     inkscape:pageopacity="0.0"
     inkscape:pagecheckerboard="0"
     inkscape:document-units="px"
     showgrid="false"
     units="px"
     height="48px"
     inkscape:zoom="16.708333"
     inkscape:cx="23.970075"
     inkscape:cy="24"
     inkscape:window-width="1920"
     inkscape:window-height="1017"
     inkscape:window-x="0"
     inkscape:window-y="0"
     inkscape:window-maximized="1"
     inkscape:current-layer="svg5"
     showguides="false" />
  <defs
     id="defs2" />
  <rect
     style="opacity:1;fill:#cdcdcd;fill-opacity:1;stroke-width:0.264583"
     id="rect1040"
     width="11.641666"
     height="12.170834"
     x="0.52916664"
     y="0.52916664"
     ry="5.8208332" />
  <path
     id="path4647"
     style="opacity:0.5;fill:#000000;fill-opacity:1;stroke-width:0.999999"
     d="M 24 15 A 8.9999996 8.9999996 0 0 0 15 24 A 8.9999996 8.9999996 0 0 0 24 33 A 8.9999996 8.9999996 0 0 0 33 24 A 8.9999996 8.9999996 0 0 0 24 15 z M 24 16 A 7.9999996 7.9999996 0 0 1 32 24 A 7.9999996 7.9999996 0 0 1 24 32 A 7.9999996 7.9999996 0 0 1 16 24 A 7.9999996 7.9999996 0 0 1 24 16 z "
     transform="scale(0.26458333)" />
  <circle
     style="opacity:0.2;fill:#000000;fill-opacity:1;stroke-width:0.264583"
     id="path4779"
     cx="6.3499999"
     cy="6.3499999"
     r="2.1166666" />
  <path
     id="rect4520"
     style="opacity:0.5;fill:#000000;fill-opacity:1;stroke-width:0.999999"
     d="M 24 2 C 11.812001 2 2 11.812001 2 24 L 2 26 C 2 38.187999 11.812001 48 24 48 C 36.187999 48 46 38.187999 46 26 L 46 24 C 46 11.812001 36.187999 2 24 2 z M 24 3 A 21 21 0 0 1 45 24 A 21 21 0 0 1 24 45 A 21 21 0 0 1 3 24 A 21 21 0 0 1 24 3 z "
     transform="scale(0.26458333)" />
  <circle
     style="opacity:0.8;fill:#000000;fill-opacity:1;stroke-width:0.264583"
     id="path4905"
     cx="6.3499999"
     cy="6.3499999"
     r="0.79374999" />
  <path
     id="rect845"
     style="fill:#f15d22;fill-opacity:1;stroke-width:0.491368"
     d="m 9.260417,5.2916666 c 1.90553,0 3.439583,1.5340541 3.439583,3.4395827 v 0.5291663 c 0,1.9055304 -1.534053,3.4395834 -3.439583,3.4395834 -1.9055294,0 -3.4395837,-1.534053 -3.4395837,-3.4395834 V 8.7312493 c 0,-1.9055286 1.5340543,-3.4395827 3.4395837,-3.4395827 z"
     sodipodi:nodetypes="sssssss" />
  <path
     d="m 9.2101556,10.062369 c -0.3090332,0 -0.5574769,-0.2447387 -0.5574769,-0.5450417 0,-0.2815167 0.1788583,-0.479425 0.4863039,-0.5421313 0.307446,-0.062442 0.6252097,-0.2100792 0.8022167,-0.4479396 0.06773,0.2241021 0.1008057,0.460375 0.1008057,0.701675 0,0.4596759 -0.3721757,0.8325626 -0.8318494,0.8334376 M 9.5210403,6.8794314 c 0,0 0.128588,0.4598459 0.128588,0.8334375 0,0.3577167 -0.2344207,0.6477 -0.5924017,0.6477 -0.3593042,0 -0.6302375,-0.2899833 -0.6302375,-0.6477 l 0.00529,-0.064294 C 8.0685908,8.0812692 7.8698755,8.6287709 7.8713624,9.1940061 7.8712169,9.9612683 8.493165,10.583334 9.2604246,10.583334 10.027686,10.58348 10.649751,9.9615333 10.649751,9.1942707 c 0,-0.9379479 -0.449792,-1.77165 -1.1287127,-2.3151041 z"
     style="fill:#ffffff;stroke-width:0.264583"
     id="path965" />
  <path
     id="path4242"
     style="opacity:0.5;fill:#000000;fill-opacity:1;stroke-width:0.130008"
     d="m 9.260417,5.2916666 c -1.9055299,0 -3.4395837,1.5340549 -3.4395837,3.4395833 v 0.5291667 c 0,1.9055304 1.5340538,3.4395824 3.4395837,3.4395824 1.905529,0 3.439583,-1.534052 3.439583,-3.4395824 V 8.7312499 C 12.7,6.8257215 11.165946,5.2916666 9.260417,5.2916666 Z m 0,0.2645833 a 3.175,3.175 0 0 1 3.175,3.175 3.175,3.175 0 0 1 -3.175,3.1749991 3.175,3.175 0 0 1 -3.1750004,-3.1749991 3.175,3.175 0 0 1 3.1750004,-3.175 z" />
</svg>
