<?xml version="1.0" encoding="UTF-8" standalone="no"?>
<!-- Created with Inkscape (http://www.inkscape.org/) -->

<svg
   width="48"
   height="48"
   viewBox="0 0 48 48.000002"
   version="1.1"
   id="svg5"
   inkscape:version="1.2.1 (9c6d41e410, 2022-07-14, custom)"
   sodipodi:docname="dolphin-emu.svg"
   xmlns:inkscape="http://www.inkscape.org/namespaces/inkscape"
   xmlns:sodipodi="http://sodipodi.sourceforge.net/DTD/sodipodi-0.dtd"
   xmlns="http://www.w3.org/2000/svg"
   xmlns:svg="http://www.w3.org/2000/svg">
  <sodipodi:namedview
     id="namedview7"
     pagecolor="#ffffff"
     bordercolor="#000000"
     borderopacity="0.25"
     inkscape:showpageshadow="2"
     inkscape:pageopacity="0.0"
     inkscape:pagecheckerboard="0"
     inkscape:deskcolor="#d1d1d1"
     inkscape:document-units="px"
     showgrid="false"
     showguides="false"
     inkscape:zoom="16.416667"
     inkscape:cx="24"
     inkscape:cy="24"
     inkscape:window-width="1920"
     inkscape:window-height="1011"
     inkscape:window-x="0"
     inkscape:window-y="0"
     inkscape:window-maximized="1"
     inkscape:current-layer="svg5" />
  <defs
     id="defs2" />
  <rect
     style="fill:#ededed;fill-opacity:1;stroke-width:0.999999"
     id="rect1162"
     width="40"
     height="39"
     x="4"
     y="5.0000005"
     ry="3.5" />
  <path
     id="rect1316"
     style="opacity:0.5;fill:#000000;stroke-width:0.999999"
     d="m 7.5000008,5 c -1.939,0 -3.5,1.561 -3.5,3.5 v 32.000001 c 0,1.938999 1.561,3.500001 3.5,3.500001 H 40.500001 c 1.939,0 3.500002,-1.561002 3.500002,-3.500001 V 8.5 c 0,-1.939 -1.561002,-3.5 -3.500002,-3.5 z m 0.5,1 H 40 c 1.662002,0 3,1.338 3,3 v 29.000002 c 0,1.661998 -1.337998,3 -3,3 H 8.0000008 c -1.662,0 -3,-1.338002 -3,-3 V 9 c 0,-1.662 1.338,-3 3,-3 z"
     sodipodi:nodetypes="ssssssssssssssssss" />
  <path
     d="m 28.405972,17.047398 c -1.397969,0.08968 -2.65344,0.909048 -2.888072,1.019608 -0.749352,-0.221119 -1.611719,-0.66336 -2.615359,-0.835342 -3.475269,-0.589653 -6.414937,0.35625 -7.891527,1.375858 -1.933572,1.34269 -1.880748,2.849991 -2.040446,3.47527 -0.09877,0.393103 -0.982756,1.1056 -0.970471,1.606805 0.0172,0.651075 0.429956,0.872195 0.429956,0.872195 0.368532,-0.02911 0.921332,-0.294827 1.390598,-0.491377 0.700213,-0.282542 0.749352,-0.442241 2.660811,-0.724783 0.872195,-0.135129 1.802128,-0.171982 2.490057,-0.171982 0.270258,0.565084 0.933618,1.728422 2.087127,2.286135 0.687929,0.319396 1.714908,0.454525 2.170661,0.540515 l 1.331633,0.196552 v -0.540515 h -0.0017 c 0,0 -1.117884,-0.466809 -1.805813,-1.154738 -0.294826,-0.294828 -0.294826,-0.638791 -0.368533,-0.982757 1.056462,0.196552 2.003593,0.35625 4.239362,1.203876 2.058873,0.786205 3.464213,1.933572 3.465442,1.934801 l 0.0017,0.0017 0.0034,0.0034 v -0.540516 l -0.005,-0.0034 c -0.01867,-0.02322 -1.460621,-1.810727 -3.885569,-3.007231 -2.004822,-0.982757 -3.650937,-1.477819 -5.93093,-1.588379 C 17.904858,21.408229 16.171982,21.68279 16,21.707359 c 0.208834,-0.405387 0.77346,-1.081031 1.877831,-1.600664 1.636289,-0.761634 4.208651,-0.896763 7.16306,-0.147413 4.173025,1.068747 5.596793,3.036716 7.392779,4.911322 1.910232,1.992537 3.560032,5.341276 3.56126,5.344961 l 0.0016,0.0035 0.0035,0.0084 V 29.68695 l -0.01511,-0.0419 c -0.07985,-0.270257 -0.577369,-1.880748 -1.41394,-3.427359 -1.1056,-2.037991 -2.053959,-3.494924 -3.636195,-4.973972 -1.105599,-0.823058 -2.227169,-1.944628 -2.035532,-2.428635 0.491378,-0.651075 1.843894,-1.056462 1.848809,-1.056462 h 0.0034 v -0.0015 -0.540516 c 0,0 -0.847627,-0.294826 -2.341416,-0.19655 z m 1.671913,9.612577 c 0,0 0.01339,0.01164 0,0 z"
     style="fill:#0096f4;stroke-width:1.19963"
     id="path1698"
     sodipodi:nodetypes="cccccccccccccccsccsccccccccccccccccccsccccccc" />
</svg>
