<?xml version="1.0" encoding="UTF-8" standalone="no"?>
<!-- Created with Inkscape (http://www.inkscape.org/) -->

<svg
   width="48"
   height="48"
   viewBox="0 0 12.7 12.7"
   version="1.1"
   id="svg5"
   inkscape:version="1.2 (dc2aedaf03, 2022-05-15)"
   sodipodi:docname="evolution.svg"
   xmlns:inkscape="http://www.inkscape.org/namespaces/inkscape"
   xmlns:sodipodi="http://sodipodi.sourceforge.net/DTD/sodipodi-0.dtd"
   xmlns="http://www.w3.org/2000/svg"
   xmlns:svg="http://www.w3.org/2000/svg">
  <sodipodi:namedview
     id="namedview7"
     pagecolor="#ffffff"
     bordercolor="#666666"
     borderopacity="1.0"
     inkscape:pageshadow="2"
     inkscape:pageopacity="0.0"
     inkscape:pagecheckerboard="0"
     inkscape:document-units="px"
     showgrid="false"
     units="px"
     height="48px"
     inkscape:zoom="11.814576"
     inkscape:cx="38.807994"
     inkscape:cy="24.207386"
     inkscape:window-width="1920"
     inkscape:window-height="1011"
     inkscape:window-x="0"
     inkscape:window-y="0"
     inkscape:window-maximized="1"
     inkscape:current-layer="svg5"
     showguides="false"
     inkscape:showpageshadow="2"
     inkscape:deskcolor="#d1d1d1" />
  <defs
     id="defs2" />
  <path
     d="M 1.3229166,3.0427083 6.3499999,0.66145833 11.377083,3.0427083 c 0.133615,0.0635 0.529167,0.339725 0.529167,0.9260416 v 6.8791671 c 0,0.586317 -0.472017,1.058333 -1.058333,1.058333 H 1.8520833 C 1.2657667,11.90625 0.79375,11.434234 0.79375,10.847917 V 3.9687499 c 0,-0.5863166 0.396875,-0.855927 0.5291666,-0.9260416 z"
     style="fill:#6f6f6f;stroke-width:0.264583;fill-opacity:1"
     id="path14790" />
  <rect
     style="fill:#f2f2f2;fill-opacity:1;stroke-width:0.264583"
     id="rect3362"
     width="7.9375"
     height="8.7312498"
     x="2.3812499"
     y="1.3229166"
     ry="1.0583333" />
  <path
     id="rect10631"
     style="opacity:0.5;fill:#000000;fill-opacity:1;stroke-width:0.529167;stroke-linejoin:bevel"
     d="m 3.4395834,1.3229167 c -0.5863161,0 -1.0583333,0.4720172 -1.0583333,1.0583333 v 6.6145828 c 0,0.586316 0.4720172,1.0583342 1.0583333,1.0583342 h 5.8208328 c 0.5863156,0 1.0583338,-0.4720182 1.0583338,-1.0583342 V 2.38125 c 0,-0.5863161 -0.4720182,-1.0583333 -1.0583338,-1.0583333 z m 0,0.2645833 h 5.8208328 c 0.4397366,0 0.7937498,0.3540129 0.7937498,0.79375 v 6.6145828 c 0,0.439737 -0.3540132,0.7937499 -0.7937498,0.7937499 H 3.4395834 c -0.4397371,0 -0.79375,-0.3540129 -0.79375,-0.7937499 V 2.38125 c 0,-0.4397371 0.3540129,-0.79375 0.79375,-0.79375 z"
     sodipodi:nodetypes="ssssssssssssssssss" />
  <path
     d="m 0.79375,4.4979163 v 5.8208327 c 0,0.586317 0.4720167,1.058333 1.0583333,1.058333 h 8.9958337 c 0.586316,0 1.058333,-0.472016 1.058333,-1.058333 V 4.4979163 L 6.3499999,8.4666662 Z"
     style="fill:#dedede;stroke-width:0.264583;fill-opacity:1"
     id="path16273" />
  <path
     id="path1055"
     style="fill:#afafaf;stroke-width:0.264583;fill-opacity:1"
     d="M 3.7041667 6.5768595 L 0.79375 10.31875 C 0.79375 10.905064 1.2657679 11.377083 1.8520833 11.377083 L 10.847917 11.377083 C 11.434232 11.377083 11.90625 10.905064 11.90625 10.31875 L 8.9958333 6.5768595 L 6.35 8.4666667 L 3.7041667 6.5768595 z " />
  <path
     id="rect1453"
     style="opacity:0.4;fill:#393939;fill-opacity:1;stroke-width:2;stroke-linecap:round;stroke-linejoin:round"
     d="M 7.0000001 11 C 4.7840024 11 3 12.784002 3 15 L 3 39 C 3 41.215998 4.7840024 43.000001 7.0000001 43.000001 L 41.000001 43.000001 C 43.215998 43.000001 45.000001 41.215998 45.000001 39 L 45.000001 15 C 45.000001 12.784002 43.215998 11 41.000001 11 L 41.000001 12.039063 C 42.699928 12.280752 44.000001 13.731217 44.000001 15.5 L 44.000001 38.5 C 44.000001 40.438999 42.438999 42.000001 40.500001 42.000001 L 7.5000001 42.000001 C 5.561002 42.000001 4.0000001 40.438999 4.0000001 38.5 L 4.0000001 15.5 C 4.0000001 13.731217 5.3000726 12.280752 7.0000001 12.039063 L 7.0000001 11 z "
     transform="scale(0.26458333)" />
  <path
     id="rect845"
     style="fill:#552d5d;fill-opacity:1;stroke-width:0.491368"
     d="M 9.2604171,5.2916667 C 11.165947,5.2916667 12.7,6.8257208 12.7,8.7312495 v 0.529166 c 0,1.9055305 -1.534053,3.4395825 -3.4395829,3.4395825 -1.9055295,0 -3.4395838,-1.534053 -3.4395838,-3.4395825 v -0.529166 c 0,-1.9055287 1.5340543,-3.4395828 3.4395838,-3.4395828 z"
     sodipodi:nodetypes="sssssss" />
  <circle
     style="fill:#aa5abb;fill-opacity:1;stroke-width:0.264583"
     id="path1732"
     cx="9.260417"
     cy="8.7312498"
     r="3.175" />
  <circle
     style="fill:#f2f2f2;fill-opacity:1;stroke-width:0.396875;stroke-linejoin:bevel"
     id="path11967"
     cx="9.260417"
     cy="8.7312498"
     r="2.3812499" />
  <path
     id="rect12835"
     style="fill:#424242;stroke-width:0.529167;stroke-linejoin:bevel"
     d="m 8.9958332,6.8791671 h 0.5291659 v 1.5875 H 11.112499 V 8.9958335 H 8.9958332 Z"
     sodipodi:nodetypes="ccccccc" />
</svg>
