<?xml version="1.0" encoding="UTF-8" standalone="no"?>
<!-- Created with Inkscape (http://www.inkscape.org/) -->

<svg
   width="48"
   height="48"
   viewBox="0 0 12.7 12.7"
   version="1.1"
   id="svg5"
   inkscape:version="1.2 (dc2aedaf03, 2022-05-15)"
   sodipodi:docname="fcitx.svg"
   xmlns:inkscape="http://www.inkscape.org/namespaces/inkscape"
   xmlns:sodipodi="http://sodipodi.sourceforge.net/DTD/sodipodi-0.dtd"
   xmlns="http://www.w3.org/2000/svg"
   xmlns:svg="http://www.w3.org/2000/svg">
  <sodipodi:namedview
     id="namedview7"
     pagecolor="#ffffff"
     bordercolor="#666666"
     borderopacity="1.0"
     inkscape:pageshadow="2"
     inkscape:pageopacity="0.0"
     inkscape:pagecheckerboard="0"
     inkscape:document-units="px"
     showgrid="false"
     units="px"
     height="48px"
     inkscape:zoom="11.461022"
     inkscape:cx="-12.477072"
     inkscape:cy="28.967748"
     inkscape:window-width="1920"
     inkscape:window-height="1014"
     inkscape:window-x="0"
     inkscape:window-y="0"
     inkscape:window-maximized="1"
     inkscape:current-layer="svg5"
     showguides="false"
     inkscape:showpageshadow="2"
     inkscape:deskcolor="#d1d1d1" />
  <defs
     id="defs2" />
  <rect
     style="opacity:1;fill:#7b736e;fill-opacity:1;stroke-width:0.264583"
     id="rect1162"
     width="11.1125"
     height="8.4666662"
     x="0.79374999"
     y="2.9104166"
     ry="1.0583333" />
  <path
     d="m 2.3812497,4.7625 c -0.1465792,0 -0.2645833,0.1180042 -0.2645833,0.2645834 v 0.79375 c 0,0.1465791 0.1180041,0.2645833 0.2645833,0.2645833 h 0.79375 c 0.1465791,0 0.2645833,-0.1180042 0.2645833,-0.2645833 v -0.79375 C 3.439583,4.8805042 3.3215788,4.7625 3.1749997,4.7625 Z m 1.8520833,0 c -0.1465792,0 -0.2645833,0.1180042 -0.2645833,0.2645834 v 0.79375 c 0,0.1465791 0.1180041,0.2645833 0.2645833,0.2645833 h 0.79375 c 0.1465792,0 0.2645833,-0.1180042 0.2645833,-0.2645833 v -0.79375 C 5.2916663,4.8805042 5.1736622,4.7625 5.027083,4.7625 Z m 1.8520833,0 c -0.1465791,0 -0.2645833,0.1180042 -0.2645833,0.2645834 v 0.79375 c 0,0.1465791 0.1180042,0.2645833 0.2645833,0.2645833 h 0.7937502 c 0.146579,0 0.264583,-0.1180042 0.264583,-0.2645833 v -0.79375 C 7.1437495,4.8805042 7.0257455,4.7625 6.8791665,4.7625 Z m 1.8520832,0 c -0.146579,0 -0.264583,0.1180042 -0.264583,0.2645834 v 0.79375 c 0,0.1465791 0.118004,0.2645833 0.264583,0.2645833 h 0.79375 c 0.146579,0 0.264583,-0.1180042 0.264583,-0.2645833 v -0.79375 C 8.9958325,4.8805042 8.8778285,4.7625 8.7312495,4.7625 Z m 1.852084,0 c -0.146579,0 -0.264584,0.1180042 -0.264584,0.2645834 v 0.79375 c 0,0.1465791 0.118005,0.2645833 0.264584,0.2645833 h 0.7937495 c 0.146579,0 0.264583,-0.1180042 0.264583,-0.2645833 v -0.79375 C 10.847916,4.8805042 10.729912,4.7625 10.583333,4.7625 Z M 2.3812497,6.6145833 c -0.1465792,0 -0.2645833,0.1180042 -0.2645833,0.2645834 v 0.79375 c 0,0.1465791 0.1180041,0.2645833 0.2645833,0.2645833 h 0.79375 c 0.1465791,0 0.2645833,-0.1180042 0.2645833,-0.2645833 v -0.79375 c 0,-0.1465792 -0.1180042,-0.2645834 -0.2645833,-0.2645834 z m 1.8520833,0 c -0.1465792,0 -0.2645833,0.1180042 -0.2645833,0.2645834 v 0.79375 c 0,0.1465791 0.1180041,0.2645833 0.2645833,0.2645833 h 0.79375 c 0.1465792,0 0.2645833,-0.1180042 0.2645833,-0.2645833 v -0.79375 c 0,-0.1465792 -0.1180041,-0.2645834 -0.2645833,-0.2645834 z m 1.8520833,0 c -0.1465791,0 -0.2645833,0.1180042 -0.2645833,0.2645834 v 0.79375 c 0,0.1465791 0.1180042,0.2645833 0.2645833,0.2645833 h 0.7937502 c 0.146579,0 0.264583,-0.1180042 0.264583,-0.2645833 v -0.79375 c 0,-0.1465792 -0.118004,-0.2645834 -0.264583,-0.2645834 z m 1.8520832,0 c -0.146579,0 -0.264583,0.1180042 -0.264583,0.2645834 v 0.79375 c 0,0.1465791 0.118004,0.2645833 0.264583,0.2645833 h 0.79375 c 0.146579,0 0.264583,-0.1180042 0.264583,-0.2645833 v -0.79375 c 0,-0.1465792 -0.118004,-0.2645834 -0.264583,-0.2645834 z m 1.852084,0 c -0.146579,0 -0.264584,0.1180042 -0.264584,0.2645834 v 0.79375 c 0,0.1465791 0.118005,0.2645833 0.264584,0.2645833 h 0.7937495 c 0.146579,0 0.264583,-0.1180042 0.264583,-0.2645833 v -0.79375 c 0,-0.1465792 -0.118004,-0.2645834 -0.264583,-0.2645834 z M 3.9687497,8.4666666 c -0.1465792,0 -0.2645834,0.1180041 -0.2645834,0.2645831 v 0.79375 c 0,0.146579 0.1180042,0.264583 0.2645834,0.264583 h 5.0270828 c 0.14658,0 0.264584,-0.118004 0.264584,-0.264583 v -0.79375 c 0,-0.146579 -0.118004,-0.2645831 -0.264584,-0.2645831 z"
     style="opacity:0.5;fill:#000000;fill-opacity:1;stroke-width:0.264583"
     id="path10709" />
  <path
     d="m 2.38125,4.4979167 c -0.1465792,0 -0.2645833,0.1180042 -0.2645833,0.2645834 v 0.79375 c 0,0.1465791 0.1180041,0.2645833 0.2645833,0.2645833 H 3.175 c 0.1465791,0 0.2645833,-0.1180042 0.2645833,-0.2645833 v -0.79375 C 3.4395833,4.6159209 3.3215791,4.4979167 3.175,4.4979167 Z m 1.8520833,0 c -0.1465792,0 -0.2645833,0.1180042 -0.2645833,0.2645834 v 0.79375 c 0,0.1465791 0.1180041,0.2645833 0.2645833,0.2645833 h 0.79375 c 0.1465792,0 0.2645833,-0.1180042 0.2645833,-0.2645833 v -0.79375 c 0,-0.1465792 -0.1180041,-0.2645834 -0.2645833,-0.2645834 z m 1.8520833,0 c -0.1465791,0 -0.2645833,0.1180042 -0.2645833,0.2645834 v 0.79375 c 0,0.1465791 0.1180042,0.2645833 0.2645833,0.2645833 h 0.79375 c 0.1465792,0 0.2645833,-0.1180042 0.2645833,-0.2645833 v -0.79375 c 0,-0.1465792 -0.1180041,-0.2645834 -0.2645833,-0.2645834 z m 1.8520833,0 c -0.1465791,0 -0.2645833,0.1180042 -0.2645833,0.2645834 v 0.79375 c 0,0.1465791 0.1180042,0.2645833 0.2645833,0.2645833 h 0.79375 c 0.1465792,0 0.2645833,-0.1180042 0.2645833,-0.2645833 v -0.79375 c 0,-0.1465792 -0.1180041,-0.2645834 -0.2645833,-0.2645834 z m 1.8520836,0 c -0.146579,0 -0.264584,0.1180042 -0.264584,0.2645834 v 0.79375 c 0,0.1465791 0.118005,0.2645833 0.264584,0.2645833 h 0.7937495 c 0.146579,0 0.264583,-0.1180042 0.264583,-0.2645833 v -0.79375 c 0,-0.1465792 -0.118004,-0.2645834 -0.264583,-0.2645834 z M 2.38125,6.35 c -0.1465792,0 -0.2645833,0.1180042 -0.2645833,0.2645834 v 0.79375 c 0,0.1465791 0.1180041,0.2645833 0.2645833,0.2645833 H 3.175 c 0.1465791,0 0.2645833,-0.1180042 0.2645833,-0.2645833 v -0.79375 C 3.4395833,6.4680042 3.3215791,6.35 3.175,6.35 Z m 1.8520833,0 C 4.0867541,6.35 3.96875,6.4680042 3.96875,6.6145834 v 0.79375 c 0,0.1465791 0.1180041,0.2645833 0.2645833,0.2645833 h 0.79375 c 0.1465792,0 0.2645833,-0.1180042 0.2645833,-0.2645833 v -0.79375 C 5.2916666,6.4680042 5.1736625,6.35 5.0270833,6.35 Z m 1.8520833,0 c -0.1465791,0 -0.2645833,0.1180042 -0.2645833,0.2645834 v 0.79375 c 0,0.1465791 0.1180042,0.2645833 0.2645833,0.2645833 h 0.79375 c 0.1465792,0 0.2645833,-0.1180042 0.2645833,-0.2645833 v -0.79375 C 7.1437499,6.4680042 7.0257458,6.35 6.8791666,6.35 Z m 1.8520833,0 c -0.1465791,0 -0.2645833,0.1180042 -0.2645833,0.2645834 v 0.79375 c 0,0.1465791 0.1180042,0.2645833 0.2645833,0.2645833 h 0.79375 c 0.1465792,0 0.2645833,-0.1180042 0.2645833,-0.2645833 v -0.79375 C 8.9958332,6.4680042 8.8778291,6.35 8.7312499,6.35 Z m 1.8520836,0 c -0.146579,0 -0.264584,0.1180042 -0.264584,0.2645834 v 0.79375 c 0,0.1465791 0.118005,0.2645833 0.264584,0.2645833 h 0.7937495 c 0.146579,0 0.264583,-0.1180042 0.264583,-0.2645833 v -0.79375 C 10.847916,6.4680042 10.729912,6.35 10.583333,6.35 Z M 3.96875,8.2020833 c -0.1465792,0 -0.2645834,0.1180042 -0.2645834,0.2645834 v 0.79375 c 0,0.1465792 0.1180042,0.2645832 0.2645834,0.2645832 h 5.0270832 c 0.1465792,0 0.2645834,-0.118004 0.2645834,-0.2645832 v -0.79375 c 0,-0.1465792 -0.1180042,-0.2645834 -0.2645834,-0.2645834 z"
     style="fill:#ededed;fill-opacity:1;stroke-width:0.264583"
     id="path10290"
     sodipodi:nodetypes="sssssssssssssssssssssssssssssssssssssssssssssssssssssssssssssssssssssssssssssssssssssssssssssssssss" />
  <path
     id="rect1319"
     style="opacity:0.5;fill:#000000;fill-opacity:1;stroke-width:0.264583"
     d="M 1.8520833 2.9104167 C 1.2657673 2.9104167 0.79375 3.382434 0.79375 3.96875 L 0.79375 10.31875 C 0.79375 10.905066 1.2657673 11.377083 1.8520833 11.377083 L 10.847917 11.377083 C 11.434233 11.377083 11.90625 10.905066 11.90625 10.31875 L 11.90625 3.96875 C 11.90625 3.382434 11.434233 2.9104167 10.847917 2.9104167 L 1.8520833 2.9104167 z M 1.8520833 3.175 L 10.847917 3.175 C 11.287654 3.175 11.641667 3.5290129 11.641667 3.96875 L 11.641667 9.7895833 C 11.641667 10.22932 11.287654 10.583333 10.847917 10.583333 L 1.8520833 10.583333 C 1.4123463 10.583333 1.0583333 10.22932 1.0583333 9.7895833 L 1.0583333 3.96875 C 1.0583333 3.5290129 1.4123463 3.175 1.8520833 3.175 z " />
</svg>
