<?xml version="1.0" encoding="UTF-8" standalone="no"?>
<!-- Created with Inkscape (http://www.inkscape.org/) -->

<svg
   width="48"
   height="48"
   viewBox="0 0 12.7 12.7"
   version="1.1"
   id="svg5"
   inkscape:version="1.1.2 (0a00cf5339, 2022-02-04, custom)"
   sodipodi:docname="firefoz.svg"
   xmlns:inkscape="http://www.inkscape.org/namespaces/inkscape"
   xmlns:sodipodi="http://sodipodi.sourceforge.net/DTD/sodipodi-0.dtd"
   xmlns="http://www.w3.org/2000/svg"
   xmlns:svg="http://www.w3.org/2000/svg">
  <sodipodi:namedview
     id="namedview7"
     pagecolor="#ffffff"
     bordercolor="#666666"
     borderopacity="1.0"
     inkscape:pageshadow="2"
     inkscape:pageopacity="0.0"
     inkscape:pagecheckerboard="0"
     inkscape:document-units="px"
     showgrid="false"
     units="px"
     height="48px"
     inkscape:zoom="11.814576"
     inkscape:cx="12.399937"
     inkscape:cy="24.545951"
     inkscape:window-width="1920"
     inkscape:window-height="1017"
     inkscape:window-x="0"
     inkscape:window-y="0"
     inkscape:window-maximized="1"
     inkscape:current-layer="svg5"
     showguides="false" />
  <defs
     id="defs2" />
  <path
     style="color:#000000;fill:#806900;fill-opacity:1;stroke:none;stroke-width:0.529167;-inkscape-stroke:none"
     d="M 8.0141035,0.52916667 C 8.332337,1.0996554 9.0445503,2.040988 10.10927,3.4046369 c 0.901716,1.1548795 1.005057,2.4433913 1.338405,3.6019112 L 8.942129,9.1630626 6.1119409,6.2576622 C 6.0992322,4.3261576 5.6356293,2.145705 8.0141035,0.52916667 Z"
     id="path3363"
     sodipodi:nodetypes="cscccc" />
  <path
     id="path3365"
     style="color:#000000;fill:#ffde3f;stroke:none;stroke-width:3.77953;-inkscape-stroke:none;fill-opacity:1"
     d="m 30.177734,3.4921875 c 1.268302,2.5291126 3.644514,5.3830312 7.240235,9.9882815 3.060428,3.919668 3.559128,8.335441 4.724609,12.652343 l -8.28125,7.13086 -9.751953,-10.009766 c -0.04949,-3.601836 -0.443427,-7.282229 0.177734,-10.697265 0.597562,-3.2852893 2.25198,-6.3077721 5.890625,-9.0644535 z"
     transform="scale(0.26458333)"
     sodipodi:nodetypes="cscccsc" />
  <rect
     style="opacity:1;fill:#472863;fill-opacity:1;stroke-width:0.132292"
     id="rect1040"
     width="5.8208332"
     height="6.0854168"
     x="3.4395833"
     y="3.4395833"
     ry="2.9104166" />
  <circle
     style="fill:#a448c7;fill-opacity:1;stroke-width:0.125992"
     id="path1188"
     cx="6.3499999"
     cy="6.3499999"
     r="2.6458333" />
  <path
     style="color:#000000;fill:#b57700;stroke:none;stroke-linecap:round;-inkscape-stroke:none;fill-opacity:1"
     d="m 7.3359375,4.2949219 c -0.042083,4.142e-4 -0.082748,0.00325 -0.125,0.00586 C 6.978816,4.3661409 6.9523884,4.7013638 7.1132812,4.8027344 7.7873843,5.1191764 8.2177701,5.7963347 8.21875,6.5410156 8.2172262,7.5651273 7.4154115,8.431707 6.3964844,8.484375 L 6.296875,8.9882813 c 0.041153,0.019472 0.085244,0.00912 0.1269531,0.025391 0.3003531,0.1171949 0.6105922,0.1827486 0.9140625,0.1835937 h 0.00195 C 8.6901698,9.1972778 9.7890446,8.0964198 9.7890625,6.7460937 9.7890737,5.3957469 8.6901907,4.2949097 7.3398437,4.2949219 h -0.00195 z"
     id="path2497"
     sodipodi:nodetypes="ccccccccscscc" />
  <path
     style="color:#000000;fill:#ffba36;stroke:none;stroke-width:0.529167;stroke-linecap:round;-inkscape-stroke:none"
     d="m 7.3392433,4.5600938 c -0.037634,3.704e-4 -0.075253,0.00169 -0.1128186,0.00401 0.766287,0.3597156 1.2560212,1.1294997 1.2571351,1.9760161 -5.821e-4,1.1630659 -0.9117177,2.1486188 -2.0732348,2.2086572 0.2904408,0.1374286 0.6076059,0.1825776 0.9289183,0.1834724 1.2073363,1.09e-5 2.186086,-0.9787173 2.186102,-2.1860536 10e-6,-1.2073552 -0.9787469,-2.186113 -2.186102,-2.1861021 z"
     id="path2495" />
  <path
     id="path971"
     style="color:#000000;fill:#a64700;fill-opacity:1;stroke:none;stroke-width:3.77953;-inkscape-stroke:none"
     d="M 12.603516,6.6875 11.076172,7.8691406 C 6.5355404,11.380521 3.5087881,16.711657 3.0742188,22.744141 3.034129,23.182522 3,23.668295 3,24.234375 v 2 C 3,37.697828 12.422207,47 24.001953,47 35.5817,47 45.000001,37.697832 45.000001,26.234375 v -2 c 0,-5.212526 -1.990449,-9.951901 -5.201173,-13.597656 -0.508346,-0.510125 -1.076557,-0.7055123 -1.763672,-0.7753909 l -0.554687,0.2070309 c -0.179123,0.210236 -0.276614,0.383414 -0.244141,0.617188 h -0.0059 v 1.878906 c -0.0012,0.0191 -7.99e-4,0.03874 0,0.05859 0.0072,0.179875 0.09586,0.393711 0.294922,0.693359 0.86957,1.441335 1.475358,3.061026 1.763671,4.791016 0.04176,0.250159 0.07339,0.508889 0.103516,0.77539 0.0155,0.142564 0.03578,0.27376 0.04492,0.390626 v 0.0078 c 0.0041,0.04897 0.0075,0.09286 0.01172,0.138672 -0.536684,7.068808 -6.430116,12.617187 -13.638672,12.617187 h -0.02344 l -0.02148,0.0078 c -4.81393,0.233691 -8.312112,-2.481822 -9.197266,-5.064453 -0.0095,-0.02772 -0.0164,-0.05122 -0.02539,-0.07813 0.191119,-0.231384 0.509668,-0.510479 1.029297,-0.859375 0.831381,-0.527751 2.053345,-0.932565 4.289062,-1.003907 l 0.279297,-0.0078 0.236328,-0.154297 c 1.11127,-0.730846 1.755852,-1.245532 2.177735,-1.765625 0.421881,-0.520093 0.46413,-1.18157 0.451171,-1.68164 l 0.01367,-1.417969 c 0.03025,-0.219398 0.02485,-0.42256 -0.01367,-0.582031 l -0.132812,-0.576172 -0.576172,-0.154297 c -0.48363,-0.132246 -2.29382,-0.825012 -3.779297,-1.994141 -0.485365,-0.382001 -1.234668,-1.054256 -2.089844,-1.689453 -0.126746,-0.438974 -0.240112,-0.872758 -0.30664,-1.376953 0.03904,-0.365383 0.09751,-0.766417 0.18164,-1.214844 l 0.316407,-1.667969 V 8.7558594 l -1.607422,0.53125 C 15.375308,9.8250786 14.27359,11.116599 13.142578,12.275391 12.913145,11.173743 12.746003,10.025455 12.685547,8.6152344 Z"
     transform="scale(0.26458333)"
     sodipodi:nodetypes="cccccsccccccccsccccccsccscccccscccccsccccccccc" />
  <path
     style="color:#000000;fill:#ff750e;stroke:none;stroke-width:0.529167;-inkscape-stroke:none"
     d="M 3.0925821,2.2907625 C 1.9470244,3.1766502 1.1840217,4.5200519 1.0761675,6.0419548 c -0.010043,0.1098201 -0.017053,0.2289966 -0.017053,0.3700031 0,2.88836 2.3691658,5.2296551 5.2916667,5.2296551 2.922501,0 5.2916668,-2.3412951 5.2916668,-5.2296551 0,-1.3447275 -0.513735,-2.5709096 -1.35754,-3.4974609 0.01881,-7.143e-4 -0.07881,-0.076108 -0.129191,-0.057361 0.24734,0.4099724 0.418999,0.8701362 0.500744,1.3606404 0.01208,0.072374 0.02165,0.1455571 0.02997,0.2191081 0.0041,0.037526 0.0084,0.074815 0.01137,0.1126545 0.0021,0.024881 0.0041,0.049916 0.0057,0.074931 0.0047,0.077894 0.0083,0.1560607 0.0083,0.2351278 0,2.1440777 -1.7383717,3.8824502 -3.8824498,3.8824502 C 5.452176,8.8088935 4.4162163,8.0481439 4.1338613,7.2243116 3.9516939,6.692797 4.011344,6.4685203 4.5069651,6.1380729 4.7761702,5.9671846 5.1552066,5.8514456 5.7761382,5.8316317 6.3433576,5.4585954 6.3868498,5.3151534 6.3595651,5.2022126 6.1833621,5.1540304 5.6974292,4.9674568 5.2655753,4.6275707 5.0904438,4.4897357 4.8931731,4.2881592 4.6247872,4.1087394 4.5258206,3.776808 4.4530327,3.4034248 4.5834462,2.708308 4.0897657,2.8706053 3.651794,3.3244131 3.3065218,3.7103142 3.2990738,3.7101901 3.2923216,3.7093617 3.284818,3.7092842 3.0742345,3.3037931 3.1132225,2.7722343 3.0925818,2.2907662 Z"
     id="path969" />
  <path
     d="M 4.5834461,2.708308 C 4.0897656,2.8706053 3.6517939,3.324413 3.3065218,3.7103142 3.8987912,3.7201646 4.3109464,3.8989322 4.6247872,4.1087394 4.5258206,3.7768079 4.4530327,3.4034248 4.5834461,2.708308 Z"
     style="fill:#ed6803;stroke-width:0.264583;fill-opacity:1"
     id="path1643" />
  <path
     d="M 3.4234571,5.0282969 C 3.0633497,5.0204838 2.684497,5.1439786 2.4436835,5.3083153 2.4005496,5.3514492 2.8629654,6.1322746 3.6677847,6.1407386 3.593269,7.4389982 4.6311908,8.2463332 5.28366,8.4341898 l 1.979e-4,-5.821e-4 c -1.73e-4,-8.89e-5 -3.44e-4,-2.003e-4 -5.292e-4,-2.91e-4 -0.052578,-0.026067 -0.1037196,-0.053478 -0.1534353,-0.082151 -0.00465,-0.00268 -0.00924,-0.00541 -0.013861,-0.00811 -0.027791,-0.016248 -0.055103,-0.032879 -0.081958,-0.04989 -0.00526,-0.00333 -0.010522,-0.00664 -0.015745,-0.01 -0.02688,-0.017293 -0.053253,-0.034959 -0.079156,-0.05298 -0.00406,-0.00283 -0.00818,-0.00561 -0.012218,-0.00845 -0.01487,-0.010469 -0.029606,-0.021029 -0.044142,-0.03173 -0.028508,-0.020987 -0.056296,-0.04245 -0.083503,-0.064281 -0.00646,-0.00518 -0.01284,-0.010377 -0.019222,-0.0156 -0.01927,-0.01578 -0.038211,-0.031727 -0.056796,-0.047909 -0.00905,-0.00787 -0.018018,-0.015798 -0.026901,-0.023762 -0.012898,-0.011573 -0.025651,-0.023207 -0.038202,-0.034966 -0.012128,-0.011353 -0.024135,-0.022767 -0.035932,-0.03429 -0.00973,-0.00952 -0.019373,-0.019063 -0.028881,-0.028688 -0.013819,-0.013978 -0.027427,-0.028058 -0.040761,-0.042259 -2.571e-4,-2.646e-4 -5.027e-4,-5.556e-4 -7.673e-4,-8.202e-4 -0.00824,-0.0088 -0.016285,-0.017685 -0.024342,-0.026563 -0.011353,-0.012499 -0.02254,-0.025064 -0.033517,-0.037719 -0.00864,-0.00997 -0.017187,-0.019973 -0.025596,-0.03004 -0.011192,-0.013388 -0.022119,-0.026881 -0.032889,-0.040423 -0.00607,-0.00764 -0.012221,-0.015251 -0.018158,-0.022939 -0.013507,-0.017478 -0.02656,-0.035125 -0.039361,-0.052835 -0.0051,-0.00706 -0.010179,-0.014108 -0.015166,-0.021201 -0.013306,-0.018918 -0.026244,-0.037935 -0.038733,-0.057085 -0.00341,-0.00523 -0.0067,-0.010496 -0.010046,-0.015745 -0.012414,-0.019444 -0.024514,-0.038931 -0.036077,-0.058583 -0.00246,-0.00416 -0.00484,-0.00834 -0.00724,-0.01251 -0.011652,-0.020161 -0.022773,-0.040455 -0.033517,-0.060804 -0.00198,-0.00377 -0.00408,-0.00752 -0.00604,-0.0113 -0.011224,-0.021635 -0.021836,-0.043386 -0.03202,-0.065199 -0.00214,-0.00457 -0.00424,-0.00914 -0.00633,-0.013716 -0.00997,-0.02186 -0.019492,-0.043776 -0.028398,-0.065779 -0.0014,-0.00349 -0.00272,-0.00699 -0.00411,-0.01048 -0.00929,-0.023413 -0.018158,-0.046879 -0.026226,-0.070415 C 3.9519192,6.6925774 4.0112112,6.4682735 4.5068324,6.1378261 4.7760375,5.9669378 5.1552066,5.8514456 5.7761382,5.8316317 6.3433575,5.4585954 6.3867857,5.3147007 6.3595011,5.2017599 5.4028497,5.9600848 4.5092338,5.3136617 3.6678405,5.0557744 3.5886634,5.0388729 3.5065664,5.0300966 3.4234648,5.0282943 Z"
     style="fill:#ffba36;stroke-width:0.264583"
     id="path1423" />
</svg>
