<?xml version="1.0" encoding="UTF-8" standalone="no"?>
<!-- Created with Inkscape (http://www.inkscape.org/) -->

<svg
   width="48"
   height="48"
   viewBox="0 0 12.7 12.7"
   version="1.1"
   id="svg5"
   inkscape:version="1.2 (dc2aedaf03, 2022-05-15)"
   sodipodi:docname="gnome-todo.svg"
   xmlns:inkscape="http://www.inkscape.org/namespaces/inkscape"
   xmlns:sodipodi="http://sodipodi.sourceforge.net/DTD/sodipodi-0.dtd"
   xmlns="http://www.w3.org/2000/svg"
   xmlns:svg="http://www.w3.org/2000/svg">
  <sodipodi:namedview
     id="namedview7"
     pagecolor="#ffffff"
     bordercolor="#666666"
     borderopacity="1.0"
     inkscape:pageshadow="2"
     inkscape:pageopacity="0.0"
     inkscape:pagecheckerboard="0"
     inkscape:document-units="px"
     showgrid="false"
     units="px"
     height="48px"
     inkscape:zoom="18.59091"
     inkscape:cx="23.990219"
     inkscape:cy="23.022004"
     inkscape:window-width="1846"
     inkscape:window-height="1015"
     inkscape:window-x="0"
     inkscape:window-y="0"
     inkscape:window-maximized="1"
     inkscape:current-layer="svg5"
     showguides="true"
     inkscape:showpageshadow="2"
     inkscape:deskcolor="#d1d1d1" />
  <defs
     id="defs2" />
  <rect
     style="opacity:1;fill:#50443f;fill-opacity:1;stroke-width:0.264583"
     id="rect1162"
     width="8.4666662"
     height="10.583333"
     x="2.1166666"
     y="1.3229166"
     ry="0.79374999" />
  <rect
     style="fill:#a18887;fill-opacity:1;stroke-width:0.264583"
     id="rect1142"
     width="7.9375"
     height="9.5249996"
     x="2.3812499"
     y="1.5875"
     ry="0.66145831" />
  <rect
     style="fill:#ffffff;fill-opacity:1;stroke-width:0.853256"
     id="rect2331"
     width="6.8791666"
     height="8.4666662"
     x="2.9104166"
     y="2.1166666" />
  <path
     id="path4581"
     style="color:#000000;fill:#c8c8c8;stroke:none;stroke-width:0.3122"
     d="M 6.0854167,3.96875 V 4.4979167 H 8.9958334 V 3.96875 Z m 0,2.38125 V 6.8791667 H 8.9958334 V 6.35 Z m 0,2.38125 V 9.2604167 H 8.9958334 V 8.73125 Z" />
  <path
     id="path4585"
     style="color:#000000;fill:#5f5f5f;stroke:none;stroke-width:0.264583"
     d="M 5.2916667 3.4395833 L 4.2333333 4.4979167 L 3.7041667 3.96875 L 3.4395833 4.2333333 L 4.2333333 5.0270833 L 5.55625 3.7041667 L 5.2916667 3.4395833 z M 5.2916667 5.8208333 L 4.2333333 6.8791667 L 3.7041667 6.35 L 3.4395833 6.6145833 L 4.2333333 7.4083333 L 5.55625 6.0854167 L 5.2916667 5.8208333 z M 5.2916667 8.2020833 L 4.2333333 9.2604167 L 3.7041667 8.73125 L 3.4395833 8.9958333 L 4.2333333 9.7895833 L 5.55625 8.4666667 L 5.2916667 8.2020833 z " />
  <path
     d="m 6.35,0.26458333 c -0.5863167,0 -1.0583333,0.4720167 -1.0583333,1.05833327 V 2.3812499 H 7.4083333 V 1.3229166 C 7.4083333,0.73660003 6.9363166,0.26458333 6.35,0.26458333 Z"
     style="fill:#666666;fill-opacity:1;stroke-width:0.264583"
     id="path2311" />
  <path
     id="path982"
     style="fill:#cccccc;fill-opacity:1;stroke-width:0.264583"
     d="m 6.35,0.52916666 c -0.4383752,0 -0.79375,0.35537487 -0.79375,0.79375004 V 1.8520833 H 4.7625 c -0.146579,0 -0.2645834,0.1180043 -0.2645834,0.2645834 V 2.6458333 H 8.2020833 V 2.1166667 c 0,-0.1465791 -0.1180044,-0.2645834 -0.2645834,-0.2645834 h -0.79375 V 1.3229167 C 7.1437499,0.88454153 6.7883749,0.52916666 6.35,0.52916666 Z" />
  <circle
     style="fill:#ffffff;fill-opacity:1;stroke-width:0.529167"
     id="path2437"
     cx="6.3499994"
     cy="1.190625"
     r="0.39687499" />
</svg>
