<?xml version="1.0" encoding="UTF-8" standalone="no"?>
<!-- Created with Inkscape (http://www.inkscape.org/) -->

<svg
   width="48"
   height="48"
   viewBox="0 0 12.7 12.7"
   version="1.1"
   id="svg5"
   inkscape:version="1.2 (dc2aedaf03, 2022-05-15)"
   sodipodi:docname="goa-account-lastfm.svg"
   xmlns:inkscape="http://www.inkscape.org/namespaces/inkscape"
   xmlns:sodipodi="http://sodipodi.sourceforge.net/DTD/sodipodi-0.dtd"
   xmlns="http://www.w3.org/2000/svg"
   xmlns:svg="http://www.w3.org/2000/svg">
  <sodipodi:namedview
     id="namedview7"
     pagecolor="#ffffff"
     bordercolor="#666666"
     borderopacity="1.0"
     inkscape:pageshadow="2"
     inkscape:pageopacity="0.0"
     inkscape:pagecheckerboard="0"
     inkscape:document-units="px"
     showgrid="false"
     units="px"
     height="48px"
     inkscape:zoom="17.291667"
     inkscape:cx="24"
     inkscape:cy="24.028915"
     inkscape:window-width="1846"
     inkscape:window-height="1011"
     inkscape:window-x="74"
     inkscape:window-y="32"
     inkscape:window-maximized="1"
     inkscape:current-layer="svg5"
     inkscape:showpageshadow="2"
     inkscape:deskcolor="#d1d1d1" />
  <defs
     id="defs2" />
  <rect
     style="opacity:1;fill:#cf3b00;fill-opacity:1;stroke-width:0.264583"
     id="rect1162"
     width="10.583333"
     height="10.31875"
     x="1.0583333"
     y="1.3229166"
     ry="0.92604166" />
  <path
     id="rect1316"
     style="opacity:0.5;fill:#000000;stroke-width:0.264583"
     d="m 1.984375,1.3229167 c -0.5130271,0 -0.9260417,0.4130146 -0.9260417,0.9260417 v 8.4666666 c 0,0.513027 0.4130146,0.926042 0.9260417,0.926042 h 8.73125 c 0.513027,0 0.926042,-0.413015 0.926042,-0.926042 V 2.2489584 c 0,-0.5130271 -0.413015,-0.9260417 -0.926042,-0.9260417 z M 2.1166666,1.5875 h 8.4666664 c 0.439738,0 0.79375,0.3540125 0.79375,0.79375 v 7.672917 c 0,0.439737 -0.354012,0.79375 -0.79375,0.79375 H 2.1166666 c -0.4397375,0 -0.7937499,-0.354013 -0.7937499,-0.79375 V 2.38125 c 0,-0.4397375 0.3540124,-0.79375 0.7937499,-0.79375 z"
     sodipodi:nodetypes="ssssssssssssssssss" />
  <path
     d="M 4.7838163,8.1833009 C 4.6567681,8.1658379 4.4307686,8.0912259 4.2800206,8.0175259 3.2978385,7.5395309 2.8961698,6.3356513 3.3799312,5.3215973 c 0.5526606,-1.1594689 2.060628,-1.4550214 2.968047,-0.581699 0.262404,0.2521344 0.3789465,0.4672802 0.7740183,1.421287 0.4124184,0.997663 0.4886474,1.1545078 0.6222925,1.2875006 0.1431734,0.1414863 0.275842,0.1891112 0.5296945,0.1891112 0.417061,0 0.7148919,-0.2618183 0.7148919,-0.6271416 0,-0.3092053 -0.107015,-0.4082252 -0.6528341,-0.6050351 C 7.5048515,6.1010984 7.235607,5.8259057 7.234629,5.2732183 c 0,-0.294838 0.073545,-0.4914101 0.2604494,-0.6951257 C 7.763346,4.2872233 8.2260961,4.1911796 8.6355829,4.3356022 8.8102746,4.3986652 9.175783,4.727238 9.175783,4.8212973 c 0,0.04564 -0.2118286,0.1851419 -0.3293487,0.2181223 C 8.7843795,5.0556915 8.7308694,5.0346496 8.6592821,4.9647273 8.514153,4.8232805 8.4159356,4.7795854 8.2422211,4.7795854 c -0.2997854,0 -0.4857158,0.1831575 -0.4857158,0.4789879 0,0.294838 0.1182529,0.3945725 0.7090284,0.5970975 C 9.279621,6.1348721 9.520035,6.3870065 9.524922,6.9704519 9.529822,7.4745218 9.306252,7.838099 8.8615827,8.0532445 8.6592821,8.1502805 8.5906273,8.1627022 8.2603013,8.1627022 7.7887567,8.1627022 7.576927,8.0736042 7.3125687,7.7710664 7.1349453,7.5675898 6.9546345,7.1856375 6.377297,5.7913775 6.1378598,5.2136475 5.8305003,4.9304776 5.3179087,4.8190352 5.0581924,4.7627187 4.6965928,4.8150664 4.4608204,4.9411534 4.2309114,5.0632717 3.9741272,5.3387423 3.8529422,5.5906385 3.7527693,5.7951082 3.7432413,5.8524566 3.7432413,6.2080958 c 0,0.3392483 0.01344,0.4196551 0.09724,0.6057896 0.1270484,0.2841621 0.3769917,0.5466943 0.6518563,0.6881801 0.1986353,0.1017589 0.2604494,0.1144189 0.5773373,0.1144189 0.3044274,0 0.3826114,-0.014685 0.5641437,-0.102752 C 5.8410064,7.4109827 6.1195357,7.1588483 6.2331462,6.9699757 l 0.059127,-0.098028 0.1165423,0.2705099 c 0.06499,0.149383 0.1172759,0.2898773 0.1172759,0.3151582 0,0.07473 -0.2633814,0.3189283 -0.5047733,0.47105 C 5.6548312,8.1584962 5.2338614,8.2445779 4.7843053,8.1825464"
     style="fill:#ffffff;stroke-width:0.396874"
     id="path16950" />
</svg>
