<?xml version="1.0" encoding="UTF-8" standalone="no"?>
<!-- Created with Inkscape (http://www.inkscape.org/) -->

<svg
   width="48"
   height="48"
   viewBox="0 0 12.7 12.7"
   version="1.1"
   id="svg5"
   inkscape:version="1.1.2 (0a00cf5339, 2022-02-04, custom)"
   sodipodi:docname="google-chrome-beta.svg"
   xmlns:inkscape="http://www.inkscape.org/namespaces/inkscape"
   xmlns:sodipodi="http://sodipodi.sourceforge.net/DTD/sodipodi-0.dtd"
   xmlns="http://www.w3.org/2000/svg"
   xmlns:svg="http://www.w3.org/2000/svg">
  <sodipodi:namedview
     id="namedview7"
     pagecolor="#ffffff"
     bordercolor="#666666"
     borderopacity="1.0"
     inkscape:pageshadow="2"
     inkscape:pageopacity="0.0"
     inkscape:pagecheckerboard="0"
     inkscape:document-units="px"
     showgrid="false"
     units="px"
     height="48px"
     inkscape:zoom="11.814576"
     inkscape:cx="8.3371593"
     inkscape:cy="33.348637"
     inkscape:window-width="1920"
     inkscape:window-height="1017"
     inkscape:window-x="0"
     inkscape:window-y="0"
     inkscape:window-maximized="1"
     inkscape:current-layer="svg5"
     showguides="false" />
  <defs
     id="defs2" />
  <rect
     style="opacity:1;fill:#671d00;fill-opacity:1;stroke-width:0.264583"
     id="rect1040"
     width="11.641666"
     height="12.170834"
     x="0.52916664"
     y="0.52916664"
     ry="5.8208332" />
  <path
     id="path3777"
     style="opacity:1;fill:#234c31;fill-opacity:1;stroke-width:0.070004"
     d="M 4.8496094 13.132812 C 3.0347291 16.335005 2 20.041996 2 24 L 2 26 C 2 38.188 11.812 48 24 48 C 24.685178 48 25.362411 47.966949 26.03125 47.90625 L 32 30 L 17 31 L 4.8496094 13.132812 z "
     transform="scale(0.26458333)" />
  <circle
     style="fill:#cf3b00;fill-opacity:1;stroke-width:0.264583"
     id="path1188"
     cx="6.3499999"
     cy="6.3499999"
     r="5.5562501" />
  <path
     id="path1831"
     style="opacity:1;fill:#479863;fill-opacity:1;stroke-width:0.264583"
     d="M 5.5019531 14.089844 A 21 21 0 0 0 3 24 A 21 21 0 0 0 24 45 A 21 21 0 0 0 27.076172 44.771484 L 32 30 L 17 31 L 5.5019531 14.089844 z "
     transform="scale(0.26458333)" />
  <path
     id="path3278"
     style="opacity:1;fill:#7d520d;fill-opacity:1;stroke-width:0.264583"
     d="M 24 14 L 32 30 L 22.048828 47.914062 C 22.691669 47.970065 23.342146 48 24 48 C 36.188 48 46 38.188 46 26 L 46 24 C 46 20.394175 45.140318 16.997339 43.615234 14 L 24 14 z "
     transform="scale(0.26458333)" />
  <path
     id="rect1247"
     style="opacity:1;fill:#faa41a;stroke-width:0.999999"
     d="M 24 14 L 32 30 L 23.673828 44.988281 A 21 21 0 0 0 24 45 A 21 21 0 0 0 45 24 A 21 21 0 0 0 42.464844 14 L 24 14 z "
     transform="scale(0.26458333)" />
  <path
     id="rect850"
     style="opacity:1;fill:#212121;fill-opacity:1;stroke-width:1.1726"
     d="M 2.0234375 27 C 2.5431274 38.719955 12.147398 48 24 48 C 35.852602 48 45.456873 38.719955 45.976562 27 L 2.0234375 27 z "
     transform="scale(0.26458333)" />
  <circle
     style="opacity:1;fill:#ffffff;stroke-width:0.220485"
     id="path925"
     cx="6.3499999"
     cy="6.3499999"
     r="2.6458333" />
  <circle
     style="opacity:1;fill:#3e55d7;fill-opacity:1;stroke-width:0.352777"
     id="path13193"
     cx="6.3499999"
     cy="6.3499999"
     r="2.1166666" />
  <path
     id="path5202"
     style="font-size:3.33859px;line-height:1.25;font-family:'Fira Sans';-inkscape-font-specification:'Fira Sans';fill:#ffffff;stroke-width:0.315458"
     d="m 12,31 v 8.693359 h 2.398438 c 2.296529,0 3.443359,-0.823865 3.443359,-2.472656 0,-0.672975 -0.184551,-1.168618 -0.554688,-1.488281 -0.370136,-0.319664 -0.853906,-0.529913 -1.451171,-0.63086 0.454258,-0.09253 0.837186,-0.308043 1.148437,-0.644531 0.319663,-0.336488 0.478516,-0.756987 0.478516,-1.261719 0,-0.740273 -0.293959,-1.290619 -0.882813,-1.652343 C 15.999637,31.181244 15.158638,31 14.056641,31 Z m 15.708984,0.404297 -1.160156,0.138672 v 1.501953 h -1.160156 v 0.894531 h 1.160156 v 4.013672 c 0,0.61409 0.155546,1.084034 0.466797,1.412109 0.319663,0.319665 0.760601,0.480469 1.324219,0.480469 0.555205,0 1.0528,-0.15224 1.490234,-0.455078 l -0.441406,-0.769531 c -0.328076,0.176655 -0.623988,0.265625 -0.884766,0.265625 -0.286014,0 -0.491004,-0.07513 -0.617187,-0.226563 -0.11777,-0.159831 -0.177735,-0.412913 -0.177735,-0.757812 v -3.962891 h 1.451172 l 0.126953,-0.894531 h -1.578125 z m -14.509765,0.542969 h 0.984375 c 0.6898,0 1.202574,0.09558 1.539062,0.289062 0.3449,0.19348 0.517578,0.542143 0.517578,1.046875 0,0.445847 -0.164112,0.791203 -0.492187,1.035156 -0.319663,0.243954 -0.731597,0.365235 -1.236328,0.365235 h -1.3125 z m 8.693359,0.945312 c -0.563617,0 -1.055953,0.152239 -1.476562,0.455078 -0.412198,0.302839 -0.731855,0.723338 -0.958985,1.261719 -0.218716,0.529968 -0.328125,1.140278 -0.328125,1.830078 0,1.059937 0.256388,1.89237 0.769532,2.498047 0.521556,0.605679 1.246533,0.908203 2.171874,0.908203 0.84122,0 1.613689,-0.278779 2.320313,-0.833984 l -0.503906,-0.69336 c -0.294427,0.201905 -0.576513,0.348884 -0.845703,0.441407 -0.269191,0.09252 -0.56315,0.138671 -0.882813,0.138672 -0.504732,-10e-7 -0.916665,-0.172677 -1.236328,-0.517579 -0.319662,-0.344899 -0.506166,-0.883374 -0.556641,-1.615234 h 4.240235 c 0.01683,-0.201892 0.02539,-0.398315 0.02539,-0.591797 0,-1.026288 -0.235948,-1.829715 -0.707031,-2.410156 -0.471083,-0.580442 -1.147969,-0.871094 -2.03125,-0.871094 z m 11.21875,0 c -0.706624,0 -1.47248,0.152239 -2.296875,0.455078 l 0.289063,0.845703 c 0.706624,-0.235542 1.305061,-0.353515 1.792968,-0.353515 0.471083,0 0.819746,0.100842 1.046875,0.302734 0.22713,0.201893 0.339844,0.538683 0.339844,1.009766 v 0.490234 h -1.021484 c -0.933754,0 -1.656778,0.189811 -2.169922,0.56836 -0.504732,0.378548 -0.757813,0.922281 -0.757813,1.628906 0,0.597266 0.189811,1.081035 0.56836,1.451172 0.378548,0.370136 0.896583,0.554687 1.552734,0.554687 0.874869,0 1.534623,-0.333482 1.980469,-0.998047 0.100946,0.319675 0.256491,0.555624 0.466797,0.707032 0.210305,0.151433 0.487131,0.248962 0.832031,0.291015 L 36,39.037109 c -0.18507,-0.0673 -0.323483,-0.162876 -0.416016,-0.289062 -0.09253,-0.134597 -0.138672,-0.336278 -0.138672,-0.605469 v -3.041016 c 0,-0.706624 -0.193117,-1.250357 -0.580078,-1.628906 -0.386961,-0.386961 -0.971572,-0.580078 -1.753906,-0.580078 z m -11.193359,0.921875 c 0.521556,0 0.91305,0.172678 1.173828,0.517578 0.260778,0.3449 0.390625,0.843849 0.390625,1.5 v 0.07617 h -3.117188 c 0.08412,-1.396424 0.602157,-2.09375 1.552735,-2.09375 z m -8.71875,1.791016 H 14.625 c 0.580441,0 1.050385,0.126553 1.412109,0.378906 0.361725,0.252366 0.542969,0.664299 0.542969,1.236328 0,0.58884 -0.189811,0.988901 -0.568359,1.199219 -0.370137,0.210318 -0.906657,0.314453 -1.613281,0.314453 h -1.199219 z m 20.101562,0.808593 c 0.03718,-8.87e-4 0.0749,0 0.113281,0 h 0.869141 v 1.525391 c -0.378549,0.689799 -0.89989,1.035156 -1.564453,1.035156 -0.378548,0 -0.66394,-0.100832 -0.857422,-0.302734 -0.193481,-0.201892 -0.291016,-0.501111 -0.291016,-0.896484 0,-0.880126 0.577851,-1.333825 1.730469,-1.361329 z"
     transform="scale(0.26458333)"
     sodipodi:nodetypes="ccsssccscscccccccscsccscsccccccscscsccsccscsccsssccssssccssscscssscccccsscssssccscscscsccssccssss" />
  <path
     id="rect5484"
     style="opacity:1;fill:#424242;fill-opacity:1;stroke-width:0.999999"
     d="M 3.21875 27 A 21 21 0 0 0 24 45 A 21 21 0 0 0 44.78125 27 L 3.21875 27 z "
     transform="scale(0.26458333)" />
  <path
     d="m 3.175,7.9375 v 2.300117 h 0.6345866 c 0.6076233,0 0.9110554,-0.217981 0.9110554,-0.6542231 0,-0.178058 -0.048829,-0.309196 -0.1467612,-0.393774 -0.097932,-0.08458 -0.2259293,-0.140206 -0.3839556,-0.166915 0.1201891,-0.02448 0.2215054,-0.0815 0.3038573,-0.170532 0.084577,-0.08903 0.1266073,-0.2002863 0.1266073,-0.3338299 0,-0.1958639 -0.077777,-0.3414763 -0.2335776,-0.4371825 C 4.2332372,7.9854541 4.0107229,7.9375 3.7191529,7.9375 Z m 4.1563353,0.1069702 -0.306958,0.03669 V 8.4785523 H 6.7174194 v 0.2366776 h 0.3069579 v 1.0619505 c 0,0.162478 0.041155,0.2868166 0.1235067,0.3736206 0.084577,0.08458 0.2012424,0.127123 0.3503663,0.127123 0.146898,0 0.2785533,-0.04028 0.3942911,-0.120405 L 7.7757527,9.9539144 c -0.086803,0.04674 -0.1650968,0.07028 -0.2340943,0.07028 -0.075675,0 -0.1299115,-0.01988 -0.1632974,-0.05995 -0.03116,-0.04229 -0.047026,-0.10925 -0.047026,-0.200505 V 8.7152249 h 0.3839559 l 0.03359,-0.2366776 H 7.3313353 Z m -3.839042,0.1436606 h 0.2604492 c 0.1825096,0 0.318181,0.025289 0.4072102,0.076481 0.091255,0.051192 0.1369424,0.143442 0.1369424,0.2769857 0,0.1179637 -0.043421,0.2093394 -0.1302244,0.2738854 -0.084577,0.06455 -0.1935684,0.09664 -0.3271118,0.09664 H 3.4922933 Z m 2.3001179,0.2501138 c -0.1491237,0 -0.2793876,0.04028 -0.3906737,0.120406 -0.1090608,0.080126 -0.1936367,0.1913833 -0.2537315,0.3338303 -0.057869,0.14022 -0.086816,0.301698 -0.086816,0.484208 0,0.280441 0.067836,0.5006885 0.2036054,0.6609401 0.137995,0.160253 0.3298118,0.240295 0.5746416,0.240295 0.2225728,0 0.4269552,-0.07376 0.6139162,-0.220658 L 6.3200276,9.8738154 c -0.0779,0.05342 -0.1525357,0.09231 -0.2237589,0.116789 -0.071223,0.02448 -0.1490001,0.03669 -0.2335776,0.03669 -0.1335437,0 -0.2425343,-0.04569 -0.3271118,-0.1369426 C 5.4510023,9.7991014 5.4016562,9.6566259 5.3883014,9.4629879 h 1.1218955 c 0.00445,-0.05342 0.00672,-0.105387 0.00672,-0.156579 0,-0.271539 -0.062428,-0.484112 -0.1870686,-0.6376874 C 6.2052053,8.5151463 6.0261126,8.4382446 5.7924112,8.4382446 Z m 2.9682942,0 c -0.1869609,0 -0.3895936,0.04028 -0.6077148,0.120406 l 0.076481,0.2237593 c 0.186961,-0.06232 0.3452974,-0.09353 0.4743895,-0.09353 0.1246407,0 0.2168911,0.02668 0.2769857,0.0801 0.060095,0.05342 0.089917,0.142526 0.089917,0.267167 v 0.129708 H 8.8004964 c -0.2470558,0 -0.4383559,0.05022 -0.5741252,0.150378 -0.1335437,0.100158 -0.2005047,0.244021 -0.2005047,0.4309815 0,0.158026 0.050221,0.2860236 0.1503786,0.3839556 0.1001575,0.09793 0.2372209,0.14676 0.4108275,0.14676 0.2314758,0 0.4060357,-0.08823 0.5239991,-0.264066 0.026709,0.08458 0.067863,0.147009 0.1235067,0.187069 0.055643,0.04007 0.1288868,0.06587 0.2201416,0.077 L 9.525,10.063993 c -0.048966,-0.01781 -0.085588,-0.04309 -0.1100709,-0.07648 -0.024482,-0.03561 -0.03669,-0.08897 -0.03669,-0.160197 V 9.0227149 c 0,-0.186961 -0.051096,-0.330824 -0.153479,-0.4309813 C 9.1223763,8.4893401 8.967698,8.4382446 8.7607054,8.4382446 Z M 5.7991292,8.6821574 c 0.137995,0 0.2415778,0.045687 0.3105753,0.1369425 0.068998,0.09126 0.1033529,0.223268 0.1033529,0.396875 v 0.02015 H 5.3883014 C 5.4105581,8.8666579 5.5476221,8.6821568 5.7991292,8.6821568 Z M 3.4922933,9.1560299 h 0.3772379 c 0.153575,0 0.2779143,0.03348 0.3736205,0.100253 0.095706,0.06677 0.1436605,0.175762 0.1436605,0.327111 0,0.1557975 -0.050221,0.2616465 -0.1503783,0.3172935 -0.097932,0.05565 -0.2398863,0.0832 -0.4268473,0.0832 H 3.4922933 Z m 5.3185382,0.213941 c 0.00984,-2.35e-4 0.019817,0 0.029972,0 H 9.0707637 V 9.7735634 C 8.970606,9.9560724 8.8326678,10.047448 8.6568355,10.047448 c -0.1001575,0 -0.1756674,-0.02668 -0.2268595,-0.0801 -0.051192,-0.05342 -0.076998,-0.132586 -0.076998,-0.2371945 0,-0.232867 0.1528897,-0.352908 0.4578535,-0.360185 z"
     style="font-size:3.33859px;line-height:1.25;font-family:'Fira Sans';-inkscape-font-specification:'Fira Sans';fill:#ffffff;stroke-width:0.0834649"
     id="path5340" />
</svg>
