<?xml version="1.0" encoding="UTF-8" standalone="no"?>
<!-- Created with Inkscape (http://www.inkscape.org/) -->

<svg
   width="48"
   height="48"
   viewBox="0 0 12.7 12.7"
   version="1.1"
   id="svg5"
   inkscape:version="1.2 (dc2aedaf03, 2022-05-15)"
   sodipodi:docname="ibus-setup.svg"
   xmlns:inkscape="http://www.inkscape.org/namespaces/inkscape"
   xmlns:sodipodi="http://sodipodi.sourceforge.net/DTD/sodipodi-0.dtd"
   xmlns="http://www.w3.org/2000/svg"
   xmlns:svg="http://www.w3.org/2000/svg">
  <sodipodi:namedview
     id="namedview7"
     pagecolor="#ffffff"
     bordercolor="#666666"
     borderopacity="1.0"
     inkscape:pageshadow="2"
     inkscape:pageopacity="0.0"
     inkscape:pagecheckerboard="0"
     inkscape:document-units="px"
     showgrid="false"
     units="px"
     height="48px"
     inkscape:zoom="16.958333"
     inkscape:cx="24"
     inkscape:cy="24.029485"
     inkscape:window-width="1846"
     inkscape:window-height="1011"
     inkscape:window-x="74"
     inkscape:window-y="32"
     inkscape:window-maximized="1"
     inkscape:current-layer="svg5"
     inkscape:showpageshadow="2"
     inkscape:deskcolor="#d1d1d1" />
  <defs
     id="defs2" />
  <rect
     style="opacity:1;fill:#3f51b5;fill-opacity:1;stroke-width:0.264583"
     id="rect1162"
     width="10.583333"
     height="10.31875"
     x="1.0583333"
     y="1.3229166"
     ry="0.92604166" />
  <path
     id="rect1316"
     style="opacity:0.5;fill:#000000;stroke-width:0.264583"
     d="m 1.984375,1.3229167 c -0.5130271,0 -0.9260417,0.4130146 -0.9260417,0.9260417 v 8.4666666 c 0,0.513027 0.4130146,0.926042 0.9260417,0.926042 h 8.73125 c 0.513027,0 0.926042,-0.413015 0.926042,-0.926042 V 2.2489584 c 0,-0.5130271 -0.413015,-0.9260417 -0.926042,-0.9260417 z M 2.1166666,1.5875 h 8.4666664 c 0.439738,0 0.79375,0.3540125 0.79375,0.79375 v 7.672917 c 0,0.439737 -0.354012,0.79375 -0.79375,0.79375 H 2.1166666 c -0.4397375,0 -0.7937499,-0.354013 -0.7937499,-0.79375 V 2.38125 c 0,-0.4397375 0.3540124,-0.79375 0.7937499,-0.79375 z"
     sodipodi:nodetypes="ssssssssssssssssss" />
  <path
     id="rect183"
     style="fill:#ffffff;stroke-width:0.79375;stroke-linejoin:round"
     d="m 5.8208333,3.4395834 v 0.79375 h 0.79375 v -0.79375 z m 0,1.5875 v 3.9687497 h 0.79375 V 5.0270834 Z" />
  <path
     id="rect845"
     style="fill:#552d5d;fill-opacity:1;stroke-width:0.491368"
     d="M 9.2604169,5.2916671 C 11.165947,5.2916671 12.7,6.8257211 12.7,8.7312494 v 0.5291669 c 0,1.9055297 -1.534053,3.4395827 -3.4395831,3.4395827 -1.9055293,0 -3.4395836,-1.534053 -3.4395836,-3.4395827 V 8.7312494 c 0,-1.9055283 1.5340543,-3.4395823 3.4395836,-3.4395823 z"
     sodipodi:nodetypes="sssssss" />
  <circle
     style="fill:#aa5abb;fill-opacity:1;stroke-width:0.264583"
     id="path1732"
     cx="9.260416"
     cy="8.7312508"
     r="3.175" />
  <path
     d="m 8.7973959,6.879167 -0.040746,0.4878917 c -0.1547415,0.057306 -0.2986114,0.1405131 -0.42545,0.2460626 l -0.4434415,-0.209021 -0.4630209,0.8022168 0.4026959,0.2794 c -0.01434,0.081068 -0.021775,0.1632074 -0.022225,0.2455333 3.97e-5,0.082649 0.00712,0.1651447 0.021167,0.2465917 L 7.4247375,9.2561837 7.8877584,10.058399 8.3301417,9.8499091 c 0.1272752,0.10509 0.2715022,0.1877599 0.4265083,0.2444739 l 0.040746,0.48895 h 0.9260419 l 0.04075,-0.487892 c 0.154741,-0.05731 0.2986081,-0.1405119 0.4254491,-0.2460609 l 0.443178,0.2090189 0.463021,-0.8022153 -0.402431,-0.2794001 c 0.01434,-0.081068 0.02177,-0.1632073 0.02222,-0.2455333 -4e-5,-0.082649 -0.0071,-0.1651447 -0.02117,-0.2465916 L 11.096097,8.2063171 10.633076,7.4041003 10.190691,7.6125921 C 10.063416,7.5075022 9.9191899,7.424831 9.7641829,7.368117 l -0.04075,-0.48895 z m 0.463021,1.3229167 c 0.292251,0 0.529166,0.2369162 0.529166,0.5291666 0,0.2922506 -0.236915,0.5291667 -0.529166,0.5291667 -0.292251,0 -0.5291669,-0.2369161 -0.5291669,-0.5291667 0,-0.2922504 0.2369159,-0.5291666 0.5291669,-0.5291666 z"
     style="fill:#fafafb;stroke-width:0.264583"
     id="path1697" />
</svg>
