<?xml version="1.0" encoding="UTF-8" standalone="no"?>
<!-- Created with Inkscape (http://www.inkscape.org/) -->

<svg
   width="48"
   height="48"
   viewBox="0 0 12.7 12.7"
   version="1.1"
   id="svg5"
   inkscape:version="1.1.2 (0a00cf5339, 2022-02-04, custom)"
   sodipodi:docname="internet-web-browser.svg"
   xmlns:inkscape="http://www.inkscape.org/namespaces/inkscape"
   xmlns:sodipodi="http://sodipodi.sourceforge.net/DTD/sodipodi-0.dtd"
   xmlns="http://www.w3.org/2000/svg"
   xmlns:svg="http://www.w3.org/2000/svg">
  <sodipodi:namedview
     id="namedview7"
     pagecolor="#ffffff"
     bordercolor="#666666"
     borderopacity="1.0"
     inkscape:pageshadow="2"
     inkscape:pageopacity="0.0"
     inkscape:pagecheckerboard="0"
     inkscape:document-units="px"
     showgrid="false"
     units="px"
     height="48px"
     inkscape:zoom="5.9072878"
     inkscape:cx="12.103693"
     inkscape:cy="22.853127"
     inkscape:window-width="1920"
     inkscape:window-height="1017"
     inkscape:window-x="0"
     inkscape:window-y="0"
     inkscape:window-maximized="1"
     inkscape:current-layer="svg5"
     showguides="false" />
  <defs
     id="defs2" />
  <rect
     style="opacity:1;fill:#1f285a;fill-opacity:1;stroke-width:0.264583"
     id="rect1040"
     width="11.641666"
     height="12.170834"
     x="0.52916664"
     y="0.52916664"
     ry="5.8208332" />
  <circle
     style="fill:#3f51b5;fill-opacity:1;stroke-width:0.264583"
     id="path1188"
     cx="6.3499999"
     cy="6.3499999"
     r="5.5562501" />
  <path
     d="m 6.3499953,0.79375 c -0.8778875,0 -1.7036521,0.2069041 -2.4402521,0.5662083 C 3.2869194,1.8129726 2.7569061,2.4337486 2.3600787,3.1749999 H 1.7880495 C 1.6686616,3.3450768 1.5589495,3.521747 1.459437,3.7041666 H 2.1084599 C 1.8003765,4.4440924 1.6253652,5.2560087 1.5951683,6.0854166 H 0.80036 c -0.00397,0.087577 -0.00661,0.1759479 -0.00661,0.2645833 0,0.088635 0.00265,0.1770062 0.00661,0.2645833 h 0.7979833 c 0.030771,0.8295746 0.2064173,1.6414988 0.5151437,2.38125 h -0.65405 c 0.098954,0.1833562 0.2100792,0.3590396 0.3286125,0.5291667 h 0.5757334 c 0.402881,0.7498451 0.9421124,1.3757351 1.5755937,1.8288001 0.7517024,0.363283 1.5757339,0.55213 2.4106187,0.55245 0.8778875,0 1.7036521,-0.206904 2.4402521,-0.566209 0.6228235,-0.453014 1.1528375,-1.07379 1.5496646,-1.8150411 h 0.572029 c 0.119388,-0.1700769 0.2291,-0.3467471 0.328613,-0.5291667 h -0.649023 c 0.308083,-0.7399258 0.483095,-1.5518421 0.513291,-2.38125 h 0.794809 c 0.004,-0.087577 0.0066,-0.1759479 0.0066,-0.2645833 0,-0.088635 -0.0026,-0.1770062 -0.0066,-0.2645833 h -0.797984 c -0.03077,-0.8295746 -0.20642,-1.6414988 -0.515143,-2.38125 h 0.65405 C 11.141041,3.521747 11.031329,3.3450768 10.911941,3.1749999 H 10.336208 C 9.9333269,2.4251523 9.3940949,1.7992645 8.760614,1.3462 8.0089116,0.9829165 7.1848774,0.7940701 6.3499953,0.79375 Z m 0.2645833,0.2997729 c 0.6516026,0.1631288 1.2440973,0.9161436 1.6377708,2.081477 H 6.6145786 Z m -0.5291666,0.00397 v 2.077507 H 4.4486995 C 4.842463,2.011717 5.4344788,1.2602607 6.085412,1.0974916 Z M 4.8135599,1.4194895 c -0.360979,0.4466564 -0.6687397,1.0458318 -0.9017,1.7555104 H 2.9699433 C 3.4418779,2.3868538 4.0803466,1.7788995 4.8135599,1.4194895 Z m 3.0763104,0.00688 C 8.6216416,1.7843076 9.2592689,2.3897801 9.7313699,3.1749999 H 8.786014 C 8.5542787,2.4689064 8.2484892,1.8721334 7.8898703,1.4261041 Z M 2.688162,3.7041666 H 3.7578724 C 3.5696505,4.4441162 3.4627482,5.2560325 3.4443412,6.0854166 H 2.1275099 c 0.033282,-0.8381154 0.2255415,-1.6543205 0.5609167,-2.38125 z m 1.6020521,0 H 6.085412 v 2.38125 H 3.9750953 c 0.0186,-0.8380413 0.1266084,-1.6542438 0.3151188,-2.38125 z m 2.3243645,0 h 1.7944042 c 0.1896189,0.7263818 0.2987251,1.5426214 0.3182937,2.38125 H 6.6145786 Z m 2.3246292,0 h 1.0710332 c 0.336947,0.7264321 0.53076,1.5426663 0.565415,2.38125 H 9.2537973 C 9.2349855,5.2558341 9.1276228,4.4439098 8.9389432,3.7041666 Z M 2.1245995,6.6145832 h 1.3218583 c 0.018732,0.8295429 0.1259999,1.6414644 0.3145896,2.38125 H 2.6897495 C 2.3528926,8.269372 2.1591753,7.4531404 2.1245995,6.6145832 Z m 1.8483792,0 H 6.085412 v 2.38125 H 4.2912724 C 4.1016535,8.2694514 3.9925472,7.4532118 3.9729787,6.6145832 Z m 2.6415999,0 h 2.1105813 c -0.01868,0.8380915 -0.1267831,1.6542941 -0.3153834,2.38125 H 6.6145786 Z m 2.6413354,0 h 1.316567 c -0.0332,0.8380889 -0.225372,1.6542914 -0.560652,2.38125 H 8.9421182 C 9.1304327,8.2559233 9.2374249,7.444007 9.255914,6.6145832 Z M 2.9688849,9.5249999 H 3.9139766 C 4.1457119,10.231093 4.4515014,10.827866 4.8101203,11.273896 4.0783225,10.915883 3.4406926,10.310317 2.9686203,9.5249999 Z m 1.4790208,0 H 6.085412 V 11.606477 C 5.4338094,11.443348 4.8413147,10.690333 4.4476412,9.5249999 Z m 2.1666729,0 H 8.2510265 C 7.8573239,10.688145 7.2654166,11.439583 6.6145786,11.602508 Z m 2.1735521,0 H 9.7300469 C 9.2580386,10.313194 8.6194747,10.921153 7.8861661,11.28051 8.2472403,10.833915 8.5550936,10.234737 8.7881307,9.5249999 Z"
     style="fill:#94a6ff;stroke-width:0.264583"
     id="path892" />
</svg>
