<?xml version="1.0" encoding="UTF-8" standalone="no"?>
<!-- Created with Inkscape (http://www.inkscape.org/) -->

<svg
   width="48"
   height="48"
   viewBox="0 0 12.7 12.7"
   version="1.1"
   id="svg5"
   inkscape:version="1.1.2 (0a00cf5339, 2022-02-04, custom)"
   sodipodi:docname="internet-news-reader.svg"
   xmlns:inkscape="http://www.inkscape.org/namespaces/inkscape"
   xmlns:sodipodi="http://sodipodi.sourceforge.net/DTD/sodipodi-0.dtd"
   xmlns="http://www.w3.org/2000/svg"
   xmlns:svg="http://www.w3.org/2000/svg">
  <sodipodi:namedview
     id="namedview7"
     pagecolor="#ffffff"
     bordercolor="#666666"
     borderopacity="1.0"
     inkscape:pageshadow="2"
     inkscape:pageopacity="0.0"
     inkscape:pagecheckerboard="0"
     inkscape:document-units="px"
     showgrid="false"
     units="px"
     height="48px"
     inkscape:zoom="16.708333"
     inkscape:cx="23.970075"
     inkscape:cy="24"
     inkscape:window-width="1920"
     inkscape:window-height="1017"
     inkscape:window-x="0"
     inkscape:window-y="0"
     inkscape:window-maximized="1"
     inkscape:current-layer="svg5" />
  <defs
     id="defs2" />
  <rect
     style="opacity:1;fill:#6f4400;fill-opacity:1;stroke-width:0.264583"
     id="rect1162"
     width="10.583333"
     height="10.31875"
     x="1.0583333"
     y="1.0583333"
     ry="0.92604166" />
  <rect
     style="opacity:1;fill:#de8800;fill-opacity:1;stroke-width:0.264583"
     id="rect3774"
     width="10.054167"
     height="9.260417"
     x="1.3229166"
     y="1.3229166"
     ry="0.79374999" />
  <path
     d="m 1.3229167,5.0270834 v 0.79375 c 2.6302546,0 4.7624999,2.1322427 4.7624999,4.7625006 h 0.79375 c 0,-3.0686328 -2.4876178,-5.5562506 -5.5562499,-5.5562506 z m 0,1.5875 v 0.79375 c 1.7535048,0 3.1749999,1.4214951 3.1749999,3.1750006 h 0.79375 c 0,-2.1918804 -1.7768702,-3.9687506 -3.9687499,-3.9687506 z m 0,1.5875 v 0.7937499 c 0.8767524,0 1.5875,0.7107476 1.5875,1.5875007 h 0.7937499 c 0,-1.315128 -1.0661226,-2.3812506 -2.3812499,-2.3812506 z m 0,1.5874999 c 0,0.4397377 0.3540125,0.7937507 0.79375,0.7937507 0,-0.438376 -0.3553751,-0.7937507 -0.79375,-0.7937507 z"
     style="fill:#f5f5f5;stroke-width:0.264583"
     id="path892" />
</svg>
