<?xml version="1.0" encoding="UTF-8" standalone="no"?>
<!-- Created with Inkscape (http://www.inkscape.org/) -->

<svg
   width="48"
   height="48"
   viewBox="0 0 12.7 12.7"
   version="1.1"
   id="svg5"
   inkscape:version="1.2 (dc2aedaf03, 2022-05-15)"
   sodipodi:docname="io.elementary.music.svg"
   xmlns:inkscape="http://www.inkscape.org/namespaces/inkscape"
   xmlns:sodipodi="http://sodipodi.sourceforge.net/DTD/sodipodi-0.dtd"
   xmlns="http://www.w3.org/2000/svg"
   xmlns:svg="http://www.w3.org/2000/svg">
  <sodipodi:namedview
     id="namedview7"
     pagecolor="#ffffff"
     bordercolor="#666666"
     borderopacity="1.0"
     inkscape:pageshadow="2"
     inkscape:pageopacity="0.0"
     inkscape:pagecheckerboard="0"
     inkscape:document-units="px"
     showgrid="false"
     units="px"
     height="48px"
     inkscape:zoom="16.6875"
     inkscape:cx="24.149813"
     inkscape:cy="24.029963"
     inkscape:window-width="1846"
     inkscape:window-height="1011"
     inkscape:window-x="0"
     inkscape:window-y="0"
     inkscape:window-maximized="1"
     inkscape:current-layer="svg5"
     inkscape:showpageshadow="2"
     inkscape:deskcolor="#d1d1d1" />
  <defs
     id="defs2" />
  <rect
     style="opacity:1;fill:#faa41a;fill-opacity:1;stroke-width:0.264583"
     id="rect1162"
     width="10.583333"
     height="10.31875"
     x="1.0583333"
     y="1.3229166"
     ry="0.92604166" />
  <path
     id="rect1316"
     style="opacity:0.5;fill:#000000;stroke-width:0.264583"
     d="m 1.984375,1.3229167 c -0.5130271,0 -0.9260417,0.4130146 -0.9260417,0.9260417 v 8.4666666 c 0,0.513027 0.4130146,0.926042 0.9260417,0.926042 h 8.73125 c 0.513027,0 0.926042,-0.413015 0.926042,-0.926042 V 2.2489584 c 0,-0.5130271 -0.413015,-0.9260417 -0.926042,-0.9260417 z M 2.1166666,1.5875 h 8.4666664 c 0.439738,0 0.79375,0.3540125 0.79375,0.79375 v 7.672917 c 0,0.439737 -0.354012,0.79375 -0.79375,0.79375 H 2.1166666 c -0.4397375,0 -0.7937499,-0.354013 -0.7937499,-0.79375 V 2.38125 c 0,-0.4397375 0.3540124,-0.79375 0.7937499,-0.79375 z"
     sodipodi:nodetypes="ssssssssssssssssss" />
  <path
     d="m 6.0869853,4.4979166 c -0.2922509,0 -0.5291667,0.2369158 -0.5291667,0.5291667 v 1.6372416 c -0.084614,-0.031901 -0.174162,-0.048736 -0.2645834,-0.049742 -0.7072048,0 -1.0612464,0.8549799 -0.5612368,1.3549868 0.500007,0.5000097 1.3549869,0.1459681 1.3549869,-0.5612367 V 5.5562499 h 1.5874999 v 1.108075 c -0.084614,-0.031901 -0.174162,-0.048736 -0.2645834,-0.049742 -0.7072047,0 -1.0612463,0.8549799 -0.5612367,1.3549868 0.5000068,0.5000096 1.3549867,0.145968 1.3549867,-0.5612368 V 5.0270833 c 0,-0.2922509 -0.2369158,-0.5291667 -0.5291666,-0.5291667 z"
     style="opacity:0.2;fill:#000000;stroke-width:0.0700042"
     id="path938" />
  <path
     d="m 6.0869853,4.2333333 c -0.2922508,0 -0.5291667,0.2369159 -0.5291667,0.5291667 v 1.6372416 c -0.084614,-0.031901 -0.174162,-0.048736 -0.2645833,-0.049742 -0.7072048,0 -1.0612464,0.8549799 -0.5612368,1.3549868 0.5000069,0.5000096 1.3549868,0.145968 1.3549868,-0.5612368 v -1.852083 h 1.5875 v 1.108075 c -0.084614,-0.031901 -0.174162,-0.048736 -0.2645834,-0.049742 -0.7072048,0 -1.0612464,0.8549799 -0.5612368,1.3549868 C 7.348672,8.204996 8.2036519,7.8509544 8.2036519,7.1437496 V 4.7625 c 0,-0.2922508 -0.2369158,-0.5291667 -0.5291666,-0.5291667 z"
     style="fill:#ffffff;stroke-width:0.264583"
     id="path934"
     sodipodi:nodetypes="sscccscccccssss" />
</svg>
