<?xml version="1.0" encoding="UTF-8" standalone="no"?>
<!-- Created with Inkscape (http://www.inkscape.org/) -->

<svg
   width="48"
   height="48"
   viewBox="0 0 12.7 12.7"
   version="1.1"
   id="svg5"
   inkscape:version="1.1.2 (0a00cf5339, 2022-02-04, custom)"
   sodipodi:docname="kate.svg"
   xmlns:inkscape="http://www.inkscape.org/namespaces/inkscape"
   xmlns:sodipodi="http://sodipodi.sourceforge.net/DTD/sodipodi-0.dtd"
   xmlns="http://www.w3.org/2000/svg"
   xmlns:svg="http://www.w3.org/2000/svg">
  <sodipodi:namedview
     id="namedview7"
     pagecolor="#ffffff"
     bordercolor="#666666"
     borderopacity="1.0"
     inkscape:pageshadow="2"
     inkscape:pageopacity="0.0"
     inkscape:pagecheckerboard="0"
     inkscape:document-units="px"
     showgrid="false"
     units="px"
     height="48px"
     inkscape:zoom="16.708333"
     inkscape:cx="23.970075"
     inkscape:cy="24"
     inkscape:window-width="1920"
     inkscape:window-height="1017"
     inkscape:window-x="0"
     inkscape:window-y="0"
     inkscape:window-maximized="1"
     inkscape:current-layer="svg5"
     showguides="false" />
  <defs
     id="defs2" />
  <rect
     style="opacity:1;fill:#25688c;fill-opacity:1;stroke-width:0.264583"
     id="rect1040"
     width="11.641666"
     height="12.170834"
     x="0.52916664"
     y="0.52916664"
     ry="5.8208332" />
  <circle
     style="fill:#3daee9;fill-opacity:1;stroke-width:0.264583"
     id="path1188"
     cx="6.3499999"
     cy="6.3499999"
     r="5.5562501" />
  <path
     id="path10-3"
     style="opacity:0.2;fill:#000000;stroke-width:0.31832"
     d="M 6.0239077,2.3812511 C 5.344484,2.3807186 4.5633388,2.5746816 3.8056105,3.1235847 3.0652199,3.65993 2.7403921,3.8070107 2.38125,3.9852887 2.6961013,4.0093117 4.5543001,3.7455575 4.9365195,4.8084462 3.5737948,5.2581276 3.0386092,5.9896311 3.2106246,6.8402273 c 0.027059,0.1531568 0.078891,0.3132005 0.1579167,0.4793459 0.081615,0.1715889 0.1746969,0.3186614 0.2766655,0.4488822 0.00487,0.00683 0.00997,0.013675 0.014921,0.020516 -0.00254,-0.00356 -0.00496,-0.00701 -0.00746,-0.010575 0.6284179,0.7932955 1.6153288,0.9169889 2.6833443,1.631394 C 7.3091153,10.060716 7.6323311,10.391975 8.2602349,11.29423 8.1296623,10.04759 7.4418156,8.4409247 7.1597905,7.7330175 l -6.22e-4,-0.0031 C 8.0412372,8.3773322 9.086716,8.6595291 10.31875,8.7476645 8.3490581,7.3455528 7.9751182,7.0135225 6.8476869,6.0525081 6.0913022,6.0906344 6.1746296,6.083506 5.7285908,6.1090839 5.7844857,6.2022605 5.8410881,6.2923854 5.898942,6.3795321 6.3494262,7.1808657 6.4354361,8.1782818 5.4736857,8.3783626 4.4687539,8.5874257 3.3728284,7.7195693 3.6483155,6.7904896 3.9474638,5.7816213 5.3662161,5.9757158 6.7208559,5.8007113 8.0754965,5.6257055 9.3131661,4.297173 10.057628,3.3138311 8.9850994,3.6797734 7.6202528,4.015732 6.0960274,4.457796 5.7995043,3.8506635 5.5052872,2.8020573 7.4980062,2.7263056 c -0.03584,-0.019797 -0.072871,-0.038846 -0.1112881,-0.056576 -0.00474,-0.00224 -0.00952,-0.00461 -0.0143,-0.00683 -0.00824,-0.00372 -0.016517,-0.00757 -0.024869,-0.011189 C 7.0033858,2.4961038 6.5434672,2.381658 6.0239077,2.3812511 Z" />
  <path
     style="fill:#cccccc;fill-opacity:1;stroke-width:0.318331"
     d="M 4.9543554,4.5965068 C 4.6156001,3.4718916 2.7012416,3.7447856 2.38125,3.7203704 2.740404,3.5420869 3.062935,3.6080232 3.8033501,3.0716602 5.2297092,2.0383966 6.2304266,2.0246632 6.9866622,2.4349977 4.9192241,2.5135899 5.824547,3.6661106 6.1290616,4.2595876 5.7418085,4.3720725 5.1305002,4.5418764 4.9543554,4.5965068 Z"
     id="path10" />
  <path
     style="fill:#f2f2f2;stroke-width:0.318331"
     d="M 10.057648,3.0489855 C 9.313161,4.0323602 8.0753759,5.360968 6.7206911,5.5359792 5.3660061,5.7109901 3.9472212,5.5171117 3.6480631,6.5260164 3.3725668,7.4551267 4.4688292,8.3225911 5.473794,8.1135217 6.5474116,7.8901684 6.3155477,6.6733005 5.7283218,5.8446443 6.1743755,5.8190664 5.9119215,5.9747682 6.6683309,5.9366411 L 7.1596465,7.4686045 C 7.4416807,8.176536 8.12941,9.7832589 8.259987,11.02994 7.6320615,10.127651 7.3090957,9.7960609 6.3359591,9.1451214 5.0894349,8.3113097 3.9525812,8.283082 3.3682747,7.0546225 2.7852301,5.8288173 3.6842809,4.9458228 5.0652491,4.5634243 7.0387538,4.0169477 8.7391911,3.4988384 10.057648,3.0489855 Z"
     id="path12" />
  <path
     style="fill:#cccccc;fill-opacity:1;stroke-width:0.318331"
     d="M 5.7283218,5.8446443 C 6.1743755,5.8190667 6.0914025,5.8256877 6.8478118,5.7875601 7.9752811,6.7486068 8.348992,7.0811317 10.31875,8.4832902 8.3388787,8.3416582 6.8408547,7.6992174 5.7283218,5.8446443 Z"
     id="path14" />
  <path
     style="fill:#e6e6e6;fill-opacity:1;stroke-width:0.318331"
     d="M 2.38125,3.7203704 C 2.740404,3.5420869 3.0649761,3.3951297 3.8053912,2.8587667 5.2317502,1.8255029 6.7418868,2.0508435 7.4981224,2.461178 5.4306844,2.5397701 5.697068,2.9517041 5.6894383,3.2746355 4.3158271,2.9850957 3.9147619,3.3790415 2.38125,3.7203704 Z"
     id="path16" />
  <path
     style="fill:#f2f2f2;stroke-width:0.318331"
     d="M 7.4981224,2.461178 C 5.4306844,2.5397701 5.824547,3.6661106 6.1290616,4.2595876 5.8878035,4.3296651 5.7853235,4.4094993 5.4628107,4.4948543 4.1615052,2.1761484 6.4360265,1.8744989 7.4981224,2.461178 Z"
     id="path18" />
  <path
     style="fill:#e6e6e6;fill-opacity:1;stroke-width:0.318331"
     d="M 3.7405553,7.6322644 C 2.7288644,6.3295879 3.0429737,5.1355708 5.0240111,4.5151992 6.9789668,3.9029942 8.7391911,3.4988384 10.057648,3.0489855 6.4996202,4.4046711 1.9169618,5.3105342 3.7405553,7.6322644 Z"
     id="path20" />
</svg>
