<?xml version="1.0" encoding="UTF-8" standalone="no"?>
<!-- Created with Inkscape (http://www.inkscape.org/) -->

<svg
   width="48"
   height="48"
   viewBox="0 0 12.7 12.7"
   version="1.1"
   id="svg5"
   inkscape:version="1.2 (dc2aedaf03, 2022-05-15)"
   sodipodi:docname="kmahjongg.svg"
   xmlns:inkscape="http://www.inkscape.org/namespaces/inkscape"
   xmlns:sodipodi="http://sodipodi.sourceforge.net/DTD/sodipodi-0.dtd"
   xmlns="http://www.w3.org/2000/svg"
   xmlns:svg="http://www.w3.org/2000/svg">
  <sodipodi:namedview
     id="namedview7"
     pagecolor="#ffffff"
     bordercolor="#666666"
     borderopacity="1.0"
     inkscape:pageshadow="2"
     inkscape:pageopacity="0.0"
     inkscape:pagecheckerboard="0"
     inkscape:document-units="px"
     showgrid="false"
     units="px"
     height="48px"
     inkscape:zoom="16.520833"
     inkscape:cx="23.969736"
     inkscape:cy="23.969736"
     inkscape:window-width="1920"
     inkscape:window-height="1016"
     inkscape:window-x="0"
     inkscape:window-y="0"
     inkscape:window-maximized="1"
     inkscape:current-layer="svg5"
     showguides="false"
     inkscape:showpageshadow="2"
     inkscape:deskcolor="#d1d1d1" />
  <defs
     id="defs2" />
  <rect
     style="opacity:1;fill:#cf3b00;fill-opacity:1;stroke-width:0.264583"
     id="rect1162"
     width="8.4666662"
     height="11.1125"
     x="2.1166666"
     y="0.79374999"
     ry="0.79374999" />
  <path
     d="m 5.67426,3.2270251 c -0.047363,0.041777 -0.059204,0.1044434 -0.059204,0.1775533 0,0.1357744 0.047363,0.3028773 0.071044,0.3655391 0,0 0.035524,0.7311006 0.047364,0.8146498 -0.1065677,0.010457 -0.2960211,0.020887 -0.3670726,0.041777 h -0.094729 c -0.2012981,0.010457 -0.3907489,0.020887 -0.4736385,0.094 l -0.035524,0.031334 0.035524,0.041777 c 0.059204,0.062664 0.082885,0.2402153 0.1065678,0.4282236 0.059204,0.386449 0.1302466,0.8668796 0.4854764,1.0548652 l 0.071047,0.031334 v -0.073111 c 0,0 0.011862,-0.031334 0.011862,-0.073111 0,-0.031334 -0.011862,-0.083554 -0.023678,-0.1566637 0.094726,0.010457 0.2960209,0.031334 0.3670725,0.031334 0.011862,0.083554 0.3196974,3.4884737 0.3196974,3.4884737 h 0.1184085 c 0,0 0.1302511,-3.3630592 0.1302511,-3.4673824 0.082883,0 0.4499621,0.010457 0.556528,0.020886 C 6.9175816,6.1411697 6.822851,6.4022684 6.822851,6.4022684 L 6.9886208,6.2664942 C 7.0359846,6.2351611 8.0661397,5.4100697 7.9240596,4.8669546 7.8766935,4.6894036 7.7109233,4.5640774 7.438583,4.5014155 H 7.414861 c -0.1539296,0 -0.6275567,0.010457 -0.9827913,0.031334 C 6.4439317,4.261192 6.4439317,4.114981 6.4439317,4.041864 V 3.947878 c 0,-0.052223 0.059204,-0.1253328 0.1065678,-0.1775534 0.047366,-0.062667 0.1065676,-0.1148869 0.1065676,-0.1775511 0,-0.020887 -0.011861,-0.041779 -0.023674,-0.062667 C 6.5623452,3.4361103 6.0413502,3.1958873 5.8163805,3.175 5.7453325,3.1854572 5.6979697,3.1958865 5.6742889,3.2272212 Z m 0.011861,1.7128491 h 0.059204 c 0,0.093997 0.035524,0.751988 0.047363,0.8459922 C 5.6979613,5.7754114 5.4729914,5.7545333 5.40194,5.7545333 5.3664165,5.6187567 5.3545762,5.4725434 5.3427358,5.3263094 5.3309204,5.2009789 5.3190572,5.0756394 5.2953718,4.9607706 c 0.1065678,0 0.3907491,-0.020886 0.3907491,-0.020886 z m 0.7223068,0.3237645 c 0,0 0.011816,-0.2506703 0.011816,-0.3342196 0.1539295,0.020886 0.3552344,0.031334 0.5446899,0.031334 H 7.178072 c 0,0.041777 -0.011861,0.093998 -0.011861,0.093998 -0.023676,0.2297827 -0.059204,0.5013176 -0.1657746,0.7728751 -0.071042,0 -0.5091528,-0.020886 -0.6038805,-0.031334 0,-0.073111 0.011861,-0.5326602 0.011861,-0.5326602 z"
     style="fill:#ffffff;stroke-width:0.226786"
     id="path2882" />
  <path
     id="rect2736"
     style="opacity:0.5;fill:#000000;fill-opacity:1;stroke-width:0.264583"
     d="m 2.9104166,0.79375007 c -0.4397374,0 -0.7937499,0.35401253 -0.7937499,0.79375003 v 9.5250009 c 0,0.439737 0.3540125,0.79375 0.7937499,0.79375 h 6.879166 c 0.4397384,0 0.7937504,-0.354013 0.7937504,-0.79375 V 1.5875001 c 0,-0.4397375 -0.354012,-0.79375003 -0.7937504,-0.79375003 z M 3.0427083,1.0583334 h 6.6145831 c 0.3664476,0 0.6614586,0.2950105 0.6614586,0.6614584 v 8.7312502 c 0,0.366448 -0.295011,0.661459 -0.6614586,0.661459 H 3.0427083 C 2.6762604,11.112501 2.38125,10.81749 2.38125,10.451042 V 1.7197918 c 0,-0.3664479 0.2950104,-0.6614584 0.6614583,-0.6614584 z"
     sodipodi:nodetypes="ssssssssssssssssss" />
</svg>
