<?xml version="1.0" encoding="UTF-8" standalone="no"?>
<!-- Created with Inkscape (http://www.inkscape.org/) -->

<svg
   width="48"
   height="48"
   viewBox="0 0 12.7 12.7"
   version="1.1"
   id="svg5"
   inkscape:version="1.2 (dc2aedaf03, 2022-05-15)"
   sodipodi:docname="ktnef.svg"
   xmlns:inkscape="http://www.inkscape.org/namespaces/inkscape"
   xmlns:sodipodi="http://sodipodi.sourceforge.net/DTD/sodipodi-0.dtd"
   xmlns="http://www.w3.org/2000/svg"
   xmlns:svg="http://www.w3.org/2000/svg">
  <sodipodi:namedview
     id="namedview7"
     pagecolor="#ffffff"
     bordercolor="#666666"
     borderopacity="1.0"
     inkscape:pageshadow="2"
     inkscape:pageopacity="0.0"
     inkscape:pagecheckerboard="0"
     inkscape:document-units="px"
     showgrid="false"
     units="px"
     height="48px"
     inkscape:zoom="11.814576"
     inkscape:cx="38.681033"
     inkscape:cy="24.334348"
     inkscape:window-width="1920"
     inkscape:window-height="1010"
     inkscape:window-x="0"
     inkscape:window-y="0"
     inkscape:window-maximized="1"
     inkscape:current-layer="svg5"
     showguides="false"
     inkscape:showpageshadow="2"
     inkscape:deskcolor="#d1d1d1" />
  <defs
     id="defs2" />
  <rect
     style="opacity:1;fill:#a27100;fill-opacity:1;stroke-width:0.264583"
     id="rect1162"
     width="11.1125"
     height="8.9958334"
     x="0.79374999"
     y="2.9104166"
     ry="1.0583333" />
  <rect
     style="opacity:1;fill:#ffce51;fill-opacity:1;stroke-width:0.264583"
     id="rect1147"
     width="11.1125"
     height="8.4666662"
     x="0.79374999"
     y="2.9104166"
     ry="1.0583333" />
  <path
     d="m 1.8520833,11.377083 h 8.9958337 c 0.586317,0 1.058333,-0.472017 1.058333,-1.058333 L 6.3499999,3.175 0.79375,10.31875 c 0,0.586316 0.4720167,1.058333 1.0583333,1.058333 z"
     style="fill:#c29a32;stroke-width:0.264583"
     id="path1055" />
  <path
     d="M 11.90625,3.96875 V 4.4979167 L 6.3499999,8.4666662 0.79375,4.4979167 V 3.96875 Z"
     style="fill-opacity:1;stroke-width:0.264583;fill:#000000;opacity:0.2"
     id="path1617" />
  <path
     d="m 1.8520833,2.9104167 h 8.9958337 c 0.586316,0 1.058333,0.4720167 1.058333,1.0583333 L 6.3499999,7.9375 0.79375,3.96875 c 0,-0.5863166 0.4720166,-1.0583333 1.0583333,-1.0583333 z"
     style="fill:#ffee7d;stroke-width:0.264583"
     id="path1296" />
  <path
     id="rect1453"
     style="opacity:0.4;fill:#393939;fill-opacity:1;stroke-width:2;stroke-linecap:round;stroke-linejoin:round"
     d="M 7 11 C 4.7840001 11 3 12.784 3 15 L 3 39 C 3 41.216 4.7840001 43 7 43 L 41 43 C 43.216 43 45 41.216 45 39 L 45 15 C 45 12.784 43.216 11 41 11 L 7 11 z M 7.5 12 L 40.5 12 C 42.439 12 44 13.561 44 15.5 L 44 38.5 C 44 40.439 42.439 42 40.5 42 L 7.5 42 C 5.561 42 4 40.439 4 38.5 L 4 15.5 C 4 13.561 5.561 12 7.5 12 z "
     transform="scale(0.26458333)" />
  <rect
     style="fill:#245c63;fill-opacity:1;stroke-width:0.529167;stroke-linecap:round;stroke-linejoin:round"
     id="rect1064"
     width="5.2916665"
     height="5.2916665"
     x="7.1437502"
     y="7.1437502"
     ry="0.92604166" />
  <rect
     style="fill:#48b9c7;fill-opacity:1;stroke-width:0.529167;stroke-linecap:round;stroke-linejoin:round"
     id="rect1330"
     width="4.7624998"
     height="4.2333331"
     x="7.4083333"
     y="7.4083333"
     ry="0.79374999" />
  <path
     d="m 9.5249993,11.1125 c -0.1461251,0 -0.2645832,-0.118458 -0.2645832,-0.264584 V 9.5249998 H 8.7312494 L 9.7730458,7.9374994 10.847917,9.5249998 H 10.31875 v 1.3229162 c 0,0.146126 -0.118458,0.264584 -0.264583,0.264584 z"
     style="color:#000000;fill:#ffffff;stroke-width:0.264583"
     id="path300"
     sodipodi:nodetypes="sscccccsss" />
</svg>
