<?xml version="1.0" encoding="UTF-8" standalone="no"?>
<!-- Created with Inkscape (http://www.inkscape.org/) -->

<svg
   width="48"
   height="48"
   viewBox="0 0 12.7 12.7"
   version="1.1"
   id="svg5"
   inkscape:version="1.1.2 (0a00cf5339, 2022-02-04, custom)"
   sodipodi:docname="kvantum.svg"
   xmlns:inkscape="http://www.inkscape.org/namespaces/inkscape"
   xmlns:sodipodi="http://sodipodi.sourceforge.net/DTD/sodipodi-0.dtd"
   xmlns="http://www.w3.org/2000/svg"
   xmlns:svg="http://www.w3.org/2000/svg">
  <sodipodi:namedview
     id="namedview7"
     pagecolor="#ffffff"
     bordercolor="#666666"
     borderopacity="1.0"
     inkscape:pageshadow="2"
     inkscape:pageopacity="0.0"
     inkscape:pagecheckerboard="0"
     inkscape:document-units="px"
     showgrid="false"
     units="px"
     height="48px"
     inkscape:zoom="16"
     inkscape:cx="19.03125"
     inkscape:cy="32.8125"
     inkscape:window-width="1920"
     inkscape:window-height="1017"
     inkscape:window-x="0"
     inkscape:window-y="0"
     inkscape:window-maximized="1"
     inkscape:current-layer="svg5"
     showguides="true" />
  <defs
     id="defs2" />
  <rect
     style="opacity:1;fill:#cf3b00;fill-opacity:1;stroke-width:0.264583"
     id="rect1162"
     width="11.1125"
     height="8.4666662"
     x="0.79374999"
     y="2.9104166"
     ry="0.79374999" />
  <path
     id="path24962"
     style="opacity:1;fill:#faa41a;fill-opacity:1;stroke-width:0.070004"
     d="M 17 11 L 3 25 L 3 40 C 3 41.662 4.338 43 6 43 L 21 43 L 45 17.400391 L 45 14 C 45 12.338 43.662 11 42 11 L 17 11 z "
     transform="scale(0.26458333)" />
  <path
     id="path24536"
     style="opacity:1;fill:#73c48f;fill-opacity:1;stroke-width:0.264583"
     d="M 31 11 L 3 39 L 3 40 C 3 41.662 4.338 43 6 43 L 35 43 L 45 32.333984 L 45 14 C 45 12.338 43.662 11 42 11 L 31 11 z "
     transform="scale(0.26458333)" />
  <path
     id="rect23915"
     style="opacity:1;fill:#6a7ce0;stroke-width:0.999999"
     d="M 45 15 L 17 43 L 42 43 C 43.662 43 45 41.662 45 40 L 45 15 z "
     transform="scale(0.26458333)" />
  <path
     id="path23491"
     style="opacity:1;fill:#b84acb;stroke-width:0.264583"
     d="M 45 29 L 31 43 L 42 43 C 43.662 43 45 41.662 45 40 L 45 29 z "
     transform="scale(0.26458333)" />
  <path
     d="m 3.7041326,4.7625 4.76e-5,0.5150649 0.3955336,0.033413 0.070953,0.1002286 -0.7053791,3.4677618 -0.1085189,0.1044321 -0.4463521,0.033623 v 0.507946 l 1.852041,3.02e-5 L 4.7625186,9.01708 4.4296595,8.98778 4.3545315,8.8791858 4.6425304,7.410425 h 0.4424098 l 0.634418,1.3364441 c 0.2592943,0.532936 0.4411927,0.7614127 1.0017125,0.7684818 0.1611682,0.00209 0.2260044,0.013914 0.6607968,0 C 8.8814992,8.2625412 9.6469653,7.2019575 9.7679063,6.7702078 9.8411536,6.5087116 9.7248613,6.3483331 9.475674,6.3483331 c -0.1215548,0 -0.2607177,0.051223 -0.4173008,0.1546069 L 8.9456819,7.5064707 C 8.6387652,7.9078275 8.2296135,8.3450311 7.7311121,8.8011378 L 8.1666427,6.970426 C 8.2350666,6.6176766 8.257625,6.4294673 8.0288821,6.356477 L 7.0063469,6.5820441 6.9521549,6.7741236 7.4237218,6.8493463 C 7.4565037,6.9709578 7.3143801,7.3412046 7.2427865,7.7487037 L 7.0132287,9.014116 c -0.00362,0.013018 -0.0059,0.027295 -0.00836,0.041764 C 6.8560178,8.9758523 6.7621859,8.8333495 6.6542677,8.6173792 L 5.7569069,6.821519 7.3971912,5.3444672 l 0.5403215,-0.054289 -6.88e-5,-0.5276141 -1.8520859,1.48e-5 7.4e-5,0.52764 0.5521193,0.033369 0.041738,0.1127689 -1.730711,1.4423305 H 4.7398882 l 0.3199792,-1.4673754 0.091824,-0.1002282 0.4045585,-0.0334 -4.24e-5,-0.5151181 z"
     style="fill:#000000;stroke-width:0.0700042;opacity:0.3"
     id="path22563" />
  <path
     id="rect2736"
     style="opacity:0.5;fill:#000000;fill-opacity:1;stroke-width:0.264583"
     d="m 1.5874999,2.9104167 c -0.4397374,0 -0.79374991,0.3540125 -0.79374991,0.79375 v 6.8791673 c 0,0.439737 0.35401251,0.79375 0.79374991,0.79375 h 9.5249991 c 0.439738,0 0.79375,-0.354013 0.79375,-0.79375 V 3.7041667 c 0,-0.4397375 -0.354012,-0.79375 -0.79375,-0.79375 z M 1.7197916,3.175 h 9.2604164 c 0.366447,0 0.661458,0.2950105 0.661458,0.6614584 V 9.921875 c 0,0.366448 -0.295011,0.661459 -0.661458,0.661459 H 1.7197916 c -0.3664479,0 -0.6614583,-0.295011 -0.6614583,-0.661459 V 3.8364584 C 1.0583333,3.4700105 1.3533437,3.175 1.7197916,3.175 Z" />
  <path
     d="m 3.7041326,4.4979167 4.76e-5,0.5150649 0.3955336,0.033413 0.070953,0.1002286 L 3.4652876,8.6143849 3.3567688,8.718817 2.9104167,8.75244 v 0.507946 l 1.852041,3.02e-5 6.08e-5,-0.5079196 -0.332859,-0.0293 -0.075128,-0.1085943 0.287999,-1.4687608 h 0.4424098 l 0.6344179,1.3364443 c 0.2592943,0.5329359 0.4411927,0.7614126 1.0017125,0.7684818 0.1611682,0.00209 0.2260044,0.013914 0.6607968,0 C 8.8814992,7.9979578 9.6469652,6.9373742 9.7679063,6.5056245 9.8411535,6.2441283 9.7248612,6.0837498 9.475674,6.0837498 c -0.1215549,0 -0.2607178,0.051223 -0.4173009,0.1546069 L 8.9456818,7.2418874 C 8.6387651,7.6432442 8.2296135,8.0804478 7.731112,8.5365545 L 8.1666426,6.7058426 C 8.2350665,6.3530933 8.2576249,6.164884 8.028882,6.0918937 L 7.0063468,6.3174608 6.9521549,6.5095403 7.4237218,6.584763 C 7.4565036,6.7063745 7.3143801,7.0766213 7.2427865,7.4841203 L 7.0132287,8.7495327 c -0.00362,0.013018 -0.0059,0.027295 -0.00836,0.041764 C 6.8560185,8.7112689 6.7621867,8.5687662 6.6542685,8.3527958 L 5.7569076,6.5569357 7.397192,5.0798839 l 0.5403215,-0.054289 -6.88e-5,-0.5276141 -1.852086,1.46e-5 7.41e-5,0.5276402 0.5521193,0.033369 0.041738,0.1127688 -1.730711,1.4423306 H 4.739889 l 0.3199791,-1.4673755 0.091824,-0.1002281 0.4045585,-0.0334 -4.23e-5,-0.5151181 z"
     style="fill:#ffffff;stroke-width:0.264583"
     id="path870"
     sodipodi:nodetypes="ccccccccccccccccccsccccccccccccccccccccccccccc" />
</svg>
