<?xml version="1.0" encoding="UTF-8" standalone="no"?>
<!-- Created with Inkscape (http://www.inkscape.org/) -->

<svg
   width="48"
   height="48"
   viewBox="0 0 12.7 12.7"
   version="1.1"
   id="svg5"
   inkscape:version="1.2 (dc2aedaf03, 2022-05-15)"
   sodipodi:docname="lastfm.svg"
   xmlns:inkscape="http://www.inkscape.org/namespaces/inkscape"
   xmlns:sodipodi="http://sodipodi.sourceforge.net/DTD/sodipodi-0.dtd"
   xmlns="http://www.w3.org/2000/svg"
   xmlns:svg="http://www.w3.org/2000/svg">
  <sodipodi:namedview
     id="namedview7"
     pagecolor="#ffffff"
     bordercolor="#666666"
     borderopacity="1.0"
     inkscape:pageshadow="2"
     inkscape:pageopacity="0.0"
     inkscape:pagecheckerboard="0"
     inkscape:document-units="px"
     showgrid="false"
     units="px"
     height="48px"
     inkscape:zoom="16.625"
     inkscape:cx="24"
     inkscape:cy="24.030075"
     inkscape:window-width="1846"
     inkscape:window-height="1011"
     inkscape:window-x="74"
     inkscape:window-y="32"
     inkscape:window-maximized="1"
     inkscape:current-layer="svg5"
     showguides="false"
     inkscape:showpageshadow="2"
     inkscape:deskcolor="#d1d1d1" />
  <defs
     id="defs2" />
  <rect
     style="opacity:1;fill:#cf3b00;fill-opacity:1;stroke-width:0.264583"
     id="rect1040"
     width="11.641666"
     height="12.170834"
     x="0.52916664"
     y="0.52916664"
     ry="5.8208332" />
  <path
     id="rect4520"
     style="opacity:0.5;fill:#000000;fill-opacity:1;stroke-width:0.999999"
     d="M 24 2 C 11.812001 2 2 11.812001 2 24 L 2 26 C 2 38.187999 11.812001 48 24 48 C 36.187999 48 46 38.187999 46 26 L 46 24 C 46 11.812001 36.187999 2 24 2 z M 24 3 A 21 21 0 0 1 45 24 A 21 21 0 0 1 24 45 A 21 21 0 0 1 3 24 A 21 21 0 0 1 24 3 z "
     transform="scale(0.26458333)" />
  <path
     d="M 4.7838159,8.4478842 C 4.6567677,8.4304212 4.4307682,8.3558092 4.2800202,8.2821092 3.2978381,7.8041142 2.8961694,6.6002346 3.3799308,5.5861806 c 0.5526606,-1.1594689 2.060628,-1.4550214 2.968047,-0.581699 0.262404,0.2521344 0.3789465,0.4672802 0.7740183,1.421287 0.4124184,0.997663 0.4886474,1.1545078 0.6222925,1.2875006 0.1431734,0.1414863 0.275842,0.1891112 0.5296945,0.1891112 0.417061,0 0.7148919,-0.2618183 0.7148919,-0.6271416 0,-0.3092053 -0.107015,-0.4082252 -0.6528341,-0.6050351 C 7.5048511,6.3656817 7.2356066,6.090489 7.2346286,5.5378016 c 0,-0.294838 0.073545,-0.4914101 0.2604494,-0.6951257 0.2682676,-0.2908693 0.7310177,-0.386913 1.1405045,-0.2424904 0.1746917,0.063063 0.5402001,0.3916358 0.5402001,0.4856951 0,0.04564 -0.2118286,0.1851419 -0.3293487,0.2181223 C 8.7843791,5.3202748 8.730869,5.2992329 8.6592817,5.2293106 8.5141526,5.0878638 8.4159352,5.0441687 8.2422207,5.0441687 c -0.2997854,0 -0.4857158,0.1831575 -0.4857158,0.4789879 0,0.294838 0.1182529,0.3945725 0.7090284,0.5970975 0.8140873,0.2792013 1.0545013,0.5313357 1.0593883,1.1147811 0.0049,0.5040699 -0.21867,0.8676471 -0.6633393,1.0827926 -0.2023006,0.097036 -0.2709554,0.1094577 -0.6012814,0.1094577 -0.4715446,0 -0.6833743,-0.089098 -0.9477326,-0.3916358 C 7.1349449,7.8321731 6.9546341,7.4502208 6.3772966,6.0559608 6.1378594,5.4782308 5.8304999,5.1950609 5.3179083,5.0836185 5.058192,5.027302 4.6965924,5.0796497 4.46082,5.2057367 4.230911,5.327855 3.9741268,5.6033256 3.8529418,5.8552218 3.7527689,6.0596915 3.7432409,6.1170399 3.7432409,6.4726791 c 0,0.3392483 0.01344,0.4196551 0.09724,0.6057896 0.1270484,0.2841621 0.3769917,0.5466943 0.6518563,0.6881801 0.1986353,0.1017589 0.2604494,0.1144189 0.5773373,0.1144189 0.3044274,0 0.3826114,-0.014685 0.5641437,-0.102752 C 5.841006,7.675566 6.1195353,7.4234316 6.2331458,7.234559 l 0.059127,-0.098028 0.1165423,0.2705099 c 0.06499,0.149383 0.1172759,0.2898773 0.1172759,0.3151582 0,0.07473 -0.2633814,0.3189283 -0.5047733,0.47105 C 5.6548308,8.4230795 5.233861,8.5091612 4.7843049,8.4471297"
     style="fill:#ffffff;stroke-width:0.396874"
     id="path16950" />
</svg>
