<?xml version="1.0" encoding="UTF-8" standalone="no"?>
<!-- Created with Inkscape (http://www.inkscape.org/) -->

<svg
   width="48"
   height="48"
   viewBox="0 0 12.7 12.7"
   version="1.1"
   id="svg5"
   inkscape:version="1.2 (dc2aedaf03, 2022-05-15)"
   sodipodi:docname="libreoffice-base.svg"
   xmlns:inkscape="http://www.inkscape.org/namespaces/inkscape"
   xmlns:sodipodi="http://sodipodi.sourceforge.net/DTD/sodipodi-0.dtd"
   xmlns="http://www.w3.org/2000/svg"
   xmlns:svg="http://www.w3.org/2000/svg">
  <sodipodi:namedview
     id="namedview7"
     pagecolor="#ffffff"
     bordercolor="#666666"
     borderopacity="1.0"
     inkscape:pageshadow="2"
     inkscape:pageopacity="0.0"
     inkscape:pagecheckerboard="0"
     inkscape:document-units="px"
     showgrid="false"
     units="px"
     height="48px"
     inkscape:zoom="11.75565"
     inkscape:cx="16.587768"
     inkscape:cy="30.11318"
     inkscape:window-width="1920"
     inkscape:window-height="1016"
     inkscape:window-x="0"
     inkscape:window-y="0"
     inkscape:window-maximized="1"
     inkscape:current-layer="svg5"
     showguides="false"
     inkscape:showpageshadow="2"
     inkscape:deskcolor="#d1d1d1" />
  <defs
     id="defs2" />
  <rect
     style="opacity:1;fill:#552d5d;fill-opacity:1;stroke-width:0.264583"
     id="rect1162"
     width="8.9958334"
     height="11.90625"
     x="1.8520833"
     y="0.52916664"
     ry="0.92604166" />
  <rect
     style="fill:#aa5abb;fill-opacity:1;stroke-width:0.264583"
     id="rect12744"
     width="8.4666662"
     height="11.1125"
     x="2.1166668"
     y="0.79374999"
     ry="0.79374999" />
  <path
     d="M 6.6145829,0.79374999 H 9.789583 c 0.439737,0 0.79375,0.35401251 0.79375,0.79375001 v 3.1749969 z"
     style="opacity:0.5;fill:#552d5d;fill-opacity:1;stroke-width:0.264583"
     id="path17661"
     sodipodi:nodetypes="csscc" />
  <path
     d="M 7.4083329,0.79375 H 9.789583 c 0.439738,0 0.79375,0.3540125 0.79375,0.79375 v 2.38125"
     style="fill:#bb7bc9;fill-opacity:1;stroke-width:0.264583"
     id="path17633" />
  <path
     id="rect2164"
     style="fill:#ffffff;fill-opacity:1;stroke-width:0.264583"
     d="M 3.4395833 5.8208333 C 3.2930043 5.8208333 3.175 5.9388377 3.175 6.0854167 L 3.175 6.6145833 C 3.175 6.7611623 3.2930043 6.8791667 3.4395833 6.8791667 L 9.2604167 6.8791667 C 9.4069957 6.8791667 9.525 6.7611623 9.525 6.6145833 L 9.525 6.0854167 C 9.525 5.9388377 9.4069957 5.8208333 9.2604167 5.8208333 L 3.4395833 5.8208333 z M 3.4395833 7.9375 C 3.2930043 7.9375 3.175 8.0555043 3.175 8.2020833 L 3.175 8.73125 C 3.175 8.877829 3.2930043 8.9958333 3.4395833 8.9958333 L 9.2604167 8.9958333 C 9.4069957 8.9958333 9.525 8.877829 9.525 8.73125 L 9.525 8.2020833 C 9.525 8.0555043 9.4069957 7.9375 9.2604167 7.9375 L 3.4395833 7.9375 z M 3.4395833 9.9704508 C 3.2930043 9.9704508 3.175 10.088455 3.175 10.235034 L 3.175 10.847917 C 3.175 10.994496 3.2930043 11.1125 3.4395833 11.1125 L 9.2604167 11.1125 C 9.4069957 11.1125 9.525 10.994496 9.525 10.847917 L 9.525 10.235034 C 9.525 10.088455 9.4069957 9.9704508 9.2604167 9.9704508 L 3.4395833 9.9704508 z " />
</svg>
