<?xml version="1.0" encoding="UTF-8" standalone="no"?>
<!-- Created with Inkscape (http://www.inkscape.org/) -->

<svg
   width="48"
   height="48"
   viewBox="0 0 12.7 12.7"
   version="1.1"
   id="svg5"
   inkscape:version="1.2 (dc2aedaf03, 2022-05-15)"
   sodipodi:docname="lollypop.svg"
   xmlns:inkscape="http://www.inkscape.org/namespaces/inkscape"
   xmlns:sodipodi="http://sodipodi.sourceforge.net/DTD/sodipodi-0.dtd"
   xmlns="http://www.w3.org/2000/svg"
   xmlns:svg="http://www.w3.org/2000/svg">
  <sodipodi:namedview
     id="namedview7"
     pagecolor="#ffffff"
     bordercolor="#666666"
     borderopacity="1.0"
     inkscape:pageshadow="2"
     inkscape:pageopacity="0.0"
     inkscape:pagecheckerboard="0"
     inkscape:document-units="px"
     showgrid="false"
     units="px"
     height="48px"
     inkscape:zoom="16.958333"
     inkscape:cx="23.970516"
     inkscape:cy="24"
     inkscape:window-width="1920"
     inkscape:window-height="1011"
     inkscape:window-x="0"
     inkscape:window-y="0"
     inkscape:window-maximized="1"
     inkscape:current-layer="svg5"
     showguides="false"
     inkscape:showpageshadow="2"
     inkscape:deskcolor="#d1d1d1" />
  <defs
     id="defs2" />
  <rect
     style="opacity:1;fill:#8a2e4e;fill-opacity:1;stroke-width:0.264583"
     id="rect1040"
     width="11.641666"
     height="12.170834"
     x="0.52916664"
     y="0.52916664"
     ry="5.8208332" />
  <circle
     style="fill:#ed6697;fill-opacity:1;stroke-width:0.198437"
     id="path1427"
     cx="6.3500009"
     cy="6.3499999"
     r="5.5562501" />
  <path
     id="path401"
     style="fill:#f6f6f6;fill-opacity:1;stroke-width:0.191595"
     d="M 5.2053671,0.9157058 C 4.2297795,1.1207663 3.3272932,1.5844224 2.5926066,2.2582595 c 0.09649,0.5059216 0.675065,1.531335 1.1529012,2.2778972 A 3.175,3.175 0 0 0 3.175,6.3499995 3.175,3.175 0 0 0 3.190503,6.6461054 C 2.4663243,6.080363 1.4659179,5.1103896 1.0965739,4.5526931 0.8974165,5.1310521 0.7950397,5.7383124 0.79375,6.3499995 0.795,6.6960205 0.828544,7.0411688 0.8940023,7.380944 1.4206391,7.57884 2.4313377,7.827141 3.4158122,7.558711 A 3.175,3.175 0 0 0 4.7749024,9.10642 c -0.8635766,0.611898 -1.7574176,1.025165 -2.4008871,1.119828 0.6728232,0.690238 1.5134449,1.193407 2.4396444,1.460376 0.4292769,-0.434347 0.7720989,-1.193917 1.2164632,-2.179711 a 3.175,3.175 0 0 0 0.3198772,0.01809 3.175,3.175 0 0 0 1.7523474,-0.529167 c 0.09689,1.070807 0.06688,2.049205 -0.179317,2.680973 0.951256,-0.280509 1.809919,-0.810304 2.4871865,-1.53479 C 10.203902,9.612564 9.7207615,8.769373 9.0459595,8.022769 A 3.175,3.175 0 0 0 9.5250005,6.3499995 3.175,3.175 0 0 0 9.4939945,5.9071324 C 10.453681,6.379942 11.268239,7.102278 11.771376,7.564396 11.860906,7.165824 11.905997,6.7585034 11.906251,6.3499995 11.906094,5.8358032 11.834721,5.3242049 11.693861,4.8296788 11.056389,4.7386758 10.146311,4.7966188 9.2723025,5.1087315 A 3.175,3.175 0 0 0 7.8305295,3.5413853 C 8.5283035,2.9524564 9.5087135,2.5293244 10.136332,2.2840977 9.5044755,1.6956862 8.7441995,1.2624098 7.9157965,1.0190587 7.3366015,1.6362806 6.7610875,2.0987701 6.5468875,3.1812006 a 3.175,3.175 0 0 0 -0.1968874,-0.0062 3.175,3.175 0 0 0 -1.6805176,0.4836914 c 0.04887,-0.8789465 0.2131494,-2.1470257 0.5358846,-2.742985 z" />
  <path
     d="M 5.55625,5.0270853 C 5.4164177,5.0273499 5.3009747,5.1364693 5.292725,5.2760582 h -5.292e-4 v 0.00688 l -5.291e-4,0.00873 c 0,0.00609 0,0.012435 5.291e-4,0.018521 l -5.291e-4,2.2690667 c 0,0.1461241 0.1184592,0.2645833 0.2645833,0.2645833 0.038605,-1.323e-4 0.076716,-0.0087 0.1116542,-0.025135 l 5.291e-4,5.292e-4 0.00661,-0.0037 0.00106,-5.292e-4 c 0.00796,-0.00392 0.015743,-0.00826 0.023283,-0.012965 l 2.0759208,-1.1300354 0.00265,-0.00106 v -5.292e-4 c 0.1845893,-0.097073 0.1895344,-0.3595952 0.00873,-0.46355 l -0.00476,-0.00265 -0.00106,-5.292e-4 -2.0962938,-1.1435291 h -5.291e-4 c -0.039161,-0.021537 -0.0831,-0.032909 -0.1277938,-0.033073 z"
     style="fill:#ed6697;fill-opacity:1;stroke-width:0.264583"
     id="path1600" />
</svg>
