<?xml version="1.0" encoding="UTF-8" standalone="no"?>
<!-- Created with Inkscape (http://www.inkscape.org/) -->

<svg
   width="48"
   height="48"
   viewBox="0 0 12.7 12.7"
   version="1.1"
   id="svg5"
   inkscape:version="1.2 (dc2aedaf03, 2022-05-15)"
   sodipodi:docname="lutris.svg"
   xmlns:inkscape="http://www.inkscape.org/namespaces/inkscape"
   xmlns:sodipodi="http://sodipodi.sourceforge.net/DTD/sodipodi-0.dtd"
   xmlns="http://www.w3.org/2000/svg"
   xmlns:svg="http://www.w3.org/2000/svg">
  <sodipodi:namedview
     id="namedview7"
     pagecolor="#ffffff"
     bordercolor="#666666"
     borderopacity="1.0"
     inkscape:pageshadow="2"
     inkscape:pageopacity="0.0"
     inkscape:pagecheckerboard="0"
     inkscape:document-units="px"
     showgrid="false"
     units="px"
     height="48px"
     inkscape:zoom="11.814576"
     inkscape:cx="12.950105"
     inkscape:cy="28.524089"
     inkscape:window-width="1846"
     inkscape:window-height="1011"
     inkscape:window-x="0"
     inkscape:window-y="0"
     inkscape:window-maximized="1"
     inkscape:current-layer="svg5"
     showguides="false"
     inkscape:showpageshadow="2"
     inkscape:deskcolor="#d1d1d1" />
  <defs
     id="defs2" />
  <rect
     style="opacity:1;fill:#7d520d;fill-opacity:1;stroke-width:0.264583"
     id="rect1040"
     width="8.7312498"
     height="9.260417"
     x="2.9104166"
     y="2.9104166"
     ry="4.3656249" />
  <circle
     style="fill:#faa41a;fill-opacity:1;stroke-width:0.195288"
     id="path1188"
     cx="7.2760425"
     cy="7.2760425"
     r="4.1010418" />
  <path
     id="path51302"
     style="color:#000000;fill:#4a342b;stroke:none;stroke-width:1.00001;fill-opacity:1"
     d="M 6.1649984,0.26458333 C 2.9744413,0.26172257 0.26373811,3.0382681 0.26458333,6.35 v 0.2645708 c 0.009512,3.3158335 2.48419217,5.9963752 5.74228517,6.0843832 1.587296,0.04284 3.1793144,-0.435787 4.2648555,-1.459343 0.10222,-0.08623 0.17415,-0.150378 0.17415,-0.150378 l 0.0036,-0.0057 0.0041,-0.0041 c 0,0 0.294438,-0.308942 0.59583,-0.74414 0.273475,-0.3948958 0.522721,-0.7753598 0.601513,-1.299133 0.005,-0.00829 0.01826,-0.017078 0.02325,-0.025322 l -0.01189,-0.00413 c 0.0057,-0.042902 -0.02335,-0.074124 -0.02067,-0.1173055 0,0 0.01757,-1.5405592 0,-1.6371094 l -0.420646,0.9554972 c -0.290543,0.4799993 -0.502783,0.8779365 -1.156002,1.19941 -0.3193162,0.1477872 -0.7393636,0.2724318 -1.0247439,0.3689698 -0.00182,6.158e-4 -0.00438,0.00146 -0.0062,0.00207 -0.011457,0.00279 -0.022268,0.00467 -0.03514,0.00775 -0.1353533,0.032312 -0.2769859,0.059594 -0.4258138,0.080099 -0.015784,0.00215 -0.034887,0.00342 -0.056327,0.0062 -0.1561809,0.019762 -0.317044,0.033811 -0.4826579,0.040824 -0.00779,3.334e-4 -0.026592,0.00125 -0.05271,0.00207 -0.1646253,0.00565 -0.3344458,0.0047 -0.5059123,-0.00207 -0.025089,-0.00103 -0.037684,-1.16e-4 -0.03514,0 C 7.2668028,9.9053169 7.088939,9.8890995 6.909139,9.8681315 6.87625,9.8642615 6.8516996,9.8627 6.8331746,9.86038 6.6605705,9.8384451 6.4864956,9.8092256 6.3133097,9.7745972 6.2840676,9.7687173 6.2582163,9.7626584 6.231661,9.7570272 6.0633388,9.7213052 5.8949846,9.6796711 5.7314331,9.6319702 5.6784563,9.6165125 5.6264094,9.6012463 5.5753703,9.5849447 5.5327062,9.5713111 5.494991,9.5575775 5.4601318,9.5456706 5.4080074,9.527867 5.3526869,9.5085873 5.2958008,9.4872762 5.2481267,9.4694203 5.2044714,9.4546021 5.1650594,9.4387004 5.1189056,9.4200855 5.0714804,9.3972143 5.0188151,9.3741048 4.9719846,9.35354 4.9287057,9.335782 4.8937581,9.3193278 4.8049494,9.2775084 4.7199863,9.2356895 4.6379598,9.1906535 4.5742043,9.1553864 4.5132552,9.117224 4.4560588,9.0790324 4.3273792,8.9931109 4.2152256,8.8989607 4.1124105,8.7979126 v -0.00207 C 3.7939873,8.470187 3.6812674,8.1205703 3.6488729,7.7938395 c 9.063e-4,-0.014049 0.00165,-0.029094 0.00258,-0.042891 0.00173,-0.025533 0.00552,-0.054298 0.00982,-0.084233 -0.0053,-0.1572522 0.00311,-0.3083074 0.012402,-0.4459676 C 3.7051695,6.7557407 4.1113731,5.559128 5.6130941,4.9237305 6.5612296,4.5909003 7.671261,4.4495688 8.5565837,4.7345947 l 0.00982,0.00362 0.011886,0.00207 c 0.7066366,0.1594377 1.2169622,0.3635877 1.9120283,0.6092652 0.0065,0.00269 0.01675,0.011382 0.02325,0.013953 0.04484,0.017728 0.0958,0.031143 0.197404,0.056327 l 0.01189,0.00413 0.01137,0.00207 c 0.751241,0.1189863 1.240428,-0.1824806 1.467093,-0.5234823 0.05561,-0.083652 0.09788,-0.1688555 0.130225,-0.2495971 V 4.2250651 h -10e-4 C 12.324614,4.0776977 12.2877,3.9343435 12.24318,3.7744466 L 12.20442,3.6318197 c 0,0 -0.06878,-0.3110048 -0.06098,-0.4237468 0.01605,-0.2286045 0.0024,-0.503174 -0.04289,-0.8831502 C 12.043774,1.8488349 11.669671,1.599127 11.626164,1.5673462 v -0.00207 C 11.558515,1.5160603 11.173631,1.2190447 10.766785,1.0593669 10.398227,0.91480326 9.9810045,0.79364833 9.4815918,0.86402995 c -0.023876,0.003378 -0.044491,0.006428 -0.066663,0.009819 0.0064,-0.002006 -0.029605,-0.0242047 -0.091467,-0.0914673 -0.034879,-0.0379258 -0.07495,-0.081973 -0.1328083,-0.12712449 -0.057858,-0.0451514 -0.1472987,-0.10060225 -0.269751,-0.0976685 -0.021311,5.1103e-4 -0.038604,0.002145 -0.05271,0.003617 -0.00384,4.0292e-4 -0.00919,0.001562 -0.013436,0.002067 h -0.01602 l -0.023254,0.006201 C 8.7934805,0.5735847 8.7750855,0.5769357 8.7607055,0.5808425 8.7333195,0.5882715 8.7074865,0.598757 8.6826745,0.6102981 8.5625492,0.66613947 8.5240256,0.74784594 8.4873372,0.81752116 7.8136401,0.51570075 7.0962254,0.28970374 6.3174438,0.26871745 6.2674521,0.26736445 6.2165158,0.26462961 6.1649984,0.26458333 Z M 11.453564,3.3222778 h 0.178284 c -0.0046,0.021919 -0.01094,0.031086 -0.01654,0.054777 -0.05595,-0.017278 -0.109318,-0.035655 -0.161748,-0.054777 z"
     sodipodi:nodetypes="ccccccccccccccccsccccccccccccccscccccsccccccccccccccccccccccccccccssscccccccccccccc" />
  <path
     id="path52121"
     style="color:#000000;fill:#696463;fill-opacity:1;stroke-width:0.529167"
     d="M 8.6211792,2.0174479 C 7.9602195,2.0166441 7.2811639,2.2038833 6.7830485,2.3771159 h -0.00155 C 5.8729813,2.6986072 5.2234987,2.8899527 4.4493408,3.4432007 h -0.00207 v 0.00207 C 4.2477938,3.5901199 3.4431668,4.17101 2.9372884,5.023466 l -0.00155,0.00207 -0.00207,0.00362 c -1.3640486,2.4116211 -0.393858,5.1574746 1.4805297,5.7815596 1.9006027,0.709674 4.2303663,0.677464 6.5039962,-1.3146488 0.0063,-0.00549 0.01285,-0.00637 0.01912,-0.011886 0.0022,-0.00198 0.0039,-0.0037 0.0062,-0.00568 0.0014,-0.00111 0.0022,-9.692e-4 0.0036,-0.00207 0.0093,-0.00756 -0.530043,0.5704038 -0.521373,0.5631798 0.04882,-0.040649 0.09466,-0.079733 0.122989,-0.1069697 0.02521,-0.024243 0.0337,-0.033509 0.04289,-0.043408 l 0.01757,-0.01757 0.113171,-0.1054199 -0.06615,-0.1679484 c 0,0 0.311724,-0.6093704 0.177726,-0.6179574 l -0.06046,-0.060461 c -0.05558,0.051934 -0.112085,0.1029602 -0.167949,0.1524455 -10e-4,9.186e-4 -0.0031,0.00116 -0.0041,0.00207 -0.08603,0.069302 -0.03762,0.040893 -0.144177,0.089917 C 10.350706,9.2133135 10.112917,9.322285 9.6056152,9.5859782 9.033926,9.7975333 8.1366619,9.9033378 7.2129964,9.8459106 6.28635,9.7882982 5.3319359,9.5703573 4.6384766,9.18962 4.0891667,8.8857638 3.8595128,8.5408307 3.7480916,8.1989827 3.6366704,7.8571347 3.6541718,7.5096466 3.6736776,7.2207479 3.7051697,6.7557399 4.1113701,5.5591294 5.6130941,4.9237305 6.5612316,4.5908997 7.6712578,4.4495626 8.5565837,4.7345947 l 0.00982,0.00362 0.011886,0.00207 c 0.706638,0.1594379 1.2169618,0.3635873 1.9120282,0.6092652 0.0065,0.00269 0.01675,0.011382 0.02325,0.013953 0.04484,0.017728 0.09579,0.031144 0.197404,0.056327 l 0.01189,0.00413 0.01137,0.00207 c 0.751243,0.1189865 1.240426,-0.18248 1.467093,-0.5234823 0.226668,-0.3410021 0.234095,-0.7053833 0.234095,-0.7053833 v -0.027388 l -0.04651,-0.2713012 -0.131258,-0.3240113 -0.06046,-0.1348755 -0.0155,-0.03514 c -0.0037,-0.030591 -0.0088,-0.065523 -0.01964,-0.1348755 l -0.525549,0.019637 c -0.0041,0.051082 -0.01333,0.054872 -0.02119,0.08785 C 11.282882,3.2744053 11.017685,3.1434491 10.75955,2.9336711 10.448029,2.6805084 10.084691,2.3679367 9.4883097,2.1621419 9.2153153,2.0561694 8.9189114,2.017803 8.6211792,2.0174479 Z"
     sodipodi:nodetypes="cccccccccccccccsccccccccscscsccccccccccscccccccccscc" />
  <path
     style="color:#000000;fill:#4a342b;stroke:none;fill-opacity:1"
     d="m 4.3164062,3.5371094 c 0,0 -0.094851,0.01668 -0.1347656,0.029297 -0.039915,0.012617 -0.094084,0.030098 -0.1601562,0.056641 C 3.8893391,3.6761324 3.7131231,3.7606772 3.53125,3.8867188 3.1678887,4.138535 2.7707842,4.5817129 2.7226563,5.2519531 c -5.1e-5,7.101e-4 5.02e-5,0.00124 0,0.00195 l -0.042969,0.3515625 0.3144531,-0.015625 c 0.3738612,-0.018941 0.8441767,0.069392 1.1601563,0.2910157 l 0.00195,0.00195 0.00195,0.00195 C 4.2871732,5.9718338 4.4334205,6.1032835 4.6230469,6.2070312 4.8126732,6.310779 5.0762818,6.3743841 5.34375,6.2792969 5.5169448,6.2185576 5.6805092,6.0934465 5.7324219,5.9140625 5.7843345,5.7346785 5.7360614,5.5802291 5.6777344,5.4316406 l -0.00195,-0.00195 C 5.6343559,5.3280784 5.5764763,5.1785094 5.5019531,5.03125 5.42743,4.8839906 5.3442217,4.7358915 5.1972656,4.6191406 4.9740001,4.4424595 4.7348476,4.4334388 4.5664062,4.3828125 4.4821856,4.3574994 4.4206018,4.3277299 4.3964844,4.3085937 4.372367,4.2894576 4.375727,4.2998206 4.3730469,4.265625 l -0.00195,-0.00781 V 4.251955 C 4.3623618,4.1818771 4.4116101,4.1113087 4.5253906,3.9628906 L 4.8515625,3.5371094 Z"
     id="path60821"
     sodipodi:nodetypes="cscssccccccscsccscsscccccc" />
  <path
     style="color:#000000;fill:#946857;stroke-width:0.52917;-inkscape-stroke:none"
     d="M 6.1644816,0.53008435 C 3.1193012,0.52735391 0.61023816,3.0350982 0.5301884,6.1984837 0.4487725,9.4120811 2.9045489,12.085269 6.0149842,12.169289 c 1.5153532,0.0409 3.0382192,-0.407951 4.0759768,-1.386449 0.110807,-0.09245 0.171098,-0.150066 0.171098,-0.150066 0,0 1.125353,-1.3135103 1.185747,-2.2884613 -0.287147,0.474389 -0.550547,0.9493704 -1.265328,1.3011399 -0.3278084,0.1518469 -0.7604717,0.2810398 -1.0632892,0.3831234 -0.019389,0.0049 -0.038856,0.0095 -0.058548,0.01421 -0.1434304,0.03424 -0.2937578,0.06299 -0.4513346,0.0847 -0.019098,0.0026 -0.038702,0.0049 -0.05798,0.0074 -0.1634273,0.02073 -0.3321732,0.03582 -0.5064723,0.0432 -0.017939,7.68e-4 -0.036536,5.29e-4 -0.054569,0.0011 -0.1719525,0.0059 -0.3478176,0.0054 -0.5263678,-0.0017 -0.01165,-4.76e-4 -0.023003,-5e-5 -0.034674,-5.82e-4 -0.1815759,-0.0081 -0.365708,-0.02452 -0.550242,-0.04604 -0.026334,-0.0031 -0.05266,-0.0052 -0.079012,-0.0085 -0.1796315,-0.02283 -0.3591909,-0.05298 -0.537736,-0.08868 -0.028845,-0.0058 -0.057635,-0.01152 -0.086402,-0.01762 -0.1747226,-0.03708 -0.3478782,-0.0806 -0.517841,-0.1301709 -0.054493,-0.0159 -0.1087828,-0.03227 -0.1625716,-0.04945 -0.04065,-0.01299 -0.081448,-0.02549 -0.121644,-0.03922 -0.057443,-0.01962 -0.113558,-0.04083 -0.1699613,-0.06196 -0.046003,-0.01723 -0.092329,-0.03405 -0.1375603,-0.0523 C 5.0138579,9.6618231 4.962936,9.6389531 4.9116595,9.6164531 4.8682022,9.5973683 4.8240532,9.5790642 4.7814877,9.5590232 4.6888138,9.5153839 4.597718,9.4697456 4.5097777,9.4214626 4.4397909,9.3827487 4.3731838,9.3422146 4.3096897,9.299818 4.1638746,9.2024547 4.0366116,9.0951419 3.9225876,8.9826335 3.3289615,8.3768434 3.3565225,7.6645467 3.3876938,7.2028742 3.4269677,6.6229615 3.9131596,5.3506202 5.5130591,4.6767646 6.5015716,4.3277336 7.6641377,4.0836279 8.6360222,4.3965278 c 0.731074,0.1649513 1.2567735,0.4048069 1.9519948,0.6502856 0,0 -0.0056,0.012099 0.186445,0.059685 1.352061,0.2141759 1.200292,-0.8996737 1.200292,-0.8996737 l -0.105978,-0.26066 v 0 c -0.02344,-0.1373585 0.07944,-0.2456876 0.07944,-0.2456876 0,0 -0.08334,-0.307145 -0.06929,-0.5101325 0.01424,-0.2028942 0.0027,-0.4629674 -0.0415,-0.8338889 C 11.793187,1.9855069 11.549723,1.8377675 11.47079,1.7801085 11.391678,1.7225535 11.023049,1.4446508 10.66987,1.3060366 10.316476,1.1674207 9.959306,1.0649803 9.5193646,1.1269807 c -0.048847,0.00691 -0.095084,0.014376 -0.1432445,0.0216 -0.00853,-0.00271 -0.015216,-0.00579 -0.024442,-0.00853 C 9.1839182,1.0902335 9.0652484,0.81875434 8.9281973,0.82203796 c -0.010488,2.515e-4 -0.021098,0.00115 -0.031832,0.00227 -0.010568,0.00111 -0.021534,0.00252 -0.0324,0.00455 h -5.82e-4 c -0.011078,0.00207 -0.02209,0.00485 -0.033537,0.00796 -0.012496,0.00339 -0.024537,0.00783 -0.035811,0.0130741 C 8.7138297,0.88717547 8.6646963,1.0275032 8.6343166,1.1195477 7.9306277,0.76386289 7.1438211,0.55484267 6.3094316,0.53235787 c -0.048599,-0.001315 -0.096614,-0.00223 -0.14495,-0.002274 z M 9.4727534,9.9217103 c -0.1033024,0.0385 -0.2154375,0.07108 -0.3308273,0.1011807 0.1153242,-0.03009 0.227594,-0.06271 0.3308273,-0.1011807 z"
     id="path51300"
     sodipodi:nodetypes="cccccccccccccccccccccscccccsccccccccsccccccccsccccccccccc" />
  <path
     d="M 8.6215061,2.2812399 C 8.0123954,2.2804991 7.3520615,2.4587473 6.8697854,2.6264714 5.9551986,2.9501106 5.3434549,3.1290304 4.6024012,3.6586206 4.4058986,3.8013099 3.6337117,4.3682842 3.1645213,5.1589171 1.867893,7.4513401 2.8268023,10.010171 4.5035608,10.563258 c 1.8434963,0.689429 4.0486487,0.676355 6.2681892,-1.2851748 -0.191045,0.1528945 0,0 -1.0652777,0.5551066 C 8.4509042,10.301117 6.0001137,10.238283 4.5108615,9.4206232 3.3127663,8.7578849 3.3716662,7.7820611 3.4108203,7.2021523 3.450094,6.6222434 3.9144608,5.3496933 5.5143501,4.6758419 6.5028565,4.3268131 7.6652089,4.1700549 8.6370872,4.4829527 c 0.7310694,0.1649503 1.256561,0.3761055 1.9517778,0.6215827 0,0 -0.0057,0.011917 0.186345,0.059508 1.352052,0.2141463 1.395768,-0.9757177 1.395768,-0.9757177 l -0.03855,-0.2168023 -0.117702,-0.2941616 -0.05609,-0.1260316 -0.03383,-0.0683 c 0,0 -0.0098,-0.085995 -0.02342,-0.1733709 -0.0259,0.3266007 -0.155949,0.420968 -0.155949,0.420968 C 10.694586,3.5313888 10.506761,2.7913112 9.3987639,2.4110017 9.164587,2.3189047 8.8983757,2.2815701 8.6215072,2.2812399 Z M 10.77175,9.2780832 c 0.122399,-0.097957 0.181698,-0.1648897 0.181716,-0.1648444 -0.06078,0.056792 -0.121301,0.111453 -0.181716,0.1648444 z"
     style="fill:#d3c9c6;stroke-width:0.291036"
     id="path51677"
     sodipodi:nodetypes="sccccccccccccccccccccssccc" />
  <circle
     style="fill:#424242;fill-opacity:1;stroke:none;stroke-width:0.793751;stroke-linejoin:round;stroke-dasharray:none;stroke-opacity:1"
     id="path47129"
     cx="10.186459"
     cy="3.0427082"
     r="0.39687499" />
  <ellipse
     style="fill:#424242;fill-opacity:1;stroke:none;stroke-width:0.458273;stroke-linejoin:round;stroke-dasharray:none;stroke-opacity:1"
     id="path47443"
     cx="11.840104"
     cy="3.175"
     rx="0.1984375"
     ry="0.26458332" />
  <path
     d="m 11.745269,3.704167 c 0,0 -0.0503,0.1585949 -0.286466,0.172512 -0.236077,0.0141 -0.195246,0.3424084 0.0095,0.5262219 0.204804,0.1839074 0.364973,0.2343438 0.501477,0.093214 0.13632,-0.1408488 0.471132,-0.3745384 -0.224476,-0.7919482 z"
     style="fill:#424242;stroke-width:0.291036;fill-opacity:1"
     id="path59680" />
  <path
     style="color:#000000;fill:#946857;stroke-width:0.529167;-inkscape-stroke:none;stroke:none"
     d="m 2.9873704,5.2731464 -0.00631,0.051932 C 3.4039073,5.3036552 3.9221515,5.3952809 4.3065818,5.6649144 4.6046272,5.866126 4.873114,6.1664098 5.2552509,6.0305569 5.5165071,5.9389346 5.5310232,5.7837853 5.4308784,5.5286659 5.3463094,5.3212331 5.2065157,4.9630341 5.0336512,4.8257 4.7846265,4.6286343 4.1408518,4.6974495 4.1085531,4.2853486 4.0842802,4.0905531 4.2069778,3.9440374 4.3158189,3.8020625 c -2.008e-4,0 -1.2466515,0.3133707 -1.3284496,1.4710839 z"
     id="path60819" />
</svg>
