<?xml version="1.0" encoding="UTF-8" standalone="no"?>
<svg
   width="48"
   height="48"
   version="1.1"
   id="svg16"
   sodipodi:docname="microsoft-edge.svg"
   inkscape:version="1.2 (dc2aedaf03, 2022-05-15)"
   xmlns:inkscape="http://www.inkscape.org/namespaces/inkscape"
   xmlns:sodipodi="http://sodipodi.sourceforge.net/DTD/sodipodi-0.dtd"
   xmlns="http://www.w3.org/2000/svg"
   xmlns:svg="http://www.w3.org/2000/svg">
  <defs
     id="defs20" />
  <sodipodi:namedview
     id="namedview18"
     pagecolor="#ffffff"
     bordercolor="#000000"
     borderopacity="0.25"
     inkscape:showpageshadow="2"
     inkscape:pageopacity="0.0"
     inkscape:pagecheckerboard="0"
     inkscape:deskcolor="#d1d1d1"
     showgrid="false"
     inkscape:zoom="16.000001"
     inkscape:cx="8.5312496"
     inkscape:cy="30.624999"
     inkscape:window-width="1920"
     inkscape:window-height="1011"
     inkscape:window-x="0"
     inkscape:window-y="0"
     inkscape:window-maximized="1"
     inkscape:current-layer="svg16"
     showguides="false" />
  <path
     id="path12324"
     style="color:#000000;fill:#0b6e5f;fill-opacity:1;stroke:none;stroke-width:1.46811"
     d="M 23.998568,2.0000001 C 12.513547,1.998863 3.1480322,10.871906 2.1790364,22.16237 l -0.032943,-0.0057 c -7.158e-4,0.0043 -7.235e-4,0.0087 -0.00143,0.01289 -8.653e-4,0.0057 -5.747e-4,0.01147 -0.00143,0.01719 C 2.0591751,22.692541 2.0068457,23.206973 2,23.729297 v 1.466462 h 0.021485 c -3.67e-5,0.0096 -0.00287,0.01905 -0.00287,0.02864 -8e-6,9.53e-4 8.8e-6,0.0019 0,0.0029 v 0.0043 c -0.028651,3.324621 0.6813496,7.881207 2.0796875,10.896789 v 0.0015 C 8.5999274,45.752282 19.270521,49.817794 29.406901,47.242373 l 0.0043,0.02005 c 0.0077,-0.0014 0.0138,-0.0043 0.02149,-0.0057 0.06362,-0.01186 0.117838,-0.02469 0.177605,-0.03724 0.08224,-0.01628 0.157943,-0.02951 0.252083,-0.05156 0.0043,-9.53e-4 0.0086,-0.0019 0.01289,-0.0029 0.01462,-0.0034 0.02556,-0.008 0.04011,-0.01146 0.348298,-0.07717 0.699659,-0.08856 1.048438,-0.198728 v -0.0015 c 0.0038,-0.0012 0.0077,-0.0016 0.01146,-0.0029 l -0.0043,-0.01145 0.20625,-0.07018 h 0.0029 c 4.73399,-1.639602 8.770269,-5.378661 11.444009,-9.622203 0.149795,-0.236443 0.210156,-0.966522 0.20625,-1.224444 h 0.0029 v -0.903379 h -0.0029 c 0.02038,-0.394692 -0.120728,-0.785165 -0.369531,-1.049869 -0.391766,-0.416812 -1.109317,-0.590037 -1.695833,-0.263542 l -0.08737,0.0487 -0.07018,0.07018 c -1.80815,1.782512 -4.774377,2.274902 -7.20013,2.28737 -6.95588,0 -13.049495,-5.014158 -13.877474,-10.914063 0.261089,-1.285572 1.065706,-2.409783 2.240104,-3.053646 0.533079,-0.251983 1.252756,-0.600792 2.224349,-0.582942 h 0.0043 0.0043 c 1.453298,0.01065 2.817421,0.702234 3.686719,1.86914 v 0.0015 c 0.241523,0.323078 0.426748,0.679504 0.570052,1.052734 -0.162794,0.531512 -0.424138,1.041001 -0.802084,1.535417 0.102773,-0.136488 -0.698958,0.481702 -0.698958,1.390755 v 2.732522 0.02149 h 0.0015 c 0.0092,0.744387 0.484181,1.354152 1.097135,1.783203 v 0.0015 h 0.0015 c 1.384203,0.96437 3.198532,1.314218 4.683594,1.473828 1.485059,0.159605 2.632466,0.103125 2.638281,0.103125 h 0.0015 c 1.90157,0 3.767833,-0.521209 5.402604,-1.493881 3.249623,-1.902315 5.405012,-4.604096 5.414062,-8.484895 5.32e-4,-0.04718 -0.0044,-0.08928 -0.0043,-0.136068 H 46 v -2.834273 h -0.0043 c -0.01709,-3.780498 -1.4348,-6.369328 -1.959375,-7.407812 l -0.0015,-0.0015 v -0.0015 C 40.37156,6.0876083 32.496364,2.0000001 23.998568,2.0000001 Z"
     sodipodi:nodetypes="cccccccccccccccccccccccccccccccscccccccccccccsccccccssscccccccccc" />
  <path
     id="path13647"
     style="color:#000000;fill:#05436d;fill-opacity:1;stroke:none;stroke-width:1.46667;stroke-linecap:round;stroke-linejoin:bevel"
     d="m 16.042969,9.9960938 c -3.878584,0 -7.381071,1.8345202 -9.9082034,4.4433592 -1.082757,1.116642 -2.3945312,3.800781 -2.3945312,3.800781 L 2,25.195312 h 0.021484 c -3.7e-5,0.0096 -0.00195,0.01971 -0.00195,0.0293 v 0.002 0.0059 c -0.014325,1.662309 0.1551958,3.63083 0.5039063,5.5625 1.145e-4,6.34e-4 -1.145e-4,0.0013 0,0.002 0.3487131,1.931015 0.8752788,3.824733 1.5742187,5.332031 v 0.002 C 8.5992767,45.753244 19.26988,49.817606 29.40625,47.242188 l 0.0059,0.01953 c 0.0077,-0.0014 0.01379,-0.0045 0.02148,-0.0059 0.06362,-0.01186 0.116014,-0.02456 0.175781,-0.03711 0.08224,-0.01628 0.159766,-0.02873 0.253906,-0.05078 0.0043,-9.53e-4 0.0074,-0.0029 0.01172,-0.0039 0.01462,-0.0034 0.02647,-0.0063 0.04102,-0.0098 0.348297,-0.07717 0.698096,-0.08905 1.046875,-0.199219 v -0.002 c 0.0038,-0.0012 0.008,-6.53e-4 0.01172,-0.002 l -0.0039,-0.01172 0.207031,-0.07031 h 0.002 c 2.53515,-0.878042 4.867526,-2.361955 6.90039,-4.199219 -1.993748,0.516941 -4.952685,0.932699 -7.332031,0.765625 l -0.224609,0.03711 c -3.275014,1.032455 -7.564121,0.558381 -10.458985,-1.251953 l -0.01563,-0.0078 C 18.649583,41.344557 17.435962,40.20635 16.480469,38.865234 l -0.0059,-0.0059 c -1.193473,-1.634756 2.821961,-7.948173 3.789063,-10.966797 -0.123992,-0.29617 -0.233075,-0.596217 -0.330078,-0.90039 -0.04597,-0.140841 -0.09277,-0.281492 -0.132813,-0.423829 -0.03401,-0.124433 -0.06442,-0.249496 -0.09375,-0.375 -0.07131,-0.296231 -0.135346,-0.594439 -0.177734,-0.896484 0.261089,-1.285571 1.065837,-2.408872 2.240234,-3.052734 0.399809,-0.188987 0.905682,-0.432773 1.542969,-0.535157 0.212429,-0.03413 0.438743,-0.05329 0.681641,-0.04883 h 0.0039 0.0039 c 0.166121,0.0012 0.330982,0.01452 0.494141,0.0332 0.04456,0.0051 0.08853,0.01315 0.132812,0.01953 0.116181,0.01672 0.231741,0.03717 0.345703,0.0625 0.04898,0.0109 0.09797,0.02075 0.146485,0.0332 0.15504,0.03978 0.307525,0.08527 0.457031,0.140625 0.15076,0.05582 0.297444,0.122297 0.441406,0.193359 0.03979,0.01965 0.07797,0.04171 0.117188,0.0625 0.100812,0.05339 0.200166,0.109168 0.296875,0.169922 0.04865,0.03058 0.097,0.06135 0.144531,0.09375 0.12788,0.08715 0.253982,0.177367 0.373047,0.277344 0.136262,0.11447 0.267422,0.238322 0.390625,0.36914 0.123333,0.130608 0.238994,0.2682 0.347656,0.414063 v 0.002 c 0.241523,0.323078 0.427009,0.679505 0.570313,1.052734 -0.0067,0.0221 -0.01633,0.0444 -0.02344,0.06641 0.194971,0.502354 0.30283,1.0365 0.310547,1.582031 l 1.466797,-0.0098 c 0,-1.36e-4 -0.01481,0.149983 -0.01758,0.16211 9.53e-4,-0.0034 8.53e-4,-0.0037 0.002,-0.0078 0.0078,-0.02813 0.01927,-0.0693 0.0332,-0.123047 0.02785,-0.107486 0.06628,-0.263139 0.107422,-0.457031 0.08228,-0.387786 0.178318,-0.934093 0.236328,-1.589844 0.0524,-0.592342 0.07037,-1.279002 0.02148,-2.013672 0.0098,-0.08967 0.02291,-0.163525 0.03125,-0.257812 0.116021,-1.311502 0.08488,-3.063746 -0.539062,-4.849609 -0.623958,-1.785892 -1.864631,-3.599149 -4.070313,-4.923829 -2.205681,-1.324679 -5.343926,-2.1660153 -9.77539,-2.1660152 z" />
  <path
     id="path15200"
     style="color:#000000;fill:#07294d;fill-opacity:1;stroke:none;stroke-width:1.46667"
     d="m 21.396484,18.625 c -3.806658,0.160072 -6.313353,2.297305 -7.746093,4.886719 -1.432742,2.589416 -0.699219,3.974877 -0.699219,6.248047 0,0.01471 0.0019,0.02829 0.002,0.04297 -0.107243,0.827677 -0.160156,1.622979 -0.160156,2.337891 0,6.361488 12.945763,11.804983 16.742187,12.341797 0.907604,0.128335 3.685684,-0.112559 6.919922,-0.472656 2.452372,-1.841048 4.560206,-4.208862 6.169922,-6.763672 0.149795,-0.236443 0.208984,-0.96633 0.205078,-1.224252 h 0.0039 v -0.902701 h -0.0039 c 0.02038,-0.394692 -0.120338,-0.786078 -0.36914,-1.050782 -0.391766,-0.416811 -1.108798,-0.590166 -1.695313,-0.263671 l -0.08789,0.04883 -0.07031,0.07031 c -0.452037,0.445628 -0.976618,0.8104 -1.546875,1.107422 -0.285128,0.148511 -0.581988,0.280378 -0.886719,0.396484 -1.523654,0.580534 -3.249531,0.775411 -4.765625,0.783204 -0.434742,0 -0.866038,-0.01848 -1.292969,-0.05664 -0.42693,-0.03816 -0.850609,-0.09561 -1.267578,-0.169922 -0.416969,-0.07431 -0.827564,-0.164989 -1.232422,-0.273437 -0.404857,-0.108449 -0.802763,-0.234435 -1.193359,-0.375 -2.73417,-0.98396 -5.093102,-2.729954 -6.707031,-4.892579 -0.230562,-0.308946 -0.445432,-0.626234 -0.644532,-0.951171 -0.199099,-0.324938 -0.383341,-0.657182 -0.548828,-0.996094 -0.165486,-0.338913 -0.313635,-0.684284 -0.443359,-1.035156 -0.129724,-0.350873 -0.24022,-0.707544 -0.332031,-1.06836 -0.09181,-0.360815 -0.165049,-0.72696 -0.216797,-1.095703 0.08447,-1.741527 0.653662,-2.845122 1.898437,-5.939453 z"
     sodipodi:nodetypes="csscssccccccscccsscsssssssssccc" />
  <path
     d="m 40.907554,34.254257 c -2.012412,1.979973 -5.134123,2.449957 -7.618587,2.462161 -7.762953,0 -14.525187,-5.969122 -14.525187,-12.82065 0.02024,-1.87125 1.05145,-3.585106 2.695379,-4.479659 -7.021437,0.295254 -8.826013,7.610989 -8.826013,11.897092 0,12.118528 11.170319,13.347114 13.576965,13.347114 1.297653,0 3.254798,-0.377271 4.429412,-0.747978 l 0.214909,-0.07216 c 4.52004,-1.5624 8.373403,-4.616903 10.925882,-8.660778 0.364545,-0.574279 -0.278111,-1.255497 -0.87276,-0.925128 z"
     style="fill:#0e539b;stroke-width:0.750019"
     id="path8625"
     sodipodi:nodetypes="scccsscccss" />
  <path
     id="path18959"
     style="opacity:0.25;fill:#000000;stroke-width:0.759543"
     d="m 22.000403,18.624609 c -7.110592,0.299003 -9.511731,9.441303 -9.511731,13.781828 0,6.283196 2.966304,9.67079 6.1875,11.485547 -1.06974,-0.806968 -2.012758,-1.772362 -2.792969,-2.867448 -4.444965,-6.089071 -2.874347,-14.271938 3.091724,-18.5358 1.738761,-2.677481 2.182188,-3.405248 3.025476,-3.864127 z"
     sodipodi:nodetypes="cscccc" />
  <path
     d="m 19.715391,42.600108 c -1.463243,-0.908065 -2.731334,-2.097925 -3.730548,-3.500398 -4.848482,-6.641841 -1.903136,-16.049943 5.474316,-19.683594 0.511844,-0.241124 1.386242,-0.677444 2.549374,-0.656118 1.661192,0.01215 3.220881,0.80124 4.214499,2.132388 0.662482,0.884422 1.027743,1.955937 1.043374,3.060798 0,-0.03444 4.012719,-13.056783 -13.124179,-13.056783 -7.2018954,0 -13.1241812,6.833487 -13.1241812,12.828783 -0.028404,3.17143 0.650259,6.309347 1.9866722,9.185675 4.5208951,9.644657 15.54834,14.37641 25.654492,11.008049 -3.459702,1.090676 -7.853477,0.611107 -10.929053,-1.312237 z"
     style="fill:#0b87da;stroke-width:0.750019"
     id="path8653"
     sodipodi:nodetypes="ccccccsccccc" />
  <path
     id="path12376"
     style="opacity:0.25;fill:#000000;stroke-width:0.759543"
     d="M 23.998568,4.0000001 C 12.369857,3.9988268 2.8968621,13.337041 2.7333333,24.963021 2.8130781,18.893263 8.8465225,13.26263 16.023568,13.26263 c 0.58147,0 3.897978,0.05664 6.978125,1.672916 2.714651,1.425245 4.136235,3.875663 5.124739,5.581642 0.643083,1.213258 1.009287,2.380788 1.077084,3.487629 l 7.184881,2.130068 C 36.513454,25.551 40.707972,22.363486 40.709326,21.70223 40.752516,17.979643 39.380757,15.503914 38.825863,14.407568 35.305454,7.5221981 32.262139,4.0000001 23.998568,4.0000001 Z"
     sodipodi:nodetypes="ccsccccccc" />
  <path
     d="m 27.990079,26.487938 c -0.132883,0.17223 -0.541373,0.410073 -0.541373,0.928408 0,0.428117 0.278891,0.839834 0.774327,1.185938 2.359073,1.640298 6.80653,1.423779 6.818014,1.423779 1.748018,-0.0042 3.462908,-0.477185 4.965859,-1.369652 3.085113,-1.801142 4.984791,-4.172311 4.99211,-7.744342 0.04265,-3.675911 -1.312414,-6.119955 -1.860351,-7.202555 C 39.662396,6.9104739 32.158649,3.0000006 23.998688,3.0000006 12.51578,2.9988654 3.1614785,12.220367 3,23.700578 3.0787448,17.706924 9.0371235,12.14611 16.124182,12.14611 c 0.574179,0 3.848665,0.05577 6.890193,1.651782 2.680614,1.407374 4.084902,3.827018 5.061012,5.511606 1.418737,2.676634 1.479795,5.135055 -0.08531,7.17844 z"
     style="fill:#17dcbe;stroke-width:0.750019"
     id="path8597"
     sodipodi:nodetypes="cscccccccsccc" />
</svg>
