<?xml version="1.0" encoding="UTF-8" standalone="no"?>
<!-- Created with Inkscape (http://www.inkscape.org/) -->

<svg
   width="48"
   height="48"
   viewBox="0 0 12.7 12.7"
   version="1.1"
   id="svg5"
   inkscape:version="1.2 (dc2aedaf03, 2022-05-15)"
   sodipodi:docname="mintinstall.svg"
   xmlns:inkscape="http://www.inkscape.org/namespaces/inkscape"
   xmlns:sodipodi="http://sodipodi.sourceforge.net/DTD/sodipodi-0.dtd"
   xmlns="http://www.w3.org/2000/svg"
   xmlns:svg="http://www.w3.org/2000/svg">
  <sodipodi:namedview
     id="namedview7"
     pagecolor="#ffffff"
     bordercolor="#666666"
     borderopacity="1.0"
     inkscape:pageshadow="2"
     inkscape:pageopacity="0.0"
     inkscape:pagecheckerboard="0"
     inkscape:document-units="px"
     showgrid="false"
     units="px"
     height="48px"
     inkscape:zoom="11.814576"
     inkscape:cx="22.260638"
     inkscape:cy="23.360974"
     inkscape:window-width="1846"
     inkscape:window-height="1011"
     inkscape:window-x="0"
     inkscape:window-y="0"
     inkscape:window-maximized="1"
     inkscape:current-layer="svg5"
     inkscape:showpageshadow="2"
     inkscape:deskcolor="#d1d1d1" />
  <defs
     id="defs2" />
  <rect
     style="opacity:1;fill:#396247;fill-opacity:1;stroke-width:0.264583"
     id="rect1162"
     width="10.583333"
     height="10.31875"
     x="1.0583333"
     y="1.0583333"
     ry="0.92604166" />
  <rect
     style="fill:#73c48f;fill-opacity:1;stroke-width:0.264583"
     id="rect1149"
     width="10.054167"
     height="9.260417"
     x="1.3229166"
     y="1.3229166"
     ry="0.79374999" />
  <path
     d="m 8.0045745,2.6461129 c -0.1156652,-0.00212 -0.234479,0.00757 -0.3503665,0.037724 V 2.684366 C 6.9139038,2.876983 6.4704251,3.6290902 6.663571,4.3643673 6.7040522,4.5178256 6.7783869,4.6575468 6.8625244,4.7824301 6.8196619,4.7893093 6.2170866,5.8123419 6.2170866,5.8123419 l 1.3528886,0.00826 0.3183282,-0.4423516 C 8.0391159,5.3901563 8.198358,5.3864303 8.3528747,5.3462123 9.0931788,5.1535903 9.5371735,4.4012184 9.3440276,3.666206 9.303811,3.512483 9.2292117,3.3727619 9.1450742,3.2481431 L 8.6050543,4.1633316 C 8.4952179,4.350945 8.2539099,4.4137041 8.0665849,4.3033755 L 7.7198379,4.1018371 C 7.5314149,3.9944189 7.4680128,3.7531639 7.579278,3.5669872 L 8.1187793,2.6517961 c -0.037703,-0.00296 -0.07565,-0.00497 -0.1142048,-0.00569 z m -3.521231,0.2749206 c -0.00415,-5.82e-5 -0.00791,2.381e-4 -0.01188,0.00106 -0.091281,0.018521 -0.1757971,0.05189 -0.2599346,0.086815 -0.00661,0.2479146 0.034298,0.5721297 -0.06201,0.6573255 -0.094721,0.083607 -0.4115516,0.013254 -0.6562912,-0.012411 -0.052348,0.094266 -0.093951,0.1941089 -0.1240235,0.2976562 0.1894417,0.1568979 0.4520195,0.3329437 0.4583695,0.4588854 0.00635,0.1275292 -0.2483908,0.3193521 -0.4211638,0.4960937 0.040746,0.1023938 0.098803,0.1958261 0.1607159,0.2852553 0.2410354,-0.050271 0.5420095,-0.1482328 0.6444033,-0.074414 0.1042458,0.075142 0.1046903,0.3991213 0.1359111,0.6449192 0.098954,0.029898 0.2029143,0.041407 0.3095414,0.049609 C 4.7683712,5.5916953 4.8820203,5.2881203 5.0037286,5.2537245 5.1291411,5.2185349 5.3855488,5.4357234 5.5980092,5.5637817 5.6839565,5.502237 5.7629664,5.431543 5.8336524,5.3529432 5.7331108,5.1259307 5.5477384,4.8400167 5.5980092,4.720425 5.6485446,4.6005688 5.9845231,4.5338276 6.2170919,4.4475734 c 0.00185,-0.029104 0.012912,-0.057184 0.012912,-0.086818 0,-0.075935 -0.013679,-0.1504817 -0.024792,-0.2232422 C 5.9649704,4.0734844 5.6237664,4.0417688 5.5613248,3.926675 5.4991477,3.812375 5.6569161,3.5056224 5.734439,3.2693495 5.6548603,3.1980178 5.5676959,3.1356317 5.474507,3.0833157 5.2760695,3.2322761 5.0449639,3.4778755 4.9174348,3.455386 4.7917577,3.433161 4.6546929,3.1300464 4.5210783,2.9220839 c -0.011906,0.00185 -0.025294,-7.938e-4 -0.037724,-0.00106 z M 4.7189867,3.666206 c 0.8929687,0 0.8929687,1.3394531 0,1.3394531 -0.3693583,0 -0.6686921,-0.2998391 -0.6686921,-0.6697266 0,-0.3698875 0.2993338,-0.6697265 0.6686921,-0.6697265 z m -0.4857591,2.4096715 0.0031,2.5135416 c 0,0.2264833 0.1825757,0.396875 0.396359,0.396875 h 3.1718991 c 0.2074333,0 0.3948086,-0.1768078 0.3948086,-0.3720703 l -0.0031,-2.5383463 z m 1.5874999,0.2645833 h 0.79375 v 0.79375 H 6.8790609 L 6.2176025,8.1925441 5.5561442,7.1342108 H 5.8207275 Z M 5.5561442,8.4571274 h 1.3229167 c 0.1763897,0 0.1763897,0.2645834 0,0.2645834 H 5.5561442 c -0.1763871,0 -0.1763871,-0.2645834 0,-0.2645834 z"
     style="text-indent:0;text-decoration-line:none;text-transform:none;fill:#ffffff;fill-opacity:1;stroke-width:0.264583"
     id="path944" />
</svg>
