<?xml version="1.0" encoding="UTF-8" standalone="no"?>
<!-- Created with Inkscape (http://www.inkscape.org/) -->

<svg
   width="48"
   height="48"
   viewBox="0 0 12.7 12.7"
   version="1.1"
   id="svg5"
   inkscape:version="1.1.2 (0a00cf5339, 2022-02-04, custom)"
   sodipodi:docname="multimedia-audio-player.svg"
   xmlns:inkscape="http://www.inkscape.org/namespaces/inkscape"
   xmlns:sodipodi="http://sodipodi.sourceforge.net/DTD/sodipodi-0.dtd"
   xmlns="http://www.w3.org/2000/svg"
   xmlns:svg="http://www.w3.org/2000/svg">
  <sodipodi:namedview
     id="namedview7"
     pagecolor="#ffffff"
     bordercolor="#666666"
     borderopacity="1.0"
     inkscape:pageshadow="2"
     inkscape:pageopacity="0.0"
     inkscape:pagecheckerboard="0"
     inkscape:document-units="px"
     showgrid="false"
     units="px"
     height="48px"
     inkscape:zoom="16.708333"
     inkscape:cx="23.970075"
     inkscape:cy="24"
     inkscape:window-width="1920"
     inkscape:window-height="1017"
     inkscape:window-x="0"
     inkscape:window-y="0"
     inkscape:window-maximized="1"
     inkscape:current-layer="svg5"
     showguides="true" />
  <defs
     id="defs2" />
  <path
     id="rect1040"
     style="opacity:1;fill:#565656;fill-opacity:1;stroke-width:1.04446"
     d="M 23.957031 0 C 19.808721 -7.7254604e-16 15.923747 1.0906492 12.572266 3 L 6.5 3 C 4.561 3 3 4.561 3 6.5 L 3 13.541016 C 1.7143813 16.411294 1 19.597831 1 22.957031 L 1 25.042969 C 1 28.402169 1.7143813 31.588706 3 34.458984 L 3 42.5 C 3 44.439 4.561 46 6.5 46 L 14.541016 46 C 17.411294 47.285619 20.597831 48 23.957031 48 L 24.042969 48 C 27.402169 48 30.588706 47.285619 33.458984 46 L 41.5 46 C 43.439 46 45 44.439 45 42.5 L 45 34.458984 C 46.285619 31.588706 47 28.402169 47 25.042969 L 47 22.957031 C 47 19.597831 46.285619 16.411294 45 13.541016 L 45 6.5 C 45 4.561 43.439 3 41.5 3 L 35.427734 3 C 32.076253 1.0906492 28.191279 0 24.042969 0 L 23.957031 0 z "
     transform="scale(0.26458333)" />
  <path
     id="path1188"
     style="fill:#acacac;fill-opacity:1;stroke-width:1.04762"
     d="M 24 1 A 22 22 0 0 0 12.916016 4 L 7 4 C 5.338 4 4 5.338 4 7 L 4 13.863281 A 22 22 0 0 0 2 23 A 22 22 0 0 0 4 32.136719 L 4 40 C 4 41.662 5.338 43 7 43 L 14.863281 43 A 22 22 0 0 0 24 45 A 22 22 0 0 0 33.136719 43 L 41 43 C 42.662 43 44 41.662 44 40 L 44 32.136719 A 22 22 0 0 0 46 23 A 22 22 0 0 0 44 13.837891 L 44 7 C 44 5.338 42.662 4 41 4 L 35.087891 4 A 22 22 0 0 0 24 1 z "
     transform="scale(0.26458333)" />
  <path
     d="M 1.8520834,1.5875 C 1.7059592,1.5875 1.5875,1.7059592 1.5875,1.8520833 c 0,0.1461241 0.1184592,0.2645833 0.2645834,0.2645833 0.1461241,0 0.2645833,-0.1184592 0.2645833,-0.2645833 C 2.1166667,1.7059592 1.9982075,1.5875 1.8520834,1.5875 Z m 8.9958326,0 c -0.146124,0 -0.264583,0.1184592 -0.264583,0.2645833 0,0.1461241 0.118459,0.2645833 0.264583,0.2645833 0.146125,0 0.264584,-0.1184592 0.264584,-0.2645833 C 11.1125,1.7059592 10.994041,1.5875 10.847916,1.5875 Z m -8.9958326,8.73125 c -0.1461242,0 -0.2645834,0.118459 -0.2645834,0.264583 0,0.146124 0.1184592,0.264583 0.2645834,0.264583 0.1461241,0 0.2645833,-0.118459 0.2645833,-0.264583 0,-0.146124 -0.1184592,-0.264583 -0.2645833,-0.264583 z m 8.9958326,0 c -0.146124,0 -0.264583,0.118459 -0.264583,0.264583 0,0.146124 0.118459,0.264583 0.264583,0.264583 0.146125,0 0.264584,-0.118459 0.264584,-0.264583 0,-0.146124 -0.118459,-0.264583 -0.264584,-0.264583 z"
     style="fill:#565656;fill-opacity:1;stroke-width:0.264583"
     id="path1704" />
  <rect
     style="fill:#333333;fill-opacity:1;stroke-width:0.311982"
     id="rect5419"
     width="10.583333"
     height="10.318749"
     x="1.0583333"
     y="1.0583333"
     ry="5.1593747" />
  <rect
     style="fill:#faa41a;fill-opacity:1;stroke-width:0.264583"
     id="rect5046"
     width="8.9958334"
     height="8.7312498"
     x="1.8519522"
     y="1.8520062"
     ry="4.3656249" />
  <path
     id="rect975"
     style="fill:#845914;stroke-width:0.381592"
     d="m 6.3500001,3.96875 c 1.0260541,0 1.8520834,0.8260291 1.8520834,1.8520832 v 0.7937501 c 0,1.0260542 -0.8260293,1.8520834 -1.8520834,1.8520834 -1.0260541,0 -1.8520832,-0.8260292 -1.8520832,-1.8520834 V 5.8208332 c 0,-1.0260541 0.8260291,-1.8520832 1.8520832,-1.8520832 z"
     sodipodi:nodetypes="sssssss" />
  <path
     id="rect1094"
     style="fill:#333333;stroke-width:0.302727"
     d="m 6.3500002,4.7625 c 0.879475,0 1.5875,0.708025 1.5875,1.5875 v 0.2645834 c 0,0.8794749 -0.708025,1.5874999 -1.5875,1.5874999 -0.879475,0 -1.5875,-0.708025 -1.5875,-1.5874999 V 6.35 c 0,-0.879475 0.708025,-1.5875 1.5875,-1.5875 z" />
</svg>
