<?xml version="1.0" encoding="UTF-8" standalone="no"?>
<!-- Created with Inkscape (http://www.inkscape.org/) -->

<svg
   width="48"
   height="48"
   viewBox="0 0 12.7 12.7"
   version="1.1"
   id="svg5"
   inkscape:version="1.1.2 (0a00cf5339, 2022-02-04, custom)"
   sodipodi:docname="multimedia-photo-manager.svg"
   xmlns:inkscape="http://www.inkscape.org/namespaces/inkscape"
   xmlns:sodipodi="http://sodipodi.sourceforge.net/DTD/sodipodi-0.dtd"
   xmlns="http://www.w3.org/2000/svg"
   xmlns:svg="http://www.w3.org/2000/svg">
  <sodipodi:namedview
     id="namedview7"
     pagecolor="#ffffff"
     bordercolor="#666666"
     borderopacity="1.0"
     inkscape:pageshadow="2"
     inkscape:pageopacity="0.0"
     inkscape:pagecheckerboard="0"
     inkscape:document-units="px"
     showgrid="false"
     units="px"
     height="48px"
     inkscape:zoom="23.629152"
     inkscape:cx="28.206683"
     inkscape:cy="33.179354"
     inkscape:window-width="1920"
     inkscape:window-height="1002"
     inkscape:window-x="0"
     inkscape:window-y="0"
     inkscape:window-maximized="1"
     inkscape:current-layer="svg5"
     showguides="true" />
  <defs
     id="defs2" />
  <rect
     style="opacity:1;fill:#245c63;fill-opacity:1;stroke-width:0.264583"
     id="rect1162"
     width="11.1125"
     height="8.4666662"
     x="0.79374999"
     y="2.9104166"
     ry="0.79374999" />
  <rect
     style="opacity:1;fill:#48b9c7;fill-opacity:1;stroke-width:0.264583"
     id="rect1237"
     width="10.583333"
     height="7.4083333"
     x="1.0583333"
     y="3.175"
     ry="0.66145831" />
  <rect
     style="opacity:1;fill:#f6f6f6;fill-opacity:1;stroke-width:0.383418"
     id="rect1437"
     width="8.7312498"
     height="5.8208332"
     x="1.8520833"
     y="3.96875"
     ry="0.52916664" />
  <path
     d="M 3.175,4.2333334 V 7.6729166 L 4.365625,6.35 5.55625,7.6729166 7.540625,5.55625 9.525,7.6729166 V 4.2333334 Z"
     style="opacity:0.5;fill:#1c8d9b;fill-opacity:1;stroke-width:0.264583"
     id="path972" />
  <path
     d="M 6.35,6.0827708 9.525,9.5223541 H 3.175 Z"
     id="path1092"
     style="fill:#1c8d9b;fill-opacity:1;stroke-width:0.264583" />
  <rect
     style="opacity:1;fill:#671d00;fill-opacity:1;stroke-width:0.529167;stroke-linecap:round;stroke-linejoin:round"
     id="rect1064"
     width="5.2916665"
     height="5.2916665"
     x="7.1437502"
     y="7.1437502"
     ry="0.92604166" />
  <rect
     style="opacity:1;fill:#cf3d00;fill-opacity:1;stroke-width:0.529167;stroke-linecap:round;stroke-linejoin:round"
     id="rect1330"
     width="4.7624998"
     height="4.2333331"
     x="7.4083333"
     y="7.4083333"
     ry="0.79374999" />
  <path
     id="path1000"
     style="fill:#fefefe;stroke-width:0.999999"
     d="M 32 30 L 32 31 L 31 31 C 30.446 31 30 31.446 30 32 L 30 41 C 30 41.553999 30.446 42 31 42 L 43 42 C 43.553999 42 44 41.553999 44 41 L 44 32 C 44 31.446 43.553999 31 43 31 L 35 31 L 35 30 L 32 30 z M 33 33 A 0.99999994 0.99999994 0 0 1 34 34 A 0.99999994 0.99999994 0 0 1 33 35 A 0.99999994 0.99999994 0 0 1 32 34 A 0.99999994 0.99999994 0 0 1 33 33 z M 38 34 A 3 3 0 0 1 41 37 A 3 3 0 0 1 38 40 A 3 3 0 0 1 35 37 A 3 3 0 0 1 38 34 z "
     transform="scale(0.26458333)" />
</svg>
