<?xml version="1.0" encoding="UTF-8" standalone="no"?>
<!-- Created with Inkscape (http://www.inkscape.org/) -->

<svg
   width="48"
   height="48"
   viewBox="0 0 12.7 12.7"
   version="1.1"
   id="svg5"
   inkscape:version="1.2 (dc2aedaf03, 2022-05-15)"
   sodipodi:docname="office-address-book.svg"
   xmlns:inkscape="http://www.inkscape.org/namespaces/inkscape"
   xmlns:sodipodi="http://sodipodi.sourceforge.net/DTD/sodipodi-0.dtd"
   xmlns="http://www.w3.org/2000/svg"
   xmlns:svg="http://www.w3.org/2000/svg">
  <sodipodi:namedview
     id="namedview7"
     pagecolor="#ffffff"
     bordercolor="#666666"
     borderopacity="1.0"
     inkscape:pageshadow="2"
     inkscape:pageopacity="0.0"
     inkscape:pagecheckerboard="0"
     inkscape:document-units="px"
     showgrid="false"
     units="px"
     height="48px"
     inkscape:zoom="16.520833"
     inkscape:cx="24"
     inkscape:cy="24"
     inkscape:window-width="1920"
     inkscape:window-height="1014"
     inkscape:window-x="0"
     inkscape:window-y="0"
     inkscape:window-maximized="1"
     inkscape:current-layer="svg5"
     showguides="false"
     inkscape:showpageshadow="2"
     inkscape:deskcolor="#d1d1d1" />
  <defs
     id="defs2" />
  <rect
     style="opacity:1;fill:#245c63;fill-opacity:1;stroke-width:0.264583"
     id="rect1162"
     width="8.7312498"
     height="10.31875"
     x="2.1166666"
     y="1.0583333"
     ry="0.79374999" />
  <rect
     style="fill:#f6f6f6;fill-opacity:1;stroke-width:0.383418"
     id="rect1437"
     width="8.2020836"
     height="9.7895832"
     x="2.3812499"
     y="1.3229166"
     ry="0.63499999" />
  <rect
     style="opacity:0.2;fill:#000000;fill-opacity:1;stroke-width:0.529167;stroke-linecap:round"
     id="rect13603"
     width="1.5875"
     height="2.1166666"
     x="9.7895832"
     y="1.5875"
     ry="0.39687499" />
  <rect
     style="fill:#faa41a;fill-opacity:1;stroke-width:0.529167;stroke-linecap:round"
     id="rect6113"
     width="1.5875"
     height="2.1166666"
     x="9.7895832"
     y="1.8520834"
     ry="0.39687499" />
  <rect
     style="opacity:0.2;fill:#000000;fill-opacity:1;stroke-width:0.529167;stroke-linecap:round"
     id="rect13774"
     width="1.5875"
     height="2.1166666"
     x="9.7895832"
     y="3.4395833"
     ry="0.39687499" />
  <rect
     style="fill:#73c48f;fill-opacity:1;stroke-width:0.529167;stroke-linecap:round"
     id="rect6495"
     width="1.5875"
     height="2.1166666"
     x="9.7895832"
     y="3.7041669"
     ry="0.39687499" />
  <rect
     style="opacity:0.2;fill:#000000;fill-opacity:1;stroke-width:0.529167;stroke-linecap:round"
     id="rect13878"
     width="1.5875"
     height="2.1166666"
     x="9.7895832"
     y="5.2916665"
     ry="0.39687499" />
  <rect
     style="fill:#b84acb;fill-opacity:1;stroke-width:0.529167;stroke-linecap:round"
     id="rect6725"
     width="1.5875"
     height="2.1166666"
     x="9.7895832"
     y="5.5562496"
     ry="0.39687499" />
  <rect
     style="opacity:0.2;fill:#000000;fill-opacity:1;stroke-width:0.529167;stroke-linecap:round"
     id="rect13982"
     width="1.5875"
     height="2.1166666"
     x="9.7895832"
     y="7.1437502"
     ry="0.39687499" />
  <rect
     style="fill:#f15d22;fill-opacity:1;stroke-width:0.529167;stroke-linecap:round"
     id="rect6955"
     width="1.5875"
     height="2.1166666"
     x="9.7895832"
     y="7.4083333"
     ry="0.39687499" />
  <rect
     style="fill:#245c63;fill-opacity:1;stroke-width:0.264583"
     id="rect4694"
     width="8.2020836"
     height="9.5249996"
     x="2.1166666"
     y="0.79374999"
     ry="0.79374999" />
  <rect
     style="opacity:1;fill:#48b9c7;fill-opacity:1;stroke-width:0.264583"
     id="rect1237"
     width="7.6729169"
     height="8.9958334"
     x="2.3812499"
     y="1.0583333"
     ry="0.63499999" />
  <path
     d="m 6.6145825,3.7041667 c 1.1690027,0 2.1166666,0.9476639 2.1166666,2.1166666 V 6.0854167 C 8.73132,6.8262756 7.8062997,7.1633135 7.3297512,6.5960625 7.1356579,6.7773444 6.8801665,6.8784824 6.6145825,6.8791666 5.6716427,6.8791666 5.1995874,5.7391951 5.8662659,5.0725168 6.5329442,4.4058382 7.6729158,4.8778935 7.6729158,5.8208333 v 0.2645834 c 0,0.3527776 0.5291667,0.3527776 0.5291667,0 V 5.8208333 c 0,-1.4144098 -1.7099574,-2.1224925 -2.709975,-1.1224749 C 4.49209,5.698376 5.2001726,7.4083333 6.6145825,7.4083333 h 1.3229166 c 0,0 0.2645834,0 0.2645834,0.2645833 C 8.1856783,7.9375 7.9374991,7.9375 7.9374991,7.9375 H 6.6145825 c -1.1690035,0 -2.1166659,-0.947664 -2.1166659,-2.1166667 0,-1.1690027 0.9476624,-2.1166666 2.1166659,-2.1166666 z m 0,1.5875 c -0.7055554,0 -0.7055554,1.0583333 0,1.0583333 0.7055554,0 0.7055554,-1.0583333 0,-1.0583333 z"
     style="fill:#000000;stroke-width:0.264583;opacity:0.2"
     id="path11962"
     sodipodi:nodetypes="sscccssssssscccssssss" />
  <path
     d="m 6.6145826,3.4395833 c 1.1690029,0 2.1166669,0.9476639 2.1166669,2.1166666 v 0.2645834 c 7.1e-5,0.7408589 -0.92495,1.0778968 -1.401498,0.5106458 C 7.1356585,6.512761 6.8801665,6.613899 6.6145826,6.6145832 5.6716428,6.6145832 5.1995875,5.4746117 5.866266,4.8079334 6.5329443,4.1412548 7.6729155,4.6133101 7.6729155,5.5562499 v 0.2645834 c 0,0.3527776 0.529167,0.3527776 0.529167,0 V 5.5562499 c 0,-1.4144098 -1.7099573,-2.1224925 -2.7099749,-1.1224749 -1.0000175,1.0000176 -0.2919349,2.7099749 1.122475,2.7099749 h 1.3229169 c 0,0 0.264583,0 0.264583,0.2645833 -0.0164,0.2645834 -0.264583,0.2645834 -0.264583,0.2645834 H 6.6145826 c -1.1690035,0 -2.1166659,-0.947664 -2.1166659,-2.1166667 0,-1.1690027 0.9476624,-2.1166666 2.1166659,-2.1166666 z m 0,1.5875 c -0.7055554,0 -0.7055554,1.0583333 0,1.0583333 0.7055559,0 0.7055559,-1.0583333 0,-1.0583333 z"
     style="fill:#ffffff;stroke-width:0.264583"
     id="path12353" />
  <path
     d="m 3.01625,1.0583333 c -0.3518958,0 -0.635,0.2831042 -0.635,0.635 V 10.4775 c 0,0.351631 0.2831042,0.635 0.635,0.635 H 3.175 V 1.0583333 Z"
     style="fill:#16393e;stroke-width:0.264583"
     id="path10119" />
</svg>
