<?xml version="1.0" encoding="UTF-8" standalone="no"?>
<!-- Created with Inkscape (http://www.inkscape.org/) -->

<svg
   width="48"
   height="48"
   viewBox="0 0 12.7 12.7"
   version="1.1"
   id="svg5"
   inkscape:version="1.2 (dc2aedaf03, 2022-05-15)"
   sodipodi:docname="office-calendar.svg"
   xmlns:inkscape="http://www.inkscape.org/namespaces/inkscape"
   xmlns:sodipodi="http://sodipodi.sourceforge.net/DTD/sodipodi-0.dtd"
   xmlns="http://www.w3.org/2000/svg"
   xmlns:svg="http://www.w3.org/2000/svg">
  <sodipodi:namedview
     id="namedview7"
     pagecolor="#ffffff"
     bordercolor="#666666"
     borderopacity="1.0"
     inkscape:pageshadow="2"
     inkscape:pageopacity="0.0"
     inkscape:pagecheckerboard="0"
     inkscape:document-units="px"
     showgrid="false"
     units="px"
     height="48px"
     inkscape:zoom="16.625"
     inkscape:cx="24"
     inkscape:cy="24"
     inkscape:window-width="1920"
     inkscape:window-height="1014"
     inkscape:window-x="0"
     inkscape:window-y="0"
     inkscape:window-maximized="1"
     inkscape:current-layer="svg5"
     showguides="true"
     inkscape:showpageshadow="2"
     inkscape:deskcolor="#d1d1d1" />
  <defs
     id="defs2" />
  <rect
     style="opacity:1;fill:#767676;fill-opacity:1;stroke-width:0.264583"
     id="rect1162"
     width="11.1125"
     height="8.4666662"
     x="0.79374999"
     y="2.9104166"
     ry="0.79374999" />
  <rect
     style="opacity:1;fill:#ededed;fill-opacity:1;stroke-width:0.264583"
     id="rect1237"
     width="10.583333"
     height="7.4083333"
     x="1.0583333"
     y="3.175"
     ry="0.66145831" />
  <path
     id="rect26423"
     style="fill:#faa41a;stroke-width:0.264583"
     d="m 1.7197916,3.175 h 9.2604164 c 0.366448,0 0.661458,0.2950104 0.661458,0.6614583 V 5.2916667 H 1.0583333 V 3.8364583 C 1.0583333,3.4700104 1.3533437,3.175 1.7197916,3.175 Z"
     sodipodi:nodetypes="sssccss" />
  <path
     id="rect29330"
     style="fill:#000000;fill-opacity:1;stroke-width:0.264583;opacity:0.24"
     d="M 2.1166667 5.8208333 L 2.1166667 6.8791667 L 3.175 6.8791667 L 3.175 5.8208333 L 2.1166667 5.8208333 z M 3.96875 5.8208333 L 3.96875 6.8791667 L 5.0270833 6.8791667 L 5.0270833 5.8208333 L 3.96875 5.8208333 z M 5.8208333 5.8208333 L 5.8208333 6.8791667 L 6.8791667 6.8791667 L 6.8791667 5.8208333 L 5.8208333 5.8208333 z M 7.6729167 5.8208333 L 7.6729167 6.8791667 L 8.73125 6.8791667 L 8.73125 5.8208333 L 7.6729167 5.8208333 z M 9.525 5.8208333 L 9.525 6.8791667 L 10.583333 6.8791667 L 10.583333 5.8208333 L 9.525 5.8208333 z M 2.1166667 7.4083333 L 2.1166667 8.4666667 L 3.175 8.4666667 L 3.175 7.4083333 L 2.1166667 7.4083333 z M 3.96875 7.4083333 L 3.96875 8.4666667 L 5.0270833 8.4666667 L 5.0270833 7.4083333 L 3.96875 7.4083333 z M 5.8208333 7.4083333 L 5.8208333 8.4666667 L 6.8791667 8.4666667 L 6.8791667 7.4083333 L 5.8208333 7.4083333 z M 9.525 7.4083333 L 9.525 8.4666667 L 10.583333 8.4666667 L 10.583333 7.4083333 L 9.525 7.4083333 z M 2.1166667 8.9958333 L 2.1166667 10.054167 L 3.175 10.054167 L 3.175 8.9958333 L 2.1166667 8.9958333 z M 3.96875 8.9958333 L 3.96875 10.054167 L 5.0270833 10.054167 L 5.0270833 8.9958333 L 3.96875 8.9958333 z M 5.8208333 8.9958333 L 5.8208333 10.054167 L 6.8791667 10.054167 L 6.8791667 8.9958333 L 5.8208333 8.9958333 z M 7.6729167 8.9958333 L 7.6729167 10.054167 L 8.73125 10.054167 L 8.73125 8.9958333 L 7.6729167 8.9958333 z M 9.525 8.9958333 L 9.525 10.054167 L 10.583333 10.054167 L 10.583333 8.9958333 L 9.525 8.9958333 z " />
  <circle
     style="opacity:0.2;fill:#000000;fill-opacity:1;stroke-width:0.264583"
     id="path34682"
     cx="8.2020836"
     cy="8.2020836"
     r="0.79374999" />
  <circle
     style="fill:#faa414;fill-opacity:1;stroke-width:0.264583"
     id="path6926"
     cx="8.2020836"
     cy="7.9375"
     r="0.79374999" />
</svg>
