<?xml version="1.0" encoding="UTF-8" standalone="no"?>
<!-- Created with Inkscape (http://www.inkscape.org/) -->

<svg
   width="48"
   height="48"
   viewBox="0 0 12.7 12.7"
   version="1.1"
   id="svg5"
   inkscape:version="1.2 (dc2aedaf03, 2022-05-15)"
   sodipodi:docname="org.gnome.Extensions.svg"
   xmlns:inkscape="http://www.inkscape.org/namespaces/inkscape"
   xmlns:sodipodi="http://sodipodi.sourceforge.net/DTD/sodipodi-0.dtd"
   xmlns="http://www.w3.org/2000/svg"
   xmlns:svg="http://www.w3.org/2000/svg">
  <sodipodi:namedview
     id="namedview7"
     pagecolor="#ffffff"
     bordercolor="#666666"
     borderopacity="1.0"
     inkscape:pageshadow="2"
     inkscape:pageopacity="0.0"
     inkscape:pagecheckerboard="0"
     inkscape:document-units="px"
     showgrid="false"
     units="px"
     height="48px"
     inkscape:zoom="11.313708"
     inkscape:cx="13.435029"
     inkscape:cy="32.571106"
     inkscape:window-width="1846"
     inkscape:window-height="1011"
     inkscape:window-x="74"
     inkscape:window-y="32"
     inkscape:window-maximized="1"
     inkscape:current-layer="svg5"
     inkscape:showpageshadow="2"
     inkscape:deskcolor="#d1d1d1" />
  <defs
     id="defs2" />
  <path
     id="rect622"
     style="fill:#396247;stroke-width:0.529167;stroke-linejoin:round"
     d="m 3.8364583,2.1166666 c -0.5130261,0 -0.9260416,0.4130156 -0.9260416,0.9260417 V 4.7624999 H 1.984375 c -0.6596049,0 -1.19062501,0.53102 -1.19062501,1.190625 v 0.79375 c 0,0.6596048 0.53102011,1.190625 1.19062501,1.190625 h 0.9260417 v 1.9843752 c 0,0.5130269 0.4130155,0.9260419 0.9260416,0.9260419 H 5.55625 V 9.7895834 c 0,-0.4328656 0.3429151,-0.7829244 0.7730794,-0.79375 0.00683,-1.718e-4 0.0138,0 0.020671,0 0.4397367,0 0.79375,0.3540135 0.79375,0.79375 v 1.0583336 h 1.7197917 c 0.513026,0 0.9260416,-0.413015 0.9260416,-0.9260419 V 7.9374999 h 0.9260413 c 0.659606,0 1.190625,-0.5310202 1.190625,-1.190625 v -0.79375 c 0,-0.659605 -0.531019,-1.190625 -1.190625,-1.190625 H 9.7895832 V 3.0427083 c 0,-0.5130261 -0.4130156,-0.9260417 -0.9260416,-0.9260417 H 7.1437499 v 1.0583333 c 0,0.4397367 -0.3540133,0.79375 -0.79375,0.79375 -0.4397365,0 -0.7937499,-0.3540133 -0.7937499,-0.79375 V 2.1166666 Z"
     sodipodi:nodetypes="sscsssscsscsssscsscsssscsscssscs" />
  <path
     id="rect850"
     style="fill:#73c48f;fill-opacity:1;stroke-width:1.05833;stroke-linejoin:round"
     d="m 3.96875,2.3812499 c -0.4397364,0 -0.79375,0.3540141 -0.79375,0.79375 V 5.0270832 H 2.1166667 c -0.5863148,0 -1.0583334,0.4720181 -1.0583334,1.0583334 0,0.5863148 0.4720186,1.0583333 1.0583334,1.0583333 H 3.175 v 2.1166668 c 0,0.4397359 0.3540136,0.7937503 0.79375,0.7937503 H 5.2916666 V 9.2604167 c 0,-0.5863155 0.4720179,-1.0583333 1.0583333,-1.0583333 0.5863156,0 1.0583334,0.4720178 1.0583334,1.0583333 v 0.7937503 h 1.3229166 c 0.4397364,0 0.79375,-0.3540144 0.79375,-0.7937503 V 7.1437499 h 1.0583341 c 0.586314,0 1.058333,-0.4720185 1.058333,-1.0583333 0,-0.5863153 -0.472019,-1.0583334 -1.058333,-1.0583334 H 9.5249999 V 3.1749999 c 0,-0.4397359 -0.3540136,-0.79375 -0.79375,-0.79375 H 7.4083333 v 0.79375 c 0,0.5863155 -0.4720178,1.0583334 -1.0583334,1.0583334 -0.5863154,-1e-7 -1.0583333,-0.4720179 -1.0583333,-1.0583334 v -0.79375 z"
     sodipodi:nodetypes="sscssscsscssscsscssscsscssscs" />
</svg>
