<?xml version="1.0" encoding="UTF-8" standalone="no"?>
<!-- Created with Inkscape (http://www.inkscape.org/) -->

<svg
   width="48"
   height="48"
   viewBox="0 0 12.7 12.7"
   version="1.1"
   id="svg5"
   inkscape:version="1.2 (dc2aedaf03, 2022-05-15)"
   sodipodi:docname="org.gnome.Software.Devel.svg"
   xmlns:inkscape="http://www.inkscape.org/namespaces/inkscape"
   xmlns:sodipodi="http://sodipodi.sourceforge.net/DTD/sodipodi-0.dtd"
   xmlns="http://www.w3.org/2000/svg"
   xmlns:svg="http://www.w3.org/2000/svg">
  <sodipodi:namedview
     id="namedview7"
     pagecolor="#ffffff"
     bordercolor="#666666"
     borderopacity="1.0"
     inkscape:pageshadow="2"
     inkscape:pageopacity="0.0"
     inkscape:pagecheckerboard="0"
     inkscape:document-units="px"
     showgrid="false"
     units="px"
     height="48px"
     inkscape:zoom="17.020833"
     inkscape:cx="23.970624"
     inkscape:cy="24"
     inkscape:window-width="1846"
     inkscape:window-height="1011"
     inkscape:window-x="74"
     inkscape:window-y="32"
     inkscape:window-maximized="1"
     inkscape:current-layer="svg5"
     showguides="false"
     inkscape:showpageshadow="2"
     inkscape:deskcolor="#d1d1d1"
     inkscape:lockguides="false" />
  <defs
     id="defs2" />
  <rect
     style="fill:#cdcdcd;fill-opacity:1;stroke-width:0.264583"
     id="rect1162"
     width="10.583333"
     height="10.31875"
     x="1.0583333"
     y="1.0583333"
     ry="0.92604166" />
  <path
     id="rect1316"
     style="opacity:0.5;fill:#000000;stroke-width:0.264583"
     d="m 1.984375,1.0583334 c -0.5130271,0 -0.9260417,0.4130146 -0.9260417,0.9260417 v 8.4666669 c 0,0.513027 0.4130146,0.926042 0.9260417,0.926042 h 8.73125 c 0.513027,0 0.926042,-0.413015 0.926042,-0.926042 V 1.9843751 c 0,-0.5130271 -0.413015,-0.9260417 -0.926042,-0.9260417 z m 0.1322916,0.2645833 h 8.4666664 c 0.439738,0 0.79375,0.3540125 0.79375,0.79375 v 7.672917 c 0,0.4397373 -0.354012,0.7937503 -0.79375,0.7937503 H 2.1166666 c -0.4397375,0 -0.7937499,-0.354013 -0.7937499,-0.7937503 v -7.672917 c 0,-0.4397375 0.3540124,-0.79375 0.7937499,-0.79375 z"
     sodipodi:nodetypes="ssssssssssssssssss" />
  <rect
     style="fill:#424242;fill-opacity:1;stroke:none;stroke-width:0.264583;stroke-linecap:square;stroke-linejoin:bevel"
     id="rect29955"
     width="8.4666662"
     height="7.6729169"
     x="2.1166668"
     y="2.1166666"
     ry="0.52916664" />
  <path
     id="rect4333"
     style="fill:#94a6ff;fill-opacity:1;stroke-width:1.22206;stroke-linejoin:round"
     d="M 2.9104167,2.9104167 V 3.175 H 9.789583 V 2.9104167 Z m 0,0.7937499 V 3.9687499 H 7.1437498 V 3.7041666 Z"
     sodipodi:nodetypes="cccccccccc" />
  <path
     id="rect7993"
     style="fill:#cf3b00;fill-opacity:1;stroke-width:1.05833;stroke-linejoin:round"
     d="M 2.9104167,6.0854167 V 6.3499999 H 4.4979166 V 6.0854167 Z m 0,0.79375 V 7.1437499 H 4.4979166 V 6.8791667 Z m 0,0.7937499 V 7.9375002 H 4.4979166 V 7.6729166 Z"
     sodipodi:nodetypes="ccccccccccccccc" />
  <path
     id="rect10265"
     style="fill:#7851c2;fill-opacity:1;stroke-width:1.05833;stroke-linejoin:round"
     d="M 2.9104167,4.4979167 V 4.7625 H 4.4979166 V 4.4979167 Z m 0,0.7937499 V 5.5562501 H 4.4979166 V 5.2916666 Z"
     sodipodi:nodetypes="cccccccccc" />
  <path
     id="rect14289"
     style="fill:#73c48f;fill-opacity:1;stroke-width:1.05833;stroke-linejoin:round"
     d="M 5.0270832,6.0854169 V 6.3500001 H 9.789583 V 6.0854169 Z m 0,0.7937498 V 7.1437501 H 7.6729166 V 6.8791667 Z"
     sodipodi:nodetypes="cccccccccc" />
  <path
     id="rect16549"
     style="fill:#ffffff;fill-opacity:1;stroke-width:1.05833;stroke-linejoin:round"
     d="M 5.0270832,7.6729167 V 7.9375002 H 9.789583 V 7.6729167 Z M 2.9104167,8.4666662 V 8.73125 H 7.14375 V 8.4666662 Z"
     sodipodi:nodetypes="cccccccccc" />
  <path
     id="rect18497"
     style="fill:#b84acb;fill-opacity:1;stroke-width:1.05833;stroke-linejoin:round"
     d="M 5.0270832,4.4979165 V 4.7624998 H 9.789583 V 4.4979165 Z m 0,0.7937501 V 5.5562499 H 7.6729164 V 5.2916666 Z"
     sodipodi:nodetypes="cccccccccc" />
</svg>
