<?xml version="1.0" encoding="UTF-8" standalone="no"?>
<!-- Created with Inkscape (http://www.inkscape.org/) -->

<svg
   width="48"
   height="48"
   viewBox="0 0 12.7 12.7"
   version="1.1"
   id="svg5"
   inkscape:version="1.2 (dc2aedaf03, 2022-05-15)"
   sodipodi:docname="org.gnome.Software.svg"
   xmlns:inkscape="http://www.inkscape.org/namespaces/inkscape"
   xmlns:sodipodi="http://sodipodi.sourceforge.net/DTD/sodipodi-0.dtd"
   xmlns="http://www.w3.org/2000/svg"
   xmlns:svg="http://www.w3.org/2000/svg">
  <sodipodi:namedview
     id="namedview7"
     pagecolor="#ffffff"
     bordercolor="#666666"
     borderopacity="1.0"
     inkscape:pageshadow="2"
     inkscape:pageopacity="0.0"
     inkscape:pagecheckerboard="0"
     inkscape:document-units="px"
     showgrid="false"
     units="px"
     height="48px"
     inkscape:zoom="17.0625"
     inkscape:cx="24"
     inkscape:cy="24"
     inkscape:window-width="1846"
     inkscape:window-height="1016"
     inkscape:window-x="0"
     inkscape:window-y="0"
     inkscape:window-maximized="1"
     inkscape:current-layer="svg5"
     inkscape:showpageshadow="2"
     inkscape:deskcolor="#d1d1d1" />
  <defs
     id="defs2" />
  <path
     id="rect1516"
     style="opacity:1;fill:#d1cbcb;fill-opacity:1;stroke-width:2;stroke-linecap:round;stroke-linejoin:round"
     d="M 18.435547,3 C 17.080696,3.0340962 16,4.1366407 16,5.5 v 9 c 0,1.385 1.115,2.5 2.5,2.5 h 11 c 1.385,0 2.5,-1.115 2.5,-2.5 v -9 C 32,4.115 30.885,3 29.5,3 h -11 c -0.02164,0 -0.04295,-5.412e-4 -0.06445,0 z M 20.5,8 h 7 C 27.777,8 28,8.223 28,8.5 v 6 c 0,0.277 -0.223,0.5 -0.5,0.5 h -7 C 20.223,15 20,14.777 20,14.5 v -6 C 20,8.223 20.223,8 20.5,8 Z"
     transform="scale(0.26458333)"
     sodipodi:nodetypes="sssssssssssssssssss" />
  <path
     id="path13926"
     style="fill:#000000;fill-opacity:1;stroke-width:2;stroke-linecap:round;stroke-linejoin:round;opacity:0.5"
     d="M 4.8777384 0.79375 C 4.5192678 0.80276999 4.2333333 1.0944866 4.2333333 1.4552083 L 4.2333333 3.8364583 C 4.2333333 4.2029059 4.5283441 4.4979167 4.8947917 4.4979167 L 7.8052083 4.4979167 C 8.1716559 4.4979167 8.4666667 4.2029059 8.4666667 3.8364583 L 8.4666667 1.4552083 C 8.4666667 1.0887608 8.1716559 0.79375 7.8052083 0.79375 L 4.8947917 0.79375 C 4.8890617 0.79375 4.8834286 0.7936068 4.8777384 0.79375 z M 5.0270833 1.0583333 L 7.6729167 1.0583333 C 7.9660747 1.0583333 8.2020833 1.294342 8.2020833 1.5875 L 8.2020833 3.7041667 C 8.2020833 3.9973247 7.9660747 4.2333333 7.6729167 4.2333333 L 7.6729167 1.8520833 C 7.6729167 1.7055043 7.5549124 1.5875 7.4083333 1.5875 L 5.2916667 1.5875 C 5.1450876 1.5875 5.0270833 1.7055043 5.0270833 1.8520833 L 5.0270833 4.2333333 C 4.7339252 4.2333333 4.4979167 3.9973247 4.4979167 3.7041667 L 4.4979167 1.5875 C 4.4979167 1.294342 4.7339252 1.0583333 5.0270833 1.0583333 z M 5.4239583 2.1166667 L 7.2760417 2.1166667 C 7.3493316 2.1166667 7.4083333 2.1756687 7.4083333 2.2489583 L 7.4083333 3.8364583 C 7.4083333 3.9097483 7.3493312 3.96875 7.2760417 3.96875 L 5.4239583 3.96875 C 5.3506684 3.96875 5.2916667 3.909748 5.2916667 3.8364583 L 5.2916667 2.2489583 C 5.2916667 2.1756684 5.3506687 2.1166667 5.4239583 2.1166667 z " />
  <rect
     style="fill:#ececec;fill-opacity:1;stroke-width:0.264583"
     id="rect928"
     width="11.1125"
     height="9.5249996"
     x="0.79374999"
     y="2.6458333"
     ry="1.0583333" />
  <path
     id="rect16308"
     style="opacity:1;fill:#d8d8d8;stroke-width:0.529167;stroke-linejoin:round"
     d="m 1.8520833,2.6458333 h 8.9958337 c 0.586317,0 1.058333,0.4720166 1.058333,1.0583332 V 6.8791657 H 0.79374999 V 3.7041665 c 0,-0.5863166 0.47201661,-1.0583332 1.05833331,-1.0583332 z"
     sodipodi:nodetypes="sssccss" />
  <path
     id="rect500"
     style="opacity:0.3;fill:#000000;stroke-width:0.529167;stroke-linejoin:round"
     d="m 7.4083314,4.4979167 c -0.5845013,10e-8 -1.0583332,0.473832 -1.0583333,1.0583333 1e-7,0.5845013 0.473832,1.0583332 1.0583333,1.0583333 0.5845014,0 1.0583333,-0.4738319 1.0583334,-1.0583333 -10e-8,-0.5845014 -0.473832,-1.0583333 -1.0583334,-1.0583333 z M 4.4979147,6.0854165 c -0.439737,0 -0.79375,0.354013 -0.79375,0.79375 v 0.5291667 c 0,0.4397371 0.354013,0.79375 0.79375,0.79375 h 0.5291667 c 0.439737,0 0.79375,-0.3540129 0.79375,-0.79375 V 6.8791665 c 0,-0.439737 -0.354013,-0.79375 -0.79375,-0.79375 z M 8.1669414,7.6729166 C 8.1151374,7.6727028 8.0636152,7.6859642 8.0170798,7.7132242 L 6.499343,8.6005088 c -0.092396,0.05381 -0.1493449,0.154367 -0.1493449,0.263033 0,0.108667 0.056949,0.209217 0.1493449,0.263033 l 1.5177368,0.8872842 c 0.09307,0.05451 0.2069914,0.05378 0.2997233,-10e-4 0.09273,-0.05521 0.1498617,-0.1564329 0.1498617,-0.2661339 V 7.9803913 c 0,-0.109701 -0.05713,-0.2109384 -0.1498617,-0.2661336 -0.046365,-0.027425 -0.098058,-0.041127 -0.1498617,-0.041341 z"
     sodipodi:nodetypes="sssssssssssssssccscccsscs" />
  <rect
     style="fill:#f15d22;fill-opacity:1;stroke-width:0.529167;stroke-linejoin:round"
     id="rect549"
     width="2.1166668"
     height="2.1166668"
     x="3.7041647"
     y="5.8208332"
     ry="0.79374999" />
  <path
     d="M 8.0168259,7.4488183 6.4993818,8.3360831 c -0.092396,0.05381 -0.149384,0.1542027 -0.149384,0.2628687 0,0.108666 0.056988,0.209052 0.149384,0.262868 l 1.5174441,0.8872663 c 0.09307,0.0545 0.2073847,0.05381 0.3001167,-9.9e-4 0.09273,-0.05521 0.149722,-0.156283 0.149722,-0.265984 V 7.7158325 c 0,-0.1097011 -0.05699,-0.2107776 -0.149722,-0.2659729 -0.09273,-0.05485 -0.2070457,-0.05554 -0.3001167,-0.00103 z"
     style="fill:#48b9c7;fill-opacity:1;stroke-width:0.17321"
     id="path1868" />
  <circle
     style="fill:#b84acb;fill-opacity:1;stroke-width:0.352778;stroke-linejoin:round"
     id="path1942"
     cx="7.4083333"
     cy="5.2916665"
     r="1.0583334" />
  <path
     id="rect13552"
     style="fill:#000000;stroke-width:0.529167;stroke-linejoin:round;opacity:0.5"
     d="M 1.8520833 2.6458333 C 1.2657673 2.6458333 0.79375 3.1178506 0.79375 3.7041667 L 0.79375 11.1125 C 0.79375 11.698816 1.2657673 12.170833 1.8520833 12.170833 L 10.847917 12.170833 C 11.434233 12.170833 11.90625 11.698816 11.90625 11.1125 L 11.90625 3.7041667 C 11.90625 3.1178506 11.434233 2.6458333 10.847917 2.6458333 L 1.8520833 2.6458333 z M 1.984375 2.9104167 L 10.715625 2.9104167 C 11.228652 2.9104167 11.641667 3.3234318 11.641667 3.8364583 L 11.641667 10.451042 C 11.641667 10.964068 11.228652 11.377083 10.715625 11.377083 L 1.984375 11.377083 C 1.4713484 11.377083 1.0583333 10.964068 1.0583333 10.451042 L 1.0583333 3.8364583 C 1.0583333 3.3234318 1.4713484 2.9104167 1.984375 2.9104167 z " />
</svg>
