<?xml version="1.0" encoding="UTF-8" standalone="no"?>
<!-- Created with Inkscape (http://www.inkscape.org/) -->

<svg
   width="48"
   height="48"
   viewBox="0 0 12.7 12.7"
   version="1.1"
   id="svg5"
   inkscape:version="1.1.2 (0a00cf5339, 2022-02-04, custom)"
   sodipodi:docname="parole.svg"
   xmlns:inkscape="http://www.inkscape.org/namespaces/inkscape"
   xmlns:sodipodi="http://sodipodi.sourceforge.net/DTD/sodipodi-0.dtd"
   xmlns="http://www.w3.org/2000/svg"
   xmlns:svg="http://www.w3.org/2000/svg">
  <sodipodi:namedview
     id="namedview7"
     pagecolor="#ffffff"
     bordercolor="#666666"
     borderopacity="1.0"
     inkscape:pageshadow="2"
     inkscape:pageopacity="0.0"
     inkscape:pagecheckerboard="0"
     inkscape:document-units="px"
     showgrid="false"
     units="px"
     height="48px"
     inkscape:zoom="16.708333"
     inkscape:cx="23.970075"
     inkscape:cy="24"
     inkscape:window-width="1920"
     inkscape:window-height="1017"
     inkscape:window-x="0"
     inkscape:window-y="0"
     inkscape:window-maximized="1"
     inkscape:current-layer="svg5"
     showguides="false" />
  <defs
     id="defs2" />
  <rect
     style="opacity:1;fill:#424242;fill-opacity:1;stroke-width:0.264583"
     id="rect1162"
     width="11.1125"
     height="8.4666662"
     x="0.79374999"
     y="2.9104166"
     ry="0.79374999" />
  <path
     id="rect1147"
     style="opacity:0.5;fill:#000000;fill-opacity:1;stroke-width:0.999999"
     d="M 6 11 C 4.338 11 3 12.338 3 14 L 3 40 C 3 41.662 4.338 43 6 43 L 42 43 C 43.662 43 45 41.662 45 40 L 45 14 C 45 12.338 43.662 11 42 11 L 6 11 z M 6.5 12 L 41.5 12 C 42.885 12 44 13.115 44 14.5 L 44 37.5 C 44 38.885 42.885 40 41.5 40 L 6.5 40 C 5.115 40 4 38.885 4 37.5 L 4 14.5 C 4 13.115 5.115 12 6.5 12 z "
     transform="scale(0.26458333)" />
  <path
     d="M 5.2916666,4.413252 C 5.1518343,4.4135166 5.0363913,4.522636 5.0281416,4.6622249 h -5.292e-4 v 0.00688 l -5.291e-4,0.00873 c 0,0.00609 0,0.012435 5.291e-4,0.018521 l -5.291e-4,2.2690667 c 0,0.1461241 0.1184592,0.2645833 0.2645833,0.2645833 0.038605,-1.323e-4 0.076716,-0.0087 0.1116542,-0.025135 l 5.291e-4,5.292e-4 0.00661,-0.0037 0.00106,-5.292e-4 c 0.00796,-0.00392 0.015743,-0.00826 0.023283,-0.012965 l 2.0759208,-1.1300354 0.00265,-0.00106 v -5.292e-4 c 0.1845892,-0.097073 0.1895343,-0.3595952 0.00873,-0.46355 l -0.00476,-0.00265 -0.00106,-5.292e-4 L 5.4199899,4.446323 H 5.4194608 C 5.3802998,4.424786 5.3363608,4.413414 5.291667,4.41325 Z"
     style="fill:#ffffff;stroke-width:0.264583"
     id="path1600" />
  <rect
     style="fill:#dedede;fill-opacity:1;stroke-width:0.264583"
     id="rect1717"
     width="10.583333"
     height="2.1166666"
     x="1.058333"
     y="8.4666662"
     ry="0.66145831" />
  <rect
     style="fill:#cf3b00;fill-opacity:1;stroke-width:0.264583"
     id="rect1873"
     width="6.0854163"
     height="0.52916664"
     x="1.5874996"
     y="9.260416"
     ry="0.13229166" />
  <circle
     style="fill:#822500;fill-opacity:1;stroke-width:0.352777"
     id="path2109"
     cx="7.4083328"
     cy="9.5249987"
     r="0.52916664" />
  <circle
     style="fill:#ffffff;fill-opacity:1;stroke-width:0.529166"
     id="path2323"
     cx="7.4083328"
     cy="9.5249987"
     r="0.26458332" />
</svg>
