<?xml version="1.0" encoding="UTF-8" standalone="no"?>
<!-- Created with Inkscape (http://www.inkscape.org/) -->

<svg
   width="48"
   height="48"
   viewBox="0 0 12.7 12.7"
   version="1.1"
   id="svg1099"
   inkscape:version="1.1.2 (0a00cf5339, 2022-02-04, custom)"
   sodipodi:docname="pop-cosmic-applications.svg"
   xmlns:inkscape="http://www.inkscape.org/namespaces/inkscape"
   xmlns:sodipodi="http://sodipodi.sourceforge.net/DTD/sodipodi-0.dtd"
   xmlns="http://www.w3.org/2000/svg"
   xmlns:svg="http://www.w3.org/2000/svg">
  <sodipodi:namedview
     id="namedview1101"
     pagecolor="#ffffff"
     bordercolor="#666666"
     borderopacity="1.0"
     inkscape:pageshadow="2"
     inkscape:pageopacity="0.0"
     inkscape:pagecheckerboard="0"
     inkscape:document-units="px"
     showgrid="false"
     units="px"
     inkscape:zoom="6.265625"
     inkscape:cx="38.224439"
     inkscape:cy="28.089776"
     inkscape:window-width="1920"
     inkscape:window-height="1017"
     inkscape:window-x="0"
     inkscape:window-y="0"
     inkscape:window-maximized="1"
     inkscape:current-layer="svg1099" />
  <defs
     id="defs1096" />
  <path
     id="rect934"
     style="opacity:1;fill:#48b9c7;fill-opacity:1;stroke-width:0.529167;stroke-linecap:round"
     d="m 5.2916668,4.7625001 c -0.2931583,0 -0.5291667,0.2360083 -0.5291667,0.5291667 v 2.1166667 c 0,0.2931583 0.2360084,0.5291667 0.5291667,0.5291667 h 2.1166667 c 0.2931584,0 0.5291668,-0.2360084 0.5291668,-0.5291667 V 5.2916668 c 0,-0.2931584 -0.2360084,-0.5291667 -0.5291668,-0.5291667 z M 1.3229167,8.7312502 c -0.2931583,0 -0.52916669,0.2360083 -0.52916669,0.5291667 v 2.1166661 c 0,0.293159 0.23600839,0.529167 0.52916669,0.529167 h 2.1166667 c 0.2931584,0 0.5291667,-0.236008 0.5291667,-0.529167 V 9.2604169 c 0,-0.2931584 -0.2360083,-0.5291667 -0.5291667,-0.5291667 z"
     sodipodi:nodetypes="ssssssssssssssssss" />
  <path
     id="rect1192"
     style="opacity:1;fill:#94ebeb;fill-opacity:1;stroke-width:0.529167;stroke-linecap:round"
     d="m 5.4239585,5.0270834 c -0.2198688,0 -0.396875,0.1770063 -0.396875,0.396875 v 1.5875001 c 0,0.2198687 0.1770062,0.396875 0.396875,0.396875 h 1.8520834 c 0.2198687,0 0.396875,-0.1770063 0.396875,-0.396875 V 5.4239584 c 0,-0.2198687 -0.1770063,-0.396875 -0.396875,-0.396875 z M 1.4552084,8.9958335 c -0.2198688,0 -0.396875,0.1770063 -0.396875,0.396875 v 1.5874995 c 0,0.219869 0.1770062,0.396875 0.396875,0.396875 h 1.8520834 c 0.2198687,0 0.396875,-0.177006 0.396875,-0.396875 V 9.3927085 c 0,-0.2198687 -0.1770063,-0.396875 -0.396875,-0.396875 z"
     sodipodi:nodetypes="ssssssssssssssssss" />
  <path
     id="rect4568"
     style="opacity:1;fill:#245c63;fill-opacity:1;stroke-width:0.264583"
     d="m 9.2604157,0.79375003 c -0.293158,0 -0.5291657,0.23600827 -0.5291657,0.52916667 v 2.1166667 c 0,0.2931583 0.2360077,0.5291667 0.5291657,0.5291667 h 2.1166663 c 0.293158,0 0.529167,-0.2360084 0.529167,-0.5291667 V 1.3229167 c 0,-0.2931584 -0.236009,-0.52916667 -0.529167,-0.52916667 z m -7.937499,-10e-8 c -0.2931583,0 -0.52916669,0.23600837 -0.52916669,0.52916667 v 2.1166668 c 0,0.2931583 0.23600839,0.5291667 0.52916669,0.5291667 h 2.1166667 c 0.2931584,0 0.5291667,-0.2360084 0.5291667,-0.5291667 V 1.3229166 c 0,-0.2931583 -0.2360083,-0.52916667 -0.5291667,-0.52916667 z M 5.2916668,8.7312502 c -0.2931583,0 -0.5291667,0.2360083 -0.5291667,0.5291667 v 2.1166661 c 0,0.293159 0.2360084,0.529167 0.5291667,0.529167 h 2.1166667 c 0.2931584,0 0.5291668,-0.236008 0.5291668,-0.529167 V 9.2604169 c 0,-0.2931584 -0.2360084,-0.5291667 -0.5291668,-0.5291667 z"
     sodipodi:nodetypes="sssssssssssssssssssssssssss" />
  <path
     id="rect4780"
     style="opacity:1;fill:#48b9c7;fill-opacity:1;stroke-width:0.264583"
     d="m 9.3927077,1.0583333 c -0.219869,0 -0.396875,0.1770063 -0.396875,0.396875 v 1.5875001 c 0,0.2198687 0.177006,0.396875 0.396875,0.396875 H 11.24479 c 0.219869,0 0.396875,-0.1770063 0.396875,-0.396875 V 1.4552083 c 0,-0.2198687 -0.177006,-0.396875 -0.396875,-0.396875 z m -7.9374993,0 c -0.2198688,0 -0.396875,0.1770062 -0.396875,0.396875 v 1.5875001 c 0,0.2198687 0.1770062,0.396875 0.396875,0.396875 h 1.8520834 c 0.2198687,0 0.396875,-0.1770063 0.396875,-0.396875 V 1.4552083 c 0,-0.2198688 -0.1770063,-0.396875 -0.396875,-0.396875 z m 3.9687501,7.9375002 c -0.2198688,0 -0.396875,0.1770063 -0.396875,0.396875 v 1.5874995 c 0,0.219869 0.1770062,0.396875 0.396875,0.396875 h 1.8520834 c 0.2198687,0 0.396875,-0.177006 0.396875,-0.396875 V 9.3927085 c 0,-0.2198687 -0.1770063,-0.396875 -0.396875,-0.396875 z"
     sodipodi:nodetypes="sssssssssssssssssssssssssss" />
  <path
     id="rect15304"
     style="opacity:1;fill:#a38c0d;fill-opacity:1;stroke-width:0.264583"
     d="m 5.2916668,0.79375003 c -0.2931583,0 -0.5291667,0.23600827 -0.5291667,0.52916667 v 2.1166667 c 0,0.2931583 0.2360084,0.5291667 0.5291667,0.5291667 h 2.1166667 c 0.2931584,0 0.5291668,-0.2360084 0.5291668,-0.5291667 V 1.3229167 c 0,-0.2931584 -0.2360084,-0.52916667 -0.5291668,-0.52916667 z M 1.3229167,4.7625001 c -0.2931583,0 -0.52916669,0.2360083 -0.52916669,0.5291667 v 2.1166667 c 0,0.2931583 0.23600839,0.5291667 0.52916669,0.5291667 h 2.1166667 c 0.2931584,0 0.5291667,-0.2360084 0.5291667,-0.5291667 V 5.2916668 c 0,-0.2931584 -0.2360083,-0.5291667 -0.5291667,-0.5291667 z m 7.9375,3.9687501 c -0.293159,0 -0.5291667,0.2360083 -0.5291667,0.5291667 v 2.1166661 c 0,0.293159 0.2360077,0.529167 0.5291667,0.529167 h 2.1166653 c 0.293159,0 0.529167,-0.236008 0.529167,-0.529167 V 9.2604169 c 0,-0.2931584 -0.236008,-0.5291667 -0.529167,-0.5291667 z"
     sodipodi:nodetypes="sssssssssssssssssssssssssss" />
  <path
     id="rect15516"
     style="opacity:1;fill:#f7e062;fill-opacity:1;stroke-width:0.264583"
     d="m 5.4239585,1.0583333 c -0.2198688,0 -0.396875,0.1770063 -0.396875,0.396875 v 1.5875001 c 0,0.2198687 0.1770062,0.396875 0.396875,0.396875 h 1.8520834 c 0.2198687,0 0.396875,-0.1770063 0.396875,-0.396875 V 1.4552083 c 0,-0.2198687 -0.1770063,-0.396875 -0.396875,-0.396875 z M 1.4552084,5.0270834 c -0.2198688,0 -0.396875,0.1770063 -0.396875,0.396875 v 1.5875001 c 0,0.2198687 0.1770062,0.396875 0.396875,0.396875 h 1.8520834 c 0.2198687,0 0.396875,-0.1770063 0.396875,-0.396875 V 5.4239584 c 0,-0.2198687 -0.1770063,-0.396875 -0.396875,-0.396875 z m 7.9374993,3.9687501 c -0.219868,0 -0.396875,0.1770063 -0.396875,0.396875 v 1.5874995 c 0,0.219869 0.177007,0.396875 0.396875,0.396875 h 1.8520833 c 0.219868,0 0.396875,-0.177006 0.396875,-0.396875 V 9.3927085 c 0,-0.2198687 -0.177007,-0.396875 -0.396875,-0.396875 z"
     sodipodi:nodetypes="sssssssssssssssssssssssssss" />
  <path
     id="rect15752"
     style="opacity:1;fill:#966800;stroke-width:0.264583"
     d="m 9.2604157,4.7624999 h 2.1166673 c 0.293158,0 0.529167,0.2360084 0.529167,0.5291667 v 2.116667 c 0,0.293158 -0.236009,0.529166 -0.529167,0.529166 H 9.2604157 c -0.293158,0 -0.5291657,-0.236008 -0.5291657,-0.529166 v -2.116667 c 0,-0.2931583 0.2360077,-0.5291667 0.5291657,-0.5291667 z"
     sodipodi:nodetypes="sssssssss" />
  <path
     id="rect15754"
     style="opacity:1;fill:#ffad00;stroke-width:0.264583"
     d="M 9.3927057,5.0270835 H 11.24479 c 0.219868,0 0.396875,0.1770063 0.396875,0.396875 v 1.5874999 c 0,0.2198687 -0.177007,0.3968752 -0.396875,0.3968752 H 9.3927057 c -0.219868,0 -0.396875,-0.1770065 -0.396875,-0.3968752 V 5.4239585 c 0,-0.2198687 0.177007,-0.396875 0.396875,-0.396875 z"
     sodipodi:nodetypes="sssssssss" />
</svg>
