<?xml version="1.0" encoding="UTF-8" standalone="no"?>
<!-- Created with Inkscape (http://www.inkscape.org/) -->

<svg
   width="48"
   height="48"
   viewBox="0 0 12.7 12.7"
   version="1.1"
   id="svg5"
   inkscape:version="1.2 (dc2aedaf03, 2022-05-15)"
   sodipodi:docname="pop-cosmic-workspaces.svg"
   xmlns:inkscape="http://www.inkscape.org/namespaces/inkscape"
   xmlns:sodipodi="http://sodipodi.sourceforge.net/DTD/sodipodi-0.dtd"
   xmlns="http://www.w3.org/2000/svg"
   xmlns:svg="http://www.w3.org/2000/svg">
  <sodipodi:namedview
     id="namedview7"
     pagecolor="#ffffff"
     bordercolor="#666666"
     borderopacity="1.0"
     inkscape:pageshadow="2"
     inkscape:pageopacity="0.0"
     inkscape:pagecheckerboard="0"
     inkscape:document-units="px"
     showgrid="false"
     units="px"
     height="48px"
     inkscape:zoom="17.020833"
     inkscape:cx="24"
     inkscape:cy="24"
     inkscape:window-width="1920"
     inkscape:window-height="1010"
     inkscape:window-x="0"
     inkscape:window-y="0"
     inkscape:window-maximized="1"
     inkscape:current-layer="svg5"
     inkscape:showpageshadow="2"
     inkscape:deskcolor="#d1d1d1" />
  <defs
     id="defs2" />
  <rect
     style="opacity:1;fill:#245c63;fill-opacity:1;stroke-width:0.264583"
     id="rect1162"
     width="10.583333"
     height="9.7895832"
     x="1.0583333"
     y="1.5875"
     ry="0.92604166" />
  <rect
     style="opacity:1;fill:#48b9c7;fill-opacity:1;stroke-width:0.264583"
     id="rect3774"
     width="10.054167"
     height="8.7312498"
     x="1.3229166"
     y="1.8520833"
     ry="0.79374999" />
  <path
     id="rect1821"
     style="fill:#3a95a0;fill-opacity:1;stroke-width:0.529167"
     d="m 2.1166898,2.6458334 c -0.146579,0 -0.2645833,0.1180043 -0.2645833,0.2645833 v 2.9104167 c 0,0.1465791 0.1180043,0.2645834 0.2645833,0.2645834 h 4.2333334 c 0.146579,0 0.2645833,-0.1180043 0.2645833,-0.2645834 V 2.9104167 c 0,-0.146579 -0.1180043,-0.2645833 -0.2645833,-0.2645833 z m 5.5562494,0.79375 c -0.146579,0 -0.264583,0.1180043 -0.264583,0.2645833 V 5.291667 c 0,0.1465791 0.118004,0.2645834 0.264583,0.2645834 H 10.31875 c 0.146579,0 0.264583,-0.1180043 0.264583,-0.2645834 V 3.7041667 c 0,-0.146579 -0.118004,-0.2645833 -0.264583,-0.2645833 z M 4.2333565,6.879166 c -0.1465791,0 -0.2645834,0.1180043 -0.2645834,0.2645834 v 2.9104186 c 0,0.146579 0.1180043,0.264583 0.2645834,0.264583 h 4.2333322 c 0.146579,0 0.264584,-0.118004 0.264584,-0.264583 V 7.1437494 c 0,-0.1465791 -0.118005,-0.2645834 -0.264584,-0.2645834 z"
     sodipodi:nodetypes="sssssssssssssssssssssssssss" />
  <rect
     style="fill:#ededed;fill-opacity:1;stroke-width:0.529167"
     id="rect1503"
     width="4.7624998"
     height="3.4395833"
     x="1.8520833"
     y="2.3812499"
     ry="0.26458335" />
  <path
     d="m 2.1166666,2.3812501 h 4.2333338 c 0.146579,0 0.264583,0.1180042 0.264583,0.2645834 V 3.1750002 H 1.8520833 V 2.6458335 c 0,-0.1465792 0.1180041,-0.2645834 0.2645833,-0.2645834 z"
     style="fill:#ffad00;stroke-width:0.529167"
     id="path2155"
     sodipodi:nodetypes="sssccss" />
  <rect
     style="fill:#ededed;fill-opacity:1;stroke-width:0.529167"
     id="rect1817"
     width="3.175"
     height="2.1166666"
     x="7.4083347"
     y="3.1750002"
     ry="0.26458332" />
  <path
     d="m 7.6729171,3.1750003 h 2.6458089 c 0.146579,0 0.264583,0.1180042 0.264583,0.2645834 V 3.704167 H 7.4083331 V 3.4395837 c 0,-0.1465792 0.118005,-0.2645834 0.264584,-0.2645834 z"
     style="fill:#ffad00;stroke-width:0.529167"
     id="path2099"
     sodipodi:nodetypes="sssccss" />
  <rect
     style="fill:#ededed;fill-opacity:1;stroke-width:0.529167"
     id="rect1819"
     width="4.7624998"
     height="3.4395833"
     x="3.96875"
     y="6.614584"
     ry="0.26458335" />
  <path
     d="m 4.2333334,6.6145833 h 4.2333325 c 0.146579,0 0.264584,0.118005 0.264584,0.264584 v 0.529166 H 3.9687501 v -0.529166 c 0,-0.146579 0.1180042,-0.264584 0.2645833,-0.264584 z"
     style="fill:#ffad00;stroke-width:0.529167"
     id="path2127"
     sodipodi:nodetypes="sssccss" />
</svg>
