<?xml version="1.0" encoding="UTF-8" standalone="no"?>
<!-- Created with Inkscape (http://www.inkscape.org/) -->

<svg
   width="48"
   height="48"
   viewBox="0 0 12.7 12.7"
   version="1.1"
   id="svg5"
   inkscape:version="1.1.2 (0a00cf5339, 2022-02-04, custom)"
   sodipodi:docname="preferences-system-network.svg"
   xmlns:inkscape="http://www.inkscape.org/namespaces/inkscape"
   xmlns:sodipodi="http://sodipodi.sourceforge.net/DTD/sodipodi-0.dtd"
   xmlns="http://www.w3.org/2000/svg"
   xmlns:svg="http://www.w3.org/2000/svg">
  <sodipodi:namedview
     id="namedview7"
     pagecolor="#ffffff"
     bordercolor="#666666"
     borderopacity="1.0"
     inkscape:pageshadow="2"
     inkscape:pageopacity="0.0"
     inkscape:pagecheckerboard="0"
     inkscape:document-units="px"
     showgrid="false"
     units="px"
     height="48px"
     inkscape:zoom="16.708333"
     inkscape:cx="23.970075"
     inkscape:cy="24"
     inkscape:window-width="1920"
     inkscape:window-height="1002"
     inkscape:window-x="0"
     inkscape:window-y="0"
     inkscape:window-maximized="1"
     inkscape:current-layer="svg5" />
  <defs
     id="defs2" />
  <rect
     style="opacity:1;fill:#6a7ce0;fill-opacity:1;stroke-width:0.264583"
     id="rect1162"
     width="10.583333"
     height="10.31875"
     x="1.0583333"
     y="1.3229166"
     ry="0.92604166" />
  <path
     d="m 6.3499999,4.2333333 c -1.1657541,0 -2.1166666,0.9509125 -2.1166666,2.1166667 0,1.1657541 0.9509125,2.1166666 2.1166666,2.1166666 1.1657542,0 2.1166667,-0.9509125 2.1166667,-2.1166666 0,-1.1657542 -0.9509125,-2.1166667 -2.1166667,-2.1166667 z m 0,0.5291667 c 0.5900209,0 1.1006667,0.3190875 1.3745104,0.79375 H 4.9754895 C 5.2581307,5.064289 5.7826274,4.761402 6.3499999,4.7625 Z M 4.8569562,5.8128958 c 0.012171,0.00397 0.024342,0.00794 0.037835,0.00794 h 2.9104166 c 0.013229,0 0.025665,-0.00397 0.037835,-0.00794 0.059796,0.1680104 0.094456,0.3481917 0.094456,0.5371042 0,0.1889125 -0.034396,0.3690937 -0.094456,0.5371041 -0.012092,-0.00466 -0.024871,-0.00733 -0.037835,-0.00794 H 4.8947916 c -0.012965,5.292e-4 -0.025717,0.00331 -0.037835,0.00794 C 4.7947866,6.7148419 4.7628306,6.5331366 4.7624996,6.35 c 0,-0.1889125 0.034396,-0.3690938 0.094457,-0.5371042 z M 4.9754895,7.14375 H 7.7245103 C 7.4509312,7.6184125 6.9400208,7.9375 6.3499999,7.9375 5.7599791,7.9375 5.2493333,7.6184125 4.9754895,7.14375 Z"
     style="font-variant-ligatures:normal;font-variant-position:normal;font-variant-caps:normal;font-variant-numeric:normal;font-variant-alternates:normal;font-variant-east-asian:normal;font-feature-settings:normal;font-variation-settings:normal;text-indent:0;text-decoration-line:none;text-decoration-style:solid;text-decoration-color:#000000;text-transform:none;text-orientation:mixed;white-space:normal;shape-padding:0;shape-margin:0;inline-size:0;isolation:auto;mix-blend-mode:normal;fill:#ffffff;stroke-width:0.264583"
     id="path920" />
  <path
     d="m 6.2177083,4.4979167 c -0.0381,0 -0.071438,0.015875 -0.095515,0.041275 C 5.9010016,4.6212127 5.7152641,4.8177979 5.5790037,5.0710042 5.3980287,5.407025 5.2916662,5.8557583 5.2916662,6.35 c 0,0.4942417 0.1063625,0.9424458 0.2873375,1.2784666 0.136525,0.2532063 0.3222625,0.4505855 0.5437187,0.5323417 0.023813,0.025135 0.05715,0.041275 0.094985,0.041275 h 0.2645833 c 0.036079,-5.03e-5 0.070541,-0.014975 0.09525,-0.041275 C 6.7987333,8.0787875 6.9849999,7.8816729 7.1215249,7.6284666 7.3024999,7.2924458 7.4083332,6.8442417 7.4083332,6.35 7.4083332,5.8557583 7.3024999,5.407025 7.1215249,5.0710042 6.9852645,4.8177979 6.7992624,4.6212125 6.5778062,4.5391917 6.5530676,4.5127863 6.518476,4.497832 6.4822916,4.4979167 H 6.3499999 Z M 6.0854166,4.8617188 V 7.8377521 C 5.9875208,7.7649916 5.8935937,7.6551896 5.8115729,7.5027896 5.6573208,7.2165104 5.5562499,6.8056125 5.5562499,6.35 c 0,-0.4556125 0.1010709,-0.8670396 0.255323,-1.1535833 0.082021,-0.1521354 0.1759479,-0.2622021 0.2738437,-0.3346979 z m 0.5291667,0 C 6.7124793,4.9342148 6.8064062,5.0442813 6.888427,5.1966813 7.0426791,5.4829604 7.1437499,5.8943875 7.1437499,6.35 c 0,0.4556125 -0.1010708,0.8665104 -0.2553229,1.1527896 -0.082021,0.1524 -0.1759479,0.2624666 -0.2738437,0.3349625 z"
     style="font-variant-ligatures:normal;font-variant-position:normal;font-variant-caps:normal;font-variant-numeric:normal;font-variant-alternates:normal;font-variant-east-asian:normal;font-feature-settings:normal;font-variation-settings:normal;text-indent:0;text-decoration-line:none;text-decoration-style:solid;text-decoration-color:#000000;text-transform:none;text-orientation:mixed;white-space:normal;shape-padding:0;shape-margin:0;inline-size:0;opacity:0.5;isolation:auto;mix-blend-mode:normal;fill:#ffffff;stroke-width:0.264583"
     id="path1040" />
  <path
     id="rect1316"
     style="opacity:0.4;fill:#000000;stroke-width:0.264583"
     d="m 1.984375,1.3229167 c -0.5130271,0 -0.9260417,0.4130146 -0.9260417,0.9260417 v 8.4666666 c 0,0.513027 0.4130146,0.926042 0.9260417,0.926042 h 8.73125 c 0.513027,0 0.926042,-0.413015 0.926042,-0.926042 V 2.2489584 c 0,-0.5130271 -0.413015,-0.9260417 -0.926042,-0.9260417 z M 2.1166666,1.5875 h 8.4666664 c 0.439738,0 0.79375,0.3540125 0.79375,0.79375 v 7.672917 c 0,0.439737 -0.354012,0.79375 -0.79375,0.79375 H 2.1166666 c -0.4397375,0 -0.7937499,-0.354013 -0.7937499,-0.79375 V 2.38125 c 0,-0.4397375 0.3540124,-0.79375 0.7937499,-0.79375 z"
     sodipodi:nodetypes="ssssssssssssssssss" />
</svg>
