<?xml version="1.0" encoding="UTF-8" standalone="no"?>
<!-- Created with Inkscape (http://www.inkscape.org/) -->

<svg
   width="48"
   height="48"
   viewBox="0 0 12.7 12.7"
   version="1.1"
   id="svg5"
   inkscape:version="1.2 (dc2aedaf03, 2022-05-15)"
   sodipodi:docname="preferences-activities.svg"
   xmlns:inkscape="http://www.inkscape.org/namespaces/inkscape"
   xmlns:sodipodi="http://sodipodi.sourceforge.net/DTD/sodipodi-0.dtd"
   xmlns="http://www.w3.org/2000/svg"
   xmlns:svg="http://www.w3.org/2000/svg">
  <sodipodi:namedview
     id="namedview7"
     pagecolor="#ffffff"
     bordercolor="#666666"
     borderopacity="1.0"
     inkscape:pageshadow="2"
     inkscape:pageopacity="0.0"
     inkscape:pagecheckerboard="0"
     inkscape:document-units="px"
     showgrid="false"
     units="px"
     height="48px"
     inkscape:zoom="16.708333"
     inkscape:cx="23.640898"
     inkscape:cy="24"
     inkscape:window-width="1920"
     inkscape:window-height="1016"
     inkscape:window-x="0"
     inkscape:window-y="0"
     inkscape:window-maximized="1"
     inkscape:current-layer="svg5"
     inkscape:showpageshadow="2"
     inkscape:deskcolor="#d1d1d1" />
  <defs
     id="defs2" />
  <rect
     style="opacity:1;fill:#9f9792;fill-opacity:1;stroke-width:0.264583"
     id="rect1162"
     width="10.583333"
     height="10.31875"
     x="1.0583333"
     y="1.3229166"
     ry="0.92604166" />
  <path
     d="M 5.6570562,3.4395834 5.5959374,4.1714208 C 5.3638428,4.257299 5.1480418,4.3820196 4.9577624,4.54025 L 4.2928645,4.2272479 3.5983333,5.4300437 4.2021124,5.8494083 c -0.021511,0.1216025 -0.032663,0.2448113 -0.033338,0.3683 7.52e-5,0.1238853 0.010697,0.2475394 0.03175,0.3696229 L 3.5983333,7.0053729 4.2928645,8.2081687 4.9564395,7.8959604 C 5.147293,8.0534756 5.3635409,8.1773911 5.5959374,8.2624083 l 0.061119,0.733425 H 7.0461187 L 7.1072374,8.2639958 C 7.339332,8.1781176 7.5551331,8.053397 7.7454124,7.8951666 l 0.6648979,0.3130021 0.6945316,-1.2030604 -0.6037795,-0.4191 c 0.021511,-0.1216025 0.032663,-0.2448113 0.033338,-0.3683 -6.01e-5,-0.1239737 -0.010681,-0.2477169 -0.03175,-0.3698875 L 9.1048419,5.4300437 8.4103103,4.2272479 7.7467353,4.5394563 C 7.5558818,4.3819411 7.3396339,4.2580256 7.1072374,4.1730083 L 7.0461187,3.4395834 Z m 0.6945312,1.9843749 c 0.438376,0 0.79375,0.3553741 0.79375,0.79375 0,0.438376 -0.355374,0.79375 -0.79375,0.79375 -0.4383759,0 -0.79375,-0.355374 -0.79375,-0.79375 0,-0.4383759 0.3553741,-0.79375 0.79375,-0.79375 z"
     style="fill:#000000;stroke-width:0.264583;opacity:0.2"
     id="path304"
     sodipodi:nodetypes="cccccccccccccccccccccccccccsssss" />
  <path
     d="M 5.6570562,3.175 5.5959374,3.9068374 C 5.3638428,3.9927156 5.1480418,4.1174362 4.9577624,4.2756666 L 4.2928645,3.9626645 3.5983333,5.1654603 4.2021124,5.5848249 c -0.021511,0.1216025 -0.032663,0.2448113 -0.033338,0.3683 7.52e-5,0.1238853 0.010697,0.2475394 0.03175,0.3696229 L 3.5983333,6.7407895 4.2928645,7.9435853 4.9564395,7.631377 C 5.147293,7.7888922 5.3635409,7.9128077 5.5959374,7.9978249 l 0.061119,0.733425 H 7.0461187 L 7.1072374,7.9994124 C 7.339332,7.9135342 7.5551331,7.7888136 7.7454124,7.6305832 l 0.6648979,0.3130021 0.6945316,-1.2030604 -0.6037795,-0.4191 c 0.021511,-0.1216025 0.032663,-0.2448113 0.033338,-0.3683 C 8.5343403,5.8291512 8.5237194,5.705408 8.5026504,5.5832374 L 9.1048419,5.1654603 8.4103103,3.9626645 7.7467353,4.2748729 C 7.5558818,4.1173577 7.3396339,3.9934422 7.1072374,3.9084249 L 7.0461187,3.175 Z m 0.6945312,1.9843749 c 0.438376,0 0.79375,0.3553741 0.79375,0.79375 0,0.438376 -0.355374,0.79375 -0.79375,0.79375 -0.4383759,0 -0.79375,-0.355374 -0.79375,-0.79375 0,-0.4383759 0.3553741,-0.79375 0.79375,-0.79375 z"
     style="fill:#ffffff;stroke-width:0.264583"
     id="path2512" />
  <path
     id="rect1316"
     style="opacity:0.5;fill:#000000;stroke-width:0.264583"
     d="m 1.984375,1.3229167 c -0.5130271,0 -0.9260417,0.4130146 -0.9260417,0.9260417 v 8.4666666 c 0,0.513027 0.4130146,0.926042 0.9260417,0.926042 h 8.73125 c 0.513027,0 0.926042,-0.413015 0.926042,-0.926042 V 2.2489584 c 0,-0.5130271 -0.413015,-0.9260417 -0.926042,-0.9260417 z M 2.1166666,1.5875 h 8.4666664 c 0.439738,0 0.79375,0.3540125 0.79375,0.79375 v 7.672917 c 0,0.439737 -0.354012,0.79375 -0.79375,0.79375 H 2.1166666 c -0.4397375,0 -0.7937499,-0.354013 -0.7937499,-0.79375 V 2.38125 c 0,-0.4397375 0.3540124,-0.79375 0.7937499,-0.79375 z"
     sodipodi:nodetypes="ssssssssssssssssss" />
</svg>
