<?xml version="1.0" encoding="UTF-8" standalone="no"?>
<!-- Created with Inkscape (http://www.inkscape.org/) -->

<svg
   width="48"
   height="48"
   viewBox="0 0 12.7 12.7"
   version="1.1"
   id="svg5"
   inkscape:version="1.1.2 (0a00cf5339, 2022-02-04, custom)"
   sodipodi:docname="preferences-desktop-wallpaper.svg"
   xmlns:inkscape="http://www.inkscape.org/namespaces/inkscape"
   xmlns:sodipodi="http://sodipodi.sourceforge.net/DTD/sodipodi-0.dtd"
   xmlns="http://www.w3.org/2000/svg"
   xmlns:svg="http://www.w3.org/2000/svg">
  <sodipodi:namedview
     id="namedview7"
     pagecolor="#ffffff"
     bordercolor="#666666"
     borderopacity="1.0"
     inkscape:pageshadow="2"
     inkscape:pageopacity="0.0"
     inkscape:pagecheckerboard="0"
     inkscape:document-units="px"
     showgrid="false"
     units="px"
     height="48px"
     inkscape:zoom="16.708333"
     inkscape:cx="23.970075"
     inkscape:cy="24"
     inkscape:window-width="1920"
     inkscape:window-height="1017"
     inkscape:window-x="0"
     inkscape:window-y="0"
     inkscape:window-maximized="1"
     inkscape:current-layer="svg5"
     showguides="false" />
  <defs
     id="defs2" />
  <rect
     style="opacity:1;fill:#6f6f6f;fill-opacity:1;stroke-width:0.264583"
     id="rect1162"
     width="11.1125"
     height="8.4666662"
     x="0.79374999"
     y="2.9104166"
     ry="0.79374999" />
  <rect
     style="opacity:1;fill:#dedede;fill-opacity:1;stroke-width:0.264583"
     id="rect1147"
     width="10.583333"
     height="7.4083333"
     x="1.0583333"
     y="3.175"
     ry="0.66145831" />
  <rect
     style="fill:#48b9c7;fill-opacity:1;stroke-width:0.293418"
     id="rect1083"
     width="9.5249996"
     height="5.8208332"
     x="1.5875"
     y="3.7041667" />
  <path
     d="m 4.6302083,4.4979167 c -0.6528594,0 -1.190625,0.5377656 -1.190625,1.190625 v 2.38125 c 0,0.6528599 0.5377656,1.1906245 1.190625,1.1906245 h 3.4397156 c 0.6524625,0 1.190625,-0.5377646 1.190625,-1.1906245 v -2.38125 c 0,-0.6528594 -0.5381625,-1.190625 -1.190625,-1.190625 z m 0,0.79375 h 3.4397156 c 0.2266157,0 0.396875,0.1702597 0.396875,0.396875 v 2.38125 c 0,0.2266156 -0.1702593,0.396875 -0.396875,0.396875 H 4.6302083 c -0.2266156,0 -0.396875,-0.1702594 -0.396875,-0.396875 v -2.38125 c 0,-0.2266153 0.1702594,-0.396875 0.396875,-0.396875 z m 1.7184688,0.79375 1.8520833,2.1166667 H 4.4965937 Z"
     style="color:#000000;font-variant-ligatures:normal;font-variant-position:normal;font-variant-caps:normal;font-variant-numeric:normal;font-variant-alternates:normal;font-feature-settings:normal;text-indent:0;text-decoration-line:none;text-decoration-style:solid;text-decoration-color:#000000;text-transform:none;text-orientation:mixed;white-space:normal;shape-padding:0;isolation:auto;mix-blend-mode:normal;fill:#000000;stroke-width:0.0700042;opacity:0.2"
     id="path1766" />
  <path
     d="m 4.4979166,5.55625 v 1.8520833 l 0.6614583,-0.79375 0.7276042,0.79375 1.1244792,-1.3229167 1.190625,1.3229167 V 5.55625 Z"
     style="opacity:0.1;fill:#000000;fill-opacity:1;stroke-width:0.0700042"
     id="path1610" />
  <path
     d="m 4.4979167,5.2916667 v 1.8520834 l 0.6614583,-0.79375 0.7276042,0.79375 1.1244791,-1.3229167 1.190625,1.3229167 V 5.2916667 Z"
     style="opacity:0.5;fill:#ffffff;fill-opacity:1;stroke-width:0.264583"
     id="path1371"
     sodipodi:nodetypes="cccccccc" />
  <path
     d="m 4.6302083,4.2333332 c -0.6528594,0 -1.190625,0.5377656 -1.190625,1.190625 v 2.38125 c 0,0.6528597 0.5377656,1.1906244 1.190625,1.1906244 h 3.4397156 c 0.6524625,0 1.190625,-0.5377647 1.190625,-1.1906244 v -2.38125 c 0,-0.6528594 -0.5381625,-1.190625 -1.190625,-1.190625 z m 0,0.79375 h 3.4397156 c 0.2266156,0 0.396875,0.1702594 0.396875,0.396875 v 2.38125 c 0,0.2266156 -0.1702594,0.396875 -0.396875,0.396875 H 4.6302083 c -0.2266156,0 -0.396875,-0.1702594 -0.396875,-0.396875 v -2.38125 c 0,-0.2266156 0.1702594,-0.396875 0.396875,-0.396875 z m 1.7184687,0.79375 1.8520833,2.1166666 H 4.4965937 Z"
     style="color:#000000;font-variant-ligatures:normal;font-variant-position:normal;font-variant-caps:normal;font-variant-numeric:normal;font-variant-alternates:normal;font-feature-settings:normal;text-indent:0;text-decoration-line:none;text-decoration-style:solid;text-decoration-color:#000000;text-transform:none;text-orientation:mixed;white-space:normal;shape-padding:0;isolation:auto;mix-blend-mode:normal;fill:#ffffff;stroke-width:0.264583"
     id="path1152"
     sodipodi:nodetypes="sssssssssssssssssscccc" />
</svg>
