<?xml version="1.0" encoding="UTF-8" standalone="no"?>
<!-- Created with Inkscape (http://www.inkscape.org/) -->

<svg
   width="48"
   height="48"
   viewBox="0 0 12.7 12.7"
   version="1.1"
   id="svg5"
   inkscape:version="1.2 (dc2aedaf03, 2022-05-15)"
   sodipodi:docname="preferences-desktop-locale.svg"
   xmlns:inkscape="http://www.inkscape.org/namespaces/inkscape"
   xmlns:sodipodi="http://sodipodi.sourceforge.net/DTD/sodipodi-0.dtd"
   xmlns="http://www.w3.org/2000/svg"
   xmlns:svg="http://www.w3.org/2000/svg">
  <sodipodi:namedview
     id="namedview7"
     pagecolor="#ffffff"
     bordercolor="#666666"
     borderopacity="1.0"
     inkscape:pageshadow="2"
     inkscape:pageopacity="0.0"
     inkscape:pagecheckerboard="0"
     inkscape:document-units="px"
     showgrid="false"
     units="px"
     height="48px"
     inkscape:zoom="16.520833"
     inkscape:cx="23.969736"
     inkscape:cy="23.969736"
     inkscape:window-width="1920"
     inkscape:window-height="1016"
     inkscape:window-x="0"
     inkscape:window-y="0"
     inkscape:window-maximized="1"
     inkscape:current-layer="svg5"
     inkscape:showpageshadow="2"
     inkscape:deskcolor="#d1d1d1" />
  <defs
     id="defs2" />
  <rect
     style="opacity:1;fill:#7b736e;fill-opacity:1;stroke-width:0.264583"
     id="rect1162"
     width="10.583333"
     height="10.31875"
     x="1.0583333"
     y="1.3229166"
     ry="0.92604166" />
  <path
     d="m 3.9698083,4.7609496 c -0.79375,0 -0.79375,0.79375 -0.79375,0.79375 v 2.9104168 c 0,0.779992 0.79375,0.79375 0.79375,0.79375 H 7.673975 V 7.6713663 h -1.14935 c -0.00397,0.05768 -0.00953,0.1174751 -0.012435,0.1735671 h 0.1738309 v 0.198437 H 6.4875834 c -0.032015,0.2804579 -0.1426104,0.421746 -0.3349625,0.421746 -0.070847,-0.0026 -0.1413722,-0.0109 -0.210873,-0.02487 l -0.037042,-0.198438 c 0.1042458,0.01588 0.1918229,0.02487 0.2479146,0.02487 0.056092,0 0.083079,-0.07885 0.099219,-0.223309 H 5.3215646 c 0.017198,-0.115887 0.025135,-0.24765 0.037042,-0.372004 H 5.0860854 C 4.9942064,7.9438334 4.8735827,8.2057493 4.7262521,8.4526794 L 4.5278146,8.2912854 C 4.65455,8.0878204 4.7611771,7.8838264 4.8503417,7.6713664 h -0.086783 v -0.955146 c -0.009,-0.00714 -0.015875,-0.017727 -0.024871,-0.024606 l 0.024871,-0.024871 V 5.9597767 c -0.009,-0.00714 -0.015875,-0.017727 -0.024871,-0.024606 l 0.024871,-0.024871 v -1.14935 z m 0.037042,1.2112625 H 4.6394687 V 7.8698034 H 4.4285958 V 7.6589314 H 4.2179875 v 0.310091 H 4.0071146 Z M 4.2177229,6.183085 V 7.4604934 H 4.4285958 V 6.183085 Z m 1.3768917,1.4882814 c -0.00794,0.05689 -0.016404,0.120121 -0.024871,0.173567 h 0.7069667 c 0.00529,-0.05874 0.00741,-0.115094 0.012171,-0.173567 H 6.1028792 l -0.086783,0.111654 c -0.0381,-0.0418 -0.082021,-0.07355 -0.1240896,-0.111654 z"
     style="opacity:0.5;fill:#ffffff;stroke-width:0.264583"
     id="path1423" />
  <path
     d="m 5.0255329,2.9117396 v 4.4979167 h 3.7041673 c 0,0 0.7937497,0 0.7937497,-0.79375 V 3.7054896 c 0,0 0,-0.79375 -0.7937497,-0.79375 z M 6.8367911,3.8362308 H 7.5809317 L 8.4490962,6.6143559 H 7.791773 L 7.655346,6.0851892 H 6.73499 L 6.6011478,6.6143559 H 5.968627 Z M 7.1840567,4.3075199 6.8688321,5.5560225 H 7.5184054 L 7.1964604,4.3075199 Z"
     id="path1395"
     style="fill:#ffffff;stroke-width:0.264583" />
  <path
     id="rect1316"
     style="opacity:0.5;fill:#000000;stroke-width:0.264583"
     d="m 1.984375,1.3229167 c -0.5130271,0 -0.9260417,0.4130146 -0.9260417,0.9260417 v 8.4666666 c 0,0.513027 0.4130146,0.926042 0.9260417,0.926042 h 8.73125 c 0.513027,0 0.926042,-0.413015 0.926042,-0.926042 V 2.2489584 c 0,-0.5130271 -0.413015,-0.9260417 -0.926042,-0.9260417 z M 2.1166666,1.5875 h 8.4666664 c 0.439738,0 0.79375,0.3540125 0.79375,0.79375 v 7.672917 c 0,0.439737 -0.354012,0.79375 -0.79375,0.79375 H 2.1166666 c -0.4397375,0 -0.7937499,-0.354013 -0.7937499,-0.79375 V 2.38125 c 0,-0.4397375 0.3540124,-0.79375 0.7937499,-0.79375 z"
     sodipodi:nodetypes="ssssssssssssssssss" />
</svg>
