<?xml version="1.0" encoding="UTF-8" standalone="no"?>
<!-- Created with Inkscape (http://www.inkscape.org/) -->

<svg
   width="48"
   height="48"
   viewBox="0 0 12.7 12.7"
   version="1.1"
   id="svg5"
   inkscape:version="1.2 (dc2aedaf03, 2022-05-15)"
   sodipodi:docname="preferences-desktop-user-password.svg"
   xmlns:inkscape="http://www.inkscape.org/namespaces/inkscape"
   xmlns:sodipodi="http://sodipodi.sourceforge.net/DTD/sodipodi-0.dtd"
   xmlns="http://www.w3.org/2000/svg"
   xmlns:svg="http://www.w3.org/2000/svg">
  <sodipodi:namedview
     id="namedview7"
     pagecolor="#ffffff"
     bordercolor="#666666"
     borderopacity="1.0"
     inkscape:pageshadow="2"
     inkscape:pageopacity="0.0"
     inkscape:pagecheckerboard="0"
     inkscape:document-units="px"
     showgrid="false"
     units="px"
     height="48px"
     inkscape:zoom="17.291667"
     inkscape:cx="18.33253"
     inkscape:cy="36.433734"
     inkscape:window-width="1920"
     inkscape:window-height="1009"
     inkscape:window-x="0"
     inkscape:window-y="0"
     inkscape:window-maximized="1"
     inkscape:current-layer="svg5"
     showguides="false"
     inkscape:showpageshadow="2"
     inkscape:deskcolor="#d1d1d1" />
  <defs
     id="defs2" />
  <path
     d="m 6.3500056,0.52916667 c -1.75895,0 -3.1749999,1.41605003 -3.1749999,3.17500003 V 8.7312499 C 3.1718756,10.398307 4.4624052,11.781992 6.125639,11.894873 5.0489065,11.784395 4.2309474,10.8762 4.233339,9.7938166 V 4.2293646 C 4.2306931,3.0615649 5.1779724,2.1141718 6.3457723,2.1166667 7.5135722,2.1141717 8.4608467,3.0615649 8.4582056,4.2293646 V 9.793552 c 0.00249,1.083921 -0.8175604,1.992998 -1.8960041,2.10185 1.6683037,-0.106636 2.9659291,-1.492447 2.9628041,-3.1641521 V 3.7041667 c 0,-1.75895 -1.41605,-3.17500003 -3.175,-3.17500003 z"
     style="fill:#6f6f6f;stroke-width:0.264583"
     id="path472" />
  <path
     d="m 6.2177082,0.79375 c -1.5390812,0 -2.7781249,1.2390437 -2.7781249,2.778125 v 5.5562499 c 0,1.5390811 1.2390437,2.7781251 2.7781249,2.7781251 h 0.2645834 c 1.5390812,0 2.7781249,-1.239044 2.7781249,-2.7781251 V 3.571875 c 0,-1.5390813 -1.2390437,-2.778125 -2.7781249,-2.778125 z m 0.1322917,0.5291667 c 1.3192125,0 2.38125,1.0638895 2.38125,2.3854833 v 5.2834645 c 0,1.3213295 -1.0620375,2.3852195 -2.38125,2.3852195 -1.3192125,0 -2.38125,-1.063626 -2.38125,-2.3852195 V 3.7081354 C 3.9647899,2.3907302 5.03259,1.3211518 6.3499999,1.3229167 Z"
     style="fill:#dedede;stroke-width:0.264583"
     id="path623" />
  <rect
     style="opacity:1;fill:#ffce51;fill-opacity:1;stroke-width:0.529167"
     id="rect695"
     width="8.4666662"
     height="6.3499999"
     x="2.1166666"
     y="5.5562501"
     ry="0.79374999" />
  <path
     d="m 2.9104163,5.5562501 c -0.4397375,0 -0.79375,0.3540125 -0.79375,0.79375 V 6.6145834 H 10.583333 V 6.3500001 c 0,-0.4397375 -0.354013,-0.79375 -0.7937498,-0.79375 z m -0.79375,5.2916669 V 11.1125 c 0,0.439738 0.3540125,0.79375 0.79375,0.79375 h 6.8791669 c 0.4397368,0 0.7937498,-0.354012 0.7937498,-0.79375 v -0.264583 z"
     style="fill-opacity:1;stroke-width:0.264583;fill:#000000;opacity:0.1"
     id="path1883" />
  <path
     d="m 2.9104166,5.5562501 c -0.4397375,0 -0.79375,0.3540125 -0.79375,0.79375 V 11.1125 c 0,0.439737 0.3540125,0.79375 0.79375,0.79375 h 6.8791666 c 0.4397378,0 0.7937498,-0.354013 0.7937498,-0.79375 V 6.3500001 c 0,-0.4397375 -0.354012,-0.79375 -0.7937498,-0.79375 z m 0,0.2645834 h 6.8791666 c 0.2931578,0 0.5291668,0.2360083 0.5291668,0.5291666 v 4.2333329 c 0,0.293158 -0.236009,0.529167 -0.5291668,0.529167 H 2.9104166 c -0.2931583,0 -0.5291667,-0.236009 -0.5291667,-0.529167 V 6.3500001 c 0,-0.2931583 0.2360084,-0.5291666 0.5291667,-0.5291666 z"
     style="fill-opacity:1;stroke-width:0.264583;fill:#000000;opacity:0.5"
     id="path2637" />
</svg>
