<?xml version="1.0" encoding="UTF-8" standalone="no"?>
<!-- Created with Inkscape (http://www.inkscape.org/) -->

<svg
   width="48"
   height="48"
   viewBox="0 0 12.7 12.7"
   version="1.1"
   id="svg5"
   inkscape:version="1.2 (dc2aedaf03, 2022-05-15)"
   sodipodi:docname="preferences-desktop-online-accounts.svg"
   xmlns:inkscape="http://www.inkscape.org/namespaces/inkscape"
   xmlns:sodipodi="http://sodipodi.sourceforge.net/DTD/sodipodi-0.dtd"
   xmlns="http://www.w3.org/2000/svg"
   xmlns:svg="http://www.w3.org/2000/svg">
  <sodipodi:namedview
     id="namedview7"
     pagecolor="#ffffff"
     bordercolor="#666666"
     borderopacity="1.0"
     inkscape:pageshadow="2"
     inkscape:pageopacity="0.0"
     inkscape:pagecheckerboard="0"
     inkscape:document-units="px"
     showgrid="false"
     units="px"
     height="48px"
     inkscape:zoom="16.6875"
     inkscape:cx="24.089888"
     inkscape:cy="24.179775"
     inkscape:window-width="1920"
     inkscape:window-height="1014"
     inkscape:window-x="0"
     inkscape:window-y="0"
     inkscape:window-maximized="1"
     inkscape:current-layer="svg5"
     inkscape:showpageshadow="2"
     inkscape:deskcolor="#d1d1d1" />
  <defs
     id="defs2" />
  <rect
     style="opacity:1;fill:#48b9c7;fill-opacity:1;stroke-width:0.264583"
     id="rect1162"
     width="10.583333"
     height="10.31875"
     x="1.0583333"
     y="1.3229166"
     ry="0.92604166" />
  <path
     d="m 6.35,2.9104167 c 1.7533937,0 3.1749999,1.4216062 3.1749999,3.1749999 v 0.396875 C 9.5247354,7.5932691 8.1376546,8.0985095 7.4228854,7.2479958 7.1397812,7.5091395 6.7651312,7.6729166 6.35,7.6729166 4.9355904,7.6729166 4.2275072,5.9629595 5.2275237,4.9629404 6.2275429,3.9629239 7.9375,4.6710071 7.9375,6.0854166 v 0.396875 c 0,0.5291667 0.79375,0.5291667 0.79375,0 V 6.0854166 C 8.73125,3.9638023 6.166313,2.9016775 4.6662869,4.4017036 3.1662608,5.9017296 4.2283856,8.4666666 6.35,8.4666666 h 1.984375 c 0,0 0.396875,0 0.396875,0.396875 -0.024871,0.396875 -0.396875,0.396875 -0.396875,0.396875 H 6.35 c -1.7533937,0 -3.175,-1.4216063 -3.175,-3.175 0,-1.7533937 1.4216063,-3.1749999 3.175,-3.1749999 z m 0,2.3812499 c -1.0583333,0 -1.0583333,1.5875 0,1.5875 1.0583333,0 1.0583333,-1.5875 0,-1.5875 z"
     style="fill:#ffffff;stroke-width:0.264583"
     id="path1274" />
  <path
     id="rect1316"
     style="opacity:0.5;fill:#000000;stroke-width:0.264583"
     d="m 1.984375,1.3229167 c -0.5130271,0 -0.9260417,0.4130146 -0.9260417,0.9260417 v 8.4666666 c 0,0.513027 0.4130146,0.926042 0.9260417,0.926042 h 8.73125 c 0.513027,0 0.926042,-0.413015 0.926042,-0.926042 V 2.2489584 c 0,-0.5130271 -0.413015,-0.9260417 -0.926042,-0.9260417 z M 2.1166666,1.5875 h 8.4666664 c 0.439738,0 0.79375,0.3540125 0.79375,0.79375 v 7.672917 c 0,0.439737 -0.354012,0.79375 -0.79375,0.79375 H 2.1166666 c -0.4397375,0 -0.7937499,-0.354013 -0.7937499,-0.79375 V 2.38125 c 0,-0.4397375 0.3540124,-0.79375 0.7937499,-0.79375 z"
     sodipodi:nodetypes="ssssssssssssssssss" />
</svg>
