<?xml version="1.0" encoding="UTF-8" standalone="no"?>
<!-- Created with Inkscape (http://www.inkscape.org/) -->

<svg
   width="48"
   height="48"
   viewBox="0 0 12.7 12.7"
   version="1.1"
   id="svg5"
   inkscape:version="1.2 (dc2aedaf03, 2022-05-15)"
   sodipodi:docname="qv4l2.svg"
   xmlns:inkscape="http://www.inkscape.org/namespaces/inkscape"
   xmlns:sodipodi="http://sodipodi.sourceforge.net/DTD/sodipodi-0.dtd"
   xmlns="http://www.w3.org/2000/svg"
   xmlns:svg="http://www.w3.org/2000/svg">
  <sodipodi:namedview
     id="namedview7"
     pagecolor="#ffffff"
     bordercolor="#666666"
     borderopacity="1.0"
     inkscape:pageshadow="2"
     inkscape:pageopacity="0.0"
     inkscape:pagecheckerboard="0"
     inkscape:document-units="px"
     showgrid="false"
     units="px"
     height="48px"
     inkscape:zoom="11.814576"
     inkscape:cx="25.392363"
     inkscape:cy="29.3705"
     inkscape:window-width="1920"
     inkscape:window-height="1016"
     inkscape:window-x="0"
     inkscape:window-y="0"
     inkscape:window-maximized="1"
     inkscape:current-layer="svg5"
     showguides="false"
     inkscape:showpageshadow="2"
     inkscape:deskcolor="#d1d1d1" />
  <defs
     id="defs2" />
  <rect
     style="opacity:1;fill:#e6e6e6;fill-opacity:1;stroke-width:0.264583"
     id="rect1040"
     width="11.641666"
     height="12.170834"
     x="0.52916664"
     y="0.52916664"
     ry="5.8208332" />
  <circle
     style="fill:#ac1800;fill-opacity:1;stroke-width:0.238559"
     id="path10609"
     cx="6.3499999"
     cy="6.3499999"
     r="2.9104166" />
  <circle
     style="fill:#cf3b00;fill-opacity:1;stroke-width:0.183172"
     id="path12167"
     cx="6.3499999"
     cy="6.3499999"
     r="2.3812499" />
  <circle
     style="opacity:0.25;fill:#ffffff;fill-opacity:1;stroke-width:0.198438"
     id="path13933"
     cx="6.3499999"
     cy="6.3499999"
     r="1.5875" />
  <path
     id="path13989"
     style="opacity:0.25;fill:#ffffff;fill-opacity:1;stroke-width:0.198438"
     d="m 5.2283627,5.2283629 a 1.5874999,1.5874999 0 0 0 -0.465863,1.121637 1.5874999,1.5874999 0 0 0 1.5875,1.5874997 1.5874999,1.5874999 0 0 0 1.1216373,-0.4658631 z" />
  <path
     id="path13994"
     style="opacity:0.25;fill:#ffffff;fill-opacity:1;stroke-width:0.198438"
     d="M 7.4724116,5.2275877 5.2283627,7.4716365 A 1.5874997,1.5874997 0 0 0 6.3499997,7.9374996 1.5874997,1.5874997 0 0 0 7.9374994,6.3499999 1.5874997,1.5874997 0 0 0 7.4724116,5.2275877 Z" />
  <path
     id="rect4520"
     style="opacity:0.5;fill:#000000;fill-opacity:1;stroke-width:0.999999"
     d="M 24 2 C 11.812001 2 2 11.812001 2 24 L 2 26 C 2 38.187999 11.812001 48 24 48 C 36.187999 48 46 38.187999 46 26 L 46 24 C 46 11.812001 36.187999 2 24 2 z M 24 3 A 21 21 0 0 1 45 24 A 21 21 0 0 1 24 45 A 21 21 0 0 1 3 24 A 21 21 0 0 1 24 3 z "
     transform="scale(0.26458333)" />
  <path
     id="rect845"
     style="fill:#396247;fill-opacity:1;stroke-width:0.491368"
     d="M 9.2604166,5.2916667 C 11.165947,5.2916667 12.7,6.8257208 12.7,8.7312485 v 0.529168 c 0,1.9055285 -1.534053,3.4395815 -3.4395834,3.4395815 -1.9055293,0 -3.4395836,-1.534053 -3.4395836,-3.4395815 v -0.529168 c 0,-1.9055277 1.5340543,-3.4395818 3.4395836,-3.4395818 z"
     sodipodi:nodetypes="sssssss" />
  <circle
     style="fill:#73c48f;fill-opacity:1;stroke-width:0.264583"
     id="path1732"
     cx="9.260417"
     cy="8.7312489"
     r="3.175" />
  <path
     d="m 8.7973956,6.8791667 -0.040746,0.4878917 c -0.1547415,0.057306 -0.2986114,0.140513 -0.42545,0.2460625 L 7.8877581,7.4041 7.4247372,8.2063165 l 0.4026959,0.2794 c -0.01434,0.08107 -0.021775,0.163208 -0.022225,0.245534 3.97e-5,0.08265 0.00712,0.165144 0.021167,0.246591 L 7.4247372,9.2561835 7.8877581,10.058398 8.3301414,9.8499085 c 0.1272752,0.1050897 0.2715022,0.1877595 0.4265083,0.2444745 l 0.040746,0.48895 H 9.7234373 L 9.7641833,10.09544 C 9.918925,10.03813 10.062792,9.9549282 10.189633,9.8493795 l 0.443178,0.2090185 0.463021,-0.8022145 -0.402431,-0.2794 c 0.01434,-0.08107 0.02177,-0.163208 0.02222,-0.245533 -4e-5,-0.08265 -0.0071,-0.165145 -0.02117,-0.246592 L 11.096097,8.2063165 10.633076,7.4041 10.190691,7.6125917 C 10.063416,7.5075018 9.919189,7.4248307 9.7641831,7.3681167 l -0.040746,-0.48895 z m 0.4630208,1.3229168 c 0.2922508,0 0.5291666,0.236916 0.5291666,0.529167 0,0.29225 -0.2369158,0.529166 -0.5291666,0.529166 -0.2922508,0 -0.5291667,-0.236916 -0.5291667,-0.529166 0,-0.292251 0.2369159,-0.529167 0.5291667,-0.529167 z"
     style="fill:#fafafb;stroke-width:0.264583"
     id="path1697" />
</svg>
