<?xml version="1.0" encoding="UTF-8" standalone="no"?>
<!-- Created with Inkscape (http://www.inkscape.org/) -->

<svg
   width="48"
   height="48"
   viewBox="0 0 12.7 12.7"
   version="1.1"
   id="svg5"
   inkscape:version="1.2 (dc2aedaf03, 2022-05-15)"
   sodipodi:docname="skype.svg"
   xmlns:inkscape="http://www.inkscape.org/namespaces/inkscape"
   xmlns:sodipodi="http://sodipodi.sourceforge.net/DTD/sodipodi-0.dtd"
   xmlns="http://www.w3.org/2000/svg"
   xmlns:svg="http://www.w3.org/2000/svg">
  <sodipodi:namedview
     id="namedview7"
     pagecolor="#ffffff"
     bordercolor="#666666"
     borderopacity="1.0"
     inkscape:pageshadow="2"
     inkscape:pageopacity="0.0"
     inkscape:pagecheckerboard="0"
     inkscape:document-units="px"
     showgrid="false"
     units="px"
     height="48px"
     inkscape:zoom="16.958333"
     inkscape:cx="24"
     inkscape:cy="24"
     inkscape:window-width="1846"
     inkscape:window-height="1011"
     inkscape:window-x="0"
     inkscape:window-y="0"
     inkscape:window-maximized="1"
     inkscape:current-layer="svg5"
     showguides="false"
     inkscape:showpageshadow="2"
     inkscape:deskcolor="#d1d1d1" />
  <defs
     id="defs2" />
  <rect
     style="opacity:1;fill:#145474;fill-opacity:1;stroke-width:0.264583"
     id="rect1040"
     width="10.583333"
     height="11.1125"
     x="1.0583333"
     y="1.0583333"
     ry="5.2916665" />
  <rect
     style="fill:#145474;fill-opacity:1;stroke-width:0.917223;stroke-linejoin:round"
     id="rect591-3"
     width="6.6145835"
     height="7.1437502"
     x="5.2916665"
     y="5.2916665"
     ry="3.3072917" />
  <circle
     style="fill:#1587d7;fill-opacity:1;stroke-width:1.01423;stroke-linejoin:round"
     id="path490-6"
     cx="8.598958"
     cy="8.598958"
     r="3.0427084" />
  <rect
     style="fill:#145474;fill-opacity:1;stroke-width:0.917223;stroke-linejoin:round"
     id="rect591"
     width="6.6145835"
     height="7.1437502"
     x="0.79374999"
     y="0.79374999"
     ry="3.3072917" />
  <circle
     style="fill:#1587d7;fill-opacity:1;stroke-width:1.01423;stroke-linejoin:round"
     id="path490"
     cx="4.1010413"
     cy="4.1010408"
     r="3.0427084" />
  <path
     id="path14401"
     style="opacity:0.1;fill:#000000;fill-opacity:1;stroke-width:0.529167;stroke-linejoin:round"
     d="M 8.4666667 5.2916667 A 3.175 3.175 0 0 0 5.2916667 8.4666667 A 3.175 3.175 0 0 0 7.5349406 11.498006 A 5.0270834 5.0270834 0 0 0 11.346594 7.1359985 A 3.175 3.175 0 0 0 8.4666667 5.2916667 z " />
  <circle
     style="fill:#28a8e9;fill-opacity:1;stroke-width:0.239385"
     id="path1188"
     cx="6.3499999"
     cy="6.3499999"
     r="5.0270834" />
  <path
     d="M 5.1101196,6.5245241 C 4.9232354,6.4035688 4.7673199,6.2418322 4.6545346,6.0519296 4.545567,5.8514096 4.491773,5.6264143 4.4984741,5.3992012 4.4901768,5.1108329 4.5903242,4.8295721 4.779777,4.609166 4.9766198,4.3878309 5.2296364,4.2216837 5.5130755,4.1276341 5.8214138,4.0206628 6.1462795,3.9669622 6.4732714,3.9689127 c 0.2139858,-0.00198 0.427749,0.014118 0.6389222,0.04815 0.1510559,0.022942 0.2994162,0.06058 0.4428929,0.1123582 0.1318025,0.043855 0.250784,0.1185183 0.3467055,0.2175637 0.0707,0.081465 0.1087689,0.1854457 0.1070848,0.29249 C 8.014023,4.7517719 7.9735396,4.8614763 7.8963366,4.9444417 7.8231121,5.0210113 7.7200759,5.0631949 7.6131753,5.0603694 7.5404294,5.0598403 7.4686411,5.0440235 7.4026349,5.0139769 7.240121,4.9425185 7.0727098,4.8823363 6.9016316,4.8338723 6.7441084,4.7931024 6.5817239,4.7733105 6.4188358,4.775028 6.2066974,4.767298 5.9968013,4.819931 5.8143848,4.9266027 c -0.1569352,0.093638 -0.2494653,0.2638502 -0.2414,0.4440645 -0.00114,0.1160658 0.043779,0.2280039 0.1252265,0.3120848 0.096854,0.098661 0.2112881,0.1790523 0.3376348,0.2371915 0.1415897,0.068996 0.3527425,0.1605458 0.6334585,0.2746508 0.031118,0.00966 0.061459,0.021585 0.090771,0.035677 0.2739337,0.1064334 0.5365665,0.2390397 0.784117,0.395909 C 7.739749,6.7514541 7.9046395,6.9177217 8.0270206,7.1130402 8.1474621,7.3182296 8.2077702,7.5521573 8.2012707,7.7889345 8.211391,8.0789596 8.1267886,8.364557 7.9598392,8.6039538 7.7898524,8.8305827 7.5546928,9.0020186 7.284653,9.096178 6.9592623,9.2103394 6.6154318,9.2653346 6.269986,9.2584727 5.7952623,9.2748821 5.3227824,9.1871516 4.8868994,9.0016591 4.7753558,8.9529136 4.6775536,8.8782458 4.6019256,8.7840935 4.5392377,8.697865 4.5067476,8.5939677 4.5093437,8.488034 4.5030149,8.3749273 4.5474535,8.2647768 4.630933,8.18664 4.7175181,8.1121373 4.8299438,8.0731896 4.9449444,8.0778571 c 0.127993,0.00175 0.2537061,0.033532 0.3666424,0.09273 0.1403268,0.068999 0.2510552,0.1207272 0.3321852,0.1551831 0.092675,0.038137 0.1886643,0.067977 0.2868004,0.089157 0.1209738,0.026106 0.2445692,0.038665 0.3684209,0.037434 0.21898,0.015306 0.4368765,-0.041814 0.6189855,-0.1622652 C 7.0563128,8.1837566 7.134013,8.0184428 7.1266983,7.8460276 7.1269629,7.7254006 7.0802102,7.6092512 6.996032,7.5214363 6.8847919,7.4088463 6.7546232,7.3159447 6.6112477,7.2468149 6.4418066,7.1588465 6.2034104,7.0518405 5.8960593,6.925797 5.6210927,6.8181664 5.3577955,6.6837371 5.1101138,6.5245241"
     style="fill:#000000;fill-rule:evenodd;stroke-width:0.264583;opacity:0.2"
     id="path17734"
     sodipodi:nodetypes="cccccccccccccccccccccccccccccccccccccccccc" />
  <path
     d="M 5.1101196,6.2599416 C 4.9232354,6.1389863 4.7673199,5.9772497 4.6545346,5.7873471 4.545567,5.5868271 4.491773,5.3618318 4.4984741,5.1346187 4.4901768,4.8462504 4.5903242,4.5649896 4.779777,4.3445835 4.9766198,4.1232484 5.2296364,3.9571012 5.5130755,3.8630516 5.8214138,3.7560803 6.1462795,3.7023797 6.4732714,3.7043302 c 0.2139858,-0.00198 0.427749,0.014118 0.6389222,0.04815 0.1510559,0.022942 0.2994162,0.06058 0.4428929,0.1123582 0.1318025,0.043855 0.250784,0.1185183 0.3467055,0.2175637 0.0707,0.081465 0.1087689,0.1854457 0.1070848,0.29249 C 8.014023,4.4871894 7.9735396,4.5968938 7.8963366,4.6798592 7.8231121,4.7564288 7.7200759,4.7986124 7.6131753,4.7957869 7.5404294,4.7952578 7.4686411,4.779441 7.4026349,4.7493944 7.240121,4.677936 7.0727098,4.6177538 6.9016316,4.5692898 6.7441084,4.5285199 6.5817239,4.508728 6.4188358,4.5104455 c -0.2121384,-0.00773 -0.4220345,0.044903 -0.604451,0.1515747 -0.1569352,0.093638 -0.2494653,0.2638502 -0.2414,0.4440645 -0.00114,0.1160658 0.043779,0.2280039 0.1252265,0.3120848 0.096854,0.098661 0.2112881,0.1790523 0.3376348,0.2371915 0.1415897,0.068996 0.3527425,0.1605458 0.6334585,0.2746508 0.031118,0.00966 0.061459,0.021585 0.090771,0.035677 0.2739337,0.1064334 0.5365665,0.2390397 0.784117,0.395909 C 7.739749,6.4868716 7.9046395,6.6531392 8.0270206,6.8484577 8.1474621,7.0536471 8.2077702,7.2875748 8.2012707,7.524352 8.211391,7.8143771 8.1267886,8.0999745 7.9598392,8.3393713 7.7898524,8.5660002 7.5546928,8.7374361 7.284653,8.8315955 6.9592623,8.9457569 6.6154318,9.0007521 6.269986,8.9938902 5.7952623,9.0102996 5.3227824,8.9225691 4.8868994,8.7370766 4.7753558,8.6883311 4.6775536,8.6136633 4.6019256,8.519511 4.5392377,8.4332825 4.5067476,8.3293852 4.5093437,8.2234515 4.5030149,8.1103448 4.5474535,8.0001943 4.630933,7.9220575 4.7175181,7.8475548 4.8299438,7.8086071 4.9449444,7.8132746 c 0.127993,0.00175 0.2537061,0.033532 0.3666424,0.09273 0.1403268,0.068999 0.2510552,0.1207272 0.3321852,0.1551831 0.092675,0.038137 0.1886643,0.067977 0.2868004,0.089157 0.1209738,0.026106 0.2445692,0.038665 0.3684209,0.037434 0.21898,0.015306 0.4368765,-0.041814 0.6189855,-0.1622652 C 7.0563128,7.9191741 7.134013,7.7538603 7.1266983,7.5814451 7.1269629,7.4608181 7.0802102,7.3446687 6.996032,7.2568538 6.8847919,7.1442638 6.7546232,7.0513622 6.6112477,6.9822324 6.4418066,6.894264 6.2034104,6.787258 5.8960593,6.6612145 5.6210927,6.5535839 5.3577955,6.4191546 5.1101138,6.2599416"
     style="fill:#ffffff;fill-rule:evenodd;stroke-width:0.264583"
     id="path18488" />
</svg>
