<?xml version="1.0" encoding="UTF-8" standalone="no"?>
<!-- Created with Inkscape (http://www.inkscape.org/) -->

<svg
   width="48"
   height="48"
   viewBox="0 0 12.7 12.7"
   version="1.1"
   id="svg5"
   inkscape:version="1.1.2 (0a00cf5339, 2022-02-04, custom)"
   sodipodi:docname="system-software-update.svg"
   xmlns:inkscape="http://www.inkscape.org/namespaces/inkscape"
   xmlns:sodipodi="http://sodipodi.sourceforge.net/DTD/sodipodi-0.dtd"
   xmlns="http://www.w3.org/2000/svg"
   xmlns:svg="http://www.w3.org/2000/svg">
  <sodipodi:namedview
     id="namedview7"
     pagecolor="#ffffff"
     bordercolor="#666666"
     borderopacity="1.0"
     inkscape:pageshadow="2"
     inkscape:pageopacity="0.0"
     inkscape:pagecheckerboard="0"
     inkscape:document-units="px"
     showgrid="false"
     units="px"
     height="48px"
     inkscape:zoom="11.814576"
     inkscape:cx="21.117982"
     inkscape:cy="23.530256"
     inkscape:window-width="1920"
     inkscape:window-height="1002"
     inkscape:window-x="0"
     inkscape:window-y="0"
     inkscape:window-maximized="1"
     inkscape:current-layer="svg5" />
  <defs
     id="defs2" />
  <rect
     style="opacity:1;fill:#de8800;fill-opacity:1;stroke-width:0.264583"
     id="rect1162"
     width="10.583333"
     height="10.31875"
     x="1.0583333"
     y="1.0583333"
     ry="0.92604166" />
  <path
     id="rect1149"
     style="opacity:0.5;fill:#000000;fill-opacity:1;stroke-width:0.999999"
     d="M 7.5 4 C 5.561 4 4 5.561 4 7.5 L 4 39.5 C 4 41.439 5.561 43 7.5 43 L 40.5 43 C 42.439 43 44 41.439 44 39.5 L 44 7.5 C 44 5.561 42.439 4 40.5 4 L 7.5 4 z M 8 5 L 40 5 C 41.662 5 43 6.338 43 8 L 43 37 C 43 38.662 41.662 40 40 40 L 8 40 C 6.338 40 5 38.662 5 37 L 5 8 C 5 6.338 6.338 5 8 5 z "
     transform="scale(0.26458333)" />
  <path
     id="path944"
     style="text-indent:0;text-decoration-line:none;text-transform:none;fill:#ffffff;fill-opacity:1;stroke-width:0.999999"
     d="M 30.089844 10 C 29.70504 10.0032 29.312938 10.044809 28.929688 10.144531 L 28.929688 10.146484 C 26.131687 10.874486 24.455547 13.717094 25.185547 16.496094 C 25.338547 17.076094 25.6195 17.604172 25.9375 18.076172 C 25.7755 18.102172 23.498047 21.96875 23.498047 21.96875 L 28.611328 22 L 29.814453 20.328125 C 30.384453 20.373124 30.986312 20.359036 31.570312 20.207031 C 34.368312 19.479011 36.046407 16.635421 35.316406 13.857422 C 35.164407 13.276422 34.882453 12.748344 34.564453 12.277344 L 32.523438 15.736328 C 32.108308 16.445418 31.196281 16.682615 30.488281 16.265625 L 29.177734 15.503906 C 28.465584 15.097916 28.225954 14.186082 28.646484 13.482422 L 30.685547 10.023438 C 30.543047 10.01225 30.399625 10.004674 30.253906 10.001953 C 30.199261 10.000952 30.144816 9.9995428 30.089844 10 z M 16.945312 11.041016 C 16.929627 11.040796 16.915395 11.041815 16.900391 11.044922 C 16.555392 11.114923 16.235969 11.241047 15.917969 11.373047 C 15.892986 12.310047 16.047592 13.535422 15.683594 13.857422 C 15.325593 14.173417 14.128125 13.907548 13.203125 13.810547 C 13.005274 14.166828 12.848035 14.544187 12.734375 14.935547 C 13.450375 15.528547 14.442797 16.193922 14.466797 16.669922 C 14.490797 17.151922 13.528 17.876922 12.875 18.544922 C 13.029001 18.931922 13.24842 19.285047 13.482422 19.623047 C 14.393422 19.433046 15.530969 19.062797 15.917969 19.341797 C 16.311969 19.625798 16.313641 20.850297 16.431641 21.779297 C 16.80564 21.892297 17.198562 21.935797 17.601562 21.966797 C 18.022563 21.1348 18.45211 19.987422 18.912109 19.857422 C 19.386109 19.724422 20.355203 20.545297 21.158203 21.029297 C 21.483043 20.796687 21.781668 20.529492 22.048828 20.232422 C 21.668828 19.374422 20.968203 18.293797 21.158203 17.841797 C 21.349203 17.388797 22.619047 17.136547 23.498047 16.810547 C 23.505039 16.700548 23.546875 16.594424 23.546875 16.482422 C 23.546875 16.195423 23.495127 15.913672 23.453125 15.638672 C 22.545126 15.396673 21.255531 15.276797 21.019531 14.841797 C 20.784531 14.409797 21.380828 13.250422 21.673828 12.357422 C 21.373058 12.087822 21.043616 11.852027 20.691406 11.654297 C 19.941406 12.217297 19.067937 13.145547 18.585938 13.060547 C 18.110937 12.976547 17.592891 11.830922 17.087891 11.044922 C 17.042892 11.051914 16.992292 11.042022 16.945312 11.041016 z M 17.835938 13.857422 C 21.210937 13.857422 21.210937 18.919922 17.835938 18.919922 C 16.439938 18.919922 15.308594 17.786672 15.308594 16.388672 C 15.308594 14.990672 16.439938 13.857422 17.835938 13.857422 z M 16 22.964844 L 16.011719 32.464844 C 16.011719 33.320844 16.701766 33.964844 17.509766 33.964844 L 29.498047 33.964844 C 30.282047 33.964844 30.990234 33.296594 30.990234 32.558594 L 30.978516 22.964844 L 16 22.964844 z M 23.490234 24.5 L 26.5 28.25 L 25 28.25 L 25 32 L 22 32 L 22 28.25 L 20.5 28.25 L 23.490234 24.5 z "
     transform="scale(0.26458333)" />
</svg>
