<?xml version="1.0" encoding="UTF-8" standalone="no"?>
<!-- Created with Inkscape (http://www.inkscape.org/) -->

<svg
   width="48"
   height="48"
   viewBox="0 0 12.7 12.7"
   version="1.1"
   id="svg5"
   inkscape:version="1.2 (dc2aedaf03, 2022-05-15)"
   sodipodi:docname="system-error.svg"
   xmlns:inkscape="http://www.inkscape.org/namespaces/inkscape"
   xmlns:sodipodi="http://sodipodi.sourceforge.net/DTD/sodipodi-0.dtd"
   xmlns="http://www.w3.org/2000/svg"
   xmlns:svg="http://www.w3.org/2000/svg">
  <sodipodi:namedview
     id="namedview7"
     pagecolor="#ffffff"
     bordercolor="#666666"
     borderopacity="1.0"
     inkscape:pageshadow="2"
     inkscape:pageopacity="0.0"
     inkscape:pagecheckerboard="0"
     inkscape:document-units="px"
     showgrid="false"
     units="px"
     height="48px"
     inkscape:zoom="16.708333"
     inkscape:cx="7.3615962"
     inkscape:cy="25.49626"
     inkscape:window-width="1920"
     inkscape:window-height="1016"
     inkscape:window-x="0"
     inkscape:window-y="0"
     inkscape:window-maximized="1"
     inkscape:current-layer="svg5"
     inkscape:showpageshadow="2"
     inkscape:deskcolor="#d1d1d1" />
  <defs
     id="defs2" />
  <rect
     style="opacity:1;fill:#cf3b00;fill-opacity:1;stroke-width:0.264583"
     id="rect1162"
     width="10.583333"
     height="10.31875"
     x="1.0583333"
     y="1.3229166"
     ry="0.79374999" />
  <path
     d="M 5.8208333,2.38125 V 7.6729165 H 6.8791666 V 2.38125 Z m 0,6.3499999 V 9.7895832 H 6.8791666 V 8.7312499 Z"
     style="fill:#ffffff;stroke-width:0.264583"
     id="path302" />
  <path
     id="rect3038"
     style="opacity:0.5;fill:#000000;stroke-width:0.264583"
     d="M 1.8520833 1.3229167 C 1.4123463 1.3229167 1.0583333 1.6769296 1.0583333 2.1166667 L 1.0583333 10.847917 C 1.0583333 11.287654 1.4123463 11.641667 1.8520833 11.641667 L 10.847917 11.641667 C 11.287654 11.641667 11.641667 11.287654 11.641667 10.847917 L 11.641667 2.1166667 C 11.641667 1.6769296 11.287654 1.3229167 10.847917 1.3229167 L 1.8520833 1.3229167 z M 1.8520833 1.5875 L 10.847917 1.5875 C 11.141075 1.5875 11.377083 1.8235086 11.377083 2.1166667 L 11.377083 10.31875 C 11.377083 10.611908 11.141075 10.847917 10.847917 10.847917 L 1.8520833 10.847917 C 1.5589253 10.847917 1.3229167 10.611908 1.3229167 10.31875 L 1.3229167 2.1166667 C 1.3229167 1.8235086 1.5589253 1.5875 1.8520833 1.5875 z " />
</svg>
