<?xml version="1.0" encoding="UTF-8" standalone="no"?>
<!-- Created with Inkscape (http://www.inkscape.org/) -->

<svg
   width="48"
   height="48"
   viewBox="0 0 12.7 12.7"
   version="1.1"
   id="svg5"
   inkscape:version="1.2 (dc2aedaf03, 2022-05-15)"
   sodipodi:docname="system-run.svg"
   xmlns:inkscape="http://www.inkscape.org/namespaces/inkscape"
   xmlns:sodipodi="http://sodipodi.sourceforge.net/DTD/sodipodi-0.dtd"
   xmlns="http://www.w3.org/2000/svg"
   xmlns:svg="http://www.w3.org/2000/svg">
  <sodipodi:namedview
     id="namedview7"
     pagecolor="#ffffff"
     bordercolor="#666666"
     borderopacity="1.0"
     inkscape:pageshadow="2"
     inkscape:pageopacity="0.0"
     inkscape:pagecheckerboard="0"
     inkscape:document-units="px"
     showgrid="false"
     units="px"
     height="48px"
     inkscape:zoom="16.520833"
     inkscape:cx="23.969735"
     inkscape:cy="24"
     inkscape:window-width="1920"
     inkscape:window-height="1014"
     inkscape:window-x="0"
     inkscape:window-y="0"
     inkscape:window-maximized="1"
     inkscape:current-layer="svg5"
     inkscape:showpageshadow="2"
     inkscape:deskcolor="#d1d1d1" />
  <defs
     id="defs2" />
  <rect
     style="opacity:1;fill:#cdcdcd;fill-opacity:1;stroke-width:0.264583"
     id="rect1162"
     width="10.583333"
     height="10.31875"
     x="1.0583333"
     y="1.3229166"
     ry="0.92604166" />
  <path
     id="rect1316"
     style="opacity:0.4;fill:#000000;stroke-width:0.264583"
     d="m 1.984375,1.3229167 c -0.5130271,0 -0.9260417,0.4130146 -0.9260417,0.9260417 v 8.4666666 c 0,0.513027 0.4130146,0.926042 0.9260417,0.926042 h 8.73125 c 0.513027,0 0.926042,-0.413015 0.926042,-0.926042 V 2.2489584 c 0,-0.5130271 -0.413015,-0.9260417 -0.926042,-0.9260417 z M 2.1166666,1.5875 h 8.4666664 c 0.439738,0 0.79375,0.3540125 0.79375,0.79375 v 7.672917 c 0,0.439737 -0.354012,0.79375 -0.79375,0.79375 H 2.1166666 c -0.4397375,0 -0.7937499,-0.354013 -0.7937499,-0.79375 V 2.38125 c 0,-0.4397375 0.3540124,-0.79375 0.7937499,-0.79375 z"
     sodipodi:nodetypes="ssssssssssssssssss" />
  <path
     d="M 5.9002083,5.1308001 5.7213501,4.7513878 C 5.8117593,4.6425092 5.8829786,4.5190382 5.9319582,4.3862628 L 6.35,4.3513378 V 3.5575876 L 5.9319582,3.5226626 c -0.024136,-0.066432 -0.053878,-0.130692 -0.0889,-0.192088 -0.03557,-0.061204 -0.076286,-0.11927 -0.121708,-0.173566 L 5.9002083,2.778125 5.2128209,2.38125 4.9736375,2.7252084 C 4.8341873,2.7016784 4.6917511,2.7020362 4.5524208,2.7262668 L 4.3127084,2.38125 3.6253208,2.778125 3.8041793,3.1575376 C 3.7139573,3.2664536 3.6429192,3.3899236 3.5941,3.5226626 L 3.175,3.5575866 v 0.7937512 l 0.4191,0.034926 c 0.023992,0.066234 0.053558,0.130316 0.08837,0.191558 0.035544,0.061388 0.076262,0.11963 0.121708,0.174096 L 3.6253208,5.1308001 4.3127084,5.5276752 4.5518916,5.183717 C 4.6913717,5.207069 4.8338085,5.206535 4.9731083,5.182127 L 5.2128209,5.5276752 Z M 4.9900416,4.3476336 C 4.7728003,4.4732212 4.494867,4.3985183 4.3698584,4.1809456 4.244903,3.9640788 4.31927,3.686983 4.5360166,3.5618208 c 0.2167283,-0.125044 0.4937819,-0.050926 0.6191251,0.16563 0.125404,0.2168464 0.051244,0.494296 -0.16563,0.619654 z M 6.2018333,4.9879252 6.1436251,5.6848377 C 5.9226837,5.766692 5.7172638,5.8855062 5.5361417,6.036204 L 4.9027292,5.737754 4.2412708,6.883929 4.8159459,7.2829206 c -0.02049,0.115838 -0.03111,0.2332048 -0.03175,0.3508374 1.993e-4,0.118134 0.01046,0.236036 0.030692,0.3524256 l -0.5736171,0.3974036 0.6614584,1.1461754 0.631825,-0.297921 c 0.181596,0.150052 0.3873738,0.268149 0.6085416,0.34925 l 0.058208,0.6985004 h 1.322917 l 0.058737,-0.6969134 c 0.2209418,-0.081854 0.4263616,-0.200668 0.6074838,-0.351366 l 0.6334121,0.29845 0.661459,-1.1461754 -0.574675,-0.3989912 c 0.02049,-0.115838 0.03111,-0.2332048 0.03175,-0.350838 -2.3e-4,-0.117958 -0.0105,-0.2356802 -0.03069,-0.3518958 L 9.4853128,6.883929 8.8238538,5.737754 8.1920291,6.0356752 C 8.0104325,5.8856242 7.8046553,5.7675258 7.5834875,5.6864251 l -0.058738,-0.6985 z M 6.8632917,6.877579 c 0.4176262,0 0.7561792,0.3385528 0.7561792,0.756179 0,0.4176264 -0.338553,0.7561792 -0.7561792,0.7561792 -0.4176262,0 -0.7561792,-0.3385528 -0.7561792,-0.7561792 0,-0.4176262 0.338553,-0.756179 0.7561792,-0.756179 z"
     style="fill:#463e39;fill-opacity:1;stroke-width:0.529166"
     id="path300" />
</svg>
