<?xml version="1.0" encoding="UTF-8" standalone="no"?>
<!-- Created with Inkscape (http://www.inkscape.org/) -->

<svg
   width="48"
   height="48"
   viewBox="0 0 12.7 12.7"
   version="1.1"
   id="svg5"
   inkscape:version="1.2 (dc2aedaf03, 2022-05-15)"
   sodipodi:docname="telegram.svg"
   xmlns:inkscape="http://www.inkscape.org/namespaces/inkscape"
   xmlns:sodipodi="http://sodipodi.sourceforge.net/DTD/sodipodi-0.dtd"
   xmlns="http://www.w3.org/2000/svg"
   xmlns:svg="http://www.w3.org/2000/svg">
  <sodipodi:namedview
     id="namedview7"
     pagecolor="#ffffff"
     bordercolor="#666666"
     borderopacity="1.0"
     inkscape:pageshadow="2"
     inkscape:pageopacity="0.0"
     inkscape:pagecheckerboard="0"
     inkscape:document-units="px"
     showgrid="false"
     units="px"
     height="48px"
     inkscape:zoom="5.9072878"
     inkscape:cx="12.188335"
     inkscape:cy="22.853127"
     inkscape:window-width="1846"
     inkscape:window-height="1015"
     inkscape:window-x="0"
     inkscape:window-y="0"
     inkscape:window-maximized="1"
     inkscape:current-layer="svg5"
     showguides="false"
     inkscape:showpageshadow="2"
     inkscape:deskcolor="#d1d1d1" />
  <defs
     id="defs2" />
  <rect
     style="opacity:1;fill:#145271;fill-opacity:1;stroke-width:0.264583"
     id="rect1040"
     width="11.641666"
     height="12.170834"
     x="0.52916664"
     y="0.52916664"
     ry="5.8208332" />
  <circle
     style="fill:#28a4e2;fill-opacity:1;stroke-width:0.264583"
     id="path1188"
     cx="6.3499999"
     cy="6.3499999"
     r="5.5562501" />
  <path
     d="M 8.4875509,9.0303052 C 8.5880926,8.8350427 9.1664714,5.4975885 9.2492861,4.6350469 9.3387151,3.7799136 8.8722554,3.9389281 8.4431009,4.0833906 c -1.052777,0.3556 -4.3820291,1.7967854 -5.2932541,2.2722417 -0.224102,0.093133 -0.3212041,0.250825 -0.1579562,0.3876146 0.1404937,0.1156229 0.6548437,0.274902 1.0694458,0.3556 0.3537479,0.1068916 0.6283854,0.0045 0.8818562,-0.1386417 C 5.5522635,6.5990489 7.3675697,5.4502281 7.4654655,5.386199 7.5630965,5.32217 7.6699884,5.441232 7.6154843,5.4986469 7.5607153,5.5560619 6.2751051,6.7091156 5.8528301,7.2303448 5.6292572,7.5168885 5.6361364,7.6700823 5.8657951,7.8507927 c 0.5154083,0.4040187 1.8923,1.3252979 2.0970875,1.381125 0.2614083,0.070908 0.4143375,0.012171 0.5246683,-0.2016125 z"
     style="opacity:0.2;fill:#000000;stroke-width:0.264583"
     id="path1786" />
  <path
     d="M 8.4875509,8.7657219 C 8.5880926,8.5704594 9.1664718,5.2330052 9.2492863,4.3704636 9.3387155,3.5153303 8.8722551,3.6743448 8.4431009,3.8188073 7.3903239,4.1744073 4.0610718,5.6155927 3.1498468,6.091049 2.9257448,6.184182 2.8286427,6.341874 2.9918906,6.4786636 c 0.1404937,0.1156229 0.6548437,0.274902 1.0694458,0.3556 0.3537479,0.1068916 0.6283854,0.0045 0.8818562,-0.1386417 0.6090709,-0.3611563 2.4243771,-1.5099771 2.5222729,-1.5740062 0.097631,-0.064029 0.2045229,0.055033 0.1500188,0.1124479 -0.054769,0.057415 -1.3403792,1.2104687 -1.7626542,1.7316979 -0.2235729,0.2865437 -0.2166937,0.4397375 0.012965,0.6204479 0.5154083,0.4040187 1.8923,1.3252979 2.0970875,1.381125 0.2614083,0.070908 0.4143375,0.012171 0.5246683,-0.2016125 z"
     style="fill:#ffffff;stroke-width:0.264583"
     id="path304"
     sodipodi:nodetypes="ccccccccccccc" />
</svg>
