<?xml version="1.0" encoding="UTF-8" standalone="no"?>
<!-- Created with Inkscape (http://www.inkscape.org/) -->

<svg
   width="48"
   height="48"
   viewBox="0 0 12.7 12.7"
   version="1.1"
   id="svg5"
   inkscape:version="1.1.2 (0a00cf5339, 2022-02-04, custom)"
   sodipodi:docname="weather.svg"
   xmlns:inkscape="http://www.inkscape.org/namespaces/inkscape"
   xmlns:sodipodi="http://sodipodi.sourceforge.net/DTD/sodipodi-0.dtd"
   xmlns="http://www.w3.org/2000/svg"
   xmlns:svg="http://www.w3.org/2000/svg">
  <sodipodi:namedview
     id="namedview7"
     pagecolor="#ffffff"
     bordercolor="#666666"
     borderopacity="1.0"
     inkscape:pageshadow="2"
     inkscape:pageopacity="0.0"
     inkscape:pagecheckerboard="0"
     inkscape:document-units="px"
     showgrid="false"
     units="px"
     height="48px"
     inkscape:zoom="12.53125"
     inkscape:cx="12.249377"
     inkscape:cy="24.01995"
     inkscape:window-width="1920"
     inkscape:window-height="1017"
     inkscape:window-x="0"
     inkscape:window-y="0"
     inkscape:window-maximized="1"
     inkscape:current-layer="svg5"
     showguides="false" />
  <defs
     id="defs2" />
  <rect
     style="opacity:1;fill:#ffce51;fill-opacity:1;stroke-width:0.264583"
     id="rect1040"
     width="10.583333"
     height="10.318749"
     x="1.0583333"
     y="1.0583334"
     ry="5.1593747" />
  <path
     id="rect7230"
     style="opacity:0.4;fill:#000000;fill-opacity:1;stroke-width:0.264583"
     d="m 6.2177083,1.0583333 c -2.8582937,0 -5.159375,2.3010813 -5.159375,5.159375 0,2.8582937 2.3010813,5.1593757 5.159375,5.1593757 h 0.2645833 c 2.8582937,0 5.1593754,-2.301082 5.1593754,-5.1593757 0,-2.8582937 -2.3010817,-5.159375 -5.1593754,-5.159375 z m 0,0.2645834 h 0.2645833 c 2.7117145,0 4.8947914,2.183077 4.8947914,4.8947916 0,2.7117145 -2.1830769,4.8947917 -4.8947914,4.8947917 H 6.2177083 c -2.7117146,0 -4.8947916,-2.1830772 -4.8947916,-4.8947917 0,-2.7117146 2.183077,-4.8947916 4.8947916,-4.8947916 z" />
  <path
     d="M 8.4666678,5.8208332 C 7.4191427,5.821627 6.4951675,6.5069137 6.1903199,7.5091024 5.9249322,6.962124 5.3704634,6.6147526 4.7625012,6.6145832 c -0.8767524,0 -1.5875,0.7107476 -1.5875,1.5875 0.00132,0.029853 0.00331,0.059664 0.00619,0.0894 -0.6205511,0.2154952 -1.0645246,0.8023489 -1.0645246,1.4980999 0,0.8794749 0.708025,1.5874999 1.5875,1.5874999 h 6.0854166 c 0.8794758,0 1.5875008,-0.708025 1.5875008,-1.5874999 0,-0.487172 -0.217903,-0.9210596 -0.561205,-1.2118128 0.02058,-0.1241849 0.0313,-0.249809 0.03204,-0.3756872 0,-1.3151273 -1.0661231,-2.38125 -2.3812512,-2.3812499 z"
     style="fill:#ffffff;fill-opacity:1;stroke-width:0.264583"
     id="path1055" />
  <path
     d="M 8.4666736,5.8208332 C 7.4189395,5.8210978 6.4945277,6.5062919 6.1894049,7.5086103 5.9240199,6.9621214 5.3700247,6.6150145 4.762507,6.6145832 c -0.8767524,0 -1.5875,0.7107476 -1.5875,1.5875 1.985e-4,0.030186 0.00132,0.060362 0.00317,0.090488 -0.6365451,0.2220119 -1.062601,0.822862 -1.0615083,1.497013 0,0.8794738 0.708025,1.5874998 1.5875,1.5874998 h 6.0854166 c 0.8794747,0 1.5874997,-0.708025 1.5874997,-1.5874998 0.0011,-0.467222 -0.204661,-0.910971 -0.56171,-1.2123213 0.02074,-0.1240049 0.03162,-0.2494571 0.03254,-0.3751792 0,-1.3151273 -1.0661217,-2.38125 -2.3812494,-2.38125 z m 0,0.2645834 c 1.1690037,0 2.1166664,0.9476634 2.1166664,2.1166666 -5.29e-4,0.1309767 -0.01318,0.2616253 -0.03784,0.3902604 0.348196,0.1807581 0.566798,0.5403376 0.567002,0.9326566 0,0.5863158 -0.472017,1.0583328 -1.058334,1.0583328 H 3.4395903 c -0.5863166,0 -1.0583333,-0.472017 -1.0583333,-1.0583328 0,-0.586317 0.4720167,-1.0583337 1.0583333,-1.0583337 h 0.027781 C 3.4492476,8.3796292 3.439937,8.2909858 3.4395903,8.2020832 c 0,-0.7306257 0.5922884,-1.3229166 1.3229167,-1.3229166 0.7306257,0 1.3229166,0.5922909 1.3229166,1.3229166 -8.46e-5,0.088876 -0.00913,0.1775195 -0.026988,0.2645833 h 0.3106209 c -0.01188,-0.087709 -0.01823,-0.1760775 -0.01905,-0.2645833 0,-1.1690032 0.9476634,-2.1166666 2.1166671,-2.1166666 z"
     style="opacity:0.4;fill:#000000;fill-opacity:1;stroke-width:0.264583"
     id="path1274" />
</svg>
