<?xml version="1.0" encoding="UTF-8" standalone="no"?>
<!-- Created with Inkscape (http://www.inkscape.org/) -->

<svg
   width="48"
   height="48"
   viewBox="0 0 12.7 12.7"
   version="1.1"
   id="svg5"
   inkscape:version="1.2 (dc2aedaf03, 2022-05-15)"
   sodipodi:docname="winecfg.svg"
   xmlns:inkscape="http://www.inkscape.org/namespaces/inkscape"
   xmlns:sodipodi="http://sodipodi.sourceforge.net/DTD/sodipodi-0.dtd"
   xmlns="http://www.w3.org/2000/svg"
   xmlns:svg="http://www.w3.org/2000/svg">
  <sodipodi:namedview
     id="namedview7"
     pagecolor="#ffffff"
     bordercolor="#666666"
     borderopacity="1.0"
     inkscape:pageshadow="2"
     inkscape:pageopacity="0.0"
     inkscape:pagecheckerboard="0"
     inkscape:document-units="px"
     showgrid="false"
     units="px"
     height="48px"
     inkscape:zoom="8.5833333"
     inkscape:cx="9.7864078"
     inkscape:cy="21.087379"
     inkscape:window-width="1846"
     inkscape:window-height="1015"
     inkscape:window-x="0"
     inkscape:window-y="0"
     inkscape:window-maximized="1"
     inkscape:current-layer="svg5"
     inkscape:showpageshadow="2"
     inkscape:deskcolor="#d1d1d1" />
  <defs
     id="defs2" />
  <rect
     style="opacity:1;fill:#cf3b00;fill-opacity:1;stroke-width:0.264583"
     id="rect1162"
     width="10.583333"
     height="10.31875"
     x="1.0583333"
     y="1.3229166"
     ry="0.92604166" />
  <path
     id="rect287"
     style="fill:#eeeeee;fill-opacity:1;stroke-width:0.320691"
     d="m 1.984375,1.3229167 c -0.5130266,0 -0.9260417,0.4130151 -0.9260417,0.9260416 V 6.3738125 C 1.9804706,5.9948349 2.885389,5.8684169 3.7041667,5.868417 4.5182669,5.8684169 5.487414,5.9948349 6.35,6.3738125 c 0.818777,0.357593 1.8270557,0.5053957 2.6458333,0.5053955 0.8141,2e-7 1.7832487,-0.1264177 2.6458337,-0.5053955 V 2.2489583 c 0,-0.5130265 -0.413015,-0.9260416 -0.926042,-0.9260416 z"
     sodipodi:nodetypes="sscscscsss" />
  <path
     id="rect1316"
     style="opacity:0.5;fill:#000000;stroke-width:0.264583"
     d="m 1.984375,1.3229167 c -0.5130271,0 -0.9260417,0.4130146 -0.9260417,0.9260417 v 8.4666666 c 0,0.513027 0.4130146,0.926042 0.9260417,0.926042 h 8.73125 c 0.513027,0 0.926042,-0.413015 0.926042,-0.926042 V 2.2489584 c 0,-0.5130271 -0.413015,-0.9260417 -0.926042,-0.9260417 z M 2.1166666,1.5875 h 8.4666664 c 0.439738,0 0.79375,0.3540125 0.79375,0.79375 v 7.672917 c 0,0.439737 -0.354012,0.79375 -0.79375,0.79375 H 2.1166666 c -0.4397375,0 -0.7937499,-0.354013 -0.7937499,-0.79375 V 2.38125 c 0,-0.4397375 0.3540124,-0.79375 0.7937499,-0.79375 z"
     sodipodi:nodetypes="ssssssssssssssssss" />
  <path
     id="rect845"
     style="fill:#552d5d;fill-opacity:1;stroke-width:0.45357"
     d="m 9.2604169,5.55625 c 1.7589491,0 3.1749981,1.4160499 3.1749981,3.1749992 v 0.529168 c 0,1.7589498 -1.416048,3.1749988 -3.1749981,3.1749988 -1.7589501,0 -3.1750002,-1.416049 -3.1750002,-3.1749988 v -0.529168 c 0,-1.7589493 1.4160501,-3.1749992 3.1750002,-3.1749992 z"
     sodipodi:nodetypes="sssssss" />
  <circle
     style="fill:#aa5abb;fill-opacity:1;stroke-width:0.242534"
     id="path1732"
     cx="9.260417"
     cy="8.7312498"
     r="2.9104166" />
  <path
     d="m 8.7973959,6.8791667 -0.040746,0.4878917 c -0.1547415,0.057306 -0.2986114,0.140513 -0.42545,0.2460625 L 7.8877584,7.4041 7.4247375,8.2063167 7.8274334,8.4857172 c -0.01434,0.08107 -0.021775,0.163207 -0.022225,0.245533 3.97e-5,0.08265 0.00712,0.165145 0.021167,0.246592 L 7.4247375,9.2561832 7.8877584,10.058399 8.3301417,9.8499082 c 0.1272752,0.10509 0.2715022,0.1877608 0.4265083,0.2444748 l 0.040746,0.48895 h 0.9260416 l 0.040746,-0.487892 C 9.9189251,10.038131 10.062791,9.9549282 10.189633,9.8493792 l 0.443178,0.2090198 0.46302,-0.8022158 -0.402431,-0.2794 c 0.01434,-0.08107 0.02177,-0.163207 0.02222,-0.245533 -4e-5,-0.08265 -0.0071,-0.165145 -0.02117,-0.246592 L 11.096097,8.2063167 10.633076,7.4041 10.19069,7.6125917 C 10.063415,7.5075018 9.9191895,7.4248307 9.7641834,7.3681167 l -0.040746,-0.48895 z m 0.4630208,1.3229166 c 0.2922508,0 0.5291667,0.2369159 0.5291667,0.5291669 0,0.29225 -0.2369159,0.529166 -0.5291667,0.529166 -0.2922508,0 -0.5291667,-0.236916 -0.5291667,-0.529166 0,-0.292251 0.2369159,-0.5291669 0.5291667,-0.5291669 z"
     style="fill:#fafafb;stroke-width:0.264583"
     id="path1697" />
</svg>
