<?xml version="1.0" encoding="UTF-8" standalone="no"?>
<!-- Created with Inkscape (http://www.inkscape.org/) -->

<svg
   width="48"
   height="48"
   viewBox="0 0 12.7 12.7"
   version="1.1"
   id="svg5"
   inkscape:version="1.2 (dc2aedaf03, 2022-05-15)"
   sodipodi:docname="youtube.svg"
   xmlns:inkscape="http://www.inkscape.org/namespaces/inkscape"
   xmlns:sodipodi="http://sodipodi.sourceforge.net/DTD/sodipodi-0.dtd"
   xmlns="http://www.w3.org/2000/svg"
   xmlns:svg="http://www.w3.org/2000/svg">
  <sodipodi:namedview
     id="namedview7"
     pagecolor="#ffffff"
     bordercolor="#666666"
     borderopacity="1.0"
     inkscape:pageshadow="2"
     inkscape:pageopacity="0.0"
     inkscape:pagecheckerboard="0"
     inkscape:document-units="px"
     showgrid="false"
     units="px"
     height="48px"
     inkscape:zoom="17.291667"
     inkscape:cx="24"
     inkscape:cy="24"
     inkscape:window-width="1920"
     inkscape:window-height="1009"
     inkscape:window-x="0"
     inkscape:window-y="0"
     inkscape:window-maximized="1"
     inkscape:current-layer="svg5"
     inkscape:showpageshadow="2"
     inkscape:deskcolor="#d1d1d1" />
  <defs
     id="defs2" />
  <rect
     style="opacity:1;fill:#cf3b00;fill-opacity:1;stroke-width:0.264583"
     id="rect1162"
     width="10.583333"
     height="10.31875"
     x="1.0583333"
     y="1.3229166"
     ry="0.92604166" />
  <path
     id="rect1316"
     style="opacity:0.5;fill:#000000;stroke-width:0.264583"
     d="m 1.984375,1.3229167 c -0.5130271,0 -0.9260417,0.4130146 -0.9260417,0.9260417 v 8.4666666 c 0,0.513027 0.4130146,0.926042 0.9260417,0.926042 h 8.73125 c 0.513027,0 0.926042,-0.413015 0.926042,-0.926042 V 2.2489584 c 0,-0.5130271 -0.413015,-0.9260417 -0.926042,-0.9260417 z M 2.1166666,1.5875 h 8.4666664 c 0.439738,0 0.79375,0.3540125 0.79375,0.79375 v 7.672917 c 0,0.439737 -0.354012,0.79375 -0.79375,0.79375 H 2.1166666 c -0.4397375,0 -0.7937499,-0.354013 -0.7937499,-0.79375 V 2.38125 c 0,-0.4397375 0.3540124,-0.79375 0.7937499,-0.79375 z"
     sodipodi:nodetypes="ssssssssssssssssss" />
  <path
     id="path11557"
     style="fill:#ffffff;stroke-width:0.112919"
     d="m 6.350332,3.96875 c -1.1375824,0 -2.1948205,0.039395 -2.4287924,0.090434 C 3.7647869,4.0933778 3.6403102,4.1583018 3.5272485,4.264856 3.4372898,4.3496372 3.3876416,4.4262105 3.3334618,4.5656128 3.2739703,4.7186876 3.2425305,4.863105 3.2208072,5.0803101 3.1793815,5.494625 3.1721498,5.6994377 3.1758487,6.323645 c 0.00314,0.5307873 0.00542,0.5920914 0.035657,0.9327596 0.026797,0.3018755 0.05593,0.4450383 0.1276408,0.6247681 0.078433,0.1965856 0.18698,0.31823 0.361735,0.40566 0.1058083,0.052937 0.1996422,0.07796 0.3906738,0.1033528 0.2604958,0.034626 0.6867741,0.052161 1.7363281,0.072347 0.8446014,0.016246 2.3104344,-0.018405 2.7905274,-0.066146 C 8.7733424,8.38098 8.8694557,8.356733 8.9703271,8.3085368 9.0699442,8.2609402 9.1890327,8.1666968 9.2493798,8.0873617 9.337338,7.9717252 9.4153279,7.7681849 9.455052,7.5509603 9.470505,7.4664693 9.494021,7.2306241 9.51293,6.9654663 c 0.016157,-0.226661 0.016161,-1.2708104 0,-1.497583 C 9.4788972,4.9903523 9.4555171,4.8290858 9.3956241,4.6467448 9.3374979,4.4697806 9.2889199,4.38244 9.194086,4.2865601 9.0729187,4.1640557 8.9488478,4.0960947 8.779641,4.0591838 8.5456696,4.0081438 7.4879142,3.96875 6.350332,3.96875 Z M 5.55625,5.0270833 7.6729167,6.2177083 5.55625,7.4083333 Z"
     sodipodi:nodetypes="ssscccccssssssscssssscccc" />
</svg>
