<?xml version="1.0" encoding="UTF-8" standalone="no"?>
<!-- Created with Inkscape (http://www.inkscape.org/) -->

<svg
   width="64"
   height="64"
   viewBox="0 0 16.933333 16.933333"
   version="1.1"
   id="svg5"
   inkscape:version="1.2 (dc2aedaf03, 2022-05-15)"
   sodipodi:docname="audio-input-microphone.svg"
   xmlns:inkscape="http://www.inkscape.org/namespaces/inkscape"
   xmlns:sodipodi="http://sodipodi.sourceforge.net/DTD/sodipodi-0.dtd"
   xmlns="http://www.w3.org/2000/svg"
   xmlns:svg="http://www.w3.org/2000/svg">
  <sodipodi:namedview
     id="namedview7"
     pagecolor="#ffffff"
     bordercolor="#666666"
     borderopacity="1.0"
     inkscape:pageshadow="2"
     inkscape:pageopacity="0.0"
     inkscape:pagecheckerboard="0"
     inkscape:document-units="px"
     showgrid="false"
     units="px"
     height="48px"
     inkscape:zoom="7.9328542"
     inkscape:cx="19.097792"
     inkscape:cy="38.132555"
     inkscape:window-width="1920"
     inkscape:window-height="1010"
     inkscape:window-x="0"
     inkscape:window-y="0"
     inkscape:window-maximized="1"
     inkscape:current-layer="svg5"
     showguides="false"
     inkscape:showpageshadow="2"
     inkscape:deskcolor="#d1d1d1" />
  <defs
     id="defs2" />
  <rect
     style="fill:#565656;fill-opacity:1;stroke-width:0.529167"
     id="rect1581"
     width="10.054167"
     height="1.3229166"
     x="3.4395833"
     y="8.9958334"
     ry="0.52916664" />
  <rect
     style="opacity:1;fill:#acacac;fill-opacity:1;stroke-width:0.529167"
     id="rect20137"
     width="9.5249996"
     height="0.52916664"
     x="3.7041667"
     y="9.260416"
     ry="0.26458332" />
  <rect
     style="opacity:1;fill:#909090;fill-opacity:1;stroke-width:0.183173"
     id="rect1319"
     width="4.7624998"
     height="11.641666"
     x="6.0854168"
     y="1.0583333"
     ry="2.3812499" />
  <rect
     style="opacity:1;fill:#343434;fill-opacity:1;stroke-width:2.11666"
     id="rect24547"
     width="4.2333331"
     height="10.583333"
     x="6.3499999"
     y="1.8520833"
     ry="2.1166666" />
  <path
     d="m 4.7624999,8.4666665 c -0.2931583,0 -0.5291667,0.2360084 -0.5291667,0.5291667 v 2.1166658 c 0,2.165882 1.6106087,3.940739 3.7041667,4.199745 v 0.562755 c 0,0.293159 0.2360083,0.529167 0.5291666,0.529167 0.2931583,0 0.5291667,-0.236008 0.5291667,-0.529167 V 15.312244 C 11.089391,15.053238 12.7,13.278381 12.7,11.112499 V 8.9958332 c 0,-0.2931583 -0.236008,-0.5291667 -0.529167,-0.5291667 -0.293158,0 -0.529166,0.2360084 -0.529166,0.5291667 v 1.3229158 c 0,1.758948 -1.416053,3.175 -3.1750005,3.175 -1.7589473,0 -3.1749999,-1.416052 -3.1749999,-3.175 V 8.9958332 c 0,-0.2931583 -0.2360084,-0.5291667 -0.5291667,-0.5291667 z"
     style="fill:#444444;fill-opacity:1;stroke-width:0.264583"
     id="path969" />
  <path
     d="m 4.7624998,8.7312498 c -0.1465791,0 -0.2645833,0.118004 -0.2645833,0.264583 V 10.31875 c 0.0046,2.085808 1.6229933,3.81213 3.7041666,3.951179 v 1.075904 c 0,0.146579 0.1180042,0.264583 0.2645834,0.264583 0.1465791,0 0.2645833,-0.118004 0.2645833,-0.264583 V 14.269929 C 10.812423,14.13088 12.430821,12.404558 12.435416,10.31875 V 8.9958328 c 0,-0.146579 -0.118004,-0.264583 -0.264584,-0.264583 -0.146579,0 -0.264583,0.118004 -0.264583,0.264583 V 10.31875 c 0,1.899629 -1.539954,3.439583 -3.4395825,3.439583 -1.8996295,0 -3.4395833,-1.539954 -3.4395833,-3.439583 V 8.9958328 c 0,-0.146579 -0.1180042,-0.264583 -0.2645834,-0.264583 z"
     style="fill:#888888;fill-opacity:1;stroke-width:0.264583"
     id="path1852" />
</svg>
