<?xml version="1.0" encoding="UTF-8" standalone="no"?>
<!-- Created with Inkscape (http://www.inkscape.org/) -->

<svg
   width="64"
   height="64"
   viewBox="0 0 16.933333 16.933333"
   version="1.1"
   id="svg5"
   inkscape:version="1.2 (dc2aedaf03, 2022-05-15)"
   sodipodi:docname="battery.svg"
   xmlns:inkscape="http://www.inkscape.org/namespaces/inkscape"
   xmlns:sodipodi="http://sodipodi.sourceforge.net/DTD/sodipodi-0.dtd"
   xmlns="http://www.w3.org/2000/svg"
   xmlns:svg="http://www.w3.org/2000/svg">
  <sodipodi:namedview
     id="namedview7"
     pagecolor="#ffffff"
     bordercolor="#666666"
     borderopacity="1.0"
     inkscape:pageshadow="2"
     inkscape:pageopacity="0.0"
     inkscape:pagecheckerboard="0"
     inkscape:document-units="px"
     showgrid="false"
     units="px"
     height="48px"
     inkscape:zoom="8.6458335"
     inkscape:cx="16.077108"
     inkscape:cy="35.913252"
     inkscape:window-width="1920"
     inkscape:window-height="1010"
     inkscape:window-x="0"
     inkscape:window-y="0"
     inkscape:window-maximized="1"
     inkscape:current-layer="svg5"
     inkscape:showpageshadow="2"
     inkscape:deskcolor="#d1d1d1" />
  <defs
     id="defs2" />
  <path
     d="m 7.1437499,0.26458333 c -0.1465792,0 -0.2645833,0.1180042 -0.2645833,0.2645834 V 1.0583333 h -3.175 c -0.5863166,0 -1.0583333,0.4720167 -1.0583333,1.0583334 V 14.816667 c 0,0.586317 0.4720167,1.058333 1.0583333,1.058333 h 9.5249994 c 0.586317,0 1.058334,-0.472016 1.058334,-1.058333 V 2.1166667 c 0,-0.5863167 -0.472017,-1.0583334 -1.058334,-1.0583334 H 9.7895833 V 0.52916673 c 0,-0.1465792 -0.118004,-0.2645834 -0.264583,-0.2645834 z"
     style="fill:#565656;stroke-width:0.264583"
     id="path356" />
  <rect
     style="opacity:1;fill:#7e7e7e;fill-opacity:1;stroke-width:0.529167;stroke-linecap:round;stroke-linejoin:round"
     id="rect977"
     width="2.3812499"
     height="1.5875"
     x="7.1437502"
     y="0.52916664"
     ry="0.26458332" />
  <rect
     style="fill:#7f540d;fill-opacity:1;stroke-width:0.529167"
     id="rect26675"
     width="11.1125"
     height="5.5562501"
     x="2.9104166"
     y="2.1166666"
     ry="0.92604166" />
  <rect
     style="fill:#faa41a;fill-opacity:1;stroke-width:0.529167"
     id="rect15360"
     width="11.1125"
     height="5.5562501"
     x="2.9104166"
     y="1.3229166"
     ry="0.92604166" />
  <rect
     style="fill:#7e7e7e;fill-opacity:1;stroke-width:0.529167"
     id="rect17074"
     width="11.1125"
     height="7.1437502"
     x="2.9104168"
     y="7.9375"
     ry="0.92604166" />
</svg>
