<?xml version="1.0" encoding="UTF-8" standalone="no"?>
<!-- Created with Inkscape (http://www.inkscape.org/) -->

<svg
   width="64"
   height="64"
   viewBox="0 0 16.933333 16.933333"
   version="1.1"
   id="svg5"
   inkscape:version="1.2 (dc2aedaf03, 2022-05-15)"
   sodipodi:docname="computer-laptop.svg"
   xmlns:inkscape="http://www.inkscape.org/namespaces/inkscape"
   xmlns:sodipodi="http://sodipodi.sourceforge.net/DTD/sodipodi-0.dtd"
   xmlns="http://www.w3.org/2000/svg"
   xmlns:svg="http://www.w3.org/2000/svg">
  <sodipodi:namedview
     id="namedview7"
     pagecolor="#ffffff"
     bordercolor="#666666"
     borderopacity="1.0"
     inkscape:pageshadow="2"
     inkscape:pageopacity="0.0"
     inkscape:pagecheckerboard="0"
     inkscape:document-units="px"
     showgrid="false"
     units="px"
     height="48px"
     inkscape:zoom="9.02666"
     inkscape:cx="22.433547"
     inkscape:cy="29.412872"
     inkscape:window-width="1920"
     inkscape:window-height="1010"
     inkscape:window-x="0"
     inkscape:window-y="0"
     inkscape:window-maximized="1"
     inkscape:current-layer="svg5"
     inkscape:showpageshadow="2"
     inkscape:deskcolor="#d1d1d1"
     showguides="false" />
  <defs
     id="defs2" />
  <rect
     style="opacity:1;fill:#bfbfbf;fill-opacity:1;stroke-width:0.264583"
     id="rect2175"
     width="13.758332"
     height="9.7895832"
     x="1.5875"
     y="3.7041667"
     ry="1.0583333" />
  <path
     d="M 2.6458333,3.7041667 C 2.0595166,3.7041667 1.5875,4.1761834 1.5875,4.7625001 v 7.6729159 c 0,0.586317 0.4720166,1.058334 1.0583333,1.058334 H 14.2875 c 0.586316,0 1.058333,-0.472017 1.058333,-1.058334 V 4.7625001 c 0,-0.5863167 -0.472017,-1.0583334 -1.058333,-1.0583334 z m 0,0.2645834 H 14.2875 c 0.439737,0 0.79375,0.3540125 0.79375,0.79375 V 11.90625 c 0,0.439737 -0.354013,0.79375 -0.79375,0.79375 H 2.6458333 c -0.4397375,0 -0.79375,-0.354013 -0.79375,-0.79375 V 4.7625001 c 0,-0.4397375 0.3540125,-0.79375 0.79375,-0.79375 z"
     style="opacity:0.5;fill:#000000;fill-opacity:1;stroke-width:0.264583"
     id="path1778" />
  <rect
     style="fill:#222222;fill-opacity:1;stroke-width:0.734567"
     id="rect1437"
     width="12.170834"
     height="7.6729169"
     x="2.3812499"
     y="4.4979172"
     ry="0.26458332" />
  <rect
     style="opacity:1;fill:#bfbfbf;fill-opacity:1;stroke-width:0.264583"
     id="rect1162"
     width="14.816667"
     height="2.1166666"
     x="1.0583333"
     y="13.229163"
     ry="0.52916664" />
  <path
     d="m 1.5875001,13.229167 c -0.2931583,0 -0.5291668,0.236008 -0.5291668,0.529166 v 1.058334 c 0,0.293158 0.2360085,0.529166 0.5291668,0.529166 H 15.345833 c 0.293159,0 0.529167,-0.236008 0.529167,-0.529166 v -1.058334 c 0,-0.293158 -0.236008,-0.529166 -0.529167,-0.529166 z m 0,0.264583 H 15.345833 c 0.146579,0 0.264584,0.118004 0.264584,0.264583 V 14.2875 c 0,0.146579 -0.118005,0.264583 -0.264584,0.264583 H 1.5875001 c -0.1465792,0 -0.2645834,-0.118004 -0.2645834,-0.264583 v -0.529167 c 0,-0.146579 0.1180042,-0.264583 0.2645834,-0.264583 z"
     style="opacity:0.5;fill:#000000;fill-opacity:1;stroke-width:0.264583"
     id="path1698" />
</svg>
