<?xml version="1.0" encoding="UTF-8" standalone="no"?>
<!-- Created with Inkscape (http://www.inkscape.org/) -->

<svg
   width="64"
   height="64"
   viewBox="0 0 16.933333 16.933333"
   version="1.1"
   id="svg5"
   inkscape:version="1.2 (dc2aedaf03, 2022-05-15)"
   sodipodi:docname="drive-harddisk-usb.svg"
   xmlns:inkscape="http://www.inkscape.org/namespaces/inkscape"
   xmlns:sodipodi="http://sodipodi.sourceforge.net/DTD/sodipodi-0.dtd"
   xmlns="http://www.w3.org/2000/svg"
   xmlns:svg="http://www.w3.org/2000/svg">
  <sodipodi:namedview
     id="namedview7"
     pagecolor="#ffffff"
     bordercolor="#666666"
     borderopacity="1.0"
     inkscape:pageshadow="2"
     inkscape:pageopacity="0.0"
     inkscape:pagecheckerboard="0"
     inkscape:document-units="px"
     showgrid="false"
     units="px"
     height="48px"
     inkscape:zoom="12.46875"
     inkscape:cx="32"
     inkscape:cy="32"
     inkscape:window-width="1920"
     inkscape:window-height="1009"
     inkscape:window-x="0"
     inkscape:window-y="0"
     inkscape:window-maximized="1"
     inkscape:current-layer="svg5"
     inkscape:showpageshadow="2"
     inkscape:deskcolor="#d1d1d1" />
  <defs
     id="defs2" />
  <rect
     style="opacity:1;fill:#565656;fill-opacity:1;stroke-width:0.264583"
     id="rect845"
     width="12.170833"
     height="15.875"
     x="2.3812499"
     y="0.79374999"
     ry="1.190625" />
  <rect
     style="opacity:1;fill:#acacac;fill-opacity:1;stroke-width:0.264583"
     id="rect1249"
     width="11.641666"
     height="14.816667"
     x="2.6458333"
     y="1.0583333"
     ry="1.0583333" />
  <path
     d="M 8.4666665,3.1749999 6.8791666,5.2916666 h 1.0583333 v 3.175 h -1.5875 V 7.7964241 C 6.6667696,7.6139463 6.8791666,7.2724327 6.8791666,6.8791666 c 0,-0.5863166 -0.4720167,-1.0583334 -1.0583334,-1.0583334 -0.5863166,0 -1.0583333,0.4720168 -1.0583333,1.0583334 0,0.3932661 0.2123969,0.7347797 0.5291667,0.9172575 v 1.1994094 c 0,0.293158 0.2360083,0.5291665 0.5291666,0.5291665 h 2.1166667 v 0.670761 c -0.3275092,0.189087 -0.5292355,0.538562 -0.5291667,0.916739 0,0.584502 0.4738318,1.058333 1.0583333,1.058333 C 9.051168,12.170833 9.525,11.697002 9.525,11.1125 9.5250685,10.734323 9.3233425,10.384848 8.995833,10.195761 V 9.525 H 11.1125 c 0.293158,0 0.529167,-0.2360085 0.529167,-0.5291665 V 7.9374999 c 0.293158,0 0.529166,-0.2360083 0.529166,-0.5291666 V 6.35 c 0,-0.2931584 -0.236008,-0.5291668 -0.529166,-0.5291668 h -1.058334 c -0.293158,0 -0.529166,0.2360084 -0.529166,0.5291668 v 1.0583333 c 0,0.2931583 0.236008,0.5291666 0.529166,0.5291666 v 0.5291667 h -1.5875 v -3.175 h 1.058334 z"
     id="path27846"
     style="fill:#444444;fill-opacity:1;stroke-width:0.264583" />
</svg>
