<?xml version="1.0" encoding="UTF-8" standalone="no"?>
<!-- Created with Inkscape (http://www.inkscape.org/) -->

<svg
   width="64"
   height="64"
   viewBox="0 0 16.933333 16.933333"
   version="1.1"
   id="svg5"
   inkscape:version="1.2 (dc2aedaf03, 2022-05-15)"
   sodipodi:docname="input-touchpad.svg"
   xmlns:inkscape="http://www.inkscape.org/namespaces/inkscape"
   xmlns:sodipodi="http://sodipodi.sourceforge.net/DTD/sodipodi-0.dtd"
   xmlns="http://www.w3.org/2000/svg"
   xmlns:svg="http://www.w3.org/2000/svg">
  <sodipodi:namedview
     id="namedview7"
     pagecolor="#ffffff"
     bordercolor="#666666"
     borderopacity="1.0"
     inkscape:pageshadow="2"
     inkscape:pageopacity="0.0"
     inkscape:pagecheckerboard="0"
     inkscape:document-units="px"
     showgrid="false"
     units="px"
     height="48px"
     inkscape:zoom="12.96875"
     inkscape:cx="32"
     inkscape:cy="32"
     inkscape:window-width="1920"
     inkscape:window-height="1009"
     inkscape:window-x="0"
     inkscape:window-y="0"
     inkscape:window-maximized="1"
     inkscape:current-layer="svg5"
     inkscape:showpageshadow="2"
     inkscape:deskcolor="#d1d1d1" />
  <defs
     id="defs2" />
  <rect
     style="opacity:1;fill:#aaaaaa;fill-opacity:1;stroke-width:0.264583"
     id="rect845"
     width="14.816667"
     height="11.641666"
     x="1.0583332"
     y="3.7041667"
     ry="1.0583333" />
  <path
     d="m 1.0583333,11.1125 v 3.175 c 0,0.586317 0.4720167,1.058334 1.0583333,1.058334 H 14.816667 c 0.586316,0 1.058333,-0.472017 1.058333,-1.058334 v -3.175 H 2.1166666 Z"
     style="fill:#dedede;stroke-width:0.264583"
     id="path304" />
  <rect
     style="opacity:0.5;fill:#000000;fill-opacity:1;stroke-width:0.529167"
     id="rect2095"
     width="0.52916664"
     height="4.2333331"
     x="8.2020836"
     y="11.1125" />
  <path
     id="rect1249"
     style="opacity:0.5;fill:#000000;fill-opacity:1;stroke-width:0.264583"
     d="M 2.1166666 3.7041666 C 1.5303506 3.7041666 1.0583333 4.1761839 1.0583333 4.7624999 L 1.0583333 14.2875 C 1.0583333 14.873816 1.5303506 15.345833 2.1166666 15.345833 L 14.816666 15.345833 C 15.402982 15.345833 15.875 14.873816 15.875 14.2875 L 15.875 4.7624999 C 15.875 4.1761839 15.402982 3.7041666 14.816666 3.7041666 L 2.1166666 3.7041666 z M 2.1166666 3.9687499 L 14.816666 3.9687499 C 15.256403 3.9687499 15.610416 4.3227629 15.610416 4.7624999 L 15.610416 13.758333 C 15.610416 14.19807 15.256403 14.552083 14.816666 14.552083 L 2.1166666 14.552083 C 1.6769296 14.552083 1.3229166 14.19807 1.3229166 13.758333 L 1.3229166 4.7624999 C 1.3229166 4.3227629 1.6769296 3.9687499 2.1166666 3.9687499 z " />
</svg>
