<?xml version="1.0" encoding="UTF-8" standalone="no"?>
<!-- Created with Inkscape (http://www.inkscape.org/) -->

<svg
   width="64"
   height="64"
   viewBox="0 0 16.933333 16.933333"
   version="1.1"
   id="svg5"
   inkscape:version="1.2 (dc2aedaf03, 2022-05-15)"
   sodipodi:docname="network-wired.svg"
   xmlns:inkscape="http://www.inkscape.org/namespaces/inkscape"
   xmlns:sodipodi="http://sodipodi.sourceforge.net/DTD/sodipodi-0.dtd"
   xmlns="http://www.w3.org/2000/svg"
   xmlns:svg="http://www.w3.org/2000/svg">
  <sodipodi:namedview
     id="namedview7"
     pagecolor="#ffffff"
     bordercolor="#666666"
     borderopacity="1.0"
     inkscape:pageshadow="2"
     inkscape:pageopacity="0.0"
     inkscape:pagecheckerboard="0"
     inkscape:document-units="px"
     showgrid="false"
     units="px"
     height="48px"
     inkscape:zoom="12.296875"
     inkscape:cx="22.526048"
     inkscape:cy="35.659466"
     inkscape:window-width="1920"
     inkscape:window-height="1014"
     inkscape:window-x="0"
     inkscape:window-y="0"
     inkscape:window-maximized="1"
     inkscape:current-layer="svg5"
     inkscape:showpageshadow="2"
     inkscape:deskcolor="#d1d1d1" />
  <defs
     id="defs2" />
  <path
     id="rect845"
     style="opacity:1;fill:#dedede;fill-opacity:1;stroke-width:0.264583"
     d="m 2.1166666,3.1749999 c -0.586316,0 -1.0583333,0.4720173 -1.0583333,1.0583333 v 9.5249998 c 0,0.586316 0.4720173,1.058333 1.0583333,1.058333 h 2.1166666 l 1.0583334,1.058333 H 11.641666 L 12.7,14.816666 h 2.116666 c 0.586316,0 1.058334,-0.472017 1.058334,-1.058333 V 4.2333332 c 0,-0.586316 -0.472018,-1.0583333 -1.058334,-1.0583333 z" />
  <path
     d="M 2.38125,4.4979166 V 12.964583 H 4.4979167 L 5.55625,14.022916 h 5.820833 l 1.058333,-1.058333 h 2.116667 V 4.4979166 Z"
     style="fill:#4d4d4d;stroke-width:0.264583"
     id="path10561" />
  <path
     id="rect1249"
     style="opacity:0.5;fill:#000000;fill-opacity:1;stroke-width:0.264583"
     d="m 2.1166666,3.1749999 c -0.5863154,0 -1.0583333,0.4720179 -1.0583333,1.0583333 v 9.5249998 c 0,0.586315 0.4720179,1.058333 1.0583333,1.058333 h 2.1166666 l 1.0583334,1.058333 H 11.641666 L 12.7,14.816666 h 2.116666 c 0.586316,0 1.058334,-0.472018 1.058334,-1.058333 V 4.2333332 c 0,-0.5863154 -0.472018,-1.0583333 -1.058334,-1.0583333 z m 0,0.2645833 H 14.816666 c 0.439737,0 0.79375,0.3540134 0.79375,0.79375 v 8.9958328 c 0,0.439737 -0.354013,0.79375 -0.79375,0.79375 H 12.7 l -1.058334,1.058333 H 5.2916666 L 4.2333332,14.022916 H 2.1166666 c -0.4397365,0 -0.79375,-0.354013 -0.79375,-0.79375 V 4.2333332 c 0,-0.4397366 0.3540135,-0.79375 0.79375,-0.79375 z" />
  <path
     id="rect11697"
     style="opacity:1;fill:#d1a023;fill-opacity:1;stroke-width:0.264583"
     d="M 3.4395833 4.4979166 L 3.4395833 7.1437499 L 4.2333332 7.1437499 L 4.2333332 4.4979166 L 3.4395833 4.4979166 z M 4.7624999 4.4979166 L 4.7624999 7.1437499 L 5.5562499 7.1437499 L 5.5562499 4.4979166 L 4.7624999 4.4979166 z M 6.0854165 4.4979166 L 6.0854165 7.1437499 L 6.8791665 7.1437499 L 6.8791665 4.4979166 L 6.0854165 4.4979166 z M 7.4083332 4.4979166 L 7.4083332 7.1437499 L 8.2020832 7.1437499 L 8.2020832 4.4979166 L 7.4083332 4.4979166 z M 8.7312498 4.4979166 L 8.7312498 7.1437499 L 9.5249998 7.1437499 L 9.5249998 4.4979166 L 8.7312498 4.4979166 z M 10.054166 4.4979166 L 10.054166 7.1437499 L 10.847916 7.1437499 L 10.847916 4.4979166 L 10.054166 4.4979166 z M 11.377083 4.4979166 L 11.377083 7.1437499 L 12.170833 7.1437499 L 12.170833 4.4979166 L 11.377083 4.4979166 z M 12.7 4.4979166 L 12.7 7.1437499 L 13.49375 7.1437499 L 13.49375 4.4979166 L 12.7 4.4979166 z " />
</svg>
