<?xml version="1.0" encoding="UTF-8" standalone="no"?>
<!-- Created with Inkscape (http://www.inkscape.org/) -->

<svg
   width="64"
   height="64"
   viewBox="0 0 16.933333 16.933333"
   version="1.1"
   id="svg5"
   inkscape:version="1.2 (dc2aedaf03, 2022-05-15)"
   sodipodi:docname="accessories-character-map.svg"
   xmlns:inkscape="http://www.inkscape.org/namespaces/inkscape"
   xmlns:sodipodi="http://sodipodi.sourceforge.net/DTD/sodipodi-0.dtd"
   xmlns="http://www.w3.org/2000/svg"
   xmlns:svg="http://www.w3.org/2000/svg">
  <sodipodi:namedview
     id="namedview7"
     pagecolor="#ffffff"
     bordercolor="#666666"
     borderopacity="1.0"
     inkscape:pageshadow="2"
     inkscape:pageopacity="0.0"
     inkscape:pagecheckerboard="0"
     inkscape:document-units="px"
     showgrid="false"
     units="px"
     height="48px"
     inkscape:zoom="8.8167377"
     inkscape:cx="14.404421"
     inkscape:cy="27.901477"
     inkscape:window-width="1920"
     inkscape:window-height="1016"
     inkscape:window-x="0"
     inkscape:window-y="0"
     inkscape:window-maximized="1"
     inkscape:current-layer="svg5"
     inkscape:showpageshadow="2"
     inkscape:deskcolor="#d1d1d1" />
  <defs
     id="defs2" />
  <rect
     style="opacity:1;fill:#5f5f5f;fill-opacity:1;stroke-width:0.264583"
     id="rect4380"
     width="10.054167"
     height="10.847918"
     x="1.5875"
     y="1.5875"
     ry="1.0583333" />
  <rect
     style="opacity:1;fill:#bebebe;fill-opacity:1;stroke-width:0.264583"
     id="rect4538"
     width="9.5249987"
     height="9.5249987"
     x="1.8520836"
     y="1.8520836"
     ry="0.79374999" />
  <path
     d="m 4.7625732,5.8208332 c -0.805127,0.015875 -1.0636249,0.663575 -1.0588624,1.3223875 0.0045,0.6540499 0.3974041,1.3234458 1.0588624,1.3234458 0.7323667,0 1.0652125,-0.7498292 1.0583334,-1.3229167 C 5.8129691,6.4939332 5.3933399,5.8083978 4.7625732,5.8208332 Z m 0,-0.5291667 c 1.0755313,0.029104 1.5964959,0.968375 1.5875,1.8520833 -0.010583,1.0316104 -0.6439958,1.8520833 -1.5875,1.8520833 -1.0583333,0 -1.5814145,-0.9445625 -1.5874999,-1.8520833 C 3.1676649,6.048904 3.7224962,5.2636207 4.7625732,5.2916665 Z M 5.0271566,4.2333332 H 5.5563232 V 4.7624998 H 5.0271566 Z m -1.0583333,0 H 4.4979899 V 4.7624998 H 3.9688233 Z"
     style="fill:#393634;fill-opacity:1;stroke-width:0.264583;opacity:0.8"
     id="path6830" />
  <rect
     style="opacity:1;fill:#757575;fill-opacity:1;stroke-width:0.264583"
     id="rect845"
     width="10.054167"
     height="10.847917"
     x="5.2916665"
     y="5.2916665"
     ry="1.0583333" />
  <rect
     style="opacity:1;fill:#dedede;fill-opacity:1;stroke-width:0.264583"
     id="rect1249"
     width="9.5249996"
     height="9.5249996"
     x="5.5562501"
     y="5.5562501"
     ry="0.79374999" />
  <path
     d="M 10.583333,11.377083 H 7.9374999 c 0.054769,0.757237 0.5291666,1.058333 1.190625,1.058333 0.4701645,0 0.792427,-0.08652 1.1906251,-0.264583 v 0.529166 c -0.431271,0.18124 -0.7657043,0.264584 -1.1906251,0.264584 -1.190625,0 -1.7197917,-0.79375 -1.7197917,-1.719792 0,-1.5874997 0.5958417,-1.9843745 1.5875,-1.9843745 1.0583328,0 1.5874998,0.5291668 1.5874998,2.1166665 z m -0.529167,-0.529167 c 0,-0.661458 -0.5431891,-1.0705037 -1.0583328,-1.0583327 -0.6561667,0.01587 -1.0583333,0.3968747 -1.0583333,1.0583327 z M 8.7312499,7.6729165 H 9.2604165 L 9.9218748,8.9958332 H 9.5249999 l -0.5291667,-0.79375 -0.5291667,0.79375 h -0.396875 z"
     style="opacity:0.8;fill:#393634;fill-opacity:1;stroke-width:0.264583"
     id="path7584" />
</svg>
