<?xml version="1.0" encoding="UTF-8" standalone="no"?>
<!-- Created with Inkscape (http://www.inkscape.org/) -->

<svg
   width="64"
   height="64"
   viewBox="0 0 16.933333 16.933333"
   version="1.1"
   id="svg5"
   inkscape:version="1.1.2 (0a00cf5339, 2022-02-04, custom)"
   sodipodi:docname="accessories-screenshot.svg"
   xmlns:inkscape="http://www.inkscape.org/namespaces/inkscape"
   xmlns:sodipodi="http://sodipodi.sourceforge.net/DTD/sodipodi-0.dtd"
   xmlns="http://www.w3.org/2000/svg"
   xmlns:svg="http://www.w3.org/2000/svg">
  <sodipodi:namedview
     id="namedview7"
     pagecolor="#ffffff"
     bordercolor="#666666"
     borderopacity="1.0"
     inkscape:pageshadow="2"
     inkscape:pageopacity="0.0"
     inkscape:pagecheckerboard="0"
     inkscape:document-units="px"
     showgrid="false"
     units="px"
     height="48px"
     inkscape:zoom="6.1484375"
     inkscape:cx="25.616264"
     inkscape:cy="59.771283"
     inkscape:window-width="1920"
     inkscape:window-height="1005"
     inkscape:window-x="0"
     inkscape:window-y="0"
     inkscape:window-maximized="1"
     inkscape:current-layer="svg5" />
  <defs
     id="defs2" />
  <rect
     style="opacity:1;fill:#6f6f6f;fill-opacity:1;stroke-width:0.264583"
     id="rect845"
     width="14.816667"
     height="11.641666"
     x="1.0583332"
     y="3.7041667"
     ry="1.0583333" />
  <rect
     style="opacity:1;fill:#dedede;fill-opacity:1;stroke-width:0.264583"
     id="rect1249"
     width="14.287499"
     height="10.583333"
     x="1.3229165"
     y="3.96875"
     ry="0.92604166" />
  <rect
     style="opacity:1;fill:#48b9c7;fill-opacity:1;stroke-width:0.529167;stroke-linecap:round"
     id="rect1185"
     width="13.229166"
     height="8.9958334"
     x="1.8520832"
     y="4.4979167"
     ry="0.26458332" />
  <path
     d="m 2.38125,5.2916666 v 2.1166666 h 0.5291667 v -1.5875 H 5.0270833 V 5.2916666 H 2.9104167 Z m 9.525,0 v 0.5291666 h 2.116667 v 1.5875 h 0.529166 V 5.2916666 h -0.529166 z m -9.525,5.8208324 v 2.116667 H 5.0270833 V 12.699999 H 2.9104167 v -1.5875 z m 11.641667,0 v 1.5875 H 11.90625 v 0.529167 h 2.645833 v -2.116667 z"
     id="path1152"
     style="opacity:0.2;fill:#000000;stroke-width:0.264583"
     sodipodi:nodetypes="cccccccccccccccccccccccccccccc" />
  <path
     d="M 2.3812501,5.0270832 V 7.1437498 H 2.9104167 V 5.5562499 H 5.0270833 V 5.0270832 H 2.9104167 Z m 9.5249999,0 v 0.5291667 h 2.116668 v 1.5874999 h 0.529166 V 5.0270832 H 14.022918 Z M 2.3812501,10.847916 v 2.116667 H 5.0270833 V 12.435416 H 2.9104167 v -1.5875 z m 11.6416679,0 v 1.5875 H 11.90625 v 0.529167 h 2.645834 v -2.116667 z"
     style="opacity:1;fill:#ffffff;stroke-width:0.0700042"
     id="path1622" />
</svg>
