<?xml version="1.0" encoding="UTF-8" standalone="no"?>
<!-- Created with Inkscape (http://www.inkscape.org/) -->

<svg
   width="64"
   height="64"
   viewBox="0 0 16.933333 16.933334"
   version="1.1"
   id="svg1099"
   inkscape:version="1.1.2 (0a00cf5339, 2022-02-04, custom)"
   sodipodi:docname="accessories-clock.svg"
   xmlns:inkscape="http://www.inkscape.org/namespaces/inkscape"
   xmlns:sodipodi="http://sodipodi.sourceforge.net/DTD/sodipodi-0.dtd"
   xmlns="http://www.w3.org/2000/svg"
   xmlns:svg="http://www.w3.org/2000/svg">
  <sodipodi:namedview
     id="namedview1101"
     pagecolor="#ffffff"
     bordercolor="#666666"
     borderopacity="1.0"
     inkscape:pageshadow="2"
     inkscape:pageopacity="0.0"
     inkscape:pagecheckerboard="0"
     inkscape:document-units="px"
     showgrid="false"
     units="px"
     inkscape:zoom="17.721864"
     inkscape:cx="35.972515"
     inkscape:cy="31.994378"
     inkscape:window-width="1920"
     inkscape:window-height="1017"
     inkscape:window-x="0"
     inkscape:window-y="0"
     inkscape:window-maximized="1"
     inkscape:current-layer="svg1099" />
  <defs
     id="defs1096" />
  <rect
     style="opacity:1;fill:#7b7b7b;stroke-width:0.264583;fill-opacity:1"
     id="rect1196"
     width="15.875"
     height="16.404167"
     x="0.5291667"
     y="0.5291667"
     ry="7.9375" />
  <circle
     style="opacity:1;fill:#f6f6f6;fill-opacity:1;stroke-width:0.274032"
     id="path1427"
     cx="8.4666672"
     cy="8.4666672"
     r="7.6729169" />
  <path
     d="m 8.4666667,2.1166667 c -0.1465792,0 -0.2645831,0.118 -0.2645831,0.26458 v 1.5874999 c 0,0.1465802 0.1180039,0.2645802 0.2645831,0.2645802 0.1465789,0 0.264583,-0.118 0.264583,-0.2645802 V 2.3812467 c 0,-0.14658 -0.1180041,-0.26458 -0.264583,-0.26458 z m 2.9796633,1.06143 c -0.0469,-0.00101 -0.09315,0.023 -0.118339,0.0667 l -0.661458,1.1456701 c -0.03665,0.0635 -0.01489,0.14371 0.04858,0.18035 0.06347,0.0367 0.144222,0.015399 0.180867,-0.0481 l 0.661458,-1.1456701 c 0.03664,-0.0635 0.01489,-0.1442201 -0.04857,-0.1808599 -0.01983,-0.011401 -0.04121,-0.0175 -0.06253,-0.0181 z m -5.9593265,0.00101 c -0.02132,5.821e-4 -0.04269,0.006 -0.06253,0.0176 -0.06347,0.0366 -0.08522,0.1174002 -0.04858,0.18087 l 0.6614591,1.1456702 c 0.03664,0.0635 0.1173969,0.0852 0.1808668,0.0486 0.06347,-0.0366 0.0847,-0.1173901 0.04806,-0.1808602 L 5.6048216,3.2453123 c -0.025191,-0.0436 -0.07093,-0.0674 -0.1178221,-0.0661 z M 3.3140096,5.3572622 c -0.04689,-0.00101 -0.09263,0.0225 -0.1178229,0.0661 -0.03664,0.0635 -0.015409,0.1442199 0.04806,0.18087 l 1.1456659,0.66146 c 0.06347,0.0366 0.1442231,0.014899 0.1808679,-0.0486 0.03664,-0.0635 0.014901,-0.1442199 -0.04858,-0.18087 L 3.3765336,5.3747623 c -0.019841,-0.011401 -0.04121,-0.016999 -0.06253,-0.0176 z m 10.3042814,0.00101 c -0.02132,5.821e-4 -0.04269,0.007 -0.06253,0.0181 l -1.145666,0.6614555 c -0.06347,0.0366 -0.08522,0.1168802 -0.04858,0.1803501 0.03664,0.0635 0.117397,0.0852 0.180867,0.0486 l 1.145667,-0.66146 c 0.06347,-0.0366 0.08522,-0.1174001 0.04858,-0.1808699 -0.02519,-0.0436 -0.07144,-0.0674 -0.118339,-0.0661 z M 2.3812496,8.2020067 c -0.146579,0 -0.264583,0.11801 -0.264583,0.2645899 0,0.14658 0.118004,0.2645802 0.264583,0.2645802 h 1.5875001 c 0.1465789,0 0.2645828,-0.1180002 0.2645828,-0.2645802 0,-0.1465799 -0.1180039,-0.2645899 -0.2645828,-0.2645899 z m 10.5833344,0 c -0.14658,0 -0.264584,0.11801 -0.264584,0.2645899 0,0.14658 0.118004,0.2645802 0.264584,0.2645802 h 1.5875 c 0.146579,0 0.264583,-0.1180002 0.264583,-0.2645802 0,-0.1465799 -0.118004,-0.2645899 -0.264583,-0.2645899 z m -0.485242,2.4468803 c -0.0469,-0.001 -0.09263,0.0225 -0.117822,0.0661 -0.03665,0.0635 -0.01489,0.14422 0.04858,0.18087 l 1.145666,0.66145 c 0.06347,0.0367 0.143706,0.0149 0.180351,-0.0486 0.03664,-0.0635 0.01541,-0.14422 -0.04806,-0.18087 l -1.145667,-0.66146 c -0.01983,-0.0114 -0.04173,-0.017 -0.06304,-0.0176 z m -8.0258674,0.001 c -0.02132,5.82e-4 -0.04269,0.006 -0.06253,0.0176 l -1.145667,0.66145 c -0.06347,0.0367 -0.08522,0.1174 -0.04858,0.18087 0.03665,0.0635 0.117397,0.0852 0.1808681,0.0486 l 1.145666,-0.66146 c 0.06347,-0.0367 0.0847,-0.1174 0.04806,-0.18087 -0.025191,-0.0436 -0.07093,-0.0674 -0.1178222,-0.0661 z m 1.6882689,1.694471 c -0.04233,0.003 -0.08252,0.0265 -0.1054198,0.0661 l -0.661458,1.14567 c -0.03665,0.0635 -0.015409,0.1437 0.04806,0.18035 0.06347,0.0366 0.1442231,0.0154 0.1808681,-0.0481 l 0.6614579,-1.14567 c 0.03665,-0.0635 0.014901,-0.14422 -0.04858,-0.18087 -0.023799,-0.0137 -0.04953,-0.0193 -0.07493,-0.0176 z m 4.6364105,0 c -0.02132,5.82e-4 -0.04269,0.007 -0.06253,0.0181 -0.06347,0.0367 -0.08522,0.11688 -0.04858,0.18035 l 0.661459,1.14567 c 0.03664,0.0635 0.117397,0.0852 0.180867,0.0486 0.06347,-0.0367 0.08522,-0.1174 0.04858,-0.18087 l -0.661458,-1.14567 c -0.02519,-0.0436 -0.07144,-0.0674 -0.118339,-0.0661 z m -2.3114873,0.355529 c -0.1465792,0 -0.2645831,0.118 -0.2645831,0.26458 v 1.5875 c 0,0.14658 0.1180039,0.26459 0.2645831,0.26459 0.1465789,0 0.264583,-0.11801 0.264583,-0.26459 v -1.5875 c 0,-0.14658 -0.1180041,-0.26458 -0.264583,-0.26458 z"
     style="fill:#333333;fill-opacity:1;stroke-width:0.0700042"
     id="path4489" />
  <path
     d="M 12.092552,7.1155898 C 12.033138,6.9821181 11.87679,6.9220683 11.743305,6.9814461 l -3.4274154,1.241425 c -0.021908,0.00646 -0.043392,0.014314 -0.064294,0.023548 -0.2669381,0.1188297 -0.3870431,0.4315275 -0.2682875,0.6985 0.1188323,0.2670863 0.4317233,0.3872204 0.6987646,0.2682875 0.018521,-0.00847 0.03655,-0.018018 0.053975,-0.028575 L 11.958673,7.4648398 c 0.133369,-0.059515 0.193292,-0.2158365 0.133879,-0.34925 z"
     style="opacity:0.5;fill:#000000;fill-opacity:1;stroke-width:0.264583"
     id="path1600"
     sodipodi:nodetypes="ccccccccc" />
  <path
     d="m 9.5427623,11.148299 c 0.1334717,-0.05941 0.1935242,-0.215765 0.1341438,-0.34925 L 8.9850207,8.624967 C 8.9773477,8.5874756 8.9656532,8.550926 8.9500957,8.5159587 8.8311654,8.2491211 8.5184967,8.1291458 8.2515956,8.2479358 c -0.2669381,0.1188296 -0.3870431,0.4315275 -0.2682875,0.6985 0.015266,0.033896 0.034073,0.066088 0.056092,0.096044 l 1.1541125,1.9716752 c 0.059415,0.133469 0.2157651,0.193522 0.3492497,0.134144 z"
     style="opacity:0.5;fill:#000000;fill-opacity:1;stroke-width:0.264583"
     id="path3872"
     sodipodi:nodetypes="ccccccccc" />
  <path
     d="M 12.092552,6.8510063 C 12.033138,6.7175348 11.87679,6.657485 11.743305,6.7168628 l -3.4274153,1.241425 c -0.021907,0.00646 -0.043392,0.014314 -0.064294,0.023548 -0.2669382,0.1188297 -0.3870431,0.4315275 -0.2682875,0.6985 0.1188323,0.2670863 0.4317228,0.3872204 0.6987648,0.2682875 0.01852,-0.00847 0.03655,-0.018018 0.05397,-0.028575 l 3.222625,-1.719792 c 0.133369,-0.059515 0.193292,-0.2158365 0.133879,-0.34925 z"
     style="opacity:1;fill:#2b2928;fill-opacity:1;stroke-width:0.0700042"
     id="path4689" />
  <path
     d="m 9.5427624,10.883717 c 0.1334717,-0.05941 0.1935241,-0.215766 0.1341437,-0.34925 L 8.9850207,8.3603837 C 8.9773478,8.3228923 8.9656532,8.2863427 8.9500957,8.2513754 8.8311655,7.9845378 8.5184968,7.8645625 8.2515957,7.9833525 7.9846576,8.1021821 7.8645526,8.41488 7.9833082,8.6818525 c 0.015266,0.033896 0.034073,0.066088 0.056092,0.096044 l 1.1541125,1.9716755 c 0.059415,0.133469 0.2157651,0.193522 0.3492497,0.134145 z"
     style="opacity:1;fill:#474341;fill-opacity:1;stroke-width:0.0700042"
     id="path4189" />
  <circle
     style="opacity:1;fill:#2b2928;fill-opacity:1;stroke-width:0.264583"
     id="path4986"
     cx="8.4666672"
     cy="8.7312498"
     r="0.26458335" />
  <circle
     style="opacity:1;fill:#f6f6f6;fill-opacity:1;stroke-width:0.264583"
     id="path5090"
     cx="8.4666672"
     cy="8.4666672"
     r="0.26458335" />
</svg>
