<?xml version="1.0" encoding="UTF-8" standalone="no"?>
<!-- Created with Inkscape (http://www.inkscape.org/) -->

<svg
   width="64"
   height="64"
   viewBox="0 0 16.933333 16.933334"
   version="1.1"
   id="svg1099"
   inkscape:version="1.2 (dc2aedaf03, 2022-05-15)"
   sodipodi:docname="applications-science.svg"
   xmlns:inkscape="http://www.inkscape.org/namespaces/inkscape"
   xmlns:sodipodi="http://sodipodi.sourceforge.net/DTD/sodipodi-0.dtd"
   xmlns="http://www.w3.org/2000/svg"
   xmlns:svg="http://www.w3.org/2000/svg">
  <sodipodi:namedview
     id="namedview1101"
     pagecolor="#ffffff"
     bordercolor="#666666"
     borderopacity="1.0"
     inkscape:pageshadow="2"
     inkscape:pageopacity="0.0"
     inkscape:pagecheckerboard="0"
     inkscape:document-units="px"
     showgrid="false"
     units="px"
     inkscape:zoom="9.0377085"
     inkscape:cx="23.235978"
     inkscape:cy="24.895691"
     inkscape:window-width="1846"
     inkscape:window-height="1011"
     inkscape:window-x="0"
     inkscape:window-y="0"
     inkscape:window-maximized="1"
     inkscape:current-layer="svg1099"
     inkscape:showpageshadow="2"
     inkscape:deskcolor="#d1d1d1" />
  <defs
     id="defs1096" />
  <rect
     style="opacity:1;fill:#479863;fill-opacity:1;stroke-width:0.529167;stroke-linecap:round"
     id="rect934"
     width="13.758333"
     height="13.758333"
     x="1.5875"
     y="1.5875"
     ry="1.190625" />
  <path
     id="rect1524"
     style="opacity:0.5;fill:#000000;fill-opacity:1;stroke-width:2;stroke-linecap:round"
     d="M 10.5 6 C 8.0070001 6 6 8.0070001 6 10.5 L 6 53.5 C 6 55.993 8.0070001 58 10.5 58 L 53.5 58 C 55.993 58 58 55.993 58 53.5 L 58 10.5 C 58 8.0070001 55.993 6 53.5 6 L 10.5 6 z M 11 7 L 53 7 C 55.216 7 57 8.7839999 57 11 L 57 51 C 57 53.216 55.216 55 53 55 L 11 55 C 8.7839999 55 7 53.216 7 51 L 7 11 C 7 8.7839999 8.7839999 7 11 7 z "
     transform="scale(0.26458334)" />
  <g
     id="g22395"
     transform="translate(2.1198417,2.6243996)"
     style="opacity:0.2;fill:#000000">
    <path
       d="M 5.1603813,2.9501042 C 4.7513011,2.9499904 4.6095797,3.4939341 4.9667064,3.6934511 L 5.1619688,3.8017979 V 4.8662167 C 5.1103751,4.9471792 5.0627501,5.0198073 4.9873439,5.1499823 4.8793939,5.3365135 4.7472345,5.5706698 4.6039626,5.8274479 4.3101825,6.354527 4.0187413,6.8829052 3.729647,7.4125666 3.5022376,7.8280948 3.5109689,8.3864979 3.8487095,8.8071854 4.1162032,9.1643729 4.5384782,9.2596229 4.888522,9.2596229 h 2.9158406 c 0.349647,0 0.772319,-0.09525 1.039812,-0.4524375 0.337344,-0.4202907 0.345282,-0.9775031 0.119063,-1.3930313 v -0.00159 C 8.5016716,6.4727666 7.9813688,5.7389448 7.5495688,4.874551 V 3.8017979 L 7.7440376,3.6934511 C 8.1009786,3.4940372 7.959628,2.9503979 7.5507594,2.9501042 Z m 0.7953375,0.79375 H 6.755422 v 1.2330906 c 0,0.060534 0.013838,0.1202663 0.040481,0.174625 0.4770437,0.9751219 1.0215562,1.7236281 1.4628816,2.6261218 0.0026,0.00534 0.0052,0.010636 0.0079,0.015875 0.09485,0.1738313 0.10041,0.3500438 -0.03969,0.5214938 -0.0049,0.00569 -0.0097,0.011509 -0.01429,0.017462 -0.05715,0.078978 -0.1940717,0.13335 -0.4083842,0.13335 H 4.8881251 c -0.2143125,0 -0.3508375,-0.054372 -0.4083844,-0.13335 -0.00447,-0.00595 -0.0091,-0.011774 -0.013891,-0.017462 C 4.3253564,8.1436104 4.3309126,7.9673979 4.4261626,7.7931698 4.7138097,7.2658922 5.0037956,6.7398953 5.2961126,6.2151948 5.4381938,5.960401 5.5699563,5.728626 5.6743345,5.5484448 5.7787126,5.3682635 5.8688032,5.2249917 5.8795188,5.2103073 c 0.049424,-0.067781 0.076099,-0.1494764 0.0762,-0.2333625 z"
       style="font-variant-ligatures:normal;font-variant-position:normal;font-variant-caps:normal;font-variant-numeric:normal;font-variant-alternates:normal;font-feature-settings:normal;text-indent:0;text-decoration-line:none;text-decoration-style:solid;text-decoration-color:#000000;text-transform:none;text-orientation:mixed;white-space:normal;shape-padding:0;isolation:auto;mix-blend-mode:normal;fill:#000000;stroke-width:0.264583"
       id="path21044"
       sodipodi:nodetypes="ccccccccssccccccccccscccccssccccsccc" />
    <path
       d="M 5.6445688,6.35 4.7640355,7.9372354 h 3.175 L 7.0585022,6.35 Z"
       style="opacity:0.5;fill:#000000;stroke-width:0.264583"
       id="path21072"
       sodipodi:nodetypes="ccccc" />
  </g>
  <g
     id="g22399"
     style="fill:#ffffff"
     transform="translate(2.1198417,2.3598163)">
    <path
       d="M 5.1603813,2.9516942 C 4.7513011,2.9515804 4.6095797,3.4955241 4.9667064,3.6950411 L 5.1619688,3.8033879 V 4.8678067 C 5.1103751,4.9487692 5.0627501,5.0213973 4.9873439,5.1515723 4.8793939,5.3381035 4.7472345,5.5722598 4.6039626,5.8290379 4.3101825,6.356117 4.0187413,6.8844952 3.729647,7.4141566 3.5022376,7.8296848 3.5109689,8.3880879 3.8487095,8.8087754 4.1162032,9.1659629 4.5384782,9.2612129 4.888522,9.2612129 h 2.9158406 c 0.349647,0 0.772319,-0.09525 1.039812,-0.4524375 0.337344,-0.4202907 0.345282,-0.9775031 0.119063,-1.3930313 v -0.00159 C 8.5016716,6.4743566 7.9813688,5.7405348 7.5495688,4.876141 V 3.8033879 L 7.7440376,3.6950411 C 8.1009786,3.4956272 7.959628,2.9519879 7.5507594,2.9516942 Z m 0.7953375,0.79375 H 6.755422 v 1.2330906 c 0,0.060534 0.013838,0.1202663 0.040481,0.174625 0.4770437,0.9751219 1.0215562,1.7236281 1.4628816,2.6261218 0.0026,0.00534 0.0052,0.010636 0.0079,0.015875 0.09485,0.1738313 0.10041,0.3500438 -0.03969,0.5214938 -0.0049,0.00569 -0.0097,0.011509 -0.01429,0.017462 -0.05715,0.078978 -0.1940717,0.13335 -0.4083842,0.13335 H 4.8881251 c -0.2143125,0 -0.3508375,-0.054372 -0.4083844,-0.13335 -0.00447,-0.00595 -0.0091,-0.011774 -0.013891,-0.017462 C 4.3253564,8.1452004 4.3309126,7.9689879 4.4261626,7.7947598 4.7138097,7.2674822 5.0037956,6.7414853 5.2961126,6.2167848 5.4381938,5.961991 5.5699563,5.730216 5.6743345,5.5500348 5.7787126,5.3698535 5.8688032,5.2265817 5.8795188,5.2118973 c 0.049424,-0.067781 0.076099,-0.1494764 0.0762,-0.2333625 z"
       style="font-variant-ligatures:normal;font-variant-position:normal;font-variant-caps:normal;font-variant-numeric:normal;font-variant-alternates:normal;font-feature-settings:normal;text-indent:0;text-decoration-line:none;text-decoration-style:solid;text-decoration-color:#000000;text-transform:none;text-orientation:mixed;white-space:normal;shape-padding:0;isolation:auto;mix-blend-mode:normal;fill:#ffffff;stroke-width:0.264583"
       id="path22345" />
    <path
       d="M 5.6445688,6.35 4.7640355,7.9372354 h 3.175 L 7.0585022,6.35 Z"
       style="opacity:0.5;fill:#ffffff;stroke-width:0.264583"
       id="path22373" />
  </g>
</svg>
