<?xml version="1.0" encoding="UTF-8" standalone="no"?>
<!-- Created with Inkscape (http://www.inkscape.org/) -->

<svg
   width="64"
   height="64"
   viewBox="0 0 16.933333 16.933333"
   version="1.1"
   id="svg5"
   inkscape:version="1.1.2 (0a00cf5339, 2022-02-04, custom)"
   sodipodi:docname="archive-manager.svg"
   xmlns:inkscape="http://www.inkscape.org/namespaces/inkscape"
   xmlns:sodipodi="http://sodipodi.sourceforge.net/DTD/sodipodi-0.dtd"
   xmlns:xlink="http://www.w3.org/1999/xlink"
   xmlns="http://www.w3.org/2000/svg"
   xmlns:svg="http://www.w3.org/2000/svg">
  <sodipodi:namedview
     id="namedview7"
     pagecolor="#ffffff"
     bordercolor="#666666"
     borderopacity="1.0"
     inkscape:pageshadow="2"
     inkscape:pageopacity="0.0"
     inkscape:pagecheckerboard="0"
     inkscape:document-units="px"
     showgrid="false"
     units="px"
     height="48px"
     inkscape:zoom="12.296875"
     inkscape:cx="14.434562"
     inkscape:cy="25.778907"
     inkscape:window-width="1920"
     inkscape:window-height="1002"
     inkscape:window-x="0"
     inkscape:window-y="0"
     inkscape:window-maximized="1"
     inkscape:current-layer="svg5" />
  <defs
     id="defs2">
    <linearGradient
       inkscape:collect="always"
       xlink:href="#linearGradient2794"
       id="linearGradient2796"
       x1="3.7083273"
       y1="3.0340858"
       x2="5.0072336"
       y2="3.0340858"
       gradientUnits="userSpaceOnUse"
       gradientTransform="matrix(0.81478822,0,0,5.3368631,4.6514146,-11.959314)" />
    <linearGradient
       inkscape:collect="always"
       id="linearGradient2794">
      <stop
         style="stop-color:#949390;stop-opacity:1;"
         offset="0"
         id="stop2790" />
      <stop
         style="stop-color:#d5d3cf;stop-opacity:1"
         offset="0.08"
         id="stop2862" />
      <stop
         style="stop-color:#949390;stop-opacity:1"
         offset="0.17"
         id="stop3440" />
      <stop
         style="stop-color:#949390;stop-opacity:1;"
         offset="0.83206075"
         id="stop3698" />
      <stop
         style="stop-color:#d5d3cf;stop-opacity:1"
         offset="0.92000002"
         id="stop3828" />
      <stop
         style="stop-color:#949390;stop-opacity:1"
         offset="1"
         id="stop2792" />
    </linearGradient>
  </defs>
  <rect
     style="opacity:1;fill:#396247;fill-opacity:1;stroke-width:0.264583"
     id="rect845"
     width="14.287499"
     height="13.758333"
     x="1.3229166"
     y="1.5874999"
     ry="1.190625" />
  <rect
     style="opacity:1;fill:#73c48f;fill-opacity:1;stroke-width:0.264583"
     id="rect1249"
     width="13.758333"
     height="9.260416"
     x="1.5875"
     y="1.8520832"
     ry="1.0583333" />
  <rect
     style="opacity:0.5;fill:#000000;fill-opacity:1;stroke-width:0.536891"
     id="rect1452"
     width="0.52916706"
     height="9.260416"
     x="7.6729164"
     y="1.8520832" />
  <rect
     style="opacity:0.25;fill:#ffffff;fill-opacity:1;stroke-width:0.536891"
     id="rect1578"
     width="0.52916664"
     height="9.260416"
     x="8.2020845"
     y="1.8520832" />
  <path
     id="path5364"
     style="opacity:0.5;fill:#000000;fill-opacity:1;stroke-width:2"
     d="M 31 7 L 31 9 L 33 9 L 33 7 L 31 7 z M 31 9 L 29 9 L 29 11 L 31 11 L 31 9 z M 31 11 L 31 13 L 33 13 L 33 11 L 31 11 z M 31 13 L 29 13 L 29 15 L 31 15 L 31 13 z M 31 15 L 31 17 L 33 17 L 33 15 L 31 15 z M 31 17 L 29 17 L 29 19 L 31 19 L 31 17 z M 31 19 L 31 21 L 33 21 L 33 19 L 31 19 z M 31 21 L 29 21 L 29 23 L 31 23 L 31 21 z M 31 23 L 31 25 L 33 25 L 33 23 L 31 23 z M 31 25 L 29 25 L 29 27 L 31 27 L 31 25 z M 31 27 L 31 29 L 33 29 L 33 27 L 31 27 z M 31 29 L 29 29 L 29 31 L 31 31 L 31 29 z M 31 31 L 31 33 L 33 33 L 33 31 L 31 31 z M 31 33 L 29 33 L 29 35 L 31 35 L 31 33 z M 31 35 L 31 37 L 33 37 L 33 35 L 31 35 z M 31 37 L 29 37 L 29 39 L 31 39 L 31 37 z M 31 39 L 31 41 L 33 41 L 33 39 L 31 39 z M 31 41 L 29 41 L 29 42 L 31 42 L 31 41 z "
     transform="scale(0.26458333)" />
  <path
     id="rect4946"
     style="opacity:0.5;fill:#ffffff;fill-opacity:1;stroke-width:2"
     d="M 29 7 L 29 9 L 31 9 L 31 7 L 29 7 z M 31 9 L 31 11 L 33 11 L 33 9 L 31 9 z M 31 11 L 29 11 L 29 13 L 31 13 L 31 11 z M 31 13 L 31 15 L 33 15 L 33 13 L 31 13 z M 31 15 L 29 15 L 29 17 L 31 17 L 31 15 z M 31 17 L 31 19 L 33 19 L 33 17 L 31 17 z M 31 19 L 29 19 L 29 21 L 31 21 L 31 19 z M 31 21 L 31 23 L 33 23 L 33 21 L 31 21 z M 31 23 L 29 23 L 29 25 L 31 25 L 31 23 z M 31 25 L 31 27 L 33 27 L 33 25 L 31 25 z M 31 27 L 29 27 L 29 29 L 31 29 L 31 27 z M 31 29 L 31 31 L 33 31 L 33 29 L 31 29 z M 31 31 L 29 31 L 29 33 L 31 33 L 31 31 z M 31 33 L 31 35 L 33 35 L 33 33 L 31 33 z M 31 35 L 29 35 L 29 37 L 31 37 L 31 35 z M 31 37 L 31 39 L 33 39 L 33 37 L 31 37 z M 31 39 L 29 39 L 29 41 L 31 41 L 31 39 z M 31 41 L 31 42 L 33 42 L 33 41 L 31 41 z "
     transform="scale(0.26458333)" />
  <g
     id="g1395"
     transform="translate(0,0.26458344)">
    <rect
       style="fill:#3d3846;fill-opacity:1;stroke-width:0.529166"
       id="rect1736"
       width="2.1166666"
       height="2.3812501"
       x="7.1437497"
       y="1.8520832"
       ry="0.52916664" />
    <rect
       style="fill:#5e5c64;fill-opacity:1;stroke-width:0.529166"
       id="rect2060"
       width="2.1166663"
       height="2.3812499"
       x="7.1437497"
       y="1.5874999"
       ry="0.52916664" />
    <path
       id="rect2290"
       style="fill:url(#linearGradient2796);fill-opacity:1;stroke-width:0.55173"
       d="M 7.9240632,2.9105181 C 7.7838792,2.9175781 7.672916,3.0331021 7.672916,3.1751016 v 2.1166667 c 0,0.14658 0.118004,0.2645832 0.2645834,0.2645832 h 0.5291667 c 0.14658,0 0.2645834,-0.118004 0.2645834,-0.2645832 V 3.1751016 c 0,-0.1465801 -0.118004,-0.2645835 -0.2645834,-0.2645835 H 7.9374994 c -0.00458,0 -0.00892,-2.278e-4 -0.01344,0 z m 0.01344,1.8520833 H 8.4666661 V 5.2917683 H 7.9374994 Z" />
    <path
       id="rect3962"
       style="fill:#ffffff;fill-opacity:1;stroke-width:0.529166"
       d="M 7.9240632,2.3813515 C 7.7838792,2.3884115 7.672916,2.5039355 7.672916,2.6459347 v 2.3812502 c 0,0.14658 0.118004,0.2645834 0.2645834,0.2645834 h 0.5291667 c 0.14658,0 0.2645834,-0.118004 0.2645834,-0.2645834 V 2.6459347 c 0,-0.14658 -0.118004,-0.2645832 -0.2645834,-0.2645832 H 7.9374994 c -0.00458,0 -0.00892,-2.278e-4 -0.01344,0 z m 0.01344,2.1166667 H 8.4666661 V 5.0271849 H 7.9374994 Z" />
    <rect
       style="fill:#68676b;fill-opacity:1;stroke-width:0.529166"
       id="rect4341"
       width="0.52916664"
       height="1.3229167"
       x="7.9375033"
       y="1.8520832"
       ry="0.26458332" />
    <rect
       style="fill:#949390;fill-opacity:1;stroke-width:0.529166"
       id="rect4688"
       width="0.52916622"
       height="1.0583333"
       x="7.9375033"
       y="1.8520832"
       ry="0.26458311" />
  </g>
  <path
     d="m 2.728648,11.1125 -0.1653646,0.206705 2.4970052,1.997814 -2.4825351,1.489313 0.1364244,0.227377 2.6137949,-1.568897 h 6.2776522 l 2.613795,1.568897 0.136424,-0.227377 -2.482535,-1.489313 2.497005,-1.997814 L 14.20495,11.1125 11.59529,13.200229 H 5.3383075 Z"
     style="color:#000000;opacity:0.25;fill:#000000;fill-opacity:1;stroke-width:0.264583;-inkscape-stroke:none"
     id="path1741" />
</svg>
