<?xml version="1.0" encoding="UTF-8" standalone="no"?>
<!-- Created with Inkscape (http://www.inkscape.org/) -->

<svg
   width="64"
   height="64"
   viewBox="0 0 16.933333 16.933334"
   version="1.1"
   id="svg1099"
   inkscape:version="1.2 (dc2aedaf03, 2022-05-15)"
   sodipodi:docname="discord-canary.svg"
   xmlns:inkscape="http://www.inkscape.org/namespaces/inkscape"
   xmlns:sodipodi="http://sodipodi.sourceforge.net/DTD/sodipodi-0.dtd"
   xmlns="http://www.w3.org/2000/svg"
   xmlns:svg="http://www.w3.org/2000/svg">
  <sodipodi:namedview
     id="namedview1101"
     pagecolor="#ffffff"
     bordercolor="#666666"
     borderopacity="1.0"
     inkscape:pageshadow="2"
     inkscape:pageopacity="0.0"
     inkscape:pagecheckerboard="0"
     inkscape:document-units="px"
     showgrid="false"
     units="px"
     inkscape:zoom="12.5"
     inkscape:cx="32.08"
     inkscape:cy="32"
     inkscape:window-width="1920"
     inkscape:window-height="1009"
     inkscape:window-x="0"
     inkscape:window-y="0"
     inkscape:window-maximized="1"
     inkscape:current-layer="svg1099"
     inkscape:showpageshadow="2"
     inkscape:deskcolor="#d1d1d1" />
  <defs
     id="defs1096" />
  <rect
     style="opacity:1;fill:#ffb030;stroke-width:0.264583;fill-opacity:1"
     id="rect1196"
     width="15.875"
     height="16.404167"
     x="0.5291667"
     y="0.5291667"
     ry="7.9375" />
  <path
     id="rect1452"
     style="fill:#000000;stroke-width:0.264583;opacity:0.5"
     d="M 8.4666667 0.52916667 C 4.0692961 0.52916667 0.52916667 4.0692961 0.52916667 8.4666667 L 0.52916667 8.9958334 C 0.52916667 13.393204 4.0692961 16.933333 8.4666667 16.933333 C 12.864037 16.933333 16.404167 13.393204 16.404167 8.9958334 L 16.404167 8.4666667 C 16.404167 4.0692961 12.864037 0.52916667 8.4666667 0.52916667 z M 8.4666667 0.79375001 A 7.6729169 7.6729169 0 0 1 16.139583 8.4666667 A 7.6729169 7.6729169 0 0 1 8.4666667 16.139583 A 7.6729169 7.6729169 0 0 1 0.79375001 8.4666667 A 7.6729169 7.6729169 0 0 1 8.4666667 0.79375001 z " />
  <path
     d="m 7.1018507,4.7630882 c -0.6802869,0.1195636 -1.3314442,0.328762 -1.9388998,0.6133991 -0.00526,0.00233 -0.0089,0.00584 -0.011885,0.010853 C 3.9162534,7.2698748 3.5774579,9.1063216 3.7434,10.919819 c 7.673e-4,0.0089 0.00564,0.01734 0.012401,0.02274 0.8146939,0.610535 1.603634,0.981121 2.3781496,1.226798 0.012398,0.0039 0.025704,-4.76e-4 0.03359,-0.01085 0.1832118,-0.255315 0.3467637,-0.466204 0.486792,-0.749308 0.00826,-0.01658 3.705e-4,-0.03633 -0.016536,-0.04289 -0.2590477,-0.100277 -0.5053153,-0.222377 -0.7425905,-0.361218 -0.018767,-0.01119 -0.02086,-0.03856 -0.00362,-0.05168 0.049931,-0.03818 0.1001173,-0.07823 0.1477946,-0.118339 0.00863,-0.0073 0.020865,-0.0088 0.031006,-0.0041 1.5587972,0.726256 3.2463831,0.726256 4.7867883,0 0.01014,-0.005 0.02149,-0.0037 0.03049,0.0036 0.04769,0.04011 0.098,0.08067 0.148311,0.118856 0.01726,0.01311 0.01567,0.04049 -0.0031,0.05168 -0.237275,0.141539 -0.483682,0.261324 -0.743108,0.361218 -0.01689,0.0066 -0.02428,0.02631 -0.01602,0.04289 0.143034,0.282708 0.305928,0.493464 0.485759,0.748791 0.0075,0.0108 0.02119,0.01523 0.03359,0.01137 0.778272,-0.245677 1.567589,-0.616263 2.382283,-1.226799 0.0071,-0.0054 0.01217,-0.01387 0.01292,-0.02274 0.198599,-2.0966025 -0.333596,-3.9169563 -1.409217,-5.5314459 -0.0026,-0.00539 -0.0066,-0.00957 -0.01188,-0.011885 -0.607079,-0.2842538 -1.25772,-0.4934519 -1.9383826,-0.6133992 -0.012398,-0.00233 -0.025138,0.00293 -0.031523,0.01447 -0.083728,0.1519374 -0.175873,0.1702403 -0.240816,0.3260574 -0.7320966,-0.1118455 -1.4610771,-0.1118452 -2.1781617,0 C 7.3133631,4.944355 7.2174736,4.9295153 7.1333734,4.7775572 7.126989,4.7663706 7.1142467,4.7611557 7.1018507,4.7630871 Z M 6.7458001,8.2021549 c 0.5197391,0 0.9352005,0.4192368 0.9270752,0.9260417 0,0.5104545 -0.4113985,0.9260414 -0.9270752,0.9260414 -0.5075801,0 -0.9250082,-0.4155869 -0.9250082,-0.9260414 0,-0.5104549 0.409317,-0.9260417 0.9250082,-0.9260417 z m 3.4406169,0 c 0.519754,0 0.934154,0.4192368 0.926042,0.9260417 0,0.5104545 -0.406288,0.9260414 -0.926042,0.9260414 -0.5075653,0 -0.9260417,-0.4155869 -0.9260417,-0.9260414 0,-0.5104549 0.4103508,-0.9260417 0.9260417,-0.9260417 z"
     style="fill:#ffffff;stroke-width:0.264583"
     id="path13141" />
</svg>
