<?xml version="1.0" encoding="UTF-8" standalone="no"?>
<!-- Created with Inkscape (http://www.inkscape.org/) -->

<svg
   width="64"
   height="64"
   viewBox="0 0 16.933333 16.933333"
   version="1.1"
   id="svg266"
   inkscape:version="1.2 (dc2aedaf03, 2022-05-15)"
   sodipodi:docname="evolution.svg"
   xmlns:inkscape="http://www.inkscape.org/namespaces/inkscape"
   xmlns:sodipodi="http://sodipodi.sourceforge.net/DTD/sodipodi-0.dtd"
   xmlns="http://www.w3.org/2000/svg"
   xmlns:svg="http://www.w3.org/2000/svg">
  <sodipodi:namedview
     id="namedview268"
     pagecolor="#ffffff"
     bordercolor="#000000"
     borderopacity="0.25"
     inkscape:showpageshadow="2"
     inkscape:pageopacity="0.0"
     inkscape:pagecheckerboard="0"
     inkscape:deskcolor="#d1d1d1"
     inkscape:document-units="px"
     showgrid="false"
     inkscape:lockguides="false"
     inkscape:zoom="12.71875"
     inkscape:cx="31.960688"
     inkscape:cy="32"
     inkscape:window-width="1920"
     inkscape:window-height="1011"
     inkscape:window-x="0"
     inkscape:window-y="0"
     inkscape:window-maximized="1"
     inkscape:current-layer="svg266"
     showguides="false" />
  <defs
     id="defs263" />
  <rect
     style="fill:#6f6f6f;fill-opacity:1;stroke-width:0.264583"
     id="rect322"
     width="14.816667"
     height="11.641666"
     x="1.0583333"
     y="4.2333331"
     ry="1.0583333" />
  <path
     d="M 1.5875002,3.8364581 8.4666668,0.52916652 15.345833,3.8364581 c 0.132292,0.0635 0.529167,0.339725 0.529167,0.9260416 V 14.816667 c 0,0.586316 -0.472017,1.058333 -1.058333,1.058333 H 2.1166668 c -0.5863166,0 -1.0583333,-0.472017 -1.0583333,-1.058333 V 4.7624997 c 0,-0.5863166 0.396875,-0.8625416 0.5291667,-0.9260416 z"
     style="fill:#6f6f6f;stroke-width:0.264583;fill-opacity:1"
     id="path5024" />
  <rect
     style="fill:#f2f2f2;fill-opacity:1;stroke-width:0.264583"
     id="rect3362"
     width="11.641666"
     height="12.7"
     x="2.6458333"
     y="1.5875"
     ry="1.0583333" />
  <path
     id="rect10631"
     style="opacity:0.5;fill:#000000;fill-opacity:1;stroke-width:0.529167;stroke-linejoin:bevel"
     d="M 3.7041666 1.5875 C 3.1178505 1.5875 2.6458333 2.0595172 2.6458333 2.6458333 L 2.6458333 13.229166 C 2.6458333 13.815482 3.1178505 14.2875 3.7041666 14.2875 L 13.229166 14.2875 C 13.815482 14.2875 14.2875 13.815482 14.2875 13.229166 L 14.2875 2.6458333 C 14.2875 2.0595172 13.815482 1.5875 13.229166 1.5875 L 3.7041666 1.5875 z M 3.7041666 1.8520833 L 13.229166 1.8520833 C 13.668903 1.8520833 14.022916 2.2060962 14.022916 2.6458333 L 14.022916 13.229166 C 14.022916 13.668903 13.668903 14.022916 13.229166 14.022916 L 3.7041666 14.022916 C 3.2644295 14.022916 2.9104166 13.668903 2.9104166 13.229166 L 2.9104166 2.6458333 C 2.9104166 2.2060962 3.2644295 1.8520833 3.7041666 1.8520833 z " />
  <path
     d="M 1.0583332,5.2916666 V 14.2875 c 0,0.586316 0.4720167,1.058333 1.0583333,1.058333 H 14.816666 c 0.586317,0 1.058334,-0.472017 1.058334,-1.058333 V 5.2916666 L 8.466666,11.1125 Z"
     style="fill:#dedede;stroke-width:0.264583;fill-opacity:1"
     id="path5780" />
  <path
     id="path3273"
     style="fill:#afafaf;fill-opacity:1;stroke-width:0.264583"
     d="M 5.1877969,8.5359129 1.0583333,14.2875 c 0,0.586316 0.4720173,1.058333 1.0583333,1.058333 H 14.816666 c 0.586317,0 1.058334,-0.472017 1.058334,-1.058333 L 11.745536,8.5359129 8.4666665,11.1125 Z"
     sodipodi:nodetypes="ccsscccc" />
  <path
     id="path7178"
     style="color:#000000;fill:#303030;fill-opacity:1;stroke-width:0.264583;stroke-linecap:round;stroke-linejoin:round;opacity:0.4"
     d="M 2.1140828 3.7041666 C 1.5315238 3.7041666 1.0583333 4.1773571 1.0583333 4.7599161 L 1.0583333 14.290084 C 1.0583333 14.872642 1.5315237 15.345833 2.1140828 15.345833 L 14.81925 15.345833 C 15.40181 15.345833 15.875 14.872642 15.875 14.290084 L 15.875 4.7599161 C 15.875 4.1773571 15.40181 3.7041666 14.81925 3.7041666 L 14.814083 3.7041666 L 14.814083 3.9687499 L 14.81925 3.9687499 C 15.259808 3.9687499 15.610416 4.3193588 15.610416 4.7599161 L 15.610416 14.290084 C 15.610416 14.73064 15.259808 15.08125 14.81925 15.08125 L 2.1140828 15.08125 C 1.6735254 15.08125 1.3229166 14.73064 1.3229166 14.290084 L 1.3229166 4.7599161 C 1.3229166 4.3193588 1.6735254 3.9687499 2.1140828 3.9687499 L 2.1140828 3.7041666 z " />
  <rect
     style="fill:#552d5d;fill-opacity:1;stroke-width:0.264583"
     id="rect12654"
     width="7.9375"
     height="8.4666662"
     x="8.9958334"
     y="8.4666662"
     ry="3.96875" />
  <circle
     style="fill:#aa5abb;fill-opacity:1;stroke-width:0.264583"
     id="path13694"
     cx="12.964583"
     cy="12.435416"
     r="3.7041667" />
  <circle
     style="opacity:1;fill:#f2f2f2;fill-opacity:1;stroke-width:0.48507;stroke-linejoin:bevel"
     id="path11967"
     cx="12.964583"
     cy="12.435416"
     r="2.9104166" />
  <path
     id="rect12835"
     style="opacity:1;fill:#424242;stroke-width:0.529167;stroke-linejoin:bevel"
     d="m 12.7,10.583334 h 0.529166 v 1.5875 h 1.5875 V 12.7 H 12.7 Z"
     sodipodi:nodetypes="ccccccc" />
</svg>
