<?xml version="1.0" encoding="UTF-8" standalone="no"?>
<!-- Created with Inkscape (http://www.inkscape.org/) -->

<svg
   width="64"
   height="64"
   viewBox="0 0 16.933333 16.933333"
   version="1.1"
   id="svg5"
   inkscape:version="1.2 (dc2aedaf03, 2022-05-15)"
   sodipodi:docname="fcitx.svg"
   xmlns:inkscape="http://www.inkscape.org/namespaces/inkscape"
   xmlns:sodipodi="http://sodipodi.sourceforge.net/DTD/sodipodi-0.dtd"
   xmlns="http://www.w3.org/2000/svg"
   xmlns:svg="http://www.w3.org/2000/svg">
  <sodipodi:namedview
     id="namedview7"
     pagecolor="#ffffff"
     bordercolor="#666666"
     borderopacity="1.0"
     inkscape:pageshadow="2"
     inkscape:pageopacity="0.0"
     inkscape:pagecheckerboard="0"
     inkscape:document-units="px"
     showgrid="false"
     units="px"
     height="48px"
     inkscape:zoom="8.6952037"
     inkscape:cx="31.166607"
     inkscape:cy="42.322183"
     inkscape:window-width="1920"
     inkscape:window-height="1016"
     inkscape:window-x="0"
     inkscape:window-y="0"
     inkscape:window-maximized="1"
     inkscape:current-layer="svg5"
     inkscape:showpageshadow="2"
     inkscape:deskcolor="#d1d1d1"
     showguides="false" />
  <defs
     id="defs2" />
  <rect
     style="opacity:1;fill:#7b736e;fill-opacity:1;stroke-width:0.264583"
     id="rect845"
     width="14.816667"
     height="11.641666"
     x="1.0583333"
     y="3.7041667"
     ry="1.0583333" />
  <path
     d="m 2.778125,5.5562499 c -0.2198687,0 -0.396875,0.1770062 -0.396875,0.396875 v 0.79375 c 0,0.2198687 0.1770063,0.3968749 0.396875,0.3968749 h 0.79375 c 0.2198688,0 0.396875,-0.1770062 0.396875,-0.3968749 v -0.79375 c 0,-0.2198688 -0.1770062,-0.396875 -0.396875,-0.396875 z m 2.1166667,0 c -0.2198688,0 -0.396875,0.1770062 -0.396875,0.396875 v 0.79375 c 0,0.2198687 0.1770062,0.3968749 0.396875,0.3968749 h 0.79375 c 0.2198687,0 0.396875,-0.1770062 0.396875,-0.3968749 v -0.79375 c 0,-0.2198688 -0.1770063,-0.396875 -0.396875,-0.396875 z m 2.1166666,0 c -0.2198687,0 -0.396875,0.1770062 -0.396875,0.396875 v 0.79375 c 0,0.2198687 0.1770063,0.3968749 0.396875,0.3968749 h 0.79375 c 0.2198688,0 0.396875,-0.1770062 0.396875,-0.3968749 v -0.79375 c 0,-0.2198688 -0.1770062,-0.396875 -0.396875,-0.396875 z m 2.1166667,0 c -0.2198688,0 -0.396875,0.1770062 -0.396875,0.396875 v 0.79375 c 0,0.2198687 0.1770062,0.3968749 0.396875,0.3968749 h 0.7937499 c 0.2198691,0 0.3968751,-0.1770062 0.3968751,-0.3968749 v -0.79375 c 0,-0.2198688 -0.177006,-0.396875 -0.3968751,-0.396875 z m 2.116666,0 c -0.219868,0 -0.396875,0.1770062 -0.396875,0.396875 v 0.79375 c 0,0.2198687 0.177007,0.3968749 0.396875,0.3968749 h 0.79375 c 0.219869,0 0.396875,-0.1770062 0.396875,-0.3968749 v -0.79375 c 0,-0.2198688 -0.177006,-0.396875 -0.396875,-0.396875 z m 2.116667,0 c -0.219869,0 -0.396875,0.1770062 -0.396875,0.396875 v 0.79375 c 0,0.2198687 0.177006,0.3968749 0.396875,0.3968749 h 0.79375 c 0.219869,0 0.396875,-0.1770062 0.396875,-0.3968749 v -0.79375 c 0,-0.2198688 -0.177006,-0.396875 -0.396875,-0.396875 z M 2.778125,7.6729165 c -0.2198687,0 -0.396875,0.1770063 -0.396875,0.396875 v 0.79375 c 0,0.2198687 0.1770063,0.396875 0.396875,0.396875 h 0.79375 c 0.2198688,0 0.396875,-0.1770063 0.396875,-0.396875 v -0.79375 c 0,-0.2198687 -0.1770062,-0.396875 -0.396875,-0.396875 z m 2.1166667,0 c -0.2198688,0 -0.396875,0.1770063 -0.396875,0.396875 v 0.79375 c 0,0.2198687 0.1770062,0.396875 0.396875,0.396875 h 0.79375 c 0.2198687,0 0.396875,-0.1770063 0.396875,-0.396875 v -0.79375 c 0,-0.2198687 -0.1770063,-0.396875 -0.396875,-0.396875 z m 2.1166666,0 c -0.2198687,0 -0.396875,0.1770063 -0.396875,0.396875 v 0.79375 c 0,0.2198687 0.1770063,0.396875 0.396875,0.396875 h 0.79375 c 0.2198688,0 0.396875,-0.1770063 0.396875,-0.396875 v -0.79375 c 0,-0.2198687 -0.1770062,-0.396875 -0.396875,-0.396875 z m 2.1166667,0 c -0.2198688,0 -0.396875,0.1770063 -0.396875,0.396875 v 0.79375 c 0,0.2198687 0.1770062,0.396875 0.396875,0.396875 h 0.7937499 c 0.2198691,0 0.3968751,-0.1770063 0.3968751,-0.396875 v -0.79375 c 0,-0.2198687 -0.177006,-0.396875 -0.3968751,-0.396875 z m 2.116666,0 c -0.219868,0 -0.396875,0.1770063 -0.396875,0.396875 v 0.79375 c 0,0.2198687 0.177007,0.396875 0.396875,0.396875 h 0.79375 c 0.219869,0 0.396875,-0.1770063 0.396875,-0.396875 v -0.79375 c 0,-0.2198687 -0.177006,-0.396875 -0.396875,-0.396875 z m 2.116667,0 c -0.219869,0 -0.396875,0.1770063 -0.396875,0.396875 v 0.79375 c 0,0.2198687 0.177006,0.396875 0.396875,0.396875 h 0.79375 c 0.219869,0 0.396875,-0.1770063 0.396875,-0.396875 v -0.79375 c 0,-0.2198687 -0.177006,-0.396875 -0.396875,-0.396875 z M 2.778125,9.7895831 c -0.2198687,0 -0.396875,0.1770063 -0.396875,0.3968749 v 0.79375 c 0,0.219869 0.1770063,0.396876 0.396875,0.396876 h 0.79375 c 0.2198688,0 0.396875,-0.177007 0.396875,-0.396876 v -0.79375 c 0,-0.2198686 -0.1770062,-0.3968749 -0.396875,-0.3968749 z m 2.1166667,0 c -0.2198688,0 -0.396875,0.1770063 -0.396875,0.3968749 v 0.79375 c 0,0.219869 0.1770062,0.396876 0.396875,0.396876 h 0.79375 c 0.2198687,0 0.396875,-0.177007 0.396875,-0.396876 v -0.79375 c 0,-0.2198686 -0.1770063,-0.3968749 -0.396875,-0.3968749 z m 2.1166666,0 c -0.2198687,0 -0.396875,0.1770063 -0.396875,0.3968749 v 0.79375 c 0,0.219869 0.1770063,0.396876 0.396875,0.396876 h 0.79375 c 0.2198688,0 0.396875,-0.177007 0.396875,-0.396876 v -0.79375 c 0,-0.2198686 -0.1770062,-0.3968749 -0.396875,-0.3968749 z m 2.1166667,0 c -0.2198688,0 -0.396875,0.1770063 -0.396875,0.3968749 v 0.79375 c 0,0.219869 0.1770062,0.396876 0.396875,0.396876 h 0.7937499 c 0.2198691,0 0.3968751,-0.177007 0.3968751,-0.396876 v -0.79375 c 0,-0.2198686 -0.177006,-0.3968749 -0.3968751,-0.3968749 z m 2.116666,0 c -0.219868,0 -0.396875,0.1770063 -0.396875,0.3968749 v 0.79375 c 0,0.219869 0.177007,0.396876 0.396875,0.396876 h 0.79375 c 0.219869,0 0.396875,-0.177007 0.396875,-0.396876 v -0.79375 c 0,-0.2198686 -0.177006,-0.3968749 -0.396875,-0.3968749 z m 2.116667,0 c -0.219869,0 -0.396875,0.1770063 -0.396875,0.3968749 v 0.79375 c 0,0.219869 0.177006,0.396876 0.396875,0.396876 h 0.79375 c 0.219869,0 0.396875,-0.177007 0.396875,-0.396876 v -0.79375 c 0,-0.2198686 -0.177006,-0.3968749 -0.396875,-0.3968749 z M 5.159375,11.90625 c -0.2198687,0 -0.396875,0.177006 -0.396875,0.396875 v 0.79375 c 0,0.219869 0.1770063,0.396875 0.396875,0.396875 h 6.614583 c 0.219869,0 0.396875,-0.177006 0.396875,-0.396875 v -0.79375 c 0,-0.219869 -0.177006,-0.396875 -0.396875,-0.396875 z"
     style="fill:#000000;fill-opacity:1;stroke-width:0.264583;opacity:0.5"
     id="path5577" />
  <path
     d="m 2.778125,5.2916666 c -0.2198687,0 -0.396875,0.1770062 -0.396875,0.396875 v 0.79375 c 0,0.2198687 0.1770063,0.3968749 0.396875,0.3968749 h 0.79375 c 0.2198688,0 0.396875,-0.1770062 0.396875,-0.3968749 v -0.79375 c 0,-0.2198688 -0.1770062,-0.396875 -0.396875,-0.396875 z m 2.1166667,0 c -0.2198688,0 -0.396875,0.1770062 -0.396875,0.396875 v 0.79375 c 0,0.2198687 0.1770062,0.3968749 0.396875,0.3968749 h 0.79375 c 0.2198687,0 0.396875,-0.1770062 0.396875,-0.3968749 v -0.79375 c 0,-0.2198688 -0.1770063,-0.396875 -0.396875,-0.396875 z m 2.1166666,0 c -0.2198687,0 -0.396875,0.1770062 -0.396875,0.396875 v 0.79375 c 0,0.2198687 0.1770063,0.3968749 0.396875,0.3968749 h 0.79375 c 0.2198688,0 0.396875,-0.1770062 0.396875,-0.3968749 v -0.79375 c 0,-0.2198688 -0.1770062,-0.396875 -0.396875,-0.396875 z m 2.1166667,0 c -0.2198688,0 -0.396875,0.1770062 -0.396875,0.396875 v 0.79375 c 0,0.2198687 0.1770062,0.3968749 0.396875,0.3968749 h 0.7937499 c 0.2198691,0 0.3968751,-0.1770062 0.3968751,-0.3968749 v -0.79375 c 0,-0.2198688 -0.177006,-0.396875 -0.3968751,-0.396875 z m 2.116666,0 c -0.219868,0 -0.396875,0.1770062 -0.396875,0.396875 v 0.79375 c 0,0.2198687 0.177007,0.3968749 0.396875,0.3968749 h 0.79375 c 0.219869,0 0.396875,-0.1770062 0.396875,-0.3968749 v -0.79375 c 0,-0.2198688 -0.177006,-0.396875 -0.396875,-0.396875 z m 2.116667,0 c -0.219869,0 -0.396875,0.1770062 -0.396875,0.396875 v 0.79375 c 0,0.2198687 0.177006,0.3968749 0.396875,0.3968749 h 0.79375 c 0.219869,0 0.396875,-0.1770062 0.396875,-0.3968749 v -0.79375 c 0,-0.2198688 -0.177006,-0.396875 -0.396875,-0.396875 z M 2.778125,7.4083332 c -0.2198687,0 -0.396875,0.1770063 -0.396875,0.396875 v 0.79375 c 0,0.2198687 0.1770063,0.396875 0.396875,0.396875 h 0.79375 c 0.2198688,0 0.396875,-0.1770063 0.396875,-0.396875 v -0.79375 c 0,-0.2198687 -0.1770062,-0.396875 -0.396875,-0.396875 z m 2.1166667,0 c -0.2198688,0 -0.396875,0.1770063 -0.396875,0.396875 v 0.79375 c 0,0.2198687 0.1770062,0.396875 0.396875,0.396875 h 0.79375 c 0.2198687,0 0.396875,-0.1770063 0.396875,-0.396875 v -0.79375 c 0,-0.2198687 -0.1770063,-0.396875 -0.396875,-0.396875 z m 2.1166666,0 c -0.2198687,0 -0.396875,0.1770063 -0.396875,0.396875 v 0.79375 c 0,0.2198687 0.1770063,0.396875 0.396875,0.396875 h 0.79375 c 0.2198688,0 0.396875,-0.1770063 0.396875,-0.396875 v -0.79375 c 0,-0.2198687 -0.1770062,-0.396875 -0.396875,-0.396875 z m 2.1166667,0 c -0.2198688,0 -0.396875,0.1770063 -0.396875,0.396875 v 0.79375 c 0,0.2198687 0.1770062,0.396875 0.396875,0.396875 h 0.7937499 c 0.2198691,0 0.3968751,-0.1770063 0.3968751,-0.396875 v -0.79375 c 0,-0.2198687 -0.177006,-0.396875 -0.3968751,-0.396875 z m 2.116666,0 c -0.219868,0 -0.396875,0.1770063 -0.396875,0.396875 v 0.79375 c 0,0.2198687 0.177007,0.396875 0.396875,0.396875 h 0.79375 c 0.219869,0 0.396875,-0.1770063 0.396875,-0.396875 v -0.79375 c 0,-0.2198687 -0.177006,-0.396875 -0.396875,-0.396875 z m 2.116667,0 c -0.219869,0 -0.396875,0.1770063 -0.396875,0.396875 v 0.79375 c 0,0.2198687 0.177006,0.396875 0.396875,0.396875 h 0.79375 c 0.219869,0 0.396875,-0.1770063 0.396875,-0.396875 v -0.79375 c 0,-0.2198687 -0.177006,-0.396875 -0.396875,-0.396875 z M 2.778125,9.5249998 c -0.2198687,0 -0.396875,0.1770063 -0.396875,0.396875 v 0.7937502 c 0,0.219869 0.1770063,0.396876 0.396875,0.396876 h 0.79375 c 0.2198688,0 0.396875,-0.177007 0.396875,-0.396876 V 9.9218748 c 0,-0.2198687 -0.1770062,-0.396875 -0.396875,-0.396875 z m 2.1166667,0 c -0.2198688,0 -0.396875,0.1770063 -0.396875,0.396875 v 0.7937502 c 0,0.219869 0.1770062,0.396876 0.396875,0.396876 h 0.79375 c 0.2198687,0 0.396875,-0.177007 0.396875,-0.396876 V 9.9218748 c 0,-0.2198687 -0.1770063,-0.396875 -0.396875,-0.396875 z m 2.1166666,0 c -0.2198687,0 -0.396875,0.1770063 -0.396875,0.396875 v 0.7937502 c 0,0.219869 0.1770063,0.396876 0.396875,0.396876 h 0.79375 c 0.2198688,0 0.396875,-0.177007 0.396875,-0.396876 V 9.9218748 c 0,-0.2198687 -0.1770062,-0.396875 -0.396875,-0.396875 z m 2.1166667,0 c -0.2198688,0 -0.396875,0.1770063 -0.396875,0.396875 v 0.7937502 c 0,0.219869 0.1770062,0.396876 0.396875,0.396876 h 0.7937499 c 0.2198691,0 0.3968751,-0.177007 0.3968751,-0.396876 V 9.9218748 c 0,-0.2198687 -0.177006,-0.396875 -0.3968751,-0.396875 z m 2.116666,0 c -0.219868,0 -0.396875,0.1770063 -0.396875,0.396875 v 0.7937502 c 0,0.219869 0.177007,0.396876 0.396875,0.396876 h 0.79375 c 0.219869,0 0.396875,-0.177007 0.396875,-0.396876 V 9.9218748 c 0,-0.2198687 -0.177006,-0.396875 -0.396875,-0.396875 z m 2.116667,0 c -0.219869,0 -0.396875,0.1770063 -0.396875,0.396875 v 0.7937502 c 0,0.219869 0.177006,0.396876 0.396875,0.396876 h 0.79375 c 0.219869,0 0.396875,-0.177007 0.396875,-0.396876 V 9.9218748 c 0,-0.2198687 -0.177006,-0.396875 -0.396875,-0.396875 z M 5.159375,11.641667 c -0.2198687,0 -0.396875,0.177006 -0.396875,0.396875 v 0.79375 c 0,0.219869 0.1770063,0.396875 0.396875,0.396875 h 6.614583 c 0.219869,0 0.396875,-0.177006 0.396875,-0.396875 v -0.79375 c 0,-0.219869 -0.177006,-0.396875 -0.396875,-0.396875 z"
     style="fill:#ededed;fill-opacity:1;stroke-width:0.264583"
     id="path983"
     sodipodi:nodetypes="sssssssssssssssssssssssssssssssssssssssssssssssssssssssssssssssssssssssssssssssssssssssssssssssssssssssssssssssssssssssssssssssssssssssssssssssssssssssssssssssssssssssssss" />
  <path
     id="rect652"
     style="opacity:0.5;fill:#000000;stroke-width:0.264583"
     d="m 2.1166666,3.7041666 c -0.5863161,0 -1.0583333,0.4720173 -1.0583333,1.0583333 v 9.5249991 c 0,0.586316 0.4720172,1.058334 1.0583333,1.058334 H 14.816666 c 0.586316,0 1.058334,-0.472018 1.058334,-1.058334 V 4.7624999 c 0,-0.586316 -0.472018,-1.0583333 -1.058334,-1.0583333 z m 0,0.2645833 H 14.816666 c 0.439737,0 0.79375,0.354013 0.79375,0.79375 v 8.9958331 c 0,0.439737 -0.354013,0.79375 -0.79375,0.79375 H 2.1166666 c -0.4397371,0 -0.79375,-0.354013 -0.79375,-0.79375 V 4.7624999 c 0,-0.439737 0.3540129,-0.79375 0.79375,-0.79375 z"
     sodipodi:nodetypes="ssssssssssssssssss" />
</svg>
