<?xml version="1.0" encoding="UTF-8" standalone="no"?>
<!-- Created with Inkscape (http://www.inkscape.org/) -->

<svg
   width="64"
   height="64"
   viewBox="0 0 16.933333 16.933334"
   version="1.1"
   id="svg1099"
   inkscape:version="1.2 (dc2aedaf03, 2022-05-15)"
   sodipodi:docname="goa-account-lastfm.svg"
   xmlns:inkscape="http://www.inkscape.org/namespaces/inkscape"
   xmlns:sodipodi="http://sodipodi.sourceforge.net/DTD/sodipodi-0.dtd"
   xmlns="http://www.w3.org/2000/svg"
   xmlns:svg="http://www.w3.org/2000/svg">
  <sodipodi:namedview
     id="namedview1101"
     pagecolor="#ffffff"
     bordercolor="#666666"
     borderopacity="1.0"
     inkscape:pageshadow="2"
     inkscape:pageopacity="0.0"
     inkscape:pagecheckerboard="0"
     inkscape:document-units="px"
     showgrid="false"
     units="px"
     inkscape:zoom="8.8609319"
     inkscape:cx="22.514562"
     inkscape:cy="49.486894"
     inkscape:window-width="1846"
     inkscape:window-height="1011"
     inkscape:window-x="0"
     inkscape:window-y="0"
     inkscape:window-maximized="1"
     inkscape:current-layer="svg1099"
     inkscape:showpageshadow="2"
     inkscape:deskcolor="#d1d1d1" />
  <defs
     id="defs1096" />
  <rect
     style="opacity:1;fill:#cf3b00;fill-opacity:1;stroke-width:0.529167;stroke-linecap:round"
     id="rect934"
     width="13.758333"
     height="13.758333"
     x="1.5875"
     y="-15.345833"
     ry="1.190625"
     transform="scale(1,-1)" />
  <path
     id="rect1524"
     style="opacity:0.5;fill:#000000;fill-opacity:1;stroke-width:2;stroke-linecap:round"
     d="M 10.5 6 C 8.0070001 6 6 8.0070001 6 10.5 L 6 53.5 C 6 55.993 8.0070001 58 10.5 58 L 53.5 58 C 55.993 58 58 55.993 58 53.5 L 58 10.5 C 58 8.0070001 55.993 6 53.5 6 L 10.5 6 z M 11 7 L 53 7 C 55.216 7 57 8.7839999 57 11 L 57 51 C 57 53.216 55.216 55 53 55 L 11 55 C 8.7839999 55 7 53.216 7 51 L 7 11 C 7 8.7839999 8.7839999 7 11 7 z "
     transform="scale(0.26458334)" />
  <path
     d="M 6.3784282,11.087473 C 6.2090301,11.064189 5.9076966,10.964706 5.7066986,10.866439 4.3971186,10.22911 3.8615587,8.6239325 4.5065758,7.2718564 5.2434588,5.7258932 7.254088,5.3318221 8.4639836,6.4962554 c 0.3498731,0.3361802 0.5052636,0.6230421 1.0320276,1.895055 0.5498928,1.3302214 0.6515318,1.5393484 0.8297258,1.7166726 0.190898,0.188649 0.36779,0.252149 0.706261,0.252149 0.556083,0 0.953192,-0.349092 0.953192,-0.8361912 0,-0.412275 -0.142687,-0.5443019 -0.870448,-0.806716 C 10.006486,8.3111943 9.6474922,7.9442696 9.6461882,7.2073509 c 0,-0.3931185 0.09806,-0.6552154 0.347267,-0.9268371 0.3576908,-0.3878269 0.9746928,-0.5158855 1.5206768,-0.3233214 0.232923,0.084084 0.720269,0.5221826 0.720269,0.6475954 0,0.060854 -0.282439,0.2468566 -0.439133,0.2908305 -0.08274,0.021696 -0.154087,-0.00636 -0.249537,-0.09959 -0.193506,-0.1885963 -0.324463,-0.2468566 -0.556083,-0.2468566 -0.399715,0 -0.647623,0.2442108 -0.647623,0.6386524 0,0.3931185 0.157671,0.5260983 0.945374,0.7961324 1.085453,0.3722695 1.406006,0.7084497 1.412522,1.4863793 0.0065,0.6720952 -0.291561,1.1568662 -0.884455,1.4437282 -0.269735,0.129382 -0.361275,0.145944 -0.801711,0.145944 -0.628728,0 -0.911168,-0.118798 -1.2636468,-0.522183 C 9.5132762,10.266522 9.2728612,9.7572508 8.5030755,7.8982319 8.1838249,7.1279229 7.774011,6.7503619 7.0905535,6.6017716 6.7442641,6.5266827 6.2621298,6.5964798 5.9477657,6.7645963 5.6412195,6.9274212 5.2988395,7.2947165 5.137259,7.6305791 5.0036947,7.9032062 4.9909907,7.9796709 4.9909907,8.453858 c 0,0.4523324 0.01792,0.5595418 0.1296543,0.8077218 0.1693983,0.378884 0.5026571,0.728928 0.8691443,0.9175762 0.2648479,0.135679 0.3472669,0.152559 0.7697854,0.152559 0.4059044,0 0.51015,-0.01958 0.7521938,-0.137003 0.2762507,-0.137 0.6476242,-0.4731802 0.7991054,-0.7250112 l 0.078836,-0.130704 0.1553903,0.360681 c 0.086654,0.199178 0.1563683,0.3865042 0.1563683,0.4202122 0,0.09964 -0.3511763,0.425239 -0.6730331,0.628069 -0.4886505,0.306441 -1.0499453,0.421217 -1.6493552,0.338508"
     style="fill:#ffffff;stroke-width:0.529167"
     id="path16950" />
</svg>
