<?xml version="1.0" encoding="UTF-8" standalone="no"?>
<!-- Created with Inkscape (http://www.inkscape.org/) -->

<svg
   width="64"
   height="64"
   viewBox="0 0 16.933333 16.933334"
   version="1.1"
   id="svg1099"
   inkscape:version="1.1.2 (0a00cf5339, 2022-02-04, custom)"
   sodipodi:docname="internet-web-browser.svg"
   xmlns:inkscape="http://www.inkscape.org/namespaces/inkscape"
   xmlns:sodipodi="http://sodipodi.sourceforge.net/DTD/sodipodi-0.dtd"
   xmlns="http://www.w3.org/2000/svg"
   xmlns:svg="http://www.w3.org/2000/svg">
  <sodipodi:namedview
     id="namedview1101"
     pagecolor="#ffffff"
     bordercolor="#666666"
     borderopacity="1.0"
     inkscape:pageshadow="2"
     inkscape:pageopacity="0.0"
     inkscape:pagecheckerboard="0"
     inkscape:document-units="px"
     showgrid="false"
     units="px"
     inkscape:zoom="6.265625"
     inkscape:cx="30.40399"
     inkscape:cy="35.591022"
     inkscape:window-width="1920"
     inkscape:window-height="1017"
     inkscape:window-x="0"
     inkscape:window-y="0"
     inkscape:window-maximized="1"
     inkscape:current-layer="svg1099" />
  <defs
     id="defs1096" />
  <rect
     style="opacity:1;fill:#1f285a;stroke-width:0.264583;fill-opacity:1"
     id="rect1196"
     width="15.875"
     height="16.404167"
     x="0.5291667"
     y="0.5291667"
     ry="7.9375" />
  <circle
     style="opacity:1;fill:#3f51b5;fill-opacity:1;stroke-width:0.274032"
     id="path1427"
     cx="8.4666672"
     cy="8.4666672"
     r="7.6729169" />
  <path
     d="m 8.4666667,0.79375001 c -0.6947958,0 -1.3668375,0.0931333 -2.0060709,0.26458329 H 6.5841562 C 5.5831766,1.6309631 4.721643,2.6458333 4.113477,3.96875 H 2.2439311 C 2.1194367,4.1401895 2.0021258,4.31673 1.8922999,4.4979167 H 3.891227 C 3.4553127,5.6264043 3.2115018,6.8986322 3.1813499,8.2020835 H 0.80062901 c -0.003175,0.088106 -0.006879,0.1756833 -0.006879,0.2645833 0,0.0889 0.003704,0.1764771 0.006879,0.2645834 H 3.1837312 c 0.02894,1.3029408 0.2713831,2.5751338 0.7059083,3.7041668 h -1.997075 c 0.1095375,0.181769 0.2275416,0.357717 0.3513666,0.529167 h 1.8639897 c 0.60579,1.320773 1.4640084,2.335437 2.4616834,2.910416 H 6.4605958 c 1.3140849,0.353021 2.6980569,0.353021 4.0121412,0 h -0.12356 c 1.00098,-0.572629 1.862513,-1.5875 2.470679,-2.910416 h 1.869811 c 0.123825,-0.17145 0.241564,-0.347398 0.351366,-0.529167 h -1.998927 c 0.436007,-1.128453 0.679911,-2.400681 0.710142,-3.7041668 h 2.380721 c 0.0026,-0.088106 0.0066,-0.1756834 0.0066,-0.2645834 0,-0.0889 -0.0037,-0.1764771 -0.0066,-0.2645833 H 13.749602 C 13.720662,6.8991428 13.478219,5.6269494 13.043694,4.4979167 h 1.997339 C 14.9312,4.3167353 14.813889,4.1401947 14.689402,3.96875 H 12.825677 C 12.219818,2.647913 11.361502,1.6332438 10.363729,1.0583333 h 0.109008 C 9.8335042,0.88688335 9.1614626,0.79375001 8.4666667,0.79375001 Z M 8.7312501,1.1234208 C 9.2928044,1.3713142 9.8026009,2.3960534 10.146771,3.96875 H 8.7312501 Z m -0.5291667,0.00265 V 3.96875 H 6.7876208 C 7.1316771,2.3978976 7.6410291,1.3742432 8.2020834,1.1260666 Z M 9.5755355,1.2707937 C 10.638409,1.6667771 11.581389,2.6193776 12.24624,3.96875 H 10.646304 C 10.376562,2.7977412 10.006817,1.8658866 9.5758001,1.2707937 Z M 7.3567396,1.2713229 C 6.9270986,1.8679371 6.5586901,2.7994689 6.2899396,3.96875 H 4.6897395 C 5.3537088,2.6206741 6.295263,1.6683778 7.3567396,1.2713229 Z M 4.4516145,4.4979167 H 6.1790792 C 5.9610757,5.62637 5.839124,6.8985978 5.8240083,8.2020835 H 3.7126333 C 3.7431291,6.8871889 3.9981981,5.6086508 4.4516145,4.4979167 Z m 2.2304376,0 H 8.2020834 V 8.2020835 H 6.3534396 C 6.3668804,6.8873027 6.48013,5.6087752 6.6815229,4.4979167 Z m 2.0494625,0 h 1.5221484 c 0.201115,1.1111363 0.314078,2.3896453 0.327289,3.7041668 H 8.7312501 Z m 2.0240624,0 h 1.731169 c 0.452485,1.1111469 0.706633,2.3896559 0.736335,3.7041668 H 11.108002 C 11.093688,6.8992778 10.972654,5.6270949 10.755577,4.4979167 Z M 3.7105166,8.7312502 h 2.1150792 c 0.014314,1.3028058 0.1353476,2.5749888 0.352425,3.7041668 H 4.446852 C 3.9943669,11.32427 3.7402187,10.045761 3.7105166,8.7312502 Z m 2.6421292,0 H 8.2020834 V 12.435417 H 6.6796708 C 6.4786483,11.324188 6.3657771,10.045684 6.3526458,8.7312502 Z m 2.3786043,0 H 10.579894 C 10.566453,10.046028 10.453203,11.324558 10.25181,12.435417 H 8.7312501 Z m 2.3783399,0 h 2.111375 C 13.190465,10.046145 12.9354,11.324683 12.481983,12.435417 H 10.754254 C 10.97235,11.307038 11.094392,10.034805 11.10959,8.7312502 Z M 4.6873583,12.964584 H 6.2872937 C 6.5570365,14.135592 6.9267811,15.067447 7.3577979,15.66254 6.2949243,15.266557 5.351944,14.313956 4.6870937,12.964584 Z m 2.0994688,0 H 8.202348 v 2.845329 C 7.6406984,15.562255 7.1307934,14.537495 6.7865625,12.964584 Z m 1.9446875,0 h 1.4144624 c -0.3441196,1.571064 -0.8535774,2.594742 -1.4147269,2.842683 z m 1.9118794,0 h 1.600729 c -0.663969,1.348076 -1.605523,2.300372 -2.667,2.697427 0.429445,-0.596853 0.797666,-1.528363 1.066271,-2.697427 z"
     style="fill:#94a6ff;stroke-width:0.264583"
     id="path930" />
</svg>
