<?xml version="1.0" encoding="UTF-8" standalone="no"?>
<!-- Created with Inkscape (http://www.inkscape.org/) -->

<svg
   width="64"
   height="64"
   viewBox="0 0 16.933333 16.933334"
   version="1.1"
   id="svg1099"
   inkscape:version="1.2 (dc2aedaf03, 2022-05-15)"
   sodipodi:docname="io.elementary.music.svg"
   xmlns:inkscape="http://www.inkscape.org/namespaces/inkscape"
   xmlns:sodipodi="http://sodipodi.sourceforge.net/DTD/sodipodi-0.dtd"
   xmlns="http://www.w3.org/2000/svg"
   xmlns:svg="http://www.w3.org/2000/svg">
  <sodipodi:namedview
     id="namedview1101"
     pagecolor="#ffffff"
     bordercolor="#666666"
     borderopacity="1.0"
     inkscape:pageshadow="2"
     inkscape:pageopacity="0.0"
     inkscape:pagecheckerboard="0"
     inkscape:document-units="px"
     showgrid="false"
     units="px"
     inkscape:zoom="8.8609319"
     inkscape:cx="22.458134"
     inkscape:cy="34.646469"
     inkscape:window-width="1846"
     inkscape:window-height="1011"
     inkscape:window-x="0"
     inkscape:window-y="0"
     inkscape:window-maximized="1"
     inkscape:current-layer="svg1099"
     inkscape:showpageshadow="2"
     inkscape:deskcolor="#d1d1d1" />
  <defs
     id="defs1096" />
  <rect
     style="opacity:1;fill:#faa41a;fill-opacity:1;stroke-width:0.529167;stroke-linecap:round"
     id="rect934"
     width="13.758333"
     height="13.758333"
     x="1.5875"
     y="-15.345833"
     ry="1.190625"
     transform="scale(1,-1)" />
  <path
     id="rect1524"
     style="opacity:0.5;fill:#000000;fill-opacity:1;stroke-width:2;stroke-linecap:round"
     d="M 10.5 6 C 8.0070001 6 6 8.0070001 6 10.5 L 6 53.5 C 6 55.993 8.0070001 58 10.5 58 L 53.5 58 C 55.993 58 58 55.993 58 53.5 L 58 10.5 C 58 8.0070001 55.993 6 53.5 6 L 10.5 6 z M 11 7 L 53 7 C 55.216 7 57 8.7839999 57 11 L 57 51 C 57 53.216 55.216 55 53 55 L 11 55 C 8.7839999 55 7 53.216 7 51 L 7 11 C 7 8.7839999 8.7839999 7 11 7 z "
     transform="scale(0.26458334)" />
  <path
     d="m 7.672907,5.5562507 c -0.4397347,0 -0.7937467,0.354012 -0.7937467,0.7937466 v 2.449453 C 6.7517019,8.7543455 6.617492,8.7312761 6.482287,8.7312381 c -0.6575611,0 -1.1906198,0.5330587 -1.1906193,1.1906198 -5e-7,0.6575611 0.5330582,1.1906201 1.1906193,1.1906201 0.6575617,0 1.19062,-0.533059 1.19062,-1.1906201 h 0.00235 V 7.1437438 h 2.38124 v 1.656482 C 9.9283487,8.754596 9.7933283,8.7312606 9.6572979,8.7312381 c -0.6575611,0 -1.1906198,0.5330587 -1.1906198,1.1906198 0,0.6575611 0.5330587,1.1906201 1.1906198,1.1906201 0.6575611,0 1.1906201,-0.533059 1.1906201,-1.1906201 V 6.3499973 c 0,-0.4397346 -0.354012,-0.7937466 -0.793747,-0.7937466 z"
     style="opacity:0.2;fill:#000000;fill-opacity:1;stroke-width:0.264582;stroke-linejoin:bevel"
     id="path53287" />
  <path
     id="path53193"
     style="fill:#ffffff;fill-opacity:1;stroke-width:0.264582;stroke-linejoin:bevel"
     d="m 7.6729063,5.2916667 c -0.4397347,0 -0.7937466,0.3540119 -0.7937466,0.7937465 V 8.5348655 C 6.7517012,8.4897607 6.6174908,8.4666918 6.4822864,8.4666533 c -0.6575611,0 -1.1906197,0.5330586 -1.1906197,1.1906197 0,0.657561 0.5330586,1.19062 1.1906197,1.19062 0.6575611,0 1.1906199,-0.533059 1.1906199,-1.19062 h 0.00235 V 6.8791597 H 10.056496 V 8.535641 C 9.9283473,8.490011 9.7933274,8.466676 9.657297,8.466653 c -0.6575611,0 -1.1906197,0.5330586 -1.1906197,1.1906197 0,0.6575613 0.5330586,1.1906203 1.1906197,1.1906203 0.657561,0 1.19062,-0.533059 1.19062,-1.1906203 V 6.0854132 c 0,-0.4397346 -0.354012,-0.7937465 -0.793747,-0.7937465 z"
     sodipodi:nodetypes="ssccssccccccssssss" />
</svg>
