<?xml version="1.0" encoding="UTF-8" standalone="no"?>
<!-- Created with Inkscape (http://www.inkscape.org/) -->

<svg
   width="64"
   height="64"
   viewBox="0 0 16.933333 16.933334"
   version="1.1"
   id="svg1099"
   inkscape:version="1.1.2 (0a00cf5339, 2022-02-04, custom)"
   sodipodi:docname="kate.svg"
   xmlns:inkscape="http://www.inkscape.org/namespaces/inkscape"
   xmlns:sodipodi="http://sodipodi.sourceforge.net/DTD/sodipodi-0.dtd"
   xmlns="http://www.w3.org/2000/svg"
   xmlns:svg="http://www.w3.org/2000/svg">
  <sodipodi:namedview
     id="namedview1101"
     pagecolor="#ffffff"
     bordercolor="#666666"
     borderopacity="1.0"
     inkscape:pageshadow="2"
     inkscape:pageopacity="0.0"
     inkscape:pagecheckerboard="0"
     inkscape:document-units="px"
     showgrid="false"
     units="px"
     inkscape:zoom="12.53125"
     inkscape:cx="31.9601"
     inkscape:cy="32"
     inkscape:window-width="1920"
     inkscape:window-height="1017"
     inkscape:window-x="0"
     inkscape:window-y="0"
     inkscape:window-maximized="1"
     inkscape:current-layer="svg1099" />
  <defs
     id="defs1096" />
  <rect
     style="opacity:1;fill:#25688c;stroke-width:0.264583;fill-opacity:1"
     id="rect1196"
     width="15.875"
     height="16.404167"
     x="0.5291667"
     y="0.5291667"
     ry="7.9375" />
  <circle
     style="opacity:1;fill:#3daee9;fill-opacity:1;stroke-width:0.274032"
     id="path1427"
     cx="8.4666672"
     cy="8.4666672"
     r="7.6729169" />
  <path
     d="M 7.9302654,3.4419011 C 7.1498353,3.4674678 6.268922,3.7074854 5.4131063,4.3209173 4.5246085,4.9577776 4.1351515,5.0791957 3.7041667,5.2908841 4.0853834,5.3196641 6.3515276,5.0537039 6.782015,6.3564522 5.2377913,6.8868907 4.6213004,7.7268462 4.8033245,8.7020452 c 0.0077,0.04822 0.017505,0.0969 0.029456,0.146244 0.00246,0.0093 0.00515,0.01857 0.00775,0.02791 0.035614,0.138325 0.083429,0.280049 0.1539957,0.426847 0.1206259,0.250938 0.258323,0.45743 0.4103108,0.636137 4.762e-4,5.56e-4 0.00108,10e-4 0.00156,0.0016 0.7314505,0.8586378 1.8055215,1.0251358 3.0432252,1.8443318 1.1677526,0.772894 1.5553808,1.166745 2.3088918,2.238096 C 10.601824,12.542897 9.7766245,10.63506 9.4381838,9.7944852 l -0.022738,-0.06976 C 10.47861,10.458482 11.740328,10.735551 13.229167,10.840936 10.865457,9.1760582 10.417009,8.9398602 9.0640466,7.7987442 c -0.9076918,0.04527 -0.8083227,0.03732 -1.343587,0.0677 0.1923783,0.317316 0.3957791,0.59771 0.6077146,0.852145 C 8.6195418,9.5354802 8.5192264,10.365702 7.5736984,10.560337 6.3677405,10.808572 4.9993117,9.7783692 5.3299073,8.6751732 5.6888971,7.4772302 7.2859793,7.7078532 8.9116011,7.5000512 10.537223,7.2922492 12.022624,5.7143709 12.916008,4.5467434 11.623845,4.9829837 10.035301,5.3907638 8.2232708,5.9187528 7.8851421,5.2470223 7.4887203,4.1005326 9.4128624,3.8806342 9.5455928,3.8655398 9.6893028,3.8549432 9.8443605,3.8491115 9.3906191,3.6055025 8.7106958,3.416336 7.9302654,3.4419011 Z"
     style="opacity:0.2;fill:#000000;stroke-width:0.264583"
     id="path2109" />
  <path
     id="path8"
     style="fill:#cccccc;fill-opacity:1;stroke-width:0.264583"
     d="M 8.0744426,3.2545829 C 7.3506384,3.2482409 6.4802918,3.5419922 5.4105226,4.3087822 4.5220245,4.9456425 4.1351515,4.8143628 3.7041667,5.0260512 4.0881568,5.0550408 6.3853273,4.7841929 6.7918336,6.1195244 7.0032071,6.0546586 7.7368631,5.8531094 8.2015667,5.719549 7.8361491,5.0148734 6.7495191,3.6460737 9.2304446,3.5527559 8.8901388,3.3700492 8.5087252,3.2583887 8.0744426,3.2545829 Z"
     sodipodi:nodetypes="scccccs" />
  <path
     d="M 12.915843,4.2820064 C 12.02246,5.4496338 10.537117,7.0271802 8.911496,7.2349829 7.2858742,7.4427851 5.6890328,7.212578 5.330043,8.4105209 4.9994474,9.5137163 6.3679529,10.543716 7.5739105,10.295474 8.8622514,10.030271 8.5840151,8.5854009 7.8793439,7.6014816 8.4146082,7.5711128 7.9409725,7.7559861 8.8486638,7.7107154 l 0.589579,1.8190039 C 9.7766833,10.370295 10.601959,12.278065 10.758651,13.758335 10.00514,12.686985 9.6175813,12.293266 8.4498176,11.520361 6.9539888,10.530321 5.6954643,10.496805 4.9942968,9.0381708 4.2946434,7.5826893 5.3735045,6.5342498 7.0306661,6.0802026 9.3988722,5.4313331 11.333696,4.8161472 12.915843,4.2820064 Z"
     style="fill:#f2f2f2;fill-opacity:1;stroke-width:0.264583"
     id="path1289" />
  <path
     d="M 9.0640463,7.5339084 C 8.1563545,7.579177 8.2557235,7.5712305 7.7204592,7.6016047 9.0554984,9.8036643 10.853321,10.407931 13.229167,10.5761 10.865457,8.9112226 10.417009,8.675024 9.0640463,7.5339084 Z"
     style="fill:#cccccc;fill-opacity:1;stroke-width:0.264583"
     id="path1856" />
  <path
     id="path14"
     style="fill:#e6e6e6;fill-opacity:1;stroke-width:0.264583"
     d="M 8.0754761,3.1750013 C 7.2601409,3.1743663 6.3224107,3.404313 5.4131062,4.0560845 4.5246084,4.6929448 4.1351515,4.8143628 3.7041667,5.0260512 5.5443809,4.620768 6.0256162,4.206321 7.6739503,4.5501113 7.6831048,4.1666729 7.3634345,3.6775964 9.8443603,3.5842787 9.4189779,3.3558951 8.7948899,3.175559 8.0754761,3.1750013 Z"
     sodipodi:nodetypes="sccccs" />
  <path
     d="M 9.8444133,3.5840628 C 7.3634876,3.6773805 7.8361229,5.0147609 8.2015405,5.7194363 7.9120308,5.8026441 7.7890551,5.8974369 7.4020395,5.9987845 5.8404729,3.2456279 8.5698988,2.887459 9.8444133,3.5840628 Z"
     style="fill:#f2f2f2;fill-opacity:1;stroke-width:0.264583"
     id="path1169" />
  <path
     d="M 12.916007,4.2819106 C 11.33386,4.8160514 9.3269161,5.2959776 6.9809694,6.0228896 4.6737755,6.7377927 4.251265,8.0941975 5.3381755,9.5875303 3.4322928,6.9311634 8.7174897,5.8647971 12.916007,4.2819106 Z M 5.3381755,9.5875303 c 0.032282,0.04499 0.066388,0.09051 0.1028361,0.136425 -0.035774,-0.04558 -0.069835,-0.09108 -0.1028361,-0.136425 z"
     style="fill:#e6e6e6;fill-opacity:1;stroke-width:0.264583"
     id="path1561" />
</svg>
