<?xml version="1.0" encoding="UTF-8" standalone="no"?>
<!-- Created with Inkscape (http://www.inkscape.org/) -->

<svg
   width="64"
   height="64"
   viewBox="0 0 16.933333 16.933333"
   version="1.1"
   id="svg5"
   inkscape:version="1.2 (dc2aedaf03, 2022-05-15)"
   sodipodi:docname="libreoffice-impress.svg"
   xmlns:inkscape="http://www.inkscape.org/namespaces/inkscape"
   xmlns:sodipodi="http://sodipodi.sourceforge.net/DTD/sodipodi-0.dtd"
   xmlns="http://www.w3.org/2000/svg"
   xmlns:svg="http://www.w3.org/2000/svg">
  <sodipodi:namedview
     id="namedview7"
     pagecolor="#ffffff"
     bordercolor="#666666"
     borderopacity="1.0"
     inkscape:pageshadow="2"
     inkscape:pageopacity="0.0"
     inkscape:pagecheckerboard="0"
     inkscape:document-units="px"
     showgrid="false"
     units="px"
     height="48px"
     inkscape:zoom="12.5"
     inkscape:cx="32"
     inkscape:cy="32"
     inkscape:window-width="1920"
     inkscape:window-height="1016"
     inkscape:window-x="0"
     inkscape:window-y="0"
     inkscape:window-maximized="1"
     inkscape:current-layer="svg5"
     inkscape:showpageshadow="2"
     inkscape:deskcolor="#d1d1d1" />
  <defs
     id="defs2" />
  <rect
     style="fill:#671d00;stroke-width:0.264583;fill-opacity:1"
     id="rect6508"
     width="12.170833"
     height="15.875001"
     x="2.3812499"
     y="0.52916652"
     ry="1.190625" />
  <rect
     style="opacity:1;fill:#cf3b00;fill-opacity:1;stroke-width:0.264583"
     id="rect845"
     width="11.641666"
     height="14.816667"
     x="2.6458333"
     y="0.79374999"
     ry="1.0583333" />
  <path
     id="path2228"
     style="opacity:1;fill:#ffffff;fill-opacity:1;stroke-width:0.529167"
     d="M 6.3499999 7.9374998 A 1.5875 1.5875 0 0 0 4.7624999 9.5249998 L 6.3499999 9.5249998 L 6.3499999 11.1125 A 1.5875 1.5875 0 0 0 7.9374998 9.5249998 A 1.5875 1.5875 0 0 0 6.3499999 7.9374998 z M 9.2604165 8.4666665 C 9.1138375 8.4666665 8.9958332 8.5846708 8.9958332 8.7312498 L 8.9958332 10.31875 C 8.9958332 10.465329 9.1138375 10.583333 9.2604165 10.583333 L 11.90625 10.583333 C 12.052829 10.583333 12.170833 10.465329 12.170833 10.31875 L 12.170833 8.7312498 C 12.170833 8.5846708 12.052829 8.4666665 11.90625 8.4666665 L 9.2604165 8.4666665 z M 5.0038288 11.641666 C 4.8701482 11.641666 4.7624999 11.749315 4.7624999 11.882995 L 4.7624999 11.929504 C 4.7624999 12.063184 4.8701482 12.170833 5.0038288 12.170833 L 11.929504 12.170833 C 12.063185 12.170833 12.170833 12.063184 12.170833 11.929504 L 12.170833 11.882995 C 12.170833 11.749315 12.063185 11.641666 11.929504 11.641666 L 5.0038288 11.641666 z M 5.0038288 13.229166 C 4.8701482 13.229166 4.7624999 13.336814 4.7624999 13.470495 L 4.7624999 13.517004 C 4.7624999 13.650684 4.8701482 13.758333 5.0038288 13.758333 L 9.2836709 13.758333 C 9.4173507 13.758333 9.5249998 13.650684 9.5249998 13.517004 L 9.5249998 13.470495 C 9.5249998 13.336814 9.4173507 13.229166 9.2836709 13.229166 L 5.0038288 13.229166 z " />
  <path
     id="rect3450"
     style="opacity:0.5;fill:#671d00;fill-opacity:1;stroke-width:0.264583"
     d="m 8.9958332,0.79374998 h 4.2333338 c 0.586318,0 1.058334,0.47201662 1.058334,1.05833332 v 4.2333332 z"
     sodipodi:nodetypes="csscc" />
  <path
     id="rect2783"
     style="fill:#f15d22;fill-opacity:1;stroke-width:0.264583"
     d="m 10.054168,0.79375 h 3.175001 c 0.586316,0 1.058332,0.4720167 1.058332,1.0583333 v 3.1749999 z"
     sodipodi:nodetypes="csscc" />
</svg>
