<?xml version="1.0" encoding="UTF-8" standalone="no"?>
<!-- Created with Inkscape (http://www.inkscape.org/) -->

<svg
   width="64"
   height="64"
   viewBox="0 0 16.933333 16.933333"
   version="1.1"
   id="svg5"
   inkscape:version="1.2 (dc2aedaf03, 2022-05-15)"
   sodipodi:docname="libreoffice-math.svg"
   xmlns:inkscape="http://www.inkscape.org/namespaces/inkscape"
   xmlns:sodipodi="http://sodipodi.sourceforge.net/DTD/sodipodi-0.dtd"
   xmlns="http://www.w3.org/2000/svg"
   xmlns:svg="http://www.w3.org/2000/svg">
  <sodipodi:namedview
     id="namedview7"
     pagecolor="#ffffff"
     bordercolor="#666666"
     borderopacity="1.0"
     inkscape:pageshadow="2"
     inkscape:pageopacity="0.0"
     inkscape:pagecheckerboard="0"
     inkscape:document-units="px"
     showgrid="false"
     units="px"
     height="48px"
     inkscape:zoom="12.46875"
     inkscape:cx="32"
     inkscape:cy="32"
     inkscape:window-width="1920"
     inkscape:window-height="1016"
     inkscape:window-x="0"
     inkscape:window-y="0"
     inkscape:window-maximized="1"
     inkscape:current-layer="svg5"
     inkscape:showpageshadow="2"
     inkscape:deskcolor="#d1d1d1" />
  <defs
     id="defs2" />
  <rect
     style="fill:#212121;stroke-width:0.264583;fill-opacity:1"
     id="rect6508"
     width="12.170833"
     height="15.875001"
     x="2.3812499"
     y="0.52916652"
     ry="1.190625" />
  <rect
     style="opacity:1;fill:#424242;fill-opacity:1;stroke-width:0.264583"
     id="rect845"
     width="11.641666"
     height="14.816667"
     x="2.6458333"
     y="0.79374999"
     ry="1.0583333" />
  <path
     id="rect3450"
     style="opacity:0.5;fill:#212121;fill-opacity:1;stroke-width:0.264583"
     d="m 8.9958332,0.79374998 h 4.2333338 c 0.586318,0 1.058334,0.47201662 1.058334,1.05833332 v 4.2333332 z"
     sodipodi:nodetypes="csscc" />
  <path
     id="rect2783"
     style="fill:#6d6d6d;fill-opacity:1;stroke-width:0.264583"
     d="m 10.054168,0.79375 h 3.175001 c 0.586316,0 1.058332,0.4720167 1.058332,1.0583333 v 3.1749999 z"
     sodipodi:nodetypes="csscc" />
  <path
     id="path1266"
     style="fill:#ffffff;stroke-width:0.264583"
     d="M 7.7835041,9.2604165 6.6838296,12.336198 6.6316364,12.565124 H 6.6151 L 6.5654906,12.336198 6.1164224,11.1125 H 5.2120849 v 0.429948 h 0.5183146 l 0.6836791,1.730643 H 6.8243895 L 8.1380044,9.7895831 H 11.826668 V 9.2604165 Z m 0.8350911,1.0309445 v 0.34985 l 0.2950724,0.06356 0.8707479,1.060917 -0.8898681,1.097091 -0.3307292,0.06305 v 0.347265 h 1.2180135 v -0.347265 l -0.322461,-0.02997 0.6340703,-0.79685 0.65319,0.79685 -0.358635,0.02997 v 0.347265 h 1.265039 v -0.347265 l -0.308508,-0.06305 -0.928626,-1.105359 0.807186,-1.052649 0.303341,-0.06356 v -0.34985 h -1.149284 v 0.34985 l 0.319877,0.03049 -0.595312,0.763261 -0.6118492,-0.760677 0.2976563,-0.03307 v -0.34985 z"
     sodipodi:nodetypes="cccccccccccccccccccccccccccccccccccccccccccc" />
</svg>
