<?xml version="1.0" encoding="UTF-8" standalone="no"?>
<!-- Created with Inkscape (http://www.inkscape.org/) -->

<svg
   width="64"
   height="64"
   viewBox="0 0 16.933333 16.933334"
   version="1.1"
   id="svg1099"
   inkscape:version="1.2 (dc2aedaf03, 2022-05-15)"
   sodipodi:docname="lollypop.svg"
   xmlns:inkscape="http://www.inkscape.org/namespaces/inkscape"
   xmlns:sodipodi="http://sodipodi.sourceforge.net/DTD/sodipodi-0.dtd"
   xmlns="http://www.w3.org/2000/svg"
   xmlns:svg="http://www.w3.org/2000/svg">
  <sodipodi:namedview
     id="namedview1101"
     pagecolor="#ffffff"
     bordercolor="#666666"
     borderopacity="1.0"
     inkscape:pageshadow="2"
     inkscape:pageopacity="0.0"
     inkscape:pagecheckerboard="0"
     inkscape:document-units="px"
     showgrid="false"
     units="px"
     inkscape:zoom="12.71875"
     inkscape:cx="31.960688"
     inkscape:cy="32"
     inkscape:window-width="1920"
     inkscape:window-height="1011"
     inkscape:window-x="0"
     inkscape:window-y="0"
     inkscape:window-maximized="1"
     inkscape:current-layer="svg1099"
     inkscape:showpageshadow="2"
     inkscape:deskcolor="#d1d1d1" />
  <defs
     id="defs1096" />
  <rect
     style="opacity:1;fill:#8a2e4e;stroke-width:0.264583;fill-opacity:1"
     id="rect1196"
     width="15.875"
     height="16.404167"
     x="0.5291667"
     y="0.5291667"
     ry="7.9375" />
  <circle
     style="opacity:1;fill:#ed6697;fill-opacity:1;stroke-width:0.274032"
     id="path1427"
     cx="8.4666672"
     cy="8.4666672"
     r="7.6729169" />
  <path
     id="path401"
     style="fill:#f6f6f6;stroke-width:0.264583;fill-opacity:1"
     d="M 6.8858847 0.96221518 A 7.6729169 7.6729169 0 0 0 3.2778361 2.8163656 C 3.4518739 3.7288937 4.0320269 5.1363261 4.6834351 6.0389079 A 4.4979167 4.4979167 0 0 0 3.96875 8.4666667 A 4.4979167 4.4979167 0 0 0 3.9728842 8.5731202 C 3.0350637 7.9920736 1.8359055 6.9270067 1.2118123 5.9846477 A 7.6729169 7.6729169 0 0 0 0.79375001 8.4666667 A 7.6729169 7.6729169 0 0 0 0.93224285 9.8903525 C 1.8042998 10.218047 3.3642795 10.629075 4.4860311 10.554395 A 4.4979167 4.4979167 0 0 0 6.3246786 12.41888 C 5.4020858 12.963278 4.056873 13.660307 2.9760458 13.819312 A 7.6729169 7.6729169 0 0 0 6.3453492 15.836243 C 7.0249707 15.148593 7.8715434 13.906345 8.2956178 12.958382 A 4.4979167 4.4979167 0 0 0 8.4666667 12.964583 A 4.4979167 4.4979167 0 0 0 10.828796 12.290723 C 10.877628 13.378472 11.02119 14.8411 10.638627 15.822807 A 7.6729169 7.6729169 0 0 0 14.07356 13.70304 C 13.72641 12.812171 12.896458 11.645544 12.27367 10.856185 A 4.4979167 4.4979167 0 0 0 12.964583 8.4666667 A 4.4979167 4.4979167 0 0 0 12.962 8.330241 C 13.846917 8.791098 15.159421 9.4146557 15.953032 10.143567 A 7.6729169 7.6729169 0 0 0 16.139583 8.4666667 A 7.6729169 7.6729169 0 0 0 15.846061 6.3670533 C 14.770458 6.2135039 13.329095 6.2540178 12.441618 6.3618856 A 4.4979167 4.4979167 0 0 0 10.605554 4.5098023 C 11.38951 4.02632 12.611861 3.2748283 13.695288 2.8515056 A 7.6729169 7.6729169 0 0 0 10.628809 1.1048421 C 9.9013571 1.9503926 9.0414577 3.1534952 8.6506349 3.9728842 A 4.4979167 4.4979167 0 0 0 8.4666667 3.96875 A 4.4979167 4.4979167 0 0 0 6.1241741 4.6296916 C 6.1366492 3.4872615 6.3578777 1.9372273 6.8858847 0.96221518 z " />
  <path
     d="m 7.0114583,6.3500001 c -0.209796,5.292e-4 -0.382979,0.1641581 -0.3952874,0.3735917 h -7.938e-4 v 0.010054 l -7.937e-4,0.013229 c 0,0.00926 0,0.018521 7.937e-4,0.027781 l -7.937e-4,3.4036012 c 0,0.219188 0.1776862,0.396875 0.3968749,0.396875 0.05792,-2.41e-4 0.1150832,-0.01315 0.1674813,-0.03784 l 7.937e-4,7.94e-4 0.010054,-0.0053 0.00159,-0.0011 c 0.011959,-0.0058 0.023601,-0.0123 0.034925,-0.01932 l 3.1138807,-1.6951858 0.004,-0.0016 v -7.93e-4 c 0.130732,-0.06835 0.212763,-0.203579 0.212988,-0.351102 -1.4e-4,-0.1423035 -0.07646,-0.2736395 -0.200024,-0.3442225 l -0.0069,-0.004 c -5.29e-4,-2.65e-4 -0.0013,-2.65e-4 -0.0016,-7.94e-4 L 7.2038104,6.3994772 h -7.937e-4 c -0.058716,-0.03224 -0.1245738,-0.04925 -0.1915584,-0.049477 z"
     style="fill:#ed6697;stroke-width:0.264583;fill-opacity:1"
     id="path1020" />
</svg>
