<?xml version="1.0" encoding="UTF-8" standalone="no"?>
<!-- Created with Inkscape (http://www.inkscape.org/) -->

<svg
   width="64"
   height="64"
   viewBox="0 0 16.933333 16.933333"
   version="1.1"
   id="svg5"
   inkscape:version="1.2 (dc2aedaf03, 2022-05-15)"
   sodipodi:docname="multimedia-photo-manager.svg"
   xmlns:inkscape="http://www.inkscape.org/namespaces/inkscape"
   xmlns:sodipodi="http://sodipodi.sourceforge.net/DTD/sodipodi-0.dtd"
   xmlns="http://www.w3.org/2000/svg"
   xmlns:svg="http://www.w3.org/2000/svg">
  <sodipodi:namedview
     id="namedview7"
     pagecolor="#ffffff"
     bordercolor="#666666"
     borderopacity="1.0"
     inkscape:pageshadow="2"
     inkscape:pageopacity="0.0"
     inkscape:pagecheckerboard="0"
     inkscape:document-units="px"
     showgrid="false"
     units="px"
     height="48px"
     inkscape:zoom="11.799844"
     inkscape:cx="25.085077"
     inkscape:cy="41.568346"
     inkscape:window-width="1920"
     inkscape:window-height="1014"
     inkscape:window-x="0"
     inkscape:window-y="0"
     inkscape:window-maximized="1"
     inkscape:current-layer="svg5"
     inkscape:showpageshadow="2"
     inkscape:deskcolor="#d1d1d1" />
  <defs
     id="defs2" />
  <rect
     style="opacity:1;fill:#245c63;fill-opacity:1;stroke-width:0.264583"
     id="rect845"
     width="14.816667"
     height="11.641666"
     x="1.0583332"
     y="3.7041667"
     ry="1.0583333" />
  <rect
     style="opacity:1;fill:#48b9c7;fill-opacity:1;stroke-width:0.264583"
     id="rect1249"
     width="14.287499"
     height="10.583333"
     x="1.3229165"
     y="3.96875"
     ry="0.92604166" />
  <rect
     style="opacity:1;fill:#ffffff;fill-opacity:1;stroke-width:0.529167;stroke-linecap:round"
     id="rect1223"
     width="11.641666"
     height="7.9375"
     x="2.6458333"
     y="5.2916665"
     ry="0.52916664" />
  <path
     d="M 4.2333331,5.8208332 V 10.31875 l 1.5875,-1.5875002 1.5875,1.5875002 L 10.054166,7.6729165 12.7,10.31875 V 5.8208332 Z"
     style="opacity:0.5;fill:#1c8d9b;stroke-width:0.264583"
     id="path48231" />
  <path
     d="M 8.4666664,8.2020831 12.7,12.7 H 4.2333331 Z"
     style="fill:#1c8d9b;stroke-width:0.264583"
     id="path48259" />
  <rect
     style="opacity:1;fill:#671d00;fill-opacity:1;stroke-width:0.264583"
     id="rect49816"
     width="6.8791666"
     height="6.3499999"
     x="9.5250006"
     y="9.5249996"
     ry="1.4552083" />
  <rect
     style="fill:#cf3b00;fill-opacity:1;stroke-width:0.264583"
     id="rect3945"
     width="6.3499999"
     height="5.2916665"
     x="9.7895832"
     y="9.7895832"
     ry="1.3229166" />
  <path
     d="m 11.641665,10.847916 v 0.264583 h -0.264583 c -0.146579,0 -0.264583,0.118005 -0.264583,0.264584 v 2.38125 c 0,0.146579 0.118004,0.264583 0.264583,0.264583 h 3.175 c 0.146579,0 0.264583,-0.118004 0.264583,-0.264583 v -2.38125 c 0,-0.146579 -0.118004,-0.264584 -0.264583,-0.264584 h -2.116667 v -0.264583 z m 0.264584,0.79375 c 0.352777,0 0.352777,0.529167 0,0.529167 -0.352777,0 -0.352777,-0.529167 0,-0.529167 z m 1.322916,0.264583 c 1.058334,0 1.058334,1.5875 0,1.5875 -1.058333,0 -1.058333,-1.5875 0,-1.5875 z"
     style="fill:#fefefe;stroke-width:0.264583"
     id="path7320" />
</svg>
