<?xml version="1.0" encoding="UTF-8" standalone="no"?>
<!-- Created with Inkscape (http://www.inkscape.org/) -->

<svg
   width="64"
   height="64"
   viewBox="0 0 16.933333 16.933333"
   version="1.1"
   id="svg5"
   inkscape:version="1.2 (dc2aedaf03, 2022-05-15)"
   sodipodi:docname="org.gnome.Software.Devel.svg"
   xmlns:inkscape="http://www.inkscape.org/namespaces/inkscape"
   xmlns:sodipodi="http://sodipodi.sourceforge.net/DTD/sodipodi-0.dtd"
   xmlns="http://www.w3.org/2000/svg"
   xmlns:svg="http://www.w3.org/2000/svg">
  <sodipodi:namedview
     id="namedview7"
     pagecolor="#ffffff"
     bordercolor="#666666"
     borderopacity="1.0"
     inkscape:pageshadow="2"
     inkscape:pageopacity="0.0"
     inkscape:pagecheckerboard="0"
     inkscape:document-units="px"
     showgrid="false"
     units="px"
     height="48px"
     inkscape:zoom="12.765625"
     inkscape:cx="32"
     inkscape:cy="32"
     inkscape:window-width="1846"
     inkscape:window-height="1011"
     inkscape:window-x="74"
     inkscape:window-y="32"
     inkscape:window-maximized="1"
     inkscape:current-layer="svg5"
     inkscape:showpageshadow="2"
     inkscape:deskcolor="#d1d1d1"
     showguides="false" />
  <defs
     id="defs2" />
  <rect
     style="fill:#cdcdcd;fill-opacity:1;stroke-width:0.529167;stroke-linecap:round"
     id="rect934"
     width="13.758333"
     height="13.758333"
     x="1.5875001"
     y="1.5875"
     ry="1.190625" />
  <path
     id="rect1524"
     style="opacity:0.5;fill:#000000;fill-opacity:1;stroke-width:0.529167;stroke-linecap:round"
     d="M 2.7781251,1.5875001 C 2.1185188,1.5875001 1.5875,2.1185189 1.5875,2.7781252 V 14.155209 c 0,0.659606 0.5310188,1.190625 1.1906251,1.190625 H 14.155208 c 0.659607,0 1.190626,-0.531019 1.190626,-1.190625 V 2.7781252 c 0,-0.6596063 -0.531019,-1.1906251 -1.190626,-1.1906251 z M 2.9104167,1.8520835 H 14.022917 c 0.586317,0 1.058333,0.4720166 1.058333,1.0583333 V 13.49375 c 0,0.586317 -0.472016,1.058334 -1.058333,1.058334 H 2.9104167 c -0.5863167,0 -1.0583333,-0.472017 -1.0583333,-1.058334 V 2.9104168 c 0,-0.5863167 0.4720166,-1.0583333 1.0583333,-1.0583333 z" />
  <rect
     style="fill:#424242;fill-opacity:1;stroke:none;stroke-width:0.264583;stroke-linecap:square;stroke-linejoin:bevel"
     id="rect29955"
     width="10.583333"
     height="10.054167"
     x="3.175"
     y="3.175"
     ry="0.52916664" />
  <path
     id="rect4333"
     style="fill:#94a6ff;fill-opacity:1;stroke-width:2.44412;stroke-linejoin:round"
     d="M 4.2333332,4.2333332 V 4.7624998 H 12.699999 V 4.2333332 Z m 0,1.0583343 V 5.820834 H 10.054166 V 5.2916675 Z"
     sodipodi:nodetypes="cccccccccc" />
  <path
     id="rect7993"
     style="fill:#cf3b00;fill-opacity:1;stroke-width:2.11666;stroke-linejoin:round"
     d="M 4.2333332,8.466667 V 8.9958333 H 6.3499995 V 8.466667 Z m 0,1.058333 v 0.529166 H 6.3499995 V 9.525 Z"
     sodipodi:nodetypes="cccccccccc" />
  <path
     id="rect10265"
     style="fill:#7851c2;fill-opacity:1;stroke-width:2.11666;stroke-linejoin:round"
     d="M 4.2333332,6.3500009 V 6.8791675 H 6.3499995 V 6.3500009 Z m 0,1.0583331 V 7.937501 H 6.3499995 V 7.408334 Z"
     sodipodi:nodetypes="cccccccccc" />
  <path
     id="rect14289"
     style="fill:#73c48f;fill-opacity:1;stroke-width:2.11666;stroke-linejoin:round"
     d="m 7.1437499,8.4666674 v 0.529166 H 12.7 v -0.529166 z m 0,1.0583326 v 0.529167 H 10.054166 V 9.525 Z"
     sodipodi:nodetypes="cccccccccc" />
  <path
     id="rect16549"
     style="fill:#ffffff;fill-opacity:1;stroke-width:2.11666;stroke-linejoin:round"
     d="M 7.1437498,10.583332 V 11.1125 H 12.7 v -0.529168 z m -2.9104166,1.058334 v 0.529165 h 4.7624997 v -0.529165 z"
     sodipodi:nodetypes="cccccccccc" />
  <path
     id="rect18497"
     style="fill:#b84acb;fill-opacity:1;stroke-width:2.11666;stroke-linejoin:round"
     d="M 7.1437499,6.3500005 V 6.8791671 H 12.7 V 6.3500005 Z m 0,1.0583335 V 7.9375006 H 10.054166 V 7.408334 Z"
     sodipodi:nodetypes="cccccccccc" />
</svg>
