<?xml version="1.0" encoding="UTF-8" standalone="no"?>
<!-- Created with Inkscape (http://www.inkscape.org/) -->

<svg
   width="64"
   height="64"
   viewBox="0 0 16.933333 16.933334"
   version="1.1"
   id="svg1099"
   inkscape:version="1.2 (dc2aedaf03, 2022-05-15)"
   sodipodi:docname="org.gnome.Software.Socialize.svg"
   xmlns:inkscape="http://www.inkscape.org/namespaces/inkscape"
   xmlns:sodipodi="http://sodipodi.sourceforge.net/DTD/sodipodi-0.dtd"
   xmlns="http://www.w3.org/2000/svg"
   xmlns:svg="http://www.w3.org/2000/svg">
  <sodipodi:namedview
     id="namedview1101"
     pagecolor="#ffffff"
     bordercolor="#666666"
     borderopacity="1.0"
     inkscape:pageshadow="2"
     inkscape:pageopacity="0.0"
     inkscape:pagecheckerboard="0"
     inkscape:document-units="px"
     showgrid="false"
     units="px"
     inkscape:zoom="6.265625"
     inkscape:cx="30.563591"
     inkscape:cy="35.830424"
     inkscape:window-width="1846"
     inkscape:window-height="1011"
     inkscape:window-x="0"
     inkscape:window-y="0"
     inkscape:window-maximized="1"
     inkscape:current-layer="svg1099"
     inkscape:showpageshadow="2"
     inkscape:deskcolor="#d1d1d1" />
  <defs
     id="defs1096" />
  <rect
     style="opacity:1;fill:#7f6728;stroke-width:0.264583;fill-opacity:1"
     id="rect1196"
     width="15.875"
     height="16.404167"
     x="0.5291667"
     y="0.5291667"
     ry="7.9375" />
  <circle
     style="opacity:1;fill:#ffce51;fill-opacity:1;stroke-width:0.274032"
     id="path1427"
     cx="8.4666672"
     cy="8.4666672"
     r="7.6729169" />
  <path
     d="m 5.6513361,10.477394 c 0.5814605,1.208787 1.6558586,1.953874 2.8189503,1.954922 1.1619815,-0.0024 2.2349386,-0.747287 2.8158436,-1.954922 h -0.395838 c -0.61609,0.826695 -1.4957996,1.300459 -2.4200056,1.303285 -0.9247489,-0.0023 -1.8051093,-0.476107 -2.421562,-1.303285 z"
     id="path548"
     style="fill:#7f6728;fill-opacity:1;stroke-width:0.264583"
     sodipodi:nodetypes="ccccccc" />
  <path
     id="path3330"
     style="fill:#cf3b00;fill-opacity:1;stroke-width:0.264582"
     d="m 4.678784,4.4980125 c -0.5390536,0.01356 -0.9746173,0.4517558 -0.9746173,0.9921872 0,0.2857499 0.120782,0.546365 0.3141926,0.7276041 L 5.5314451,7.673012 7.0941401,6.2178038 C 7.2950447,6.029186 7.4087085,5.7657707 7.4083329,5.4901997 c 0,-0.5490094 -0.4498584,-0.9921872 -1.0004557,-0.9921872 -0.3630077,0 -0.6770025,0.1906319 -0.8516276,0.4795571 C 5.3767509,4.6789892 5.0530026,4.4969284 4.7046224,4.4980125 c -0.0086,0 -0.01728,-2.153e-4 -0.025838,0 z m 5.820833,0 c -0.5390543,0.01356 -0.9746174,0.4517558 -0.9746174,0.9921872 0,0.2857499 0.1207816,0.546365 0.3141931,0.7276041 l 1.5130853,1.4552081 1.562696,-1.4552081 c 0.200904,-0.1886178 0.314568,-0.4520331 0.314192,-0.7276041 0,-0.5490095 -0.449858,-0.9921873 -1.000456,-0.9921873 -0.363008,0 -0.677002,0.190632 -0.851627,0.4795572 -0.179499,-0.2985804 -0.503247,-0.4806413 -0.851628,-0.4795572 -0.0086,0 -0.01728,-2.152e-4 -0.02584,0 z" />
</svg>
