<?xml version="1.0" encoding="UTF-8" standalone="no"?>
<!-- Created with Inkscape (http://www.inkscape.org/) -->

<svg
   width="64"
   height="64"
   viewBox="0 0 16.933333 16.933334"
   version="1.1"
   id="svg1099"
   inkscape:version="1.2 (dc2aedaf03, 2022-05-15)"
   sodipodi:docname="preferences-other.svg"
   xmlns:inkscape="http://www.inkscape.org/namespaces/inkscape"
   xmlns:sodipodi="http://sodipodi.sourceforge.net/DTD/sodipodi-0.dtd"
   xmlns="http://www.w3.org/2000/svg"
   xmlns:svg="http://www.w3.org/2000/svg">
  <sodipodi:namedview
     id="namedview1101"
     pagecolor="#ffffff"
     bordercolor="#666666"
     borderopacity="1.0"
     inkscape:pageshadow="2"
     inkscape:pageopacity="0.0"
     inkscape:pagecheckerboard="0"
     inkscape:document-units="px"
     showgrid="false"
     units="px"
     inkscape:zoom="12.96875"
     inkscape:cx="32"
     inkscape:cy="32"
     inkscape:window-width="1920"
     inkscape:window-height="1009"
     inkscape:window-x="0"
     inkscape:window-y="0"
     inkscape:window-maximized="1"
     inkscape:current-layer="svg1099"
     inkscape:showpageshadow="2"
     inkscape:deskcolor="#d1d1d1" />
  <defs
     id="defs1096" />
  <rect
     style="opacity:1;fill:#dedede;fill-opacity:1;stroke-width:0.529167;stroke-linecap:round"
     id="rect934"
     width="13.758333"
     height="13.758333"
     x="1.5875"
     y="-15.345833"
     ry="1.190625"
     transform="scale(1,-1)" />
  <path
     id="rect1524"
     style="opacity:0.5;fill:#000000;fill-opacity:1;stroke-width:2;stroke-linecap:round"
     d="M 10.5 6 C 8.0070001 6 6 8.0070001 6 10.5 L 6 53.5 C 6 55.993 8.0070001 58 10.5 58 L 53.5 58 C 55.993 58 58 55.993 58 53.5 L 58 10.5 C 58 8.0070001 55.993 6 53.5 6 L 10.5 6 z M 11 7 L 53 7 C 55.216 7 57 8.7839999 57 11 L 57 51 C 57 53.216 55.216 55 53 55 L 11 55 C 8.7839999 55 7 53.216 7 51 L 7 11 C 7 8.7839999 8.7839999 7 11 7 z "
     transform="scale(0.26458334)" />
  <path
     d="m 5.2916669,7.6729168 c -0.4397376,0 -0.7937502,0.3540136 -0.7937502,0.7937505 0,0.4397371 0.3540125,0.7937491 0.7937502,0.7937491 0.4397374,0 0.7937496,-0.354012 0.7937496,-0.7937491 0,-0.4397369 -0.3540122,-0.7937505 -0.7937496,-0.7937505 z m 3.1750001,0 c -0.4397377,0 -0.7937499,0.3540136 -0.7937499,0.7937505 0,0.4397371 0.3540122,0.7937491 0.7937499,0.7937491 0.4397375,0 0.7937506,-0.354012 0.7937506,-0.7937491 0,-0.4397369 -0.3540131,-0.7937505 -0.7937506,-0.7937505 z m 3.175,0 c -0.439737,0 -0.793749,0.3540136 -0.793749,0.7937505 0,0.4397371 0.354012,0.7937491 0.793749,0.7937491 0.439738,0 0.79375,-0.354012 0.79375,-0.7937491 0,-0.4397369 -0.354012,-0.7937505 -0.79375,-0.7937505 z"
     id="path382"
     style="fill:#393634;fill-opacity:1;stroke-width:0.793752"
     sodipodi:nodetypes="sssssssssssssss" />
</svg>
