<?xml version="1.0" encoding="UTF-8" standalone="no"?>
<!-- Created with Inkscape (http://www.inkscape.org/) -->

<svg
   width="64"
   height="64"
   viewBox="0 0 16.933333 16.933333"
   version="1.1"
   id="svg5"
   inkscape:version="1.2 (dc2aedaf03, 2022-05-15)"
   sodipodi:docname="preferences-desktop-user-password.svg"
   xmlns:inkscape="http://www.inkscape.org/namespaces/inkscape"
   xmlns:sodipodi="http://sodipodi.sourceforge.net/DTD/sodipodi-0.dtd"
   xmlns="http://www.w3.org/2000/svg"
   xmlns:svg="http://www.w3.org/2000/svg">
  <sodipodi:namedview
     id="namedview7"
     pagecolor="#ffffff"
     bordercolor="#666666"
     borderopacity="1.0"
     inkscape:pageshadow="2"
     inkscape:pageopacity="0.0"
     inkscape:pagecheckerboard="0"
     inkscape:document-units="px"
     showgrid="false"
     units="px"
     height="48px"
     inkscape:zoom="11.799844"
     inkscape:cx="36.017425"
     inkscape:cy="44.661607"
     inkscape:window-width="1920"
     inkscape:window-height="1009"
     inkscape:window-x="0"
     inkscape:window-y="0"
     inkscape:window-maximized="1"
     inkscape:current-layer="svg5"
     inkscape:showpageshadow="2"
     inkscape:deskcolor="#d1d1d1" />
  <defs
     id="defs2" />
  <path
     d="m 8.4666666,0.79374998 c -2.1986875,0 -3.96875,1.77006252 -3.96875,3.96875002 v 4.4979161 c 0,2.1986879 1.7700625,3.9687499 3.96875,3.9687499 2.1986874,0 3.9687494,-1.770062 3.9687494,-3.9687499 V 4.7625 c 0,-2.1986875 -1.770062,-3.96875002 -3.9687494,-3.96875002 z m 0,2.11666672 c 1.3192125,0 2.3812494,1.0620374 2.3812494,2.3812499 v 3.7041666 c 0,1.3192128 -1.0620369,2.3812498 -2.3812494,2.3812498 -1.3192125,0 -2.38125,-1.062037 -2.38125,-2.3812498 V 5.2916666 c 0,-1.3192125 1.0620375,-2.3812499 2.38125,-2.3812499 z"
     style="fill:#6f6f6f;stroke-width:0.264583"
     id="path673" />
  <path
     d="m 8.4666665,1.0583333 c -2.0521083,0 -3.7041666,1.6520584 -3.7041666,3.7041667 v 7.408333 c 0,2.052108 1.6520583,3.704166 3.7041666,3.704166 2.0521085,0 3.7041665,-1.652058 3.7041665,-3.704166 V 4.7625 c 0,-2.0521083 -1.652058,-3.7041667 -3.7041665,-3.7041667 z m 0,1.0583334 c 1.4657912,0 2.6458335,1.1800416 2.6458335,2.6458333 v 7.408333 c 0,1.465791 -1.1800423,2.645833 -2.6458335,2.645833 -1.4657916,0 -2.6458333,-1.180042 -2.6458333,-2.645833 V 4.7625 c 0,-1.4657917 1.1800417,-2.6458333 2.6458333,-2.6458333 z"
     style="fill:#dedede;stroke-width:0.264583"
     id="path422" />
  <rect
     style="fill:#ffce51;fill-opacity:1;stroke-width:0.529167"
     id="rect1678"
     width="11.641666"
     height="8.4666662"
     x="2.6458333"
     y="7.4083333"
     ry="1.0583333" />
  <path
     d="m 3.7041671,7.4083333 c -0.5863166,0 -1.0583333,0.4720167 -1.0583333,1.0583333 V 8.9958333 H 14.2875 V 8.4666666 c 0,-0.5863166 -0.472016,-1.0583333 -1.058333,-1.0583333 z M 2.6458338,14.2875 v 0.529167 c 0,0.586316 0.4720167,1.058333 1.0583333,1.058333 h 9.5249999 c 0.586317,0 1.058333,-0.472017 1.058333,-1.058333 V 14.2875 Z"
     style="fill-opacity:1;stroke-width:0.264583;fill:#000000;opacity:0.1"
     id="path4502" />
  <path
     d="m 3.7041669,7.4083333 c -0.5863166,0 -1.0583333,0.4720166 -1.0583333,1.0583333 v 6.3500004 c 0,0.586316 0.4720167,1.058333 1.0583333,1.058333 h 9.5250001 c 0.586317,0 1.058333,-0.472017 1.058333,-1.058333 V 8.4666666 c 0,-0.5863167 -0.472016,-1.0583333 -1.058333,-1.0583333 z m 0,0.2645833 h 9.5250001 c 0.439738,0 0.79375,0.3540125 0.79375,0.79375 V 14.2875 c 0,0.439737 -0.354012,0.79375 -0.79375,0.79375 H 3.7041669 c -0.4397375,0 -0.79375,-0.354013 -0.79375,-0.79375 V 8.4666666 c 0,-0.4397375 0.3540125,-0.79375 0.79375,-0.79375 z"
     style="fill-opacity:1;stroke-width:0.264583;fill:#000000;opacity:0.5"
     id="path1256" />
</svg>
