<?xml version="1.0" encoding="UTF-8" standalone="no"?>
<!-- Created with Inkscape (http://www.inkscape.org/) -->

<svg
   width="64"
   height="64"
   viewBox="0 0 16.933333 16.933334"
   version="1.1"
   id="svg1099"
   inkscape:version="1.2 (dc2aedaf03, 2022-05-15)"
   sodipodi:docname="preferences-system-windows-move.svg"
   xmlns:inkscape="http://www.inkscape.org/namespaces/inkscape"
   xmlns:sodipodi="http://sodipodi.sourceforge.net/DTD/sodipodi-0.dtd"
   xmlns="http://www.w3.org/2000/svg"
   xmlns:svg="http://www.w3.org/2000/svg">
  <sodipodi:namedview
     id="namedview1101"
     pagecolor="#ffffff"
     bordercolor="#666666"
     borderopacity="1.0"
     inkscape:pageshadow="2"
     inkscape:pageopacity="0.0"
     inkscape:pagecheckerboard="0"
     inkscape:document-units="px"
     showgrid="false"
     units="px"
     inkscape:zoom="12.765625"
     inkscape:cx="32.078335"
     inkscape:cy="32.078335"
     inkscape:window-width="1920"
     inkscape:window-height="1010"
     inkscape:window-x="0"
     inkscape:window-y="0"
     inkscape:window-maximized="1"
     inkscape:current-layer="svg1099"
     inkscape:showpageshadow="2"
     inkscape:deskcolor="#d1d1d1" />
  <defs
     id="defs1096" />
  <rect
     style="opacity:1;fill:#245c63;fill-opacity:1;stroke-width:0.529167;stroke-linecap:round"
     id="rect934"
     width="13.758333"
     height="12.7"
     x="1.5875"
     y="-15.08125"
     ry="1.190625"
     transform="scale(1,-1)" />
  <rect
     style="fill:#48b9c7;fill-opacity:1;stroke-width:0.264583"
     id="rect2485"
     width="13.229167"
     height="11.641666"
     x="1.8520833"
     y="2.6458335"
     ry="1.0583334" />
  <path
     id="rect1821"
     style="fill:#3a95a0;fill-opacity:1;stroke-width:0.529167"
     d="m 2.9104167,3.7041667 c -0.146579,0 -0.2645833,0.1180043 -0.2645833,0.2645833 V 7.9375 c 0,0.1465791 0.1180043,0.2645834 0.2645833,0.2645834 h 5.8208334 c 0.146579,0 0.2645833,-0.1180043 0.2645833,-0.2645834 V 3.96875 c 0,-0.146579 -0.1180043,-0.2645833 -0.2645833,-0.2645833 z m 7.6729163,0.79375 c -0.146579,0 -0.264583,0.1180043 -0.264583,0.2645833 v 2.38125 c 0,0.1465791 0.118004,0.2645834 0.264583,0.2645834 h 3.439584 c 0.146579,0 0.264583,-0.1180043 0.264583,-0.2645834 V 4.7625 c 0,-0.146579 -0.118004,-0.2645833 -0.264583,-0.2645833 z m -5.0270829,4.7625 c -0.1465791,0 -0.2645834,0.1180043 -0.2645834,0.2645834 v 3.9687509 c 0,0.146579 0.1180043,0.264583 0.2645834,0.264583 h 5.8208329 c 0.146579,0 0.264584,-0.118004 0.264584,-0.264583 V 9.5250001 c 0,-0.1465791 -0.118005,-0.2645834 -0.264584,-0.2645834 z" />
  <rect
     style="fill:#ededed;fill-opacity:1;stroke-width:0.529167"
     id="rect1503"
     width="6.3499999"
     height="4.4979167"
     x="2.6458333"
     y="3.4395833"
     ry="0.26458335" />
  <path
     d="m 2.9104165,3.4395834 h 5.8208338 c 0.146579,0 0.264583,0.1180042 0.264583,0.2645834 V 4.2333335 H 2.6458332 V 3.7041668 c 0,-0.1465792 0.1180041,-0.2645834 0.2645833,-0.2645834 z"
     style="fill:#3d3937;stroke-width:0.529167;fill-opacity:1"
     id="path2155" />
  <rect
     style="fill:#ededed;fill-opacity:1;stroke-width:0.529167"
     id="rect1817"
     width="3.96875"
     height="2.9104166"
     x="10.31875"
     y="4.2333336"
     ry="0.26458335" />
  <path
     d="m 10.583334,4.2333336 h 3.439583 c 0.146579,0 0.264583,0.1180042 0.264583,0.2645834 V 5.0270834 H 10.31875 V 4.497917 c 0,-0.1465792 0.118005,-0.2645834 0.264584,-0.2645834 z"
     style="fill:#3d3937;stroke-width:0.529167;fill-opacity:1"
     id="path2099"
     sodipodi:nodetypes="sssccss" />
  <rect
     style="fill:#ededed;fill-opacity:1;stroke-width:0.529167"
     id="rect1819"
     width="6.3500004"
     height="4.4979167"
     x="5.2916665"
     y="8.9958334"
     ry="0.26458335" />
  <path
     d="m 5.5562498,8.9958334 h 5.8208332 c 0.146579,0 0.264584,0.118005 0.264584,0.264584 v 0.529166 H 5.2916665 v -0.529166 c 0,-0.146579 0.1180042,-0.264584 0.2645833,-0.264584 z"
     style="fill:#3d3937;stroke-width:0.529167;fill-opacity:1"
     id="path2127" />
</svg>
