<?xml version="1.0" encoding="UTF-8" standalone="no"?>
<!-- Created with Inkscape (http://www.inkscape.org/) -->

<svg
   width="64"
   height="64"
   viewBox="0 0 16.933333 16.933334"
   version="1.1"
   id="svg1099"
   inkscape:version="1.1.2 (0a00cf5339, 2022-02-04, custom)"
   sodipodi:docname="system-software-install.svg"
   xmlns:inkscape="http://www.inkscape.org/namespaces/inkscape"
   xmlns:sodipodi="http://sodipodi.sourceforge.net/DTD/sodipodi-0.dtd"
   xmlns="http://www.w3.org/2000/svg"
   xmlns:svg="http://www.w3.org/2000/svg">
  <sodipodi:namedview
     id="namedview1101"
     pagecolor="#ffffff"
     bordercolor="#666666"
     borderopacity="1.0"
     inkscape:pageshadow="2"
     inkscape:pageopacity="0.0"
     inkscape:pagecheckerboard="0"
     inkscape:document-units="px"
     showgrid="false"
     units="px"
     inkscape:zoom="8.8609319"
     inkscape:cx="24.545951"
     inkscape:cy="33.856484"
     inkscape:window-width="1920"
     inkscape:window-height="1017"
     inkscape:window-x="0"
     inkscape:window-y="0"
     inkscape:window-maximized="1"
     inkscape:current-layer="svg1099" />
  <defs
     id="defs1096" />
  <rect
     style="opacity:1;fill:#245c63;fill-opacity:1;stroke-width:0.529167;stroke-linecap:round"
     id="rect934"
     width="13.758333"
     height="13.758333"
     x="1.5875"
     y="1.5875"
     ry="1.190625" />
  <rect
     style="opacity:1;fill:#48b9c7;fill-opacity:1;stroke-width:0.529167;stroke-linecap:round"
     id="rect1544"
     width="13.229167"
     height="12.7"
     x="1.8520833"
     y="1.8520833"
     ry="1.0583334" />
  <path
     d="m 10.584239,3.9691038 c -0.15411,-0.00276 -0.311857,0.010361 -0.466638,0.050643 C 9.1307056,4.276657 8.5387956,5.2796387 8.7962352,6.25992 c 0.053975,0.2047875 0.1539502,0.3909137 0.2661335,0.557072 -0.057415,0.00953 -0.861446,1.3735598 -0.861446,1.3735598 l 1.8045413,0.01188 0.424781,-0.5901452 c 0.201083,0.015875 0.412707,0.010819 0.619082,-0.042891 C 12.036223,7.3124849 12.628133,6.3095031 12.370693,5.3292219 12.316983,5.1244344 12.21726,4.9383082 12.105077,4.7721499 L 11.385224,5.9922352 C 11.238899,6.2424051 10.917255,6.3262314 10.667438,6.1793041 L 10.204418,5.9105866 C 9.9529075,5.7672983 9.8684705,5.4451763 10.01735,5.196935 l 0.719335,-1.2200805 c -0.05027,-0.00397 -0.101075,-0.00683 -0.152446,-0.00775 z M 5.8894359,4.3360065 c -0.00554,-9.1e-5 -0.010729,-2.49e-5 -0.016021,0.00103 -0.1217083,0.024871 -0.2343134,0.069705 -0.3462321,0.1162719 -0.009,0.3302 0.045389,0.7624093 -0.083199,0.8759155 C 5.3177779,5.44088 4.8955979,5.3476144 4.569102,5.3126894 4.4994806,5.4383985 4.4441854,5.5715231 4.4042542,5.7095644 c 0.2524125,0.20955 0.6023488,0.4438385 0.6108155,0.611849 0.0082,0.1698625 -0.3312708,0.4259792 -0.5617229,0.6614583 0.054504,0.136525 0.1326886,0.2612761 0.214974,0.3803386 C 4.989789,7.2965373 5.3901409,7.1655681 5.5266659,7.2639933 5.6658368,7.364535 5.6670274,7.7960704 5.708567,8.1238891 5.8403295,8.1635771 5.9793804,8.1794511 6.1214617,8.1900341 6.2701575,7.8966119 6.4209946,7.4914025 6.5834488,7.4458941 6.7504012,7.3987983 7.0927966,7.6883848 7.3761654,7.8593056 7.4904775,7.7770874 7.595638,7.6828415 7.6898413,7.5781858 7.5556976,7.2752379 7.3089612,6.8946348 7.3761654,6.7348264 7.4433695,6.5750181 7.8913464,6.4863827 8.2014381,6.3710243 c 0.00212,-0.038894 0.017052,-0.076332 0.017052,-0.1157552 0,-0.1013354 -0.018256,-0.2005542 -0.033073,-0.2976562 C 7.865272,5.872417 7.4098992,5.8299514 7.3265554,5.6764931 7.2437409,5.5240931 7.4543616,5.1149149 7.5575491,4.8000608 7.451552,4.7049714 7.3354476,4.621792 7.211317,4.5520139 6.9467336,4.7504514 6.6378204,5.0785347 6.4676931,5.0481076 6.3004764,5.0184743 6.1178893,4.6143233 5.9395601,4.33704 5.9236851,4.339821 5.9060531,4.3362727 5.8894341,4.336008 Z m 0.3141927,0.9932209 c 0.4923896,0 0.891935,0.3997855 0.891935,0.8929688 0,0.4931834 -0.3995454,0.8929688 -0.891935,0.8929688 -0.4923896,0 -0.8914186,-0.3997854 -0.8914186,-0.8929688 0,-0.4931833 0.399029,-0.8929688 0.8914186,-0.8929688 z m -0.6475058,3.3894573 0.00414,3.1750003 c 0,0.301625 0.2436937,0.529167 0.5286499,0.529167 h 4.2292003 c 0.27649,0 0.526066,-0.235479 0.526066,-0.496094 l -0.0041,-3.2080733 z M 7.6727895,8.9832678 H 8.7311228 V 10.306185 H 9.2272166 L 8.2019561,11.629102 7.1766957,10.306185 H 7.6727895 Z M 7.2614449,11.893685 h 1.8810224 c 0.065087,0 0.1178222,0.05274 0.1178222,0.117822 v 0.02894 c 4.5e-5,0.06509 -0.052732,0.117866 -0.1178222,0.117821 H 7.2614449 c -0.06509,4.5e-5 -0.1178676,-0.05273 -0.1178221,-0.117822 v -0.02894 c 0,-0.06509 0.052735,-0.117822 0.1178221,-0.117822 z"
     style="text-indent:0;text-decoration-line:none;text-transform:none;stroke-width:0.0700042;fill:#ffffff"
     id="path1347" />
</svg>
