<?xml version="1.0" encoding="UTF-8" standalone="no"?>
<!-- Created with Inkscape (http://www.inkscape.org/) -->

<svg
   width="64"
   height="64"
   viewBox="0 0 16.933333 16.933333"
   version="1.1"
   id="svg5"
   inkscape:version="1.2 (dc2aedaf03, 2022-05-15)"
   sodipodi:docname="system-error.svg"
   xmlns:inkscape="http://www.inkscape.org/namespaces/inkscape"
   xmlns:sodipodi="http://sodipodi.sourceforge.net/DTD/sodipodi-0.dtd"
   xmlns="http://www.w3.org/2000/svg"
   xmlns:svg="http://www.w3.org/2000/svg">
  <sodipodi:namedview
     id="namedview7"
     pagecolor="#ffffff"
     bordercolor="#666666"
     borderopacity="1.0"
     inkscape:pageshadow="2"
     inkscape:pageopacity="0.0"
     inkscape:pagecheckerboard="0"
     inkscape:document-units="px"
     showgrid="false"
     units="px"
     height="48px"
     inkscape:zoom="8.6952037"
     inkscape:cx="23.691222"
     inkscape:cy="23.231198"
     inkscape:window-width="1920"
     inkscape:window-height="1016"
     inkscape:window-x="0"
     inkscape:window-y="0"
     inkscape:window-maximized="1"
     inkscape:current-layer="svg5"
     inkscape:showpageshadow="2"
     inkscape:deskcolor="#d1d1d1"
     showguides="false" />
  <defs
     id="defs2" />
  <rect
     style="opacity:1;fill:#cf3b00;fill-opacity:1;stroke-width:0.264583"
     id="rect845"
     width="13.758333"
     height="13.758333"
     x="1.5874999"
     y="1.5874999"
     ry="1.0583333" />
  <path
     d="m 2.6458359,1.5874999 c -0.5863167,0 -1.0583333,0.4720167 -1.0583333,1.0583333 V 14.2875 c 0,0.586316 0.4720166,1.058333 1.0583333,1.058333 H 14.287502 c 0.586317,0 1.058334,-0.472017 1.058334,-1.058333 V 2.6458332 c 0,-0.5863166 -0.472017,-1.0583333 -1.058334,-1.0583333 z m 0,0.2645834 H 14.287502 c 0.439738,0 0.79375,0.3540124 0.79375,0.7937499 V 13.758333 c 0,0.439737 -0.354012,0.79375 -0.79375,0.79375 H 2.6458359 c -0.4397375,0 -0.79375,-0.354013 -0.79375,-0.79375 V 2.6458332 c 0,-0.4397375 0.3540125,-0.7937499 0.79375,-0.7937499 z"
     style="fill-opacity:1;stroke-width:0.264583;fill:#000000;opacity:0.5"
     id="path3370" />
  <path
     d="M 7.9374998,4.7624999 V 10.054166 H 8.9958332 V 4.7624999 Z m 0,6.3500001 v 1.058333 H 8.9958331 V 11.1125 Z"
     style="fill:#ffffff;stroke-width:0.264583"
     id="path1393" />
</svg>
