<?xml version="1.0" encoding="UTF-8" standalone="no"?>
<!-- Created with Inkscape (http://www.inkscape.org/) -->

<svg
   width="64"
   height="64"
   viewBox="0 0 16.933333 16.933333"
   version="1.1"
   id="svg5"
   inkscape:version="1.2 (dc2aedaf03, 2022-05-15)"
   sodipodi:docname="utilities-log-viewer.svg"
   xmlns:inkscape="http://www.inkscape.org/namespaces/inkscape"
   xmlns:sodipodi="http://sodipodi.sourceforge.net/DTD/sodipodi-0.dtd"
   xmlns="http://www.w3.org/2000/svg"
   xmlns:svg="http://www.w3.org/2000/svg">
  <sodipodi:namedview
     id="namedview7"
     pagecolor="#ffffff"
     bordercolor="#666666"
     borderopacity="1.0"
     inkscape:pageshadow="2"
     inkscape:pageopacity="0.0"
     inkscape:pagecheckerboard="0"
     inkscape:document-units="px"
     showgrid="false"
     units="px"
     height="48px"
     inkscape:zoom="12.96875"
     inkscape:cx="31.961446"
     inkscape:cy="32"
     inkscape:window-width="1920"
     inkscape:window-height="1009"
     inkscape:window-x="0"
     inkscape:window-y="0"
     inkscape:window-maximized="1"
     inkscape:current-layer="svg5"
     inkscape:showpageshadow="2"
     inkscape:deskcolor="#d1d1d1" />
  <defs
     id="defs2" />
  <rect
     style="opacity:1;fill:#6f6f6f;fill-opacity:1;stroke-width:0.264583"
     id="rect845"
     width="14.816667"
     height="11.641666"
     x="1.0583332"
     y="3.7041667"
     ry="1.0583333" />
  <rect
     style="opacity:1;fill:#acacac;fill-opacity:1;stroke-width:0.264583"
     id="rect1249"
     width="14.287499"
     height="10.583333"
     x="1.3229165"
     y="3.96875"
     ry="0.92604166" />
  <rect
     style="opacity:1;fill:#464646;fill-opacity:1;stroke-width:0.529167;stroke-linecap:round"
     id="rect1185"
     width="13.229166"
     height="8.9958334"
     x="1.8520832"
     y="4.4979167"
     ry="0.26458332" />
  <path
     d="m 3.4395833,6.0854164 c -0.1465789,0 -0.2645834,0.1180045 -0.2645834,0.2645833 0,0.1465789 0.1180045,0.2645834 0.2645834,0.2645834 H 13.49375 c 0.146579,0 0.264583,-0.1180045 0.264583,-0.2645834 0,-0.1465788 -0.118004,-0.2645833 -0.264583,-0.2645833 z m 0,2.3812498 c -0.1465789,0 -0.2645834,0.1180045 -0.2645834,0.2645837 0,0.146578 0.1180045,0.2645835 0.2645834,0.2645835 H 13.49375 c 0.146579,0 0.264583,-0.1180055 0.264583,-0.2645835 0,-0.1465792 -0.118004,-0.2645837 -0.264583,-0.2645837 z m 0,2.3812498 c -0.1465789,0 -0.2645834,0.118005 -0.2645834,0.264584 0,0.146579 0.1180045,0.264583 0.2645834,0.264583 h 4.7624999 c 0.1465788,0 0.2645833,-0.118004 0.2645833,-0.264583 0,-0.146579 -0.1180045,-0.264584 -0.2645833,-0.264584 z"
     style="opacity:0.2;fill:#000000;fill-opacity:1;stroke-width:0.264583"
     id="path7267"
     sodipodi:nodetypes="sssssssssssssssssssss" />
  <path
     id="rect5223"
     style="fill:#ffffff;fill-opacity:1;stroke-width:0.264583"
     d="m 3.4395833,5.8208332 c -0.1465789,0 -0.2645834,0.1180045 -0.2645834,0.2645833 0,0.1465789 0.1180045,0.2645834 0.2645834,0.2645834 H 13.49375 c 0.146579,0 0.264583,-0.1180045 0.264583,-0.2645834 0,-0.1465788 -0.118004,-0.2645833 -0.264583,-0.2645833 z m 0,2.38125 c -0.1465789,0 -0.2645834,0.1180045 -0.2645834,0.2645837 0,0.146578 0.1180045,0.264583 0.2645834,0.264583 H 13.49375 c 0.146579,0 0.264583,-0.118005 0.264583,-0.264583 0,-0.1465792 -0.118004,-0.2645837 -0.264583,-0.2645837 z m 0,2.3812498 c -0.1465789,0 -0.2645834,0.118005 -0.2645834,0.264584 0,0.146579 0.1180045,0.264583 0.2645834,0.264583 h 4.7624999 c 0.1465788,0 0.2645833,-0.118004 0.2645833,-0.264583 0,-0.146579 -0.1180045,-0.264584 -0.2645833,-0.264584 z"
     sodipodi:nodetypes="sssssssssssssssssssss" />
  <rect
     style="fill:#6f4400;fill-opacity:1;stroke-width:0.264583"
     id="rect49816"
     width="6.8791666"
     height="6.3499999"
     x="9.5250006"
     y="9.5250006"
     ry="1.4552083" />
  <rect
     style="fill:#de8800;fill-opacity:1;stroke-width:0.264583"
     id="rect3945"
     width="6.3499999"
     height="5.2916665"
     x="9.7895832"
     y="9.7895832"
     ry="1.3229166" />
  <path
     d="m 12.964582,11.112499 c -0.898335,0.0013 -1.718406,0.514837 -2.116667,1.325562 0.399735,0.808669 1.219506,1.32 2.116667,1.320271 0.898336,-0.0013 1.718405,-0.514837 2.116667,-1.325562 -0.399735,-0.808669 -1.219505,-1.320001 -2.116667,-1.320271 z m 0,0.264583 c 0.584502,0 1.058334,0.473832 1.058334,1.058333 0,0.584502 -0.473832,1.058334 -1.058334,1.058334 -0.584501,0 -1.058333,-0.473832 -1.058333,-1.058334 0,-0.584501 0.473832,-1.058333 1.058333,-1.058333 z m 0,0.529167 c -0.29225,0 -0.529166,0.236916 -0.529166,0.529166 0,0.292251 0.236916,0.529167 0.529166,0.529167 0.292251,0 0.529167,-0.236916 0.529167,-0.529167 0,-0.29225 -0.236916,-0.529166 -0.529167,-0.529166 z"
     style="fill:#ffffff;stroke-width:0.264583"
     id="path50864" />
</svg>
