<?xml version="1.0" encoding="UTF-8" standalone="no"?>
<!-- Created with Inkscape (http://www.inkscape.org/) -->

<svg
   width="64"
   height="64"
   viewBox="0 0 16.933333 16.933334"
   version="1.1"
   id="svg1099"
   inkscape:version="1.1.2 (0a00cf5339, 2022-02-04, custom)"
   sodipodi:docname="utilities-system-monitor.svg"
   xmlns:inkscape="http://www.inkscape.org/namespaces/inkscape"
   xmlns:sodipodi="http://sodipodi.sourceforge.net/DTD/sodipodi-0.dtd"
   xmlns="http://www.w3.org/2000/svg"
   xmlns:svg="http://www.w3.org/2000/svg">
  <sodipodi:namedview
     id="namedview1101"
     pagecolor="#ffffff"
     bordercolor="#666666"
     borderopacity="1.0"
     inkscape:pageshadow="2"
     inkscape:pageopacity="0.0"
     inkscape:pagecheckerboard="0"
     inkscape:document-units="px"
     showgrid="false"
     units="px"
     inkscape:zoom="8.8609319"
     inkscape:cx="-13.937586"
     inkscape:cy="34.533614"
     inkscape:window-width="1920"
     inkscape:window-height="1002"
     inkscape:window-x="0"
     inkscape:window-y="0"
     inkscape:window-maximized="1"
     inkscape:current-layer="svg1099" />
  <defs
     id="defs1096" />
  <rect
     style="opacity:1;fill:#cdcdcd;fill-opacity:1;stroke-width:0.529167;stroke-linecap:round"
     id="rect934"
     width="14.816667"
     height="11.641666"
     x="1.0583333"
     y="3.7041667"
     ry="1.0583334" />
  <rect
     style="opacity:1;fill:#424242;fill-opacity:1;stroke-width:0.529167;stroke-linecap:round"
     id="rect1377"
     width="12.7"
     height="8.9958334"
     x="2.1166668"
     y="4.7624998"
     ry="0.26458335" />
  <path
     d="M 7.0295454,6.0094813 5.5929399,10.31878 H 2.2489584 2.1166667 v 0.264583 H 2.2489584 5.7841437 L 6.9933716,6.9551603 8.311121,12.22564 9.3870253,9.2661291 9.8262733,10.583363 h 4.8581017 0.132292 V 10.31878 H 14.684375 10.017477 L 9.3983918,8.4615285 8.3576294,11.322336 Z"
     style="color:#000000;fill:#ffce51;stroke-width:0.264583;stroke-linecap:square;-inkscape-stroke:none"
     id="path910" />
  <path
     id="rect845"
     style="opacity:0.5;fill:#000000;stroke-width:0.529167;stroke-linecap:round"
     d="m 2.1166667,3.7041668 c -0.5863167,0 -1.0583333,0.4720167 -1.0583333,1.0583334 v 9.5250018 c 0,0.586316 0.4720166,1.058333 1.0583333,1.058333 H 14.816667 c 0.586317,0 1.058333,-0.472017 1.058333,-1.058333 V 4.7625002 c 0,-0.5863167 -0.472016,-1.0583334 -1.058333,-1.0583334 z M 2.2489584,3.9687502 H 14.684375 c 0.513027,0 0.926042,0.4130146 0.926042,0.9260417 v 8.7312511 c 0,0.513027 -0.413015,0.926042 -0.926042,0.926042 H 2.2489584 c -0.5130271,0 -0.9260417,-0.413015 -0.9260417,-0.926042 V 4.8947919 c 0,-0.5130271 0.4130146,-0.9260417 0.9260417,-0.9260417 z" />
</svg>
