<?xml version="1.0" encoding="UTF-8" standalone="no"?>
<!-- Created with Inkscape (http://www.inkscape.org/) -->

<svg
   width="64"
   height="64"
   viewBox="0 0 16.933333 16.933333"
   version="1.1"
   id="svg5"
   inkscape:version="1.2 (dc2aedaf03, 2022-05-15)"
   sodipodi:docname="wingpanel.svg"
   xmlns:inkscape="http://www.inkscape.org/namespaces/inkscape"
   xmlns:sodipodi="http://sodipodi.sourceforge.net/DTD/sodipodi-0.dtd"
   xmlns="http://www.w3.org/2000/svg"
   xmlns:svg="http://www.w3.org/2000/svg">
  <sodipodi:namedview
     id="namedview7"
     pagecolor="#ffffff"
     bordercolor="#666666"
     borderopacity="1.0"
     inkscape:pageshadow="2"
     inkscape:pageopacity="0.0"
     inkscape:pagecheckerboard="0"
     inkscape:document-units="px"
     showgrid="false"
     units="px"
     height="48px"
     inkscape:zoom="12.765625"
     inkscape:cx="32"
     inkscape:cy="32"
     inkscape:window-width="1920"
     inkscape:window-height="1010"
     inkscape:window-x="0"
     inkscape:window-y="0"
     inkscape:window-maximized="1"
     inkscape:current-layer="svg5"
     inkscape:showpageshadow="2"
     inkscape:deskcolor="#d1d1d1" />
  <defs
     id="defs2" />
  <rect
     style="opacity:1;fill:#48b9c7;fill-opacity:1;stroke-width:0.264583"
     id="rect845"
     width="14.816667"
     height="11.641666"
     x="1.0583332"
     y="3.7041667"
     ry="1.0583333" />
  <path
     id="rect1231"
     style="opacity:1;fill:#232323;stroke-width:0.529167"
     d="M 2.1166664,3.7041667 H 14.816666 c 0.586317,0 1.058334,0.4720166 1.058334,1.0583332 V 5.8208333 H 1.0583332 V 4.7624999 c 0,-0.5863166 0.4720166,-1.0583332 1.0583332,-1.0583332 z"
     sodipodi:nodetypes="sssccss" />
  <path
     id="rect1249"
     style="opacity:0.5;fill:#000000;fill-opacity:1;stroke-width:0.264583"
     d="M 2.1166666 3.7041666 C 1.5303506 3.7041666 1.0583333 4.1761839 1.0583333 4.7624999 L 1.0583333 14.2875 C 1.0583333 14.873816 1.5303506 15.345833 2.1166666 15.345833 L 14.816666 15.345833 C 15.402982 15.345833 15.875 14.873816 15.875 14.2875 L 15.875 4.7624999 C 15.875 4.1761839 15.402982 3.7041666 14.816666 3.7041666 L 2.1166666 3.7041666 z M 2.2489583 3.9687499 L 14.684375 3.9687499 C 15.197401 3.9687499 15.610416 4.381765 15.610416 4.8947916 L 15.610416 13.626041 C 15.610416 14.139068 15.197401 14.552083 14.684375 14.552083 L 2.2489583 14.552083 C 1.7359317 14.552083 1.3229166 14.139068 1.3229166 13.626041 L 1.3229166 4.8947916 C 1.3229166 4.381765 1.7359317 3.9687499 2.2489583 3.9687499 z " />
</svg>
