<?xml version="1.0" encoding="UTF-8" standalone="no"?>
<!-- Created with Inkscape (http://www.inkscape.org/) -->

<svg
   width="16"
   height="16"
   viewBox="0 0 4.2333333 4.2333333"
   version="1.1"
   id="svg5"
   inkscape:version="1.2 (dc2aedaf03, 2022-05-15)"
   sodipodi:docname="audio-input-microphone.svg"
   xmlns:inkscape="http://www.inkscape.org/namespaces/inkscape"
   xmlns:sodipodi="http://sodipodi.sourceforge.net/DTD/sodipodi-0.dtd"
   xmlns="http://www.w3.org/2000/svg"
   xmlns:svg="http://www.w3.org/2000/svg">
  <sodipodi:namedview
     id="namedview7"
     pagecolor="#ffffff"
     bordercolor="#666666"
     borderopacity="1.0"
     inkscape:pageshadow="2"
     inkscape:pageopacity="0.0"
     inkscape:pagecheckerboard="0"
     inkscape:document-units="px"
     showgrid="false"
     units="px"
     height="48px"
     inkscape:zoom="22.437499"
     inkscape:cx="21.125349"
     inkscape:cy="9.4707523"
     inkscape:window-width="1920"
     inkscape:window-height="1010"
     inkscape:window-x="0"
     inkscape:window-y="0"
     inkscape:window-maximized="1"
     inkscape:current-layer="svg5"
     showguides="true"
     inkscape:showpageshadow="2"
     inkscape:deskcolor="#d1d1d1" />
  <defs
     id="defs2" />
  <rect
     style="opacity:1;fill:#909090;fill-opacity:1;stroke-width:0.132292"
     id="rect1319"
     width="1.5875"
     height="2.9104166"
     x="1.3229166"
     y="-2.9910467e-08"
     ry="0.79374999" />
  <rect
     style="opacity:1;fill:#2d2d2d;fill-opacity:1;stroke-width:0.529166"
     id="rect24547"
     width="1.0583333"
     height="2.3812499"
     x="1.5875"
     y="0.26458332"
     ry="0.52916664" />
  <path
     d="m 0.66145832,1.3229167 c -0.21986848,0 -0.39687499,0.1770062 -0.39687499,0.396875 v 0.396875 c 0,0.8419835 0.55635868,1.548929 1.32291667,1.7756028 v 0.07648 c 0,0.1465792 0.1180044,0.2645833 0.2645833,0.2645833 H 2.38125 c 0.1465789,0 0.2645833,-0.1180041 0.2645833,-0.2645833 v -0.07648 C 3.4123913,3.6655957 3.96875,2.9586502 3.96875,2.1166667 v -0.396875 c 0,-0.2198688 -0.1770065,-0.396875 -0.396875,-0.396875 -0.2198685,0 -0.396875,0.1770062 -0.396875,0.396875 v 0.396875 C 3.175,2.7029833 2.7029828,3.175 2.1166667,3.175 1.5303505,3.175 1.0583334,2.7029833 1.0583334,2.1166667 v -0.396875 c 0,-0.2198688 -0.17700659,-0.396875 -0.39687508,-0.396875 z"
     style="fill:#3c3c3c;fill-opacity:1;stroke-width:0.264583"
     id="path1562" />
  <path
     d="m 0.66145833,1.5875 c -0.0732896,0 -0.13229167,0.059002 -0.13229167,0.1322917 v 0.396875 c 0,0.7896198 0.57081454,1.4409287 1.32395014,1.5657962 -5.895e-4,0.00724 -0.00103,0.014309 -0.00103,0.021704 0,0.1465791 0.1180044,0.2645833 0.2645833,0.2645833 0.1465789,0 0.2645833,-0.1180042 0.2645833,-0.2645833 0,-0.0074 -4.44e-4,-0.014465 -0.00103,-0.021704 C 3.1333522,3.5575954 3.7041667,2.9062865 3.7041667,2.1166667 v -0.396875 c 0,-0.1763888 -0.2645834,-0.1763888 -0.2645834,0 v 0.396875 c 0,0.7328958 -0.5900216,1.3229166 -1.3229166,1.3229166 -0.732895,0 -1.32291671,-0.5900208 -1.32291671,-1.3229166 v -0.396875 c 0,-0.07329 -0.0590021,-0.1322917 -0.13229166,-0.1322917 z"
     style="fill:#838383;fill-opacity:1;stroke-width:0.264583"
     id="path1591" />
</svg>
