<?xml version="1.0" encoding="UTF-8" standalone="no"?>
<!-- Created with Inkscape (http://www.inkscape.org/) -->

<svg
   width="16"
   height="16"
   viewBox="0 0 4.2333333 4.2333333"
   version="1.1"
   id="svg5"
   inkscape:version="1.1.2 (0a00cf5339, 2022-02-04, custom)"
   sodipodi:docname="audio-speakers.svg"
   xmlns:inkscape="http://www.inkscape.org/namespaces/inkscape"
   xmlns:sodipodi="http://sodipodi.sourceforge.net/DTD/sodipodi-0.dtd"
   xmlns="http://www.w3.org/2000/svg"
   xmlns:svg="http://www.w3.org/2000/svg">
  <sodipodi:namedview
     id="namedview7"
     pagecolor="#ffffff"
     bordercolor="#666666"
     borderopacity="1.0"
     inkscape:pageshadow="2"
     inkscape:pageopacity="0.0"
     inkscape:pagecheckerboard="0"
     inkscape:document-units="px"
     showgrid="false"
     units="px"
     height="48px"
     inkscape:zoom="50.0625"
     inkscape:cx="1.588015"
     inkscape:cy="8.0099875"
     inkscape:window-width="1920"
     inkscape:window-height="1002"
     inkscape:window-x="0"
     inkscape:window-y="0"
     inkscape:window-maximized="1"
     inkscape:current-layer="svg5"
     showguides="false" />
  <defs
     id="defs2" />
  <path
     id="path934"
     style="fill:#565656;fill-opacity:1;stroke-width:0.999999"
     d="M 8 0 A 7.9999996 7.9999996 0 0 0 4.1367188 1 L 2.5 1 C 1.669 1 1 1.669 1 2.5 L 1 4.1367188 A 7.9999996 7.9999996 0 0 0 0 8 A 7.9999996 7.9999996 0 0 0 1 11.863281 L 1 13.5 C 1 14.331 1.669 15 2.5 15 L 4.1367188 15 A 7.9999996 7.9999996 0 0 0 8 16 A 7.9999996 7.9999996 0 0 0 11.863281 15 L 13.5 15 C 14.331 15 15 14.331 15 13.5 L 15 11.863281 A 7.9999996 7.9999996 0 0 0 16 8 A 7.9999996 7.9999996 0 0 0 15 4.1289062 L 15 2.5 C 15 1.669 14.331 1 13.5 1 L 11.871094 1 A 7.9999996 7.9999996 0 0 0 8 0 z "
     transform="scale(0.26458333)" />
  <path
     id="path4871"
     style="fill:#acacac;fill-opacity:1;stroke-width:0.499997"
     d="M 8 1 A 7 7 0 0 0 4.4003906 2 L 3 2 C 2.446 2 2 2.446 2 3 L 2 4.4003906 A 7 7 0 0 0 1 8 A 7 7 0 0 0 2 11.599609 L 2 13 C 2 13.554 2.446 14 3 14 L 4.4003906 14 A 7 7 0 0 0 8 15 A 7 7 0 0 0 11.599609 14 L 13 14 C 13.554 14 14 13.554 14 13 L 14 11.599609 A 7 7 0 0 0 15 8 A 7 7 0 0 0 14 4.3925781 L 14 3 C 14 2.446 13.554 2 13 2 L 11.607422 2 A 7 7 0 0 0 8 1 z "
     transform="scale(0.26458333)" />
  <circle
     style="fill:#333333;fill-opacity:1;stroke-width:0.373557"
     id="path1430"
     cx="2.1166666"
     cy="2.1166666"
     r="1.5875" />
  <circle
     style="fill:#faa41a;fill-opacity:1;stroke-width:0.264583"
     id="path1556"
     cx="2.1166666"
     cy="2.1166666"
     r="1.3229166" />
  <circle
     style="fill:#333333;fill-opacity:1;stroke-width:0.264583"
     id="path1814"
     cx="2.1166666"
     cy="2.1166666"
     r="0.52916664" />
</svg>
