<?xml version="1.0" encoding="UTF-8" standalone="no"?>
<!-- Created with Inkscape (http://www.inkscape.org/) -->

<svg
   width="16"
   height="16"
   viewBox="0 0 4.2333333 4.2333333"
   version="1.1"
   id="svg5"
   inkscape:version="1.2 (dc2aedaf03, 2022-05-15)"
   sodipodi:docname="drive-harddisk-usb.svg"
   xmlns:inkscape="http://www.inkscape.org/namespaces/inkscape"
   xmlns:sodipodi="http://sodipodi.sourceforge.net/DTD/sodipodi-0.dtd"
   xmlns="http://www.w3.org/2000/svg"
   xmlns:svg="http://www.w3.org/2000/svg">
  <sodipodi:namedview
     id="namedview7"
     pagecolor="#ffffff"
     bordercolor="#666666"
     borderopacity="1.0"
     inkscape:pageshadow="2"
     inkscape:pageopacity="0.0"
     inkscape:pagecheckerboard="0"
     inkscape:document-units="px"
     showgrid="false"
     units="px"
     height="48px"
     inkscape:zoom="35.399533"
     inkscape:cx="1.0169626"
     inkscape:cy="10.381493"
     inkscape:window-width="1920"
     inkscape:window-height="1010"
     inkscape:window-x="0"
     inkscape:window-y="0"
     inkscape:window-maximized="1"
     inkscape:current-layer="svg5"
     inkscape:showpageshadow="2"
     inkscape:deskcolor="#d1d1d1" />
  <defs
     id="defs2" />
  <rect
     style="opacity:1;fill:#5b5b5b;fill-opacity:1;stroke-width:0.264583"
     id="rect1162"
     width="3.4395833"
     height="3.7041667"
     x="0.52916664"
     y="0.26458332"
     ry="0.66145831" />
  <rect
     style="fill:#acacac;fill-opacity:1;stroke-width:0.264583"
     id="rect14262"
     width="2.9104166"
     height="3.175"
     x="0.79374999"
     y="0.52903438"
     ry="0.52916664" />
  <path
     d="M 2.2489583,0.52916664 1.5874999,1.3229166 H 2.1166666 V 2.6458332 H 1.5874999 v -0.286803 c 0.1545114,-0.054213 0.2645834,-0.2011654 0.2645834,-0.3746553 0,-0.2198688 -0.1770063,-0.396875 -0.396875,-0.396875 -0.2198688,0 -0.396875,0.1770062 -0.396875,0.396875 0,0.1734899 0.1100719,0.3204422 0.2645833,0.3746553 v 0.5513864 h 0.79375 V 3.4395832 H 2.3812499 V 2.9104166 h 0.79375 V 2.3812499 c 0.1465792,0 0.2645834,-0.1180042 0.2645834,-0.2645833 V 1.8520832 c 0,-0.1465791 -0.1180042,-0.2645833 -0.2645834,-0.2645833 H 2.9104166 c -0.1465792,0 -0.2645833,0.1180042 -0.2645833,0.2645833 v 0.2645834 c 0,0.1465791 0.1180041,0.2645833 0.2645833,0.2645833 V 2.6458332 H 2.3812499 V 1.3229166 h 0.5291667 z"
     id="path528"
     style="fill:#444444;fill-opacity:1;stroke-width:0.264583" />
</svg>
