<?xml version="1.0" encoding="UTF-8" standalone="no"?>
<!-- Created with Inkscape (http://www.inkscape.org/) -->

<svg
   width="16"
   height="16"
   viewBox="0 0 4.2333333 4.2333333"
   version="1.1"
   id="svg5"
   inkscape:version="1.2 (dc2aedaf03, 2022-05-15)"
   sodipodi:docname="input-mouse.svg"
   xmlns:inkscape="http://www.inkscape.org/namespaces/inkscape"
   xmlns:sodipodi="http://sodipodi.sourceforge.net/DTD/sodipodi-0.dtd"
   xmlns="http://www.w3.org/2000/svg"
   xmlns:svg="http://www.w3.org/2000/svg">
  <sodipodi:namedview
     id="namedview7"
     pagecolor="#ffffff"
     bordercolor="#666666"
     borderopacity="1.0"
     inkscape:pageshadow="2"
     inkscape:pageopacity="0.0"
     inkscape:pagecheckerboard="0"
     inkscape:document-units="px"
     showgrid="false"
     units="px"
     height="48px"
     inkscape:zoom="31.731416"
     inkscape:cx="20.295344"
     inkscape:cy="9.6749543"
     inkscape:window-width="1920"
     inkscape:window-height="1009"
     inkscape:window-x="0"
     inkscape:window-y="0"
     inkscape:window-maximized="1"
     inkscape:current-layer="svg5"
     showguides="false"
     inkscape:showpageshadow="2"
     inkscape:deskcolor="#d1d1d1" />
  <defs
     id="defs2" />
  <rect
     style="opacity:1;fill:#98989d;fill-opacity:1;stroke-width:0.220486"
     id="rect1319"
     width="2.6458333"
     height="4.2333331"
     x="0.79374999"
     y="-2.9910467e-08"
     ry="1.3229166" />
  <path
     d="M 2.1166667,0 C 1.3837709,0 0.79375,0.5900208 0.79375,1.3229166 v 1.5875 c 0,0.7328959 0.5900209,1.3229167 1.3229167,1.3229167 0.7328958,0 1.3229166,-0.5900208 1.3229166,-1.3229167 v -1.5875 C 3.4395833,0.5900208 2.8495625,0 2.1166667,0 Z m 0,0.2645833 c 0.5863166,0 1.0583333,0.47201666 1.0583333,1.0583333 v 1.5875 c 0,0.5863167 -0.4720167,1.0583333 -1.0583333,1.0583333 -0.5863167,0 -1.0583333,-0.4720166 -1.0583333,-1.0583333 v -1.5875 c 0,-0.58631664 0.4720166,-1.0583333 1.0583333,-1.0583333 z"
     style="fill-opacity:0.5;stroke-width:0.264583"
     id="path356" />
  <path
     d="m 2.1166666,0 v 4.2333334 c 0.3752182,0 0.7129873,-0.1546505 0.9533044,-0.4039477 C 3.299054,3.5917426 3.4395833,3.2680943 3.4395833,2.9104166 V 1.3229168 C 3.4395833,0.59002089 2.8495624,0 2.1166666,0 Z"
     style="fill:#ffffff;fill-opacity:0.2;stroke-width:0.101763"
     id="path15973"
     sodipodi:nodetypes="ccsssc" />
  <rect
     style="opacity:0.4;fill:#ffffff;fill-opacity:1;stroke-width:0.352778"
     id="rect20137"
     width="1.0583333"
     height="1.8520833"
     x="1.5875005"
     y="0.52916664"
     ry="0.53653663" />
  <rect
     style="opacity:1;fill:#343434;fill-opacity:1;stroke-width:0.264583"
     id="rect24547"
     width="0.52916664"
     height="1.3229166"
     x="1.8520833"
     y="0.79374975"
     ry="0.26458332" />
</svg>
