<?xml version="1.0" encoding="UTF-8" standalone="no"?>
<!-- Created with Inkscape (http://www.inkscape.org/) -->

<svg
   width="16"
   height="16"
   viewBox="0 0 4.2333333 4.2333333"
   version="1.1"
   id="svg5"
   inkscape:version="1.2 (dc2aedaf03, 2022-05-15)"
   sodipodi:docname="input-gaming.svg"
   xmlns:inkscape="http://www.inkscape.org/namespaces/inkscape"
   xmlns:sodipodi="http://sodipodi.sourceforge.net/DTD/sodipodi-0.dtd"
   xmlns="http://www.w3.org/2000/svg"
   xmlns:svg="http://www.w3.org/2000/svg">
  <sodipodi:namedview
     id="namedview7"
     pagecolor="#ffffff"
     bordercolor="#666666"
     borderopacity="1.0"
     inkscape:pageshadow="2"
     inkscape:pageopacity="0.0"
     inkscape:pagecheckerboard="0"
     inkscape:document-units="px"
     showgrid="false"
     units="px"
     height="48px"
     inkscape:zoom="24.78125"
     inkscape:cx="20.216898"
     inkscape:cy="10.290038"
     inkscape:window-width="1920"
     inkscape:window-height="1009"
     inkscape:window-x="0"
     inkscape:window-y="0"
     inkscape:window-maximized="1"
     inkscape:current-layer="svg5"
     showguides="false"
     inkscape:showpageshadow="2"
     inkscape:deskcolor="#d1d1d1" />
  <defs
     id="defs2" />
  <rect
     style="opacity:1;fill:#9f9792;fill-opacity:1;stroke-width:0.453572"
     id="rect1779"
     width="1.5875"
     height="2.6458333"
     x="2.6458328"
     y="1.5874999"
     ry="0.79374999" />
  <rect
     style="opacity:1;fill:#9f9792;fill-opacity:1;stroke-width:0.453572"
     id="rect1777"
     width="1.5875"
     height="2.6458333"
     x="0"
     y="1.5875"
     ry="0.79374999" />
  <rect
     style="opacity:1;fill:#9f9792;fill-opacity:1;stroke-width:0.529167"
     id="rect1240"
     width="4.2333331"
     height="2.6458333"
     x="0"
     y="0.26458332"
     ry="0.79374999" />
  <path
     d="M 0.79375165,0.26458391 C 0.3566864,0.26405481 -8.7522078e-4,0.62172384 1.6092197e-6,1.0588499 v 2.380734 c 0,0.4374489 0.3563011407803,0.79375 0.7937500407803,0.79375 0.43744875,0 0.79374985,-0.3563011 0.79374985,-0.79375 V 2.9104173 h 1.0583334 v 0.5291666 c 0,0.4374489 0.3563011,0.79375 0.7937499,0.79375 0.4374489,0 0.79375,-0.3563011 0.79375,-0.79375 v -2.38125 c 0,-0.43744876 -0.3563011,-0.79374999 -0.79375,-0.79374999 H 0.79426835 Z m -5.292e-4,0.26458343 h 5.292e-4 2.64583315 c 0.2954462,0 0.5291667,0.2337197 0.5291667,0.52916656 v 2.38125 c 0,0.295447 -0.2337205,0.5291667 -0.5291667,0.5291667 -0.2954461,0 -0.5291666,-0.2337197 -0.5291666,-0.5291667 v -0.79375 h -1.5875 v 0.79375 c 0,0.295447 -0.2337205,0.5291667 -0.52916655,0.5291667 -0.2954462,0 -0.52916671,-0.2337197 -0.52916671,-0.5291667 v -2.38125 -5.291e-4 C 0.26400286,0.76387124 0.49930155,0.52856404 0.79323485,0.52915414 Z"
     style="color:#000000;fill:#000000;fill-opacity:0.5;stroke-width:0.264583;stroke-linecap:square;-inkscape-stroke:none"
     id="path2134" />
  <g
     id="g2163">
    <path
       d="M 1.0583332,0.79374994 V 1.3229166 H 0.52916654 V 1.8520832 H 1.0583332 V 2.3812498 H 1.5874998 V 1.8520832 H 2.1166665 V 1.3229166 H 1.5874998 V 0.79374994 Z"
       style="fill:#ebebeb;fill-opacity:1;stroke-width:0.264583"
       id="path5444"
       sodipodi:nodetypes="ccccccccccccc" />
    <circle
       style="opacity:1;fill:#7f6728;fill-opacity:1;stroke-width:0.529167"
       id="path7698"
       cx="3.0427079"
       cy="0.92604166"
       r="0.39687499" />
    <rect
       style="fill:#ffce51;fill-opacity:1;stroke-width:0.529167"
       id="rect17318"
       width="0.26458332"
       height="0.26458332"
       x="2.9104161"
       y="0.79374987" />
    <circle
       style="opacity:1;fill:#7f3c1f;fill-opacity:1;stroke-width:0.529167"
       id="path12114"
       cx="3.5718746"
       cy="1.7197917"
       r="0.39687499" />
    <rect
       style="fill:#ff5e31;fill-opacity:1;stroke-width:0.529167"
       id="rect17264"
       width="0.26458311"
       height="0.26458335"
       x="3.4395833"
       y="1.5874999" />
    <ellipse
       style="opacity:1;fill:#396247;fill-opacity:1;stroke-width:0.529167"
       id="path15076"
       cx="3.0427079"
       cy="2.5135415"
       rx="0.3968749"
       ry="0.39687502" />
    <rect
       style="fill:#73c48f;fill-opacity:1;stroke-width:0.529167"
       id="rect18880"
       width="0.26458332"
       height="0.26458332"
       x="2.9104161"
       y="2.3812497" />
    <ellipse
       style="opacity:1;fill:#4a537f;fill-opacity:1;stroke-width:0.529167"
       id="path15442"
       cx="2.5135412"
       cy="1.7197914"
       rx="0.3968749"
       ry="0.39687493" />
    <rect
       style="opacity:1;fill:#94a6ff;fill-opacity:1;stroke-width:0.529167"
       id="rect16950"
       width="0.26458332"
       height="0.26458338"
       x="2.3812497"
       y="1.5874996" />
  </g>
</svg>
