<?xml version="1.0" encoding="UTF-8" standalone="no"?>
<!-- Created with Inkscape (http://www.inkscape.org/) -->

<svg
   width="16"
   height="16"
   viewBox="0 0 4.2333333 4.2333333"
   version="1.1"
   id="svg5"
   inkscape:version="1.2 (dc2aedaf03, 2022-05-15)"
   sodipodi:docname="input-keyboard.svg"
   xmlns:inkscape="http://www.inkscape.org/namespaces/inkscape"
   xmlns:sodipodi="http://sodipodi.sourceforge.net/DTD/sodipodi-0.dtd"
   xmlns="http://www.w3.org/2000/svg"
   xmlns:svg="http://www.w3.org/2000/svg">
  <sodipodi:namedview
     id="namedview7"
     pagecolor="#ffffff"
     bordercolor="#666666"
     borderopacity="1.0"
     inkscape:pageshadow="2"
     inkscape:pageopacity="0.0"
     inkscape:pagecheckerboard="0"
     inkscape:document-units="px"
     showgrid="false"
     units="px"
     height="48px"
     inkscape:zoom="35.04598"
     inkscape:cx="6.5628069"
     inkscape:cy="10.486224"
     inkscape:window-width="1920"
     inkscape:window-height="1010"
     inkscape:window-x="0"
     inkscape:window-y="0"
     inkscape:window-maximized="1"
     inkscape:current-layer="svg5"
     inkscape:showpageshadow="2"
     inkscape:deskcolor="#d1d1d1" />
  <defs
     id="defs2" />
  <rect
     style="opacity:1;fill:#7b736e;fill-opacity:1;stroke-width:0.264583"
     id="rect1162"
     width="3.96875"
     height="3.175"
     x="0"
     y="0.52916664"
     ry="0.52916664" />
  <path
     d="m 0.66145832,1.0583333 c -0.0732896,0 -0.13229166,0.059002 -0.13229166,0.1322917 v 0.2645833 c 0,0.07329 0.0590021,0.1322916 0.13229166,0.1322916 h 0.26458333 c 0.0732896,0 0.13229175,-0.059002 0.13229175,-0.1322916 V 1.190625 c 0,-0.07329 -0.059002,-0.1322917 -0.13229175,-0.1322917 z m 0.79375008,0 c -0.07329,0 -0.1322917,0.059002 -0.1322917,0.1322917 v 0.2645833 c 0,0.07329 0.059002,0.1322916 0.1322917,0.1322916 h 0.2645833 c 0.07329,0 0.1322916,-0.059002 0.1322916,-0.1322916 V 1.190625 c 0,-0.07329 -0.059002,-0.1322917 -0.1322916,-0.1322917 z m 0.7937499,0 c -0.07329,0 -0.1322916,0.059002 -0.1322916,0.1322917 v 0.2645833 c 0,0.07329 0.059002,0.1322916 0.1322916,0.1322916 h 0.2645834 c 0.07329,0 0.1322916,-0.059002 0.1322916,-0.1322916 V 1.190625 c 0,-0.07329 -0.059002,-0.1322917 -0.1322916,-0.1322917 z m 0.79375,0 c -0.07329,0 -0.1322916,0.059002 -0.1322916,0.1322917 v 0.2645833 c 0,0.07329 0.059002,0.1322916 0.1322916,0.1322916 h 0.2645834 c 0.07329,0 0.1322916,-0.059002 0.1322916,-0.1322916 V 1.190625 c 0,-0.07329 -0.059002,-0.1322917 -0.1322916,-0.1322917 z m -2.38124998,0.79375 c -0.0732896,0 -0.13229166,0.059002 -0.13229166,0.1322916 v 0.2645834 c 0,0.07329 0.0590021,0.1322916 0.13229166,0.1322916 h 0.26458333 c 0.0732896,0 0.13229175,-0.059002 0.13229175,-0.1322916 V 1.9843749 c 0,-0.07329 -0.059002,-0.1322916 -0.13229175,-0.1322916 z m 0.79375008,0 c -0.07329,0 -0.1322917,0.059002 -0.1322917,0.1322916 v 0.2645834 c 0,0.07329 0.059002,0.1322916 0.1322917,0.1322916 h 0.2645833 c 0.07329,0 0.1322916,-0.059002 0.1322916,-0.1322916 V 1.9843749 c 0,-0.07329 -0.059002,-0.1322916 -0.1322916,-0.1322916 z m 0.7937499,0 c -0.07329,0 -0.1322916,0.059002 -0.1322916,0.1322916 v 0.2645834 c 0,0.07329 0.059002,0.1322916 0.1322916,0.1322916 h 0.2645834 c 0.07329,0 0.1322916,-0.059002 0.1322916,-0.1322916 V 1.9843749 c 0,-0.07329 -0.059002,-0.1322916 -0.1322916,-0.1322916 z m 0.79375,0 c -0.07329,0 -0.1322916,0.059002 -0.1322916,0.1322916 v 0.2645834 c 0,0.07329 0.059002,0.1322916 0.1322916,0.1322916 h 0.2645834 c 0.07329,0 0.1322916,-0.059002 0.1322916,-0.1322916 V 1.9843749 c 0,-0.07329 -0.059002,-0.1322916 -0.1322916,-0.1322916 z m -1.8520833,0.79375 c -0.07329,0 -0.1322916,0.059002 -0.1322916,0.1322916 v 0.2645834 c 0,0.07329 0.059002,0.1322916 0.1322916,0.1322916 h 1.5875 c 0.07329,0 0.1322917,-0.059002 0.1322917,-0.1322916 V 2.7781249 c 0,-0.07329 -0.059002,-0.1322916 -0.1322917,-0.1322916 z"
     style="fill:#ededed;fill-opacity:1;stroke-width:0.264583"
     id="path924" />
  <path
     id="rect9805"
     style="opacity:0.5;fill:#000000;fill-opacity:1;stroke-width:0.264583"
     d="M 0.52916667,0.52916666 C 0.23600865,0.52916666 1.0574417e-8,0.76517527 1.0574417e-8,1.0583334 V 3.175 C 1.0574417e-8,3.468158 0.23600865,3.7041667 0.52916667,3.7041667 H 3.4395833 C 3.7327413,3.7041667 3.96875,3.468158 3.96875,3.175 V 1.0583334 c 0,-0.29315813 -0.2360087,-0.52916674 -0.5291667,-0.52916674 z m 0,0.26458331 H 3.4395833 c 0.146579,0 0.2645833,0.1180043 0.2645833,0.26458343 V 3.175 c 0,0.146579 -0.1180043,0.2645833 -0.2645833,0.2645833 H 0.52916667 C 0.38258766,3.4395833 0.26458334,3.321579 0.26458334,3.175 V 1.0583334 c 0,-0.14657913 0.11800432,-0.26458343 0.26458333,-0.26458343 z"
     sodipodi:nodetypes="ssssssssssssssssss" />
</svg>
