<?xml version="1.0" encoding="UTF-8" standalone="no"?>
<!-- Created with Inkscape (http://www.inkscape.org/) -->

<svg
   width="16"
   height="16"
   viewBox="0 0 4.2333333 4.2333333"
   version="1.1"
   id="svg5"
   inkscape:version="1.2 (dc2aedaf03, 2022-05-15)"
   sodipodi:docname="input-tablet.svg"
   xmlns:inkscape="http://www.inkscape.org/namespaces/inkscape"
   xmlns:sodipodi="http://sodipodi.sourceforge.net/DTD/sodipodi-0.dtd"
   xmlns="http://www.w3.org/2000/svg"
   xmlns:svg="http://www.w3.org/2000/svg">
  <sodipodi:namedview
     id="namedview7"
     pagecolor="#ffffff"
     bordercolor="#666666"
     borderopacity="1.0"
     inkscape:pageshadow="2"
     inkscape:pageopacity="0.0"
     inkscape:pagecheckerboard="0"
     inkscape:document-units="px"
     showgrid="false"
     units="px"
     height="48px"
     inkscape:zoom="58.999999"
     inkscape:cx="8.0000001"
     inkscape:cy="8.0000001"
     inkscape:window-width="1920"
     inkscape:window-height="1009"
     inkscape:window-x="0"
     inkscape:window-y="0"
     inkscape:window-maximized="1"
     inkscape:current-layer="svg5"
     inkscape:showpageshadow="2"
     inkscape:deskcolor="#d1d1d1"
     showguides="false" />
  <defs
     id="defs2" />
  <rect
     style="fill:#acacac;fill-opacity:1;stroke-width:0.264583"
     id="rect14262"
     width="3.175"
     height="3.7041667"
     x="0.52916664"
     y="0.26458332"
     ry="0.26458332" />
  <path
     d="m 1.8581894,1.2139555 c -0.2287722,-0.01061 -0.4950553,0.0786 -0.7818644,0.3007572 l 0.1622642,0.2092881 c 0.2513529,-0.194691 0.4570669,-0.2524443 0.6077149,-0.2454619 0.1506479,0.00699 0.2529541,0.075504 0.3141927,0.1632982 0.061239,0.087791 0.075498,0.1927939 0.044958,0.271817 -0.030539,0.079023 -0.098993,0.1485344 -0.2702674,0.1695 C 1.3752605,2.1518294 1.1448137,2.5567503 1.1962143,2.87742 1.2219133,3.0377549 1.3129906,3.1863131 1.4664822,3.2479399 1.6199737,3.3095666 1.8112912,3.2593434 1.9754951,3.104795 2.0969645,2.9904712 2.1968894,2.9585519 2.2876206,2.9585519 c 0.090731,0 0.1804934,0.036819 0.2630331,0.093017 0.1650796,0.112395 0.2806031,0.2914571 0.2806031,0.2914571 L 3.0555324,3.2029819 c 0,0 -0.1325237,-0.2178156 -0.3560506,-0.3700039 C 2.5877184,2.7568838 2.4480364,2.6939685 2.2876206,2.6939685 c -0.1604158,0 -0.3333433,0.067815 -0.4929931,0.2180749 C 1.6777118,3.022081 1.6099026,3.020639 1.5646673,3.002478 1.5194322,2.9843276 1.4719157,2.9242672 1.4576973,2.835563 1.4292599,2.6581519 1.5132714,2.4018633 1.9672268,2.346187 2.2109512,2.3163526 2.3853312,2.1816453 2.4519517,2.009256 2.5185722,1.8368667 2.4839454,1.6429721 2.3775376,1.490424 2.2711299,1.3378758 2.0869619,1.22456 1.8581894,1.2139555 Z"
     style="color:#000000;fill:#000000;stroke-width:0.264583;-inkscape-stroke:none"
     id="path618" />
  <path
     d="m 0.79375001,0.26458332 c -0.14657916,0 -0.26458333,0.1180042 -0.26458333,0.2645833 V 1.0583333 H 3.7041667 V 0.52916662 c 0,-0.1465791 -0.1180042,-0.2645833 -0.2645834,-0.2645833 z"
     style="fill:#bcbcc0;stroke-width:0.264583"
     id="path586" />
  <path
     id="rect1162"
     style="opacity:0.5;fill:#000000;fill-opacity:1;stroke-width:0.264583"
     d="M 0.79374999 0.26458333 C 0.64717098 0.26458333 0.52916666 0.38258765 0.52916666 0.52916666 L 0.52916666 3.7041666 C 0.52916666 3.8507456 0.64717098 3.96875 0.79374999 3.96875 L 3.4395833 3.96875 C 3.5861623 3.96875 3.7041666 3.8507456 3.7041666 3.7041666 L 3.7041666 0.52916666 C 3.7041666 0.38258765 3.5861623 0.26458333 3.4395833 0.26458333 L 0.79374999 0.26458333 z M 0.79374999 0.52916666 L 3.4395833 0.52916666 L 3.4395833 3.7041666 L 0.79374999 3.7041666 L 0.79374999 0.52916666 z " />
  <circle
     style="opacity:1;fill:#ffca40;fill-opacity:1;stroke-width:0.330729"
     id="path1245"
     cx="1.2236979"
     cy="0.79375005"
     r="0.16536458" />
</svg>
