<?xml version="1.0" encoding="UTF-8" standalone="no"?>
<!-- Created with Inkscape (http://www.inkscape.org/) -->

<svg
   width="16"
   height="16"
   viewBox="0 0 4.2333333 4.2333333"
   version="1.1"
   id="svg5"
   inkscape:version="1.2 (dc2aedaf03, 2022-05-15)"
   sodipodi:docname="printer-network.svg"
   xmlns:inkscape="http://www.inkscape.org/namespaces/inkscape"
   xmlns:sodipodi="http://sodipodi.sourceforge.net/DTD/sodipodi-0.dtd"
   xmlns="http://www.w3.org/2000/svg"
   xmlns:svg="http://www.w3.org/2000/svg">
  <sodipodi:namedview
     id="namedview7"
     pagecolor="#ffffff"
     bordercolor="#666666"
     borderopacity="1.0"
     inkscape:pageshadow="2"
     inkscape:pageopacity="0.0"
     inkscape:pagecheckerboard="0"
     inkscape:document-units="px"
     showgrid="false"
     units="px"
     height="48px"
     inkscape:zoom="48.625"
     inkscape:cx="8"
     inkscape:cy="8.0514139"
     inkscape:window-width="1920"
     inkscape:window-height="1010"
     inkscape:window-x="0"
     inkscape:window-y="0"
     inkscape:window-maximized="1"
     inkscape:current-layer="svg5"
     showguides="false"
     inkscape:showpageshadow="2"
     inkscape:deskcolor="#d1d1d1" />
  <defs
     id="defs2" />
  <rect
     style="opacity:1;fill:#474341;fill-opacity:1;stroke-width:0.264583"
     id="rect1162"
     width="4.2333331"
     height="2.1166666"
     x="0"
     y="1.0583333"
     ry="0.26458332" />
  <rect
     style="fill:#73c48f;fill-opacity:1;stroke-width:0.529167"
     id="rect12031"
     width="0.26458332"
     height="0.26458332"
     x="0.52916664"
     y="1.5875" />
  <path
     id="rect1437"
     style="opacity:0.5;fill:#ffffff;fill-opacity:1;stroke-width:0.264583"
     d="M 0.26458333 1.0583333 C 0.11800432 1.0583333 0 1.1763376 0 1.3229167 L 0 2.9104166 C 0 3.0569957 0.11800432 3.175 0.26458333 3.175 L 3.96875 3.175 C 4.115329 3.175 4.2333333 3.0569957 4.2333333 2.9104166 L 4.2333333 1.3229167 C 4.2333333 1.1763376 4.115329 1.0583333 3.96875 1.0583333 L 0.26458333 1.0583333 z M 0.26458333 1.3229167 L 3.96875 1.3229167 L 3.96875 2.9104166 L 0.26458333 2.9104166 L 0.26458333 1.3229167 z " />
  <rect
     style="fill:#dedede;fill-opacity:1;stroke-width:0.529167;stroke-linecap:round;stroke-linejoin:round"
     id="rect1028"
     width="2.6458333"
     height="1.0583333"
     x="0.79374993"
     y="0"
     ry="0.13229166" />
  <rect
     style="fill:#dedede;fill-opacity:1;stroke-width:0.529167"
     id="rect10111"
     width="2.6458333"
     height="2.1166666"
     x="0.79374999"
     y="2.1166666"
     ry="0.13229166" />
  <path
     id="rect10168"
     style="opacity:0.5;stroke-width:0.529167"
     d="M 0.92604166 0 C 0.85275215 0 0.79374999 0.059002159 0.79374999 0.13229167 L 0.79374999 1.0583333 L 1.0583333 1.0583333 L 1.0583333 0.26458333 L 3.175 0.26458333 L 3.175 1.0583333 L 3.4395833 1.0583333 L 3.4395833 0.13229167 C 3.4395833 0.059002159 3.3805816 0 3.3072916 0 L 0.92604166 0 z " />
  <path
     id="rect10270"
     style="opacity:0.5;fill:#000000;fill-opacity:1;stroke-width:0.529167"
     d="M 0.92604166 2.1166667 C 0.85275215 2.1166666 0.79374999 2.1756688 0.79374999 2.2489583 L 0.79374999 4.1010416 C 0.79374999 4.1743311 0.85275215 4.2333333 0.92604166 4.2333333 L 3.3072916 4.2333333 C 3.3805811 4.2333333 3.4395833 4.1743311 3.4395833 4.1010416 L 3.4395833 2.2489583 C 3.4395833 2.1756688 3.3805811 2.1166667 3.3072916 2.1166667 L 3.175 2.1166667 L 3.175 3.96875 L 1.0583333 3.96875 L 1.0583333 2.1166667 L 0.92604166 2.1166667 z " />
  <path
     d="M 1.0583333,2.1166667 V 2.38125 c 0.8767521,0 1.5875,0.7107481 1.5875,1.5875 h 0.2645834 c 0,-1.0228773 -0.829206,-1.8520833 -1.8520834,-1.8520833 z m 0,0.5291666 v 0.2645834 c 0.5845014,0 1.0583334,0.4738319 1.0583334,1.0583333 H 2.38125 c 0,-0.7306268 -0.59229,-1.3229167 -1.3229167,-1.3229167 z m 0,0.5291667 V 3.4395833 C 1.350584,3.4395833 1.5875,3.6764994 1.5875,3.96875 h 0.2645833 c 0,-0.438376 -0.3553739,-0.79375 -0.79375,-0.79375 z m 0,0.5291667 V 3.96875 h 0.2645834 c 0,-0.1461254 -0.118458,-0.2645833 -0.2645834,-0.2645833 z"
     style="opacity:0.7;stroke-width:0.264583;fill:#000000"
     id="path362" />
</svg>
