<?xml version="1.0" encoding="UTF-8" standalone="no"?>
<!-- Created with Inkscape (http://www.inkscape.org/) -->

<svg
   width="64"
   height="64"
   viewBox="0 0 16.933333 16.933333"
   version="1.1"
   id="svg5"
   inkscape:version="1.2 (dc2aedaf03, 2022-05-15)"
   sodipodi:docname="application-mspowerpoint.svg"
   xmlns:inkscape="http://www.inkscape.org/namespaces/inkscape"
   xmlns:sodipodi="http://sodipodi.sourceforge.net/DTD/sodipodi-0.dtd"
   xmlns="http://www.w3.org/2000/svg"
   xmlns:svg="http://www.w3.org/2000/svg">
  <sodipodi:namedview
     id="namedview7"
     pagecolor="#ffffff"
     bordercolor="#666666"
     borderopacity="1.0"
     inkscape:pageshadow="2"
     inkscape:pageopacity="0.0"
     inkscape:pagecheckerboard="0"
     inkscape:document-units="px"
     showgrid="false"
     units="px"
     height="48px"
     inkscape:zoom="12.53125"
     inkscape:cx="32.199501"
     inkscape:cy="32.119701"
     inkscape:window-width="1846"
     inkscape:window-height="1016"
     inkscape:window-x="0"
     inkscape:window-y="0"
     inkscape:window-maximized="1"
     inkscape:current-layer="svg5"
     inkscape:showpageshadow="2"
     inkscape:deskcolor="#d1d1d1" />
  <defs
     id="defs2" />
  <path
     id="rect845"
     style="opacity:1;fill:#671d00;stroke-width:0.264583;fill-opacity:1"
     d="M 3.4395832,0.79374999 H 10.186458 L 14.552083,5.1593749 V 15.610417 c 0,0.586316 -0.472017,1.058333 -1.058334,1.058333 H 3.4395832 c -0.5863167,0 -1.0583333,-0.472017 -1.0583333,-1.058333 V 1.8520833 c 0,-0.5863167 0.4720166,-1.05833331 1.0583333,-1.05833331 z"
     sodipodi:nodetypes="sccssssss" />
  <path
     id="rect1249"
     style="opacity:1;fill:#cf3b00;stroke-width:0.264583;fill-opacity:1"
     d="m 3.571875,1.0583333 6.482292,1e-7 4.233333,4.2333332 1e-6,9.6572914 c 0,0.513027 -0.413015,0.926042 -0.926042,0.926042 H 3.571875 c -0.5130271,0 -0.9260417,-0.413015 -0.9260417,-0.926042 V 1.984375 c 0,-0.5130271 0.4130146,-0.9260417 0.9260417,-0.9260417 z"
     sodipodi:nodetypes="sccssssss" />
  <circle
     style="opacity:0.3;fill:#ffffff;stroke-width:2.82223;stroke-linejoin:bevel"
     id="path31463"
     cx="8.9958344"
     cy="10.847917"
     r="4.2333326" />
  <path
     id="path31465"
     style="opacity:0.7;fill:#ffffff;stroke-width:2.11666;stroke-linejoin:bevel"
     d="M 4.7624998,10.847916 A 4.2333329,4.2333329 0 0 0 8.9958326,15.08125 4.2333329,4.2333329 0 0 0 13.229166,10.847916 H 8.9958326 Z" />
  <path
     id="path31759"
     style="opacity:0.5;fill:#ffffff;stroke-width:2.11666;stroke-linejoin:bevel"
     d="M 8.9958326,6.6145832 A 4.2333326,4.2333329 0 0 0 4.7624998,10.847916 h 4.2333328 z" />
  <rect
     style="fill:#cf3b00;fill-opacity:1;stroke-width:0.264583"
     id="rect3242"
     width="5.2916665"
     height="5.2916665"
     x="3.4395833"
     y="8.2020836"
     ry="0.79374999" />
  <rect
     style="fill:#ffffff;stroke-width:0.264583"
     id="rect2687"
     width="4.7624998"
     height="4.7624998"
     x="3.7041669"
     y="8.4666672"
     ry="0.52916646" />
  <path
     id="rect4291"
     style="fill:#cf3b00;fill-opacity:1;stroke-width:0.264583"
     d="M 5.2916665,9.2604165 V 12.435416 H 5.8208331 V 11.377083 H 6.3499998 A 1.0583333,1.0583333 0 0 0 7.4083331,10.31875 1.0583333,1.0583333 0 0 0 6.3499998,9.2604165 H 5.8208331 Z M 5.8208331,9.7895831 H 6.3499998 A 0.52916664,0.52916664 0 0 1 6.8791664,10.31875 0.52916664,0.52916664 0 0 1 6.3499998,10.847916 H 5.8208331 Z" />
  <path
     id="rect3450"
     style="opacity:0.5;fill:#671d00;stroke-width:0.264583;fill-opacity:1"
     d="m 10.054167,1.0583334 4.233333,4.2333332 1e-6,0.7937502 h -3.439584 c -0.586318,0 -1.0583339,-0.4720166 -1.0583339,-1.0583333 V 1.0583333 Z"
     sodipodi:nodetypes="cccsscc" />
  <path
     id="rect2783"
     style="opacity:1;fill:#f15d22;fill-opacity:1;stroke-width:0.264583"
     d="m 14.2875,5.2916666 h -3.175001 c -0.586316,0 -1.058332,-0.4720167 -1.058332,-1.0583333 V 1.0583334 Z"
     sodipodi:nodetypes="csscc" />
</svg>
