<?xml version="1.0" encoding="UTF-8" standalone="no"?>
<!-- Created with Inkscape (http://www.inkscape.org/) -->

<svg
   width="64"
   height="64"
   viewBox="0 0 16.933333 16.933333"
   version="1.1"
   id="svg5"
   inkscape:version="1.2 (dc2aedaf03, 2022-05-15)"
   sodipodi:docname="application-x-hwp.svg"
   xmlns:inkscape="http://www.inkscape.org/namespaces/inkscape"
   xmlns:sodipodi="http://sodipodi.sourceforge.net/DTD/sodipodi-0.dtd"
   xmlns="http://www.w3.org/2000/svg"
   xmlns:svg="http://www.w3.org/2000/svg">
  <sodipodi:namedview
     id="namedview7"
     pagecolor="#ffffff"
     bordercolor="#666666"
     borderopacity="1.0"
     inkscape:pageshadow="2"
     inkscape:pageopacity="0.0"
     inkscape:pagecheckerboard="0"
     inkscape:document-units="px"
     showgrid="false"
     units="px"
     height="48px"
     inkscape:zoom="12.71875"
     inkscape:cx="32"
     inkscape:cy="32"
     inkscape:window-width="1846"
     inkscape:window-height="1011"
     inkscape:window-x="0"
     inkscape:window-y="0"
     inkscape:window-maximized="1"
     inkscape:current-layer="svg5"
     inkscape:showpageshadow="2"
     inkscape:deskcolor="#d1d1d1" />
  <defs
     id="defs2" />
  <path
     id="rect845"
     style="opacity:1;fill:#245c63;stroke-width:0.264583;fill-opacity:1"
     d="M 3.4395832,0.79374999 H 10.186458 L 14.552083,5.1593749 V 15.610417 c 0,0.586316 -0.472017,1.058333 -1.058334,1.058333 H 3.4395832 c -0.5863167,0 -1.0583333,-0.472017 -1.0583333,-1.058333 V 1.8520833 c 0,-0.5863167 0.4720166,-1.05833331 1.0583333,-1.05833331 z"
     sodipodi:nodetypes="sccssssss" />
  <path
     id="rect1249"
     style="opacity:1;fill:#48b9c7;fill-opacity:1;stroke-width:0.264583"
     d="m 3.571875,1.0583333 6.482292,1e-7 4.233333,4.2333332 1e-6,9.6572914 c 0,0.513027 -0.413015,0.926042 -0.926042,0.926042 H 3.571875 c -0.5130271,0 -0.9260417,-0.413015 -0.9260417,-0.926042 V 1.984375 c 0,-0.5130271 0.4130146,-0.9260417 0.9260417,-0.9260417 z"
     sodipodi:nodetypes="sccssssss" />
  <path
     id="rect3450"
     style="opacity:0.5;fill:#245c63;stroke-width:0.264583;fill-opacity:1"
     d="m 10.054167,1.0583334 4.233333,4.2333332 1e-6,0.7937502 h -3.439584 c -0.586318,0 -1.0583339,-0.4720166 -1.0583339,-1.0583333 V 1.0583333 Z"
     sodipodi:nodetypes="cccsscc" />
  <path
     id="rect2783"
     style="opacity:1;fill:#67d8e6;fill-opacity:1;stroke-width:0.264583"
     d="m 14.2875,5.2916666 h -3.175001 c -0.586316,0 -1.058332,-0.4720167 -1.058332,-1.0583333 V 1.0583334 Z"
     sodipodi:nodetypes="csscc" />
  <path
     id="path646"
     style="fill:#ffffff;stroke-width:0.440973;stroke-linejoin:round"
     d="m 7.9374998,5.8208332 v 0.79375 H 5.5562499 v 0.79375 H 11.1125 v -0.79375 H 8.7312498 v -0.79375 z m 0.396875,2.3812499 A 1.984375,1.984375 0 0 0 6.3499999,10.186458 1.984375,1.984375 0 0 0 8.3343748,12.170834 1.984375,1.984375 0 0 0 10.31875,10.186458 1.984375,1.984375 0 0 0 8.3343748,8.2020831 Z m 0,0.79375 a 1.190625,1.190625 0 0 1 1.190625,1.1906249 1.190625,1.190625 0 0 1 -1.190625,1.190626 1.190625,1.190625 0 0 1 -1.1906249,-1.190626 1.190625,1.190625 0 0 1 1.1906249,-1.1906249 z m -0.396875,3.9687509 v 0.79375 h 0.79375 v -0.79375 z M 5.5562499,13.49375 v 1.852084 H 11.1125 v -0.79375 H 6.3499999 V 13.49375 Z" />
</svg>
