<?xml version="1.0" encoding="UTF-8" standalone="no"?>
<!-- Created with Inkscape (http://www.inkscape.org/) -->

<svg
   width="64"
   height="64"
   viewBox="0 0 16.933333 16.933333"
   version="1.1"
   id="svg5"
   inkscape:version="1.1.2 (0a00cf5339, 2022-02-04, custom)"
   sodipodi:docname="text-x-c.svg"
   xmlns:inkscape="http://www.inkscape.org/namespaces/inkscape"
   xmlns:sodipodi="http://sodipodi.sourceforge.net/DTD/sodipodi-0.dtd"
   xmlns="http://www.w3.org/2000/svg"
   xmlns:svg="http://www.w3.org/2000/svg">
  <sodipodi:namedview
     id="namedview7"
     pagecolor="#ffffff"
     bordercolor="#666666"
     borderopacity="1.0"
     inkscape:pageshadow="2"
     inkscape:pageopacity="0.0"
     inkscape:pagecheckerboard="0"
     inkscape:document-units="px"
     showgrid="false"
     units="px"
     height="48px"
     inkscape:zoom="6.265625"
     inkscape:cx="14.124688"
     inkscape:cy="37.506234"
     inkscape:window-width="1920"
     inkscape:window-height="1017"
     inkscape:window-x="0"
     inkscape:window-y="0"
     inkscape:window-maximized="1"
     inkscape:current-layer="svg5" />
  <defs
     id="defs2" />
  <path
     id="rect845"
     style="opacity:1;fill:#6f6f6f;stroke-width:0.264583;fill-opacity:1"
     d="M 3.4395832,0.79374999 H 10.186458 L 14.552083,5.1593749 V 15.610417 c 0,0.586316 -0.472017,1.058333 -1.058334,1.058333 H 3.4395832 c -0.5863167,0 -1.0583333,-0.472017 -1.0583333,-1.058333 V 1.8520833 c 0,-0.5863167 0.4720166,-1.05833331 1.0583333,-1.05833331 z"
     sodipodi:nodetypes="sccssssss" />
  <path
     id="rect1249"
     style="opacity:1;fill:#ececec;stroke-width:0.264583;fill-opacity:1"
     d="m 3.571875,1.0583333 6.482292,1e-7 4.233333,4.2333332 1e-6,9.6572914 c 0,0.513027 -0.413015,0.926042 -0.926042,0.926042 H 3.571875 c -0.5130271,0 -0.9260417,-0.413015 -0.9260417,-0.926042 V 1.984375 c 0,-0.5130271 0.4130146,-0.9260417 0.9260417,-0.9260417 z"
     sodipodi:nodetypes="sccssssss" />
  <path
     id="rect3450"
     style="opacity:0.5;fill:#6f6f6f;stroke-width:0.264583"
     d="m 10.054167,1.0583334 4.233333,4.2333332 1e-6,0.7937502 h -3.439584 c -0.586318,0 -1.0583339,-0.4720166 -1.0583339,-1.0583333 V 1.0583333 Z"
     sodipodi:nodetypes="cccsscc" />
  <path
     id="rect2783"
     style="opacity:1;fill:#fafafa;fill-opacity:1;stroke-width:0.264583"
     d="m 14.2875,5.2916666 h -3.175001 c -0.586316,0 -1.058332,-0.4720167 -1.058332,-1.0583333 V 1.0583334 Z"
     sodipodi:nodetypes="csscc" />
  <path
     d="m 11.482907,12.013141 c -0.02302,0.501466 -0.15822,0.945278 -0.40587,1.331384 -0.247465,0.382773 -0.595472,0.679715 -1.044046,0.890852 -0.4453727,0.211138 -0.9551454,0.316706 -1.5292908,0.316706 -0.9468379,0 -1.6924338,-0.308504 -2.2367796,-0.925512 C 5.7225854,13.009563 5.4504165,12.138554 5.4504165,11.013546 v -0.356394 c 0,-0.7059083 0.1220602,-1.3228373 0.3661833,-1.8507604 C 6.0640725,8.2752935 6.4187041,7.8661418 6.8804814,7.5789895 7.3424439,7.288821 7.8769022,7.1437499 8.4838564,7.1437499 c 0.8743682,0 1.5771006,0.2309019 2.1081986,0.6926792 0.531284,0.4586023 0.833173,1.0920148 0.905669,1.9002375 H 9.7657623 C 9.7525323,9.2979874 9.6420423,8.982948 9.4342396,8.7915749 9.2262766,8.6002018 8.9094916,8.504502 8.4838564,8.504502 8.0517125,8.504502 7.7350856,8.6661624 7.5340023,8.9894832 7.332575,9.3128041 7.2269268,9.8291914 7.2170314,10.538619 v 0.509587 c 0,0.768694 0.0957,1.318075 0.2870729,1.64809 0.1945746,0.329856 0.5277644,0.494771 0.9995959,0.494771 0.3991768,0 0.7043204,-0.09401 0.9154574,-0.282046 0.2111377,-0.188039 0.3233207,-0.486648 0.3365497,-0.89588 z"
     style="fill:#3f51b5;stroke-width:0.264583"
     id="path2168" />
</svg>
