<?xml version="1.0" encoding="UTF-8" standalone="no"?>
<!-- Created with Inkscape (http://www.inkscape.org/) -->

<svg
   width="64"
   height="64"
   viewBox="0 0 16.933333 16.933333"
   version="1.1"
   id="svg5"
   inkscape:version="1.2 (dc2aedaf03, 2022-05-15)"
   sodipodi:docname="text-x-html.svg"
   xmlns:inkscape="http://www.inkscape.org/namespaces/inkscape"
   xmlns:sodipodi="http://sodipodi.sourceforge.net/DTD/sodipodi-0.dtd"
   xmlns="http://www.w3.org/2000/svg"
   xmlns:svg="http://www.w3.org/2000/svg">
  <sodipodi:namedview
     id="namedview7"
     pagecolor="#ffffff"
     bordercolor="#666666"
     borderopacity="1.0"
     inkscape:pageshadow="2"
     inkscape:pageopacity="0.0"
     inkscape:pagecheckerboard="0"
     inkscape:document-units="px"
     showgrid="false"
     units="px"
     height="48px"
     inkscape:zoom="17.721864"
     inkscape:cx="32.304729"
     inkscape:cy="35.154316"
     inkscape:window-width="1920"
     inkscape:window-height="1014"
     inkscape:window-x="0"
     inkscape:window-y="0"
     inkscape:window-maximized="1"
     inkscape:current-layer="svg5"
     inkscape:showpageshadow="2"
     inkscape:deskcolor="#d1d1d1" />
  <defs
     id="defs2" />
  <path
     id="rect845"
     style="opacity:1;fill:#6f6f6f;stroke-width:0.264583;fill-opacity:1"
     d="M 3.4395832,0.79374999 H 10.186458 L 14.552083,5.1593749 V 15.610417 c 0,0.586316 -0.472017,1.058333 -1.058334,1.058333 H 3.4395832 c -0.5863167,0 -1.0583333,-0.472017 -1.0583333,-1.058333 V 1.8520833 c 0,-0.5863167 0.4720166,-1.05833331 1.0583333,-1.05833331 z"
     sodipodi:nodetypes="sccssssss" />
  <path
     id="rect1249"
     style="opacity:1;fill:#ececec;stroke-width:0.264583;fill-opacity:1"
     d="m 3.571875,1.0583333 6.482292,1e-7 4.233333,4.2333332 1e-6,9.6572914 c 0,0.513027 -0.413015,0.926042 -0.926042,0.926042 H 3.571875 c -0.5130271,0 -0.9260417,-0.413015 -0.9260417,-0.926042 V 1.984375 c 0,-0.5130271 0.4130146,-0.9260417 0.9260417,-0.9260417 z"
     sodipodi:nodetypes="sccssssss" />
  <path
     d="m 5.2014436,7.1437499 0.5945187,6.6680291 2.6677938,0.740569 2.6749369,-0.741627 0.595313,-6.6669711 z m 1.2154958,1.3628687 h 4.0965436 l -0.01958,0.2196042 -0.03704,0.4143375 -0.01667,0.1838854 H 7.3107019 l 0.074877,0.8374063 h 2.9802661 l -0.01984,0.219604 -0.192352,2.15318 -0.01217,0.138112 -1.6737533,0.463815 -0.0037,0.0011 -1.6753507,-0.46518 -0.1145646,-1.284022 h 0.8210021 l 0.058208,0.652197 0.9106958,0.246063 7.938e-4,-5.29e-4 0.9122833,-0.246063 0.094721,-1.060714 H 6.6376019 L 6.4365186,8.7256936 6.4169394,8.506354 Z"
     style="fill:#e44d26;stroke-width:0.264583"
     id="path321" />
  <path
     d="m 5.2014436,7.1437499 0.5945188,6.6680281 2.6677937,0.740569 0.00397,-0.0011 V 13.13652 l -0.0037,0.0011 L 6.7886844,12.672747 6.6741198,11.38846 h 0.8210021 l 0.058208,0.652198 0.9106958,0.246062 7.937e-4,-2.64e-4 0.00265,-7.94e-4 V 10.97968 H 6.6376019 L 6.4365186,8.7259582 6.4169395,8.5066186 H 8.4674603 V 7.1437499 H 5.2017082 Z m 2.1092583,2.1806956 0.074877,0.8374055 H 8.4677248 V 9.3244455 h -0.00265 z"
     style="opacity:0.1;fill:#000000;stroke-width:0.264583"
     id="path523" />
  <path
     id="rect3450"
     style="opacity:0.5;fill:#6f6f6f;stroke-width:0.264583"
     d="m 10.054167,1.0583334 4.233333,4.2333332 1e-6,0.7937502 h -3.439584 c -0.586318,0 -1.0583339,-0.4720166 -1.0583339,-1.0583333 V 1.0583333 Z"
     sodipodi:nodetypes="cccsscc" />
  <path
     id="rect2783"
     style="opacity:1;fill:#fafafa;fill-opacity:1;stroke-width:0.264583"
     d="m 14.2875,5.2916666 h -3.175001 c -0.586316,0 -1.058332,-0.4720167 -1.058332,-1.0583333 V 1.0583334 Z"
     sodipodi:nodetypes="csscc" />
</svg>
