<?xml version="1.0" encoding="UTF-8" standalone="no"?>
<!-- Created with Inkscape (http://www.inkscape.org/) -->

<svg
   width="64"
   height="64"
   viewBox="0 0 16.933333 16.933333"
   version="1.1"
   id="svg5"
   inkscape:version="1.2 (dc2aedaf03, 2022-05-15)"
   sodipodi:docname="text-x-java.svg"
   xmlns:inkscape="http://www.inkscape.org/namespaces/inkscape"
   xmlns:sodipodi="http://sodipodi.sourceforge.net/DTD/sodipodi-0.dtd"
   xmlns="http://www.w3.org/2000/svg"
   xmlns:svg="http://www.w3.org/2000/svg">
  <sodipodi:namedview
     id="namedview7"
     pagecolor="#ffffff"
     bordercolor="#666666"
     borderopacity="1.0"
     inkscape:pageshadow="2"
     inkscape:pageopacity="0.0"
     inkscape:pagecheckerboard="0"
     inkscape:document-units="px"
     showgrid="false"
     units="px"
     height="48px"
     inkscape:zoom="6.265625"
     inkscape:cx="35.750623"
     inkscape:cy="39.900249"
     inkscape:window-width="1920"
     inkscape:window-height="1014"
     inkscape:window-x="0"
     inkscape:window-y="0"
     inkscape:window-maximized="1"
     inkscape:current-layer="svg5"
     inkscape:showpageshadow="2"
     inkscape:deskcolor="#d1d1d1" />
  <defs
     id="defs2" />
  <path
     id="rect845"
     style="opacity:1;fill:#6f6f6f;stroke-width:0.264583;fill-opacity:1"
     d="M 3.4395832,0.79374999 H 10.186458 L 14.552083,5.1593749 V 15.610417 c 0,0.586316 -0.472017,1.058333 -1.058334,1.058333 H 3.4395832 c -0.5863167,0 -1.0583333,-0.472017 -1.0583333,-1.058333 V 1.8520833 c 0,-0.5863167 0.4720166,-1.05833331 1.0583333,-1.05833331 z"
     sodipodi:nodetypes="sccssssss" />
  <path
     id="rect1249"
     style="opacity:1;fill:#ececec;stroke-width:0.264583;fill-opacity:1"
     d="m 3.571875,1.0583333 6.482292,1e-7 4.233333,4.2333332 1e-6,9.6572914 c 0,0.513027 -0.413015,0.926042 -0.926042,0.926042 H 3.571875 c -0.5130271,0 -0.9260417,-0.413015 -0.9260417,-0.926042 V 1.984375 c 0,-0.5130271 0.4130146,-0.9260417 0.9260417,-0.9260417 z"
     sodipodi:nodetypes="sccssssss" />
  <path
     d="m 10.271761,12.81774 c 1.588558,-0.8255 0.854075,-1.618456 0.341312,-1.511565 -0.125412,0.02619 -0.181504,0.04868 -0.181504,0.04868 0,0 0.04657,-0.07302 0.135467,-0.104511 1.014412,-0.356394 1.794404,1.051454 -0.327025,1.609196 0,0 0.02434,-0.02223 0.03175,-0.0418 z M 7.5113631,11.274954 c 0,0 -1.5388166,0.365655 -0.5450417,0.498475 0.4198938,0.05609 1.2562417,0.04313 2.0357042,-0.02222 0.6368521,-0.05344 1.2760854,-0.167745 1.2760854,-0.167745 0,0 -0.224367,0.09631 -0.3868208,0.207168 -1.5628938,0.410898 -4.581525,0.219605 -3.7123687,-0.200554 0.7347479,-0.3556 1.3324416,-0.315119 1.3324416,-0.315119 z m 0.1561042,3.779838 c 1.5245291,0.09737 3.8663557,-0.05424 3.9216537,-0.775758 0,0 -0.106627,0.273579 -1.259945,0.490537 -1.3014858,0.245004 -2.9069775,0.216429 -3.8586837,0.05927 0,0 0.1949979,0.161396 1.196975,0.225954 z m -0.51435,-2.8194 c 0,0 -0.3627438,0.268552 0.1912937,0.325967 0.7170208,0.07408 1.2827,0.0799 2.2621875,-0.10848 0,0 0.1354667,0.137319 0.3481917,0.212196 -2.0036896,0.586317 -4.23545,0.0463 -2.8019375,-0.429683 z m 3.8996937,1.612371 c 0,0 0.239183,0.197644 -0.26379,0.350044 -0.9564683,0.289718 -3.9819787,0.377295 -4.8222954,0.01164 C 5.6651006,14.077949 6.231309,13.895916 6.4093735,13.857287 6.595111,13.817067 6.701209,13.824477 6.701209,13.824477 6.3651881,13.58794 4.5297736,14.289086 5.7690819,14.490169 9.1483402,15.037857 11.92911,14.243313 11.052811,13.848025 Z M 8.8604735,10.662709 c 0.4085167,0.470429 -0.1071562,0.893498 -0.1071562,0.893498 0,0 1.0371666,-0.535253 0.5609166,-1.205971 C 8.8692048,9.7252894 8.5281568,9.4146686 10.374684,8.3438998 c 0,0 -2.8985105,0.7236354 -1.5142105,2.3188092 z m -1.50495,2.499783 c 0,0 -0.3230562,0.187854 0.2307167,0.251354 0.6709833,0.07673 1.0136187,0.06588 1.7528646,-0.07408 0,0 0.1947333,0.121708 0.4661958,0.227541 C 8.147686,14.277446 6.0537735,13.526029 7.3557881,13.162492 Z M 9.3142339,6.6145832 c 0,0 0.8794751,0.8800041 -0.8344958,2.2330833 C 7.1049631,9.9332519 8.1662068,10.552113 8.4792089,11.259609 7.6767277,10.535709 7.0880298,9.8983269 7.4827881,9.3051311 8.0627548,8.4346519 9.6690402,8.0123769 9.3142339,6.6145832 Z"
     id="path8739"
     style="fill:#dd4f37;fill-opacity:1;stroke-width:0.264583" />
  <path
     id="rect3450"
     style="opacity:0.5;fill:#6f6f6f;stroke-width:0.264583"
     d="m 10.054167,1.0583334 4.233333,4.2333332 1e-6,0.7937502 h -3.439584 c -0.586318,0 -1.0583339,-0.4720166 -1.0583339,-1.0583333 V 1.0583333 Z"
     sodipodi:nodetypes="cccsscc" />
  <path
     id="rect2783"
     style="opacity:1;fill:#fafafa;fill-opacity:1;stroke-width:0.264583"
     d="m 14.2875,5.2916666 h -3.175001 c -0.586316,0 -1.058332,-0.4720167 -1.058332,-1.0583333 V 1.0583334 Z"
     sodipodi:nodetypes="csscc" />
</svg>
