<?xml version="1.0" encoding="UTF-8" standalone="no"?>
<!-- Created with Inkscape (http://www.inkscape.org/) -->

<svg
   width="256"
   height="256"
   viewBox="0 0 67.733332 67.733336"
   version="1.1"
   id="svg1099"
   inkscape:version="1.2 (dc2aedaf03, 2022-05-15)"
   sodipodi:docname="input-keyboard.svg"
   xmlns:inkscape="http://www.inkscape.org/namespaces/inkscape"
   xmlns:sodipodi="http://sodipodi.sourceforge.net/DTD/sodipodi-0.dtd"
   xmlns="http://www.w3.org/2000/svg"
   xmlns:svg="http://www.w3.org/2000/svg">
  <sodipodi:namedview
     id="namedview1101"
     pagecolor="#ffffff"
     bordercolor="#666666"
     borderopacity="1.0"
     inkscape:pageshadow="2"
     inkscape:pageopacity="0.0"
     inkscape:pagecheckerboard="0"
     inkscape:document-units="px"
     showgrid="false"
     units="px"
     inkscape:zoom="2.3296814"
     inkscape:cx="106.88157"
     inkscape:cy="136.9286"
     inkscape:window-width="1846"
     inkscape:window-height="1011"
     inkscape:window-x="0"
     inkscape:window-y="0"
     inkscape:window-maximized="1"
     inkscape:current-layer="svg1099"
     inkscape:showpageshadow="2"
     inkscape:deskcolor="#d1d1d1" />
  <defs
     id="defs1096" />
  <rect
     style="opacity:1;fill:#7b736e;fill-opacity:1;stroke-width:1.05833"
     id="rect1196"
     width="59.266666"
     height="46.566666"
     x="4.2333336"
     y="14.816667"
     ry="4.2333336" />
  <path
     d="m 11.1125,21.960417 c -0.879475,0 -1.5874999,0.708024 -1.5874999,1.5875 v 3.175 c 0,0.879474 0.7080249,1.5875 1.5874999,1.5875 h 3.175 c 0.879475,0 1.5875,-0.708026 1.5875,-1.5875 v -3.175 c 0,-0.879476 -0.708025,-1.5875 -1.5875,-1.5875 z m 8.466666,0 c -0.879475,0 -1.5875,0.708024 -1.5875,1.5875 v 3.175 c 0,0.879474 0.708025,1.5875 1.5875,1.5875 h 3.175001 c 0.879476,0 1.5875,-0.708026 1.5875,-1.5875 v -3.175 c 0,-0.879476 -0.708024,-1.5875 -1.5875,-1.5875 z m 8.466669,0 c -0.879476,0 -1.5875,0.708024 -1.5875,1.5875 v 3.175 c 0,0.879474 0.708024,1.5875 1.5875,1.5875 h 3.175 c 0.879474,0 1.5875,-0.708026 1.5875,-1.5875 v -3.175 c 0,-0.879476 -0.708026,-1.5875 -1.5875,-1.5875 z m 8.466663,0 c -0.879475,0 -1.587499,0.708024 -1.587499,1.5875 v 3.175 c 0,0.879474 0.708024,1.5875 1.587499,1.5875 h 3.175 c 0.879476,0 1.5875,-0.708026 1.5875,-1.5875 v -3.175 c 0,-0.879476 -0.708024,-1.5875 -1.5875,-1.5875 z m 8.466666,0 c -0.879474,0 -1.5875,0.708024 -1.5875,1.5875 v 3.175 c 0,0.879474 0.708026,1.5875 1.5875,1.5875 h 3.175 c 0.879476,0 1.5875,-0.708026 1.5875,-1.5875 v -3.175 c 0,-0.879476 -0.708024,-1.5875 -1.5875,-1.5875 z m 8.466668,0 c -0.879476,0 -1.5875,0.708024 -1.5875,1.5875 v 3.175 c 0,0.879474 0.708024,1.5875 1.5875,1.5875 h 3.174999 c 0.879474,0 1.5875,-0.708026 1.5875,-1.5875 v -3.175 c 0,-0.879476 -0.708026,-1.5875 -1.5875,-1.5875 z M 11.1125,30.427083 c -0.879475,0 -1.5874999,0.708026 -1.5874999,1.587499 v 3.175002 c 0,0.879476 0.7080249,1.5875 1.5874999,1.5875 h 3.175 c 0.879475,0 1.5875,-0.708024 1.5875,-1.5875 v -3.175002 c 0,-0.879473 -0.708025,-1.587499 -1.5875,-1.587499 z m 8.466666,0 c -0.879475,0 -1.5875,0.708026 -1.5875,1.587499 v 3.175002 c 0,0.879476 0.708025,1.5875 1.5875,1.5875 h 3.175001 c 0.879476,0 1.5875,-0.708024 1.5875,-1.5875 v -3.175002 c 0,-0.879473 -0.708024,-1.587499 -1.5875,-1.587499 z m 8.466669,0 c -0.879476,0 -1.5875,0.708026 -1.5875,1.587499 v 3.175002 c 0,0.879476 0.708024,1.5875 1.5875,1.5875 h 3.175 c 0.879474,0 1.5875,-0.708024 1.5875,-1.5875 v -3.175002 c 0,-0.879473 -0.708026,-1.587499 -1.5875,-1.587499 z m 8.466663,0 c -0.879475,0 -1.587499,0.708026 -1.587499,1.587499 v 3.175002 c 0,0.879476 0.708024,1.5875 1.587499,1.5875 h 3.175 c 0.879476,0 1.5875,-0.708024 1.5875,-1.5875 v -3.175002 c 0,-0.879473 -0.708024,-1.587499 -1.5875,-1.587499 z m 8.466666,0 c -0.879474,0 -1.5875,0.708026 -1.5875,1.587499 v 3.175002 c 0,0.879476 0.708026,1.5875 1.5875,1.5875 h 3.175 c 0.879476,0 1.5875,-0.708024 1.5875,-1.5875 v -3.175002 c 0,-0.879473 -0.708024,-1.587499 -1.5875,-1.587499 z m 8.466668,0 c -0.879476,0 -1.5875,0.708026 -1.5875,1.587499 v 3.175002 c 0,0.879476 0.708024,1.5875 1.5875,1.5875 h 3.174999 c 0.879474,0 1.5875,-0.708024 1.5875,-1.5875 v -3.175002 c 0,-0.879473 -0.708026,-1.587499 -1.5875,-1.587499 z M 11.1125,38.893752 c -0.879475,0 -1.5874999,0.708024 -1.5874999,1.5875 v 3.175 c 0,0.879474 0.7080249,1.5875 1.5874999,1.5875 h 3.175 c 0.879475,0 1.5875,-0.708026 1.5875,-1.5875 v -3.175 c 0,-0.879476 -0.708025,-1.5875 -1.5875,-1.5875 z m 8.466666,0 c -0.879475,0 -1.5875,0.708024 -1.5875,1.5875 v 3.175 c 0,0.879474 0.708025,1.5875 1.5875,1.5875 h 3.175001 c 0.879476,0 1.5875,-0.708026 1.5875,-1.5875 v -3.175 c 0,-0.879476 -0.708024,-1.5875 -1.5875,-1.5875 z m 8.466669,0 c -0.879476,0 -1.5875,0.708024 -1.5875,1.5875 v 3.175 c 0,0.879474 0.708024,1.5875 1.5875,1.5875 h 3.175 c 0.879474,0 1.5875,-0.708026 1.5875,-1.5875 v -3.175 c 0,-0.879476 -0.708026,-1.5875 -1.5875,-1.5875 z m 8.466663,0 c -0.879475,0 -1.587499,0.708024 -1.587499,1.5875 v 3.175 c 0,0.879474 0.708024,1.5875 1.587499,1.5875 h 3.175 c 0.879476,0 1.5875,-0.708026 1.5875,-1.5875 v -3.175 c 0,-0.879476 -0.708024,-1.5875 -1.5875,-1.5875 z m 8.466666,0 c -0.879474,0 -1.5875,0.708024 -1.5875,1.5875 v 3.175 c 0,0.879474 0.708026,1.5875 1.5875,1.5875 h 3.175 c 0.879476,0 1.5875,-0.708026 1.5875,-1.5875 v -3.175 c 0,-0.879476 -0.708024,-1.5875 -1.5875,-1.5875 z m 8.466668,0 c -0.879476,0 -1.5875,0.708024 -1.5875,1.5875 v 3.175 c 0,0.879474 0.708024,1.5875 1.5875,1.5875 h 3.174999 c 0.879474,0 1.5875,-0.708026 1.5875,-1.5875 v -3.175 c 0,-0.879476 -0.708026,-1.5875 -1.5875,-1.5875 z m -32.808333,8.466666 c -0.879475,0 -1.5875,0.708026 -1.5875,1.5875 v 3.174999 c 0,0.879476 0.708025,1.5875 1.5875,1.5875 h 26.458333 c 0.879474,0 1.5875,-0.708024 1.5875,-1.5875 v -3.174999 c 0,-0.879474 -0.708026,-1.5875 -1.5875,-1.5875 z"
     style="opacity:0.5;fill:#000000;fill-opacity:1;stroke-width:0.529166"
     id="path2747" />
  <path
     d="m 11.1125,21.695834 c -0.879475,0 -1.5874999,0.708024 -1.5874999,1.5875 v 3.175 c 0,0.879474 0.7080249,1.5875 1.5874999,1.5875 h 3.175 c 0.879475,0 1.5875,-0.708026 1.5875,-1.5875 v -3.175 c 0,-0.879476 -0.708025,-1.5875 -1.5875,-1.5875 z m 8.466667,0 c -0.879475,0 -1.5875,0.708024 -1.5875,1.5875 v 3.175 c 0,0.879474 0.708025,1.5875 1.5875,1.5875 h 3.175001 c 0.879476,0 1.5875,-0.708026 1.5875,-1.5875 v -3.175 c 0,-0.879476 -0.708024,-1.5875 -1.5875,-1.5875 z m 8.466669,0 c -0.879476,0 -1.5875,0.708024 -1.5875,1.5875 v 3.175 c 0,0.879474 0.708024,1.5875 1.5875,1.5875 h 3.175 c 0.879474,0 1.5875,-0.708026 1.5875,-1.5875 v -3.175 c 0,-0.879476 -0.708026,-1.5875 -1.5875,-1.5875 z m 8.466666,0 c -0.879476,0 -1.5875,0.708024 -1.5875,1.5875 v 3.175 c 0,0.879474 0.708024,1.5875 1.5875,1.5875 h 3.175 c 0.879476,0 1.5875,-0.708026 1.5875,-1.5875 v -3.175 c 0,-0.879476 -0.708024,-1.5875 -1.5875,-1.5875 z m 8.466666,0 c -0.879474,0 -1.5875,0.708024 -1.5875,1.5875 v 3.175 c 0,0.879474 0.708026,1.5875 1.5875,1.5875 h 3.175 c 0.879476,0 1.5875,-0.708026 1.5875,-1.5875 v -3.175 c 0,-0.879476 -0.708024,-1.5875 -1.5875,-1.5875 z m 8.466668,0 c -0.879476,0 -1.5875,0.708024 -1.5875,1.5875 v 3.175 c 0,0.879474 0.708024,1.5875 1.5875,1.5875 h 3.175 c 0.879474,0 1.5875,-0.708026 1.5875,-1.5875 v -3.175 c 0,-0.879476 -0.708026,-1.5875 -1.5875,-1.5875 z M 11.1125,30.1625 c -0.879475,0 -1.5874999,0.708026 -1.5874999,1.5875 v 3.175 c 0,0.879476 0.7080249,1.5875 1.5874999,1.5875 h 3.175 c 0.879475,0 1.5875,-0.708024 1.5875,-1.5875 V 31.75 c 0,-0.879474 -0.708025,-1.5875 -1.5875,-1.5875 z m 8.466667,0 c -0.879475,0 -1.5875,0.708026 -1.5875,1.5875 v 3.175 c 0,0.879476 0.708025,1.5875 1.5875,1.5875 h 3.175001 c 0.879476,0 1.5875,-0.708024 1.5875,-1.5875 V 31.75 c 0,-0.879474 -0.708024,-1.5875 -1.5875,-1.5875 z m 8.466669,0 c -0.879476,0 -1.5875,0.708026 -1.5875,1.5875 v 3.175 c 0,0.879476 0.708024,1.5875 1.5875,1.5875 h 3.175 c 0.879474,0 1.5875,-0.708024 1.5875,-1.5875 V 31.75 c 0,-0.879474 -0.708026,-1.5875 -1.5875,-1.5875 z m 8.466666,0 c -0.879476,0 -1.5875,0.708026 -1.5875,1.5875 v 3.175 c 0,0.879476 0.708024,1.5875 1.5875,1.5875 h 3.175 c 0.879476,0 1.5875,-0.708024 1.5875,-1.5875 V 31.75 c 0,-0.879474 -0.708024,-1.5875 -1.5875,-1.5875 z m 8.466666,0 c -0.879474,0 -1.5875,0.708026 -1.5875,1.5875 v 3.175 c 0,0.879476 0.708026,1.5875 1.5875,1.5875 h 3.175 c 0.879476,0 1.5875,-0.708024 1.5875,-1.5875 V 31.75 c 0,-0.879474 -0.708024,-1.5875 -1.5875,-1.5875 z m 8.466668,0 c -0.879476,0 -1.5875,0.708026 -1.5875,1.5875 v 3.175 c 0,0.879476 0.708024,1.5875 1.5875,1.5875 h 3.175 c 0.879474,0 1.5875,-0.708024 1.5875,-1.5875 V 31.75 c 0,-0.879474 -0.708026,-1.5875 -1.5875,-1.5875 z M 11.1125,38.629168 c -0.879475,0 -1.5874999,0.708024 -1.5874999,1.5875 v 3.175 c 0,0.879474 0.7080249,1.5875 1.5874999,1.5875 h 3.175 c 0.879475,0 1.5875,-0.708026 1.5875,-1.5875 v -3.175 c 0,-0.879476 -0.708025,-1.5875 -1.5875,-1.5875 z m 8.466667,0 c -0.879475,0 -1.5875,0.708024 -1.5875,1.5875 v 3.175 c 0,0.879474 0.708025,1.5875 1.5875,1.5875 h 3.175001 c 0.879476,0 1.5875,-0.708026 1.5875,-1.5875 v -3.175 c 0,-0.879476 -0.708024,-1.5875 -1.5875,-1.5875 z m 8.466669,0 c -0.879476,0 -1.5875,0.708024 -1.5875,1.5875 v 3.175 c 0,0.879474 0.708024,1.5875 1.5875,1.5875 h 3.175 c 0.879474,0 1.5875,-0.708026 1.5875,-1.5875 v -3.175 c 0,-0.879476 -0.708026,-1.5875 -1.5875,-1.5875 z m 8.466666,0 c -0.879476,0 -1.5875,0.708024 -1.5875,1.5875 v 3.175 c 0,0.879474 0.708024,1.5875 1.5875,1.5875 h 3.175 c 0.879476,0 1.5875,-0.708026 1.5875,-1.5875 v -3.175 c 0,-0.879476 -0.708024,-1.5875 -1.5875,-1.5875 z m 8.466666,0 c -0.879474,0 -1.5875,0.708024 -1.5875,1.5875 v 3.175 c 0,0.879474 0.708026,1.5875 1.5875,1.5875 h 3.175 c 0.879476,0 1.5875,-0.708026 1.5875,-1.5875 v -3.175 c 0,-0.879476 -0.708024,-1.5875 -1.5875,-1.5875 z m 8.466668,0 c -0.879476,0 -1.5875,0.708024 -1.5875,1.5875 v 3.175 c 0,0.879474 0.708024,1.5875 1.5875,1.5875 h 3.175 c 0.879474,0 1.5875,-0.708026 1.5875,-1.5875 v -3.175 c 0,-0.879476 -0.708026,-1.5875 -1.5875,-1.5875 z M 20.6375,47.095834 c -0.879475,0 -1.5875,0.708026 -1.5875,1.5875 v 3.175 c 0,0.879476 0.708025,1.5875 1.5875,1.5875 h 26.458336 c 0.879474,0 1.5875,-0.708024 1.5875,-1.5875 v -3.175 c 0,-0.879474 -0.708026,-1.5875 -1.5875,-1.5875 z"
     style="fill:#f6f6f6;fill-opacity:1;stroke-width:0.529166"
     id="path1869"
     sodipodi:nodetypes="sssssssssssssssssssssssssssssssssssssssssssssssssssssssssssssssssssssssssssssssssssssssssssssssssssssssssssssssssssssssssssssssssssssssssssssssssssssssssssssssssssssssssss" />
  <path
     id="path407"
     style="opacity:0.5;fill:#000000;stroke-width:0.529166"
     d="m 8.4666667,14.816667 c -2.3452632,0 -4.2333333,1.888069 -4.2333333,4.233333 v 38.100001 c 0,2.345262 1.8880701,4.233333 4.2333333,4.233333 H 59.266667 c 2.345264,0 4.233334,-1.888071 4.233334,-4.233333 V 19.05 c 0,-2.345264 -1.88807,-4.233333 -4.233334,-4.233333 z m 0,0.264583 H 59.266667 c 2.198686,0 3.96875,1.770065 3.96875,3.96875 v 37.041667 c 0,2.198686 -1.770064,3.96875 -3.96875,3.96875 H 8.4666667 c -2.1986853,0 -3.96875,-1.770064 -3.96875,-3.96875 V 19.05 c 0,-2.198685 1.7700647,-3.96875 3.96875,-3.96875 z" />
</svg>
