<?xml version="1.0" encoding="UTF-8" standalone="no"?>
<!-- Created with Inkscape (http://www.inkscape.org/) -->

<svg
   width="256"
   height="256"
   viewBox="0 0 67.733332 67.733332"
   version="1.1"
   id="svg5"
   inkscape:version="1.2 (dc2aedaf03, 2022-05-15)"
   sodipodi:docname="network-server.svg"
   xmlns:inkscape="http://www.inkscape.org/namespaces/inkscape"
   xmlns:sodipodi="http://sodipodi.sourceforge.net/DTD/sodipodi-0.dtd"
   xmlns="http://www.w3.org/2000/svg"
   xmlns:svg="http://www.w3.org/2000/svg">
  <sodipodi:namedview
     id="namedview7"
     pagecolor="#ffffff"
     bordercolor="#666666"
     borderopacity="1.0"
     inkscape:pageshadow="2"
     inkscape:pageopacity="0.0"
     inkscape:pagecheckerboard="0"
     inkscape:document-units="px"
     showgrid="false"
     units="px"
     height="48px"
     inkscape:zoom="3.1796875"
     inkscape:cx="54.722359"
     inkscape:cy="114.47666"
     inkscape:window-width="1846"
     inkscape:window-height="1011"
     inkscape:window-x="0"
     inkscape:window-y="0"
     inkscape:window-maximized="1"
     inkscape:current-layer="svg5"
     inkscape:showpageshadow="2"
     inkscape:deskcolor="#d1d1d1"
     showguides="false" />
  <defs
     id="defs2" />
  <path
     id="rect45264"
     style="opacity:1;fill:#444444;fill-opacity:1;stroke-width:0.529167;stroke-linejoin:round"
     d="m 10.583333,11.1125 c -2.345264,0 -4.2333331,1.888069 -4.2333331,4.233333 V 23.8125 c 0,1.979558 1.34516,3.6334 3.175,4.101042 -1.82984,0.467641 -3.175,2.121483 -3.175,4.101041 v 8.466667 c 0,1.979558 1.34516,3.6334 3.175,4.101041 -1.82984,0.467642 -3.175,2.121483 -3.175,4.101042 v 8.466666 c 0,2.345265 1.8880691,4.233334 4.2333331,4.233334 h 46.566666 c 2.345264,0 4.233333,-1.888069 4.233333,-4.233334 v -8.466666 c 0,-1.979559 -1.34516,-3.6334 -3.175,-4.101042 1.82984,-0.467641 3.175,-2.121483 3.175,-4.101041 v -8.466667 c 0,-1.979558 -1.34516,-3.6334 -3.175,-4.101041 1.82984,-0.467642 3.175,-2.121484 3.175,-4.101042 v -8.466667 c 0,-2.345264 -1.888069,-4.233333 -4.233333,-4.233333 z" />
  <path
     d="m 19.398344,13.381566 c -0.541061,0 -1.08196,0.207598 -1.496549,0.622186 l -5.987234,5.986714 c -0.829175,0.829175 -0.829173,2.16444 2e-6,2.993615 0.829177,0.829177 2.16444,0.829177 2.993615,2e-6 l 5.986716,-5.987232 c 0.829175,-0.829175 0.829175,-2.163922 -2e-6,-2.993099 -0.414588,-0.414588 -0.95549,-0.622184 -1.496548,-0.622186 z m 9.260933,2e-6 c -0.54106,-2e-6 -1.081963,0.207596 -1.496549,0.622182 l -5.987233,5.986716 c -0.829175,0.829175 -0.829177,2.16444 0,2.993617 0.829177,0.829177 2.164442,0.829175 2.993617,0 l 5.986717,-5.987232 c 0.829175,-0.829175 0.829175,-2.163922 -2e-6,-2.993099 -0.414589,-0.414588 -0.95549,-0.622184 -1.49655,-0.622184 z m 9.258866,0.0021 c -0.54106,-2e-6 -1.081963,0.207079 -1.496549,0.621666 l -5.986717,5.987232 c -0.829175,0.829175 -0.829175,2.163922 3e-6,2.993098 0.829175,0.829175 2.163921,0.829175 2.993096,0 l 5.986717,-5.986715 c 0.829175,-0.829176 0.829175,-2.164438 0,-2.993613 -0.414589,-0.414589 -0.95549,-0.621668 -1.49655,-0.621668 z M 19.398344,30.050317 c -0.541061,0 -1.081962,0.207595 -1.49655,0.622184 l -5.987231,5.986713 c -0.829177,0.829178 -0.829177,2.16444 0,2.993618 0.829175,0.829175 2.16444,0.829178 2.993617,0 L 20.894892,33.6656 c 0.829177,-0.829178 0.829177,-2.163924 2e-6,-2.993099 -0.414588,-0.414589 -0.95549,-0.622184 -1.49655,-0.622184 z m 9.260933,0 c -0.54106,0 -1.081961,0.207595 -1.496549,0.622184 l -5.987233,5.986716 c -0.829175,0.829175 -0.829175,2.164437 2e-6,2.993615 0.829175,0.829175 2.164438,0.829175 2.993613,0 L 30.155827,33.6656 c 0.829175,-0.829175 0.829175,-2.163922 0,-2.993097 -0.414589,-0.414589 -0.955488,-0.622186 -1.49655,-0.622186 z m 9.258866,0.0021 c -0.54106,0 -1.08196,0.207079 -1.496549,0.621667 l -5.986717,5.987233 c -0.829175,0.829175 -0.829175,2.163921 3e-6,2.993099 0.829175,0.829175 2.163921,0.829175 2.993096,0 l 5.986717,-5.986717 c 0.829175,-0.829175 0.829177,-2.16444 0,-2.993615 -0.414587,-0.414588 -0.955487,-0.621667 -1.49655,-0.621667 z m -18.519799,16.6667 c -0.541061,0 -1.081962,0.207598 -1.49655,0.622186 l -5.987231,5.986664 c -0.829177,0.829175 -0.829177,2.16444 0,2.993615 0.829175,0.829175 2.164439,0.829175 2.993615,0 l 5.986714,-5.987233 c 0.829177,-0.829175 0.829177,-2.163921 2e-6,-2.993096 -0.414588,-0.414589 -0.95549,-0.622186 -1.49655,-0.622186 z m 9.260933,0 c -0.54106,0 -1.081961,0.207598 -1.496549,0.622186 l -5.987231,5.986664 c -0.829177,0.829175 -0.829177,2.16444 -2e-6,2.993615 0.829177,0.829175 2.16444,0.829175 2.993617,0 l 5.986715,-5.987233 c 0.829177,-0.829175 0.829177,-2.163921 0,-2.993099 -0.414587,-0.414586 -0.95549,-0.622183 -1.49655,-0.622183 z m 9.258866,0.0021 c -0.54106,2e-6 -1.08196,0.207081 -1.496549,0.62167 l -5.986714,5.98723 c -0.829178,0.829178 -0.829178,2.163924 -3e-6,2.993099 0.829178,0.829177 2.163924,0.829177 2.993102,0 l 5.986714,-5.986714 c 0.829177,-0.829178 0.829177,-2.16444 0,-2.993618 -0.414589,-0.414588 -0.95549,-0.621667 -1.49655,-0.621667 z"
     style="fill:#000000;stroke-width:0.264583"
     id="path47160" />
  <path
     d="m 10.583333,11.1125 c -2.3452639,0 -4.2333332,1.888069 -4.2333332,4.233333 V 23.8125 c 0,1.986462 1.3565823,3.640084 3.1961878,4.101041 -1.8396055,0.460957 -3.1961878,2.114579 -3.1961878,4.101042 v 8.466666 c 0,1.986463 1.3565823,3.640085 3.1961878,4.101042 -1.8396055,0.460957 -3.1961878,2.114579 -3.1961878,4.101042 v 8.466666 c 0,2.345264 1.8880693,4.233334 4.2333332,4.233334 h 46.566666 c 2.345264,0 4.233333,-1.88807 4.233333,-4.233334 v -8.466666 c 0,-1.986463 -1.356582,-3.640085 -3.196187,-4.101042 1.839605,-0.460957 3.196187,-2.114579 3.196187,-4.101042 v -8.466666 c 0,-1.986463 -1.356582,-3.640085 -3.196187,-4.101042 1.839605,-0.460957 3.196187,-2.114579 3.196187,-4.101041 v -8.466667 c 0,-2.345264 -1.888069,-4.233333 -4.233333,-4.233333 z m 0,0.264583 h 46.566666 c 2.198685,0 3.96875,1.770065 3.96875,3.96875 v 7.408333 c 0,2.198685 -1.770065,3.96875 -3.96875,3.96875 H 10.583333 c -2.1986847,0 -3.9687498,-1.770065 -3.9687498,-3.96875 v -7.408333 c 0,-2.198685 1.7700651,-3.96875 3.9687498,-3.96875 z m 0,16.66875 h 46.566666 c 2.198685,0 3.96875,1.770065 3.96875,3.96875 v 7.408333 c 0,2.198685 -1.770065,3.96875 -3.96875,3.96875 H 10.583333 c -2.1986847,0 -3.9687498,-1.770065 -3.9687498,-3.96875 v -7.408333 c 0,-2.198685 1.7700651,-3.96875 3.9687498,-3.96875 z m 0,16.66875 h 46.566666 c 2.198685,0 3.96875,1.770065 3.96875,3.96875 v 7.408333 c 0,2.198685 -1.770065,3.96875 -3.96875,3.96875 H 10.583333 c -2.1986847,0 -3.9687498,-1.770065 -3.9687498,-3.96875 v -7.408333 c 0,-2.198685 1.7700651,-3.96875 3.9687498,-3.96875 z"
     id="path46042"
     style="opacity:0.5;fill:#f8f8f8;fill-opacity:1;stroke-width:0.264583" />
  <path
     id="path10117"
     style="fill:#73c48f;fill-opacity:1;stroke-width:0.327952"
     d="m 46.566663,17.4625 c -1.169002,1e-6 -2.116664,0.947665 -2.116664,2.116667 0,1.169002 0.947662,2.116666 2.116664,2.116668 1.169004,0 2.116668,-0.947664 2.116668,-2.116668 0,-1.169003 -0.947664,-2.116668 -2.116668,-2.116667 z m 0,16.668747 c -1.169002,2e-6 -2.116664,0.947666 -2.116664,2.116668 0,1.169002 0.947662,2.116666 2.116664,2.116666 1.169002,2e-6 2.116668,-0.947662 2.116668,-2.116666 0,-1.169002 -0.947664,-2.116668 -2.116668,-2.116668 z m 0,16.668752 c -1.169,2e-6 -2.116662,0.947664 -2.116664,2.116664 0,1.169002 0.947662,2.116666 2.116664,2.116668 1.169004,0 2.116668,-0.947664 2.116668,-2.116668 -2e-6,-1.169002 -0.947666,-2.116666 -2.116668,-2.116664 z"
     sodipodi:nodetypes="sssssssssssssss" />
  <path
     id="path11625"
     style="fill:#ff793e;fill-opacity:1;stroke-width:0.529164"
     d="m 51.858333,17.4625 c -1.169004,-2e-6 -2.11667,0.947663 -2.11667,2.116667 0,1.169004 0.947666,2.11667 2.11667,2.116668 1.169004,0 2.116668,-0.947664 2.116668,-2.116668 0,-1.169003 -0.947664,-2.116668 -2.116668,-2.116667 z m 0,16.668747 c -1.169004,0 -2.11667,0.947664 -2.11667,2.116668 0,1.169004 0.947666,2.116668 2.11667,2.116666 1.169004,2e-6 2.116668,-0.947662 2.116668,-2.116666 0,-1.169002 -0.947664,-2.116668 -2.116668,-2.116668 z m 0,16.668752 c -1.169004,-2e-6 -2.116668,0.94766 -2.11667,2.116664 0,1.169004 0.947666,2.11667 2.11667,2.116668 1.169004,0 2.116668,-0.947664 2.116668,-2.116668 -2e-6,-1.169002 -0.947666,-2.116664 -2.116668,-2.116664 z"
     sodipodi:nodetypes="sssssssssssssss" />
  <path
     id="path13551"
     style="fill:#faa41a;fill-opacity:1;stroke-width:0.529164"
     d="m 57.150001,17.4625 c -1.169004,-10e-7 -2.116668,0.947664 -2.116668,2.116667 0,1.169004 0.947664,2.116668 2.116668,2.116668 1.169002,-2e-6 2.116664,-0.947666 2.116664,-2.116668 0,-1.169002 -0.947662,-2.116666 -2.116664,-2.116667 z m 0,16.668747 c -1.169004,0 -2.116668,0.947666 -2.116668,2.116668 0,1.169004 0.947664,2.116668 2.116668,2.116666 1.169002,0 2.116664,-0.947664 2.116664,-2.116666 0,-1.169002 -0.947662,-2.116666 -2.116664,-2.116668 z m 0,16.668752 c -1.169002,0 -2.116666,0.947662 -2.116668,2.116664 0,1.169004 0.947664,2.116668 2.116668,2.116668 1.169002,-2e-6 2.116664,-0.947666 2.116664,-2.116668 -2e-6,-1.169 -0.947664,-2.116662 -2.116664,-2.116664 z"
     sodipodi:nodetypes="sssssssssssssss" />
</svg>
