<?xml version="1.0" encoding="UTF-8" standalone="no"?>
<svg
   viewBox="0 0 24 24"
   version="1.1"
   id="svg8"
   sodipodi:docname="calendar-go-today.svg"
   width="24"
   height="24"
   inkscape:version="1.2 (dc2aedaf03, 2022-05-15)"
   xmlns:inkscape="http://www.inkscape.org/namespaces/inkscape"
   xmlns:sodipodi="http://sodipodi.sourceforge.net/DTD/sodipodi-0.dtd"
   xmlns="http://www.w3.org/2000/svg"
   xmlns:svg="http://www.w3.org/2000/svg">
  <defs
     id="defs12" />
  <sodipodi:namedview
     id="namedview10"
     pagecolor="#ffffff"
     bordercolor="#000000"
     borderopacity="0.25"
     inkscape:showpageshadow="2"
     inkscape:pageopacity="0.0"
     inkscape:pagecheckerboard="0"
     inkscape:deskcolor="#d1d1d1"
     showgrid="false"
     inkscape:zoom="23.71875"
     inkscape:cx="8.1791831"
     inkscape:cy="9.1067194"
     inkscape:window-width="1920"
     inkscape:window-height="1009"
     inkscape:window-x="0"
     inkscape:window-y="0"
     inkscape:window-maximized="1"
     inkscape:current-layer="svg8" />
  <path
     color="#bebebe"
     d="M 0,0 H 24 V 24 H 0 Z"
     fill="#808080"
     fill-opacity="0.01"
     id="path2"
     style="stroke-width:1.5" />
  <path
     d="M 6,5 C 6,5 5,5 5,6 v 4.994 L 7,11 V 10 H 7.799 L 9.504,8.293 10.211,7.586 12.625,10 H 17 v 7 H 11.66 L 10.215,18.46 8.756,17 H 7 V 15.01 L 5,15.004 V 18 c 0,0 0,1 1,1 h 12 c 1,0 1,-1 1,-1 V 6 c 0,0 0,-1 -1,-1 z"
     fill="#232323"
     id="path4" />
  <path
     d="M 10.212,9 8.827,10.386 10.462,12.02 4,12 v 2 l 6.462,0.02 -1.635,1.635 1.385,1.385 4,-4.04 z"
     fill="#232323"
     id="path6" />
</svg>
