<?xml version="1.0" encoding="UTF-8" standalone="no"?>
<svg
   viewBox="0 0 24 24"
   version="1.1"
   id="svg8"
   sodipodi:docname="document-open-recent.svg"
   width="24"
   height="24"
   inkscape:version="1.2 (dc2aedaf03, 2022-05-15)"
   xmlns:inkscape="http://www.inkscape.org/namespaces/inkscape"
   xmlns:sodipodi="http://sodipodi.sourceforge.net/DTD/sodipodi-0.dtd"
   xmlns="http://www.w3.org/2000/svg"
   xmlns:svg="http://www.w3.org/2000/svg">
  <defs
     id="defs12" />
  <sodipodi:namedview
     id="namedview10"
     pagecolor="#ffffff"
     bordercolor="#000000"
     borderopacity="0.25"
     inkscape:showpageshadow="2"
     inkscape:pageopacity="0.0"
     inkscape:pagecheckerboard="0"
     inkscape:deskcolor="#d1d1d1"
     showgrid="false"
     inkscape:zoom="38.183766"
     inkscape:cx="6.4294339"
     inkscape:cy="9.9125896"
     inkscape:window-width="1920"
     inkscape:window-height="1017"
     inkscape:window-x="0"
     inkscape:window-y="0"
     inkscape:window-maximized="1"
     inkscape:current-layer="svg8" />
  <path
     color="#bebebe"
     d="M 0,0 H 24 V 24 H 0 Z"
     fill="#808080"
     fill-opacity="0.01"
     id="path2"
     style="stroke-width:1.5" />
  <path
     color="#000000"
     d="M 9,4 V 5 H 8 C 6.355,5 5,6.355 5,8 v 8 c 0,1.645 1.355,3 3,3 h 1 v 1 h 6 v -1 h 1 c 1.645,0 3,-1.355 3,-3 V 8 C 19,6.355 17.645,5 16,5 H 15 V 4 Z M 8,7 h 8 c 0.571,0 1,0.429 1,1 v 8 c 0,0.571 -0.429,1 -1,1 H 8 C 7.429,17 7,16.571 7,16 V 8 C 7,7.429 7.429,7 8,7 Z"
     fill="#232323"
     style="-inkscape-stroke:none"
     id="path4" />
  <path
     color="#000000"
     d="M 14.5,15.176 10,12.576 V 8 h 2 v 3.422 l 3.5,2.022 z"
     fill="#232323"
     style="-inkscape-stroke:none"
     id="path6" />
</svg>
