<?xml version="1.0" encoding="UTF-8" standalone="no"?>
<svg
   viewBox="0 0 24 24"
   version="1.1"
   id="svg6"
   sodipodi:docname="edit-cut.svg"
   width="24"
   height="24"
   inkscape:version="1.2 (dc2aedaf03, 2022-05-15)"
   xmlns:inkscape="http://www.inkscape.org/namespaces/inkscape"
   xmlns:sodipodi="http://sodipodi.sourceforge.net/DTD/sodipodi-0.dtd"
   xmlns="http://www.w3.org/2000/svg"
   xmlns:svg="http://www.w3.org/2000/svg">
  <defs
     id="defs10" />
  <sodipodi:namedview
     id="namedview8"
     pagecolor="#ffffff"
     bordercolor="#000000"
     borderopacity="0.25"
     inkscape:showpageshadow="2"
     inkscape:pageopacity="0.0"
     inkscape:pagecheckerboard="0"
     inkscape:deskcolor="#d1d1d1"
     showgrid="false"
     inkscape:zoom="17.147339"
     inkscape:cx="0.29159043"
     inkscape:cy="13.646432"
     inkscape:window-width="1846"
     inkscape:window-height="1011"
     inkscape:window-x="0"
     inkscape:window-y="0"
     inkscape:window-maximized="1"
     inkscape:current-layer="svg6" />
  <path
     color="#bebebe"
     d="m 0,-0.003 h 24 v 24 H 0 Z"
     fill="#808080"
     fill-opacity="0.01"
     id="path2"
     style="stroke-width:1.5" />
  <path
     d="m 8.5,6 a 2.5,2.5 0 0 0 0,5 c 0.446,0 0.856,-0.139 1.219,-0.344 l 1.969,1.844 -1.97,1.844 A 2.473,2.473 0 0 0 8.5,14 2.5,2.5 0 1 0 11,16.5 c 0,-0.23 -0.036,-0.445 -0.094,-0.656 l 2.125,-2.063 4.469,4.22 H 19 v -1 L 10.906,9.155 A 2.46,2.46 0 0 0 11,8.5 2.5,2.5 0 0 0 8.5,6 Z m 0,1.5 a 1,1 0 1 1 0,2 1,1 0 0 1 0,-2 z M 17.5,7 13.562,10.719 14.875,12 19,8 V 7 Z m -9,8.5 a 1,1 0 1 1 0,2 1,1 0 0 1 0,-2 z"
     fill="#232323"
     id="path4" />
</svg>
