<?xml version="1.0" encoding="UTF-8" standalone="no"?>
<svg
   viewBox="0 0 24 24"
   version="1.1"
   id="svg6"
   sodipodi:docname="edit-move.svg"
   width="24"
   height="24"
   inkscape:version="1.2 (dc2aedaf03, 2022-05-15)"
   xmlns:inkscape="http://www.inkscape.org/namespaces/inkscape"
   xmlns:sodipodi="http://sodipodi.sourceforge.net/DTD/sodipodi-0.dtd"
   xmlns="http://www.w3.org/2000/svg"
   xmlns:svg="http://www.w3.org/2000/svg">
  <defs
     id="defs10" />
  <sodipodi:namedview
     id="namedview8"
     pagecolor="#ffffff"
     bordercolor="#000000"
     borderopacity="0.25"
     inkscape:showpageshadow="2"
     inkscape:pageopacity="0.0"
     inkscape:pagecheckerboard="0"
     inkscape:deskcolor="#d1d1d1"
     showgrid="false"
     inkscape:zoom="12.763232"
     inkscape:cx="2.2329768"
     inkscape:cy="16.884438"
     inkscape:window-width="1920"
     inkscape:window-height="1010"
     inkscape:window-x="0"
     inkscape:window-y="0"
     inkscape:window-maximized="1"
     inkscape:current-layer="svg6" />
  <path
     color="#bebebe"
     d="M 24,0 H 0 v 24 h 24 z"
     fill="#808080"
     fill-opacity="0.01"
     id="path2"
     style="stroke-width:1.5" />
  <path
     color="#000000"
     d="M 10,8 C 10,8 9,8 9,9 v 10 c 0,1 1,1 1,1 h 8 c 0,0 1,0 1,-1.003 V 9 C 19,8 18,8 18,8 Z m 1,2 h 6 v 8 h -6 z"
     fill="#232323"
     id="path4"
     sodipodi:nodetypes="cssccssccccccc" />
  <path
     d="M 7,5 C 7,5 6,5 6,6 v 9 c 0,0 0,1 1,1 H 8 V 7 h 8 V 6 C 16,5 15,5 15,5 Z"
     style="color:#000000;opacity:0.35;fill:#232323"
     id="path298" />
</svg>
