<?xml version="1.0" encoding="UTF-8" standalone="no"?>
<svg
   viewBox="0 0 24 24"
   version="1.1"
   id="svg8"
   sodipodi:docname="edit-find-replace.svg"
   width="24"
   height="24"
   inkscape:version="1.2 (dc2aedaf03, 2022-05-15)"
   xmlns:inkscape="http://www.inkscape.org/namespaces/inkscape"
   xmlns:sodipodi="http://sodipodi.sourceforge.net/DTD/sodipodi-0.dtd"
   xmlns="http://www.w3.org/2000/svg"
   xmlns:svg="http://www.w3.org/2000/svg">
  <defs
     id="defs12" />
  <sodipodi:namedview
     id="namedview10"
     pagecolor="#ffffff"
     bordercolor="#000000"
     borderopacity="0.25"
     inkscape:showpageshadow="2"
     inkscape:pageopacity="0.0"
     inkscape:pagecheckerboard="0"
     inkscape:deskcolor="#d1d1d1"
     showgrid="false"
     inkscape:zoom="8.3858445"
     inkscape:cx="-22.060986"
     inkscape:cy="12.878846"
     inkscape:window-width="1920"
     inkscape:window-height="1009"
     inkscape:window-x="0"
     inkscape:window-y="0"
     inkscape:window-maximized="1"
     inkscape:current-layer="svg8" />
  <path
     color="#bebebe"
     d="M 24,0 H 0 v 24 h 24 z"
     fill="#808080"
     fill-opacity="0.01"
     id="path2"
     style="stroke-width:1.5" />
  <path
     color="#000000"
     d="m 10.5,5.003 c -3.029,0 -5.5,2.475 -5.5,5.5 0,1.062 0.286,2.063 0.813,2.906 L 7.281,11.94 A 3.54,3.54 0 0 1 7,10.503 c 0,-1.945 1.553,-3.5 3.5,-3.5 a 3.4,3.4 0 0 1 1.406,0.312 l 0.75,-0.75 0.094,-0.093 0.625,-0.657 A 5.454,5.454 0 0 0 10.5,5.003 Z m 4.625,8.688 -1.438,1.406 3.725,3.724 0.004,-0.004 a 1.0002626,1.0002626 0 1 0 1.399,-1.43 z"
     fill="#232323"
     style="text-indent:0;text-decoration-line:none;text-transform:none"
     id="path4" />
  <path
     d="m 6,15.33 v 2.673 h 2.673 l 6.75,-6.751 -2.672,-2.673 z M 17.788,8.896 a 0.708,0.708 0 0 0 0,-1.01 l -1.67,-1.671 a 0.708,0.708 0 0 0 -1.011,0 l -1.397,1.405 2.673,2.672 z"
     fill="#232323"
     id="path6" />
</svg>
