<?xml version="1.0" encoding="UTF-8" standalone="no"?>
<svg
   viewBox="0 0 24 24"
   version="1.1"
   id="svg6"
   sodipodi:docname="mail-message-new.svg"
   width="24"
   height="24"
   inkscape:version="1.2 (dc2aedaf03, 2022-05-15)"
   xmlns:inkscape="http://www.inkscape.org/namespaces/inkscape"
   xmlns:sodipodi="http://sodipodi.sourceforge.net/DTD/sodipodi-0.dtd"
   xmlns="http://www.w3.org/2000/svg"
   xmlns:svg="http://www.w3.org/2000/svg">
  <defs
     id="defs10" />
  <sodipodi:namedview
     id="namedview8"
     pagecolor="#ffffff"
     bordercolor="#000000"
     borderopacity="0.25"
     inkscape:showpageshadow="2"
     inkscape:pageopacity="0.0"
     inkscape:pagecheckerboard="0"
     inkscape:deskcolor="#d1d1d1"
     showgrid="false"
     inkscape:zoom="8.3858445"
     inkscape:cx="-2.7427172"
     inkscape:cy="10.85162"
     inkscape:window-width="1920"
     inkscape:window-height="1009"
     inkscape:window-x="0"
     inkscape:window-y="0"
     inkscape:window-maximized="1"
     inkscape:current-layer="svg6" />
  <path
     color="#000000"
     d="M 0,0 H 24 V 24 H 0 Z"
     fill="#808080"
     fill-opacity="0.01"
     id="path2"
     style="stroke-width:1.5" />
  <path
     d="M 6,6 C 4.892,6 4,6.892 4,8 v 8 c 0,1.108 0.892,2 2,2 h 12 c 1.108,0 2,-0.892 2,-2 V 8 C 20,6.892 19.108,6 18,6 Z m 0,2 6,3 6,-3 v 2 L 12,13 6,10 Z M 8,11.996 9.25,12.635 6,15.996 v -2 z m 8,0 2,2 v 2 l -3.25,-3.361 z"
     fill="#232323"
     id="path4" />
</svg>
