<?xml version="1.0" encoding="UTF-8" standalone="no"?>
<svg
   viewBox="0 0 24 24"
   version="1.1"
   id="svg6"
   sodipodi:docname="media-playback-start-rtl.svg"
   width="24"
   height="24"
   inkscape:version="1.2 (dc2aedaf03, 2022-05-15)"
   xmlns:inkscape="http://www.inkscape.org/namespaces/inkscape"
   xmlns:sodipodi="http://sodipodi.sourceforge.net/DTD/sodipodi-0.dtd"
   xmlns="http://www.w3.org/2000/svg"
   xmlns:svg="http://www.w3.org/2000/svg">
  <defs
     id="defs10" />
  <sodipodi:namedview
     id="namedview8"
     pagecolor="#ffffff"
     bordercolor="#000000"
     borderopacity="0.25"
     inkscape:showpageshadow="2"
     inkscape:pageopacity="0.0"
     inkscape:pagecheckerboard="0"
     inkscape:deskcolor="#d1d1d1"
     showgrid="false"
     inkscape:zoom="9.8000581"
     inkscape:cx="-13.673388"
     inkscape:cy="14.43869"
     inkscape:window-width="1920"
     inkscape:window-height="1010"
     inkscape:window-x="0"
     inkscape:window-y="0"
     inkscape:window-maximized="1"
     inkscape:current-layer="svg6" />
  <path
     color="#bebebe"
     d="M 24,0 H 0 v 24 h 24 z"
     fill="#808080"
     fill-opacity="0.01"
     id="path2"
     style="stroke-width:1.5" />
  <path
     d="m 16.001,6.64 a 1,1 0 0 1 0.996,0.941 H 17 v 0.026 l 0.002,0.033 c 0,0.023 0,0.047 -0.002,0.07 l 0.002,8.576 a 1,1 0 0 1 -1,1 1,1 0 0 1 -0.422,-0.095 l -0.002,0.002 -0.025,-0.014 -0.004,-0.002 A 1,1 0 0 1 15.461,17.128 L 7.614,12.857 7.604,12.853 V 12.85 A 1,1 0 0 1 7.571,11.098 l 0.018,-0.01 0.004,-0.002 7.924,-4.322 h 0.002 A 1.01,1.01 0 0 1 16,6.64 Z"
     fill="#232323"
     id="path4" />
</svg>
