<?xml version="1.0" encoding="UTF-8" standalone="no"?>
<svg
   viewBox="0 0 24 24"
   version="1.1"
   id="svg8"
   sodipodi:docname="system-run.svg"
   width="24"
   height="24"
   inkscape:version="1.2 (dc2aedaf03, 2022-05-15)"
   xmlns:inkscape="http://www.inkscape.org/namespaces/inkscape"
   xmlns:sodipodi="http://sodipodi.sourceforge.net/DTD/sodipodi-0.dtd"
   xmlns="http://www.w3.org/2000/svg"
   xmlns:svg="http://www.w3.org/2000/svg">
  <defs
     id="defs12" />
  <sodipodi:namedview
     id="namedview10"
     pagecolor="#ffffff"
     bordercolor="#000000"
     borderopacity="0.25"
     inkscape:showpageshadow="2"
     inkscape:pageopacity="0.0"
     inkscape:pagecheckerboard="0"
     inkscape:deskcolor="#d1d1d1"
     showgrid="false"
     inkscape:zoom="19.600116"
     inkscape:cx="1.3265228"
     inkscape:cy="9.2091291"
     inkscape:window-width="1920"
     inkscape:window-height="1010"
     inkscape:window-x="0"
     inkscape:window-y="0"
     inkscape:window-maximized="1"
     inkscape:current-layer="svg8" />
  <path
     color="#bebebe"
     d="M 24,-0.003 H 0 v 24 h 24 z"
     fill="#808080"
     fill-opacity="0.01"
     id="path2"
     style="stroke-width:1.5" />
  <path
     d="m 11.76,9.99 -0.11,1.317 a 3.929,3.929 0 0 0 -1.148,0.664 l -1.197,-0.564 -1.25,2.166 1.086,0.754 a 3.929,3.929 0 0 0 -0.06,0.663 3.929,3.929 0 0 0 0.058,0.666 l -1.084,0.751 1.25,2.166 1.194,-0.563 a 3.929,3.929 0 0 0 1.15,0.66 l 0.11,1.32 h 2.5 l 0.111,-1.317 a 3.929,3.929 0 0 0 1.148,-0.664 l 1.197,0.564 1.25,-2.166 -1.086,-0.754 a 3.929,3.929 0 0 0 0.06,-0.663 3.929,3.929 0 0 0 -0.058,-0.665 l 1.084,-0.752 -1.25,-2.166 -1.194,0.563 a 3.929,3.929 0 0 0 -1.15,-0.66 L 14.26,9.99 Z m 1.25,3.571 a 1.429,1.429 0 0 1 1.429,1.429 1.429,1.429 0 0 1 -1.429,1.429 1.429,1.429 0 0 1 -1.429,-1.429 1.429,1.429 0 0 1 1.429,-1.429 z"
     fill="#232323"
     id="path4" />
  <path
     d="M 11.19,10.26 10.852,9.543 a 2.357,2.357 0 0 0 0.398,-0.69 l 0.79,-0.066 v -1.5 L 11.25,7.221 A 2.357,2.357 0 0 0 11.082,6.858 2.357,2.357 0 0 0 10.852,6.53 L 11.19,5.814 9.891,5.064 9.439,5.714 A 2.357,2.357 0 0 0 8.643,5.716 L 8.19,5.064 6.891,5.814 7.229,6.531 A 2.357,2.357 0 0 0 6.832,7.221 L 6.04,7.287 v 1.5 l 0.792,0.066 a 2.357,2.357 0 0 0 0.167,0.362 2.357,2.357 0 0 0 0.23,0.329 L 6.891,10.26 8.19,11.01 8.642,10.36 A 2.357,2.357 0 0 0 9.438,10.357 L 9.891,11.01 Z M 9.47,8.78 A 0.857,0.857 0 0 1 8.298,8.465 0.857,0.857 0 0 1 8.612,7.295 0.857,0.857 0 0 1 9.782,7.608 0.857,0.857 0 0 1 9.469,8.779 Z"
     fill="#232323"
     id="path6" />
</svg>
