<?xml version="1.0" encoding="UTF-8" standalone="no"?>
<!-- Created with Inkscape (http://www.inkscape.org/) -->

<svg
   width="48"
   height="48"
   viewBox="0 0 12.7 12.7"
   version="1.1"
   id="svg5"
   inkscape:version="1.2 (dc2aedaf03, 2022-05-15)"
   sodipodi:docname="folder-remote.svg"
   xmlns:inkscape="http://www.inkscape.org/namespaces/inkscape"
   xmlns:sodipodi="http://sodipodi.sourceforge.net/DTD/sodipodi-0.dtd"
   xmlns="http://www.w3.org/2000/svg"
   xmlns:svg="http://www.w3.org/2000/svg">
  <sodipodi:namedview
     id="namedview7"
     pagecolor="#ffffff"
     bordercolor="#666666"
     borderopacity="1.0"
     inkscape:pageshadow="2"
     inkscape:pageopacity="0.0"
     inkscape:pagecheckerboard="0"
     inkscape:document-units="px"
     showgrid="false"
     units="px"
     height="48px"
     inkscape:zoom="8.34375"
     inkscape:cx="19.475655"
     inkscape:cy="19.835206"
     inkscape:window-width="1846"
     inkscape:window-height="1011"
     inkscape:window-x="0"
     inkscape:window-y="0"
     inkscape:window-maximized="1"
     inkscape:current-layer="svg5"
     inkscape:showpageshadow="2"
     inkscape:deskcolor="#d1d1d1" />
  <defs
     id="defs2" />
  <path
     d="m 2.1166666,1.0583333 h 3.175 L 6.35,2.1166666 h 4.233334 c 0.586317,0 1.058333,0.4720167 1.058333,1.0583334 v 7.672917 c 0,0.586316 -0.472016,1.058333 -1.058333,1.058333 H 2.1166666 c -0.5863167,0 -1.0583334,-0.472017 -1.0583334,-1.058333 V 2.1166666 c 0,-0.5863166 0.4720167,-1.0583333 1.0583334,-1.0583333 z"
     style="vector-effect:none;fill:#f297f1;fill-opacity:1;stroke:none;stroke-width:0.264583;stroke-linecap:round;stroke-linejoin:miter;stroke-miterlimit:4;stroke-dasharray:none;stroke-dashoffset:0;stroke-opacity:0.392157"
     id="path2328" />
  <path
     d="m 2.1166666,2.6458333 c -0.5863166,0 -1.0583333,0.4720167 -1.0583333,1.0583333 v 7.1437494 c 0,0.586317 0.4720167,1.058334 1.0583333,1.058334 h 8.4666654 c 0.586317,0 1.058333,-0.472017 1.058333,-1.058334 V 3.7041666 c 0,-0.5863166 -0.472016,-1.0583333 -1.058333,-1.0583333 z m 0,0.2645833 h 8.4666654 c 0.439738,0 0.79375,0.3540125 0.79375,0.79375 V 10.31875 c 0,0.439737 -0.354012,0.79375 -0.79375,0.79375 H 2.1166666 c -0.4397375,0 -0.79375,-0.354013 -0.79375,-0.79375 V 3.7041666 c 0,-0.4397375 0.3540125,-0.79375 0.79375,-0.79375 z"
     style="display:inline;vector-effect:none;fill:#000000;fill-opacity:0.25;stroke:none;stroke-width:0.529167;stroke-linecap:round;stroke-miterlimit:4;stroke-dasharray:none;stroke-opacity:1;enable-background:new"
     id="path2481" />
  <path
     d="m 2.1166666,1.0583333 c -0.5863166,0 -1.0583333,0.4720166 -1.0583333,1.0583333 v 8.7312504 c 0,0.586317 0.4720167,1.058334 1.0583333,1.058334 h 8.4666664 c 0.586317,0 1.058333,-0.472017 1.058333,-1.058334 V 3.175 c 0,-0.5863167 -0.472016,-1.0583334 -1.058333,-1.0583334 H 6.35 L 5.2916666,1.0583333 Z m 0,1.8520833 h 8.4666664 c 0.439738,0 0.79375,0.3540125 0.79375,0.79375 V 10.31875 c 0,0.439738 -0.354012,0.793751 -0.79375,0.793751 H 2.1166666 c -0.4397375,0 -0.79375,-0.354013 -0.79375,-0.793751 V 3.7041666 c 0,-0.4397375 0.3540125,-0.79375 0.79375,-0.79375 z"
     style="vector-effect:none;fill:#000000;fill-opacity:0.25;stroke:none;stroke-width:0.264583;stroke-linecap:round;stroke-linejoin:miter;stroke-miterlimit:4;stroke-dasharray:none;stroke-dashoffset:0;stroke-opacity:0.392157"
     id="path2213" />
  <path
     d="m 6.3498413,5.0272063 c -0.5745361,0 -1.1492508,0.1095851 -1.689739,0.3286205 C 4.3898582,5.4654119 4.1277619,5.6023258 3.8787943,5.7666519 3.6298307,5.9309542 3.3941782,6.1227361 3.175,6.3417754 l 2.5997098,3.1477148 h 0.00119 c 0.1497131,0.1559957 0.3565882,0.2441774 0.5728057,0.2441496 0.2168326,0 0.4240847,-0.089424 0.5735756,-0.2464752 h 0.00159 L 9.5251349,6.3417754 C 9.1961139,6.0129367 8.8290039,5.7457763 8.4376579,5.5403101 c -0.0089,-0.00476 -0.01826,-0.00766 -0.02715,-0.012422 C 8.2710299,5.4558194 8.1281989,5.3929028 7.9834299,5.3364434 7.9289319,5.3152899 7.8734519,5.2973512 7.8183269,5.278321 7.7176229,5.2435548 7.616186,5.2119159 7.5137129,5.1845315 7.4506931,5.167585 7.3873757,5.1521068 7.3238122,5.1380218 7.2191126,5.1147252 7.1133891,5.0962705 7.0075703,5.0806614 6.9496861,5.072208 6.8920598,5.0621273 6.8339414,5.0557773 6.673088,5.0385927 6.5119409,5.0270833 6.3502778,5.0270833 Z"
     style="display:inline;opacity:0.3;fill:#000000;fill-opacity:1;stroke:none;stroke-width:0.140002;stroke-linecap:square;stroke-linejoin:miter;stroke-miterlimit:4;stroke-dasharray:none;stroke-opacity:1;enable-background:new"
     id="path1897" />
  <path
     d="M 6.3502778,4.7625 C 5.7757417,4.7625 5.201027,4.8720851 4.6605388,5.0911204 4.3902947,5.2007055 4.1281984,5.3376195 3.8792308,5.5019456 3.6302671,5.6662478 3.3946147,5.8580297 3.1754365,6.077069 l 2.5997098,3.1477148 h 0.00119 c 0.1497131,0.1559957 0.3565882,0.2441774 0.5728057,0.2441496 0.2168326,0 0.4240847,-0.089424 0.5735756,-0.2464752 h 0.00159 L 9.5255714,6.077069 C 9.1965502,5.7482303 8.8294408,5.4810699 8.4380943,5.2756038 8.4292439,5.2708413 8.419838,5.2679441 8.410948,5.2631816 8.2714663,5.1911131 8.1286349,5.1281965 7.9838668,5.071737 7.929368,5.0505836 7.8738888,5.0326448 7.8187629,5.0136147 7.7180598,4.9788484 7.6166225,4.9472096 7.5141494,4.9198252 7.4511296,4.9028786 7.3878122,4.8874005 7.3242487,4.8733154 7.2195491,4.8500188 7.1138256,4.8315642 7.0080068,4.8159551 6.9501226,4.8075016 6.8924963,4.797421 6.8343779,4.791071 6.6735245,4.7738863 6.5123774,4.7623769 6.3507143,4.7623769 Z"
     style="display:inline;fill:#f8c6f7;fill-opacity:1;stroke:none;stroke-width:0.140002;stroke-linecap:square;stroke-linejoin:miter;stroke-miterlimit:4;stroke-dasharray:none;stroke-opacity:1;enable-background:new"
     id="path1657" />
  <path
     d="m 6.3500794,5.9531806 c -0.8840232,0 -1.7680067,0.3367087 -2.4424878,1.0107613 L 5.7749202,9.225058 h 7.938e-4 c 0.1497171,0.156011 0.3566001,0.244197 0.5728335,0.244157 0.2168445,0 0.4241006,-0.08942 0.5736034,-0.246499 h 0.00159 L 8.7918423,6.9631481 C 8.1174564,6.2896115 7.2337983,5.9531806 6.3501323,5.9531806 Z"
     style="display:inline;fill:#ffffff;fill-opacity:1;stroke:none;stroke-width:0.140008;stroke-linecap:square;stroke-linejoin:miter;stroke-miterlimit:4;stroke-dasharray:none;stroke-opacity:1;enable-background:new"
     id="path1777" />
</svg>
