<?xml version="1.0" encoding="UTF-8" standalone="no"?>
<!-- Created with Inkscape (http://www.inkscape.org/) -->

<svg
   width="48"
   height="48"
   viewBox="0 0 12.7 12.7"
   version="1.1"
   id="svg5"
   inkscape:version="1.2 (dc2aedaf03, 2022-05-15)"
   sodipodi:docname="folder-blue-music.svg"
   xmlns:inkscape="http://www.inkscape.org/namespaces/inkscape"
   xmlns:sodipodi="http://sodipodi.sourceforge.net/DTD/sodipodi-0.dtd"
   xmlns="http://www.w3.org/2000/svg"
   xmlns:svg="http://www.w3.org/2000/svg">
  <sodipodi:namedview
     id="namedview7"
     pagecolor="#ffffff"
     bordercolor="#666666"
     borderopacity="1.0"
     inkscape:pageshadow="2"
     inkscape:pageopacity="0.0"
     inkscape:pagecheckerboard="0"
     inkscape:document-units="px"
     showgrid="false"
     units="px"
     height="48px"
     inkscape:zoom="8.34375"
     inkscape:cx="19.475655"
     inkscape:cy="19.835206"
     inkscape:window-width="1846"
     inkscape:window-height="1011"
     inkscape:window-x="0"
     inkscape:window-y="0"
     inkscape:window-maximized="1"
     inkscape:current-layer="svg5"
     inkscape:showpageshadow="2"
     inkscape:deskcolor="#d1d1d1" />
  <defs
     id="defs2" />
  <path
     d="m 2.1166666,1.0583333 h 3.175 L 6.35,2.1166666 h 4.233334 c 0.586317,0 1.058333,0.4720167 1.058333,1.0583334 v 7.672917 c 0,0.586316 -0.472016,1.058333 -1.058333,1.058333 H 2.1166666 c -0.5863167,0 -1.0583334,-0.472017 -1.0583334,-1.058333 V 2.1166666 c 0,-0.5863166 0.4720167,-1.0583333 1.0583334,-1.0583333 z"
     style="vector-effect:none;fill:#6a7ce0;fill-opacity:1;stroke:none;stroke-width:0.264583;stroke-linecap:round;stroke-linejoin:miter;stroke-miterlimit:4;stroke-dasharray:none;stroke-dashoffset:0;stroke-opacity:0.392157"
     id="path2328" />
  <path
     d="m 2.1166666,2.6458333 c -0.5863166,0 -1.0583333,0.4720167 -1.0583333,1.0583333 v 7.1437494 c 0,0.586317 0.4720167,1.058334 1.0583333,1.058334 h 8.4666654 c 0.586317,0 1.058333,-0.472017 1.058333,-1.058334 V 3.7041666 c 0,-0.5863166 -0.472016,-1.0583333 -1.058333,-1.0583333 z m 0,0.2645833 h 8.4666654 c 0.439738,0 0.79375,0.3540125 0.79375,0.79375 V 10.31875 c 0,0.439737 -0.354012,0.79375 -0.79375,0.79375 H 2.1166666 c -0.4397375,0 -0.79375,-0.354013 -0.79375,-0.79375 V 3.7041666 c 0,-0.4397375 0.3540125,-0.79375 0.79375,-0.79375 z"
     style="display:inline;vector-effect:none;fill:#000000;fill-opacity:0.25;stroke:none;stroke-width:0.529167;stroke-linecap:round;stroke-miterlimit:4;stroke-dasharray:none;stroke-opacity:1;enable-background:new"
     id="path2481" />
  <path
     d="m 2.1166666,1.0583333 c -0.5863166,0 -1.0583333,0.4720166 -1.0583333,1.0583333 v 8.7312504 c 0,0.586317 0.4720167,1.058334 1.0583333,1.058334 h 8.4666664 c 0.586317,0 1.058333,-0.472017 1.058333,-1.058334 V 3.175 c 0,-0.5863167 -0.472016,-1.0583334 -1.058333,-1.0583334 H 6.35 L 5.2916666,1.0583333 Z m 0,1.8520833 h 8.4666664 c 0.439738,0 0.79375,0.3540125 0.79375,0.79375 V 10.31875 c 0,0.439738 -0.354012,0.793751 -0.79375,0.793751 H 2.1166666 c -0.4397375,0 -0.79375,-0.354013 -0.79375,-0.793751 V 3.7041666 c 0,-0.4397375 0.3540125,-0.79375 0.79375,-0.79375 z"
     style="vector-effect:none;fill:#000000;fill-opacity:0.25;stroke:none;stroke-width:0.264583;stroke-linecap:round;stroke-linejoin:miter;stroke-miterlimit:4;stroke-dasharray:none;stroke-dashoffset:0;stroke-opacity:0.392157"
     id="path2213" />
  <path
     d="m 5.55625,4.4979167 c -0.4383762,0 -0.79375,0.3553738 -0.79375,0.79375 V 7.7473308 C 4.636901,7.7022778 4.506726,7.6729168 4.365625,7.6729168 c -0.6575623,0 -1.190625,0.5330627 -1.190625,1.190625 0,0.6575623 0.5330627,1.1906252 1.190625,1.1906252 0.6575621,0 1.190625,-0.5330629 1.190625,-1.1906252 V 6.0854168 H 7.9375 V 7.7473309 C 7.811901,7.7022779 7.681726,7.6729169 7.540625,7.6729169 6.8830627,7.6729169 6.35,8.2059796 6.35,8.8635419 c 0,0.6575623 0.5330627,1.1906251 1.190625,1.1906251 0.6575621,0 1.190625,-0.5330628 1.190625,-1.1906251 v -3.571875 c 0,-0.4383762 -0.3553738,-0.79375 -0.79375,-0.79375 z"
     style="display:inline;opacity:0.3;fill:#000000;fill-opacity:1;stroke:none;stroke-width:0.0700042;enable-background:new"
     id="path2132" />
  <path
     d="m 5.5562497,4.2333332 c -0.4383762,0 -0.79375,0.3553737 -0.79375,0.79375 v 2.4556641 c -0.125599,-0.045053 -0.255774,-0.074414 -0.396875,-0.074414 -0.6575623,0 -1.190625,0.5330627 -1.190625,1.190625 0,0.6575623 0.5330627,1.190625 1.190625,1.190625 0.6575621,0 1.190625,-0.5330627 1.190625,-1.190625 v -2.778125 h 2.3812502 v 1.6619141 c -0.125599,-0.045053 -0.255774,-0.074414 -0.396875,-0.074414 -0.657563,0 -1.1906252,0.5330627 -1.1906252,1.190625 0,0.6575623 0.5330622,1.190625 1.1906252,1.190625 0.657562,0 1.190625,-0.5330627 1.190625,-1.190625 v -3.571875 c 0,-0.4383763 -0.355374,-0.79375 -0.79375,-0.79375 z"
     style="display:inline;fill:#ffffff;fill-opacity:1;stroke:none;stroke-width:0.0700042;enable-background:new"
     id="path2270" />
</svg>
