<?xml version="1.0" encoding="UTF-8" standalone="no"?>
<!-- Created with Inkscape (http://www.inkscape.org/) -->

<svg
   width="48"
   height="48"
   viewBox="0 0 12.7 12.7"
   version="1.1"
   id="svg5"
   inkscape:version="1.2 (dc2aedaf03, 2022-05-15)"
   sodipodi:docname="folder-green-games.svg"
   xmlns:inkscape="http://www.inkscape.org/namespaces/inkscape"
   xmlns:sodipodi="http://sodipodi.sourceforge.net/DTD/sodipodi-0.dtd"
   xmlns="http://www.w3.org/2000/svg"
   xmlns:svg="http://www.w3.org/2000/svg">
  <sodipodi:namedview
     id="namedview7"
     pagecolor="#ffffff"
     bordercolor="#666666"
     borderopacity="1.0"
     inkscape:pageshadow="2"
     inkscape:pageopacity="0.0"
     inkscape:pagecheckerboard="0"
     inkscape:document-units="px"
     showgrid="false"
     units="px"
     height="48px"
     inkscape:zoom="16.6875"
     inkscape:cx="24.059925"
     inkscape:cy="24.11985"
     inkscape:window-width="1846"
     inkscape:window-height="1011"
     inkscape:window-x="0"
     inkscape:window-y="0"
     inkscape:window-maximized="1"
     inkscape:current-layer="svg5"
     inkscape:showpageshadow="2"
     inkscape:deskcolor="#d1d1d1" />
  <defs
     id="defs2" />
  <path
     d="m 2.1166666,1.0583333 h 3.175 L 6.35,2.1166666 h 4.233334 c 0.586317,0 1.058333,0.4720167 1.058333,1.0583334 v 7.672917 c 0,0.586316 -0.472016,1.058333 -1.058333,1.058333 H 2.1166666 c -0.5863167,0 -1.0583334,-0.472017 -1.0583334,-1.058333 V 2.1166666 c 0,-0.5863166 0.4720167,-1.0583333 1.0583334,-1.0583333 z"
     style="vector-effect:none;fill:#73c48f;fill-opacity:1;stroke:none;stroke-width:0.264583;stroke-linecap:round;stroke-linejoin:miter;stroke-miterlimit:4;stroke-dasharray:none;stroke-dashoffset:0;stroke-opacity:0.392157"
     id="path2328" />
  <path
     d="m 2.1166666,2.6458333 c -0.5863166,0 -1.0583333,0.4720167 -1.0583333,1.0583333 v 7.1437494 c 0,0.586317 0.4720167,1.058334 1.0583333,1.058334 h 8.4666654 c 0.586317,0 1.058333,-0.472017 1.058333,-1.058334 V 3.7041666 c 0,-0.5863166 -0.472016,-1.0583333 -1.058333,-1.0583333 z m 0,0.2645833 h 8.4666654 c 0.439738,0 0.79375,0.3540125 0.79375,0.79375 V 10.31875 c 0,0.439737 -0.354012,0.79375 -0.79375,0.79375 H 2.1166666 c -0.4397375,0 -0.79375,-0.354013 -0.79375,-0.79375 V 3.7041666 c 0,-0.4397375 0.3540125,-0.79375 0.79375,-0.79375 z"
     style="display:inline;vector-effect:none;fill:#000000;fill-opacity:0.25;stroke:none;stroke-width:0.529167;stroke-linecap:round;stroke-miterlimit:4;stroke-dasharray:none;stroke-opacity:1;enable-background:new"
     id="path2481" />
  <path
     d="m 2.1166666,1.0583333 c -0.5863166,0 -1.0583333,0.4720166 -1.0583333,1.0583333 v 8.7312504 c 0,0.586317 0.4720167,1.058334 1.0583333,1.058334 h 8.4666664 c 0.586317,0 1.058333,-0.472017 1.058333,-1.058334 V 3.175 c 0,-0.5863167 -0.472016,-1.0583334 -1.058333,-1.0583334 H 6.35 L 5.2916666,1.0583333 Z m 0,1.8520833 h 8.4666664 c 0.439738,0 0.79375,0.3540125 0.79375,0.79375 V 10.31875 c 0,0.439738 -0.354012,0.793751 -0.79375,0.793751 H 2.1166666 c -0.4397375,0 -0.79375,-0.354013 -0.79375,-0.793751 V 3.7041666 c 0,-0.4397375 0.3540125,-0.79375 0.79375,-0.79375 z"
     style="vector-effect:none;fill:#000000;fill-opacity:0.25;stroke:none;stroke-width:0.264583;stroke-linecap:round;stroke-linejoin:miter;stroke-miterlimit:4;stroke-dasharray:none;stroke-dashoffset:0;stroke-opacity:0.392157"
     id="path2213" />
  <path
     d="m 4.3656253,4.4979167 c -0.6596049,0 -1.190625,0.5310201 -1.190625,1.1906249 V 6.746875 9.1281248 c 0,0.513027 0.4130156,0.9260422 0.9260416,0.9260422 0.5130261,0 0.9260417,-0.4130152 0.9260417,-0.9260422 v -1.190625 h 2.6458337 v 1.190625 c 0,0.513027 0.413015,0.9260422 0.926041,0.9260422 0.513026,0 0.926042,-0.4130152 0.926042,-0.9260422 V 6.746875 5.6885416 c 0,-0.6596048 -0.53102,-1.1906249 -1.190625,-1.1906249 z m 0.1322916,0.5291666 h 0.5291667 v 0.79375 h 0.79375 V 6.35 h -0.79375 V 7.1437498 H 4.4979169 V 6.35 H 3.704167 V 5.8208333 h 0.7937499 z m 3.3072914,0 c 0.219188,0 0.396875,0.177687 0.396875,0.396875 0,0.219188 -0.177687,0.396875 -0.396875,0.396875 -0.219188,0 -0.3968747,-0.177687 -0.3968747,-0.396875 0,-0.219188 0.1776867,-0.396875 0.3968747,-0.396875 z m -0.7937497,0.79375 c 0.219188,-1e-7 0.396875,0.177687 0.396875,0.396875 0,0.219188 -0.177687,0.3968751 -0.396875,0.396875 -0.219188,1e-7 -0.396875,-0.177687 -0.396875,-0.396875 0,-0.219188 0.177687,-0.3968751 0.396875,-0.396875 z m 1.5874997,0 c 0.219188,0 0.396875,0.177687 0.396875,0.396875 0,0.219188 -0.177687,0.396875 -0.396875,0.396875 -0.219188,0 -0.396875,-0.177687 -0.396875,-0.396875 0,-0.219188 0.177687,-0.396875 0.396875,-0.396875 z m -0.79375,0.79375 c 0.219188,-10e-8 0.396875,0.1776869 0.396875,0.3968755 0,0.219188 -0.177687,0.396875 -0.396875,0.396875 -0.219188,0 -0.3968747,-0.177687 -0.3968747,-0.396875 0,-0.2191886 0.1776867,-0.3968756 0.3968747,-0.3968755 z"
     style="fill:#000000;fill-opacity:1;stroke-width:0.529167;opacity:0.3"
     id="path5281" />
  <path
     id="rect1779"
     style="fill:#fefeff;fill-opacity:1;stroke-width:0.529167"
     d="M 4.365625,4.2333333 C 3.7060201,4.2333333 3.175,4.7643534 3.175,5.4239582 v 1.0583334 2.3812499 c 0,0.5130265 0.4130156,0.9260418 0.9260416,0.9260418 0.5130261,0 0.9260417,-0.4130153 0.9260417,-0.9260418 v -1.190625 h 2.6458333 v 1.190625 c 0,0.5130265 0.4130157,0.9260418 0.9260416,0.9260418 0.5130261,0 0.9260421,-0.4130153 0.9260421,-0.9260418 V 6.4822916 5.4239582 c 0,-0.6596048 -0.5310204,-1.1906249 -1.1906254,-1.1906249 z m 0.1322916,0.5291666 h 0.5291667 v 0.79375 h 0.79375 v 0.5291667 h -0.79375 v 0.79375 H 4.4979166 v -0.79375 H 3.7041667 V 5.5562499 h 0.7937499 z m 3.3072917,0 c 0.219188,0 0.396875,0.177687 0.396875,0.396875 0,0.219188 -0.177687,0.396875 -0.396875,0.396875 -0.219188,0 -0.396875,-0.177687 -0.396875,-0.396875 0,-0.219188 0.177687,-0.396875 0.396875,-0.396875 z m -0.79375,0.79375 c 0.219188,-1e-7 0.396875,0.177687 0.396875,0.396875 0,0.219188 -0.177687,0.3968751 -0.396875,0.396875 -0.219188,10e-8 -0.396875,-0.177687 -0.396875,-0.396875 0,-0.219188 0.177687,-0.3968751 0.396875,-0.396875 z m 1.5874999,0 c 0.219188,0 0.396875,0.177687 0.396875,0.396875 0,0.219188 -0.177687,0.396875 -0.396875,0.396875 -0.219188,0 -0.3968749,-0.177687 -0.3968749,-0.396875 0,-0.219188 0.1776869,-0.396875 0.3968749,-0.396875 z m -0.7937499,0.79375 c 0.219188,-1e-7 0.396875,0.1776869 0.396875,0.396875 0,0.2191881 -0.177687,0.3968751 -0.396875,0.396875 -0.219188,10e-8 -0.396875,-0.1776869 -0.396875,-0.396875 0,-0.2191881 0.177687,-0.3968751 0.396875,-0.396875 z"
     sodipodi:nodetypes="sscsssccssscssscccccccccccccssssssssssssssssssss" />
</svg>
