<?xml version="1.0" encoding="UTF-8" standalone="no"?>
<!-- Created with Inkscape (http://www.inkscape.org/) -->

<svg
   width="48"
   height="48"
   viewBox="0 0 12.7 12.7"
   version="1.1"
   id="svg5"
   inkscape:version="1.2 (dc2aedaf03, 2022-05-15)"
   sodipodi:docname="folder-blue-templates.svg"
   xmlns:inkscape="http://www.inkscape.org/namespaces/inkscape"
   xmlns:sodipodi="http://sodipodi.sourceforge.net/DTD/sodipodi-0.dtd"
   xmlns="http://www.w3.org/2000/svg"
   xmlns:svg="http://www.w3.org/2000/svg">
  <sodipodi:namedview
     id="namedview7"
     pagecolor="#ffffff"
     bordercolor="#666666"
     borderopacity="1.0"
     inkscape:pageshadow="2"
     inkscape:pageopacity="0.0"
     inkscape:pagecheckerboard="0"
     inkscape:document-units="px"
     showgrid="false"
     units="px"
     height="48px"
     inkscape:zoom="8.34375"
     inkscape:cx="19.595506"
     inkscape:cy="20.074906"
     inkscape:window-width="1846"
     inkscape:window-height="1011"
     inkscape:window-x="0"
     inkscape:window-y="0"
     inkscape:window-maximized="1"
     inkscape:current-layer="svg5"
     inkscape:showpageshadow="2"
     inkscape:deskcolor="#d1d1d1" />
  <defs
     id="defs2" />
  <path
     d="m 2.1166666,1.0583333 h 3.175 L 6.35,2.1166666 h 4.233334 c 0.586317,0 1.058333,0.4720167 1.058333,1.0583334 v 7.672917 c 0,0.586316 -0.472016,1.058333 -1.058333,1.058333 H 2.1166666 c -0.5863167,0 -1.0583334,-0.472017 -1.0583334,-1.058333 V 2.1166666 c 0,-0.5863166 0.4720167,-1.0583333 1.0583334,-1.0583333 z"
     style="vector-effect:none;fill:#6a7ce0;fill-opacity:1;stroke:none;stroke-width:0.264583;stroke-linecap:round;stroke-linejoin:miter;stroke-miterlimit:4;stroke-dasharray:none;stroke-dashoffset:0;stroke-opacity:0.392157"
     id="path2328" />
  <path
     d="m 2.1166666,2.6458333 c -0.5863166,0 -1.0583333,0.4720167 -1.0583333,1.0583333 v 7.1437494 c 0,0.586317 0.4720167,1.058334 1.0583333,1.058334 h 8.4666654 c 0.586317,0 1.058333,-0.472017 1.058333,-1.058334 V 3.7041666 c 0,-0.5863166 -0.472016,-1.0583333 -1.058333,-1.0583333 z m 0,0.2645833 h 8.4666654 c 0.439738,0 0.79375,0.3540125 0.79375,0.79375 V 10.31875 c 0,0.439737 -0.354012,0.79375 -0.79375,0.79375 H 2.1166666 c -0.4397375,0 -0.79375,-0.354013 -0.79375,-0.79375 V 3.7041666 c 0,-0.4397375 0.3540125,-0.79375 0.79375,-0.79375 z"
     style="display:inline;vector-effect:none;fill:#000000;fill-opacity:0.25;stroke:none;stroke-width:0.529167;stroke-linecap:round;stroke-miterlimit:4;stroke-dasharray:none;stroke-opacity:1;enable-background:new"
     id="path2481" />
  <path
     d="m 2.1166666,1.0583333 c -0.5863166,0 -1.0583333,0.4720166 -1.0583333,1.0583333 v 8.7312504 c 0,0.586317 0.4720167,1.058334 1.0583333,1.058334 h 8.4666664 c 0.586317,0 1.058333,-0.472017 1.058333,-1.058334 V 3.175 c 0,-0.5863167 -0.472016,-1.0583334 -1.058333,-1.0583334 H 6.35 L 5.2916666,1.0583333 Z m 0,1.8520833 h 8.4666664 c 0.439738,0 0.79375,0.3540125 0.79375,0.79375 V 10.31875 c 0,0.439738 -0.354012,0.793751 -0.79375,0.793751 H 2.1166666 c -0.4397375,0 -0.79375,-0.354013 -0.79375,-0.793751 V 3.7041666 c 0,-0.4397375 0.3540125,-0.79375 0.79375,-0.79375 z"
     style="vector-effect:none;fill:#000000;fill-opacity:0.25;stroke:none;stroke-width:0.264583;stroke-linecap:round;stroke-linejoin:miter;stroke-miterlimit:4;stroke-dasharray:none;stroke-dashoffset:0;stroke-opacity:0.392157"
     id="path2213" />
  <path
     d="m 6.35,4.4979167 c -0.8767519,0 -1.5875,0.7107479 -1.5875,1.5875 0.00116,0.4205891 0.1691717,0.8235296 0.4671536,1.1203517 L 4.4715615,7.9638525 C 4.1039897,7.68632 3.6379843,8.1523343 3.9155238,8.5199009 L 3.175,9.2604164 V 10.054166 L 3.96875,9.6572914 4.5371914,9.0888609 C 5.2321381,9.5717784 6.1033819,9.7651883 6.9561657,9.5994003 7.396943,9.5137304 7.8062825,9.3370403 8.1628086,9.0888609 L 8.73125,9.6572914 9.525,10.054166 V 9.2604164 L 8.7844762,8.5199009 C 9.0411459,8.2132488 9.2418482,7.8563523 9.3694541,7.4636313 9.4573542,7.2059046 9.265552,6.938222 8.9932484,6.9385921 8.8195761,6.938989 8.6663281,7.0522431 8.6149789,7.2181509 8.5266371,7.4900632 8.3914747,7.7382423 8.2201703,7.9555975 L 7.4703464,7.2057684 C 7.7683283,6.9089463 7.9363427,6.5060058 7.9375,6.0854167 c 0,-0.8767521 -0.7107481,-1.5875 -1.5875,-1.5875 z m 0,0.79375 c 0.438376,0 0.79375,0.355374 0.79375,0.79375 -3.17e-5,0.2105041 -0.08368,0.4123748 -0.2325449,0.5612077 L 6.35,6.0854167 5.7887949,6.6466244 C 5.6399298,6.4977915 5.5562815,6.2959208 5.55625,6.0854167 c 0,-0.438376 0.355374,-0.79375 0.79375,-0.79375 z M 5.9944661,7.6315888 C 6.1110405,7.6587238 6.2303096,7.6725878 6.35,7.6729168 6.4696904,7.6725993 6.5889595,7.6587248 6.7055339,7.6315888 l 0.883666,0.8836551 C 7.3514135,8.6600507 7.0865683,8.7642171 6.8042367,8.8190914 c -0.5923995,0.115147 -1.1947287,0 -1.6939551,-0.3033445 z"
     style="display:inline;opacity:0.3;fill:#000000;fill-opacity:1;stroke:none;stroke-width:0.105007px;stroke-linecap:butt;stroke-linejoin:miter;stroke-opacity:1;enable-background:new"
     id="path856" />
  <path
     d="m 6.35,4.2333333 c -0.8767519,0 -1.5875,0.7107481 -1.5875,1.5875 0.00116,0.4205891 0.1691717,0.8235296 0.4671536,1.1203517 L 4.4715615,7.6992691 C 4.1039899,7.4217366 3.6379843,7.8877509 3.9155238,8.2553175 L 3.175,8.995833 V 9.7895828 L 3.96875,9.392708 4.5371914,8.8242775 C 5.2321381,9.307195 6.1033819,9.5006049 6.9561657,9.3348169 7.396943,9.249147 7.8062825,9.0724569 8.1628086,8.8242775 L 8.73125,9.392708 9.525,9.7895828 V 8.995833 L 8.7844762,8.2553175 C 9.0411459,7.9486654 9.2418482,7.5917689 9.3694541,7.1990479 9.4573542,6.9413212 9.265552,6.6736386 8.9932484,6.6740087 8.8195761,6.6744056 8.6663281,6.7876597 8.6149789,6.9535675 8.5266371,7.2254798 8.3914747,7.4736589 8.2201703,7.6910141 L 7.4703464,6.941185 C 7.7683283,6.6443629 7.9363427,6.2414224 7.9375,5.8208333 c 0,-0.8767519 -0.7107481,-1.5875 -1.5875,-1.5875 z m 0,0.79375 c 0.438376,0 0.79375,0.355374 0.79375,0.79375 C 7.1437185,6.0313374 7.06007,6.2332084 6.9112051,6.382041 L 6.35,5.8208333 5.7887949,6.382041 C 5.6399298,6.2332084 5.5562815,6.0313374 5.55625,5.8208333 c 0,-0.438376 0.355374,-0.79375 0.79375,-0.79375 z M 5.9944661,7.3670054 C 6.1110405,7.3941404 6.2303096,7.4080044 6.35,7.4083334 6.4696904,7.4080159 6.5889595,7.3941414 6.7055339,7.3670054 l 0.883666,0.8836551 C 7.3514135,8.3954673 7.0865683,8.4996337 6.8042367,8.554508 c -0.5923995,0.115147 -1.1947287,0 -1.6939551,-0.3033445 z"
     style="display:inline;fill:#ffffff;fill-opacity:1;stroke:none;stroke-width:0.105007px;stroke-linecap:butt;stroke-linejoin:miter;stroke-opacity:1;enable-background:new"
     id="path994" />
</svg>
