<?xml version="1.0" encoding="UTF-8" standalone="no"?>
<!-- Created with Inkscape (http://www.inkscape.org/) -->

<svg
   width="48"
   height="48"
   viewBox="0 0 12.7 12.7"
   version="1.1"
   id="svg5"
   inkscape:version="1.2 (dc2aedaf03, 2022-05-15)"
   sodipodi:docname="folder-brown-download.svg"
   xmlns:inkscape="http://www.inkscape.org/namespaces/inkscape"
   xmlns:sodipodi="http://sodipodi.sourceforge.net/DTD/sodipodi-0.dtd"
   xmlns="http://www.w3.org/2000/svg"
   xmlns:svg="http://www.w3.org/2000/svg">
  <sodipodi:namedview
     id="namedview7"
     pagecolor="#ffffff"
     bordercolor="#666666"
     borderopacity="1.0"
     inkscape:pageshadow="2"
     inkscape:pageopacity="0.0"
     inkscape:pagecheckerboard="0"
     inkscape:document-units="px"
     showgrid="false"
     units="px"
     height="48px"
     inkscape:zoom="16.6875"
     inkscape:cx="24.059925"
     inkscape:cy="24.059925"
     inkscape:window-width="1846"
     inkscape:window-height="1011"
     inkscape:window-x="0"
     inkscape:window-y="0"
     inkscape:window-maximized="1"
     inkscape:current-layer="svg5"
     showguides="false"
     inkscape:showpageshadow="2"
     inkscape:deskcolor="#d1d1d1" />
  <defs
     id="defs2" />
  <path
     d="m 2.1166666,1.0583333 h 3.175 L 6.35,2.1166666 h 4.233334 c 0.586317,0 1.058333,0.4720167 1.058333,1.0583334 v 7.672917 c 0,0.586316 -0.472016,1.058333 -1.058333,1.058333 H 2.1166666 c -0.5863167,0 -1.0583334,-0.472017 -1.0583334,-1.058333 V 2.1166666 c 0,-0.5863166 0.4720167,-1.0583333 1.0583334,-1.0583333 z"
     style="vector-effect:none;fill:#7b736e;fill-opacity:1;stroke:none;stroke-width:0.264583;stroke-linecap:round;stroke-linejoin:miter;stroke-miterlimit:4;stroke-dasharray:none;stroke-dashoffset:0;stroke-opacity:0.392157"
     id="path2328" />
  <path
     d="m 2.1166666,2.6458333 c -0.5863166,0 -1.0583333,0.4720167 -1.0583333,1.0583333 v 7.1437494 c 0,0.586317 0.4720167,1.058334 1.0583333,1.058334 h 8.4666654 c 0.586317,0 1.058333,-0.472017 1.058333,-1.058334 V 3.7041666 c 0,-0.5863166 -0.472016,-1.0583333 -1.058333,-1.0583333 z m 0,0.2645833 h 8.4666654 c 0.439738,0 0.79375,0.3540125 0.79375,0.79375 V 10.31875 c 0,0.439737 -0.354012,0.79375 -0.79375,0.79375 H 2.1166666 c -0.4397375,0 -0.79375,-0.354013 -0.79375,-0.79375 V 3.7041666 c 0,-0.4397375 0.3540125,-0.79375 0.79375,-0.79375 z"
     style="display:inline;vector-effect:none;fill:#000000;fill-opacity:0.25;stroke:none;stroke-width:0.529167;stroke-linecap:round;stroke-miterlimit:4;stroke-dasharray:none;stroke-opacity:1;enable-background:new"
     id="path2481" />
  <path
     d="m 2.1166666,1.0583333 c -0.5863166,0 -1.0583333,0.4720166 -1.0583333,1.0583333 v 8.7312504 c 0,0.586317 0.4720167,1.058334 1.0583333,1.058334 h 8.4666664 c 0.586317,0 1.058333,-0.472017 1.058333,-1.058334 V 3.175 c 0,-0.5863167 -0.472016,-1.0583334 -1.058333,-1.0583334 H 6.35 L 5.2916666,1.0583333 Z m 0,1.8520833 h 8.4666664 c 0.439738,0 0.79375,0.3540125 0.79375,0.79375 V 10.31875 c 0,0.439738 -0.354012,0.793751 -0.79375,0.793751 H 2.1166666 c -0.4397375,0 -0.79375,-0.354013 -0.79375,-0.793751 V 3.7041666 c 0,-0.4397375 0.3540125,-0.79375 0.79375,-0.79375 z"
     style="vector-effect:none;fill:#000000;fill-opacity:0.25;stroke:none;stroke-width:0.264583;stroke-linecap:round;stroke-linejoin:miter;stroke-miterlimit:4;stroke-dasharray:none;stroke-dashoffset:0;stroke-opacity:0.392157"
     id="path2213" />
  <path
     d="m 7.14375,4.2333334 v 2.38125 H 8.1359323 L 6.35,9.3927084 4.5640625,6.6145834 H 5.55625 v -2.38125 z m -2.778125,5.55625 c -0.2191861,0 -0.396875,0.1776889 -0.396875,0.3968746 0,0.219186 0.1776889,0.396876 0.396875,0.396876 h 3.9687503 c 0.219186,0 0.396875,-0.17769 0.396875,-0.396876 0,-0.2191857 -0.177689,-0.3968746 -0.396875,-0.3968746 z"
     style="display:inline;opacity:0.3;fill:#000000;fill-opacity:1;stroke:none;stroke-width:0.0700042;stroke-opacity:0.392157;enable-background:new"
     id="path856" />
  <path
     d="M 7.14375,3.96875 V 6.35 H 8.1359322 L 6.35,9.128125 4.5640625,6.35 H 5.55625 V 3.96875 Z M 4.365625,9.525 c -0.2191861,0 -0.396875,0.1776888 -0.396875,0.3968751 0,0.2191859 0.1776889,0.3968749 0.396875,0.3968749 h 3.96875 c 0.2191861,0 0.396875,-0.177689 0.396875,-0.3968749 C 8.73125,9.7026888 8.5535611,9.525 8.334375,9.525 Z"
     style="display:inline;fill:#ffffff;fill-opacity:1;stroke:none;stroke-width:0.264583;stroke-opacity:0.392157;enable-background:new"
     id="path4761"
     sodipodi:nodetypes="ccccccccsssssss" />
</svg>
