<?xml version="1.0" encoding="UTF-8" standalone="no"?>
<!-- Created with Inkscape (http://www.inkscape.org/) -->

<svg
   width="48"
   height="48"
   viewBox="0 0 12.7 12.7"
   version="1.1"
   id="svg5"
   inkscape:version="1.1.2 (0a00cf5339, 2022-02-04, custom)"
   sodipodi:docname="user-trash-full.svg"
   xmlns:inkscape="http://www.inkscape.org/namespaces/inkscape"
   xmlns:sodipodi="http://sodipodi.sourceforge.net/DTD/sodipodi-0.dtd"
   xmlns="http://www.w3.org/2000/svg"
   xmlns:svg="http://www.w3.org/2000/svg">
  <sodipodi:namedview
     id="namedview7"
     pagecolor="#ffffff"
     bordercolor="#666666"
     borderopacity="1.0"
     inkscape:pageshadow="2"
     inkscape:pageopacity="0.0"
     inkscape:pagecheckerboard="0"
     inkscape:document-units="px"
     showgrid="false"
     units="px"
     height="48px"
     inkscape:zoom="8.34375"
     inkscape:cx="13.363296"
     inkscape:cy="29.003745"
     inkscape:window-width="1920"
     inkscape:window-height="1017"
     inkscape:window-x="0"
     inkscape:window-y="0"
     inkscape:window-maximized="1"
     inkscape:current-layer="svg5"
     showguides="false" />
  <defs
     id="defs2" />
  <path
     d="m 2.9126632,0.79375 h 6.8791661 c 0.4397377,0 0.8292037,0.3553354 0.7937497,0.7937501 L 9.7918293,11.377084 c -2.1166661,0.79375 -4.7624994,0.79375 -6.8791661,0 L 2.1189132,1.5875001 C 2.0834591,1.1490854 2.4729257,0.79375 2.9126632,0.79375 Z"
     style="fill:#898989;stroke-width:0.264583"
     id="path3133" />
  <path
     id="path257"
     style="fill:#ededed;fill-opacity:1;stroke-width:0.264583"
     d="M 6.3830728,1.6867188 5.0947796,2.7910442 6.1892867,3.8855511 6.8915702,4.9893597 6.6683254,5.1309531 5.9815465,4.0519492 4.9004749,2.9708783 4.9940104,2.8773439 4.3986979,2.2820313 3.4065104,3.6710939 4.3986979,4.4648439 4.3160156,4.361491 5.3082031,3.567741 5.4735676,3.7744467 4.4813802,4.5681967 4.3986979,4.4648439 3.4065104,5.2585939 4.0018229,6.2507814 4.0514322,6.2399293 4.4891324,7.3618246 5.3443769,6.6502402 5.5133583,6.8538453 4.6240064,7.5938518 4.5392578,7.4920492 3.6504245,8.231539 4.4508922,9.5131144 5.9892988,9.0748983 5.9438222,8.9503581 7.8439644,8.2547934 7.9349149,8.5028403 6.0688801,9.1865194 7.0166256,10.521839 8.2682291,9.5250001 8.7488209,7.4429566 7.4961828,6.3691204 7.7721353,6.2507814 7.7121913,5.7707073 7.856884,5.5727866 7.6760175,5.481836 7.5736978,4.6632814 7.4439911,4.6891195 7.0471161,2.7047445 7.3065295,2.6530682 7.6961708,4.6017864 9.1611978,3.8695313 8.3674478,2.4804689 Z M 5.3061367,4.793506 5.9014492,5.7856935 5.8177323,5.8358196 6.7256871,6.6683269 6.546371,6.8631471 5.6105107,6.0042848 l 0.0894,-0.097669 -0.02585,0.015503 -0.5953122,-0.992187 z m 0.393774,1.1131103 5.292e-4,-5.159e-4 z M 7.2527873,6.1737835 7.4662108,6.3303631 6.546371,7.5876506 5.5629677,8.450647 5.3883004,8.2516928 6.3499999,7.4078167 Z" />
  <path
     d="m 2.9126632,0.79375 c -0.4397375,0 -0.8292041,0.3553354 -0.79375,0.7937501 l 0.79375,9.7895839 c 2.1166667,0.79375 4.7625,0.79375 6.8791661,0 L 10.585579,1.5875001 C 10.621029,1.1490854 10.231567,0.79375 9.7918293,0.79375 Z m 0,0.2645834 h 6.8791661 c 0.2931587,0 0.5291667,0.2360083 0.5291667,0.5291667 V 1.8520834 L 9.5272463,10.583334 c -2.1166665,0.79375 -4.2333331,0.79375 -6.3499998,0 L 2.3834966,1.8520834 V 1.5875001 c 0,-0.2931584 0.2360083,-0.5291667 0.5291666,-0.5291667 z"
     style="fill:#000000;fill-opacity:0.5;stroke-width:0.264583"
     id="path3253" />
</svg>
