<?xml version="1.0" encoding="UTF-8" standalone="no"?>
<!-- Created with Inkscape (http://www.inkscape.org/) -->

<svg
   width="48"
   height="48"
   viewBox="0 0 12.7 12.7"
   version="1.1"
   id="svg5"
   inkscape:version="1.1.2 (0a00cf5339, 2022-02-04, custom)"
   sodipodi:docname="user-trash.svg"
   xmlns:inkscape="http://www.inkscape.org/namespaces/inkscape"
   xmlns:sodipodi="http://sodipodi.sourceforge.net/DTD/sodipodi-0.dtd"
   xmlns="http://www.w3.org/2000/svg"
   xmlns:svg="http://www.w3.org/2000/svg">
  <sodipodi:namedview
     id="namedview7"
     pagecolor="#ffffff"
     bordercolor="#666666"
     borderopacity="1.0"
     inkscape:pageshadow="2"
     inkscape:pageopacity="0.0"
     inkscape:pagecheckerboard="0"
     inkscape:document-units="px"
     showgrid="false"
     units="px"
     height="48px"
     inkscape:zoom="8.34375"
     inkscape:cx="13.363296"
     inkscape:cy="29.003745"
     inkscape:window-width="1920"
     inkscape:window-height="1017"
     inkscape:window-x="0"
     inkscape:window-y="0"
     inkscape:window-maximized="1"
     inkscape:current-layer="svg5"
     showguides="false" />
  <defs
     id="defs2" />
  <path
     d="m 2.9126632,0.79375 h 6.8791661 c 0.4397377,0 0.8292037,0.3553354 0.7937497,0.7937501 L 9.7918293,11.377084 c -2.1166661,0.79375 -4.7624994,0.79375 -6.8791661,0 L 2.1189132,1.5875001 C 2.0834591,1.1490854 2.4729257,0.79375 2.9126632,0.79375 Z"
     style="fill:#898989;stroke-width:0.264583"
     id="path3133" />
  <path
     style="color:#000000;opacity:0.35;fill:#000000;stroke-width:0.264583;-inkscape-stroke:none"
     d="m 9.5244836,1.579827 -0.5291662,8.731249 0.2645833,0.0155 0.5291669,-8.7312494 z"
     id="path75" />
  <path
     style="color:#000000;opacity:0.35;fill:#ffffff;stroke-width:0.264583;-inkscape-stroke:none"
     d="m 9.2599007,1.579827 -0.5291667,8.731249 0.2645834,0.0155 0.5291662,-8.7312494 z"
     id="path77" />
  <path
     style="color:#000000;opacity:0.35;fill:#000000;stroke-width:0.264583;-inkscape-stroke:none"
     d="M 7.936984,1.5834438 7.6724007,10.579277 7.936984,10.587577 8.2015674,1.5917438 Z"
     id="path81" />
  <path
     style="color:#000000;opacity:0.35;fill:#ffffff;stroke-width:0.264583;-inkscape-stroke:none"
     d="M 7.6729167,1.5834438 7.4083333,10.579277 7.6729167,10.587577 7.9375,1.5917438 Z"
     id="path83" />
  <path
     style="color:#000000;opacity:0.35;fill:#000000;stroke-width:0.264583;-inkscape-stroke:none"
     d="m 3.175,1.579827 -0.2645833,0.015505 0.5291667,8.731249 0.2645833,-0.0155 z"
     id="path87" />
  <path
     style="color:#000000;opacity:0.35;fill:#ffffff;stroke-width:0.264583;-inkscape-stroke:none"
     d="M 3.4395834,1.579827 3.175,1.595332 3.7041667,10.326581 3.96875,10.311081 Z"
     id="path89" />
  <path
     style="color:#000000;opacity:0.35;fill:#000000;stroke-width:0.264583;-inkscape-stroke:none"
     d="M 4.7625,1.5834438 4.4979167,1.5917038 4.7625,10.587537 5.0270834,10.579237 Z"
     id="path93" />
  <path
     style="color:#000000;opacity:0.35;fill:#ffffff;stroke-width:0.264583;-inkscape-stroke:none"
     d="m 5.0265674,1.5834438 -0.2645833,0.00826 0.2645833,8.9958332 0.2645833,-0.0083 z"
     id="path95" />
  <path
     style="color:#000000;opacity:0.35;fill:#000000;stroke-width:0.264583;-inkscape-stroke:none"
     d="M 6.3494841,1.5875793 V 10.847995 H 6.6140674 V 1.5875793 Z"
     id="path99" />
  <path
     style="color:#000000;opacity:0.35;fill:#ffffff;stroke-width:0.264583;-inkscape-stroke:none"
     d="M 6.0854167,1.5875793 V 10.847995 H 6.35 V 1.5875793 Z"
     id="path101" />
  <path
     d="m 2.9126632,0.79375 c -0.4397375,0 -0.8292041,0.3553354 -0.79375,0.7937501 l 0.79375,9.7895839 c 2.1166667,0.79375 4.7625,0.79375 6.8791661,0 L 10.585579,1.5875001 C 10.621029,1.1490854 10.231567,0.79375 9.7918293,0.79375 Z m 0,0.2645834 h 6.8791661 c 0.2931587,0 0.5291667,0.2360083 0.5291667,0.5291667 V 1.8520834 L 9.5272463,10.583334 c -2.1166665,0.79375 -4.2333331,0.79375 -6.3499998,0 L 2.3834966,1.8520834 V 1.5875001 c 0,-0.2931584 0.2360083,-0.5291667 0.5291666,-0.5291667 z"
     style="fill:#000000;fill-opacity:0.5;stroke-width:0.264583"
     id="path3253" />
</svg>
