<?xml version="1.0" encoding="UTF-8" standalone="no"?>
<!-- Created with Inkscape (http://www.inkscape.org/) -->

<svg
   width="128"
   height="128"
   viewBox="0 0 33.866666 33.866666"
   version="1.1"
   id="svg5"
   inkscape:version="1.2 (dc2aedaf03, 2022-05-15)"
   sodipodi:docname="application-x-javascript.svg"
   xmlns:inkscape="http://www.inkscape.org/namespaces/inkscape"
   xmlns:sodipodi="http://sodipodi.sourceforge.net/DTD/sodipodi-0.dtd"
   xmlns="http://www.w3.org/2000/svg"
   xmlns:svg="http://www.w3.org/2000/svg">
  <sodipodi:namedview
     id="namedview7"
     pagecolor="#ffffff"
     bordercolor="#666666"
     borderopacity="1.0"
     inkscape:pageshadow="2"
     inkscape:pageopacity="0.0"
     inkscape:pagecheckerboard="0"
     inkscape:document-units="px"
     showgrid="false"
     units="px"
     height="48px"
     inkscape:zoom="3.125"
     inkscape:cx="28.16"
     inkscape:cy="76.48"
     inkscape:window-width="1920"
     inkscape:window-height="1016"
     inkscape:window-x="0"
     inkscape:window-y="0"
     inkscape:window-maximized="1"
     inkscape:current-layer="svg5"
     inkscape:showpageshadow="2"
     inkscape:deskcolor="#d1d1d1" />
  <defs
     id="defs2" />
  <path
     d="M 7.2760473,1.8520891 C 6.0328287,1.8493007 5.0243005,2.8578289 5.027089,4.1010475 V 30.559381 c 0,1.245922 1.0030354,2.248958 2.2489583,2.248958 H 26.59063 c 1.245923,0 2.248958,-1.003036 2.248958,-2.248958 V 10.451047 L 20.24063,1.8520891 Z"
     style="fill:#6f6f6f;stroke-width:0.264583"
     id="path939" />
  <path
     d="m 28.575005,10.58334 v 19.049999 c 0,1.172633 -0.944033,2.116667 -2.116667,2.116667 H 7.408339 c -1.1726334,0 -2.1166667,-0.944034 -2.1166667,-2.116667 V 4.2333394 c 0,-1.1726333 0.9440333,-2.1166666 2.1166667,-2.1166666 h 12.699999"
     style="fill:#ececec;stroke-width:0.264583"
     id="path911" />
  <path
     d="m 28.575005,11.641672 h -6.614583 c -1.172634,0 -2.116667,-0.944033 -2.116667,-2.1166663 V 2.1166722 h 0.264583 l 8.466667,8.4666668 z"
     style="opacity:0.5;fill:#6f6f6f;fill-opacity:1;stroke-width:0.264583"
     id="path967" />
  <path
     d="m 28.575005,10.583339 h -6.35 c -1.172633,0 -2.116667,-0.9440333 -2.116667,-2.1166673 V 2.1166722"
     style="fill:#fafafa;stroke-width:0.264583"
     id="path995" />
  <path
     d="m 17.927925,27.458803 c -0.312925,0 -0.605756,-0.03157 -0.878491,-0.09472 -0.272735,-0.06316 -0.562692,-0.160787 -0.869876,-0.292841 l -0.0086,-1.106726 h 0.641643 l 0.159335,0.667491 c 0.304313,0.126312 0.62298,0.189468 0.956003,0.189468 0.344506,0 0.591402,-0.06604 0.740688,-0.198093 0.149286,-0.132054 0.22393,-0.295699 0.22393,-0.490908 0,-0.183753 -0.07608,-0.338773 -0.228235,-0.465085 -0.149286,-0.129196 -0.422021,-0.238283 -0.818202,-0.327289 -0.562692,-0.129196 -0.977535,-0.30144 -1.244529,-0.516758 -0.26412,-0.218202 -0.396182,-0.508159 -0.396182,-0.869871 0,-0.25265 0.07321,-0.477996 0.219623,-0.676089 0.146415,-0.200978 0.350247,-0.36031 0.6115,-0.478023 0.261249,-0.117713 0.565562,-0.176557 0.912939,-0.176557 0.353118,0 0.654561,0.04019 0.90433,0.120571 0.252637,0.08041 0.47226,0.188066 0.658868,0.322977 l 0.04306,1.063678 h -0.637336 l -0.137801,-0.620104 c -0.10048,-0.07464 -0.219622,-0.13208 -0.357425,-0.17227 -0.137803,-0.04019 -0.295701,-0.06027 -0.473697,-0.06027 -0.26412,0 -0.479438,0.06173 -0.645948,0.185155 -0.163643,0.123455 -0.245462,0.278474 -0.245462,0.465085 0,0.109087 0.02297,0.203835 0.0689,0.284215 0.0488,0.08038 0.140673,0.153591 0.275605,0.219631 0.13493,0.06316 0.333021,0.126312 0.594273,0.189468 0.648819,0.152162 1.100984,0.345969 1.356492,0.581369 0.258379,0.2354 0.38757,0.525356 0.38757,0.86987 0,0.393303 -0.146415,0.723477 -0.439245,0.990468 -0.28996,0.264107 -0.747866,0.396161 -1.37372,0.396161 z m 2.484752,1.477089 -0.172254,-0.508159 c 0.310057,-0.103346 0.532551,-0.284215 0.66748,-0.542607 0.134932,-0.255508 0.202398,-0.572717 0.202398,-0.95168 v -0.882809 c 0,-0.307181 0.0646,-0.575601 0.193784,-0.805286 0.129191,-0.229658 0.328718,-0.406214 0.59858,-0.529669 -0.269862,-0.117713 -0.469389,-0.291386 -0.59858,-0.52107 -0.129188,-0.229685 -0.193784,-0.500962 -0.193784,-0.813885 v -0.887122 c 0,-0.378962 -0.06747,-0.697626 -0.202398,-0.955992 -0.134929,-0.26125 -0.357423,-0.442119 -0.66748,-0.542608 l 0.172254,-0.503819 c 0.556951,0.157877 0.953133,0.409072 1.188546,0.753586 0.238283,0.341657 0.357425,0.757926 0.357425,1.248833 v 0.887122 c 0,0.324406 0.07321,0.575627 0.219623,0.753613 0.146415,0.175127 0.373213,0.262678 0.680397,0.262678 v 0.633016 c -0.307184,0 -0.533982,0.09043 -0.680397,0.271303 -0.146415,0.177985 -0.219623,0.427752 -0.219623,0.7493 v 0.882809 c 0,0.48805 -0.119142,0.904319 -0.357425,1.248833 -0.235413,0.344514 -0.631595,0.59571 -1.188546,0.753613 z m -6.709256,0.314351 c -0.09187,0 -0.175125,-0.0071 -0.24977,-0.02143 -0.07464,-0.01138 -0.152156,-0.03014 -0.232539,-0.05599 l 0.05598,-0.645927 c 0.04019,0.01429 0.107659,0.0272 0.202399,0.03873 0.09761,0.01138 0.172254,0.0172 0.22393,0.0172 0.169381,0 0.302876,-0.07464 0.400486,-0.223917 0.100481,-0.14642 0.150723,-0.348827 0.150723,-0.607192 v -4.375229 l -0.701932,-0.120571 v -0.54692 h 1.550279 v 5.04272 c 0,0.479451 -0.12345,0.84836 -0.370346,1.106725 -0.246896,0.26125 -0.589968,0.391875 -1.02921,0.391875 z m 0.508145,-7.691093 v -0.908632 h 0.891411 v 0.908632 z m -1.050745,7.376742 C 12.601,28.777989 12.201947,28.526793 11.963664,28.182279 11.728251,27.837765 11.610545,27.421496 11.610545,26.933446 v -0.882809 c 0,-0.321548 -0.07321,-0.571315 -0.219622,-0.7493 -0.146415,-0.180869 -0.37178,-0.271303 -0.676093,-0.271303 v -0.633016 c 0.304313,0 0.529678,-0.08755 0.676093,-0.262678 0.146415,-0.177986 0.219622,-0.429207 0.219622,-0.753613 v -0.887122 c 0,-0.490907 0.117706,-0.907176 0.353119,-1.248833 0.238283,-0.344514 0.637336,-0.595709 1.197157,-0.753586 l 0.172255,0.503819 c -0.315799,0.100489 -0.541163,0.281358 -0.676093,0.542608 -0.132061,0.258366 -0.198091,0.57703 -0.198091,0.955992 v 0.887122 c 0,0.30144 -0.06029,0.566976 -0.180866,0.79666 -0.120579,0.229685 -0.302879,0.409099 -0.546905,0.538295 0.244026,0.132054 0.426326,0.314352 0.546905,0.546894 0.120578,0.229685 0.180866,0.492363 0.180866,0.788061 v 0.882809 c 0,0.378963 0.06603,0.696172 0.198091,0.95168 0.13493,0.258392 0.360294,0.439261 0.676093,0.542607 z"
     id="path3450"
     style="font-size:33.333px;line-height:1.25;font-family:'Roboto Slab';letter-spacing:0;word-spacing:0;fill:#817205;fill-opacity:1;stroke-width:0.264583" />
</svg>
