<?xml version="1.0" encoding="UTF-8" standalone="no"?>
<!-- Created with Inkscape (http://www.inkscape.org/) -->

<svg
   width="128"
   height="128"
   viewBox="0 0 33.866666 33.866668"
   version="1.1"
   id="svg1099"
   inkscape:version="1.2 (dc2aedaf03, 2022-05-15)"
   sodipodi:docname="application-x-tar.svg"
   xmlns:inkscape="http://www.inkscape.org/namespaces/inkscape"
   xmlns:sodipodi="http://sodipodi.sourceforge.net/DTD/sodipodi-0.dtd"
   xmlns="http://www.w3.org/2000/svg"
   xmlns:svg="http://www.w3.org/2000/svg">
  <sodipodi:namedview
     id="namedview1101"
     pagecolor="#ffffff"
     bordercolor="#666666"
     borderopacity="1.0"
     inkscape:pageshadow="2"
     inkscape:pageopacity="0.0"
     inkscape:pagecheckerboard="0"
     inkscape:document-units="px"
     showgrid="false"
     units="px"
     inkscape:zoom="4.4967572"
     inkscape:cx="60.710416"
     inkscape:cy="64.157344"
     inkscape:window-width="1846"
     inkscape:window-height="1016"
     inkscape:window-x="0"
     inkscape:window-y="0"
     inkscape:window-maximized="1"
     inkscape:current-layer="svg1099"
     inkscape:showpageshadow="2"
     inkscape:deskcolor="#d1d1d1" />
  <defs
     id="defs1096" />
  <rect
     style="opacity:1;fill:#a19282;fill-opacity:1;stroke-width:0.529167;stroke-linecap:round"
     id="rect934"
     width="28.575001"
     height="27.516666"
     x="2.6458333"
     y="3.175"
     ry="1.5875" />
  <path
     d="m 5.3744807,21.851938 -0.165364,0.206706 5.1428373,4.114477 -5.1283673,3.076816 0.136424,0.226859 5.2596283,-3.155879 h 12.627652 l 5.259629,3.155879 0.136424,-0.226859 -5.128369,-3.076816 5.142839,-4.114477 -0.165364,-0.206706 -5.255493,4.204396 H 10.629973 Z"
     style="color:#000000;opacity:0.25;fill:#000000;fill-opacity:1;stroke-width:0.264583;-inkscape-stroke:none"
     id="path7683" />
  <rect
     style="opacity:1;fill:#d7c3ad;fill-opacity:1;stroke-width:0.529167;stroke-linecap:round"
     id="rect1192"
     width="28.045834"
     height="17.727083"
     x="2.9104166"
     y="3.4395833"
     ry="1.4552083" />
  <path
     d="M 14.816667,15.345834 H 15.875 v -2.116667 h 2.116667 v 2.116667 H 19.05 V 11.1125 c 0,-1.1690026 -0.947664,-2.1166666 -2.116667,-2.1166666 -1.169002,0 -2.116666,0.947664 -2.116666,2.1166666 z M 15.875,12.170833 V 11.1125 c 0,-0.584501 0.473832,-1.058333 1.058333,-1.058333 0.584502,0 1.058334,0.473832 1.058334,1.058333 v 1.058333 z m 4.233334,3.175001 h 1.058333 V 13.229167 H 22.225 l 1.058334,2.116667 h 1.058333 l -0.979752,-2.449513 c 0.609769,-0.388288 0.979208,-1.06092 0.979752,-1.783821 0,-1.1690026 -0.947664,-2.1166666 -2.116667,-2.1166666 h -2.116666 m 1.058333,3.1749996 V 10.054167 H 22.225 c 0.584502,0 1.058334,0.473832 1.058334,1.058333 0,0.584501 -0.473832,1.058333 -1.058334,1.058333 z M 11.377083,8.9958334 v 1.0583336 h 1.058334 v 5.291667 h 1.058333 v -5.291667 h 1.058333 V 8.9958334 Z"
     id="path1753"
     style="stroke-width:0.264583;fill:#635749;fill-opacity:1" />
</svg>
