<?xml version="1.0" encoding="UTF-8" standalone="no"?>
<!-- Created with Inkscape (http://www.inkscape.org/) -->

<svg
   width="128"
   height="128"
   viewBox="0 0 33.866666 33.866668"
   version="1.1"
   id="svg1099"
   inkscape:version="1.2 (dc2aedaf03, 2022-05-15)"
   sodipodi:docname="application-x-ms-dos-executable.svg"
   xmlns:inkscape="http://www.inkscape.org/namespaces/inkscape"
   xmlns:sodipodi="http://sodipodi.sourceforge.net/DTD/sodipodi-0.dtd"
   xmlns="http://www.w3.org/2000/svg"
   xmlns:svg="http://www.w3.org/2000/svg">
  <sodipodi:namedview
     id="namedview1101"
     pagecolor="#ffffff"
     bordercolor="#666666"
     borderopacity="1.0"
     inkscape:pageshadow="2"
     inkscape:pageopacity="0.0"
     inkscape:pagecheckerboard="0"
     inkscape:document-units="px"
     showgrid="false"
     units="px"
     inkscape:zoom="6.359375"
     inkscape:cx="63.921376"
     inkscape:cy="64"
     inkscape:window-width="1920"
     inkscape:window-height="1011"
     inkscape:window-x="0"
     inkscape:window-y="0"
     inkscape:window-maximized="1"
     inkscape:current-layer="svg1099"
     inkscape:showpageshadow="2"
     inkscape:deskcolor="#d1d1d1"
     showguides="true" />
  <defs
     id="defs1096" />
  <rect
     style="opacity:1;fill:#48b9c7;fill-opacity:1;stroke-width:1.05833;stroke-linecap:round"
     id="rect934"
     width="27.516666"
     height="28.310417"
     x="3.175"
     y="3.175"
     ry="2.1166668" />
  <path
     id="rect845"
     style="opacity:0.3;fill:#000000;stroke-width:0.529166"
     d="m 11.641667,11.112499 c -0.293158,0 -0.529167,0.236008 -0.529167,0.529167 v 5.026973 h 5.556373 v -5.55614 z m 5.556127,0 v 5.55614 h 5.556373 v -5.026973 c 0,-0.293159 -0.236008,-0.529167 -0.529166,-0.529167 z M 11.1125,17.198026 v 5.026976 c 0,0.293158 0.236009,0.529166 0.529167,0.529166 h 5.027206 v -5.556142 z m 6.085294,0 v 5.556142 h 5.027207 c 0.293158,0 0.529166,-0.228782 0.529166,-0.529166 v -5.026976 z"
     sodipodi:nodetypes="sscccscccssccsscccccsscc" />
  <path
     d="m 11.641667,10.847916 h 5.027205 v 5.55614 H 11.1125 v -5.026973 c 0,-0.293159 0.236009,-0.529167 0.529167,-0.529167 z m 5.027205,6.085527 v 5.556143 h -5.027205 c -0.293158,0 -0.529167,-0.236008 -0.529167,-0.529168 v -5.026975 z m 6.085295,0 v 5.026975 c 0,0.29316 -0.227944,0.529168 -0.529166,0.529168 h -5.027207 v -5.556143 z m -5.556372,-6.085527 h 5.027206 c 0.293158,0 0.529166,0.262416 0.529166,0.529167 v 5.026973 h -5.556372 z"
     style="fill:#ffffff;fill-opacity:1;stroke-width:0.140008"
     id="path2168"
     sodipodi:nodetypes="scccssccsscccssccccssccc" />
  <path
     id="rect27417"
     style="opacity:0.5;fill:#000000;fill-opacity:1;stroke-width:0.529167;stroke-linecap:round;stroke-linejoin:bevel"
     d="M 5.2916667 3.175 C 4.1190345 3.175 3.175 4.1190345 3.175 5.2916667 L 3.175 29.36875 C 3.175 30.541383 4.1190345 31.485417 5.2916667 31.485417 L 28.575 31.485417 C 29.747633 31.485417 30.691667 30.541383 30.691667 29.36875 L 30.691667 5.2916667 C 30.691667 4.1190345 29.747633 3.175 28.575 3.175 L 5.2916667 3.175 z M 5.4239584 3.4395834 L 28.442709 3.4395834 C 29.542051 3.4395834 30.427084 4.3246157 30.427084 5.4239584 L 30.427084 28.442709 C 30.427084 29.542051 29.542051 30.427084 28.442709 30.427084 L 5.4239584 30.427084 C 4.3246157 30.427084 3.4395834 29.542051 3.4395834 28.442709 L 3.4395834 5.4239584 C 3.4395834 4.3246157 4.3246157 3.4395834 5.4239584 3.4395834 z " />
</svg>
