<?xml version="1.0" encoding="UTF-8" standalone="no"?>
<!-- Created with Inkscape (http://www.inkscape.org/) -->

<svg
   width="128"
   height="128"
   viewBox="0 0 33.866666 33.866666"
   version="1.1"
   id="svg5"
   inkscape:version="1.2 (dc2aedaf03, 2022-05-15)"
   sodipodi:docname="application-msword.svg"
   xmlns:inkscape="http://www.inkscape.org/namespaces/inkscape"
   xmlns:sodipodi="http://sodipodi.sourceforge.net/DTD/sodipodi-0.dtd"
   xmlns="http://www.w3.org/2000/svg"
   xmlns:svg="http://www.w3.org/2000/svg">
  <sodipodi:namedview
     id="namedview7"
     pagecolor="#ffffff"
     bordercolor="#666666"
     borderopacity="1.0"
     inkscape:pageshadow="2"
     inkscape:pageopacity="0.0"
     inkscape:pagecheckerboard="0"
     inkscape:document-units="px"
     showgrid="false"
     units="px"
     height="48px"
     inkscape:zoom="6.3984375"
     inkscape:cx="63.921856"
     inkscape:cy="64"
     inkscape:window-width="1846"
     inkscape:window-height="1016"
     inkscape:window-x="0"
     inkscape:window-y="0"
     inkscape:window-maximized="1"
     inkscape:current-layer="svg5"
     inkscape:showpageshadow="2"
     inkscape:deskcolor="#d1d1d1" />
  <defs
     id="defs2" />
  <path
     d="M 7.2760473,1.8520891 C 6.0328287,1.8493007 5.0243005,2.8578289 5.027089,4.1010475 V 30.559381 c 0,1.245922 1.0030354,2.248958 2.2489583,2.248958 H 26.59063 c 1.245923,0 2.248958,-1.003036 2.248958,-2.248958 V 10.451047 L 20.24063,1.8520891 Z"
     style="fill:#1f285a;stroke-width:0.264583;fill-opacity:1"
     id="path939" />
  <path
     d="m 28.575005,10.58334 v 19.049999 c 0,1.172633 -0.944033,2.116667 -2.116667,2.116667 H 7.408339 c -1.1726334,0 -2.1166667,-0.944034 -2.1166667,-2.116667 V 4.2333394 c 0,-1.1726333 0.9440333,-2.1166666 2.1166667,-2.1166666 h 12.699999"
     style="fill:#3f51b6;stroke-width:0.264583;fill-opacity:1"
     id="path911" />
  <rect
     style="opacity:0.25;fill:#ffffff;stroke-width:2.11666;stroke-linejoin:bevel"
     id="rect25302"
     width="13.758333"
     height="16.933332"
     x="12.170835"
     y="12.964583"
     ry="1.0583329" />
  <path
     id="rect29937"
     style="opacity:0.5;fill:#ffffff;fill-opacity:1;stroke-width:4.23332;stroke-linejoin:bevel"
     d="m 12.170835,21.431251 v 4.233334 h 13.758321 v -4.233334 z"
     sodipodi:nodetypes="ccccc" />
  <path
     id="path29903"
     style="opacity:0.7;fill:#ffffff;stroke-width:2.11666;stroke-linejoin:bevel"
     d="m 12.170835,25.664585 v 3.174999 c 0,0.586316 0.472017,1.058332 1.058333,1.058332 H 24.87083 c 0.586316,0 1.058332,-0.472016 1.058332,-1.058332 v -3.174999 z"
     sodipodi:nodetypes="csccscc" />
  <path
     id="rect28337"
     style="opacity:0.3;fill:#ffffff;stroke-width:4.23332;stroke-linejoin:bevel"
     d="m 12.170834,17.197918 v 4.233333 h 13.758322 v -4.233333 z"
     sodipodi:nodetypes="ccccc" />
  <rect
     style="fill:#3f51b5;fill-opacity:1;stroke-width:0.529166"
     id="rect3242"
     width="10.583333"
     height="10.583333"
     x="7.1437497"
     y="16.139582"
     ry="1.3229166" />
  <rect
     style="fill:#ffffff;stroke-width:0.264583"
     id="rect2687"
     width="10.054167"
     height="10.054167"
     x="7.4083333"
     y="16.404165"
     ry="1.0583333" />
  <path
     id="rect3454"
     style="fill:#3f51b5;stroke-width:0.529166"
     d="m 8.7312494,18.256251 1.5875006,6.350001 h 1.058334 l 1.058333,-4.233334 1.058333,4.233334 h 1.058334 l 1.587499,-6.350001 H 15.08125 l -1.058333,4.233335 -1.058334,-4.233335 H 11.90625 l -1.058333,4.233335 -1.0583344,-4.233335 z" />
  <path
     d="m 28.575005,11.641672 h -6.614583 c -1.172634,0 -2.116667,-0.944033 -2.116667,-2.1166663 V 2.1166722 h 0.264583 l 8.466667,8.4666668 z"
     style="opacity:0.5;fill:#1f285a;fill-opacity:1;stroke-width:0.264583"
     id="path967" />
  <path
     d="m 28.575005,10.583339 h -6.35 c -1.172633,0 -2.116667,-0.9440333 -2.116667,-2.1166673 V 2.1166722"
     style="fill:#6a7ce0;stroke-width:0.264583;fill-opacity:1"
     id="path995" />
</svg>
