<?xml version="1.0" encoding="UTF-8" standalone="no"?>
<!-- Created with Inkscape (http://www.inkscape.org/) -->

<svg
   width="128"
   height="128"
   viewBox="0 0 33.866666 33.866666"
   version="1.1"
   id="svg5"
   inkscape:version="1.2 (dc2aedaf03, 2022-05-15)"
   sodipodi:docname="application-mspowerpoint.svg"
   xmlns:inkscape="http://www.inkscape.org/namespaces/inkscape"
   xmlns:sodipodi="http://sodipodi.sourceforge.net/DTD/sodipodi-0.dtd"
   xmlns="http://www.w3.org/2000/svg"
   xmlns:svg="http://www.w3.org/2000/svg">
  <sodipodi:namedview
     id="namedview7"
     pagecolor="#ffffff"
     bordercolor="#666666"
     borderopacity="1.0"
     inkscape:pageshadow="2"
     inkscape:pageopacity="0.0"
     inkscape:pagecheckerboard="0"
     inkscape:document-units="px"
     showgrid="false"
     units="px"
     height="48px"
     inkscape:zoom="6.3984375"
     inkscape:cx="63.921856"
     inkscape:cy="64"
     inkscape:window-width="1846"
     inkscape:window-height="1016"
     inkscape:window-x="0"
     inkscape:window-y="0"
     inkscape:window-maximized="1"
     inkscape:current-layer="svg5"
     inkscape:showpageshadow="2"
     inkscape:deskcolor="#d1d1d1" />
  <defs
     id="defs2" />
  <path
     d="M 7.2760473,1.8520891 C 6.0328287,1.8493007 5.0243005,2.8578289 5.027089,4.1010475 V 30.559381 c 0,1.245922 1.0030354,2.248958 2.2489583,2.248958 H 26.59063 c 1.245923,0 2.248958,-1.003036 2.248958,-2.248958 V 10.451047 L 20.24063,1.8520891 Z"
     style="fill:#671d00;stroke-width:0.264583;fill-opacity:1"
     id="path939" />
  <path
     d="m 28.575005,10.58334 v 19.049999 c 0,1.172633 -0.944033,2.116667 -2.116667,2.116667 H 7.408339 c -1.1726334,0 -2.1166667,-0.944034 -2.1166667,-2.116667 V 4.2333394 c 0,-1.1726333 0.9440333,-2.1166666 2.1166667,-2.1166666 h 12.699999"
     style="fill:#cf3b00;stroke-width:0.264583;fill-opacity:1"
     id="path911" />
  <circle
     style="opacity:0.3;fill:#ffffff;stroke-width:5.64446;stroke-linejoin:bevel"
     id="path31463"
     cx="18.25625"
     cy="21.431248"
     r="8.4666653" />
  <path
     id="path31465"
     style="opacity:0.7;fill:#ffffff;stroke-width:4.23332;stroke-linejoin:bevel"
     d="m 9.7895831,21.431249 a 8.4666655,8.4666655 0 0 0 8.4666649,8.466667 8.4666655,8.4666655 0 0 0 8.466667,-8.466667 h -8.466667 z" />
  <path
     id="path31759"
     style="opacity:0.5;fill:#ffffff;stroke-width:4.23332;stroke-linejoin:bevel"
     d="M 18.256248,12.964583 A 8.4666649,8.4666655 0 0 0 9.7895831,21.431249 H 18.256248 Z" />
  <rect
     style="fill:#cf3b00;fill-opacity:1;stroke-width:0.529166"
     id="rect3242"
     width="10.583333"
     height="10.583333"
     x="7.1437497"
     y="16.139584"
     ry="1.3229166" />
  <rect
     style="fill:#ffffff;stroke-width:0.264583"
     id="rect2687"
     width="10.054167"
     height="10.054167"
     x="7.4083333"
     y="16.404167"
     ry="1.0583333" />
  <path
     id="rect4291"
     style="fill:#cf3b00;fill-opacity:1;stroke-width:0.529166"
     d="m 10.583331,18.25625 v 6.349998 h 1.058334 v -2.116666 h 1.058333 a 2.1166665,2.1166665 0 0 0 2.116666,-2.116665 2.1166665,2.1166665 0 0 0 -2.116666,-2.116667 h -1.058333 z m 1.058334,1.058333 h 1.058333 a 1.0583332,1.0583332 0 0 1 1.058333,1.058334 1.0583332,1.0583332 0 0 1 -1.058333,1.058332 h -1.058333 z" />
  <path
     d="m 28.575005,11.641672 h -6.614583 c -1.172634,0 -2.116667,-0.944033 -2.116667,-2.1166663 V 2.1166722 h 0.264583 l 8.466667,8.4666668 z"
     style="opacity:0.5;fill:#671d00;fill-opacity:1;stroke-width:0.264583"
     id="path967" />
  <path
     d="m 28.575005,10.583339 h -6.35 c -1.172633,0 -2.116667,-0.9440333 -2.116667,-2.1166673 V 2.1166722"
     style="fill:#f15b00;stroke-width:0.264583;fill-opacity:1"
     id="path995" />
</svg>
