<?xml version="1.0" encoding="UTF-8" standalone="no"?>
<!-- Created with Inkscape (http://www.inkscape.org/) -->

<svg
   width="128"
   height="128"
   viewBox="0 0 33.866666 33.866668"
   version="1.1"
   id="svg1099"
   inkscape:version="1.2 (dc2aedaf03, 2022-05-15)"
   sodipodi:docname="application-photoshop.svg"
   xmlns:inkscape="http://www.inkscape.org/namespaces/inkscape"
   xmlns:sodipodi="http://sodipodi.sourceforge.net/DTD/sodipodi-0.dtd"
   xmlns="http://www.w3.org/2000/svg"
   xmlns:svg="http://www.w3.org/2000/svg">
  <sodipodi:namedview
     id="namedview1101"
     pagecolor="#ffffff"
     bordercolor="#666666"
     borderopacity="1.0"
     inkscape:pageshadow="2"
     inkscape:pageopacity="0.0"
     inkscape:pagecheckerboard="0"
     inkscape:document-units="px"
     showgrid="false"
     units="px"
     inkscape:zoom="6.359375"
     inkscape:cx="64.235872"
     inkscape:cy="64"
     inkscape:window-width="1920"
     inkscape:window-height="1011"
     inkscape:window-x="0"
     inkscape:window-y="0"
     inkscape:window-maximized="1"
     inkscape:current-layer="svg1099"
     inkscape:showpageshadow="2"
     inkscape:deskcolor="#d1d1d1"
     showguides="false" />
  <defs
     id="defs1096" />
  <rect
     style="opacity:1;fill:#245c63;fill-opacity:1;stroke-width:0.529166"
     id="rect1196"
     width="29.633333"
     height="23.283333"
     x="2.1166668"
     y="7.4083338"
     ry="2.1166668" />
  <rect
     style="opacity:1;fill:#48b9c7;fill-opacity:1;stroke-width:0.529167;stroke-linecap:round;stroke-linejoin:bevel"
     id="rect16828"
     width="29.104166"
     height="21.960417"
     x="2.3812504"
     y="7.6729169"
     ry="1.984375" />
  <rect
     style="fill:#001d26;fill-opacity:1;stroke-width:0.529167"
     id="rect2612"
     width="23.283333"
     height="15.875"
     x="5.291667"
     y="10.583336"
     ry="1.0583334" />
  <path
     d="m 13.981458,14.513457 c 1.031002,0 1.832483,0.21448 2.404427,0.643437 0.571943,0.428956 0.857917,1.064869 0.857917,1.907739 0,0.880492 -0.282206,1.546507 -0.846626,1.998043 -0.556894,0.444011 -1.305692,0.666015 -2.246391,0.666015 h -0.846631 v 2.607616 H 11.45286 v -7.82285 z m 0.0112,3.883203 c 0.43648,0 0.767608,-0.101597 0.993375,-0.304787 0.233284,-0.210712 0.34993,-0.553126 0.34993,-1.02724 0,-0.82029 -0.45906,-1.230436 -1.37718,-1.230436 h -0.654729 v 2.562463 z m 5.994148,-2.246391 c 0.428957,0 0.831577,0.06398 1.207856,0.191915 0.376279,0.127936 0.707407,0.308549 0.993381,0.54184 l -0.654729,1.004669 c -0.489164,-0.308553 -0.982089,-0.462829 -1.478776,-0.462829 -0.233294,0 -0.413908,0.04138 -0.541847,0.124176 -0.120416,0.07526 -0.180614,0.184375 -0.180614,0.327361 0,0.112877 0.02636,0.206956 0.07902,0.282212 0.0602,0.06774 0.176855,0.139216 0.349938,0.214479 0.173095,0.07526 0.440249,0.165556 0.801475,0.270923 0.624625,0.180614 1.087446,0.417667 1.388471,0.711167 0.308553,0.28597 0.462826,0.684828 0.462826,1.196565 0,0.406382 -0.116636,0.760088 -0.349944,1.061111 -0.233291,0.293496 -0.553125,0.519263 -0.95951,0.677304 -0.406382,0.158036 -0.857916,0.237053 -1.354606,0.237053 -0.504211,0 -0.974563,-0.07902 -1.411048,-0.237053 -0.428956,-0.158035 -0.793949,-0.376285 -1.094972,-0.654729 l 0.869204,-0.970803 c 0.504213,0.391334 1.034772,0.586999 1.591666,0.586999 0.27092,0 0.481634,-0.0489 0.632145,-0.146756 0.158036,-0.09784 0.237061,-0.237055 0.237061,-0.41767 0,-0.142996 -0.0301,-0.255871 -0.09032,-0.33865 -0.0602,-0.08278 -0.176855,-0.158035 -0.349938,-0.225768 -0.173075,-0.07526 -0.447767,-0.165555 -0.824048,-0.270914 -0.594523,-0.173095 -1.038532,-0.413908 -1.332027,-0.722457 -0.293498,-0.308553 -0.440248,-0.692355 -0.440248,-1.151416 0,-0.346176 0.09784,-0.654729 0.2935,-0.925649 0.203188,-0.278446 0.489162,-0.496688 0.857913,-0.654725 0.376283,-0.165575 0.809002,-0.248347 1.298166,-0.248347 z"
     style="font-weight:bold;font-size:21.333px;font-family:'Fira Sans';fill:#00c8ff;fill-opacity:1;stroke-width:0.529151"
     id="path1037" />
</svg>
