<?xml version="1.0" encoding="UTF-8" standalone="no"?>
<!-- Created with Inkscape (http://www.inkscape.org/) -->

<svg
   width="128"
   height="128"
   viewBox="0 0 33.866666 33.866666"
   version="1.1"
   id="svg5"
   inkscape:version="1.2 (dc2aedaf03, 2022-05-15)"
   sodipodi:docname="text-x-rust.svg"
   xmlns:inkscape="http://www.inkscape.org/namespaces/inkscape"
   xmlns:sodipodi="http://sodipodi.sourceforge.net/DTD/sodipodi-0.dtd"
   xmlns="http://www.w3.org/2000/svg"
   xmlns:svg="http://www.w3.org/2000/svg">
  <sodipodi:namedview
     id="namedview7"
     pagecolor="#ffffff"
     bordercolor="#666666"
     borderopacity="1.0"
     inkscape:pageshadow="2"
     inkscape:pageopacity="0.0"
     inkscape:pagecheckerboard="0"
     inkscape:document-units="px"
     showgrid="false"
     units="px"
     height="48px"
     inkscape:zoom="3.125"
     inkscape:cx="28.32"
     inkscape:cy="76.96"
     inkscape:window-width="1846"
     inkscape:window-height="1011"
     inkscape:window-x="0"
     inkscape:window-y="0"
     inkscape:window-maximized="1"
     inkscape:current-layer="svg5"
     inkscape:showpageshadow="2"
     inkscape:deskcolor="#d1d1d1" />
  <defs
     id="defs2" />
  <path
     d="M 7.2760473,1.8520891 C 6.0328287,1.8493007 5.0243005,2.8578289 5.027089,4.1010475 V 30.559381 c 0,1.245922 1.0030354,2.248958 2.2489583,2.248958 H 26.59063 c 1.245923,0 2.248958,-1.003036 2.248958,-2.248958 V 10.451047 L 20.24063,1.8520891 Z"
     style="fill:#6f6f6f;stroke-width:0.264583"
     id="path939" />
  <path
     d="m 28.575005,10.58334 v 19.049999 c 0,1.172633 -0.944033,2.116667 -2.116667,2.116667 H 7.408339 c -1.1726334,0 -2.1166667,-0.944034 -2.1166667,-2.116667 V 4.2333394 c 0,-1.1726333 0.9440333,-2.1166666 2.1166667,-2.1166666 h 12.699999"
     style="fill:#ececec;stroke-width:0.264583"
     id="path911" />
  <path
     d="m 16.933598,15.875 c -0.06138,0 -0.121689,0.02638 -0.155026,0.08035 l -0.33072,0.535353 -0.155024,0.01498 -0.427867,-0.458873 c -0.08665,-0.09313 -0.263535,-0.05732 -0.307984,0.06227 l -0.219102,0.584962 -0.15089,0.04547 -0.508483,-0.365859 c -0.103183,-0.07408 -0.266807,-0.01056 -0.287312,0.119886 l -0.101283,0.618033 -0.138489,0.07415 -0.570491,-0.260442 c -0.115884,-0.05292 -0.265336,0.0465 -0.260442,0.173628 l 0.02274,0.628368 -0.119886,0.09947 -0.611832,-0.14469 c -0.124086,-0.02857 -0.250272,0.09735 -0.221168,0.221168 l 0.14469,0.611832 -0.09922,0.119886 -0.628367,-0.02222 c -0.126467,-0.01059 -0.226279,0.144293 -0.173628,0.260442 l 0.260442,0.570491 -0.07441,0.13849 -0.617774,0.101799 c -0.125673,0.02011 -0.194225,0.184128 -0.120144,0.287312 l 0.365858,0.508482 -0.04547,0.150633 -0.587028,0.21936 c -0.119059,0.04445 -0.152815,0.220937 -0.05968,0.307982 l 0.458614,0.425544 -0.01628,0.157349 -0.533544,0.33072 c -0.108079,0.06667 -0.108079,0.245444 0,0.312117 l 0.533544,0.328395 0.01628,0.157092 -0.458614,0.428127 c -0.09313,0.08678 -0.05938,0.261202 0.05968,0.305916 l 0.587028,0.219101 0.04547,0.15089 -0.365858,0.508482 c -0.07421,0.103714 -0.0051,0.268882 0.120144,0.289122 l 0.617774,0.09947 0.07441,0.138747 -0.260442,0.570233 c -0.05291,0.116017 0.04729,0.265602 0.173886,0.260442 l 0.628368,-0.02222 0.09922,0.119886 -0.144948,0.611831 c -0.0291,0.123954 0.09708,0.250404 0.221168,0.22117 l 0.611832,-0.144692 0.119886,0.09948 -0.02274,0.626559 c -0.0053,0.126864 0.144558,0.226416 0.260442,0.173369 l 0.570491,-0.258374 0.138489,0.07208 0.101283,0.618032 c 0.0205,0.125806 0.184129,0.193968 0.287312,0.119888 l 0.508483,-0.36586 0.15089,0.04547 0.219102,0.587028 c 0.04445,0.118926 0.219267,0.153596 0.305916,0.0602 l 0.427868,-0.458873 0.157091,0.01705 0.33072,0.533286 c 0.06654,0.10755 0.245312,0.107814 0.312118,0 l 0.328653,-0.533286 0.157092,-0.01705 0.427868,0.458873 c 0.08665,0.09313 0.261467,0.05833 0.305916,-0.0602 l 0.219101,-0.587028 0.15089,-0.04547 0.508483,0.36586 c 0.103184,0.07408 0.266808,0.01055 0.287313,-0.119888 l 0.101283,-0.618032 0.138488,-0.07208 0.570492,0.258374 c 0.115884,0.05291 0.265072,-0.04531 0.260441,-0.173369 l -0.02274,-0.626559 0.119887,-0.09948 0.611832,0.144692 c 0.124084,0.02857 0.250271,-0.09735 0.221168,-0.22117 l -0.14469,-0.611831 0.09922,-0.119886 0.628367,0.02222 c 0.126467,0.01059 0.226808,-0.144425 0.173628,-0.260442 l -0.260442,-0.570233 0.07441,-0.138747 0.617774,-0.09947 c 0.125938,-0.02011 0.194622,-0.185805 0.120145,-0.289122 l -0.365859,-0.508482 0.04547,-0.15089 0.587027,-0.219101 c 0.119191,-0.04445 0.153079,-0.219268 0.05968,-0.305916 l -0.458614,-0.428127 0.01628,-0.157092 0.533543,-0.328653 c 0.10808,-0.06667 0.10808,-0.244921 0,-0.311859 l -0.533543,-0.33072 -0.01628,-0.157349 0.458614,-0.425544 c 0.09326,-0.08678 0.05964,-0.263533 -0.05968,-0.307982 l -0.587027,-0.21936 -0.04547,-0.150633 0.365859,-0.508482 c 0.07461,-0.102655 0.0062,-0.266675 -0.120145,-0.287312 l -0.617774,-0.101799 -0.07441,-0.13849 0.260442,-0.570491 c 0.05318,-0.116149 -0.04609,-0.265205 -0.173886,-0.260442 l -0.628367,0.02222 -0.09922,-0.119886 0.144948,-0.611832 c 0.0291,-0.124218 -0.09708,-0.250271 -0.221168,-0.221168 l -0.609765,0.14469 -0.121954,-0.09947 0.02274,-0.628368 c 0.0053,-0.126996 -0.144557,-0.226278 -0.260441,-0.173628 l -0.570492,0.260442 -0.138488,-0.07415 -0.09922,-0.618033 c -0.02037,-0.125277 -0.186064,-0.1941 -0.28938,-0.119886 l -0.508483,0.365859 -0.15089,-0.04547 -0.219101,-0.584962 C 18.265766,15.989492 18.091081,15.95474 18.0043,16.04681 l -0.427868,0.458873 -0.155025,-0.01498 -0.33072,-0.535353 C 17.05735,15.901381 16.995112,15.875 16.933598,15.875 Z m 0,2.11454 c 2.337938,0 4.233212,1.895274 4.233212,4.233212 l -2.58e-4,0.0021 h -1.058045 c 0,0 -1e-6,2.116606 -1.058303,2.116606 -0.498858,0 -1.058303,-2.116606 -1.058303,-2.116606 h 0.529152 c 0.879448,0 1.587454,-0.708006 1.587454,-1.587455 0,-0.879448 -0.708006,-1.587454 -1.587454,-1.587454 h -1.587455 -2.790965 c 0.770667,-0.680683 1.762737,-1.057601 2.790965,-1.06037 z m -3.667113,2.118672 h 0.492204 v 4.233212 h -0.48962 c -0.372431,-0.643986 -0.568578,-1.374747 -0.568683,-2.118672 4.5e-5,-0.742289 0.195272,-1.471516 0.566099,-2.11454 z m 2.60881,0 h 2.116606 c 0.29315,0 0.529152,0.236002 0.529152,0.529152 0,0.29315 -0.236002,0.529151 -0.529152,0.529151 h -2.116606 z m 0,2.116607 c 1.058302,0 1.058304,3.174909 2.116606,3.174909 h 1.728528 c -0.7702,0.678249 -1.760565,1.053606 -2.786831,1.056236 -1.026266,-0.0027 -2.016631,-0.377987 -2.786831,-1.056236 h 2.786831 v -1.058304 h -1.058303 z"
     id="path5249"
     style="fill:#1976d2;fill-opacity:1;stroke-width:0.132288" />
  <path
     d="m 28.575005,11.641672 h -6.614583 c -1.172634,0 -2.116667,-0.944033 -2.116667,-2.1166663 V 2.1166722 h 0.264583 l 8.466667,8.4666668 z"
     style="opacity:0.5;fill:#6f6f6f;fill-opacity:1;stroke-width:0.264583"
     id="path967" />
  <path
     d="m 28.575005,10.583339 h -6.35 c -1.172633,0 -2.116667,-0.9440333 -2.116667,-2.1166673 V 2.1166722"
     style="fill:#fafafa;stroke-width:0.264583"
     id="path995" />
</svg>
