<?xml version="1.0" encoding="UTF-8" standalone="no"?>
<!-- Created with Inkscape (http://www.inkscape.org/) -->

<svg
   width="128"
   height="128"
   viewBox="0 0 33.866666 33.866666"
   version="1.1"
   id="svg5"
   inkscape:version="1.2 (dc2aedaf03, 2022-05-15)"
   sodipodi:docname="text-x-c.svg"
   xmlns:inkscape="http://www.inkscape.org/namespaces/inkscape"
   xmlns:sodipodi="http://sodipodi.sourceforge.net/DTD/sodipodi-0.dtd"
   xmlns="http://www.w3.org/2000/svg"
   xmlns:svg="http://www.w3.org/2000/svg">
  <sodipodi:namedview
     id="namedview7"
     pagecolor="#ffffff"
     bordercolor="#666666"
     borderopacity="1.0"
     inkscape:pageshadow="2"
     inkscape:pageopacity="0.0"
     inkscape:pagecheckerboard="0"
     inkscape:document-units="px"
     showgrid="false"
     units="px"
     height="48px"
     inkscape:zoom="3.125"
     inkscape:cx="28.64"
     inkscape:cy="76.48"
     inkscape:window-width="1920"
     inkscape:window-height="1011"
     inkscape:window-x="0"
     inkscape:window-y="0"
     inkscape:window-maximized="1"
     inkscape:current-layer="svg5"
     inkscape:showpageshadow="2"
     inkscape:deskcolor="#d1d1d1" />
  <defs
     id="defs2" />
  <path
     d="M 7.2760473,1.8520891 C 6.0328287,1.8493007 5.0243005,2.8578289 5.027089,4.1010475 V 30.559381 c 0,1.245922 1.0030354,2.248958 2.2489583,2.248958 H 26.59063 c 1.245923,0 2.248958,-1.003036 2.248958,-2.248958 V 10.451047 L 20.24063,1.8520891 Z"
     style="fill:#6f6f6f;stroke-width:0.264583"
     id="path939" />
  <path
     d="m 28.575005,10.58334 v 19.049999 c 0,1.172633 -0.944033,2.116667 -2.116667,2.116667 H 7.408339 c -1.1726334,0 -2.1166667,-0.944034 -2.1166667,-2.116667 V 4.2333394 c 0,-1.1726333 0.9440333,-2.1166666 2.1166667,-2.1166666 h 12.699999"
     style="fill:#ececec;stroke-width:0.264583"
     id="path911" />
  <path
     d="m 22.912916,24.026548 c -0.04621,1.003123 -0.316706,1.890801 -0.811477,2.663031 -0.494947,0.765175 -1.191154,1.3589 -2.088621,1.781175 -0.890764,0.422275 -1.910203,0.633413 -3.058318,0.633413 -1.893711,0 -3.384903,-0.616831 -4.473575,-1.850496 -1.088673,-1.234193 -1.633009,-2.976298 -1.633009,-5.226315 v -0.712787 c 0,-1.411993 0.244123,-2.645833 0.732367,-3.701521 0.494947,-1.062214 1.204295,-1.880394 2.128044,-2.45454 0.923748,-0.580672 1.992665,-0.871008 3.20675,-0.871008 1.748543,0 3.15401,0.461875 4.2164,1.385623 1.06239,0.917222 1.666169,2.184047 1.811337,3.800475 h -3.464189 c -0.02646,-0.877358 -0.247474,-1.507419 -0.663046,-1.890183 -0.415749,-0.382764 -1.04925,-0.574146 -1.900502,-0.574146 -0.864306,0 -1.497718,0.323409 -1.900238,0.970227 -0.402519,0.646465 -0.613657,1.679046 -0.633412,3.097742 v 1.019439 c 0,1.537406 0.191382,2.636044 0.574146,3.295915 0.389114,0.659694 1.055511,0.989541 1.999191,0.989541 0.798336,0 1.408642,-0.18803 1.830917,-0.564091 0.422275,-0.376061 0.646642,-0.973314 0.6731,-1.791759 z"
     style="fill:#3f51b5;stroke-width:0.264583"
     id="path7768" />
  <path
     d="m 28.575005,11.641672 h -6.614583 c -1.172634,0 -2.116667,-0.944033 -2.116667,-2.1166663 V 2.1166722 h 0.264583 l 8.466667,8.4666668 z"
     style="opacity:0.5;fill:#6f6f6f;fill-opacity:1;stroke-width:0.264583"
     id="path967" />
  <path
     d="m 28.575005,10.583339 h -6.35 c -1.172633,0 -2.116667,-0.9440333 -2.116667,-2.1166673 V 2.1166722"
     style="fill:#fafafa;stroke-width:0.264583"
     id="path995" />
</svg>
