<?xml version="1.0" encoding="UTF-8" standalone="no"?>
<!-- Created with Inkscape (http://www.inkscape.org/) -->

<svg
   width="128"
   height="128"
   viewBox="0 0 33.866666 33.866666"
   version="1.1"
   id="svg5"
   inkscape:version="1.2 (dc2aedaf03, 2022-05-15)"
   sodipodi:docname="text-x-generic-template.svg"
   xmlns:inkscape="http://www.inkscape.org/namespaces/inkscape"
   xmlns:sodipodi="http://sodipodi.sourceforge.net/DTD/sodipodi-0.dtd"
   xmlns="http://www.w3.org/2000/svg"
   xmlns:svg="http://www.w3.org/2000/svg">
  <sodipodi:namedview
     id="namedview7"
     pagecolor="#ffffff"
     bordercolor="#666666"
     borderopacity="1.0"
     inkscape:pageshadow="2"
     inkscape:pageopacity="0.0"
     inkscape:pagecheckerboard="0"
     inkscape:document-units="px"
     showgrid="false"
     units="px"
     height="48px"
     inkscape:zoom="3.125"
     inkscape:cx="28.64"
     inkscape:cy="76.48"
     inkscape:window-width="1920"
     inkscape:window-height="1011"
     inkscape:window-x="0"
     inkscape:window-y="0"
     inkscape:window-maximized="1"
     inkscape:current-layer="svg5"
     inkscape:showpageshadow="2"
     inkscape:deskcolor="#d1d1d1" />
  <defs
     id="defs2" />
  <path
     d="M 7.2760473,1.8520891 C 6.0328287,1.8493007 5.0243005,2.8578289 5.027089,4.1010475 V 30.559381 c 0,1.245922 1.0030354,2.248958 2.2489583,2.248958 H 26.59063 c 1.245923,0 2.248958,-1.003036 2.248958,-2.248958 V 10.451047 L 20.24063,1.8520891 Z"
     style="fill:#6f6f6f;stroke-width:0.264583"
     id="path939" />
  <path
     d="m 28.575005,10.58334 v 19.049999 c 0,1.172633 -0.944033,2.116667 -2.116667,2.116667 H 7.408339 c -1.1726334,0 -2.1166667,-0.944034 -2.1166667,-2.116667 V 4.2333394 c 0,-1.1726333 0.9440333,-2.1166666 2.1166667,-2.1166666 h 12.699999"
     style="fill:#ececec;stroke-width:0.264583"
     id="path911" />
  <path
     d="m 16.938625,14.393333 c -2.338005,0 -4.233333,1.895327 -4.233333,4.233333 0.0041,1.121036 0.45277,2.194658 1.24747,2.985346 l -2.048973,2.049489 c -0.97572,-0.711781 -2.1907532,0.503242 -1.478978,1.478968 l -1.9528527,1.952863 v 2.116667 l 2.1166667,-1.058333 1.487765,-1.487779 c 1.88215,1.321668 4.220657,1.821566 6.478675,1.384935 1.167718,-0.227756 2.274364,-0.698934 3.247864,-1.382845 l 1.485696,1.485689 2.116667,1.058333 v -2.116667 l -1.952337,-1.952334 c 0.684202,-0.823093 1.206215,-1.768398 1.538409,-2.785877 0.234926,-0.687739 -0.277318,-1.402196 -1.004072,-1.400439 h -5.3e-4 -5.02e-4 c -0.46239,0.0013 -0.870419,0.302595 -1.00769,0.74414 -0.231793,0.712894 -0.583454,1.365753 -1.029396,1.938391 l -2.024681,-2.024698 c 0.794823,-0.790812 1.243461,-1.864639 1.247468,-2.985849 0,-2.338006 -1.895328,-4.233333 -4.233333,-4.233333 z m 0,2.116666 c 1.169003,0 2.116667,0.947664 2.116667,2.116667 4.8e-5,0.561264 -0.222823,1.099568 -0.619602,1.496536 h -5.02e-4 l -1.49655,-1.496536 -1.496549,1.496536 c -0.396968,-0.396883 -0.620029,-0.935198 -0.620117,-1.496536 0,-1.169003 0.947664,-2.116667 2.116666,-2.116667 z m -0.941544,6.233213 c 0.308481,0.07409 0.624312,0.113261 0.941544,0.116787 0.317233,-0.0035 0.633063,-0.0427 0.941544,-0.116787 l 2.395204,2.395194 c -0.642499,0.396584 -1.359977,0.682254 -2.12597,0.83095 -1.59249,0.309139 -3.21133,-0.0039 -4.548558,-0.829919 z"
     id="path35370"
     style="stroke-width:0.264583;fill:#9a9a9a;fill-opacity:1" />
  <path
     d="m 28.575005,11.641672 h -6.614583 c -1.172634,0 -2.116667,-0.944033 -2.116667,-2.1166663 V 2.1166722 h 0.264583 l 8.466667,8.4666668 z"
     style="opacity:0.5;fill:#6f6f6f;fill-opacity:1;stroke-width:0.264583"
     id="path967" />
  <path
     d="m 28.575005,10.583339 h -6.35 c -1.172633,0 -2.116667,-0.9440333 -2.116667,-2.1166673 V 2.1166722"
     style="fill:#fafafa;stroke-width:0.264583"
     id="path995" />
</svg>
