<?xml version="1.0" encoding="UTF-8" standalone="no"?>
<!-- Created with Inkscape (http://www.inkscape.org/) -->

<svg
   width="128"
   height="128"
   viewBox="0 0 33.866666 33.866666"
   version="1.1"
   id="svg5"
   inkscape:version="1.2 (dc2aedaf03, 2022-05-15)"
   sodipodi:docname="text-css.svg"
   xmlns:inkscape="http://www.inkscape.org/namespaces/inkscape"
   xmlns:sodipodi="http://sodipodi.sourceforge.net/DTD/sodipodi-0.dtd"
   xmlns="http://www.w3.org/2000/svg"
   xmlns:svg="http://www.w3.org/2000/svg">
  <sodipodi:namedview
     id="namedview7"
     pagecolor="#ffffff"
     bordercolor="#666666"
     borderopacity="1.0"
     inkscape:pageshadow="2"
     inkscape:pageopacity="0.0"
     inkscape:pagecheckerboard="0"
     inkscape:document-units="px"
     showgrid="false"
     units="px"
     height="48px"
     inkscape:zoom="3.125"
     inkscape:cx="-15.2"
     inkscape:cy="84.16"
     inkscape:window-width="1920"
     inkscape:window-height="1011"
     inkscape:window-x="0"
     inkscape:window-y="0"
     inkscape:window-maximized="1"
     inkscape:current-layer="svg5"
     inkscape:showpageshadow="2"
     inkscape:deskcolor="#d1d1d1" />
  <defs
     id="defs2" />
  <path
     d="M 7.2760473,1.8520891 C 6.0328287,1.8493007 5.0243005,2.8578289 5.027089,4.1010475 V 30.559381 c 0,1.245922 1.0030354,2.248958 2.2489583,2.248958 H 26.59063 c 1.245923,0 2.248958,-1.003036 2.248958,-2.248958 V 10.451047 L 20.24063,1.8520891 Z"
     style="fill:#6f6f6f;stroke-width:0.264583"
     id="path939" />
  <path
     d="m 28.575005,10.58334 v 19.049999 c 0,1.172633 -0.944033,2.116667 -2.116667,2.116667 H 7.408339 c -1.1726334,0 -2.1166667,-0.944034 -2.1166667,-2.116667 V 4.2333394 c 0,-1.1726333 0.9440333,-2.1166666 2.1166667,-2.1166666 h 12.699999"
     style="fill:#ececec;stroke-width:0.264583"
     id="path911" />
  <path
     d="m 28.575005,11.641672 h -6.614583 c -1.172634,0 -2.116667,-0.944033 -2.116667,-2.1166663 V 2.1166722 h 0.264583 l 8.466667,8.4666668 z"
     style="opacity:0.5;fill:#6f6f6f;fill-opacity:1;stroke-width:0.264583"
     id="path967" />
  <path
     d="m 28.575005,10.583339 h -6.35 c -1.172633,0 -2.116667,-0.9440333 -2.116667,-2.1166673 V 2.1166722"
     style="fill:#fafafa;stroke-width:0.264583"
     id="path995" />
  <path
     d="M 19.354344,28.406725 19.18209,27.898566 c 0.310057,-0.103346 0.532551,-0.284215 0.66748,-0.542607 0.134932,-0.255508 0.202398,-0.572717 0.202398,-0.95168 V 25.52147 c 0,-0.307181 0.0646,-0.575601 0.193784,-0.805286 0.129191,-0.229658 0.328718,-0.406214 0.59858,-0.529669 -0.269862,-0.117713 -0.469389,-0.291386 -0.59858,-0.52107 -0.129188,-0.229685 -0.193784,-0.500962 -0.193784,-0.813885 v -0.887122 c 0,-0.378962 -0.06747,-0.697626 -0.202398,-0.955992 -0.415142,-0.532287 -0.725923,-0.371671 -0.495226,-1.046427 0.556951,0.157877 0.953133,0.409072 1.188546,0.753586 0.238283,0.341657 0.357425,0.757926 0.357425,1.248833 v 0.887122 c 0,0.324406 0.07321,0.575627 0.219623,0.753613 0.146415,0.175127 0.373213,0.262678 0.680397,0.262678 v 0.633016 c -0.307184,0 -0.533982,0.09043 -0.680397,0.271303 -0.146415,0.177985 -0.219623,0.427752 -0.219623,0.7493 v 0.882809 c 0,0.48805 -0.119142,0.904319 -0.357425,1.248833 -0.235413,0.344514 -0.631595,0.59571 -1.188546,0.753613 z m -5.135189,0 C 13.659334,28.248822 13.260281,27.997626 13.021998,27.653112 12.786585,27.308598 12.668879,26.892329 12.668879,26.404279 V 25.52147 c 0,-0.321548 -0.07321,-0.571315 -0.219622,-0.7493 -0.146415,-0.180869 -0.37178,-0.271303 -0.676093,-0.271303 v -0.633016 c 0.304313,0 0.529678,-0.08755 0.676093,-0.262678 0.146415,-0.177986 0.219622,-0.429207 0.219622,-0.753613 v -0.887122 c 0,-0.490907 0.117706,-0.907176 0.353119,-1.248833 0.238283,-0.344514 0.637336,-0.595709 1.197157,-0.753586 l 0.172255,0.503819 c -0.315799,0.100489 -0.541163,0.281358 -0.676093,0.542608 -0.132061,0.258366 -0.198091,0.57703 -0.198091,0.955992 v 0.887122 c 0,0.30144 -0.06029,0.566976 -0.180866,0.79666 -0.120579,0.229685 -0.302879,0.409099 -0.546905,0.538295 0.244026,0.132054 0.426326,0.314352 0.546905,0.546894 0.120578,0.229685 0.180866,0.492363 0.180866,0.788061 v 0.882809 c 0,0.378963 0.06603,0.696172 0.198091,0.95168 0.13493,0.258392 0.360294,0.439261 0.676093,0.542607 z"
     id="path3450"
     style="font-size:33.333px;line-height:1.25;font-family:'Roboto Slab';letter-spacing:0;word-spacing:0;fill:#6f6f6f;fill-opacity:1;stroke-width:0.264583;opacity:0.7"
     sodipodi:nodetypes="cccssccssscccssccccssccccssccccssccccsssccssccc" />
</svg>
