<?xml version="1.0" encoding="UTF-8" standalone="no"?>
<!-- Created with Inkscape (http://www.inkscape.org/) -->

<svg
   width="128"
   height="128"
   viewBox="0 0 33.866666 33.866666"
   version="1.1"
   id="svg5"
   inkscape:version="1.2 (dc2aedaf03, 2022-05-15)"
   sodipodi:docname="video-x-generic.svg"
   xmlns:inkscape="http://www.inkscape.org/namespaces/inkscape"
   xmlns:sodipodi="http://sodipodi.sourceforge.net/DTD/sodipodi-0.dtd"
   xmlns="http://www.w3.org/2000/svg"
   xmlns:svg="http://www.w3.org/2000/svg">
  <sodipodi:namedview
     id="namedview7"
     pagecolor="#ffffff"
     bordercolor="#666666"
     borderopacity="1.0"
     inkscape:pageshadow="2"
     inkscape:pageopacity="0.0"
     inkscape:pagecheckerboard="0"
     inkscape:document-units="px"
     showgrid="false"
     units="px"
     height="48px"
     inkscape:zoom="6.359375"
     inkscape:cx="64.235872"
     inkscape:cy="64"
     inkscape:window-width="1920"
     inkscape:window-height="1011"
     inkscape:window-x="0"
     inkscape:window-y="0"
     inkscape:window-maximized="1"
     inkscape:current-layer="svg5"
     inkscape:showpageshadow="2"
     inkscape:deskcolor="#d1d1d1"
     showguides="false"
     inkscape:lockguides="false" />
  <defs
     id="defs2" />
  <rect
     style="opacity:1;fill:#782e11;fill-opacity:1;stroke-width:0.264583"
     id="rect845"
     width="29.633333"
     height="23.283333"
     x="2.1166666"
     y="7.4083333"
     ry="2.1166666" />
  <rect
     style="opacity:1;fill:#f15d22;fill-opacity:1;stroke-width:0.264583"
     id="rect1249"
     width="29.104166"
     height="21.960417"
     x="2.3812499"
     y="7.6729164"
     ry="1.8520833" />
  <path
     d="m 13.229164,15.345833 c -1.461246,0 -2.645831,1.184807 -2.645831,2.645831 -3.7e-4,1.257657 0.876856,2.310178 2.053106,2.579172 -0.287853,0.287059 -0.465606,0.684466 -0.465606,1.124997 v 3.175 c 0,0.879476 0.708025,1.5875 1.5875,1.5875 h 5.291669 c 0.879475,0 1.5875,-0.708024 1.5875,-1.5875 l 2.645831,1.5875 v -5.820838 l -2.645831,1.587499 v -0.529161 c 0,-0.440531 -0.177752,-0.837938 -0.465605,-1.124997 1.175924,-0.269145 2.053486,-1.321666 2.053105,-2.579172 0,-1.461032 -1.184799,-2.645831 -2.645838,-2.645831 -1.461334,-4.37e-4 -2.645831,1.184489 -2.645831,2.645831 -2.62e-4,0.865735 0.415274,1.634006 1.057815,2.116669 H 14.81718 c 0.642564,-0.482703 1.058076,-1.251101 1.057822,-2.116669 0,-1.461032 -1.184584,-2.645831 -2.645838,-2.645831 z m 0,1.5875 c 0.584414,0 1.058338,0.474004 1.058338,1.058331 4.24e-4,0.584644 -0.473614,1.058331 -1.058338,1.058331 -0.584724,0 -1.058768,-0.473695 -1.058331,-1.058331 0,-0.58432 0.473917,-1.058331 1.058331,-1.058331 z m 6.35,0 c 0.584327,0 1.058338,0.474004 1.058338,1.058331 4.67e-4,0.584636 -0.473693,1.058331 -1.058338,1.058331 -0.584946,4.33e-4 -1.058776,-0.473385 -1.058331,-1.058331 0,-0.584637 0.473702,-1.058768 1.058331,-1.058331 z"
     style="fill:#ffffff;stroke-width:0.264602"
     id="path43461" />
  <path
     d="m 4.2333333,7.6729164 c -1.0260542,0 -1.8520833,0.8260292 -1.8520833,1.8520833 V 11.90625 H 31.485416 V 9.5249997 c 0,-1.0260541 -0.826029,-1.8520833 -1.852083,-1.8520833 z"
     id="path1279"
     style="stroke-width:0.264583;fill:#000000" />
  <path
     d="M 6.8791666,7.6729165 4.7624999,11.90625 h 3.175 L 10.054167,7.6729165 Z m 6.3500004,0 L 11.1125,11.90625 h 3.175 l 2.116667,-4.2333335 z m 6.35,0 L 17.4625,11.90625 h 3.175 l 2.116667,-4.2333335 z m 6.35,0 L 23.8125,11.90625 h 3.175 l 2.116666,-4.2333335 z"
     id="path2035"
     style="fill:#f7f7f7;fill-opacity:1;stroke-width:0.264583" />
</svg>
