<?xml version="1.0" encoding="UTF-8" standalone="no"?>
<!-- Created with Inkscape (http://www.inkscape.org/) -->

<svg
   width="128"
   height="128"
   viewBox="0 0 33.866666 33.866666"
   version="1.1"
   id="svg5"
   inkscape:version="1.2 (dc2aedaf03, 2022-05-15)"
   sodipodi:docname="x-office-presentation.svg"
   xmlns:inkscape="http://www.inkscape.org/namespaces/inkscape"
   xmlns:sodipodi="http://sodipodi.sourceforge.net/DTD/sodipodi-0.dtd"
   xmlns="http://www.w3.org/2000/svg"
   xmlns:svg="http://www.w3.org/2000/svg">
  <sodipodi:namedview
     id="namedview7"
     pagecolor="#ffffff"
     bordercolor="#666666"
     borderopacity="1.0"
     inkscape:pageshadow="2"
     inkscape:pageopacity="0.0"
     inkscape:pagecheckerboard="0"
     inkscape:document-units="px"
     showgrid="false"
     units="px"
     height="48px"
     inkscape:zoom="3.125"
     inkscape:cx="28.16"
     inkscape:cy="76.48"
     inkscape:window-width="1920"
     inkscape:window-height="1009"
     inkscape:window-x="0"
     inkscape:window-y="0"
     inkscape:window-maximized="1"
     inkscape:current-layer="svg5"
     inkscape:showpageshadow="2"
     inkscape:deskcolor="#d1d1d1" />
  <defs
     id="defs2" />
  <path
     d="M 7.2760473,1.8520891 C 6.0328287,1.8493007 5.0243005,2.8578289 5.027089,4.1010475 V 30.559381 c 0,1.245922 1.0030354,2.248958 2.2489583,2.248958 H 26.59063 c 1.245923,0 2.248958,-1.003036 2.248958,-2.248958 V 10.451047 L 20.24063,1.8520891 Z"
     style="fill:#671d00;stroke-width:0.264583;fill-opacity:1"
     id="path939" />
  <path
     d="m 28.575005,10.58334 v 19.049999 c 0,1.172633 -0.944033,2.116667 -2.116667,2.116667 H 7.408339 c -1.1726334,0 -2.1166667,-0.944034 -2.1166667,-2.116667 V 4.2333394 c 0,-1.1726333 0.9440333,-2.1166666 2.1166667,-2.1166666 h 12.699999"
     style="fill:#cf3b00;stroke-width:0.264583;fill-opacity:1"
     id="path911" />
  <path
     d="m 28.575005,11.641672 h -6.614583 c -1.172634,0 -2.116667,-0.944033 -2.116667,-2.1166663 V 2.1166722 h 0.264583 l 8.466667,8.4666668 z"
     style="opacity:0.5;fill:#671d00;fill-opacity:1;stroke-width:0.264583"
     id="path967" />
  <path
     d="m 28.575005,10.583339 h -6.35 c -1.172633,0 -2.116667,-0.9440333 -2.116667,-2.1166673 V 2.1166722"
     style="fill:#f15b00;stroke-width:0.264583;fill-opacity:1"
     id="path995" />
  <path
     d="m 11.641667,13.49375 c -2.3380059,0 -4.2333338,1.895328 -4.2333338,4.233334 h 4.2333338 v 4.233333 c 2.338006,0 4.233333,-1.895328 4.233333,-4.233333 0,-2.338006 -1.895327,-4.233334 -4.233333,-4.233334 z m 6.35,1.058334 v 6.349999 h 8.466666 V 14.552084 Z M 7.4083332,23.01875 v 2.116667 H 26.458333 V 23.01875 Z m 0,4.233333 V 29.36875 H 19.05 v -2.116667 z"
     style="fill:#ffffff;stroke-width:0.264583"
     id="path467" />
</svg>
