<?xml version="1.0" encoding="UTF-8" standalone="no"?>
<!-- Created with Inkscape (http://www.inkscape.org/) -->

<svg
   width="8"
   height="8"
   viewBox="0 0 2.1166666 2.1166667"
   version="1.1"
   id="svg352"
   inkscape:version="1.2 (dc2aedaf03, 2022-05-15)"
   sodipodi:docname="emblem-downloads.svg"
   xmlns:inkscape="http://www.inkscape.org/namespaces/inkscape"
   xmlns:sodipodi="http://sodipodi.sourceforge.net/DTD/sodipodi-0.dtd"
   xmlns="http://www.w3.org/2000/svg"
   xmlns:svg="http://www.w3.org/2000/svg">
  <sodipodi:namedview
     id="namedview354"
     pagecolor="#ffffff"
     bordercolor="#000000"
     borderopacity="0.25"
     inkscape:showpageshadow="2"
     inkscape:pageopacity="0.0"
     inkscape:pagecheckerboard="0"
     inkscape:deskcolor="#d1d1d1"
     inkscape:document-units="px"
     showgrid="false"
     inkscape:zoom="36.415999"
     inkscape:cx="0.28833481"
     inkscape:cy="5.5470125"
     inkscape:window-width="1920"
     inkscape:window-height="1014"
     inkscape:window-x="0"
     inkscape:window-y="0"
     inkscape:window-maximized="1"
     inkscape:current-layer="svg352" />
  <defs
     id="defs349" />
  <rect
     style="fill:#888888;fill-opacity:1;stroke-width:0.529167"
     id="rect1756"
     width="2.1166666"
     height="2.1166666"
     x="0"
     y="0"
     ry="0.26458332" />
  <rect
     style="fill:#3f51b5;fill-opacity:1;stroke-width:0.529167"
     id="rect1971"
     width="1.8520833"
     height="1.8520833"
     x="0.13229166"
     y="0.13229166"
     ry="0.13229166" />
  <path
     d="M 0.79374999,0.26458333 V 0.79374999 H 0.52916666 L 1.0583334,1.3229166 1.5875,0.79374999 H 1.3229167 V 0.26458333 Z M 1.0583334,1.3229166 H 0.66145832 c -0.0732896,0 -0.13229166,0.059002 -0.13229166,0.1322917 0,0.07329 0.0590021,0.1322916 0.13229166,0.1322916 H 1.4552084 c 0.07329,0 0.1322916,-0.059002 0.1322916,-0.1322916 0,-0.07329 -0.059002,-0.1322917 -0.1322916,-0.1322917 z"
     style="fill:#ffffff;stroke-width:0.264583"
     id="path305" />
  <path
     id="rect1914"
     style="opacity:0.5;fill:#000000;fill-opacity:1;stroke-width:0.529167"
     d="M 0.26458333,0 C 0.11800432,0 0,0.11800432 0,0.26458333 V 1.8520833 c 0,0.146579 0.11800432,0.2645833 0.26458333,0.2645833 H 1.8520833 c 0.146579,0 0.2645833,-0.1180043 0.2645833,-0.2645833 V 0.26458333 C 2.1166666,0.11800432 1.9986623,0 1.8520833,0 Z m 0,0.26458333 H 1.8520833 V 1.8520833 H 0.26458333 Z" />
</svg>
