<?xml version="1.0" encoding="UTF-8" standalone="no"?>
<!-- Created with Inkscape (http://www.inkscape.org/) -->

<svg
   width="8"
   height="8"
   viewBox="0 0 2.1166666 2.1166667"
   version="1.1"
   id="svg352"
   inkscape:version="1.2 (dc2aedaf03, 2022-05-15)"
   sodipodi:docname="emblem-favorites.svg"
   xmlns:inkscape="http://www.inkscape.org/namespaces/inkscape"
   xmlns:sodipodi="http://sodipodi.sourceforge.net/DTD/sodipodi-0.dtd"
   xmlns="http://www.w3.org/2000/svg"
   xmlns:svg="http://www.w3.org/2000/svg">
  <sodipodi:namedview
     id="namedview354"
     pagecolor="#ffffff"
     bordercolor="#000000"
     borderopacity="0.25"
     inkscape:showpageshadow="2"
     inkscape:pageopacity="0.0"
     inkscape:pagecheckerboard="0"
     inkscape:deskcolor="#d1d1d1"
     inkscape:document-units="px"
     showgrid="false"
     inkscape:zoom="36.415999"
     inkscape:cx="3.6934316"
     inkscape:cy="5.162566"
     inkscape:window-width="1920"
     inkscape:window-height="1014"
     inkscape:window-x="0"
     inkscape:window-y="0"
     inkscape:window-maximized="1"
     inkscape:current-layer="svg352" />
  <defs
     id="defs349" />
  <rect
     style="fill:#cf3b00;fill-opacity:1;stroke-width:0.529167"
     id="rect1756"
     width="2.1166666"
     height="2.1166666"
     x="0"
     y="0"
     ry="0.26458332" />
  <path
     d="m 0.74784446,0.47969068 c -0.20081874,0 -0.36459582,0.16139583 -0.36459582,0.36168541 0,0.10398125 0.0439208,0.19896661 0.11456458,0.26511241 L 1.0492049,1.6369781 1.6188528,1.1064885 c 0.073264,-0.068685 0.1147502,-0.16468696 0.1145646,-0.26511241 0,-0.200025 -0.1640417,-0.36168541 -0.3648604,-0.36168541 -0.1322917,0 -0.2468563,0.0695854 -0.3103563,0.174625 -0.0655312,-0.1087501 -0.18338878,-0.17506384 -0.31035624,-0.174625 z"
     style="fill:#ffffff;stroke-width:0.264583"
     id="path10758" />
  <path
     id="rect1914"
     style="opacity:0.5;fill:#000000;fill-opacity:1;stroke-width:0.529167"
     d="M 0.26458333,0 C 0.11800432,0 0,0.11800432 0,0.26458333 V 1.8520833 c 0,0.146579 0.11800432,0.2645833 0.26458333,0.2645833 H 1.8520833 c 0.146579,0 0.2645833,-0.1180043 0.2645833,-0.2645833 V 0.26458333 C 2.1166666,0.11800432 1.9986623,0 1.8520833,0 Z m 0,0.26458333 H 1.8520833 V 1.8520833 H 0.26458333 Z" />
</svg>
