<?xml version="1.0" encoding="UTF-8" standalone="no"?>
<!-- Created with Inkscape (http://www.inkscape.org/) -->

<svg
   width="16"
   height="16"
   viewBox="0 0 4.2333333 4.2333333"
   version="1.1"
   id="svg5"
   inkscape:version="1.2 (dc2aedaf03, 2022-05-15)"
   sodipodi:docname="emblem-photos.svg"
   xmlns:inkscape="http://www.inkscape.org/namespaces/inkscape"
   xmlns:sodipodi="http://sodipodi.sourceforge.net/DTD/sodipodi-0.dtd"
   xmlns="http://www.w3.org/2000/svg"
   xmlns:svg="http://www.w3.org/2000/svg">
  <sodipodi:namedview
     id="namedview7"
     pagecolor="#ffffff"
     bordercolor="#666666"
     borderopacity="1.0"
     inkscape:pageshadow="2"
     inkscape:pageopacity="0.0"
     inkscape:pagecheckerboard="0"
     inkscape:document-units="px"
     showgrid="false"
     units="px"
     height="48px"
     inkscape:zoom="49.875"
     inkscape:cx="8.0100251"
     inkscape:cy="8.4411028"
     inkscape:window-width="1920"
     inkscape:window-height="1014"
     inkscape:window-x="0"
     inkscape:window-y="0"
     inkscape:window-maximized="1"
     inkscape:current-layer="svg5"
     inkscape:showpageshadow="2"
     inkscape:deskcolor="#d1d1d1" />
  <defs
     id="defs2" />
  <circle
     style="fill:#48b9c7;stroke-width:0.264583;fill-opacity:1"
     id="path934"
     cx="2.1166666"
     cy="2.1166666"
     r="2.1166666" />
  <path
     d="M 1.0583333,1.3229167 V 2.38125 L 1.4552083,1.984375 1.8520833,2.38125 2.5135416,1.7197917 3.1749999,2.38125 V 1.3229167 Z"
     style="opacity:0.5;fill:#ffffff;stroke-width:0.264583"
     id="path4226" />
  <path
     d="M 2.1166666,1.8520833 3.1749999,2.9104166 H 1.0583333 Z"
     style="fill:#ffffff;stroke-width:0.264583"
     id="path5706" />
  <path
     d="m 1.190625,0.79374999 c -0.36415929,0 -0.66145834,0.29729901 -0.66145834,0.66145831 v 1.3229166 c 0,0.3641593 0.29729905,0.6614584 0.66145834,0.6614584 h 1.8520833 c 0.3641593,0 0.6614583,-0.2972991 0.6614583,-0.6614584 V 1.4552083 c 0,-0.3641593 -0.297299,-0.66145831 -0.6614583,-0.66145831 z m 0,0.26458331 h 1.8520833 c 0.2221547,0 0.396875,0.1747176 0.396875,0.396875 v 1.3229166 c 0,0.2221574 -0.1747203,0.396875 -0.396875,0.396875 H 1.190625 c -0.22215739,0 -0.39687499,-0.1747176 -0.39687499,-0.396875 V 1.4552083 c 0,-0.2221574 0.1747176,-0.396875 0.39687499,-0.396875 z"
     style="color:#000000;fill:#ffffff;stroke:none;stroke-width:0.264583;stroke-linecap:round;-inkscape-stroke:none"
     id="path2746" />
  <path
     d="M 2.1166665,0 C 0.94766381,0 -1.2919067e-7,0.94766343 -1.2919067e-7,2.1166666 -1.2919067e-7,3.2856698 0.94766381,4.2333332 2.1166665,4.2333332 c 1.1690027,0 2.1166666,-0.9476634 2.1166666,-2.1166666 C 4.2333331,0.94766343 3.2856692,0 2.1166665,0 Z m 0,0.26458333 c 1.0228773,0 1.8520833,0.82920677 1.8520833,1.85208327 0,1.0228765 -0.829206,1.8520833 -1.8520833,1.8520833 -1.0228774,0 -1.8520833,-0.8292068 -1.8520833,-1.8520833 0,-1.0228765 0.8292059,-1.85208327 1.8520833,-1.85208327 z"
     style="fill-opacity:1;stroke-width:0.264583;fill:#000000;opacity:0.5"
     id="path911" />
</svg>
