<?xml version="1.0" encoding="UTF-8" standalone="no"?>
<!-- Created with Inkscape (http://www.inkscape.org/) -->

<svg
   width="16"
   height="16"
   viewBox="0 0 4.2333333 4.2333333"
   version="1.1"
   id="svg5"
   inkscape:version="1.2 (dc2aedaf03, 2022-05-15)"
   sodipodi:docname="emblem-shared.svg"
   xmlns:inkscape="http://www.inkscape.org/namespaces/inkscape"
   xmlns:sodipodi="http://sodipodi.sourceforge.net/DTD/sodipodi-0.dtd"
   xmlns="http://www.w3.org/2000/svg"
   xmlns:svg="http://www.w3.org/2000/svg">
  <sodipodi:namedview
     id="namedview7"
     pagecolor="#ffffff"
     bordercolor="#666666"
     borderopacity="1.0"
     inkscape:pageshadow="2"
     inkscape:pageopacity="0.0"
     inkscape:pagecheckerboard="0"
     inkscape:document-units="px"
     showgrid="false"
     units="px"
     height="48px"
     inkscape:zoom="49.875"
     inkscape:cx="8.0100251"
     inkscape:cy="8.4411028"
     inkscape:window-width="1920"
     inkscape:window-height="1014"
     inkscape:window-x="0"
     inkscape:window-y="0"
     inkscape:window-maximized="1"
     inkscape:current-layer="svg5"
     inkscape:showpageshadow="2"
     inkscape:deskcolor="#d1d1d1" />
  <defs
     id="defs2" />
  <circle
     style="fill:#3f51b5;stroke-width:0.264583;fill-opacity:1"
     id="path934"
     cx="2.1166666"
     cy="2.1166666"
     r="2.1166666" />
  <path
     d="M 2.1166665,0 C 0.94766381,0 -1.2919067e-7,0.94766343 -1.2919067e-7,2.1166666 -1.2919067e-7,3.2856698 0.94766381,4.2333332 2.1166665,4.2333332 c 1.1690027,0 2.1166666,-0.9476634 2.1166666,-2.1166666 C 4.2333331,0.94766343 3.2856692,0 2.1166665,0 Z m 0,0.26458333 c 1.0228773,0 1.8520833,0.82920677 1.8520833,1.85208327 0,1.0228765 -0.829206,1.8520833 -1.8520833,1.8520833 -1.0228774,0 -1.8520833,-0.8292068 -1.8520833,-1.8520833 0,-1.0228765 0.8292059,-1.85208327 1.8520833,-1.85208327 z"
     style="fill-opacity:1;stroke-width:0.264583;fill:#000000;opacity:0.5"
     id="path911" />
  <path
     d="m 2.6458333,1.0583333 c -0.219188,0 -0.396875,0.177687 -0.396875,0.396875 3.308e-4,0.029596 0.00397,0.059063 0.010852,0.08785 L 1.8355469,1.8066067 C 1.5756308,1.5989935 1.190625,1.7840327 1.190625,2.1166667 c 0,0.3326368 0.3850058,0.5176731 0.6449219,0.3100599 l 0.4258138,0.2645833 c -0.00747,0.02835 -0.011611,0.057504 -0.012402,0.086815 1.866e-4,0.4223014 0.5717749,0.551897 0.7544758,0.1715664 C 3.1861352,2.5693608 2.727557,2.2042702 2.3977865,2.4680651 L 1.9719727,2.2034817 c 0.00747,-0.02835 0.011611,-0.057505 0.012402,-0.086815 0,-0.030692 -0.00579,-0.058243 -0.012402,-0.086815 l 0.4258138,-0.2645834 -0.00155,-0.00258 c 0.070492,0.05753 0.1586102,0.089092 0.2495973,0.0894 0.219188,0 0.396875,-0.177687 0.396875,-0.396875 0,-0.219188 -0.177687,-0.396875 -0.396875,-0.396875 z"
     style="fill:#ffffff;stroke-width:0.264583"
     id="path11572" />
</svg>
