<?xml version="1.0" encoding="UTF-8" standalone="no"?>
<!-- Created with Inkscape (http://www.inkscape.org/) -->

<svg
   width="16"
   height="16"
   viewBox="0 0 4.2333333 4.2333333"
   version="1.1"
   id="svg5"
   inkscape:version="1.2 (dc2aedaf03, 2022-05-15)"
   sodipodi:docname="emblem-unreadable.svg"
   xmlns:inkscape="http://www.inkscape.org/namespaces/inkscape"
   xmlns:sodipodi="http://sodipodi.sourceforge.net/DTD/sodipodi-0.dtd"
   xmlns="http://www.w3.org/2000/svg"
   xmlns:svg="http://www.w3.org/2000/svg">
  <sodipodi:namedview
     id="namedview7"
     pagecolor="#ffffff"
     bordercolor="#666666"
     borderopacity="1.0"
     inkscape:pageshadow="2"
     inkscape:pageopacity="0.0"
     inkscape:pagecheckerboard="0"
     inkscape:document-units="px"
     showgrid="false"
     units="px"
     height="48px"
     inkscape:zoom="49.875"
     inkscape:cx="7.9899749"
     inkscape:cy="10.837093"
     inkscape:window-width="1920"
     inkscape:window-height="1010"
     inkscape:window-x="0"
     inkscape:window-y="0"
     inkscape:window-maximized="1"
     inkscape:current-layer="svg5"
     inkscape:showpageshadow="2"
     inkscape:deskcolor="#d1d1d1" />
  <defs
     id="defs2" />
  <circle
     style="fill:#cf3b00;stroke-width:0.264583;fill-opacity:1"
     id="path934"
     cx="2.1166666"
     cy="2.1166666"
     r="2.1166666" />
  <path
     d="M 2.1166665,0 C 0.94766381,0 -1.2919067e-7,0.94766343 -1.2919067e-7,2.1166666 -1.2919067e-7,3.2856698 0.94766381,4.2333332 2.1166665,4.2333332 c 1.1690027,0 2.1166666,-0.9476634 2.1166666,-2.1166666 C 4.2333331,0.94766343 3.2856692,0 2.1166665,0 Z m 0,0.26458333 c 1.0228773,0 1.8520833,0.82920677 1.8520833,1.85208327 0,1.0228765 -0.829206,1.8520833 -1.8520833,1.8520833 -1.0228774,0 -1.8520833,-0.8292068 -1.8520833,-1.8520833 0,-1.0228765 0.8292059,-1.85208327 1.8520833,-1.85208327 z"
     style="fill-opacity:1;stroke-width:0.264583;fill:#000000;opacity:0.5"
     id="path911" />
  <path
     d="m 1.3229167,1.0583333 c -0.1461253,0 -0.2645833,0.118458 -0.2645833,0.2645834 1.5e-5,0.070166 0.0279,0.1374529 0.077523,0.1870604 L 1.7425459,2.1166667 1.1358563,2.7233562 c -0.049622,0.049608 -0.077508,0.1168943 -0.077523,0.1870605 0,0.1461254 0.118458,0.2645833 0.2645833,0.2645833 0.070166,-1.51e-5 0.137453,-0.027901 0.1870604,-0.077523 L 2.1166667,2.4907875 2.7207105,3.0948312 c 0.049813,0.051247 0.1182388,0.080164 0.1897062,0.080169 C 3.0565421,3.1750002 3.175,3.0565423 3.175,2.9104169 3.1749849,2.8402509 3.1471,2.772964 3.097477,2.7233564 L 2.4907875,2.1166667 3.0948313,1.5126229 c 0.051247,-0.049813 0.080164,-0.1182387 0.080169,-0.1897062 0,-0.1461254 -0.1184579,-0.2645834 -0.2645833,-0.2645834 -0.070166,1.5e-5 -0.1374529,0.0279 -0.1870604,0.077523 L 2.1166667,1.7425458 1.512623,1.1385021 c -8.758e-4,-8.89e-4 -0.00176,-0.00177 -0.00265,-0.00265 C 1.46037,1.0862341 1.3930828,1.0583481 1.3229167,1.0583333 Z"
     style="fill:#fafafb;stroke-width:0.264583"
     id="path302" />
</svg>
