<?xml version="1.0" encoding="UTF-8" standalone="no"?>
<svg
   width="24"
   height="24"
   version="1.1"
   id="svg7"
   sodipodi:docname="fcitx-anthy.svg"
   inkscape:version="1.2 (dc2aedaf03, 2022-05-15)"
   xmlns:inkscape="http://www.inkscape.org/namespaces/inkscape"
   xmlns:sodipodi="http://sodipodi.sourceforge.net/DTD/sodipodi-0.dtd"
   xmlns="http://www.w3.org/2000/svg"
   xmlns:svg="http://www.w3.org/2000/svg">
  <sodipodi:namedview
     id="namedview9"
     pagecolor="#ffffff"
     bordercolor="#000000"
     borderopacity="0.25"
     inkscape:showpageshadow="2"
     inkscape:pageopacity="0.0"
     inkscape:pagecheckerboard="0"
     inkscape:deskcolor="#d1d1d1"
     showgrid="false"
     inkscape:zoom="12.125"
     inkscape:cx="-0.082474227"
     inkscape:cy="22.020619"
     inkscape:window-width="1846"
     inkscape:window-height="1011"
     inkscape:window-x="0"
     inkscape:window-y="0"
     inkscape:window-maximized="1"
     inkscape:current-layer="svg7" />
  <defs
     id="defs3">
    <style
       id="current-color-scheme"
       type="text/css">
   .ColorScheme-Text { color:#f2f2f2; } .ColorScheme-Highlight { color:#5294e2; }
  </style>
  </defs>
  <path
     style="fill:currentColor"
     class="ColorScheme-Text"
     d="M 6,4 C 4.892,4 4,4.892 4,6 v 12 c 0,1.108 0.892,2 2,2 h 12 c 1.108,0 2,-0.892 2,-2 V 6 C 20,4.892 19.108,4 18,4 Z m 4.334,2 h 1.2773 C 11.5373,6.5556 11.4078,7.1248 11.2227,7.9766 13.7297,7.875 15.609,7.7399 17,7.5762 v 1.2793 c -1.168,0.133 -3.0954,0.0662 -6.0547,0.1992 -0.2963,1.1851 -0.6865,3.2169 -1.168,4.291 l 0.1114,0.0547 c 1.3703,-0.9259 2.3358,-1.3887 3.2988,-1.3887 1.2225,0 2.1675,0.2961 2.8335,0.8887 C 16.688,13.493 17,14.252 17,15.178 17,16.252 16.596,16.667 15.744,17.223 14.929,17.741 13.7058,18 12.0762,18 11.054,18 10.1191,18.006 9,17.945 v -1.447 c 0.9443,0.191 1.8385,0.225 2.9648,0.225 1.1852,0 2.0752,-0.149 2.6682,-0.446 0.629,-0.333 0.943,-0.433 0.943,-1.099 0,-0.593 -0.204,-1.056 -0.611,-1.3889 -0.408,-0.3704 -0.9997,-0.5547 -1.7775,-0.5547 -1.5185,0 -2.7428,0.6467 -4.0762,1.9436 l -1,-0.778 C 8.7039,13.4378 9.2216,10.9747 9.666,9.0117 H 7 V 7.9805 C 7.9591,7.9759 8.9321,7.9653 9.9453,7.9336 Z"
     id="path5" />
</svg>
