<?xml version="1.0" encoding="UTF-8" standalone="no"?>
<svg
   viewBox="0 0 16 16.003"
   version="1.1"
   id="svg6"
   sodipodi:docname="edit-move.svg"
   inkscape:version="1.2 (dc2aedaf03, 2022-05-15)"
   xmlns:inkscape="http://www.inkscape.org/namespaces/inkscape"
   xmlns:sodipodi="http://sodipodi.sourceforge.net/DTD/sodipodi-0.dtd"
   xmlns="http://www.w3.org/2000/svg"
   xmlns:svg="http://www.w3.org/2000/svg">
  <defs
     id="defs10" />
  <sodipodi:namedview
     id="namedview8"
     pagecolor="#ffffff"
     bordercolor="#000000"
     borderopacity="0.25"
     inkscape:showpageshadow="2"
     inkscape:pageopacity="0.0"
     inkscape:pagecheckerboard="0"
     inkscape:deskcolor="#d1d1d1"
     showgrid="false"
     inkscape:zoom="51.052927"
     inkscape:cx="8.0015001"
     inkscape:cy="8.0015001"
     inkscape:window-width="1920"
     inkscape:window-height="1010"
     inkscape:window-x="0"
     inkscape:window-y="0"
     inkscape:window-maximized="1"
     inkscape:current-layer="svg6" />
  <path
     color="#bebebe"
     d="M16 0H0v16h16z"
     fill="gray"
     fill-opacity=".01"
     id="path2" />
  <path
     color="#000000"
     d="M 6,4 C 6,4 5,4 5,5 v 10 c 0,1 1,1 1,1 h 8 c 0,0 1,0 1,-1.003 V 5 C 15,4 14,4 14,4 Z m 1,2 h 6 v 8 H 7 Z"
     fill="#232323"
     id="path4"
     sodipodi:nodetypes="cssccssccccccc" />
  <path
     d="M 3,1 C 3,1 2,1 2,2 v 9 c 0,0 0,1 1,1 H 4 V 3 h 8 V 2 C 12,1 11,1 11,1 Z"
     style="color:#000000;opacity:0.35;fill:#232323"
     id="path298" />
</svg>
