<?xml version="1.0" encoding="UTF-8" standalone="no"?>
<svg
   viewBox="0 0 16 16.003"
   version="1.1"
   id="svg375"
   sodipodi:docname="im-user-online.svg"
   inkscape:version="1.2 (dc2aedaf03, 2022-05-15)"
   xmlns:inkscape="http://www.inkscape.org/namespaces/inkscape"
   xmlns:sodipodi="http://sodipodi.sourceforge.net/DTD/sodipodi-0.dtd"
   xmlns="http://www.w3.org/2000/svg"
   xmlns:svg="http://www.w3.org/2000/svg">
  <defs
     id="defs379" />
  <sodipodi:namedview
     id="namedview377"
     pagecolor="#ffffff"
     bordercolor="#000000"
     borderopacity="0.25"
     inkscape:showpageshadow="2"
     inkscape:pageopacity="0.0"
     inkscape:pagecheckerboard="0"
     inkscape:deskcolor="#d1d1d1"
     showgrid="false"
     inkscape:zoom="47.428606"
     inkscape:cx="7.990958"
     inkscape:cy="10.521077"
     inkscape:window-width="1920"
     inkscape:window-height="1009"
     inkscape:window-x="0"
     inkscape:window-y="0"
     inkscape:window-maximized="1"
     inkscape:current-layer="svg375" />
  <path
     color="#bebebe"
     d="M0 0h16v16H0z"
     fill="gray"
     fill-opacity=".01"
     id="path369" />
  <path
     color="#000"
     d="M453-213a3 3 0 1 0 0 6 3 3 0 0 0 0-6zm0 8c-6 .003-6 4.004-6 4.004v1h6.762a4.5 4.5 0 0 1-.762-2.5 4.5 4.5 0 0 1 .742-2.473c-.24-.014-.479-.031-.742-.031z"
     fill="#232323"
     style="text-decoration-line:none;text-indent:0;text-transform:none"
     transform="translate(-445 215)"
     id="path371" />
  <path
     id="path612"
     style="opacity:1;fill:#232323;stroke-width:2;fill-opacity:1"
     d="M 12.5 9 A 3.5 3.5015001 0 0 0 9 12.501953 A 3.5 3.5015001 0 0 0 12.5 16.003906 A 3.5 3.5015001 0 0 0 16 12.501953 A 3.5 3.5015001 0 0 0 12.5 9 z M 14.25 10.25 L 15 11 L 12 14 L 10 12 L 10.75 11.25 L 12 12.5 L 14.25 10.25 z " />
</svg>
