<?xml version="1.0" encoding="UTF-8" standalone="no"?>
<svg
   width="16"
   height="16"
   version="1.1"
   id="svg7"
   sodipodi:docname="view-sort.svg"
   inkscape:version="1.2 (dc2aedaf03, 2022-05-15)"
   xmlns:inkscape="http://www.inkscape.org/namespaces/inkscape"
   xmlns:sodipodi="http://sodipodi.sourceforge.net/DTD/sodipodi-0.dtd"
   xmlns="http://www.w3.org/2000/svg"
   xmlns:svg="http://www.w3.org/2000/svg">
  <sodipodi:namedview
     id="namedview9"
     pagecolor="#ffffff"
     bordercolor="#000000"
     borderopacity="0.25"
     inkscape:showpageshadow="2"
     inkscape:pageopacity="0.0"
     inkscape:pagecheckerboard="0"
     inkscape:deskcolor="#d1d1d1"
     showgrid="false"
     inkscape:zoom="33.543378"
     inkscape:cx="5.0680644"
     inkscape:cy="9.3908252"
     inkscape:window-width="1920"
     inkscape:window-height="1009"
     inkscape:window-x="0"
     inkscape:window-y="0"
     inkscape:window-maximized="1"
     inkscape:current-layer="svg7" />
  <defs
     id="defs3">
    <style
       id="current-color-scheme"
       type="text/css">
   .ColorScheme-Text { color:#232323; } .ColorScheme-Highlight { color:#4285f4; } .ColorScheme-NeutralText { color:#ff9800; } .ColorScheme-PositiveText { color:#4caf50; } .ColorScheme-NegativeText { color:#f44336; }
  </style>
  </defs>
  <path
     id="path5"
     style="fill:currentColor"
     class="ColorScheme-Text"
     d="M 11 1 L 8 5 L 10 5 L 10 7 A 1 1 0 0 0 11 8 A 1 1 0 0 0 12 7 L 12 5 L 14 5 L 11 1 z M 2.5 2 C 1.6715737 2 1 2.6715737 1 3.5 C 1 4.3284263 1.6715737 5 2.5 5 C 3.3284263 5 4 4.3284263 4 3.5 C 4 2.6715737 3.3284263 2 2.5 2 z M 2.5 6 C 1.6715737 6 1 6.6715737 1 7.5 C 1 8.3284263 1.6715737 9 2.5 9 C 3.3284263 9 4 8.3284263 4 7.5 C 4 6.6715737 3.3284263 6 2.5 6 z M 8 7 A 1 1 0 0 0 7 8 L 7 10 L 5 10 L 8 14 L 11 10 L 9 10 L 9 8 A 1 1 0 0 0 8 7 z M 2.5 10 C 1.6715737 10 1 10.671574 1 11.5 C 1 12.328426 1.6715737 13 2.5 13 C 3.3284263 13 4 12.328426 4 11.5 C 4 10.671574 3.3284263 10 2.5 10 z " />
</svg>
