<?xml version="1.0" encoding="UTF-8" standalone="no"?>
<!-- Created with Inkscape (http://www.inkscape.org/) -->

<svg
   width="16"
   height="16"
   viewBox="0 0 16 16.000001"
   version="1.1"
   id="svg5"
   inkscape:version="1.2 (dc2aedaf03, 2022-05-15)"
   sodipodi:docname="archive-manager-symbolic.svg"
   xmlns:inkscape="http://www.inkscape.org/namespaces/inkscape"
   xmlns:sodipodi="http://sodipodi.sourceforge.net/DTD/sodipodi-0.dtd"
   xmlns="http://www.w3.org/2000/svg"
   xmlns:svg="http://www.w3.org/2000/svg">
  <sodipodi:namedview
     id="namedview7"
     pagecolor="#ffffff"
     bordercolor="#000000"
     borderopacity="0.25"
     inkscape:showpageshadow="2"
     inkscape:pageopacity="0.0"
     inkscape:pagecheckerboard="0"
     inkscape:deskcolor="#d1d1d1"
     inkscape:document-units="px"
     showgrid="false"
     inkscape:zoom="51.4375"
     inkscape:cx="8"
     inkscape:cy="8"
     inkscape:window-width="1846"
     inkscape:window-height="1011"
     inkscape:window-x="0"
     inkscape:window-y="0"
     inkscape:window-maximized="1"
     inkscape:current-layer="svg5" />
  <defs
     id="defs2" />
  <path
     id="rect184"
     style="fill:#232320;fill-opacity:1;stroke-width:2;stroke-linejoin:round"
     d="M 3,1 C 1.8920011,1 1,1.8920011 1,3 v 10 c 0,1.107999 0.8920011,2 2,2 H 7 V 14 H 8 V 13 H 7 V 12 H 8 V 11 H 7 V 10 H 8 V 9 H 7 V 8 H 8 V 7 H 7 V 6 H 8 V 5 H 7 V 4 H 8 V 3 H 7 V 2 H 8 V 1 Z M 8,2 V 3 H 9 V 4 H 8 V 5 H 9 V 6 H 8 V 7 H 9 V 8 H 8 v 1 h 1 v 1 H 8 v 1 h 1 v 1 H 8 v 1 h 1 v 1 H 8 v 1 h 5 c 1.107999,0 2,-0.892001 2,-2 V 3 C 15,1.8920011 14.107999,1 13,1 H 9 v 1 z" />
</svg>
