<?xml version="1.0" encoding="UTF-8" standalone="no"?>
<!-- Created with Inkscape (http://www.inkscape.org/) -->

<svg
   width="16"
   height="16"
   viewBox="0 0 4.2333333 4.2333333"
   version="1.1"
   id="svg5"
   inkscape:version="1.2 (dc2aedaf03, 2022-05-15)"
   sodipodi:docname="KakaoTalk-symbolic.svg"
   xmlns:inkscape="http://www.inkscape.org/namespaces/inkscape"
   xmlns:sodipodi="http://sodipodi.sourceforge.net/DTD/sodipodi-0.dtd"
   xmlns="http://www.w3.org/2000/svg"
   xmlns:svg="http://www.w3.org/2000/svg">
  <sodipodi:namedview
     id="namedview7"
     pagecolor="#ffffff"
     bordercolor="#666666"
     borderopacity="1.0"
     inkscape:pageshadow="2"
     inkscape:pageopacity="0.0"
     inkscape:pagecheckerboard="0"
     inkscape:document-units="px"
     showgrid="false"
     units="px"
     height="48px"
     inkscape:zoom="25.03125"
     inkscape:cx="3.196005"
     inkscape:cy="10.826467"
     inkscape:window-width="1846"
     inkscape:window-height="1011"
     inkscape:window-x="0"
     inkscape:window-y="0"
     inkscape:window-maximized="1"
     inkscape:current-layer="svg5"
     inkscape:showpageshadow="2"
     inkscape:deskcolor="#d1d1d1" />
  <defs
     id="defs2" />
  <path
     id="rect1162"
     style="opacity:1;fill:#232323;fill-opacity:1;stroke-width:0.264583"
     d="M 0.79374999 0.26458333 C 0.50059197 0.26458333 0.26458333 0.50059197 0.26458333 0.79374999 L 0.26458333 3.4395833 C 0.26458333 3.7327413 0.50059197 3.96875 0.79374999 3.96875 L 3.4395833 3.96875 C 3.7327413 3.96875 3.96875 3.7327413 3.96875 3.4395833 L 3.96875 0.79374999 C 3.96875 0.50059197 3.7327413 0.26458333 3.4395833 0.26458333 L 0.79374999 0.26458333 z M 2.1166667 0.79374999 C 2.8472925 0.79375009 3.4395834 1.2871531 3.4395833 1.8960083 C 3.4395832 2.5048631 2.8472924 2.9987833 2.1166667 2.9987833 C 1.9699301 2.9978723 1.8245697 2.9764531 1.686202 2.9357381 L 1.0583333 3.4395833 L 1.1467 2.6432495 C 0.92046154 2.4400495 0.79455379 2.1731977 0.79374999 1.8960083 C 0.79374989 1.2871531 1.3860406 0.79374999 2.1166667 0.79374999 z " />
</svg>
