<?xml version="1.0" encoding="UTF-8" standalone="no"?>
<!-- Created with Inkscape (http://www.inkscape.org/) -->

<svg
   width="24"
   height="24"
   viewBox="0 0 6.3499999 6.3499999"
   version="1.1"
   id="svg5"
   inkscape:version="1.2 (dc2aedaf03, 2022-05-15)"
   sodipodi:docname="system-logout.svg"
   xmlns:inkscape="http://www.inkscape.org/namespaces/inkscape"
   xmlns:sodipodi="http://sodipodi.sourceforge.net/DTD/sodipodi-0.dtd"
   xmlns="http://www.w3.org/2000/svg"
   xmlns:svg="http://www.w3.org/2000/svg">
  <sodipodi:namedview
     id="namedview7"
     pagecolor="#ffffff"
     bordercolor="#666666"
     borderopacity="1.0"
     inkscape:pageshadow="2"
     inkscape:pageopacity="0.0"
     inkscape:pagecheckerboard="0"
     inkscape:document-units="px"
     showgrid="false"
     units="px"
     height="48px"
     inkscape:zoom="34.041667"
     inkscape:cx="11.985312"
     inkscape:cy="12"
     inkscape:window-width="1920"
     inkscape:window-height="1010"
     inkscape:window-x="0"
     inkscape:window-y="0"
     inkscape:window-maximized="1"
     inkscape:current-layer="svg5"
     showguides="true"
     inkscape:showpageshadow="2"
     inkscape:deskcolor="#d1d1d1" />
  <defs
     id="defs2" />
  <circle
     style="fill:#faa41a;fill-opacity:1;stroke-width:0.747114"
     id="path1430"
     cx="3.175"
     cy="3.175"
     r="3.175" />
  <path
     id="path1556"
     style="opacity:0.5;fill:#000000;fill-opacity:1;stroke-width:0.634999"
     d="M 3.175 0 A 3.175 3.175 0 0 0 0 3.175 A 3.175 3.175 0 0 0 3.175 6.3499999 A 3.175 3.175 0 0 0 6.3499999 3.175 A 3.175 3.175 0 0 0 3.175 0 z M 3.175 0.26458333 A 2.9104166 2.9104166 0 0 1 6.0854166 3.175 A 2.9104166 2.9104166 0 0 1 3.175 6.0854166 A 2.9104166 2.9104166 0 0 1 0.26458333 3.175 A 2.9104166 2.9104166 0 0 1 3.175 0.26458333 z " />
  <path
     d="m 4.5032188,2.3775302 1.0583333,0.79375 -1.0583333,0.79375 V 3.4358635 H 3.4448855 V 2.9066969 H 4.5032188 Z M 4.2889063,2.1576614 c 1.06e-5,-0.078196 -0.034569,-0.152391 -0.094456,-0.2026708 -0.00969,-0.00813 -0.019944,-0.01556 -0.030692,-0.022225 C 3.767384,1.6172706 3.2441842,1.5100157 2.7556459,1.6441052 2.0658287,1.8359723 1.5894189,2.4653359 1.5920084,3.1813343 1.5960384,3.8973921 2.0784785,4.5223048 2.770198,4.707451 3.2563085,4.8356554 3.774415,4.726027 4.1669334,4.4119114 4.2427474,4.3633974 4.2886986,4.279669 4.2889063,4.1896614 4.2889063,4.043536 4.1704484,3.9250781 4.024323,3.9250781 3.96058,3.9249871 3.8989462,3.9479111 3.8507563,3.9896361 3.5879658,4.2072472 3.2361179,4.2842415 2.9064584,4.196276 2.4446242,4.0738059 2.1225718,3.6564831 2.1211751,3.1786885 2.1179974,2.7008616 2.4360147,2.2804181 2.8966688,2.1534281 3.2293749,2.0610457 3.586232,2.1373388 3.8520792,2.3576864 l 0.00212,0.00212 c 1.765e-4,3e-7 3.439e-4,3e-7 5.292e-4,0 0.047451,0.040075 0.1074885,0.062179 0.1695979,0.062442 0.1461254,0 0.2645833,-0.118458 0.2645833,-0.2645834 z"
     style="color:#bebebe;fill:#ffffff;stroke-width:0.264583"
     id="path4599" />
</svg>
