<?xml version="1.0" encoding="UTF-8" standalone="no"?>
<!-- Created with Inkscape (http://www.inkscape.org/) -->

<svg
   width="24"
   height="24"
   viewBox="0 0 6.3499999 6.3499999"
   version="1.1"
   id="svg5"
   inkscape:version="1.2 (dc2aedaf03, 2022-05-15)"
   sodipodi:docname="system-reboot.svg"
   xmlns:inkscape="http://www.inkscape.org/namespaces/inkscape"
   xmlns:sodipodi="http://sodipodi.sourceforge.net/DTD/sodipodi-0.dtd"
   xmlns="http://www.w3.org/2000/svg"
   xmlns:svg="http://www.w3.org/2000/svg">
  <sodipodi:namedview
     id="namedview7"
     pagecolor="#ffffff"
     bordercolor="#666666"
     borderopacity="1.0"
     inkscape:pageshadow="2"
     inkscape:pageopacity="0.0"
     inkscape:pagecheckerboard="0"
     inkscape:document-units="px"
     showgrid="false"
     units="px"
     height="48px"
     inkscape:zoom="34.041667"
     inkscape:cx="11.985312"
     inkscape:cy="12"
     inkscape:window-width="1920"
     inkscape:window-height="1010"
     inkscape:window-x="0"
     inkscape:window-y="0"
     inkscape:window-maximized="1"
     inkscape:current-layer="svg5"
     showguides="true"
     inkscape:showpageshadow="2"
     inkscape:deskcolor="#d1d1d1" />
  <defs
     id="defs2" />
  <circle
     style="fill:#73c48f;fill-opacity:1;stroke-width:0.747114"
     id="path1430"
     cx="3.175"
     cy="3.175"
     r="3.175" />
  <path
     id="path1556"
     style="opacity:0.5;fill:#000000;fill-opacity:1;stroke-width:0.634999"
     d="M 3.175 0 A 3.175 3.175 0 0 0 0 3.175 A 3.175 3.175 0 0 0 3.175 6.3499999 A 3.175 3.175 0 0 0 6.3499999 3.175 A 3.175 3.175 0 0 0 3.175 0 z M 3.175 0.26458333 A 2.9104166 2.9104166 0 0 1 6.0854166 3.175 A 2.9104166 2.9104166 0 0 1 3.175 6.0854166 A 2.9104166 2.9104166 0 0 1 0.26458333 3.175 A 2.9104166 2.9104166 0 0 1 3.175 0.26458333 z " />
  <path
     d="m 3.1749999,1.5874999 c -0.1461254,0 -0.2645833,0.1184579 -0.2645833,0.2645834 0,0.1461254 0.1184579,0.2645834 0.2645833,0.2645834 0.5845014,0 1.0583333,0.4738319 1.0583333,1.0583333 H 3.7041666 L 4.4979166,4.2333332 5.2916666,3.175 H 4.7624999 c 0,-0.8767519 -0.7107481,-1.5875 -1.5875,-1.5875001 z M 1.8520833,2.1166667 1.0583333,3.175 h 0.5291666 c 0,0.8767519 0.7107481,1.5874999 1.5875,1.5874999 0.1461254,0 0.2645833,-0.1184579 0.2645833,-0.2645834 0,-0.1461254 -0.1184579,-0.2645833 -0.2645833,-0.2645833 -0.5845013,0 -1.0583333,-0.4738319 -1.0583333,-1.0583333 h 0.5291667 z"
     style="fill:#ffffff;fill-opacity:0.902;stroke-width:0.264583"
     id="path4815" />
</svg>
