<?xml version="1.0" encoding="UTF-8" standalone="no"?>
<!-- Created with Inkscape (http://www.inkscape.org/) -->

<svg
   width="64"
   height="64"
   viewBox="0 0 16.933333 16.933333"
   version="1.1"
   id="svg5"
   inkscape:version="1.2 (dc2aedaf03, 2022-05-15)"
   sodipodi:docname="audio-card.svg"
   xmlns:inkscape="http://www.inkscape.org/namespaces/inkscape"
   xmlns:sodipodi="http://sodipodi.sourceforge.net/DTD/sodipodi-0.dtd"
   xmlns="http://www.w3.org/2000/svg"
   xmlns:svg="http://www.w3.org/2000/svg">
  <sodipodi:namedview
     id="namedview7"
     pagecolor="#ffffff"
     bordercolor="#666666"
     borderopacity="1.0"
     inkscape:pageshadow="2"
     inkscape:pageopacity="0.0"
     inkscape:pagecheckerboard="0"
     inkscape:document-units="px"
     showgrid="false"
     units="px"
     height="48px"
     inkscape:zoom="12.46875"
     inkscape:cx="32.080201"
     inkscape:cy="32"
     inkscape:window-width="1920"
     inkscape:window-height="1011"
     inkscape:window-x="0"
     inkscape:window-y="0"
     inkscape:window-maximized="1"
     inkscape:current-layer="svg5"
     inkscape:showpageshadow="2"
     inkscape:deskcolor="#d1d1d1" />
  <defs
     id="defs2" />
  <rect
     style="opacity:1;fill:#767676;fill-opacity:1;stroke-width:0.264583"
     id="rect845"
     width="13.758333"
     height="13.758333"
     x="1.5874994"
     y="1.5874999"
     ry="1.0583333" />
  <rect
     style="opacity:1;fill:#ececec;fill-opacity:1;stroke-width:0.264583"
     id="rect1249"
     width="13.229166"
     height="10.054167"
     x="1.8520833"
     y="1.8520833"
     ry="0.92604166" />
  <path
     d="M 8.4650789,5.0270832 7.1421623,6.5391346 V 6.3499998 c 0,-0.1465791 -0.1180042,-0.2645833 -0.2645833,-0.2645833 -0.1465792,0 -0.2645834,0.1180042 -0.2645834,0.2645833 v 1.5875 c 0,0.1465792 0.1180042,0.2645834 0.2645834,0.2645834 0.1465791,0 0.2645833,-0.1180042 0.2645833,-0.2645834 V 7.7483651 L 8.4650789,9.2604165 Z M 10.052578,5.2916665 9.5993763,5.5640022 c 0.247121,0.411427 0.4532017,1.0997935 0.4532017,1.5797476 0,0.4802188 -0.2060807,1.1683207 -0.4532017,1.5797477 l 0.4532017,0.2723357 c 0.296863,-0.4937125 0.529167,-1.2760855 0.529167,-1.8520834 0,-0.5759979 -0.232304,-1.3583708 -0.529167,-1.8520833 z M 9.1926826,5.6885415 8.738965,5.9608771 c 0.1733021,0.2878667 0.2552806,0.8468519 0.2552806,1.1828727 0,0.3360209 -0.081978,0.8950061 -0.2552806,1.1828727 l 0.4537176,0.2723357 c 0.22225,-0.3704167 0.3307287,-1.0231438 0.3307287,-1.4552084 0,-0.4320645 -0.1084787,-1.0847916 -0.3307287,-1.4552083 z"
     id="path1408"
     style="fill:#474341;fill-opacity:1;stroke-width:0.264583" />
  <circle
     style="opacity:1;fill:#73c48f;fill-opacity:1;stroke-width:0.163976"
     id="path10117"
     cx="4.2333331"
     cy="13.49375"
     r="1.0583333" />
  <ellipse
     style="opacity:1;fill:#ff793e;fill-opacity:1;stroke-width:0.264583"
     id="path11625"
     cx="8.4666662"
     cy="13.49375"
     rx="1.0583334"
     ry="1.0583333" />
  <ellipse
     style="opacity:1;fill:#67d8e6;fill-opacity:1;stroke-width:0.264583"
     id="path13551"
     cx="12.7"
     cy="13.49375"
     rx="1.0583334"
     ry="1.0583333" />
</svg>
