<?xml version="1.0" encoding="UTF-8" standalone="no"?>
<!-- Created with Inkscape (http://www.inkscape.org/) -->

<svg
   width="64"
   height="64"
   viewBox="0 0 16.933333 16.933333"
   version="1.1"
   id="svg5"
   inkscape:version="1.2 (dc2aedaf03, 2022-05-15)"
   sodipodi:docname="input-mouse.svg"
   xmlns:inkscape="http://www.inkscape.org/namespaces/inkscape"
   xmlns:sodipodi="http://sodipodi.sourceforge.net/DTD/sodipodi-0.dtd"
   xmlns="http://www.w3.org/2000/svg"
   xmlns:svg="http://www.w3.org/2000/svg">
  <sodipodi:namedview
     id="namedview7"
     pagecolor="#ffffff"
     bordercolor="#666666"
     borderopacity="1.0"
     inkscape:pageshadow="2"
     inkscape:pageopacity="0.0"
     inkscape:pagecheckerboard="0"
     inkscape:document-units="px"
     showgrid="false"
     units="px"
     height="48px"
     inkscape:zoom="7.9328542"
     inkscape:cx="18.908705"
     inkscape:cy="37.943468"
     inkscape:window-width="1920"
     inkscape:window-height="1009"
     inkscape:window-x="0"
     inkscape:window-y="0"
     inkscape:window-maximized="1"
     inkscape:current-layer="svg5"
     showguides="false"
     inkscape:showpageshadow="2"
     inkscape:deskcolor="#d1d1d1" />
  <defs
     id="defs2" />
  <rect
     style="opacity:1;fill:#98989d;fill-opacity:1;stroke-width:0.345993"
     id="rect1319"
     width="8.9958334"
     height="15.875"
     x="3.96875"
     y="0.52916664"
     ry="4.4979167" />
  <path
     d="M 8.4666666,0.52916664 C 5.9748208,0.52916664 3.96875,2.5352374 3.96875,5.0270832 V 11.90625 c 0,2.491846 2.0060708,4.497916 4.4979166,4.497916 2.4918454,0 4.4979164,-2.00607 4.4979164,-4.497916 V 5.0270832 c 0,-2.4918458 -2.006071,-4.49791656 -4.4979164,-4.49791656 z m 0,0.2645833 C 10.811933,0.79374994 12.7,2.6818165 12.7,5.0270832 V 11.1125 c 0,2.345266 -1.888067,4.233333 -4.2333334,4.233333 -2.3452667,0 -4.2333333,-1.888067 -4.2333333,-4.233333 V 5.0270832 c 0,-2.3452667 1.8880666,-4.23333326 4.2333333,-4.23333326 z"
     style="opacity:0.5;fill:#000000;fill-opacity:1;stroke-width:0.264583"
     id="path356" />
  <path
     d="M 8.4666668,0.52916667 V 16.404167 c 1.2757416,0 2.4241572,-0.525811 3.2412352,-1.373422 0.778883,-0.807986 1.256682,-1.90839 1.256682,-3.124494 V 5.027083 c 0,-2.4918457 -2.006071,-4.49791633 -4.4979172,-4.49791633 z"
     style="fill:#ffffff;fill-opacity:0.2;stroke-width:0.345993"
     id="path15973"
     sodipodi:nodetypes="ccsssc" />
  <rect
     style="opacity:0.4;fill:#ffffff;fill-opacity:1;stroke-width:0.529167"
     id="rect20137"
     width="1.5875"
     height="4.7624998"
     x="7.6729169"
     y="2.1166666"
     ry="0.79374999" />
  <rect
     style="opacity:1;fill:#343434;fill-opacity:1;stroke-width:0.529167"
     id="rect24547"
     width="1.0583333"
     height="3.96875"
     x="7.9375005"
     y="2.6458333"
     ry="0.52916664" />
</svg>
