<?xml version="1.0" encoding="UTF-8" standalone="no"?>
<!-- Created with Inkscape (http://www.inkscape.org/) -->

<svg
   width="64"
   height="64"
   viewBox="0 0 16.933333 16.933333"
   version="1.1"
   id="svg5"
   inkscape:version="1.2 (dc2aedaf03, 2022-05-15)"
   sodipodi:docname="input-tablet.svg"
   xmlns:inkscape="http://www.inkscape.org/namespaces/inkscape"
   xmlns:sodipodi="http://sodipodi.sourceforge.net/DTD/sodipodi-0.dtd"
   xmlns="http://www.w3.org/2000/svg"
   xmlns:svg="http://www.w3.org/2000/svg">
  <sodipodi:namedview
     id="namedview7"
     pagecolor="#ffffff"
     bordercolor="#666666"
     borderopacity="1.0"
     inkscape:pageshadow="2"
     inkscape:pageopacity="0.0"
     inkscape:pagecheckerboard="0"
     inkscape:document-units="px"
     showgrid="false"
     units="px"
     height="48px"
     inkscape:zoom="12.46875"
     inkscape:cx="32"
     inkscape:cy="32"
     inkscape:window-width="1920"
     inkscape:window-height="1009"
     inkscape:window-x="0"
     inkscape:window-y="0"
     inkscape:window-maximized="1"
     inkscape:current-layer="svg5"
     inkscape:showpageshadow="2"
     inkscape:deskcolor="#d1d1d1" />
  <defs
     id="defs2" />
  <rect
     style="opacity:1;fill:#98989d;fill-opacity:1;stroke-width:0.264583"
     id="rect1249"
     width="11.641666"
     height="14.816667"
     x="2.6458333"
     y="1.0583333"
     ry="1.0583333" />
  <path
     d="M 7.9627174,4.8616425 C 7.0476348,4.8192668 5.9824276,5.1749356 4.8352604,6.0636366 L 5.4832832,6.9007941 C 6.4886311,6.1219614 7.3115699,5.8910383 7.9141426,5.9189413 8.5167152,5.9468469 8.9269781,6.2214738 9.1719479,6.57265 9.416915,6.9238235 9.4728982,7.3437887 9.350748,7.6599208 9.2285978,7.9760529 8.9552886,8.2545162 8.2701924,8.3384315 H 8.2696632 C 6.0298118,8.6128441 5.109681,10.232255 5.3153204,11.514981 c 0.1028224,0.641366 0.4655529,1.234491 1.0795212,1.481048 0.6139683,0.246557 1.3807757,0.04613 2.0376012,-0.572058 0.4858782,-0.457298 0.8845444,-0.583944 1.2474707,-0.583944 0.3629235,0 0.7219715,0.146249 1.0521315,0.371036 0.660319,0.44958 1.122413,1.166339 1.122413,1.166339 l 0.897102,-0.561208 c 0,0 -0.530095,-0.870741 -1.424202,-1.479494 -0.447053,-0.304379 -1.005782,-0.555006 -1.6474445,-0.555006 -0.6416648,0 -1.3344075,0.27023 -1.9730058,0.871265 C 7.2392566,12.093101 6.9701119,12.086855 6.7891343,12.014176 6.608154,11.941498 6.4171089,11.701891 6.3602182,11.347035 6.2464527,10.637398 6.582918,9.6111249 8.398338,9.3884966 9.373235,9.2690822 10.071306,8.7313906 10.337755,8.0418098 10.604201,7.3522289 10.465747,6.5771902 10.040099,5.9670002 9.6144477,5.3568128 8.8777895,4.9040181 7.9627042,4.8616425 Z"
     style="color:#000000;fill:#000000;stroke-width:0.264583;-inkscape-stroke:none"
     id="path8356" />
  <path
     d="m 3.7041668,1.0583333 c -0.5863167,0 -1.0583333,0.4720167 -1.0583333,1.0583333 v 1.5875 H 14.2875 v -1.5875 c 0,-0.5863166 -0.472016,-1.0583333 -1.058333,-1.0583333 z"
     style="fill:#bcbcc0;stroke-width:0.264583"
     id="path1035" />
  <path
     d="m 3.7041673,1.0583333 c -0.5863167,0 -1.0583334,0.4720167 -1.0583334,1.0583333 V 14.816666 c 0,0.586317 0.4720167,1.058334 1.0583334,1.058334 h 9.5249997 c 0.586317,0 1.058333,-0.472017 1.058333,-1.058334 V 2.1166666 c 0,-0.5863166 -0.472016,-1.0583333 -1.058333,-1.0583333 z m 0,0.2645833 h 9.5249997 c 0.439738,0 0.79375,0.3540125 0.79375,0.79375 V 14.2875 c 0,0.439737 -0.354012,0.79375 -0.79375,0.79375 H 3.7041673 c -0.4397375,0 -0.79375,-0.354013 -0.79375,-0.79375 V 2.1166666 c 0,-0.4397375 0.3540125,-0.79375 0.79375,-0.79375 z"
     style="fill-opacity:1;stroke-width:0.264583;fill:#000000;opacity:0.5"
     id="path7235" />
  <circle
     style="opacity:1;fill:#ffca40;fill-opacity:1;stroke-width:0.0944939"
     id="path6387"
     cx="4.1010408"
     cy="2.5135415"
     r="0.66145831" />
</svg>
