<?xml version="1.0" encoding="UTF-8" standalone="no"?>
<!-- Created with Inkscape (http://www.inkscape.org/) -->

<svg
   width="64"
   height="64"
   viewBox="0 0 16.933333 16.933333"
   version="1.1"
   id="svg5"
   inkscape:version="1.2 (dc2aedaf03, 2022-05-15)"
   sodipodi:docname="media-flash.svg"
   xmlns:inkscape="http://www.inkscape.org/namespaces/inkscape"
   xmlns:sodipodi="http://sodipodi.sourceforge.net/DTD/sodipodi-0.dtd"
   xmlns="http://www.w3.org/2000/svg"
   xmlns:svg="http://www.w3.org/2000/svg">
  <sodipodi:namedview
     id="namedview7"
     pagecolor="#ffffff"
     bordercolor="#666666"
     borderopacity="1.0"
     inkscape:pageshadow="2"
     inkscape:pageopacity="0.0"
     inkscape:pagecheckerboard="0"
     inkscape:document-units="px"
     showgrid="false"
     units="px"
     height="48px"
     inkscape:zoom="12.46875"
     inkscape:cx="32.0401"
     inkscape:cy="32.0401"
     inkscape:window-width="1920"
     inkscape:window-height="1010"
     inkscape:window-x="0"
     inkscape:window-y="0"
     inkscape:window-maximized="1"
     inkscape:current-layer="svg5"
     inkscape:showpageshadow="2"
     inkscape:deskcolor="#d1d1d1" />
  <defs
     id="defs2" />
  <path
     id="rect1249"
     style="opacity:1;fill:#483e39;stroke-width:0.264583;fill-opacity:1"
     d="M 10.583333,1.0583333 14.2875,4.7624999 V 14.816667 c 0,0.586316 -0.472017,1.058333 -1.058334,1.058333 H 3.7041665 c -0.5863166,0 -1.0583332,-0.472017 -1.0583332,-1.058333 l 0,-13.7583337 z"
     sodipodi:nodetypes="ccsssscc" />
  <path
     d="M 2.6458333,1.0583333 V 14.816667 c 0,0.586316 0.4720167,1.058333 1.0583333,1.058333 h 9.5250004 c 0.586316,0 1.058333,-0.472017 1.058333,-1.058333 V 4.7624999 L 10.583333,1.0583333 M 2.9104166,1.3229166 H 10.31875 l 3.704166,3.7041667 V 14.2875 c 0,0.439738 -0.354012,0.79375 -0.793749,0.79375 H 3.7041666 c -0.4397375,0 -0.79375,-0.354012 -0.79375,-0.79375"
     style="fill:#ffffff;fill-opacity:0.502;stroke-width:0.264583"
     id="path2766" />
  <rect
     style="fill:#ffce51;fill-opacity:1;stroke-width:0.529167"
     id="rect3758"
     width="9.5249996"
     height="2.1166666"
     x="3.7041667"
     y="12.7" />
</svg>
