<?xml version="1.0" encoding="UTF-8" standalone="no"?>
<!-- Created with Inkscape (http://www.inkscape.org/) -->

<svg
   width="64"
   height="64"
   viewBox="0 0 16.933333 16.933333"
   version="1.1"
   id="svg5"
   inkscape:version="1.2 (dc2aedaf03, 2022-05-15)"
   sodipodi:docname="printer.svg"
   xmlns:inkscape="http://www.inkscape.org/namespaces/inkscape"
   xmlns:sodipodi="http://sodipodi.sourceforge.net/DTD/sodipodi-0.dtd"
   xmlns="http://www.w3.org/2000/svg"
   xmlns:svg="http://www.w3.org/2000/svg">
  <sodipodi:namedview
     id="namedview7"
     pagecolor="#ffffff"
     bordercolor="#666666"
     borderopacity="1.0"
     inkscape:pageshadow="2"
     inkscape:pageopacity="0.0"
     inkscape:pagecheckerboard="0"
     inkscape:document-units="px"
     showgrid="false"
     units="px"
     height="48px"
     inkscape:zoom="12.5"
     inkscape:cx="32"
     inkscape:cy="32"
     inkscape:window-width="1920"
     inkscape:window-height="1016"
     inkscape:window-x="0"
     inkscape:window-y="0"
     inkscape:window-maximized="1"
     inkscape:current-layer="svg5"
     inkscape:showpageshadow="2"
     inkscape:deskcolor="#d1d1d1"
     showguides="true" />
  <defs
     id="defs2" />
  <rect
     style="opacity:1;fill:#dedede;fill-opacity:1;stroke-width:0.264583"
     id="rect3607"
     width="9.5249996"
     height="3.7041671"
     x="3.7041664"
     y="1.0583333"
     ry="0.52916664" />
  <path
     d="m 4.2333333,1.0583333 c -0.2931584,0 -0.5291667,0.2360083 -0.5291667,0.5291666 v 4.2333333 c 1.201e-4,0.1885333 0.1010362,0.3626133 0.2645833,0.4564062 V 1.5874999 c 0,-0.1465791 0.1180042,-0.2645833 0.2645834,-0.2645833 H 12.7 c 0.146579,0 0.264583,0.1180042 0.264583,0.2645833 V 6.2772394 C 13.12813,6.1834465 13.229046,6.0093665 13.229166,5.8208332 V 1.5874999 c 0,-0.2931583 -0.236008,-0.5291666 -0.529166,-0.5291666 z"
     style="fill:#010101;fill-opacity:1;stroke-width:0.264583;opacity:0.5"
     id="path748" />
  <rect
     style="opacity:1;fill:#444444;fill-opacity:1;stroke-width:0.264583"
     id="rect845"
     width="13.758333"
     height="6.8791666"
     x="1.5874999"
     y="4.7625003"
     ry="1.0583333" />
  <circle
     style="fill:#73c48f;fill-opacity:1;stroke-width:0.264583"
     id="path6647"
     cx="3.4395833"
     cy="6.614583"
     r="0.52916664" />
  <path
     id="rect652"
     style="opacity:0.5;fill:#ffffff;stroke-width:0.264583"
     d="m 2.6458332,4.7624999 c -0.5863161,0 -1.0583333,0.4720173 -1.0583333,1.0583333 v 4.7624998 c 0,0.586316 0.4720172,1.058334 1.0583333,1.058334 H 14.2875 c 0.586316,0 1.058334,-0.472018 1.058334,-1.058334 V 5.8208332 c 0,-0.586316 -0.472018,-1.0583333 -1.058334,-1.0583333 z m 0,0.2645833 H 14.2875 c 0.439737,0 0.79375,0.354013 0.79375,0.79375 v 4.2333338 c 0,0.439737 -0.354013,0.79375 -0.79375,0.79375 H 2.6458332 c -0.4397371,0 -0.79375,-0.354013 -0.79375,-0.79375 V 5.8208332 c 0,-0.439737 0.3540129,-0.79375 0.79375,-0.79375 z"
     sodipodi:nodetypes="ssssssssssssssssss" />
  <rect
     style="opacity:1;fill:#dedede;fill-opacity:1;stroke-width:0.264583"
     id="rect5141"
     width="9.5249996"
     height="7.4083333"
     x="3.7041676"
     y="8.4666662"
     ry="0.52916664" />
  <path
     d="M 3.96875,8.54075 C 3.8052028,8.6345429 3.7042867,8.8086229 3.7041666,8.9971562 v 6.3500008 c 0,0.293159 0.2360084,0.529167 0.5291667,0.529167 H 12.7 c 0.293158,0 0.529167,-0.236008 0.529167,-0.529167 V 8.9971562 C 13.229047,8.8086229 13.128131,8.6345429 12.964583,8.54075 v 6.277241 c 0,0.146579 -0.118004,0.264583 -0.264583,0.264583 H 4.2333333 c -0.1465792,0 -0.2645833,-0.118004 -0.2645833,-0.264583 z"
     style="fill:#010101;fill-opacity:0.5;stroke-width:0.264583"
     id="path4395" />
</svg>
