<?xml version="1.0" encoding="UTF-8" standalone="no"?>
<!-- Created with Inkscape (http://www.inkscape.org/) -->

<svg
   width="32"
   height="32"
   viewBox="0 0 8.4666665 8.4666665"
   version="1.1"
   id="svg5"
   inkscape:version="1.2 (dc2aedaf03, 2022-05-15)"
   sodipodi:docname="application-x-javascript.svg"
   xmlns:inkscape="http://www.inkscape.org/namespaces/inkscape"
   xmlns:sodipodi="http://sodipodi.sourceforge.net/DTD/sodipodi-0.dtd"
   xmlns="http://www.w3.org/2000/svg"
   xmlns:svg="http://www.w3.org/2000/svg">
  <sodipodi:namedview
     id="namedview7"
     pagecolor="#ffffff"
     bordercolor="#666666"
     borderopacity="1.0"
     inkscape:pageshadow="2"
     inkscape:pageopacity="0.0"
     inkscape:pagecheckerboard="0"
     inkscape:document-units="px"
     showgrid="false"
     units="px"
     height="48px"
     inkscape:zoom="17.699767"
     inkscape:cx="12.373044"
     inkscape:cy="25.593557"
     inkscape:window-width="1920"
     inkscape:window-height="1014"
     inkscape:window-x="0"
     inkscape:window-y="0"
     inkscape:window-maximized="1"
     inkscape:current-layer="svg5"
     inkscape:showpageshadow="2"
     inkscape:deskcolor="#d1d1d1" />
  <defs
     id="defs2" />
  <path
     d="m 7.4083319,2.5135417 v 5.2916666 c 0,0.3664479 -0.2950104,0.6614583 -0.6614583,0.6614583 H 1.719793 c -0.3656171,0 -0.6621912,-0.2958306 -0.6614583,-0.6614583 V 0.92604167 c 0,-0.36644793 0.2950104,-0.66145834 0.6614583,-0.66145834 h 3.4395806"
     style="fill:#6f6f6f;stroke-width:0.264583"
     id="path2928" />
  <path
     d="M 7.1437486,2.6458334 V 7.4083333 C 7.1437486,7.7014916 6.9077403,7.9375 6.6145819,7.9375 H 1.852082 C 1.5589237,7.9375 1.3229153,7.7014916 1.3229153,7.4083333 V 1.0583334 c 0,-0.29315833 0.2360084,-0.52916674 0.5291667,-0.52916674 h 3.175"
     style="fill:#ececec;stroke-width:0.264583"
     id="path2808" />
  <path
     d="M 5.6705817,7.0807791 5.6059863,6.8902262 C 5.7222582,6.8514735 5.8056938,6.783652 5.8562927,6.6867616 5.9068935,6.5909295 5.9321937,6.4719641 5.9321937,6.3298652 V 5.9988185 c 0,-0.1151996 0.024223,-0.2158648 0.072671,-0.3019954 C 6.0533112,5.6106925 6.1281343,5.5444847 6.229334,5.4982004 6.1281343,5.4540502 6.0533112,5.3889098 6.0048642,5.3027791 5.9564171,5.216666 5.9321937,5.1149337 5.9321937,4.9975823 V 4.6649217 c 0,-0.1421165 -0.025299,-0.26162 -0.075901,-0.3585105 C 5.8056938,4.2084448 5.7222582,4.1406146 5.6059863,4.1029202 l 0.064595,-0.188939 c 0.2088586,0.059214 0.3574282,0.1534142 0.4457091,0.2826015 0.089357,0.128129 0.1340353,0.2842419 0.1340353,0.468339 v 0.3326606 c 0,0.1216554 0.027453,0.2158558 0.082359,0.2826014 0.054906,0.06567 0.1399574,0.098504 0.2551535,0.098504 v 0.2373842 c -0.1151961,0 -0.2002472,0.03392 -0.2551535,0.1017587 -0.054906,0.066746 -0.082359,0.1604082 -0.082359,0.2809875 v 0.3310467 c 0,0.183021 -0.044678,0.3391252 -0.1340353,0.4683125 C 6.0280099,6.927365 5.8794403,7.0215654 5.6705817,7.0807791 Z M 4.7387906,6.5268739 c -0.117348,0 -0.2271607,-0.011845 -0.329438,-0.035533 C 4.3070771,6.4676681 4.1983413,6.4310683 4.0831452,6.3815383 l -0.00323,-0.4150254 h 0.2406173 l 0.059751,0.2502958 c 0.1141182,0.047378 0.2336199,0.071067 0.3585051,0.071067 0.1291908,0 0.2217783,-0.024765 0.2777622,-0.074295 0.055982,-0.049512 0.083973,-0.1108781 0.083973,-0.1840971 0,-0.068898 -0.02853,-0.1270264 -0.08559,-0.1743869 C 4.9589538,5.8066429 4.8566784,5.7657293 4.7081095,5.7323566 4.4970972,5.6839027 4.3415293,5.6193089 4.2414057,5.5385758 4.1423597,5.4567489 4.0928369,5.3480142 4.0928369,5.212371 c 0,-0.094756 0.027453,-0.1792729 0.082359,-0.2535502 0.054904,-0.075353 0.1313418,-0.135105 0.2293117,-0.1792552 0.09797,-0.044132 0.2120892,-0.066199 0.3423576,-0.066199 0.1324205,0 0.2454627,0.015073 0.339127,0.045217 0.09474,0.030145 0.1770997,0.070511 0.2470785,0.1210997 l 0.01614,0.3988859 H 5.1102074 L 5.0585316,5.0460275 c -0.03768,-0.027993 -0.082359,-0.04953 -0.1340352,-0.064611 -0.051677,-0.014994 -0.1108896,-0.02249 -0.1776386,-0.02249 -0.099046,0 -0.1797905,0.023151 -0.242234,0.069453 -0.061366,0.046284 -0.092049,0.1044133 -0.092049,0.1743868 0,0.040922 0.00862,0.076456 0.02585,0.1066007 0.018301,0.030145 0.052753,0.057591 0.1033516,0.082338 0.050601,0.023688 0.1248859,0.047378 0.2228559,0.071067 0.2433089,0.057062 0.4128725,0.1297339 0.5086905,0.2180166 0.096892,0.088283 0.1453383,0.1970175 0.1453383,0.3262048 0,0.1474965 -0.054906,0.2713038 -0.164719,0.3714221 -0.1087348,0.099043 -0.280451,0.1485643 -0.5151488,0.1485643 z M 3.1545847,7.1986775 c -0.034451,0 -0.065671,-0.00265 -0.093662,-0.00794 -0.027991,-0.00441 -0.057059,-0.011377 -0.087204,-0.020902 l 0.020981,-0.2422237 c 0.015063,0.00547 0.040363,0.010319 0.075898,0.014552 0.036604,0.00423 0.064595,0.00635 0.083974,0.00635 0.063519,0 0.1135811,-0.027993 0.1501854,-0.083979 0.03768,-0.054892 0.05652,-0.1307836 0.05652,-0.227674 V 4.9961271 L 3.0980512,4.9509098 v -0.205105 h 0.581361 v 1.8910564 c 0,0.1797757 -0.046294,0.3181173 -0.1388825,0.4150254 -0.092586,0.097967 -0.2212392,0.1469496 -0.3859582,0.1469496 z M 3.3451429,4.314481 V 3.9737506 H 3.6794254 V 4.314481 Z M 2.9511095,7.0807791 C 2.7411732,7.0215654 2.5915268,6.927365 2.5021698,6.7981777 2.4138889,6.6689904 2.3697485,6.5128862 2.3697485,6.3298652 V 5.9988185 c 0,-0.1205793 -0.027452,-0.2142418 -0.082357,-0.2809875 C 2.2324853,5.6499918 2.1479721,5.6160723 2.033852,5.6160723 V 5.3786881 c 0.1141201,0 0.1986333,-0.032835 0.2535397,-0.098504 0.054904,-0.066746 0.082357,-0.160946 0.082357,-0.2826014 v -0.332661 c 0,-0.1840971 0.04414,-0.34021 0.1324213,-0.468339 C 2.591527,4.0673954 2.7411734,3.973195 2.9511097,3.9139812 l 0.064595,0.188939 c -0.1184254,0.037694 -0.2029379,0.1055246 -0.2535368,0.203491 -0.049523,0.09689 -0.074284,0.216394 -0.074284,0.3585105 v 0.3326606 c 0,0.1130477 -0.022609,0.2126279 -0.067826,0.298741 -0.045217,0.086131 -0.1135812,0.1534232 -0.2050918,0.2018771 0.091511,0.049512 0.1598745,0.1178719 0.2050918,0.2050785 0.045217,0.086131 0.067826,0.184644 0.067826,0.2955396 v 0.3310467 c 0,0.1420989 0.024762,0.2610643 0.074284,0.3568964 0.050599,0.09689 0.1351114,0.1647119 0.253537,0.2034646 z"
     id="path365"
     style="fill:#817205;fill-opacity:1;stroke-width:0.264583" />
  <path
     d="M 7.1437486,3.175 H 5.2916653 C 4.998507,3.175 4.7624986,2.9389917 4.7624986,2.6458334 V 0.52916666 H 5.027082 L 7.1437486,2.6458334 Z"
     style="fill:#6f6f6f;fill-opacity:0.502;stroke-width:0.264583"
     id="path3168" />
  <path
     d="m 7.1437486,2.6458334 h -1.5875 C 5.2630903,2.6458334 5.027082,2.409825 5.027082,2.1166667 V 0.52916666"
     style="fill:#fafafa;stroke-width:0.264583"
     id="path3048" />
</svg>
