<?xml version="1.0" encoding="UTF-8" standalone="no"?>
<!-- Created with Inkscape (http://www.inkscape.org/) -->

<svg
   width="32"
   height="32"
   viewBox="0 0 8.4666665 8.4666665"
   version="1.1"
   id="svg5"
   inkscape:version="1.2 (dc2aedaf03, 2022-05-15)"
   sodipodi:docname="application-photoshop.svg"
   xmlns:inkscape="http://www.inkscape.org/namespaces/inkscape"
   xmlns:sodipodi="http://sodipodi.sourceforge.net/DTD/sodipodi-0.dtd"
   xmlns="http://www.w3.org/2000/svg"
   xmlns:svg="http://www.w3.org/2000/svg">
  <sodipodi:namedview
     id="namedview7"
     pagecolor="#ffffff"
     bordercolor="#666666"
     borderopacity="1.0"
     inkscape:pageshadow="2"
     inkscape:pageopacity="0.0"
     inkscape:pagecheckerboard="0"
     inkscape:document-units="px"
     showgrid="false"
     units="px"
     height="48px"
     inkscape:zoom="18.208"
     inkscape:cx="13.647847"
     inkscape:cy="16.476275"
     inkscape:window-width="1920"
     inkscape:window-height="1014"
     inkscape:window-x="0"
     inkscape:window-y="0"
     inkscape:window-maximized="1"
     inkscape:current-layer="svg5"
     showguides="false"
     inkscape:showpageshadow="2"
     inkscape:deskcolor="#d1d1d1" />
  <defs
     id="defs2" />
  <rect
     style="opacity:1;fill:#245c63;fill-opacity:1;stroke-width:0.264583"
     id="rect1162"
     width="7.4083333"
     height="5.8208332"
     x="0.52916664"
     y="1.8520833"
     ry="0.52916664" />
  <rect
     style="opacity:1;fill:#48b9c7;fill-opacity:1;stroke-width:0.469115"
     id="rect1437"
     width="6.8791666"
     height="5.0270834"
     x="0.79374999"
     y="2.1166666"
     ry="0.39687499" />
  <rect
     style="fill:#001d26;fill-opacity:1;stroke-width:0.264583"
     id="rect9337"
     width="5.8208332"
     height="3.96875"
     x="1.3229166"
     y="2.6458333"
     ry="0.26458332" />
  <path
     d="m 3.4949896,3.6282312 c 0.2577704,0 0.4581551,0.053623 0.6011518,0.160872 0.1429967,0.1072488 0.2144951,0.266237 0.2144951,0.4769696 0,0.2201413 -0.070556,0.3866568 -0.211672,0.4995492 C 3.9597302,4.8766333 3.7725164,4.9321376 3.5373256,4.9321376 H 3.3256511 V 5.584092 H 2.8627916 V 3.6282312 Z m 0.00283,0.9708753 c 0.1091274,0 0.1919156,-0.0254 0.2483618,-0.076203 0.058327,-0.052684 0.087492,-0.1382951 0.087492,-0.2568311 0,-0.2050864 -0.1147736,-0.307631 -0.3443208,-0.307631 H 3.325659 V 4.5991065 Z M 4.9964603,4.0374649 c 0.1072489,0 0.2079096,0.016007 0.3019875,0.047979 0.094078,0.031986 0.176866,0.077145 0.2483643,0.135472 L 5.3831171,4.4721012 C 5.2608161,4.3949593 5.1375758,4.3563884 5.0133936,4.3563884 c -0.058327,0 -0.1034838,0.010345 -0.1354693,0.031044 -0.030107,0.018812 -0.045159,0.046098 -0.045159,0.081849 0,0.028223 0.00659,0.051742 0.019764,0.070556 0.015055,0.016933 0.044209,0.034809 0.087492,0.053623 0.043275,0.018812 0.1100693,0.041394 0.200385,0.067736 0.1561676,0.045156 0.2718831,0.1044257 0.3471439,0.1778053 0.077145,0.071498 0.1157155,0.1712198 0.1157155,0.2991643 0,0.1016027 -0.029165,0.190037 -0.087492,0.2652978 -0.058327,0.073382 -0.1382951,0.1298283 -0.2398978,0.1693386 -0.1016026,0.039513 -0.214495,0.059269 -0.3386772,0.059269 -0.1260633,0 -0.2436601,-0.019764 -0.3527875,-0.059269 C 4.4771626,5.533292 4.3859078,5.478727 4.3106471,5.4091099 L 4.5279652,5.1663891 c 0.1260634,0.09784 0.2587123,0.1467617 0.3979466,0.1467617 0.067736,0 0.1204172,-0.012224 0.1580489,-0.03669 0.03951,-0.024447 0.059267,-0.059269 0.059267,-0.1044257 0,-0.035748 -0.00751,-0.063971 -0.022569,-0.084669 -0.015055,-0.02069 -0.044209,-0.039513 -0.087492,-0.056446 C 4.9898907,5.0121079 4.9212154,4.9895257 4.8271376,4.9631838 4.6784973,4.9199085 4.5674861,4.8596999 4.4941065,4.7825554 4.4207243,4.7054135 4.3840346,4.6094544 4.3840346,4.4946808 c 0,-0.086551 0.024447,-0.1636951 0.07338,-0.2314311 0.050803,-0.069615 0.122301,-0.1241795 0.2144977,-0.1636924 0.094078,-0.041394 0.202266,-0.062092 0.3245644,-0.062092 z"
     style="font-weight:bold;font-size:10.667px;line-height:1.25;font-family:'Fira Sans';letter-spacing:0;word-spacing:0;fill:#00c8ff;fill-opacity:1;stroke-width:0.0330729"
     id="path16931" />
</svg>
