<?xml version="1.0" encoding="UTF-8" standalone="no"?>
<!-- Created with Inkscape (http://www.inkscape.org/) -->

<svg
   width="32"
   height="32"
   viewBox="0 0 8.4666665 8.4666665"
   version="1.1"
   id="svg5"
   inkscape:version="1.2 (dc2aedaf03, 2022-05-15)"
   sodipodi:docname="application-mspowerpoint.svg"
   xmlns:inkscape="http://www.inkscape.org/namespaces/inkscape"
   xmlns:sodipodi="http://sodipodi.sourceforge.net/DTD/sodipodi-0.dtd"
   xmlns="http://www.w3.org/2000/svg"
   xmlns:svg="http://www.w3.org/2000/svg">
  <sodipodi:namedview
     id="namedview7"
     pagecolor="#ffffff"
     bordercolor="#666666"
     borderopacity="1.0"
     inkscape:pageshadow="2"
     inkscape:pageopacity="0.0"
     inkscape:pagecheckerboard="0"
     inkscape:document-units="px"
     showgrid="false"
     units="px"
     height="48px"
     inkscape:zoom="25.59375"
     inkscape:cx="16"
     inkscape:cy="16"
     inkscape:window-width="1846"
     inkscape:window-height="1016"
     inkscape:window-x="0"
     inkscape:window-y="0"
     inkscape:window-maximized="1"
     inkscape:current-layer="svg5"
     inkscape:showpageshadow="2"
     inkscape:deskcolor="#d1d1d1" />
  <defs
     id="defs2" />
  <path
     d="m 7.4083319,2.5135417 v 5.2916666 c 0,0.3664479 -0.2950104,0.6614583 -0.6614583,0.6614583 H 1.719793 c -0.3656171,0 -0.6621912,-0.2958306 -0.6614583,-0.6614583 V 0.92604167 c 0,-0.36644793 0.2950104,-0.66145834 0.6614583,-0.66145834 h 3.4395806"
     style="fill:#671d00;stroke-width:0.264583;fill-opacity:1"
     id="path2928" />
  <path
     d="M 7.1437486,2.6458334 V 7.4083333 C 7.1437486,7.7014916 6.9077403,7.9375 6.6145819,7.9375 H 1.852082 C 1.5589237,7.9375 1.3229153,7.7014916 1.3229153,7.4083333 V 1.0583334 c 0,-0.29315833 0.2360084,-0.52916674 0.5291667,-0.52916674 h 3.175"
     style="fill:#cf3b00;stroke-width:0.264583;fill-opacity:1"
     id="path2808" />
  <circle
     style="opacity:0.3;fill:#ffffff;stroke-width:1.41111;stroke-linejoin:bevel"
     id="path31463"
     cx="4.4979177"
     cy="5.5562496"
     r="2.1166661" />
  <path
     id="path31465"
     style="opacity:0.7;fill:#ffffff;stroke-width:1.05833;stroke-linejoin:bevel"
     d="M 2.38125,5.5562495 A 2.1166663,2.1166663 0 0 0 4.4979162,7.6729161 2.1166663,2.1166663 0 0 0 6.6145828,5.5562495 H 4.4979162 Z" />
  <path
     id="path31759"
     style="opacity:0.5;fill:#ffffff;stroke-width:1.05833;stroke-linejoin:bevel"
     d="M 4.4979162,3.4395833 A 2.1166661,2.1166663 0 0 0 2.38125,5.5562495 h 2.1166662 z" />
  <rect
     style="fill:#cf3b00;fill-opacity:1;stroke-width:0.264583"
     id="rect3242"
     width="2.9104166"
     height="2.9104166"
     x="1.3229166"
     y="4.2333331"
     ry="0.52916664" />
  <rect
     style="fill:#ffffff;stroke-width:0.132291"
     id="rect2687"
     width="2.3812499"
     height="2.3812499"
     x="1.5875002"
     y="4.4979172"
     ry="0.26458323" />
  <path
     id="rect4291"
     style="fill:#cf3b00;fill-opacity:1;stroke-width:0.132292"
     d="M 2.38125,4.7624999 V 6.6145832 H 2.6458333 V 5.8208334 h 0.2645834 c 0.2922507,0 0.5291667,-0.236916 0.5291667,-0.5291667 0,-0.2922507 -0.236916,-0.5291668 -0.5291667,-0.5291668 H 2.6458333 Z m 0.2645833,0.2645833 h 0.2645834 c 0.1461254,0 0.2645835,0.1184581 0.2645834,0.2645835 -4e-7,0.1461251 -0.1184583,0.2645827 -0.2645834,0.2645827 H 2.6458333 Z"
     sodipodi:nodetypes="ccccssscccssscc" />
  <path
     d="M 7.1437486,3.175 H 5.2916653 C 4.998507,3.175 4.7624986,2.9389917 4.7624986,2.6458334 V 0.52916666 H 5.027082 L 7.1437486,2.6458334 Z"
     style="fill:#671d00;fill-opacity:1;stroke-width:0.264583;opacity:0.5"
     id="path3168" />
  <path
     d="m 7.1437486,2.6458334 h -1.5875 C 5.2630903,2.6458334 5.027082,2.409825 5.027082,2.1166667 V 0.52916666"
     style="fill:#f15d22;stroke-width:0.264583;fill-opacity:1"
     id="path3048" />
</svg>
