<?xml version="1.0" encoding="UTF-8" standalone="no"?>
<!-- Created with Inkscape (http://www.inkscape.org/) -->

<svg
   width="32"
   height="32"
   viewBox="0 0 8.4666665 8.4666665"
   version="1.1"
   id="svg5"
   inkscape:version="1.2 (dc2aedaf03, 2022-05-15)"
   sodipodi:docname="application-pgp.svg"
   xmlns:inkscape="http://www.inkscape.org/namespaces/inkscape"
   xmlns:sodipodi="http://sodipodi.sourceforge.net/DTD/sodipodi-0.dtd"
   xmlns="http://www.w3.org/2000/svg"
   xmlns:svg="http://www.w3.org/2000/svg">
  <sodipodi:namedview
     id="namedview7"
     pagecolor="#ffffff"
     bordercolor="#666666"
     borderopacity="1.0"
     inkscape:pageshadow="2"
     inkscape:pageopacity="0.0"
     inkscape:pagecheckerboard="0"
     inkscape:document-units="px"
     showgrid="false"
     units="px"
     height="48px"
     inkscape:zoom="17.699767"
     inkscape:cx="12.457791"
     inkscape:cy="25.593557"
     inkscape:window-width="1920"
     inkscape:window-height="1014"
     inkscape:window-x="0"
     inkscape:window-y="0"
     inkscape:window-maximized="1"
     inkscape:current-layer="svg5"
     inkscape:showpageshadow="2"
     inkscape:deskcolor="#d1d1d1" />
  <defs
     id="defs2" />
  <path
     d="m 7.4083319,2.5135417 v 5.2916666 c 0,0.3664479 -0.2950104,0.6614583 -0.6614583,0.6614583 H 1.719793 c -0.3656171,0 -0.6621912,-0.2958306 -0.6614583,-0.6614583 V 0.92604167 c 0,-0.36644793 0.2950104,-0.66145834 0.6614583,-0.66145834 h 3.4395806"
     style="fill:#396247;stroke-width:0.264583;fill-opacity:1"
     id="path2928" />
  <path
     d="M 7.1437486,2.6458334 V 7.4083333 C 7.1437486,7.7014916 6.9077403,7.9375 6.6145819,7.9375 H 1.852082 C 1.5589237,7.9375 1.3229153,7.7014916 1.3229153,7.4083333 V 1.0583334 c 0,-0.29315833 0.2360084,-0.52916674 0.5291667,-0.52916674 h 3.175"
     style="fill:#73c48f;stroke-width:0.264583;fill-opacity:1"
     id="path2808" />
  <path
     d="M 4.2333333,4.2333333 3.175,4.4317708 V 6.0192707 L 4.2333333,6.6807291 5.2916667,6.0192707 V 4.4317708 Z m 0,-0.79375 L 2.38125,3.7041666 V 6.5484374 L 4.2333333,7.6729165 6.0854167,6.5484374 V 3.7041666 Z m 0,0.5291666 1.3229167,0.1984375 v 2.1166667 l -1.3229167,0.79375 -1.3229166,-0.79375 V 4.1671874 Z"
     style="color:#000000;font-variant-ligatures:normal;font-variant-position:normal;font-variant-caps:normal;font-variant-numeric:normal;font-variant-alternates:normal;font-feature-settings:normal;text-indent:0;text-decoration-line:none;text-decoration-style:solid;text-decoration-color:#000000;text-transform:none;text-orientation:mixed;white-space:normal;shape-padding:0;isolation:auto;mix-blend-mode:normal;fill:#f6f6f6;fill-opacity:1;stroke-width:0.264583"
     id="path308" />
  <path
     d="M 7.1437486,3.175 H 5.2916653 C 4.998507,3.175 4.7624986,2.9389917 4.7624986,2.6458334 V 0.52916666 H 5.027082 L 7.1437486,2.6458334 Z"
     style="fill:#396247;fill-opacity:1;stroke-width:0.264583;opacity:0.5"
     id="path3168" />
  <path
     d="m 7.1437486,2.6458334 h -1.5875 C 5.2630903,2.6458334 5.027082,2.409825 5.027082,2.1166667 V 0.52916666"
     style="fill:#8adba6;stroke-width:0.264583;fill-opacity:1"
     id="path3048" />
</svg>
