<?xml version="1.0" encoding="UTF-8" standalone="no"?>
<!-- Created with Inkscape (http://www.inkscape.org/) -->

<svg
   width="32"
   height="32"
   viewBox="0 0 8.4666666 8.4666666"
   version="1.1"
   id="svg5"
   inkscape:version="1.2 (dc2aedaf03, 2022-05-15)"
   sodipodi:docname="application-x-ms-dos-executable.svg"
   xmlns:inkscape="http://www.inkscape.org/namespaces/inkscape"
   xmlns:sodipodi="http://sodipodi.sourceforge.net/DTD/sodipodi-0.dtd"
   xmlns="http://www.w3.org/2000/svg"
   xmlns:svg="http://www.w3.org/2000/svg">
  <sodipodi:namedview
     id="namedview7"
     pagecolor="#ffffff"
     bordercolor="#666666"
     borderopacity="1.0"
     inkscape:pageshadow="2"
     inkscape:pageopacity="0.0"
     inkscape:pagecheckerboard="0"
     inkscape:document-units="px"
     showgrid="false"
     units="px"
     height="48px"
     inkscape:zoom="13.342157"
     inkscape:cx="-1.7988096"
     inkscape:cy="9.4437504"
     inkscape:window-width="1920"
     inkscape:window-height="1009"
     inkscape:window-x="0"
     inkscape:window-y="0"
     inkscape:window-maximized="1"
     inkscape:current-layer="svg5"
     inkscape:showpageshadow="2"
     inkscape:deskcolor="#d1d1d1" />
  <defs
     id="defs2" />
  <rect
     style="opacity:1;fill:#48b9c7;fill-opacity:1;stroke-width:0.264583"
     id="rect1162"
     width="6.8791666"
     height="6.8791666"
     x="0.79374999"
     y="0.79374999"
     ry="0.66145831" />
  <path
     id="rect1014"
     style="opacity:0.5;fill:#000000;stroke-width:0.264583"
     d="m 1.4552083,0.79374999 c -0.3664479,0 -0.66145831,0.29501041 -0.66145831,0.66145831 v 5.5562499 c 0,0.366448 0.29501041,0.6614584 0.66145831,0.6614584 h 5.55625 c 0.3664479,0 0.6614583,-0.2950104 0.6614583,-0.6614584 V 1.4552083 c 0,-0.3664479 -0.2950104,-0.66145831 -0.6614583,-0.66145831 z M 1.5875,1.0583333 h 5.2916666 c 0.2931583,0 0.5291667,0.2360084 0.5291667,0.5291667 v 5.0270833 c 0,0.2931583 -0.2360084,0.5291666 -0.5291667,0.5291666 H 1.5875 c -0.2931583,0 -0.5291667,-0.2360083 -0.5291667,-0.5291666 V 1.5875 c 0,-0.2931583 0.2360084,-0.5291667 0.5291667,-0.5291667 z"
     sodipodi:nodetypes="ssssssssssssssssss" />
  <path
     d="m 2.38125,2.38125 h 1.5875 V 4.2333331 H 2.1166667 V 2.6458333 C 2.1166667,2.4992541 2.2346708,2.38125 2.38125,2.38125 Z m 1.5875,2.1166665 v 1.8520834 h -1.5875 c -0.1465792,0 -0.2645833,-0.1180042 -0.2645833,-0.2645833 V 4.4979164 Z m 2.1166666,0 v 1.5875 c 0,0.1465792 -0.1180041,0.2645834 -0.2645834,0.2645834 H 4.2333331 V 4.4979164 Z M 4.2333335,2.38125 h 1.5875 c 0.1465795,0 0.2645834,0.1180041 0.2645834,0.2645833 V 4.2333331 H 4.2333335 Z"
     style="opacity:0.2;fill:#000000;fill-opacity:1;stroke-width:0.0700042"
     id="path2263" />
  <path
     d="m 2.38125,2.1166667 h 1.5875 V 3.96875 H 2.1166667 v -1.5875 c 0,-0.1465792 0.1180041,-0.2645833 0.2645833,-0.2645833 z m 1.5875,2.1166665 v 1.8520834 h -1.5875 c -0.1465792,0 -0.2645833,-0.1180041 -0.2645833,-0.2645833 V 4.2333331 Z m 2.1166666,0 v 1.5875001 c 0,0.1465791 -0.1180041,0.2645832 -0.2645834,0.2645832 H 4.2333331 V 4.2333331 Z M 4.2333335,2.1166667 h 1.5875 c 0.1465795,0 0.2645834,0.1180041 0.2645834,0.2645833 v 1.5875 H 4.2333335 Z"
     style="fill:#ffffff;fill-opacity:1;stroke-width:0.0700042"
     id="path2168"
     sodipodi:nodetypes="scccssccsscccssccccssccc" />
</svg>
