<?xml version="1.0" encoding="UTF-8" standalone="no"?>
<!-- Created with Inkscape (http://www.inkscape.org/) -->

<svg
   width="32"
   height="32"
   viewBox="0 0 8.4666666 8.4666666"
   version="1.1"
   id="svg5"
   inkscape:version="1.2 (dc2aedaf03, 2022-05-15)"
   sodipodi:docname="application-x-tar.svg"
   xmlns:inkscape="http://www.inkscape.org/namespaces/inkscape"
   xmlns:sodipodi="http://sodipodi.sourceforge.net/DTD/sodipodi-0.dtd"
   xmlns="http://www.w3.org/2000/svg"
   xmlns:svg="http://www.w3.org/2000/svg">
  <sodipodi:namedview
     id="namedview7"
     pagecolor="#ffffff"
     bordercolor="#666666"
     borderopacity="1.0"
     inkscape:pageshadow="2"
     inkscape:pageopacity="0.0"
     inkscape:pagecheckerboard="0"
     inkscape:document-units="px"
     showgrid="false"
     units="px"
     height="48px"
     inkscape:zoom="25.0625"
     inkscape:cx="16.05985"
     inkscape:cy="16"
     inkscape:window-width="1920"
     inkscape:window-height="1014"
     inkscape:window-x="0"
     inkscape:window-y="0"
     inkscape:window-maximized="1"
     inkscape:current-layer="svg5"
     showguides="true"
     inkscape:showpageshadow="2"
     inkscape:deskcolor="#d1d1d1" />
  <defs
     id="defs2" />
  <rect
     style="opacity:1;fill:#a19282;fill-opacity:1;stroke-width:0.264583"
     id="rect1162"
     width="6.8791666"
     height="6.8791666"
     x="0.79374999"
     y="0.79374999"
     ry="0.52916664" />
  <path
     d="M 1.4057311,5.5850895 1.2403666,5.7917952 2.4144551,6.731275 1.2548366,7.4268382 1.3912611,7.6542158 2.6826553,6.8790686 H 5.7842757 L 7.0756699,7.6542158 7.2120943,7.4268382 6.0524759,6.731275 7.2265644,5.7917952 7.0611998,5.5850895 5.774457,6.6144853 H 2.692474 Z"
     style="color:#000000;opacity:0.25;fill:#000000;fill-opacity:1;stroke-width:0.264583;-inkscape-stroke:none"
     id="path1642" />
  <rect
     style="fill:#d7c3ad;fill-opacity:1;stroke-width:0.264583"
     id="rect1142"
     width="6.3499999"
     height="4.4979167"
     x="1.0583333"
     y="1.0583333"
     ry="0.39687499" />
  <path
     d="M 3.4395833,3.96875 H 3.7041666 V 3.4395833 H 4.2333333 V 3.96875 H 4.4979166 V 2.9104167 c 0,-0.2922507 -0.2369161,-0.5291667 -0.5291667,-0.5291667 -0.2922505,0 -0.5291666,0.236916 -0.5291666,0.5291667 z M 3.7041666,3.175 V 2.9104167 c 0,-0.1461255 0.1184579,-0.2645834 0.2645833,-0.2645834 0.1461254,0 0.2645834,0.1184579 0.2645834,0.2645834 V 3.175 Z M 2.6458333,2.38125 V 2.6458333 H 2.9104166 V 3.96875 H 3.1749999 V 2.6458333 H 3.4395833 V 2.38125 Z m 2.1166666,1.5875 H 5.0270833 V 3.4395833 H 5.2916666 L 5.5562499,3.96875 H 5.8208332 L 5.5758291,3.3565041 C 5.7283362,3.2594231 5.8207279,3.0912017 5.8208332,2.9104167 5.8208332,2.618166 5.5839171,2.38125 5.2916666,2.38125 H 4.7624999 M 5.0270833,3.175 V 2.6458333 h 0.2645833 c 0.1461254,0 0.2645833,0.1184579 0.2645833,0.2645834 C 5.5562499,3.0565421 5.437792,3.175 5.2916666,3.175 Z"
     id="path7441"
     style="fill:#635749;fill-opacity:1;stroke-width:0.264583" />
</svg>
