<?xml version="1.0" encoding="UTF-8" standalone="no"?>
<!-- Created with Inkscape (http://www.inkscape.org/) -->

<svg
   width="32"
   height="32"
   viewBox="0 0 8.4666665 8.4666665"
   version="1.1"
   id="svg5"
   inkscape:version="1.2 (dc2aedaf03, 2022-05-15)"
   sodipodi:docname="application-x-virtualbox-vbox.svg"
   xmlns:inkscape="http://www.inkscape.org/namespaces/inkscape"
   xmlns:sodipodi="http://sodipodi.sourceforge.net/DTD/sodipodi-0.dtd"
   xmlns="http://www.w3.org/2000/svg"
   xmlns:svg="http://www.w3.org/2000/svg">
  <sodipodi:namedview
     id="namedview7"
     pagecolor="#ffffff"
     bordercolor="#666666"
     borderopacity="1.0"
     inkscape:pageshadow="2"
     inkscape:pageopacity="0.0"
     inkscape:pagecheckerboard="0"
     inkscape:document-units="px"
     showgrid="false"
     units="px"
     height="48px"
     inkscape:zoom="25.53125"
     inkscape:cx="15.980416"
     inkscape:cy="16"
     inkscape:window-width="1846"
     inkscape:window-height="1011"
     inkscape:window-x="74"
     inkscape:window-y="32"
     inkscape:window-maximized="1"
     inkscape:current-layer="svg5"
     inkscape:showpageshadow="2"
     inkscape:deskcolor="#d1d1d1"
     showguides="false" />
  <defs
     id="defs2" />
  <path
     d="m 7.4083319,2.5135417 v 5.2916666 c 0,0.3664479 -0.2950104,0.6614583 -0.6614583,0.6614583 H 1.719793 c -0.3656171,0 -0.6621912,-0.2958306 -0.6614583,-0.6614583 V 0.92604167 c 0,-0.36644793 0.2950104,-0.66145834 0.6614583,-0.66145834 h 3.4395806"
     style="fill:#0c3b69;stroke-width:0.264583;fill-opacity:1"
     id="path2928" />
  <path
     d="M 7.1437486,2.6458334 V 7.4083333 C 7.1437486,7.7014916 6.9077403,7.9375 6.6145819,7.9375 H 1.852082 C 1.5589237,7.9375 1.3229153,7.7014916 1.3229153,7.4083333 V 1.0583334 c 0,-0.29315833 0.2360084,-0.52916674 0.5291667,-0.52916674 h 3.175"
     style="fill:#1976d2;stroke-width:0.264583;fill-opacity:1"
     id="path2808" />
  <path
     d="M 7.1437486,3.175 H 5.2916653 C 4.998507,3.175 4.7624986,2.9389917 4.7624986,2.6458334 V 0.52916666 H 5.027082 L 7.1437486,2.6458334 Z"
     style="fill:#0c3b69;fill-opacity:1;stroke-width:0.264583;opacity:0.5"
     id="path3168" />
  <path
     d="m 7.1437486,2.6458334 h -1.5875 C 5.2630903,2.6458334 5.027082,2.409825 5.027082,2.1166667 V 0.52916666"
     style="fill:#8cbbe9;stroke-width:0.264583;fill-opacity:1"
     id="path3048" />
  <path
     id="path1493"
     style="color:#000000;fill:#ffffff;fill-opacity:1;stroke:none;stroke-width:2;stroke-linejoin:round"
     d="M 4.23385 3.7057169 C 4.1206622 3.7059789 4.0200613 3.7783511 3.9837361 3.8855509 L 3.1749999 6.3112426 L 2.8980143 4.9423339 C 2.8616883 4.8351341 2.7610881 4.7627619 2.6479003 4.7624999 L 2.1233846 4.7624999 L 2.1166666 4.7624999 A 0.26458332 0.2645708 0 0 0 1.8520833 5.0270832 A 0.26458332 0.2645708 0 0 0 2.1166666 5.2916666 L 2.4561808 5.2916666 L 2.924886 7.229016 C 3.0071538 7.4662182 3.3428451 7.4662182 3.4251139 7.229016 L 4.23385 4.8033243 L 4.5108357 5.6394489 C 4.5894615 5.8844527 4.9365715 5.8844527 5.0151977 5.6394489 L 5.2844319 4.8229613 L 5.5464314 5.6353148 C 5.5800192 5.7456026 5.6807467 5.8215363 5.7960285 5.8229003 L 6.3499999 5.8229003 L 6.3499999 5.8218667 A 0.26458332 0.2645708 0 0 0 6.6145832 5.5572834 A 0.26458332 0.2645708 0 0 0 6.3499999 5.2927001 L 6.3499999 5.2916666 L 5.9913654 5.2916666 L 5.5422973 3.8891682 C 5.4618953 3.6513024 5.1261728 3.6489681 5.0420694 3.8855509 L 4.7650837 4.7175414 L 4.4839639 3.8855509 C 4.4476381 3.7783511 4.3470378 3.7059783 4.23385 3.7057169 z " />
</svg>
