<?xml version="1.0" encoding="UTF-8" standalone="no"?>
<!-- Created with Inkscape (http://www.inkscape.org/) -->

<svg
   width="32"
   height="32"
   viewBox="0 0 8.4666665 8.4666665"
   version="1.1"
   id="svg5"
   inkscape:version="1.1.2 (0a00cf5339, 2022-02-04, custom)"
   sodipodi:docname="application-octet-stream.svg"
   xmlns:inkscape="http://www.inkscape.org/namespaces/inkscape"
   xmlns:sodipodi="http://sodipodi.sourceforge.net/DTD/sodipodi-0.dtd"
   xmlns="http://www.w3.org/2000/svg"
   xmlns:svg="http://www.w3.org/2000/svg">
  <sodipodi:namedview
     id="namedview7"
     pagecolor="#ffffff"
     bordercolor="#666666"
     borderopacity="1.0"
     inkscape:pageshadow="2"
     inkscape:pageopacity="0.0"
     inkscape:pagecheckerboard="0"
     inkscape:document-units="px"
     showgrid="false"
     units="px"
     height="48px"
     inkscape:zoom="17.699767"
     inkscape:cx="7.8814599"
     inkscape:cy="10.621609"
     inkscape:window-width="1920"
     inkscape:window-height="1017"
     inkscape:window-x="0"
     inkscape:window-y="0"
     inkscape:window-maximized="1"
     inkscape:current-layer="svg5" />
  <defs
     id="defs2" />
  <rect
     style="opacity:1;fill:#6f6f6f;fill-opacity:1;stroke-width:0.264583"
     id="rect8028"
     width="6.3499999"
     height="8.2020836"
     x="1.0583333"
     y="0.26458332"
     ry="0.66145831" />
  <rect
     style="opacity:1;fill:#ececec;fill-opacity:1;stroke-width:0.264583"
     id="rect1051"
     width="5.8208332"
     height="7.4083333"
     x="1.3229166"
     y="0.52916664"
     ry="0.52916664" />
  <path
     id="path340"
     d="m 2.1166666,1.0584194 v 0.79375 h 0.396875 c 0.09869,0 0.1322917,0 0.1322917,0.1322916 0,0.15875 0,0.396875 -0.1322917,0.396875 -0.2645833,0 -0.396875,-0.1322916 -0.396875,-0.1322916 v 0.2645833 c 0,0 0.1322917,0.1322917 0.396875,0.1322917 0.396875,0 0.396875,-0.4042834 0.396875,-0.6614584 0,-0.2645833 0,-0.396875 -0.396875,-0.396875 H 2.38125 V 1.3230027 H 2.778125 L 2.9104166,1.0584194 Z m 1.4552084,0 a 0.396875,0.79374999 0 0 0 -0.396875,0.79375 0.396875,0.79374999 0 0 0 0.396875,0.79375 0.396875,0.79374999 0 0 0 0.396875,-0.79375 0.396875,0.79374999 0 0 0 -0.396875,-0.79375 z m 1.2531534,0 c -0.327015,0.00291 -0.3271118,0.049609 -0.3271118,0.79375 0,0.79375 0,0.79375 0.396875,0.79375 0.396875,0 0.396875,0 0.396875,-0.5291667 0,-0.5291667 0,-0.5291667 -0.396875,-0.5291667 H 4.7624999 c 0,-0.1322916 0,-0.2645833 0.1322917,-0.2645833 H 5.1593749 L 5.2916666,1.0584194 h -0.396875 c -0.024805,0 -0.047962,-1.938e-4 -0.069763,0 z m 0.7312215,0 v 1.5875 h 0.2645834 v -0.79375 H 6.0854166 V 1.587586 H 5.8208333 V 1.3230027 h 0.396875 L 6.3499999,1.0584194 Z M 3.571875,1.3230027 A 0.13229166,0.52916666 0 0 1 3.7041666,1.8521694 0.13229166,0.52916666 0 0 1 3.571875,2.381336 0.13229166,0.52916666 0 0 1 3.4395833,1.8521694 0.13229166,0.52916666 0 0 1 3.571875,1.3230027 Z m 1.1906249,0.5291667 h 0.1322917 c 0.073025,0 0.1322917,0.1185333 0.1322917,0.2645833 0,0.14605 -0.059267,0.2645833 -0.1322917,0.2645833 -0.073025,0 -0.1322917,-0.1185333 -0.1322917,-0.2645833 z m -2.6458333,1.5875 V 3.7042527 H 2.6458333 L 2.1166666,4.8948777 2.38125,5.0271693 2.9104166,3.7042527 V 3.4396694 Z m 1.4552084,0 A 0.396875,0.79374999 0 0 0 3.175,4.2334193 0.396875,0.79374999 0 0 0 3.571875,5.0271693 0.396875,0.79374999 0 0 0 3.96875,4.2334193 0.396875,0.79374999 0 0 0 3.571875,3.4396694 Z m 0.9260416,0 c 0,1.3229166 0,1.3229166 0.5291667,1.3229166 V 5.0271693 H 5.2916666 V 3.968836 H 5.0270833 v 0.5291667 c -0.2645834,0 -0.2645834,0 -0.2645834,-1.0583333 z m 1.3854451,0 c -0.3270149,0.00194 -0.3271118,0.033073 -0.3271118,0.5291666 0,0.5291667 0,0.5291667 0.396875,0.5291667 h 0.1322917 c 0,0.1322916 0,0.2645833 -0.1322917,0.2645833 H 5.6885416 L 5.5562499,5.0271693 h 0.396875 c 0.396875,0 0.396875,0 0.396875,-0.79375 0,-0.7937499 0,-0.7937499 -0.396875,-0.7937499 -0.024805,0 -0.047962,-1.292e-4 -0.069763,0 z M 3.571875,3.7042527 A 0.13229166,0.52916666 0 0 1 3.7041666,4.2334193 0.13229166,0.52916666 0 0 1 3.571875,4.762586 0.13229166,0.52916666 0 0 1 3.4395833,4.2334193 0.13229166,0.52916666 0 0 1 3.571875,3.7042527 Z m 2.3812499,0 c 0.073025,0 0.1322917,0.1185333 0.1322917,0.2645833 V 4.2334193 H 5.9531249 c -0.073025,0 -0.1322916,-0.1185333 -0.1322916,-0.2645833 0,-0.14605 0.059267,-0.2645833 0.1322916,-0.2645833 z M 2.4437784,5.8209193 c -0.3270149,0.00291 -0.3271118,0.049609 -0.3271118,0.79375 0,0.79375 0,0.79375 0.396875,0.79375 0.396875,0 0.396875,0 0.396875,-0.5291667 0,-0.5291666 0,-0.5291666 -0.396875,-0.5291666 H 2.38125 c 0,-0.1322917 0,-0.2645834 0.1322916,-0.2645834 H 2.778125 L 2.9104166,5.8209193 h -0.396875 c -0.024805,0 -0.047962,-1.937e-4 -0.069763,0 z m 0.7312216,0 0.1322916,0.2645833 h 0.396875 V 6.6146693 H 3.4395833 V 6.8792526 H 3.7041666 V 7.143836 H 3.175 v 0.2645833 h 0.79375 v -1.5875 z m 1.6500284,0 c -0.327015,0.00291 -0.3271118,0.049609 -0.3271118,0.79375 0,0.79375 0,0.79375 0.396875,0.79375 0.396875,0 0.396875,0 0.396875,-0.5291667 0,-0.5291666 0,-0.5291666 -0.396875,-0.5291666 H 4.7624999 c 0,-0.1322917 0,-0.2645834 0.1322917,-0.2645834 H 5.1593749 L 5.2916666,5.8209193 h -0.396875 c -0.024805,0 -0.047962,-1.937e-4 -0.069763,0 z m 0.7312215,0 v 1.5875 h 0.2645834 v -0.79375 H 6.0854166 V 6.350086 H 5.8208333 V 6.0855026 h 0.396875 L 6.3499999,5.8209193 Z M 2.38125,6.6146693 h 0.1322916 c 0.073025,0 0.1322917,0.1185333 0.1322917,0.2645833 0,0.14605 -0.059267,0.2645834 -0.1322917,0.2645834 -0.073025,0 -0.1322916,-0.1185334 -0.1322916,-0.2645834 z m 2.3812499,0 h 0.1322917 c 0.073025,0 0.1322917,0.1185333 0.1322917,0.2645833 0,0.14605 -0.059267,0.2645834 -0.1322917,0.2645834 -0.073025,0 -0.1322917,-0.1185334 -0.1322917,-0.2645834 z"
     style="fill:#393634;fill-opacity:1;stroke-width:0.264583;opacity:0.5" />
</svg>
