<?xml version="1.0" encoding="UTF-8" standalone="no"?>
<!-- Created with Inkscape (http://www.inkscape.org/) -->

<svg
   width="32"
   height="32"
   viewBox="0 0 8.4666665 8.4666665"
   version="1.1"
   id="svg5"
   inkscape:version="1.2 (dc2aedaf03, 2022-05-15)"
   sodipodi:docname="application-msexcel.svg"
   xmlns:inkscape="http://www.inkscape.org/namespaces/inkscape"
   xmlns:sodipodi="http://sodipodi.sourceforge.net/DTD/sodipodi-0.dtd"
   xmlns="http://www.w3.org/2000/svg"
   xmlns:svg="http://www.w3.org/2000/svg">
  <sodipodi:namedview
     id="namedview7"
     pagecolor="#ffffff"
     bordercolor="#666666"
     borderopacity="1.0"
     inkscape:pageshadow="2"
     inkscape:pageopacity="0.0"
     inkscape:pagecheckerboard="0"
     inkscape:document-units="px"
     showgrid="false"
     units="px"
     height="48px"
     inkscape:zoom="26.419355"
     inkscape:cx="15.992064"
     inkscape:cy="16.484127"
     inkscape:window-width="1846"
     inkscape:window-height="1016"
     inkscape:window-x="0"
     inkscape:window-y="0"
     inkscape:window-maximized="1"
     inkscape:current-layer="svg5"
     inkscape:showpageshadow="2"
     inkscape:deskcolor="#d1d1d1" />
  <defs
     id="defs2" />
  <path
     d="m 7.4083319,2.5135417 v 5.2916666 c 0,0.3664479 -0.2950104,0.6614583 -0.6614583,0.6614583 H 1.719793 c -0.3656171,0 -0.6621912,-0.2958306 -0.6614583,-0.6614583 V 0.92604167 c 0,-0.36644793 0.2950104,-0.66145834 0.6614583,-0.66145834 h 3.4395806"
     style="fill:#234c31;stroke-width:0.264583;fill-opacity:1"
     id="path2928" />
  <path
     d="M 7.1437486,2.6458334 V 7.4083333 C 7.1437486,7.7014916 6.9077403,7.9375 6.6145819,7.9375 H 1.852082 C 1.5589237,7.9375 1.3229153,7.7014916 1.3229153,7.4083333 V 1.0583334 c 0,-0.29315833 0.2360084,-0.52916674 0.5291667,-0.52916674 h 3.175"
     style="fill:#479863;stroke-width:0.264583;fill-opacity:1"
     id="path2808" />
  <rect
     style="opacity:0.25;fill:#ffffff;stroke-width:1.05833;stroke-linejoin:bevel"
     id="rect25302"
     width="3.7041667"
     height="4.2333331"
     x="2.645833"
     y="3.4396341"
     ry="0.26458332" />
  <path
     id="rect29937"
     style="opacity:0.5;fill:#ffffff;fill-opacity:1;stroke-width:1.05833;stroke-linejoin:bevel"
     d="M 2.6458334,4.497942 V 5.5562752 H 4.4979163 V 4.497942 Z m 1.8520829,1.0583332 v 1.0583331 l 1.8520834,2.5e-5 V 5.5563007 Z"
     sodipodi:nodetypes="cccccccccc" />
  <path
     id="path29903"
     style="opacity:0.7;fill:#ffffff;stroke-width:0.529165;stroke-linejoin:bevel"
     d="m 2.6458334,5.5562752 v 1.8520829 c 0,0.146579 0.1180044,0.264584 0.2645832,0.264584 l 3.1750001,2.5e-5 c 0.146579,0 0.264583,-0.118005 0.264583,-0.264584 V 6.6146333 L 4.4979163,6.614608 V 5.556275 Z"
     sodipodi:nodetypes="csccscccc" />
  <path
     id="rect28337"
     style="opacity:0.3;fill:#ffffff;stroke-width:0.529165;stroke-linejoin:bevel"
     d="M 2.9036987,3.4396087 C 2.7603105,3.4432173 2.6458334,3.5599034 2.6458334,3.7041921 V 4.497942 H 4.4979163 V 3.4396087 H 2.9104166 c -0.00229,0 -0.00444,-5.73e-5 -0.00672,0 z M 4.4979163,4.497942 V 5.556275 H 6.3499996 V 4.497942 Z"
     sodipodi:nodetypes="cscccsccccccc" />
  <rect
     style="fill:#479863;fill-opacity:1;stroke-width:0.264583"
     id="rect3242"
     width="2.9104166"
     height="2.9104166"
     x="1.3229166"
     y="4.2333331"
     ry="0.52916664" />
  <rect
     style="fill:#ffffff;stroke-width:0.132291"
     id="rect2687"
     width="2.3812499"
     height="2.3812499"
     x="1.5875001"
     y="4.4979172"
     ry="0.26458323" />
  <path
     id="rect4044"
     style="fill:#479863;fill-opacity:1;stroke-width:0.142891"
     d="M 2.1166665,4.7624999 2.6458332,5.6885413 2.1166665,6.6145832 h 0.2645833 l 0.396875,-0.6945308 0.396875,0.6945308 H 3.4395831 L 2.9104165,5.6885413 3.4395831,4.7624999 H 3.1749998 L 2.7781248,5.457031 2.3812498,4.7624999 Z" />
  <path
     d="M 7.1437486,3.175 H 5.2916653 C 4.998507,3.175 4.7624986,2.9389917 4.7624986,2.6458334 V 0.52916666 H 5.027082 L 7.1437486,2.6458334 Z"
     style="fill:#234c31;fill-opacity:1;stroke-width:0.264583;opacity:0.5"
     id="path3168" />
  <path
     d="m 7.1437486,2.6458334 h -1.5875 C 5.2630903,2.6458334 5.027082,2.409825 5.027082,2.1166667 V 0.52916666"
     style="fill:#73c48f;stroke-width:0.264583;fill-opacity:1"
     id="path3048" />
</svg>
