<?xml version="1.0" encoding="UTF-8" standalone="no"?>
<!-- Created with Inkscape (http://www.inkscape.org/) -->

<svg
   width="32"
   height="32"
   viewBox="0 0 8.4666665 8.4666665"
   version="1.1"
   id="svg5"
   inkscape:version="1.2 (dc2aedaf03, 2022-05-15)"
   sodipodi:docname="image-x-generic.svg"
   xmlns:inkscape="http://www.inkscape.org/namespaces/inkscape"
   xmlns:sodipodi="http://sodipodi.sourceforge.net/DTD/sodipodi-0.dtd"
   xmlns="http://www.w3.org/2000/svg"
   xmlns:svg="http://www.w3.org/2000/svg">
  <sodipodi:namedview
     id="namedview7"
     pagecolor="#ffffff"
     bordercolor="#666666"
     borderopacity="1.0"
     inkscape:pageshadow="2"
     inkscape:pageopacity="0.0"
     inkscape:pagecheckerboard="0"
     inkscape:document-units="px"
     showgrid="false"
     units="px"
     height="48px"
     inkscape:zoom="18.227272"
     inkscape:cx="-8.5586038"
     inkscape:cy="18.982544"
     inkscape:window-width="1920"
     inkscape:window-height="1014"
     inkscape:window-x="0"
     inkscape:window-y="0"
     inkscape:window-maximized="1"
     inkscape:current-layer="svg5"
     showguides="false"
     inkscape:showpageshadow="2"
     inkscape:deskcolor="#d1d1d1" />
  <defs
     id="defs2" />
  <rect
     style="opacity:1;fill:#245c63;fill-opacity:1;stroke-width:0.264583"
     id="rect1162"
     width="7.4083333"
     height="5.8208332"
     x="0.52916664"
     y="1.8520833"
     ry="0.52916664" />
  <rect
     style="opacity:1;fill:#48b9c7;fill-opacity:1;stroke-width:0.469115"
     id="rect1437"
     width="6.8791666"
     height="5.0270834"
     x="0.79374999"
     y="2.1166666"
     ry="0.39687499" />
  <rect
     style="fill:#f6f6f6;fill-opacity:1;stroke-width:0.264583"
     id="rect9337"
     width="5.8208332"
     height="3.96875"
     x="1.3229166"
     y="2.6458333"
     ry="0.26458332" />
  <path
     d="M 2.38125,3.7041666 V 5.8208332 H 6.0854166 V 3.7041666 Z m 1.8520833,0.2645833 c 0.4383749,0 0.79375,0.3553751 0.79375,0.79375 0,0.4383749 -0.3553751,0.79375 -0.79375,0.79375 -0.4383749,0 -0.79375,-0.3553751 -0.79375,-0.79375 0,-0.4383749 0.3553751,-0.79375 0.79375,-0.79375 z"
     style="fill:#1c8d9b;fill-opacity:0.502;stroke-width:0.264583"
     id="path386" />
  <path
     d="M 3.9687499,2.9104166 3.4395833,3.4395832 h -0.79375 c -0.1465792,0 -0.2645833,0.1180042 -0.2645833,0.2645834 h 3.7041666 c 0,-0.1465792 -0.1180042,-0.2645834 -0.2645833,-0.2645834 h -0.79375 L 4.4979166,2.9104166 Z M 2.38125,5.8208332 c 0,0.1465792 0.1180041,0.2645834 0.2645833,0.2645834 h 3.175 c 0.1465791,0 0.2645833,-0.1180042 0.2645833,-0.2645834 z"
     style="fill:#1c8d9b;stroke-width:0.264583"
     id="path308" />
</svg>
