<?xml version="1.0" encoding="UTF-8" standalone="no"?>
<!-- Created with Inkscape (http://www.inkscape.org/) -->

<svg
   width="32"
   height="32"
   viewBox="0 0 8.4666665 8.4666665"
   version="1.1"
   id="svg5"
   inkscape:version="1.2 (dc2aedaf03, 2022-05-15)"
   sodipodi:docname="image-x-xcf.svg"
   xmlns:inkscape="http://www.inkscape.org/namespaces/inkscape"
   xmlns:sodipodi="http://sodipodi.sourceforge.net/DTD/sodipodi-0.dtd"
   xmlns="http://www.w3.org/2000/svg"
   xmlns:svg="http://www.w3.org/2000/svg">
  <sodipodi:namedview
     id="namedview7"
     pagecolor="#ffffff"
     bordercolor="#666666"
     borderopacity="1.0"
     inkscape:pageshadow="2"
     inkscape:pageopacity="0.0"
     inkscape:pagecheckerboard="0"
     inkscape:document-units="px"
     showgrid="false"
     units="px"
     height="48px"
     inkscape:zoom="18.227272"
     inkscape:cx="-8.5586038"
     inkscape:cy="24.907732"
     inkscape:window-width="1920"
     inkscape:window-height="1014"
     inkscape:window-x="0"
     inkscape:window-y="0"
     inkscape:window-maximized="1"
     inkscape:current-layer="svg5"
     showguides="false"
     inkscape:showpageshadow="2"
     inkscape:deskcolor="#d1d1d1" />
  <defs
     id="defs2" />
  <rect
     style="opacity:1;fill:#245c63;fill-opacity:1;stroke-width:0.264583"
     id="rect1162"
     width="7.4083333"
     height="5.8208332"
     x="0.52916664"
     y="1.8520833"
     ry="0.52916664" />
  <rect
     style="opacity:1;fill:#48b9c7;fill-opacity:1;stroke-width:0.469115"
     id="rect1437"
     width="6.8791666"
     height="5.0270834"
     x="0.79374999"
     y="2.1166666"
     ry="0.39687499" />
  <rect
     style="fill:#f6f6f6;fill-opacity:1;stroke-width:0.264583"
     id="rect9337"
     width="5.8208332"
     height="3.96875"
     x="1.3229166"
     y="2.6458333"
     ry="0.26458332" />
  <path
     d="m 5.3557142,3.6627169 h 1.165614 l -0.04798,0.3302106 H 5.8185737 V 4.5122332 H 6.3886793 V 4.8424437 H 5.8185737 V 5.6185778 H 5.3557142 Z M 4.531598,3.6147374 c 0.122301,0 0.2304891,0.017886 0.3245644,0.053626 0.095959,0.035748 0.1862746,0.089374 0.2709413,0.160872 L 4.906965,4.0917097 C 4.8486376,4.0465533 4.7912495,4.012684 4.7348033,3.9901071 4.6783571,3.9675381 4.6181485,3.9562377 4.5541749,3.9562377 c -0.1317069,0 -0.2361327,0.055504 -0.3132746,0.1665156 -0.075261,0.1110112 -0.1128924,0.2822337 -0.1128924,0.513662 0,0.2276661 0.037632,0.3970047 0.1128924,0.5080159 0.077142,0.1091274 0.1834489,0.1636924 0.3189208,0.1636924 0.071498,0 0.1364113,-0.013176 0.1947387,-0.03951 0.05833,-0.028223 0.1213617,-0.067736 0.189095,-0.1185386 l 0.2060284,0.2652977 c -0.07338,0.073379 -0.1627505,0.1335881 -0.2681182,0.1806284 -0.1034838,0.047038 -0.21826,0.070556 -0.3443234,0.070556 -0.1806258,0 -0.3377353,-0.039513 -0.4713261,-0.118536 C 3.9323274,5.4689982 3.8279043,5.3523408 3.7526409,5.1980543 3.6792613,5.0418867 3.6425689,4.8546728 3.6425689,4.6364153 3.6425689,4.4238015 3.6802009,4.24035 3.7554613,4.0860635 3.8326059,3.931777 3.9379736,3.8151222 4.0715617,3.7360991 4.2070337,3.6551922 4.3603782,3.6147374 4.531598,3.6147374 Z M 3.6115254,5.6185778 H 3.1063326 L 2.7704758,4.8734899 2.4402652,5.6185778 H 1.9491854 L 2.4967114,4.5799691 1.9915187,3.6627169 H 2.493891 L 2.776122,4.2892714 3.0724633,3.6627169 H 3.5635458 L 3.0470633,4.5630358 Z"
     style="font-weight:bold;fill:#393634;fill-opacity:1;stroke-width:0.264583;opacity:0.5"
     id="path365" />
</svg>
