<?xml version="1.0" encoding="UTF-8" standalone="no"?>
<!-- Created with Inkscape (http://www.inkscape.org/) -->

<svg
   width="32"
   height="32"
   viewBox="0 0 8.4666666 8.4666666"
   version="1.1"
   id="svg5"
   inkscape:version="1.1.2 (0a00cf5339, 2022-02-04, custom)"
   sodipodi:docname="package-x-deb.svg"
   xmlns:inkscape="http://www.inkscape.org/namespaces/inkscape"
   xmlns:sodipodi="http://sodipodi.sourceforge.net/DTD/sodipodi-0.dtd"
   xmlns="http://www.w3.org/2000/svg"
   xmlns:svg="http://www.w3.org/2000/svg">
  <sodipodi:namedview
     id="namedview7"
     pagecolor="#ffffff"
     bordercolor="#666666"
     borderopacity="1.0"
     inkscape:pageshadow="2"
     inkscape:pageopacity="0.0"
     inkscape:pagecheckerboard="0"
     inkscape:document-units="px"
     showgrid="false"
     units="px"
     height="48px"
     inkscape:zoom="25.0625"
     inkscape:cx="15.98005"
     inkscape:cy="16"
     inkscape:window-width="1920"
     inkscape:window-height="1017"
     inkscape:window-x="0"
     inkscape:window-y="0"
     inkscape:window-maximized="1"
     inkscape:current-layer="svg5"
     showguides="true" />
  <defs
     id="defs2" />
  <rect
     style="opacity:1;fill:#c14278;fill-opacity:1;stroke-width:0.264583"
     id="rect1162"
     width="6.8791666"
     height="6.8791666"
     x="0.79374999"
     y="0.79374999"
     ry="0.52916664" />
  <path
     d="M 1.4057311,5.5850895 1.2403666,5.7917952 2.4144551,6.731275 1.2548366,7.4268382 1.3912611,7.6542158 2.6826553,6.8790686 H 5.7842757 L 7.0756699,7.6542158 7.2120943,7.4268382 6.0524759,6.731275 7.2265644,5.7917952 7.0611998,5.5850895 5.774457,6.6144853 H 2.692474 Z"
     style="color:#000000;opacity:0.25;fill:#000000;fill-opacity:1;stroke-width:0.264583;-inkscape-stroke:none"
     id="path1642" />
  <rect
     style="fill:#e68bb2;fill-opacity:1;stroke-width:0.264583"
     id="rect1142"
     width="6.3499999"
     height="4.4979167"
     x="1.0583333"
     y="1.0583333"
     ry="0.39687499" />
  <path
     d="M 2.1166667,2.38125 V 4.2333334 H 2.778125 c 0.366448,0 0.6614584,-0.2950105 0.6614584,-0.6614584 V 3.0427084 C 3.4395834,2.6762605 3.144573,2.38125 2.778125,2.38125 H 2.2489584 Z m 1.5875,0 v 0.2645834 1.5875 H 3.96875 5.0270834 V 3.96875 H 3.96875 V 3.4395834 H 4.7625 V 3.175 H 3.96875 V 2.6458334 H 5.0270834 V 2.38125 Z m 1.5875,0 V 2.6458334 3.175 v 0.2645834 0.79375 h 0.2645836 0.5291666 c 0.2922508,0 0.5291667,-0.236908 0.5291667,-0.5291667 1.32e-5,-0.225134 -0.1424252,-0.4256352 -0.3550179,-0.4997185 0.058597,-0.086889 0.090072,-0.18923 0.090435,-0.2940315 C 6.3500007,2.618158 6.1130848,2.38125 5.820834,2.38125 Z M 2.3812501,2.6458334 H 2.778125 c 0.2198688,0 0.396875,0.1770062 0.396875,0.396875 V 3.571875 C 3.175,3.7917438 2.9979938,3.96875 2.778125,3.96875 H 2.3812501 Z m 3.1750002,0 h 0.2645833 c 0.1461241,0 0.2645833,0.1184539 0.2645833,0.2645833 C 6.0854169,3.0565461 5.9669577,3.175 5.8208336,3.175 H 5.5562503 Z m 0,0.79375 h 0.2645833 0.2645833 c 0.1461241,0 0.2645834,0.1184539 0.2645834,0.2645833 0,0.1461294 -0.1184593,0.2645833 -0.2645834,0.2645833 H 5.5562503 Z"
     id="path2616"
     style="stroke-width:0.264583;fill:#a2104e;fill-opacity:1" />
</svg>
