<?xml version="1.0" encoding="UTF-8" standalone="no"?>
<!-- Created with Inkscape (http://www.inkscape.org/) -->

<svg
   width="32"
   height="32"
   viewBox="0 0 8.4666665 8.4666665"
   version="1.1"
   id="svg5"
   inkscape:version="1.2 (dc2aedaf03, 2022-05-15)"
   sodipodi:docname="text-x-generic-template.svg"
   xmlns:inkscape="http://www.inkscape.org/namespaces/inkscape"
   xmlns:sodipodi="http://sodipodi.sourceforge.net/DTD/sodipodi-0.dtd"
   xmlns="http://www.w3.org/2000/svg"
   xmlns:svg="http://www.w3.org/2000/svg">
  <sodipodi:namedview
     id="namedview7"
     pagecolor="#ffffff"
     bordercolor="#666666"
     borderopacity="1.0"
     inkscape:pageshadow="2"
     inkscape:pageopacity="0.0"
     inkscape:pagecheckerboard="0"
     inkscape:document-units="px"
     showgrid="false"
     units="px"
     height="48px"
     inkscape:zoom="8.8498833"
     inkscape:cx="10.226124"
     inkscape:cy="20.565243"
     inkscape:window-width="1920"
     inkscape:window-height="1014"
     inkscape:window-x="0"
     inkscape:window-y="0"
     inkscape:window-maximized="1"
     inkscape:current-layer="svg5"
     inkscape:showpageshadow="2"
     inkscape:deskcolor="#d1d1d1" />
  <defs
     id="defs2" />
  <path
     d="m 7.4083319,2.5135417 v 5.2916666 c 0,0.3664479 -0.2950104,0.6614583 -0.6614583,0.6614583 H 1.719793 c -0.3656171,0 -0.6621912,-0.2958306 -0.6614583,-0.6614583 V 0.92604167 c 0,-0.36644793 0.2950104,-0.66145834 0.6614583,-0.66145834 h 3.4395806"
     style="fill:#6f6f6f;stroke-width:0.264583"
     id="path2928" />
  <path
     d="M 7.1437486,2.6458334 V 7.4083333 C 7.1437486,7.7014916 6.9077403,7.9375 6.6145819,7.9375 H 1.852082 C 1.5589237,7.9375 1.3229153,7.7014916 1.3229153,7.4083333 V 1.0583334 c 0,-0.29315833 0.2360084,-0.52916674 0.5291667,-0.52916674 h 3.175"
     style="fill:#ececec;stroke-width:0.264583"
     id="path2808" />
  <path
     d="M 7.1437486,3.175 H 5.2916653 C 4.998507,3.175 4.7624986,2.9389917 4.7624986,2.6458334 V 0.52916666 H 5.027082 L 7.1437486,2.6458334 Z"
     style="fill:#6f6f6f;fill-opacity:0.502;stroke-width:0.264583"
     id="path3168" />
  <path
     d="m 7.1437486,2.6458334 h -1.5875 C 5.2630903,2.6458334 5.027082,2.409825 5.027082,2.1166667 V 0.52916666"
     style="fill:#fafafa;stroke-width:0.264583"
     id="path3048" />
  <path
     d="m 4.2333332,3.7041666 c -0.5845006,0 -1.0583333,0.4738325 -1.0583333,1.0583334 0,0.2922502 0.1180213,0.5567542 0.3095418,0.7482747 L 2.9755289,6.0197875 C 2.7478436,5.8323747 2.4070801,6.1384187 2.6044921,6.3913411 L 2.1166666,6.8791666 V 7.4083333 L 2.6458332,7.1437499 3.0168701,6.7727131 C 3.4813461,7.0985104 4.0648846,7.2288553 4.6369262,7.1179115 4.9341528,7.0600606 5.2097224,6.9404695 5.4492796,6.7721964 L 5.8208332,7.1437499 6.3499998,7.4083333 V 6.8791666 L 5.8621743,6.3913411 C 6.0304289,6.1886052 6.1619189,5.9535496 6.2461302,5.6947427 6.3048492,5.5226844 6.1767726,5.3437152 5.9949827,5.3443766 5.8793124,5.3445881 5.777672,5.4199483 5.7433187,5.5304115 5.6853647,5.7086523 5.5969541,5.8714494 5.4854532,6.0146199 L 4.9816079,5.5107747 C 5.1731284,5.3192542 5.2916665,5.0547502 5.2916665,4.7625 c 0,-0.5845009 -0.4738325,-1.0583334 -1.0583333,-1.0583334 z m 0,0.5291667 c 0.2922503,0 0.5291667,0.2369164 0.5291667,0.5291667 0,0.1461251 -0.059269,0.2783771 -0.1550292,0.3741372 L 4.2333332,4.7625 3.8586792,5.1366372 C 3.7629192,5.0408772 3.7041665,4.9086251 3.7041665,4.7625 c 0,-0.2922503 0.2369164,-0.5291667 0.5291667,-0.5291667 z M 3.9961385,5.7934447 c 0.076266,0.017465 0.1556324,0.027389 0.2371947,0.027389 0.081738,0 0.1607791,-0.00985 0.237195,-0.027389 L 5.0668741,6.3897906 C 4.9062694,6.4889107 4.7271073,6.5608792 4.5356406,6.5980468 4.1376064,6.6753133 3.7330231,6.5972266 3.3987588,6.3908244 Z"
     id="path1007"
     style="fill:#9a9a9a;fill-opacity:1;stroke-width:0.264583" />
</svg>
