<?xml version="1.0" encoding="UTF-8" standalone="no"?>
<!-- Created with Inkscape (http://www.inkscape.org/) -->

<svg
   width="32"
   height="32"
   viewBox="0 0 8.4666665 8.4666665"
   version="1.1"
   id="svg5"
   inkscape:version="1.2 (dc2aedaf03, 2022-05-15)"
   sodipodi:docname="text-x-rust.svg"
   xmlns:inkscape="http://www.inkscape.org/namespaces/inkscape"
   xmlns:sodipodi="http://sodipodi.sourceforge.net/DTD/sodipodi-0.dtd"
   xmlns="http://www.w3.org/2000/svg"
   xmlns:svg="http://www.w3.org/2000/svg">
  <sodipodi:namedview
     id="namedview7"
     pagecolor="#ffffff"
     bordercolor="#666666"
     borderopacity="1.0"
     inkscape:pageshadow="2"
     inkscape:pageopacity="0.0"
     inkscape:pagecheckerboard="0"
     inkscape:document-units="px"
     showgrid="false"
     units="px"
     height="48px"
     inkscape:zoom="17.699767"
     inkscape:cx="12.457791"
     inkscape:cy="25.678304"
     inkscape:window-width="1846"
     inkscape:window-height="1011"
     inkscape:window-x="0"
     inkscape:window-y="0"
     inkscape:window-maximized="1"
     inkscape:current-layer="svg5"
     inkscape:showpageshadow="2"
     inkscape:deskcolor="#d1d1d1" />
  <defs
     id="defs2" />
  <path
     d="m 7.4083319,2.5135417 v 5.2916666 c 0,0.3664479 -0.2950104,0.6614583 -0.6614583,0.6614583 H 1.719793 c -0.3656171,0 -0.6621912,-0.2958306 -0.6614583,-0.6614583 V 0.92604167 c 0,-0.36644793 0.2950104,-0.66145834 0.6614583,-0.66145834 h 3.4395806"
     style="fill:#6f6f6f;stroke-width:0.264583"
     id="path2928" />
  <path
     d="M 7.1437486,2.6458334 V 7.4083333 C 7.1437486,7.7014916 6.9077403,7.9375 6.6145819,7.9375 H 1.852082 C 1.5589237,7.9375 1.3229153,7.7014916 1.3229153,7.4083333 V 1.0583334 c 0,-0.29315833 0.2360084,-0.52916674 0.5291667,-0.52916674 h 3.175"
     style="fill:#ececec;stroke-width:0.264583"
     id="path2808" />
  <path
     d="m 4.2334256,3.9687737 c -0.015544,-4.762e-4 -0.030222,0.00715 -0.038757,0.020153 l -0.082682,0.1338419 -0.038758,0.00362 -0.1069703,-0.1147218 c -0.021696,-0.023283 -0.06615,-0.014142 -0.076998,0.016021 l -0.054777,0.1457278 -0.037724,0.011369 -0.1271238,-0.091467 c -0.025929,-0.018521 -0.066803,-0.00257 -0.07183,0.029972 l -0.025321,0.1545127 -0.034623,0.018603 -0.1426271,-0.065112 c -0.029104,-0.013229 -0.066171,0.011658 -0.065112,0.043408 l 0.00568,0.1570964 -0.029972,0.024805 -0.1529623,-0.036174 c -0.030956,-0.00714 -0.062438,0.024855 -0.055294,0.055811 l 0.036174,0.1524455 -0.024805,0.029972 -0.1570964,-0.00517 c -0.03175,-0.00265 -0.056637,0.035491 -0.043408,0.064595 L 2.9735507,4.861226 2.9549477,4.895849 2.800435,4.92117 C 2.76895,4.9262 2.751942,4.966819 2.770463,4.992484 l 0.09147,0.1276397 -0.011369,0.037207 -0.1467612,0.055294 c -0.029898,0.011113 -0.03827,0.054785 -0.014986,0.076481 l 0.1147218,0.1069702 -0.00414,0.039274 -0.1333251,0.082682 c -0.026987,0.016669 -0.026987,0.061363 0,0.078031 l 0.1333251,0.082166 0.00414,0.039274 -0.1147218,0.1069702 c -0.023283,0.021696 -0.014912,0.065104 0.014986,0.076481 l 0.1467612,0.054777 0.011369,0.037724 -0.091467,0.1271238 c -0.018521,0.025929 -0.00124,0.067055 0.029972,0.072347 l 0.1545127,0.024805 0.018603,0.034623 -0.065112,0.142627 c -0.013229,0.029104 0.011922,0.066171 0.043408,0.065112 l 0.1570964,-0.00568 0.024805,0.029972 -0.036174,0.1529625 c -0.00714,0.030956 0.024336,0.062702 0.055294,0.055294 l 0.1529623,-0.036174 0.029972,0.024805 -0.00568,0.1565796 c -0.00132,0.03175 0.036272,0.056637 0.065112,0.043408 l 0.1426271,-0.064595 0.034623,0.018087 0.025321,0.1545127 c 0.00503,0.031485 0.046166,0.048493 0.07183,0.029972 l 0.1271238,-0.091467 0.037724,0.011369 0.054777,0.1467612 c 0.011113,0.029898 0.054521,0.03827 0.076481,0.014986 l 0.1069702,-0.1147217 0.039274,0.00465 0.082682,0.1328084 c 0.016404,0.026987 0.061363,0.026987 0.078031,0 l 0.082165,-0.1328084 0.039274,-0.00465 0.1069703,0.1147217 c 0.021696,0.023283 0.065368,0.014647 0.076481,-0.014986 l 0.054777,-0.1467612 0.037724,-0.011369 0.1271238,0.091467 c 0.025929,0.018521 0.066803,0.00257 0.07183,-0.029972 L 4.8943677,6.834752 4.9289907,6.816665 5.0716178,6.88126 c 0.029104,0.013229 0.06617,-0.011393 0.065112,-0.043408 l -0.00568,-0.1565796 0.029972,-0.024805 0.1529622,0.036174 c 0.030956,0.00714 0.062438,-0.024339 0.055294,-0.055294 l -0.036174,-0.152963 0.024805,-0.029972 0.1570964,0.00517 c 0.03175,0.00265 0.056637,-0.035491 0.043408,-0.064595 l -0.065112,-0.1426269 0.018603,-0.034623 0.1545127,-0.024805 c 0.031485,-0.00529 0.048758,-0.046418 0.029972,-0.072347 l -0.091467,-0.1271238 0.011369,-0.037724 0.1467612,-0.054777 c 0.029898,-0.011112 0.03827,-0.054785 0.014986,-0.076481 l -0.1147256,-0.1069755 0.00414,-0.039274 0.1333251,-0.082165 c 0.026988,-0.016669 0.026988,-0.061363 0,-0.078031 L 5.6674482,5.4353509 5.6633127,5.3960767 5.7780345,5.2896235 c 0.023283,-0.021696 0.014912,-0.06615 -0.014986,-0.076998 L 5.6162873,5.1573318 5.6049181,5.1201245 5.6963854,4.9930007 c 0.018521,-0.025929 0.00151,-0.066803 -0.029972,-0.07183 l -0.154513,-0.025321 -0.018603,-0.034623 0.065112,-0.1431438 c 0.013229,-0.029104 -0.011658,-0.065654 -0.043408,-0.064595 l -0.1570963,0.00517 -0.024805,-0.029972 0.036174,-0.1524455 c 0.00714,-0.031221 -0.02459,-0.062954 -0.055811,-0.055811 L 5.1615338,4.4566024 5.1310448,4.4317974 5.1367248,4.274701 C 5.1380448,4.242951 5.1004528,4.218328 5.0716128,4.231293 L 4.9289892,4.2964022 4.8943661,4.2777994 4.8695614,4.1232867 c -0.00503,-0.031221 -0.046683,-0.048493 -0.072347,-0.029972 L 4.6700905,4.1847817 4.6323664,4.1734125 4.5775895,4.0271681 C 4.566477,3.9972701 4.5230689,3.9886463 4.5011085,4.0116661 L 4.3941383,4.1263879 4.355381,4.122771 4.2726987,3.9889292 c -0.00874,-0.013044 -0.023582,-0.020662 -0.039273,-0.020155 z m 0,0.52865 c 0.5845013,0 1.0583333,0.4738319 1.0583333,1.0583333 v 5.167e-4 H 5.0271756 c 0,0 -3e-7,0.5291667 -0.2645834,0.5291667 -0.1246187,0 -0.2645833,-0.5291667 -0.2645833,-0.5291667 h 0.1322917 c 0.2198685,0 0.396875,-0.1770065 0.396875,-0.396875 0,-0.2198685 -0.1770065,-0.396875 -0.396875,-0.396875 H 4.2334256 3.5357937 c 0.1926389,-0.1701464 0.4406122,-0.2643764 0.6976319,-0.2651 z m -0.91674,0.5296834 h 0.12299 V 6.0854404 H 3.3172023 C 3.2241145,5.9244327 3.1750989,5.7417376 3.1750923,5.555757 3.1751232,5.3701737 3.2239537,5.1878613 3.3166856,5.0271071 Z m 0.6521567,0 h 0.5291666 c 0.1763887,0 0.1763887,0.2645833 0,0.2645833 H 3.9688423 Z m 0,0.5291666 c 0.264583,0 0.2645835,0.79375 0.5291666,0.79375 H 4.9300237 C 4.7375018,6.5195613 4.4899547,6.6134016 4.2334256,6.6140903 3.9768964,6.6134016 3.7293494,6.5195613 3.5368274,6.3500237 H 4.2334256 V 6.0854404 H 3.9688423 Z"
     id="path13626"
     style="stroke-width:0.264583;fill:#1976d2;fill-opacity:1" />
  <path
     d="M 7.1437486,3.175 H 5.2916653 C 4.998507,3.175 4.7624986,2.9389917 4.7624986,2.6458334 V 0.52916666 H 5.027082 L 7.1437486,2.6458334 Z"
     style="fill:#6f6f6f;fill-opacity:0.502;stroke-width:0.264583"
     id="path3168" />
  <path
     d="m 7.1437486,2.6458334 h -1.5875 C 5.2630903,2.6458334 5.027082,2.409825 5.027082,2.1166667 V 0.52916666"
     style="fill:#fafafa;stroke-width:0.264583"
     id="path3048" />
</svg>
