<?xml version="1.0" encoding="UTF-8" standalone="no"?>
<svg
   viewBox="0 0 22 22"
   version="1.1"
   id="svg6"
   sodipodi:docname="address-book-new.svg"
   width="22"
   height="22"
   inkscape:version="1.2 (dc2aedaf03, 2022-05-15)"
   xmlns:inkscape="http://www.inkscape.org/namespaces/inkscape"
   xmlns:sodipodi="http://sodipodi.sourceforge.net/DTD/sodipodi-0.dtd"
   xmlns="http://www.w3.org/2000/svg"
   xmlns:svg="http://www.w3.org/2000/svg">
  <defs
     id="defs10" />
  <sodipodi:namedview
     id="namedview8"
     pagecolor="#ffffff"
     bordercolor="#000000"
     borderopacity="0.25"
     inkscape:showpageshadow="2"
     inkscape:pageopacity="0.0"
     inkscape:pagecheckerboard="0"
     inkscape:deskcolor="#d1d1d1"
     showgrid="false"
     inkscape:zoom="18.252194"
     inkscape:cx="4.8761262"
     inkscape:cy="7.560735"
     inkscape:window-width="1920"
     inkscape:window-height="1009"
     inkscape:window-x="0"
     inkscape:window-y="0"
     inkscape:window-maximized="1"
     inkscape:current-layer="svg6" />
  <path
     color="#000000"
     d="M 0,0 H 22 V 22 H 0 Z"
     fill="#808080"
     fill-opacity="0.01"
     id="path2"
     style="stroke-width:1.375" />
  <path
     d="M 6,4 C 4.892,4 4,4.892 4,6 v 10 c 0,1.108 0.892,2 2,2 h 10 c 1.108,0 2,-0.892 2,-2 V 6 C 18,4.892 17.108,4 16,4 Z m 5,2.99 a 4,4 0 0 1 4,4 v 0.5 A 1.5,1.5 0 0 1 12.352,12.455 1.987,1.987 0 0 1 11,12.99 a 2,2 0 1 1 2,-2 v 0.5 a 0.5,0.5 0 0 0 1,0 v -0.5 a 3,3 0 1 0 -3,3 h 2.5 c 0,0 0.5,0 0.5,0.5 -0.031,0.5 -0.5,0.5 -0.5,0.5 H 11 a 4,4 0 0 1 0,-8 z m 0,3 a 1,1 0 1 0 0,2 1,1 0 0 0 0,-2 z"
     fill="#232323"
     id="path4" />
</svg>
