<?xml version="1.0" encoding="UTF-8" standalone="no"?>
<svg
   viewBox="0 0 22 22"
   version="1.1"
   id="svg6"
   sodipodi:docname="color-select.svg"
   width="22"
   height="22"
   inkscape:version="1.2 (dc2aedaf03, 2022-05-15)"
   xmlns:inkscape="http://www.inkscape.org/namespaces/inkscape"
   xmlns:sodipodi="http://sodipodi.sourceforge.net/DTD/sodipodi-0.dtd"
   xmlns="http://www.w3.org/2000/svg"
   xmlns:svg="http://www.w3.org/2000/svg">
  <defs
     id="defs10" />
  <sodipodi:namedview
     id="namedview8"
     pagecolor="#ffffff"
     bordercolor="#000000"
     borderopacity="0.25"
     inkscape:showpageshadow="2"
     inkscape:pageopacity="0.0"
     inkscape:pagecheckerboard="0"
     inkscape:deskcolor="#d1d1d1"
     showgrid="false"
     inkscape:zoom="37.545455"
     inkscape:cx="11"
     inkscape:cy="11"
     inkscape:window-width="1920"
     inkscape:window-height="1009"
     inkscape:window-x="0"
     inkscape:window-y="0"
     inkscape:window-maximized="1"
     inkscape:current-layer="svg6" />
  <path
     color="#000000"
     d="M 0,0 H 22 V 22 H 0 Z"
     fill="#808080"
     fill-opacity="0.01"
     id="path2"
     style="stroke-width:1.375" />
  <path
     d="m 16.47,3.9701442 v 0.002 a 1.5,1.5 0 0 0 -1.031,0.453 l -2.356,2.356 -1.933,-1.934 a 1,1 0 0 0 -0.004,-0.004 1,1 0 0 0 -0.006,-0.006 1,1 0 0 0 -0.707,-0.293 1,1 0 0 0 -1,1 1,1 0 0 0 0.294,0.705 l -0.002,0.002 5.99,5.9899998 a 1,1 0 0 0 0.01,0.01 1,1 0 0 0 0.007,0.006 1,1 0 0 0 0.701,0.288 1,1 0 0 0 1,-1 1,1 0 0 0 -0.287,-0.702 l -0.006,-0.006 -1.932,-1.9299998 2.358,-2.357 c 0.613,-0.597 0.566,-1.473 0.11,-2.033 a 1.476,1.476 0 0 0 -1.206,-0.547 z m -5.97,5.016 -5.493,5.4999998 -0.008,2.5 h 0.006 v 0.004 h 2.508 l 5.492,-5.5 -0.005,-0.004 -2.495,-2.4959998 z"
     fill="#232323"
     id="path4" />
</svg>
