<?xml version="1.0" encoding="UTF-8" standalone="no"?>
<svg
   viewBox="0 0 22 22"
   version="1.1"
   id="svg6"
   sodipodi:docname="application-menu.svg"
   width="22"
   height="22"
   inkscape:version="1.2 (dc2aedaf03, 2022-05-15)"
   xmlns:inkscape="http://www.inkscape.org/namespaces/inkscape"
   xmlns:sodipodi="http://sodipodi.sourceforge.net/DTD/sodipodi-0.dtd"
   xmlns="http://www.w3.org/2000/svg"
   xmlns:svg="http://www.w3.org/2000/svg">
  <defs
     id="defs10" />
  <sodipodi:namedview
     id="namedview8"
     pagecolor="#ffffff"
     bordercolor="#000000"
     borderopacity="0.25"
     inkscape:showpageshadow="2"
     inkscape:pageopacity="0.0"
     inkscape:pagecheckerboard="0"
     inkscape:deskcolor="#d1d1d1"
     showgrid="false"
     inkscape:zoom="27"
     inkscape:cx="7.1666667"
     inkscape:cy="11.296296"
     inkscape:window-width="1920"
     inkscape:window-height="1016"
     inkscape:window-x="0"
     inkscape:window-y="0"
     inkscape:window-maximized="1"
     inkscape:current-layer="svg6" />
  <path
     d="M 9.25,4 9.096,5.844 A 5.5,5.5 0 0 0 7.488,6.774 L 5.812,5.984 4.062,9.016 5.584,10.072 A 5.5,5.5 0 0 0 5.5,11 5.5,5.5 0 0 0 5.58,11.932 l -1.518,1.052 1.75,3.031 1.672,-0.787 a 5.5,5.5 0 0 0 1.612,0.924 L 9.25,18 h 3.5 l 0.154,-1.844 a 5.5,5.5 0 0 0 1.608,-0.93 l 1.675,0.79 1.75,-3.032 -1.521,-1.056 A 5.5,5.5 0 0 0 16.5,11 5.5,5.5 0 0 0 16.42,10.068 L 17.938,9.016 16.188,5.984 14.516,6.772 A 5.5,5.5 0 0 0 12.904,5.848 L 12.75,4 Z M 11,9 a 2,2 0 0 1 2,2 2,2 0 0 1 -2,2 2,2 0 0 1 -2,-2 2,2 0 0 1 2,-2 z"
     fill="#232323"
     id="path2" />
  <path
     color="#bebebe"
     d="M 0,0 H 22 V 22 H 0 Z"
     fill="#808080"
     fill-opacity="0.01"
     id="path4"
     style="stroke-width:1.375" />
</svg>
