<?xml version="1.0" encoding="UTF-8" standalone="no"?>
<svg
   viewBox="0 0 22 22"
   version="1.1"
   id="svg8"
   sodipodi:docname="document-open-recent.svg"
   width="22"
   height="22"
   inkscape:version="1.2 (dc2aedaf03, 2022-05-15)"
   xmlns:inkscape="http://www.inkscape.org/namespaces/inkscape"
   xmlns:sodipodi="http://sodipodi.sourceforge.net/DTD/sodipodi-0.dtd"
   xmlns="http://www.w3.org/2000/svg"
   xmlns:svg="http://www.w3.org/2000/svg">
  <defs
     id="defs12" />
  <sodipodi:namedview
     id="namedview10"
     pagecolor="#ffffff"
     bordercolor="#000000"
     borderopacity="0.25"
     inkscape:showpageshadow="2"
     inkscape:pageopacity="0.0"
     inkscape:pagecheckerboard="0"
     inkscape:deskcolor="#d1d1d1"
     showgrid="false"
     inkscape:zoom="38.183766"
     inkscape:cx="6.4294339"
     inkscape:cy="9.9125896"
     inkscape:window-width="1920"
     inkscape:window-height="1017"
     inkscape:window-x="0"
     inkscape:window-y="0"
     inkscape:window-maximized="1"
     inkscape:current-layer="svg8" />
  <path
     color="#bebebe"
     d="M 0,0 H 22 V 22 H 0 Z"
     fill="#808080"
     fill-opacity="0.01"
     id="path2"
     style="stroke-width:1.375" />
  <path
     color="#000000"
     d="M 8,3 V 4 H 7 C 5.355,4 4,5.355 4,7 v 8 c 0,1.645 1.355,3 3,3 h 1 v 1 h 6 v -1 h 1 c 1.645,0 3,-1.355 3,-3 V 7 C 18,5.355 16.645,4 15,4 H 14 V 3 Z M 7,6 h 8 c 0.571,0 1,0.429 1,1 v 8 c 0,0.571 -0.429,1 -1,1 H 7 C 6.429,16 6,15.571 6,15 V 7 C 6,6.429 6.429,6 7,6 Z"
     fill="#232323"
     style="-inkscape-stroke:none"
     id="path4" />
  <path
     color="#000000"
     d="M 13.5,14.176 9,11.576 V 7 h 2 v 3.422 l 3.5,2.022 z"
     fill="#232323"
     style="-inkscape-stroke:none"
     id="path6" />
</svg>
