<?xml version="1.0" encoding="UTF-8" standalone="no"?>
<svg
   viewBox="0 0 22 22"
   version="1.1"
   id="svg8"
   sodipodi:docname="mail-mark-notjunk.svg"
   width="22"
   height="22"
   inkscape:version="1.2 (dc2aedaf03, 2022-05-15)"
   xmlns:inkscape="http://www.inkscape.org/namespaces/inkscape"
   xmlns:sodipodi="http://sodipodi.sourceforge.net/DTD/sodipodi-0.dtd"
   xmlns="http://www.w3.org/2000/svg"
   xmlns:svg="http://www.w3.org/2000/svg">
  <defs
     id="defs12" />
  <sodipodi:namedview
     id="namedview10"
     pagecolor="#ffffff"
     bordercolor="#000000"
     borderopacity="0.25"
     inkscape:showpageshadow="2"
     inkscape:pageopacity="0.0"
     inkscape:pagecheckerboard="0"
     inkscape:deskcolor="#d1d1d1"
     showgrid="false"
     inkscape:zoom="17.147339"
     inkscape:cx="9.3308936"
     inkscape:cy="16.15411"
     inkscape:window-width="1846"
     inkscape:window-height="1011"
     inkscape:window-x="0"
     inkscape:window-y="0"
     inkscape:window-maximized="1"
     inkscape:current-layer="g6" />
  <g
     color="#000000"
     id="g6">
    <path
       d="M 0,0 H 22 V 22 H 0 Z"
       fill="#808080"
       fill-opacity="0.01"
       xml:space="preserve"
       id="path2"
       style="stroke-width:1.375" />
    <path
       d="M 8.22,4 7.907,4.281 4.282,7.906 4.002,8.219 v 5.561 l 0.28,0.313 3.625,3.625 0.313,0.281 h 5.562 l 0.313,-0.281 3.625,-3.625 0.281,-0.313 V 8.22 L 17.72,7.907 14.095,4.282 13.782,4.001 H 8.626 Z m 6.73,3.637 a 1,1 0 0 1 0.708,0.293 1,1 0 0 1 0,1.414 L 10,15 6.465,11.465 a 1,1 0 0 1 0,-1.414 1,1 0 0 1 1.414,0 L 10,12.171 14.243,7.93 A 1,1 0 0 1 14.95,7.637 Z"
       fill="#232323"
       style="text-indent:0;text-decoration-line:none;text-transform:none"
       id="path4" />
  </g>
</svg>
