<?xml version="1.0" encoding="UTF-8" standalone="no"?>
<svg
   viewBox="0 0 22 22"
   version="1.1"
   id="svg6"
   sodipodi:docname="media-eject.svg"
   width="22"
   height="22"
   inkscape:version="1.2 (dc2aedaf03, 2022-05-15)"
   xmlns:inkscape="http://www.inkscape.org/namespaces/inkscape"
   xmlns:sodipodi="http://sodipodi.sourceforge.net/DTD/sodipodi-0.dtd"
   xmlns="http://www.w3.org/2000/svg"
   xmlns:svg="http://www.w3.org/2000/svg">
  <defs
     id="defs10" />
  <sodipodi:namedview
     id="namedview8"
     pagecolor="#ffffff"
     bordercolor="#000000"
     borderopacity="0.25"
     inkscape:showpageshadow="2"
     inkscape:pageopacity="0.0"
     inkscape:pagecheckerboard="0"
     inkscape:deskcolor="#d1d1d1"
     showgrid="false"
     inkscape:zoom="13.5"
     inkscape:cx="9.962963"
     inkscape:cy="9.7777778"
     inkscape:window-width="1920"
     inkscape:window-height="1016"
     inkscape:window-x="0"
     inkscape:window-y="0"
     inkscape:window-maximized="1"
     inkscape:current-layer="svg6" />
  <path
     color="#bebebe"
     d="M 22,0 H 0 v 22 h 22 z"
     fill="#808080"
     fill-opacity="0.01"
     id="path2"
     style="stroke-width:1.375" />
  <path
     color="#000000"
     d="M 11,6.46 A 1,1 0 0 0 10.252,6.796 L 6.658,10.39 A 0.996,0.996 0 0 0 7.4,12.048 l 0.002,0.004 h 7.2 a 1,1 0 0 0 0.793,-1.61 L 11.75,6.797 H 11.746 A 1,1 0 0 0 11,6.46 Z m -4,7.592 a 1,1 0 0 0 0,2 h 8 a 1,1 0 0 0 0,-2 z"
     display="block"
     fill="#232323"
     id="path4" />
</svg>
