<?xml version="1.0" encoding="UTF-8" standalone="no"?>
<svg
   viewBox="0 0 22 22"
   version="1.1"
   id="svg6"
   sodipodi:docname="open-menu.svg"
   width="22"
   height="22"
   inkscape:version="1.2 (dc2aedaf03, 2022-05-15)"
   xmlns:inkscape="http://www.inkscape.org/namespaces/inkscape"
   xmlns:sodipodi="http://sodipodi.sourceforge.net/DTD/sodipodi-0.dtd"
   xmlns="http://www.w3.org/2000/svg"
   xmlns:svg="http://www.w3.org/2000/svg">
  <defs
     id="defs10" />
  <sodipodi:namedview
     id="namedview8"
     pagecolor="#ffffff"
     bordercolor="#000000"
     borderopacity="0.25"
     inkscape:showpageshadow="2"
     inkscape:pageopacity="0.0"
     inkscape:pagecheckerboard="0"
     inkscape:deskcolor="#d1d1d1"
     showgrid="false"
     inkscape:zoom="38.183766"
     inkscape:cx="6.9532167"
     inkscape:cy="9.6114144"
     inkscape:window-width="1920"
     inkscape:window-height="1016"
     inkscape:window-x="0"
     inkscape:window-y="0"
     inkscape:window-maximized="1"
     inkscape:current-layer="svg6" />
  <path
     color="#bebebe"
     d="M 22,0 V 22 H 0 V 0 Z"
     fill="#808080"
     fill-opacity="0.01"
     id="path2"
     style="stroke-width:1.375" />
  <path
     d="M 16,7 C 16,6.446 15.554,6 15,6 H 7 C 6.446,6 6,6.446 6,7 6,7.554 6.446,8 7,8 h 8 c 0.554,0 1,-0.446 1,-1 z m 0,4 c 0,-0.554 -0.446,-1 -1,-1 H 7 c -0.554,0 -1,0.446 -1,1 0,0.554 0.446,1 1,1 h 8 c 0.554,0 1,-0.446 1,-1 z m 0,4 c 0,-0.554 -0.446,-1 -1,-1 H 7 c -0.554,0 -1,0.446 -1,1 0,0.554 0.446,1 1,1 h 8 c 0.554,0 1,-0.446 1,-1 z"
     fill="#232323"
     id="path4" />
</svg>
