<?xml version="1.0" encoding="UTF-8" standalone="no"?>
<svg
   viewBox="0 0 22 22"
   version="1.1"
   id="svg6"
   sodipodi:docname="view-right-close.svg"
   inkscape:version="1.2 (dc2aedaf03, 2022-05-15)"
   width="22"
   height="22"
   xmlns:inkscape="http://www.inkscape.org/namespaces/inkscape"
   xmlns:sodipodi="http://sodipodi.sourceforge.net/DTD/sodipodi-0.dtd"
   xmlns="http://www.w3.org/2000/svg"
   xmlns:svg="http://www.w3.org/2000/svg">
  <defs
     id="defs10" />
  <sodipodi:namedview
     id="namedview8"
     pagecolor="#ffffff"
     bordercolor="#000000"
     borderopacity="0.25"
     inkscape:showpageshadow="2"
     inkscape:pageopacity="0.0"
     inkscape:pagecheckerboard="0"
     inkscape:deskcolor="#d1d1d1"
     showgrid="false"
     inkscape:zoom="16.771689"
     inkscape:cx="-4.352573"
     inkscape:cy="9.8380074"
     inkscape:window-width="1920"
     inkscape:window-height="1009"
     inkscape:window-x="0"
     inkscape:window-y="0"
     inkscape:window-maximized="1"
     inkscape:current-layer="svg6" />
  <path
     color="#bebebe"
     d="M 0,0 H 22 V 22 H 0 Z"
     fill="#808080"
     fill-opacity="0.01"
     id="path2"
     style="stroke-width:1.375" />
  <path
     id="path4"
     d="M 4,4 C 3.4573521,4.0009418 3.0144332,4.4340572 3.0019531,4.9765625 L 3,4.9785156 V 16.978516 l 0.00195,0.002 C 3.001226,16.986796 3.0006062,16.99366 3,17 c 0,0.552284 0.4477158,1 1,1 h 14 c 0.552284,0 1,-0.447716 1,-1 V 5 C 19,4.4477159 18.552284,4 18,4 Z m 6,1.9960938 V 16 L 5,16.0039 V 6 Z M 12,8 h 1.414062 L 15,9.585938 16.585938,8 H 18 V 9.414063 L 16.414062,11 18,12.585938 V 14 H 16.585938 L 15,12.414063 13.414062,14 H 12 V 12.585938 L 13.585938,11 12,9.414063 Z"
     style="fill:#232323;fill-opacity:1" />
</svg>
