<?xml version="1.0" encoding="UTF-8" standalone="no"?>
<!-- Created with Inkscape (http://www.inkscape.org/) -->

<svg
   width="32"
   height="32"
   viewBox="0 0 8.4666665 8.4666665"
   version="1.1"
   id="svg5"
   inkscape:version="1.2 (dc2aedaf03, 2022-05-15)"
   sodipodi:docname="dialog-information.svg"
   xmlns:inkscape="http://www.inkscape.org/namespaces/inkscape"
   xmlns:sodipodi="http://sodipodi.sourceforge.net/DTD/sodipodi-0.dtd"
   xmlns="http://www.w3.org/2000/svg"
   xmlns:svg="http://www.w3.org/2000/svg">
  <sodipodi:namedview
     id="namedview7"
     pagecolor="#ffffff"
     bordercolor="#666666"
     borderopacity="1.0"
     inkscape:pageshadow="2"
     inkscape:pageopacity="0.0"
     inkscape:pagecheckerboard="0"
     inkscape:document-units="px"
     showgrid="false"
     units="px"
     height="48px"
     inkscape:zoom="25.03125"
     inkscape:cx="15.980025"
     inkscape:cy="15.980025"
     inkscape:window-width="1920"
     inkscape:window-height="1016"
     inkscape:window-x="0"
     inkscape:window-y="0"
     inkscape:window-maximized="1"
     inkscape:current-layer="svg5"
     inkscape:showpageshadow="2"
     inkscape:deskcolor="#d1d1d1" />
  <defs
     id="defs2" />
  <path
     id="rect5567"
     style="opacity:1;fill:#48b9c7;stroke-width:0.264583;fill-opacity:1"
     d="m 4.2333333,0.26458332 c 2.1986875,0 3.96875,1.77006248 3.96875,3.96874998 v 0.2645836 c 0,2.1986875 -1.7700625,3.96875 -3.96875,3.96875 -2.1986875,0 -3.96874998,-1.7700625 -3.96874998,-3.96875 V 4.2333333 c 0,-2.1986875 1.77006248,-3.96874998 3.96874998,-3.96874998 z" />
  <path
     id="rect2558"
     style="fill:#000000;fill-opacity:1;stroke-width:0.264583;opacity:0.5"
     d="M 4.2333332 0.26458333 C 2.0346479 0.26458333 0.26458333 2.0346479 0.26458333 4.2333332 L 0.26458333 4.4979166 C 0.26458333 6.6966019 2.0346479 8.4666665 4.2333332 8.4666665 C 6.4320186 8.4666665 8.2020832 6.6966019 8.2020832 4.4979166 L 8.2020832 4.2333332 C 8.2020832 2.0346479 6.4320186 0.26458333 4.2333332 0.26458333 z M 4.2333332 0.52916666 A 3.7041667 3.7041667 0 0 1 7.9374998 4.2333332 A 3.7041667 3.7041667 0 0 1 4.2333332 7.9374998 A 3.7041667 3.7041667 0 0 1 0.52916666 4.2333332 A 3.7041667 3.7041667 0 0 1 4.2333332 0.52916666 z " />
  <path
     d="M 4.4979166,6.3499999 V 3.4395833 H 3.9687499 v 2.9104166 z m 0,-3.7041666 V 2.1166666 H 3.9687499 v 0.5291667 z"
     style="fill:#ffffff;stroke-width:0.264583"
     id="path302"
     sodipodi:nodetypes="cccccccccc" />
</svg>
