<?xml version="1.0" encoding="UTF-8" standalone="no"?>
<!-- Created with Inkscape (http://www.inkscape.org/) -->

<svg
   width="32"
   height="32"
   viewBox="0 0 8.4666665 8.4666665"
   version="1.1"
   id="svg5"
   inkscape:version="1.2 (dc2aedaf03, 2022-05-15)"
   sodipodi:docname="locked.svg"
   xmlns:inkscape="http://www.inkscape.org/namespaces/inkscape"
   xmlns:sodipodi="http://sodipodi.sourceforge.net/DTD/sodipodi-0.dtd"
   xmlns="http://www.w3.org/2000/svg"
   xmlns:svg="http://www.w3.org/2000/svg">
  <sodipodi:namedview
     id="namedview7"
     pagecolor="#ffffff"
     bordercolor="#666666"
     borderopacity="1.0"
     inkscape:pageshadow="2"
     inkscape:pageopacity="0.0"
     inkscape:pagecheckerboard="0"
     inkscape:document-units="px"
     showgrid="false"
     units="px"
     height="48px"
     inkscape:zoom="17.699767"
     inkscape:cx="17.231866"
     inkscape:cy="20.282753"
     inkscape:window-width="1920"
     inkscape:window-height="1009"
     inkscape:window-x="0"
     inkscape:window-y="0"
     inkscape:window-maximized="1"
     inkscape:current-layer="svg5"
     inkscape:showpageshadow="2"
     inkscape:deskcolor="#d1d1d1" />
  <defs
     id="defs2" />
  <path
     d="M 4.2333333,0.26458333 C 3.0607,0.26458333 2.1166666,1.2086167 2.1166666,2.38125 v 3.4395833 c 0,1.1726333 0.9440334,2.1166666 2.1166667,2.1166666 1.1726333,0 2.1166666,-0.9440333 2.1166666,-2.1166666 V 2.38125 c 0,-1.1726333 -0.9440333,-2.11666667 -2.1166666,-2.11666667 z m 0,1.32291667 c 0.5863166,0 1.0583333,0.4720167 1.0583333,1.0583333 v 3.0427083 c 0,0.5863167 -0.4720167,1.0583333 -1.0583333,1.0583333 C 3.6470166,6.7468749 3.175,6.2748583 3.175,5.6885416 V 2.6458333 C 3.175,2.0595167 3.6470166,1.5875 4.2333333,1.5875 Z"
     style="fill:#6f6f6f;stroke-width:0.264583"
     id="path422" />
  <path
     d="M 4.2333333,0.52916666 C 3.2072791,0.52916666 2.38125,1.3551958 2.38125,2.38125 v 3.7041666 c 0,1.0260541 0.8260291,1.8520833 1.8520833,1.8520833 1.0260541,0 1.8520833,-0.8260292 1.8520833,-1.8520833 V 2.38125 c 0,-1.0260542 -0.8260292,-1.85208334 -1.8520833,-1.85208334 z m 0,0.52916664 c 0.7328958,0 1.3229166,0.5900208 1.3229166,1.3229167 v 3.7041666 c 0,0.7328958 -0.5900208,1.3229166 -1.3229166,1.3229166 -0.7328958,0 -1.3229167,-0.5900208 -1.3229167,-1.3229166 V 2.38125 c 0,-0.7328959 0.5900209,-1.3229167 1.3229167,-1.3229167 z"
     style="fill:#dedede;stroke-width:0.264583"
     id="path623" />
  <rect
     style="opacity:1;fill:#ffce51;fill-opacity:1;stroke-width:0.529167"
     id="rect695"
     width="5.8208332"
     height="4.2333331"
     x="1.3229166"
     y="3.7041667"
     ry="0.52916664" />
  <path
     d="m 1.8520832,3.7041667 c -0.2931583,0 -0.5291667,0.2360084 -0.5291667,0.5291667 V 4.4979167 H 7.1437498 V 4.2333334 c 0,-0.2931583 -0.2360083,-0.5291667 -0.5291667,-0.5291667 z M 1.3229165,7.14375 v 0.2645834 c 0,0.2931583 0.2360084,0.5291666 0.5291667,0.5291666 h 4.7624999 c 0.2931584,0 0.5291667,-0.2360083 0.5291667,-0.5291666 V 7.14375 Z"
     style="fill-opacity:1;stroke-width:0.264583;fill:#000000;opacity:0.1"
     id="path2557" />
  <path
     d="m 1.8520832,3.7041667 c -0.2931583,0 -0.5291666,0.2360084 -0.5291666,0.5291667 v 3.1749999 c 0,0.2931584 0.2360083,0.5291667 0.5291666,0.5291667 h 4.7625 c 0.2931583,0 0.5291666,-0.2360083 0.5291666,-0.5291667 V 4.2333334 c 0,-0.2931583 -0.2360083,-0.5291667 -0.5291666,-0.5291667 z m 0,0.2645833 h 4.7625 c 0.1465791,0 0.2645833,0.1180042 0.2645833,0.2645834 V 7.14375 c 0,0.1465792 -0.1180042,0.2645833 -0.2645833,0.2645833 h -4.7625 c -0.1465791,0 -0.2645833,-0.1180041 -0.2645833,-0.2645833 V 4.2333334 c 0,-0.1465792 0.1180042,-0.2645834 0.2645833,-0.2645834 z"
     style="fill-opacity:1;stroke-width:0.264583;fill:#000000;opacity:0.5"
     id="path3360" />
</svg>
