<?xml version="1.0" encoding="UTF-8" standalone="no"?>
<!-- Created with Inkscape (http://www.inkscape.org/) -->

<svg
   width="64"
   height="64"
   viewBox="0 0 16.933333 16.933333"
   version="1.1"
   id="svg5"
   inkscape:version="1.2 (dc2aedaf03, 2022-05-15)"
   sodipodi:docname="system-component-application.svg"
   xmlns:inkscape="http://www.inkscape.org/namespaces/inkscape"
   xmlns:sodipodi="http://sodipodi.sourceforge.net/DTD/sodipodi-0.dtd"
   xmlns="http://www.w3.org/2000/svg"
   xmlns:svg="http://www.w3.org/2000/svg">
  <sodipodi:namedview
     id="namedview7"
     pagecolor="#ffffff"
     bordercolor="#666666"
     borderopacity="1.0"
     inkscape:pageshadow="2"
     inkscape:pageopacity="0.0"
     inkscape:pagecheckerboard="0"
     inkscape:document-units="px"
     showgrid="false"
     units="px"
     height="48px"
     inkscape:zoom="12.78125"
     inkscape:cx="32"
     inkscape:cy="32"
     inkscape:window-width="1846"
     inkscape:window-height="1015"
     inkscape:window-x="0"
     inkscape:window-y="0"
     inkscape:window-maximized="1"
     inkscape:current-layer="svg5"
     inkscape:showpageshadow="2"
     inkscape:deskcolor="#d1d1d1" />
  <defs
     id="defs2" />
  <rect
     style="opacity:1;fill:#48b9c7;fill-opacity:1;stroke-width:0.264583"
     id="rect845"
     width="10.318749"
     height="10.318749"
     x="6.7858434"
     y="-5.1593747"
     ry="1.0583333"
     transform="rotate(45)" />
  <path
     id="rect1223"
     style="opacity:0.5;fill:#000000;fill-opacity:1;stroke-width:0.529167;stroke-linecap:round"
     d="M 7.0951184 -4.8500544 C 6.9038248 -4.6587609 6.7859836 -4.394127 6.7859836 -4.1009689 L 6.7859836 4.1009689 C 6.7859836 4.687285 7.2578878 5.1591892 7.8442039 5.1591892 L 16.046142 5.1591892 C 16.632458 5.1591892 17.104362 4.687285 17.104362 4.1009689 L 17.104362 -4.1009689 C 17.104362 -4.687285 16.632458 -5.1591892 16.046142 -5.1591892 L 7.8442039 -5.1591892 C 7.5510458 -5.1591892 7.2864119 -5.041348 7.0951184 -4.8500544 z M 7.298285 -4.6790437 C 7.4656669 -4.8464255 7.6969474 -4.9498107 7.9534607 -4.9498107 L 15.362099 -4.9494453 C 15.875125 -4.9494453 16.288042 -4.5365291 16.288042 -4.0235025 L 16.288042 3.3847701 C 16.288042 3.8977967 15.875125 4.3107129 15.362099 4.3107129 L 7.9538261 4.3107129 C 7.4407996 4.3107129 7.0278834 3.8977967 7.0278834 3.3847701 L 7.027518 -4.0238679 C 7.027518 -4.2803812 7.1309031 -4.5116618 7.298285 -4.6790437 z "
     transform="rotate(45)" />
  <path
     d="m 7.7721373,5.2916666 -0.06112,0.731837 c -0.232095,0.08588 -0.447896,0.210599 -0.638175,0.36883 l -0.664898,-0.313002 -0.694532,1.202795 0.60378,0.419365 c -0.02151,0.121603 -0.03266,0.244811 -0.03334,0.3683 7.5e-5,0.123885 0.0107,0.247539 0.03175,0.369623 l -0.602192,0.4180419 0.694532,1.2027955 0.663575,-0.3122085 c 0.190853,0.157516 0.407101,0.2814305 0.639498,0.3664475 l 0.06112,0.733425 h 1.3890621 l 0.06112,-0.731837 c 0.232095,-0.08588 0.447896,-0.2105985 0.638175,-0.3688285 L 10.52539,10.060252 11.219922,8.8571915 10.616142,8.4380916 c 0.02151,-0.121602 0.03266,-0.244811 0.03334,-0.3683 -6e-5,-0.123974 -0.01068,-0.247717 -0.03175,-0.369887 l 0.602187,-0.417778 -0.694531,-1.202795 -0.6635746,0.312208 c -0.190853,-0.157515 -0.407101,-0.281431 -0.639498,-0.366448 l -0.06112,-0.733425 z m 0.694532,1.984375 c 0.4383751,0 0.7937491,0.355374 0.7937491,0.79375 0,0.438376 -0.355374,0.7937499 -0.7937491,0.7937499 -0.438376,0 -0.79375,-0.3553739 -0.79375,-0.7937499 0,-0.438376 0.355374,-0.79375 0.79375,-0.79375 z"
     style="fill:#ffffff;stroke-width:0.264583"
     id="path6559" />
</svg>
