<?xml version="1.0" encoding="UTF-8" standalone="no"?>
<!-- Created with Inkscape (http://www.inkscape.org/) -->

<svg
   width="64"
   height="64"
   viewBox="0 0 16.933333 16.933334"
   version="1.1"
   id="svg1099"
   inkscape:version="1.2 (dc2aedaf03, 2022-05-15)"
   sodipodi:docname="system-lock-screen.svg"
   xmlns:inkscape="http://www.inkscape.org/namespaces/inkscape"
   xmlns:sodipodi="http://sodipodi.sourceforge.net/DTD/sodipodi-0.dtd"
   xmlns="http://www.w3.org/2000/svg"
   xmlns:svg="http://www.w3.org/2000/svg">
  <sodipodi:namedview
     id="namedview1101"
     pagecolor="#ffffff"
     bordercolor="#666666"
     borderopacity="1.0"
     inkscape:pageshadow="2"
     inkscape:pageopacity="0.0"
     inkscape:pagecheckerboard="0"
     inkscape:document-units="px"
     showgrid="false"
     units="px"
     inkscape:zoom="9.3187256"
     inkscape:cx="16.740486"
     inkscape:cy="35.090635"
     inkscape:window-width="1920"
     inkscape:window-height="1009"
     inkscape:window-x="0"
     inkscape:window-y="0"
     inkscape:window-maximized="1"
     inkscape:current-layer="svg1099"
     inkscape:showpageshadow="2"
     inkscape:deskcolor="#d1d1d1" />
  <defs
     id="defs1096" />
  <rect
     style="opacity:1;fill:#7b736e;stroke-width:0.264583;fill-opacity:1"
     id="rect1196"
     width="15.875"
     height="16.404167"
     x="0.5291667"
     y="0.5291667"
     ry="7.9375" />
  <path
     d="m 8.4666665,4.7624996 c -1.1726332,0 -2.1166666,0.964142 -2.1166666,2.1500046 V 7.9374998 H 5.2916667 V 12.170834 H 11.641667 V 7.9374998 H 10.583333 V 6.911975 c 0,-1.1853334 -0.9440329,-2.1494754 -2.1166665,-2.1494754 z m 0,1.0583336 c 0.5863168,0 1.0583336,0.4720164 1.0583336,1.0583334 V 7.9374998 H 7.4083333 V 6.8791666 c 0,-0.586317 0.4720168,-1.0583334 1.0583332,-1.0583334 z"
     style="color:#000000;fill:#ffffff;stroke-width:0.529164"
     id="path18264" />
  <path
     id="rect1966"
     style="opacity:0.5;fill:#ffffff;fill-opacity:1;stroke-width:0.264583"
     d="M 8.4666667 0.52916667 C 4.0692961 0.52916667 0.52916667 4.0692961 0.52916667 8.4666667 L 0.52916667 8.9958334 C 0.52916667 13.393204 4.0692961 16.933333 8.4666667 16.933333 C 12.864037 16.933333 16.404167 13.393204 16.404167 8.9958334 L 16.404167 8.4666667 C 16.404167 4.0692961 12.864037 0.52916667 8.4666667 0.52916667 z M 8.4666667 0.79375001 A 7.6729169 7.6729169 0 0 1 16.139583 8.4666667 A 7.6729169 7.6729169 0 0 1 8.4666667 16.139583 A 7.6729169 7.6729169 0 0 1 0.79375001 8.4666667 A 7.6729169 7.6729169 0 0 1 8.4666667 0.79375001 z " />
</svg>
