<?xml version="1.0" encoding="UTF-8" standalone="no"?>
<!-- Created with Inkscape (http://www.inkscape.org/) -->

<svg
   width="64"
   height="64"
   viewBox="0 0 16.933333 16.933333"
   version="1.1"
   id="svg5"
   inkscape:version="1.2 (dc2aedaf03, 2022-05-15)"
   sodipodi:docname="folder-grey-remote.svg"
   xmlns:inkscape="http://www.inkscape.org/namespaces/inkscape"
   xmlns:sodipodi="http://sodipodi.sourceforge.net/DTD/sodipodi-0.dtd"
   xmlns="http://www.w3.org/2000/svg"
   xmlns:svg="http://www.w3.org/2000/svg">
  <sodipodi:namedview
     id="namedview7"
     pagecolor="#ffffff"
     bordercolor="#666666"
     borderopacity="1.0"
     inkscape:pageshadow="2"
     inkscape:pageopacity="0.0"
     inkscape:pagecheckerboard="0"
     inkscape:document-units="px"
     showgrid="false"
     units="px"
     height="48px"
     inkscape:zoom="11.799844"
     inkscape:cx="35.127582"
     inkscape:cy="41.398851"
     inkscape:window-width="1846"
     inkscape:window-height="1011"
     inkscape:window-x="0"
     inkscape:window-y="0"
     inkscape:window-maximized="1"
     inkscape:current-layer="svg5"
     showguides="false"
     inkscape:showpageshadow="2"
     inkscape:deskcolor="#d1d1d1" />
  <defs
     id="defs2" />
  <path
     d="m 2.38125,1.3229167 h 4.7625 l 1.3229167,1.3229167 h 6.0854163 c 0.586316,0 1.058333,0.4720166 1.058333,1.0583333 V 14.552084 c 0,0.586316 -0.472017,1.058333 -1.058333,1.058333 H 2.38125 c -0.5863166,0 -1.0583333,-0.472017 -1.0583333,-1.058333 V 2.38125 c 0,-0.5863166 0.4720167,-1.0583333 1.0583333,-1.0583333 z"
     style="opacity:1;vector-effect:none;fill:#acacac;fill-opacity:1;stroke:none;stroke-width:0.264583;stroke-linecap:round;stroke-linejoin:miter;stroke-miterlimit:4;stroke-dasharray:none;stroke-dashoffset:0;stroke-opacity:0.392157"
     id="path2724" />
  <path
     d="m 2.3812501,1.3229167 c -0.5863167,0 -1.0583333,0.4720167 -1.0583333,1.0583334 V 14.552083 c 0,0.586317 0.4720166,1.058334 1.0583333,1.058334 H 14.552083 c 0.586317,0 1.058334,-0.472017 1.058334,-1.058334 V 3.7041667 c 0,-0.5863166 -0.472017,-1.0583333 -1.058334,-1.0583333 H 8.4666667 L 7.14375,1.3229167 Z m 0,2.1166667 H 14.552083 c 0.439738,0 0.79375,0.3540125 0.79375,0.79375 v 9.7895836 c 0,0.439737 -0.354012,0.79375 -0.79375,0.79375 H 2.3812501 c -0.4397375,0 -0.79375,-0.354013 -0.79375,-0.79375 V 4.2333334 c 0,-0.4397375 0.3540125,-0.79375 0.79375,-0.79375 z"
     style="display:inline;vector-effect:none;fill:#000000;fill-opacity:0.25;stroke:none;stroke-width:0.264583;stroke-linecap:round;stroke-linejoin:miter;stroke-miterlimit:4;stroke-dasharray:none;stroke-dashoffset:0;stroke-opacity:0.392157;enable-background:new"
     id="path3134" />
  <path
     d="m 2.38125,3.1749999 c -0.5863167,0 -1.0583334,0.4720166 -1.0583334,1.0583333 V 14.552084 c 0,0.586317 0.4720167,1.058333 1.0583334,1.058333 h 12.170833 c 0.586317,0 1.058334,-0.472016 1.058334,-1.058333 V 4.2333332 c 0,-0.5863167 -0.472017,-1.0583333 -1.058334,-1.0583333 z m 0,0.2645833 h 12.170833 c 0.439738,0 0.79375,0.3540125 0.79375,0.79375 v 9.7895838 c 0,0.439738 -0.354012,0.79375 -0.79375,0.79375 H 2.38125 c -0.4397375,0 -0.79375,-0.354012 -0.79375,-0.79375 V 4.2333332 c 0,-0.4397375 0.3540125,-0.79375 0.79375,-0.79375 z"
     style="display:inline;vector-effect:none;fill:#000000;fill-opacity:0.25;stroke:none;stroke-width:0.529167;stroke-linecap:round;stroke-miterlimit:4;stroke-dasharray:none;stroke-opacity:1;enable-background:new"
     id="path2915" />
  <path
     d="m 8.4666662,6.3499999 c -0.766085,0 -1.532409,0.1461399 -2.253096,0.4382135 -0.3603419,0.1460923 -0.7098249,0.328676 -1.0417969,0.5477721 -0.331968,0.2190962 -0.646192,0.4747996 -0.93844,0.7668786 l 3.4664539,4.1971599 h 0.0011 c 0.1996229,0.20802 0.4754669,0.325601 0.763778,0.325559 0.2891259,-4.76e-4 0.565467,-0.119237 0.76481,-0.32866 h 0.0021 L 12.700093,8.1028641 C 12.261351,7.6644075 11.771851,7.3081725 11.250029,7.0341965 c -0.0118,-0.00619 -0.02434,-0.010425 -0.0362,-0.01651 -0.185981,-0.096091 -0.376428,-0.1800119 -0.569468,-0.2552806 -0.07267,-0.02831 -0.146643,-0.052123 -0.220144,-0.077518 -0.134276,-0.046355 -0.269537,-0.08853 -0.406173,-0.125058 -0.08403,-0.02249 -0.1684588,-0.043233 -0.2532158,-0.062008 -0.139605,-0.03085 -0.280575,-0.055705 -0.421677,-0.076486 -0.07718,-0.011377 -0.154024,-0.024712 -0.23151,-0.033073 -0.2144869,-0.023072 -0.429361,-0.038259 -0.644922,-0.038259 z"
     style="display:inline;fill:#000000;fill-opacity:1;stroke:none;stroke-width:0.280016;stroke-linecap:square;stroke-linejoin:miter;stroke-miterlimit:4;stroke-dasharray:none;stroke-opacity:1;enable-background:new;opacity:0.3"
     id="path1247" />
  <path
     d="m 8.4666665,6.0854165 c -0.7660851,0 -1.5324084,0.14614 -2.2530963,0.4382135 C 5.8532289,6.6697224 5.503746,6.852306 5.1717733,7.0714022 4.8398059,7.2904983 4.5255814,7.5462022 4.2333333,7.838281 l 3.4664543,4.19716 h 0.00106 c 0.1996228,0.20802 0.4754668,0.325601 0.763778,0.325559 0.289126,-4.77e-4 0.5654675,-0.119237 0.7648098,-0.32866 h 0.00212 L 12.700074,7.838281 C 12.261352,7.3998241 11.771852,7.0435892 11.25003,6.7696132 c -0.0118,-0.00619 -0.02434,-0.010425 -0.0362,-0.01651 C 11.027849,6.6570118 10.837402,6.5730912 10.644362,6.4978226 10.571697,6.4695122 10.497719,6.4456997 10.424218,6.420305 10.289942,6.37395 10.154681,6.3317754 10.018045,6.295247 9.9340142,6.2727574 9.8495854,6.2520141 9.7648288,6.2332393 9.625224,6.2023888 9.484254,6.1775339 9.3431517,6.1567535 9.2659728,6.1453764 9.1891272,6.1320414 9.1116413,6.1236806 8.8971542,6.1006089 8.6822808,6.0854218 8.4667195,6.0854218 Z"
     style="display:inline;fill:#d1d1d1;fill-opacity:1;stroke:none;stroke-width:0.280016;stroke-linecap:square;stroke-linejoin:miter;stroke-miterlimit:4;stroke-dasharray:none;stroke-opacity:1;enable-background:new"
     id="path1127" />
  <path
     d="m 8.4666665,7.6729165 c -1.1786923,0 -2.3573422,0.4489397 -3.2566504,1.3477187 l 2.4897715,3.0148058 h 0.00106 c 0.1996228,0.20802 0.4754668,0.325601 0.763778,0.325559 0.289126,-4.76e-4 0.5654675,-0.119237 0.7648098,-0.32866 h 0.00212 L 11.722353,9.0196033 C 10.823178,8.1215228 9.6449671,7.6729165 8.4667405,7.6729165 Z"
     style="display:inline;fill:#ffffff;fill-opacity:1;stroke:none;stroke-width:0.280016;stroke-linecap:square;stroke-linejoin:miter;stroke-miterlimit:4;stroke-dasharray:none;stroke-opacity:1;enable-background:new"
     id="path1483" />
</svg>
