<?xml version="1.0" encoding="UTF-8" standalone="no"?>
<!-- Created with Inkscape (http://www.inkscape.org/) -->

<svg
   width="64"
   height="64"
   viewBox="0 0 16.933333 16.933333"
   version="1.1"
   id="svg5"
   inkscape:version="1.2 (dc2aedaf03, 2022-05-15)"
   sodipodi:docname="folder-red-text.svg"
   xmlns:inkscape="http://www.inkscape.org/namespaces/inkscape"
   xmlns:sodipodi="http://sodipodi.sourceforge.net/DTD/sodipodi-0.dtd"
   xmlns="http://www.w3.org/2000/svg"
   xmlns:svg="http://www.w3.org/2000/svg">
  <sodipodi:namedview
     id="namedview7"
     pagecolor="#ffffff"
     bordercolor="#666666"
     borderopacity="1.0"
     inkscape:pageshadow="2"
     inkscape:pageopacity="0.0"
     inkscape:pagecheckerboard="0"
     inkscape:document-units="px"
     showgrid="false"
     units="px"
     height="48px"
     inkscape:zoom="8.34375"
     inkscape:cx="27.265918"
     inkscape:cy="46.322097"
     inkscape:window-width="1846"
     inkscape:window-height="1011"
     inkscape:window-x="0"
     inkscape:window-y="0"
     inkscape:window-maximized="1"
     inkscape:current-layer="svg5"
     inkscape:showpageshadow="2"
     inkscape:deskcolor="#d1d1d1" />
  <defs
     id="defs2" />
  <path
     d="m 2.38125,1.3229167 h 4.7625 l 1.3229167,1.3229167 h 6.0854163 c 0.586316,0 1.058333,0.4720166 1.058333,1.0583333 V 14.552084 c 0,0.586316 -0.472017,1.058333 -1.058333,1.058333 H 2.38125 c -0.5863166,0 -1.0583333,-0.472017 -1.0583333,-1.058333 V 2.38125 c 0,-0.5863166 0.4720167,-1.0583333 1.0583333,-1.0583333 z"
     style="opacity:1;vector-effect:none;fill:#f15d22;fill-opacity:1;stroke:none;stroke-width:0.264583;stroke-linecap:round;stroke-linejoin:miter;stroke-miterlimit:4;stroke-dasharray:none;stroke-dashoffset:0;stroke-opacity:0.392157"
     id="path2724" />
  <path
     d="m 2.3812501,1.3229167 c -0.5863167,0 -1.0583333,0.4720167 -1.0583333,1.0583334 V 14.552083 c 0,0.586317 0.4720166,1.058334 1.0583333,1.058334 H 14.552083 c 0.586317,0 1.058334,-0.472017 1.058334,-1.058334 V 3.7041667 c 0,-0.5863166 -0.472017,-1.0583333 -1.058334,-1.0583333 H 8.4666667 L 7.14375,1.3229167 Z m 0,2.1166667 H 14.552083 c 0.439738,0 0.79375,0.3540125 0.79375,0.79375 v 9.7895836 c 0,0.439737 -0.354012,0.79375 -0.79375,0.79375 H 2.3812501 c -0.4397375,0 -0.79375,-0.354013 -0.79375,-0.79375 V 4.2333334 c 0,-0.4397375 0.3540125,-0.79375 0.79375,-0.79375 z"
     style="display:inline;vector-effect:none;fill:#000000;fill-opacity:0.25;stroke:none;stroke-width:0.264583;stroke-linecap:round;stroke-linejoin:miter;stroke-miterlimit:4;stroke-dasharray:none;stroke-dashoffset:0;stroke-opacity:0.392157;enable-background:new"
     id="path3134" />
  <path
     d="m 2.38125,3.1749999 c -0.5863167,0 -1.0583334,0.4720166 -1.0583334,1.0583333 V 14.552084 c 0,0.586317 0.4720167,1.058333 1.0583334,1.058333 h 12.170833 c 0.586317,0 1.058334,-0.472016 1.058334,-1.058333 V 4.2333332 c 0,-0.5863167 -0.472017,-1.0583333 -1.058334,-1.0583333 z m 0,0.2645833 h 12.170833 c 0.439738,0 0.79375,0.3540125 0.79375,0.79375 v 9.7895838 c 0,0.439738 -0.354012,0.79375 -0.79375,0.79375 H 2.38125 c -0.4397375,0 -0.79375,-0.354012 -0.79375,-0.79375 V 4.2333332 c 0,-0.4397375 0.3540125,-0.79375 0.79375,-0.79375 z"
     style="display:inline;vector-effect:none;fill:#000000;fill-opacity:0.25;stroke:none;stroke-width:0.529167;stroke-linecap:round;stroke-miterlimit:4;stroke-dasharray:none;stroke-opacity:1;enable-background:new"
     id="path2915" />
  <path
     d="m 4.7624999,5.8208332 c -0.2922483,0 -0.5291667,0.2369184 -0.5291667,0.5291667 0,0.2922482 0.2369184,0.5291666 0.5291667,0.5291666 H 12.170832 C 12.46308,6.8791665 12.7,6.6422481 12.7,6.3499999 12.7,6.0577516 12.46308,5.8208332 12.170832,5.8208332 Z m 0,2.1166665 c -0.2922483,0 -0.5291667,0.2369184 -0.5291667,0.5291666 0,0.2922477 0.2369184,0.5291657 0.5291667,0.5291657 H 12.170832 C 12.46308,8.995832 12.7,8.758914 12.7,8.4666663 12.7,8.1744181 12.46308,7.9374997 12.170832,7.9374997 Z m 0,2.1166663 c -0.2922483,0 -0.5291667,0.236917 -0.5291667,0.529165 0,0.29225 0.2369184,0.529168 0.5291667,0.529168 h 7.4083321 c 0.292248,0 0.529168,-0.236918 0.529168,-0.529168 0,-0.292248 -0.23692,-0.529165 -0.529168,-0.529165 z m 0,2.116665 c -0.2922483,0 -0.5291667,0.23692 -0.5291667,0.529168 0,0.292248 0.2369184,0.529166 0.5291667,0.529166 h 4.2333323 c 0.2922479,0 0.5291679,-0.236918 0.5291679,-0.529166 0,-0.292248 -0.23692,-0.529168 -0.5291679,-0.529168 z"
     style="display:inline;opacity:0.2;fill:#000000;fill-opacity:1;stroke:none;stroke-width:0.529166;stroke-opacity:0.392157;enable-background:new"
     id="path968" />
  <path
     d="m 4.7624998,5.5562499 c -0.2922481,0 -0.5291665,0.2369184 -0.5291665,0.5291665 0,0.2922482 0.2369184,0.5291669 0.5291665,0.5291669 H 12.170832 C 12.46308,6.6145833 12.7,6.3776646 12.7,6.0854164 12.7,5.7931683 12.46308,5.5562499 12.170832,5.5562499 Z m 0,2.1166666 c -0.2922481,0 -0.5291665,0.2369185 -0.5291665,0.5291666 0,0.292248 0.2369184,0.5291666 0.5291665,0.5291666 H 12.170832 C 12.46308,8.7312497 12.7,8.4943311 12.7,8.2020831 12.7,7.909835 12.46308,7.6729165 12.170832,7.6729165 Z m 0,2.1166672 c -0.2922481,0 -0.5291665,0.2369173 -0.5291665,0.5291653 0,0.292248 0.2369184,0.529165 0.5291665,0.529165 h 7.4083322 c 0.292248,0 0.529168,-0.236917 0.529168,-0.529165 0,-0.292248 -0.23692,-0.5291653 -0.529168,-0.5291653 z m 0,2.1166653 c -0.2922481,0 -0.5291665,0.236917 -0.5291665,0.529168 0,0.292247 0.2369184,0.529166 0.5291665,0.529166 h 4.2333324 c 0.2922478,0 0.5291684,-0.236919 0.5291684,-0.529166 0,-0.292251 -0.2369206,-0.529168 -0.5291684,-0.529168 z"
     style="display:inline;fill:#ffffff;fill-opacity:1;stroke:none;stroke-width:0.529166;stroke-opacity:0.392157;enable-background:new"
     id="path848" />
</svg>
