<?xml version="1.0" encoding="UTF-8" standalone="no"?>
<!-- Created with Inkscape (http://www.inkscape.org/) -->

<svg
   width="64"
   height="64"
   viewBox="0 0 16.933333 16.933333"
   version="1.1"
   id="svg5"
   inkscape:version="1.2 (dc2aedaf03, 2022-05-15)"
   sodipodi:docname="folder-brown-publicshare.svg"
   xmlns:inkscape="http://www.inkscape.org/namespaces/inkscape"
   xmlns:sodipodi="http://sodipodi.sourceforge.net/DTD/sodipodi-0.dtd"
   xmlns="http://www.w3.org/2000/svg"
   xmlns:svg="http://www.w3.org/2000/svg">
  <sodipodi:namedview
     id="namedview7"
     pagecolor="#ffffff"
     bordercolor="#666666"
     borderopacity="1.0"
     inkscape:pageshadow="2"
     inkscape:pageopacity="0.0"
     inkscape:pagecheckerboard="0"
     inkscape:document-units="px"
     showgrid="false"
     units="px"
     height="48px"
     inkscape:zoom="5.8999222"
     inkscape:cx="29.576661"
     inkscape:cy="54.153256"
     inkscape:window-width="1846"
     inkscape:window-height="1011"
     inkscape:window-x="0"
     inkscape:window-y="0"
     inkscape:window-maximized="1"
     inkscape:current-layer="svg5"
     inkscape:showpageshadow="2"
     inkscape:deskcolor="#d1d1d1" />
  <defs
     id="defs2" />
  <path
     d="m 2.38125,1.3229167 h 4.7625 l 1.3229167,1.3229167 h 6.0854163 c 0.586316,0 1.058333,0.4720166 1.058333,1.0583333 V 14.552084 c 0,0.586316 -0.472017,1.058333 -1.058333,1.058333 H 2.38125 c -0.5863166,0 -1.0583333,-0.472017 -1.0583333,-1.058333 V 2.38125 c 0,-0.5863166 0.4720167,-1.0583333 1.0583333,-1.0583333 z"
     style="opacity:1;vector-effect:none;fill:#7b736e;fill-opacity:1;stroke:none;stroke-width:0.264583;stroke-linecap:round;stroke-linejoin:miter;stroke-miterlimit:4;stroke-dasharray:none;stroke-dashoffset:0;stroke-opacity:0.392157"
     id="path2724" />
  <path
     d="m 2.3812501,1.3229167 c -0.5863167,0 -1.0583333,0.4720167 -1.0583333,1.0583334 V 14.552083 c 0,0.586317 0.4720166,1.058334 1.0583333,1.058334 H 14.552083 c 0.586317,0 1.058334,-0.472017 1.058334,-1.058334 V 3.7041667 c 0,-0.5863166 -0.472017,-1.0583333 -1.058334,-1.0583333 H 8.4666667 L 7.14375,1.3229167 Z m 0,2.1166667 H 14.552083 c 0.439738,0 0.79375,0.3540125 0.79375,0.79375 v 9.7895836 c 0,0.439737 -0.354012,0.79375 -0.79375,0.79375 H 2.3812501 c -0.4397375,0 -0.79375,-0.354013 -0.79375,-0.79375 V 4.2333334 c 0,-0.4397375 0.3540125,-0.79375 0.79375,-0.79375 z"
     style="display:inline;vector-effect:none;fill:#000000;fill-opacity:0.25;stroke:none;stroke-width:0.264583;stroke-linecap:round;stroke-linejoin:miter;stroke-miterlimit:4;stroke-dasharray:none;stroke-dashoffset:0;stroke-opacity:0.392157;enable-background:new"
     id="path3134" />
  <path
     d="m 2.38125,3.1749999 c -0.5863167,0 -1.0583334,0.4720166 -1.0583334,1.0583333 V 14.552084 c 0,0.586317 0.4720167,1.058333 1.0583334,1.058333 h 12.170833 c 0.586317,0 1.058334,-0.472016 1.058334,-1.058333 V 4.2333332 c 0,-0.5863167 -0.472017,-1.0583333 -1.058334,-1.0583333 z m 0,0.2645833 h 12.170833 c 0.439738,0 0.79375,0.3540125 0.79375,0.79375 v 9.7895838 c 0,0.439738 -0.354012,0.79375 -0.79375,0.79375 H 2.38125 c -0.4397375,0 -0.79375,-0.354012 -0.79375,-0.79375 V 4.2333332 c 0,-0.4397375 0.3540125,-0.79375 0.79375,-0.79375 z"
     style="display:inline;vector-effect:none;fill:#000000;fill-opacity:0.25;stroke:none;stroke-width:0.529167;stroke-linecap:round;stroke-miterlimit:4;stroke-dasharray:none;stroke-opacity:1;enable-background:new"
     id="path2915" />
  <path
     d="m 8.4667882,5.8208332 c 0.8767551,0 1.5874998,0.710777 1.5874998,1.5875 0,0.876723 -0.7107447,1.5875 -1.5874998,1.5875 -0.876755,0 -1.5874999,-0.710777 -1.5874999,-1.5875 0,-0.876723 0.7107449,-1.5875 1.5874999,-1.5875 z m 0,4.2333328 c 3.1748778,-0.0016 3.1748778,2.11844 3.1748778,2.11844 v 0.529166 H 5.2916666 v -0.529166 c 0,0 0,-2.116667 3.1751216,-2.11844 z"
     style="color:#000000;font-style:normal;font-variant:normal;font-weight:normal;font-stretch:normal;font-size:medium;line-height:normal;font-family:Sans;-inkscape-font-specification:Sans;text-indent:0;text-align:start;text-decoration:none;text-decoration-line:none;letter-spacing:normal;word-spacing:normal;text-transform:none;writing-mode:lr-tb;direction:ltr;baseline-shift:baseline;text-anchor:start;display:inline;overflow:visible;visibility:visible;fill:#000000;fill-opacity:1;stroke:none;stroke-width:0.280016;marker:none;enable-background:accumulate;opacity:0.3"
     id="path1162" />
  <path
     d="m 8.4667883,5.5562499 c 0.8767551,0 1.5874997,0.7107766 1.5874997,1.5874999 0,0.8767234 -0.7107446,1.5875 -1.5874997,1.5875 -0.8767551,0 -1.5875,-0.7107766 -1.5875,-1.5875 0,-0.8767233 0.7107449,-1.5874999 1.5875,-1.5874999 z m 0,4.2333331 c 3.1748777,-0.0016 3.1748777,2.11844 3.1748777,2.11844 v 0.529166 H 5.2916666 v -0.529166 c 0,0 0,-2.116667 3.1751217,-2.11844 z"
     style="color:#000000;font-style:normal;font-variant:normal;font-weight:normal;font-stretch:normal;font-size:medium;line-height:normal;font-family:Sans;-inkscape-font-specification:Sans;text-indent:0;text-align:start;text-decoration:none;text-decoration-line:none;letter-spacing:normal;word-spacing:normal;text-transform:none;writing-mode:lr-tb;direction:ltr;baseline-shift:baseline;text-anchor:start;display:inline;overflow:visible;visibility:visible;fill:#fafafb;fill-opacity:1;stroke:none;stroke-width:1.05833;marker:none;enable-background:accumulate"
     id="path2687"
     sodipodi:nodetypes="ssssscccccc" />
</svg>
