<?xml version="1.0" encoding="UTF-8" standalone="no"?>
<!-- Created with Inkscape (http://www.inkscape.org/) -->

<svg
   width="64"
   height="64"
   viewBox="0 0 16.933333 16.933333"
   version="1.1"
   id="svg5"
   inkscape:version="1.2 (dc2aedaf03, 2022-05-15)"
   sodipodi:docname="folder-blue-videos.svg"
   xmlns:inkscape="http://www.inkscape.org/namespaces/inkscape"
   xmlns:sodipodi="http://sodipodi.sourceforge.net/DTD/sodipodi-0.dtd"
   xmlns="http://www.w3.org/2000/svg"
   xmlns:svg="http://www.w3.org/2000/svg">
  <sodipodi:namedview
     id="namedview7"
     pagecolor="#ffffff"
     bordercolor="#666666"
     borderopacity="1.0"
     inkscape:pageshadow="2"
     inkscape:pageopacity="0.0"
     inkscape:pagecheckerboard="0"
     inkscape:document-units="px"
     showgrid="false"
     units="px"
     height="48px"
     inkscape:zoom="5.8999222"
     inkscape:cx="29.576661"
     inkscape:cy="54.153256"
     inkscape:window-width="1846"
     inkscape:window-height="1011"
     inkscape:window-x="0"
     inkscape:window-y="0"
     inkscape:window-maximized="1"
     inkscape:current-layer="svg5"
     inkscape:showpageshadow="2"
     inkscape:deskcolor="#d1d1d1" />
  <defs
     id="defs2" />
  <path
     d="m 2.38125,1.3229167 h 4.7625 l 1.3229167,1.3229167 h 6.0854163 c 0.586316,0 1.058333,0.4720166 1.058333,1.0583333 V 14.552084 c 0,0.586316 -0.472017,1.058333 -1.058333,1.058333 H 2.38125 c -0.5863166,0 -1.0583333,-0.472017 -1.0583333,-1.058333 V 2.38125 c 0,-0.5863166 0.4720167,-1.0583333 1.0583333,-1.0583333 z"
     style="opacity:1;vector-effect:none;fill:#6a7ce0;fill-opacity:1;stroke:none;stroke-width:0.264583;stroke-linecap:round;stroke-linejoin:miter;stroke-miterlimit:4;stroke-dasharray:none;stroke-dashoffset:0;stroke-opacity:0.392157"
     id="path2724" />
  <path
     d="m 2.3812501,1.3229167 c -0.5863167,0 -1.0583333,0.4720167 -1.0583333,1.0583334 V 14.552083 c 0,0.586317 0.4720166,1.058334 1.0583333,1.058334 H 14.552083 c 0.586317,0 1.058334,-0.472017 1.058334,-1.058334 V 3.7041667 c 0,-0.5863166 -0.472017,-1.0583333 -1.058334,-1.0583333 H 8.4666667 L 7.14375,1.3229167 Z m 0,2.1166667 H 14.552083 c 0.439738,0 0.79375,0.3540125 0.79375,0.79375 v 9.7895836 c 0,0.439737 -0.354012,0.79375 -0.79375,0.79375 H 2.3812501 c -0.4397375,0 -0.79375,-0.354013 -0.79375,-0.79375 V 4.2333334 c 0,-0.4397375 0.3540125,-0.79375 0.79375,-0.79375 z"
     style="display:inline;vector-effect:none;fill:#000000;fill-opacity:0.25;stroke:none;stroke-width:0.264583;stroke-linecap:round;stroke-linejoin:miter;stroke-miterlimit:4;stroke-dasharray:none;stroke-dashoffset:0;stroke-opacity:0.392157;enable-background:new"
     id="path3134" />
  <path
     d="m 2.38125,3.1749999 c -0.5863167,0 -1.0583334,0.4720166 -1.0583334,1.0583333 V 14.552084 c 0,0.586317 0.4720167,1.058333 1.0583334,1.058333 h 12.170833 c 0.586317,0 1.058334,-0.472016 1.058334,-1.058333 V 4.2333332 c 0,-0.5863167 -0.472017,-1.0583333 -1.058334,-1.0583333 z m 0,0.2645833 h 12.170833 c 0.439738,0 0.79375,0.3540125 0.79375,0.79375 v 9.7895838 c 0,0.439738 -0.354012,0.79375 -0.79375,0.79375 H 2.38125 c -0.4397375,0 -0.79375,-0.354012 -0.79375,-0.79375 V 4.2333332 c 0,-0.4397375 0.3540125,-0.79375 0.79375,-0.79375 z"
     style="display:inline;vector-effect:none;fill:#000000;fill-opacity:0.25;stroke:none;stroke-width:0.529167;stroke-linecap:round;stroke-miterlimit:4;stroke-dasharray:none;stroke-opacity:1;enable-background:new"
     id="path2915" />
  <path
     d="m 6.0854165,5.5562499 c -1.0260542,0 -1.8520833,0.8260288 -1.8520833,1.8520836 0,0.81944 0.5270923,1.510559 1.2619381,1.75596 -0.1279366,0.174969 -0.2036048,0.390975 -0.2036048,0.62529 v 2.1166645 c 0,0.586318 0.4720167,1.058335 1.0583333,1.058335 h 3.7041652 c 0.586318,0 1.058333,-0.472017 1.058333,-1.058335 l 1.5875,1.058335 V 9.2604165 l -1.5875,1.0583315 V 9.7895835 c 0,-0.234315 -0.07567,-0.450321 -0.203604,-0.62529 0.734845,-0.245401 1.261938,-0.93652 1.261938,-1.75596 0,-1.0260548 -0.82603,-1.8520836 -1.852083,-1.8520836 -1.0260534,0 -1.8520826,0.8260288 -1.8520826,1.8520836 0,0.519218 0.2115185,0.987266 0.5534555,1.322916 H 7.3840444 c 0.3419369,-0.33565 0.5534554,-0.803698 0.5534554,-1.322916 0,-1.0260548 -0.8260292,-1.8520836 -1.8520833,-1.8520836 z m 0,1.0583326 c 0.4397375,0 0.79375,0.354013 0.79375,0.793751 0,0.439737 -0.3540125,0.79375 -0.79375,0.79375 -0.4397375,0 -0.79375,-0.354013 -0.79375,-0.79375 0,-0.439738 0.3540125,-0.793751 0.79375,-0.793751 z m 4.2333325,0 c 0.439738,0 0.793749,0.354013 0.793749,0.793751 0,0.439737 -0.354011,0.79375 -0.793749,0.79375 -0.4397366,0 -0.7937496,-0.354013 -0.7937496,-0.79375 0,-0.439738 0.354013,-0.793751 0.7937496,-0.793751 z"
     style="display:inline;opacity:0.3;vector-effect:none;fill:#000000;fill-opacity:1;stroke:none;stroke-width:0.0740876;stroke-linecap:square;stroke-opacity:1;enable-background:new"
     id="path976" />
  <path
     d="m 6.0854165,5.2916667 c -1.0260542,0 -1.8520833,0.8260291 -1.8520833,1.8520833 0,0.819441 0.5270923,1.5105591 1.2619381,1.7559602 C 5.3673347,9.0746794 5.2916665,9.2906854 5.2916665,9.5250004 v 2.1166656 c 0,0.586317 0.4720167,1.058334 1.0583333,1.058334 h 3.7041662 c 0.586317,0 1.058333,-0.472017 1.058333,-1.058334 L 12.699999,12.7 V 8.9958334 l -1.5875,1.0583326 V 9.5250004 c 0,-0.234315 -0.07567,-0.450321 -0.203604,-0.6252902 0.734845,-0.2454011 1.261937,-0.9365192 1.261937,-1.7559602 0,-1.0260542 -0.826029,-1.8520833 -1.852083,-1.8520833 -1.0260534,0 -1.8520826,0.8260291 -1.8520826,1.8520833 0,0.5192183 0.2115185,0.9872662 0.5534555,1.3229166 H 7.3840444 C 7.7259813,8.1310162 7.9374998,7.6629683 7.9374998,7.14375 c 0,-1.0260542 -0.8260292,-1.8520833 -1.8520833,-1.8520833 z m 0,1.0583333 c 0.4397375,0 0.79375,0.3540125 0.79375,0.79375 0,0.4397375 -0.3540125,0.79375 -0.79375,0.79375 -0.4397375,0 -0.79375,-0.3540125 -0.79375,-0.79375 0,-0.4397375 0.3540125,-0.79375 0.79375,-0.79375 z m 4.2333325,0 c 0.439738,0 0.79375,0.3540125 0.79375,0.79375 0,0.4397375 -0.354012,0.79375 -0.79375,0.79375 -0.4397367,0 -0.7937492,-0.3540125 -0.7937492,-0.79375 0,-0.4397375 0.3540125,-0.79375 0.7937492,-0.79375 z"
     style="display:inline;vector-effect:none;fill:#ffffff;fill-opacity:1;stroke:none;stroke-width:0.280016;stroke-linecap:square;stroke-opacity:1;enable-background:new"
     id="path856"
     sodipodi:nodetypes="sscssssccccscsssccssssssssssss" />
</svg>
