<?xml version="1.0" encoding="UTF-8" standalone="no"?>
<!-- Created with Inkscape (http://www.inkscape.org/) -->

<svg
   width="64"
   height="64"
   viewBox="0 0 16.933333 16.933333"
   version="1.1"
   id="svg5"
   inkscape:version="1.2 (dc2aedaf03, 2022-05-15)"
   sodipodi:docname="folder-vbox.svg"
   xmlns:inkscape="http://www.inkscape.org/namespaces/inkscape"
   xmlns:sodipodi="http://sodipodi.sourceforge.net/DTD/sodipodi-0.dtd"
   xmlns="http://www.w3.org/2000/svg"
   xmlns:svg="http://www.w3.org/2000/svg">
  <sodipodi:namedview
     id="namedview7"
     pagecolor="#ffffff"
     bordercolor="#666666"
     borderopacity="1.0"
     inkscape:pageshadow="2"
     inkscape:pageopacity="0.0"
     inkscape:pagecheckerboard="0"
     inkscape:document-units="px"
     showgrid="false"
     units="px"
     height="48px"
     inkscape:zoom="11.799844"
     inkscape:cx="33.13603"
     inkscape:cy="40.678503"
     inkscape:window-width="1846"
     inkscape:window-height="1011"
     inkscape:window-x="0"
     inkscape:window-y="0"
     inkscape:window-maximized="1"
     inkscape:current-layer="svg5"
     inkscape:showpageshadow="2"
     inkscape:deskcolor="#d1d1d1" />
  <defs
     id="defs2" />
  <path
     d="m 2.38125,1.3229167 h 4.7625 l 1.3229167,1.3229167 h 6.0854163 c 0.586316,0 1.058333,0.4720166 1.058333,1.0583333 V 14.552084 c 0,0.586316 -0.472017,1.058333 -1.058333,1.058333 H 2.38125 c -0.5863166,0 -1.0583333,-0.472017 -1.0583333,-1.058333 V 2.38125 c 0,-0.5863166 0.4720167,-1.0583333 1.0583333,-1.0583333 z"
     style="opacity:1;vector-effect:none;fill:#48b9c7;fill-opacity:1;stroke:none;stroke-width:0.264583;stroke-linecap:round;stroke-linejoin:miter;stroke-miterlimit:4;stroke-dasharray:none;stroke-dashoffset:0;stroke-opacity:0.392157"
     id="path2724" />
  <path
     d="m 2.3812501,1.3229167 c -0.5863167,0 -1.0583333,0.4720167 -1.0583333,1.0583334 V 14.552083 c 0,0.586317 0.4720166,1.058334 1.0583333,1.058334 H 14.552083 c 0.586317,0 1.058334,-0.472017 1.058334,-1.058334 V 3.7041667 c 0,-0.5863166 -0.472017,-1.0583333 -1.058334,-1.0583333 H 8.4666667 L 7.14375,1.3229167 Z m 0,2.1166667 H 14.552083 c 0.439738,0 0.79375,0.3540125 0.79375,0.79375 v 9.7895836 c 0,0.439737 -0.354012,0.79375 -0.79375,0.79375 H 2.3812501 c -0.4397375,0 -0.79375,-0.354013 -0.79375,-0.79375 V 4.2333334 c 0,-0.4397375 0.3540125,-0.79375 0.79375,-0.79375 z"
     style="display:inline;vector-effect:none;fill:#000000;fill-opacity:0.25;stroke:none;stroke-width:0.264583;stroke-linecap:round;stroke-linejoin:miter;stroke-miterlimit:4;stroke-dasharray:none;stroke-dashoffset:0;stroke-opacity:0.392157;enable-background:new"
     id="path3134" />
  <path
     d="m 2.38125,3.1749999 c -0.5863167,0 -1.0583334,0.4720166 -1.0583334,1.0583333 V 14.552084 c 0,0.586317 0.4720167,1.058333 1.0583334,1.058333 h 12.170833 c 0.586317,0 1.058334,-0.472016 1.058334,-1.058333 V 4.2333332 c 0,-0.5863167 -0.472017,-1.0583333 -1.058334,-1.0583333 z m 0,0.2645833 h 12.170833 c 0.439738,0 0.79375,0.3540125 0.79375,0.79375 v 9.7895838 c 0,0.439738 -0.354012,0.79375 -0.79375,0.79375 H 2.38125 c -0.4397375,0 -0.79375,-0.354012 -0.79375,-0.79375 V 4.2333332 c 0,-0.4397375 0.3540125,-0.79375 0.79375,-0.79375 z"
     style="display:inline;vector-effect:none;fill:#000000;fill-opacity:0.25;stroke:none;stroke-width:0.529167;stroke-linecap:round;stroke-miterlimit:4;stroke-dasharray:none;stroke-opacity:1;enable-background:new"
     id="path2915" />
  <path
     d="m 8.4672373,5.8240082 c -0.226376,5.24e-4 -0.4273496,0.144976 -0.5,0.359376 L 6.3500497,11.034946 5.7953622,8.2969093 c -0.072652,-0.2144 -0.273624,-0.358852 -0.5,-0.359376 H 3.7041666 v 1.0583174 l 1.2083832,-3.4e-5 0.9375,3.8750653 c 0.164536,0.474406 0.8354623,0.474406 0.9999999,0 L 8.4672373,8.0193205 9.0219245,9.6911964 c 0.157252,0.4900086 0.8505606,0.4900086 1.0078125,0 L 10.5688,8.0583829 11.092237,9.6833824 c 0.06718,0.2205763 0.269436,0.3722726 0.5,0.3750006 h 1.636929 V 8.9958827 H 11.982862 L 11.084425,6.1911954 c -0.160804,-0.4757328 -0.831793,-0.4809664 -1,-0.0078 L 9.5297373,7.8474457 8.9672373,6.183383 c -0.072652,-0.2144 -0.273624,-0.358852 -0.5,-0.3593748 z"
     style="color:#000000;opacity:0.2;fill:#000000;fill-opacity:1;stroke:none;stroke-width:4;stroke-linejoin:round"
     id="path6731" />
  <path
     style="color:#000000;fill:#ffffff;fill-opacity:1;stroke:none;stroke-width:4;stroke-linejoin:round"
     d="m 8.4672373,5.5594249 c -0.226376,5.24e-4 -0.4273496,0.144976 -0.5,0.359376 L 6.3500497,10.770361 5.7953622,8.0323261 c -0.072652,-0.2144 -0.273624,-0.358852 -0.5,-0.359376 H 3.7041666 v 1.0583163 l 1.2083832,-3.32e-5 0.9375,3.8750658 c 0.164536,0.474404 0.8354623,0.474404 0.9999999,0 L 8.4672373,7.7547373 9.0219245,9.426612 c 0.157252,0.4900097 0.8505606,0.4900097 1.0078125,0 L 10.5688,7.7937997 11.092237,9.4188 c 0.06718,0.220576 0.269436,0.3722717 0.5,0.3749997 h 1.636929 V 8.7312996 H 11.982862 L 11.084425,5.9266121 c -0.160804,-0.4757328 -0.831793,-0.4809664 -1,-0.0078 l -0.5546877,1.6640504 -0.5625,-1.6640628 c -0.072652,-0.2144 -0.273624,-0.358852 -0.5,-0.3593748 z"
     id="path1493"
     sodipodi:nodetypes="cccccccccccccccccccccccc" />
</svg>
