<?xml version="1.0" encoding="UTF-8" standalone="no"?>
<!-- Created with Inkscape (http://www.inkscape.org/) -->

<svg
   width="64"
   height="64"
   viewBox="0 0 16.933333 16.933333"
   version="1.1"
   id="svg5"
   inkscape:version="1.2 (dc2aedaf03, 2022-05-15)"
   sodipodi:docname="folder-green-templates.svg"
   xmlns:inkscape="http://www.inkscape.org/namespaces/inkscape"
   xmlns:sodipodi="http://sodipodi.sourceforge.net/DTD/sodipodi-0.dtd"
   xmlns="http://www.w3.org/2000/svg"
   xmlns:svg="http://www.w3.org/2000/svg">
  <sodipodi:namedview
     id="namedview7"
     pagecolor="#ffffff"
     bordercolor="#666666"
     borderopacity="1.0"
     inkscape:pageshadow="2"
     inkscape:pageopacity="0.0"
     inkscape:pagecheckerboard="0"
     inkscape:document-units="px"
     showgrid="false"
     units="px"
     height="48px"
     inkscape:zoom="5.8999222"
     inkscape:cx="29.576661"
     inkscape:cy="54.153256"
     inkscape:window-width="1846"
     inkscape:window-height="1011"
     inkscape:window-x="0"
     inkscape:window-y="0"
     inkscape:window-maximized="1"
     inkscape:current-layer="svg5"
     inkscape:showpageshadow="2"
     inkscape:deskcolor="#d1d1d1" />
  <defs
     id="defs2" />
  <path
     d="m 2.38125,1.3229167 h 4.7625 l 1.3229167,1.3229167 h 6.0854163 c 0.586316,0 1.058333,0.4720166 1.058333,1.0583333 V 14.552084 c 0,0.586316 -0.472017,1.058333 -1.058333,1.058333 H 2.38125 c -0.5863166,0 -1.0583333,-0.472017 -1.0583333,-1.058333 V 2.38125 c 0,-0.5863166 0.4720167,-1.0583333 1.0583333,-1.0583333 z"
     style="opacity:1;vector-effect:none;fill:#73c48f;fill-opacity:1;stroke:none;stroke-width:0.264583;stroke-linecap:round;stroke-linejoin:miter;stroke-miterlimit:4;stroke-dasharray:none;stroke-dashoffset:0;stroke-opacity:0.392157"
     id="path2724" />
  <path
     d="m 2.3812501,1.3229167 c -0.5863167,0 -1.0583333,0.4720167 -1.0583333,1.0583334 V 14.552083 c 0,0.586317 0.4720166,1.058334 1.0583333,1.058334 H 14.552083 c 0.586317,0 1.058334,-0.472017 1.058334,-1.058334 V 3.7041667 c 0,-0.5863166 -0.472017,-1.0583333 -1.058334,-1.0583333 H 8.4666667 L 7.14375,1.3229167 Z m 0,2.1166667 H 14.552083 c 0.439738,0 0.79375,0.3540125 0.79375,0.79375 v 9.7895836 c 0,0.439737 -0.354012,0.79375 -0.79375,0.79375 H 2.3812501 c -0.4397375,0 -0.79375,-0.354013 -0.79375,-0.79375 V 4.2333334 c 0,-0.4397375 0.3540125,-0.79375 0.79375,-0.79375 z"
     style="display:inline;vector-effect:none;fill:#000000;fill-opacity:0.25;stroke:none;stroke-width:0.264583;stroke-linecap:round;stroke-linejoin:miter;stroke-miterlimit:4;stroke-dasharray:none;stroke-dashoffset:0;stroke-opacity:0.392157;enable-background:new"
     id="path3134" />
  <path
     d="m 2.38125,3.1749999 c -0.5863167,0 -1.0583334,0.4720166 -1.0583334,1.0583333 V 14.552084 c 0,0.586317 0.4720167,1.058333 1.0583334,1.058333 h 12.170833 c 0.586317,0 1.058334,-0.472016 1.058334,-1.058333 V 4.2333332 c 0,-0.5863167 -0.472017,-1.0583333 -1.058334,-1.0583333 z m 0,0.2645833 h 12.170833 c 0.439738,0 0.79375,0.3540125 0.79375,0.79375 v 9.7895838 c 0,0.439738 -0.354012,0.79375 -0.79375,0.79375 H 2.38125 c -0.4397375,0 -0.79375,-0.354012 -0.79375,-0.79375 V 4.2333332 c 0,-0.4397375 0.3540125,-0.79375 0.79375,-0.79375 z"
     style="display:inline;vector-effect:none;fill:#000000;fill-opacity:0.25;stroke:none;stroke-width:0.529167;stroke-linecap:round;stroke-miterlimit:4;stroke-dasharray:none;stroke-opacity:1;enable-background:new"
     id="path2915" />
  <path
     d="m 8.4666665,5.5562499 c -1.169003,0 -2.116666,0.9476581 -2.116666,2.1166666 0,0.5844911 0.237074,1.113499 0.620117,1.4965362 l -1.004073,1.0040943 c -0.459578,-0.4033581 -1.169789,0.231801 -0.745691,0.745675 l -0.98702,0.987028 v 1.058333 l 1.058333,-0.529166 0.758093,-0.758085 c 0.926565,0.643785 2.088165,0.901568 3.225128,0.680562 0.587718,-0.114247 1.1333075,-0.349647 1.6086875,-0.680562 L 11.641667,12.435417 12.7,12.964583 V 11.90625 l -0.987536,-0.987531 c 0.342183,-0.408861 0.609671,-0.884581 0.779796,-1.4081922 0.116845,-0.3433759 -0.138544,-0.6998755 -0.501261,-0.6996903 -0.231384,0 -0.435655,0.15113 -0.504362,0.3720571 -0.117801,0.3625582 -0.297622,0.6941084 -0.526066,0.9839324 L 9.9632155,9.1694527 C 10.346259,8.7864155 10.583333,8.2574076 10.583333,7.6729165 c 0,-1.1690085 -0.9476625,-2.1166666 -2.1166665,-2.1166666 z m 0,1.0583333 c 0.584502,0 1.058334,0.4738423 1.058334,1.0583333 0,0.2922588 -0.118539,0.5567627 -0.31006,0.7482681 L 8.4666665,7.6729165 7.7183935,8.4211846 c -0.191521,-0.1915054 -0.31006,-0.4560093 -0.31006,-0.7482681 0,-0.584491 0.473832,-1.0583333 1.058333,-1.0583333 z m -0.474906,3.1207336 c 0.152832,0.03508 0.311431,0.05427 0.474906,0.05427 0.163301,0 0.322226,-0.019309 0.474906,-0.05427 l 1.1777065,1.1777142 c -0.3170485,0.193066 -0.6705205,0.331972 -1.0469645,0.40513 -0.789787,0.153537 -1.592665,0 -2.258259,-0.40513 z"
     style="display:inline;fill:#000000;fill-opacity:1;stroke:none;stroke-width:0.140009px;stroke-linecap:butt;stroke-linejoin:miter;stroke-opacity:1;enable-background:new;opacity:0.3"
     id="path894" />
  <path
     id="path2816"
     style="display:inline;fill:#ffffff;fill-opacity:1;stroke:none;stroke-width:0.529167px;stroke-linecap:butt;stroke-linejoin:miter;stroke-opacity:1;enable-background:new"
     d="m 8.4666665,5.2916666 c -1.1690032,0 -2.1166666,0.9476581 -2.1166666,2.1166666 0,0.5844911 0.2370746,1.113499 0.6201171,1.4965363 L 5.9660445,9.9089636 C 5.5064659,9.5056056 4.7962554,10.140765 5.2203534,10.654639 L 4.2333332,11.641667 V 12.7 l 1.0583333,-0.529166 0.7580921,-0.758085 c 0.9265656,0.643785 2.0881658,0.901568 3.2251282,0.680562 0.5877187,-0.114247 1.1333082,-0.349647 1.6086882,-0.680562 L 11.641667,12.170834 12.7,12.7 v -1.058333 l -0.987536,-0.987531 c 0.342183,-0.408861 0.609671,-0.8845814 0.779796,-1.4081924 0.116845,-0.343376 -0.138544,-0.6998756 -0.501261,-0.6996904 -0.231384,0 -0.435655,0.15113 -0.504362,0.3720571 -0.117801,0.3625583 -0.297622,0.6941083 -0.526066,0.9839323 L 9.9632155,8.9048695 C 10.346259,8.5218322 10.583333,7.9928243 10.583333,7.4083332 c 0,-1.1690085 -0.9476632,-2.1166666 -2.1166665,-2.1166666 z m 0,1.0583333 c 0.5845016,0 1.0583333,0.4738423 1.0583333,1.0583333 0,0.2922588 -0.118539,0.5567627 -0.3100599,0.7482682 L 8.4666665,7.4083332 7.7183931,8.1566014 C 7.5268718,7.9650959 7.4083332,7.700592 7.4083332,7.4083332 c 0,-0.584491 0.4738317,-1.0583333 1.0583333,-1.0583333 z M 7.9917606,9.4707336 c 0.1528313,0.03508 0.3114304,0.05427 0.4749059,0.05427 0.1633008,0 0.3222255,-0.01931 0.4749059,-0.05427 l 1.1777056,1.1777144 c -0.3170482,0.193066 -0.6705202,0.331972 -1.0469644,0.40513 -0.7897865,0.153537 -1.5926646,0 -2.2582584,-0.40513 z"
     sodipodi:nodetypes="ssccccccccccccccccccsssscccsscsccccc" />
</svg>
