<?xml version="1.0" encoding="UTF-8" standalone="no"?>
<!-- Created with Inkscape (http://www.inkscape.org/) -->

<svg
   width="64"
   height="64"
   viewBox="0 0 16.933333 16.933333"
   version="1.1"
   id="svg5"
   inkscape:version="1.1.2 (0a00cf5339, 2022-02-04, custom)"
   sodipodi:docname="user-trash.svg"
   xmlns:inkscape="http://www.inkscape.org/namespaces/inkscape"
   xmlns:sodipodi="http://sodipodi.sourceforge.net/DTD/sodipodi-0.dtd"
   xmlns="http://www.w3.org/2000/svg"
   xmlns:svg="http://www.w3.org/2000/svg">
  <sodipodi:namedview
     id="namedview7"
     pagecolor="#ffffff"
     bordercolor="#666666"
     borderopacity="1.0"
     inkscape:pageshadow="2"
     inkscape:pageopacity="0.0"
     inkscape:pagecheckerboard="0"
     inkscape:document-units="px"
     showgrid="false"
     units="px"
     height="48px"
     inkscape:zoom="8.34375"
     inkscape:cx="27.146067"
     inkscape:cy="23.250936"
     inkscape:window-width="1920"
     inkscape:window-height="1017"
     inkscape:window-x="0"
     inkscape:window-y="0"
     inkscape:window-maximized="1"
     inkscape:current-layer="svg5" />
  <defs
     id="defs2" />
  <path
     d="m 3.7071107,1.0583338 c -0.5863166,0 -1.1051645,0.4738688 -1.0583333,1.0583333 L 3.7071107,15.345834 c 2.38125,1.322916 7.1437493,1.322916 9.5249993,0 L 14.290446,2.1166671 C 14.337278,1.5322026 13.818427,1.0583338 13.23211,1.0583338 Z"
     style="fill:#898989;stroke-width:0.264583"
     id="path4458" />
  <path
     d="m 3.7071107,1.0583338 c -0.07329,0 -0.1455208,0.00767 -0.2153708,0.021696 -0.00185,2.646e-4 -0.00344,0.00106 -0.00529,0.00159 C 2.9974109,1.1848364 2.6477746,1.616856 2.6487774,2.1166671 L 3.7071107,15.345834 c 2.38125,1.322916 7.1437493,1.322916 9.5249993,0 L 14.290444,2.1166671 c 0.0011,-0.4998111 -0.348634,-0.9318307 -0.837671,-1.03505 -0.0019,-2.646e-4 -0.0034,-0.00132 -0.0053,-0.00159 -0.0709,-0.014314 -0.143041,-0.02159 -0.215371,-0.021696 z m 0,0.2645833 H 13.23211 c 0.439738,0 0.79375,0.3540126 0.79375,0.79375 L 12.967527,14.552084 c -2.38125,1.322916 -6.614583,1.322916 -8.9958329,0 L 2.9133608,2.1166671 c 0,-0.4397374 0.3540124,-0.79375 0.7937499,-0.79375 z"
     style="fill:#000000;fill-opacity:0.5;stroke-width:0.264583"
     id="path4338" />
  <path
     style="color:#000000;opacity:0.35;fill:#000000;stroke-width:0.264583;-inkscape-stroke:none"
     d="m 12.7,2.1079354 -0.79375,11.6416656 0.263551,0.01757 0.79375,-11.6416653 z"
     id="path31" />
  <path
     style="color:#000000;opacity:0.35;fill:#ffffff;stroke-width:0.264583;-inkscape-stroke:none"
     d="m 12.435416,2.1079354 -0.79375,11.6416656 0.263552,0.01757 0.79375,-11.6416653 z"
     id="path33" />
  <path
     style="color:#000000;opacity:0.35;fill:#000000;stroke-width:0.264583;-inkscape-stroke:none"
     d="M 10.582817,2.1110363 10.053651,14.281868 10.318234,14.293245 10.8474,2.1224134 Z"
     id="path37" />
  <path
     style="color:#000000;opacity:0.35;fill:#ffffff;stroke-width:0.264583;-inkscape-stroke:none"
     d="M 10.318234,2.1110363 9.7890672,14.281868 10.053651,14.293245 10.582817,2.1224134 Z"
     id="path39" />
  <path
     style="color:#000000;opacity:0.35;fill:#000000;stroke-width:0.264583;-inkscape-stroke:none"
     d="m 4.2323014,2.1079354 -0.2635515,0.017568 0.79375,11.6416656 0.2635515,-0.01757 z"
     id="path43" />
  <path
     style="color:#000000;opacity:0.35;fill:#ffffff;stroke-width:0.264583;-inkscape-stroke:none"
     d="m 4.4968847,2.1079354 -0.2635515,0.017568 0.79375,11.6416656 0.2635515,-0.01757 z"
     id="path45" />
  <path
     style="color:#000000;opacity:0.35;fill:#000000;stroke-width:0.264583;-inkscape-stroke:none"
     d="M 6.3494839,2.1110363 6.0849006,2.1224134 6.6140673,14.293245 6.8786506,14.281868 Z"
     id="path49" />
  <path
     style="color:#000000;opacity:0.35;fill:#ffffff;stroke-width:0.264583;-inkscape-stroke:none"
     d="M 6.6140673,2.1110363 6.3494839,2.1224134 6.8786506,14.293245 7.1432339,14.281868 Z"
     id="path51" />
  <path
     style="color:#000000;opacity:0.35;fill:#000000;stroke-width:0.264583;-inkscape-stroke:none"
     d="M 8.4661506,2.1167195 V 14.816718 H 8.7307339 V 2.1167195 Z"
     id="path55" />
  <path
     style="color:#000000;opacity:0.35;fill:#ffffff;stroke-width:0.264583;-inkscape-stroke:none"
     d="M 8.2015673,2.1167195 V 14.816718 H 8.4661506 V 2.1167195 Z"
     id="path57" />
</svg>
