<?xml version="1.0" encoding="UTF-8" standalone="no"?>
<svg
   width="16"
   height="16"
   version="1.1"
   id="svg7"
   sodipodi:docname="cm_viewhistoryprev.svg"
   inkscape:version="1.2 (dc2aedaf03, 2022-05-15)"
   xmlns:inkscape="http://www.inkscape.org/namespaces/inkscape"
   xmlns:sodipodi="http://sodipodi.sourceforge.net/DTD/sodipodi-0.dtd"
   xmlns="http://www.w3.org/2000/svg"
   xmlns:svg="http://www.w3.org/2000/svg">
  <sodipodi:namedview
     id="namedview9"
     pagecolor="#ffffff"
     bordercolor="#000000"
     borderopacity="0.25"
     inkscape:showpageshadow="2"
     inkscape:pageopacity="0.0"
     inkscape:pagecheckerboard="0"
     inkscape:deskcolor="#d1d1d1"
     showgrid="false"
     inkscape:zoom="47.4375"
     inkscape:cx="10.519104"
     inkscape:cy="5.4598155"
     inkscape:window-width="1920"
     inkscape:window-height="1009"
     inkscape:window-x="0"
     inkscape:window-y="0"
     inkscape:window-maximized="1"
     inkscape:current-layer="svg7" />
  <defs
     id="defs3">
    <style
       id="current-color-scheme"
       type="text/css">
   .ColorScheme-Text { color:#f2f2f2; } .ColorScheme-Highlight { color:#4285f4; } .ColorScheme-NeutralText { color:#ff9800; } .ColorScheme-PositiveText { color:#4caf50; } .ColorScheme-NegativeText { color:#f44336; }
  </style>
  </defs>
  <path
     id="path5"
     style="fill:currentColor"
     class="ColorScheme-Text"
     d="M 2 1 C 0.89200222 1 0 1.8920022 0 3 L 0 13 C 0 14.107998 0.89200222 15 2 15 L 12 15 C 13.107998 15 14 14.107998 14 13 L 14 11 A 1 1 0 0 0 13 10 A 1 1 0 0 0 12 11 L 12 13 L 2 13 L 2 3 L 12 3 L 12 5 A 1 1 0 0 0 13 6 A 1 1 0 0 0 14 5 L 14 3 C 14 1.8920022 13.107998 1 12 1 L 2 1 z M 8 4 L 4 8 L 8 12 L 9.5 10.5 L 8 9 L 14 9 C 14.552284 9 15 8.5522841 15 8 C 15 7.4477159 14.552284 7 14 7 L 8 7 L 9.5 5.5 L 8 4 z " />
</svg>
