<?xml version="1.0" encoding="UTF-8" standalone="no"?>
<svg
   width="16"
   height="16"
   version="1.1"
   id="svg5113"
   sodipodi:docname="view-list-tree.svg"
   inkscape:version="1.2 (dc2aedaf03, 2022-05-15)"
   xmlns:inkscape="http://www.inkscape.org/namespaces/inkscape"
   xmlns:sodipodi="http://sodipodi.sourceforge.net/DTD/sodipodi-0.dtd"
   xmlns="http://www.w3.org/2000/svg"
   xmlns:svg="http://www.w3.org/2000/svg">
  <sodipodi:namedview
     id="namedview5115"
     pagecolor="#ffffff"
     bordercolor="#000000"
     borderopacity="0.25"
     inkscape:showpageshadow="2"
     inkscape:pageopacity="0.0"
     inkscape:pagecheckerboard="0"
     inkscape:deskcolor="#d1d1d1"
     showgrid="false"
     inkscape:zoom="51.625"
     inkscape:cx="8"
     inkscape:cy="8"
     inkscape:window-width="1920"
     inkscape:window-height="1009"
     inkscape:window-x="0"
     inkscape:window-y="0"
     inkscape:window-maximized="1"
     inkscape:current-layer="svg5113" />
  <defs
     id="defs5109">
    <style
       id="current-color-scheme"
       type="text/css">
   .ColorScheme-Text { color:#f2f2f2; } .ColorScheme-Highlight { color:#4285f4; } .ColorScheme-NeutralText { color:#ff9800; } .ColorScheme-PositiveText { color:#4caf50; } .ColorScheme-NegativeText { color:#f44336; }
  </style>
  </defs>
  <path
     id="path5111"
     style="fill:currentColor"
     class="ColorScheme-Text"
     d="M 3 1 A 2 2 0 0 0 1 3 L 1 5 A 2 2 0 0 0 3 7 L 3 11 C 3 12.104568 3.8954327 13 5 13 L 9 13 A 2 2 0 0 0 11 15 L 13 15 A 2 2 0 0 0 15 13 L 15 11 A 2 2 0 0 0 13 9 L 11 9 A 2 2 0 0 0 9 11 L 5 11 L 5 7 A 2 2 0 0 0 7 5 L 9 5 A 2 2 0 0 0 11 7 L 13 7 A 2 2 0 0 0 15 5 L 15 3 A 2 2 0 0 0 13 1 L 11 1 A 2 2 0 0 0 9 3 L 7 3 A 2 2 0 0 0 5 1 L 3 1 z M 3 3 L 5 3 L 5 5 L 3 5 L 3 3 z M 11 3 L 13 3 L 13 5 L 11 5 L 11 3 z " />
</svg>
