<?xml version="1.0" encoding="UTF-8" standalone="no"?>
<svg
   viewBox="0 0 24 24"
   version="1.1"
   id="svg6"
   sodipodi:docname="action-unavailable.svg"
   width="24"
   height="24"
   inkscape:version="1.2 (dc2aedaf03, 2022-05-15)"
   xmlns:inkscape="http://www.inkscape.org/namespaces/inkscape"
   xmlns:sodipodi="http://sodipodi.sourceforge.net/DTD/sodipodi-0.dtd"
   xmlns="http://www.w3.org/2000/svg"
   xmlns:svg="http://www.w3.org/2000/svg">
  <defs
     id="defs10" />
  <sodipodi:namedview
     id="namedview8"
     pagecolor="#ffffff"
     bordercolor="#000000"
     borderopacity="0.25"
     inkscape:showpageshadow="2"
     inkscape:pageopacity="0.0"
     inkscape:pagecheckerboard="0"
     inkscape:deskcolor="#d1d1d1"
     showgrid="false"
     inkscape:zoom="8.3858445"
     inkscape:cx="-12.282603"
     inkscape:cy="-4.0544515"
     inkscape:window-width="1920"
     inkscape:window-height="1009"
     inkscape:window-x="0"
     inkscape:window-y="0"
     inkscape:window-maximized="1"
     inkscape:current-layer="svg6" />
  <g
     transform="translate(-437,27)"
     id="g4">
    <path
       color="#000000"
       d="m 208,595 c -3.863,0 -7,3.137 -7,7 0,3.863 3.137,7 7,7 3.863,0 7,-3.137 7,-7 0,-3.863 -3.137,-7 -7,-7 z m 0,2 a 4.93,4.93 0 0 1 2.75,0.813 l -6.938,6.937 A 4.93,4.93 0 0 1 203,602 c 0,-2.76 2.24,-5 5,-5 z m 4.188,2.25 A 4.93,4.93 0 0 1 213,602 c 0,2.76 -2.24,5 -5,5 a 4.93,4.93 0 0 1 -2.75,-0.813 z"
       fill="#f2f2f2"
       style="text-indent:0;text-decoration-line:none;text-transform:none"
       transform="translate(241,-617)"
       id="path2" />
  </g>
</svg>
