<?xml version="1.0" encoding="UTF-8" standalone="no"?>
<svg
   viewBox="0 0 24 24"
   version="1.1"
   id="svg3358"
   sodipodi:docname="document-new.svg"
   width="24"
   height="24"
   inkscape:version="1.2 (dc2aedaf03, 2022-05-15)"
   xmlns:inkscape="http://www.inkscape.org/namespaces/inkscape"
   xmlns:sodipodi="http://sodipodi.sourceforge.net/DTD/sodipodi-0.dtd"
   xmlns="http://www.w3.org/2000/svg"
   xmlns:svg="http://www.w3.org/2000/svg">
  <defs
     id="defs3362" />
  <sodipodi:namedview
     id="namedview3360"
     pagecolor="#ffffff"
     bordercolor="#000000"
     borderopacity="0.25"
     inkscape:showpageshadow="2"
     inkscape:pageopacity="0.0"
     inkscape:pagecheckerboard="0"
     inkscape:deskcolor="#d1d1d1"
     showgrid="false"
     inkscape:zoom="11.859375"
     inkscape:cx="1.0961792"
     inkscape:cy="17.032938"
     inkscape:window-width="1920"
     inkscape:window-height="1009"
     inkscape:window-x="0"
     inkscape:window-y="0"
     inkscape:window-maximized="1"
     inkscape:current-layer="svg3358" />
  <path
     color="#bebebe"
     d="M 0,0 H 24 V 24 H 0 Z"
     fill="#808080"
     fill-opacity="0.01"
     id="path3354"
     style="stroke-width:1.5" />
  <path
     d="M 7.96,5.003 A 1.998,1.998 0 0 0 6,6.999 v 11 a 2,2 0 0 0 2,2 h 8 c 1.09,0 1.973,-0.874 1.995,-1.959 0.01,-1.094 0.005,-5.423 0,-8.13 A 1.998,1.998 0 0 0 17.448,8.573 L 14.48,5.605 A 1.998,1.998 0 0 0 13.083,5.003 Z m 3.035,4 h 2 v 3 h 3 v 2 h -3 v 3 h -2 v -3 h -3 v -2 h 3 z"
     fill="#f2f2f2"
     id="path3356" />
</svg>
