<?xml version="1.0" encoding="UTF-8" standalone="no"?>
<svg
   viewBox="0 0 24 24"
   version="1.1"
   id="svg12779"
   sodipodi:docname="list-add.svg"
   width="24"
   height="24"
   inkscape:version="1.2 (dc2aedaf03, 2022-05-15)"
   xmlns:inkscape="http://www.inkscape.org/namespaces/inkscape"
   xmlns:sodipodi="http://sodipodi.sourceforge.net/DTD/sodipodi-0.dtd"
   xmlns="http://www.w3.org/2000/svg"
   xmlns:svg="http://www.w3.org/2000/svg">
  <defs
     id="defs12783" />
  <sodipodi:namedview
     id="namedview12781"
     pagecolor="#ffffff"
     bordercolor="#000000"
     borderopacity="0.25"
     inkscape:showpageshadow="2"
     inkscape:pageopacity="0.0"
     inkscape:pagecheckerboard="0"
     inkscape:deskcolor="#d1d1d1"
     showgrid="false"
     inkscape:zoom="23.71875"
     inkscape:cx="7.7364954"
     inkscape:cy="7.8629776"
     inkscape:window-width="1920"
     inkscape:window-height="1010"
     inkscape:window-x="0"
     inkscape:window-y="0"
     inkscape:window-maximized="1"
     inkscape:current-layer="g12777" />
  <g
     color="#bebebe"
     id="g12777"
     transform="scale(1.5)">
    <path
       d="M 0,0 H 16 V 16 H 0 Z"
       fill="#808080"
       fill-opacity="0.01"
       id="path12773" />
    <path
       d="M 8,3.3333333 C 7.6318102,3.3333333 7.3333334,3.6318101 7.3333334,4 v 3.3306666 l -3.3333333,0.00267 c -0.3681886,0 -0.6666649,0.2984748 -0.6666667,0.6666633 -10e-8,0.3681899 0.2984768,0.6666668 0.6666667,0.6666668 l 3.3333333,-0.00267 V 12 c 0,0.36819 0.2984771,0.666666 0.6666666,0.666666 0.3681896,0 0.6666667,-0.298476 0.6666667,-0.666666 V 8.664 L 12,8.66667 c 0.368191,-4e-7 0.666668,-0.2984792 0.666666,-0.6666701 C 12.666666,7.6318104 12.36819,7.3333337 12,7.3333333 L 8.6666667,7.3306666 V 4 C 8.6666667,3.6318101 8.3681899,3.3333333 8,3.3333333 Z"
       fill="#f2f2f2"
       id="path12775"
       style="stroke-width:0.666667"
       sodipodi:nodetypes="ssccsccsssccsccss" />
  </g>
</svg>
