<?xml version="1.0" encoding="UTF-8" standalone="no"?>
<svg
   viewBox="0 0 24 24"
   version="1.1"
   id="svg8"
   sodipodi:docname="mail-mark-junk.svg"
   width="24"
   height="24"
   inkscape:version="1.2 (dc2aedaf03, 2022-05-15)"
   xmlns:inkscape="http://www.inkscape.org/namespaces/inkscape"
   xmlns:sodipodi="http://sodipodi.sourceforge.net/DTD/sodipodi-0.dtd"
   xmlns="http://www.w3.org/2000/svg"
   xmlns:svg="http://www.w3.org/2000/svg">
  <defs
     id="defs12" />
  <sodipodi:namedview
     id="namedview10"
     pagecolor="#ffffff"
     bordercolor="#000000"
     borderopacity="0.25"
     inkscape:showpageshadow="2"
     inkscape:pageopacity="0.0"
     inkscape:pagecheckerboard="0"
     inkscape:deskcolor="#d1d1d1"
     showgrid="false"
     inkscape:zoom="24.25"
     inkscape:cx="7.1752577"
     inkscape:cy="10.886598"
     inkscape:window-width="1846"
     inkscape:window-height="1011"
     inkscape:window-x="0"
     inkscape:window-y="0"
     inkscape:window-maximized="1"
     inkscape:current-layer="g6" />
  <g
     color="#000000"
     id="g6">
    <path
       d="M 0,0 H 24 V 24 H 0 Z"
       fill="#808080"
       fill-opacity="0.01"
       xml:space="preserve"
       id="path2"
       style="stroke-width:1.5" />
    <path
       d="M 9.219,5 8.906,5.281 5.282,8.906 5,9.219 v 5.561 l 0.282,0.313 3.625,3.625 0.312,0.281 h 5.563 L 15.094,18.718 18.719,15.093 19,14.78 V 9.22 L 18.719,8.907 15.094,5.282 14.781,5.001 H 9.625 Z M 11,8 h 2 v 3 l -0.25,2 h -1.469 l -0.28,-2 z m 1,5.75 a 1.25,1.25 0 1 1 0,2.5 1.25,1.25 0 0 1 0,-2.5 z"
       fill="#f2f2f2"
       style="text-indent:0;text-decoration-line:none;text-transform:none"
       id="path4" />
  </g>
</svg>
