<?xml version="1.0" encoding="UTF-8" standalone="no"?>
<svg
   viewBox="0 0 24 24"
   version="1.1"
   id="svg6"
   sodipodi:docname="media-seek-backward.svg"
   width="24"
   height="24"
   inkscape:version="1.2 (dc2aedaf03, 2022-05-15)"
   xmlns:inkscape="http://www.inkscape.org/namespaces/inkscape"
   xmlns:sodipodi="http://sodipodi.sourceforge.net/DTD/sodipodi-0.dtd"
   xmlns="http://www.w3.org/2000/svg"
   xmlns:svg="http://www.w3.org/2000/svg">
  <defs
     id="defs10" />
  <sodipodi:namedview
     id="namedview8"
     pagecolor="#ffffff"
     bordercolor="#000000"
     borderopacity="0.25"
     inkscape:showpageshadow="2"
     inkscape:pageopacity="0.0"
     inkscape:pagecheckerboard="0"
     inkscape:deskcolor="#d1d1d1"
     showgrid="false"
     inkscape:zoom="24.25"
     inkscape:cx="3.628866"
     inkscape:cy="10.886598"
     inkscape:window-width="1846"
     inkscape:window-height="1011"
     inkscape:window-x="0"
     inkscape:window-y="0"
     inkscape:window-maximized="1"
     inkscape:current-layer="svg6" />
  <path
     color="#bebebe"
     d="M 24,0 H 0 v 24 h 24 z"
     fill="#808080"
     fill-opacity="0.01"
     id="path2"
     style="stroke-width:1.5" />
  <path
     d="m 11,8.71 a 1,1 0 0 0 -0.578,0.186 l -3.854,2.21 a 1,1 0 0 0 -0.134,0.079 l -0.012,0.006 v 0.002 A 1,1 0 0 0 6,12.007 1,1 0 0 0 6.422,12.823 l 0.004,0.002 a 1,1 0 0 0 0.138,0.08 l 3.858,2.22 A 1,1 0 0 0 12,14.31 v -2.3 h 0.004 l 5.418,3.11 A 1,1 0 0 0 19,14.306 V 9.714 A 1,1 0 0 0 17.422,8.899 L 12.004,12.01 H 12 v -2.3 a 1,1 0 0 0 -1,-1 z"
     fill="#f2f2f2"
     id="path4" />
</svg>
