<?xml version="1.0" encoding="UTF-8" standalone="no"?>
<svg
   viewBox="0 0 24 24"
   version="1.1"
   id="svg8"
   sodipodi:docname="process-stop.svg"
   width="24"
   height="24"
   inkscape:version="1.2 (dc2aedaf03, 2022-05-15)"
   xmlns:inkscape="http://www.inkscape.org/namespaces/inkscape"
   xmlns:sodipodi="http://sodipodi.sourceforge.net/DTD/sodipodi-0.dtd"
   xmlns="http://www.w3.org/2000/svg"
   xmlns:svg="http://www.w3.org/2000/svg">
  <defs
     id="defs12" />
  <sodipodi:namedview
     id="namedview10"
     pagecolor="#ffffff"
     bordercolor="#000000"
     borderopacity="0.25"
     inkscape:showpageshadow="2"
     inkscape:pageopacity="0.0"
     inkscape:pagecheckerboard="0"
     inkscape:deskcolor="#d1d1d1"
     showgrid="false"
     inkscape:zoom="13.859375"
     inkscape:cx="-11.364149"
     inkscape:cy="11.003382"
     inkscape:window-width="1920"
     inkscape:window-height="1010"
     inkscape:window-x="0"
     inkscape:window-y="0"
     inkscape:window-maximized="1"
     inkscape:current-layer="g6" />
  <g
     color="#000000"
     id="g6">
    <path
       d="M 24,0 H 0 v 24 h 24 z"
       fill="#808080"
       fill-opacity="0.01"
       xml:space="preserve"
       id="path2"
       style="stroke-width:1.5" />
    <path
       d="M 9.22,5 8.907,5.281 5.282,8.906 5.002,9.219 v 5.561 l 0.28,0.313 3.625,3.625 0.313,0.281 h 5.562 l 0.313,-0.281 3.625,-3.625 0.281,-0.313 V 9.22 L 18.72,8.907 15.095,5.282 14.782,5.001 H 9.626 Z M 8.97,8.938 h 1 c 0.276,0 0.538,0.1 0.719,0.28 l 1.281,1.278 1.281,-1.277 C 13.432,9.038 13.694,8.938 13.97,8.938 h 1 v 1 c 0,0.276 -0.1,0.537 -0.281,0.718 l -1.282,1.278 1.282,1.285 c 0.18,0.18 0.282,0.442 0.28,0.719 v 1 h -1 c -0.275,0 -0.537,-0.1 -0.718,-0.282 L 11.97,13.371 10.689,14.656 A 1.015,1.015 0 0 1 9.97,14.937 h -1 v -1 c 0,-0.276 0.1,-0.537 0.281,-0.718 l 1.281,-1.285 -1.28,-1.278 A 1.015,1.015 0 0 1 8.97,9.937 Z"
       fill="#f2f2f2"
       style="text-indent:0;text-decoration-line:none;text-transform:none"
       id="path4" />
  </g>
</svg>
