<?xml version="1.0" encoding="UTF-8" standalone="no"?>
<svg
   viewBox="0 0 24 24"
   version="1.1"
   id="svg251"
   sodipodi:docname="view-preview.svg"
   inkscape:version="1.2 (dc2aedaf03, 2022-05-15)"
   width="24"
   height="24"
   xmlns:inkscape="http://www.inkscape.org/namespaces/inkscape"
   xmlns:sodipodi="http://sodipodi.sourceforge.net/DTD/sodipodi-0.dtd"
   xmlns="http://www.w3.org/2000/svg"
   xmlns:svg="http://www.w3.org/2000/svg">
  <defs
     id="defs255" />
  <sodipodi:namedview
     id="namedview253"
     pagecolor="#ffffff"
     bordercolor="#000000"
     borderopacity="0.25"
     inkscape:showpageshadow="2"
     inkscape:pageopacity="0.0"
     inkscape:pagecheckerboard="0"
     inkscape:deskcolor="#d1d1d1"
     showgrid="false"
     inkscape:zoom="11.859375"
     inkscape:cx="-13.238472"
     inkscape:cy="14.081686"
     inkscape:window-width="1920"
     inkscape:window-height="1009"
     inkscape:window-x="0"
     inkscape:window-y="0"
     inkscape:window-maximized="1"
     inkscape:current-layer="svg251" />
  <path
     color="#bebebe"
     d="M 0,0 H 24 V 24 H 0 Z"
     fill="#808080"
     fill-opacity="0.01"
     id="path243"
     style="stroke-width:1.5" />
  <path
     color="#000000"
     d="M 8,5 C 6.355,5 5,6.355 5,8 v 8 c 0,1.645 1.355,3 3,3 h 8 c 1.645,0 3,-1.355 3,-3 V 8 C 19,6.355 17.645,5 16,5 Z m 0,2 h 8 c 0.571,0 1,0.429 1,1 v 8 c 0,0.571 -0.429,1 -1,1 H 8 C 7.429,17 7,16.571 7,16 V 8 C 7,7.429 7.429,7 8,7 Z"
     fill="#f2f2f2"
     style="-inkscape-stroke:none"
     id="path245" />
  <path
     d="m 8,8 v 6 L 9.5,12.5 11,14 13.5,11.5 16,14 V 8 Z"
     fill="#f2f2f2"
     opacity="0.5"
     id="path247" />
  <path
     d="m 12,12 4,4 H 8 Z"
     fill="#f2f2f2"
     id="path249" />
</svg>
