<?xml version="1.0" encoding="UTF-8" standalone="no"?>
<svg
   viewBox="0 0 24 24"
   version="1.1"
   id="svg4922"
   sodipodi:docname="view-list-text.svg"
   width="24"
   height="24"
   inkscape:version="1.2 (dc2aedaf03, 2022-05-15)"
   xmlns:inkscape="http://www.inkscape.org/namespaces/inkscape"
   xmlns:sodipodi="http://sodipodi.sourceforge.net/DTD/sodipodi-0.dtd"
   xmlns="http://www.w3.org/2000/svg"
   xmlns:svg="http://www.w3.org/2000/svg">
  <defs
     id="defs4926" />
  <sodipodi:namedview
     id="namedview4924"
     pagecolor="#ffffff"
     bordercolor="#000000"
     borderopacity="0.25"
     inkscape:showpageshadow="2"
     inkscape:pageopacity="0.0"
     inkscape:pagecheckerboard="0"
     inkscape:deskcolor="#d1d1d1"
     showgrid="false"
     inkscape:zoom="16.771689"
     inkscape:cx="6.4692352"
     inkscape:cy="10.911245"
     inkscape:window-width="1920"
     inkscape:window-height="1009"
     inkscape:window-x="0"
     inkscape:window-y="0"
     inkscape:window-maximized="1"
     inkscape:current-layer="svg4922" />
  <path
     color="#bebebe"
     d="M 24,0 V 24 H 0 V 0 Z"
     fill="#808080"
     fill-opacity="0.01"
     id="path4918"
     style="stroke-width:1.5" />
  <path
     d="M 18,8 C 18,7.446 17.554,7 17,7 H 7 C 6.446,7 6,7.446 6,8 6,8.554 6.446,9 7,9 h 10 c 0.554,0 1,-0.446 1,-1 z m 0,4 c 0,-0.554 -0.446,-1 -1,-1 H 7 c -0.554,0 -1,0.446 -1,1 0,0.554 0.446,1 1,1 h 10 c 0.554,0 1,-0.446 1,-1 z m 0,4 c 0,-0.554 -0.446,-1 -1,-1 H 7 c -0.554,0 -1,0.446 -1,1 0,0.554 0.446,1 1,1 h 10 c 0.554,0 1,-0.446 1,-1 z"
     fill="#f2f2f2"
     id="path4920"
     sodipodi:nodetypes="sssssssssssssssssssss" />
</svg>
