<?xml version="1.0" encoding="UTF-8" standalone="no"?>
<svg
   viewBox="0 0 24 24"
   version="1.1"
   id="svg6"
   sodipodi:docname="view-left-close.svg"
   inkscape:version="1.2 (dc2aedaf03, 2022-05-15)"
   width="24"
   height="24"
   xmlns:inkscape="http://www.inkscape.org/namespaces/inkscape"
   xmlns:sodipodi="http://sodipodi.sourceforge.net/DTD/sodipodi-0.dtd"
   xmlns="http://www.w3.org/2000/svg"
   xmlns:svg="http://www.w3.org/2000/svg">
  <defs
     id="defs10" />
  <sodipodi:namedview
     id="namedview8"
     pagecolor="#ffffff"
     bordercolor="#000000"
     borderopacity="0.25"
     inkscape:showpageshadow="2"
     inkscape:pageopacity="0.0"
     inkscape:pagecheckerboard="0"
     inkscape:deskcolor="#d1d1d1"
     showgrid="false"
     inkscape:zoom="11.859375"
     inkscape:cx="-7.6310935"
     inkscape:cy="9.4440053"
     inkscape:window-width="1920"
     inkscape:window-height="1009"
     inkscape:window-x="0"
     inkscape:window-y="0"
     inkscape:window-maximized="1"
     inkscape:current-layer="svg6" />
  <path
     color="#bebebe"
     d="M 0,0 H 24 V 24 H 0 Z"
     fill="#808080"
     fill-opacity="0.01"
     id="path2"
     style="stroke-width:1.5" />
  <path
     id="path4"
     d="M 5,5 C 4.4573521,5.0009418 4.0144332,5.4340572 4.0019531,5.9765625 L 4,5.9785156 V 17.978516 l 0.00195,0.002 C 4.001226,17.986796 4.0006062,17.99366 4,18 c 0,0.552284 0.4477158,1 1,1 h 14 c 0.552284,0 1,-0.447716 1,-1 V 6 C 20,5.4477159 19.552284,5 19,5 Z m 8,2 h 5 V 17.003906 H 13 Z M 5,9 H 6.4140625 L 8,10.585938 9.5859375,9 H 11 v 1.414063 L 9.4140625,12 11,13.585938 V 15 H 9.5859375 L 8,13.414063 6.4140625,15 H 5 V 13.585938 L 6.5859375,12 5,10.414063 Z"
     style="fill:#f2f2f2;fill-opacity:1" />
</svg>
