<?xml version="1.0" encoding="UTF-8" standalone="no"?>
<svg
   width="24"
   height="24"
   version="1.1"
   id="svg5113"
   sodipodi:docname="view-list-tree.svg"
   inkscape:version="1.2 (dc2aedaf03, 2022-05-15)"
   xmlns:inkscape="http://www.inkscape.org/namespaces/inkscape"
   xmlns:sodipodi="http://sodipodi.sourceforge.net/DTD/sodipodi-0.dtd"
   xmlns="http://www.w3.org/2000/svg"
   xmlns:svg="http://www.w3.org/2000/svg">
  <sodipodi:namedview
     id="namedview5115"
     pagecolor="#ffffff"
     bordercolor="#000000"
     borderopacity="0.25"
     inkscape:showpageshadow="2"
     inkscape:pageopacity="0.0"
     inkscape:pagecheckerboard="0"
     inkscape:deskcolor="#d1d1d1"
     showgrid="false"
     inkscape:zoom="12.90625"
     inkscape:cx="-3.3317191"
     inkscape:cy="0.23244552"
     inkscape:window-width="1920"
     inkscape:window-height="1009"
     inkscape:window-x="0"
     inkscape:window-y="0"
     inkscape:window-maximized="1"
     inkscape:current-layer="svg5113" />
  <defs
     id="defs5109">
    <style
       id="current-color-scheme"
       type="text/css">
   .ColorScheme-Text { color:#f2f2f2; } .ColorScheme-Highlight { color:#4285f4; } .ColorScheme-NeutralText { color:#ff9800; } .ColorScheme-PositiveText { color:#4caf50; } .ColorScheme-NegativeText { color:#f44336; }
  </style>
  </defs>
  <path
     id="path5111"
     style="fill:currentColor"
     class="ColorScheme-Text"
     d="M 7,5 A 2,2 0 0 0 5,7 v 2 a 2,2 0 0 0 2,2 v 4 c 0,1.104568 0.8954327,2 2,2 h 4 a 2,2 0 0 0 2,2 h 2 a 2,2 0 0 0 2,-2 v -2 a 2,2 0 0 0 -2,-2 h -2 a 2,2 0 0 0 -2,2 H 9 v -4 a 2,2 0 0 0 2,-2 h 2 a 2,2 0 0 0 2,2 h 2 A 2,2 0 0 0 19,9 V 7 A 2,2 0 0 0 17,5 H 15 A 2,2 0 0 0 13,7 H 11 A 2,2 0 0 0 9,5 Z M 7,7 H 9 V 9 H 7 Z m 8,0 h 2 v 2 h -2 z" />
</svg>
