<?xml version="1.0" encoding="UTF-8" standalone="no"?>
<svg
   viewBox="0 0 24 24"
   version="1.1"
   id="svg6"
   sodipodi:docname="window-close.svg"
   width="24"
   height="24"
   inkscape:version="1.2 (dc2aedaf03, 2022-05-15)"
   xmlns:inkscape="http://www.inkscape.org/namespaces/inkscape"
   xmlns:sodipodi="http://sodipodi.sourceforge.net/DTD/sodipodi-0.dtd"
   xmlns="http://www.w3.org/2000/svg"
   xmlns:svg="http://www.w3.org/2000/svg">
  <defs
     id="defs10" />
  <sodipodi:namedview
     id="namedview8"
     pagecolor="#ffffff"
     bordercolor="#000000"
     borderopacity="0.25"
     inkscape:showpageshadow="2"
     inkscape:pageopacity="0.0"
     inkscape:pagecheckerboard="0"
     inkscape:deskcolor="#d1d1d1"
     showgrid="false"
     inkscape:zoom="23.15625"
     inkscape:cx="2.2672065"
     inkscape:cy="12.2861"
     inkscape:window-width="1920"
     inkscape:window-height="1017"
     inkscape:window-x="0"
     inkscape:window-y="0"
     inkscape:window-maximized="1"
     inkscape:current-layer="svg6" />
  <path
     color="#bebebe"
     d="m 0,0.003 h 24 v 24 H 0 Z"
     fill="#808080"
     fill-opacity="0.01"
     id="path2"
     style="stroke-width:1.5" />
  <path
     d="m 9,8.003 a 1,1 0 0 0 -1,1 1,1 0 0 0 0.293,0.707 l 2.293,2.293 -2.293,2.293 A 1,1 0 0 0 8,15.003 a 1,1 0 0 0 1,1 1,1 0 0 0 0.707,-0.293 L 12,13.417 14.283,15.7 a 1,1 0 0 0 0.717,0.303 1,1 0 0 0 1,-1 1,1 0 0 0 -0.293,-0.707 L 13.414,12.003 15.697,9.72 A 1,1 0 0 0 16,9.003 a 1,1 0 0 0 -1,-1 1,1 0 0 0 -0.707,0.293 L 12,10.589 9.717,8.306 A 1,1 0 0 0 9.707,8.296 1,1 0 0 0 9,8.003 Z"
     fill="#f2f2f2"
     id="path4" />
</svg>
