<?xml version="1.0" encoding="UTF-8" standalone="no"?>
<!-- Created with Inkscape (http://www.inkscape.org/) -->

<svg
   width="256"
   height="256"
   viewBox="0 0 67.733332 67.733336"
   version="1.1"
   id="svg1099"
   inkscape:version="1.2 (dc2aedaf03, 2022-05-15)"
   sodipodi:docname="system-shutdown.svg"
   xmlns:inkscape="http://www.inkscape.org/namespaces/inkscape"
   xmlns:sodipodi="http://sodipodi.sourceforge.net/DTD/sodipodi-0.dtd"
   xmlns="http://www.w3.org/2000/svg"
   xmlns:svg="http://www.w3.org/2000/svg">
  <sodipodi:namedview
     id="namedview1101"
     pagecolor="#ffffff"
     bordercolor="#666666"
     borderopacity="1.0"
     inkscape:pageshadow="2"
     inkscape:pageopacity="0.0"
     inkscape:pagecheckerboard="0"
     inkscape:document-units="px"
     showgrid="false"
     units="px"
     inkscape:zoom="2.3296814"
     inkscape:cx="77.907649"
     inkscape:cy="126.41214"
     inkscape:window-width="1846"
     inkscape:window-height="1011"
     inkscape:window-x="0"
     inkscape:window-y="0"
     inkscape:window-maximized="1"
     inkscape:current-layer="svg1099"
     inkscape:showpageshadow="2"
     inkscape:deskcolor="#d1d1d1" />
  <defs
     id="defs1096" />
  <rect
     style="opacity:1;fill:#cf3b00;fill-opacity:1;stroke-width:0.529166"
     id="rect1196"
     width="63.5"
     height="64.558334"
     x="2.1166668"
     y="2.1166668"
     ry="31.75" />
  <path
     id="rect1972"
     style="opacity:0.5;fill:#000000;fill-opacity:1;stroke-width:0.529167;stroke-linejoin:round"
     d="m 33.866668,2.1166668 c -17.589482,0 -31.7500003,14.1605182 -31.7500003,31.7500002 V 34.925 c 0,17.589483 14.1605183,31.750001 31.7500003,31.750001 17.589482,0 31.75,-14.160518 31.75,-31.750001 v -1.058333 c 0,-17.589482 -14.160518,-31.7500002 -31.75,-31.7500002 z m 0,0.2645833 A 31.485416,31.485416 0 0 1 65.352085,33.866667 31.485416,31.485416 0 0 1 33.866668,65.352085 31.485416,31.485416 0 0 1 2.3812507,33.866667 31.485416,31.485416 0 0 1 33.866668,2.3812501 Z" />
  <path
     d="m 33.865897,18.520834 c -1.315383,0 -2.646644,1.057291 -2.646644,2.372673 v 11.909896 c 0,1.315383 1.331261,2.391284 2.646644,2.391284 1.31538,0 2.646644,-1.075901 2.646644,-2.391284 V 20.893507 c 0,-1.315382 -1.331264,-2.372673 -2.646644,-2.372673 z m -9.14643,6.621774 c -0.704104,-1.4e-5 -1.372138,0.311483 -1.824735,0.850854 -0.07336,0.08711 -0.140403,0.179355 -0.200567,0.276039 -2.840121,3.56861 -3.805456,8.278892 -2.598052,12.677011 1.727307,6.210167 7.393182,10.49915 13.839051,10.475949 6.446397,-0.03651 12.072106,-4.379923 13.73877,-10.607249 1.154809,-4.37629 0.168031,-9.04093 -2.660082,-12.57466 -0.436922,-0.682677 -1.191003,-1.096332 -2.001525,-1.097944 -1.315531,0 -2.381979,1.066448 -2.381979,2.381979 -4.77e-4,0.573824 0.206209,1.128534 0.582054,1.56214 1.958952,2.365925 2.651948,5.533528 1.859887,8.501311 -1.102265,4.158009 -4.859289,7.057714 -9.160902,7.070464 -4.301753,0.02863 -8.086902,-2.834405 -9.23017,-6.981553 -0.831985,-2.995239 -0.145404,-6.208044 1.838173,-8.601593 l 0.01961,-0.01861 v -0.0011 -0.0011 -0.0011 -0.0011 -0.0011 c 0.360912,-0.427195 0.560007,-0.967755 0.562412,-1.526992 0,-1.315531 -1.066448,-2.381979 -2.381979,-2.381979 z"
     id="path1692"
     style="fill:#ffffff;stroke-width:0.529328" />
</svg>
