<?xml version="1.0" encoding="UTF-8" standalone="no"?>
<!-- Created with Inkscape (http://www.inkscape.org/) -->

<svg
   width="256"
   height="256"
   viewBox="0 0 67.733332 67.733336"
   version="1.1"
   id="svg1099"
   inkscape:version="1.2 (dc2aedaf03, 2022-05-15)"
   sodipodi:docname="system-component-input-sources.svg"
   xmlns:inkscape="http://www.inkscape.org/namespaces/inkscape"
   xmlns:sodipodi="http://sodipodi.sourceforge.net/DTD/sodipodi-0.dtd"
   xmlns="http://www.w3.org/2000/svg"
   xmlns:svg="http://www.w3.org/2000/svg">
  <sodipodi:namedview
     id="namedview1101"
     pagecolor="#ffffff"
     bordercolor="#666666"
     borderopacity="1.0"
     inkscape:pageshadow="2"
     inkscape:pageopacity="0.0"
     inkscape:pagecheckerboard="0"
     inkscape:document-units="px"
     showgrid="false"
     units="px"
     inkscape:zoom="3.1953125"
     inkscape:cx="128.31296"
     inkscape:cy="128"
     inkscape:window-width="1846"
     inkscape:window-height="1011"
     inkscape:window-x="0"
     inkscape:window-y="0"
     inkscape:window-maximized="1"
     inkscape:current-layer="svg1099"
     inkscape:showpageshadow="2"
     inkscape:deskcolor="#d1d1d1"
     showguides="false" />
  <defs
     id="defs1096" />
  <rect
     style="opacity:1;fill:#48b9c7;fill-opacity:1;stroke-width:1.05833;stroke-linejoin:bevel"
     id="rect508"
     width="41.388508"
     height="41.388527"
     x="27.200499"
     y="-20.694321"
     ry="4.2333088"
     transform="rotate(45)" />
  <path
     d="m 33.866484,6.3500005 c -1.123627,-5.291e-4 -2.20104,0.44722 -2.993496,1.2438063 L 7.5938878,30.872908 c -1.658517,1.651289 -1.658517,4.336231 0,5.98752 L 30.872988,60.139264 c 1.65126,1.65834 4.335997,1.65834 5.987257,0 l 23.2791,-23.2791 c 1.65834,-1.651259 1.65834,-4.335997 0,-5.987256 L 36.860245,7.5938068 C 36.067773,6.7972443 34.990371,6.3495825 33.866749,6.3500005 Z m 0,0.2645834 c 1.014413,0 2.029354,0.3884083 2.806436,1.1657542 L 59.291091,30.39851 c 1.55461,1.548122 1.55461,4.065013 0,5.613135 L 36.67292,58.629817 c -1.548122,1.55461 -4.065014,1.55461 -5.613136,0 L 8.4416128,36.011645 c -1.55461,-1.548122 -1.55461,-4.065013 0,-5.613135 L 31.059784,7.7803381 C 31.802769,7.0336416 32.812852,6.6140679 33.86622,6.6145839 Z"
     style="opacity:0.5;fill:#000000;fill-opacity:1;stroke-width:0.264583"
     id="path6814" />
  <path
     id="rect68"
     style="fill:#ffffff;fill-opacity:1;stroke-width:2.11667"
     d="m 21.668987,23.283536 c -0.2804,0.014 -0.50232,0.24516 -0.50232,0.529168 v 2.116664 c 0,0.29316 0.236,0.529169 0.5292,0.529169 h 2.11664 c 0.2932,0 0.529161,-0.236001 0.529161,-0.529169 v -2.116664 c 0,-0.29316 -0.236001,-0.529168 -0.529161,-0.529168 h -2.11664 c -0.008,0 -0.016,-4.56e-4 -0.028,0 z m 5.291641,0 c -0.2804,0.014 -0.50228,0.24516 -0.50228,0.529168 v 2.116664 c 0,0.29316 0.236,0.529169 0.52916,0.529169 h 2.11668 c 0.2932,0 0.52916,-0.236001 0.52916,-0.529169 v -2.116664 c 0,-0.29316 -0.236,-0.529168 -0.52916,-0.529168 h -2.11668 c -0.008,0 -0.016,-4.56e-4 -0.028,0 z m 5.291681,0 c -0.2804,0.014 -0.50228,0.24516 -0.50228,0.529168 v 2.116664 c 0,0.29316 0.236,0.529169 0.52916,0.529169 h 2.11668 c 0.2932,0 0.52916,-0.236001 0.52916,-0.529169 v -2.116664 c 0,-0.29316 -0.236,-0.529168 -0.52916,-0.529168 h -2.11668 c -0.008,0 -0.016,-4.56e-4 -0.028,0 z m 5.291681,0 c -0.2804,0.014 -0.50232,0.24516 -0.50232,0.529168 v 2.116664 c 0,0.29316 0.236,0.529169 0.5292,0.529169 h 2.11664 c 0.2932,0 0.52916,-0.236001 0.52916,-0.529169 v -2.116664 c 0,-0.29316 -0.236,-0.529168 -0.52916,-0.529168 h -2.11664 c -0.008,0 -0.016,-4.56e-4 -0.028,0 z m 5.291637,0 c -0.2804,0.014 -0.50228,0.24516 -0.50228,0.529168 v 2.116664 c 0,0.29316 0.236,0.529169 0.52916,0.529169 h 3.175 c 0.2932,0 0.52916,-0.236001 0.52916,-0.529169 v -2.116664 c 0,-0.29316 -0.236,-0.529168 -0.52916,-0.529168 h -3.175 c -0.008,0 -0.02,-4.56e-4 -0.028,0 z m -21.16664,5.291669 c -0.2804,0.014 -0.50232,0.24516 -0.50232,0.529164 v 2.116668 c 0,0.29316 0.236,0.529164 0.5292,0.529164 h 3.175001 c 0.2932,0 0.52916,-0.236 0.52916,-0.529164 v -2.116668 c 0,-0.29316 -0.236,-0.529164 -0.52916,-0.529164 h -3.175001 c -0.008,0 -0.016,-4.56e-4 -0.028,0 z m 6.350001,0 c -0.2804,0.014 -0.50232,0.24516 -0.50232,0.529164 v 2.116668 c 0,0.29316 0.236,0.529164 0.5292,0.529164 h 2.116641 c 0.2932,0 0.52916,-0.236 0.52916,-0.529164 v -2.116668 c 0,-0.29316 -0.236,-0.529164 -0.52916,-0.529164 h -2.116641 c -0.008,0 -0.016,-4.56e-4 -0.028,0 z m 5.291641,0 c -0.2804,0.014 -0.50228,0.24516 -0.50228,0.529164 v 2.116668 c 0,0.29316 0.236,0.529164 0.52916,0.529164 h 2.11668 c 0.2932,0 0.52916,-0.236 0.52916,-0.529164 v -2.116668 c 0,-0.29316 -0.236,-0.529164 -0.52916,-0.529164 h -2.11668 c -0.008,0 -0.016,-4.56e-4 -0.028,0 z m 5.291681,0 c -0.2804,0.014 -0.50228,0.24516 -0.50228,0.529164 v 2.116668 c 0,0.29316 0.236,0.529164 0.52916,0.529164 h 2.11668 c 0.2932,0 0.52916,-0.236 0.52916,-0.529164 v -2.116668 c 0,-0.29316 -0.236,-0.529164 -0.52916,-0.529164 h -2.11668 c -0.008,0 -0.016,-4.56e-4 -0.028,0 z m 5.291677,0 c -0.2804,0.014 -0.50232,0.24516 -0.50232,0.529164 v 2.116668 c 0,0.29316 0.236,0.529164 0.5292,0.529164 h 2.11664 c 0.2932,0 0.52916,-0.236 0.52916,-0.529164 v -2.116668 c 0,-0.29316 -0.236,-0.529164 -0.52916,-0.529164 h -2.11664 c -0.008,0 -0.02,-4.56e-4 -0.028,0 z m -22.19812,5.291665 c -0.2932,0 -0.5292,0.236 -0.5292,0.529168 v 2.116664 c 0,0.29316 0.236,0.529168 0.5292,0.529168 h 5.291641 c 0.2932,0 0.52916,-0.236 0.52916,-0.529168 v -2.116664 c 0,-0.29316 -0.236,-0.529168 -0.52916,-0.529168 z m 8.439762,0 c -0.280401,0.014 -0.502281,0.24516 -0.502281,0.529168 v 2.116664 c 0,0.29316 0.236,0.529168 0.529161,0.529168 h 2.11668 c 0.2932,0 0.52916,-0.236 0.52916,-0.529168 v -2.116664 c 0,-0.29316 -0.236,-0.529168 -0.52916,-0.529168 h -2.11668 c -0.008,0 -0.016,-4.56e-4 -0.028,0 z m 5.29168,0 c -0.2804,0.014 -0.50228,0.24516 -0.50228,0.529168 v 2.116664 c 0,0.29316 0.236,0.529168 0.52916,0.529168 h 2.116681 c 0.2932,0 0.52916,-0.236 0.52916,-0.529168 v -2.116664 c 0,-0.29316 -0.236,-0.529168 -0.52916,-0.529168 h -2.116681 c -0.008,0 -0.016,-4.56e-4 -0.028,0 z m 5.318561,0 c -0.2932,0 -0.5292,0.236 -0.5292,0.529168 v 2.116664 c 0,0.29316 0.236,0.529168 0.5292,0.529168 h 5.291637 c 0.2932,0 0.52916,-0.236 0.52916,-0.529168 v -2.116664 c 0,-0.29316 -0.236,-0.529168 -0.52916,-0.529168 z m -13.758362,5.291669 c -0.2932,0 -0.52916,0.236 -0.52916,0.529164 v 2.116664 c 0,0.29316 0.236,0.529176 0.52916,0.529176 H 40.74587 c 0.2932,0 0.52916,-0.236 0.52916,-0.529176 v -2.116664 c 0,-0.29316 -0.236,-0.529164 -0.52916,-0.529164 z" />
</svg>
