<?xml version="1.0" encoding="UTF-8" standalone="no"?>
<!-- Created with Inkscape (http://www.inkscape.org/) -->

<svg
   width="128"
   height="128"
   viewBox="0 0 33.866666 33.866666"
   version="1.1"
   id="svg5"
   inkscape:version="1.2 (dc2aedaf03, 2022-05-15)"
   sodipodi:docname="folder-orange-remote.svg"
   xmlns:inkscape="http://www.inkscape.org/namespaces/inkscape"
   xmlns:sodipodi="http://sodipodi.sourceforge.net/DTD/sodipodi-0.dtd"
   xmlns="http://www.w3.org/2000/svg"
   xmlns:svg="http://www.w3.org/2000/svg">
  <path
     id="rect567"
     style="opacity:1;fill:#faa41a;fill-opacity:1;stroke-width:0.264583"
     d="m 4.7625008,3.1749999 c -1.1726321,0 -2.1166667,0.9440345 -2.1166667,2.1166666 V 29.104166 c 0,1.172633 0.9440346,2.116667 2.1166667,2.116667 H 29.104166 c 1.172633,0 2.116667,-0.944034 2.116667,-2.116667 V 8.4666665 c 0,-1.1726321 -0.944034,-2.1166667 -2.116667,-2.1166667 H 16.933333 L 13.758334,3.1749999 Z"
     sodipodi:nodetypes="sccsssssccs" />
  <path
     d="m 4.7624999,3.175 c -1.1726333,0 -2.1166666,0.9440333 -2.1166666,2.1166666 V 29.104167 c 0,1.172633 0.9440333,2.116666 2.1166666,2.116666 H 29.104166 c 1.172633,0 2.116666,-0.944033 2.116666,-2.116666 V 8.4666666 c 0,-1.172633 -0.944033,-2.116667 -2.116666,-2.116667 H 16.933333 L 13.758333,3.175 Z m 0,4.2333336 H 29.104166 c 1.026054,0 1.852083,0.826029 1.852083,1.852083 V 28.310417 c 0,1.026054 -0.826029,1.852083 -1.852083,1.852083 H 4.7624999 c -1.0260542,0 -1.8520833,-0.826029 -1.8520833,-1.852083 V 9.2604166 c 0,-1.026054 0.8260291,-1.852083 1.8520833,-1.852083 z"
     style="opacity:0.25;fill:#000000;fill-opacity:1;stroke-width:0.264583"
     id="path5034"
     sodipodi:nodetypes="ssssssssccssssssssss" />
  <path
     d="m 4.7625002,7.1437498 c -1.1726333,0 -2.1166666,0.944033 -2.1166666,2.116666 V 29.104167 c 0,1.172633 0.9440333,2.116667 2.1166666,2.116667 H 29.104166 c 1.172633,0 2.116666,-0.944034 2.116666,-2.116667 V 9.2604158 c 0,-1.172633 -0.944033,-2.116666 -2.116666,-2.116666 z m 0,0.264583 H 29.104166 c 1.026054,0 1.852083,0.826029 1.852083,1.852083 V 28.310417 c 0,1.026054 -0.826029,1.852083 -1.852083,1.852083 H 4.7625002 c -1.0260542,0 -1.8520833,-0.826029 -1.8520833,-1.852083 V 9.2604158 c 0,-1.026054 0.8260291,-1.852083 1.8520833,-1.852083 z"
     style="opacity:0.25;fill:#000000;fill-opacity:1;stroke-width:0.264583"
     id="path3728" />
  <path
     d="m 16.933226,12.964589 c -1.544431,-5.52e-4 -3.074453,0.296989 -4.506119,0.8763 -1.483637,0.601098 -2.8307082,1.495426 -3.9605476,2.629429 l 6.9328766,8.394171 h 0.0021 c 0.399274,0.416091 0.951032,0.651262 1.527704,0.65114 0.578219,-9.53e-4 1.130875,-0.238428 1.529556,-0.657225 h 0.0042 l 6.93711,-8.388086 c -0.853332,-0.85467 -1.831104,-1.575265 -2.900098,-2.137304 -0.02381,-0.01243 -0.04868,-0.0209 -0.0725,-0.03307 -0.37037,-0.190069 -0.750484,-0.36052 -1.138766,-0.510645 -0.145521,-0.05662 -0.293423,-0.104246 -0.440267,-0.155046 -0.432122,-0.149862 -0.872497,-0.274775 -1.318948,-0.374121 -0.279171,-0.06097 -0.560425,-0.111978 -0.843227,-0.152929 -0.154517,-0.02275 -0.308239,-0.04948 -0.463021,-0.06615 -0.429154,-0.04604 -0.858837,-0.07647 -1.290108,-0.07647 z"
     style="opacity:0.3;fill:#000000;stroke-width:0.264583"
     id="path3782" />
  <sodipodi:namedview
     id="namedview7"
     pagecolor="#ffffff"
     bordercolor="#666666"
     borderopacity="1.0"
     inkscape:pageshadow="2"
     inkscape:pageopacity="0.0"
     inkscape:pagecheckerboard="0"
     inkscape:document-units="px"
     showgrid="false"
     units="px"
     height="48px"
     inkscape:zoom="6.25"
     inkscape:cx="37.84"
     inkscape:cy="81.52"
     inkscape:window-width="1846"
     inkscape:window-height="1011"
     inkscape:window-x="0"
     inkscape:window-y="0"
     inkscape:window-maximized="1"
     inkscape:current-layer="svg5"
     inkscape:showpageshadow="2"
     inkscape:deskcolor="#d1d1d1" />
  <defs
     id="defs2" />
  <path
     d="m 16.933226,12.700006 c -1.544431,-5.52e-4 -3.074453,0.296989 -4.506119,0.8763 -1.483637,0.601098 -2.8307087,1.495426 -3.9605477,2.629429 l 6.9328767,8.394171 h 0.0021 c 0.399274,0.416091 0.951032,0.651262 1.527704,0.65114 0.578219,-9.53e-4 1.130875,-0.238428 1.529556,-0.657225 h 0.0042 l 6.93711,-8.388086 c -0.853332,-0.85467 -1.831104,-1.575265 -2.900098,-2.137304 -0.02381,-0.01243 -0.04868,-0.0209 -0.0725,-0.03307 -0.37037,-0.190069 -0.750484,-0.36052 -1.138766,-0.510645 C 21.143221,13.468096 20.995319,13.42047 20.848475,13.36967 20.416353,13.219808 19.975978,13.094895 19.529527,12.995549 19.250356,12.934579 18.969102,12.883571 18.6863,12.84262 18.531783,12.81987 18.378061,12.79314 18.223279,12.77647 17.794125,12.73043 17.364442,12.7 16.933171,12.7 Z"
     style="fill:#fccd81;stroke-width:0.264583;fill-opacity:1"
     id="path306"
     sodipodi:nodetypes="cccccccccccccccccc" />
  <path
     d="m 16.937424,15.875007 c -2.357437,0 -4.714875,0.897996 -6.513247,2.695575 l 4.979458,6.029589 h 0.0021 c 0.399319,0.415994 0.951071,0.651067 1.527705,0.650875 0.578219,-9.52e-4 1.130874,-0.238428 1.529556,-0.657225 h 0.0042 l 4.981575,-6.025356 c -1.798324,-1.796521 -4.154703,-2.693458 -6.511347,-2.693458 z"
     style="fill:#ffffff;stroke-width:0.264583"
     id="path3391" />
</svg>
