<?xml version="1.0" encoding="UTF-8" standalone="no"?>
<!-- Created with Inkscape (http://www.inkscape.org/) -->

<svg
   width="128"
   height="128"
   viewBox="0 0 33.866666 33.866666"
   version="1.1"
   id="svg5"
   inkscape:version="1.2 (dc2aedaf03, 2022-05-15)"
   sodipodi:docname="folder-recent.svg"
   xmlns:inkscape="http://www.inkscape.org/namespaces/inkscape"
   xmlns:sodipodi="http://sodipodi.sourceforge.net/DTD/sodipodi-0.dtd"
   xmlns="http://www.w3.org/2000/svg"
   xmlns:svg="http://www.w3.org/2000/svg">
  <path
     id="rect567"
     style="opacity:1;fill:#48b9c7;fill-opacity:1;stroke-width:0.264583"
     d="m 4.7625008,3.1749999 c -1.1726321,0 -2.1166667,0.9440345 -2.1166667,2.1166666 V 29.104166 c 0,1.172633 0.9440346,2.116667 2.1166667,2.116667 H 29.104166 c 1.172633,0 2.116667,-0.944034 2.116667,-2.116667 V 8.4666665 c 0,-1.1726321 -0.944034,-2.1166667 -2.116667,-2.1166667 H 16.933333 L 13.758334,3.1749999 Z"
     sodipodi:nodetypes="sccsssssccs" />
  <path
     d="m 4.7624999,3.175 c -1.1726333,0 -2.1166666,0.9440333 -2.1166666,2.1166666 V 29.104167 c 0,1.172633 0.9440333,2.116666 2.1166666,2.116666 H 29.104166 c 1.172633,0 2.116666,-0.944033 2.116666,-2.116666 V 8.4666666 c 0,-1.172633 -0.944033,-2.116667 -2.116666,-2.116667 H 16.933333 L 13.758333,3.175 Z m 0,4.2333336 H 29.104166 c 1.026054,0 1.852083,0.826029 1.852083,1.852083 V 28.310417 c 0,1.026054 -0.826029,1.852083 -1.852083,1.852083 H 4.7624999 c -1.0260542,0 -1.8520833,-0.826029 -1.8520833,-1.852083 V 9.2604166 c 0,-1.026054 0.8260291,-1.852083 1.8520833,-1.852083 z"
     style="opacity:0.25;fill:#000000;fill-opacity:1;stroke-width:0.264583"
     id="path5034"
     sodipodi:nodetypes="ssssssssccssssssssss" />
  <path
     d="m 4.7625002,7.1437498 c -1.1726333,0 -2.1166666,0.944033 -2.1166666,2.116666 V 29.104167 c 0,1.172633 0.9440333,2.116667 2.1166666,2.116667 H 29.104166 c 1.172633,0 2.116666,-0.944034 2.116666,-2.116667 V 9.2604158 c 0,-1.172633 -0.944033,-2.116666 -2.116666,-2.116666 z m 0,0.264583 H 29.104166 c 1.026054,0 1.852083,0.826029 1.852083,1.852083 V 28.310417 c 0,1.026054 -0.826029,1.852083 -1.852083,1.852083 H 4.7625002 c -1.0260542,0 -1.8520833,-0.826029 -1.8520833,-1.852083 V 9.2604158 c 0,-1.026054 0.8260291,-1.852083 1.8520833,-1.852083 z"
     style="opacity:0.25;fill:#000000;fill-opacity:1;stroke-width:0.264583"
     id="path3728" />
  <sodipodi:namedview
     id="namedview7"
     pagecolor="#ffffff"
     bordercolor="#666666"
     borderopacity="1.0"
     inkscape:pageshadow="2"
     inkscape:pageopacity="0.0"
     inkscape:pagecheckerboard="0"
     inkscape:document-units="px"
     showgrid="false"
     units="px"
     height="48px"
     inkscape:zoom="4.4194174"
     inkscape:cx="41.747584"
     inkscape:cy="76.028121"
     inkscape:window-width="1920"
     inkscape:window-height="1016"
     inkscape:window-x="0"
     inkscape:window-y="0"
     inkscape:window-maximized="1"
     inkscape:current-layer="svg5"
     inkscape:showpageshadow="2"
     inkscape:deskcolor="#d1d1d1" />
  <defs
     id="defs2" />
  <path
     d="m 13.758333,10.847916 v 1.058334 h -1.058334 c -1.740958,0 -3.1749997,1.434043 -3.1749997,3.174999 v 8.466667 c 0,1.740956 1.4340417,3.175 3.1749997,3.175 h 1.058334 v 1.058333 h 6.349999 v -1.058333 h 1.058334 c 1.740958,0 3.174999,-1.434044 3.174999,-3.175 v -8.466667 c 0,-1.740956 -1.434041,-3.174999 -3.174999,-3.174999 h -1.058334 v -1.058334 z m -1.058334,3.175 h 8.466667 c 0.604308,0 1.058333,0.454026 1.058333,1.058333 v 8.466667 c 0,0.604307 -0.454025,1.058333 -1.058333,1.058333 h -8.466667 c -0.604308,0 -1.058333,-0.454026 -1.058333,-1.058333 v -8.466667 c 0,-0.604307 0.454025,-1.058333 1.058333,-1.058333 z m 2.116667,1.058333 v 4.845182 l 4.7625,2.749186 1.058333,-1.833996 -3.704167,-2.138887 v -3.621485 z"
     style="font-variant-ligatures:normal;font-variant-position:normal;font-variant-caps:normal;font-variant-numeric:normal;font-variant-alternates:normal;font-feature-settings:normal;text-indent:0;text-decoration-line:none;text-decoration-style:solid;text-decoration-color:#000000;text-transform:none;text-orientation:mixed;white-space:normal;shape-padding:0;isolation:auto;mix-blend-mode:normal;fill:#000000;stroke-width:0.264583;opacity:0.3"
     id="path707"
     sodipodi:nodetypes="ccssssccccsssscccsssssssssccccccc" />
  <path
     d="m 13.758334,10.583333 v 1.058334 H 12.7 c -1.740958,0 -3.1750002,1.434043 -3.1750002,3.174999 v 8.466667 c 0,1.740956 1.4340422,3.175 3.1750002,3.175 h 1.058334 v 1.058333 h 6.349999 v -1.058333 h 1.058334 c 1.740958,0 3.174999,-1.434044 3.174999,-3.175 v -8.466667 c 0,-1.740956 -1.434041,-3.174999 -3.174999,-3.174999 H 20.108333 V 10.583333 Z M 12.7,13.758333 h 8.466667 c 0.604308,0 1.058333,0.454026 1.058333,1.058333 v 8.466667 c 0,0.604307 -0.454025,1.058333 -1.058333,1.058333 H 12.7 c -0.604308,0 -1.058333,-0.454026 -1.058333,-1.058333 v -8.466667 c 0,-0.604307 0.454025,-1.058333 1.058333,-1.058333 z m 2.116667,1.058333 v 4.845182 l 4.7625,2.749186 1.058333,-1.833996 -3.704167,-2.138887 v -3.621485 z"
     style="font-variant-ligatures:normal;font-variant-position:normal;font-variant-caps:normal;font-variant-numeric:normal;font-variant-alternates:normal;font-feature-settings:normal;text-indent:0;text-decoration-line:none;text-decoration-style:solid;text-decoration-color:#000000;text-transform:none;text-orientation:mixed;white-space:normal;shape-padding:0;isolation:auto;mix-blend-mode:normal;fill:#ffffff;stroke-width:0.264583"
     id="path858" />
</svg>
