<?xml version="1.0" encoding="UTF-8" standalone="no"?>
<!-- Created with Inkscape (http://www.inkscape.org/) -->

<svg
   width="128"
   height="128"
   viewBox="0 0 33.866666 33.866666"
   version="1.1"
   id="svg5"
   inkscape:version="1.2 (dc2aedaf03, 2022-05-15)"
   sodipodi:docname="folder-red-videos.svg"
   xmlns:inkscape="http://www.inkscape.org/namespaces/inkscape"
   xmlns:sodipodi="http://sodipodi.sourceforge.net/DTD/sodipodi-0.dtd"
   xmlns="http://www.w3.org/2000/svg"
   xmlns:svg="http://www.w3.org/2000/svg">
  <path
     id="rect567"
     style="opacity:1;fill:#f15d22;fill-opacity:1;stroke-width:0.264583"
     d="m 4.7625008,3.1749999 c -1.1726321,0 -2.1166667,0.9440345 -2.1166667,2.1166666 V 29.104166 c 0,1.172633 0.9440346,2.116667 2.1166667,2.116667 H 29.104166 c 1.172633,0 2.116667,-0.944034 2.116667,-2.116667 V 8.4666665 c 0,-1.1726321 -0.944034,-2.1166667 -2.116667,-2.1166667 H 16.933333 L 13.758334,3.1749999 Z"
     sodipodi:nodetypes="sccsssssccs" />
  <path
     d="m 4.7624999,3.175 c -1.1726333,0 -2.1166666,0.9440333 -2.1166666,2.1166666 V 29.104167 c 0,1.172633 0.9440333,2.116666 2.1166666,2.116666 H 29.104166 c 1.172633,0 2.116666,-0.944033 2.116666,-2.116666 V 8.4666666 c 0,-1.172633 -0.944033,-2.116667 -2.116666,-2.116667 H 16.933333 L 13.758333,3.175 Z m 0,4.2333336 H 29.104166 c 1.026054,0 1.852083,0.826029 1.852083,1.852083 V 28.310417 c 0,1.026054 -0.826029,1.852083 -1.852083,1.852083 H 4.7624999 c -1.0260542,0 -1.8520833,-0.826029 -1.8520833,-1.852083 V 9.2604166 c 0,-1.026054 0.8260291,-1.852083 1.8520833,-1.852083 z"
     style="opacity:0.25;fill:#000000;fill-opacity:1;stroke-width:0.264583"
     id="path5034"
     sodipodi:nodetypes="ssssssssccssssssssss" />
  <path
     d="m 4.7625002,7.1437498 c -1.1726333,0 -2.1166666,0.944033 -2.1166666,2.116666 V 29.104167 c 0,1.172633 0.9440333,2.116667 2.1166666,2.116667 H 29.104166 c 1.172633,0 2.116666,-0.944034 2.116666,-2.116667 V 9.2604158 c 0,-1.172633 -0.944033,-2.116666 -2.116666,-2.116666 z m 0,0.264583 H 29.104166 c 1.026054,0 1.852083,0.826029 1.852083,1.852083 V 28.310417 c 0,1.026054 -0.826029,1.852083 -1.852083,1.852083 H 4.7625002 c -1.0260542,0 -1.8520833,-0.826029 -1.8520833,-1.852083 V 9.2604158 c 0,-1.026054 0.8260291,-1.852083 1.8520833,-1.852083 z"
     style="opacity:0.25;fill:#000000;fill-opacity:1;stroke-width:0.264583"
     id="path3728" />
  <sodipodi:namedview
     id="namedview7"
     pagecolor="#ffffff"
     bordercolor="#666666"
     borderopacity="1.0"
     inkscape:pageshadow="2"
     inkscape:pageopacity="0.0"
     inkscape:pagecheckerboard="0"
     inkscape:document-units="px"
     showgrid="false"
     units="px"
     height="48px"
     inkscape:zoom="4.4194174"
     inkscape:cx="51.477373"
     inkscape:cy="73.878516"
     inkscape:window-width="1846"
     inkscape:window-height="1011"
     inkscape:window-x="0"
     inkscape:window-y="0"
     inkscape:window-maximized="1"
     inkscape:current-layer="svg5"
     inkscape:showpageshadow="2"
     inkscape:deskcolor="#d1d1d1" />
  <defs
     id="defs2" />
  <path
     d="m 12.170833,11.90625 c -2.052108,0 -3.7041665,1.652058 -3.7041665,3.704167 0,1.638723 1.053401,3.022536 2.5228445,3.513476 -0.255239,0.349694 -0.406177,0.781039 -0.406177,1.249023 v 4.233334 c 0,1.172633 0.944032,2.116666 2.116666,2.116666 h 7.408333 c 1.172633,0 2.116666,-0.944033 2.116666,-2.116666 l 3.175,2.116666 v -7.408333 l -3.175,2.116667 v -1.058334 c 0,-0.467984 -0.150939,-0.899329 -0.406177,-1.249023 1.469443,-0.49094 2.522844,-1.874753 2.522844,-3.513476 0,-2.052109 -1.652058,-3.704167 -3.704167,-3.704167 -2.052108,0 -3.704166,1.652058 -3.704166,3.704167 0,1.038584 0.423397,1.974489 1.107429,2.645833 H 14.76757 c 0.684033,-0.671344 1.10743,-1.607249 1.10743,-2.645833 0,-2.052109 -1.652059,-3.704167 -3.704167,-3.704167 z m 0,2.116667 c 0.879475,0 1.5875,0.708025 1.5875,1.5875 0,0.879475 -0.708025,1.587499 -1.5875,1.587499 -0.879475,0 -1.587499,-0.708024 -1.587499,-1.587499 0,-0.879475 0.708024,-1.5875 1.587499,-1.5875 z m 8.466666,0 c 0.879475,0 1.5875,0.708025 1.5875,1.5875 0,0.879475 -0.708025,1.587499 -1.5875,1.587499 -0.879474,0 -1.587499,-0.708024 -1.587499,-1.587499 0,-0.879475 0.708025,-1.5875 1.587499,-1.5875 z"
     id="path423"
     style="fill:#000000;stroke-width:0.264583;opacity:0.3"
     sodipodi:nodetypes="sscssssccccscsssccssssssssssss" />
  <path
     d="m 12.170833,11.641666 c -2.052108,0 -3.7041665,1.652058 -3.7041665,3.704167 0,1.638723 1.053401,3.022536 2.5228445,3.513476 -0.255239,0.349694 -0.406177,0.781039 -0.406177,1.249023 v 4.233334 c 0,1.172633 0.944032,2.116666 2.116666,2.116666 h 7.408333 c 1.172633,0 2.116666,-0.944033 2.116666,-2.116666 l 3.175,2.116666 v -7.408333 l -3.175,2.116667 v -1.058334 c 0,-0.467984 -0.150939,-0.899329 -0.406177,-1.249023 1.469443,-0.49094 2.522844,-1.874753 2.522844,-3.513476 0,-2.052109 -1.652058,-3.704167 -3.704167,-3.704167 -2.052108,0 -3.704166,1.652058 -3.704166,3.704167 0,1.038584 0.423397,1.974489 1.107429,2.645833 H 14.76757 c 0.684033,-0.671344 1.10743,-1.607249 1.10743,-2.645833 0,-2.052109 -1.652059,-3.704167 -3.704167,-3.704167 z m 0,2.116667 c 0.879475,0 1.5875,0.708025 1.5875,1.5875 0,0.879475 -0.708025,1.587499 -1.5875,1.587499 -0.879475,0 -1.587499,-0.708024 -1.587499,-1.587499 0,-0.879475 0.708024,-1.5875 1.587499,-1.5875 z m 8.466666,0 c 0.879475,0 1.5875,0.708025 1.5875,1.5875 0,0.879475 -0.708025,1.587499 -1.5875,1.587499 -0.879474,0 -1.587499,-0.708024 -1.587499,-1.587499 0,-0.879475 0.708025,-1.5875 1.587499,-1.5875 z"
     style="fill:#ffffff;stroke-width:0.264583"
     id="path574" />
</svg>
