<?xml version="1.0" encoding="UTF-8" standalone="no"?>
<!-- Created with Inkscape (http://www.inkscape.org/) -->

<svg
   width="128"
   height="128"
   viewBox="0 0 33.866666 33.866666"
   version="1.1"
   id="svg5"
   inkscape:version="1.2 (dc2aedaf03, 2022-05-15)"
   sodipodi:docname="folder-green-templates.svg"
   xmlns:inkscape="http://www.inkscape.org/namespaces/inkscape"
   xmlns:sodipodi="http://sodipodi.sourceforge.net/DTD/sodipodi-0.dtd"
   xmlns="http://www.w3.org/2000/svg"
   xmlns:svg="http://www.w3.org/2000/svg">
  <path
     id="rect567"
     style="opacity:1;fill:#73c48f;fill-opacity:1;stroke-width:0.264583"
     d="m 4.7625008,3.1749999 c -1.1726321,0 -2.1166667,0.9440345 -2.1166667,2.1166666 V 29.104166 c 0,1.172633 0.9440346,2.116667 2.1166667,2.116667 H 29.104166 c 1.172633,0 2.116667,-0.944034 2.116667,-2.116667 V 8.4666665 c 0,-1.1726321 -0.944034,-2.1166667 -2.116667,-2.1166667 H 16.933333 L 13.758334,3.1749999 Z"
     sodipodi:nodetypes="sccsssssccs" />
  <path
     d="m 4.7624999,3.175 c -1.1726333,0 -2.1166666,0.9440333 -2.1166666,2.1166666 V 29.104167 c 0,1.172633 0.9440333,2.116666 2.1166666,2.116666 H 29.104166 c 1.172633,0 2.116666,-0.944033 2.116666,-2.116666 V 8.4666666 c 0,-1.172633 -0.944033,-2.116667 -2.116666,-2.116667 H 16.933333 L 13.758333,3.175 Z m 0,4.2333336 H 29.104166 c 1.026054,0 1.852083,0.826029 1.852083,1.852083 V 28.310417 c 0,1.026054 -0.826029,1.852083 -1.852083,1.852083 H 4.7624999 c -1.0260542,0 -1.8520833,-0.826029 -1.8520833,-1.852083 V 9.2604166 c 0,-1.026054 0.8260291,-1.852083 1.8520833,-1.852083 z"
     style="opacity:0.25;fill:#000000;fill-opacity:1;stroke-width:0.264583"
     id="path5034"
     sodipodi:nodetypes="ssssssssccssssssssss" />
  <path
     d="m 4.7625002,7.1437498 c -1.1726333,0 -2.1166666,0.944033 -2.1166666,2.116666 V 29.104167 c 0,1.172633 0.9440333,2.116667 2.1166666,2.116667 H 29.104166 c 1.172633,0 2.116666,-0.944034 2.116666,-2.116667 V 9.2604158 c 0,-1.172633 -0.944033,-2.116666 -2.116666,-2.116666 z m 0,0.264583 H 29.104166 c 1.026054,0 1.852083,0.826029 1.852083,1.852083 V 28.310417 c 0,1.026054 -0.826029,1.852083 -1.852083,1.852083 H 4.7625002 c -1.0260542,0 -1.8520833,-0.826029 -1.8520833,-1.852083 V 9.2604158 c 0,-1.026054 0.8260291,-1.852083 1.8520833,-1.852083 z"
     style="opacity:0.25;fill:#000000;fill-opacity:1;stroke-width:0.264583"
     id="path3728" />
  <sodipodi:namedview
     id="namedview7"
     pagecolor="#ffffff"
     bordercolor="#666666"
     borderopacity="1.0"
     inkscape:pageshadow="2"
     inkscape:pageopacity="0.0"
     inkscape:pagecheckerboard="0"
     inkscape:document-units="px"
     showgrid="false"
     units="px"
     height="48px"
     inkscape:zoom="6.25"
     inkscape:cx="38.64"
     inkscape:cy="89.84"
     inkscape:window-width="1846"
     inkscape:window-height="1011"
     inkscape:window-x="0"
     inkscape:window-y="0"
     inkscape:window-maximized="1"
     inkscape:current-layer="svg5"
     inkscape:showpageshadow="2"
     inkscape:deskcolor="#d1d1d1" />
  <defs
     id="defs2" />
  <path
     d="m 16.933334,11.906289 c -2.338006,0 -4.233333,1.895328 -4.233333,4.233334 0.004,1.121215 0.452642,2.195048 1.247469,2.985864 l -2.015382,2.015381 c -0.990344,-0.829084 -2.3199475,0.500521 -1.490864,1.490865 l -1.9745575,1.974556 v 2.116667 l 2.1166665,-1.058334 1.519287,-1.519287 c 2.904585,2.015998 6.755938,2.01538 9.659875,-0.0016 l 1.520838,1.520848 2.116666,1.058334 V 24.60625 l -1.978173,-1.978174 c 0.695795,-0.829451 1.226095,-1.784622 1.562178,-2.813781 0.23373,-0.686576 -0.276736,-1.399491 -1.002006,-1.399398 -0.462772,8.2e-4 -0.871339,0.302231 -1.008724,0.74414 -0.235774,0.725137 -0.595739,1.388194 -1.052649,1.967839 l -2.001428,-2.001428 c 0.794827,-0.790816 1.243465,-1.864649 1.247469,-2.985864 0,-2.338006 -1.895328,-4.233334 -4.233333,-4.233334 z m 0,2.116667 c 1.169003,0 2.116667,0.947664 2.116667,2.116667 -8.5e-5,0.561342 -0.223146,1.099662 -0.620118,1.496549 l -1.496549,-1.496549 -1.49655,1.496549 c -0.396971,-0.396887 -0.620032,-0.935207 -0.620117,-1.496549 0,-1.169003 0.947664,-2.116667 2.116667,-2.116667 z m -0.941545,6.233211 c 0.308481,0.07409 0.624312,0.113263 0.941545,0.116789 0.317233,-0.0035 0.633064,-0.0427 0.941545,-0.116789 l 2.362646,2.362647 c -0.634139,0.386154 -1.340367,0.664621 -2.093412,0.810803 -1.579581,0.306629 -3.185103,9.52e-4 -4.516004,-0.80977 z"
     id="path697"
     style="fill:#000000;stroke-width:0.264583;opacity:0.3"
     sodipodi:nodetypes="ccccccccccccccccccccccscccccsccccscc" />
  <path
     d="m 16.933334,11.641705 c -2.338006,0 -4.233333,1.895328 -4.233333,4.233334 0.004,1.121215 0.452642,2.195048 1.247469,2.985864 l -2.015382,2.015381 C 10.941744,20.0472 9.6121405,21.376805 10.441224,22.367149 l -1.9745575,1.974556 v 2.116667 l 2.1166665,-1.058334 1.519287,-1.519287 c 2.904585,2.015998 6.755938,2.01538 9.659875,-0.0016 l 1.520838,1.520848 2.116666,1.058334 v -2.116667 l -1.978173,-1.978174 c 0.695795,-0.829451 1.226095,-1.784622 1.562178,-2.813781 0.23373,-0.686576 -0.276736,-1.399491 -1.002006,-1.399398 -0.462772,8.2e-4 -0.871339,0.302231 -1.008724,0.74414 -0.235774,0.725137 -0.595739,1.388194 -1.052649,1.967839 l -2.001428,-2.001428 c 0.794827,-0.790816 1.243465,-1.864649 1.247469,-2.985864 0,-2.338006 -1.895328,-4.233334 -4.233333,-4.233334 z m 0,2.116667 c 1.169003,0 2.116667,0.947664 2.116667,2.116667 -8.5e-5,0.561342 -0.223146,1.099662 -0.620118,1.496549 l -1.496549,-1.496549 -1.49655,1.496549 c -0.396971,-0.396887 -0.620032,-0.935207 -0.620117,-1.496549 0,-1.169003 0.947664,-2.116667 2.116667,-2.116667 z m -0.941545,6.233211 c 0.308481,0.07409 0.624312,0.113263 0.941545,0.116789 0.317233,-0.0035 0.633064,-0.0427 0.941545,-0.116789 l 2.362646,2.362647 c -0.634139,0.386154 -1.340367,0.664621 -2.093412,0.810803 -1.579581,0.306629 -3.185103,9.52e-4 -4.516004,-0.80977 z"
     style="fill:#ffffff;stroke-width:0.264583"
     id="path864" />
</svg>
