<?xml version="1.0" encoding="UTF-8" standalone="no"?>
<!-- Created with Inkscape (http://www.inkscape.org/) -->

<svg
   width="128"
   height="128"
   viewBox="0 0 33.866666 33.866666"
   version="1.1"
   id="svg5"
   inkscape:version="1.2 (dc2aedaf03, 2022-05-15)"
   sodipodi:docname="user-trash-full.svg"
   xmlns:inkscape="http://www.inkscape.org/namespaces/inkscape"
   xmlns:sodipodi="http://sodipodi.sourceforge.net/DTD/sodipodi-0.dtd"
   xmlns="http://www.w3.org/2000/svg"
   xmlns:svg="http://www.w3.org/2000/svg">
  <sodipodi:namedview
     id="namedview7"
     pagecolor="#ffffff"
     bordercolor="#666666"
     borderopacity="1.0"
     inkscape:pageshadow="2"
     inkscape:pageopacity="0.0"
     inkscape:pagecheckerboard="0"
     inkscape:document-units="px"
     showgrid="false"
     units="px"
     height="48px"
     inkscape:zoom="6.25"
     inkscape:cx="55.6"
     inkscape:cy="68.16"
     inkscape:window-width="1920"
     inkscape:window-height="1014"
     inkscape:window-x="0"
     inkscape:window-y="0"
     inkscape:window-maximized="1"
     inkscape:current-layer="svg5"
     inkscape:showpageshadow="2"
     inkscape:deskcolor="#d1d1d1" />
  <defs
     id="defs2" />
  <path
     d="m 7.4083703,2.1166666 c -1.172634,0 -2.210065,0.9477375 -2.116667,2.1166667 l 2.116667,26.4583327 c 4.7624997,2.645833 14.2874987,2.645833 19.0499987,0 L 28.575036,4.2333333 c 0.0934,-1.1689292 -0.944033,-2.1166667 -2.116667,-2.1166667 z"
     style="fill:#898989;stroke-width:0.264583"
     id="path310" />
  <path
     d="m 17.462494,4.7624999 -3.603397,3.0887003 2.913517,2.9135178 1.859835,2.922819 -0.223242,0.141593 -1.844332,-2.898014 -2.900082,-2.9000817 0.09354,-0.093534 -1.5875,-1.5875 -2.6458337,3.7041667 2.6458337,2.116667 -2.6458337,2.116666 1.5874997,2.645834 0.132292,-0.02946 1.303796,3.339848 -2.371431,1.973523 2.134753,3.417879 4.102592,-1.170471 2.739368,3.859711 3.336747,-2.658234 1.282609,-5.55315 -3.341915,-2.864424 0.735356,-0.315226 -0.15968,-1.276925 0.38809,-0.5302 -0.484725,-0.24443 L 20.637494,12.7 24.870828,10.583333 22.754161,6.8791666 Z m -1.760616,11.1512581 -0.05943,0.102836 -0.07906,-0.07235 z m 4.260205,0.946195 0.213424,0.156063 -2.439644,3.33313 -2.603459,2.284615 -0.174666,-0.198438 2.581754,-2.266011 z"
     style="fill:#ededed;fill-opacity:1;stroke-width:0.264583"
     id="path1882" />
  <path
     d="m 7.408369,2.1166666 c -1.1726333,0 -2.2100645,0.9477375 -2.1166666,2.1166667 L 7.408369,30.691666 c 4.7625,2.645834 14.2875,2.645834 19.05,0 L 28.575035,4.2333333 c 0.0934,-1.1689292 -0.944033,-2.1166667 -2.116666,-2.1166667 z m 0,0.2645834 h 19.05 c 1.026054,0 1.852083,0.8260291 1.852083,1.8520833 L 26.193785,29.633333 c -4.762499,2.645833 -13.758333,2.645833 -18.520833,0 L 5.5562857,4.2333333 c 0,-1.0260542 0.8260292,-1.8520833 1.8520833,-1.8520833 z"
     style="fill-opacity:1;stroke-width:0.264583;fill:#000000;opacity:0.5"
     id="path513" />
</svg>
