<?xml version="1.0" encoding="UTF-8" standalone="no"?>
<!-- Created with Inkscape (http://www.inkscape.org/) -->

<svg
   width="256"
   height="256"
   viewBox="0 0 67.733332 67.733336"
   version="1.1"
   id="svg1099"
   inkscape:version="1.2 (dc2aedaf03, 2022-05-15)"
   sodipodi:docname="folder-purple-videos.svg"
   xmlns:inkscape="http://www.inkscape.org/namespaces/inkscape"
   xmlns:sodipodi="http://sodipodi.sourceforge.net/DTD/sodipodi-0.dtd"
   xmlns="http://www.w3.org/2000/svg"
   xmlns:svg="http://www.w3.org/2000/svg">
  <sodipodi:namedview
     id="namedview1101"
     pagecolor="#ffffff"
     bordercolor="#666666"
     borderopacity="1.0"
     inkscape:pageshadow="2"
     inkscape:pageopacity="0.0"
     inkscape:pagecheckerboard="0"
     inkscape:document-units="px"
     showgrid="false"
     units="px"
     inkscape:zoom="3.2421875"
     inkscape:cx="135.55663"
     inkscape:cy="179.97108"
     inkscape:window-width="1846"
     inkscape:window-height="1011"
     inkscape:window-x="0"
     inkscape:window-y="0"
     inkscape:window-maximized="1"
     inkscape:current-layer="svg1099"
     inkscape:showpageshadow="2"
     inkscape:deskcolor="#d1d1d1"
     showguides="false" />
  <defs
     id="defs1096" />
  <path
     d="m 6.3500004,6.3500001 c -1.172633,0 -2.116667,0.944034 -2.116667,2.116667 V 60.325002 c 0,1.172633 0.944034,2.116666 2.116667,2.116666 H 61.383335 c 1.172633,0 2.116667,-0.944033 2.116667,-2.116666 V 14.816667 C 63.500002,13.644034 62.555968,12.7 61.383335,12.7 H 37.041668 L 30.691667,6.3500001 Z"
     style="fill:#b84acb;stroke-width:0.264583;fill-opacity:1"
     id="path300" />
  <path
     d="M 6.3500005,6.35 C 5.177367,6.35 4.2333336,7.294033 4.2333336,8.466666 v 51.858335 c 0,1.172633 0.9440334,2.116667 2.1166669,2.116667 H 61.383334 c 1.172634,0 2.116668,-0.944034 2.116668,-2.116667 V 14.816667 C 63.500002,13.644033 62.555968,12.7 61.383334,12.7 H 37.041668 L 30.691667,6.35 Z m 0,8.466667 H 61.383334 c 1.026054,0 1.852083,0.826029 1.852083,1.852083 v 42.597918 c 0,1.026054 -0.826029,1.852083 -1.852083,1.852083 H 6.3500005 c -1.0260543,0 -1.8520835,-0.826029 -1.8520835,-1.852083 V 16.66875 c 0,-1.026054 0.8260292,-1.852083 1.8520835,-1.852083 z"
     style="fill-opacity:1;stroke-width:0.264583;fill:#000000;opacity:0.25"
     id="path877" />
  <path
     d="m 6.3499983,14.552083 c -1.1726333,0 -2.1166667,0.944033 -2.1166667,2.116667 v 43.656251 c 0,1.172633 0.9440334,2.116666 2.1166667,2.116666 H 61.383334 c 1.172633,0 2.116667,-0.944033 2.116667,-2.116666 V 16.66875 c 0,-1.172634 -0.944034,-2.116667 -2.116667,-2.116667 z m 0,0.264583 H 61.383334 c 1.026054,0 1.852083,0.826029 1.852083,1.852084 v 42.597917 c 0,1.026055 -0.826029,1.852084 -1.852083,1.852084 H 6.3499983 c -1.0260542,0 -1.8520833,-0.826029 -1.8520833,-1.852084 V 16.66875 c 0,-1.026055 0.8260291,-1.852084 1.8520833,-1.852084 z"
     style="fill-opacity:1;stroke-width:0.264583;fill:#000000;opacity:0.25"
     id="path2030" />
  <path
     d="m 24.341667,23.547918 c -4.104216,0 -7.408334,3.304116 -7.408334,7.408334 0,3.277446 2.106802,6.045072 5.04569,7.026952 -0.510478,0.699388 -0.812354,1.562078 -0.812354,2.498046 v 8.466669 c 0,2.345266 1.888064,4.233332 4.233332,4.233332 h 14.816667 c 2.345266,0 4.233332,-1.888066 4.233332,-4.233332 l 6.35,4.233332 V 38.364584 l -6.35,4.233335 V 40.48125 c 0,-0.935968 -0.301878,-1.798658 -0.812354,-2.498046 2.938886,-0.98188 5.045688,-3.749506 5.045688,-7.026952 0,-4.104218 -3.304116,-7.408334 -7.408334,-7.408334 -4.104216,0 -7.408332,3.304116 -7.408332,7.408334 0,2.077168 0.846794,3.948978 2.214858,5.291666 h -6.546385 c 1.368066,-1.342688 2.21486,-3.214498 2.21486,-5.291666 0,-4.104218 -3.304118,-7.408334 -7.408334,-7.408334 z m 0,4.233334 c 1.75895,0 3.175,1.41605 3.175,3.175 0,1.75895 -1.41605,3.174998 -3.175,3.174998 -1.75895,0 -3.174998,-1.416048 -3.174998,-3.174998 0,-1.75895 1.416048,-3.175 3.174998,-3.175 z m 16.933333,0 c 1.75895,0 3.175,1.41605 3.175,3.175 0,1.75895 -1.41605,3.174998 -3.175,3.174998 -1.758948,0 -3.174998,-1.416048 -3.174998,-3.174998 0,-1.75895 1.41605,-3.175 3.174998,-3.175 z"
     id="path423"
     style="opacity:0.3;fill:#000000;stroke-width:0.529166"
     sodipodi:nodetypes="sscssssccccscsssccssssssssssss" />
  <path
     d="m 24.341667,23.283334 c -4.104216,0 -7.408334,3.304116 -7.408334,7.408334 0,3.277446 2.106802,6.045072 5.04569,7.026952 -0.510478,0.699388 -0.812354,1.562078 -0.812354,2.498046 v 8.466669 c 0,2.345266 1.888064,4.233332 4.233332,4.233332 h 14.816667 c 2.345266,0 4.233332,-1.888066 4.233332,-4.233332 l 6.35,4.233332 V 38.1 l -6.35,4.233335 v -2.116669 c 0,-0.935968 -0.301878,-1.798658 -0.812354,-2.498046 2.938886,-0.98188 5.045688,-3.749506 5.045688,-7.026952 0,-4.104218 -3.304116,-7.408334 -7.408334,-7.408334 -4.104216,0 -7.408332,3.304116 -7.408332,7.408334 0,2.077168 0.846794,3.948978 2.214858,5.291666 h -6.546385 c 1.368066,-1.342688 2.21486,-3.214498 2.21486,-5.291666 0,-4.104218 -3.304118,-7.408334 -7.408334,-7.408334 z m 0,4.233334 c 1.75895,0 3.175,1.41605 3.175,3.175 0,1.75895 -1.41605,3.174998 -3.175,3.174998 -1.75895,0 -3.174998,-1.416048 -3.174998,-3.174998 0,-1.75895 1.416048,-3.175 3.174998,-3.175 z m 16.933333,0 c 1.75895,0 3.175,1.41605 3.175,3.175 0,1.75895 -1.41605,3.174998 -3.175,3.174998 -1.758948,0 -3.174998,-1.416048 -3.174998,-3.174998 0,-1.75895 1.41605,-3.175 3.174998,-3.175 z"
     style="fill:#ffffff;stroke-width:0.529166"
     id="path574" />
</svg>
