<?xml version="1.0" encoding="UTF-8" standalone="no"?>
<!-- Created with Inkscape (http://www.inkscape.org/) -->

<svg
   width="256"
   height="256"
   viewBox="0 0 67.733332 67.733336"
   version="1.1"
   id="svg1099"
   inkscape:version="1.2 (dc2aedaf03, 2022-05-15)"
   sodipodi:docname="folder-green-templates.svg"
   xmlns:inkscape="http://www.inkscape.org/namespaces/inkscape"
   xmlns:sodipodi="http://sodipodi.sourceforge.net/DTD/sodipodi-0.dtd"
   xmlns="http://www.w3.org/2000/svg"
   xmlns:svg="http://www.w3.org/2000/svg">
  <sodipodi:namedview
     id="namedview1101"
     pagecolor="#ffffff"
     bordercolor="#666666"
     borderopacity="1.0"
     inkscape:pageshadow="2"
     inkscape:pageopacity="0.0"
     inkscape:pagecheckerboard="0"
     inkscape:document-units="px"
     showgrid="false"
     units="px"
     inkscape:zoom="3.2421875"
     inkscape:cx="135.55663"
     inkscape:cy="179.97108"
     inkscape:window-width="1846"
     inkscape:window-height="1011"
     inkscape:window-x="0"
     inkscape:window-y="0"
     inkscape:window-maximized="1"
     inkscape:current-layer="svg1099"
     inkscape:showpageshadow="2"
     inkscape:deskcolor="#d1d1d1"
     showguides="false" />
  <defs
     id="defs1096" />
  <path
     d="m 6.3500004,6.3500001 c -1.172633,0 -2.116667,0.944034 -2.116667,2.116667 V 60.325002 c 0,1.172633 0.944034,2.116666 2.116667,2.116666 H 61.383335 c 1.172633,0 2.116667,-0.944033 2.116667,-2.116666 V 14.816667 C 63.500002,13.644034 62.555968,12.7 61.383335,12.7 H 37.041668 L 30.691667,6.3500001 Z"
     style="fill:#73c48f;stroke-width:0.264583;fill-opacity:1"
     id="path300" />
  <path
     d="M 6.3500005,6.35 C 5.177367,6.35 4.2333336,7.294033 4.2333336,8.466666 v 51.858335 c 0,1.172633 0.9440334,2.116667 2.1166669,2.116667 H 61.383334 c 1.172634,0 2.116668,-0.944034 2.116668,-2.116667 V 14.816667 C 63.500002,13.644033 62.555968,12.7 61.383334,12.7 H 37.041668 L 30.691667,6.35 Z m 0,8.466667 H 61.383334 c 1.026054,0 1.852083,0.826029 1.852083,1.852083 v 42.597918 c 0,1.026054 -0.826029,1.852083 -1.852083,1.852083 H 6.3500005 c -1.0260543,0 -1.8520835,-0.826029 -1.8520835,-1.852083 V 16.66875 c 0,-1.026054 0.8260292,-1.852083 1.8520835,-1.852083 z"
     style="fill-opacity:1;stroke-width:0.264583;fill:#000000;opacity:0.25"
     id="path877" />
  <path
     d="m 6.3499983,14.552083 c -1.1726333,0 -2.1166667,0.944033 -2.1166667,2.116667 v 43.656251 c 0,1.172633 0.9440334,2.116666 2.1166667,2.116666 H 61.383334 c 1.172633,0 2.116667,-0.944033 2.116667,-2.116666 V 16.66875 c 0,-1.172634 -0.944034,-2.116667 -2.116667,-2.116667 z m 0,0.264583 H 61.383334 c 1.026054,0 1.852083,0.826029 1.852083,1.852084 v 42.597917 c 0,1.026055 -0.826029,1.852084 -1.852083,1.852084 H 6.3499983 c -1.0260542,0 -1.8520833,-0.826029 -1.8520833,-1.852084 V 16.66875 c 0,-1.026055 0.8260291,-1.852084 1.8520833,-1.852084 z"
     style="fill-opacity:1;stroke-width:0.264583;fill:#000000;opacity:0.25"
     id="path2030" />
  <path
     d="m 33.86667,23.547996 c -4.676013,0 -8.466667,3.790656 -8.466667,8.466668 0.008,2.24243 0.905284,4.390096 2.494938,5.971728 l -4.030764,4.030763 c -1.980688,-1.658169 -4.639896,1.001042 -2.981728,2.98173 l -3.949116,3.949112 v 4.233334 l 4.233334,-2.116668 3.038574,-3.038574 c 5.80917,4.031996 13.511877,4.03076 19.319751,-0.0032 L 46.566668,51.064585 50.8,53.181253 v -4.233334 l -3.956346,-3.956348 c 1.39159,-1.658902 2.45219,-3.569244 3.124356,-5.627563 0.46746,-1.373152 -0.553472,-2.798982 -2.004012,-2.798796 -0.925544,0.0016 -1.742678,0.604462 -2.017448,1.48828 -0.471548,1.450274 -1.191478,2.776389 -2.105298,3.935679 l -4.002856,-4.002857 c 1.589654,-1.581632 2.48693,-3.729298 2.494938,-5.971728 0,-4.676012 -3.790656,-8.466668 -8.466666,-8.466668 z m 0,4.233334 c 2.338006,0 4.233334,1.895328 4.233334,4.233334 -1.7e-4,1.122684 -0.446292,2.199324 -1.240236,2.993098 l -2.993098,-2.993098 -2.993101,2.993098 c -0.793942,-0.793774 -1.240064,-1.870414 -1.240234,-2.993098 0,-2.338006 1.895328,-4.233334 4.233335,-4.233334 z m -1.883091,12.466422 c 0.616962,0.14818 1.248624,0.226526 1.883091,0.233579 0.634466,-0.007 1.266128,-0.0854 1.88309,-0.233579 l 4.725292,4.725295 c -1.268278,0.772308 -2.680734,1.329242 -4.186824,1.621606 -3.159163,0.613258 -6.370207,0.0019 -9.032009,-1.61954 z"
     id="path697"
     style="opacity:0.3;fill:#000000;stroke-width:0.529166"
     sodipodi:nodetypes="ccccccccccccccccccccccscccccsccccscc" />
  <path
     d="m 33.86667,23.283412 c -4.676013,0 -8.466667,3.790656 -8.466667,8.466668 0.008,2.24243 0.905284,4.390096 2.494938,5.971728 l -4.030764,4.030763 c -1.980688,-1.658169 -4.639896,1.001042 -2.981728,2.98173 l -3.949116,3.949112 v 4.233334 l 4.233334,-2.116668 3.038574,-3.038574 c 5.80917,4.031996 13.511877,4.03076 19.319751,-0.0032 L 46.566668,50.800001 50.8,52.916669 v -4.233334 l -3.956346,-3.956348 c 1.39159,-1.658902 2.45219,-3.569244 3.124356,-5.627563 0.46746,-1.373152 -0.553472,-2.798982 -2.004012,-2.798796 -0.925544,0.0016 -1.742678,0.604462 -2.017448,1.48828 -0.471548,1.450274 -1.191478,2.776389 -2.105298,3.935679 L 39.838396,37.72173 c 1.589654,-1.581632 2.48693,-3.729298 2.494938,-5.971728 0,-4.676012 -3.790656,-8.466668 -8.466666,-8.466668 z m 0,4.233334 c 2.338006,0 4.233334,1.895328 4.233334,4.233334 -1.7e-4,1.122684 -0.446292,2.199324 -1.240236,2.993098 L 33.86667,31.75008 30.873569,34.743178 c -0.793942,-0.793774 -1.240064,-1.870414 -1.240234,-2.993098 0,-2.338006 1.895328,-4.233334 4.233335,-4.233334 z m -1.883091,12.466422 c 0.616962,0.14818 1.248624,0.226526 1.883091,0.233579 0.634466,-0.007 1.266128,-0.0854 1.88309,-0.233579 l 4.725292,4.725295 c -1.268278,0.772308 -2.680734,1.329242 -4.186824,1.621606 -3.159163,0.613258 -6.370207,0.0019 -9.032009,-1.61954 z"
     style="fill:#ffffff;stroke-width:0.529166"
     id="path864" />
</svg>
