<?xml version="1.0" encoding="UTF-8" standalone="no"?>
<!-- Created with Inkscape (http://www.inkscape.org/) -->

<svg
   width="256"
   height="256"
   viewBox="0 0 67.733332 67.733336"
   version="1.1"
   id="svg1099"
   inkscape:version="1.2 (dc2aedaf03, 2022-05-15)"
   sodipodi:docname="folder-yellow-vbox.svg"
   xmlns:inkscape="http://www.inkscape.org/namespaces/inkscape"
   xmlns:sodipodi="http://sodipodi.sourceforge.net/DTD/sodipodi-0.dtd"
   xmlns="http://www.w3.org/2000/svg"
   xmlns:svg="http://www.w3.org/2000/svg">
  <sodipodi:namedview
     id="namedview1101"
     pagecolor="#ffffff"
     bordercolor="#666666"
     borderopacity="1.0"
     inkscape:pageshadow="2"
     inkscape:pageopacity="0.0"
     inkscape:pagecheckerboard="0"
     inkscape:document-units="px"
     showgrid="false"
     units="px"
     inkscape:zoom="3.2421875"
     inkscape:cx="135.86506"
     inkscape:cy="179.35422"
     inkscape:window-width="1846"
     inkscape:window-height="1011"
     inkscape:window-x="0"
     inkscape:window-y="0"
     inkscape:window-maximized="1"
     inkscape:current-layer="svg1099"
     inkscape:showpageshadow="2"
     inkscape:deskcolor="#d1d1d1"
     showguides="false" />
  <defs
     id="defs1096" />
  <path
     d="m 6.3500004,6.3500001 c -1.172633,0 -2.116667,0.944034 -2.116667,2.116667 V 60.325002 c 0,1.172633 0.944034,2.116666 2.116667,2.116666 H 61.383335 c 1.172633,0 2.116667,-0.944033 2.116667,-2.116666 V 14.816667 C 63.500002,13.644034 62.555968,12.7 61.383335,12.7 H 37.041668 L 30.691667,6.3500001 Z"
     style="fill:#ffce51;stroke-width:0.264583;fill-opacity:1"
     id="path300" />
  <path
     d="M 6.3500005,6.35 C 5.177367,6.35 4.2333336,7.294033 4.2333336,8.466666 v 51.858335 c 0,1.172633 0.9440334,2.116667 2.1166669,2.116667 H 61.383334 c 1.172634,0 2.116668,-0.944034 2.116668,-2.116667 V 14.816667 C 63.500002,13.644033 62.555968,12.7 61.383334,12.7 H 37.041668 L 30.691667,6.35 Z m 0,8.466667 H 61.383334 c 1.026054,0 1.852083,0.826029 1.852083,1.852083 v 42.597918 c 0,1.026054 -0.826029,1.852083 -1.852083,1.852083 H 6.3500005 c -1.0260543,0 -1.8520835,-0.826029 -1.8520835,-1.852083 V 16.66875 c 0,-1.026054 0.8260292,-1.852083 1.8520835,-1.852083 z"
     style="fill-opacity:1;stroke-width:0.264583;fill:#000000;opacity:0.25"
     id="path877" />
  <path
     d="m 6.3499983,14.552083 c -1.1726333,0 -2.1166667,0.944033 -2.1166667,2.116667 v 43.656251 c 0,1.172633 0.9440334,2.116666 2.1166667,2.116666 H 61.383334 c 1.172633,0 2.116667,-0.944033 2.116667,-2.116666 V 16.66875 c 0,-1.172634 -0.944034,-2.116667 -2.116667,-2.116667 z m 0,0.264583 H 61.383334 c 1.026054,0 1.852083,0.826029 1.852083,1.852084 v 42.597917 c 0,1.026055 -0.826029,1.852084 -1.852083,1.852084 H 6.3499983 c -1.0260542,0 -1.8520833,-0.826029 -1.8520833,-1.852084 V 16.66875 c 0,-1.026055 0.8260291,-1.852084 1.8520833,-1.852084 z"
     style="fill-opacity:1;stroke-width:0.264583;fill:#000000;opacity:0.25"
     id="path2030" />
  <path
     d="m 33.86895,23.560617 c -0.905504,0.002 -1.709398,0.579904 -2,1.437504 L 25.4002,44.404372 23.18145,33.452224 c -0.290608,-0.8576 -1.094497,-1.435408 -2.000001,-1.437504 h -6.364782 v 4.23327 l 4.833532,-1.36e-4 3.750001,15.500263 c 0.658144,1.897624 3.34185,1.897624 4,0 l 6.46875,-19.406249 2.21875,6.687504 c 0.629008,1.960036 3.402243,1.960036 4.031251,0 l 2.156252,-6.531254 2.093748,6.499998 c 0.26872,0.882306 1.077744,1.48909 2,1.500002 h 6.547716 v -4.25 H 47.931451 L 44.337703,25.029367 c -0.643216,-1.902932 -3.327172,-1.923866 -4,-0.0312 L 38.118952,31.65437 35.86895,24.998117 c -0.290608,-0.8576 -1.094496,-1.435408 -2,-1.4375 z"
     style="color:#000000;opacity:0.2;fill:#000000;fill-opacity:1;stroke:none;stroke-width:16;stroke-linejoin:round"
     id="path6731" />
  <path
     style="color:#000000;fill:#ffffff;fill-opacity:1;stroke:none;stroke-width:16;stroke-linejoin:round"
     d="m 33.86895,23.296034 c -0.905504,0.002 -1.709398,0.579904 -2,1.437504 L 25.4002,44.139781 23.18145,33.187641 c -0.290608,-0.857602 -1.094497,-1.435408 -2.000001,-1.437506 h -6.364782 v 4.233266 l 4.833532,-1.32e-4 3.750001,15.500265 c 0.658144,1.897616 3.34185,1.897616 4,0 l 6.46875,-19.406249 2.21875,6.687498 c 0.629008,1.96004 3.402243,1.96004 4.031251,0 l 2.156252,-6.531248 2.093748,6.5 c 0.26872,0.882304 1.077744,1.489088 2,1.5 h 6.547716 v -4.25 H 47.931451 L 44.337703,24.764782 c -0.643216,-1.90293 -3.327172,-1.923864 -4,-0.0312 l -2.218751,6.656203 -2.250002,-6.656251 c -0.290608,-0.8576 -1.094496,-1.435408 -2,-1.4375 z"
     id="path1493"
     sodipodi:nodetypes="cccccccccccccccccccccccc" />
</svg>
