<?xml version="1.0" encoding="UTF-8" standalone="no"?>
<!-- Created with Inkscape (http://www.inkscape.org/) -->

<svg
   width="256"
   height="256"
   viewBox="0 0 67.733332 67.733336"
   version="1.1"
   id="svg1099"
   inkscape:version="1.2 (dc2aedaf03, 2022-05-15)"
   sodipodi:docname="folder-recent.svg"
   xmlns:inkscape="http://www.inkscape.org/namespaces/inkscape"
   xmlns:sodipodi="http://sodipodi.sourceforge.net/DTD/sodipodi-0.dtd"
   xmlns="http://www.w3.org/2000/svg"
   xmlns:svg="http://www.w3.org/2000/svg">
  <sodipodi:namedview
     id="namedview1101"
     pagecolor="#ffffff"
     bordercolor="#666666"
     borderopacity="1.0"
     inkscape:pageshadow="2"
     inkscape:pageopacity="0.0"
     inkscape:pagecheckerboard="0"
     inkscape:document-units="px"
     showgrid="false"
     units="px"
     inkscape:zoom="3.2421875"
     inkscape:cx="135.09398"
     inkscape:cy="179.35422"
     inkscape:window-width="1846"
     inkscape:window-height="1016"
     inkscape:window-x="0"
     inkscape:window-y="0"
     inkscape:window-maximized="1"
     inkscape:current-layer="svg1099"
     inkscape:showpageshadow="2"
     inkscape:deskcolor="#d1d1d1"
     showguides="false" />
  <defs
     id="defs1096" />
  <path
     d="m 6.3500004,6.3500001 c -1.172633,0 -2.116667,0.944034 -2.116667,2.116667 V 60.325002 c 0,1.172633 0.944034,2.116666 2.116667,2.116666 H 61.383335 c 1.172633,0 2.116667,-0.944033 2.116667,-2.116666 V 14.816667 C 63.500002,13.644034 62.555968,12.7 61.383335,12.7 H 37.041668 L 30.691667,6.3500001 Z"
     style="fill:#48b9c7;stroke-width:0.264583"
     id="path300" />
  <path
     d="M 6.3500005,6.35 C 5.177367,6.35 4.2333336,7.294033 4.2333336,8.466666 v 51.858335 c 0,1.172633 0.9440334,2.116667 2.1166669,2.116667 H 61.383334 c 1.172634,0 2.116668,-0.944034 2.116668,-2.116667 V 14.816667 C 63.500002,13.644033 62.555968,12.7 61.383334,12.7 H 37.041668 L 30.691667,6.35 Z m 0,8.466667 H 61.383334 c 1.026054,0 1.852083,0.826029 1.852083,1.852083 v 42.597918 c 0,1.026054 -0.826029,1.852083 -1.852083,1.852083 H 6.3500005 c -1.0260543,0 -1.8520835,-0.826029 -1.8520835,-1.852083 V 16.66875 c 0,-1.026054 0.8260292,-1.852083 1.8520835,-1.852083 z"
     style="fill-opacity:1;stroke-width:0.264583;fill:#000000;opacity:0.25"
     id="path877" />
  <path
     d="m 6.3499983,14.552083 c -1.1726333,0 -2.1166667,0.944033 -2.1166667,2.116667 v 43.656251 c 0,1.172633 0.9440334,2.116666 2.1166667,2.116666 H 61.383334 c 1.172633,0 2.116667,-0.944033 2.116667,-2.116666 V 16.66875 c 0,-1.172634 -0.944034,-2.116667 -2.116667,-2.116667 z m 0,0.264583 H 61.383334 c 1.026054,0 1.852083,0.826029 1.852083,1.852084 v 42.597917 c 0,1.026055 -0.826029,1.852084 -1.852083,1.852084 H 6.3499983 c -1.0260542,0 -1.8520833,-0.826029 -1.8520833,-1.852084 V 16.66875 c 0,-1.026055 0.8260291,-1.852084 1.8520833,-1.852084 z"
     style="fill-opacity:1;stroke-width:0.264583;fill:#000000;opacity:0.25"
     id="path2030" />
  <path
     d="m 27.516668,21.695833 v 2.116668 H 25.4 c -3.481916,0 -6.35,2.868086 -6.35,6.349998 v 16.933335 c 0,3.481912 2.868084,6.35 6.35,6.35 h 2.116668 V 55.5625 h 12.699999 v -2.116666 h 2.116668 c 3.481916,0 6.349998,-2.868088 6.349998,-6.35 V 30.162499 c 0,-3.481912 -2.868082,-6.349998 -6.349998,-6.349998 h -2.116668 v -2.116668 z m -2.116668,6.35 h 16.933335 c 1.208616,0 2.116666,0.908052 2.116666,2.116666 v 16.933335 c 0,1.208614 -0.90805,2.116666 -2.116666,2.116666 H 25.4 c -1.208616,0 -2.116666,-0.908052 -2.116666,-2.116666 V 30.162499 c 0,-1.208614 0.90805,-2.116666 2.116666,-2.116666 z m 4.233334,2.116666 v 9.690365 l 9.525001,5.498372 2.116666,-3.667992 -7.408335,-4.277775 v -7.24297 z"
     style="font-variant-ligatures:normal;font-variant-position:normal;font-variant-caps:normal;font-variant-numeric:normal;font-variant-alternates:normal;font-feature-settings:normal;text-indent:0;text-decoration-line:none;text-decoration-style:solid;text-decoration-color:#000000;text-transform:none;text-orientation:mixed;white-space:normal;shape-padding:0;opacity:0.3;isolation:auto;mix-blend-mode:normal;fill:#000000;stroke-width:0.529166"
     id="path707"
     sodipodi:nodetypes="ccssssccccsssscccsssssssssccccccc" />
  <path
     d="m 27.516669,21.43125 v 2.116668 h -2.116668 c -3.481916,0 -6.35,2.868086 -6.35,6.349998 v 16.933335 c 0,3.481912 2.868084,6.35 6.35,6.35 h 2.116668 v 2.116666 h 12.699999 v -2.116666 h 2.116668 c 3.481916,0 6.349998,-2.868088 6.349998,-6.35 V 29.897916 c 0,-3.481912 -2.868082,-6.349998 -6.349998,-6.349998 H 40.216668 V 21.43125 Z m -2.116668,6.35 h 16.933335 c 1.208616,0 2.116666,0.908052 2.116666,2.116666 v 16.933335 c 0,1.208614 -0.90805,2.116666 -2.116666,2.116666 H 25.400001 c -1.208616,0 -2.116666,-0.908052 -2.116666,-2.116666 V 29.897916 c 0,-1.208614 0.90805,-2.116666 2.116666,-2.116666 z m 4.233334,2.116666 v 9.690365 l 9.525001,5.498372 2.116666,-3.667992 -7.408335,-4.277775 v -7.24297 z"
     style="font-variant-ligatures:normal;font-variant-position:normal;font-variant-caps:normal;font-variant-numeric:normal;font-variant-alternates:normal;font-feature-settings:normal;text-indent:0;text-decoration-line:none;text-decoration-style:solid;text-decoration-color:#000000;text-transform:none;text-orientation:mixed;white-space:normal;shape-padding:0;isolation:auto;mix-blend-mode:normal;fill:#ffffff;stroke-width:0.529166"
     id="path858" />
</svg>
