<?xml version="1.0" encoding="UTF-8" standalone="no"?>
<!-- Created with Inkscape (http://www.inkscape.org/) -->

<svg
   width="256"
   height="256"
   viewBox="0 0 67.733332 67.733336"
   version="1.1"
   id="svg1099"
   inkscape:version="1.2 (dc2aedaf03, 2022-05-15)"
   sodipodi:docname="folder-remote.svg"
   xmlns:inkscape="http://www.inkscape.org/namespaces/inkscape"
   xmlns:sodipodi="http://sodipodi.sourceforge.net/DTD/sodipodi-0.dtd"
   xmlns="http://www.w3.org/2000/svg"
   xmlns:svg="http://www.w3.org/2000/svg">
  <sodipodi:namedview
     id="namedview1101"
     pagecolor="#ffffff"
     bordercolor="#666666"
     borderopacity="1.0"
     inkscape:pageshadow="2"
     inkscape:pageopacity="0.0"
     inkscape:pagecheckerboard="0"
     inkscape:document-units="px"
     showgrid="false"
     units="px"
     inkscape:zoom="3.2421875"
     inkscape:cx="135.09398"
     inkscape:cy="179.35422"
     inkscape:window-width="1846"
     inkscape:window-height="1016"
     inkscape:window-x="0"
     inkscape:window-y="0"
     inkscape:window-maximized="1"
     inkscape:current-layer="svg1099"
     inkscape:showpageshadow="2"
     inkscape:deskcolor="#d1d1d1"
     showguides="false" />
  <defs
     id="defs1096" />
  <path
     d="m 6.3500004,6.3500001 c -1.172633,0 -2.116667,0.944034 -2.116667,2.116667 V 60.325002 c 0,1.172633 0.944034,2.116666 2.116667,2.116666 H 61.383335 c 1.172633,0 2.116667,-0.944033 2.116667,-2.116666 V 14.816667 C 63.500002,13.644034 62.555968,12.7 61.383335,12.7 H 37.041668 L 30.691667,6.3500001 Z"
     style="fill:#48b9c7;stroke-width:0.264583"
     id="path300" />
  <path
     d="M 6.3500005,6.35 C 5.177367,6.35 4.2333336,7.294033 4.2333336,8.466666 v 51.858335 c 0,1.172633 0.9440334,2.116667 2.1166669,2.116667 H 61.383334 c 1.172634,0 2.116668,-0.944034 2.116668,-2.116667 V 14.816667 C 63.500002,13.644033 62.555968,12.7 61.383334,12.7 H 37.041668 L 30.691667,6.35 Z m 0,8.466667 H 61.383334 c 1.026054,0 1.852083,0.826029 1.852083,1.852083 v 42.597918 c 0,1.026054 -0.826029,1.852083 -1.852083,1.852083 H 6.3500005 c -1.0260543,0 -1.8520835,-0.826029 -1.8520835,-1.852083 V 16.66875 c 0,-1.026054 0.8260292,-1.852083 1.8520835,-1.852083 z"
     style="fill-opacity:1;stroke-width:0.264583;fill:#000000;opacity:0.25"
     id="path877" />
  <path
     d="m 6.3499983,14.552083 c -1.1726333,0 -2.1166667,0.944033 -2.1166667,2.116667 v 43.656251 c 0,1.172633 0.9440334,2.116666 2.1166667,2.116666 H 61.383334 c 1.172633,0 2.116667,-0.944033 2.116667,-2.116666 V 16.66875 c 0,-1.172634 -0.944034,-2.116667 -2.116667,-2.116667 z m 0,0.264583 H 61.383334 c 1.026054,0 1.852083,0.826029 1.852083,1.852084 v 42.597917 c 0,1.026055 -0.826029,1.852084 -1.852083,1.852084 H 6.3499983 c -1.0260542,0 -1.8520833,-0.826029 -1.8520833,-1.852084 V 16.66875 c 0,-1.026055 0.8260291,-1.852084 1.8520833,-1.852084 z"
     style="fill-opacity:1;stroke-width:0.264583;fill:#000000;opacity:0.25"
     id="path2030" />
  <path
     d="m 33.866718,25.664595 c -3.088871,-0.0011 -6.148924,0.59398 -9.012265,1.752605 -2.967283,1.2022 -5.661433,2.990861 -7.92112,5.258874 l 13.865796,16.788393 h 0.0042 c 0.79855,0.832184 1.90207,1.302528 3.055417,1.302284 1.156442,-0.0019 2.261757,-0.476858 3.059121,-1.314454 h 0.0084 L 50.800529,32.676074 c -1.706669,-1.709345 -3.662219,-3.150539 -5.800213,-4.274621 -0.04762,-0.02486 -0.09736,-0.0418 -0.145001,-0.06614 -0.740742,-0.380139 -1.500972,-0.721042 -2.277539,-1.021293 -0.291043,-0.11324 -0.586847,-0.208493 -0.880536,-0.310093 -0.864247,-0.299725 -1.745,-0.549552 -2.637904,-0.748244 -0.558344,-0.121941 -1.120854,-0.223957 -1.686459,-0.305859 -0.309035,-0.0455 -0.61648,-0.09896 -0.926045,-0.132301 -0.858311,-0.09208 -1.717679,-0.15294 -2.580224,-0.15294 z"
     style="opacity:0.3;fill:#000000;stroke-width:0.529168"
     id="path3782" />
  <path
     d="m 33.866718,25.400012 c -3.088871,-0.0011 -6.148924,0.59398 -9.012265,1.752605 -2.967283,1.2022 -5.661435,2.990861 -7.92112,5.258874 l 13.865796,16.788393 h 0.0042 c 0.79855,0.832184 1.90207,1.302528 3.055417,1.302284 1.156442,-0.0019 2.261757,-0.476858 3.059121,-1.314454 h 0.0084 L 50.800529,32.411491 C 49.09386,30.702146 47.13831,29.260952 45.000316,28.13687 c -0.04762,-0.02486 -0.09736,-0.0418 -0.145001,-0.06614 -0.740742,-0.380139 -1.500972,-0.721042 -2.277539,-1.021293 -0.291043,-0.11324 -0.586847,-0.208493 -0.880536,-0.310093 -0.864247,-0.299725 -1.745,-0.549552 -2.637904,-0.748244 -0.558344,-0.121941 -1.120854,-0.223957 -1.686459,-0.305859 -0.309035,-0.0455 -0.61648,-0.09896 -0.926045,-0.132301 C 35.588521,25.46086 34.729153,25.4 33.866608,25.4 Z"
     style="fill:#88d1db;stroke-width:0.529168"
     id="path306"
     sodipodi:nodetypes="cccccccccccccccccc" />
  <path
     d="m 33.875114,31.750033 c -4.714888,0 -9.429778,1.795998 -13.026533,5.391166 l 9.958946,12.059215 h 0.0042 c 0.79864,0.83199 1.902148,1.302138 3.055419,1.301754 1.156442,-0.0019 2.261755,-0.476858 3.059121,-1.314454 h 0.0084 l 9.96318,-12.050749 C 43.301189,33.543913 38.588416,31.750033 33.875114,31.750033 Z"
     style="fill:#ffffff;stroke-width:0.529168"
     id="path3391" />
</svg>
