<?xml version="1.0" encoding="UTF-8" standalone="no"?>
<!-- Created with Inkscape (http://www.inkscape.org/) -->

<svg
   width="256"
   height="256"
   viewBox="0 0 67.733332 67.733336"
   version="1.1"
   id="svg1099"
   inkscape:version="1.2 (dc2aedaf03, 2022-05-15)"
   sodipodi:docname="user-trash.svg"
   xmlns:inkscape="http://www.inkscape.org/namespaces/inkscape"
   xmlns:sodipodi="http://sodipodi.sourceforge.net/DTD/sodipodi-0.dtd"
   xmlns="http://www.w3.org/2000/svg"
   xmlns:svg="http://www.w3.org/2000/svg">
  <sodipodi:namedview
     id="namedview1101"
     pagecolor="#ffffff"
     bordercolor="#666666"
     borderopacity="1.0"
     inkscape:pageshadow="2"
     inkscape:pageopacity="0.0"
     inkscape:pagecheckerboard="0"
     inkscape:document-units="px"
     showgrid="false"
     units="px"
     inkscape:zoom="1.6210938"
     inkscape:cx="3.3927711"
     inkscape:cy="55.209639"
     inkscape:window-width="1920"
     inkscape:window-height="1016"
     inkscape:window-x="0"
     inkscape:window-y="0"
     inkscape:window-maximized="1"
     inkscape:current-layer="svg1099"
     inkscape:showpageshadow="2"
     inkscape:deskcolor="#d1d1d1"
     showguides="false" />
  <defs
     id="defs1096" />
  <path
     d="m 14.816771,4.2333334 c -2.345267,0 -4.420394,1.895475 -4.233333,4.2333334 l 4.233333,52.9166682 c 9.525,5.291666 28.575001,5.291666 38.100001,0 L 57.150105,8.4666668 C 57.337166,6.1288084 55.262039,4.2333334 52.916772,4.2333334 Z"
     style="fill:#898989;stroke-width:0.264583"
     id="path310" />
  <path
     d="m 14.816771,4.2333334 c -2.345266,0 -4.420393,1.8954751 -4.233333,4.2333335 l 4.233333,52.9166681 c 9.525001,5.291667 28.575001,5.291667 38.100001,0 L 57.150106,8.4666669 C 57.337166,6.1288085 55.262039,4.2333334 52.916772,4.2333334 Z m 0,0.2645834 h 38.100001 c 2.198688,0 3.968751,1.7700625 3.968751,3.9687501 L 52.652189,60.060418 c -9.525,5.291667 -28.045834,5.291667 -37.570834,0 L 10.848021,8.4666669 c 0,-2.1986876 1.770063,-3.9687501 3.96875,-3.9687501 z"
     style="fill-opacity:1;stroke-width:0.264583;fill:#000000;opacity:0.5"
     id="path511" />
  <path
     d="m 17.461468,9.3855647 -0.528135,0.035657 3.175,46.5666663 0.528135,-0.03566 z m 32.809366,0 -3.175,46.5666683 0.528135,0.03566 3.175,-46.5666665 z m -24.871866,0.00362 -0.528135,0.028422 2.645834,48.6833343 0.528135,-0.02842 z m 16.404683,0.00259 -2.116666,48.6833323 0.529166,0.02326 2.116667,-48.6833325 z m -8.466667,0.011369 V 60.203135 h 0.529167 V 9.4031346 Z"
     style="color:#000000;fill:#ffffff;stroke-width:0.264583;-inkscape-stroke:none;opacity:0.35"
     id="path5802" />
  <path
     d="m 50.79897,9.421224 -3.175001,46.566669 0.528135,0.03565 3.175,-46.5666671 z m -33.8677,0 -0.528135,0.035657 3.175,46.566667 0.528135,-0.03565 z m 16.93385,0.01757 v 50.800001 h 0.529167 V 9.4387939 Z m -8.99635,-0.013951 -0.528134,0.028422 2.645833,48.683334 0.528135,-0.02842 z m 17.463017,0.00259 -2.116667,48.683334 0.529167,0.02326 2.116666,-48.6833347 z"
     style="color:#000000;fill:#000000;stroke-width:0.264583;-inkscape-stroke:none;opacity:0.35"
     id="path8456" />
</svg>
