<?xml version="1.0" encoding="UTF-8" standalone="no"?>
<svg
   width="16"
   height="16"
   version="1.1"
   id="svg4"
   sodipodi:docname="network-cellular-2g-symbolic.svg"
   inkscape:version="1.1.2 (0a00cf5339, 2022-02-04, custom)"
   xmlns:inkscape="http://www.inkscape.org/namespaces/inkscape"
   xmlns:sodipodi="http://sodipodi.sourceforge.net/DTD/sodipodi-0.dtd"
   xmlns="http://www.w3.org/2000/svg"
   xmlns:svg="http://www.w3.org/2000/svg">
  <defs
     id="defs8" />
  <sodipodi:namedview
     id="namedview6"
     pagecolor="#ffffff"
     bordercolor="#666666"
     borderopacity="1.0"
     inkscape:pageshadow="2"
     inkscape:pageopacity="0.0"
     inkscape:pagecheckerboard="0"
     showgrid="false"
     inkscape:zoom="39.375"
     inkscape:cx="7.9873016"
     inkscape:cy="8"
     inkscape:window-width="1920"
     inkscape:window-height="1017"
     inkscape:window-x="0"
     inkscape:window-y="0"
     inkscape:window-maximized="1"
     inkscape:current-layer="svg4" />
  <path
     d="m 2.0631,1.0005 c -1.14282533,-0.008401 -2.07140141,0.9201747 -2.063,2.063 v 9.874 c 0,1.151 0.912,2.063 2.063,2.063 h 11.874 c 1.142825,0.0084 2.071401,-0.920175 2.063,-2.063 v -9.874 c 0.0084,-1.1428253 -0.920175,-2.07140141 -2.063,-2.063 z m 1.937,1.9995553 h 1 c 0,0 0.459,-0.014 0.947,0.23 0.489,0.245 1.053,0.937 1.053,1.77 v 2 c 0,0.2163703 -0.070178,0.4269039 -0.2,0.6 l -2.55,3.3999997 h 2.75 v 2 h -5 v -2 c 0,-0.21637 0.070178,-0.426903 0.2,-0.6 l 2.8,-3.7339997 v -1.666 h -1 v 2 h -2 v -2 c 0,-0.833 0.564,-1.525 1.053,-1.77 0.487,-0.244 0.947,-0.23 0.947,-0.23 z m 6,0 h 2 c 0.833,0 1.525,0.564 1.77,1.053 0.244,0.488 0.23,0.947 0.23,0.947 v 1 h -2 v -1 h -2 v 5.9999997 h 2 V 9.0000553 h -1 v -2 h 3 v 3.9999997 c 0,0 0.014,0.459 -0.23,0.947 -0.245,0.489 -0.937,1.053 -1.77,1.053 h -2 c 0,0 -0.459,0.014 -0.947,-0.23 -0.489,-0.245 -1.053,-0.937 -1.053,-1.77 V 5.0000553 c 0,0 -0.014,-0.459 0.23,-0.947 0.245,-0.489 0.937,-1.053 1.77,-1.053 z"
     color="#bebebe"
     fill="#555555"
     overflow="visible"
     id="path2"
     sodipodi:nodetypes="ccssccccccccsssccccsccccccsccssccccccccccccccsccsccs" />
</svg>
