<?xml version="1.0" encoding="UTF-8" standalone="no"?>
<!-- Created with Inkscape (http://www.inkscape.org/) -->

<svg
   width="16"
   height="16"
   viewBox="0 0 4.2333333 4.2333333"
   version="1.1"
   id="svg5"
   inkscape:version="1.1.2 (0a00cf5339, 2022-02-04, custom)"
   sodipodi:docname="folder-videos.svg"
   xmlns:inkscape="http://www.inkscape.org/namespaces/inkscape"
   xmlns:sodipodi="http://sodipodi.sourceforge.net/DTD/sodipodi-0.dtd"
   xmlns="http://www.w3.org/2000/svg"
   xmlns:svg="http://www.w3.org/2000/svg">
  <sodipodi:namedview
     id="namedview7"
     pagecolor="#ffffff"
     bordercolor="#666666"
     borderopacity="1.0"
     inkscape:pageshadow="2"
     inkscape:pageopacity="0.0"
     inkscape:pagecheckerboard="0"
     inkscape:document-units="px"
     showgrid="false"
     units="px"
     height="48px"
     inkscape:zoom="12.515625"
     inkscape:cx="3.3558052"
     inkscape:cy="9.9475655"
     inkscape:window-width="1920"
     inkscape:window-height="1017"
     inkscape:window-x="0"
     inkscape:window-y="0"
     inkscape:window-maximized="1"
     inkscape:current-layer="svg5" />
  <defs
     id="defs2" />
  <path
     d="M 0.9260416,0.26458333 C 0.4130146,0.26458333 0,0.67759793 0,1.190625 0,1.6003322 0.2635594,1.9464072 0.6309704,2.069121 0.5670494,2.156592 0.5291666,2.2641453 0.5291666,2.3812499 v 1.0583333 c 0,0.2931584 0.2360084,0.5291667 0.5291667,0.5291667 h 1.8520833 c 0.2931583,0 0.5291667,-0.2360083 0.5291667,-0.5291667 L 4.2333332,3.9687499 V 2.1166666 L 3.4395833,2.6458333 V 2.3812499 c 0,-0.1171046 -0.037883,-0.2246577 -0.1018038,-0.3121289 0.367411,-0.1227138 0.6309704,-0.4687888 0.6309704,-0.878496 0,-0.51302707 -0.4130146,-0.92604167 -0.9260416,-0.92604167 -0.5130271,0 -0.9260416,0.4130146 -0.9260416,0.92604167 0,0.259662 0.105955,0.4936331 0.2769869,0.6614583 H 1.5750963 c 0.171032,-0.1678252 0.276987,-0.4017963 0.276987,-0.6614583 0,-0.51302707 -0.4130146,-0.92604167 -0.9260417,-0.92604167 z m 0,0.5291667 c 0.2198688,0 0.3968751,0.1770062 0.3968751,0.39687497 0,0.2198687 -0.1770063,0.3968749 -0.3968751,0.3968749 -0.2198687,0 -0.396875,-0.1770062 -0.396875,-0.3968749 0,-0.21986877 0.1770063,-0.39687497 0.396875,-0.39687497 z m 2.1166667,0 c 0.2198687,0 0.396875,0.1770062 0.396875,0.39687497 0,0.2198687 -0.1770063,0.3968749 -0.396875,0.3968749 -0.2198688,0 -0.396875,-0.1770062 -0.396875,-0.3968749 0,-0.21986877 0.1770062,-0.39687497 0.396875,-0.39687497 z"
     style="display:inline;vector-effect:none;fill:#ff793e;fill-opacity:1;stroke:none;stroke-width:0.037044;stroke-linecap:square;stroke-opacity:1;enable-background:new"
     id="path1056"
     sodipodi:nodetypes="sscssssccccscsssccssssssssssss" />
  <path
     id="path846"
     style="opacity:0.5;fill:#1a1818;fill-opacity:1;stroke-width:0.264583"
     d="M 0.92604175,0.26458333 A 0.92604174,0.92604174 0 0 0 6e-8,1.190625 0.92604174,0.92604174 0 0 0 0.63251961,2.0670573 C 0.56767269,2.1548889 0.52916674,2.2632136 0.52916674,2.38125 v 1.0583334 c 0,0.2931583 0.23600831,0.5291667 0.52916666,0.5291667 h 1.8520834 c 0.2931583,0 0.5291667,-0.2360084 0.5291667,-0.5291667 l 0.79375,0.5291667 V 2.1166667 l -0.79375,0.5291667 V 2.38125 c 0,-0.1180364 -0.038506,-0.2263611 -0.1033529,-0.3141927 A 0.92604174,0.92604174 0 0 0 3.9687502,1.190625 0.92604174,0.92604174 0 0 0 3.0427085,0.26458333 0.92604174,0.92604174 0 0 0 2.1166668,1.190625 0.92604174,0.92604174 0 0 0 2.3993368,1.8520834 H 1.5694133 A 0.92604174,0.92604174 0 0 0 1.8520834,1.190625 0.92604174,0.92604174 0 0 0 0.92604175,0.26458333 Z m 0,0.26458334 A 0.66145832,0.66145832 0 0 1 1.5875001,1.190625 0.66145832,0.66145832 0 0 1 0.92604175,1.8520834 0.66145832,0.66145832 0 0 1 0.2645834,1.190625 0.66145832,0.66145832 0 0 1 0.92604175,0.52916667 Z m 2.11666675,0 A 0.66145832,0.66145832 0 0 1 3.7041668,1.190625 0.66145832,0.66145832 0 0 1 3.0427085,1.8520834 0.66145832,0.66145832 0 0 1 2.3812501,1.190625 0.66145832,0.66145832 0 0 1 3.0427085,0.52916667 Z M 1.0583334,2.1166667 h 1.8520834 c 0.1465792,0 0.2645833,0.1180041 0.2645833,0.2645833 v 1.0583334 c 0,0.1465792 -0.1180041,0.2645833 -0.2645833,0.2645833 H 1.0583334 c -0.14657915,0 -0.26458332,-0.1180041 -0.26458332,-0.2645833 V 2.38125 c 0,-0.1465792 0.11800417,-0.2645833 0.26458332,-0.2645833 z m 2.9104168,0.5291667 v 0.79375 L 3.4395835,3.1088542 V 2.9765625 Z" />
</svg>
