<?xml version="1.0" encoding="UTF-8" standalone="no"?>
<!-- Created with Inkscape (http://www.inkscape.org/) -->

<svg
   width="16"
   height="16"
   viewBox="0 0 4.2333333 4.2333335"
   version="1.1"
   id="svg5"
   inkscape:version="1.2 (dc2aedaf03, 2022-05-15)"
   sodipodi:docname="folder-games.svg"
   xmlns:inkscape="http://www.inkscape.org/namespaces/inkscape"
   xmlns:sodipodi="http://sodipodi.sourceforge.net/DTD/sodipodi-0.dtd"
   xmlns="http://www.w3.org/2000/svg"
   xmlns:svg="http://www.w3.org/2000/svg">
  <sodipodi:namedview
     id="namedview7"
     pagecolor="#ffffff"
     bordercolor="#666666"
     borderopacity="1.0"
     inkscape:pageshadow="2"
     inkscape:pageopacity="0.0"
     inkscape:pagecheckerboard="0"
     inkscape:document-units="px"
     showgrid="false"
     units="px"
     width="24px"
     inkscape:zoom="35.399533"
     inkscape:cx="8.0792026"
     inkscape:cy="7.2317338"
     inkscape:window-width="1846"
     inkscape:window-height="1015"
     inkscape:window-x="0"
     inkscape:window-y="0"
     inkscape:window-maximized="1"
     inkscape:current-layer="svg5"
     inkscape:showpageshadow="2"
     inkscape:deskcolor="#d1d1d1" />
  <defs
     id="defs2" />
  <rect
     style="opacity:1;fill:#ffffff;stroke-width:0.565703"
     id="rect182"
     width="3.7041667"
     height="2.1166668"
     x="0.26458335"
     y="0.26458335" />
  <path
     id="rect1779"
     style="fill:#48b9c7;fill-opacity:1;stroke-width:0.453572"
     d="M 0.79375005,0 C 0.35401345,0 4.9999998e-8,0.3540134 4.9999998e-8,0.79375 V 1.8520833 3.4395832 C 4.9999998e-8,3.732741 0.23600895,3.9687499 0.52916675,3.9687499 c 0.2931577,0 0.52916655,-0.2360089 0.52916655,-0.5291667 V 2.6458333 H 3.175 v 0.7937499 c 0,0.2931578 0.2360089,0.5291667 0.5291666,0.5291667 0.2931578,0 0.5291667,-0.2360089 0.5291667,-0.5291667 V 1.8520833 0.79375 C 4.2333333,0.3540134 3.87932,0 3.4395833,0 Z m 0,0.5291667 H 1.3229167 V 1.0583333 H 1.8520833 V 1.5874999 H 1.3229167 V 2.1166667 H 0.79375005 V 1.5874999 H 0.26458335 V 1.0583333 h 0.5291667 z m 2.38124995,0 c 0.1461253,0 0.2645833,0.118458 0.2645833,0.2645833 0,0.14612535 -0.1184579,0.2645833 -0.2645833,0.2645833 -0.1461254,0 -0.2645834,-0.11845795 -0.2645834,-0.2645833 0,-0.1461254 0.118458,-0.2645833 0.2645834,-0.2645833 z M 2.6458333,1.0583333 c 0.1461253,0 0.2645833,0.118458 0.2645833,0.2645833 0,0.1461253 -0.118458,0.2645833 -0.2645833,0.2645833 -0.1461253,0 -0.2645833,-0.118458 -0.2645833,-0.2645833 0,-0.1461253 0.118458,-0.2645833 0.2645833,-0.2645833 z m 1.0583333,0 c 0.1461254,0 0.2645834,0.118458 0.2645834,0.2645833 0,0.1461255 -0.118458,0.2645833 -0.2645834,0.2645833 -0.1461253,0 -0.2645833,-0.118458 -0.2645833,-0.2645833 0,-0.1461253 0.118458,-0.2645833 0.2645833,-0.2645833 z M 3.175,1.5874999 c 0.1461253,0 0.2645833,0.118458 0.2645833,0.2645834 -10e-8,0.1461253 -0.118458,0.2645834 -0.2645833,0.2645834 -0.1461253,0 -0.2645833,-0.1184579 -0.2645834,-0.2645833 0,-0.1461254 0.118458,-0.2645834 0.2645834,-0.2645835 z"
     sodipodi:nodetypes="sscsssccssscssscccccccccccccssssssssssssssssssss" />
  <path
     id="rect1047"
     style="opacity:0.5;fill:#000000;stroke-width:0.529167"
     d="M 0.79375001,0 C 0.35401471,0 0,0.35401471 0,0.79375001 V 3.4395834 c 0,0.2931562 0.23601042,0.5291667 0.52916667,0.5291667 0.29315632,0 0.52916663,-0.2360105 0.52916663,-0.5291667 v -0.79375 h 2.1187338 v 0.79375 c 0,0.2931562 0.2360104,0.5291667 0.5291667,0.5291667 0.2931563,0 0.5291667,-0.2360105 0.5291667,-0.5291667 L 4.2333334,0.79375001 C 4.2333333,0.35401471 3.8793184,0 3.4395834,0 Z m 0,0.26458334 H 3.4395834 c 0.2931568,0 0.5291667,0.23600981 0.5291667,0.52916667 l 0.00207,2.64583339 c 0,0.1465778 -0.1180053,0.2645833 -0.2645833,0.2645833 -0.1465783,0 -0.2645834,-0.1180055 -0.2645834,-0.2645833 V 2.38125 H 0.79375001 v 1.0583334 c 0,0.1465778 -0.11800515,0.2645833 -0.26458334,0.2645833 -0.14657812,0 -0.26458333,-0.1180055 -0.26458333,-0.2645833 V 0.79375001 c 0,-0.29315686 0.23600981,-0.52916667 0.52916667,-0.52916667 z"
     sodipodi:nodetypes="sccssccssccssssccsscccsccs" />
</svg>
