<?xml version="1.0" encoding="UTF-8" standalone="no"?>
<!-- Created with Inkscape (http://www.inkscape.org/) -->

<svg
   width="16"
   height="16"
   viewBox="0 0 4.2333333 4.2333333"
   version="1.1"
   id="svg5"
   inkscape:version="1.2 (dc2aedaf03, 2022-05-15)"
   sodipodi:docname="mail-inbox.svg"
   xmlns:inkscape="http://www.inkscape.org/namespaces/inkscape"
   xmlns:sodipodi="http://sodipodi.sourceforge.net/DTD/sodipodi-0.dtd"
   xmlns="http://www.w3.org/2000/svg"
   xmlns:svg="http://www.w3.org/2000/svg">
  <sodipodi:namedview
     id="namedview7"
     pagecolor="#ffffff"
     bordercolor="#666666"
     borderopacity="1.0"
     inkscape:pageshadow="2"
     inkscape:pageopacity="0.0"
     inkscape:pagecheckerboard="0"
     inkscape:document-units="px"
     showgrid="false"
     units="px"
     height="48px"
     inkscape:zoom="32.416667"
     inkscape:cx="12.030848"
     inkscape:cy="12"
     inkscape:window-width="1846"
     inkscape:window-height="1011"
     inkscape:window-x="0"
     inkscape:window-y="0"
     inkscape:window-maximized="1"
     inkscape:current-layer="svg5"
     showguides="false"
     inkscape:showpageshadow="2"
     inkscape:deskcolor="#d1d1d1" />
  <defs
     id="defs2" />
  <rect
     style="opacity:1;fill:#ffce51;fill-opacity:1;stroke-width:0.264583"
     id="rect1162"
     width="4.2333331"
     height="3.175"
     x="1.9227905e-08"
     y="1.0583333"
     ry="0.52916664" />
  <path
     d="m 0.79375001,1.5875 c -0.1465792,0 -0.26458336,0.1180042 -0.26458336,0.2645833 v 0.79375 c 0,0.1465792 0.11800416,0.2645834 0.26458336,0.2645834 H 1.3229166 V 3.175 c 0,0.1465792 0.1180042,0.2645833 0.2645834,0.2645833 h 1.0583333 c 0.1465791,0 0.2645833,-0.1180041 0.2645833,-0.2645833 V 2.9104167 h 0.5291667 c 0.1465791,0 0.2645833,-0.1180042 0.2645833,-0.2645834 v -0.79375 C 3.7041666,1.7055042 3.5861624,1.5875 3.4395833,1.5875 Z"
     style="fill-opacity:1;stroke-width:0.264583;fill:#000000;opacity:0.5"
     id="path63736" />
  <path
     id="rect845"
     style="opacity:0.5;fill:#000000;stroke-width:0.529167;stroke-linecap:round;stroke-linejoin:round"
     d="M 0.5291667,1.0583334 C 0.2360084,1.0583334 0,1.2943417 0,1.5875 V 3.7041666 C 0,3.997325 0.2360084,4.2333333 0.5291667,4.2333333 h 3.175 c 0.2931584,0 0.5291667,-0.2360083 0.5291667,-0.5291667 V 1.5875 c 0,-0.2931583 -0.2360083,-0.5291666 -0.5291667,-0.5291666 z m 0,0.2645833 h 3.175 c 0.1465792,0 0.2645834,0.1180042 0.2645834,0.2645833 v 2.1166666 c 0,0.1465792 -0.1180042,0.2645834 -0.2645834,0.2645834 h -3.175 c -0.1465792,0 -0.2645833,-0.1180042 -0.2645833,-0.2645834 V 1.5875 c 0,-0.1465791 0.1180041,-0.2645833 0.2645833,-0.2645833 z"
     sodipodi:nodetypes="ssssssssssssssssss" />
  <path
     id="path58664"
     d="m 0.52916662,1.3229167 c -0.1465789,0 -0.26458329,0.1180042 -0.26458329,0.2645833 v 1.3229167 c 0,0.1465791 0.11800439,0.2645833 0.26458329,0.2645833 H 1.3229166 V 2.9104167 H 0.79375002 c -0.1465789,0 -0.2645834,-0.1180042 -0.2645834,-0.2645834 v -0.79375 c 0,-0.1465791 0.1180045,-0.2645833 0.2645834,-0.2645833 H 3.4395833 c 0.1465789,0 0.2645833,0.1180042 0.2645833,0.2645833 v 0.79375 c 0,0.1465792 -0.1180044,0.2645834 -0.2645833,0.2645834 H 2.9104166 V 3.175 h 0.79375 c 0.1465789,0 0.2645833,-0.1180042 0.2645833,-0.2645833 V 1.5875 c 0,-0.1465791 -0.1180044,-0.2645833 -0.2645833,-0.2645833 z M 2.9104166,3.175 c 0,0.1465792 -0.1180044,0.2645833 -0.2645833,0.2645833 H 1.5875 C 1.4409211,3.4395833 1.3229166,3.3215792 1.3229166,3.175 v 0.2645833 c 0,0.1465792 0.1180045,0.2645834 0.2645834,0.2645834 h 1.0583333 c 0.1465789,0 0.2645833,-0.1180042 0.2645833,-0.2645834 z"
     style="stroke-width:0.264583;fill:#efefef;fill-opacity:1;opacity:0.5" />
  <path
     d="m 1.0583333,0.26458333 c -0.14657911,0 -0.2645833,0.1180041 -0.2645833,0.2645833 V 2.9104166 h 0.5291667 v 0.2645833 c 0,0.1465792 0.1180041,0.2645833 0.2645833,0.2645833 h 1.0583333 c 0.1465792,0 0.2645834,-0.1180041 0.2645834,-0.2645833 V 2.9104166 H 3.4395833 V 0.52916663 c 0,-0.1465792 -0.1180042,-0.2645833 -0.2645833,-0.2645833 z"
     style="fill:#ededed;stroke-width:0.264583"
     id="path65216" />
  <path
     d="m 1.0583333,0.26458343 c -0.1465792,0 -0.2645834,0.11800417 -0.2645834,0.26458333 V 2.9104167 h 0.5291667 v 0.2645834 c 0,0.1465791 0.1180042,0.2645833 0.2645833,0.2645833 h 1.0583333 c 0.1465792,0 0.2645834,-0.1180042 0.2645834,-0.2645833 V 2.9104167 H 3.4395832 V 0.52916676 c 0,-0.14657916 -0.1180041,-0.26458333 -0.2645833,-0.26458333 z m 0,0.26458333 H 3.1749999 V 2.6458334 H 2.6458332 V 3.1750001 H 1.5874999 V 2.6458334 H 1.0583333 Z"
     style="fill-opacity:1;stroke-width:0.264583;opacity:0.3;fill:#000000"
     id="path66678" />
  <path
     d="M 1.0583333,1.8520833 2.1166666,3.1749999 3.175,1.8520833 H 2.6458333 V 0.79374999 H 1.5875 V 1.8520833 Z"
     style="color:#000000;opacity:0.8;fill:#393634;stroke-width:0.264583"
     id="path69081" />
</svg>
