<?xml version="1.0" encoding="UTF-8" standalone="no"?>
<!-- Created with Inkscape (http://www.inkscape.org/) -->

<svg
   width="16"
   height="16"
   viewBox="0 0 4.2333333 4.2333335"
   version="1.1"
   id="svg5"
   inkscape:version="1.2 (dc2aedaf03, 2022-05-15)"
   sodipodi:docname="user-orange-desktop.svg"
   xmlns:inkscape="http://www.inkscape.org/namespaces/inkscape"
   xmlns:sodipodi="http://sodipodi.sourceforge.net/DTD/sodipodi-0.dtd"
   xmlns="http://www.w3.org/2000/svg"
   xmlns:svg="http://www.w3.org/2000/svg">
  <sodipodi:namedview
     id="namedview7"
     pagecolor="#ffffff"
     bordercolor="#666666"
     borderopacity="1.0"
     inkscape:pageshadow="2"
     inkscape:pageopacity="0.0"
     inkscape:pagecheckerboard="0"
     inkscape:document-units="px"
     showgrid="false"
     units="px"
     width="24px"
     inkscape:zoom="66.749999"
     inkscape:cx="8.022472"
     inkscape:cy="8.022472"
     inkscape:window-width="1846"
     inkscape:window-height="1011"
     inkscape:window-x="0"
     inkscape:window-y="0"
     inkscape:window-maximized="1"
     inkscape:current-layer="svg5"
     inkscape:showpageshadow="2"
     inkscape:deskcolor="#d1d1d1" />
  <defs
     id="defs2" />
  <rect
     style="opacity:1;fill:#faa41a;fill-opacity:1;stroke-width:0.264583"
     id="rect2068"
     width="3.7041667"
     height="3.175"
     x="0.26458335"
     y="0.5291667"
     ry="0.26458335" />
  <path
     id="rect2298"
     style="opacity:0.5;fill:#000000;fill-opacity:1;stroke-width:0.999999"
     d="M 2 2 C 1.446 2 1 2.446 1 3 L 1 13 C 1 13.554 1.446 14 2 14 L 14 14 C 14.554 14 15 13.554 15 13 L 15 3 C 15 2.446 14.554 2 14 2 L 2 2 z M 2 3 L 14 3 L 14 13 L 2 13 L 2 3 z "
     transform="scale(0.26458334)" />
  <path
     id="rect1782"
     style="opacity:1;fill:#323232;stroke-width:0.264583"
     d="M 0.52916669,0.52916667 H 3.7041669 c 0.1465791,0 0.2645833,0.11800418 0.2645833,0.26458335 V 1.0583333 H 0.26458334 V 0.79375002 c 0,-0.14657917 0.11800417,-0.26458335 0.26458335,-0.26458335 z"
     sodipodi:nodetypes="sssccss" />
</svg>
