<?xml version="1.0" encoding="UTF-8" standalone="no"?>
<!-- Created with Inkscape (http://www.inkscape.org/) -->

<svg
   width="16"
   height="16"
   viewBox="0 0 4.2333333 4.2333333"
   version="1.1"
   id="svg5"
   inkscape:version="1.1.2 (0a00cf5339, 2022-02-04, custom)"
   sodipodi:docname="user-trash.svg"
   xmlns:inkscape="http://www.inkscape.org/namespaces/inkscape"
   xmlns:sodipodi="http://sodipodi.sourceforge.net/DTD/sodipodi-0.dtd"
   xmlns="http://www.w3.org/2000/svg"
   xmlns:svg="http://www.w3.org/2000/svg">
  <sodipodi:namedview
     id="namedview7"
     pagecolor="#ffffff"
     bordercolor="#666666"
     borderopacity="1.0"
     inkscape:pageshadow="2"
     inkscape:pageopacity="0.0"
     inkscape:pagecheckerboard="0"
     inkscape:document-units="px"
     showgrid="false"
     units="px"
     height="48px"
     inkscape:zoom="50.0625"
     inkscape:cx="8.0099875"
     inkscape:cy="6.2222222"
     inkscape:window-width="1920"
     inkscape:window-height="1017"
     inkscape:window-x="0"
     inkscape:window-y="0"
     inkscape:window-maximized="1"
     inkscape:current-layer="svg5" />
  <defs
     id="defs2" />
  <path
     d="M 0.92714249,0.26458333 H 3.3083924 c 0.2198688,0 0.4144084,0.1777074 0.396875,0.39687503 L 3.4406841,3.96875 c -0.6614583,0.5291666 -1.984375,0.5291666 -2.64583328,0 L 0.53026749,0.66145836 C 0.51273359,0.44229073 0.70727374,0.26458333 0.92714249,0.26458333 Z"
     style="display:inline;vector-effect:none;fill:#898989;fill-opacity:1;stroke-width:0.264583;stroke-linecap:square;stroke-opacity:0.5;enable-background:new"
     id="path1284" />
  <path
     style="color:#000000;display:inline;opacity:0.35;fill:#000000;stroke-width:0.264583;stroke-miterlimit:4;stroke-dasharray:none;-inkscape-stroke:none;enable-background:new"
     d="M 2.9104153,0.79374999 2.6458319,3.7041666 2.9093821,3.7281967 3.1739654,0.81778011 Z"
     id="path1348" />
  <path
     style="color:#000000;display:inline;opacity:0.35;fill:#ffffff;stroke-width:0.264583;stroke-miterlimit:4;stroke-dasharray:none;-inkscape-stroke:none;enable-background:new"
     d="M 2.6458319,0.79374999 2.3812486,3.7041666 2.6447987,3.7281967 2.9093821,0.81778011 Z"
     id="path1350" />
  <path
     style="color:#000000;display:inline;opacity:0.35;fill:#000000;stroke-width:0.264583;stroke-miterlimit:4;stroke-dasharray:none;-inkscape-stroke:none;enable-background:new"
     d="M 1.3218835,0.79374999 1.5864668,3.7041666 1.3229166,3.7281967 1.0583333,0.81778011 Z"
     id="path1354" />
  <path
     style="color:#000000;display:inline;opacity:0.35;fill:#ffffff;stroke-width:0.264583;stroke-miterlimit:4;stroke-dasharray:none;-inkscape-stroke:none;enable-background:new"
     d="M 1.5864668,0.79374999 1.8510501,3.7041666 1.5875,3.7281967 1.3229166,0.81778011 Z"
     id="path1356" />
  <path
     d="m 0.92714249,0.26458333 c -0.21986875,0 -0.41440894,0.1777074 -0.396875,0.39687503 L 0.79485082,3.96875 c 0.66145828,0.5291666 1.98437498,0.5291666 2.64583358,0 L 3.7052677,0.66145836 C 3.7228016,0.44229073 3.5282614,0.26458333 3.3083927,0.26458333 Z m 0,0.2645834 H 3.3083927 c 0.07329,0 0.1386417,0.0592772 0.1322917,0.13229163 L 3.176101,3.7041666 c -0.6614586,0.5291667 -1.4552085,0.5291667 -2.1166669,0 L 0.79485082,0.66145836 c -0.00635,-0.0730144 0.0590021,-0.13229163 0.13229167,-0.13229163 z"
     style="display:inline;vector-effect:none;fill:#000000;fill-opacity:0.5;stroke-width:0.264583;stroke-linecap:square;stroke-opacity:0.5;enable-background:new"
     id="path1164" />
</svg>
