<?xml version="1.0" encoding="UTF-8" standalone="no"?>
<!-- Created with Inkscape (http://www.inkscape.org/) -->

<svg
   width="24"
   height="24"
   viewBox="0 0 6.3499999 6.3499999"
   version="1.1"
   id="svg5"
   inkscape:version="1.2 (dc2aedaf03, 2022-05-15)"
   sodipodi:docname="emblem-default.svg"
   xmlns:inkscape="http://www.inkscape.org/namespaces/inkscape"
   xmlns:sodipodi="http://sodipodi.sourceforge.net/DTD/sodipodi-0.dtd"
   xmlns="http://www.w3.org/2000/svg"
   xmlns:svg="http://www.w3.org/2000/svg">
  <sodipodi:namedview
     id="namedview7"
     pagecolor="#ffffff"
     bordercolor="#666666"
     borderopacity="1.0"
     inkscape:pageshadow="2"
     inkscape:pageopacity="0.0"
     inkscape:pagecheckerboard="0"
     inkscape:document-units="px"
     showgrid="false"
     units="px"
     height="48px"
     inkscape:zoom="33.041667"
     inkscape:cx="12"
     inkscape:cy="12.030265"
     inkscape:window-width="1920"
     inkscape:window-height="1010"
     inkscape:window-x="0"
     inkscape:window-y="0"
     inkscape:window-maximized="1"
     inkscape:current-layer="svg5"
     inkscape:showpageshadow="2"
     inkscape:deskcolor="#d1d1d1" />
  <defs
     id="defs2" />
  <circle
     style="fill:#73c48f;fill-opacity:1;stroke-width:0.459148"
     id="path927"
     cx="3.175"
     cy="3.175"
     r="3.175" />
  <path
     id="path925"
     style="fill:#000000;stroke-width:0.243022;opacity:0.5"
     d="M 3.175 0 A 3.175 3.175 0 0 0 0 3.175 A 3.175 3.175 0 0 0 3.175 6.3499999 A 3.175 3.175 0 0 0 6.3499999 3.175 A 3.175 3.175 0 0 0 3.175 0 z M 3.175 0.26458333 A 2.9104166 2.9104166 0 0 1 6.0854166 3.175 A 2.9104166 2.9104166 0 0 1 3.175 6.0854166 A 2.9104166 2.9104166 0 0 1 0.26458333 3.175 A 2.9104166 2.9104166 0 0 1 3.175 0.26458333 z " />
  <path
     d="M 4.4731286,1.7436041 4.2989791,1.9425601 2.6329309,3.8463192 2.0391686,3.2525572 1.8521,3.0654888 1.4779625,3.4396255 1.6650314,3.6266939 2.6587691,4.6204318 4.6968875,2.2908576 4.8710371,2.0919042 Z"
     style="color:#000000;fill:#ffffff;stroke-width:0.264583;stroke-linecap:square;-inkscape-stroke:none"
     id="path359" />
</svg>
