<?xml version="1.0" encoding="UTF-8" standalone="no"?>
<!-- Created with Inkscape (http://www.inkscape.org/) -->

<svg
   width="24"
   height="24"
   viewBox="0 0 6.3499999 6.3499999"
   version="1.1"
   id="svg5"
   inkscape:version="1.2 (dc2aedaf03, 2022-05-15)"
   sodipodi:docname="emblem-photos.svg"
   xmlns:inkscape="http://www.inkscape.org/namespaces/inkscape"
   xmlns:sodipodi="http://sodipodi.sourceforge.net/DTD/sodipodi-0.dtd"
   xmlns="http://www.w3.org/2000/svg"
   xmlns:svg="http://www.w3.org/2000/svg">
  <sodipodi:namedview
     id="namedview7"
     pagecolor="#ffffff"
     bordercolor="#666666"
     borderopacity="1.0"
     inkscape:pageshadow="2"
     inkscape:pageopacity="0.0"
     inkscape:pagecheckerboard="0"
     inkscape:document-units="px"
     showgrid="false"
     units="px"
     height="48px"
     inkscape:zoom="33.041667"
     inkscape:cx="12.06053"
     inkscape:cy="12.045397"
     inkscape:window-width="1920"
     inkscape:window-height="1014"
     inkscape:window-x="0"
     inkscape:window-y="0"
     inkscape:window-maximized="1"
     inkscape:current-layer="svg5"
     inkscape:showpageshadow="2"
     inkscape:deskcolor="#d1d1d1" />
  <defs
     id="defs2" />
  <circle
     style="fill:#48b9c7;fill-opacity:1;stroke-width:0.459148"
     id="path927"
     cx="3.175"
     cy="3.175"
     r="3.175" />
  <path
     id="path925"
     style="fill:#000000;stroke-width:0.243022;opacity:0.5"
     d="M 3.175 0 A 3.175 3.175 0 0 0 0 3.175 A 3.175 3.175 0 0 0 3.175 6.3499999 A 3.175 3.175 0 0 0 6.3499999 3.175 A 3.175 3.175 0 0 0 3.175 0 z M 3.175 0.26458333 A 2.9104166 2.9104166 0 0 1 6.0854166 3.175 A 2.9104166 2.9104166 0 0 1 3.175 6.0854166 A 2.9104166 2.9104166 0 0 1 0.26458333 3.175 A 2.9104166 2.9104166 0 0 1 3.175 0.26458333 z " />
  <path
     d="m 2.1166666,2.38125 v 1.0583333 l 0.396875,-0.396875 0.396875,0.396875 L 3.5718749,2.778125 4.2333333,3.4395833 V 2.38125 Z"
     style="opacity:0.5;fill:#ffffff;stroke-width:0.264583"
     id="path18376" />
  <path
     d="M 3.1749999,2.9104166 4.2333332,3.9687499 H 2.1166666 Z"
     style="fill:#ffffff;stroke-width:0.264583"
     id="path19856" />
  <path
     d="m 2.1166666,1.5875 c -0.4351602,0 -0.79375,0.3585898 -0.79375,0.79375 v 1.5875 c 0,0.4351602 0.3585898,0.7937499 0.79375,0.7937499 h 2.1166666 c 0.4351602,0 0.79375,-0.3585897 0.79375,-0.7937499 v -1.5875 c 0,-0.4351602 -0.3585898,-0.79375 -0.79375,-0.79375 z m 0,0.5291666 h 2.1166666 c 0.1511538,0 0.2645834,0.1134269 0.2645834,0.2645834 v 1.5875 c 0,0.1511564 -0.1134296,0.2645833 -0.2645834,0.2645833 H 2.1166666 c -0.1511565,0 -0.2645833,-0.1134269 -0.2645833,-0.2645833 v -1.5875 c 0,-0.1511565 0.1134268,-0.2645834 0.2645833,-0.2645834 z"
     style="color:#000000;fill:#ffffff;stroke:none;stroke-width:0.264583;stroke-linecap:round;-inkscape-stroke:none"
     id="path16896" />
</svg>
