<?xml version="1.0" encoding="UTF-8" standalone="no"?>
<!-- Created with Inkscape (http://www.inkscape.org/) -->

<svg
   width="24"
   height="24"
   viewBox="0 0 6.3499999 6.3499999"
   version="1.1"
   id="svg5"
   inkscape:version="1.2 (dc2aedaf03, 2022-05-15)"
   sodipodi:docname="emblem-synchronizing.svg"
   xmlns:inkscape="http://www.inkscape.org/namespaces/inkscape"
   xmlns:sodipodi="http://sodipodi.sourceforge.net/DTD/sodipodi-0.dtd"
   xmlns="http://www.w3.org/2000/svg"
   xmlns:svg="http://www.w3.org/2000/svg">
  <sodipodi:namedview
     id="namedview7"
     pagecolor="#ffffff"
     bordercolor="#666666"
     borderopacity="1.0"
     inkscape:pageshadow="2"
     inkscape:pageopacity="0.0"
     inkscape:pagecheckerboard="0"
     inkscape:document-units="px"
     showgrid="false"
     units="px"
     height="48px"
     inkscape:zoom="33.041667"
     inkscape:cx="12.06053"
     inkscape:cy="12.045397"
     inkscape:window-width="1920"
     inkscape:window-height="1014"
     inkscape:window-x="0"
     inkscape:window-y="0"
     inkscape:window-maximized="1"
     inkscape:current-layer="svg5"
     inkscape:showpageshadow="2"
     inkscape:deskcolor="#d1d1d1" />
  <defs
     id="defs2" />
  <circle
     style="fill:#73c48f;fill-opacity:1;stroke-width:0.459148"
     id="path927"
     cx="3.175"
     cy="3.175"
     r="3.175" />
  <path
     id="path925"
     style="fill:#000000;stroke-width:0.243022;opacity:0.5"
     d="M 3.175 0 A 3.175 3.175 0 0 0 0 3.175 A 3.175 3.175 0 0 0 3.175 6.3499999 A 3.175 3.175 0 0 0 6.3499999 3.175 A 3.175 3.175 0 0 0 3.175 0 z M 3.175 0.26458333 A 2.9104166 2.9104166 0 0 1 6.0854166 3.175 A 2.9104166 2.9104166 0 0 1 3.175 6.0854166 A 2.9104166 2.9104166 0 0 1 0.26458333 3.175 A 2.9104166 2.9104166 0 0 1 3.175 0.26458333 z " />
  <path
     d="M 5.2916666,3.1749982 H 4.7625 C 4.76255,2.4608517 4.2853499,1.8347295 3.5967458,1.645442 3.5882758,1.642792 3.5803418,1.639352 3.5718748,1.637242 3.5044058,1.61978 3.435879,1.612371 3.3652352,1.604169 3.3035872,1.596759 3.2387644,1.5875 3.1749998,1.5875 3.0123228,1.5875305 2.8506204,1.612607 2.6955748,1.661848 v 0.00847 C 2.4747223,1.7382242 2.2714919,1.8538397 2.1002625,2.0089795 L 2.4143229,2.4309899 C 2.5471437,2.294994 2.7207104,2.2068878 2.9104167,2.1579399 v -0.00794 c 0.1005416,-0.023813 0.2090208,-0.032544 0.314325,-0.025135 0.04789,0.00344 0.09234,0.00767 0.1402291,0.016669 0.4942417,0.089429 0.8683625,0.5138208 0.8683625,1.0334625 H 3.7041666 l 0.79375,1.0583333 z M 4.2497375,4.3407523 3.9356771,3.9190065 C 3.8028562,4.0550023 3.6292896,4.1431086 3.4395833,4.1920565 v 0.00794 c -0.1005416,0.02381 -0.2090208,0.032541 -0.314325,0.025133 -0.047028,-0.00281 -0.093852,-0.00838 -0.1402291,-0.016669 C 2.4905229,4.1190315 2.1166667,3.6946399 2.1166667,3.1749982 h 0.5291666 l -0.79375,-1.0583333 -0.79375,1.0583333 H 1.5875 c -5e-5,0.7141464 0.4771501,1.3402688 1.1657542,1.5295562 0.00847,0.00238 0.016404,0.00609 0.024871,0.0082 0.067469,0.017462 0.1359958,0.024871 0.2066396,0.033073 0.061648,0.00741 0.1264708,0.016669 0.1902354,0.016669 0.1626907,-1.162e-4 0.3243934,-0.025281 0.479425,-0.074613 v -0.00794 C 3.8753243,4.6118807 4.0785584,4.4960823 4.2497375,4.3407523 Z"
     style="fill:#474341;stroke-width:0.264583"
     id="path302" />
</svg>
