<?xml version="1.0" encoding="UTF-8" standalone="no"?>
<!-- Created with Inkscape (http://www.inkscape.org/) -->

<svg
   width="24"
   height="24"
   viewBox="0 0 6.3499999 6.3499999"
   version="1.1"
   id="svg5"
   inkscape:version="1.2 (dc2aedaf03, 2022-05-15)"
   sodipodi:docname="emblem-unreadable.svg"
   xmlns:inkscape="http://www.inkscape.org/namespaces/inkscape"
   xmlns:sodipodi="http://sodipodi.sourceforge.net/DTD/sodipodi-0.dtd"
   xmlns="http://www.w3.org/2000/svg"
   xmlns:svg="http://www.w3.org/2000/svg">
  <sodipodi:namedview
     id="namedview7"
     pagecolor="#ffffff"
     bordercolor="#666666"
     borderopacity="1.0"
     inkscape:pageshadow="2"
     inkscape:pageopacity="0.0"
     inkscape:pagecheckerboard="0"
     inkscape:document-units="px"
     showgrid="false"
     units="px"
     height="48px"
     inkscape:zoom="33.041667"
     inkscape:cx="11.984867"
     inkscape:cy="12.015132"
     inkscape:window-width="1920"
     inkscape:window-height="1014"
     inkscape:window-x="0"
     inkscape:window-y="0"
     inkscape:window-maximized="1"
     inkscape:current-layer="svg5"
     inkscape:showpageshadow="2"
     inkscape:deskcolor="#d1d1d1" />
  <defs
     id="defs2" />
  <circle
     style="fill:#cf3b00;fill-opacity:1;stroke-width:0.459148"
     id="path927"
     cx="3.175"
     cy="3.175"
     r="3.175" />
  <path
     d="m 1.984375,1.5877645 c -0.219188,0 -0.396875,0.1776863 -0.396875,0.396875 9.26e-5,0.1052222 0.041967,0.2061025 0.1164167,0.2804584 L 2.6138177,3.1752645 1.7036521,4.0854312 C 1.6292991,4.1598322 1.5875225,4.2607044 1.5875,4.3658895 c 0,0.2191888 0.177687,0.396875 0.396875,0.396875 0.1052224,-9.26e-5 0.2061012,-0.041968 0.2804573,-0.1164167 l 0.9101666,-0.909902 0.9061979,0.9061979 c 0.07471,0.07679 0.177292,0.1201129 0.2844271,0.1201208 0.2191888,0 0.396875,-0.1776862 0.396875,-0.396875 C 4.7624063,4.2606674 4.7205334,4.1597897 4.6460823,4.0854312 L 3.7361802,3.1752645 4.6423781,2.2690666 c 0.07679,-0.07471 0.1201129,-0.177292 0.1201208,-0.2844271 0,-0.2191887 -0.1776862,-0.396875 -0.396875,-0.396875 -0.1052221,9.26e-5 -0.2060998,0.041966 -0.2804583,0.1164167 L 3.1749989,2.6140833 2.268801,1.7078854 c -0.00132,-0.00132 -0.00265,-0.00265 -0.00397,-0.00397 C 2.1904762,1.6294682 2.0895974,1.5875926 1.984375,1.5875 Z"
     style="fill:#ffffff;stroke-width:0.264583"
     id="path909" />
  <path
     id="path925"
     style="fill:#000000;stroke-width:0.243022;opacity:0.5"
     d="M 3.175 0 A 3.175 3.175 0 0 0 0 3.175 A 3.175 3.175 0 0 0 3.175 6.3499999 A 3.175 3.175 0 0 0 6.3499999 3.175 A 3.175 3.175 0 0 0 3.175 0 z M 3.175 0.26458333 A 2.9104166 2.9104166 0 0 1 6.0854166 3.175 A 2.9104166 2.9104166 0 0 1 3.175 6.0854166 A 2.9104166 2.9104166 0 0 1 0.26458333 3.175 A 2.9104166 2.9104166 0 0 1 3.175 0.26458333 z " />
</svg>
