<?xml version="1.0" encoding="UTF-8" standalone="no"?>
<!-- Created with Inkscape (http://www.inkscape.org/) -->

<svg
   width="24"
   height="24"
   viewBox="0 0 6.3499999 6.3499999"
   version="1.1"
   id="svg5"
   inkscape:version="1.2 (dc2aedaf03, 2022-05-15)"
   sodipodi:docname="emblem-readonly.svg"
   xmlns:inkscape="http://www.inkscape.org/namespaces/inkscape"
   xmlns:sodipodi="http://sodipodi.sourceforge.net/DTD/sodipodi-0.dtd"
   xmlns="http://www.w3.org/2000/svg"
   xmlns:svg="http://www.w3.org/2000/svg">
  <sodipodi:namedview
     id="namedview7"
     pagecolor="#ffffff"
     bordercolor="#666666"
     borderopacity="1.0"
     inkscape:pageshadow="2"
     inkscape:pageopacity="0.0"
     inkscape:pagecheckerboard="0"
     inkscape:document-units="px"
     showgrid="false"
     units="px"
     height="48px"
     inkscape:zoom="33.041667"
     inkscape:cx="12.06053"
     inkscape:cy="12.045397"
     inkscape:window-width="1920"
     inkscape:window-height="1014"
     inkscape:window-x="0"
     inkscape:window-y="0"
     inkscape:window-maximized="1"
     inkscape:current-layer="svg5"
     inkscape:showpageshadow="2"
     inkscape:deskcolor="#d1d1d1" />
  <defs
     id="defs2" />
  <circle
     style="fill:#faa41a;fill-opacity:1;stroke-width:0.459148"
     id="path927"
     cx="3.175"
     cy="3.175"
     r="3.175" />
  <path
     id="path925"
     style="fill:#000000;stroke-width:0.243022;opacity:0.5"
     d="M 3.175 0 A 3.175 3.175 0 0 0 0 3.175 A 3.175 3.175 0 0 0 3.175 6.3499999 A 3.175 3.175 0 0 0 6.3499999 3.175 A 3.175 3.175 0 0 0 3.175 0 z M 3.175 0.26458333 A 2.9104166 2.9104166 0 0 1 6.0854166 3.175 A 2.9104166 2.9104166 0 0 1 3.175 6.0854166 A 2.9104166 2.9104166 0 0 1 0.26458333 3.175 A 2.9104166 2.9104166 0 0 1 3.175 0.26458333 z " />
  <path
     d="m 3.175,1.3229166 c -0.5863166,0 -1.0583333,0.4820708 -1.0583333,1.075002 V 2.9104165 C 1.8235084,2.9104165 1.5875,3.1464249 1.5875,3.4395832 v 1.0578042 c 0,0.2931583 0.2360084,0.5291666 0.5291667,0.5291666 h 2.1150791 c 0.2931584,0 0.5291667,-0.2360083 0.5291667,-0.5291666 V 3.4395832 C 4.7614975,3.1477105 4.5252066,2.9107084 4.2333333,2.9104165 V 2.397654 C 4.2333333,1.8049874 3.7613167,1.3229166 3.175,1.3229166 Z m 0,0.5291666 c 0.2931583,0 0.5291667,0.2360084 0.5291667,0.5291667 V 2.9104165 H 2.6458334 V 2.3812499 c 0,-0.2931583 0.2360083,-0.5291667 0.5291666,-0.5291667 z"
     style="color:#000000;fill:#474341;stroke-width:0.264583"
     id="path5635" />
</svg>
