<?xml version="1.0" encoding="UTF-8" standalone="no"?>
<!-- Created with Inkscape (http://www.inkscape.org/) -->

<svg
   width="64"
   height="64"
   viewBox="0 0 16.933333 16.933333"
   version="1.1"
   id="svg5"
   inkscape:version="1.1.2 (0a00cf5339, 2022-02-04, custom)"
   sodipodi:docname="application-x-firmware.svg"
   xmlns:inkscape="http://www.inkscape.org/namespaces/inkscape"
   xmlns:sodipodi="http://sodipodi.sourceforge.net/DTD/sodipodi-0.dtd"
   xmlns="http://www.w3.org/2000/svg"
   xmlns:svg="http://www.w3.org/2000/svg">
  <sodipodi:namedview
     id="namedview7"
     pagecolor="#ffffff"
     bordercolor="#666666"
     borderopacity="1.0"
     inkscape:pageshadow="2"
     inkscape:pageopacity="0.0"
     inkscape:pagecheckerboard="0"
     inkscape:document-units="px"
     showgrid="false"
     units="px"
     height="48px"
     inkscape:zoom="12.53125"
     inkscape:cx="32.0399"
     inkscape:cy="32"
     inkscape:window-width="1920"
     inkscape:window-height="1017"
     inkscape:window-x="0"
     inkscape:window-y="0"
     inkscape:window-maximized="1"
     inkscape:current-layer="svg5" />
  <defs
     id="defs2" />
  <path
     id="rect845"
     style="opacity:1;fill:#6f6f6f;stroke-width:0.264583;fill-opacity:1"
     d="M 3.4395832,0.79374999 H 10.186458 L 14.552083,5.1593749 V 15.610417 c 0,0.586316 -0.472017,1.058333 -1.058334,1.058333 H 3.4395832 c -0.5863167,0 -1.0583333,-0.472017 -1.0583333,-1.058333 V 1.8520833 c 0,-0.5863167 0.4720166,-1.05833331 1.0583333,-1.05833331 z"
     sodipodi:nodetypes="sccssssss" />
  <path
     id="rect1249"
     style="opacity:1;fill:#ececec;stroke-width:0.264583;fill-opacity:1"
     d="m 3.571875,1.0583333 6.482292,1e-7 4.233333,4.2333332 1e-6,9.6572914 c 0,0.513027 -0.413015,0.926042 -0.926042,0.926042 H 3.571875 c -0.5130271,0 -0.9260417,-0.413015 -0.9260417,-0.926042 V 1.984375 c 0,-0.5130271 0.4130146,-0.9260417 0.9260417,-0.9260417 z"
     sodipodi:nodetypes="sccssssss" />
  <path
     id="rect3450"
     style="opacity:0.5;fill:#6f6f6f;stroke-width:0.264583"
     d="m 10.054167,1.0583334 4.233333,4.2333332 1e-6,0.7937502 h -3.439584 c -0.586318,0 -1.0583339,-0.4720166 -1.0583339,-1.0583333 V 1.0583333 Z"
     sodipodi:nodetypes="cccsscc" />
  <path
     id="rect2783"
     style="opacity:1;fill:#fafafa;fill-opacity:1;stroke-width:0.264583"
     d="m 14.2875,5.2916666 h -3.175001 c -0.586316,0 -1.058332,-0.4720167 -1.058332,-1.0583333 V 1.0583334 Z"
     sodipodi:nodetypes="csscc" />
  <path
     d="m 7.0114568,8.2020832 c -0.2198687,0 -0.3735917,0.178329 -0.3968747,0.3968747 V 8.9958336 H 5.9531234 c -0.2198677,0 -0.3968747,0.177006 -0.3968747,0.396875 v 3.1750004 c 0,0.219869 0.177007,0.396875 0.3968747,0.396875 h 0.6614587 v 0.396875 c 0,0.219869 0.177006,0.396875 0.3968747,0.396875 0.219868,0 0.4190997,-0.178065 0.3968747,-0.396875 v -0.396875 h 0.7937497 v 0.396875 c 0,0.219869 0.177006,0.396875 0.3968747,0.396875 0.219868,0 0.3968747,-0.177006 0.3968747,-0.396875 v -0.396875 h 0.7937497 v 0.396875 c 0,0.219869 0.177006,0.396875 0.3968747,0.396875 0.219869,0 0.396875,-0.177006 0.396875,-0.396875 v -0.396875 h 0.661458 c 0.219869,0 0.396875,-0.177006 0.396875,-0.396875 V 9.3927086 c 0,-0.219869 -0.177006,-0.396875 -0.396875,-0.396875 H 10.58333 V 8.5989579 c 0,-0.2198687 -0.177006,-0.3968747 -0.396875,-0.3968747 -0.2198687,0 -0.3968747,0.177006 -0.3968747,0.3968747 V 8.9958336 H 8.9958306 V 8.5989579 c 0,-0.2198687 -0.1770067,-0.3968747 -0.3968747,-0.3968747 -0.2198687,0 -0.3968747,0.177006 -0.3968747,0.3968747 V 8.9958336 H 7.4083315 V 8.5989579 c 0,-0.2198687 -0.1770067,-0.3968747 -0.3968747,-0.3968747 z M 6.3499981,9.7895833 h 4.4979149 v 0.3968747 c -1.0583327,0 -1.0583327,1.587501 0,1.587501 v 0.396875 H 6.3499981 Z"
     style="opacity:0.7;fill:#474341;fill-opacity:1;stroke-width:0.264583;filter:url(#filter1113)"
     id="path2441" />
</svg>
