<?xml version="1.0" encoding="UTF-8" standalone="no"?>
<!-- Created with Inkscape (http://www.inkscape.org/) -->

<svg
   width="64"
   height="64"
   viewBox="0 0 16.933333 16.933333"
   version="1.1"
   id="svg5"
   inkscape:version="1.2 (dc2aedaf03, 2022-05-15)"
   sodipodi:docname="application-excel.svg"
   xmlns:inkscape="http://www.inkscape.org/namespaces/inkscape"
   xmlns:sodipodi="http://sodipodi.sourceforge.net/DTD/sodipodi-0.dtd"
   xmlns="http://www.w3.org/2000/svg"
   xmlns:svg="http://www.w3.org/2000/svg">
  <sodipodi:namedview
     id="namedview7"
     pagecolor="#ffffff"
     bordercolor="#666666"
     borderopacity="1.0"
     inkscape:pageshadow="2"
     inkscape:pageopacity="0.0"
     inkscape:pagecheckerboard="0"
     inkscape:document-units="px"
     showgrid="false"
     units="px"
     height="48px"
     inkscape:zoom="12.796875"
     inkscape:cx="32"
     inkscape:cy="32"
     inkscape:window-width="1846"
     inkscape:window-height="1016"
     inkscape:window-x="0"
     inkscape:window-y="0"
     inkscape:window-maximized="1"
     inkscape:current-layer="svg5"
     inkscape:showpageshadow="2"
     inkscape:deskcolor="#d1d1d1" />
  <defs
     id="defs2" />
  <path
     id="rect845"
     style="opacity:1;fill:#234c31;stroke-width:0.264583;fill-opacity:1"
     d="M 3.4395832,0.79374999 H 10.186458 L 14.552083,5.1593749 V 15.610417 c 0,0.586316 -0.472017,1.058333 -1.058334,1.058333 H 3.4395832 c -0.5863167,0 -1.0583333,-0.472017 -1.0583333,-1.058333 V 1.8520833 c 0,-0.5863167 0.4720166,-1.05833331 1.0583333,-1.05833331 z"
     sodipodi:nodetypes="sccssssss" />
  <path
     id="rect1249"
     style="opacity:1;fill:#479863;stroke-width:0.264583;fill-opacity:1"
     d="m 3.571875,1.0583333 6.482292,1e-7 4.233333,4.2333332 1e-6,9.6572914 c 0,0.513027 -0.413015,0.926042 -0.926042,0.926042 H 3.571875 c -0.5130271,0 -0.9260417,-0.413015 -0.9260417,-0.926042 V 1.984375 c 0,-0.5130271 0.4130146,-0.9260417 0.9260417,-0.9260417 z"
     sodipodi:nodetypes="sccssssss" />
  <rect
     style="opacity:0.25;fill:#ffffff;stroke-width:1.05833;stroke-linejoin:bevel"
     id="rect25302"
     width="6.8791666"
     height="8.4666662"
     x="6.0854163"
     y="6.614634"
     ry="0.52916664" />
  <path
     id="rect29937"
     style="opacity:0.5;fill:#ffffff;fill-opacity:1;stroke-width:2.11666;stroke-linejoin:bevel"
     d="M 6.0854167,8.7313008 V 10.847967 H 9.5250006 V 8.7313008 Z m 3.4395839,2.1166662 v 2.116667 h 3.4395834 v -2.116666 z"
     sodipodi:nodetypes="cccccccccc" />
  <path
     id="path29903"
     style="opacity:0.7;fill:#ffffff;stroke-width:1.05833;stroke-linejoin:bevel"
     d="m 6.0854168,10.847967 v 3.704167 c 0,0.293157 0.2360088,0.529167 0.5291665,0.529167 h 5.8208347 c 0.293158,0 0.529166,-0.23601 0.529166,-0.529167 v -1.5875 H 9.5250006 v -2.116667 z"
     sodipodi:nodetypes="csccscccc" />
  <path
     id="rect28337"
     style="opacity:0.3;fill:#ffffff;stroke-width:1.05833;stroke-linejoin:bevel"
     d="M 6.6011476,6.6146341 C 6.3143711,6.6218513 6.0854169,6.8552235 6.0854169,7.1438008 v 1.5875 H 9.5250006 V 6.6146341 H 6.6145834 c -0.00458,0 -0.00888,-1.146e-4 -0.01344,0 z m 2.923853,2.1166667 V 10.847967 H 12.964584 V 8.7313008 Z"
     sodipodi:nodetypes="cscccsccccccc" />
  <rect
     style="fill:#479863;fill-opacity:1;stroke-width:0.264583"
     id="rect3242"
     width="5.2916665"
     height="5.2916665"
     x="3.4395833"
     y="8.2020836"
     ry="0.79374999" />
  <rect
     style="fill:#ffffff;stroke-width:0.264583"
     id="rect2687"
     width="4.7624998"
     height="4.7624998"
     x="3.7041669"
     y="8.4666672"
     ry="0.52916646" />
  <path
     id="rect4044"
     style="fill:#479863;stroke-width:0.264583;fill-opacity:1"
     d="M 4.7625,9.2604165 5.8208334,10.847916 4.7625,12.435416 h 0.5291667 l 0.79375,-1.190625 0.79375,1.190625 H 7.4083333 L 6.35,10.847916 7.4083333,9.2604165 H 6.8791667 l -0.79375,1.1906245 -0.79375,-1.1906245 z" />
  <path
     id="rect3450"
     style="opacity:0.5;fill:#234c31;stroke-width:0.264583;fill-opacity:1"
     d="m 10.054167,1.0583334 4.233333,4.2333332 1e-6,0.7937502 h -3.439584 c -0.586318,0 -1.0583339,-0.4720166 -1.0583339,-1.0583333 V 1.0583333 Z"
     sodipodi:nodetypes="cccsscc" />
  <path
     id="rect2783"
     style="opacity:1;fill:#73c48f;fill-opacity:1;stroke-width:0.264583"
     d="m 14.2875,5.2916666 h -3.175001 c -0.586316,0 -1.058332,-0.4720167 -1.058332,-1.0583333 V 1.0583334 Z"
     sodipodi:nodetypes="csscc" />
</svg>
