<?xml version="1.0" encoding="UTF-8" standalone="no"?>
<!-- Created with Inkscape (http://www.inkscape.org/) -->

<svg
   width="64"
   height="64"
   viewBox="0 0 16.933333 16.933333"
   version="1.1"
   id="svg5"
   inkscape:version="1.2 (dc2aedaf03, 2022-05-15)"
   sodipodi:docname="application-x-pap.svg"
   xmlns:inkscape="http://www.inkscape.org/namespaces/inkscape"
   xmlns:sodipodi="http://sodipodi.sourceforge.net/DTD/sodipodi-0.dtd"
   xmlns="http://www.w3.org/2000/svg"
   xmlns:svg="http://www.w3.org/2000/svg">
  <sodipodi:namedview
     id="namedview7"
     pagecolor="#ffffff"
     bordercolor="#666666"
     borderopacity="1.0"
     inkscape:pageshadow="2"
     inkscape:pageopacity="0.0"
     inkscape:pagecheckerboard="0"
     inkscape:document-units="px"
     showgrid="false"
     units="px"
     height="48px"
     inkscape:zoom="6.265625"
     inkscape:cx="5.9052369"
     inkscape:cy="39.98005"
     inkscape:window-width="1920"
     inkscape:window-height="1014"
     inkscape:window-x="0"
     inkscape:window-y="0"
     inkscape:window-maximized="1"
     inkscape:current-layer="svg5"
     inkscape:showpageshadow="2"
     inkscape:deskcolor="#d1d1d1" />
  <defs
     id="defs2" />
  <path
     id="rect845"
     style="opacity:1;fill:#6f6f6f;stroke-width:0.264583;fill-opacity:1"
     d="M 3.4395832,0.79374999 H 10.186458 L 14.552083,5.1593749 V 15.610417 c 0,0.586316 -0.472017,1.058333 -1.058334,1.058333 H 3.4395832 c -0.5863167,0 -1.0583333,-0.472017 -1.0583333,-1.058333 V 1.8520833 c 0,-0.5863167 0.4720166,-1.05833331 1.0583333,-1.05833331 z"
     sodipodi:nodetypes="sccssssss" />
  <path
     id="rect1249"
     style="opacity:1;fill:#ececec;stroke-width:0.264583;fill-opacity:1"
     d="m 3.571875,1.0583333 6.482292,1e-7 4.233333,4.2333332 1e-6,9.6572914 c 0,0.513027 -0.413015,0.926042 -0.926042,0.926042 H 3.571875 c -0.5130271,0 -0.9260417,-0.413015 -0.9260417,-0.926042 V 1.984375 c 0,-0.5130271 0.4130146,-0.9260417 0.9260417,-0.9260417 z"
     sodipodi:nodetypes="sccssssss" />
  <path
     d="m 12.435417,11.244791 c 0,1.095931 -1.776871,1.984375 -3.9687504,1.984375 -2.1918798,0 -3.96875,-0.888444 -3.96875,-1.984375 0,-1.09593 1.7768702,-1.9843745 3.96875,-1.9843745 2.1918794,0 3.9687504,0.8884445 3.9687504,1.9843745 z"
     style="fill:#777bb3;stroke-width:0.264583"
     id="path6808" />
  <path
     id="rect3450"
     style="opacity:0.5;fill:#6f6f6f;stroke-width:0.264583"
     d="m 10.054167,1.0583334 4.233333,4.2333332 1e-6,0.7937502 h -3.439584 c -0.586318,0 -1.0583339,-0.4720166 -1.0583339,-1.0583333 V 1.0583333 Z"
     sodipodi:nodetypes="cccsscc" />
  <path
     id="rect2783"
     style="opacity:1;fill:#fafafa;fill-opacity:1;stroke-width:0.264583"
     d="m 14.2875,5.2916666 h -3.175001 c -0.586316,0 -1.058332,-0.4720167 -1.058332,-1.0583333 V 1.0583334 Z"
     sodipodi:nodetypes="csscc" />
</svg>
