<?xml version="1.0" encoding="UTF-8" standalone="no"?>
<!-- Created with Inkscape (http://www.inkscape.org/) -->

<svg
   width="64"
   height="64"
   viewBox="0 0 16.933333 16.933333"
   version="1.1"
   id="svg5"
   inkscape:version="1.2 (dc2aedaf03, 2022-05-15)"
   sodipodi:docname="application-x-virtualbox-vbox.svg"
   xmlns:inkscape="http://www.inkscape.org/namespaces/inkscape"
   xmlns:sodipodi="http://sodipodi.sourceforge.net/DTD/sodipodi-0.dtd"
   xmlns="http://www.w3.org/2000/svg"
   xmlns:svg="http://www.w3.org/2000/svg">
  <sodipodi:namedview
     id="namedview7"
     pagecolor="#ffffff"
     bordercolor="#666666"
     borderopacity="1.0"
     inkscape:pageshadow="2"
     inkscape:pageopacity="0.0"
     inkscape:pagecheckerboard="0"
     inkscape:document-units="px"
     showgrid="false"
     units="px"
     height="48px"
     inkscape:zoom="12.765625"
     inkscape:cx="31.960832"
     inkscape:cy="32"
     inkscape:window-width="1846"
     inkscape:window-height="1011"
     inkscape:window-x="74"
     inkscape:window-y="32"
     inkscape:window-maximized="1"
     inkscape:current-layer="svg5"
     inkscape:showpageshadow="2"
     inkscape:deskcolor="#d1d1d1" />
  <defs
     id="defs2" />
  <path
     id="rect845"
     style="opacity:1;fill:#0c3b69;stroke-width:0.264583;fill-opacity:1"
     d="M 3.4395832,0.79374999 H 10.186458 L 14.552083,5.1593749 V 15.610417 c 0,0.586316 -0.472017,1.058333 -1.058334,1.058333 H 3.4395832 c -0.5863167,0 -1.0583333,-0.472017 -1.0583333,-1.058333 V 1.8520833 c 0,-0.5863167 0.4720166,-1.05833331 1.0583333,-1.05833331 z"
     sodipodi:nodetypes="sccssssss" />
  <path
     id="rect1249"
     style="opacity:1;fill:#1976d2;stroke-width:0.264583;fill-opacity:1"
     d="m 3.571875,1.0583333 6.482292,1e-7 4.233333,4.2333332 1e-6,9.6572914 c 0,0.513027 -0.413015,0.926042 -0.926042,0.926042 H 3.571875 c -0.5130271,0 -0.9260417,-0.413015 -0.9260417,-0.926042 V 1.984375 c 0,-0.5130271 0.4130146,-0.9260417 0.9260417,-0.9260417 z"
     sodipodi:nodetypes="sccssssss" />
  <path
     id="rect3450"
     style="opacity:0.5;fill:#0c3b69;stroke-width:0.264583;fill-opacity:1"
     d="m 10.054167,1.0583334 4.233333,4.2333332 1e-6,0.7937502 h -3.439584 c -0.586318,0 -1.0583339,-0.4720166 -1.0583339,-1.0583333 V 1.0583333 Z"
     sodipodi:nodetypes="cccsscc" />
  <path
     id="rect2783"
     style="opacity:1;fill:#8cbbe9;fill-opacity:1;stroke-width:0.264583"
     d="m 14.2875,5.2916666 h -3.175001 c -0.586316,0 -1.058332,-0.4720167 -1.058332,-1.0583333 V 1.0583334 Z"
     sodipodi:nodetypes="csscc" />
  <path
     id="path1493"
     style="color:#000000;fill:#ffffff;fill-opacity:1;stroke:none;stroke-width:3.00004;stroke-linejoin:round"
     d="M 8.4673825,8.2065811 C 8.2975983,8.2069741 8.1466947,8.3155337 8.0922061,8.4763361 L 6.8790838,12.114927 6.4635992,10.061534 C 6.4091094,9.9007322 6.2582069,9.7921721 6.0884227,9.7917791 h -1.1835452 -0.01008 c -0.2191985,0 -0.3968911,0.1776931 -0.3968808,0.3968809 -1.05e-5,0.219188 0.1776821,0.396881 0.3968808,0.396881 h 0.9060386 l 0.7030683,2.906066 c 0.1234038,0.35581 0.6269479,0.35581 0.750353,0 L 8.4673825,9.8530162 8.8828673,11.107222 c 0.1179407,0.367511 0.6386131,0.367511 0.7565542,0 l 0.4038575,-1.2247498 0.393005,1.2185488 c 0.05038,0.165434 0.201476,0.279336 0.374401,0.281382 h 1.22785 v -0.0015 c 0.219201,0 0.396895,-0.177696 0.396881,-0.396886 1.1e-5,-0.219188 -0.177682,-0.396881 -0.396881,-0.396881 v -0.0015 h -0.93484 L 10.430083,8.4817621 C 10.309478,8.1249581 9.8058866,8.1214566 9.6797296,8.4763361 L 9.2642449,9.7243404 8.842559,8.4763361 C 8.7880694,8.315534 8.6371668,8.2069732 8.4673825,8.2065811 Z"
     sodipodi:nodetypes="ccccccscscccccccccccccccccccc" />
</svg>
