<?xml version="1.0" encoding="UTF-8" standalone="no"?>
<!-- Created with Inkscape (http://www.inkscape.org/) -->

<svg
   width="64"
   height="64"
   viewBox="0 0 16.933333 16.933333"
   version="1.1"
   id="svg5"
   inkscape:version="1.2 (dc2aedaf03, 2022-05-15)"
   sodipodi:docname="application-x-desktop.svg"
   xmlns:inkscape="http://www.inkscape.org/namespaces/inkscape"
   xmlns:sodipodi="http://sodipodi.sourceforge.net/DTD/sodipodi-0.dtd"
   xmlns="http://www.w3.org/2000/svg"
   xmlns:svg="http://www.w3.org/2000/svg">
  <sodipodi:namedview
     id="namedview7"
     pagecolor="#ffffff"
     bordercolor="#666666"
     borderopacity="1.0"
     inkscape:pageshadow="2"
     inkscape:pageopacity="0.0"
     inkscape:pagecheckerboard="0"
     inkscape:document-units="px"
     showgrid="false"
     units="px"
     height="48px"
     inkscape:zoom="12.53125"
     inkscape:cx="32"
     inkscape:cy="41.57606"
     inkscape:window-width="1920"
     inkscape:window-height="1016"
     inkscape:window-x="0"
     inkscape:window-y="0"
     inkscape:window-maximized="1"
     inkscape:current-layer="svg5"
     inkscape:showpageshadow="2"
     inkscape:deskcolor="#d1d1d1" />
  <defs
     id="defs2" />
  <path
     id="rect845"
     style="opacity:1;fill:#6f6f6f;stroke-width:0.264583;fill-opacity:1"
     d="M 3.4395832,0.79374999 H 10.186458 L 14.552083,5.1593749 V 15.610417 c 0,0.586316 -0.472017,1.058333 -1.058334,1.058333 H 3.4395832 c -0.5863167,0 -1.0583333,-0.472017 -1.0583333,-1.058333 V 1.8520833 c 0,-0.5863167 0.4720166,-1.05833331 1.0583333,-1.05833331 z"
     sodipodi:nodetypes="sccssssss" />
  <path
     id="rect1249"
     style="opacity:1;fill:#ececec;stroke-width:0.264583;fill-opacity:1"
     d="m 3.571875,1.0583333 6.482292,1e-7 4.233333,4.2333332 1e-6,9.6572914 c 0,0.513027 -0.413015,0.926042 -0.926042,0.926042 H 3.571875 c -0.5130271,0 -0.9260417,-0.413015 -0.9260417,-0.926042 V 1.984375 c 0,-0.5130271 0.4130146,-0.9260417 0.9260417,-0.9260417 z"
     sodipodi:nodetypes="sccssssss" />
  <path
     d="m 7.5406255,7.2760408 -0.08176,0.9755184 C 7.1495711,8.3662252 6.8620177,8.5326369 6.6084979,8.7436839 L 5.7216146,8.3261722 4.795573,9.9300753 5.6007,10.489404 c -0.028666,0.16205 -0.043536,0.326239 -0.04445,0.490802 9.53e-5,0.16521 0.014258,0.330112 0.042333,0.492919 l -0.8030104,0.557212 0.9260416,1.603905 0.8847667,-0.416455 c 0.2543921,0.210129 0.5426633,0.375469 0.8524886,0.48895 l 0.08176,0.977636 h 1.8520821 l 0.08176,-0.975784 c 0.30928,-0.114584 0.5968324,-0.280907 0.8503714,-0.49186 l 0.886884,0.417513 0.926041,-1.603905 -0.805127,-0.559329 c 0.02867,-0.16205 0.04354,-0.326239 0.04445,-0.490802 -9.5e-5,-0.16521 -0.01426,-0.330112 -0.04233,-0.492919 L 12.137771,9.9300753 11.21173,8.3261722 10.326963,8.7426259 C 10.07257,8.5324979 9.7842993,8.3671582 9.4744743,8.2536762 l -0.08176,-0.9776354 z m 0.9260414,2.6458325 c 0.5845007,0 1.0583324,0.4738317 1.0583324,1.0583327 0,0.584502 -0.4738317,1.058334 -1.0583324,1.058334 -0.5845014,0 -1.0583334,-0.473832 -1.0583334,-1.058334 0,-0.584501 0.473832,-1.0583327 1.0583334,-1.0583327 z"
     style="fill:#474341;fill-opacity:1;stroke-width:0.264583;opacity:0.7"
     id="path1625" />
  <path
     id="rect3450"
     style="opacity:0.5;fill:#6f6f6f;stroke-width:0.264583"
     d="m 10.054167,1.0583334 4.233333,4.2333332 1e-6,0.7937502 h -3.439584 c -0.586318,0 -1.0583339,-0.4720166 -1.0583339,-1.0583333 V 1.0583333 Z"
     sodipodi:nodetypes="cccsscc" />
  <path
     id="rect2783"
     style="opacity:1;fill:#fafafa;fill-opacity:1;stroke-width:0.264583"
     d="m 14.2875,5.2916666 h -3.175001 c -0.586316,0 -1.058332,-0.4720167 -1.058332,-1.0583333 V 1.0583334 Z"
     sodipodi:nodetypes="csscc" />
</svg>
