<?xml version="1.0" encoding="UTF-8" standalone="no"?>
<!-- Created with Inkscape (http://www.inkscape.org/) -->

<svg
   width="64"
   height="64"
   viewBox="0 0 16.933333 16.933333"
   version="1.1"
   id="svg5"
   inkscape:version="1.2 (dc2aedaf03, 2022-05-15)"
   sodipodi:docname="package-x-rpm.svg"
   xmlns:inkscape="http://www.inkscape.org/namespaces/inkscape"
   xmlns:sodipodi="http://sodipodi.sourceforge.net/DTD/sodipodi-0.dtd"
   xmlns="http://www.w3.org/2000/svg"
   xmlns:svg="http://www.w3.org/2000/svg">
  <sodipodi:namedview
     id="namedview7"
     pagecolor="#ffffff"
     bordercolor="#666666"
     borderopacity="1.0"
     inkscape:pageshadow="2"
     inkscape:pageopacity="0.0"
     inkscape:pagecheckerboard="0"
     inkscape:document-units="px"
     showgrid="false"
     units="px"
     height="48px"
     inkscape:zoom="12.296875"
     inkscape:cx="14.149936"
     inkscape:cy="25.778907"
     inkscape:window-width="1920"
     inkscape:window-height="1009"
     inkscape:window-x="0"
     inkscape:window-y="0"
     inkscape:window-maximized="1"
     inkscape:current-layer="svg5"
     inkscape:showpageshadow="2"
     inkscape:deskcolor="#d1d1d1" />
  <defs
     id="defs2" />
  <rect
     style="opacity:1;fill:#a71d1d;fill-opacity:1;stroke-width:0.264583"
     id="rect845"
     width="14.287499"
     height="13.758333"
     x="1.3229166"
     y="1.5874999"
     ry="1.190625" />
  <rect
     style="opacity:1;fill:#d67d7d;fill-opacity:1;stroke-width:0.264583"
     id="rect1249"
     width="13.758333"
     height="9.260416"
     x="1.5875"
     y="1.8520832"
     ry="1.0583333" />
  <path
     d="m 2.728648,11.1125 -0.1653646,0.206705 2.4970052,1.997814 -2.4825351,1.489313 0.1364244,0.227377 2.6137949,-1.568897 h 6.2776522 l 2.613795,1.568897 0.136424,-0.227377 -2.482535,-1.489313 2.497005,-1.997814 L 14.20495,11.1125 11.59529,13.200229 H 5.3383075 Z"
     style="color:#000000;opacity:0.25;fill:#000000;fill-opacity:1;stroke-width:0.264583;-inkscape-stroke:none"
     id="path1741" />
  <path
     d="M 4.7624999,7.9374999 H 5.2916666 V 6.8791666 H 5.8208332 L 6.3499999,7.9374999 H 6.8791665 L 6.3891582,6.7127437 C 6.6940932,6.518631 6.8788657,6.1823094 6.8791665,5.8208333 c 0,-0.5845014 -0.4738319,-1.0583334 -1.0583333,-1.0583334 H 4.7624999 v 1.0583334 z m 0.5291667,-1.5875 V 5.2916666 h 0.5291666 c 0.2922506,0 0.5291667,0.2369161 0.5291667,0.5291667 0,0.2922505 -0.2369161,0.5291666 -0.5291667,0.5291666 z m 4.7624994,1.5875 v -3.175 h 0.529167 l 0.79375,2.1166667 0.79375,-2.1166667 H 12.7 v 3.175 H 12.170833 V 6.0854166 L 11.641666,7.9374999 H 11.1125 L 10.583333,6.0854166 V 7.9374999 Z M 9.5249998,5.8208333 c 0,-0.5845014 -0.4738319,-1.0583334 -1.0583333,-1.0583334 H 7.4083332 v 3.175 H 7.9374999 V 6.8791666 h 0.5291666 c 0.5845014,0 1.0583333,-0.473832 1.0583333,-1.0583333 z m -0.5291666,0 c 0,0.2922505 -0.2369161,0.5291666 -0.5291667,0.5291666 H 7.9374999 V 5.2916666 h 0.5291666 c 0.2922506,0 0.5291667,0.2369161 0.5291667,0.5291667 z"
     id="path360"
     style="stroke-width:0.264583;fill:#a21010;fill-opacity:1" />
</svg>
