<?xml version="1.0" encoding="UTF-8" standalone="no"?>
<!-- Created with Inkscape (http://www.inkscape.org/) -->

<svg
   width="64"
   height="64"
   viewBox="0 0 16.933333 16.933333"
   version="1.1"
   id="svg5"
   inkscape:version="1.2 (dc2aedaf03, 2022-05-15)"
   sodipodi:docname="text-css.svg"
   xmlns:inkscape="http://www.inkscape.org/namespaces/inkscape"
   xmlns:sodipodi="http://sodipodi.sourceforge.net/DTD/sodipodi-0.dtd"
   xmlns="http://www.w3.org/2000/svg"
   xmlns:svg="http://www.w3.org/2000/svg">
  <sodipodi:namedview
     id="namedview7"
     pagecolor="#ffffff"
     bordercolor="#666666"
     borderopacity="1.0"
     inkscape:pageshadow="2"
     inkscape:pageopacity="0.0"
     inkscape:pagecheckerboard="0"
     inkscape:document-units="px"
     showgrid="false"
     units="px"
     height="48px"
     inkscape:zoom="8.8609319"
     inkscape:cx="18.790349"
     inkscape:cy="33.405064"
     inkscape:window-width="1920"
     inkscape:window-height="1011"
     inkscape:window-x="0"
     inkscape:window-y="0"
     inkscape:window-maximized="1"
     inkscape:current-layer="svg5"
     inkscape:showpageshadow="2"
     inkscape:deskcolor="#d1d1d1" />
  <defs
     id="defs2" />
  <path
     id="rect845"
     style="opacity:1;fill:#6f6f6f;stroke-width:0.264583;fill-opacity:1"
     d="M 3.4395832,0.79374999 H 10.186458 L 14.552083,5.1593749 V 15.610417 c 0,0.586316 -0.472017,1.058333 -1.058334,1.058333 H 3.4395832 c -0.5863167,0 -1.0583333,-0.472017 -1.0583333,-1.058333 V 1.8520833 c 0,-0.5863167 0.4720166,-1.05833331 1.0583333,-1.05833331 z"
     sodipodi:nodetypes="sccssssss" />
  <path
     id="rect1249"
     style="opacity:1;fill:#ececec;stroke-width:0.264583;fill-opacity:1"
     d="m 3.571875,1.0583333 6.482292,1e-7 4.233333,4.2333332 1e-6,9.6572914 c 0,0.513027 -0.413015,0.926042 -0.926042,0.926042 H 3.571875 c -0.5130271,0 -0.9260417,-0.413015 -0.9260417,-0.926042 V 1.984375 c 0,-0.5130271 0.4130146,-0.9260417 0.9260417,-0.9260417 z"
     sodipodi:nodetypes="sccssssss" />
  <path
     d="M 7.1097482,13.806753 C 6.8298277,13.727802 6.6302949,13.602195 6.5111496,13.429934 6.3934399,13.257672 6.3345852,13.049533 6.3345852,12.805517 v -0.441431 c 0,-0.160761 -0.036605,-0.285644 -0.1098154,-0.37465 -0.073208,-0.09043 -0.1858936,-0.135652 -0.3380554,-0.135652 v -0.316521 c 0.1521618,0 0.2648471,-0.04379 0.3380554,-0.131365 0.07321,-0.08899 0.1098154,-0.214586 0.1098154,-0.376793 V 10.58553 c 0,-0.245462 0.058855,-0.45361 0.1765644,-0.6244433 0.1191453,-0.172261 0.3186781,-0.2978682 0.5985986,-0.3768202 l 0.086127,0.2519372 c -0.1579032,0.05024 -0.2705884,0.14067 -0.3380553,0.2713033 -0.066033,0.129205 -0.09905,0.288547 -0.09905,0.478023 v 0.443575 c 0,0.150724 -0.030145,0.283501 -0.090435,0.39833 -0.060291,0.114847 -0.1514449,0.204567 -0.2734601,0.26916 0.1220152,0.06604 0.2131687,0.157189 0.2734601,0.273447 0.06029,0.114847 0.090435,0.246195 0.090435,0.394044 v 0.441431 c 0,0.189477 0.033017,0.348095 0.099049,0.475853 0.067467,0.129187 0.1801521,0.219622 0.3380554,0.271304 z m 2.5677021,0 -0.08613,-0.254079 c 0.155032,-0.05168 0.266282,-0.142117 0.33375,-0.271304 0.06747,-0.127758 0.1012007,-0.286376 0.1012007,-0.475853 v -0.441431 c 0,-0.153599 0.0323,-0.287814 0.0969,-0.402643 0.0646,-0.114847 0.164363,-0.203129 0.299299,-0.264848 -0.134936,-0.05886 -0.234702,-0.145706 -0.299299,-0.260535 -0.0646,-0.114847 -0.0969,-0.250499 -0.0969,-0.406955 V 10.58553 c 0,-0.189476 -0.03373,-0.348818 -0.1012007,-0.478023 -0.06747,-0.1306333 -0.178718,-0.2210683 -0.33375,-0.2713033 l 0.08613,-0.2519372 c 0.278482,0.07895 0.4765787,0.2045592 0.5942907,0.3768202 0.119143,0.1708333 0.178715,0.3789813 0.178715,0.6244433 v 0.443575 c 0,0.162207 0.0366,0.287805 0.109816,0.376793 0.07321,0.08758 0.186613,0.131365 0.340209,0.131365 v 0.316521 c -0.153596,0 -0.266999,0.04522 -0.340209,0.135652 -0.07321,0.08901 -0.109816,0.213889 -0.109816,0.37465 v 0.441431 c 0,0.244016 -0.05957,0.452155 -0.178715,0.624417 -0.117712,0.172261 -0.3158087,0.297868 -0.5942907,0.376819 z"
     id="path417"
     style="opacity:0.7;fill:#6f6f6f;fill-opacity:1;stroke-width:0.264583"
     sodipodi:nodetypes="ccssccccssccccsscccssccccccsscccssccccssccccsscc" />
  <path
     id="rect3450"
     style="opacity:0.5;fill:#6f6f6f;stroke-width:0.264583"
     d="m 10.054167,1.0583334 4.233333,4.2333332 1e-6,0.7937502 h -3.439584 c -0.586318,0 -1.0583339,-0.4720166 -1.0583339,-1.0583333 V 1.0583333 Z"
     sodipodi:nodetypes="cccsscc" />
  <path
     id="rect2783"
     style="opacity:1;fill:#fafafa;fill-opacity:1;stroke-width:0.264583"
     d="m 14.2875,5.2916666 h -3.175001 c -0.586316,0 -1.058332,-0.4720167 -1.058332,-1.0583333 V 1.0583334 Z"
     sodipodi:nodetypes="csscc" />
</svg>
