<?xml version="1.0" encoding="UTF-8" standalone="no"?>
<!-- Created with Inkscape (http://www.inkscape.org/) -->

<svg
   width="64"
   height="64"
   viewBox="0 0 16.933333 16.933333"
   version="1.1"
   id="svg5"
   inkscape:version="1.2 (dc2aedaf03, 2022-05-15)"
   sodipodi:docname="text-x-python.svg"
   xmlns:inkscape="http://www.inkscape.org/namespaces/inkscape"
   xmlns:sodipodi="http://sodipodi.sourceforge.net/DTD/sodipodi-0.dtd"
   xmlns="http://www.w3.org/2000/svg"
   xmlns:svg="http://www.w3.org/2000/svg">
  <sodipodi:namedview
     id="namedview7"
     pagecolor="#ffffff"
     bordercolor="#666666"
     borderopacity="1.0"
     inkscape:pageshadow="2"
     inkscape:pageopacity="0.0"
     inkscape:pagecheckerboard="0"
     inkscape:document-units="px"
     showgrid="false"
     units="px"
     height="48px"
     inkscape:zoom="6.265625"
     inkscape:cx="26.413965"
     inkscape:cy="33.995012"
     inkscape:window-width="1920"
     inkscape:window-height="1011"
     inkscape:window-x="0"
     inkscape:window-y="0"
     inkscape:window-maximized="1"
     inkscape:current-layer="svg5"
     inkscape:showpageshadow="2"
     inkscape:deskcolor="#d1d1d1" />
  <defs
     id="defs2" />
  <path
     id="rect845"
     style="opacity:1;fill:#6f6f6f;stroke-width:0.264583;fill-opacity:1"
     d="M 3.4395832,0.79374999 H 10.186458 L 14.552083,5.1593749 V 15.610417 c 0,0.586316 -0.472017,1.058333 -1.058334,1.058333 H 3.4395832 c -0.5863167,0 -1.0583333,-0.472017 -1.0583333,-1.058333 V 1.8520833 c 0,-0.5863167 0.4720166,-1.05833331 1.0583333,-1.05833331 z"
     sodipodi:nodetypes="sccssssss" />
  <path
     id="rect1249"
     style="opacity:1;fill:#ececec;stroke-width:0.264583;fill-opacity:1"
     d="m 3.571875,1.0583333 6.482292,1e-7 4.233333,4.2333332 1e-6,9.6572914 c 0,0.513027 -0.413015,0.926042 -0.926042,0.926042 H 3.571875 c -0.5130271,0 -0.9260417,-0.413015 -0.9260417,-0.926042 V 1.984375 c 0,-0.5130271 0.4130146,-0.9260417 0.9260417,-0.9260417 z"
     sodipodi:nodetypes="sccssssss" />
  <path
     d="m 8.14669,7.4162707 c -0.709613,0 -1.263385,0.407988 -1.263385,0.914929 v 0.399521 h -0.41672 c -0.50694,0 -0.924718,0.5712355 -0.914929,1.2805823 l 0.0087,0.630767 c 0.0098,0.709348 0.41672,1.263385 0.923396,1.263385 h 3.574521 V 8.3311997 c 0,-0.506941 -0.5715,-0.914929 -1.281113,-0.914929 z"
     style="fill:#3776ab;stroke-width:0.132292"
     id="path1614" />
  <path
     d="m 8.776432,13.237103 c 0.709614,0 1.280851,-0.407988 1.280851,-0.914931 V 11.92265 h 0.399522 c 0.506678,0 0.904877,-0.571237 0.914666,-1.280585 l 0.0087,-0.63077 c 0.0098,-0.7093478 -0.433917,-1.2633863 -0.941126,-1.2633863 h -0.381794 v 0.7937505 c 0,0 0.0087,0.7937508 -0.793751,0.7937508 H 7.675997 c 0,0 -0.793752,0 -0.793752,0.793754 v 1.193008 c 0,0.506943 0.55404,0.914931 1.263653,0.914931 z"
     style="fill:#ffd343;stroke-width:0.132292"
     id="path1692" />
  <path
     d="m 7.675688,7.9454867 c -0.146128,0 -0.264585,0.118458 -0.264585,0.264586 0,0.146125 0.118457,0.264585 0.264585,0.264585 0.146128,0 0.264585,-0.11846 0.264585,-0.264585 0,-0.146128 -0.118457,-0.264586 -0.264585,-0.264586 z m 1.587513,4.2333673 c -0.146128,0 -0.264585,0.118458 -0.264585,0.264587 0,0.146125 0.118457,0.264585 0.264585,0.264585 0.146128,0 0.264585,-0.11846 0.264585,-0.264585 0,-0.146129 -0.118457,-0.264587 -0.264585,-0.264587 z"
     style="fill:#ffffff;fill-opacity:1;stroke-width:0.132293"
     id="path2328" />
  <path
     id="rect3450"
     style="opacity:0.5;fill:#6f6f6f;stroke-width:0.264583"
     d="m 10.054167,1.0583334 4.233333,4.2333332 1e-6,0.7937502 h -3.439584 c -0.586318,0 -1.0583339,-0.4720166 -1.0583339,-1.0583333 V 1.0583333 Z"
     sodipodi:nodetypes="cccsscc" />
  <path
     id="rect2783"
     style="opacity:1;fill:#fafafa;fill-opacity:1;stroke-width:0.264583"
     d="m 14.2875,5.2916666 h -3.175001 c -0.586316,0 -1.058332,-0.4720167 -1.058332,-1.0583333 V 1.0583334 Z"
     sodipodi:nodetypes="csscc" />
</svg>
