<?xml version="1.0" encoding="UTF-8" standalone="no"?>
<!-- Created with Inkscape (http://www.inkscape.org/) -->

<svg
   width="64"
   height="64"
   viewBox="0 0 16.933333 16.933333"
   version="1.1"
   id="svg5"
   inkscape:version="1.2 (dc2aedaf03, 2022-05-15)"
   sodipodi:docname="accessories-document-viewer.svg"
   xmlns:inkscape="http://www.inkscape.org/namespaces/inkscape"
   xmlns:sodipodi="http://sodipodi.sourceforge.net/DTD/sodipodi-0.dtd"
   xmlns="http://www.w3.org/2000/svg"
   xmlns:svg="http://www.w3.org/2000/svg">
  <sodipodi:namedview
     id="namedview7"
     pagecolor="#ffffff"
     bordercolor="#666666"
     borderopacity="1.0"
     inkscape:pageshadow="2"
     inkscape:pageopacity="0.0"
     inkscape:pagecheckerboard="0"
     inkscape:document-units="px"
     showgrid="false"
     units="px"
     height="48px"
     inkscape:zoom="4.4304659"
     inkscape:cx="-55.750344"
     inkscape:cy="39.837797"
     inkscape:window-width="1920"
     inkscape:window-height="1014"
     inkscape:window-x="0"
     inkscape:window-y="0"
     inkscape:window-maximized="1"
     inkscape:current-layer="svg5"
     inkscape:showpageshadow="2"
     inkscape:deskcolor="#d1d1d1" />
  <defs
     id="defs2" />
  <path
     id="rect845"
     style="opacity:1;fill:#6f6f6f;stroke-width:0.264583;fill-opacity:1"
     d="M 3.4395832,0.79374999 H 10.186458 L 14.552083,5.1593749 V 15.610417 c 0,0.586316 -0.472017,1.058333 -1.058334,1.058333 H 3.4395832 c -0.5863167,0 -1.0583333,-0.472017 -1.0583333,-1.058333 V 1.8520833 c 0,-0.5863167 0.4720166,-1.05833331 1.0583333,-1.05833331 z"
     sodipodi:nodetypes="sccssssss" />
  <path
     id="rect1249"
     style="opacity:1;fill:#ececec;stroke-width:0.264583;fill-opacity:1"
     d="m 3.571875,1.0583333 6.482292,1e-7 4.233333,4.2333332 1e-6,9.6572914 c 0,0.513027 -0.413015,0.926042 -0.926042,0.926042 H 3.571875 c -0.5130271,0 -0.9260417,-0.413015 -0.9260417,-0.926042 V 1.984375 c 0,-0.5130271 0.4130146,-0.9260417 0.9260417,-0.9260417 z"
     sodipodi:nodetypes="sccssssss" />
  <path
     id="rect3450"
     style="opacity:0.5;fill:#6f6f6f;stroke-width:0.264583"
     d="m 10.054167,1.0583334 4.233333,4.2333332 1e-6,0.7937502 h -3.439584 c -0.586318,0 -1.0583339,-0.4720166 -1.0583339,-1.0583333 V 1.0583333 Z"
     sodipodi:nodetypes="cccsscc" />
  <path
     id="rect2783"
     style="opacity:1;fill:#fafafa;fill-opacity:1;stroke-width:0.264583"
     d="m 14.2875,5.2916666 h -3.175001 c -0.586316,0 -1.058332,-0.4720167 -1.058332,-1.0583333 V 1.0583334 Z"
     sodipodi:nodetypes="csscc" />
  <path
     d="m 5.003829,8.4666665 c -0.1336808,0 -0.2413291,0.107649 -0.2413291,0.241329 v 0.04651 c 0,0.13368 0.1076483,0.241329 0.2413291,0.241329 h 6.925675 c 0.133681,0 0.241329,-0.107649 0.241329,-0.241329 v -0.04651 c 0,-0.13368 -0.107648,-0.241329 -0.241329,-0.241329 z m 0,1.5874995 c -0.1336808,0 -0.2413291,0.107649 -0.2413291,0.241329 v 0.04651 c 0,0.13368 0.1076483,0.241329 0.2413291,0.241329 h 6.925675 c 0.133681,0 0.241329,-0.107649 0.241329,-0.241329 v -0.04651 c 0,-0.13368 -0.107648,-0.241329 -0.241329,-0.241329 z m 0,1.5875 c -0.1336808,0 -0.2413291,0.107648 -0.2413291,0.241329 v 0.04651 c 0,0.13368 0.1076483,0.241329 0.2413291,0.241329 h 6.925675 c 0.133681,0 0.241329,-0.107649 0.241329,-0.241329 v -0.04651 c 0,-0.133681 -0.107648,-0.241329 -0.241329,-0.241329 z m 0,1.5875 c -0.1336808,0 -0.2413291,0.107648 -0.2413291,0.241329 v 0.04651 c 0,0.13368 0.1076483,0.241329 0.2413291,0.241329 h 4.279842 c 0.13368,0 0.241329,-0.107649 0.241329,-0.241329 v -0.04651 c 0,-0.133681 -0.107649,-0.241329 -0.241329,-0.241329 z"
     style="opacity:0.6;fill:#474341;fill-opacity:1;stroke-width:0.529167"
     id="path2228" />
  <rect
     style="fill:#671d00;fill-opacity:1;stroke-width:0.264583"
     id="rect49816"
     width="6.8791666"
     height="6.3499999"
     x="7.9375005"
     y="10.583333"
     ry="1.4552083" />
  <rect
     style="fill:#cf3b00;fill-opacity:1;stroke-width:0.264583"
     id="rect3945"
     width="6.3499999"
     height="5.2916665"
     x="8.2020845"
     y="10.847917"
     ry="1.3229166" />
  <path
     d="m 11.377082,12.170834 c -0.898335,0.0013 -1.7184057,0.514837 -2.1166664,1.325562 0.3997347,0.808669 1.2195054,1.32 2.1166664,1.320271 0.898336,-0.0013 1.718405,-0.514837 2.116667,-1.325562 -0.399735,-0.808669 -1.219505,-1.320001 -2.116667,-1.320271 z m 0,0.264583 c 0.584502,0 1.058334,0.473832 1.058334,1.058333 0,0.584502 -0.473832,1.058334 -1.058334,1.058334 -0.584501,0 -1.058333,-0.473832 -1.058333,-1.058334 0,-0.584501 0.473832,-1.058333 1.058333,-1.058333 z m 0,0.529167 c -0.29225,0 -0.529166,0.236916 -0.529166,0.529166 0,0.292251 0.236916,0.529167 0.529166,0.529167 0.292251,0 0.529167,-0.236916 0.529167,-0.529167 0,-0.29225 -0.236916,-0.529166 -0.529167,-0.529166 z"
     style="fill:#ffffff;stroke-width:0.264583"
     id="path50864" />
</svg>
