<?xml version="1.0" encoding="UTF-8" standalone="no"?>
<!-- Created with Inkscape (http://www.inkscape.org/) -->

<svg
   width="64"
   height="64"
   viewBox="0 0 16.933333 16.933333"
   version="1.1"
   id="svg5"
   inkscape:version="1.2 (dc2aedaf03, 2022-05-15)"
   sodipodi:docname="accessories-calculator.svg"
   xmlns:inkscape="http://www.inkscape.org/namespaces/inkscape"
   xmlns:sodipodi="http://sodipodi.sourceforge.net/DTD/sodipodi-0.dtd"
   xmlns="http://www.w3.org/2000/svg"
   xmlns:svg="http://www.w3.org/2000/svg">
  <sodipodi:namedview
     id="namedview7"
     pagecolor="#ffffff"
     bordercolor="#666666"
     borderopacity="1.0"
     inkscape:pageshadow="2"
     inkscape:pageopacity="0.0"
     inkscape:pagecheckerboard="0"
     inkscape:document-units="px"
     showgrid="false"
     units="px"
     height="48px"
     inkscape:zoom="8.8167377"
     inkscape:cx="11.115222"
     inkscape:cy="28.582"
     inkscape:window-width="1920"
     inkscape:window-height="1016"
     inkscape:window-x="0"
     inkscape:window-y="0"
     inkscape:window-maximized="1"
     inkscape:current-layer="svg5"
     inkscape:showpageshadow="2"
     inkscape:deskcolor="#d1d1d1" />
  <defs
     id="defs2" />
  <rect
     style="opacity:1;fill:#757575;fill-opacity:1;stroke-width:0.264583"
     id="rect845"
     width="13.758333"
     height="14.287499"
     x="1.5875"
     y="1.5875"
     ry="1.0583333" />
  <rect
     style="opacity:1;fill:#dedede;fill-opacity:1;stroke-width:0.264583"
     id="rect1249"
     width="13.229166"
     height="13.229166"
     x="1.8520836"
     y="1.8520836"
     ry="0.79374999" />
  <path
     d="m 3.704167,2.6458333 c -0.5863167,0 -1.0583334,0.4720167 -1.0583334,1.0583334 v 3.4395832 c 0,0.5863167 0.4720167,1.0583334 1.0583334,1.0583334 h 3.4395836 c 0.586316,0 1.058333,-0.4720167 1.058333,-1.0583334 V 3.7041667 c 0,-0.5863167 -0.472017,-1.0583334 -1.058333,-1.0583334 z m 6.0854166,0 c -0.586317,0 -1.058333,0.4720167 -1.058333,1.0583334 v 3.4395832 c 0,0.5863167 0.472016,1.0583334 1.058333,1.0583334 h 3.4395834 c 0.586317,0 1.058334,-0.4720167 1.058334,-1.0583334 V 3.7041667 c 0,-0.5863167 -0.472017,-1.0583334 -1.058334,-1.0583334 z M 3.704167,8.4666666 c -0.5863167,0 -1.0583334,0.4720165 -1.0583334,1.0583335 v 3.4395829 c 0,0.586317 0.4720167,1.058333 1.0583334,1.058333 h 3.4395836 c 0.586316,0 1.058333,-0.472016 1.058333,-1.058333 V 9.5250001 c 0,-0.586317 -0.472017,-1.0583335 -1.058333,-1.0583335 z m 6.0854166,0 c -0.586317,0 -1.058333,0.4720165 -1.058333,1.0583335 v 3.4395829 c 0,0.586317 0.472016,1.058333 1.058333,1.058333 h 3.4395834 c 0.586317,0 1.058334,-0.472016 1.058334,-1.058333 V 9.5250001 c 0,-0.586317 -0.472017,-1.0583335 -1.058334,-1.0583335 z"
     id="path1551"
     style="stroke-width:0.264583;opacity:0.5;fill:#000000" />
  <path
     d="m 9.7895838,8.4666666 h 3.4395832 c 0.586317,0 1.058333,0.472016 1.058333,1.058333 V 12.7 c 0,0.586316 -0.472016,1.058333 -1.058333,1.058333 H 9.7895838 c -0.586317,0 -1.058334,-0.472017 -1.058334,-1.058333 V 9.5249996 c 0,-0.586317 0.472017,-1.058333 1.058334,-1.058333 z"
     style="fill:#73c48f;stroke-width:0.264583"
     id="path1273"
     sodipodi:nodetypes="sssssssss" />
  <path
     d="m 3.7041667,2.6458333 c -0.5863167,0 -1.0583334,0.4720167 -1.0583334,1.0583334 v 3.1749999 c 0,0.5863167 0.4720167,1.0583333 1.0583334,1.0583333 h 3.4395832 c 0.5863167,0 1.0583334,-0.4720166 1.0583334,-1.0583333 V 3.7041667 c 0,-0.5863167 -0.4720167,-1.0583334 -1.0583334,-1.0583334 z m 6.0854165,0 c -0.5863166,0 -1.0583333,0.4720167 -1.0583333,1.0583334 v 3.1749999 c 0,0.5863167 0.4720167,1.0583333 1.0583333,1.0583333 h 3.4395838 c 0.586316,0 1.058333,-0.4720166 1.058333,-1.0583333 V 3.7041667 c 0,-0.5863167 -0.472017,-1.0583334 -1.058333,-1.0583334 z M 3.7041667,8.4666666 c -0.5863167,0 -1.0583334,0.4720166 -1.0583334,1.0583336 v 3.1750008 c 0,0.586316 0.4720167,1.058333 1.0583334,1.058333 h 3.4395832 c 0.5863167,0 1.0583334,-0.472017 1.0583334,-1.058333 V 9.5250002 c 0,-0.586317 -0.4720167,-1.0583336 -1.0583334,-1.0583336 z"
     style="fill:#aaaaaa;fill-opacity:1;stroke-width:0.264583"
     id="path990"
     sodipodi:nodetypes="sssssssssssssssssssssssssss" />
  <path
     d="m 5.0270833,9.7895831 h 0.79375 v 0.7937499 h -0.79375 z m 0,2.6458329 h 0.79375 v 0.79375 h -0.79375 z m -1.5875,-1.322916 h 3.96875 v 0.79375 h -3.96875 z m 6.35,-0.79375 H 13.229167 V 11.1125 H 9.7895833 Z m 0,1.5875 H 13.229167 V 12.7 H 9.7895833 Z M 13.361459,4.3656249 12.038542,5.6885416 13.361459,7.0114582 12.832292,7.5406249 11.509376,6.2177082 10.186458,7.5406249 9.6572916,7.0114582 10.980209,5.6885416 9.6572916,4.3656249 10.186458,3.8364583 11.509376,5.1593749 12.832292,3.8364583 Z M 5.8208333,3.9687499 V 5.2916666 H 7.14375 v 0.79375 H 5.8208333 v 1.3229166 h -0.79375 V 6.0854166 H 3.7041667 v -0.79375 H 5.0270833 V 3.9687499 Z"
     style="fill-opacity:1;stroke-width:0.264583;fill:#000000;opacity:0.2"
     id="path1606"
     sodipodi:nodetypes="ccccccccccccccccccccccccccccccccccccccccccccccccccc" />
  <path
     d="m 5.0270833,9.5250001 h 0.79375 V 10.31875 h -0.79375 z m 0,2.6458329 h 0.79375 v 0.79375 h -0.79375 z M 3.4395834,10.847917 h 3.96875 v 0.79375 h -3.96875 z m 6.35,-0.79375 h 3.4395836 v 0.79375 H 9.7895834 Z m 0,1.5875 h 3.4395836 v 0.79375 H 9.7895834 Z M 13.361459,4.1010415 12.038542,5.4239582 13.361459,6.7468748 12.832292,7.2760415 11.509376,5.9531248 10.186458,7.2760415 9.6572917,6.7468748 10.980209,5.4239582 9.6572917,4.1010415 10.186458,3.5718749 11.509376,4.8947915 12.832292,3.5718749 Z M 5.8208333,3.7041665 V 5.0270832 H 7.14375 v 0.79375 H 5.8208333 v 1.3229166 h -0.79375 V 5.8208332 H 3.7041667 v -0.79375 H 5.0270833 V 3.7041665 Z"
     style="fill-opacity:1;stroke-width:0.264583;fill:#ffffff"
     id="path1661" />
</svg>
