<?xml version="1.0" encoding="UTF-8" standalone="no"?>
<!-- Created with Inkscape (http://www.inkscape.org/) -->

<svg
   width="64"
   height="64"
   viewBox="0 0 16.933333 16.933334"
   version="1.1"
   id="svg1099"
   inkscape:version="1.1.2 (0a00cf5339, 2022-02-04, custom)"
   sodipodi:docname="applications-accessories.svg"
   xmlns:inkscape="http://www.inkscape.org/namespaces/inkscape"
   xmlns:sodipodi="http://sodipodi.sourceforge.net/DTD/sodipodi-0.dtd"
   xmlns="http://www.w3.org/2000/svg"
   xmlns:svg="http://www.w3.org/2000/svg">
  <sodipodi:namedview
     id="namedview1101"
     pagecolor="#ffffff"
     bordercolor="#666666"
     borderopacity="1.0"
     inkscape:pageshadow="2"
     inkscape:pageopacity="0.0"
     inkscape:pagecheckerboard="0"
     inkscape:document-units="px"
     showgrid="false"
     units="px"
     inkscape:zoom="8.8609319"
     inkscape:cx="22.288852"
     inkscape:cy="34.533614"
     inkscape:window-width="1920"
     inkscape:window-height="1017"
     inkscape:window-x="0"
     inkscape:window-y="0"
     inkscape:window-maximized="1"
     inkscape:current-layer="svg1099" />
  <defs
     id="defs1096" />
  <rect
     style="opacity:1;fill:#7b736e;fill-opacity:1;stroke-width:0.529167;stroke-linecap:round"
     id="rect934"
     width="13.758333"
     height="13.758333"
     x="1.5875"
     y="1.5875"
     ry="1.190625" />
  <path
     d="m 10.584491,4.2336837 c -0.15411,-0.00275 -0.311857,0.010372 -0.466638,0.050641 -0.986895,0.2569104 -1.578805,1.2598932 -1.321365,2.2401742 0.05397,0.2047875 0.15395,0.3909141 0.266133,0.5570722 -0.05741,0.00953 -0.861446,1.3735582 -0.861446,1.3735582 l 1.80454,0.01188 0.42478,-0.5901426 c 0.201084,0.015875 0.412711,0.010821 0.619086,-0.042892 C 12.036476,7.5770642 12.628386,6.5740816 12.370947,5.5938006 12.317236,5.3890133 12.217512,5.2028869 12.105329,5.0367285 L 11.385477,6.2568096 C 11.239152,6.5069785 10.917508,6.5908064 10.667692,6.443878 L 10.204671,6.1751619 C 9.95316,6.0318715 9.868721,5.7097518 10.017602,5.4615092 l 0.719336,-1.2200811 c -0.05027,-0.00397 -0.101076,-0.00683 -0.152447,-0.00775 z m -4.6948028,0.366903 c -0.00553,-9.26e-5 -0.010716,-2.64e-5 -0.016007,0.00106 -0.1217113,0.024871 -0.2343153,0.069705 -0.346234,0.1162715 -0.009,0.3302003 0.045389,0.7624104 -0.083198,0.8759164 -0.1262063,0.1116544 -0.548386,0.018389 -0.8748819,-0.016536 -0.069623,0.1257089 -0.1249177,0.2588313 -0.1648486,0.396875 0.2524125,0.20955 0.6023478,0.4438386 0.6108144,0.611849 0.0082,0.1698625 -0.3312689,0.4259791 -0.561721,0.6614582 0.054504,0.136525 0.1326886,0.2612761 0.214974,0.3803386 0.3214682,-0.066677 0.7218196,-0.1976459 0.8583446,-0.099221 0.1391711,0.1005419 0.1403617,0.5320773 0.1819013,0.8598958 0.1317625,0.039687 0.2708116,0.055563 0.4128955,0.066146 C 6.2704207,8.1612148 6.4212597,7.7560054 6.5837138,7.7104971 6.7506659,7.6634012 7.093061,7.9529877 7.376429,8.1239085 7.490743,8.0416893 7.595901,7.947442 7.690106,7.8427887 7.555962,7.5398408 7.309225,7.1592377 7.376429,6.9994293 7.443629,6.8396211 7.89161,6.7509857 8.201702,6.6356274 c 0.0021,-0.038894 0.01704,-0.076332 0.01704,-0.1157552 0,-0.1013355 -0.01826,-0.2005542 -0.03307,-0.2976563 C 7.865522,6.1370199 7.410151,6.0945544 7.326807,5.9410961 7.243987,5.7886961 7.454614,5.379518 7.557801,5.0646638 7.451803,4.9695725 7.335699,4.8863928 7.211566,4.8166169 6.946983,5.0150544 6.6380717,5.3431378 6.4679417,5.3127107 6.3007253,5.2830774 6.1181387,4.8789263 5.9398098,4.6016429 c -0.015875,0.00278 -0.033507,-7.937e-4 -0.050125,-0.00106 z m 0.3141924,0.9932194 c 0.4923899,0 0.8919374,0.3997855 0.8919374,0.8929688 0,0.4931832 -0.3995475,0.8929686 -0.8919374,0.8929686 -0.4923895,0 -0.8914183,-0.3997854 -0.8914183,-0.8929686 0,-0.4931833 0.3990288,-0.8929688 0.8914183,-0.8929688 z m -0.6475039,3.3894584 0.00413,3.1750005 c 0,0.301625 0.2436945,0.529166 0.5286508,0.529166 h 4.2291975 c 0.276488,0 0.526064,-0.235479 0.526064,-0.496093 l -0.0041,-3.2080735 z"
     style="text-indent:0;text-decoration-line:none;text-transform:none;fill:#000000;stroke-width:0.0700042;opacity:0.1"
     id="path972" />
  <path
     d="m 10.584491,3.9691004 c -0.15411,-0.00275 -0.311857,0.010372 -0.466638,0.050641 -0.9868954,0.2569104 -1.5788051,1.259893 -1.3213651,2.2401742 0.05397,0.2047875 0.1539497,0.390914 0.2661327,0.5570723 -0.05741,0.00953 -0.8614454,1.373558 -0.8614454,1.373558 l 1.8045398,0.01188 0.42478,-0.5901426 c 0.201084,0.015875 0.412711,0.010822 0.619086,-0.042892 0.986895,-0.2569104 1.578805,-1.259893 1.321366,-2.2401742 C 12.317236,5.12443 12.217512,4.9383035 12.105329,4.7721452 L 11.385477,5.9922263 C 11.239152,6.2423951 10.917508,6.3262231 10.667692,6.1792946 L 10.204671,5.9105785 C 9.9531603,5.7672881 9.8687213,5.4451685 10.017602,5.1969258 l 0.719336,-1.2200811 c -0.05027,-0.00397 -0.101076,-0.00683 -0.152447,-0.00775 z m -4.6948031,0.366903 c -0.00553,-9.26e-5 -0.010716,-2.65e-5 -0.016007,0.00106 -0.121711,0.024871 -0.234315,0.069704 -0.3462337,0.1162711 -0.009,0.3302001 0.045389,0.7624102 -0.083198,0.8759164 -0.1262062,0.1116542 -0.548386,0.018389 -0.8748818,-0.016536 -0.069623,0.1257088 -0.1249178,0.2588313 -0.1648487,0.396875 0.2524125,0.20955 0.6023478,0.4438385 0.6108145,0.6118489 0.0082,0.1698625 -0.331269,0.4259792 -0.561721,0.6614584 0.054504,0.136525 0.1326885,0.261276 0.2149739,0.3803385 0.3214682,-0.066677 0.7218198,-0.1976458 0.8583448,-0.099221 0.1391709,0.1005417 0.1403615,0.5320771 0.1819011,0.8598958 0.1317625,0.039687 0.2708116,0.055563 0.4128955,0.066146 C 6.2704207,7.8966337 6.4212597,7.4914243 6.5837138,7.4459159 6.7506659,7.3988201 7.0930606,7.6884066 7.3764293,7.8593274 7.4907426,7.7771081 7.5959012,7.6828609 7.6901061,7.5782076 7.5559623,7.2752597 7.3092252,6.8946565 7.3764293,6.7348482 7.4436335,6.5750399 7.8916102,6.4864045 8.2017022,6.3710461 c 0.0021,-0.038894 0.01704,-0.076332 0.01704,-0.1157552 0,-0.1013354 -0.01826,-0.2005542 -0.03307,-0.2976562 C 7.8655221,5.8724388 7.4101505,5.8299732 7.3268067,5.6765149 7.2439921,5.5241148 7.4546137,5.1149367 7.5578012,4.8000825 7.4518038,4.7049913 7.3356994,4.6218116 7.2115674,4.5520357 6.9469841,4.7504732 6.6380725,5.0785565 6.4679427,5.0481294 6.3007261,5.0184961 6.1181397,4.614345 5.9398106,4.3370617 c -0.015875,0.00278 -0.033507,-7.938e-4 -0.050125,-0.00106 z m 0.3141927,0.9932194 c 0.4923896,0 0.8919369,0.3997854 0.8919369,0.8929687 0,0.4931834 -0.3995473,0.8929688 -0.8919369,0.8929688 -0.4923896,0 -0.8914183,-0.3997854 -0.8914183,-0.8929688 0,-0.4931833 0.3990287,-0.8929687 0.8914183,-0.8929687 z m -0.6475042,3.3894581 0.00413,3.1750001 c 0,0.301625 0.2436945,0.529166 0.5286507,0.529166 h 4.2291979 c 0.276488,0 0.526064,-0.235479 0.526064,-0.496093 l -0.0041,-3.2080731 z"
     style="text-indent:0;text-decoration-line:none;text-transform:none;fill:#ffffff;stroke-width:0.264583"
     id="path1070"
     sodipodi:nodetypes="ccccccccccccccccccccccccccccccccscsccccccccsssssccssccc" />
  <path
     id="rect1524"
     style="opacity:0.5;fill:#000000;fill-opacity:1;stroke-width:2;stroke-linecap:round"
     d="M 10.5 6 C 8.0070001 6 6 8.0070001 6 10.5 L 6 53.5 C 6 55.993 8.0070001 58 10.5 58 L 53.5 58 C 55.993 58 58 55.993 58 53.5 L 58 10.5 C 58 8.0070001 55.993 6 53.5 6 L 10.5 6 z M 11 7 L 53 7 C 55.216 7 57 8.7839999 57 11 L 57 51 C 57 53.216 55.216 55 53 55 L 11 55 C 8.7839999 55 7 53.216 7 51 L 7 11 C 7 8.7839999 8.7839999 7 11 7 z "
     transform="scale(0.26458334)" />
</svg>
