<?xml version="1.0" encoding="UTF-8" standalone="no"?>
<!-- Created with Inkscape (http://www.inkscape.org/) -->

<svg
   width="64"
   height="64"
   viewBox="0 0 16.933333 16.933334"
   version="1.1"
   id="svg1099"
   inkscape:version="1.2 (dc2aedaf03, 2022-05-15)"
   sodipodi:docname="applications-development.svg"
   xmlns:inkscape="http://www.inkscape.org/namespaces/inkscape"
   xmlns:sodipodi="http://sodipodi.sourceforge.net/DTD/sodipodi-0.dtd"
   xmlns="http://www.w3.org/2000/svg"
   xmlns:svg="http://www.w3.org/2000/svg">
  <sodipodi:namedview
     id="namedview1101"
     pagecolor="#ffffff"
     bordercolor="#666666"
     borderopacity="1.0"
     inkscape:pageshadow="2"
     inkscape:pageopacity="0.0"
     inkscape:pagecheckerboard="0"
     inkscape:document-units="px"
     showgrid="false"
     units="px"
     inkscape:zoom="12.859375"
     inkscape:cx="32"
     inkscape:cy="32"
     inkscape:window-width="1846"
     inkscape:window-height="1011"
     inkscape:window-x="0"
     inkscape:window-y="0"
     inkscape:window-maximized="1"
     inkscape:current-layer="svg1099"
     inkscape:showpageshadow="2"
     inkscape:deskcolor="#d1d1d1" />
  <defs
     id="defs1096" />
  <rect
     style="opacity:1;fill:#7b736e;fill-opacity:1;stroke-width:0.529167;stroke-linecap:round"
     id="rect934"
     width="13.758333"
     height="13.758333"
     x="1.5875"
     y="1.5875"
     ry="1.190625" />
  <path
     id="rect1524"
     style="opacity:0.5;fill:#000000;fill-opacity:1;stroke-width:2;stroke-linecap:round"
     d="M 10.5 6 C 8.0070001 6 6 8.0070001 6 10.5 L 6 53.5 C 6 55.993 8.0070001 58 10.5 58 L 53.5 58 C 55.993 58 58 55.993 58 53.5 L 58 10.5 C 58 8.0070001 55.993 6 53.5 6 L 10.5 6 z M 11 7 L 53 7 C 55.216 7 57 8.7839999 57 11 L 57 51 C 57 53.216 55.216 55 53 55 L 11 55 C 8.7839999 55 7 53.216 7 51 L 7 11 C 7 8.7839999 8.7839999 7 11 7 z "
     transform="scale(0.26458334)" />
  <path
     d="m 11.355423,6.4194331 -0.751644,0.7516434 c -0.15547,0.1554703 -0.405795,0.1554704 -0.561266,0 L 9.7618802,6.8904434 c -0.1554703,-0.1554702 -0.1554703,-0.4057956 0,-0.561266 L 10.512793,5.5782649 C 9.9774239,5.3743381 9.3722211,5.5035033 8.9667533,5.9082279 8.5806566,6.2949497 8.4437645,6.8653808 8.612308,7.3852053 L 5.5991572,10.398355 c -0.1554705,0.155471 -0.1554705,0.405796 0,0.561266 l 0.3741774,0.374178 c 0.1554705,0.15547 0.4057955,0.15547 0.561266,0 L 9.5470205,8.3213795 c 0.5201785,0.168658 1.0909975,0.031458 1.4777085,-0.3551762 0.405278,-0.4054449 0.534754,-1.0110512 0.330694,-1.5467702 z"
     style="opacity:0.2;fill:#000000;stroke-width:0.485071;stroke-linejoin:round"
     id="path613" />
  <path
     id="path466"
     style="fill:#ffffff;stroke-width:0.485071;stroke-linejoin:round"
     d="m 11.355423,6.1549013 -0.751644,0.7516434 c -0.15547,0.1554703 -0.405795,0.1554704 -0.561266,0 L 9.7618802,6.6259116 c -0.1554703,-0.1554702 -0.1554703,-0.4057956 0,-0.561266 L 10.512793,5.3137331 C 9.9774239,5.1098063 9.3722211,5.2389715 8.9667533,5.6436961 8.5806566,6.0304179 8.4437645,6.600849 8.612308,7.1206735 L 5.5991572,10.133824 c -0.1554705,0.155471 -0.1554705,0.405795 0,0.561266 l 0.3741774,0.374177 c 0.1554705,0.155471 0.4057955,0.155471 0.561266,0 L 9.5470205,8.0568477 c 0.5201785,0.168658 1.0909975,0.031458 1.4777085,-0.3551762 0.405277,-0.4054449 0.534754,-1.0110512 0.330694,-1.5467702 z"
     sodipodi:nodetypes="csssscccssssccc" />
</svg>
