<?xml version="1.0" encoding="UTF-8" standalone="no"?>
<!-- Created with Inkscape (http://www.inkscape.org/) -->

<svg
   width="64"
   height="64"
   viewBox="0 0 16.933333 16.933334"
   version="1.1"
   id="svg1099"
   inkscape:version="1.2 (dc2aedaf03, 2022-05-15)"
   sodipodi:docname="applications-graphics.svg"
   xmlns:inkscape="http://www.inkscape.org/namespaces/inkscape"
   xmlns:sodipodi="http://sodipodi.sourceforge.net/DTD/sodipodi-0.dtd"
   xmlns="http://www.w3.org/2000/svg"
   xmlns:svg="http://www.w3.org/2000/svg">
  <sodipodi:namedview
     id="namedview1101"
     pagecolor="#ffffff"
     bordercolor="#666666"
     borderopacity="1.0"
     inkscape:pageshadow="2"
     inkscape:pageopacity="0.0"
     inkscape:pagecheckerboard="0"
     inkscape:document-units="px"
     showgrid="false"
     units="px"
     inkscape:zoom="8.8609319"
     inkscape:cx="19.072486"
     inkscape:cy="47.850498"
     inkscape:window-width="1846"
     inkscape:window-height="1011"
     inkscape:window-x="0"
     inkscape:window-y="0"
     inkscape:window-maximized="1"
     inkscape:current-layer="svg1099"
     inkscape:showpageshadow="2"
     inkscape:deskcolor="#d1d1d1" />
  <defs
     id="defs1096" />
  <rect
     style="opacity:1;fill:#48b9c7;fill-opacity:1;stroke-width:0.529167;stroke-linecap:round"
     id="rect934"
     width="13.758333"
     height="13.758333"
     x="1.5875"
     y="-15.345833"
     ry="1.190625"
     transform="scale(1,-1)" />
  <path
     id="rect1524"
     style="opacity:0.5;fill:#000000;fill-opacity:1;stroke-width:2;stroke-linecap:round"
     d="M 10.5 6 C 8.0070001 6 6 8.0070001 6 10.5 L 6 53.5 C 6 55.993 8.0070001 58 10.5 58 L 53.5 58 C 55.993 58 58 55.993 58 53.5 L 58 10.5 C 58 8.0070001 55.993 6 53.5 6 L 10.5 6 z M 11 7 L 53 7 C 55.216 7 57 8.7839999 57 11 L 57 51 C 57 53.216 55.216 55 53 55 L 11 55 C 8.7839999 55 7 53.216 7 51 L 7 11 C 7 8.7839999 8.7839999 7 11 7 z "
     transform="scale(0.26458334)" />
  <path
     d="m 8.3634025,5.5731533 c -0.8374062,0.011642 -1.9626024,0.318008 -1.9435524,1.3017288 0.019844,1.0265807 1.1579648,0.659638 1.250569,1.0790026 0.014023,-0.017727 0.035057,-0.032676 0.049609,-0.049609 C 7.7983451,7.8196087 7.8768417,7.7501238 7.9551583,7.6686321 8.0792479,7.528403 8.2073645,7.3990535 8.3385952,7.2593535 8.7778035,6.7918347 8.7972027,6.7635111 9.8454819,5.9700283 9.4348486,5.7234367 8.9492535,5.5866471 8.5370327,5.5731533 c -0.052914,-0.00185 -0.1178058,-7.937e-4 -0.1736302,0 z m 2.4370585,0 C 10.086088,6.088559 9.130972,6.8836346 8.3737371,7.68982 8.3049451,7.763109 8.2383181,7.8333194 8.1732306,7.9063417 c -0.041008,0.043127 -0.08378,0.07829 -0.1250553,0.1224757 -0.025929,0.030427 -0.049795,0.064656 -0.07493,0.095083 -0.5152655,0.5693595 -1.0235883,1.2402875 -1.4464242,1.8572502 -0.1242695,-0.06334 -0.2803128,-0.07114 -0.4459684,0.03824 -0.2989792,0.197644 -0.2356776,0.906923 -0.8516276,0.906923 0.058208,0.238919 0.6886813,0.235818 1.1146605,0.129191 C 6.7460522,10.954963 6.8689009,10.602228 6.792439,10.307747 6.781737,10.266487 6.762959,10.223977 6.738178,10.182689 7.5241942,9.5314649 8.0798378,8.9897329 8.4610706,8.5853699 8.5563206,8.4877399 8.6715043,8.3605379 8.7990335,8.2189856 9.2768711,7.6892908 9.9598822,6.8547923 10.800461,5.5731533 Z M 7.6084087,6.1803509 c 0.3280833,0 0.5942779,0.2667 0.5942779,0.5953125 0,0.3286125 -0.2661946,0.5953125 -0.5942779,0.5953125 -0.3280834,0 -0.594278,-0.2664354 -0.594278,-0.5953125 0,-0.3288771 0.2659301,-0.5953125 0.594278,-0.5953125 z M 10.492986,6.4433838 C 9.9299554,7.3297353 9.5537973,7.8546342 9.155602,8.2639449 8.9021312,8.5250889 8.6945259,8.7846099 8.5122306,8.9708769 8.1793848,9.3240959 7.7429361,9.7404649 7.261659,10.198192 7.286794,10.781069 7.5837072,11.28831 8.5494363,11.475635 10.096452,11.775672 11.73476,10.75152 11.569925,8.6732209 11.499015,7.7810483 11.012099,6.9741379 10.492986,6.4433838 Z m 0.136427,1.5105009 c 0.529167,0 0.529167,0.7937502 0,0.7937502 -0.529166,0 -0.529166,-0.7937502 0,-0.7937502 z m -0.248047,1.1906252 c 0.529167,0 0.529167,0.7937497 0,0.7937497 -0.5291661,0 -0.5291661,-0.7937497 0,-0.7937497 z M 8.4006082,9.9377436 v 5.29e-4 c 0.5100902,0.0184 0.5100902,0.7748344 0,0.7932344 -0.5291664,0 -0.5291664,-0.7937504 0,-0.7937504 z m 1.1885586,0 v 5.29e-4 c 0.5100902,0.0184 0.5100902,0.7748344 0,0.7932344 -0.5291664,0 -0.5291664,-0.7937504 0,-0.7937504 z"
     id="path416"
     style="opacity:0.2;fill:#000000;stroke-width:0.264583"
     sodipodi:nodetypes="cccccccccccccccccccccccssssscccccccsssssscccccccccc" />
  <path
     d="m 8.3634028,5.2942825 c -0.8374062,0.011642 -1.9626024,0.318008 -1.9435524,1.3017288 0.019844,1.0265807 1.1579648,0.659638 1.250569,1.0790026 0.014023,-0.017727 0.035057,-0.032676 0.049609,-0.049609 C 7.7983454,7.5407379 7.876842,7.471253 7.9551586,7.3897613 8.0792482,7.2495322 8.2073648,7.1201827 8.3385955,6.9804827 8.7778038,6.5129639 8.797203,6.4846403 9.8454819,5.6911575 9.4348489,5.4445659 8.9492538,5.3077763 8.537033,5.2942825 c -0.052914,-0.00185 -0.1178058,-7.937e-4 -0.1736302,0 z m 2.4370582,0 c -0.714372,0.5154057 -1.6694887,1.3104813 -2.4267236,2.1166667 -0.068792,0.073289 -0.135419,0.1434994 -0.2005065,0.2165217 -0.041008,0.043127 -0.08378,0.07829 -0.1250553,0.1224757 -0.025929,0.030427 -0.049795,0.064656 -0.07493,0.095083 C 7.4579801,8.4143899 6.9496573,9.0853169 6.5268214,9.7022809 6.4025519,9.6389409 6.2465086,9.6311409 6.080853,9.7405209 5.7818738,9.9381646 5.8451754,10.647444 5.2292254,10.647444 c 0.058208,0.238919 0.6886813,0.235818 1.1146605,0.129191 0.4021666,-0.100542 0.5250153,-0.453276 0.4485534,-0.747758 -0.010702,-0.04126 -0.02948,-0.08377 -0.054261,-0.1250584 C 7.5241945,9.2525949 8.0798381,8.7108629 8.4610709,8.3064999 8.5563209,8.2088689 8.6715046,8.0816679 8.7990338,7.9401158 9.2768717,7.41042 9.9598822,6.5759215 10.800461,5.2942825 Z M 7.608409,5.9014801 c 0.3280833,0 0.5942779,0.2667 0.5942779,0.5953125 0,0.3286125 -0.2661946,0.5953125 -0.5942779,0.5953125 -0.3280834,0 -0.594278,-0.2664354 -0.594278,-0.5953125 0,-0.3288771 0.2659301,-0.5953125 0.594278,-0.5953125 z M 10.492987,6.164513 C 9.9299559,7.0508645 9.5537979,7.5757634 9.1556023,7.9850738 8.9021315,8.2462176 8.6945262,8.5057399 8.5122309,8.6920059 8.1793851,9.0452249 7.7429364,9.4615939 7.2616593,9.9193206 7.2867943,10.502198 7.5837075,11.009439 8.5494366,11.196764 10.096453,11.496801 11.734761,10.47265 11.569925,8.3943499 11.499015,7.5021775 11.012099,6.6952671 10.492987,6.164513 Z m 0.136427,1.5105009 c 0.529166,0 0.529166,0.79375 0,0.79375 -0.529167,0 -0.529167,-0.79375 0,-0.79375 z m -0.248047,1.190625 c 0.529166,0 0.529166,0.79375 0,0.79375 -0.5291671,0 -0.5291671,-0.79375 0,-0.79375 z m -1.9807585,0.793234 v 5.29e-4 c 0.5100902,0.0184 0.5100902,0.7748341 0,0.7932351 -0.5291664,0 -0.5291664,-0.7937511 0,-0.7937511 z m 1.1885584,0 v 5.29e-4 c 0.5100901,0.0184 0.5100901,0.7748341 0,0.7932351 -0.5291662,0 -0.5291662,-0.7937511 0,-0.7937511 z"
     style="fill:#ffffff;stroke-width:0.264583"
     id="path1900" />
</svg>
