<?xml version="1.0" encoding="UTF-8" standalone="no"?>
<!-- Created with Inkscape (http://www.inkscape.org/) -->

<svg
   width="64"
   height="64"
   viewBox="0 0 16.933333 16.933334"
   version="1.1"
   id="svg1099"
   inkscape:version="1.2 (dc2aedaf03, 2022-05-15)"
   sodipodi:docname="applications-educations.svg"
   xmlns:inkscape="http://www.inkscape.org/namespaces/inkscape"
   xmlns:sodipodi="http://sodipodi.sourceforge.net/DTD/sodipodi-0.dtd"
   xmlns="http://www.w3.org/2000/svg"
   xmlns:svg="http://www.w3.org/2000/svg">
  <sodipodi:namedview
     id="namedview1101"
     pagecolor="#ffffff"
     bordercolor="#666666"
     borderopacity="1.0"
     inkscape:pageshadow="2"
     inkscape:pageopacity="0.0"
     inkscape:pagecheckerboard="0"
     inkscape:document-units="px"
     showgrid="false"
     units="px"
     inkscape:zoom="9.0377085"
     inkscape:cx="23.291302"
     inkscape:cy="25.061662"
     inkscape:window-width="1846"
     inkscape:window-height="1011"
     inkscape:window-x="0"
     inkscape:window-y="0"
     inkscape:window-maximized="1"
     inkscape:current-layer="svg1099"
     inkscape:showpageshadow="2"
     inkscape:deskcolor="#d1d1d1" />
  <defs
     id="defs1096" />
  <rect
     style="opacity:1;fill:#2e7153;fill-opacity:1;stroke-width:0.529167;stroke-linecap:round"
     id="rect934"
     width="13.758333"
     height="13.758333"
     x="1.5875"
     y="1.5875"
     ry="1.190625" />
  <path
     id="rect1524"
     style="opacity:0.5;fill:#000000;fill-opacity:1;stroke-width:2;stroke-linecap:round"
     d="M 10.5 6 C 8.0070001 6 6 8.0070001 6 10.5 L 6 53.5 C 6 55.993 8.0070001 58 10.5 58 L 53.5 58 C 55.993 58 58 55.993 58 53.5 L 58 10.5 C 58 8.0070001 55.993 6 53.5 6 L 10.5 6 z M 11 7 L 53 7 C 55.216 7 57 8.7839999 57 11 L 57 51 C 57 53.216 55.216 55 53 55 L 11 55 C 8.7839999 55 7 53.216 7 51 L 7 11 C 7 8.7839999 8.7839999 7 11 7 z "
     transform="scale(0.26458334)" />
  <path
     d="m 10.528399,6.9626284 c 0,0.012343 -0.0052,0.022586 -0.01553,0.03074 h -0.03074 l 0.01223,-0.018511 c 0.0062,-0.010132 0.01752,-0.014213 0.03405,-0.012231 z m 1.798486,2.4526313 c 0,0.051344 -0.02777,0.1037904 -0.0833,0.1573387 -0.05553,0.049361 -0.0833,0.1018078 -0.0833,0.1573385 l -0.02149,-0.00297 h -0.01224 c -0.01237,0 -0.02159,-0.00407 -0.02776,-0.012231 l 0.03074,-0.024791 c -0.01237,-0.028649 -0.03294,-0.042971 -0.06182,-0.042971 -0.0163,0 -0.03272,0.00407 -0.04925,0.012231 l -0.05553,0.02446 c -0.01851,0.00837 -0.02876,0.0249 -0.03074,0.049582 v 0.037021 l 0.0152,0.015205 c -0.0081,0.00221 -0.0163,0.00331 -0.02446,0.00331 h -0.01851 c -0.0084,0 -0.02071,-0.00221 -0.03702,-0.00661 -0.01454,-0.00595 -0.02689,-0.01818 -0.03702,-0.036691 l -0.05553,0.049251 c -0.0227,0.014322 -0.04231,0.021485 -0.05884,0.021485 -0.01237,0 -0.02666,-0.00507 -0.04298,-0.015205 -0.01237,-0.00441 -0.0227,-0.00341 -0.03107,0.00297 -0.0061,0.00617 -0.0092,0.018511 -0.0092,0.03702 v 0.046276 l -0.141784,-0.086609 c -0.02865,0.053549 -0.07085,0.080322 -0.126599,0.080322 -0.02468,0 -0.06677,-0.00716 -0.126267,-0.021485 l -0.126598,-0.021815 -0.04628,0.00331 -0.07107,-0.071066 c -0.01631,0 -0.02865,0.011244 -0.03702,0.033716 l -0.01851,0.052557 0.01553,0.015535 -0.01553,0.015205 c -0.02472,-0.055535 -0.07198,-0.097624 -0.141837,-0.1262714 -0.06985,-0.03085 -0.140812,-0.046276 -0.21287,-0.046276 -0.0227,-0.012343 -0.04947,-0.044293 -0.08032,-0.095857 -0.02468,-0.053327 -0.05035,-0.079991 -0.07702,-0.079991 -0.01851,0 -0.03702,0.00617 -0.05553,0.018511 -0.01234,-0.012343 -0.03184,-0.012343 -0.05851,0 l -0.04958,0.018511 c -0.01432,0 -0.02556,-0.014322 -0.03371,-0.042971 -0.03922,0 -0.09476,-0.022698 -0.166594,-0.068092 C 9.99259,9.4191165 9.9411355,9.3964195 9.908302,9.3964195 l -0.049581,0.00926 c 0.018732,-0.024681 0.028097,-0.048259 0.028097,-0.070736 0,-0.022477 -0.024681,-0.057514 -0.074042,-0.1051122 C 9.763415,9.1804703 9.74182,9.1341943 9.74799,9.0910032 c -0.047377,0 -0.071066,0.021594 -0.071066,0.064786 l 0.00331,0.046276 c 0,0.020715 0.00199,0.03614 0.00595,0.046276 l -0.00926,0.040326 c -0.028648,-0.00837 -0.046166,-0.04231 -0.052557,-0.1018078 0,-0.057735 -0.016527,-0.094755 -0.049582,-0.1110625 L 9.645851,9.0047309 C 9.619407,8.9965709 9.595829,8.9904089 9.575114,8.9862199 9.554399,8.9820299 9.530711,8.9799399 9.504048,8.9799399 l -0.00628,-0.046276 c 0,-0.024681 0.00518,-0.055531 0.015535,-0.092552 l 0.015536,-0.086272 c 0,-0.022699 -0.00518,-0.043301 -0.015536,-0.061812 -0.00617,-0.018511 -0.022699,-0.038012 -0.049581,-0.058506 0.00638,-0.00617 0.011569,-0.021594 0.015535,-0.046277 L 9.473307,8.5234589 C 9.434083,8.5111159 9.41447,8.4874289 9.41447,8.4523929 L 9.432981,8.3413303 c -0.00617,-0.014322 -0.011244,-0.02457 -0.015205,-0.03074 -0.035038,0.00617 -0.059719,0.026774 -0.074042,0.061812 l -0.03702,0.095857 -0.01256,-0.052887 c 0,-0.022477 0.014434,-0.054319 0.043301,-0.095528 0.03085,-0.041208 0.046276,-0.070956 0.046276,-0.089247 l -0.00628,-0.031071 0.040326,0.00926 c 0.00816,-0.00617 0.015314,-0.017519 0.021486,-0.034046 l 0.00628,-0.049251 v -0.042971 c 0,-0.022698 0.00307,-0.04231 0.00926,-0.058837 0.00617,-0.016527 0.022699,-0.025783 0.049582,-0.027766 0.012118,-0.010357 0.021264,-0.021707 0.027435,-0.034046 0.00816,-0.014322 0.012231,-0.034817 0.012231,-0.06148 -0.00617,-0.020715 -0.020493,-0.031071 -0.042971,-0.031071 -0.018511,0 -0.032945,0.00221 -0.043301,0.00661 l -0.024791,0.00892 c 0.00617,-0.028648 0.03603,-0.06666 0.089577,-0.1140371 0.055531,-0.047377 0.083297,-0.09156 0.083297,-0.1325479 0,-0.024681 -0.00518,-0.047377 -0.015535,-0.068092 h 0.024791 c 0,0.049361 0.00209,0.090569 0.00628,0.123623 0.00617,0.03085 0.027766,0.052447 0.064786,0.064786 0.034817,0.00617 0.055311,-0.011456 0.061481,-0.052887 0.00617,-0.042971 0.024682,-0.067541 0.055531,-0.073711 l 0.00661,-0.034046 c 0,-0.012343 -0.00628,-0.03592 -0.018841,-0.070736 L 9.772454,7.4743133 c 0,-0.020272 0.00518,-0.035699 0.015535,-0.046276 l -0.00628,0.031071 c 0,0.028648 0.015426,0.057514 0.046277,0.086603 l 0.086271,0.070736 c 0.028866,-0.018511 0.054649,-0.047267 0.077348,-0.086271 0.024682,-0.039004 0.041208,-0.081203 0.049582,-0.1265981 -0.0022,-0.010357 -0.01366,-0.020602 -0.03438,-0.03074 -0.018511,-0.010357 -0.03085,-0.02369 -0.03702,-0.039996 0.022699,-0.010357 0.0433,-0.00528 0.061811,0.015205 l 0.05553,0.055531 0.07107,-0.086272 0.0152,0.015535 c 0.01234,-0.00837 0.0206,-0.0249 0.02479,-0.049582 l -0.01223,-0.079991 c 0,-0.020716 0.01432,-0.035148 0.04297,-0.043301 l 0.01553,0.172874 c 0.02468,0.00199 0.04011,-0.014544 0.04628,-0.049582 0.0082,-0.03702 0.01642,-0.059608 0.02479,-0.067761 l 0.05222,0.00297 c 0.03085,0 0.05553,-0.00307 0.07404,-0.00926 0.01851,-0.00816 0.02887,-0.023578 0.03107,-0.046276 l -0.0063,-0.027766 c -0.0082,-0.03702 0.0073,-0.058616 0.04628,-0.064786 0.039,-0.00816 0.06269,-0.020493 0.07107,-0.03702 l 0.02777,0.049582 c 0.004,0.00396 0.01829,0.00595 0.04297,0.00595 l 0.01553,-0.095857 c 0.01036,0.00638 0.02171,0.00341 0.03405,-0.00892 l 0.03702,-0.03702 v -0.015535 c 0.01432,0 0.03482,0.00716 0.06148,0.021485 l 0.06479,0.024791 c 0.01851,-0.010357 0.03394,-0.030963 0.04628,-0.061812 0.01234,-0.033054 0.02578,-0.054649 0.04033,-0.064786 l -0.0033,0.055531 c 0,0.024682 0.0094,0.043191 0.0281,0.055531 0.03305,0.00617 0.05663,-0.00716 0.07074,-0.039996 v -0.015535 l 0.05553,0.052557 c 0.01036,0.00617 0.02071,0.00926 0.03107,0.00926 0.004,0 0.01421,-0.00209 0.03074,-0.00628 0.0062,-0.034817 0.03294,-0.06677 0.08032,-0.095857 0.04936,-0.03085 0.07812,-0.051345 0.08627,-0.061482 0.04121,-0.00816 0.0649,0.00727 0.07107,0.046277 l 0.0152,0.098832 c 0.0044,-0.00221 0.0075,-0.0043 0.0092,-0.00628 0.01237,-0.010357 0.02776,-0.027874 0.04627,-0.052557 0.01237,0.028866 0.04319,0.043301 0.09255,0.043301 l 0.03404,-0.00297 0.01553,-0.00926 c 0.01237,0.010357 0.01852,0.023799 0.01852,0.040326 0,0.016306 -0.01237,0.046055 -0.03702,0.089247 -0.02469,0.03702 -0.03702,0.061702 -0.03702,0.074042 0,0.012343 0.0092,0.018511 0.02777,0.018511 l 0.05851,-0.00926 0.01224,0.034046 c -0.002,0.00199 -0.003,0.00407 -0.003,0.00628 -0.01012,0.00816 -0.02556,0.01741 -0.04627,0.027766 -0.03084,0.00816 -0.04727,0.022477 -0.04925,0.042971 h -0.03999 c -0.0041,-0.00617 -0.0072,-0.011344 -0.0092,-0.015535 -0.0084,-0.010132 -0.02071,-0.023359 -0.03702,-0.039665 -0.02865,0.034817 -0.05642,0.052226 -0.0833,0.052226 -0.01237,0 -0.03196,-0.00716 -0.05884,-0.021485 -0.02049,-0.016527 -0.04518,-0.028866 -0.07404,-0.03702 l -0.09255,-0.012561 c -0.01432,0 -0.03283,0.00109 -0.05553,0.00331 -0.02049,0.00175 -0.04308,0.00585 -0.06776,0.012231 l -0.160314,0.027766 c -0.261341,0.1377268 -0.459887,0.2589258 -0.59563,0.3635979 -0.133539,0.1051128 -0.200309,0.243941 -0.200309,0.4164846 l -0.04958,-0.00892 c -0.03085,0 -0.051345,0.030849 -0.061482,0.092552 0,0.055531 -0.00518,0.090459 -0.015535,0.1047823 0.010357,0.03085 0.015535,0.062803 0.015535,0.095857 0,0.039004 -0.010357,0.093434 -0.031071,0.1632885 -0.018511,0.067872 -0.027766,0.1152489 -0.027766,0.1421336 0,0.028648 0.00419,0.054319 0.01256,0.077017 0.00816,0.020493 0.026665,0.045175 0.055531,0.074042 -0.00221,0.028648 8.925e-4,0.052226 0.00926,0.070737 l 0.092552,0.077348 c 0.04936,0.033054 0.08947,0.089577 0.120317,0.1695687 0.03305,0.078228 0.07206,0.1173427 0.117012,0.1173427 l 0.04628,-0.00926 c 0.02688,0.047157 0.100925,0.094536 0.222125,0.1421336 0.121419,0.044954 0.197555,0.1055532 0.228405,0.1817988 0.0227,0.00617 0.03812,-9.916e-4 0.04628,-0.021485 0.0022,-0.010357 0.0053,-0.020715 0.0093,-0.031071 0.0022,0 0.0043,-9.917e-4 0.0063,-0.00297 l 0.265096,0.077348 c 0.135743,0.034817 0.236558,0.071838 0.302446,0.1110626 0.01852,-0.028866 0.04319,-0.04848 0.07405,-0.058837 0.03084,-0.010132 0.06687,-0.015205 0.108089,-0.015205 h 0.06479 l 0.101805,-0.00926 c 0.02666,-0.00617 0.05233,-0.022698 0.07702,-0.049582 0.06589,-0.033054 0.105004,-0.082415 0.117347,-0.1480834 l 0.02479,-0.175851 c 0.01851,0.018511 0.03592,0.028758 0.05222,0.03074 0.01432,0 0.03802,-0.022586 0.07106,-0.067762 l 0.05851,-0.074042 c -0.0061,-0.035038 0.0072,-0.058727 0.04033,-0.071066 l 0.06776,0.1698992 c 0.02469,0.055531 0.03702,0.1089688 0.03702,0.1603135 0,0.028649 -0.0061,0.063574 -0.01851,0.1047823 z M 9.4485136,8.7673949 c -0.00617,0.00617 -0.010244,0.011344 -0.012231,0.015535 0,0.00199 -9.916e-4,0.00507 -0.00297,0.00926 l -0.015535,-0.055531 z m -0.015205,0.095857 h -0.015535 v -0.015535 h 0.015535 z M 9.8035174,9.319402 H 9.7879824 V 9.273125 h 0.015535 z m 1.5608246,-2.3412384 -0.02149,-0.037021 c -0.0062,-0.020716 -0.01752,-0.032063 -0.03405,-0.034046 l -0.01521,0.039996 c 0.01013,0.012343 0.02347,0.02369 0.03999,0.034046 0.01234,0.00419 0.02259,0.00321 0.03074,-0.00297 z M 9.6769191,7.9003797 h -0.046276 l 0.03074,0.024791 0.01256,-0.015535 z m -0.061811,0.2376607 c -0.012343,0 -0.025673,0.00716 -0.039996,0.021485 l -0.015535,0.024791 h 0.031071 l 0.021485,-0.024791 z m 0.3146772,0.2128699 c -0.00816,-0.00816 -0.018401,-0.011244 -0.03074,-0.00926 v 0.080322 c 0.016527,-0.00617 0.025783,-0.017519 0.027766,-0.034046 z M 9.6769191,8.5237846 v -0.031071 h -0.015535 v 0.031071 z M 9.6306431,8.862922 h -0.024791 v 0.046276 l 0.015535,-0.015205 z m 2.6007139,0.385744 c -0.01653,-0.00617 -0.02677,-0.011344 -0.03074,-0.015535 -0.02071,0.012343 -0.03306,0.02369 -0.03702,0.034046 -0.0061,0.00617 -0.0092,0.017519 -0.0092,0.034046 l 0.0152,0.033715 h 0.01553 l 0.03697,-0.042971 c 0.0081,-0.012343 0.01124,-0.026774 0.0092,-0.043301 z m 0,0.2128698 v -0.03074 c -0.0061,-0.00617 -0.02159,-0.011344 -0.04627,-0.015535 -0.0042,0.014322 -0.0021,0.026665 0.0062,0.03702 0.0081,0.00816 0.02149,0.011244 0.03999,0.00926 z M 11.03446,9.5881339 c -0.01036,0 -0.01763,0.00199 -0.02182,0.00595 l -0.01851,0.024791 c 0.0062,0.012343 0.01653,0.015426 0.03107,0.00926 l 0.0093,-0.018511 z m -0.355003,0.039996 -0.01223,-0.034046 c -0.01036,-0.00397 -0.01961,-0.00595 -0.02776,-0.00595 v 0.055531 c 0.02049,0 0.03383,-0.00518 0.04,-0.015535 z M 8.9781505,6.982461 c -0.010357,0.00617 -0.020602,0.00926 -0.03074,0.00926 -0.00617,0 -0.015426,-0.00209 -0.027766,-0.00628 L 8.8793185,6.954701 C 8.8630127,6.9403722 8.848687,6.9270372 8.8363477,6.9146978 h 0.042971 c 0,0.016306 0.014434,0.030632 0.043301,0.042971 0.028648,0.00617 0.047157,0.014434 0.055531,0.024791 z m 0.061811,1.3297757 -0.034046,0.00595 v -0.033715 c 0.00617,0.00199 0.011344,0.00507 0.015535,0.00926 z m 0.163289,-0.9810525 c -0.00617,-0.012343 -0.011244,-0.019611 -0.015205,-0.021816 l -0.018511,-0.015205 -0.031071,0.00595 c -0.018511,0 -0.040106,-0.015426 -0.064786,-0.046276 -0.00816,-0.012343 -0.019393,-0.023578 -0.033716,-0.033716 -0.00419,-0.00221 -0.00937,-0.00638 -0.015535,-0.01256 -0.014322,0 -0.029749,0.00826 -0.046276,0.024791 l 0.046276,0.1110626 c 0.00617,0.016527 0.011344,0.0422 0.015535,0.077017 0.00816,-0.018511 0.023578,-0.032833 0.046277,-0.042971 l 0.1110625,-0.012231 -0.015535,0.055531 -0.077017,0.021485 0.027766,0.03074 c 0.00617,0.00617 0.00926,0.016418 0.00926,0.03074 l -0.00926,0.031071 -0.024791,-0.00926 c -0.00617,-0.00419 -0.016418,-0.00628 -0.03074,-0.00628 l -0.03702,0.03702 0.046276,0.03702 c 0.022477,0.012343 0.033715,0.03085 0.033715,0.055531 -0.034817,0.012343 -0.075915,0.040106 -0.1232932,0.083297 l -0.1451085,0.1355228 -0.015205,0.061812 0.042971,0.00628 -0.1421336,0.108088 -0.03041,-0.058837 c -0.00837,-0.014322 -0.023799,-0.016306 -0.046276,-0.00595 l -0.037019,0.049256 h -0.027766 c 0.012343,-0.022698 0.00407,-0.03702 -0.024791,-0.042971 l -0.052557,-0.018841 -0.012231,0.043301 0.00926,0.042971 0.03074,0.052887 c 0.00837,0.00816 0.016636,0.012231 0.024791,0.012231 l 0.024791,0.00297 0.027766,-0.043301 h 0.03702 c 0.00617,0.035038 -0.00727,0.072058 -0.040326,0.1110625 -0.032833,0.039004 -0.049251,0.06677 -0.049251,0.083297 0,0.014322 0.00407,0.029749 0.012231,0.046276 l 0.061811,0.064786 c 0.03702,-0.022698 0.055531,-0.059719 0.055531,-0.1110626 l 0.00926,-0.086272 h 0.061811 c 0.00396,0.010132 0.00705,0.028649 0.00926,0.055531 0.00397,0.024681 0.00595,0.052447 0.00595,0.083297 0,0.065668 0.016527,0.1200975 0.049582,0.1632885 l -0.00926,0.071066 c 0,0.024681 0.012343,0.043191 0.03702,0.055531 l 0.02446,-0.03074 0.012561,-0.055531 -0.00331,-0.061812 c 0,-0.039004 0.019611,-0.058506 0.058837,-0.058506 l 0.027766,0.00297 0.027766,0.012231 0.027766,0.021486 c -0.024681,0.00617 -0.044183,0.020493 -0.058506,0.042971 -0.010357,0.0249 -0.015535,0.05487 -0.015535,0.089908 v 0.049251 l 0.012231,0.064786 c 0.03702,0.010357 0.055531,0.027874 0.055531,0.052557 0,0.016306 -0.011244,0.038894 -0.033716,0.067762 l -0.034046,0.049582 0.027766,0.00265 0.061811,-0.00926 v -0.015205 h 0.015205 v 0.1077569 c -0.00617,-0.016306 -0.018511,-0.02446 -0.03702,-0.02446 -0.012343,0 -0.021594,0.00816 -0.027766,0.02446 l 0.021816,0.061812 c -0.033054,0 -0.052667,0.022586 -0.058837,0.067762 0,0.03702 -0.00617,0.063795 -0.018511,0.080322 -0.012343,-0.018511 -0.018511,-0.038012 -0.018511,-0.058506 l 0.00926,-0.058837 0.01256,-0.067762 c 0,-0.03702 -0.024682,-0.055531 -0.074042,-0.055531 l -0.061812,0.058506 c -0.010357,0.012343 -0.015535,0.03085 -0.015535,0.055531 l 0.03702,0.021815 c 0.020716,0.00617 0.034156,0.015426 0.040326,0.027766 l -0.064786,0.1170117 c -0.018511,0.03085 -0.027766,0.0606 -0.027766,0.089247 0,0.028649 0.011244,0.054429 0.033715,0.077348 0,0.014322 -0.00716,0.031841 -0.021485,0.052557 l -0.039995,0.046276 c -0.00617,-0.010357 -0.00926,-0.021707 -0.00926,-0.034046 l 0.00926,-0.049581 0.012231,-0.058176 c 0,-0.024681 -0.016527,-0.041208 -0.049582,-0.049582 -0.00595,0.00617 -0.020272,0.035038 -0.042971,0.086603 -0.014322,0.043191 -0.042089,0.061702 -0.083297,0.055531 0,0.034817 -0.00617,0.073821 -0.018511,0.1170117 l -0.042971,0.135523 -0.015535,-0.039665 c -0.00617,-0.020716 -0.017519,-0.035148 -0.034046,-0.043301 -0.00816,0.00419 -0.013331,0.018511 -0.015535,0.042971 0,0.020715 -0.00926,0.034156 -0.027766,0.040326 l -0.0248,-0.021476 c -0.00816,-0.00617 -0.016306,-0.00419 -0.02446,0.00595 -0.018511,0.010357 -0.032833,0.031953 -0.042971,0.064786 -0.010582,0.033054 -0.026004,0.050573 -0.046276,0.052557 L 8.2655,9.7586899 c -0.00816,0.03085 -0.045175,0.049361 -0.1110626,0.055531 -0.061701,0 -0.095638,0.02369 -0.1018077,0.071066 -0.00816,-0.00441 -0.013331,-0.01267 -0.015535,-0.024791 l 0.01256,-0.061811 c 0,-0.016306 -0.013444,-0.025561 -0.040326,-0.027766 -0.018511,-0.00617 -0.041097,0.00307 -0.067762,0.027766 -0.024681,0.024681 -0.044183,0.039004 -0.058506,0.042971 l -0.015536,-0.1262675 -0.027766,-0.00926 c -0.014322,0 -0.035919,0.00727 -0.064786,0.021816 l -0.052557,0.018511 c -0.020494,0 -0.03074,-0.021594 -0.03074,-0.064786 l -0.018511,-0.021816 -0.015535,-0.00926 -0.027766,0.031071 c 0.00419,0.00397 0.00628,0.00903 0.00628,0.015205 0.00199,0.00617 0.00407,0.010357 0.00628,0.01256 l -0.034046,0.021485 c 0.00617,-0.03085 -0.00926,-0.058616 -0.046277,-0.083297 -0.035038,-0.024681 -0.055641,-0.046276 -0.061812,-0.064786 -0.03085,0.00816 -0.047267,0.025561 -0.049251,0.052226 l 0.00628,0.034046 0.00595,0.039996 c 0,0.020715 -0.013221,0.037242 -0.039665,0.049582 -0.022917,-0.00617 -0.037461,-0.038122 -0.043632,-0.095857 0,-0.059498 -0.027766,-0.084179 -0.083297,-0.074042 -0.00396,0.026882 -0.011131,0.04848 -0.021485,0.064786 -0.010357,0.016527 -0.026882,0.020715 -0.049582,0.01256 l 0.00661,-0.034046 -0.012561,-0.058506 -0.00926,-0.071066 0.00926,-0.046276 c 0.00617,-0.012343 0.024681,-0.026665 0.055531,-0.042971 l -0.00297,-0.043301 0.00331,-0.049582 c 0,-0.032833 -0.013444,-0.056413 -0.040326,-0.070737 h -0.049582 l 0.018841,-0.052557 c 0.00617,-0.014322 0.016418,-0.022586 0.03074,-0.024791 L 7.219671,9.0675191 C 7.217681,9.0344651 7.213611,9.0057071 7.20744,8.9812471 7.20325,8.9565661 7.196096,8.9349711 7.185955,8.9164611 c 0.018511,0 0.033936,-0.00727 0.046277,-0.021816 0.014322,-0.016306 0.024569,-0.034817 0.03074,-0.055531 -0.00221,-0.022477 8.925e-4,-0.055311 0.00926,-0.098502 0.012343,-0.03702 0.018511,-0.063794 0.018511,-0.080322 0,-0.018511 -0.00407,-0.03603 -0.012231,-0.052557 L 7.247441,8.5647621 c 0.022698,-0.018511 0.034046,-0.0422 0.034046,-0.071066 0,-0.014322 -0.010244,-0.041097 -0.03074,-0.080322 L 7.219676,8.3393321 c 0,-0.024681 0.014434,-0.048259 0.043301,-0.070736 -0.00419,-0.00617 -0.016527,-0.011344 -0.037021,-0.015535 l -0.027766,0.03074 v -0.04892 c 0.018511,0 0.031841,-0.00816 0.039996,-0.02446 l 0.024791,-0.055531 -0.03702,-0.077348 c 0.012343,-0.010132 0.021594,-0.02964 0.027766,-0.058506 0.00617,-0.028648 0.018511,-0.051234 0.03702,-0.067762 L 7.269258,7.9109481 C 7.263088,7.8904551 7.251739,7.8761311 7.235212,7.8679771 l -0.064786,0.018511 c 0,-0.010357 0.014322,-0.033054 0.042971,-0.068092 0.03085,-0.034817 0.04848,-0.06049 0.052887,-0.077017 0,-0.018511 -0.013444,-0.038012 -0.040326,-0.058506 L 7.222988,7.5810653 7.216708,7.5037173 c 0,-0.03085 0.00307,-0.055531 0.00926,-0.074042 L 7.213737,7.3711693 7.210767,7.3126633 c 0,-0.1048922 0.028758,-0.1954611 0.086271,-0.2717065 0.033054,0.00419 0.069084,-0.00914 0.108088,-0.039996 0.039004,-0.033054 0.069854,-0.051565 0.092552,-0.055531 0.026665,0 0.054429,0.017519 0.083297,0.052557 0.010357,-0.00221 0.027874,-0.020715 0.052557,-0.055531 0.024681,-0.028866 0.046276,-0.045394 0.064786,-0.049581 0.014322,0 0.033826,0.00926 0.058506,0.027766 0.024681,0 0.047267,-0.01741 0.067762,-0.052226 0.020715,-0.03702 0.043412,-0.057625 0.068092,-0.061812 0.020493,0 0.039004,0.00518 0.055531,0.015535 0.00617,-0.012343 0.014322,-0.019611 0.02446,-0.021816 l 0.080322,0.034046 -0.00926,0.03074 c 0,0.016527 0.011344,0.030961 0.034046,0.043301 0.016306,0.00419 0.040987,0.00628 0.074042,0.00628 L 8.17957,6.8717208 8.1207331,6.8499055 c -0.016306,-0.00837 -0.027545,-0.022698 -0.033715,-0.042971 l 0.027766,-0.00661 c 0.018511,0 0.043191,0.00727 0.074042,0.021817 l 0.067762,0.018511 c 0.014322,0 0.03085,-0.00617 0.049582,-0.018511 v 0.092552 l 0.033715,0.00926 c 0.018511,0 0.0422,-0.017519 0.071066,-0.052557 0.024681,-0.03702 0.045175,-0.055531 0.061481,-0.055531 0.018511,0 0.043191,0.018511 0.074042,0.055531 L 8.61754,6.8591641 h 0.046276 l 0.03074,-0.00331 -0.1110626,0.058837 0.123623,0.049582 c 0.014322,0 0.02975,-0.00518 0.046277,-0.015535 0,0.034817 0.028758,0.059498 0.086271,0.074042 0.059498,0.014322 0.1005947,0.036911 0.1232932,0.067762 0.051565,0.024681 0.095857,0.052447 0.1328784,0.083297 0.03702,0.030849 0.070956,0.070956 0.1018077,0.1203173 z M 7.2351956,8.6917004 7.2133791,8.6298889 h 0.021816 z m 1.884758,0.037021 -0.064786,-0.015535 c 0.00617,-0.018511 0.012343,-0.031841 0.018511,-0.039996 0.00837,-0.010357 0.017628,-0.017628 0.027766,-0.021815 0.012343,0 0.018511,0.013444 0.018511,0.040326 z m -0.1418031,0.4779656 -0.00297,0.03702 c 0,0.016527 -0.00407,0.025783 -0.012231,0.027766 L 8.9411345,9.206687 Z m -0.256171,0.4105348 c -0.028648,0 -0.049141,-0.016527 -0.06148,-0.049582 l 0.06148,-0.015205 z M 8.2499637,6.8836286 c -0.00816,-0.00816 -0.010132,-0.01741 -0.00595,-0.027766 h -0.027766 v 0.043301 c 0.016306,0 0.027544,-0.00518 0.033716,-0.015535 z m 0.2531961,0.049582 v -0.061812 h -0.068092 c -0.016306,0.018511 -0.015205,0.033936 0.00331,0.046277 0.018289,0.012343 0.039775,0.017519 0.064456,0.015535 z m -0.068092,0.1421336 -0.00297,-0.034377 c 0,-0.022477 -0.00407,-0.036801 -0.012231,-0.042971 v 0.077017 z m 0.4164846,0.076686 c -0.00396,-0.00396 -0.016306,-0.00805 -0.03702,-0.012231 v 0.049581 c 0.012343,-0.00837 0.022698,-0.018732 0.031071,-0.031071 0,-0.00199 0.00199,-0.00407 0.00595,-0.00628 z m -0.2065896,0 -0.034046,0.086603 h 0.021815 l 0.027766,-0.068092 c -0.00617,-0.012343 -0.011344,-0.018511 -0.015536,-0.018511 z M 8.864113,7.3437453 v -0.065117 c 0,-0.026665 -0.014434,-0.039996 -0.043301,-0.039996 L 8.802301,7.3648998 c 0.010357,0.00617 0.022698,0.00419 0.03702,-0.00595 z m 0,0.085942 c -0.022698,0 -0.039224,0.00926 -0.049581,0.027766 h 0.03702 z M 8.771561,7.4700133 H 8.737515 v 0.037021 l 0.027766,-0.00628 c 0.00617,0 0.00926,-0.00209 0.00926,-0.00628 0.00199,-0.00617 9.917e-4,-0.014322 -0.00297,-0.02446 z m -0.1265982,0.064786 v 0.033715 h 0.027766 l 0.012231,-0.012231 c -0.00199,-0.012343 -0.015314,-0.019503 -0.039997,-0.021484 z M 8.5461308,7.676933 V 7.618096 l 0.00331,-0.061812 c 0,-0.053549 -0.00518,-0.094645 -0.015536,-0.1232932 -0.00837,-0.03085 -0.029971,-0.0606 -0.064786,-0.089247 -0.035038,-0.01256 -0.065888,-0.032172 -0.092552,-0.058837 -0.026884,-0.026884 -0.043412,-0.054649 -0.049582,-0.083297 0,0.030849 -0.00407,0.047377 -0.012231,0.049582 -0.00419,-0.0249 -0.015535,-0.043522 -0.034046,-0.055862 -0.016306,-0.014322 -0.036801,-0.022586 -0.061482,-0.024791 -0.020715,0 -0.038234,0.010357 -0.052557,0.031071 l -0.1018077,-0.03702 c -0.022699,-0.010357 -0.045285,-0.030961 -0.067762,-0.061812 -0.012343,-0.00617 -0.024681,-0.00518 -0.037021,0.00297 -0.012343,0.00617 -0.021594,0.017519 -0.027766,0.034046 -0.016527,0.016306 -0.035038,0.026553 -0.055531,0.03074 -0.018511,0 -0.045285,-0.016527 -0.080322,-0.049582 -0.030849,-0.034817 -0.051455,-0.054319 -0.061812,-0.058506 l -0.052226,0.074042 c -0.016527,0.035038 -0.039224,0.061811 -0.068092,0.080322 l 0.012561,0.049582 -0.012561,0.0552 -0.00926,0.058837 0.00926,0.039996 0.049582,-0.064786 c 0.024681,-0.028649 0.039004,-0.058396 0.042971,-0.089247 l 0.015535,0.02446 0.018511,0.024791 c -0.014322,0.00816 -0.028648,0.020494 -0.042971,0.03702 l -0.01256,0.039996 c 0,0.016527 0.012343,0.044293 0.03702,0.083297 0.024681,0.039004 0.03702,0.06677 0.03702,0.083297 0,0.022699 -0.022586,0.040216 -0.067762,0.052557 0.00617,-0.012343 0.014322,-0.019611 0.02446,-0.021815 l 0.040326,0.021815 c 0.012343,0.012343 0.022586,0.02975 0.03074,0.052226 l 0.00926,0.058837 -0.00628,0.086271 -0.00595,0.064786 c 0.028649,0.00816 0.046055,0.040106 0.052226,0.095857 0,0.051345 0.015426,0.083187 0.046276,0.095527 0,-0.045394 0.00826,-0.07316 0.024791,-0.083297 0.018511,-0.012343 0.043191,-0.018511 0.074042,-0.018511 h 0.039996 c 0.020715,0 0.037242,-0.00307 0.049582,-0.00926 0.014322,-0.00837 0.024569,-0.025892 0.03074,-0.052557 l 0.03074,0.00628 c 0.022698,0 0.049471,-0.021594 0.080322,-0.064786 0.026665,-0.045395 0.057514,-0.068092 0.092552,-0.068092 l -0.00297,0.046276 0.00926,0.083297 0.00926,0.077348 -0.00628,0.046277 h 0.027766 v -0.01256 c 0.00617,-0.037021 0.026774,-0.058616 0.061811,-0.064786 0.00617,-0.00816 0.011344,-0.021377 0.015535,-0.039665 0,-0.033054 -0.016527,-0.052667 -0.049581,-0.058837 l -0.012231,-0.052557 c 0,-0.033054 0.010244,-0.063905 0.03074,-0.092552 l 0.064786,-0.089247 0.043301,0.049251 c 0.00816,0.00816 0.024681,0.011244 0.049581,0.00926 z M 7.608379,7.6180957 c 0.00617,-0.012343 0.00209,-0.024681 -0.012231,-0.03702 L 7.565077,7.5562847 7.543592,7.5840507 c 0.012343,0.033054 0.033936,0.044403 0.064787,0.034046 z m 1.1939225,0.058506 v -0.015535 c -0.00617,-0.012343 -0.015426,-0.015426 -0.027766,-0.00926 -0.00816,0.00441 -0.013331,0.01267 -0.015535,0.024791 z m -1.2494537,0.00628 h -0.037021 v 0.03702 c 0,0.018511 0.00926,0.027766 0.027766,0.027766 0.00816,-0.00837 0.012231,-0.016636 0.012231,-0.024791 z m 1.1354163,0.1262675 c 0,-0.016306 -0.00518,-0.027545 -0.015535,-0.033715 v 0.049581 z m -0.9965882,0.015535 c -0.00617,-0.033054 -0.017519,-0.050573 -0.034046,-0.052557 -0.016306,0 -0.032724,0.013444 -0.049251,0.040326 -0.014322,0.026665 -0.019502,0.051345 -0.015535,0.074042 0.00419,0.00617 0.00727,0.013331 0.00926,0.021485 0.00419,0.00816 0.00837,0.020494 0.01256,0.03702 0.00396,0.014322 0.018288,0.021485 0.042971,0.021485 l -0.00297,-0.055531 c 0,-0.020493 -0.00407,-0.039996 -0.012231,-0.058506 0.020494,-0.020493 0.037021,-0.029749 0.049582,-0.027766 z m -0.2036146,0.042971 h -0.021485 l 0.015205,0.034046 z m 0.2809618,0.2379912 c 0.00595,-0.014544 0.00175,-0.0249 -0.012561,-0.031071 l -0.03702,-0.018511 c -0.014322,0.010357 -0.022586,0.024681 -0.024791,0.042971 l 0.012561,0.021815 0.039996,-0.00297 c 0.012343,-0.00419 0.019502,-0.00826 0.021485,-0.012231 z m 0.098502,0.079991 -0.018511,-0.080322 0.012231,0.086603 z m -0.2250999,0.061811 v -0.061811 h -0.027766 z m 0.6848857,-0.061811 -0.015535,0.03074 c -0.00617,0.014544 -0.00518,0.0249 0.00297,0.031071 z m -0.8885004,0.061811 v -0.042971 c -0.00837,-0.010582 -0.014544,-0.015866 -0.018511,-0.015866 l -0.031071,-0.00297 -0.027766,0.034046 c -0.00617,0.010357 -0.00199,0.019611 0.01256,0.027766 z m 0.141803,0.1262675 v -0.027761 c -0.012343,-0.00816 -0.021594,-0.012231 -0.027766,-0.012231 h -0.021485 c -0.00617,0.012343 -0.00307,0.022586 0.00926,0.03074 z M 7.43848,8.3829759 H 7.423275 c -0.014322,0.00617 -0.022586,0.019611 -0.024791,0.040326 0,0.018511 0.00617,0.03085 0.018511,0.037021 z M 8.6327327,8.571381 8.6449637,8.543615 8.6234787,8.472549 c -0.012343,0.016527 -0.018511,0.035038 -0.018511,0.055531 0,0.018511 0.00926,0.032833 0.027766,0.042971 z M 7.6298642,8.565101 h -0.03702 l -0.012231,0.098832 h 0.034046 z m 1.0643497,0.1355207 v -0.064456 c -0.010132,-0.00419 -0.017298,-0.00628 -0.021485,-0.00628 v 0.071062 z m -1.242843,-0.114034 h -0.028097 l -0.00926,0.083297 -0.012231,0.064786 c 0,0.024681 0.012343,0.048369 0.03702,0.071066 0.018511,-0.018511 0.027766,-0.0422 0.027766,-0.071066 z m 1.1317804,0.2531961 0.00661,-0.040326 c 0,-0.034817 -0.014544,-0.081093 -0.043632,-0.1388282 -0.00816,-0.020493 -0.016306,-0.044073 -0.02446,-0.070736 -0.00837,-0.028648 -0.014544,-0.051344 -0.018511,-0.068092 l -0.068092,0.00926 c -0.034817,0 -0.065668,-0.010244 -0.092552,-0.03074 l 0.00331,-0.03702 0.00892,-0.024791 c -0.020493,-0.00617 -0.040987,0.00209 -0.061482,0.024791 -0.020716,0.020494 -0.037242,0.032833 -0.049582,0.03702 -0.03085,-0.00617 -0.056523,-0.028758 -0.077017,-0.067762 -0.018511,-0.041208 -0.040106,-0.064896 -0.064786,-0.071066 l 0.015535,0.061812 c -0.035038,0.018511 -0.062803,0.027766 -0.083297,0.027766 -0.014544,0 -0.022807,-0.010357 -0.024791,-0.031071 l 0.00926,-0.058506 0.00926,-0.071066 c 0,-0.026444 -0.010244,-0.050022 -0.03074,-0.070736 0.018511,-0.018511 0.027766,-0.043191 0.027766,-0.074042 0,-0.00419 -0.00209,-0.00727 -0.00628,-0.00926 -0.00199,-0.00419 -0.00407,-0.00727 -0.00628,-0.00926 -0.00199,0.00199 -0.00606,0.00507 -0.012231,0.00926 -0.00617,0.00199 -0.016418,0.011244 -0.03074,0.027766 -0.014544,0.014322 -0.021816,0.034928 -0.021816,0.061812 0,0.018511 0.00419,0.039004 0.01256,0.061482 l 0.03702,0.058506 c 0,0.024682 -0.016527,0.038122 -0.049582,0.040326 h -0.049251 c -0.018511,0 -0.03085,0.012343 -0.037021,0.03702 -0.012343,-0.012343 -0.024682,-0.031953 -0.03702,-0.058837 l -0.00628,-0.052226 -0.061482,0.070736 c 0.018511,0.018511 0.027766,0.038122 0.027766,0.058837 0,0.010357 -0.015426,0.029858 -0.046277,0.058506 -0.03085,0.024681 -0.046277,0.048369 -0.046277,0.071066 0.012343,0.012343 0.034928,0.018511 0.067762,0.018511 l 0.058506,-0.00331 v 0.043632 c 0,0.024681 -0.00716,0.03702 -0.021485,0.03702 -0.030849,0 -0.049361,0.00407 -0.055531,0.012231 0.045175,0.018511 0.067762,0.045175 0.067762,0.079991 l -0.018511,0.068092 -0.015205,0.064786 0.00926,0.039996 c 0.018511,0.016527 0.027766,0.033054 0.027766,0.049582 0,0.014322 -0.00826,0.032724 -0.024791,0.0552 l -0.021485,0.049581 c 0,0.018511 0.013331,0.035038 0.039996,0.049582 -0.014322,0.014105 -0.027657,0.024239 -0.039996,0.03041 -0.012343,0.00617 -0.015426,0.019611 -0.00926,0.040326 0.010132,0.00816 0.019393,0.020494 0.027766,0.037021 0.00816,0.014322 0.012231,0.03085 0.012231,0.049582 l -0.00926,0.067431 c -0.00617,0.028866 -0.00716,0.050463 -0.00297,0.064786 0.018511,-0.012343 0.032833,-0.018511 0.042971,-0.018511 0.01256,0 0.019833,0.014434 0.021815,0.043301 v 0.049582 c 0,0.034817 0.00617,0.057404 0.018511,0.067762 0.020493,0 0.03592,0.00199 0.046276,0.00595 h 0.046277 c 0.082195,0 0.1582202,-0.016418 0.2280749,-0.049251 0.070076,-0.035038 0.1307851,-0.084399 0.1821293,-0.1480833 0.024681,-0.016527 0.046276,-0.041208 0.064786,-0.074042 l 0.049582,-0.1018077 c 0,-0.016527 0.00307,-0.033054 0.00926,-0.049581 0.00816,-0.018289 0.025561,-0.027435 0.052226,-0.027435 l -0.003,-0.018517 v -0.015535 c 0,-0.022698 0.00926,-0.057625 0.027766,-0.1047824 l 0.031071,-0.089247 c 0,-0.018732 -0.00617,-0.037351 -0.018511,-0.055862 z m -0.8637097,-0.01256 c -0.010357,-0.00816 -0.018619,-0.013221 -0.024791,-0.015205 -0.00617,-0.00221 -0.011244,-0.0043 -0.015205,-0.00628 l 0.027766,0.077017 -0.024791,0.040326 c -0.010357,0.022477 -0.027874,0.030632 -0.052557,0.02446 l -0.00297,0.089577 0.00926,0.108088 c 0.00617,0.03085 0.020602,0.0606 0.043301,0.089247 0,-0.03702 0.00407,-0.062693 0.012231,-0.077017 -0.018511,-0.012343 -0.031841,-0.026665 -0.039996,-0.042971 l -0.012231,-0.040326 c 0,-0.016527 0.015426,-0.045285 0.046276,-0.086271 0.03085,-0.043191 0.046277,-0.07922 0.046277,-0.108088 0,-0.018511 -0.00419,-0.03603 -0.01256,-0.052557 z m -0.2684012,0.4383 0.012231,-0.068092 c 0,-0.039004 -0.015426,-0.056413 -0.046276,-0.052226 -0.016306,0.010132 -0.027545,0.02446 -0.033715,0.042971 -0.00617,0.016527 -0.00926,0.04231 -0.00926,0.077348 z M 7.784228,9.4750881 7.768693,9.4536027 7.7564624,9.4750881 Z m -0.366903,0.092552 -0.00331,-0.049251 c 0,-0.03702 -0.00407,-0.062693 -0.012231,-0.077017 l -0.024791,0.086271 c 0,0.016527 0.00419,0.029858 0.01256,0.039996 z m -2.3957779,-1.2960599 -0.015535,0.00628 c -0.00816,-0.00221 -0.00816,-0.015645 0,-0.040326 l 0.015535,-0.042971 0.015535,0.033716 z m 1.1909475,0 c 0,0.012343 -0.00109,0.022586 -0.00331,0.03074 0,0.00617 -8.925e-4,0.012343 -0.00265,0.018511 l -0.01256,-0.064786 z m 0.7404171,1.7492358 -0.052557,0.05256 c -0.012343,0.01631 -0.020602,0.03581 -0.024791,0.05851 -0.00397,-0.0042 -0.00903,-0.02787 -0.015205,-0.07107 0,-0.03702 -0.011344,-0.05752 -0.034046,-0.06148 l -0.03074,0.00926 c -0.03085,0.02667 -0.051455,0.06159 -0.061812,0.104782 l -0.046277,0.01223 c -0.03085,0 -0.058616,-0.02159 -0.083297,-0.06479 l -0.06181,-0.1203221 c 0.00617,-0.030849 -0.00307,-0.070956 -0.027766,-0.1203173 -0.022477,-0.049361 -0.033716,-0.088365 -0.033716,-0.117013 -0.045395,-0.012343 -0.07316,-0.055531 -0.083297,-0.129573 0,-0.072058 -0.026774,-0.1183347 -0.080322,-0.1388282 0,-0.061702 -0.021594,-0.1234031 -0.064786,-0.1851042 L 6.1258923,9.0675281 c -0.018511,0.00617 -0.03702,0.00518 -0.055531,-0.00297 -0.016306,-0.00816 -0.034817,-0.023578 -0.055531,-0.046277 -0.026665,0.010357 -0.056413,0.015535 -0.089247,0.015535 -0.03085,0 -0.06688,-0.00518 -0.108088,-0.015535 L 5.7127121,9.0027433 c -0.03702,0 -0.07305,0.010357 -0.1080879,0.031071 l -0.00926,-0.031071 c -0.00617,-0.012343 -0.011344,-0.020493 -0.015535,-0.02446 -0.074042,0.018511 -0.126488,0.074042 -0.1573386,0.1665938 l -0.042968,0.2406356 c -0.024681,-0.03085 -0.043191,-0.068974 -0.055531,-0.1143682 l 0.012231,0.021816 c 0.014322,0.00617 0.02457,0.00507 0.03074,-0.00331 l 0.018511,-0.03074 c 0,-0.024681 -0.012343,-0.056633 -0.03702,-0.095857 -0.022477,-0.038783 -0.033716,-0.065448 -0.033716,-0.079991 0,-0.024682 0.021594,-0.046276 0.064786,-0.064786 0,-0.018511 -0.00419,-0.031841 -0.01256,-0.039996 -0.022477,0 -0.041979,0.00617 -0.058506,0.018511 l -0.055531,0.071066 c 0.014322,0.024681 0.021485,0.053327 0.021485,0.085942 0,0.018732 -9.915e-4,0.033275 -0.00297,0.043632 -0.00199,0.010132 -0.00914,0.034817 -0.021485,0.074042 l -0.021485,0.1140372 c 0,0.047377 0.024682,0.089577 0.074042,0.126598 l -0.064786,0.2065915 c -0.012343,0.049361 -0.043191,0.098722 -0.092552,0.1480834 -0.014544,-0.030849 -0.033054,-0.048369 -0.055531,-0.052557 -0.00617,0.00221 -0.013444,0.00528 -0.021816,0.00926 -0.00816,0.00419 -0.021485,0.013444 -0.039995,0.027766 -0.018511,0.012343 -0.039114,0.020602 -0.061811,0.024791 -0.018511,0 -0.038012,-0.011344 -0.058506,-0.034046 l -0.034046,0.049581 h -0.027767 v -0.024792 c -0.016306,0.012343 -0.033715,0.019503 -0.052226,0.021485 -0.018511,0 -0.035038,-0.022586 -0.049581,-0.067762 l -0.027767,-0.083297 0.049581,-0.021486 c -0.00617,-0.014544 -0.022698,-0.033054 -0.049581,-0.055531 -0.024682,-0.024682 -0.03702,-0.047378 -0.03702,-0.068092 0,-0.012343 0.00419,-0.026665 0.01256,-0.042971 l 0.02446,-0.058837 c 0.00617,-0.010132 0.027766,-0.023468 0.064786,-0.039996 0.010357,0.00816 0.026884,0.016418 0.049581,0.024791 0.024681,-0.018511 0.03702,-0.039114 0.03702,-0.061812 0,-0.018511 -0.010357,-0.043191 -0.031071,-0.074042 -0.018511,-0.033054 -0.027766,-0.058727 -0.027766,-0.077017 l 0.00926,-0.034046 0.034046,-0.151058 c 0.012335,-0.090572 0.04726,-0.1399328 0.1047747,-0.1480863 l -0.049251,-0.064786 c -0.012343,-0.018511 -0.018511,-0.038122 -0.018511,-0.058837 0,-0.012343 0.00617,-0.03085 0.018511,-0.055531 l -0.058507,-0.06148 c -0.016527,-0.022698 -0.024791,-0.045394 -0.024791,-0.068092 0,-0.016306 0.00209,-0.027544 0.00628,-0.033715 0.045175,0 0.088365,-0.021594 0.1295731,-0.064786 l 0.074042,-0.077348 v -0.049251 c 0.014322,0 0.025561,9.915e-4 0.033715,0.00297 l 0.052887,0.012231 c 0.016306,0 0.029527,-0.00926 0.039665,-0.027766 l 0.015535,-0.049582 0.00331,-0.042971 c 0,-0.028649 -0.00937,-0.064566 -0.028097,-0.1077569 l -0.055531,-0.1421336 0.080322,0.01256 c 0.00617,-0.012343 0.00617,-0.024681 0,-0.03702 L 5.148151,7.9724374 c 0.00617,-0.014322 0.011244,-0.02457 0.015205,-0.03074 L 5.237398,7.8983964 5.181867,7.8428654 C 5.163356,7.8243544 5.144847,7.8181844 5.126336,7.8243544 l 0.01256,-0.080322 c 0,-0.03702 0.00199,-0.065778 0.00595,-0.086271 h 0.031071 c 0,0.018511 -0.00419,0.032833 -0.01256,0.042971 0.010357,0.010357 0.025783,0.017628 0.046276,0.021815 0.020715,0 0.044403,-0.00826 0.071066,-0.024791 L 5.33623,7.6699904 C 5.3424,7.6596334 5.34549,7.6524714 5.34549,7.6485054 l 0.00628,-0.039996 -0.027766,-0.01256 -0.042971,0.027766 c -0.018732,0.018511 -0.037352,0.022698 -0.055862,0.01256 l 0.012231,-0.083297 0.01256,-0.086603 c 0,-0.026665 -0.00419,-0.048259 -0.01256,-0.064786 0.00441,-0.00397 0.015757,-0.00595 0.034046,-0.00595 0.010357,0 0.020602,0.012343 0.03074,0.03702 l -0.021485,0.03702 c -0.00617,0.00816 -0.00407,0.016306 0.00628,0.02446 0.026665,-0.012343 0.045175,-0.024681 0.055531,-0.03702 0.012343,-0.014322 0.018511,-0.02975 0.018511,-0.046277 0,-0.014322 -0.00716,-0.03691 -0.021485,-0.067762 L 5.317724,7.2660634 c 0,-0.014544 0.00109,-0.025892 0.00331,-0.034046 0.00397,-0.010357 0.014213,-0.02369 0.03074,-0.039996 l -0.00331,-0.043301 c 0,-0.014322 -0.00816,-0.025673 -0.02446,-0.034046 l -0.024791,0.00926 -0.024791,0.00628 0.108088,-0.178824 c 0.03085,-0.047378 0.071948,-0.071066 0.1232932,-0.071066 0,-0.03085 0.010357,-0.047378 0.031071,-0.049581 l 0.052226,0.015535 c 0.024682,0.00617 0.046277,0.00727 0.064786,0.00331 0.037021,0.049141 0.078229,0.073711 0.123623,0.073711 0.020493,0 0.039004,-0.00407 0.055531,-0.012231 0.00617,0.00816 0.00507,0.019502 -0.00331,0.034046 l -0.021485,0.027766 c 0.028866,0.00199 0.050463,0.013221 0.064786,0.033716 0.014544,0.020715 0.021817,0.04848 0.021817,0.083297 l -0.00331,0.061812 -0.00265,0.061812 -0.027766,0.089247 c 0,0.014544 0.00407,0.026882 0.012231,0.03702 0.024682,0.00617 0.045285,0.018511 0.061811,0.03702 l 0.064786,0.1051121 -0.01256,0.083297 c 0,0.040987 0.00727,0.096518 0.021817,0.1665939 l 0.027766,0.1170117 c -0.00419,0.010357 -0.00321,0.025783 0.00297,0.046276 0.00617,0.018511 0.01741,0.028866 0.033715,0.031071 0.014544,-0.00617 0.023799,-0.011344 0.027766,-0.015535 l 0.01256,-0.012231 c -0.012343,0.022477 -0.018511,0.048149 -0.018511,0.077017 0,0.024682 0.00716,0.059608 0.021485,0.1047823 l 0.021485,0.092552 c 0,0.033054 -0.00816,0.06082 -0.02446,0.083297 0.022477,0.014544 0.039885,0.061921 0.052226,0.1421336 0.00837,0.074042 0.023799,0.1130465 0.046277,0.1170117 0.016527,0 0.03713,-0.011244 0.061812,-0.033715 h 0.015535 l 0.00595,0.03702 c 0,0.026665 -0.00816,0.053327 -0.02446,0.079991 -0.016527,0.024681 -0.03614,0.045285 -0.058837,0.061811 0.00837,0.00617 0.015645,0.010244 0.021815,0.012231 0.00617,0.00221 0.011244,0.0043 0.015205,0.00628 0.024681,0 0.043191,-0.00209 0.055531,-0.00628 0.033054,0 0.063905,0.025782 0.092552,0.077348 0.028648,0.051344 0.050243,0.079111 0.064786,0.083297 0.016527,0 0.03713,-0.022698 0.061812,-0.068092 0,0.035038 0.026774,0.067982 0.080322,0.098832 0.045175,0.024681 0.067762,0.062693 0.067762,0.1140371 -0.018511,0 -0.042199,-0.018511 -0.071066,-0.055531 -0.028648,-0.03702 -0.051234,-0.057515 -0.067762,-0.061482 -0.018511,0 -0.041097,0.016418 -0.067762,0.049251 0,0.018511 0.010244,0.039114 0.03074,0.061811 l 0.03074,0.042971 c 0,0.012343 -0.011244,0.024681 -0.033715,0.03702 h -0.027758 c 0,-0.03702 -0.00727,-0.061702 -0.021815,-0.074042 H 6.416108 l -0.00926,0.040326 c 0,0.020494 0.00518,0.039996 0.015535,0.058506 l 0.042971,0.039996 0.015535,-0.015205 c 0.022699,0.00816 0.03614,0.023578 0.040326,0.046276 L 6.50568,9.1875158 6.493449,9.2278418 c 0,0.016527 0.012343,0.030849 0.037021,0.042971 0.034817,-0.00595 0.049141,-0.031511 0.042971,-0.076686 0.00837,0.053327 0.019724,0.099604 0.034046,0.1388282 0.014322,0.039004 0.039996,0.086272 0.077017,0.141803 l -0.012231,0.00628 c 0.035038,0.018511 0.065888,0.06677 0.092552,0.1447779 0.028648,0.074042 0.065668,0.1203174 0.1110625,0.1388282 0,0.035038 0.011344,0.078228 0.034046,0.1295731 0.024681,0.053549 0.039004,0.095747 0.042971,0.1265978 z M 4.7531459,9.1663607 c -0.014322,0.010132 -0.026665,0.015205 -0.03702,0.015205 l 0.03074,-0.03702 c 0.00837,0.00441 0.010469,0.011681 0.00628,0.021815 z m -0.061812,0.1540331 h -0.012231 v -0.049251 h 0.012231 z m 0.024791,0.092552 H 4.654314 l 0.01256,-0.055531 0.03702,0.018511 c 0.012343,0.00617 0.016418,0.018511 0.012231,0.03702 z m -0.061812,0.3179827 -0.018511,0.027766 -0.018511,0.021485 c -0.016306,0 -0.026553,-0.00926 -0.03074,-0.027766 0,-0.014322 0.00617,-0.026665 0.018511,-0.037021 0.03085,0 0.047378,0.00518 0.049582,0.015535 z m 0.6634004,0 -0.00926,0.055531 c -0.00199,0.014322 -0.00914,0.028648 -0.021485,0.042971 -0.00617,-0.00617 -0.00926,-0.014322 -0.00926,-0.02446 0,-0.03085 0.013331,-0.055531 0.039995,-0.074042 z m -0.6756305,0.1110626 -0.00297,0.02446 c -0.00617,0.00837 -0.011344,0.01256 -0.015536,0.01256 h -0.018511 v -0.03702 z M 5.3858063,7.0098957 c -0.018732,0.00617 -0.029087,0.019501 -0.031071,0.039996 l 0.012231,0.021485 h 0.01256 l 0.012231,-0.03074 c 0.00816,-0.014322 0.00606,-0.02457 -0.00628,-0.03074 z m 0.1940289,0.077017 v -0.015535 h -0.02446 v 0.015535 z m 0.012561,0.5982835 V 7.5804135 c -0.022698,-0.00199 -0.040216,0.015645 -0.052557,0.052886 -0.00816,0.034817 -0.028758,0.052226 -0.061812,0.052226 l -0.012231,0.058506 c 0.010357,0.012343 0.019611,0.018511 0.027766,0.018511 l 0.024791,-0.042971 c 0.014322,-0.0249 0.029749,-0.039334 0.046276,-0.043301 z M 5.3239945,7.7995641 c -0.00419,-0.016527 -0.012456,-0.029858 -0.024791,-0.039996 -0.012343,-0.010357 -0.024681,-0.013444 -0.03702,-0.00926 v 0.086271 c 0.014322,-0.00816 0.025673,-0.012231 0.034046,-0.012231 0.018511,0 0.027766,-0.00826 0.027766,-0.024791 z M 6.0644113,8.0649903 6.0518506,7.9724382 C 6.0108633,7.951723 5.9841993,7.9033547 5.9718591,7.8273297 l -0.01256,-0.1203174 c -0.026444,0.010357 -0.039665,0.024681 -0.039665,0.042971 0,0.014544 0.00816,0.035148 0.02446,0.061812 0.016306,0.024681 0.02446,0.044293 0.02446,0.058837 0,0.010132 -0.00617,0.023468 -0.018511,0.039996 l 0.040326,0.1140371 c 0.00816,0.026884 0.032833,0.040326 0.074042,0.040325 z M 5.4657974,7.9413671 v -0.018511 h -0.021485 v 0.018511 z M 5.385475,8.1142413 c -0.00617,-0.014322 -0.016418,-0.022586 -0.03074,-0.024791 -0.014322,0.00837 -0.023578,0.016637 -0.027766,0.024791 l -0.00926,0.052557 c 0.012343,0.018511 0.032945,0.027766 0.061812,0.027766 l 0.012231,-0.031071 z m 0.7004213,0.064786 v -0.027766 c -0.00617,-0.010357 -0.016418,-0.011344 -0.03074,-0.00297 -0.00837,0.00617 -0.00948,0.016418 -0.00331,0.03074 z M 5.9100476,8.7158301 c 0.012343,-0.041208 0.018511,-0.07922 0.018511,-0.1140371 0,-0.063905 -0.02975,-0.1647206 -0.089247,-0.3024471 -0.059718,-0.1399299 -0.090569,-0.2181586 -0.092552,-0.2346858 -0.00837,-0.010132 -0.015645,-0.041979 -0.021816,-0.095528 0,-0.051345 -0.019502,-0.077017 -0.058506,-0.077017 -0.018511,0.022698 -0.036028,0.049471 -0.052557,0.080322 -0.00816,0.016306 -0.012231,0.033715 -0.012231,0.052226 0,0.012343 9.917e-4,0.021594 0.00297,0.027766 h 0.049585 c 0.020272,0.00617 0.03041,0.031953 0.03041,0.077348 -0.00816,0.012343 -0.023578,0.020493 -0.046276,0.02446 l -0.058506,-0.00297 -0.021485,0.021816 -0.00331,0.021485 c 0.010357,0.00617 0.022807,0.00617 0.037351,0 l 0.027766,-0.012231 c 0.012343,0.00816 0.019501,0.016306 0.021485,0.02446 0.00419,0.024681 -0.00816,0.03702 -0.03702,0.03702 -0.024681,0 -0.043191,0.00617 -0.055531,0.018511 l -0.012231,0.031071 c 0.00199,0.00617 0.00507,0.012343 0.00926,0.018511 0.00397,0.00397 0.013221,0.011131 0.027766,0.021485 0.014322,0.010357 0.02457,0.022698 0.03074,0.03702 0,0.014322 -0.010244,0.02457 -0.03074,0.03074 -0.020493,0.00617 -0.035919,0.012343 -0.046276,0.018511 0.00199,0.010357 0.012231,0.01862 0.03074,0.024791 0.016527,0.00199 0.027874,0.00816 0.034046,0.018511 -0.018511,0 -0.033936,0.00926 -0.046276,0.027766 -0.010357,0.016527 -0.021707,0.027874 -0.034046,0.034046 -0.00617,0.051344 0.013331,0.093434 0.058506,0.1262677 0.045395,0 0.086603,0.00109 0.123623,0.00331 0.03702,0.00221 0.07294,0.00727 0.1077569,0.015205 0.03702,0.00816 0.07305,0.023578 0.108088,0.046277 z M 5.4439815,8.4074332 v -0.01256 l -0.015205,-0.012231 z m -0.2806313,0.055531 c -0.016306,0 -0.032724,0.011244 -0.049251,0.033715 -0.014322,0.022699 -0.02457,0.04848 -0.03074,0.077348 0.00397,0.00617 0.00705,0.012343 0.00926,0.018511 0.00396,0.00617 0.00705,0.015426 0.00926,0.027766 0.00199,0.012343 0.012231,0.018511 0.03074,0.018511 l 0.012231,-0.095857 z m 0.074042,0.4657357 c 0.00617,-0.014322 0.00109,-0.024569 -0.015205,-0.03074 -0.016306,-0.00617 -0.025561,-0.010357 -0.027766,-0.01256 l -0.00628,-0.00595 c -0.018511,0 -0.027766,0.00716 -0.027766,0.021485 0,0.012343 0.011344,0.029858 0.034046,0.052557 l 0.02446,-0.00628 z M 5.0955891,9.0334824 v -0.092552 h -0.024791 c -0.014322,0.00221 -0.022477,0.016637 -0.02446,0.043301 v 0.049582 z m -0.1110625,0.068092 c -0.00419,-0.00419 -0.00937,-0.024791 -0.015535,-0.061811 0,-0.03085 -0.011244,-0.047377 -0.033716,-0.049582 -0.020715,0.014544 -0.031071,0.032172 -0.031071,0.052886 0,0.012118 0.00419,0.025343 0.012561,0.039665 l 0.02446,0.034046 c 0.022698,0 0.03713,-0.00507 0.043301,-0.015204 z m 0.4009487,0.064786 V 9.1445448 Z M 5.188141,9.2589129 V 9.0952938 H 5.1633502 V 9.2589129 Z M 4.9722962,9.3851803 v -0.064786 c -0.016527,-0.00617 -0.027874,-0.00307 -0.034046,0.00926 l -0.00297,0.055531 z m 0.1232919,0.2069201 c -0.00816,-0.020715 -0.012231,-0.050573 -0.012231,-0.089577 0,-0.043191 -0.00419,-0.07294 -0.01256,-0.089246 0,0.012118 -9.917e-4,0.022367 -0.00297,0.03074 -0.00199,0.00837 -0.00816,0.026882 -0.018511,0.055531 l -0.021485,0.074042 c 0,0.014322 0.00209,0.024569 0.00628,0.03074 l 0.033715,-0.00297 z m -0.3083968,0.1665939 -0.021816,-0.027766 -0.012231,0.00595 0.027766,0.027766 z"
     id="path308"
     style="fill:#ffffff;stroke-width:0.330543" />
</svg>
