<?xml version="1.0" encoding="UTF-8" standalone="no"?>
<!-- Created with Inkscape (http://www.inkscape.org/) -->

<svg
   width="64"
   height="64"
   viewBox="0 0 16.933333 16.933334"
   version="1.1"
   id="svg1099"
   inkscape:version="1.2 (dc2aedaf03, 2022-05-15)"
   sodipodi:docname="applications-games.svg"
   xmlns:inkscape="http://www.inkscape.org/namespaces/inkscape"
   xmlns:sodipodi="http://sodipodi.sourceforge.net/DTD/sodipodi-0.dtd"
   xmlns="http://www.w3.org/2000/svg"
   xmlns:svg="http://www.w3.org/2000/svg">
  <sodipodi:namedview
     id="namedview1101"
     pagecolor="#ffffff"
     bordercolor="#666666"
     borderopacity="1.0"
     inkscape:pageshadow="2"
     inkscape:pageopacity="0.0"
     inkscape:pagecheckerboard="0"
     inkscape:document-units="px"
     showgrid="false"
     units="px"
     inkscape:zoom="8.8609319"
     inkscape:cx="22.458134"
     inkscape:cy="34.646469"
     inkscape:window-width="1846"
     inkscape:window-height="1011"
     inkscape:window-x="0"
     inkscape:window-y="0"
     inkscape:window-maximized="1"
     inkscape:current-layer="svg1099"
     inkscape:showpageshadow="2"
     inkscape:deskcolor="#d1d1d1" />
  <defs
     id="defs1096" />
  <rect
     style="opacity:1;fill:#3f51b5;fill-opacity:1;stroke-width:0.529167;stroke-linecap:round"
     id="rect934"
     width="13.758333"
     height="13.758333"
     x="1.5875"
     y="-15.345833"
     ry="1.190625"
     transform="scale(1,-1)" />
  <path
     id="rect1524"
     style="opacity:0.5;fill:#000000;fill-opacity:1;stroke-width:2;stroke-linecap:round"
     d="M 10.5 6 C 8.0070001 6 6 8.0070001 6 10.5 L 6 53.5 C 6 55.993 8.0070001 58 10.5 58 L 53.5 58 C 55.993 58 58 55.993 58 53.5 L 58 10.5 C 58 8.0070001 55.993 6 53.5 6 L 10.5 6 z M 11 7 L 53 7 C 55.216 7 57 8.7839999 57 11 L 57 51 C 57 53.216 55.216 55 53 55 L 11 55 C 8.7839999 55 7 53.216 7 51 L 7 11 C 7 8.7839999 8.7839999 7 11 7 z "
     transform="scale(0.26458334)" />
  <path
     d="m 6.4823067,5.8208944 c -0.219869,0 -0.396875,0.1770062 -0.396875,0.396875 v 5.291e-4 L 5.3108031,10.857796 c -0.012409,0.03854 -0.019129,0.0797 -0.019129,0.122473 0,0.219869 0.1770062,0.396875 0.3968749,0.396875 0.1207665,0 0.2286,-0.0534 0.3012731,-0.137975 h 5.292e-4 l 0.00159,-0.0027 c 0.025585,-0.03029 0.046882,-0.06468 0.062529,-0.101804 L 6.8792007,9.7900574 h 3.1290073 l 0.8754,1.3554736 c 0.01617,0.03544 0.03767,0.06776 0.06305,0.09663 l 0.0021,0.0036 h 5.3e-4 c 0.07254,0.08074 0.177985,0.131257 0.295579,0.131257 0.219869,0 0.396875,-0.177007 0.396875,-0.396875 0,-0.04369 -0.0067,-0.08581 -0.01963,-0.125058 L 10.848009,6.2182377 v -5.292e-4 c 0,-0.2198687 -0.177007,-0.396875 -0.396875,-0.396875 H 9.6573833 c -0.2198686,0 -0.3968746,0.1770063 -0.3968746,0.396875 v 5.292e-4 h -1.5875 v -5.292e-4 c 0,-0.2198687 -0.177007,-0.396875 -0.396875,-0.396875 z"
     style="opacity:0.2;fill:#000000;fill-opacity:1;stroke-width:0.264586"
     id="path3605" />
  <path
     d="m 6.4822993,5.556311 c -0.2198688,0 -0.396875,0.1770062 -0.396875,0.396875 v 5.291e-4 L 5.3107957,10.593213 c -0.012409,0.03854 -0.019129,0.0797 -0.019129,0.122472 0,0.219869 0.1770062,0.396875 0.3968749,0.396875 0.1207665,0 0.2286,-0.0534 0.3012731,-0.137974 h 5.292e-4 l 0.00159,-0.0027 c 0.025585,-0.03029 0.046882,-0.06468 0.062529,-0.101804 L 6.8791928,9.5254744 H 10.0082 l 0.875401,1.3554726 c 0.01617,0.03544 0.03767,0.06776 0.06304,0.09663 l 0.0021,0.0036 h 5.29e-4 c 0.07254,0.08074 0.177985,0.131257 0.295579,0.131257 0.219869,0 0.396875,-0.177006 0.396875,-0.396875 0,-0.04369 -0.0067,-0.08581 -0.01963,-0.125058 L 10.848001,5.9536543 v -5.292e-4 c 0,-0.2198687 -0.177006,-0.396875 -0.396875,-0.396875 H 9.6573763 c -0.2198691,0 -0.3968753,0.1770063 -0.3968753,0.396875 v 5.292e-4 h -1.5875 v -5.292e-4 c 0,-0.2198687 -0.1770063,-0.396875 -0.396875,-0.396875 z"
     style="fill:#ffffff;fill-opacity:1;stroke-width:0.264586"
     id="path2073"
     sodipodi:nodetypes="csccssccccccccccssccssssccscc" />
  <path
     d="m 7.0099472,6.6161656 c -0.073215,0 -0.1317757,0.058558 -0.1317757,0.1317758 V 7.1437819 H 6.482331 c -0.073215,0 -0.1322916,0.059076 -0.1322916,0.1322916 v 0.2645833 c 0,0.073215 0.059076,0.1322917 0.1322916,0.1322917 H 6.8781715 V 8.071374 c 0,0.073215 0.05856,0.1322916 0.1317757,0.1322916 h 0.2650993 c 0.073218,0 0.1317757,-0.059076 0.1317757,-0.1322916 V 7.6729485 h 0.3989414 c 0.073218,0 0.1317757,-0.059076 0.1317757,-0.1322917 V 7.2760735 c 0,-0.073215 -0.058558,-0.1322916 -0.1317757,-0.1322916 H 7.4068222 V 6.7479414 c 0,-0.073218 -0.058558,-0.1317758 -0.1317757,-0.1317758 z m 2.38125,0 c -0.2191888,0 -0.396875,0.1776863 -0.396875,0.396875 0,0.2191888 0.1776862,0.396875 0.396875,0.396875 0.2191891,0 0.3968751,-0.1776862 0.3968751,-0.396875 0,-0.2191887 -0.177686,-0.396875 -0.3968751,-0.396875 z m 0.7937498,1.3213662 c -0.2191887,0 -0.3968747,0.1776863 -0.3968747,0.396875 0,0.2191888 0.177686,0.396875 0.3968747,0.396875 0.219189,0 0.396875,-0.1776862 0.396875,-0.396875 0,-0.2191887 -0.177686,-0.396875 -0.396875,-0.396875 z"
     style="fill:#3f51b5;fill-opacity:1;stroke-width:0.396875"
     id="path2045" />
</svg>
