<?xml version="1.0" encoding="UTF-8" standalone="no"?>
<!-- Created with Inkscape (http://www.inkscape.org/) -->

<svg
   width="64"
   height="64"
   viewBox="0 0 16.933333 16.933333"
   version="1.1"
   id="svg5"
   inkscape:version="1.2 (dc2aedaf03, 2022-05-15)"
   sodipodi:docname="com.github.maoschanz.drawing.svg"
   xmlns:inkscape="http://www.inkscape.org/namespaces/inkscape"
   xmlns:sodipodi="http://sodipodi.sourceforge.net/DTD/sodipodi-0.dtd"
   xmlns="http://www.w3.org/2000/svg"
   xmlns:svg="http://www.w3.org/2000/svg">
  <sodipodi:namedview
     id="namedview7"
     pagecolor="#ffffff"
     bordercolor="#666666"
     borderopacity="1.0"
     inkscape:pageshadow="2"
     inkscape:pageopacity="0.0"
     inkscape:pagecheckerboard="0"
     inkscape:document-units="px"
     showgrid="false"
     units="px"
     height="48px"
     inkscape:zoom="12.859375"
     inkscape:cx="32.155529"
     inkscape:cy="32.155529"
     inkscape:window-width="1846"
     inkscape:window-height="1011"
     inkscape:window-x="0"
     inkscape:window-y="0"
     inkscape:window-maximized="1"
     inkscape:current-layer="svg5"
     inkscape:showpageshadow="2"
     inkscape:deskcolor="#d1d1d1" />
  <defs
     id="defs2" />
  <rect
     style="opacity:1;fill:#767676;fill-opacity:1;stroke-width:0.264583"
     id="rect845"
     width="14.816667"
     height="11.641666"
     x="1.0583332"
     y="3.7041667"
     ry="1.0583333" />
  <rect
     style="opacity:1;fill:#ededed;fill-opacity:1;stroke-width:0.264583"
     id="rect1249"
     width="14.287499"
     height="10.583333"
     x="1.3229165"
     y="3.96875"
     ry="0.92604166" />
  <path
     d="M 2.8422068,7.167139 C 2.6598369,7.105228 2.4618045,7.202856 2.3998565,7.3852133 c -0.061911,0.1823699 0.035717,0.3804023 0.2180746,0.4423503 0.1765099,0.059905 0.2635348,0.1258276 0.306958,0.1762167 0.043423,0.050389 0.058586,0.091325 0.064596,0.1679485 0.01202,0.1532466 -0.070952,0.43092 -0.1591635,0.7353554 -0.088212,0.3044356 -0.198636,0.6798704 0.00878,1.0479981 0.2074209,0.3681267 0.6539505,0.5392467 1.3363525,0.5829097 0.2921643,0.01869 0.4662585,0.11907 0.609782,0.270267 0.1435235,0.151198 0.2473203,0.366954 0.3131592,0.59583 0.1316776,0.45775 0.1054198,0.926558 0.1054198,0.926558 -0.012719,0.192224 0.1328193,0.358353 0.3250449,0.371037 0.1922235,0.01272 0.3583527,-0.132819 0.3710366,-0.325045 0,0 0.041465,-0.564866 -0.131258,-1.165303 C 5.6822805,10.911117 5.5412859,10.591693 5.291152,10.328185 5.0410183,10.064679 4.6730869,9.8709078 4.2198996,9.8419111 3.6340319,9.8044246 3.4804125,9.6720864 3.4468202,9.6124676 3.4132281,9.5528487 3.4204994,9.3759253 3.5000469,9.1013876 3.5795957,8.8268501 3.714461,8.4985339 3.6845319,8.1169516 3.669567,7.9261605 3.5989656,7.7178681 3.4530215,7.548511 3.307077,7.3791535 3.1007669,7.2548909 2.8422068,7.167139 Z"
     style="color:#000000;fill:#ef4a49;stroke-width:0.264583;stroke-linecap:round;-inkscape-stroke:none;fill-opacity:1"
     id="path17043" />
  <path
     id="rect19603"
     style="opacity:1;fill:#424242;stroke-width:0.264583;fill-opacity:1"
     d="M 2.2489582,3.96875 H 14.684374 c 0.513027,0 0.926042,0.4130146 0.926042,0.9260417 V 6.6145832 H 1.3229165 V 4.8947917 c 0,-0.5130271 0.4130146,-0.9260417 0.9260417,-0.9260417 z"
     sodipodi:nodetypes="sssccss" />
  <path
     id="rect17426"
     style="opacity:1;fill:#212121;fill-opacity:1;stroke:none;stroke-width:0.374178;stroke-linejoin:round;stroke-dasharray:none;stroke-opacity:1"
     d="M 1.3229166 5.0270832 L 1.3229166 5.2916666 L 15.610416 5.2916666 L 15.610416 5.0270832 L 1.3229166 5.0270832 z M 1.3229166 5.8208332 L 1.3229166 6.0854165 L 15.610416 6.0854165 L 15.610416 5.8208332 L 1.3229166 5.8208332 z " />
  <path
     id="path4571"
     style="color:#000000;fill:#70000d;fill-opacity:1;stroke:none"
     d="m 14.390336,1.8526201 c -0.179708,8.298e-4 -0.383467,0.090614 -0.541052,0.269751 L 5.9510578,10.010778 6.200655,10.258825 5.2399901,12.372391 5.8843952,13.016796 7.9995116,12.055614 8.2496255,12.305728 16.171622,4.3935503 C 16.427098,4.1384018 16.432197,3.7906352 16.341638,3.5853309 16.251079,3.3800265 16.099275,3.2587358 16.099275,3.2587358 l -1.16427,-1.1616861 c 0,0 -0.202229,-0.2460106 -0.544669,-0.2444296 z" />
  <path
     d="M 8.2495849,11.931486 6.3257739,10.010153 14.048533,2.2973445 c 0.346446,-0.3938268 0.69344,-0.02103 0.69344,-0.02103 l 1.186628,1.1850985 c 0,0 0.434845,0.3666667 0.05598,0.7450468 z"
     style="fill:#ef4a49;fill-opacity:1;stroke-width:0.264583"
     id="path3174" />
  <path
     d="m 13.25035,3.0933681 -0.384472,0.383956 1.923397,1.9213295 0.384989,-0.3839557 z M 11.32747,5.0146979 9.4040739,6.9360277 C 9.6695919,7.2014323 10.315571,6.9864917 10.84688,6.4559534 11.378332,5.925157 11.593546,5.2797475 11.32747,5.0146979 Z M 7.8646329,8.4723681 7.4796432,8.8563238 9.4035569,10.777653 9.7880299,10.393697 Z"
     style="fill:#343434;fill-opacity:1;stroke-width:0.264583"
     id="path3594" />
  <path
     d="M 8.0572048,11.739353 6.5181556,10.202287 5.5562499,12.315753 5.9410123,12.70002 Z"
     style="fill:#bf0016;fill-opacity:1;stroke-width:0.264583"
     id="path3202" />
</svg>
