<?xml version="1.0" encoding="UTF-8" standalone="no"?>
<!-- Created with Inkscape (http://www.inkscape.org/) -->

<svg
   width="64"
   height="64"
   viewBox="0 0 16.933333 16.933334"
   version="1.1"
   id="svg1099"
   inkscape:version="1.2 (dc2aedaf03, 2022-05-15)"
   sodipodi:docname="cuttlefish.svg"
   xmlns:inkscape="http://www.inkscape.org/namespaces/inkscape"
   xmlns:sodipodi="http://sodipodi.sourceforge.net/DTD/sodipodi-0.dtd"
   xmlns="http://www.w3.org/2000/svg"
   xmlns:svg="http://www.w3.org/2000/svg">
  <sodipodi:namedview
     id="namedview1101"
     pagecolor="#ffffff"
     bordercolor="#666666"
     borderopacity="1.0"
     inkscape:pageshadow="2"
     inkscape:pageopacity="0.0"
     inkscape:pagecheckerboard="0"
     inkscape:document-units="px"
     showgrid="false"
     units="px"
     inkscape:zoom="8.8609319"
     inkscape:cx="22.401707"
     inkscape:cy="34.646469"
     inkscape:window-width="1920"
     inkscape:window-height="1009"
     inkscape:window-x="0"
     inkscape:window-y="0"
     inkscape:window-maximized="1"
     inkscape:current-layer="svg1099"
     inkscape:showpageshadow="2"
     inkscape:deskcolor="#d1d1d1" />
  <defs
     id="defs1096" />
  <rect
     style="opacity:1;fill:#ffce51;fill-opacity:1;stroke-width:0.529167;stroke-linecap:round"
     id="rect934"
     width="13.758333"
     height="13.758333"
     x="1.5875"
     y="1.5875"
     ry="1.190625" />
  <path
     id="rect1524"
     style="opacity:0.5;fill:#000000;fill-opacity:1;stroke-width:2;stroke-linecap:round"
     d="M 10.5 6 C 8.0070001 6 6 8.0070001 6 10.5 L 6 53.5 C 6 55.993 8.0070001 58 10.5 58 L 53.5 58 C 55.993 58 58 55.993 58 53.5 L 58 10.5 C 58 8.0070001 55.993 6 53.5 6 L 10.5 6 z M 11 7 L 53 7 C 55.216 7 57 8.7839999 57 11 L 57 51 C 57 53.216 55.216 55 53 55 L 11 55 C 8.7839999 55 7 53.216 7 51 L 7 11 C 7 8.7839999 8.7839999 7 11 7 z "
     transform="scale(0.26458334)" />
  <path
     d="m 8.4529342,5.2925328 c -1.2164226,0 -2.5939765,1.0120317 -2.8933394,2.1322915 -0.1408981,0.8432011 0.0232,1.4382362 0.4487864,1.8467392 0.0114,0.11927 0.034179,0.238534 0.024185,0.357803 -2.269e-4,0.0035 -9.089e-4,0.007 -0.00114,0.01055 -0.00226,0.02243 -0.00567,0.04485 -0.01086,0.06728 -0.00227,0.0092 -0.00564,0.01844 -0.00837,0.02759 -0.005,0.01705 -0.00989,0.0341 -0.017055,0.05116 -0.00598,0.01417 -0.014655,0.0283 -0.022315,0.04248 -0.00713,0.01321 -0.01299,0.02645 -0.021704,0.03969 -0.017894,0.02709 -0.038787,0.05415 -0.064182,0.08124 -0.099179,0.1047745 -0.1859758,0.1710525 -0.2603978,0.2139155 -0.2232422,0.128985 -0.3348753,0.04961 -0.3348753,0.208359 0,0.171978 0.3928867,0.483633 0.7531501,0.367419 0.055424,-0.01787 0.1101481,-0.04569 0.1624689,-0.08589 0.026161,-0.0201 0.05178,-0.0433 0.076586,-0.06976 0.045474,-0.04851 0.084963,-0.09384 0.1199911,-0.136425 0.034653,-0.04175 0.064056,-0.08009 0.090539,-0.11658 0.00606,0.05317 0.00256,0.12051 -0.023255,0.223242 -0.1027185,0.408902 -0.645835,0.374492 -0.3857192,0.664766 0.2015533,0.224918 0.8040296,0.233613 1.1372858,-0.05861 -0.1328341,0.301229 -0.3347642,0.481808 0.05334,0.481808 0.5953128,0 1.1906257,-0.42307 1.1906257,-1.058069 0,0.634999 0.5953131,1.058226 1.1906251,1.058226 0.3881253,0 0.186175,-0.180616 0.05333,-0.481845 0.3332643,0.292215 0.9357523,0.283527 1.1372853,0.05861 0.260123,-0.290268 -0.282986,-0.255864 -0.385721,-0.664767 -0.02585,-0.102916 -0.02936,-0.170336 -0.02325,-0.223553 0.05375,0.07409 0.120777,0.157584 0.210531,0.253322 0.396875,0.423069 0.992188,-3.98e-4 0.992188,-0.211933 0,-0.211668 -0.198438,1.02e-4 -0.595313,-0.4232266 C 10.824859,9.7120965 10.909525,9.4758445 10.92667,9.2395455 11.385859,8.8242815 11.535799,8.2336917 11.34629,7.4238281 10.923622,6.2231218 9.6694957,5.2915764 8.4528346,5.2915764 Z"
     style="fill:#393634;fill-opacity:1;stroke-width:0.396875"
     id="path308" />
</svg>
