<?xml version="1.0" encoding="UTF-8" standalone="no"?>
<!-- Created with Inkscape (http://www.inkscape.org/) -->

<svg
   width="64"
   height="64"
   viewBox="0 0 16.933333 16.933333"
   version="1.1"
   id="svg5"
   inkscape:version="1.2 (dc2aedaf03, 2022-05-15)"
   sodipodi:docname="deja-dup.svg"
   xmlns:inkscape="http://www.inkscape.org/namespaces/inkscape"
   xmlns:sodipodi="http://sodipodi.sourceforge.net/DTD/sodipodi-0.dtd"
   xmlns="http://www.w3.org/2000/svg"
   xmlns:svg="http://www.w3.org/2000/svg">
  <sodipodi:namedview
     id="namedview7"
     pagecolor="#ffffff"
     bordercolor="#666666"
     borderopacity="1.0"
     inkscape:pageshadow="2"
     inkscape:pageopacity="0.0"
     inkscape:pagecheckerboard="0"
     inkscape:document-units="px"
     showgrid="false"
     units="px"
     height="48px"
     inkscape:zoom="12.78125"
     inkscape:cx="32"
     inkscape:cy="32"
     inkscape:window-width="1846"
     inkscape:window-height="1015"
     inkscape:window-x="0"
     inkscape:window-y="0"
     inkscape:window-maximized="1"
     inkscape:current-layer="svg5"
     inkscape:showpageshadow="2"
     inkscape:deskcolor="#d1d1d1" />
  <defs
     id="defs2" />
  <rect
     style="opacity:1;fill:#222222;fill-opacity:1;stroke-width:0.264583"
     id="rect845"
     width="12.170833"
     height="15.875"
     x="2.3812499"
     y="0.79374999"
     ry="1.190625" />
  <rect
     style="opacity:1;fill:#444444;fill-opacity:1;stroke-width:0.264583"
     id="rect1249"
     width="11.641666"
     height="14.816667"
     x="2.6458333"
     y="1.0583333"
     ry="1.0583333" />
  <rect
     style="fill:#6f6f6f;fill-opacity:1;stroke:none;stroke-width:0.264583;stroke-linecap:square;stroke-linejoin:bevel"
     id="rect29955"
     width="8.9958334"
     height="12.170833"
     x="3.9687498"
     y="2.3812501"
     ry="0.52916664" />
  <path
     id="rect35821"
     style="opacity:0.2;fill:#000000;fill-opacity:1;stroke:none;stroke-width:0.264583;stroke-linecap:square;stroke-linejoin:bevel"
     d="m 3.7041666,4.7624999 c -0.146579,0 -0.2645833,0.1180043 -0.2645833,0.264583 v 1.5875006 c 0,0.146579 0.1180043,0.264583 0.2645833,0.264583 h 0.5291667 c 0.146579,0 0.2645833,-0.118004 0.2645833,-0.264583 V 5.0270829 c 0,-0.1465787 -0.1180043,-0.264583 -0.2645833,-0.264583 z m 0,6.3500001 c -0.146579,0 -0.2645833,0.118004 -0.2645833,0.264583 v 1.5875 c 0,0.146579 0.1180043,0.264583 0.2645833,0.264583 h 0.5291667 c 0.146579,0 0.2645833,-0.118004 0.2645833,-0.264583 v -1.5875 c 0,-0.146579 -0.1180043,-0.264583 -0.2645833,-0.264583 z" />
  <path
     id="rect34365"
     style="fill:#bbbbbb;fill-opacity:1;stroke:none;stroke-width:0.264583;stroke-linecap:square;stroke-linejoin:bevel"
     d="m 3.7041666,4.2333332 c -0.146579,0 -0.2645833,0.1180043 -0.2645833,0.2645833 v 1.5875002 c 0,0.1465788 0.1180043,0.2645828 0.2645833,0.2645828 h 0.5291667 c 0.146579,0 0.2645833,-0.118004 0.2645833,-0.2645828 V 4.4979165 c 0,-0.146579 -0.1180043,-0.2645833 -0.2645833,-0.2645833 z m 0,6.3499998 c -0.146579,0 -0.2645833,0.118005 -0.2645833,0.264584 v 1.587499 c 0,0.146579 0.1180043,0.264583 0.2645833,0.264583 h 0.5291667 c 0.146579,0 0.2645833,-0.118004 0.2645833,-0.264583 v -1.587499 c 0,-0.146579 -0.1180043,-0.264584 -0.2645833,-0.264584 z" />
  <path
     d="M 5.3681471,9.0033261 C 5.4607641,9.1560647 5.6281425,9.257704 5.8205343,9.257699 l 1.7327033,-2.64e-4 c 0.1884892,0.3255106 0.5355828,0.5265196 0.9117255,0.5280016 l 0.86587,1.4996934 c 0.146589,0.253889 0.468982,0.340272 0.7228729,0.19368 0.253884,-0.14659 0.34027,-0.468979 0.19368,-0.722868 L 9.3838391,9.260284 c 0.09433,-0.1618005 0.143979,-0.3457548 0.143957,-0.5330427 -6.8e-5,-0.1866397 -0.0495,-0.3699404 -0.143258,-0.5313151 L 10.247106,6.7019803 C 10.393685,6.4480834 10.307333,6.1255564 10.053436,5.9789825 9.7995451,5.8324033 9.4770201,5.9187501 9.3304411,6.1726469 L 8.4668491,7.6689635 C 8.0891644,7.6697573 7.7405123,7.871719 7.5519703,8.1989848 l -1.7315498,2.646e-4 c -0.2931662,5.3e-6 -0.5287618,0.2358919 -0.5287539,0.5290608 0,0.1007719 0.027961,0.1950852 0.076478,0.2750847 z"
     style="fill:#000000;fill-opacity:1;stroke-width:0.264586;opacity:0.3"
     id="path42915" />
  <path
     d="m 5.3681471,8.7387428 c 0.092617,0.1527386 0.2599954,0.2543779 0.4523872,0.2543729 l 1.7327033,-2.64e-4 c 0.1884892,0.325511 0.5355828,0.5265196 0.9117255,0.5280016 l 0.86587,1.4996937 c 0.146589,0.253889 0.468982,0.340272 0.7228729,0.19368 0.253884,-0.14659 0.34027,-0.468979 0.19368,-0.722868 L 9.3838391,8.9957007 c 0.09433,-0.1618005 0.143979,-0.3457548 0.143957,-0.5330427 -6.8e-5,-0.1866397 -0.0495,-0.3699404 -0.143258,-0.5313151 L 10.247106,6.437397 C 10.393685,6.1835001 10.307333,5.8609731 10.053436,5.7143992 9.7995451,5.56782 9.4770201,5.6541668 9.3304411,5.9080636 L 8.4668491,7.4043802 C 8.0891644,7.405174 7.7405123,7.6071357 7.5519703,7.9344015 l -1.7315498,2.646e-4 c -0.2931662,5.3e-6 -0.5287618,0.2358919 -0.5287539,0.5290608 0,0.1007719 0.027961,0.1950852 0.076478,0.2750847 z"
     id="path40179"
     style="fill:#cdcdcd;fill-opacity:1;stroke-width:0.264586"
     sodipodi:nodetypes="cccccsccccccccccccc" />
</svg>
