<?xml version="1.0" encoding="UTF-8" standalone="no"?>
<!-- Created with Inkscape (http://www.inkscape.org/) -->

<svg
   width="64"
   height="64"
   viewBox="0 0 16.933333 16.933334"
   version="1.1"
   id="svg1099"
   inkscape:version="1.2 (dc2aedaf03, 2022-05-15)"
   sodipodi:docname="desktop-environment-mate.svg"
   xmlns:inkscape="http://www.inkscape.org/namespaces/inkscape"
   xmlns:sodipodi="http://sodipodi.sourceforge.net/DTD/sodipodi-0.dtd"
   xmlns="http://www.w3.org/2000/svg"
   xmlns:svg="http://www.w3.org/2000/svg">
  <sodipodi:namedview
     id="namedview1101"
     pagecolor="#ffffff"
     bordercolor="#666666"
     borderopacity="1.0"
     inkscape:pageshadow="2"
     inkscape:pageopacity="0.0"
     inkscape:pagecheckerboard="0"
     inkscape:document-units="px"
     showgrid="false"
     units="px"
     inkscape:zoom="12.765625"
     inkscape:cx="31.960832"
     inkscape:cy="32"
     inkscape:window-width="1846"
     inkscape:window-height="1011"
     inkscape:window-x="74"
     inkscape:window-y="32"
     inkscape:window-maximized="1"
     inkscape:current-layer="svg1099"
     inkscape:showpageshadow="2"
     inkscape:deskcolor="#d1d1d1" />
  <defs
     id="defs1096" />
  <rect
     style="opacity:1;fill:#87a752;stroke-width:0.264583;fill-opacity:1"
     id="rect1196"
     width="15.875"
     height="16.404167"
     x="0.5291667"
     y="0.5291667"
     ry="7.9375" />
  <path
     id="rect1452"
     style="fill:#000000;stroke-width:0.264583;opacity:0.5"
     d="M 8.4666667 0.52916667 C 4.0692961 0.52916667 0.52916667 4.0692961 0.52916667 8.4666667 L 0.52916667 8.9958334 C 0.52916667 13.393204 4.0692961 16.933333 8.4666667 16.933333 C 12.864037 16.933333 16.404167 13.393204 16.404167 8.9958334 L 16.404167 8.4666667 C 16.404167 4.0692961 12.864037 0.52916667 8.4666667 0.52916667 z M 8.4666667 0.79375001 A 7.6729169 7.6729169 0 0 1 16.139583 8.4666667 A 7.6729169 7.6729169 0 0 1 8.4666667 16.139583 A 7.6729169 7.6729169 0 0 1 0.79375001 8.4666667 A 7.6729169 7.6729169 0 0 1 8.4666667 0.79375001 z " />
  <path
     id="path346"
     style="fill:#ffffff;stroke-width:0.768825;stroke-linejoin:round"
     d="M 8.4666669,3.7041667 A 4.7625,4.7625 0 0 0 4.6676741,5.5962993 l 0.677478,0.4232299 A 3.96875,3.96875 0 0 1 8.4666669,4.4979168 3.96875,3.96875 0 0 1 12.435417,8.4666666 3.96875,3.96875 0 0 1 8.4666669,12.435416 3.96875,3.96875 0 0 1 5.3451521,10.913804 l -0.677478,0.423229 A 4.7625,4.7625 0 0 0 8.4666669,13.229166 4.7625,4.7625 0 0 0 13.229166,8.4666666 4.7625,4.7625 0 0 0 8.4666669,3.7041667 Z m 0,1.9843751 A 2.778125,2.778125 0 0 0 6.3621443,6.6551494 L 7.0465986,7.0830303 A 1.9843749,1.9843749 0 0 1 8.4666669,6.4822917 1.9843749,1.9843749 0 0 1 10.451041,8.4666666 1.9843749,1.9843749 0 0 1 8.4666669,10.451042 1.9843749,1.9843749 0 0 1 7.0465986,9.8503027 L 6.3621443,10.278183 A 2.778125,2.778125 0 0 0 8.4666669,11.244791 2.778125,2.778125 0 0 0 11.244792,8.4666666 2.778125,2.778125 0 0 0 8.4666669,5.6885418 Z m -4.7625,0.3968749 v 4.7624993 l 3.96875,-2.3812494 z" />
</svg>
