<?xml version="1.0" encoding="UTF-8" standalone="no"?>
<!-- Created with Inkscape (http://www.inkscape.org/) -->

<svg
   width="64"
   height="64"
   viewBox="0 0 16.933333 16.933334"
   version="1.1"
   id="svg1099"
   inkscape:version="1.2 (dc2aedaf03, 2022-05-15)"
   sodipodi:docname="gnome-boxes.svg"
   xmlns:inkscape="http://www.inkscape.org/namespaces/inkscape"
   xmlns:sodipodi="http://sodipodi.sourceforge.net/DTD/sodipodi-0.dtd"
   xmlns="http://www.w3.org/2000/svg"
   xmlns:svg="http://www.w3.org/2000/svg">
  <sodipodi:namedview
     id="namedview1101"
     pagecolor="#ffffff"
     bordercolor="#666666"
     borderopacity="1.0"
     inkscape:pageshadow="2"
     inkscape:pageopacity="0.0"
     inkscape:pagecheckerboard="0"
     inkscape:document-units="px"
     showgrid="false"
     units="px"
     inkscape:zoom="12.71875"
     inkscape:cx="31.960688"
     inkscape:cy="32"
     inkscape:window-width="1920"
     inkscape:window-height="1011"
     inkscape:window-x="0"
     inkscape:window-y="0"
     inkscape:window-maximized="1"
     inkscape:current-layer="svg1099"
     inkscape:showpageshadow="2"
     inkscape:deskcolor="#d1d1d1" />
  <defs
     id="defs1096" />
  <rect
     style="opacity:1;fill:#424242;fill-opacity:1;stroke-width:0.529167;stroke-linecap:round"
     id="rect934"
     width="13.758333"
     height="13.758333"
     x="1.5875"
     y="-15.345833"
     ry="1.190625"
     transform="scale(1,-1)" />
  <path
     d="m 5.291667,5.0270834 v 6.3500006 h 6.35 V 5.0270834 Z m 0.9808104,0.79375 H 10.660856 L 9.7621991,6.7194906 9.9492701,6.9065616 10.847927,6.0079043 V 10.396284 L 9.9492701,9.4976258 9.7621991,9.6846968 10.660856,10.583355 H 6.2724774 L 7.1711347,9.6846968 6.9840637,9.4976258 6.0854064,10.396284 V 6.0079043 L 6.9840637,6.9065616 7.1711347,6.7194906 6.2715514,5.8199073 Z M 7.1437503,6.8791667 V 9.5249998 H 9.7895836 V 6.8791667 Z m 0.5291666,0.5291666 h 1.5875 v 1.5875 h -1.5875 z"
     style="opacity:0.5;fill:#ffffff;stroke-width:0.264583"
     id="path5538" />
  <path
     d="m 5.6885419,4.4979167 c -0.5114387,0 -0.9260416,0.4146029 -0.9260416,0.9260417 0,0.5114388 0.4146029,0.9260417 0.9260416,0.9260417 0.5114388,0 0.9260417,-0.4146029 0.9260417,-0.9260417 0,-0.5114388 -0.4146029,-0.9260417 -0.9260417,-0.9260417 z m 5.5562501,0 c -0.511439,0 -0.926042,0.4146029 -0.926042,0.9260417 0,0.5114388 0.414603,0.9260417 0.926042,0.9260417 0.511438,0 0.926041,-0.4146029 0.926041,-0.9260417 0,-0.5114388 -0.414603,-0.9260417 -0.926041,-0.9260417 z M 7.4083336,6.6145834 c -0.2922506,0 -0.5291667,0.2369161 -0.5291667,0.5291666 0,0.2922506 0.2369161,0.5291667 0.5291667,0.5291667 0.2922505,0 0.5291666,-0.2369161 0.5291666,-0.5291667 0,-0.2922505 -0.2369161,-0.5291666 -0.5291666,-0.5291666 z m 2.1166666,0 c -0.2922505,0 -0.5291666,0.2369161 -0.5291666,0.5291666 0,0.2922506 0.2369161,0.5291667 0.5291666,0.5291667 0.2922506,0 0.5291668,-0.2369161 0.5291668,-0.5291667 0,-0.2922505 -0.2369162,-0.5291666 -0.5291668,-0.5291666 z M 7.4083336,8.73125 c -0.2922506,0 -0.5291667,0.2369161 -0.5291667,0.5291667 0,0.2922501 0.2369161,0.5291661 0.5291667,0.5291661 0.2922505,0 0.5291666,-0.236916 0.5291666,-0.5291661 0,-0.2922506 -0.2369161,-0.5291667 -0.5291666,-0.5291667 z m 2.1166666,0 c -0.2922505,0 -0.5291666,0.2369161 -0.5291666,0.5291667 0,0.2922501 0.2369161,0.5291661 0.5291666,0.5291661 0.2922506,0 0.5291668,-0.236916 0.5291668,-0.5291661 0,-0.2922506 -0.2369162,-0.5291667 -0.5291668,-0.5291667 z m -3.8364583,1.322917 c -0.5114387,0 -0.9260416,0.414603 -0.9260416,0.926042 0,0.511438 0.4146029,0.926042 0.9260416,0.926042 0.5114388,0 0.9260417,-0.414604 0.9260417,-0.926042 0,-0.511439 -0.4146029,-0.926042 -0.9260417,-0.926042 z m 5.5562501,0 c -0.511439,0 -0.926042,0.414603 -0.926042,0.926042 0,0.511438 0.414603,0.926042 0.926042,0.926042 0.511438,0 0.926041,-0.414604 0.926041,-0.926042 0,-0.511439 -0.414603,-0.926042 -0.926041,-0.926042 z"
     style="fill:#ffffff;stroke-width:0.264583"
     id="path6322" />
  <path
     id="rect1524"
     style="opacity:0.5;fill:#000000;fill-opacity:1;stroke-width:2;stroke-linecap:round"
     d="M 10.5 6 C 8.0070001 6 6 8.0070001 6 10.5 L 6 53.5 C 6 55.993 8.0070001 58 10.5 58 L 53.5 58 C 55.993 58 58 55.993 58 53.5 L 58 10.5 C 58 8.0070001 55.993 6 53.5 6 L 10.5 6 z M 11 7 L 53 7 C 55.216 7 57 8.7839999 57 11 L 57 51 C 57 53.216 55.216 55 53 55 L 11 55 C 8.7839999 55 7 53.216 7 51 L 7 11 C 7 8.7839999 8.7839999 7 11 7 z "
     transform="scale(0.26458334)" />
</svg>
