<?xml version="1.0" encoding="UTF-8" standalone="no"?>
<!-- Created with Inkscape (http://www.inkscape.org/) -->

<svg
   width="64"
   height="64"
   viewBox="0 0 16.933333 16.933334"
   version="1.1"
   id="svg1099"
   inkscape:version="1.1.2 (0a00cf5339, 2022-02-04, custom)"
   sodipodi:docname="google-chrome-beta.svg"
   xmlns:inkscape="http://www.inkscape.org/namespaces/inkscape"
   xmlns:sodipodi="http://sodipodi.sourceforge.net/DTD/sodipodi-0.dtd"
   xmlns="http://www.w3.org/2000/svg"
   xmlns:svg="http://www.w3.org/2000/svg">
  <sodipodi:namedview
     id="namedview1101"
     pagecolor="#ffffff"
     bordercolor="#666666"
     borderopacity="1.0"
     inkscape:pageshadow="2"
     inkscape:pageopacity="0.0"
     inkscape:pagecheckerboard="0"
     inkscape:document-units="px"
     showgrid="false"
     units="px"
     inkscape:zoom="9.3187256"
     inkscape:cx="1.6633176"
     inkscape:cy="49.362973"
     inkscape:window-width="1920"
     inkscape:window-height="1002"
     inkscape:window-x="0"
     inkscape:window-y="0"
     inkscape:window-maximized="1"
     inkscape:current-layer="svg1099" />
  <defs
     id="defs1096" />
  <rect
     style="opacity:1;fill:#671d00;stroke-width:0.264583;fill-opacity:1"
     id="rect1196"
     width="15.875"
     height="16.404167"
     x="0.5291667"
     y="0.5291667"
     ry="7.9375" />
  <circle
     style="opacity:1;fill:#cf3d00;fill-opacity:1;stroke-width:0.274032"
     id="path1427"
     cx="8.4666672"
     cy="8.4666672"
     r="7.6729169" />
  <path
     id="rect1999"
     style="opacity:1;fill:#234c31;fill-opacity:1;stroke-width:2;stroke-linecap:round"
     d="M 6.0800781 16.845703 C 3.4855031 21.288171 2 26.463682 2 32 L 2 34 C 2 49.967461 14.35058 62.941157 30.058594 63.935547 L 40 53 L 44 39 L 21 41 L 6.0800781 16.845703 z "
     transform="scale(0.26458334)" />
  <path
     id="rect1044"
     style="opacity:1;fill:#7d520d;fill-opacity:1;stroke-width:2;stroke-linecap:round"
     d="M 32 18 L 44 39 L 30.037109 63.933594 C 30.686099 63.975139 31.340162 64 32 64 C 48.62 64 62 50.62 62 34 L 62 32 C 62 26.936402 60.755779 22.175341 58.558594 18 L 32 18 z "
     transform="scale(0.26458334)" />
  <path
     id="path2259"
     style="opacity:1;fill:#479863;fill-opacity:1;stroke-width:0.529168;stroke-linecap:round"
     d="M 6.7011719 17.847656 A 29.000001 29.000001 0 0 0 3 32 A 29.000001 29.000001 0 0 0 32 61 A 29.000001 29.000001 0 0 0 32.753906 60.970703 L 40 53 L 44 39 L 21 41 L 6.7011719 17.847656 z "
     transform="scale(0.26458334)" />
  <path
     id="path1449"
     style="opacity:1;fill:#faa41a;stroke-width:0.529168;stroke-linecap:round"
     d="M 32 18 L 44 39 L 31.6875 60.988281 A 29.000001 29.000001 0 0 0 32 61 A 29.000001 29.000001 0 0 0 61 32 A 29.000001 29.000001 0 0 0 57.394531 18 L 32 18 z "
     transform="scale(0.26458334)" />
  <circle
     style="fill:#ffffff;stroke-width:0.30868"
     id="path925"
     cx="8.4666662"
     cy="8.4666662"
     r="3.7041667" />
  <circle
     style="fill:#3e55d7;fill-opacity:1;stroke-width:0.485069"
     id="path13193"
     cx="8.4666662"
     cy="8.4666662"
     r="2.9104166" />
  <path
     id="rect1116"
     style="fill:#212121;fill-opacity:1;stroke-width:2;stroke-linecap:round;stroke-linejoin:round"
     d="M 2.2636719 38 C 4.2078091 52.715379 16.736758 64 32 64 C 47.263242 64 59.792191 52.715379 61.736328 38 L 2.2636719 38 z "
     transform="scale(0.26458334)" />
  <path
     id="rect861"
     style="fill:#424242;fill-opacity:1;stroke-width:2;stroke-linecap:round;stroke-linejoin:round"
     d="M 3.640625 38 A 29.000001 29.000001 0 0 0 32 61 A 29.000001 29.000001 0 0 0 60.359375 38 L 3.640625 38 z "
     transform="scale(0.26458334)" />
  <path
     d="m 4.4185417,11.11654 v 3.028519 h 0.8355477 c 0.8000456,0 1.1995687,-0.287011 1.1995687,-0.861403 0,-0.234446 -0.064292,-0.407113 -0.1932376,-0.518475 -0.1289451,-0.111365 -0.2974766,-0.184606 -0.5055468,-0.219774 0.1582507,-0.03223 0.2916518,-0.107309 0.400083,-0.224536 0.1113608,-0.117224 0.1667013,-0.263713 0.1667013,-0.439547 0,-0.25789 -0.1024074,-0.449615 -0.307547,-0.575629 C 5.8119018,11.17968 5.5189216,11.11654 5.1350171,11.11654 Z m 5.4725657,0.140845 -0.404166,0.04831 v 0.523239 H 9.0827756 v 0.311628 h 0.4041658 v 1.39825 c 0,0.213932 0.05419,0.377646 0.162619,0.491939 0.111361,0.111365 0.264972,0.16738 0.4613196,0.16738 0.193419,0 0.366767,-0.05304 0.519157,-0.158535 l -0.153774,-0.268082 c -0.114291,0.06154 -0.217379,0.09254 -0.308228,0.09254 -0.09964,0 -0.1710519,-0.02618 -0.2150099,-0.07894 -0.04103,-0.05568 -0.06192,-0.143847 -0.06192,-0.264001 v -1.380557 h 0.5055469 l 0.04423,-0.31163 H 9.8911084 Z M 4.8363155,11.44654 h 0.3429284 c 0.2403068,0 0.4189426,0.0333 0.5361656,0.100701 0.1201537,0.0674 0.1803094,0.188868 0.1803094,0.364702 0,0.15532 -0.057172,0.275633 -0.1714639,0.360619 -0.1113609,0.08499 -0.2548677,0.127244 -0.4307017,0.127244 H 4.8363155 Z m 3.02852,0.32932 c -0.1963482,0 -0.3678641,0.05304 -0.5143923,0.158536 -0.1435983,0.105501 -0.2549577,0.251991 -0.3340833,0.439548 -0.076195,0.184625 -0.1143089,0.39724 -0.1143089,0.637547 0,0.369252 0.089318,0.659247 0.2680832,0.870248 0.1816953,0.211002 0.4342567,0.316391 0.7566193,0.316391 0.2930572,0 0.5621635,-0.09712 0.8083314,-0.290536 L 8.5595377,13.666048 c -0.1025694,0.07034 -0.2008408,0.121543 -0.294619,0.153774 -0.093778,0.03223 -0.1961855,0.04831 -0.307547,0.04831 -0.1758344,0 -0.3193401,-0.06016 -0.4307017,-0.180309 C 7.4153091,13.567674 7.3503361,13.380079 7.3327521,13.12512 h 1.4771777 c 0.00586,-0.07034 0.00885,-0.138761 0.00885,-0.206165 0,-0.35753 -0.082198,-0.637421 -0.2463095,-0.83963 C 8.4083534,11.877115 8.1725456,11.77586 7.8648355,11.77586 Z m 3.9082955,0 c -0.246167,0 -0.51297,0.05304 -0.800166,0.158536 l 0.100701,0.29462 c 0.246168,-0.08206 0.454647,-0.123149 0.62462,-0.123149 0.164112,0 0.285576,0.03513 0.364701,0.105466 0.07913,0.07034 0.118392,0.187661 0.118392,0.351773 v 0.170784 h -0.355856 c -0.325293,0 -0.577174,0.06612 -0.755939,0.198 -0.175834,0.131876 -0.264001,0.321298 -0.264001,0.567465 0,0.20807 0.06612,0.376602 0.198001,0.505547 0.131875,0.128943 0.312344,0.193236 0.540929,0.193236 0.304779,0 0.534619,-0.116171 0.689939,-0.34769 0.03517,0.111364 0.08935,0.193563 0.162619,0.24631 0.07326,0.05276 0.169702,0.08673 0.289856,0.101384 l 0.09254,-0.281691 c -0.06447,-0.02345 -0.112692,-0.05673 -0.144928,-0.100699 -0.03224,-0.04689 -0.04831,-0.117145 -0.04831,-0.210928 v -1.059403 c 0,-0.246168 -0.06728,-0.43559 -0.202083,-0.567465 -0.13481,-0.134819 -0.338472,-0.202096 -0.611015,-0.202096 z m -3.89945,0.321155 c 0.1816953,0 0.3180807,0.06015 0.4089284,0.18031 0.090848,0.12016 0.1360827,0.293972 0.1360827,0.522557 v 0.02653 h -1.08594 c 0.029305,-0.486469 0.2097744,-0.729398 0.5409289,-0.729397 z m -3.0373655,0.623939 h 0.4967018 c 0.2022091,0 0.3659243,0.04408 0.4919387,0.132001 0.1260142,0.08791 0.189155,0.231422 0.189155,0.430701 0,0.205136 -0.066125,0.344505 -0.1980002,0.417774 -0.1289451,0.07327 -0.3158535,0.109548 -0.5620214,0.109548 H 4.8363155 Z m 7.0028155,0.281692 c 0.01296,-3.1e-4 0.02609,0 0.03946,0 h 0.302784 v 0.531403 c -0.131876,0.240306 -0.313496,0.360618 -0.545011,0.360618 -0.131875,0 -0.231298,-0.03513 -0.298701,-0.105466 -0.0674,-0.07034 -0.101382,-0.174573 -0.101382,-0.312309 0,-0.306612 0.201307,-0.464668 0.602846,-0.474249 z"
     style="font-size:3.33859px;line-height:1.25;font-family:'Fira Sans';-inkscape-font-specification:'Fira Sans';fill:#ffffff;stroke-width:0.109897"
     id="path5340" />
</svg>
