<?xml version="1.0" encoding="UTF-8" standalone="no"?>
<!-- Created with Inkscape (http://www.inkscape.org/) -->

<svg
   width="64"
   height="64"
   viewBox="0 0 16.933333 16.933333"
   version="1.1"
   id="svg5"
   inkscape:version="1.2 (dc2aedaf03, 2022-05-15)"
   sodipodi:docname="ibus-setup-hangul.svg"
   xmlns:inkscape="http://www.inkscape.org/namespaces/inkscape"
   xmlns:sodipodi="http://sodipodi.sourceforge.net/DTD/sodipodi-0.dtd"
   xmlns="http://www.w3.org/2000/svg"
   xmlns:svg="http://www.w3.org/2000/svg">
  <sodipodi:namedview
     id="namedview7"
     pagecolor="#ffffff"
     bordercolor="#666666"
     borderopacity="1.0"
     inkscape:pageshadow="2"
     inkscape:pageopacity="0.0"
     inkscape:pagecheckerboard="0"
     inkscape:document-units="px"
     showgrid="false"
     units="px"
     height="48px"
     inkscape:zoom="12.71875"
     inkscape:cx="32.19656"
     inkscape:cy="32.117936"
     inkscape:window-width="1846"
     inkscape:window-height="1011"
     inkscape:window-x="0"
     inkscape:window-y="0"
     inkscape:window-maximized="1"
     inkscape:current-layer="svg5"
     inkscape:showpageshadow="2"
     inkscape:deskcolor="#d1d1d1" />
  <defs
     id="defs2" />
  <path
     id="rect5567"
     style="opacity:1;fill:#1f285a;stroke-width:0.529166"
     d="m 8.4666662,0.52916666 c 4.3973748,0 7.9374988,3.54012474 7.9374988,7.93749954 v 0.5291672 c 0,4.3973746 -3.540124,7.9374996 -7.9374988,7.9374996 -4.3973748,0 -7.93749954,-3.540125 -7.93749954,-7.9374996 V 8.4666662 c 0,-4.3973748 3.54012474,-7.93749954 7.93749954,-7.93749954 z" />
  <circle
     style="opacity:1;fill:#3f51b5;fill-opacity:1;stroke-width:0.548065"
     id="path4871"
     cx="8.4666662"
     cy="8.4666662"
     r="7.6729164" />
  <path
     id="path934-7"
     style="fill:#7f6728;fill-opacity:1;stroke-width:1.05833"
     d="m 12.769245,1.7880044 c -0.0046,2.265e-4 -0.0089,8.053e-4 -0.01344,0.00103 l -0.281115,3.126424 0.03927,0.088883 -0.03927,0.4402831 2.291332,5.1304355 -0.95498,2.337842 c -0.425431,0.762795 -0.886532,1.145987 -1.853117,2.08566 -0.294189,0.299732 -0.89965,0.668948 -1.57973,0.895243 -2.68e-4,4.09e-4 -1.911529,1.039523 -1.911529,1.039523 4.380105,0 7.908817,-3.512464 7.936466,-7.8858228 2.3e-5,-0.01938 0.001,-0.033504 0.001,-0.051676 V 8.466666 c 0,-2.8092341 -1.444814,-5.2686466 -3.63492,-6.6786616 z"
     sodipodi:nodetypes="ccccccccccccscc" />
  <path
     id="path1114"
     style="fill:#671d00;fill-opacity:1;stroke-width:2.11666;stroke-linejoin:round"
     d="m 8.4666665,0.52916667 c -3.0997558,0 -5.7736467,1.75927863 -7.0817382,4.33771963 C 1.2535199,5.4118798 1.2177531,5.9307812 1.0836548,6.3887572 1.0267001,6.5832701 1.3555385,7.906194 1.3694254,8.123535 4.5117405,8.0724366 6.9904549,8.5853652 7.257438,4.8431151 7.6913215,3.8204441 8.8185622,3.1844784 10.000423,3.1398599 c 1.078504,-0.040713 3.140403,-0.7456893 3.963065,-0.047025 0.380404,0.3237772 0.909356,0.8259545 1.275891,1.2216308 C 13.846434,2.0404702 11.339623,0.52916667 8.4666665,0.52916667 Z" />
  <path
     d="M 10.454003,1.6395231 C 10.283009,1.6336031 10.11385,1.6339931 9.9481185,1.6402741 8.3615055,1.7001701 6.4763897,2.7408728 5.832854,4.2576944 5.1061999,5.9704316 4.6108038,8.4526386 8.4544811,8.4526386 9.470302,6.7058874 12.124545,7.0600967 13.244627,8.5457096 c 0.991959,1.3156782 0.93808,3.1055614 0.196651,4.5094334 -0.619576,1.173146 -1.664418,2.339094 -3.063083,2.838662 3.314079,-0.853252 5.761387,-3.862219 5.761387,-7.4411665 0,-2.0823097 -0.829243,-3.9754427 -2.175907,-5.3598314 C 13.898622,3.0365391 13.827363,2.98607 13.75952,2.9321845 12.794123,2.1921968 11.581898,1.6783636 10.454003,1.6395231 Z"
     style="fill:#ffce51;fill-opacity:1;fill-rule:evenodd;stroke-width:0.768583"
     id="path886" />
  <path
     d="M 8.3186268,0.79530774 C 7.0649612,0.82056514 5.800227,1.1532882 4.6378235,1.8243413 2.8343262,2.8654936 1.6095592,4.5302335 1.0838669,6.3885665 1.0692012,6.4649816 1.0614706,6.5449098 1.0493403,6.6227456 0.85877061,8.0191864 1.3252082,9.4233615 1.999564,10.495695 2.8447502,11.839667 4.36837,12.781926 6.0038642,12.580781 7.8506001,12.353657 9.4849584,10.232682 8.4799999,8.4796589 6.4592201,8.4733713 5.4393331,5.9974522 6.1659879,4.2847147 6.8095222,2.7678931 8.3870242,1.9195176 9.9736368,1.8596184 11.299491,1.8095681 12.831665,2.1314228 13.963675,3.0928072 12.466147,1.5658131 10.408069,0.75321209 8.3186268,0.79530774 Z"
     style="fill:#cf3b00;fill-opacity:1;fill-rule:evenodd;stroke-width:0.768583"
     id="path858" />
  <rect
     style="fill:#552d5d;fill-opacity:1;stroke-width:0.264583"
     id="rect12654"
     width="7.9375"
     height="8.4666662"
     x="8.9958334"
     y="8.4666662"
     ry="3.96875" />
  <circle
     style="fill:#aa5abb;fill-opacity:1;stroke-width:0.264583"
     id="path13694"
     cx="12.964583"
     cy="12.435417"
     r="3.7041667" />
  <path
     d="m 12.488328,10.583333 -0.04075,0.487892 c -0.154742,0.05731 -0.29861,0.140513 -0.42545,0.246062 l -0.443177,-0.20902 -0.463021,0.802216 0.402432,0.2794 c -0.01434,0.08107 -0.02178,0.163208 -0.02222,0.245534 4e-5,0.08265 0.0071,0.165144 0.02117,0.246591 l -0.401637,0.278342 0.463021,0.802216 0.442383,-0.208491 c 0.127276,0.10509 0.271503,0.187761 0.426508,0.244475 l 0.04075,0.48895 h 0.926042 l 0.04075,-0.487892 c 0.154742,-0.05731 0.29861,-0.140513 0.42545,-0.246062 l 0.443177,0.20902 0.463021,-0.802216 -0.402432,-0.2794 c 0.01434,-0.08107 0.02177,-0.163208 0.02223,-0.245533 -4e-5,-0.08265 -0.0071,-0.165145 -0.02117,-0.246592 l 0.401637,-0.278342 -0.463021,-0.802216 -0.442383,0.208491 c -0.12729,-0.10509 -0.271517,-0.187761 -0.426522,-0.244475 l -0.04075,-0.48895 z m 0.463021,1.322917 c 0.29225,0 0.529167,0.236916 0.529167,0.529167 0,0.29225 -0.236917,0.529166 -0.529167,0.529166 -0.292251,0 -0.529167,-0.236916 -0.529167,-0.529166 0,-0.292251 0.236916,-0.529167 0.529167,-0.529167 z"
     style="fill:#fafafb;stroke-width:0.264583"
     id="path9315" />
</svg>
