<?xml version="1.0" encoding="UTF-8" standalone="no"?>
<!-- Created with Inkscape (http://www.inkscape.org/) -->

<svg
   width="64"
   height="64"
   viewBox="0 0 16.933333 16.933333"
   version="1.1"
   id="svg5"
   inkscape:version="1.2 (dc2aedaf03, 2022-05-15)"
   sodipodi:docname="inkscape.svg"
   xmlns:inkscape="http://www.inkscape.org/namespaces/inkscape"
   xmlns:sodipodi="http://sodipodi.sourceforge.net/DTD/sodipodi-0.dtd"
   xmlns="http://www.w3.org/2000/svg"
   xmlns:svg="http://www.w3.org/2000/svg">
  <sodipodi:namedview
     id="namedview7"
     pagecolor="#ffffff"
     bordercolor="#666666"
     borderopacity="1.0"
     inkscape:pageshadow="2"
     inkscape:pageopacity="0.0"
     inkscape:pagecheckerboard="0"
     inkscape:document-units="px"
     showgrid="false"
     units="px"
     height="48px"
     inkscape:zoom="8.3437497"
     inkscape:cx="22.471911"
     inkscape:cy="19.655431"
     inkscape:window-width="1920"
     inkscape:window-height="1009"
     inkscape:window-x="0"
     inkscape:window-y="0"
     inkscape:window-maximized="1"
     inkscape:current-layer="svg5"
     inkscape:showpageshadow="2"
     inkscape:deskcolor="#d1d1d1" />
  <defs
     id="defs2" />
  <rect
     style="opacity:1;fill:#444444;fill-opacity:1;stroke-width:0.264583"
     id="rect845"
     width="10.318749"
     height="10.318749"
     x="6.7858434"
     y="-5.1593747"
     ry="1.0583333"
     transform="rotate(45)" />
  <path
     d="m 8.4666666,4.7624999 c -0.1785938,0 -0.3571875,0.067469 -0.492125,0.2103437 L 5.5178853,7.5049061 C 5.3829478,7.6438124 5.3115103,7.8263749 5.3075416,8.008937 v 0.01191 c 0,0.543718 1.4485937,0.01588 1.5795625,0.678656 0.071438,0.361156 -0.7897813,0.194469 -0.7897813,0.555625 0,0.424656 1.2184063,0.134937 1.5676563,0.480219 0.142875,0.34925 -0.4683125,0.293687 -0.3571875,0.619125 0.2024062,0.210343 0.6627812,0.09128 0.7500937,0.432593 0.1031875,0.388938 0.762,0.321469 1.1469688,0.03572 C 9.411229,10.612441 8.8913228,10.517191 9.0937291,10.302879 9.300104,10.092535 10.308168,10.136191 10.316105,9.675816 10.220855,9.386098 9.8398537,9.338473 9.8358847,8.99716 9.8160447,8.707441 10.145448,8.790785 11.193199,8.505035 11.609918,8.306598 11.625793,8.20341 11.625793,8.020848 v -0.01191 c -0.004,-0.1825621 -0.08731,-0.3651246 -0.22225,-0.5040309 L 8.9587916,4.9728436 C 8.8198853,4.8299686 8.6452603,4.7624999 8.4666666,4.7624999 Z m 0.047625,0.5318125 c 0.1865312,0 0.6945312,0.6270625 1.1469687,1.0993437 0.1309684,0.1706563 -0.047625,0.3452813 -0.047625,0.3452813 L 8.6651041,6.2190311 8.2444166,6.7865624 7.8753228,6.2309374 7.6530728,7.0961249 6.9982291,6.7032186 7.1728541,6.4809686 8.1967916,5.4292499 c 0.075406,-0.079375 0.1389062,-0.1349375 0.3175,-0.1349375 z M 11.328136,9.096375 c -0.05159,-0.004 -0.09922,0 -0.134937,0.01191 -0.06747,0.01984 -0.384969,0.03175 -0.357188,0.269875 0.28575,0.123031 0.722313,0.218281 0.773907,-0.02381 0.03969,-0.178594 -0.130969,-0.254 -0.281782,-0.257969 z M 6.4306978,9.898062 c -0.027781,0.004 -0.047625,0.01191 -0.071438,0.02381 -0.2182812,0.08334 -0.365125,0.257969 -0.1627187,0.333375 0.2024062,0.07541 0.3413125,-0.004 0.5199062,-0.09922 0.1785938,-0.09525 0.1706563,-0.111125 0.15875,-0.146844 -0.023813,0.004 -0.1865312,-0.09525 -0.3571875,-0.111125 -0.027781,-0.004 -0.059531,-0.004 -0.087313,0 z"
     style="fill:#ffffff;stroke-width:0.396875"
     id="path1246" />
  <path
     id="rect1223"
     style="opacity:0.5;fill:#000000;fill-opacity:1;stroke-width:0.529167;stroke-linecap:round"
     d="M 7.0951184 -4.8500544 C 6.9038248 -4.6587609 6.7859836 -4.394127 6.7859836 -4.1009689 L 6.7859836 4.1009689 C 6.7859836 4.687285 7.2578878 5.1591892 7.8442039 5.1591892 L 16.046142 5.1591892 C 16.632458 5.1591892 17.104362 4.687285 17.104362 4.1009689 L 17.104362 -4.1009689 C 17.104362 -4.687285 16.632458 -5.1591892 16.046142 -5.1591892 L 7.8442039 -5.1591892 C 7.5510458 -5.1591892 7.2864119 -5.041348 7.0951184 -4.8500544 z M 7.298285 -4.6790437 C 7.4656669 -4.8464255 7.6969474 -4.9498107 7.9534607 -4.9498107 L 15.362099 -4.9494453 C 15.875125 -4.9494453 16.288042 -4.5365291 16.288042 -4.0235025 L 16.288042 3.3847701 C 16.288042 3.8977967 15.875125 4.3107129 15.362099 4.3107129 L 7.9538261 4.3107129 C 7.4407996 4.3107129 7.0278834 3.8977967 7.0278834 3.3847701 L 7.027518 -4.0238679 C 7.027518 -4.2803812 7.1309031 -4.5116618 7.298285 -4.6790437 z "
     transform="rotate(45)" />
</svg>
