<?xml version="1.0" encoding="UTF-8" standalone="no"?>
<!-- Created with Inkscape (http://www.inkscape.org/) -->

<svg
   width="64"
   height="64"
   viewBox="0 0 16.933333 16.933334"
   version="1.1"
   id="svg1099"
   inkscape:version="1.2 (dc2aedaf03, 2022-05-15)"
   sodipodi:docname="kleopatra.svg"
   xmlns:inkscape="http://www.inkscape.org/namespaces/inkscape"
   xmlns:sodipodi="http://sodipodi.sourceforge.net/DTD/sodipodi-0.dtd"
   xmlns="http://www.w3.org/2000/svg"
   xmlns:svg="http://www.w3.org/2000/svg">
  <sodipodi:namedview
     id="namedview1101"
     pagecolor="#ffffff"
     bordercolor="#666666"
     borderopacity="1.0"
     inkscape:pageshadow="2"
     inkscape:pageopacity="0.0"
     inkscape:pagecheckerboard="0"
     inkscape:document-units="px"
     showgrid="false"
     units="px"
     inkscape:zoom="12.5"
     inkscape:cx="32"
     inkscape:cy="32"
     inkscape:window-width="1920"
     inkscape:window-height="1016"
     inkscape:window-x="0"
     inkscape:window-y="0"
     inkscape:window-maximized="1"
     inkscape:current-layer="svg1099"
     inkscape:showpageshadow="2"
     inkscape:deskcolor="#d1d1d1" />
  <defs
     id="defs1096" />
  <rect
     style="opacity:1;fill:#d3b165;fill-opacity:1;stroke-width:0.529167;stroke-linecap:round"
     id="rect934"
     width="13.758333"
     height="13.758333"
     x="1.5875"
     y="-15.345833"
     ry="1.190625"
     transform="scale(1,-1)" />
  <path
     d="m 7.8347954,5.8207122 c -0.5996552,0 -1.2310485,0.1651212 -1.8801503,0.4905009 -0.5283512,0.26485 -0.754337,0.4826679 -0.6294039,0.6083206 0.04407,0.044326 0.013979,0.05378 0.7540445,-0.2362592 0.5057647,-0.1982142 1.1277952,-0.3651761 1.4640616,-0.3937649 0.5192238,-0.044143 1.137623,0.061197 2.232368,0.4632164 0.3931257,0.1443657 0.8452217,0.2641715 1.0045657,0.3050902 0.340789,0.087513 0.376282,0.074062 0.66041,0.075032 l 0.200912,6.204e-4 v -0.140143 c 0,-0.1957944 -0.02355,-0.2145553 -0.269125,-0.2145553 -0.547449,0 -0.683515,-0.057055 -1.5074677,-0.42415 C 8.9824834,5.961428 8.44743,5.8207122 7.8347954,5.8207122 Z M 7.306468,7.092542 C 7.213259,7.096012 7.1296765,7.105204 7.0627679,7.119208 6.7541719,7.183779 6.3414589,7.4187208 6.087967,7.6568366 5.695044,8.0259259 5.2513673,8.7156061 5.2948563,8.8896001 c 0.019583,0.078351 0.039485,0.083284 0.3857036,0.097976 0.200984,0.00853 0.5949462,0.055179 0.9034889,0.1029371 l 0.4886407,0.086194 v 0.2430805 c -0.096777,0.4452699 -0.027142,0.6861343 -0.00992,0.8482993 0.064494,0.58691 0.065246,0.650658 0.2145553,0.629404 0.2306515,-0.380884 0.256914,-1.1119184 0.2585848,-1.5328928 l 0.235639,0.2319184 c 0.2383964,0.2136 0.4111698,0.327596 0.5599524,0.4049264 0.6497167,0.337696 1.3817963,0.593294 2.086644,0.548171 0.271598,0 0.61473,-0.306285 0.614521,-0.6597884 -1.11e-4,-0.272582 -0.07542,-0.4196723 -0.259202,-0.5072442 -0.337859,-0.1609915 -0.712498,0.030267 -0.712498,0.3875642 0,0.3506774 0.332364,0.5447584 0.553132,0.3230724 0.09209,-0.09247 0.115006,-0.2472614 0.04961,-0.3410554 -0.02903,-0.04163 -0.03176,-0.0353 -0.01364,0.02915 0.06254,0.2223974 -0.108345,0.3765484 -0.304471,0.2747054 -0.204969,-0.1064334 -0.165807,-0.4484414 0.05767,-0.5047634 0.110385,-0.02782 0.303405,0.06992 0.375783,0.218276 0.039,0.07995 0.04026,0.127939 0.0068,0.2399794 -0.109688,0.367564 -0.743724,0.302906 -1.483305,-0.0081 C 8.8195939,9.7983683 8.2801251,9.5206803 8.0152431,9.2926676 7.8323605,9.1312996 7.9438143,9.167408 8.4207902,9.0892741 8.5579211,9.0668147 9.0547535,8.9497898 9.4073729,8.829451 10.033819,8.6156646 10.057015,8.4837189 10.439843,8.4809536 c 0.215492,-0.00158 -0.142344,-0.015012 0.215175,6.349e-4 l 0.669093,0.027887 V 8.1870226 7.7380684 L 10.548363,7.7182252 C 9.4662106,7.6896858 9.9941573,7.8420976 8.8771873,7.4087942 8.6639029,7.3260564 8.4366018,7.2265805 8.28747,7.1874178 8.023002,7.1179671 7.5860979,7.0821196 7.306468,7.092542 Z m 1.2674894,0.5649131 c 0.012967,0 0.1978161,0.1045271 0.4954617,0.2325385 0.2976463,0.1280116 0.5793962,0.241799 0.6263032,0.2536218 0.04691,0.01182 0.08557,0.03445 0.08557,0.049608 0,0.015157 -0.180818,0.1176908 -0.4012066,0.2275776 C 8.9306454,8.6448962 8.6640744,8.7389672 8.2298004,8.7606173 l -0.1072775,0.00434 0.1159592,-0.091775 c 0.06368,-0.050399 0.160074,-0.1665812 0.213935,-0.2585867 0.085452,-0.1459674 0.097976,-0.2051191 0.097976,-0.4625962 0,-0.16229 0.010596,-0.2945491 0.023564,-0.2945482 z m -1.9396801,0.076893 c 0.053382,-0.010152 0.052829,0.073289 0.053329,0.2393595 0.00102,0.3268135 0.079186,0.5046404 0.3038504,0.6920342 l 0.1475836,0.12278 -0.6901738,-0.064491 C 6.0819768,8.6888872 5.796546,8.6527878 5.7865974,8.6427978 5.7509383,8.606991 5.9477542,8.3329841 6.2361715,8.0549407 6.4509194,7.8479166 6.5808967,7.7445045 6.6342773,7.7343481 Z"
     style="fill:#482f00;stroke-width:0.317492"
     id="path304" />
  <path
     id="rect1524"
     style="opacity:0.5;fill:#000000;fill-opacity:1;stroke-width:2;stroke-linecap:round"
     d="M 10.5 6 C 8.0070001 6 6 8.0070001 6 10.5 L 6 53.5 C 6 55.993 8.0070001 58 10.5 58 L 53.5 58 C 55.993 58 58 55.993 58 53.5 L 58 10.5 C 58 8.0070001 55.993 6 53.5 6 L 10.5 6 z M 11 7 L 53 7 C 55.216 7 57 8.7839999 57 11 L 57 51 C 57 53.216 55.216 55 53 55 L 11 55 C 8.7839999 55 7 53.216 7 51 L 7 11 C 7 8.7839999 8.7839999 7 11 7 z "
     transform="scale(0.26458334)" />
</svg>
