<?xml version="1.0" encoding="UTF-8" standalone="no"?>
<!-- Created with Inkscape (http://www.inkscape.org/) -->

<svg
   width="64"
   height="64"
   viewBox="0 0 16.933333 16.933333"
   version="1.1"
   id="svg266"
   inkscape:version="1.2 (dc2aedaf03, 2022-05-15)"
   sodipodi:docname="ktnef.svg"
   xmlns:inkscape="http://www.inkscape.org/namespaces/inkscape"
   xmlns:sodipodi="http://sodipodi.sourceforge.net/DTD/sodipodi-0.dtd"
   xmlns="http://www.w3.org/2000/svg"
   xmlns:svg="http://www.w3.org/2000/svg">
  <sodipodi:namedview
     id="namedview268"
     pagecolor="#ffffff"
     bordercolor="#000000"
     borderopacity="0.25"
     inkscape:showpageshadow="2"
     inkscape:pageopacity="0.0"
     inkscape:pagecheckerboard="0"
     inkscape:deskcolor="#d1d1d1"
     inkscape:document-units="px"
     showgrid="false"
     inkscape:lockguides="false"
     inkscape:zoom="12.390625"
     inkscape:cx="32.040353"
     inkscape:cy="32.080706"
     inkscape:window-width="1920"
     inkscape:window-height="1010"
     inkscape:window-x="0"
     inkscape:window-y="0"
     inkscape:window-maximized="1"
     inkscape:current-layer="svg266" />
  <defs
     id="defs263" />
  <rect
     style="fill:#a27100;fill-opacity:1;stroke-width:0.264583"
     id="rect322"
     width="14.816667"
     height="11.641666"
     x="1.0583333"
     y="4.2333331"
     ry="1.0583333" />
  <rect
     style="fill:#ffce51;fill-opacity:1;stroke-width:0.264583"
     id="rect3362"
     width="14.816667"
     height="11.641666"
     x="1.0583333"
     y="3.7041667"
     ry="1.0583333" />
  <path
     d="M 2.1166666,15.345832 H 14.816666 c 0.586317,0 1.058333,-0.472016 1.058333,-1.058333 L 8.4666662,3.9687499 1.0583333,14.287499 c 0,0.586317 0.4720167,1.058333 1.0583333,1.058333 z"
     style="fill:#c29a32;stroke-width:0.264583"
     id="path3273" />
  <path
     d="M 15.875001,4.7624999 V 5.2916666 L 8.4666666,11.112499 1.0583333,5.2916666 V 4.7624999 Z"
     style="fill-opacity:0.196;stroke-width:0.264583"
     id="path1228" />
  <path
     d="M 2.1166666,3.7041666 H 14.816666 c 0.586317,0 1.058334,0.4720167 1.058334,1.0583333 L 8.466666,10.583333 1.0583333,4.7624999 c 0,-0.5863166 0.4720166,-1.0583333 1.0583333,-1.0583333 z"
     style="fill:#ffee7d;stroke-width:0.264583"
     id="path4419" />
  <path
     d="m 2.1140815,3.7041666 c -0.5825596,0 -1.0557484,0.4731888 -1.0557484,1.0557484 v 9.53017 c 0,0.582559 0.4731887,1.055748 1.0557484,1.055748 H 14.819251 c 0.58256,0 1.055748,-0.473189 1.055748,-1.055748 v -9.53017 c 0,-0.5825596 -0.473188,-1.0557484 -1.055748,-1.0557484 z m 0,0.2645834 H 14.819251 c 0.440558,0 0.791165,0.3506073 0.791165,0.791165 v 9.53017 c 0,0.440557 -0.350607,0.791165 -0.791165,0.791165 H 2.1140815 c -0.4405578,0 -0.791165,-0.350608 -0.791165,-0.791165 v -9.53017 c 0,-0.4405577 0.3506072,-0.791165 0.791165,-0.791165 z"
     style="color:#000000;fill:#303030;fill-opacity:1;stroke-width:0.264583;stroke-linecap:round;stroke-linejoin:round;-inkscape-stroke:none;opacity:0.4"
     id="path7178" />
  <rect
     style="fill:#245c63;fill-opacity:1;stroke-width:0.264583"
     id="rect49816"
     width="6.8791666"
     height="6.3499999"
     x="9.5249996"
     y="10.054167"
     ry="1.4552083" />
  <rect
     style="fill:#48b9c7;fill-opacity:1;stroke-width:0.264583"
     id="rect3945"
     width="6.3499999"
     height="5.2916665"
     x="9.7895823"
     y="10.31875"
     ry="1.3229166" />
  <path
     d="m 12.699998,14.552084 c -0.146125,0 -0.264583,-0.118458 -0.264583,-0.264584 v -1.322916 h -0.529167 l 1.041796,-1.587501 1.074871,1.587501 h -0.529167 v 1.322915 c 0,0.146127 -0.118458,0.264584 -0.264583,0.264584 z"
     style="color:#000000;fill:#ffffff;stroke-width:0.264583"
     id="path300"
     sodipodi:nodetypes="sscccccsss" />
</svg>
