<?xml version="1.0" encoding="UTF-8" standalone="no"?>
<!-- Created with Inkscape (http://www.inkscape.org/) -->

<svg
   width="64"
   height="64"
   viewBox="0 0 16.933333 16.933334"
   version="1.1"
   id="svg1099"
   inkscape:version="1.1.2 (0a00cf5339, 2022-02-04, custom)"
   sodipodi:docname="kvantum.svg"
   xmlns:inkscape="http://www.inkscape.org/namespaces/inkscape"
   xmlns:sodipodi="http://sodipodi.sourceforge.net/DTD/sodipodi-0.dtd"
   xmlns="http://www.w3.org/2000/svg"
   xmlns:svg="http://www.w3.org/2000/svg">
  <sodipodi:namedview
     id="namedview1101"
     pagecolor="#ffffff"
     bordercolor="#666666"
     borderopacity="1.0"
     inkscape:pageshadow="2"
     inkscape:pageopacity="0.0"
     inkscape:pagecheckerboard="0"
     inkscape:document-units="px"
     showgrid="false"
     units="px"
     inkscape:zoom="12.15625"
     inkscape:cx="31.958869"
     inkscape:cy="32"
     inkscape:window-width="1920"
     inkscape:window-height="1002"
     inkscape:window-x="0"
     inkscape:window-y="0"
     inkscape:window-maximized="1"
     inkscape:current-layer="svg1099" />
  <defs
     id="defs1096" />
  <rect
     style="opacity:1;fill:#cf3b00;fill-opacity:1;stroke-width:0.529167;stroke-linecap:round"
     id="rect934"
     width="14.816667"
     height="11.641666"
     x="1.0583333"
     y="3.7041667"
     ry="1.0583334" />
  <path
     id="path24962"
     style="fill:#faa41a;fill-opacity:1;stroke-width:0.0370438"
     d="M 6.3499998,3.7041667 1.0583333,8.9958333 V 14.2875 c 0,0.586317 0.4720166,1.058334 1.0583333,1.058334 H 13.427604 L 15.875,12.73514 V 4.7625 c 0,-0.5863166 -0.472017,-1.0583333 -1.058333,-1.0583333 z"
     sodipodi:nodetypes="ccssccssc" />
  <path
     id="rect8968"
     style="fill:#73c48f;fill-opacity:1;stroke-width:0.529166"
     d="M 11.1125,3.7041667 1.0583333,13.758334 V 14.2875 c 0,0.586317 0.4720166,1.058334 1.0583333,1.058334 H 12.170833 L 15.875,11.641667 V 4.7625 c 0,-0.5863166 -0.472017,-1.0583333 -1.058333,-1.0583333 z" />
  <path
     id="rect6191"
     style="fill:#6a7ce0;stroke-width:0.529166"
     d="M 15.875,4.7625 5.2916665,15.345834 h 9.5250005 c 0.586316,0 1.058333,-0.472017 1.058333,-1.058334 z" />
  <path
     id="rect1303"
     style="fill:#b84acb;fill-opacity:1;stroke-width:0.604763"
     d="m 10.583333,15.345834 h 4.233334 c 0.586316,0 1.058333,-0.472017 1.058333,-1.058334 v -4.233333 z"
     sodipodi:nodetypes="csscc" />
  <path
     d="m 4.7624683,6.8791667 6.46e-5,0.6867536 0.5883571,0.04455 0.098243,0.1336379 -0.9766814,4.6236828 -0.1502574,0.139243 -0.6180275,0.04483 v 0.677261 l 2.6457916,4e-5 8.36e-5,-0.677225 -0.5423001,-0.03906 -0.1040241,-0.144792 0.3987689,-1.799606 h 0.6125686 l 0.8784273,1.623184 c 0.3590234,0.71058 0.6108838,1.015216 1.3869898,1.024642 0.223157,0.0028 0.312931,0.01855 0.914952,0 2.0764187,-1.670415 3.1362977,-3.084526 3.3037557,-3.6601921 0.101419,-0.3486619 -0.0596,-0.5625003 -0.404631,-0.5625003 -0.168307,0 -0.360995,0.068298 -0.577803,0.2061427 l -0.156033,1.3380387 c -0.424963,0.535143 -0.991482,1.118081 -1.681717,1.726223 l 0.603046,-2.4409501 c 0.09474,-0.4703321 0.125976,-0.7212772 -0.190746,-0.8185984 l -1.4158217,0.3007566 -0.07504,0.2561058 0.652942,0.100297 c 0.04539,0.162149 -0.151399,0.6558111 -0.250528,1.1991431 l -0.317851,1.687217 c -0.005,0.01735 -0.0082,0.0364 -0.01156,0.05569 -0.2061,-0.106703 -0.336021,-0.296708 -0.485447,-0.584667 L 7.6454892,9.7832709 9.9166583,7.6551261 l 0.6667227,-0.072385 -9.4e-5,-0.7034858 -2.6458369,1.9e-5 1.01e-4,0.7035213 0.9272952,0.044492 0.05779,0.150359 L 6.526262,9.8594958 H 6.2373074 L 6.6803554,7.7442526 6.8074961,7.6106153 7.4083638,7.5660806 7.408304,6.8792567 Z"
     style="fill:#000000;stroke-width:0.0700042;opacity:0.2"
     id="path1098" />
  <path
     d="m 4.7624682,6.3500001 6.46e-5,0.6867536 0.5883571,0.04455 0.098243,0.1336379 -0.9766813,4.6236824 -0.1502574,0.139243 -0.6180275,0.04483 v 0.677261 l 2.6457916,4e-5 8.36e-5,-0.677225 -0.5423001,-0.03906 -0.1040241,-0.144792 0.3987689,-1.799606 h 0.6125686 l 0.8784273,1.623184 c 0.3590234,0.71058 0.6108834,1.015216 1.3869894,1.024642 0.223157,0.0028 0.312931,0.01855 0.914952,0 2.0764191,-1.670415 3.1362981,-3.0845254 3.3037561,-3.6601921 0.101419,-0.3486616 -0.0596,-0.5625 -0.404631,-0.5625 -0.168307,0 -0.360995,0.068298 -0.577803,0.2061427 L 12.060713,10.00863 c -0.424963,0.535143 -0.991482,1.118081 -1.681717,1.726223 l 0.603046,-2.4409494 c 0.09474,-0.4703324 0.125976,-0.7212775 -0.190746,-0.8185987 l -1.4158221,0.3007567 -0.07504,0.2561061 0.652942,0.1002966 c 0.04539,0.1621484 -0.151399,0.6558111 -0.250528,1.1991427 l -0.317851,1.687217 c -0.005,0.01735 -0.0082,0.0364 -0.01156,0.05569 -0.2061,-0.106703 -0.336021,-0.296708 -0.485447,-0.584667 L 7.645489,9.2541039 9.9166579,7.1259595 l 0.6667231,-0.072385 -9.4e-5,-0.7034858 -2.6458371,1.9e-5 1.01e-4,0.7035213 0.927295,0.044492 0.05779,0.150359 -2.396374,2.0818492 H 6.2373071 L 6.6803551,7.215086 6.8074958,7.0814487 7.4083635,7.036914 7.4083038,6.3500901 Z"
     style="fill:#ffffff;stroke-width:0.264583"
     id="path870"
     sodipodi:nodetypes="ccccccccccccccccccsccccccccccccccccccccccccccc" />
  <path
     id="rect845"
     style="opacity:0.5;fill:#000000;stroke-width:0.529167;stroke-linecap:round"
     d="m 2.1166667,3.7041668 c -0.5863167,0 -1.0583333,0.4720167 -1.0583333,1.0583334 v 9.5250018 c 0,0.586316 0.4720166,1.058333 1.0583333,1.058333 H 14.816667 c 0.586317,0 1.058333,-0.472017 1.058333,-1.058333 V 4.7625002 c 0,-0.5863167 -0.472016,-1.0583334 -1.058333,-1.0583334 z M 2.2489584,3.9687502 H 14.684375 c 0.513027,0 0.926042,0.4130146 0.926042,0.9260417 v 8.7312511 c 0,0.513027 -0.413015,0.926042 -0.926042,0.926042 H 2.2489584 c -0.5130271,0 -0.9260417,-0.413015 -0.9260417,-0.926042 V 4.8947919 c 0,-0.5130271 0.4130146,-0.9260417 0.9260417,-0.9260417 z" />
</svg>
