<?xml version="1.0" encoding="UTF-8" standalone="no"?>
<!-- Created with Inkscape (http://www.inkscape.org/) -->

<svg
   width="64"
   height="64"
   viewBox="0 0 16.933333 16.933334"
   version="1.1"
   id="svg1099"
   inkscape:version="1.2 (dc2aedaf03, 2022-05-15)"
   sodipodi:docname="lastfm.svg"
   xmlns:inkscape="http://www.inkscape.org/namespaces/inkscape"
   xmlns:sodipodi="http://sodipodi.sourceforge.net/DTD/sodipodi-0.dtd"
   xmlns="http://www.w3.org/2000/svg"
   xmlns:svg="http://www.w3.org/2000/svg">
  <sodipodi:namedview
     id="namedview1101"
     pagecolor="#ffffff"
     bordercolor="#666666"
     borderopacity="1.0"
     inkscape:pageshadow="2"
     inkscape:pageopacity="0.0"
     inkscape:pagecheckerboard="0"
     inkscape:document-units="px"
     showgrid="false"
     units="px"
     inkscape:zoom="12.96875"
     inkscape:cx="32.115663"
     inkscape:cy="32.115663"
     inkscape:window-width="1846"
     inkscape:window-height="1011"
     inkscape:window-x="0"
     inkscape:window-y="0"
     inkscape:window-maximized="1"
     inkscape:current-layer="svg1099"
     inkscape:showpageshadow="2"
     inkscape:deskcolor="#d1d1d1" />
  <defs
     id="defs1096" />
  <rect
     style="opacity:1;fill:#cf3b00;stroke-width:0.264583;fill-opacity:1"
     id="rect1196"
     width="15.875"
     height="16.404167"
     x="0.5291667"
     y="0.5291667"
     ry="7.9375" />
  <path
     id="rect1452"
     style="fill:#000000;stroke-width:0.264583;opacity:0.5"
     d="M 8.4666667 0.52916667 C 4.0692961 0.52916667 0.52916667 4.0692961 0.52916667 8.4666667 L 0.52916667 8.9958334 C 0.52916667 13.393204 4.0692961 16.933333 8.4666667 16.933333 C 12.864037 16.933333 16.404167 13.393204 16.404167 8.9958334 L 16.404167 8.4666667 C 16.404167 4.0692961 12.864037 0.52916667 8.4666667 0.52916667 z M 8.4666667 0.79375001 A 7.6729169 7.6729169 0 0 1 16.139583 8.4666667 A 7.6729169 7.6729169 0 0 1 8.4666667 16.139583 A 7.6729169 7.6729169 0 0 1 0.79375001 8.4666667 A 7.6729169 7.6729169 0 0 1 8.4666667 0.79375001 z " />
  <path
     d="M 6.3784281,11.087473 C 6.20903,11.064189 5.9076965,10.964706 5.7066985,10.866439 4.3971185,10.22911 3.8615586,8.6239325 4.5065757,7.2718564 5.2434587,5.7258932 7.2540879,5.3318221 8.4639835,6.4962554 c 0.3498731,0.3361802 0.5052636,0.6230421 1.0320276,1.895055 0.5498929,1.3302215 0.6515319,1.5393483 0.8297259,1.7166726 0.190898,0.188649 0.36779,0.252149 0.706261,0.252149 0.556083,0 0.953192,-0.349092 0.953192,-0.8361913 0,-0.4122744 -0.142687,-0.5443018 -0.870448,-0.8067159 C 10.006486,8.3111943 9.6474921,7.9442696 9.6461881,7.2073509 c 0,-0.3931185 0.09806,-0.6552154 0.347267,-0.9268371 0.3576909,-0.3878269 0.9746929,-0.5158855 1.5206769,-0.3233214 0.232923,0.084084 0.720269,0.5221826 0.720269,0.6475954 0,0.060854 -0.282439,0.2468566 -0.439133,0.2908305 -0.08274,0.021696 -0.154087,-0.00636 -0.249537,-0.09959 -0.193506,-0.1885963 -0.324463,-0.2468566 -0.556083,-0.2468566 -0.399715,0 -0.647623,0.2442108 -0.647623,0.6386524 0,0.3931185 0.157671,0.5260983 0.945374,0.7961324 1.085453,0.3722695 1.406006,0.7084497 1.412522,1.4863789 0.0065,0.6720956 -0.291561,1.1568666 -0.884455,1.4437286 -0.269735,0.129382 -0.361275,0.145944 -0.801711,0.145944 -0.628728,0 -0.911168,-0.118798 -1.2636469,-0.522183 C 9.5132761,10.266522 9.2728611,9.7572507 8.5030754,7.8982319 8.1838248,7.1279229 7.7740109,6.7503619 7.0905534,6.6017716 6.744264,6.5266827 6.2621297,6.5964798 5.9477656,6.7645963 5.6412194,6.9274212 5.2988394,7.2947165 5.1372589,7.6305791 5.0036946,7.9032062 4.9909906,7.9796709 4.9909906,8.453858 c 0,0.4523324 0.01792,0.5595418 0.1296543,0.8077214 0.1693983,0.3788841 0.5026571,0.7289283 0.8691443,0.9175766 0.2648479,0.135679 0.3472669,0.152559 0.7697854,0.152559 0.4059044,0 0.51015,-0.01958 0.7521938,-0.137003 0.2762507,-0.137 0.6476242,-0.4731801 0.7991054,-0.725011 l 0.078836,-0.1307042 0.1553903,0.3606806 c 0.086654,0.1991783 0.1563683,0.3865046 0.1563683,0.4202126 0,0.09964 -0.3511763,0.425239 -0.6730331,0.628069 C 7.5397848,11.0544 6.97849,11.169176 6.3790801,11.086467"
     style="fill:#ffffff;stroke-width:0.529167"
     id="path16950" />
</svg>
