<?xml version="1.0" encoding="UTF-8" standalone="no"?>
<svg
   width="64"
   height="64"
   version="1.1"
   id="svg16"
   sodipodi:docname="microsoft-edge.svg"
   inkscape:version="1.2 (dc2aedaf03, 2022-05-15)"
   xmlns:inkscape="http://www.inkscape.org/namespaces/inkscape"
   xmlns:sodipodi="http://sodipodi.sourceforge.net/DTD/sodipodi-0.dtd"
   xmlns="http://www.w3.org/2000/svg"
   xmlns:svg="http://www.w3.org/2000/svg">
  <defs
     id="defs20" />
  <sodipodi:namedview
     id="namedview18"
     pagecolor="#ffffff"
     bordercolor="#000000"
     borderopacity="0.25"
     inkscape:showpageshadow="2"
     inkscape:pageopacity="0.0"
     inkscape:pagecheckerboard="0"
     inkscape:deskcolor="#d1d1d1"
     showgrid="false"
     inkscape:zoom="11.313709"
     inkscape:cx="32.261747"
     inkscape:cy="34.471456"
     inkscape:window-width="1920"
     inkscape:window-height="1011"
     inkscape:window-x="0"
     inkscape:window-y="0"
     inkscape:window-maximized="1"
     inkscape:current-layer="svg16" />
  <path
     id="path12324"
     style="color:#000000;fill:#0b6e5f;fill-opacity:1;stroke:none;stroke-width:2.00197"
     d="M 31.998047,2.0000001 C 16.336655,1.9984495 3.5654985,14.098054 2.2441406,29.494141 l -0.044922,-0.0078 c -9.761e-4,0.0058 -9.866e-4,0.0118 -0.00195,0.01758 -0.00118,0.0078 -7.838e-4,0.01564 -0.00195,0.02344 C 2.0806933,30.217102 2.0093351,30.9186 2,31.630859 v 1.999721 h 0.029297 c -5e-5,0.01309 -0.00391,0.02598 -0.00391,0.03906 -1.1e-5,0.0013 1.2e-5,0.0026 0,0.0039 v 0.0059 c -0.03907,4.533573 0.9291131,10.020933 2.8359375,14.133091 v 0.002 C 10.999901,60.936036 25.55071,66.479916 39.373047,62.967979 l 0.0059,0.02734 c 0.01055,-0.0019 0.01882,-0.0058 0.0293,-0.0078 0.08675,-0.01617 0.160687,-0.03367 0.242188,-0.05078 0.112149,-0.0222 0.215377,-0.04024 0.34375,-0.07031 0.0058,-0.0013 0.01179,-0.0026 0.01758,-0.0039 0.01993,-0.0047 0.03486,-0.01086 0.05469,-0.01563 0.474951,-0.105233 0.95408,-0.12076 1.429688,-0.270993 v -0.002 c 0.0052,-0.0017 0.01044,-0.0022 0.01563,-0.0039 l -0.0059,-0.01562 0.28125,-0.0957 h 0.0039 c 6.455442,-2.23582 11.959458,-6.607883 15.605468,-12.394531 0.204266,-0.322422 0.286576,-0.681492 0.28125,-1.033203 h 0.0039 V 47.16209 h -0.0039 c 0.02779,-0.538217 -0.16463,-1.07068 -0.503906,-1.43164 -0.534227,-0.56838 -1.512705,-0.804596 -2.3125,-0.359375 l -0.11914,0.06641 -0.0957,0.0957 c -2.465658,2.430699 -6.510513,3.10214 -9.818359,3.119141 -9.48529,0 -17.794766,-6.837488 -18.923828,-14.882813 0.356031,-1.753053 1.453236,-3.286068 3.054687,-4.164062 0.726927,-0.343614 1.708304,-0.819262 3.033204,-0.794922 h 0.0059 0.0059 c 1.981771,0.01453 3.841938,0.957592 5.027344,2.548828 v 0.002 c 0.32935,0.440561 0.58193,0.926597 0.777344,1.435547 -0.221991,0.724789 -0.57837,1.419547 -1.09375,2.09375 0.140144,-0.18612 -0.953125,0.656866 -0.953125,1.896484 v 3 0.0293 h 0.002 c 0.01253,1.015074 0.660247,1.846571 1.496094,2.431641 v 0.002 h 0.002 c 1.887549,1.31505 4.361635,1.792116 6.386719,2.009766 2.02508,0.217643 3.589726,0.140625 3.597656,0.140625 h 0.002 c 2.593043,-0.0062 5.137955,-0.710739 7.367187,-2.03711 4.431305,-2.594067 7.370472,-6.278313 7.382813,-11.570312 7.25e-4,-0.06434 -0.006,-0.121743 -0.0059,-0.185547 H 62 V 27.46875 H 61.9941 C 61.97079,22.313525 60.037554,18.783302 59.322225,17.367188 l -0.002,-0.002 v -0.002 C 54.324854,7.5740114 43.585951,2.0000001 31.998047,2.0000001 Z"
     sodipodi:nodetypes="cccccccccccccccccccccccccccccccscccccccccccccsccccccssscccccccccc" />
  <path
     id="path13647"
     style="color:#000000;fill:#05436d;fill-opacity:1;stroke:none;stroke-width:2;stroke-linecap:round;stroke-linejoin:bevel"
     d="m 21.148438,12.904297 c -5.288983,0 -10.063673,2.501082 -13.5097661,6.058594 -1.4764883,1.522694 -3.265625,5.18164 -3.265625,5.18164 L 2,33.63058 h 0.029297 c -5e-5,0.01309 -0.00391,0.02598 -0.00391,0.03906 -1.1e-5,0.0013 1.2e-5,0.0026 0,0.0039 v 0.0059 c -0.03907,4.533568 0.929115,10.020937 2.8359375,14.133091 v 0.002 C 10.999898,60.935945 25.550724,66.479692 39.373047,62.96776 l 0.0059,0.02734 c 0.01055,-0.0019 0.01882,-0.0058 0.0293,-0.0078 0.08675,-0.01617 0.160687,-0.03367 0.242188,-0.05078 0.112149,-0.0222 0.215377,-0.04024 0.34375,-0.07031 0.0058,-0.0013 0.01179,-0.0026 0.01758,-0.0039 0.01993,-0.0047 0.03486,-0.01085 0.05469,-0.01563 0.474951,-0.105233 0.95408,-0.12076 1.429688,-0.270993 v -0.002 c 0.0052,-0.0017 0.01044,-0.0022 0.01563,-0.0039 l -0.0059,-0.01562 0.28125,-0.0957 h 0.0039 c 0.442845,-0.153377 0.880939,-0.318826 1.314453,-0.492187 0.121456,-0.04853 0.240626,-0.102275 0.361328,-0.152344 0.308702,-0.128179 0.61634,-0.258333 0.919922,-0.396484 0.134534,-0.06114 0.266886,-0.126388 0.40039,-0.189453 0.306511,-0.145004 0.611212,-0.292213 0.91211,-0.447266 0.106815,-0.05495 0.212267,-0.111769 0.318359,-0.167969 0.322923,-0.171343 0.64297,-0.346533 0.958984,-0.529297 0.08459,-0.04884 0.16982,-0.09684 0.253907,-0.146484 0.358051,-0.211762 0.711949,-0.432024 1.060547,-0.658203 0.04351,-0.02819 0.0875,-0.05558 0.130859,-0.08398 1.214581,-0.796989 2.36984,-1.679541 3.457031,-2.642358 -2.687487,0.785161 -7.15629,2.198306 -10.675781,1.951172 l -0.308594,0.04911 c -4.465933,1.407895 -10.314173,0.763562 -14.261719,-1.705078 l -0.02148,-0.01172 C 24.703275,55.651834 23.04904,54.10028 21.746094,52.271484 l -0.0078,-0.0098 c -1.627384,-2.229325 3.84724,-10.836816 5.166016,-14.953125 -0.477717,-1.141013 -0.829409,-2.323486 -1,-3.539063 0.356031,-1.753051 1.453238,-3.286069 3.054687,-4.164062 0.726927,-0.343614 1.708305,-0.819262 3.033204,-0.794922 h 0.0059 0.0059 c 1.486327,0.0109 2.903372,0.54325 4.019532,1.480469 4.01e-4,3.36e-4 0.0016,-3.37e-4 0.002,0 0.371626,0.31219 0.709796,0.670937 1.005859,1.068359 v 0.002 c 0.32935,0.440561 0.58193,0.926598 0.777344,1.435547 -0.0092,0.03013 -0.02156,0.05982 -0.03125,0.08984 0.265869,0.685029 0.413305,1.414298 0.423828,2.158203 l 2,-0.01367 c 0,-1.86e-4 -0.02161,0.204167 -0.02539,0.220703 0.0013,-0.0047 0.0024,-0.0062 0.0039,-0.01172 0.01057,-0.03836 0.02593,-0.09468 0.04492,-0.167968 0.03798,-0.146571 0.09038,-0.356696 0.146485,-0.621094 0.112201,-0.528799 0.24316,-1.275715 0.322265,-2.169922 0.07146,-0.80774 0.09598,-1.742318 0.0293,-2.744141 0.01331,-0.122272 0.03159,-0.222989 0.04297,-0.351562 0.15821,-1.788414 0.114501,-4.17801 -0.736328,-6.613281 -0.850829,-2.435278 -2.543031,-4.908461 -5.550781,-6.714844 -3.007751,-1.806383 -7.287165,-2.953125 -13.330078,-2.953125 z"
     sodipodi:nodetypes="ccccccccccccccccccccccccccccccccccccccccccccccscccccccccsssccsscc" />
  <path
     id="path15200"
     style="color:#000000;fill:#07294d;fill-opacity:1;stroke:none;stroke-width:2"
     d="m 28.449219,24.669922 c -5.190903,0.21828 -8.608761,3.13304 -10.5625,6.664062 -1.95374,3.531026 -0.953125,5.419752 -0.953125,8.519532 0,0.02006 0.0019,0.03858 0.002,0.05859 -0.146241,1.128651 -0.21875,2.212618 -0.21875,3.1875 0,8.674765 17.655084,16.09806 22.832031,16.830079 3.39802,0.480478 6.749482,-0.774056 9.324219,-1.036685 3.392171,-2.311422 6.303833,-5.306135 8.523397,-8.828845 0.204266,-0.322422 0.286576,-0.681492 0.28125,-1.033203 h 0.0039 l 4e-5,-1.868846 h -0.0039 c 0.02779,-0.538216 -0.16463,-1.070681 -0.503906,-1.43164 -0.534226,-0.56838 -1.512706,-0.804596 -2.3125,-0.359375 l -0.11914,0.06641 -0.0957,0.0957 c -2.465655,2.430697 -6.510516,3.10214 -9.818359,3.119141 -9.485281,0 -17.794767,-6.837496 -18.923828,-14.882813 0.115188,-2.374812 0.889449,-3.880108 2.586872,-8.099655 z"
     sodipodi:nodetypes="csscssccccccsccccccc" />
  <path
     d="m 55.348526,46.160641 c -2.779045,2.734248 -7.089979,3.383273 -10.520905,3.400127 -10.720269,0 -20.058592,-8.243073 -20.058592,-17.704708 0.02794,-2.584107 1.452003,-4.95086 3.72219,-6.186196 -9.69627,0.407732 -12.188303,10.510414 -12.188303,16.429318 0,16.73511 15.425678,18.431728 18.749142,18.431728 1.791997,0 4.494721,-0.520992 6.116807,-1.032921 l 0.296778,-0.09966 c 6.24196,-2.1576 11.563272,-6.375724 15.088123,-11.960123 0.503421,-0.793052 -0.384058,-1.733782 -1.20524,-1.277558 z"
     style="fill:#0e539b;stroke-width:1.03574"
     id="path8625"
     sodipodi:nodetypes="scccsscccss" />
  <path
     id="path18959"
     style="opacity:0.25;fill:#000000;stroke-width:1.03574"
     d="m 28.492188,25.669922 c -9.696261,0.407731 -12.189454,10.510789 -12.189454,16.429687 0,8.567994 4.04496,13.187441 8.4375,15.66211 -1.458736,-1.100411 -2.744669,-2.416857 -3.808593,-3.910157 -6.061317,-8.303279 -3.301568,-19.736424 4.833984,-25.550781 0.644255,-1.087546 1.576626,-2.005114 2.726563,-2.630859 z" />
  <path
     d="M 26.083159,57.685863 C 24.062491,56.431868 22.311316,54.788728 20.93145,52.85198 14.235928,43.679915 18.303309,30.687774 28.49122,25.669874 c 0.706832,-0.33298 1.914333,-0.935518 3.520563,-0.906068 2.294028,0.01678 4.447885,1.106475 5.820024,2.944726 0.914854,1.221346 1.419264,2.701057 1.440848,4.226817 0,-0.04756 5.541375,-18.030795 -18.123866,-18.030795 -9.945474,0 -18.1238687,9.436719 -18.1238687,17.715937 -0.039224,4.379595 0.8979767,8.712908 2.7434999,12.68498 6.2431408,13.318813 21.4715178,19.853138 35.4276308,15.201592 -4.777683,1.506171 -10.845277,0.84391 -15.092501,-1.812137 z"
     style="fill:#0b87da;stroke-width:1.03574"
     id="path8653"
     sodipodi:nodetypes="ccccccsccccc" />
  <path
     id="path12376"
     style="opacity:0.25;fill:#000000;stroke-width:1.03574"
     d="M 31.998047,4.0000001 C 16.140714,3.9984001 3.2229938,16.732329 3,32.585938 3.1087429,24.308996 11.336167,16.630859 21.123047,16.630859 c 0.792914,0 5.315425,0.07724 9.515625,2.28125 3.701797,1.943515 5.640321,5.284995 6.988281,7.611329 0.876931,1.654444 1.3763,3.24653 1.46875,4.755859 l 9.797566,2.904638 C 49.063801,33.387728 60.9962,29.638042 60.998047,28.736328 61.056947,23.660074 59.186361,20.284079 58.429688,18.789062 53.62913,9.3999211 43.266553,4.0000001 31.998047,4.0000001 Z"
     sodipodi:nodetypes="ccsccccccc" />
  <path
     d="m 37.51011,35.435724 c -0.183506,0.237842 -0.747611,0.566291 -0.747611,1.282087 0,0.59121 0.385135,1.159771 1.069309,1.637724 3.257767,2.265174 9.399493,1.966171 9.415352,1.966171 2.41393,-0.0058 4.78211,-0.65897 6.857615,-1.891424 4.260395,-2.487292 6.88376,-5.761763 6.893866,-10.694567 0.0589,-5.076259 -1.812382,-8.451368 -2.569056,-9.946386 C 53.629023,8.4001781 43.266705,3.0000006 31.998188,3.0000006 16.140839,2.998433 3.2229941,15.732888 3,31.586512 c 0.1087428,-8.27695 8.33698,-15.95617 18.12387,-15.95617 0.792915,0 5.314824,0.07702 9.515028,2.281032 3.701801,1.943517 5.641056,5.28493 6.989017,7.611266 1.959209,3.696304 2.043526,7.091266 -0.117805,9.913084 z"
     style="fill:#17dcbe;stroke-width:1.03574"
     id="path8597"
     sodipodi:nodetypes="cscccccccsccc" />
</svg>
