<?xml version="1.0" encoding="UTF-8" standalone="no"?>
<!-- Created with Inkscape (http://www.inkscape.org/) -->

<svg
   width="64"
   height="64"
   viewBox="0 0 16.933333 16.933333"
   version="1.1"
   id="svg5"
   inkscape:version="1.2 (dc2aedaf03, 2022-05-15)"
   sodipodi:docname="org.gnome.Extensions.svg"
   xmlns:inkscape="http://www.inkscape.org/namespaces/inkscape"
   xmlns:sodipodi="http://sodipodi.sourceforge.net/DTD/sodipodi-0.dtd"
   xmlns="http://www.w3.org/2000/svg"
   xmlns:svg="http://www.w3.org/2000/svg">
  <sodipodi:namedview
     id="namedview7"
     pagecolor="#ffffff"
     bordercolor="#666666"
     borderopacity="1.0"
     inkscape:pageshadow="2"
     inkscape:pageopacity="0.0"
     inkscape:pagecheckerboard="0"
     inkscape:document-units="px"
     showgrid="false"
     units="px"
     height="48px"
     inkscape:zoom="12.71875"
     inkscape:cx="31.960688"
     inkscape:cy="32"
     inkscape:window-width="1920"
     inkscape:window-height="1011"
     inkscape:window-x="0"
     inkscape:window-y="0"
     inkscape:window-maximized="1"
     inkscape:current-layer="svg5"
     inkscape:showpageshadow="2"
     inkscape:deskcolor="#d1d1d1"
     showguides="false" />
  <defs
     id="defs2" />
  <path
     id="rect4365"
     style="fill:#396247;fill-opacity:1;stroke-width:0.529167;stroke-linecap:round;stroke-linejoin:bevel"
     d="m 4.6302083,2.3812499 c -0.6596044,0 -1.190625,0.5310208 -1.190625,1.190625 v 2.778125 H 2.38125 c -1.0260522,0 -1.85208334,0.8260311 -1.85208334,1.8520833 v 0.5291666 c 0,1.0260519 0.82603114,1.8520822 1.85208334,1.8520822 h 1.0583333 v 3.307292 c 0,0.659606 0.5310206,1.190625 1.190625,1.190625 h 2.5135416 v -1.058333 c 0,-0.732894 0.5900224,-1.322917 1.3229166,-1.322917 0.7328939,0 1.3229169,0.590023 1.3229169,1.322917 v 1.058333 h 2.5135406 c 0.659606,0 1.190625,-0.531019 1.190625,-1.190625 v -3.307292 h 1.058334 c 1.026052,0 1.852083,-0.8260303 1.852083,-1.8520822 V 8.2020832 c 0,-1.0260522 -0.826031,-1.8520833 -1.852083,-1.8520833 h -1.058334 v -2.778125 c 0,-0.6596042 -0.531019,-1.190625 -1.190625,-1.190625 H 9.7895834 v 1.0583333 c 0,0.7328944 -0.590023,1.3229167 -1.3229169,1.3229167 -0.7328942,0 -1.3229166,-0.5900223 -1.3229166,-1.3229167 V 2.3812499 Z"
     sodipodi:nodetypes="sscsssscsscssscsscsssscsscssscs" />
  <path
     id="rect2002"
     style="fill:#73c48f;fill-opacity:1;stroke-width:0.529167;stroke-linecap:round;stroke-linejoin:bevel"
     d="m 4.7624999,2.6458332 c -0.5863154,0 -1.0583333,0.4720178 -1.0583333,1.0583334 V 6.6145832 H 2.38125 c -0.8794733,0 -1.58750004,0.7080268 -1.58750004,1.5875 0,0.8794735 0.70802674,1.5874995 1.58750004,1.5874995 h 1.3229166 v 3.4395833 c 0,0.586315 0.4720179,1.058333 1.0583333,1.058333 h 2.1166667 v -0.79375 c 0,-0.879473 0.7080267,-1.5875 1.5874999,-1.5875 0.8794729,0 1.5874995,0.708027 1.5874995,1.5875 v 0.79375 h 2.116667 c 0.586315,0 1.058333,-0.472018 1.058333,-1.058333 V 9.7895827 h 1.322917 c 0.879473,0 1.5875,-0.708026 1.5875,-1.5874995 0,-0.8794732 -0.708027,-1.5875 -1.5875,-1.5875 H 13.229166 V 3.7041666 c 0,-0.5863156 -0.472018,-1.0583334 -1.058333,-1.0583334 h -2.116667 v 0.7937501 c 0,0.8794732 -0.7080266,1.5874999 -1.5874995,1.5874999 -0.8794732,0 -1.5874999,-0.7080267 -1.5874999,-1.5874999 V 2.6458332 Z"
     sodipodi:nodetypes="sscssscsscssscsscssscsscssscs" />
</svg>
