<?xml version="1.0" encoding="UTF-8" standalone="no"?>
<!-- Created with Inkscape (http://www.inkscape.org/) -->

<svg
   width="64"
   height="64"
   viewBox="0 0 16.933333 16.933333"
   version="1.1"
   id="svg5"
   inkscape:version="1.2 (dc2aedaf03, 2022-05-15)"
   sodipodi:docname="org.gnome.Shell.Extensions.GSConnect"
   xmlns:inkscape="http://www.inkscape.org/namespaces/inkscape"
   xmlns:sodipodi="http://sodipodi.sourceforge.net/DTD/sodipodi-0.dtd"
   xmlns="http://www.w3.org/2000/svg"
   xmlns:svg="http://www.w3.org/2000/svg">
  <sodipodi:namedview
     id="namedview7"
     pagecolor="#ffffff"
     bordercolor="#666666"
     borderopacity="1.0"
     inkscape:pageshadow="2"
     inkscape:pageopacity="0.0"
     inkscape:pagecheckerboard="0"
     inkscape:document-units="px"
     showgrid="false"
     units="px"
     height="48px"
     inkscape:zoom="12.296875"
     inkscape:cx="31.268107"
     inkscape:cy="17.890724"
     inkscape:window-width="1920"
     inkscape:window-height="1009"
     inkscape:window-x="0"
     inkscape:window-y="0"
     inkscape:window-maximized="1"
     inkscape:current-layer="svg5"
     inkscape:showpageshadow="2"
     inkscape:deskcolor="#d1d1d1"
     showguides="false" />
  <defs
     id="defs2" />
  <rect
     style="opacity:1;fill:#545454;fill-opacity:1;stroke-width:0.264583"
     id="rect845"
     width="11.641666"
     height="14.816667"
     x="2.6458333"
     y="1.0583332"
     ry="1.0583333" />
  <rect
     style="opacity:1;fill:#48b9c7;fill-opacity:1;stroke-width:0.476215;stroke-linecap:round"
     id="rect1185"
     width="8.4666662"
     height="10.847917"
     x="4.2333331"
     y="2.6458333" />
  <path
     id="rect652"
     style="opacity:0.5;fill:#ffffff;stroke-width:0.264583"
     d="M 3.7041666 1.0583333 C 3.1178505 1.0583333 2.6458333 1.5303506 2.6458333 2.1166666 L 2.6458333 14.816666 C 2.6458333 15.402982 3.1178505 15.875 3.7041666 15.875 L 13.229166 15.875 C 13.815482 15.875 14.2875 15.402982 14.2875 14.816666 L 14.2875 2.1166666 C 14.2875 1.5303506 13.815482 1.0583333 13.229166 1.0583333 L 3.7041666 1.0583333 z M 3.7041666 1.3229166 L 13.229166 1.3229166 C 13.668903 1.3229166 14.022916 1.6769296 14.022916 2.1166666 L 14.022916 14.2875 C 14.022916 14.727237 13.668903 15.08125 13.229166 15.08125 L 3.7041666 15.08125 C 3.2644295 15.08125 2.9104166 14.727237 2.9104166 14.2875 L 2.9104166 2.1166666 C 2.9104166 1.6769296 3.2644295 1.3229166 3.7041666 1.3229166 z " />
</svg>
