<?xml version="1.0" encoding="UTF-8" standalone="no"?>
<!-- Created with Inkscape (http://www.inkscape.org/) -->

<svg
   width="64"
   height="64"
   viewBox="0 0 16.933333 16.933334"
   version="1.1"
   id="svg1099"
   inkscape:version="1.2 (dc2aedaf03, 2022-05-15)"
   sodipodi:docname="org.gnome.Software.svg"
   xmlns:inkscape="http://www.inkscape.org/namespaces/inkscape"
   xmlns:sodipodi="http://sodipodi.sourceforge.net/DTD/sodipodi-0.dtd"
   xmlns="http://www.w3.org/2000/svg"
   xmlns:svg="http://www.w3.org/2000/svg">
  <sodipodi:namedview
     id="namedview1101"
     pagecolor="#ffffff"
     bordercolor="#666666"
     borderopacity="1.0"
     inkscape:pageshadow="2"
     inkscape:pageopacity="0.0"
     inkscape:pagecheckerboard="0"
     inkscape:document-units="px"
     showgrid="false"
     units="px"
     inkscape:zoom="12.78125"
     inkscape:cx="32"
     inkscape:cy="32"
     inkscape:window-width="1846"
     inkscape:window-height="1015"
     inkscape:window-x="0"
     inkscape:window-y="0"
     inkscape:window-maximized="1"
     inkscape:current-layer="svg1099"
     inkscape:showpageshadow="2"
     inkscape:deskcolor="#d1d1d1" />
  <defs
     id="defs1096" />
  <path
     id="rect848"
     style="fill:#d1cbcb;fill-opacity:1;stroke-width:0.529167;stroke-linecap:round"
     d="m 6.4822917,1.5875 c -0.5130271,0 -0.9260416,0.4130146 -0.9260416,0.9260417 v 2.3812501 c 0,0.5130271 0.4130145,0.9260417 0.9260416,0.9260417 h 3.9687503 c 0.513026,0 0.926041,-0.4130146 0.926041,-0.9260417 V 2.5135417 C 11.377083,2.0005146 10.964068,1.5875 10.451042,1.5875 Z m 0.3968751,1.3229167 h 3.1750002 c 0.146579,0 0.264583,0.1180042 0.264583,0.2645834 v 1.8520834 c 0,0.1465791 -0.118004,0.2645833 -0.264583,0.2645833 H 6.8791668 c -0.1465792,0 -0.2645834,-0.1180042 -0.2645834,-0.2645833 V 3.1750001 c 0,-0.1465792 0.1180042,-0.2645834 0.2645834,-0.2645834 z"
     sodipodi:nodetypes="ssssssssssssssssss" />
  <path
     id="path3167"
     style="fill:#000000;fill-opacity:1;stroke-width:0.529167;stroke-linecap:round;opacity:0.3"
     d="M 6.4822917 1.5875 C 5.9692651 1.5875 5.5562501 2.0005151 5.5562501 2.5135417 L 5.5562501 4.8947917 C 5.5562501 5.4078184 5.9692651 5.8208334 6.4822917 5.8208334 L 10.451042 5.8208334 C 10.964067 5.8208334 11.377083 5.4078184 11.377083 4.8947917 L 11.377083 2.5135417 C 11.377083 2.0005151 10.964067 1.5875 10.451042 1.5875 L 6.4822917 1.5875 z M 6.6145834 1.8520834 L 10.31875 1.8520834 C 10.758487 1.8520834 11.1125 2.2060963 11.1125 2.6458334 L 11.1125 4.7625 C 11.1125 5.2022371 10.758487 5.5562501 10.31875 5.5562501 L 6.6145834 5.5562501 C 6.1748463 5.5562501 5.8208334 5.2022371 5.8208334 4.7625 L 5.8208334 2.6458334 C 5.8208334 2.2060963 6.1748463 1.8520834 6.6145834 1.8520834 z M 6.7468751 2.38125 C 6.5270065 2.38125 6.3500001 2.5582564 6.3500001 2.778125 L 6.3500001 4.6302084 C 6.3500001 4.8036984 6.4600713 4.9506494 6.6145834 5.0048625 L 6.6145834 3.175 C 6.6145834 3.028421 6.7325877 2.9104167 6.8791667 2.9104167 L 10.054167 2.9104167 C 10.200746 2.9104167 10.31875 3.028421 10.31875 3.175 L 10.31875 5.0048625 C 10.473262 4.9506494 10.583333 4.8036984 10.583333 4.6302084 L 10.583333 2.778125 C 10.583333 2.5582564 10.406326 2.38125 10.186458 2.38125 L 6.7468751 2.38125 z " />
  <rect
     style="opacity:1;fill:#ececec;fill-opacity:1;stroke-width:0.529167;stroke-linecap:round"
     id="rect934"
     width="14.816667"
     height="12.435417"
     x="1.0583334"
     y="3.4395833"
     ry="1.0583334" />
  <path
     id="rect6893"
     style="opacity:1;fill:#d8d8d8;fill-opacity:1;stroke-width:0.529167;stroke-linejoin:round"
     d="m 2.1166667,3.4395834 c -0.5863161,0 -1.0583334,0.4720172 -1.0583334,1.0583333 V 8.9958334 H 15.875 V 4.4979167 c 0,-0.5863161 -0.472017,-1.0583333 -1.058333,-1.0583333 z"
     sodipodi:nodetypes="ssccsss" />
  <path
     id="rect1944"
     style="opacity:0.5;fill:#000000;stroke-width:0.529167;stroke-linejoin:round"
     d="M 2.1166667 3.4395834 C 1.5303506 3.4395834 1.0583333 3.9116006 1.0583333 4.4979167 L 1.0583333 14.816667 C 1.0583333 15.402983 1.5303506 15.875 2.1166667 15.875 L 14.816667 15.875 C 15.402983 15.875 15.875 15.402983 15.875 14.816667 L 15.875 4.4979167 C 15.875 3.9116006 15.402983 3.4395834 14.816667 3.4395834 L 2.1166667 3.4395834 z M 2.2489584 3.7041667 L 14.684375 3.7041667 C 15.197402 3.7041667 15.610417 4.1171818 15.610417 4.6302084 L 15.610417 14.155208 C 15.610417 14.668235 15.197402 15.08125 14.684375 15.08125 L 2.2489584 15.08125 C 1.7359318 15.08125 1.3229167 14.668235 1.3229167 14.155208 L 1.3229167 4.6302084 C 1.3229167 4.1171818 1.7359318 3.7041667 2.2489584 3.7041667 z " />
  <rect
     style="opacity:0.3;fill:#000000;stroke-width:0.529167;stroke-linejoin:round"
     id="rect500"
     width="3.175"
     height="3.175"
     x="4.4979167"
     y="7.6730208"
     ry="1.0583334" />
  <rect
     style="opacity:1;fill:#f15d22;stroke-width:0.529167;stroke-linejoin:round;fill-opacity:1"
     id="rect549"
     width="3.1749997"
     height="3.1749997"
     x="4.4979167"
     y="7.4083333"
     ry="1.0583334" />
  <path
     d="M 11.231493,9.8525613 8.9553263,11.232753 c -0.1385941,0.08371 -0.2240762,0.239871 -0.2240762,0.408907 0,0.169036 0.085482,0.325193 0.2240762,0.408907 l 2.2761667,1.380192 c 0.139606,0.08479 0.311077,0.08371 0.450176,-0.0016 0.1391,-0.08588 0.224582,-0.243107 0.224582,-0.413753 v -2.747489 c 0,-0.170646 -0.08548,-0.3278765 -0.224582,-0.4137359 -0.139099,-0.085323 -0.31057,-0.086395 -0.450176,-0.00159 z"
     style="opacity:0.3;fill:#000000;stroke-width:0.264583"
     id="path1477"
     sodipodi:nodetypes="ccscccssccc" />
  <path
     d="M 11.231493,9.5879772 8.955326,10.968169 c -0.1385941,0.08371 -0.2240761,0.239871 -0.2240761,0.408907 0,0.169036 0.085482,0.325193 0.2240761,0.408907 l 2.276167,1.380192 c 0.139606,0.08479 0.311077,0.08371 0.450176,-0.0016 0.1391,-0.08588 0.224582,-0.243107 0.224582,-0.413753 v -2.747489 c 0,-0.1706463 -0.08548,-0.3278766 -0.224582,-0.413736 -0.139099,-0.085323 -0.31057,-0.086395 -0.450176,-0.00159 z"
     style="opacity:1;fill:#48b9c7;stroke-width:0.264583;fill-opacity:1"
     id="path1868" />
  <circle
     style="opacity:0.3;fill:#000000;stroke-width:0.529167;stroke-linejoin:round"
     id="path1940"
     cx="10.31875"
     cy="7.1437502"
     r="1.5874999" />
  <circle
     style="opacity:1;fill:#b84acb;stroke-width:0.529167;stroke-linejoin:round;fill-opacity:1"
     id="path1942"
     cx="10.31875"
     cy="6.8791666"
     r="1.5874999" />
</svg>
