<?xml version="1.0" encoding="UTF-8" standalone="no"?>
<!-- Created with Inkscape (http://www.inkscape.org/) -->

<svg
   width="64"
   height="64"
   viewBox="0 0 16.933333 16.933333"
   version="1.1"
   id="svg5"
   inkscape:version="1.2 (dc2aedaf03, 2022-05-15)"
   sodipodi:docname="password-manager.svg"
   xmlns:inkscape="http://www.inkscape.org/namespaces/inkscape"
   xmlns:sodipodi="http://sodipodi.sourceforge.net/DTD/sodipodi-0.dtd"
   xmlns="http://www.w3.org/2000/svg"
   xmlns:svg="http://www.w3.org/2000/svg">
  <sodipodi:namedview
     id="namedview7"
     pagecolor="#ffffff"
     bordercolor="#666666"
     borderopacity="1.0"
     inkscape:pageshadow="2"
     inkscape:pageopacity="0.0"
     inkscape:pagecheckerboard="0"
     inkscape:document-units="px"
     showgrid="false"
     units="px"
     height="48px"
     inkscape:zoom="12.859375"
     inkscape:cx="32"
     inkscape:cy="32"
     inkscape:window-width="1846"
     inkscape:window-height="1011"
     inkscape:window-x="0"
     inkscape:window-y="0"
     inkscape:window-maximized="1"
     inkscape:current-layer="svg5"
     inkscape:showpageshadow="2"
     inkscape:deskcolor="#d1d1d1" />
  <defs
     id="defs2" />
  <rect
     style="fill:#444444;fill-opacity:1;stroke-width:0.529167;stroke-linecap:round"
     id="rect934"
     width="13.758333"
     height="13.758333"
     x="1.5875001"
     y="1.5875"
     ry="1.190625" />
  <path
     id="rect1524"
     style="opacity:0.5;fill:#ffffff;fill-opacity:1;stroke-width:0.529167;stroke-linecap:round"
     d="M 2.7781251,1.5875001 C 2.1185188,1.5875001 1.5875,2.1185189 1.5875,2.7781252 V 14.155209 c 0,0.659606 0.5310188,1.190625 1.1906251,1.190625 H 14.155208 c 0.659607,0 1.190626,-0.531019 1.190626,-1.190625 V 2.7781252 c 0,-0.6596063 -0.531019,-1.1906251 -1.190626,-1.1906251 z M 2.9104167,1.8520835 H 14.022917 c 0.586317,0 1.058333,0.4720166 1.058333,1.0583333 V 13.49375 c 0,0.586317 -0.472016,1.058334 -1.058333,1.058334 H 2.9104167 c -0.5863167,0 -1.0583333,-0.472017 -1.0583333,-1.058334 V 2.9104168 c 0,-0.5863167 0.4720166,-1.0583333 1.0583333,-1.0583333 z" />
  <rect
     style="fill:#cdcdcd;fill-opacity:1;stroke:none;stroke-width:0.264583;stroke-linecap:square;stroke-linejoin:bevel"
     id="rect29955"
     width="10.583333"
     height="10.054167"
     x="3.175"
     y="3.175"
     ry="0.52916664" />
  <path
     id="rect35821"
     style="opacity:0.2;fill:#000000;fill-opacity:1;stroke:none;stroke-width:0.264583;stroke-linecap:square;stroke-linejoin:bevel"
     d="m 2.9104166,5.8208333 c -0.146579,0 -0.2645833,0.1180043 -0.2645833,0.264583 v 1.5875006 c 0,0.146579 0.1180043,0.264583 0.2645833,0.264583 h 0.5291667 c 0.146579,0 0.2645833,-0.118004 0.2645833,-0.264583 V 6.0854163 c 0,-0.1465787 -0.1180043,-0.264583 -0.2645833,-0.264583 z m 0,3.7041664 c -0.146579,0 -0.2645833,0.118004 -0.2645833,0.264583 v 1.5875003 c 0,0.146579 0.1180043,0.264583 0.2645833,0.264583 h 0.5291667 c 0.146579,0 0.2645833,-0.118004 0.2645833,-0.264583 V 9.7895827 c 0,-0.146579 -0.1180043,-0.264583 -0.2645833,-0.264583 z"
     sodipodi:nodetypes="ssssssssssssssssss" />
  <path
     id="rect34365"
     style="fill:#ededed;fill-opacity:1;stroke:none;stroke-width:0.264583;stroke-linecap:square;stroke-linejoin:bevel"
     d="m 2.9104166,5.2916666 c -0.146579,0 -0.2645833,0.1180043 -0.2645833,0.2645833 v 1.5875002 c 0,0.1465788 0.1180043,0.2645828 0.2645833,0.2645828 h 0.5291667 c 0.146579,0 0.2645833,-0.118004 0.2645833,-0.2645828 V 5.5562499 c 0,-0.146579 -0.1180043,-0.2645833 -0.2645833,-0.2645833 z m 0,3.7041661 c -0.146579,0 -0.2645833,0.118005 -0.2645833,0.264584 v 1.5874993 c 0,0.146579 0.1180043,0.264583 0.2645833,0.264583 h 0.5291667 c 0.146579,0 0.2645833,-0.118004 0.2645833,-0.264583 V 9.2604167 c 0,-0.146579 -0.1180043,-0.264584 -0.2645833,-0.264584 z"
     sodipodi:nodetypes="ssssssssssssssssss" />
  <path
     d="m 5.3681471,8.7387427 c 0.092617,0.1527386 0.2599954,0.2543779 0.4523872,0.2543729 l 1.7327033,-2.64e-4 c 0.1884892,0.3255106 0.5355828,0.5265196 0.9117255,0.5280016 l 0.86587,1.4996938 c 0.146589,0.253889 0.468982,0.340272 0.7228729,0.19368 0.253884,-0.14659 0.34027,-0.468979 0.19368,-0.722868 L 9.3838391,8.9957006 c 0.09433,-0.1618005 0.143979,-0.3457548 0.143957,-0.5330427 -6.8e-5,-0.1866397 -0.0495,-0.3699404 -0.143258,-0.5313151 L 10.247106,6.4373969 C 10.393685,6.1835 10.307333,5.860973 10.053436,5.7143991 9.7995451,5.5678199 9.4770201,5.6541667 9.3304411,5.9080635 L 8.4668491,7.4043801 C 8.0891644,7.4051739 7.7405123,7.6071356 7.5519703,7.9344014 L 5.8204205,7.934666 c -0.2931662,5.3e-6 -0.5287618,0.2358919 -0.5287539,0.5290608 0,0.1007719 0.027961,0.1950852 0.076478,0.2750847 z"
     style="opacity:0.3;fill:#000000;fill-opacity:1;stroke-width:0.264586"
     id="path42915" />
  <path
     d="m 5.3681471,8.4741594 c 0.092617,0.1527386 0.2599954,0.2543779 0.4523872,0.2543729 l 1.7327033,-2.64e-4 c 0.1884892,0.325511 0.5355828,0.5265196 0.9117255,0.5280016 l 0.86587,1.4996941 c 0.146589,0.253889 0.468982,0.340272 0.7228729,0.19368 0.253884,-0.14659 0.34027,-0.468979 0.19368,-0.722868 L 9.3838391,8.7311173 c 0.09433,-0.1618005 0.143979,-0.3457548 0.143957,-0.5330427 -6.8e-5,-0.1866397 -0.0495,-0.3699404 -0.143258,-0.5313151 L 10.247106,6.1728136 C 10.393685,5.9189167 10.307333,5.5963897 10.053436,5.4498158 9.7995451,5.3032366 9.4770201,5.3895834 9.3304411,5.6434802 L 8.4668491,7.1397968 C 8.0891644,7.1405906 7.7405123,7.3425523 7.5519703,7.6698181 l -1.7315498,2.646e-4 c -0.2931662,5.3e-6 -0.5287618,0.2358919 -0.5287539,0.5290608 0,0.1007719 0.027961,0.1950852 0.076478,0.2750847 z"
     id="path40179"
     style="fill:#656565;fill-opacity:1;stroke-width:0.264586"
     sodipodi:nodetypes="cccccsccccccccccccc" />
</svg>
