<?xml version="1.0" encoding="UTF-8" standalone="no"?>
<!-- Created with Inkscape (http://www.inkscape.org/) -->

<svg
   width="64"
   height="64"
   viewBox="0 0 16.933333 16.933333"
   version="1.1"
   id="svg5"
   inkscape:version="1.2 (dc2aedaf03, 2022-05-15)"
   sodipodi:docname="preferences-system-splash.svg"
   xmlns:inkscape="http://www.inkscape.org/namespaces/inkscape"
   xmlns:sodipodi="http://sodipodi.sourceforge.net/DTD/sodipodi-0.dtd"
   xmlns="http://www.w3.org/2000/svg"
   xmlns:svg="http://www.w3.org/2000/svg">
  <sodipodi:namedview
     id="namedview7"
     pagecolor="#ffffff"
     bordercolor="#666666"
     borderopacity="1.0"
     inkscape:pageshadow="2"
     inkscape:pageopacity="0.0"
     inkscape:pagecheckerboard="0"
     inkscape:document-units="px"
     showgrid="false"
     units="px"
     height="48px"
     inkscape:zoom="23.629151"
     inkscape:cx="33.941126"
     inkscape:cy="26.55618"
     inkscape:window-width="1920"
     inkscape:window-height="1010"
     inkscape:window-x="0"
     inkscape:window-y="0"
     inkscape:window-maximized="1"
     inkscape:current-layer="svg5"
     inkscape:showpageshadow="2"
     inkscape:deskcolor="#d1d1d1"
     showguides="true" />
  <defs
     id="defs2" />
  <rect
     style="opacity:1;fill:#424242;fill-opacity:1;stroke-width:0.264583"
     id="rect1162"
     width="7.9375"
     height="4.7624998"
     x="4.4979167"
     y="10.583333"
     ry="0.79374999" />
  <rect
     style="opacity:1;fill:#848484;fill-opacity:1;stroke-width:0.264583"
     id="rect3774"
     width="7.4083333"
     height="3.96875"
     x="4.7624998"
     y="10.583333"
     ry="0.52916664" />
  <rect
     style="opacity:1;fill:#6f6f6f;fill-opacity:1;stroke-width:0.264583"
     id="rect2173"
     width="14.816667"
     height="10.583333"
     x="1.0583333"
     y="2.1166666"
     ry="0.79374999" />
  <rect
     style="opacity:1;fill:#acacac;fill-opacity:1;stroke-width:0.264583"
     id="rect2175"
     width="14.2875"
     height="9.5249996"
     x="1.3229169"
     y="2.3812501"
     ry="0.52916664" />
  <rect
     style="fill:#424242;fill-opacity:1;stroke-width:0.383418"
     id="rect1437"
     width="13.229167"
     height="7.4083333"
     x="1.8520836"
     y="2.9104166"
     ry="0.26458332" />
  <rect
     style="fill:#424242;fill-opacity:1;stroke-width:0.529167"
     id="rect15516"
     width="3.175"
     height="0.52916664"
     x="6.8791671"
     y="10.847917"
     ry="0.13229166" />
  <path
     id="path513"
     style="opacity:0.3;fill:#ffffff;stroke-width:1.76388"
     d="M 8.4666665 3.9687499 C 7.0054175 3.9687499 5.8208332 5.1533342 5.8208332 6.6145832 C 5.8208332 8.0758325 7.0054175 9.2604165 8.4666665 9.2604165 C 9.9279157 9.2604165 11.1125 8.0758325 11.1125 6.6145832 C 11.1125 5.1533342 9.9279157 3.9687502 8.4666665 3.9687499 z M 8.4666665 4.2333332 C 9.7817918 4.2333332 10.847916 5.2994597 10.847916 6.6145832 C 10.847916 7.9297082 9.7817918 8.9958332 8.4666665 8.9958332 C 7.1515427 8.9958332 6.0854165 7.9297082 6.0854165 6.6145832 C 6.0854165 5.2994597 7.1515427 4.2333332 8.4666665 4.2333332 z " />
  <path
     id="path595"
     style="fill:#ffffff;stroke-width:1.76388"
     d="M 8.4666665 3.9687499 A 2.6458333 2.6458333 0 0 0 5.8208332 6.6145832 A 2.6458333 2.6458333 0 0 0 8.4666665 9.2604165 A 2.6458333 2.6458333 0 0 0 10.337353 8.48527 L 10.150285 8.2982013 C 9.7193633 8.7291226 9.1242291 8.9958332 8.4666665 8.9958332 C 7.1515427 8.9958332 6.0854165 7.9297082 6.0854165 6.6145832 C 6.0854165 5.2994597 7.1515427 4.2333332 8.4666665 4.2333332 L 8.4666665 3.9687499 z " />
</svg>
