<?xml version="1.0" encoding="UTF-8" standalone="no"?>
<!-- Created with Inkscape (http://www.inkscape.org/) -->

<svg
   width="64"
   height="64"
   viewBox="0 0 16.933333 16.933334"
   version="1.1"
   id="svg1099"
   inkscape:version="1.2.1 (9c6d41e410, 2022-07-14, custom)"
   sodipodi:docname="preferences-system-privacy.svg"
   xmlns:inkscape="http://www.inkscape.org/namespaces/inkscape"
   xmlns:sodipodi="http://sodipodi.sourceforge.net/DTD/sodipodi-0.dtd"
   xmlns="http://www.w3.org/2000/svg"
   xmlns:svg="http://www.w3.org/2000/svg">
  <sodipodi:namedview
     id="namedview1101"
     pagecolor="#ffffff"
     bordercolor="#666666"
     borderopacity="1.0"
     inkscape:pageshadow="2"
     inkscape:pageopacity="0.0"
     inkscape:pagecheckerboard="0"
     inkscape:document-units="px"
     showgrid="false"
     units="px"
     inkscape:zoom="12.53125"
     inkscape:cx="31.9601"
     inkscape:cy="32"
     inkscape:window-width="1920"
     inkscape:window-height="1011"
     inkscape:window-x="0"
     inkscape:window-y="0"
     inkscape:window-maximized="1"
     inkscape:current-layer="svg1099"
     inkscape:showpageshadow="2"
     inkscape:deskcolor="#d1d1d1" />
  <defs
     id="defs1096" />
  <rect
     style="opacity:1;fill:#de8800;fill-opacity:1;stroke-width:0.529167;stroke-linecap:round"
     id="rect934"
     width="13.758333"
     height="13.758333"
     x="1.5875"
     y="1.5875"
     ry="1.190625" />
  <path
     d="M 8.4666666,5.8208334 C 6.6699957,5.8233734 5.0298563,6.8505079 4.2333332,8.4719585 5.0328035,10.089296 6.6723441,11.111958 8.4666666,11.1125 10.263338,11.10996 11.903477,10.082826 12.7,8.4613751 11.90053,6.844038 10.260989,5.8213747 8.4666666,5.8208334 Z m 0,0.5291667 c 1.1690028,0 2.1166664,0.9476639 2.1166664,2.1166667 0,1.1690028 -0.9476636,2.1166662 -2.1166664,2.1166662 -1.1690028,0 -2.1166667,-0.9476634 -2.1166667,-2.1166662 0,-1.1690028 0.9476639,-2.1166667 2.1166667,-2.1166667 z m 0,1.0583333 c -0.5845014,0 -1.0583334,0.473832 -1.0583334,1.0583334 0,0.5845014 0.473832,1.0583334 1.0583334,1.0583334 C 9.051168,9.5250002 9.525,9.0511682 9.525,8.4666668 9.525,7.8821654 9.051168,7.4083334 8.4666666,7.4083334 Z"
     style="fill:#ffffff;stroke-width:0.264583"
     id="path302" />
  <path
     id="rect1524"
     style="opacity:0.5;fill:#000000;fill-opacity:1;stroke-width:2;stroke-linecap:round"
     d="M 10.5 6 C 8.0070001 6 6 8.0070001 6 10.5 L 6 53.5 C 6 55.993 8.0070001 58 10.5 58 L 53.5 58 C 55.993 58 58 55.993 58 53.5 L 58 10.5 C 58 8.0070001 55.993 6 53.5 6 L 10.5 6 z M 11 7 L 53 7 C 55.216 7 57 8.7839999 57 11 L 57 51 C 57 53.216 55.216 55 53 55 L 11 55 C 8.7839999 55 7 53.216 7 51 L 7 11 C 7 8.7839999 8.7839999 7 11 7 z "
     transform="scale(0.26458334)" />
</svg>
