<?xml version="1.0" encoding="UTF-8" standalone="no"?>
<!-- Created with Inkscape (http://www.inkscape.org/) -->

<svg
   width="64"
   height="64"
   viewBox="0 0 16.933333 16.933333"
   version="1.1"
   id="svg5"
   inkscape:version="1.2 (dc2aedaf03, 2022-05-15)"
   sodipodi:docname="qt.svg"
   xmlns:inkscape="http://www.inkscape.org/namespaces/inkscape"
   xmlns:sodipodi="http://sodipodi.sourceforge.net/DTD/sodipodi-0.dtd"
   xmlns="http://www.w3.org/2000/svg"
   xmlns:svg="http://www.w3.org/2000/svg">
  <sodipodi:namedview
     id="namedview7"
     pagecolor="#ffffff"
     bordercolor="#666666"
     borderopacity="1.0"
     inkscape:pageshadow="2"
     inkscape:pageopacity="0.0"
     inkscape:pagecheckerboard="0"
     inkscape:document-units="px"
     showgrid="false"
     units="px"
     height="48px"
     inkscape:zoom="12.875"
     inkscape:cx="31.961165"
     inkscape:cy="32"
     inkscape:window-width="1920"
     inkscape:window-height="1014"
     inkscape:window-x="0"
     inkscape:window-y="0"
     inkscape:window-maximized="1"
     inkscape:current-layer="svg5"
     inkscape:showpageshadow="2"
     inkscape:deskcolor="#d1d1d1" />
  <defs
     id="defs2" />
  <path
     id="rect845"
     style="opacity:1;fill:#33cb6c;fill-opacity:1;stroke-width:0.264583"
     d="m 3.4395833,3.1749999 -2.38125,2.38125 V 14.2875 c 0,0.586315 0.4720179,1.058333 1.0583333,1.058333 H 13.493749 L 15.875,12.964583 V 4.2333332 c 0,-0.5863154 -0.472018,-1.0583333 -1.058334,-1.0583333 z"
     sodipodi:nodetypes="ccssccssc" />
  <path
     id="rect1249"
     style="opacity:0.5;fill:#000000;fill-opacity:1;stroke-width:0.264583"
     d="m 3.4395833,3.1749999 -2.38125,2.38125 V 14.2875 c 0,0.586314 0.4720185,1.058333 1.0583333,1.058333 H 13.493749 L 15.875,12.964583 V 4.2333332 c 0,-0.5863148 -0.472018,-1.0583333 -1.058334,-1.0583333 z M 3.5718749,3.4395832 H 14.684375 c 0.513024,0 0.926041,0.4130161 0.926041,0.9260417 V 12.303124 L 13.361457,14.578438 2.2489583,14.552083 C 1.7359343,14.550783 1.3229166,14.139068 1.3229166,13.626041 V 5.6885415 Z"
     sodipodi:nodetypes="ccssccssccsscccscc" />
  <path
     d="m 10.583333,5.5448808 v 1.5875 H 9.525 v 0.79375 h 1.058333 V 10.10481 c 0,1.494117 0.528744,2.054654 1.477947,2.054654 h 1.167887 v -1.058333 h -1.050065 c -0.510534,0 -0.537435,-0.354682 -0.537435,-1.1017412 v -2.073259 h 1.5875 v -0.79375 h -1.5875 v -1.5875 z M 6.3634361,5.2916666 c -2.1010261,-2e-7 -2.6592694,1.1870378 -2.6592694,3.4282142 0,2.2411772 0.5484233,3.4540532 2.6592694,3.4540532 h 0.5994463 l 0.8733319,1.493449 1.0118244,-0.373104 -0.824756,-1.494483 c 0.7854304,-0.373529 0.9725506,-1.585798 0.9725506,-3.0799152 0,-2.2411764 -0.5313711,-3.4282144 -2.6323972,-3.4282142 z m -0.0093,1.0469642 c 1.2816448,0 1.5833693,0.9297405 1.5833661,2.4628988 0,1.5331584 -0.29201,2.2996014 -1.5833661,2.2996014 -1.2913551,0 -1.5916339,-0.766443 -1.5916339,-2.2996014 0,-1.5331583 0.3099904,-2.4628988 1.5916339,-2.4628988 z"
     style="fill:#000000;stroke-width:0.264583;opacity:0.3"
     id="path5657" />
  <path
     d="m 10.583333,5.2802974 v 1.5875 H 9.525 v 0.79375 h 1.058333 v 2.1786792 c 0,1.4941174 0.528744,2.0546544 1.477947,2.0546544 h 1.167887 v -1.058333 h -1.050065 c -0.510534,0 -0.537435,-0.354682 -0.537435,-1.1017416 v -2.073259 h 1.5875 v -0.79375 h -1.5875 v -1.5875 z M 6.3634361,5.0270832 C 4.26241,5.027083 3.7041667,6.214121 3.7041667,8.4552974 c 0,2.2411776 0.5484233,3.4540536 2.6592694,3.4540536 H 6.9628824 L 7.8362143,13.4028 8.8480387,13.029696 8.0232827,11.535213 C 8.8087131,11.161684 8.9958333,9.9494146 8.9958333,8.4552974 8.9958333,6.214121 8.4644622,5.027083 6.3634361,5.0270832 Z m -0.0093,1.0469642 c 1.2816448,0 1.5833693,0.9297405 1.5833661,2.4628988 0,1.5331588 -0.29201,2.2996018 -1.5833661,2.2996018 -1.2913551,0 -1.5916339,-0.766443 -1.5916339,-2.2996018 0,-1.5331583 0.3099904,-2.4628988 1.5916339,-2.4628988 z"
     style="fill:#ffffff;stroke-width:0.264583"
     id="path1602"
     sodipodi:nodetypes="cccccssccssccccccsssccccssscsss" />
</svg>
