<?xml version="1.0" encoding="UTF-8" standalone="no"?>
<!-- Created with Inkscape (http://www.inkscape.org/) -->

<svg
   width="64"
   height="64"
   viewBox="0 0 16.933333 16.933333"
   version="1.1"
   id="svg5"
   inkscape:version="1.2 (dc2aedaf03, 2022-05-15)"
   sodipodi:docname="system-os-installer.svg"
   xmlns:inkscape="http://www.inkscape.org/namespaces/inkscape"
   xmlns:sodipodi="http://sodipodi.sourceforge.net/DTD/sodipodi-0.dtd"
   xmlns="http://www.w3.org/2000/svg"
   xmlns:svg="http://www.w3.org/2000/svg">
  <sodipodi:namedview
     id="namedview7"
     pagecolor="#ffffff"
     bordercolor="#666666"
     borderopacity="1.0"
     inkscape:pageshadow="2"
     inkscape:pageopacity="0.0"
     inkscape:pagecheckerboard="0"
     inkscape:document-units="px"
     showgrid="false"
     units="px"
     height="48px"
     inkscape:zoom="12.46875"
     inkscape:cx="32.120301"
     inkscape:cy="32"
     inkscape:window-width="1920"
     inkscape:window-height="1011"
     inkscape:window-x="0"
     inkscape:window-y="0"
     inkscape:window-maximized="1"
     inkscape:current-layer="svg5"
     inkscape:showpageshadow="2"
     inkscape:deskcolor="#d1d1d1" />
  <defs
     id="defs2" />
  <rect
     style="opacity:1;fill:#565656;fill-opacity:1;stroke-width:0.264583"
     id="rect845"
     width="12.170833"
     height="15.875"
     x="2.3812499"
     y="0.79374999"
     ry="1.190625" />
  <rect
     style="opacity:1;fill:#acacac;fill-opacity:1;stroke-width:0.264583"
     id="rect1249"
     width="11.641666"
     height="14.816667"
     x="2.6458333"
     y="1.0583333"
     ry="1.0583333" />
  <path
     d="m 8.4666665,3.1749999 c -2.0457556,0 -3.7041666,1.658411 -3.7041666,3.7041666 v 3.1749995 c 0,0.293158 0.2360084,0.529167 0.5291667,0.529167 h 3.1749999 c 2.0457555,0 3.7041665,-1.6584106 3.7041665,-3.7041665 0,-2.0457556 -1.658411,-3.7041666 -3.7041665,-3.7041666 z"
     style="fill:#444444;fill-opacity:1;stroke-width:0.264583"
     id="path977" />
  <circle
     style="opacity:1;fill:#acacac;fill-opacity:1;stroke-width:0.264583"
     id="path6387"
     cx="8.4666662"
     cy="6.8791666"
     r="1.8520833" />
  <path
     id="rect845-3"
     style="fill:#245c63;fill-opacity:1;stroke-width:0.566963"
     d="m 12.964583,8.4666665 c 2.198689,0 3.96875,1.7700625 3.96875,3.9687485 v 0.529168 c 0,2.198689 -1.770061,3.96875 -3.96875,3.96875 -2.198687,0 -3.9687498,-1.770061 -3.9687498,-3.96875 v -0.529168 c 0,-2.198686 1.7700628,-3.9687485 3.9687498,-3.9687485 z"
     sodipodi:nodetypes="sssssss" />
  <circle
     style="fill:#48b9c7;fill-opacity:1;stroke-width:0.30868"
     id="path1732"
     cx="12.964584"
     cy="12.435416"
     r="3.7041667" />
  <path
     d="m 13.493749,10.31875 v 1.5875 h 0.661459 l -1.190626,1.852083 -1.190625,-1.852083 h 0.661459 v -1.5875 z m -1.852083,3.704167 c -0.352777,0 -0.352777,0.529166 0,0.529166 H 14.2875 c 0.352776,0 0.352776,-0.529166 0,-0.529166 z"
     id="path1697"
     style="fill:#ffffff;stroke-width:0.264583" />
</svg>
