<?xml version="1.0" encoding="UTF-8" standalone="no"?>
<!-- Created with Inkscape (http://www.inkscape.org/) -->

<svg
   width="64"
   height="64"
   viewBox="0 0 16.933333 16.933334"
   version="1.1"
   id="svg1099"
   inkscape:version="1.2 (dc2aedaf03, 2022-05-15)"
   sodipodi:docname="vscodium.svg"
   xmlns:inkscape="http://www.inkscape.org/namespaces/inkscape"
   xmlns:sodipodi="http://sodipodi.sourceforge.net/DTD/sodipodi-0.dtd"
   xmlns="http://www.w3.org/2000/svg"
   xmlns:svg="http://www.w3.org/2000/svg">
  <sodipodi:namedview
     id="namedview1101"
     pagecolor="#ffffff"
     bordercolor="#666666"
     borderopacity="1.0"
     inkscape:pageshadow="2"
     inkscape:pageopacity="0.0"
     inkscape:pagecheckerboard="0"
     inkscape:document-units="px"
     showgrid="false"
     units="px"
     inkscape:zoom="12.5"
     inkscape:cx="32.12"
     inkscape:cy="32.12"
     inkscape:window-width="1846"
     inkscape:window-height="1011"
     inkscape:window-x="0"
     inkscape:window-y="0"
     inkscape:window-maximized="1"
     inkscape:current-layer="svg1099"
     inkscape:showpageshadow="2"
     inkscape:deskcolor="#d1d1d1" />
  <defs
     id="defs1096" />
  <rect
     style="opacity:1;fill:#dedede;stroke-width:0.264583;fill-opacity:1"
     id="rect1196"
     width="15.875"
     height="16.404167"
     x="0.5291667"
     y="0.5291667"
     ry="7.9375" />
  <path
     id="rect1452"
     style="fill:#000000;stroke-width:0.264583;opacity:0.5"
     d="M 8.4666667 0.52916667 C 4.0692961 0.52916667 0.52916667 4.0692961 0.52916667 8.4666667 L 0.52916667 8.9958334 C 0.52916667 13.393204 4.0692961 16.933333 8.4666667 16.933333 C 12.864037 16.933333 16.404167 13.393204 16.404167 8.9958334 L 16.404167 8.4666667 C 16.404167 4.0692961 12.864037 0.52916667 8.4666667 0.52916667 z M 8.4666667 0.79375001 A 7.6729169 7.6729169 0 0 1 16.139583 8.4666667 A 7.6729169 7.6729169 0 0 1 8.4666667 16.139583 A 7.6729169 7.6729169 0 0 1 0.79375001 8.4666667 A 7.6729169 7.6729169 0 0 1 8.4666667 0.79375001 z " />
  <path
     d="M 8.5391872,12.154404 C 8.4606808,12.132946 8.3923363,12.08276 8.344524,12.011423 8.2739646,11.906156 8.2504622,11.829847 8.1644258,11.426585 8.1285467,11.258419 8.0756795,11.146513 7.9865425,11.05008 7.8310148,10.881776 7.651412,10.822025 7.2260239,10.797041 6.7501396,10.76909 6.5812454,10.727186 6.4222528,10.597606 6.2415032,10.450299 6.1660713,10.283821 6.058148,9.7938437 5.9914191,9.4909987 5.9532992,9.3687927 5.8746627,9.2057676 5.7303653,8.9065424 5.5320281,8.6739921 5.2448144,8.4671991 5.0596876,8.3339126 5.004501,8.2528601 5.0349866,8.1590362 c 0.024754,-0.075972 0.103624,-0.1248806 0.2015159,-0.1248806 0.078793,0 0.1267619,0.019473 0.1893218,0.076891 0.059981,0.055017 0.095443,0.107069 0.1783003,0.2617523 0.075718,0.1413034 0.1484144,0.2442475 0.172542,0.2442475 0.014592,0 0.016936,-0.059608 0.016936,-0.428424 0,-0.2562568 0.00469,-0.4456932 0.011726,-0.4713948 0.014071,-0.051636 0.07009,-0.1027721 0.112431,-0.1027113 0.070325,1.058e-4 0.130566,0.067561 0.1613379,0.1806522 0.00704,0.025638 0.036478,0.282702 0.06553,0.5712354 0.029078,0.2885308 0.057167,0.5292249 0.06243,0.5348737 0.016155,0.01741 0.089997,-0.075195 0.138122,-0.1734819 0.04724,-0.096454 0.079159,-0.2195095 0.079497,-0.3065071 1.301e-4,-0.027519 -0.013028,-0.1150752 -0.02913,-0.1945693 -0.023971,-0.1180968 -0.027124,-0.1528577 -0.017198,-0.1900158 0.031293,-0.1180544 0.160556,-0.1374881 0.2453679,-0.036886 0.061388,0.072837 0.082571,0.1553025 0.082102,0.3199527 0,0.1783874 -0.015372,0.2447661 -0.1451052,0.6459379 -0.1120661,0.3466146 -0.1473718,0.5002396 -0.1470593,0.6397516 0,0.5002963 0.4135067,0.8260853 1.1047946,0.8727843 0.06157,0.0041 0.111936,0.0037 0.111936,-0.0011 0,-0.0047 -0.038537,-0.08027 -0.085646,-0.167875 C 7.382463,10.007439 7.3166199,9.7965897 7.3166199,9.5787427 c 0,-0.163965 0.023712,-0.264094 0.1280385,-0.537287 C 7.5871838,8.667748 7.6011499,8.607034 7.60128,8.3605403 7.6013843,8.2321829 7.5955465,8.1522894 7.5812167,8.0847227 7.5035961,7.7168752 7.3125286,7.4010209 7.0428764,7.1946882 6.9359953,7.1129029 6.9040509,7.0952763 6.6307249,6.9671492 6.3677952,6.8438931 6.2993464,6.801012 6.1941849,6.6936521 6.0812327,6.5783599 6.0333161,6.4840862 6.0256035,6.3620577 c -0.00469,-0.075401 -0.00287,-0.087297 0.016155,-0.097398 0.043487,-0.023257 0.135777,-0.02749 0.2182177,-0.010028 0.1530001,0.03239 0.2900799,0.1205362 0.5093401,0.3274827 0.2336168,0.2204985 0.3651988,0.3019107 0.5259636,0.3254269 0.078272,0.011457 0.086219,0.010689 0.1009664,-0.00979 0.023972,-0.033229 0.020323,-0.1569214 -0.00677,-0.230076 C 7.3395502,6.5328701 7.2325128,6.4327544 6.9932419,6.2971025 6.8394862,6.2099276 6.73581,6.1353362 6.6894828,6.0785567 6.576244,5.939743 6.5532366,5.7362414 6.6390905,5.6326253 c 0.08132,-0.098121 0.2191038,-0.1092068 0.3779665,-0.030411 0.077256,0.03833 0.1118317,0.066453 0.229057,0.1864042 0.3420353,0.3499379 0.5479809,0.8090191 0.6386293,1.423625 0.024233,0.1640708 0.021106,0.7821904 -0.00521,0.9967436 C 7.8545193,8.4135735 7.8149663,8.6563579 7.768353,8.8898765 7.727992,9.0921001 7.72484,9.1848631 7.755846,9.2545067 c 0.022929,0.0511 0.070299,0.08529 0.1183717,0.08529 0.0543,0 0.1505249,-0.06295 0.2613924,-0.170995 C 8.3166702,8.9923193 8.4181316,8.8213746 8.4761582,8.5950818 8.5014312,8.4964368 8.5059142,8.4477671 8.5133142,8.1905789 8.5211342,7.9187512 8.5234772,7.8943117 8.5482032,7.84271 8.5840822,7.767426 8.650316,7.7193586 8.7181917,7.7193586 c 0.044008,0 0.057427,0.00624 0.094609,0.043979 0.096901,0.098401 0.093566,0.2275735 -0.017718,0.6870012 C 8.7157169,8.7777988 8.6097479,9.0301292 8.4753517,9.211562 8.4349652,9.2660637 8.3163326,9.3935397 8.2117185,9.4948487 8.0861031,9.6164857 8.0022553,9.7082377 7.9648652,9.7650097 7.7460481,10.097223 7.8627003,10.42273 8.2221407,10.483009 8.3725092,10.508229 8.5391105,10.459279 8.6529485,10.356401 8.8115244,10.213132 8.9596781,9.8938617 9.0634845,9.4715947 9.2177352,8.8441854 9.2672414,8.1616953 9.186807,7.7710089 9.114059,7.4176817 8.9679897,7.1214595 8.7628001,6.9112189 8.7068058,6.8538599 8.5855157,6.7542125 8.4624279,6.6644606 8.1193503,6.4143103 7.9813847,6.2527398 7.9336504,6.0451371 7.9099385,5.9421137 7.9159313,5.837262 7.9466785,5.8137696 7.9863875,5.7835176 8.086338,5.7686446 8.1553599,5.7827206 8.3263125,5.8175846 8.4763421,5.953091 8.6345012,6.2154969 8.7588136,6.421721 8.8156937,6.4986486 8.9010004,6.5758541 c 0.063264,0.057261 0.095417,0.07302 0.095417,0.046778 0,-0.00691 -0.030381,-0.071165 -0.067485,-0.1428089 C 8.659098,5.958928 8.4653465,5.5661408 8.4392906,5.4871785 8.3805086,5.3090557 8.4140176,5.1828045 8.5348375,5.128594 8.6719173,5.067023 8.8243964,5.166795 8.8976132,5.3659491 8.9132472,5.4084381 9.0143696,5.7546776 9.1223712,6.135368 9.355545,6.957267 9.3397291,6.9055992 9.3562745,6.9001223 9.3765975,6.8934023 9.4524465,6.7052778 9.4907749,6.5666838 9.5410366,6.3848727 9.5628196,6.1952961 9.5551586,6.005656 9.5476026,5.8198153 9.5282172,5.6996601 9.4601071,5.4192785 9.4234726,5.2684131 9.409715,5.1881861 9.409715,5.1253264 c 0,-0.1483307 0.058131,-0.2691447 0.1582116,-0.3288982 0.110972,-0.066233 0.278459,-0.032951 0.390681,0.077623 0.1102174,0.1086331 0.1459394,0.2263674 0.1363514,0.4496201 -0.01016,0.2387521 -0.04893,0.3836194 -0.2662134,0.9967463 -0.193699,0.5466291 -0.251856,0.7503874 -0.286797,1.0047446 -0.022929,0.1666928 -0.022408,0.4298315 0,0.5699231 0.02032,0.1223883 0.06139,0.2579925 0.07965,0.2637895 0.0065,0.00212 0.06282,-0.1418642 0.12499,-0.3198733 0.152245,-0.4357872 0.172777,-0.4848886 0.220303,-0.5272696 0.09422,-0.084013 0.2340334,-0.012118 0.2340334,0.1203669 0,0.1106858 -0.2350504,0.810268 -0.834022,2.4823949 -0.1672001,0.4667623 -0.302404,0.8568033 -0.3003977,0.8667593 0.00259,0.01175 0.2417464,-0.202046 0.6809443,-0.608023 0.9386104,-0.8676323 0.9527324,-0.8823773 1.0134424,-1.0595692 0.02423,-0.071104 0.02754,-0.096787 0.02241,-0.1818878 -0.0081,-0.1360461 -0.05269,-0.2535634 -0.188123,-0.4961413 -0.16027,-0.2869936 -0.211313,-0.4089506 -0.228015,-0.5446634 -0.03395,-0.2759339 0.209202,-0.4554405 0.380832,-0.2811541 0.09529,0.096753 0.227285,0.4298579 0.284947,0.7191136 0.01589,0.07991 0.02897,0.1561254 0.02897,0.1693678 0,0.067006 0.03554,0.011377 0.178925,-0.2800588 0.207431,-0.4216136 0.245785,-0.4793615 0.357226,-0.5378741 0.09779,-0.051348 0.217306,0.00212 0.282472,0.1264285 0.03523,0.067196 0.03416,0.1938469 -0.0026,0.3070992 -0.09703,0.299212 -0.479532,0.93649 -0.891475,1.4852943 -0.02293,0.03046 -0.03549,0.05537 -0.02806,0.05537 0.0076,0 0.04281,-0.01728 0.07861,-0.0384 0.221709,-0.130839 0.378618,-0.139351 0.533259,-0.02892 0.04729,0.03377 0.0999,0.133871 0.09974,0.189733 -2.08e-4,0.06315 -0.03491,0.136345 -0.08163,0.172161 -0.08546,0.06551 -0.175043,0.08671 -0.428775,0.1014503 -0.417641,0.02426 -0.734793,0.138352 -1.039099,0.373763 -0.2398454,0.185544 -0.3800774,0.372679 -0.619974,0.827344 -0.1952887,0.370136 -0.2868489,0.504283 -0.4694225,0.687877 -0.1322334,0.132974 -0.2309331,0.196249 -0.343364,0.220155 -0.073399,0.01561 -0.072956,0.01561 -0.1497172,-0.0053 z"
     style="fill:#6a7ce0;fill-opacity:1;stroke-width:0.264583"
     id="path354" />
</svg>
