<?xml version="1.0" encoding="UTF-8" standalone="no"?>
<!-- Created with Inkscape (http://www.inkscape.org/) -->

<svg
   width="64"
   height="64"
   viewBox="0 0 16.933333 16.933334"
   version="1.1"
   id="svg1099"
   inkscape:version="1.1.2 (0a00cf5339, 2022-02-04, custom)"
   sodipodi:docname="weather.svg"
   xmlns:inkscape="http://www.inkscape.org/namespaces/inkscape"
   xmlns:sodipodi="http://sodipodi.sourceforge.net/DTD/sodipodi-0.dtd"
   xmlns="http://www.w3.org/2000/svg"
   xmlns:svg="http://www.w3.org/2000/svg">
  <sodipodi:namedview
     id="namedview1101"
     pagecolor="#ffffff"
     bordercolor="#666666"
     borderopacity="1.0"
     inkscape:pageshadow="2"
     inkscape:pageopacity="0.0"
     inkscape:pagecheckerboard="0"
     inkscape:document-units="px"
     showgrid="false"
     units="px"
     inkscape:zoom="8.8609318"
     inkscape:cx="46.891231"
     inkscape:cy="35.662163"
     inkscape:window-width="1920"
     inkscape:window-height="1002"
     inkscape:window-x="0"
     inkscape:window-y="0"
     inkscape:window-maximized="1"
     inkscape:current-layer="svg1099" />
  <defs
     id="defs1096" />
  <circle
     style="opacity:1;fill:#ffce51;fill-opacity:1;stroke-width:0.245684"
     id="path1427"
     cx="8.4666662"
     cy="8.4666662"
     r="6.8791666" />
  <path
     id="path1196"
     style="opacity:0.4;fill:#000000;fill-opacity:1;stroke-width:1.95037;stroke-linecap:round;stroke-linejoin:round"
     d="M 32 6 A 26 26 0 0 0 6 32 A 26 26 0 0 0 32 58 A 26 26 0 0 0 58 32 A 26 26 0 0 0 32 6 z M 32 7 A 25 25 0 0 1 57 32 A 25 25 0 0 1 32 57 A 25 25 0 0 1 7 32 A 25 25 0 0 1 32 7 z "
     transform="scale(0.26458334)" />
  <path
     d="m 11.112497,7.9375001 c -1.3202102,0.0035 -2.5004552,0.823719 -2.9641612,2.059824 -0.385832,-0.622451 -1.066007,-1.001237 -1.798339,-1.001491 -1.169003,0 -2.1166667,0.947664 -2.1166667,2.1166669 0.00132,0.0226 0.00273,0.04516 0.00466,0.0677 -0.9169109,0.232469 -1.5921567,1.057786 -1.5921567,2.048971 0,1.172633 0.9440334,2.116666 2.1166667,2.116666 h 8.4666669 c 1.172633,0 2.116667,-0.944033 2.116667,-2.116666 0,-0.794428 -0.433861,-1.48272 -1.077971,-1.84485 0.01042,-0.09028 0.01699,-0.180972 0.01963,-0.271817 0,-1.7535049 -1.421495,-3.1749999 -3.175,-3.1749999 z"
     style="fill:#ffffff;fill-opacity:1;stroke-width:0.264583"
     id="path953" />
  <path
     d="m 11.11564,7.9415111 c -1.3203472,0.0016 -2.5018782,0.820216 -2.9673042,2.055813 -0.38621,-0.619967 -1.064776,-0.997003 -1.795198,-0.99748 -1.169001,0 -2.116667,0.947664 -2.116667,2.1166669 5.291e-4,0.02275 0.00132,0.04551 0.00265,0.06826 -0.9366885,0.237942 -1.5918948,1.081966 -1.5901459,2.048404 0,1.172633 0.944036,2.116667 2.1166667,2.116667 h 8.4666694 c 1.172634,0 2.116667,-0.944034 2.116667,-2.116667 0.0013,-0.762408 -0.408514,-1.466295 -1.072356,-1.841236 0.0087,-0.09154 0.01323,-0.183356 0.01402,-0.275431 0,-1.7533939 -1.421609,-3.1749999 -3.175001,-3.1749999 z m 0.0053,0.264583 c 1.60999,0 2.915179,1.305455 2.915179,2.9157089 -7.93e-4,0.115887 -0.0085,0.231246 -0.02275,0.346339 0.641453,0.219237 1.072116,0.822569 1.071034,1.500452 0,0.879475 -0.708028,1.5875 -1.587501,1.5875 H 4.5010541 c -0.879475,0 -1.5875,-0.708025 -1.5875,-1.5875 0,-0.879475 0.708025,-1.5875 1.5875,-1.5875 h 0.020902 c -0.013282,-0.08758 -0.020267,-0.176003 -0.020902,-0.264583 0,-1.022879 0.8292067,-1.8520829 1.8520837,-1.8520829 1.022882,0 1.852083,0.8292039 1.852083,1.8520829 0.0026,-1.6081369 1.307574,-2.9104169 2.9157112,-2.9104169 z"
     style="fill-opacity:1;stroke-width:0.264583;fill:#000000;opacity:0.4"
     id="path1073" />
</svg>
