<?xml version="1.0" encoding="UTF-8" standalone="no"?>
<!-- Created with Inkscape (http://www.inkscape.org/) -->

<svg
   width="256"
   height="256"
   viewBox="0 0 67.733332 67.733332"
   version="1.1"
   id="svg5"
   inkscape:version="1.2 (dc2aedaf03, 2022-05-15)"
   sodipodi:docname="application-octet-stream.svg"
   xmlns:inkscape="http://www.inkscape.org/namespaces/inkscape"
   xmlns:sodipodi="http://sodipodi.sourceforge.net/DTD/sodipodi-0.dtd"
   xmlns="http://www.w3.org/2000/svg"
   xmlns:svg="http://www.w3.org/2000/svg">
  <sodipodi:namedview
     id="namedview7"
     pagecolor="#ffffff"
     bordercolor="#666666"
     borderopacity="1.0"
     inkscape:pageshadow="2"
     inkscape:pageopacity="0.0"
     inkscape:pagecheckerboard="0"
     inkscape:document-units="px"
     showgrid="false"
     units="px"
     height="48px"
     inkscape:zoom="1"
     inkscape:cx="94.5"
     inkscape:cy="94"
     inkscape:window-width="1920"
     inkscape:window-height="1011"
     inkscape:window-x="0"
     inkscape:window-y="0"
     inkscape:window-maximized="1"
     inkscape:current-layer="svg5"
     inkscape:showpageshadow="2"
     inkscape:deskcolor="#d1d1d1" />
  <defs
     id="defs2" />
  <rect
     style="opacity:1;fill:#7b7b7b;fill-opacity:1;stroke-width:0.264583"
     id="rect845"
     width="46.566666"
     height="60.324997"
     x="10.583333"
     y="3.7041664"
     ry="2.1166666" />
  <rect
     style="opacity:1;fill:#f6f6f6;fill-opacity:1;stroke-width:0.264583"
     id="rect1249"
     width="46.037498"
     height="58.737499"
     x="10.847917"
     y="3.96875"
     ry="1.984375" />
  <path
     d="m 28.239624,7.6730322 c -0.795338,0 -1.264524,0.7209909 -1.264524,1.8520831 0,1.0125587 0.306227,1.6593297 1.131197,1.6593297 0.592667,0 1.071769,-0.444277 1.071769,-1.1999257 0,-0.7257729 -0.444373,-1.0668899 -0.962731,-1.0671189 h -5.29e-4 c -0.335783,1.38e-4 -0.607756,0.133463 -0.820105,0.454236 0.01482,-0.8297324 0.316132,-1.3627072 0.839739,-1.3627072 0.187855,0 0.360876,0.049216 0.518832,0.1431435 L 28.916055,7.875087 C 28.716527,7.740176 28.480445,7.6696577 28.23961,7.6730322 Z m -6.096786,0.00103 c -0.731308,0 -1.111044,0.6270514 -1.111044,1.7533812 0,1.1308276 0.379736,1.7580316 1.111044,1.7580316 0.731306,0 1.111559,-0.626939 1.111559,-1.7580316 0,-1.1260652 -0.380783,-1.7533812 -1.111559,-1.7533812 z m 17.769456,0 c -0.731306,0 -1.111044,0.6270514 -1.111044,1.7533812 0,1.1308276 0.379738,1.7580316 1.111044,1.7580316 0.730779,0 1.111044,-0.626939 1.111044,-1.7580316 0,-1.1260652 -0.380265,-1.7533812 -1.111044,-1.7533812 z m -21.609531,0.05271 v 1.6991212 h 0.335896 c 0.197379,-0.06906 0.330753,-0.113688 0.528132,-0.113688 0.345811,0 0.617533,0.1825999 0.617533,0.7260526 0,0.528373 -0.266708,0.805119 -0.716235,0.805119 -0.291307,0 -0.523272,-0.103799 -0.730703,-0.316259 l -0.256834,0.252181 c 0.261938,0.251883 0.5777,0.404626 0.987537,0.404626 0.701145,0 1.150834,-0.449114 1.150834,-1.13068 0,-0.6815656 -0.375269,-1.0671186 -0.933276,-1.0671186 -0.202406,0 -0.380505,0.03454 -0.582911,0.148312 V 8.0626708 h 1.343589 l 0.05943,-0.3358967 z m 26.654185,0 v 1.6991212 h 0.335897 c 0.197379,-0.06906 0.330755,-0.113688 0.528135,-0.113688 0.345807,0 0.617532,0.1825999 0.617532,0.7260526 0,0.528373 -0.266708,0.805119 -0.716235,0.805119 -0.291307,0 -0.523788,-0.103799 -0.731221,-0.316259 l -0.256315,0.252181 c 0.261937,0.251883 0.577696,0.404626 0.987536,0.404626 0.701146,0 1.150834,-0.449114 1.150834,-1.13068 0,-0.6815656 -0.375788,-1.0671186 -0.933794,-1.0671186 -0.202406,0 -0.379987,0.03454 -0.582393,0.148312 V 8.0626708 h 1.34307 l 0.05994,-0.3358967 z m -9.009269,5.291e-4 V 8.0725 h 1.595769 l -1.323951,2.987931 0.385505,0.114205 1.358059,-3.1264239 V 7.7273032 Z m -5.72058,0.00103 v 3.4028927 h 0.429948 V 9.6202093 h 1.333252 V 9.2739774 H 30.657047 V 8.0838689 h 1.526003 l 0.04961,-0.3555338 z m 17.769457,0 v 3.4028927 h 0.429948 V 9.6202093 h 1.333251 V 9.2739774 H 48.426504 V 8.0838689 h 1.526005 l 0.04961,-0.3555338 z M 22.142838,8.0099716 c 0.424392,0 0.676444,0.4147145 0.676444,1.4174848 0,1.0075316 -0.251788,1.4221346 -0.676444,1.4221346 -0.419894,0 -0.676963,-0.414603 -0.676963,-1.4221346 0,-1.0027703 0.257069,-1.4174848 0.676963,-1.4174848 z m 17.769456,0 c 0.424392,0 0.676444,0.4147145 0.676444,1.4174848 0,1.0075316 -0.251523,1.4221346 -0.676444,1.4221346 -0.419891,0 -0.67696,-0.414603 -0.67696,-1.4221346 0,-1.0027703 0.257069,-1.4174848 0.67696,-1.4174848 z M 22.142838,9.1060284 c -0.178229,-0.0019 -0.323125,0.143202 -0.320911,0.321428 0,0.1825619 0.138348,0.3260779 0.320911,0.3260779 0.187854,0 0.325562,-0.143516 0.325562,-0.3260779 0,-0.1778 -0.137708,-0.321428 -0.325562,-0.321428 z m 17.769456,0 c -0.178229,-0.0019 -0.323125,0.143202 -0.32091,0.321428 0,0.1825619 0.138347,0.3260779 0.32091,0.3260779 0.187854,0 0.325562,-0.143516 0.325562,-0.3260779 0,-0.1778 -0.137708,-0.321428 -0.325562,-0.321428 z m -11.761555,0.147278 c 0.3556,0 0.602547,0.187937 0.602547,0.7462079 0,0.5233447 -0.21757,0.8490427 -0.646989,0.8490427 -0.484187,0 -0.691599,-0.345604 -0.706416,-1.1110427 0.168011,-0.2865429 0.424892,-0.4842079 0.750858,-0.4842079 z m -8.795845,6.3572346 c -0.795073,0 -1.264523,0.720991 -1.264523,1.852083 0,1.012559 0.306491,1.65933 1.131197,1.65933 0.592667,0 1.071769,-0.444277 1.071769,-1.199927 0,-0.725772 -0.444373,-1.066889 -0.962732,-1.067118 h -5.29e-4 c -0.33578,1.38e-4 -0.607756,0.133463 -0.820105,0.454236 0.01482,-0.829733 0.316132,-1.362708 0.839743,-1.362707 0.187854,0 0.360608,0.04922 0.518829,0.143143 l 0.162782,-0.276985 c -0.199527,-0.134912 -0.43561,-0.20543 -0.676444,-0.202055 z m 8.88473,0 c -0.795338,0 -1.264524,0.720991 -1.264524,1.852083 0,1.012559 0.306227,1.65933 1.131197,1.65933 0.592667,0 1.071769,-0.444277 1.071769,-1.199927 0,-0.725772 -0.444373,-1.066889 -0.962731,-1.067118 h -5.29e-4 c -0.335783,1.38e-4 -0.607756,0.133463 -0.820105,0.454236 0.01482,-0.829733 0.316132,-1.362708 0.839739,-1.362707 0.187855,0 0.360876,0.04922 0.518832,0.143143 l 0.162783,-0.276985 c -0.199528,-0.134912 -0.43561,-0.20543 -0.676445,-0.202055 z m 8.884726,0 c -0.795335,0 -1.26452,0.720991 -1.26452,1.852083 0,1.012559 0.306226,1.65933 1.131197,1.65933 0.592666,0 1.071769,-0.444277 1.071769,-1.199927 0,-0.725772 -0.444373,-1.066889 -0.962732,-1.067118 h -5.29e-4 c -0.33578,1.38e-4 -0.607753,0.133463 -0.820102,0.454236 0.01482,-0.829733 0.316132,-1.362708 0.839739,-1.362707 0.187855,0 0.360876,0.04922 0.518832,0.143143 l 0.162783,-0.276985 c -0.199528,-0.134912 -0.435613,-0.20543 -0.676447,-0.202055 z m 8.882147,0 c -0.795337,0 -1.264523,0.720991 -1.264523,1.852083 0,1.012559 0.306226,1.65933 1.131197,1.65933 0.592667,0 1.071769,-0.444277 1.071769,-1.199927 0,-0.726015 -0.444667,-1.067118 -0.963247,-1.067118 -0.336021,0 -0.607645,0.133297 -0.820105,0.454236 0.01482,-0.829733 0.316132,-1.362708 0.839742,-1.362707 0.187852,0 0.360609,0.04922 0.518829,0.143143 l 0.162783,-0.276985 c -0.199528,-0.134912 -0.43561,-0.20543 -0.676445,-0.202055 z m -15.132409,0.001 c -0.350838,0 -0.676847,0.118318 -0.968418,0.394808 l 0.227894,0.252181 c 0.227012,-0.207433 0.429064,-0.311092 0.72037,-0.311092 0.360625,0 0.642337,0.202675 0.642337,0.573091 0,0.409839 -0.316373,0.592212 -0.642337,0.592212 h -0.202057 l -0.04961,0.330729 h 0.281638 c 0.405078,0 0.706417,0.158556 0.706417,0.647506 0,0.424656 -0.281893,0.691431 -0.756026,0.691431 -0.276754,0 -0.562893,-0.108873 -0.75551,-0.336414 l -0.276468,0.227893 c 0.25691,0.310885 0.661842,0.449068 1.042313,0.449068 0.705908,0 1.179771,-0.444339 1.179771,-1.031978 0,-0.528637 -0.375208,-0.805458 -0.770495,-0.835091 0.3556,-0.06906 0.661977,-0.380029 0.661977,-0.790133 0,-0.464079 -0.399654,-0.854211 -1.041796,-0.854211 z m -8.784476,0.0052 c -0.612535,2.19e-4 -1.101225,0.390289 -1.101225,1.120862 0,0.676803 0.409921,1.091782 0.977717,1.086755 0.317146,-0.0039 0.613082,-0.160011 0.795301,-0.419613 -0.0098,0.82497 -0.562904,1.210279 -1.471745,1.452108 l 0.0987,0.315743 c 1.269471,-0.3556 1.812811,-0.790208 1.812811,-2.24224 0,-0.809703 -0.350731,-1.313384 -1.111043,-1.313615 z m 25.845449,0.04909 v 3.402893 h 1.976107 v -0.345715 h -1.55081 v -1.205094 h 1.264523 v -0.350883 h -1.264523 v -1.145667 h 1.456758 l 0.04961,-0.355534 z m -8.775692,0.02946 v 3.402376 h 0.429948 v -1.511019 h 1.333251 v -0.345715 h -1.333251 v -1.190108 h 1.526006 l 0.04961,-0.355534 z M 22.089612,15.95264 c 0.47413,0 0.696428,0.271699 0.681611,1.081587 -0.182562,0.271727 -0.41003,0.449474 -0.730705,0.454236 -0.385233,0.0048 -0.617535,-0.217289 -0.617535,-0.735872 0,-0.523346 0.227156,-0.799951 0.666629,-0.799951 z m -2.823602,1.238167 c 0.3556,0 0.602546,0.187937 0.602546,0.746208 0,0.523345 -0.217305,0.849043 -0.646988,0.849043 -0.484187,0 -0.6916,-0.345604 -0.706416,-1.111043 0.16801,-0.286543 0.424891,-0.484208 0.750858,-0.484208 z m 8.884729,0 c 0.3556,0 0.602547,0.187937 0.602547,0.746208 0,0.523345 -0.21757,0.849043 -0.646989,0.849043 -0.484187,0 -0.691599,-0.345604 -0.706416,-1.111043 0.168011,-0.286543 0.424892,-0.484208 0.750858,-0.484208 z m 8.88473,0 c 0.3556,0 0.602546,0.187937 0.602546,0.746208 0,0.523345 -0.217305,0.849043 -0.646988,0.849043 -0.484188,0 -0.6916,-0.345604 -0.706417,-1.111043 0.168011,-0.286543 0.424892,-0.484208 0.750859,-0.484208 z m 8.882144,0 c 0.3556,0 0.602546,0.187937 0.602546,0.746208 0,0.523345 -0.217569,0.849043 -0.646988,0.849043 -0.484187,0 -0.691599,-0.345604 -0.706416,-1.111043 0.16801,-0.286543 0.424892,-0.484208 0.750858,-0.484208 z m -8.793263,6.357235 c -0.795335,0 -1.26452,0.72099 -1.26452,1.852084 0,1.012558 0.306226,1.659329 1.131197,1.659329 0.592666,0 1.071769,-0.444278 1.071769,-1.199928 0,-0.72577 -0.444373,-1.06689 -0.962732,-1.067117 h -5.29e-4 c -0.33578,1.37e-4 -0.607753,0.133463 -0.820102,0.454236 0.01482,-0.829733 0.316132,-1.362707 0.839739,-1.362707 0.187855,0 0.360876,0.04922 0.518832,0.143142 l 0.162783,-0.276984 c -0.199528,-0.134912 -0.435613,-0.20543 -0.676447,-0.202055 z m -15.134992,0.001 c -0.350837,0 -0.676846,0.118319 -0.968417,0.394809 l 0.227894,0.25218 c 0.227012,-0.207431 0.429064,-0.311092 0.72037,-0.311092 0.360627,0 0.642337,0.202676 0.642337,0.573093 0,0.409839 -0.31637,0.592211 -0.642337,0.592211 h -0.202054 l -0.04961,0.330729 h 0.281636 c 0.405077,0 0.706416,0.158557 0.706416,0.647507 0,0.424654 -0.281892,0.691431 -0.756025,0.691431 -0.276754,0 -0.562893,-0.108874 -0.75551,-0.336416 l -0.276468,0.227894 c 0.25691,0.310885 0.661841,0.449069 1.042312,0.449069 0.705909,0 1.179775,-0.444341 1.179775,-1.031978 0,-0.528637 -0.375211,-0.805458 -0.770496,-0.835091 0.355597,-0.06906 0.661974,-0.380029 0.661974,-0.790133 0,-0.464079 -0.399653,-0.854213 -1.041797,-0.854213 z m 5.923669,0 c -0.459293,1.25e-4 -0.770294,0.163018 -1.036629,0.48886 l 0.286287,0.222208 c 0.217223,-0.251883 0.399711,-0.360701 0.730705,-0.360701 0.380206,0 0.612367,0.232677 0.612367,0.612883 0,0.55298 -0.276608,0.928489 -1.560629,2.158008 v 0.335897 h 2.025201 l 0.04961,-0.355534 h -1.60042 c 1.121037,-1.02235 1.520836,-1.526284 1.520836,-2.153875 0,-0.538015 -0.384979,-0.947523 -1.026811,-0.947746 z m 3.11454,0 c -0.731308,0 -1.111043,0.627052 -1.111043,1.753384 0,1.130826 0.379735,1.758031 1.111043,1.758031 0.730777,0 1.11156,-0.62694 1.11156,-1.758031 0,-1.126067 -0.380783,-1.753384 -1.11156,-1.753384 z m 8.73125,0 c -0.459581,0 -0.770713,0.162894 -1.037148,0.48886 l 0.28629,0.222208 c 0.21722,-0.251883 0.400227,-0.360701 0.731221,-0.360701 0.380206,0 0.611849,0.232677 0.611849,0.612883 0,0.55298 -0.27609,0.928489 -1.560113,2.158008 v 0.335897 H 40.8156 l 0.04961,-0.355534 h -1.600419 c 1.121037,-1.02235 1.521354,-1.526284 1.521354,-2.153875 0,-0.53816 -0.385186,-0.947746 -1.027328,-0.947746 z m 8.982395,0.0052 c -0.612531,2.19e-4 -1.101222,0.390289 -1.101222,1.120862 0,0.676804 0.409921,1.091782 0.977717,1.086755 0.317146,-0.0039 0.613082,-0.16001 0.795301,-0.419611 -0.0098,0.824968 -0.562904,1.210278 -1.471745,1.452108 l 0.0987,0.315743 c 1.269471,-0.3556 1.812293,-0.79021 1.812293,-2.242241 0,-0.809704 -0.350213,-1.313383 -1.110525,-1.313616 z m -30.562991,0.04806 v 0.345199 h 1.595768 l -1.323949,2.987931 0.385506,0.114205 1.358056,-3.126422 v -0.320913 z m 26.654188,0 v 0.345199 h 1.595768 l -1.323951,2.987931 0.385506,0.114205 1.358056,-3.126422 v -0.320913 z m -13.804842,0.28267 c 0.424389,0 0.676445,0.414716 0.676445,1.417487 0,1.00753 -0.251791,1.422135 -0.676445,1.422135 -0.419893,0 -0.676963,-0.414605 -0.676963,-1.422135 0,-1.002771 0.25707,-1.417487 0.676963,-1.417487 z m 17.713645,0.0052 c 0.474134,0 0.696431,0.271698 0.681614,1.081587 -0.182562,0.271725 -0.41003,0.449472 -0.730705,0.454234 -0.385233,0.0048 -0.617534,-0.217289 -0.617534,-0.735872 0,-0.523346 0.227155,-0.799949 0.666625,-0.799949 z m -17.713645,1.090887 c -0.178231,-0.0019 -0.323127,0.143203 -0.32091,0.32143 0,0.182559 0.138348,0.326077 0.32091,0.326077 0.187852,0 0.325559,-0.143518 0.325559,-0.326077 0,-0.1778 -0.137707,-0.32143 -0.325559,-0.32143 z m 6.007902,0.147278 c 0.3556,0 0.602546,0.187939 0.602546,0.74621 0,0.523343 -0.217305,0.849042 -0.646988,0.849042 -0.484188,0 -0.6916,-0.345604 -0.706417,-1.111043 0.168011,-0.286544 0.424892,-0.484209 0.750859,-0.484209 z m 0.08888,6.357236 c -0.795335,0 -1.26452,0.72099 -1.26452,1.852084 0,1.012557 0.306226,1.659329 1.131197,1.659329 0.592666,0 1.071769,-0.444278 1.071769,-1.199928 0,-0.725771 -0.444373,-1.06689 -0.962732,-1.067117 h -5.29e-4 c -0.33578,1.37e-4 -0.607753,0.133463 -0.820102,0.454236 0.01482,-0.829733 0.316132,-1.362707 0.839739,-1.362707 0.187855,0 0.360876,0.04921 0.518832,0.143142 l 0.162783,-0.276984 c -0.199528,-0.134912 -0.435613,-0.20543 -0.676447,-0.202055 z m 8.882147,0 c -0.795337,0 -1.264523,0.72099 -1.264523,1.852084 0,1.012557 0.306226,1.659329 1.131197,1.659329 0.592667,0 1.071769,-0.444278 1.071769,-1.199928 0,-0.726014 -0.444667,-1.067117 -0.963247,-1.067117 -0.336021,0 -0.607645,0.133297 -0.820105,0.454236 0.01482,-0.829733 0.316132,-1.362707 0.839742,-1.362707 0.187852,0 0.360609,0.04921 0.518829,0.143142 l 0.162783,-0.276984 c -0.199528,-0.134911 -0.43561,-0.205429 -0.676445,-0.202055 z m -26.978199,0.001 c -0.459293,1.25e-4 -0.770295,0.163018 -1.03663,0.48886 l 0.28629,0.222208 c 0.21722,-0.251883 0.400227,-0.360701 0.731221,-0.360701 0.380206,0 0.611849,0.232677 0.611849,0.612883 0,0.552979 -0.27609,0.928489 -1.560113,2.158008 v 0.335897 h 2.024684 l 0.04961,-0.355534 h -1.60042 c 1.121037,-1.02235 1.521354,-1.526284 1.521354,-2.153875 0,-0.538015 -0.385498,-0.947523 -1.027327,-0.947746 z m 3.11454,0 c -0.731308,0 -1.111044,0.627052 -1.111044,1.753383 0,1.130827 0.379736,1.758032 1.111044,1.758032 0.731306,0 1.111559,-0.62694 1.111559,-1.758032 0,-1.126066 -0.380783,-1.753383 -1.111559,-1.753383 z m 5.793959,0 -0.997354,2.325958 v 0.30644 h 1.412316 v 0.824757 h 0.399976 v -0.824764 h 0.439251 l 5.16e-4,-0.335896 H 28.751734 V 32.81982 h -0.360701 l -0.03462,0.963248 h -0.97772 l 0.903822,-2.148189 z m 3.037541,0.0052 c -0.612531,2.19e-4 -1.101225,0.390289 -1.101225,1.120862 0,0.676804 0.409925,1.091782 0.977721,1.086755 0.317145,-0.0039 0.613081,-0.16001 0.7953,-0.419611 -0.0098,0.824968 -0.562904,1.210278 -1.471745,1.452107 l 0.0987,0.315744 c 1.269471,-0.3556 1.812812,-0.79021 1.812812,-2.242241 0,-0.809704 -0.350732,-1.313384 -1.111044,-1.313616 z m 16.960723,0.04909 v 3.402887 h 1.976107 v -0.345716 h -1.55081 v -1.205095 h 1.264523 v -0.350913 h -1.264522 v -1.145667 h 1.456758 l 0.04961,-0.355534 z m -8.023283,5.16e-4 -1.012341,0.632521 0.182417,0.290938 0.775663,-0.469222 v 2.61276 h -0.834572 v 0.336412 h 1.960602 v -0.336419 h -0.7059 v -3.066997 z m -17.76894,0.28112 c 0.424392,0 0.676444,0.414716 0.676444,1.417486 0,1.007531 -0.251788,1.422136 -0.676444,1.422136 -0.419894,0 -0.676963,-0.414605 -0.676963,-1.422136 0,-1.00277 0.257069,-1.417486 0.676963,-1.417486 z m 8.8315,0.0052 c 0.474134,0 0.696431,0.271698 0.681615,1.081587 -0.182563,0.271725 -0.41003,0.449472 -0.730705,0.454234 -0.385234,0.0048 -0.617535,-0.217289 -0.617535,-0.735872 0,-0.523346 0.227155,-0.799949 0.666625,-0.799949 z m -8.8315,1.090887 c -0.178231,-0.0019 -0.323128,0.143203 -0.320911,0.321429 0,0.18256 0.138348,0.326078 0.320911,0.326078 0.187854,0 0.325562,-0.143518 0.325562,-0.326078 0,-0.1778 -0.137708,-0.321429 -0.325562,-0.321429 z m 14.892631,0.147278 c 0.3556,0 0.602546,0.187939 0.602546,0.74621 0,0.523343 -0.217305,0.849042 -0.646988,0.849042 -0.484188,0 -0.6916,-0.345604 -0.706417,-1.111043 0.168011,-0.286544 0.424892,-0.484209 0.750859,-0.484209 z m 8.882144,0 c 0.3556,0 0.602546,0.187939 0.602546,0.74621 0,0.523343 -0.217569,0.849042 -0.646988,0.849042 -0.484187,0 -0.691599,-0.345604 -0.706416,-1.111043 0.16801,-0.286544 0.424892,-0.484209 0.750858,-0.484209 z M 37.124349,39.4231 c -0.795335,0 -1.26452,0.72099 -1.26452,1.852084 0,1.012557 0.306226,1.659329 1.131197,1.659329 0.592666,0 1.071769,-0.444278 1.071769,-1.199928 0,-0.725771 -0.444373,-1.06689 -0.962732,-1.067118 h -5.29e-4 c -0.33578,1.38e-4 -0.607753,0.133464 -0.820102,0.454237 0.01482,-0.829733 0.316132,-1.362707 0.839739,-1.362707 0.187855,0 0.360876,0.04921 0.518832,0.143142 l 0.162783,-0.276984 C 37.601258,39.490243 37.365173,39.419725 37.124339,39.4231 Z m 8.882147,0 c -0.795337,0 -1.264523,0.72099 -1.264523,1.852084 0,1.012557 0.306226,1.659329 1.131197,1.659329 0.592667,0 1.071769,-0.444278 1.071769,-1.199928 0,-0.726014 -0.444667,-1.067118 -0.963247,-1.067118 -0.336021,0 -0.607645,0.133298 -0.820105,0.454237 0.01482,-0.829733 0.316132,-1.362707 0.839742,-1.362707 0.187852,0 0.360609,0.04921 0.518829,0.143142 l 0.162783,-0.276984 C 46.483413,39.490244 46.247331,39.419726 46.006496,39.4231 Z m -26.978199,0.001 c -0.459293,1.25e-4 -0.770295,0.163018 -1.03663,0.48886 l 0.28629,0.222208 c 0.21722,-0.251883 0.400227,-0.360701 0.731221,-0.360701 0.380206,0 0.611849,0.232677 0.611849,0.612883 0,0.552979 -0.27609,0.928489 -1.560113,2.158008 v 0.335896 h 2.024684 l 0.04961,-0.355533 h -1.60042 c 1.121037,-1.02235 1.521354,-1.526284 1.521354,-2.153875 0,-0.538015 -0.385498,-0.947524 -1.027327,-0.947746 z m 3.11454,0 c -0.731308,0 -1.111044,0.627052 -1.111044,1.753383 0,1.130827 0.379736,1.758032 1.111044,1.758032 0.731306,0 1.111559,-0.626941 1.111559,-1.758032 0,-1.126066 -0.380783,-1.753383 -1.111559,-1.753383 z m 8.73125,0 c -0.350838,0 -0.676847,0.118319 -0.968418,0.394809 l 0.227894,0.252179 c 0.227012,-0.20743 0.429064,-0.311091 0.72037,-0.311091 0.360625,0 0.642337,0.202676 0.642337,0.573092 0,0.40984 -0.316373,0.592212 -0.642337,0.592212 h -0.202057 l -0.04961,0.330729 h 0.281638 c 0.405078,0 0.706417,0.158557 0.706417,0.647507 0,0.424654 -0.281893,0.69143 -0.756026,0.69143 -0.276754,0 -0.562893,-0.108873 -0.75551,-0.336415 l -0.276468,0.227894 c 0.25691,0.310885 0.661842,0.449069 1.042313,0.449069 0.705908,0 1.179771,-0.444341 1.179771,-1.031978 0,-0.528637 -0.375208,-0.805458 -0.770495,-0.835091 0.3556,-0.06906 0.661977,-0.380029 0.661977,-0.790133 0,-0.464079 -0.399654,-0.854213 -1.041796,-0.854213 z m 9.135358,0.02325 -1.01234,0.632521 0.182417,0.290939 0.776181,-0.469223 v 2.612754 h -0.83509 v 0.335896 h 1.960602 v -0.335896 h -0.7059 v -3.067022 z m -12.821957,0.02946 v 1.699123 h 0.335897 c 0.197379,-0.06906 0.330756,-0.113689 0.528135,-0.113689 0.34581,0 0.617532,0.1826 0.617532,0.726054 0,0.528373 -0.266708,0.805119 -0.716235,0.805119 -0.291306,0 -0.523272,-0.103801 -0.730705,-0.316259 l -0.256831,0.252179 c 0.261937,0.251884 0.577696,0.404628 0.987536,0.404628 0.701146,0 1.150834,-0.449115 1.150834,-1.130681 0,-0.681567 -0.375269,-1.067118 -0.933275,-1.067118 -0.202406,0 -0.380505,0.03454 -0.582912,0.14831 v -1.071769 h 1.343589 l 0.05943,-0.335897 z m 20.747572,0.0016 v 3.402894 h 1.976107 v -0.345715 h -1.55081 v -1.205095 h 1.264523 v -0.350883 h -1.264523 v -1.145667 h 1.456758 l 0.04961,-0.355534 z m -25.792223,0.281636 c 0.424392,0 0.676444,0.414716 0.676444,1.417487 0,1.007531 -0.251788,1.422135 -0.676444,1.422135 -0.419894,0 -0.676963,-0.414604 -0.676963,-1.422135 0,-1.002771 0.257069,-1.417487 0.676963,-1.417487 z m 0,1.096058 c -0.178231,-0.0019 -0.323128,0.143202 -0.320911,0.321429 0,0.18256 0.138348,0.326078 0.320911,0.326078 0.187854,0 0.325562,-0.143518 0.325562,-0.326078 0,-0.1778 -0.137708,-0.321429 -0.325562,-0.321429 z m 14.892631,0.147277 c 0.3556,0 0.602546,0.187939 0.602546,0.74621 0,0.523343 -0.217305,0.849043 -0.646988,0.849043 -0.484188,0 -0.6916,-0.345604 -0.706417,-1.111044 0.168011,-0.286544 0.424892,-0.484209 0.750859,-0.484209 z m 8.882144,0 c 0.3556,0 0.602546,0.187939 0.602546,0.74621 0,0.523343 -0.217569,0.849043 -0.646988,0.849043 -0.484187,0 -0.691599,-0.345604 -0.706416,-1.111044 0.16801,-0.286544 0.424892,-0.484209 0.750858,-0.484209 z m -17.677989,6.357237 c -0.795338,0 -1.264524,0.720989 -1.264524,1.852083 0,1.012558 0.306227,1.659329 1.131197,1.659329 0.592667,0 1.071769,-0.444278 1.071769,-1.199928 0,-0.72577 -0.444373,-1.06689 -0.962731,-1.067117 h -5.29e-4 c -0.335783,1.38e-4 -0.607756,0.133464 -0.820105,0.454237 0.01482,-0.829734 0.316132,-1.362708 0.839739,-1.362708 0.187855,0 0.360876,0.04922 0.518832,0.143142 l 0.162783,-0.276984 c -0.199528,-0.134911 -0.43561,-0.205429 -0.676445,-0.202054 z m 17.766873,0 c -0.795337,0 -1.264523,0.720989 -1.264523,1.852083 0,1.012558 0.306226,1.659329 1.131197,1.659329 0.592667,0 1.071769,-0.444278 1.071769,-1.199928 0,-0.726014 -0.444667,-1.067117 -0.963247,-1.067117 -0.336021,0 -0.607645,0.133297 -0.820105,0.454237 0.01482,-0.829734 0.316132,-1.362708 0.839742,-1.362708 0.187852,0 0.360609,0.04922 0.518829,0.143142 l 0.162783,-0.276984 c -0.199528,-0.134911 -0.43561,-0.205429 -0.676445,-0.202054 z m -23.991299,10e-4 -0.997358,2.325957 v 0.30644 h 1.412317 v 0.824757 h 0.399977 v -0.824793 h 0.439766 v -0.335914 h -0.439766 v -0.963247 h -0.360701 l -0.03411,0.963247 h -0.97772 l 0.903822,-2.148189 z m 17.897096,0 c -0.731306,0 -1.111044,0.627052 -1.111044,1.753383 0,1.130826 0.379738,1.758032 1.111044,1.758032 0.730779,0 1.111044,-0.626941 1.111044,-1.758032 0,-1.126067 -0.380265,-1.753383 -1.111044,-1.753383 z m 8.828918,0.0052 c -0.612531,2.2e-4 -1.101222,0.390289 -1.101222,1.120862 0,0.676804 0.409921,1.091782 0.977717,1.086755 0.317146,-0.0039 0.613082,-0.16001 0.795301,-0.419611 -0.0098,0.824969 -0.562904,1.210279 -1.471745,1.452108 l 0.0987,0.315743 c 1.269471,-0.3556 1.812293,-0.79021 1.812293,-2.24224 0,-0.809705 -0.350213,-1.313384 -1.110525,-1.313617 z m -30.562991,0.04806 v 0.345199 h 1.595768 l -1.323949,2.987932 0.385506,0.114204 1.358056,-3.126422 v -0.320913 z m 17.769458,0 v 0.345199 h 1.595769 l -1.323951,2.987932 0.385505,0.114204 1.358059,-3.126422 v -0.320913 z m -5.72058,10e-4 v 3.402893 h 0.429948 v -1.511019 h 1.333252 v -0.346231 h -1.333252 v -1.190109 h 1.526003 l 0.04961,-0.355534 z m 9.685195,0.281635 c 0.424392,0 0.676444,0.414716 0.676444,1.417487 0,1.007531 -0.251523,1.422136 -0.676444,1.422136 -0.419891,0 -0.67696,-0.414605 -0.67696,-1.422136 0,-1.002771 0.257069,-1.417487 0.67696,-1.417487 z m 8.828918,0.0052 c 0.474134,0 0.696431,0.271698 0.681614,1.081588 -0.182562,0.271724 -0.41003,0.449472 -0.730705,0.454234 -0.385233,0.0048 -0.617534,-0.217289 -0.617534,-0.735872 0,-0.523346 0.227155,-0.79995 0.666625,-0.79995 z m -8.828918,1.090888 c -0.178231,-0.0019 -0.323128,0.143202 -0.32091,0.321429 0,0.18256 0.138347,0.326078 0.32091,0.326078 0.187854,0 0.325562,-0.143518 0.325562,-0.326078 0,-0.1778 -0.137708,-0.321429 -0.325562,-0.321429 z m -11.761555,0.147278 c 0.3556,0 0.602547,0.187939 0.602547,0.746209 0,0.523344 -0.21757,0.849043 -0.646989,0.849043 -0.484187,0 -0.691599,-0.345604 -0.706416,-1.111044 0.168011,-0.286543 0.424892,-0.484208 0.750858,-0.484208 z m 17.766874,0 c 0.3556,0 0.602546,0.187939 0.602546,0.746209 0,0.523344 -0.217569,0.849043 -0.646988,0.849043 -0.484187,0 -0.691599,-0.345604 -0.706416,-1.111044 0.16801,-0.286543 0.424892,-0.484208 0.750858,-0.484208 z M 19.354893,55.2981 c -0.795073,0 -1.264523,0.72099 -1.264523,1.852084 0,1.012557 0.306491,1.659329 1.131197,1.659329 0.592667,0 1.071769,-0.444278 1.071769,-1.199928 0,-0.725771 -0.444373,-1.06689 -0.962732,-1.067118 h -5.29e-4 c -0.33578,1.38e-4 -0.607756,0.133464 -0.820105,0.454237 0.01482,-0.829733 0.316132,-1.362707 0.839743,-1.362707 0.187854,0 0.360608,0.04922 0.518829,0.143142 l 0.162782,-0.276984 C 19.831797,55.365244 19.595714,55.294725 19.35488,55.2981 Z m 26.651603,0 c -0.795337,0 -1.264523,0.72099 -1.264523,1.852084 0,1.012557 0.306226,1.659329 1.131197,1.659329 0.592667,0 1.071769,-0.444278 1.071769,-1.199928 0,-0.726014 -0.444667,-1.067118 -0.963247,-1.067118 -0.336021,0 -0.607645,0.133297 -0.820105,0.454237 0.01482,-0.829733 0.316132,-1.362707 0.839742,-1.362707 0.187852,0 0.360609,0.04922 0.518829,0.143142 l 0.162783,-0.276984 c -0.199528,-0.134911 -0.43561,-0.20543 -0.676445,-0.202055 z m -15.11174,0.001 -0.997355,2.325957 v 0.306441 h 1.412317 v 0.824756 h 0.399976 v -0.824756 h 0.43925 l 5.16e-4,-0.335897 h -0.439766 v -0.963247 h -0.360701 l -0.03411,0.963247 h -0.97823 l 0.903819,-2.148189 z m 8.86406,0 c -0.459581,0 -0.770713,0.162893 -1.037148,0.48886 l 0.28629,0.222208 c 0.21722,-0.251884 0.400227,-0.360701 0.731221,-0.360701 0.380206,0 0.611849,0.232677 0.611849,0.612883 0,0.552979 -0.27609,0.928489 -1.560113,2.158008 v 0.335896 h 2.024684 l 0.04961,-0.355533 H 39.26479 c 1.121037,-1.02235 1.521354,-1.526284 1.521354,-2.153875 0,-0.53816 -0.385186,-0.947746 -1.027328,-0.947746 z m -18.495512,0.05271 v 1.699123 h 0.336412 c 0.197379,-0.06906 0.330237,-0.113689 0.527616,-0.113689 0.345811,0 0.617535,0.1826 0.617535,0.726054 0,0.528373 -0.266708,0.805119 -0.716235,0.805119 -0.291306,0 -0.523272,-0.103802 -0.730705,-0.316259 l -0.256834,0.252179 c 0.261938,0.251884 0.5777,0.404628 0.987539,0.404628 0.701143,0 1.15135,-0.449115 1.15135,-1.130681 0,-0.681567 -0.375787,-1.067118 -0.933794,-1.067118 -0.202406,0 -0.380502,0.03454 -0.582908,0.14831 v -1.071769 h 1.343585 l 0.05943,-0.335897 z m 5.799645,5.03e-4 v 0.345199 h 1.595768 l -1.323951,2.987932 0.385509,0.114205 1.358056,-3.126423 v -0.320913 z m 8.884729,0 v 0.345199 h 1.595769 l -1.323951,2.987932 0.385505,0.114205 1.358059,-3.126423 v -0.320913 z m 11.972396,0.03566 v 3.402894 h 0.429432 v -1.511536 h 1.333767 v -0.345715 h -1.333767 l 5.29e-4,-1.190096 h 1.525487 l 0.04961,-0.355534 z m -28.654065,1.490348 c 0.3556,0 0.602546,0.187938 0.602546,0.746209 0,0.523343 -0.217305,0.849043 -0.646988,0.849043 -0.484187,0 -0.6916,-0.345604 -0.706416,-1.111044 0.16801,-0.286543 0.424891,-0.484208 0.750858,-0.484208 z m 26.651603,0 c 0.3556,0 0.602546,0.187938 0.602546,0.746209 0,0.523343 -0.217569,0.849043 -0.646988,0.849043 -0.484187,0 -0.691599,-0.345604 -0.706416,-1.111044 0.16801,-0.286543 0.424892,-0.484208 0.750858,-0.484208 z"
     id="path18197"
     style="opacity:0.5;fill:#393634;fill-opacity:1;stroke-width:0.264583" />
</svg>
