<?xml version="1.0" encoding="UTF-8" standalone="no"?>
<!-- Created with Inkscape (http://www.inkscape.org/) -->

<svg
   width="256"
   height="256"
   viewBox="0 0 67.733332 67.733336"
   version="1.1"
   id="svg1099"
   inkscape:version="1.2 (dc2aedaf03, 2022-05-15)"
   sodipodi:docname="application-mspowerpoint.svg"
   xmlns:inkscape="http://www.inkscape.org/namespaces/inkscape"
   xmlns:sodipodi="http://sodipodi.sourceforge.net/DTD/sodipodi-0.dtd"
   xmlns="http://www.w3.org/2000/svg"
   xmlns:svg="http://www.w3.org/2000/svg">
  <sodipodi:namedview
     id="namedview1101"
     pagecolor="#ffffff"
     bordercolor="#666666"
     borderopacity="1.0"
     inkscape:pageshadow="2"
     inkscape:pageopacity="0.0"
     inkscape:pagecheckerboard="0"
     inkscape:document-units="px"
     showgrid="false"
     units="px"
     inkscape:zoom="3.2421875"
     inkscape:cx="126.76627"
     inkscape:cy="210.19759"
     inkscape:window-width="1846"
     inkscape:window-height="1016"
     inkscape:window-x="0"
     inkscape:window-y="0"
     inkscape:window-maximized="1"
     inkscape:current-layer="svg1099"
     inkscape:showpageshadow="2"
     inkscape:deskcolor="#d1d1d1"
     showguides="false" />
  <defs
     id="defs1096" />
  <path
     d="m 12.567715,3.9687559 c -1.243219,-0.0028 -2.251747,1.00574 -2.248959,2.248958 V 62.838549 c 0,1.245923 1.003036,2.248959 2.248959,2.248959 h 42.597917 c 1.245923,0 2.248959,-1.003036 2.248959,-2.248959 V 20.917965 L 40.362988,3.9700789 Z"
     style="fill:#671d00;stroke-width:0.264583;fill-opacity:1"
     id="path4923" />
  <path
     d="m 57.150001,21.166668 v 40.216667 c 0,1.172634 -0.944034,2.116667 -2.116667,2.116667 H 12.7 c -1.172634,0 -2.116667,-0.944033 -2.116667,-2.116667 V 6.3500002 c 0,-1.1726334 0.944033,-2.1166668 2.116667,-2.1166668 h 27.516667"
     style="fill:#cf3b00;stroke-width:0.264583;fill-opacity:1"
     id="path5075" />
  <circle
     style="opacity:0.3;fill:#ffffff;stroke-width:11.2889;stroke-linejoin:bevel"
     id="path31463"
     cx="37.041668"
     cy="42.862499"
     r="16.933331" />
  <path
     id="path31465"
     style="opacity:0.7;fill:#ffffff;stroke-width:8.46664;stroke-linejoin:bevel"
     d="M 20.108334,42.862499 A 16.933331,16.933331 0 0 0 37.041664,59.795833 16.933331,16.933331 0 0 0 53.974999,42.862499 H 37.041664 Z" />
  <path
     id="path31759"
     style="opacity:0.5;fill:#ffffff;stroke-width:8.46664;stroke-linejoin:bevel"
     d="m 37.041664,25.929167 a 16.93333,16.933331 0 0 0 -16.93333,16.933332 h 16.93333 z" />
  <rect
     style="fill:#cf3b00;fill-opacity:1;stroke-width:0.529166"
     id="rect3242"
     width="21.166666"
     height="21.166666"
     x="15.081249"
     y="32.543751"
     ry="2.3812499" />
  <rect
     style="fill:#ffffff;stroke-width:0.529166"
     id="rect2687"
     width="20.637499"
     height="20.637499"
     x="15.345833"
     y="32.808334"
     ry="2.1166666" />
  <path
     id="rect4291"
     style="fill:#cf3b00;fill-opacity:1;stroke-width:1.05833"
     d="m 21.695828,36.512497 v 12.699995 h 2.116668 V 44.97916 h 2.116666 a 4.2333329,4.2333329 0 0 0 4.233332,-4.233329 4.2333329,4.2333329 0 0 0 -4.233332,-4.233334 h -2.116666 z m 2.116668,2.116666 h 2.116666 a 2.1166663,2.1166663 0 0 1 2.116666,2.116668 2.1166663,2.1166663 0 0 1 -2.116666,2.116663 h -2.116666 z" />
  <path
     d="m 57.150001,22.754168 h -15.08125 c -1.172633,0 -2.116667,-0.944034 -2.116667,-2.116667 V 4.233334 h 0.264584 l 16.933333,16.933334 z"
     style="fill:#671d00;fill-opacity:1;stroke-width:0.264583;opacity:0.5"
     id="path5133" />
  <path
     d="M 57.150001,21.166668 H 42.333334 c -1.172633,0 -2.116667,-0.944033 -2.116667,-2.116667 V 4.2333344"
     style="fill:#f15d22;stroke-width:0.264583;fill-opacity:1"
     id="path5887" />
</svg>
