<?xml version="1.0" encoding="UTF-8" standalone="no"?>
<!-- Created with Inkscape (http://www.inkscape.org/) -->

<svg
   width="256"
   height="256"
   viewBox="0 0 67.733332 67.733336"
   version="1.1"
   id="svg1099"
   inkscape:version="1.2 (dc2aedaf03, 2022-05-15)"
   sodipodi:docname="application-x-tar.svg"
   xmlns:inkscape="http://www.inkscape.org/namespaces/inkscape"
   xmlns:sodipodi="http://sodipodi.sourceforge.net/DTD/sodipodi-0.dtd"
   xmlns="http://www.w3.org/2000/svg"
   xmlns:svg="http://www.w3.org/2000/svg">
  <sodipodi:namedview
     id="namedview1101"
     pagecolor="#ffffff"
     bordercolor="#666666"
     borderopacity="1.0"
     inkscape:pageshadow="2"
     inkscape:pageopacity="0.0"
     inkscape:pagecheckerboard="0"
     inkscape:document-units="px"
     showgrid="false"
     units="px"
     inkscape:zoom="1.5799417"
     inkscape:cx="117.09293"
     inkscape:cy="57.280595"
     inkscape:window-width="1846"
     inkscape:window-height="1016"
     inkscape:window-x="0"
     inkscape:window-y="0"
     inkscape:window-maximized="1"
     inkscape:current-layer="svg1099"
     inkscape:showpageshadow="2"
     inkscape:deskcolor="#d1d1d1" />
  <defs
     id="defs1096" />
  <rect
     style="opacity:1;fill:#a19282;fill-opacity:1;stroke-width:0.529167;stroke-linecap:round"
     id="rect934"
     width="57.150002"
     height="55.033333"
     x="5.2916665"
     y="6.3499999"
     ry="2.1166668" />
  <path
     d="m 10.748698,45.026792 -0.330729,0.412882 10.286193,8.228965 -10.256737,6.154156 0.271817,0.454236 10.520805,-6.312297 H 46.493288 L 57.014093,60.277031 57.28591,59.822795 47.029173,53.668639 57.315366,45.439674 56.984637,45.026792 46.473651,53.435568 H 21.259684 Z"
     style="color:#000000;opacity:0.25;fill:#000000;fill-opacity:1;stroke-width:0.264583;-inkscape-stroke:none"
     id="path1648" />
  <rect
     style="opacity:1;fill:#d7c3ad;fill-opacity:1;stroke-width:0.529167;stroke-linecap:round"
     id="rect1192"
     width="56.620834"
     height="37.041668"
     x="5.5562501"
     y="6.6145835"
     ry="1.8520833" />
  <path
     d="m 28.310417,31.750001 h 2.116666 v -4.233334 h 4.233334 v 4.233334 h 2.116666 v -8.466668 c 0,-2.338005 -1.895328,-4.233333 -4.233334,-4.233333 -2.338004,0 -4.233332,1.895328 -4.233332,4.233333 z m 2.116666,-6.350002 v -2.116666 c 0,-1.169002 0.947664,-2.116666 2.116666,-2.116666 1.169004,0 2.116668,0.947664 2.116668,2.116666 v 2.116666 z m 8.466668,6.350002 h 2.116665 v -4.233334 h 2.116666 l 2.116668,4.233334 h 2.116666 l -1.959504,-4.899026 c 1.219538,-0.776576 1.958416,-2.12184 1.959504,-3.567642 0,-2.338005 -1.895328,-4.233333 -4.233334,-4.233333 h -4.233331 m 2.116665,6.349999 v -4.233332 h 2.116666 c 1.169004,0 2.116668,0.947664 2.116668,2.116666 0,1.169002 -0.947664,2.116666 -2.116668,2.116666 z M 21.43125,19.05 v 2.116667 h 2.116668 v 10.583334 h 2.116666 V 21.166667 h 2.116665 V 19.05 Z"
     id="path1753"
     style="fill:#635749;fill-opacity:1;stroke-width:0.529166" />
</svg>
