<?xml version="1.0" encoding="UTF-8" standalone="no"?>
<!-- Created with Inkscape (http://www.inkscape.org/) -->

<svg
   width="256"
   height="256"
   viewBox="0 0 67.733332 67.733336"
   version="1.1"
   id="svg1099"
   inkscape:version="1.2 (dc2aedaf03, 2022-05-15)"
   sodipodi:docname="application-x-theme.svg"
   xmlns:inkscape="http://www.inkscape.org/namespaces/inkscape"
   xmlns:sodipodi="http://sodipodi.sourceforge.net/DTD/sodipodi-0.dtd"
   xmlns="http://www.w3.org/2000/svg"
   xmlns:svg="http://www.w3.org/2000/svg">
  <sodipodi:namedview
     id="namedview1101"
     pagecolor="#ffffff"
     bordercolor="#666666"
     borderopacity="1.0"
     inkscape:pageshadow="2"
     inkscape:pageopacity="0.0"
     inkscape:pagecheckerboard="0"
     inkscape:document-units="px"
     showgrid="false"
     units="px"
     inkscape:zoom="2.2925728"
     inkscape:cx="63.902006"
     inkscape:cy="171.85932"
     inkscape:window-width="1920"
     inkscape:window-height="1011"
     inkscape:window-x="0"
     inkscape:window-y="0"
     inkscape:window-maximized="1"
     inkscape:current-layer="svg1099"
     inkscape:showpageshadow="2"
     inkscape:deskcolor="#d1d1d1"
     showguides="false" />
  <defs
     id="defs1096" />
  <path
     d="m 12.567715,3.9687559 c -1.243219,-0.0028 -2.251747,1.00574 -2.248959,2.248958 V 62.838549 c 0,1.245923 1.003036,2.248959 2.248959,2.248959 h 42.597917 c 1.245923,0 2.248959,-1.003036 2.248959,-2.248959 V 20.917965 L 40.362988,3.9700789 Z"
     style="fill:#552d5d;stroke-width:0.264583;fill-opacity:1"
     id="path4923" />
  <path
     d="m 57.150001,21.166668 v 40.216667 c 0,1.172634 -0.944034,2.116667 -2.116667,2.116667 H 12.7 c -1.172634,0 -2.116667,-0.944033 -2.116667,-2.116667 V 6.3500002 c 0,-1.1726334 0.944033,-2.1166668 2.116667,-2.1166668 h 27.516667"
     style="fill:#aa5abb;stroke-width:0.264583;fill-opacity:1"
     id="path5075" />
  <path
     d="m 44.799877,31.760986 c -1.753,-0.220978 -6.32589,2.913516 -10.832698,7.422097 -2.009766,2.010988 -3.753993,3.99827 -5.089901,5.872722 1.565704,0.498838 2.827563,1.759856 3.326139,3.326138 1.873734,-1.336298 3.865526,-3.072926 5.875968,-5.083408 5.113142,-5.115274 8.337066,-10.182713 7.20122,-11.319923 -0.11676,-0.11758 -0.276036,-0.19138 -0.480724,-0.217628 z M 28.045744,47.267817 v 0.0034 c -5.820432,1.560284 -1.455432,5.246024 -5.820744,7.763084 5.820428,0 8.731114,-2.913404 8.731114,-4.856036 0,-0.968372 0.09872,-2.74922 -2.91037,-2.91037 z"
     style="color:#444444;fill:#ffffff;stroke-width:1.66307"
     id="path347" />
  <path
     d="m 57.150001,22.754168 h -15.08125 c -1.172633,0 -2.116667,-0.944034 -2.116667,-2.116667 V 4.233334 h 0.264584 l 16.933333,16.933334 z"
     style="fill:#552d5d;fill-opacity:1;stroke-width:0.264583;opacity:0.5"
     id="path5133" />
  <path
     d="M 57.150001,21.166668 H 42.333334 c -1.172633,0 -2.116667,-0.944033 -2.116667,-2.116667 V 4.2333344"
     style="fill:#bb7bc9;stroke-width:0.264583;fill-opacity:1"
     id="path5887" />
</svg>
