<?xml version="1.0" encoding="UTF-8" standalone="no"?>
<!-- Created with Inkscape (http://www.inkscape.org/) -->

<svg
   width="256"
   height="256"
   viewBox="0 0 67.733332 67.733336"
   version="1.1"
   id="svg1099"
   inkscape:version="1.2 (dc2aedaf03, 2022-05-15)"
   sodipodi:docname="application-x-hwp.svg"
   xmlns:inkscape="http://www.inkscape.org/namespaces/inkscape"
   xmlns:sodipodi="http://sodipodi.sourceforge.net/DTD/sodipodi-0.dtd"
   xmlns="http://www.w3.org/2000/svg"
   xmlns:svg="http://www.w3.org/2000/svg">
  <sodipodi:namedview
     id="namedview1101"
     pagecolor="#ffffff"
     bordercolor="#666666"
     borderopacity="1.0"
     inkscape:pageshadow="2"
     inkscape:pageopacity="0.0"
     inkscape:pagecheckerboard="0"
     inkscape:document-units="px"
     showgrid="false"
     units="px"
     inkscape:zoom="2.2925728"
     inkscape:cx="63.247719"
     inkscape:cy="140.88975"
     inkscape:window-width="1846"
     inkscape:window-height="1011"
     inkscape:window-x="0"
     inkscape:window-y="0"
     inkscape:window-maximized="1"
     inkscape:current-layer="svg1099"
     inkscape:showpageshadow="2"
     inkscape:deskcolor="#d1d1d1"
     showguides="false" />
  <defs
     id="defs1096" />
  <path
     d="m 12.567715,3.9687559 c -1.243219,-0.0028 -2.251747,1.00574 -2.248959,2.248958 V 62.838549 c 0,1.245923 1.003036,2.248959 2.248959,2.248959 h 42.597917 c 1.245923,0 2.248959,-1.003036 2.248959,-2.248959 V 20.917965 L 40.362988,3.9700789 Z"
     style="fill:#245c63;stroke-width:0.264583;fill-opacity:1"
     id="path4923" />
  <path
     d="m 57.150001,21.166668 v 40.216667 c 0,1.172634 -0.944034,2.116667 -2.116667,2.116667 H 12.7 c -1.172634,0 -2.116667,-0.944033 -2.116667,-2.116667 V 6.3500002 c 0,-1.1726334 0.944033,-2.1166668 2.116667,-2.1166668 h 27.516667"
     style="fill:#48b9c7;stroke-width:0.264583;fill-opacity:1"
     id="path5075" />
  <path
     d="m 57.150001,22.754168 h -15.08125 c -1.172633,0 -2.116667,-0.944034 -2.116667,-2.116667 V 4.233334 h 0.264584 l 16.933333,16.933334 z"
     style="fill:#245c63;fill-opacity:1;stroke-width:0.264583;opacity:0.5"
     id="path5133" />
  <path
     d="M 57.150001,21.166668 H 42.333334 c -1.172633,0 -2.116667,-0.944033 -2.116667,-2.116667 V 4.2333344"
     style="fill:#67d8e6;stroke-width:0.264583;fill-opacity:1"
     id="path5887" />
  <path
     id="path646"
     style="fill:#ffffff;stroke-width:1.76389;stroke-linejoin:round"
     d="m 32.279166,22.754167 v 3.175 h -9.524999 v 3.174999 h 22.224998 v -3.174999 h -9.524999 v -3.175 z m 1.5875,9.524999 a 7.937499,7.937499 0 0 0 -7.937499,7.937499 7.937499,7.937499 0 0 0 7.937499,7.937504 7.937499,7.937499 0 0 0 7.937503,-7.937504 7.937499,7.937499 0 0 0 -7.937503,-7.937499 z m 0,3.175 a 4.7624995,4.7624995 0 0 1 4.762499,4.762499 4.7624995,4.7624995 0 0 1 -4.762499,4.762504 4.7624995,4.7624995 0 0 1 -4.7625,-4.762504 4.7624995,4.7624995 0 0 1 4.7625,-4.762499 z m -1.5875,15.875002 v 3.175 h 3.175 v -3.175 z m -9.524999,2.116664 v 7.408335 H 44.979165 V 57.679168 H 25.929167 v -4.233336 z" />
</svg>
