<?xml version="1.0" encoding="UTF-8" standalone="no"?>
<!-- Created with Inkscape (http://www.inkscape.org/) -->

<svg
   width="256"
   height="256"
   viewBox="0 0 67.733332 67.733336"
   version="1.1"
   id="svg1099"
   inkscape:version="1.2 (dc2aedaf03, 2022-05-15)"
   sodipodi:docname="application-x-ms-dos-executable.svg"
   xmlns:inkscape="http://www.inkscape.org/namespaces/inkscape"
   xmlns:sodipodi="http://sodipodi.sourceforge.net/DTD/sodipodi-0.dtd"
   xmlns="http://www.w3.org/2000/svg"
   xmlns:svg="http://www.w3.org/2000/svg">
  <sodipodi:namedview
     id="namedview1101"
     pagecolor="#ffffff"
     bordercolor="#666666"
     borderopacity="1.0"
     inkscape:pageshadow="2"
     inkscape:pageopacity="0.0"
     inkscape:pagecheckerboard="0"
     inkscape:document-units="px"
     showgrid="false"
     units="px"
     inkscape:zoom="3.1796875"
     inkscape:cx="95.606879"
     inkscape:cy="131.9312"
     inkscape:window-width="1846"
     inkscape:window-height="1011"
     inkscape:window-x="74"
     inkscape:window-y="32"
     inkscape:window-maximized="1"
     inkscape:current-layer="svg1099"
     inkscape:showpageshadow="2"
     inkscape:deskcolor="#d1d1d1"
     showguides="false" />
  <defs
     id="defs1096" />
  <rect
     style="opacity:1;fill:#48b9c7;fill-opacity:1;stroke-width:0.529167;stroke-linecap:round"
     id="rect934"
     width="55.033333"
     height="55.033333"
     x="6.3499999"
     y="6.3499999"
     ry="4.3656249" />
  <path
     id="rect1388"
     style="opacity:0.5;fill:#000000;stroke-width:0.529167;stroke-linejoin:bevel"
     d="M 10.715625 6.3500001 C 8.2970713 6.3500001 6.3500001 8.2970713 6.3500001 10.715625 L 6.3500001 57.017709 C 6.3500001 59.436263 8.2970713 61.383334 10.715625 61.383334 L 57.017709 61.383334 C 59.436263 61.383334 61.383334 59.436263 61.383334 57.017709 L 61.383334 10.715625 C 61.383334 8.2970713 59.436263 6.3500001 57.017709 6.3500001 L 10.715625 6.3500001 z M 10.847917 6.6145834 L 56.885417 6.6145834 C 59.230682 6.6145834 61.118751 8.5026523 61.118751 10.847917 L 61.118751 55.827084 C 61.118751 58.172348 59.230682 60.060417 56.885417 60.060417 L 10.847917 60.060417 C 8.5026523 60.060417 6.6145834 58.172348 6.6145834 55.827084 L 6.6145834 10.847917 C 6.6145834 8.5026523 8.5026523 6.6145834 10.847917 6.6145834 z " />
  <path
     id="rect845"
     style="opacity:0.3;fill:#000000;stroke-width:1.05833"
     d="m 23.283334,21.960417 c -0.586316,0 -1.058334,0.472016 -1.058334,1.058334 v 10.053946 h 11.112746 v -11.11228 z m 11.112254,0 v 11.11228 H 45.508334 V 23.018751 c 0,-0.586318 -0.472016,-1.058334 -1.058332,-1.058334 z M 22.225,34.131471 v 10.053952 c 0,0.586316 0.472018,1.058332 1.058334,1.058332 H 33.337746 V 34.131471 Z m 12.170588,0 v 11.112284 h 10.054414 c 0.586316,0 1.058332,-0.457564 1.058332,-1.058332 V 34.131471 Z"
     sodipodi:nodetypes="sscccscccssccsscccccsscc" />
  <path
     d="m 23.283334,21.695834 h 10.05441 v 11.11228 H 22.225 V 22.754168 c 0,-0.586318 0.472018,-1.058334 1.058334,-1.058334 z m 10.05441,12.171054 v 11.112286 h -10.05441 c -0.586316,0 -1.058334,-0.472016 -1.058334,-1.058336 v -10.05395 z m 12.17059,0 v 10.05395 c 0,0.58632 -0.455888,1.058336 -1.058332,1.058336 H 34.395588 V 33.866888 Z M 34.39559,21.695834 h 10.054412 c 0.586316,0 1.058332,0.524832 1.058332,1.058334 V 32.808114 H 34.39559 Z"
     style="fill:#ffffff;fill-opacity:1;stroke-width:0.280016"
     id="path2168"
     sodipodi:nodetypes="scccssccsscccssccccssccc" />
</svg>
