<?xml version="1.0" encoding="UTF-8" standalone="no"?>
<!-- Created with Inkscape (http://www.inkscape.org/) -->

<svg
   width="256"
   height="256"
   viewBox="0 0 67.733332 67.733336"
   version="1.1"
   id="svg1099"
   inkscape:version="1.2 (dc2aedaf03, 2022-05-15)"
   sodipodi:docname="application-photoshop.svg"
   xmlns:inkscape="http://www.inkscape.org/namespaces/inkscape"
   xmlns:sodipodi="http://sodipodi.sourceforge.net/DTD/sodipodi-0.dtd"
   xmlns="http://www.w3.org/2000/svg"
   xmlns:svg="http://www.w3.org/2000/svg">
  <sodipodi:namedview
     id="namedview1101"
     pagecolor="#ffffff"
     bordercolor="#666666"
     borderopacity="1.0"
     inkscape:pageshadow="2"
     inkscape:pageopacity="0.0"
     inkscape:pagecheckerboard="0"
     inkscape:document-units="px"
     showgrid="false"
     units="px"
     inkscape:zoom="1"
     inkscape:cx="104"
     inkscape:cy="161.5"
     inkscape:window-width="1846"
     inkscape:window-height="1011"
     inkscape:window-x="74"
     inkscape:window-y="32"
     inkscape:window-maximized="1"
     inkscape:current-layer="svg1099"
     inkscape:showpageshadow="2"
     inkscape:deskcolor="#d1d1d1" />
  <defs
     id="defs1096" />
  <rect
     style="opacity:1;fill:#245c63;fill-opacity:1;stroke-width:0.529166"
     id="rect1196"
     width="59.266666"
     height="46.566666"
     x="4.2333336"
     y="14.816667"
     ry="4.2333336" />
  <rect
     style="opacity:1;fill:#48b9c7;fill-opacity:1;stroke-width:0.529167;stroke-linecap:round;stroke-linejoin:bevel"
     id="rect16828"
     width="58.737499"
     height="44.979168"
     x="4.4979167"
     y="15.08125"
     ry="4.1010418" />
  <rect
     style="fill:#001d26;fill-opacity:1;stroke-width:1.05833"
     id="rect2612"
     width="46.566666"
     height="31.750002"
     x="10.583333"
     y="21.166666"
     ry="2.1166668" />
  <path
     d="m 27.962915,29.026909 c 2.062004,0 3.664966,0.42896 4.808854,1.286874 1.143886,0.857912 1.715834,2.129738 1.715834,3.815478 0,1.760984 -0.564412,3.093014 -1.693252,3.996086 -1.113788,0.888022 -2.611384,1.33203 -4.492782,1.33203 h -1.693262 v 5.215232 h -3.702588 v -15.6457 z m 0.0224,7.766406 c 0.87296,0 1.535216,-0.203194 1.98675,-0.609574 0.466568,-0.421424 0.69986,-1.106252 0.69986,-2.05448 0,-1.64058 -0.91812,-2.460872 -2.75436,-2.460872 h -1.309458 v 5.124926 z m 11.988296,-4.492782 c 0.857914,0 1.663154,0.12796 2.415712,0.38383 0.752558,0.255872 1.414814,0.617098 1.986762,1.08368 l -1.309458,2.009338 c -0.978328,-0.617106 -1.964178,-0.925658 -2.957552,-0.925658 -0.466588,0 -0.827816,0.08276 -1.083694,0.248352 -0.240832,0.15052 -0.361228,0.36875 -0.361228,0.654722 0,0.225754 0.05272,0.413912 0.15804,0.564424 0.1204,0.13548 0.35371,0.278432 0.699876,0.428958 0.34619,0.15052 0.880498,0.331112 1.60295,0.541846 1.24925,0.361228 2.174892,0.835334 2.776942,1.422334 0.617106,0.57194 0.925652,1.369656 0.925652,2.39313 0,0.812764 -0.233272,1.520176 -0.699888,2.122222 -0.466582,0.586992 -1.10625,1.038526 -1.91902,1.354608 -0.812764,0.316072 -1.715832,0.474106 -2.709212,0.474106 -1.008422,0 -1.949126,-0.15804 -2.822096,-0.474106 -0.857912,-0.31607 -1.587898,-0.75257 -2.189944,-1.309458 l 1.738408,-1.941606 c 1.008426,0.782668 2.069544,1.173998 3.183332,1.173998 0.54184,0 0.963268,-0.0978 1.26429,-0.293512 0.316072,-0.19568 0.474122,-0.47411 0.474122,-0.83534 0,-0.285992 -0.0602,-0.511742 -0.18064,-0.6773 -0.1204,-0.16556 -0.35371,-0.31607 -0.699876,-0.451536 -0.34615,-0.15052 -0.895534,-0.33111 -1.648096,-0.541828 -1.189046,-0.34619 -2.077064,-0.827816 -2.664054,-1.444914 -0.586996,-0.617106 -0.880496,-1.38471 -0.880496,-2.302832 0,-0.692352 0.19568,-1.309458 0.587,-1.851298 0.406376,-0.556892 0.978324,-0.993376 1.715826,-1.30945 0.752566,-0.33115 1.618004,-0.496694 2.596332,-0.496694 z"
     style="font-weight:bold;font-size:21.333px;font-family:'Fira Sans';fill:#00c8ff;fill-opacity:1;stroke-width:1.0583"
     id="path1037" />
</svg>
