<?xml version="1.0" encoding="UTF-8" standalone="no"?>
<!-- Created with Inkscape (http://www.inkscape.org/) -->

<svg
   width="256"
   height="256"
   viewBox="0 0 67.733332 67.733336"
   version="1.1"
   id="svg1099"
   inkscape:version="1.2 (dc2aedaf03, 2022-05-15)"
   sodipodi:docname="package-x-rpm.svg"
   xmlns:inkscape="http://www.inkscape.org/namespaces/inkscape"
   xmlns:sodipodi="http://sodipodi.sourceforge.net/DTD/sodipodi-0.dtd"
   xmlns="http://www.w3.org/2000/svg"
   xmlns:svg="http://www.w3.org/2000/svg">
  <sodipodi:namedview
     id="namedview1101"
     pagecolor="#ffffff"
     bordercolor="#666666"
     borderopacity="1.0"
     inkscape:pageshadow="2"
     inkscape:pageopacity="0.0"
     inkscape:pagecheckerboard="0"
     inkscape:document-units="px"
     showgrid="false"
     units="px"
     inkscape:zoom="1.5799417"
     inkscape:cx="117.09293"
     inkscape:cy="56.647659"
     inkscape:window-width="1846"
     inkscape:window-height="1016"
     inkscape:window-x="0"
     inkscape:window-y="0"
     inkscape:window-maximized="1"
     inkscape:current-layer="svg1099"
     inkscape:showpageshadow="2"
     inkscape:deskcolor="#d1d1d1" />
  <defs
     id="defs1096" />
  <rect
     style="opacity:1;fill:#a71d1d;fill-opacity:1;stroke-width:0.529167;stroke-linecap:round"
     id="rect934"
     width="57.150002"
     height="55.033333"
     x="5.2916665"
     y="6.3499999"
     ry="2.1166668" />
  <path
     d="m 10.748698,45.026792 -0.330729,0.412882 10.286193,8.228965 -10.256737,6.154156 0.271817,0.454236 10.520805,-6.312297 H 46.493288 L 57.014093,60.277031 57.28591,59.822795 47.029173,53.668639 57.315366,45.439674 56.984637,45.026792 46.473651,53.435568 H 21.259684 Z"
     style="color:#000000;opacity:0.25;fill:#000000;fill-opacity:1;stroke-width:0.264583;-inkscape-stroke:none"
     id="path1648" />
  <rect
     style="opacity:1;fill:#d67d7d;fill-opacity:1;stroke-width:0.529167;stroke-linecap:round"
     id="rect1192"
     width="56.620834"
     height="37.041668"
     x="5.5562501"
     y="6.6145835"
     ry="1.8520833" />
  <path
     d="m 38.100001,23.01875 c 0,-2.338005 -1.895327,-4.233333 -4.233333,-4.233333 h -4.233334 v 12.7 h 2.116667 v -4.233334 h 2.116667 c 2.338006,0 4.233333,-1.895327 4.233333,-4.233333 z m -2.116667,0 c 0,1.169003 -0.947663,2.116667 -2.116666,2.116667 h -2.116667 v -4.233334 h 2.116667 c 1.169003,0 2.116666,0.947664 2.116666,2.116667 z M 19.05,31.485417 h 2.116667 v -4.233334 h 2.116667 l 2.116667,4.233334 h 2.116666 l -1.959504,-4.899025 c 1.219539,-0.776576 1.958417,-2.121841 1.959504,-3.567642 0,-2.338005 -1.895328,-4.233333 -4.233333,-4.233333 H 19.05 m 2.116667,6.35 v -4.233334 h 2.116667 c 1.169003,0 2.116667,0.947664 2.116667,2.116667 0,1.169003 -0.947664,2.116667 -2.116667,2.116667 z m 19.050001,6.35 v -12.7 h 2.116666 l 3.175,8.466666 3.175001,-8.466666 h 2.116666 v 12.7 h -2.116666 v -7.408334 l -2.116667,7.408334 h -2.116667 l -2.116667,-7.408334 v 7.408334 z"
     id="path9882"
     style="stroke-width:0.264583;fill:#a21010;fill-opacity:1" />
</svg>
