<?xml version="1.0" encoding="UTF-8" standalone="no"?>
<!-- Created with Inkscape (http://www.inkscape.org/) -->

<svg
   width="256"
   height="256"
   viewBox="0 0 67.733332 67.733336"
   version="1.1"
   id="svg1099"
   inkscape:version="1.2 (dc2aedaf03, 2022-05-15)"
   sodipodi:docname="playlist.svg"
   xmlns:inkscape="http://www.inkscape.org/namespaces/inkscape"
   xmlns:sodipodi="http://sodipodi.sourceforge.net/DTD/sodipodi-0.dtd"
   xmlns="http://www.w3.org/2000/svg"
   xmlns:svg="http://www.w3.org/2000/svg">
  <sodipodi:namedview
     id="namedview1101"
     pagecolor="#ffffff"
     bordercolor="#666666"
     borderopacity="1.0"
     inkscape:pageshadow="2"
     inkscape:pageopacity="0.0"
     inkscape:pagecheckerboard="0"
     inkscape:document-units="px"
     showgrid="false"
     units="px"
     inkscape:zoom="2.2925728"
     inkscape:cx="63.247719"
     inkscape:cy="171.85932"
     inkscape:window-width="1846"
     inkscape:window-height="1011"
     inkscape:window-x="0"
     inkscape:window-y="0"
     inkscape:window-maximized="1"
     inkscape:current-layer="svg1099"
     inkscape:showpageshadow="2"
     inkscape:deskcolor="#d1d1d1"
     showguides="false" />
  <defs
     id="defs1096" />
  <path
     d="m 12.567715,3.9687559 c -1.243219,-0.0028 -2.251747,1.00574 -2.248959,2.248958 V 62.838549 c 0,1.245923 1.003036,2.248959 2.248959,2.248959 h 42.597917 c 1.245923,0 2.248959,-1.003036 2.248959,-2.248959 V 20.917965 L 40.362988,3.9700789 Z"
     style="fill:#6f6f6f;stroke-width:0.264583"
     id="path4923" />
  <path
     d="m 57.150001,21.166668 v 40.216667 c 0,1.172634 -0.944034,2.116667 -2.116667,2.116667 H 12.7 c -1.172634,0 -2.116667,-0.944033 -2.116667,-2.116667 V 6.3500002 c 0,-1.1726334 0.944033,-2.1166668 2.116667,-2.1166668 h 27.516667"
     style="fill:#ececec;stroke-width:0.264583"
     id="path5075" />
  <path
     d="m 26.458335,51.858337 h 23.283332 v 4.233332 H 26.458335 Z m -8.466668,-8.466668 h 4.233334 v 4.233334 h -4.233334 z m 0,8.466668 h 4.233334 v 4.233332 h -4.233334 z m 0,-16.933334 h 4.233334 v 4.233334 h -4.233334 z m 8.466668,8.466666 h 23.283332 v 4.233334 H 26.458335 Z m 0,-8.466666 h 23.283332 v 4.233334 H 26.458335 Z M 25.400001,9.5250033 c -1.169002,0 -2.116666,0.9476637 -2.116666,2.1166657 v 6.548438 c -0.334964,-0.12012 -0.682096,-0.19844 -1.058334,-0.19844 -2.82882,0 -4.244984,3.419916 -2.24495,5.41995 2.000036,2.000036 5.41995,0.58387 5.41995,-2.24495 v -7.408332 h 6.35 v 4.43177 c -0.334962,-0.12012 -0.682096,-0.19844 -1.058334,-0.19844 -2.828818,0 -4.244984,3.419916 -2.24495,5.41995 2.000036,2.000036 5.41995,0.58387 5.41995,-2.24495 v -9.525 c 0,-1.169002 -0.947664,-2.1166657 -2.116666,-2.1166657 z"
     style="opacity:0.7;fill:#474341;fill-opacity:1;stroke-width:0.529166"
     id="path2020" />
  <path
     d="m 57.150001,22.754168 h -15.08125 c -1.172633,0 -2.116667,-0.944034 -2.116667,-2.116667 V 4.233334 h 0.264584 l 16.933333,16.933334 z"
     style="fill:#6f6f6f;fill-opacity:1;stroke-width:0.264583;opacity:0.5"
     id="path5133" />
  <path
     d="M 57.150001,21.166668 H 42.333334 c -1.172633,0 -2.116667,-0.944033 -2.116667,-2.116667 V 4.2333344"
     style="fill:#fafafa;stroke-width:0.264583"
     id="path5887" />
</svg>
