<?xml version="1.0" encoding="UTF-8" standalone="no"?>
<!-- Created with Inkscape (http://www.inkscape.org/) -->

<svg
   width="256"
   height="256"
   viewBox="0 0 67.733332 67.733336"
   version="1.1"
   id="svg1099"
   inkscape:version="1.2 (dc2aedaf03, 2022-05-15)"
   sodipodi:docname="text-css.svg"
   xmlns:inkscape="http://www.inkscape.org/namespaces/inkscape"
   xmlns:sodipodi="http://sodipodi.sourceforge.net/DTD/sodipodi-0.dtd"
   xmlns="http://www.w3.org/2000/svg"
   xmlns:svg="http://www.w3.org/2000/svg">
  <sodipodi:namedview
     id="namedview1101"
     pagecolor="#ffffff"
     bordercolor="#666666"
     borderopacity="1.0"
     inkscape:pageshadow="2"
     inkscape:pageopacity="0.0"
     inkscape:pagecheckerboard="0"
     inkscape:document-units="px"
     showgrid="false"
     units="px"
     inkscape:zoom="4.5851456"
     inkscape:cx="95.634913"
     inkscape:cy="166.84312"
     inkscape:window-width="1920"
     inkscape:window-height="1011"
     inkscape:window-x="0"
     inkscape:window-y="0"
     inkscape:window-maximized="1"
     inkscape:current-layer="svg1099"
     inkscape:showpageshadow="2"
     inkscape:deskcolor="#d1d1d1"
     showguides="false" />
  <defs
     id="defs1096" />
  <path
     d="m 12.567715,3.9687559 c -1.243219,-0.0028 -2.251747,1.00574 -2.248959,2.248958 V 62.838549 c 0,1.245923 1.003036,2.248959 2.248959,2.248959 h 42.597917 c 1.245923,0 2.248959,-1.003036 2.248959,-2.248959 V 20.917965 L 40.362988,3.9700789 Z"
     style="fill:#6f6f6f;stroke-width:0.264583"
     id="path4923" />
  <path
     d="m 57.150001,21.166668 v 40.216667 c 0,1.172634 -0.944034,2.116667 -2.116667,2.116667 H 12.7 c -1.172634,0 -2.116667,-0.944033 -2.116667,-2.116667 V 6.3500002 c 0,-1.1726334 0.944033,-2.1166668 2.116667,-2.1166668 h 27.516667"
     style="fill:#ececec;stroke-width:0.264583"
     id="path5075" />
  <path
     d="m 57.150001,22.754168 h -15.08125 c -1.172633,0 -2.116667,-0.944034 -2.116667,-2.116667 V 4.233334 h 0.264584 l 16.933333,16.933334 z"
     style="fill:#6f6f6f;fill-opacity:1;stroke-width:0.264583;opacity:0.5"
     id="path5133" />
  <path
     d="M 57.150001,21.166668 H 42.333334 c -1.172633,0 -2.116667,-0.944033 -2.116667,-2.116667 V 4.2333344"
     style="fill:#fafafa;stroke-width:0.264583"
     id="path5887" />
  <path
     d="m 28.967705,39.262847 c -1.119661,0.315806 -1.917597,0.817853 -2.39417,1.506881 -0.470831,0.683287 -0.706419,1.516195 -0.706419,2.498037 v 1.774058 c 0,0.648838 -0.146412,1.151414 -0.439248,1.507411 -0.292833,0.350255 -0.743736,0.525039 -1.352373,0.525039 v 1.266058 c 0.608637,0 1.05954,0.180869 1.352373,0.542607 0.292836,0.355997 0.439248,0.85553 0.439248,1.498627 v 1.765776 c 0,0.976127 0.235588,1.809009 0.706419,2.498037 0.476573,0.689002 1.274509,1.191075 2.39417,1.506882 0.07297,-0.350086 0.301778,-0.660925 0.344679,-1.015952 -0.631601,-0.206688 -1.082504,-0.568453 -1.352371,-1.08521 -0.264123,-0.511043 -0.396359,-1.145832 -0.396359,-1.903757 v -1.765776 c 0,-0.591423 -0.120576,-1.11678 -0.361733,-1.57615 -0.24116,-0.465084 -0.605417,-0.829336 -1.093476,-1.09347 0.488059,-0.258392 0.852316,-0.61759 1.093476,-1.076933 0.241157,-0.459343 0.361733,-0.990283 0.361733,-1.593189 v -1.774058 c 0,-0.757899 0.132236,-1.395253 0.396359,-1.912011 0.269867,-0.522499 0.72077,-0.884238 1.352373,-1.085215 z m 9.741522,0 -0.344681,1.007692 c 0.62012,0.200977 1.065454,0.562716 1.335321,1.085215 0.269867,0.516758 0.404624,1.154112 0.404624,1.912011 v 1.774058 c 0,0.625872 0.129191,1.168453 0.387575,1.627823 0.258382,0.459343 0.657609,0.806899 1.197343,1.042299 -0.539734,0.246909 -0.938961,0.600022 -1.197343,1.059366 -0.258384,0.459369 -0.387575,0.995865 -0.387575,1.610254 v 1.765776 c 0,0.757925 -0.134757,1.392714 -0.404624,1.903757 -0.269867,0.516757 -0.715201,0.878522 -1.335321,1.085215 l 0.344681,1.015947 c 1.11392,-0.315807 1.906286,-0.81788 2.377117,-1.506882 0.476573,-0.689028 0.714685,-1.52191 0.714685,-2.498037 v -1.765776 c 0,-0.643097 0.146415,-1.14263 0.439251,-1.498627 0.292833,-0.361738 0.746778,-0.542607 1.361157,-0.542607 v -1.266058 c -0.614379,0 -1.068324,-0.174784 -1.361157,-0.525039 -0.292836,-0.355997 -0.439251,-0.858573 -0.439251,-1.507411 v -1.774058 c 0,-0.981842 -0.238112,-1.81475 -0.714685,-2.498037 -0.470831,-0.689028 -1.263197,-1.191075 -2.377117,-1.506881 z"
     style="fill:#6f6f6f;fill-opacity:1;stroke-width:0.264583;opacity:0.7"
     id="path7971"
     sodipodi:nodetypes="ccssccccssccccssccsssccccccssscsssccccssccccsscc" />
</svg>
