<?xml version="1.0" encoding="UTF-8" standalone="no"?>
<!-- Created with Inkscape (http://www.inkscape.org/) -->

<svg
   width="256"
   height="256"
   viewBox="0 0 67.733332 67.733336"
   version="1.1"
   id="svg1099"
   inkscape:version="1.2 (dc2aedaf03, 2022-05-15)"
   sodipodi:docname="text-x-c.svg"
   xmlns:inkscape="http://www.inkscape.org/namespaces/inkscape"
   xmlns:sodipodi="http://sodipodi.sourceforge.net/DTD/sodipodi-0.dtd"
   xmlns="http://www.w3.org/2000/svg"
   xmlns:svg="http://www.w3.org/2000/svg">
  <sodipodi:namedview
     id="namedview1101"
     pagecolor="#ffffff"
     bordercolor="#666666"
     borderopacity="1.0"
     inkscape:pageshadow="2"
     inkscape:pageopacity="0.0"
     inkscape:pagecheckerboard="0"
     inkscape:document-units="px"
     showgrid="false"
     units="px"
     inkscape:zoom="2.2925728"
     inkscape:cx="63.247719"
     inkscape:cy="171.85932"
     inkscape:window-width="1846"
     inkscape:window-height="1011"
     inkscape:window-x="0"
     inkscape:window-y="0"
     inkscape:window-maximized="1"
     inkscape:current-layer="svg1099"
     inkscape:showpageshadow="2"
     inkscape:deskcolor="#d1d1d1"
     showguides="false" />
  <defs
     id="defs1096" />
  <path
     d="m 12.567715,3.9687559 c -1.243219,-0.0028 -2.251747,1.00574 -2.248959,2.248958 V 62.838549 c 0,1.245923 1.003036,2.248959 2.248959,2.248959 h 42.597917 c 1.245923,0 2.248959,-1.003036 2.248959,-2.248959 V 20.917965 L 40.362988,3.9700789 Z"
     style="fill:#6f6f6f;stroke-width:0.264583"
     id="path4923" />
  <path
     d="m 57.150001,21.166668 v 40.216667 c 0,1.172634 -0.944034,2.116667 -2.116667,2.116667 H 12.7 c -1.172634,0 -2.116667,-0.944033 -2.116667,-2.116667 V 6.3500002 c 0,-1.1726334 0.944033,-2.1166668 2.116667,-2.1166668 h 27.516667"
     style="fill:#ececec;stroke-width:0.264583"
     id="path5075" />
  <path
     d="m 45.825834,48.053096 c -0.09242,2.006246 -0.633412,3.781602 -1.622954,5.326062 -0.989894,1.53035 -2.382308,2.7178 -4.177242,3.56235 -1.781528,0.84455 -3.820406,1.266826 -6.116636,1.266826 -3.787422,0 -6.769806,-1.233662 -8.94715,-3.700992 -2.177346,-2.468386 -3.266018,-5.952596 -3.266018,-10.45263 v -1.425574 c 0,-2.823986 0.488246,-5.291666 1.464734,-7.403042 0.989894,-2.124428 2.40859,-3.760788 4.256088,-4.90908 1.847496,-1.161344 3.98533,-1.742016 6.4135,-1.742016 3.497086,0 6.30802,0.92375 8.4328,2.771246 2.12478,1.834444 3.332338,4.368094 3.622674,7.60095 h -6.928378 c -0.05292,-1.754716 -0.494948,-3.014838 -1.326092,-3.780366 -0.831498,-0.765528 -2.0985,-1.148292 -3.801004,-1.148292 -1.728612,0 -2.995436,0.646818 -3.800476,1.940454 -0.805038,1.29293 -1.227314,3.358092 -1.266824,6.195484 v 2.038878 c 0,3.074812 0.382764,5.272088 1.148292,6.59183 0.778228,1.319388 2.111022,1.979082 3.998382,1.979082 1.596672,0 2.817284,-0.37606 3.661834,-1.128182 0.84455,-0.752122 1.293284,-1.946628 1.3462,-3.583518 z"
     style="fill:#3f51b5;stroke-width:0.529166"
     id="path7768" />
  <path
     d="m 57.150001,22.754168 h -15.08125 c -1.172633,0 -2.116667,-0.944034 -2.116667,-2.116667 V 4.233334 h 0.264584 l 16.933333,16.933334 z"
     style="fill:#6f6f6f;fill-opacity:1;stroke-width:0.264583;opacity:0.5"
     id="path5133" />
  <path
     d="M 57.150001,21.166668 H 42.333334 c -1.172633,0 -2.116667,-0.944033 -2.116667,-2.116667 V 4.2333344"
     style="fill:#fafafa;stroke-width:0.264583"
     id="path5887" />
</svg>
