<?xml version="1.0" encoding="UTF-8" standalone="no"?>
<!-- Created with Inkscape (http://www.inkscape.org/) -->

<svg
   width="256"
   height="256"
   viewBox="0 0 67.733332 67.733336"
   version="1.1"
   id="svg1099"
   inkscape:version="1.2 (dc2aedaf03, 2022-05-15)"
   sodipodi:docname="text-x-java.svg"
   xmlns:inkscape="http://www.inkscape.org/namespaces/inkscape"
   xmlns:sodipodi="http://sodipodi.sourceforge.net/DTD/sodipodi-0.dtd"
   xmlns="http://www.w3.org/2000/svg"
   xmlns:svg="http://www.w3.org/2000/svg">
  <sodipodi:namedview
     id="namedview1101"
     pagecolor="#ffffff"
     bordercolor="#666666"
     borderopacity="1.0"
     inkscape:pageshadow="2"
     inkscape:pageopacity="0.0"
     inkscape:pagecheckerboard="0"
     inkscape:document-units="px"
     showgrid="false"
     units="px"
     inkscape:zoom="1"
     inkscape:cx="64.5"
     inkscape:cy="174.5"
     inkscape:window-width="1846"
     inkscape:window-height="1011"
     inkscape:window-x="0"
     inkscape:window-y="0"
     inkscape:window-maximized="1"
     inkscape:current-layer="svg1099"
     inkscape:showpageshadow="2"
     inkscape:deskcolor="#d1d1d1"
     showguides="true" />
  <defs
     id="defs1096" />
  <path
     d="m 12.567715,3.9687559 c -1.243219,-0.0028 -2.251747,1.00574 -2.248959,2.248958 V 62.838549 c 0,1.245923 1.003036,2.248959 2.248959,2.248959 h 42.597917 c 1.245923,0 2.248959,-1.003036 2.248959,-2.248959 V 20.917965 L 40.362988,3.9700789 Z"
     style="fill:#6f6f6f;stroke-width:0.264583"
     id="path4923" />
  <path
     d="m 57.150001,21.166668 v 40.216667 c 0,1.172634 -0.944034,2.116667 -2.116667,2.116667 H 12.7 c -1.172634,0 -2.116667,-0.944033 -2.116667,-2.116667 V 6.3500002 c 0,-1.1726334 0.944033,-2.1166668 2.116667,-2.1166668 h 27.516667"
     style="fill:#ececec;stroke-width:0.264583"
     id="path5075" />
  <path
     d="m 37.255893,24.870834 c 1.418684,5.59113 -5.005771,7.280164 -7.324562,10.762053 -1.57955,2.371707 0.775382,4.920893 3.985282,7.81647 -1.251998,-2.828902 -5.495934,-5.304006 0.002,-9.646844 6.855776,-5.411743 3.337216,-8.931679 3.337216,-8.931679 z m 4.241554,6.917317 c 0,0 -11.593578,2.894731 -6.056424,9.274843 1.635113,1.881173 -0.428885,3.572851 -0.428885,3.572851 0,0 4.148209,-2.140621 2.243755,-4.822416 -1.779574,-2.50024 -3.143437,-3.742236 4.241554,-8.025278 z m 2.053628,11.396626 c -0.407351,7.94e-4 -0.839888,0.07148 -1.283644,0.22738 -0.355597,0.125939 -0.542602,0.419627 -0.542602,0.419627 0,0 0.224946,-0.09054 0.726592,-0.195319 2.050504,-0.427034 4.988891,2.745136 -1.365293,6.046052 -0.02964,0.07884 -0.127159,0.166419 -0.127159,0.166419 7.556598,-1.986476 5.909105,-6.670251 2.592104,-6.664165 z m -13.615616,0.322471 c -0.497676,-0.0116 -2.648141,0.0198 -5.219289,1.26401 -3.476596,1.680621 8.596034,2.447165 14.847558,0.803058 0.649813,-0.443439 1.548224,-0.828882 1.548224,-0.828882 0,0 -2.557178,0.456933 -5.104566,0.670715 -3.117825,0.261406 -6.46303,0.313794 -8.142063,0.0889 -3.972634,-0.531015 2.172847,-1.992244 2.178667,-1.993672 0,0 -0.03742,-0.0024 -0.108539,-0.0042 z m -1.323912,3.845742 c -5.734004,1.903397 3.192279,4.062907 11.207503,1.718718 -0.851953,-0.300034 -1.393233,-0.848511 -1.393233,-0.848511 -3.918447,0.754056 -6.181463,0.729398 -9.048466,0.433066 -2.21666,-0.229128 -0.765804,-1.303273 -0.765804,-1.303273 z m 0.811312,3.707258 c -5.206959,1.455197 3.167355,4.460047 9.79776,1.619501 -1.085841,-0.421742 -1.864451,-0.908464 -1.864451,-0.908464 -2.956431,0.558265 -4.32802,0.603033 -7.011403,0.296647 -2.215072,-0.253998 -0.921906,-1.007684 -0.921906,-1.007684 z m -3.617354,2.457695 c -2.338423,0.07218 -6.911709,2.174911 -2.729526,2.853561 13.513381,2.190205 24.633941,-0.985246 21.135488,-2.567283 0.0068,0.0056 0.948473,0.789879 -1.056259,1.398364 -3.825846,1.158865 -15.927844,1.508588 -19.288555,0.04652 -1.207549,-0.525988 1.058167,-1.254698 1.77042,-1.408685 0.742944,-0.160859 1.16786,-0.131279 1.16786,-0.131279 -0.210024,-0.147839 -0.566361,-0.204574 -0.999428,-0.191178 z M 46.355,55.528125 c 0,0 -0.425658,1.093779 -5.039426,1.961606 -5.20537,0.980008 -11.626757,0.865339 -15.433553,0.236694 0,0 0.77988,0.646107 4.787228,0.904339 v -0.0011 C 36.767316,59.020227 46.13381,58.41312 46.355,55.528125 Z"
     style="fill:#dd4f37;fill-opacity:1;stroke-width:0.529162"
     id="path11139" />
  <path
     d="m 57.150001,22.754168 h -15.08125 c -1.172633,0 -2.116667,-0.944034 -2.116667,-2.116667 V 4.233334 h 0.264584 l 16.933333,16.933334 z"
     style="fill:#6f6f6f;fill-opacity:1;stroke-width:0.264583;opacity:0.5"
     id="path5133" />
  <path
     d="M 57.150001,21.166668 H 42.333334 c -1.172633,0 -2.116667,-0.944033 -2.116667,-2.116667 V 4.2333344"
     style="fill:#fafafa;stroke-width:0.264583"
     id="path5887" />
</svg>
