<?xml version="1.0" encoding="UTF-8" standalone="no"?>
<!-- Created with Inkscape (http://www.inkscape.org/) -->

<svg
   width="256"
   height="256"
   viewBox="0 0 67.733332 67.733336"
   version="1.1"
   id="svg1099"
   inkscape:version="1.2 (dc2aedaf03, 2022-05-15)"
   sodipodi:docname="unknown.svg"
   xmlns:inkscape="http://www.inkscape.org/namespaces/inkscape"
   xmlns:sodipodi="http://sodipodi.sourceforge.net/DTD/sodipodi-0.dtd"
   xmlns="http://www.w3.org/2000/svg"
   xmlns:svg="http://www.w3.org/2000/svg">
  <sodipodi:namedview
     id="namedview1101"
     pagecolor="#ffffff"
     bordercolor="#666666"
     borderopacity="1.0"
     inkscape:pageshadow="2"
     inkscape:pageopacity="0.0"
     inkscape:pagecheckerboard="0"
     inkscape:document-units="px"
     showgrid="false"
     units="px"
     inkscape:zoom="2.2925728"
     inkscape:cx="62.811528"
     inkscape:cy="172.51361"
     inkscape:window-width="1846"
     inkscape:window-height="1016"
     inkscape:window-x="0"
     inkscape:window-y="0"
     inkscape:window-maximized="1"
     inkscape:current-layer="svg1099"
     inkscape:showpageshadow="2"
     inkscape:deskcolor="#d1d1d1"
     showguides="false" />
  <defs
     id="defs1096" />
  <path
     d="m 12.567715,3.9687559 c -1.243219,-0.0028 -2.251747,1.00574 -2.248959,2.248958 V 62.838549 c 0,1.245923 1.003036,2.248959 2.248959,2.248959 h 42.597917 c 1.245923,0 2.248959,-1.003036 2.248959,-2.248959 V 20.917965 L 40.362988,3.9700789 Z"
     style="fill:#373737;stroke-width:0.264583;fill-opacity:1"
     id="path4923" />
  <path
     d="m 57.150001,21.166668 v 40.216667 c 0,1.172634 -0.944034,2.116667 -2.116667,2.116667 H 12.7 c -1.172634,0 -2.116667,-0.944033 -2.116667,-2.116667 V 6.3500002 c 0,-1.1726334 0.944033,-2.1166668 2.116667,-2.1166668 h 27.516667"
     style="fill:#6f6f6f;stroke-width:0.264583;fill-opacity:1"
     id="path5075" />
  <path
     d="m 35.983333,57.94375 h -4.233331 v -4.233334 h 4.233331 z m 4.3815,-14.287499 -1.905,1.947332 c -1.524,1.545168 -2.4765,2.815168 -2.4765,5.990168 h -4.233331 v -1.058334 c 0,-2.328334 0.9525,-4.445 2.476499,-5.990166 l 2.624666,-2.667 c 0.803984,-0.784178 1.254748,-1.86143 1.248834,-2.9845 0,-2.328333 -1.905,-4.233333 -4.233334,-4.233333 -2.328333,0 -4.233331,1.905 -4.233331,4.233333 h -4.233332 c 0,-4.677833 3.788832,-8.466667 8.466663,-8.466667 4.677834,0 8.466666,3.788834 8.466666,8.466667 0,1.862666 -0.762,3.556 -1.9685,4.7625 z"
     style="opacity:0.2;fill:#000000;stroke-width:0.529166"
     id="path38612" />
  <path
     d="m 35.983336,57.679167 h -4.233331 v -4.233334 h 4.233331 z m 4.3815,-14.287499 -1.905,1.947332 c -1.524,1.545168 -2.4765,2.815168 -2.4765,5.990168 h -4.233331 v -1.058334 c 0,-2.328334 0.9525,-4.445 2.476499,-5.990166 l 2.624666,-2.667 c 0.803984,-0.784178 1.254748,-1.86143 1.248834,-2.9845 0,-2.328333 -1.905,-4.233333 -4.233334,-4.233333 -2.328333,0 -4.233333,1.905 -4.233333,4.233333 h -4.233332 c 0,-4.677833 3.788832,-8.466667 8.466665,-8.466667 4.677834,0 8.466666,3.788834 8.466666,8.466667 0,1.862666 -0.762,3.556 -1.9685,4.7625 z"
     style="fill:#ffffff;stroke-width:0.529166"
     id="path1949"
     sodipodi:nodetypes="cccccccccscccsccssc" />
  <path
     d="m 57.150001,22.754168 h -15.08125 c -1.172633,0 -2.116667,-0.944034 -2.116667,-2.116667 V 4.233334 h 0.264584 l 16.933333,16.933334 z"
     style="fill:#373737;fill-opacity:1;stroke-width:0.264583;opacity:0.5"
     id="path5133" />
  <path
     d="M 57.150001,21.166668 H 42.333334 c -1.172633,0 -2.116667,-0.944033 -2.116667,-2.116667 V 4.2333344"
     style="fill:#b2b2b2;stroke-width:0.264583;fill-opacity:1"
     id="path5887" />
</svg>
