<?xml version="1.0" encoding="UTF-8" standalone="no"?>
<!-- Created with Inkscape (http://www.inkscape.org/) -->

<svg
   width="256"
   height="256"
   viewBox="0 0 67.733332 67.733332"
   version="1.1"
   id="svg5"
   inkscape:version="1.2 (dc2aedaf03, 2022-05-15)"
   sodipodi:docname="video-x-generic.svg"
   xmlns:inkscape="http://www.inkscape.org/namespaces/inkscape"
   xmlns:sodipodi="http://sodipodi.sourceforge.net/DTD/sodipodi-0.dtd"
   xmlns="http://www.w3.org/2000/svg"
   xmlns:svg="http://www.w3.org/2000/svg">
  <sodipodi:namedview
     id="namedview7"
     pagecolor="#ffffff"
     bordercolor="#666666"
     borderopacity="1.0"
     inkscape:pageshadow="2"
     inkscape:pageopacity="0.0"
     inkscape:pagecheckerboard="0"
     inkscape:document-units="px"
     showgrid="false"
     units="px"
     height="48px"
     inkscape:zoom="2.2483786"
     inkscape:cx="79.168162"
     inkscape:cy="96.513995"
     inkscape:window-width="1846"
     inkscape:window-height="1011"
     inkscape:window-x="0"
     inkscape:window-y="0"
     inkscape:window-maximized="1"
     inkscape:current-layer="svg5"
     inkscape:showpageshadow="2"
     inkscape:deskcolor="#d1d1d1"
     showguides="false" />
  <defs
     id="defs2" />
  <rect
     style="opacity:1;fill:#782e11;fill-opacity:1;stroke-width:0.264583"
     id="rect845"
     width="59.266666"
     height="46.566666"
     x="4.2333331"
     y="14.816667"
     ry="4.2333331" />
  <rect
     style="opacity:1;fill:#f15d22;fill-opacity:1;stroke-width:0.264583"
     id="rect1249"
     width="58.737499"
     height="44.979164"
     x="4.4979167"
     y="15.081249"
     ry="4.1010418" />
  <path
     d="m 26.458328,30.691666 c -2.922492,0 -5.291662,2.369614 -5.291662,5.291662 -7.4e-4,2.515314 1.753712,4.620356 4.106212,5.158344 -0.575706,0.574118 -0.931212,1.368932 -0.931212,2.249994 v 6.35 c 0,1.758952 1.41605,3.174999 3.175,3.174999 h 10.583338 c 1.75895,0 3.175,-1.416047 3.175,-3.174999 l 5.291661,3.174999 V 41.27499 l -5.291661,3.174998 v -1.058322 c 0,-0.881062 -0.355504,-1.675876 -0.93121,-2.249994 2.351847,-0.53829 4.106971,-2.643332 4.106209,-5.158344 0,-2.922064 -2.369597,-5.291662 -5.291675,-5.291662 -2.922668,-8.74e-4 -5.291662,2.368978 -5.291662,5.291662 -5.24e-4,1.73147 0.830548,3.268012 2.11563,4.233338 H 29.63436 c 1.285128,-0.965406 2.116152,-2.502202 2.115644,-4.233338 0,-2.922064 -2.369168,-5.291662 -5.291676,-5.291662 z m 0,3.175 c 1.168828,0 2.116676,0.948008 2.116676,2.116662 8.48e-4,1.169288 -0.947228,2.116662 -2.116676,2.116662 -1.169448,0 -2.117536,-0.94739 -2.116662,-2.116662 0,-1.16864 0.947834,-2.116662 2.116662,-2.116662 z m 12.7,0 c 1.168654,0 2.116676,0.948008 2.116676,2.116662 9.34e-4,1.169272 -0.947386,2.116662 -2.116676,2.116662 -1.169892,8.66e-4 -2.117552,-0.94677 -2.116662,-2.116662 0,-1.169274 0.947404,-2.117536 2.116662,-2.116662 z"
     style="fill:#ffffff;stroke-width:0.529204"
     id="path43461" />
  <path
     d="m 8.5989586,15.081249 c -2.271977,0 -4.101041,1.829065 -4.101041,4.101042 v 4.365625 H 63.235417 v -4.365625 c 0,-2.271977 -1.829065,-4.101042 -4.101042,-4.101042 z"
     id="path58446"
     style="stroke-width:0.264583;fill:#000000" />
  <path
     d="M 13.758333,15.08125 9.5249998,23.547917 H 15.874997 L 20.10833,15.08125 Z m 12.699995,0 -4.233334,8.466667 h 6.350003 l 4.233328,-8.466667 z m 12.699999,0 -4.233333,8.466667 h 6.349992 l 4.233333,-8.466667 z m 12.69999,0 -4.233334,8.466667 h 6.349998 l 4.233333,-8.466667 z"
     id="path2035"
     style="fill:#f7f7f7;fill-opacity:1;stroke-width:0.529166" />
</svg>
