<?xml version="1.0" encoding="UTF-8" standalone="no"?>
<!-- Created with Inkscape (http://www.inkscape.org/) -->

<svg
   width="32"
   height="32"
   viewBox="0 0 8.4666665 8.4666665"
   version="1.1"
   id="svg5"
   inkscape:version="1.2 (dc2aedaf03, 2022-05-15)"
   sodipodi:docname="computer-laptop.svg"
   xmlns:inkscape="http://www.inkscape.org/namespaces/inkscape"
   xmlns:sodipodi="http://sodipodi.sourceforge.net/DTD/sodipodi-0.dtd"
   xmlns="http://www.w3.org/2000/svg"
   xmlns:svg="http://www.w3.org/2000/svg">
  <sodipodi:namedview
     id="namedview7"
     pagecolor="#ffffff"
     bordercolor="#666666"
     borderopacity="1.0"
     inkscape:pageshadow="2"
     inkscape:pageopacity="0.0"
     inkscape:pagecheckerboard="0"
     inkscape:document-units="px"
     showgrid="false"
     units="px"
     height="48px"
     inkscape:zoom="12.765625"
     inkscape:cx="5.4443084"
     inkscape:cy="22.834761"
     inkscape:window-width="1920"
     inkscape:window-height="1010"
     inkscape:window-x="0"
     inkscape:window-y="0"
     inkscape:window-maximized="1"
     inkscape:current-layer="svg5"
     inkscape:showpageshadow="2"
     inkscape:deskcolor="#d1d1d1"
     showguides="false" />
  <defs
     id="defs2" />
  <rect
     style="opacity:1;fill:#bfbfbf;fill-opacity:1;stroke-width:0.264583"
     id="rect1162"
     width="7.4083333"
     height="1.0583333"
     x="0.52916664"
     y="6.6145835"
     ry="0.26458332" />
  <path
     d="m 0.79375001,6.6145833 c -0.1465792,0 -0.2645833,0.1180042 -0.2645833,0.2645834 v 0.5291666 c 0,0.1465792 0.1180041,0.2645834 0.2645833,0.2645834 H 7.6729167 C 7.8194958,7.6729167 7.9375,7.5549125 7.9375,7.4083333 V 6.8791667 c 0,-0.1465792 -0.1180042,-0.2645834 -0.2645833,-0.2645834 z m 0.1322917,0.2645834 H 7.540625 c 0.07329,0 0.1322917,0.059002 0.1322917,0.1322916 v 0.2645834 c 0,0.073289 -0.059002,0.1322916 -0.1322917,0.1322916 H 0.92604171 C 0.85291831,7.4084799 0.79360331,7.3491651 0.79375001,7.2760417 V 7.0114583 c 0,-0.07329 0.059002,-0.1322916 0.1322917,-0.1322916 z"
     style="opacity:0.5;fill:#000000;fill-opacity:1;stroke-width:0.264583"
     id="path741" />
  <rect
     style="opacity:1;fill:#bfbfbf;fill-opacity:1;stroke-width:0.264583"
     id="rect2175"
     width="6.8791671"
     height="5.0270834"
     x="0.79374981"
     y="1.8520832"
     ry="0.52916664" />
  <rect
     style="fill:#222222;fill-opacity:1;stroke-width:0.447735"
     id="rect1437"
     width="5.2916665"
     height="3.175"
     x="1.5874999"
     y="2.6458335" />
  <path
     id="rect2173"
     style="opacity:0.5;fill:#000000;fill-opacity:1;stroke-width:0.264583"
     d="m 1.3229165,1.8520835 c -0.293158,0 -0.5291667,0.2360087 -0.5291667,0.5291666 v 3.9687498 c 0,0.293158 0.2360087,0.5291667 0.5291667,0.5291667 h 5.8208333 c 0.293158,0 0.5291667,-0.2360087 0.5291667,-0.5291667 V 2.3812501 c 0,-0.2931579 -0.2360087,-0.5291666 -0.5291667,-0.5291666 z m 0,0.2645833 h 5.8208333 c 0.146579,0 0.2645833,0.1180043 0.2645833,0.2645833 V 6.0854166 C 7.4083331,6.2319957 7.2903288,6.35 7.1437498,6.35 H 1.3229165 C 1.1763374,6.35 1.0583331,6.2319957 1.0583331,6.0854166 V 2.3812501 c 0,-0.146579 0.1180043,-0.2645833 0.2645834,-0.2645833 z"
     sodipodi:nodetypes="ssssssssssssssssss" />
</svg>
