<?xml version="1.0" encoding="UTF-8" standalone="no"?>
<!-- Created with Inkscape (http://www.inkscape.org/) -->

<svg
   width="32"
   height="32"
   viewBox="0 0 8.4666666 8.4666666"
   version="1.1"
   id="svg5"
   inkscape:version="1.1.2 (0a00cf5339, 2022-02-04, custom)"
   sodipodi:docname="drive-harddisk.svg"
   xmlns:inkscape="http://www.inkscape.org/namespaces/inkscape"
   xmlns:sodipodi="http://sodipodi.sourceforge.net/DTD/sodipodi-0.dtd"
   xmlns="http://www.w3.org/2000/svg"
   xmlns:svg="http://www.w3.org/2000/svg">
  <sodipodi:namedview
     id="namedview7"
     pagecolor="#ffffff"
     bordercolor="#666666"
     borderopacity="1.0"
     inkscape:pageshadow="2"
     inkscape:pageopacity="0.0"
     inkscape:pagecheckerboard="0"
     inkscape:document-units="px"
     showgrid="false"
     units="px"
     height="48px"
     inkscape:zoom="17.721864"
     inkscape:cx="13.852945"
     inkscape:cy="16.871815"
     inkscape:window-width="1920"
     inkscape:window-height="1017"
     inkscape:window-x="0"
     inkscape:window-y="0"
     inkscape:window-maximized="1"
     inkscape:current-layer="svg5"
     showguides="true" />
  <defs
     id="defs2" />
  <rect
     style="opacity:1;fill:#565656;fill-opacity:1;stroke-width:0.264583"
     id="rect1162"
     width="6.3499999"
     height="8.2020836"
     x="1.0583333"
     y="0.26458332"
     ry="0.66145831" />
  <rect
     style="fill:#acacac;fill-opacity:1;stroke-width:0.264583"
     id="rect1142"
     width="5.8208332"
     height="7.4083333"
     x="1.3229166"
     y="0.52916664"
     ry="0.52916664" />
  <path
     id="path1814"
     style="fill:#444444;fill-opacity:1;stroke-width:0.264583"
     d="m 4.2333332,1.5875 c -1.0228791,0 -1.8520833,0.8292041 -1.8520833,1.8520833 v 0.2645833 1.190625 0.1322917 c 0,0.1465791 0.1180042,0.2645833 0.2645834,0.2645833 h 0.1322916 1.190625 0.2645833 c 1.0228792,0 1.8520834,-0.8292068 1.8520834,-1.8520833 C 6.0854166,2.4167041 5.2562124,1.5875 4.2333332,1.5875 Z m 0,0.9260416 A 0.92604166,0.92604166 0 0 1 5.1593749,3.4395833 0.92604166,0.92604166 0 0 1 4.2333332,4.3656249 0.92604166,0.92604166 0 0 1 3.3072916,3.4395833 0.92604166,0.92604166 0 0 1 4.2333332,2.5135416 Z" />
</svg>
