<?xml version="1.0" encoding="UTF-8" standalone="no"?>
<!-- Created with Inkscape (http://www.inkscape.org/) -->

<svg
   width="32"
   height="32"
   viewBox="0 0 8.4666665 8.4666665"
   version="1.1"
   id="svg5"
   inkscape:version="1.2 (dc2aedaf03, 2022-05-15)"
   sodipodi:docname="input-touchpad.svg"
   xmlns:inkscape="http://www.inkscape.org/namespaces/inkscape"
   xmlns:sodipodi="http://sodipodi.sourceforge.net/DTD/sodipodi-0.dtd"
   xmlns="http://www.w3.org/2000/svg"
   xmlns:svg="http://www.w3.org/2000/svg">
  <sodipodi:namedview
     id="namedview7"
     pagecolor="#ffffff"
     bordercolor="#666666"
     borderopacity="1.0"
     inkscape:pageshadow="2"
     inkscape:pageopacity="0.0"
     inkscape:pagecheckerboard="0"
     inkscape:document-units="px"
     showgrid="false"
     units="px"
     height="48px"
     inkscape:zoom="18.227272"
     inkscape:cx="12.453866"
     inkscape:cy="18.763093"
     inkscape:window-width="1920"
     inkscape:window-height="1009"
     inkscape:window-x="0"
     inkscape:window-y="0"
     inkscape:window-maximized="1"
     inkscape:current-layer="svg5"
     showguides="false"
     inkscape:showpageshadow="2"
     inkscape:deskcolor="#d1d1d1" />
  <defs
     id="defs2" />
  <rect
     style="opacity:1;fill:#aaaaaa;fill-opacity:1;stroke-width:0.264583"
     id="rect1162"
     width="7.4083333"
     height="5.8208332"
     x="0.52916664"
     y="1.8520833"
     ry="0.52916664" />
  <path
     d="m 0.52916666,5.5562499 v 1.5875 c 0,0.2931583 0.23600833,0.5291666 0.52916664,0.5291666 h 6.3499999 c 0.2931584,0 0.5291667,-0.2360083 0.5291667,-0.5291666 v -1.5875 z"
     style="fill:#dedede;stroke-width:0.264583"
     id="path4218" />
  <rect
     style="opacity:0.5;fill:#000000;stroke-width:0.529167"
     id="rect598"
     width="0.52916664"
     height="2.1166666"
     x="3.96875"
     y="5.5562501" />
  <path
     id="rect1825"
     style="opacity:0.5;fill:#000000;fill-opacity:1;stroke-width:0.264583"
     d="M 1.0583333 1.8520833 C 0.76517531 1.8520833 0.52916666 2.0880919 0.52916666 2.38125 L 0.52916666 7.1437499 C 0.52916666 7.4369079 0.76517531 7.6729165 1.0583333 7.6729165 L 7.4083332 7.6729165 C 7.7014912 7.6729165 7.9374998 7.4369079 7.9374998 7.1437499 L 7.9374998 2.38125 C 7.9374998 2.0880919 7.7014912 1.8520833 7.4083332 1.8520833 L 1.0583333 1.8520833 z M 1.0583333 2.1166666 L 7.4083332 2.1166666 C 7.5549122 2.1166666 7.6729165 2.2346709 7.6729165 2.38125 L 7.6729165 6.8791665 C 7.6729165 7.0257455 7.5549122 7.1437499 7.4083332 7.1437499 L 1.0583333 7.1437499 C 0.9117543 7.1437499 0.79374998 7.0257455 0.79374998 6.8791665 L 0.79374998 2.38125 C 0.79374998 2.2346709 0.9117543 2.1166666 1.0583333 2.1166666 z " />
</svg>
