<?xml version="1.0" encoding="UTF-8" standalone="no"?>
<!-- Created with Inkscape (http://www.inkscape.org/) -->

<svg
   width="32"
   height="32"
   viewBox="0 0 8.4666666 8.4666666"
   version="1.1"
   id="svg5"
   inkscape:version="1.2 (dc2aedaf03, 2022-05-15)"
   sodipodi:docname="input-tablet.svg"
   xmlns:inkscape="http://www.inkscape.org/namespaces/inkscape"
   xmlns:sodipodi="http://sodipodi.sourceforge.net/DTD/sodipodi-0.dtd"
   xmlns="http://www.w3.org/2000/svg"
   xmlns:svg="http://www.w3.org/2000/svg">
  <sodipodi:namedview
     id="namedview7"
     pagecolor="#ffffff"
     bordercolor="#666666"
     borderopacity="1.0"
     inkscape:pageshadow="2"
     inkscape:pageopacity="0.0"
     inkscape:pagecheckerboard="0"
     inkscape:document-units="px"
     showgrid="false"
     units="px"
     height="48px"
     inkscape:zoom="25.0625"
     inkscape:cx="-1.6558604"
     inkscape:cy="13.466334"
     inkscape:window-width="1920"
     inkscape:window-height="1014"
     inkscape:window-x="0"
     inkscape:window-y="0"
     inkscape:window-maximized="1"
     inkscape:current-layer="svg5"
     showguides="true"
     inkscape:showpageshadow="2"
     inkscape:deskcolor="#d1d1d1" />
  <defs
     id="defs2" />
  <rect
     style="fill:#98989d;fill-opacity:1;stroke-width:0.264583"
     id="rect1142"
     width="5.8208332"
     height="7.4083333"
     x="1.3229166"
     y="0.52916664"
     ry="0.52916664" />
  <path
     d="M 3.9817437,2.4308217 C 3.5242024,2.4096286 2.991112,2.5875053 2.4174979,3.0318175 L 2.7420253,3.4503989 C 3.2447336,3.0610089 3.6556395,2.9455236 3.956939,2.9594724 4.2582386,2.9734164 4.463886,3.1105019 4.5863563,3.2860662 4.7088293,3.4616331 4.7363248,3.6721515 4.6752403,3.8302188 4.6141587,3.9882862 4.4777766,4.1272295 4.1352232,4.1692162 3.0153557,4.3064238 2.554994,5.1158742 2.6577925,5.7572348 2.7091935,6.0779124 2.8903163,6.3749892 3.1972938,6.4982745 3.504274,6.6215571 3.8879436,6.5210815 4.216355,6.2119874 4.4592928,5.9833371 4.6586272,5.9200144 4.8400891,5.9200144 c 0.1814618,0 0.3609869,0.073123 0.5260657,0.1855179 0.3301603,0.22479 0.5612051,0.5829115 0.5612051,0.5829115 l 0.4485534,-0.280088 c 0,0 -0.265049,-0.4356285 -0.7121022,-0.7400051 -0.223528,-0.1521884 -0.5028909,-0.277503 -0.823722,-0.277503 -0.3208311,0 -0.6672025,0.1351148 -0.9865043,0.4356312 C 3.6197593,6.046554 3.4851737,6.0431647 3.3946994,6.0068295 3.3042252,5.9704969 3.2086815,5.8509502 3.1802414,5.673518 3.1233639,5.3186562 3.2914035,4.8054862 4.1993,4.6942501 4.6867445,4.6345045 5.0360315,4.3656852 5.1692678,4.0209067 5.302504,3.6761255 5.2332599,3.2883257 5.0204396,2.9832426 4.8076194,2.6781595 4.439285,2.4520043 3.9817437,2.4308217 Z"
     style="color:#000000;fill:#000000;stroke-width:0.264583;-inkscape-stroke:none"
     id="path8900" />
  <path
     d="m 1.8520832,0.52916664 c -0.2931583,0 -0.5291667,0.2360083 -0.5291667,0.52916656 v 0.79375 h 5.8208333 v -0.79375 c 0,-0.29315826 -0.2360083,-0.52916656 -0.5291667,-0.52916656 z"
     style="fill:#bcbcc0;stroke-width:0.264583"
     id="path1326" />
  <circle
     style="opacity:1;fill:#ffca40;fill-opacity:1;stroke-width:0.264583"
     id="path6708"
     cx="2.1166666"
     cy="1.3229166"
     r="0.26458332" />
  <path
     id="rect1162"
     style="opacity:0.5;fill:#000000;fill-opacity:1;stroke-width:0.264583"
     d="M 1.8520833 0.52916666 C 1.5589253 0.52916666 1.3229167 0.7651753 1.3229167 1.0583333 L 1.3229167 7.4083333 C 1.3229167 7.7014913 1.5589253 7.9374999 1.8520833 7.9374999 L 6.6145833 7.9374999 C 6.9077413 7.9374999 7.1437499 7.7014913 7.1437499 7.4083333 L 7.1437499 1.0583333 C 7.1437499 0.7651753 6.9077413 0.52916666 6.6145833 0.52916666 L 1.8520833 0.52916666 z M 1.8520833 0.79374999 L 6.6145833 0.79374999 C 6.7611623 0.79374999 6.8791666 0.91175431 6.8791666 1.0583333 L 6.8791666 7.1437499 C 6.8791666 7.290329 6.7611623 7.4083333 6.6145833 7.4083333 L 1.8520833 7.4083333 C 1.7055043 7.4083333 1.5875 7.290329 1.5875 7.1437499 L 1.5875 1.0583333 C 1.5875 0.91175431 1.7055043 0.79374999 1.8520833 0.79374999 z " />
</svg>
