<?xml version="1.0" encoding="UTF-8" standalone="no"?>
<!-- Created with Inkscape (http://www.inkscape.org/) -->

<svg
   width="32"
   height="32"
   viewBox="0 0 8.4666665 8.4666665"
   version="1.1"
   id="svg5"
   inkscape:version="1.2 (dc2aedaf03, 2022-05-15)"
   sodipodi:docname="input-keyboard.svg"
   xmlns:inkscape="http://www.inkscape.org/namespaces/inkscape"
   xmlns:sodipodi="http://sodipodi.sourceforge.net/DTD/sodipodi-0.dtd"
   xmlns="http://www.w3.org/2000/svg"
   xmlns:svg="http://www.w3.org/2000/svg">
  <sodipodi:namedview
     id="namedview7"
     pagecolor="#ffffff"
     bordercolor="#666666"
     borderopacity="1.0"
     inkscape:pageshadow="2"
     inkscape:pageopacity="0.0"
     inkscape:pagecheckerboard="0"
     inkscape:document-units="px"
     showgrid="false"
     units="px"
     height="48px"
     inkscape:zoom="24.78125"
     inkscape:cx="15.979823"
     inkscape:cy="16"
     inkscape:window-width="1920"
     inkscape:window-height="1014"
     inkscape:window-x="0"
     inkscape:window-y="0"
     inkscape:window-maximized="1"
     inkscape:current-layer="svg5"
     showguides="false"
     inkscape:showpageshadow="2"
     inkscape:deskcolor="#d1d1d1" />
  <defs
     id="defs2" />
  <rect
     style="opacity:1;fill:#7b736e;fill-opacity:1;stroke-width:0.264583"
     id="rect1162"
     width="7.4083333"
     height="5.8208332"
     x="0.52916664"
     y="1.8520833"
     ry="0.79374999" />
  <path
     d="m 1.5875,2.6458332 c -0.1465792,0 -0.2645834,0.1180042 -0.2645834,0.2645833 v 0.5291667 c 0,0.1465792 0.1180042,0.2645833 0.2645834,0.2645833 h 0.5291666 c 0.1465792,0 0.2645834,-0.1180041 0.2645834,-0.2645833 V 2.9104165 c 0,-0.1465791 -0.1180042,-0.2645833 -0.2645834,-0.2645833 z m 1.5875,0 c -0.1465792,0 -0.2645834,0.1180042 -0.2645834,0.2645833 v 0.5291667 c 0,0.1465792 0.1180042,0.2645833 0.2645834,0.2645833 h 0.5291666 c 0.1465792,0 0.2645833,-0.1180041 0.2645833,-0.2645833 V 2.9104165 c 0,-0.1465791 -0.1180041,-0.2645833 -0.2645833,-0.2645833 z m 1.5874999,0 c -0.1465791,0 -0.2645833,0.1180042 -0.2645833,0.2645833 v 0.5291667 c 0,0.1465792 0.1180042,0.2645833 0.2645833,0.2645833 h 0.5291667 c 0.1465792,0 0.2645833,-0.1180041 0.2645833,-0.2645833 V 2.9104165 c 0,-0.1465791 -0.1180041,-0.2645833 -0.2645833,-0.2645833 z m 1.5875,0 c -0.1465791,0 -0.2645833,0.1180042 -0.2645833,0.2645833 v 0.5291667 c 0,0.1465792 0.1180042,0.2645833 0.2645833,0.2645833 h 0.5291667 c 0.1465791,0 0.2645833,-0.1180041 0.2645833,-0.2645833 V 2.9104165 c 0,-0.1465791 -0.1180042,-0.2645833 -0.2645833,-0.2645833 z M 1.5875,4.2333332 c -0.1465792,0 -0.2645834,0.1180042 -0.2645834,0.2645833 v 0.5291667 c 0,0.1465791 0.1180042,0.2645833 0.2645834,0.2645833 h 0.5291666 c 0.1465792,0 0.2645834,-0.1180042 0.2645834,-0.2645833 V 4.4979165 c 0,-0.1465791 -0.1180042,-0.2645833 -0.2645834,-0.2645833 z m 1.5875,0 c -0.1465792,0 -0.2645834,0.1180042 -0.2645834,0.2645833 v 0.5291667 c 0,0.1465791 0.1180042,0.2645833 0.2645834,0.2645833 h 0.5291666 c 0.1465792,0 0.2645833,-0.1180042 0.2645833,-0.2645833 V 4.4979165 c 0,-0.1465791 -0.1180041,-0.2645833 -0.2645833,-0.2645833 z m 1.5874999,0 c -0.1465791,0 -0.2645833,0.1180042 -0.2645833,0.2645833 v 0.5291667 c 0,0.1465791 0.1180042,0.2645833 0.2645833,0.2645833 h 0.5291667 c 0.1465792,0 0.2645833,-0.1180042 0.2645833,-0.2645833 V 4.4979165 c 0,-0.1465791 -0.1180041,-0.2645833 -0.2645833,-0.2645833 z m 1.5875,0 c -0.1465791,0 -0.2645833,0.1180042 -0.2645833,0.2645833 v 0.5291667 c 0,0.1465791 0.1180042,0.2645833 0.2645833,0.2645833 h 0.5291667 c 0.1465791,0 0.2645833,-0.1180042 0.2645833,-0.2645833 V 4.4979165 c 0,-0.1465791 -0.1180042,-0.2645833 -0.2645833,-0.2645833 z m -3.9687499,1.5875 c -0.1465792,0 -0.2645834,0.1180041 -0.2645834,0.2645833 v 0.5291667 c 0,0.1465791 0.1180042,0.2645833 0.2645834,0.2645833 h 3.7041666 c 0.1465792,0 0.2645833,-0.1180042 0.2645833,-0.2645833 V 6.0854165 c 0,-0.1465792 -0.1180041,-0.2645833 -0.2645833,-0.2645833 z"
     id="path10783"
     style="opacity:0.5;fill:#000000;stroke-width:0.264583"
     sodipodi:nodetypes="sssssssssssssssssssssssssssssssssssssssssssssssssssssssssssssssssssssssssssssssss" />
  <path
     d="m 1.5875,2.38125 c -0.1465792,0 -0.2645834,0.1180042 -0.2645834,0.2645833 V 3.175 c 0,0.1465792 0.1180042,0.2645833 0.2645834,0.2645833 H 2.1166666 C 2.2632458,3.4395833 2.38125,3.3215792 2.38125,3.175 V 2.6458333 C 2.38125,2.4992542 2.2632458,2.38125 2.1166666,2.38125 Z m 1.5875,0 c -0.1465792,0 -0.2645834,0.1180042 -0.2645834,0.2645833 V 3.175 c 0,0.1465792 0.1180042,0.2645833 0.2645834,0.2645833 h 0.5291666 c 0.1465792,0 0.2645833,-0.1180041 0.2645833,-0.2645833 V 2.6458333 C 3.9687499,2.4992542 3.8507458,2.38125 3.7041666,2.38125 Z m 1.5874999,0 c -0.1465791,0 -0.2645833,0.1180042 -0.2645833,0.2645833 V 3.175 c 0,0.1465792 0.1180042,0.2645833 0.2645833,0.2645833 h 0.5291667 c 0.1465792,0 0.2645833,-0.1180041 0.2645833,-0.2645833 V 2.6458333 C 5.5562499,2.4992542 5.4382458,2.38125 5.2916666,2.38125 Z m 1.5875,0 c -0.1465791,0 -0.2645833,0.1180042 -0.2645833,0.2645833 V 3.175 c 0,0.1465792 0.1180042,0.2645833 0.2645833,0.2645833 h 0.5291667 c 0.1465791,0 0.2645833,-0.1180041 0.2645833,-0.2645833 V 2.6458333 C 7.1437499,2.4992542 7.0257457,2.38125 6.8791666,2.38125 Z M 1.5875,3.96875 c -0.1465792,0 -0.2645834,0.1180042 -0.2645834,0.2645833 V 4.7625 c 0,0.1465791 0.1180042,0.2645833 0.2645834,0.2645833 H 2.1166666 C 2.2632458,5.0270833 2.38125,4.9090791 2.38125,4.7625 V 4.2333333 C 2.38125,4.0867542 2.2632458,3.96875 2.1166666,3.96875 Z m 1.5875,0 c -0.1465792,0 -0.2645834,0.1180042 -0.2645834,0.2645833 V 4.7625 c 0,0.1465791 0.1180042,0.2645833 0.2645834,0.2645833 h 0.5291666 c 0.1465792,0 0.2645833,-0.1180042 0.2645833,-0.2645833 V 4.2333333 C 3.9687499,4.0867542 3.8507458,3.96875 3.7041666,3.96875 Z m 1.5874999,0 c -0.1465791,0 -0.2645833,0.1180042 -0.2645833,0.2645833 V 4.7625 c 0,0.1465791 0.1180042,0.2645833 0.2645833,0.2645833 h 0.5291667 c 0.1465792,0 0.2645833,-0.1180042 0.2645833,-0.2645833 V 4.2333333 C 5.5562499,4.0867542 5.4382458,3.96875 5.2916666,3.96875 Z m 1.5875,0 c -0.1465791,0 -0.2645833,0.1180042 -0.2645833,0.2645833 V 4.7625 c 0,0.1465791 0.1180042,0.2645833 0.2645833,0.2645833 h 0.5291667 c 0.1465791,0 0.2645833,-0.1180042 0.2645833,-0.2645833 V 4.2333333 C 7.1437499,4.0867542 7.0257457,3.96875 6.8791666,3.96875 Z M 2.38125,5.55625 c -0.1465792,0 -0.2645834,0.1180041 -0.2645834,0.2645833 V 6.35 c 0,0.1465791 0.1180042,0.2645833 0.2645834,0.2645833 h 3.7041666 c 0.1465792,0 0.2645833,-0.1180042 0.2645833,-0.2645833 V 5.8208333 C 6.3499999,5.6742541 6.2319958,5.55625 6.0854166,5.55625 Z"
     style="opacity:1;fill:#ffffff;stroke-width:0.264583"
     id="path11201" />
  <path
     id="rect6552"
     style="fill:#000000;fill-opacity:1;stroke-width:0.264583;opacity:0.5"
     d="M 1.3229166 1.8520833 C 0.88317959 1.8520833 0.52916666 2.2060962 0.52916666 2.6458333 L 0.52916666 6.8791665 C 0.52916666 7.3189036 0.88317959 7.6729165 1.3229166 7.6729165 L 7.1437499 7.6729165 C 7.5834869 7.6729165 7.9374998 7.3189036 7.9374998 6.8791665 L 7.9374998 2.6458333 C 7.9374998 2.2060962 7.5834869 1.8520833 7.1437499 1.8520833 L 1.3229166 1.8520833 z M 1.3229166 2.1166666 L 7.1437499 2.1166666 C 7.4369079 2.1166666 7.6729165 2.3526753 7.6729165 2.6458333 L 7.6729165 6.6145832 C 7.6729165 6.9077412 7.4369079 7.1437499 7.1437499 7.1437499 L 1.3229166 7.1437499 C 1.0297586 7.1437499 0.79374998 6.9077412 0.79374998 6.6145832 L 0.79374998 2.6458333 C 0.79374998 2.3526753 1.0297586 2.1166666 1.3229166 2.1166666 z " />
</svg>
