<?xml version="1.0" encoding="UTF-8" standalone="no"?>
<!-- Created with Inkscape (http://www.inkscape.org/) -->

<svg
   width="32"
   height="32"
   viewBox="0 0 8.4666665 8.4666665"
   version="1.1"
   id="svg5"
   inkscape:version="1.1.2 (0a00cf5339, 2022-02-04, custom)"
   sodipodi:docname="media-optical.svg"
   xmlns:inkscape="http://www.inkscape.org/namespaces/inkscape"
   xmlns:sodipodi="http://sodipodi.sourceforge.net/DTD/sodipodi-0.dtd"
   xmlns="http://www.w3.org/2000/svg"
   xmlns:svg="http://www.w3.org/2000/svg">
  <sodipodi:namedview
     id="namedview7"
     pagecolor="#ffffff"
     bordercolor="#666666"
     borderopacity="1.0"
     inkscape:pageshadow="2"
     inkscape:pageopacity="0.0"
     inkscape:pagecheckerboard="0"
     inkscape:document-units="px"
     showgrid="false"
     units="px"
     height="48px"
     inkscape:zoom="17.721864"
     inkscape:cx="17.859295"
     inkscape:cy="15.235418"
     inkscape:window-width="1920"
     inkscape:window-height="1017"
     inkscape:window-x="0"
     inkscape:window-y="0"
     inkscape:window-maximized="1"
     inkscape:current-layer="svg5"
     showguides="true" />
  <defs
     id="defs2" />
  <path
     id="rect5567"
     style="opacity:1;fill:#cdcdcd;fill-opacity:1;stroke-width:0.264583"
     d="m 4.2333333,0.26458332 c 2.1986875,0 3.96875,1.77006248 3.96875,3.96874998 v 0.2645836 c 0,2.1986875 -1.7700625,3.96875 -3.96875,3.96875 -2.1986875,0 -3.96874998,-1.7700625 -3.96874998,-3.96875 V 4.2333333 c 0,-2.1986875 1.77006248,-3.96874998 3.96874998,-3.96874998 z"
     sodipodi:nodetypes="sssssss" />
  <path
     id="path4647"
     style="opacity:0.5;fill:#000000;fill-opacity:1;stroke-width:0.666667"
     d="M 16 10 C 12.686292 10 10 12.686292 10 16 C 9.9999996 19.313708 12.686292 22 16 22 C 19.313709 22 22 19.313709 22 16 C 22 12.686292 19.313708 9.9999996 16 10 z M 16 11 A 4.9999999 4.9999999 0 0 1 21 16 A 4.9999999 4.9999999 0 0 1 16 21 A 4.9999999 4.9999999 0 0 1 11 16 A 4.9999999 4.9999999 0 0 1 16 11 z "
     transform="scale(0.26458333)" />
  <circle
     style="opacity:0.2;fill:#000000;fill-opacity:1;stroke-width:0.165365"
     id="path4779"
     cx="4.2333331"
     cy="4.2333331"
     r="1.3229166" />
  <circle
     style="opacity:0.8;fill:#000000;fill-opacity:1;stroke-width:0.176389"
     id="path4905"
     cx="4.2333326"
     cy="4.2333331"
     r="0.52916664" />
  <path
     id="path1427"
     style="opacity:0.5;fill:#000000;fill-opacity:1;stroke-width:0.264583"
     d="M 16 1 C 7.6900002 1 1 7.6900002 1 16 L 1 17 C 1 25.31 7.6900002 32 16 32 C 24.31 32 31 25.31 31 17 L 31 16 C 31 7.6900002 24.31 1 16 1 z M 16 2 A 14 14 0 0 1 30 16 A 14 14 0 0 1 16 30 A 14 14 0 0 1 2 16 A 14 14 0 0 1 16 2 z "
     transform="scale(0.26458333)" />
</svg>
