<?xml version="1.0" encoding="UTF-8" standalone="no"?>
<!-- Created with Inkscape (http://www.inkscape.org/) -->

<svg
   width="32"
   height="32"
   viewBox="0 0 8.4666666 8.4666666"
   version="1.1"
   id="svg5"
   inkscape:version="1.2 (dc2aedaf03, 2022-05-15)"
   sodipodi:docname="network-server.svg"
   xmlns:inkscape="http://www.inkscape.org/namespaces/inkscape"
   xmlns:sodipodi="http://sodipodi.sourceforge.net/DTD/sodipodi-0.dtd"
   xmlns="http://www.w3.org/2000/svg"
   xmlns:svg="http://www.w3.org/2000/svg">
  <sodipodi:namedview
     id="namedview7"
     pagecolor="#ffffff"
     bordercolor="#666666"
     borderopacity="1.0"
     inkscape:pageshadow="2"
     inkscape:pageopacity="0.0"
     inkscape:pagecheckerboard="0"
     inkscape:document-units="px"
     showgrid="false"
     units="px"
     height="48px"
     inkscape:zoom="17.721864"
     inkscape:cx="16.251112"
     inkscape:cy="22.119569"
     inkscape:window-width="1846"
     inkscape:window-height="1011"
     inkscape:window-x="0"
     inkscape:window-y="0"
     inkscape:window-maximized="1"
     inkscape:current-layer="svg5"
     showguides="true"
     inkscape:showpageshadow="2"
     inkscape:deskcolor="#d1d1d1" />
  <defs
     id="defs2" />
  <path
     id="rect1142"
     style="fill:#444444;fill-opacity:1;stroke-width:0.264583"
     d="M 1.3229167 1.8520833 C 1.0297586 1.8520833 0.79374999 2.088092 0.79374999 2.38125 L 0.79374999 3.4395833 C 0.79374999 3.5978425 0.86261303 3.7396486 0.97203368 3.8364583 C 0.86261299 3.933268 0.79374999 4.0750742 0.79374999 4.2333333 L 0.79374999 5.2916666 C 0.79374999 5.4499258 0.86261314 5.591732 0.97203368 5.6885416 C 0.86261314 5.7853512 0.79374999 5.9271576 0.79374999 6.0854166 L 0.79374999 7.1437499 C 0.79374999 7.4369078 1.0297588 7.6729166 1.3229167 7.6729166 L 7.1437499 7.6729166 C 7.4369078 7.6729166 7.6729166 7.4369078 7.6729166 7.1437499 L 7.6729166 6.0854166 C 7.6729166 5.9271576 7.6040535 5.7853512 7.4946329 5.6885416 C 7.6040535 5.591732 7.6729166 5.4499258 7.6729166 5.2916666 L 7.6729166 4.2333333 C 7.6729166 4.0750742 7.6040536 3.933268 7.4946329 3.8364583 C 7.6040536 3.7396486 7.6729166 3.5978425 7.6729166 3.4395833 L 7.6729166 2.38125 C 7.6729166 2.088092 7.436908 1.8520833 7.1437499 1.8520833 L 1.3229167 1.8520833 z " />
  <path
     id="path10117"
     style="fill:#73c48f;fill-opacity:1;stroke-width:0.040994"
     d="M 5.2916666 2.38125 A 0.26458332 0.26458332 0 0 0 5.0270833 2.6458333 A 0.26458332 0.26458332 0 0 0 5.2916666 2.9104166 A 0.26458332 0.26458332 0 0 0 5.55625 2.6458333 A 0.26458332 0.26458332 0 0 0 5.2916666 2.38125 z M 5.2916666 4.2333333 A 0.26458332 0.26458332 0 0 0 5.0270833 4.4979166 A 0.26458332 0.26458332 0 0 0 5.2916666 4.7625 A 0.26458332 0.26458332 0 0 0 5.55625 4.4979166 A 0.26458332 0.26458332 0 0 0 5.2916666 4.2333333 z M 5.2916666 6.0854166 A 0.26458332 0.26458332 0 0 0 5.0270833 6.35 A 0.26458332 0.26458332 0 0 0 5.2916666 6.6145833 A 0.26458332 0.26458332 0 0 0 5.55625 6.35 A 0.26458332 0.26458332 0 0 0 5.2916666 6.0854166 z " />
  <path
     id="path11625"
     style="fill:#ff793e;fill-opacity:1;stroke-width:0.0661455"
     d="M 6.0854166 2.38125 A 0.26458335 0.26458332 0 0 0 5.8208333 2.6458333 A 0.26458335 0.26458332 0 0 0 6.0854166 2.9104166 A 0.26458335 0.26458332 0 0 0 6.35 2.6458333 A 0.26458335 0.26458332 0 0 0 6.0854166 2.38125 z M 6.0854166 4.2333333 A 0.26458335 0.26458332 0 0 0 5.8208333 4.4979166 A 0.26458335 0.26458332 0 0 0 6.0854166 4.7625 A 0.26458335 0.26458332 0 0 0 6.35 4.4979166 A 0.26458335 0.26458332 0 0 0 6.0854166 4.2333333 z M 6.0854166 6.0854166 A 0.26458335 0.26458332 0 0 0 5.8208333 6.35 A 0.26458335 0.26458332 0 0 0 6.0854166 6.6145833 A 0.26458335 0.26458332 0 0 0 6.35 6.35 A 0.26458335 0.26458332 0 0 0 6.0854166 6.0854166 z " />
  <path
     id="path13551"
     style="fill:#faa41a;fill-opacity:1;stroke-width:0.0661455"
     d="M 6.8791666 2.38125 A 0.26458335 0.26458332 0 0 0 6.6145833 2.6458333 A 0.26458335 0.26458332 0 0 0 6.8791666 2.9104166 A 0.26458335 0.26458332 0 0 0 7.1437499 2.6458333 A 0.26458335 0.26458332 0 0 0 6.8791666 2.38125 z M 6.8791666 4.2333333 A 0.26458335 0.26458332 0 0 0 6.6145833 4.4979166 A 0.26458335 0.26458332 0 0 0 6.8791666 4.7625 A 0.26458335 0.26458332 0 0 0 7.1437499 4.4979166 A 0.26458335 0.26458332 0 0 0 6.8791666 4.2333333 z M 6.8791666 6.0854166 A 0.26458335 0.26458332 0 0 0 6.6145833 6.35 A 0.26458335 0.26458332 0 0 0 6.8791666 6.6145833 A 0.26458335 0.26458332 0 0 0 7.1437499 6.35 A 0.26458335 0.26458332 0 0 0 6.8791666 6.0854166 z " />
  <path
     d="m 2.4262085,2.1388875 c -0.067632,0 -0.1352471,0.026209 -0.1870687,0.078031 L 1.4908651,2.9651937 c -0.103647,0.103647 -0.103647,0.2704903 0,0.3741373 0.103647,0.103647 0.2704902,0.103647 0.3741373,0 L 2.6132772,2.5910563 c 0.1036452,-0.1036451 0.103647,-0.2704903 0,-0.3741374 C 2.5614542,2.1650959 2.493841,2.1388869 2.4262085,2.1388875 Z m 1.0252604,0 c -0.067632,0 -0.1352453,0.026207 -0.1870687,0.078031 L 2.5161255,2.9651937 c -0.103647,0.103647 -0.103647,0.2704903 0,0.3741373 0.1036471,0.103647 0.2704901,0.103647 0.3741373,0 L 3.6385376,2.5910563 c 0.103647,-0.103647 0.103647,-0.2704903 0,-0.3741374 -0.051824,-0.051823 -0.1194362,-0.078032 -0.1870687,-0.078031 z m 1.0252604,0 c -0.067633,0 -0.1352451,0.026207 -0.1870687,0.078031 L 3.5413859,2.9651937 c -0.103647,0.103647 -0.103647,0.2704903 0,0.3741373 0.1036473,0.103647 0.2704903,0.103647 0.3741373,0 L 4.663798,2.5910563 c 0.1036472,-0.103647 0.1036473,-0.2704903 0,-0.3741374 C 4.6119746,2.1650959 4.544362,2.1388879 4.4767293,2.1388875 Z M 2.4262085,3.9909708 c -0.067633,0 -0.1352452,0.026208 -0.1870687,0.078031 L 1.4908651,4.817277 c -0.1036451,0.1036454 -0.103647,0.2704901 0,0.3741373 0.103647,0.103647 0.2704921,0.1036451 0.3741373,0 L 2.6132772,4.4431396 c 0.103647,-0.103647 0.103647,-0.2704902 0,-0.3741374 -0.051823,-0.051823 -0.1194363,-0.078032 -0.1870687,-0.078031 z m 1.0252604,0 c -0.067632,0 -0.1352453,0.026207 -0.1870687,0.078031 L 2.5161255,4.817277 c -0.103647,0.1036472 -0.103647,0.2704901 0,0.3741373 0.1036452,0.1036451 0.2704901,0.103647 0.3741373,0 L 3.6385376,4.4431396 c 0.103647,-0.103647 0.1036451,-0.270492 0,-0.3741374 -0.051824,-0.051823 -0.1194362,-0.078031 -0.1870687,-0.078031 z m 1.0252604,0 c -0.067633,0 -0.1352469,0.026209 -0.1870687,0.078031 L 3.5413859,4.817277 c -0.103647,0.1036472 -0.103647,0.2704904 0,0.3741373 0.1036469,0.1036472 0.2704903,0.103647 0.3741373,0 L 4.663798,4.4431396 c 0.1036454,-0.1036452 0.1036472,-0.2704901 0,-0.3741374 C 4.6119746,4.0171792 4.544362,3.9909712 4.4767293,3.9909708 Z M 2.4262085,5.8430542 c -0.067633,0 -0.1352452,0.026207 -0.1870687,0.078031 L 1.4908651,6.6693603 c -0.103647,0.103647 -0.103647,0.2704904 0,0.3741374 0.103647,0.103647 0.2704903,0.103647 0.3741373,0 L 2.6132772,6.2952229 c 0.103647,-0.103647 0.103647,-0.2704903 0,-0.3741373 -0.051824,-0.051824 -0.1194363,-0.078031 -0.1870687,-0.078031 z m 1.0252604,0 c -0.067632,0 -0.1352453,0.026208 -0.1870687,0.078031 L 2.5161255,6.6693603 c -0.103647,0.103647 -0.103647,0.2704904 0,0.3741374 0.103647,0.103647 0.2704903,0.103647 0.3741373,0 L 3.6385376,6.2952229 c 0.103647,-0.103647 0.103647,-0.2704903 0,-0.3741373 -0.051824,-0.051824 -0.1194362,-0.078031 -0.1870687,-0.078031 z m 1.0252604,0 c -0.067633,0 -0.135245,0.026208 -0.1870687,0.078031 L 3.5413859,6.6693603 c -0.103647,0.103647 -0.103647,0.2704904 0,0.3741374 0.1036469,0.103647 0.2704903,0.103647 0.3741373,0 L 4.663798,6.2952229 c 0.1036472,-0.103647 0.1036472,-0.2704903 0,-0.3741373 C 4.611975,5.8692616 4.544362,5.8430536 4.4767293,5.8430542 Z"
     style="fill:#000000;fill-opacity:1;stroke-width:0.264583"
     id="path20575" />
  <path
     d="m 1.3229167,1.8520833 c -0.2931584,0 -0.52916671,0.2360083 -0.52916671,0.5291667 v 1.0583333 c 0,0.158578 0.069514,0.3000507 0.1793161,0.396875 -0.1098021,0.096824 -0.1793161,0.238297 -0.1793161,0.396875 v 1.0583333 c 0,0.158578 0.069514,0.3000507 0.1793161,0.396875 -0.1098021,0.096824 -0.1793161,0.238297 -0.1793161,0.396875 v 1.0583333 c 0,0.2931583 0.23600831,0.5291667 0.52916671,0.5291667 h 5.8208332 c 0.2931583,0 0.5291667,-0.2360084 0.5291667,-0.5291667 V 6.0854166 c 0,-0.158578 -0.069514,-0.3000507 -0.1793161,-0.396875 0.1098021,-0.096824 0.1793161,-0.238297 0.1793161,-0.396875 V 4.2333333 c 0,-0.158578 -0.069514,-0.3000507 -0.1793161,-0.396875 0.1098021,-0.096824 0.1793161,-0.238297 0.1793161,-0.396875 V 2.38125 c 0,-0.2931584 -0.2360084,-0.5291667 -0.5291667,-0.5291667 z m 0,0.2645833 h 5.8208332 c 0.1465792,0 0.2645833,0.1180042 0.2645833,0.2645834 V 3.175 c 0,0.1465791 -0.1180041,0.2645833 -0.2645833,0.2645833 H 1.3229167 C 1.1763375,3.4395833 1.0583333,3.3215791 1.0583333,3.175 V 2.38125 c 0,-0.1465792 0.1180042,-0.2645834 0.2645834,-0.2645834 z m 0,1.8520833 h 5.8208332 c 0.1465792,0 0.2645833,0.1180042 0.2645833,0.2645834 v 0.79375 c 0,0.1465791 -0.1180041,0.2645833 -0.2645833,0.2645833 H 1.3229167 c -0.1465792,0 -0.2645834,-0.1180042 -0.2645834,-0.2645833 v -0.79375 c 0,-0.1465792 0.1180042,-0.2645834 0.2645834,-0.2645834 z m 0,1.8520834 h 5.8208332 c 0.1465792,0 0.2645833,0.1180041 0.2645833,0.2645833 v 0.79375 c 0,0.1465791 -0.1180041,0.2645833 -0.2645833,0.2645833 H 1.3229167 c -0.1465792,0 -0.2645834,-0.1180042 -0.2645834,-0.2645833 v -0.79375 c 0,-0.1465792 0.1180042,-0.2645833 0.2645834,-0.2645833 z"
     id="path20653"
     style="stroke-width:0.264583;fill:#f8f8f8;fill-opacity:1;opacity:0.5" />
</svg>
