<?xml version="1.0" encoding="UTF-8" standalone="no"?>
<!-- Created with Inkscape (http://www.inkscape.org/) -->

<svg
   width="32"
   height="32"
   viewBox="0 0 8.4666666 8.4666666"
   version="1.1"
   id="svg5"
   inkscape:version="1.2 (dc2aedaf03, 2022-05-15)"
   sodipodi:docname="network-wired.svg"
   xmlns:inkscape="http://www.inkscape.org/namespaces/inkscape"
   xmlns:sodipodi="http://sodipodi.sourceforge.net/DTD/sodipodi-0.dtd"
   xmlns="http://www.w3.org/2000/svg"
   xmlns:svg="http://www.w3.org/2000/svg">
  <sodipodi:namedview
     id="namedview7"
     pagecolor="#ffffff"
     bordercolor="#666666"
     borderopacity="1.0"
     inkscape:pageshadow="2"
     inkscape:pageopacity="0.0"
     inkscape:pagecheckerboard="0"
     inkscape:document-units="px"
     showgrid="false"
     units="px"
     height="48px"
     inkscape:zoom="18.868659"
     inkscape:cx="16.376363"
     inkscape:cy="12.746004"
     inkscape:window-width="1846"
     inkscape:window-height="1011"
     inkscape:window-x="74"
     inkscape:window-y="32"
     inkscape:window-maximized="1"
     inkscape:current-layer="svg5"
     inkscape:showpageshadow="2"
     inkscape:deskcolor="#d1d1d1" />
  <defs
     id="defs2" />
  <path
     d="m 1.0583334,1.5875 c -0.29315841,0 -0.52916674,0.2360083 -0.52916674,0.5291666 v 4.7625 c 0,0.2931583 0.23600833,0.5291666 0.52916674,0.5291666 H 2.1166667 L 2.6458334,7.9374999 H 5.8208333 L 6.35,7.4083332 h 1.0583333 c 0.2931583,0 0.5291667,-0.2360083 0.5291667,-0.5291666 v -4.7625 C 7.9375,1.8235083 7.7014916,1.5875 7.4083333,1.5875 Z"
     style="fill:#dedede;stroke-width:0.264583"
     id="path310" />
  <path
     d="m 1.0583334,1.5875 c -0.29315833,0 -0.52916666,0.2360083 -0.52916666,0.5291666 v 4.7624999 c 0,0.2931584 0.23600833,0.5291667 0.52916666,0.5291667 h 1.0583334 l 0.5291666,0.5291667 h 3.175 L 6.35,7.4083332 H 7.4083334 C 7.7014917,7.4083332 7.9375,7.1723249 7.9375,6.8791665 V 2.1166666 C 7.9375,1.8235083 7.7014917,1.5875 7.4083334,1.5875 Z m 0,0.2645833 h 6.35 c 0.1465791,0 0.2645833,0.1180041 0.2645833,0.2645833 v 4.4979166 c 0,0.1465792 -0.1180042,0.2645833 -0.2645833,0.2645833 H 6.35 L 5.8208334,7.4083332 h -3.175 L 2.1166668,6.8791665 H 1.0583334 c -0.14657916,0 -0.26458333,-0.1180041 -0.26458333,-0.2645833 V 2.1166666 c 0,-0.1465792 0.11800417,-0.2645833 0.26458333,-0.2645833 z"
     style="fill-opacity:1;stroke-width:0.264583;fill:#000000;opacity:0.5"
     id="path511" />
  <path
     d="M 1.5875,2.6458333 H 6.8791666 V 6.3499999 H 5.8208333 L 5.2916666,6.8791665 H 3.175 L 2.6458333,6.3499999 H 1.5875 Z"
     style="fill:#4d4d4d;stroke-width:0.264583"
     id="path1457" />
  <path
     id="rect4070"
     style="opacity:1;fill:#d1a023;fill-opacity:1;stroke-width:0.529167;stroke-linejoin:round"
     d="m 2.38125,2.6458333 v 1.5875 h 0.5291667 v -1.5875 z m 0.79375,0 v 1.5875 h 0.5291666 v -1.5875 z m 0.79375,0 v 1.5875 h 0.5291666 v -1.5875 z m 0.79375,0 v 1.5875 h 0.5291666 v -1.5875 z m 0.79375,0 v 1.5875 h 0.5291666 v -1.5875 z" />
</svg>
