<?xml version="1.0" encoding="UTF-8" standalone="no"?>
<!-- Created with Inkscape (http://www.inkscape.org/) -->

<svg
   width="32"
   height="32"
   viewBox="0 0 8.4666665 8.4666665"
   version="1.1"
   id="svg5"
   inkscape:version="1.2 (dc2aedaf03, 2022-05-15)"
   sodipodi:docname="printer.svg"
   xmlns:inkscape="http://www.inkscape.org/namespaces/inkscape"
   xmlns:sodipodi="http://sodipodi.sourceforge.net/DTD/sodipodi-0.dtd"
   xmlns="http://www.w3.org/2000/svg"
   xmlns:svg="http://www.w3.org/2000/svg">
  <sodipodi:namedview
     id="namedview7"
     pagecolor="#ffffff"
     bordercolor="#666666"
     borderopacity="1.0"
     inkscape:pageshadow="2"
     inkscape:pageopacity="0.0"
     inkscape:pagecheckerboard="0"
     inkscape:document-units="px"
     showgrid="false"
     units="px"
     height="48px"
     inkscape:zoom="18.227272"
     inkscape:cx="12.453866"
     inkscape:cy="18.763093"
     inkscape:window-width="1920"
     inkscape:window-height="1014"
     inkscape:window-x="0"
     inkscape:window-y="0"
     inkscape:window-maximized="1"
     inkscape:current-layer="svg5"
     showguides="false"
     inkscape:showpageshadow="2"
     inkscape:deskcolor="#d1d1d1" />
  <defs
     id="defs2" />
  <rect
     style="opacity:1;fill:#dedede;fill-opacity:1;stroke-width:0.264583"
     id="rect8995"
     width="4.7624998"
     height="2.1166666"
     x="1.8520833"
     y="0.52916664"
     ry="0.26458332" />
  <path
     d="m 2.1166666,0.52916666 c -0.1465792,0 -0.2645833,0.11800417 -0.2645833,0.26458333 V 2.7781249 c 0,0.1465792 0.1180041,0.2645833 0.2645833,0.2645833 V 0.79374999 H 6.3499999 V 3.0427082 c 0.1465791,0 0.2645833,-0.1180041 0.2645833,-0.2645833 V 0.79374999 c 0,-0.14657916 -0.1180042,-0.26458333 -0.2645833,-0.26458333 z"
     style="fill-opacity:1;stroke-width:0.264583;fill:#000000;opacity:0.5"
     id="path6690" />
  <rect
     style="opacity:1;fill:#474341;fill-opacity:1;stroke-width:0.264583"
     id="rect1162"
     width="6.8791666"
     height="3.4395833"
     x="0.79374999"
     y="2.3812499"
     ry="0.52916664" />
  <circle
     style="fill:#73c48f;fill-opacity:1;stroke-width:0.264583"
     id="path12007"
     cx="1.7197917"
     cy="3.4395833"
     r="0.26458332" />
  <path
     id="rect2970"
     style="opacity:0.5;fill:#ffffff;fill-opacity:1;stroke-width:0.264583"
     d="m 1.3229166,2.38125 c -0.293158,0 -0.52916659,0.2360086 -0.52916659,0.5291667 v 2.3812499 c 0,0.293158 0.23600859,0.5291667 0.52916659,0.5291667 h 5.8208332 c 0.2931581,0 0.5291667,-0.2360087 0.5291667,-0.5291667 V 2.9104167 C 7.6729165,2.6172586 7.4369079,2.38125 7.1437498,2.38125 Z m 0,0.2645833 h 5.8208332 c 0.146579,0 0.2645834,0.1180043 0.2645834,0.2645834 v 2.1166666 c 0,0.146579 -0.1180044,0.2645833 -0.2645834,0.2645833 H 1.3229166 c -0.146579,0 -0.2645833,-0.1180043 -0.2645833,-0.2645833 V 2.9104167 c 0,-0.1465791 0.1180043,-0.2645834 0.2645833,-0.2645834 z" />
  <rect
     style="opacity:1;fill:#dedede;fill-opacity:1;stroke-width:0.264583"
     id="rect10501"
     width="4.7624998"
     height="3.7041667"
     x="1.8520833"
     y="4.2333331"
     ry="0.26458332" />
  <path
     d="m 2.1166666,4.2333332 c -0.1465792,0 -0.2645833,0.1180041 -0.2645833,0.2645833 v 3.175 c 0,0.1465791 0.1180041,0.2645833 0.2645833,0.2645833 h 4.2333333 c 0.1465792,0 0.2645833,-0.1180042 0.2645833,-0.2645833 v -3.175 c 0,-0.1465792 -0.1180041,-0.2645833 -0.2645833,-0.2645833 V 7.4083331 H 2.1166666 Z"
     style="fill-opacity:1;stroke-width:0.264583;fill:#000000;opacity:0.5"
     id="path8197" />
</svg>
