<?xml version="1.0" encoding="UTF-8" standalone="no"?>
<!-- Created with Inkscape (http://www.inkscape.org/) -->

<svg
   width="24"
   height="24"
   viewBox="0 0 6.3499999 6.3499999"
   version="1.1"
   id="svg5"
   inkscape:version="1.2 (dc2aedaf03, 2022-05-15)"
   sodipodi:docname="accessories-dictionary.svg"
   xmlns:inkscape="http://www.inkscape.org/namespaces/inkscape"
   xmlns:sodipodi="http://sodipodi.sourceforge.net/DTD/sodipodi-0.dtd"
   xmlns="http://www.w3.org/2000/svg"
   xmlns:svg="http://www.w3.org/2000/svg">
  <sodipodi:namedview
     id="namedview7"
     pagecolor="#ffffff"
     bordercolor="#666666"
     borderopacity="1.0"
     inkscape:pageshadow="2"
     inkscape:pageopacity="0.0"
     inkscape:pagecheckerboard="0"
     inkscape:document-units="px"
     showgrid="false"
     units="px"
     height="48px"
     inkscape:zoom="33.333333"
     inkscape:cx="12"
     inkscape:cy="12"
     inkscape:window-width="1920"
     inkscape:window-height="1016"
     inkscape:window-x="0"
     inkscape:window-y="0"
     inkscape:window-maximized="1"
     inkscape:current-layer="svg5"
     inkscape:showpageshadow="2"
     inkscape:deskcolor="#d1d1d1" />
  <defs
     id="defs2" />
  <rect
     style="opacity:1;fill:#560c00;fill-opacity:1;stroke-width:0.264583"
     id="rect1162"
     width="5.2916665"
     height="6.0854168"
     x="0.52916664"
     y="0.26458332"
     ry="0.39687499" />
  <rect
     style="opacity:1;fill:#dedede;fill-opacity:1;stroke-width:0.529167;stroke-linecap:round;stroke-linejoin:round"
     id="rect977"
     width="4.7624998"
     height="5.5562501"
     x="0.79374999"
     y="0.52916664"
     ry="0.26458332" />
  <rect
     style="opacity:1;fill:#560c00;fill-opacity:1;stroke-width:0.264583"
     id="rect4725"
     width="4.7624998"
     height="5.5562501"
     x="0.52916664"
     y="0"
     ry="0.39687499" />
  <rect
     style="opacity:1;fill:#f15d22;fill-opacity:1;stroke-width:0.264583"
     id="rect6179"
     width="4.2333331"
     height="5.0270834"
     x="0.79374999"
     y="0.26458332"
     ry="0.26458332" />
  <path
     d="M 2.9104166,2.9104166 H 3.4395833 V 3.175 H 2.9104166 Z m -0.79375,-0.79375 C 1.8235083,2.1166666 1.5875,2.352675 1.5875,2.6458333 V 3.7041666 H 1.8520833 V 3.175 H 2.38125 V 3.7041666 H 2.6458333 V 2.6458333 c 0,-0.2931583 -0.2360083,-0.5291667 -0.5291667,-0.5291667 z m 0,0.2645834 c 0.1465792,0 0.2645834,0.1180041 0.2645834,0.2645833 V 2.9104166 H 1.8520833 V 2.6458333 c 0,-0.1465792 0.1180042,-0.2645833 0.2645833,-0.2645833 z m 1.5875,-0.2645834 V 2.38125 h 0.635 l -0.635,1.0583333 V 3.7041666 H 4.7624999 V 3.4395833 h -0.635 l 0.635,-1.0583333 V 2.1166666 H 4.4979166 Z"
     style="opacity:0.2;fill:#000000;fill-opacity:1;stroke-width:0.264583"
     id="path10545"
     sodipodi:nodetypes="cccccssccccccssssccsscccccccccccc" />
  <path
     d="M 2.9104166,2.6458333 H 3.4395833 V 2.9104167 H 2.9104166 Z m -0.79375,-0.79375 C 1.8235083,1.8520833 1.5875,2.0880917 1.5875,2.38125 V 3.4395833 H 1.8520833 V 2.9104167 H 2.38125 V 3.4395833 H 2.6458333 V 2.38125 c 0,-0.2931583 -0.2360083,-0.5291667 -0.5291667,-0.5291667 z m 0,0.2645834 c 0.1465792,0 0.2645834,0.1180041 0.2645834,0.2645833 V 2.6458333 H 1.8520833 V 2.38125 c 0,-0.1465792 0.1180042,-0.2645833 0.2645833,-0.2645833 z m 1.5875,-0.2645834 v 0.2645834 h 0.635 L 3.7041666,3.175 V 3.4395833 H 4.7624999 V 3.175 h -0.635 l 0.635,-1.0583333 V 1.8520833 H 4.4979166 Z"
     style="opacity:1;fill:#ededed;fill-opacity:1;stroke-width:0.264583"
     id="path11299" />
  <path
     id="rect9449"
     style="opacity:1;fill:#350700;stroke-width:0.264583"
     d="M 1.0583333,0.26458332 H 1.3229167 V 6.0854165 H 1.0583333 c -0.14657915,0 -0.26458331,-0.1180041 -0.26458331,-0.2645833 V 0.52916664 c 0,-0.14657916 0.11800416,-0.26458332 0.26458331,-0.26458332 z"
     sodipodi:nodetypes="sccssss" />
</svg>
