<?xml version="1.0" encoding="UTF-8" standalone="no"?>
<!-- Created with Inkscape (http://www.inkscape.org/) -->

<svg
   width="24"
   height="24"
   viewBox="0 0 6.3499999 6.3499999"
   version="1.1"
   id="svg5"
   inkscape:version="1.2 (dc2aedaf03, 2022-05-15)"
   sodipodi:docname="accessories-clipboard.svg"
   xmlns:inkscape="http://www.inkscape.org/namespaces/inkscape"
   xmlns:sodipodi="http://sodipodi.sourceforge.net/DTD/sodipodi-0.dtd"
   xmlns="http://www.w3.org/2000/svg"
   xmlns:svg="http://www.w3.org/2000/svg">
  <sodipodi:namedview
     id="namedview7"
     pagecolor="#ffffff"
     bordercolor="#666666"
     borderopacity="1.0"
     inkscape:pageshadow="2"
     inkscape:pageopacity="0.0"
     inkscape:pagecheckerboard="0"
     inkscape:document-units="px"
     showgrid="false"
     units="px"
     height="48px"
     inkscape:zoom="26.684314"
     inkscape:cx="11.504886"
     inkscape:cy="14.353002"
     inkscape:window-width="1846"
     inkscape:window-height="1011"
     inkscape:window-x="0"
     inkscape:window-y="0"
     inkscape:window-maximized="1"
     inkscape:current-layer="svg5"
     inkscape:showpageshadow="2"
     inkscape:deskcolor="#d1d1d1" />
  <defs
     id="defs2" />
  <rect
     style="opacity:1;fill:#50443f;fill-opacity:1;stroke-width:0.264583"
     id="rect1162"
     width="5.2916665"
     height="5.8208332"
     x="0.52916664"
     y="0.52916664"
     ry="0.66145831" />
  <rect
     style="opacity:1;fill:#a1887f;fill-opacity:1;stroke-width:0.264583"
     id="rect3620"
     width="4.7624998"
     height="5.2916665"
     x="0.79374999"
     y="0.79374999"
     ry="0.39687499" />
  <rect
     style="fill:#ffffff;fill-opacity:1;stroke-width:0.442733"
     id="rect2331"
     width="3.7041667"
     height="4.2333331"
     x="1.3229166"
     y="1.3229166" />
  <path
     id="rect797"
     style="fill:#666666;stroke-width:0.529167;stroke-linejoin:round;fill-opacity:1"
     d="m 3.1749999,0 c 0.4397375,0 0.79375,0.35401249 0.79375,0.79374999 V 1.5874999 H 2.38125 V 0.79374999 C 2.38125,0.35401249 2.7352625,0 3.1749999,0 Z"
     sodipodi:nodetypes="ssccss" />
  <path
     id="rect3585"
     style="fill:#cccccc;stroke-width:0.529167;stroke-linejoin:round"
     d="M 3.1610473 0.26458333 C 2.8742709 0.27180036 2.6458333 0.50517255 2.6458333 0.79374999 L 2.6458333 1.0583333 L 2.38125 1.0583333 C 2.2346709 1.0583333 2.1166666 1.1763376 2.1166666 1.3229166 L 2.1166666 1.5875 L 4.2333333 1.5875 L 4.2333333 1.3229166 C 4.2333333 1.1763376 4.115329 1.0583333 3.9687499 1.0583333 L 3.7041666 1.0583333 L 3.7041666 0.79374999 C 3.7041666 0.50059196 3.468158 0.26458333 3.175 0.26458333 C 3.1704194 0.26458333 3.1655993 0.26446877 3.1610473 0.26458333 z " />
  <circle
     style="fill:#ffffff;fill-opacity:1;stroke-width:0.529167;stroke-linejoin:round"
     id="path6860"
     cx="3.175"
     cy="0.79374999"
     r="0.26458332" />
</svg>
