<?xml version="1.0" encoding="UTF-8" standalone="no"?>
<!-- Created with Inkscape (http://www.inkscape.org/) -->

<svg
   width="24"
   height="24"
   viewBox="0 0 6.3499999 6.3499999"
   version="1.1"
   id="svg5"
   inkscape:version="1.1.2 (0a00cf5339, 2022-02-04, custom)"
   sodipodi:docname="accessories-screenshot.svg"
   xmlns:inkscape="http://www.inkscape.org/namespaces/inkscape"
   xmlns:sodipodi="http://sodipodi.sourceforge.net/DTD/sodipodi-0.dtd"
   xmlns="http://www.w3.org/2000/svg"
   xmlns:svg="http://www.w3.org/2000/svg">
  <sodipodi:namedview
     id="namedview7"
     pagecolor="#ffffff"
     bordercolor="#666666"
     borderopacity="1.0"
     inkscape:pageshadow="2"
     inkscape:pageopacity="0.0"
     inkscape:pagecheckerboard="0"
     inkscape:document-units="px"
     showgrid="false"
     units="px"
     height="48px"
     inkscape:zoom="17.699767"
     inkscape:cx="7.4859743"
     inkscape:cy="11.864563"
     inkscape:window-width="1920"
     inkscape:window-height="1002"
     inkscape:window-x="0"
     inkscape:window-y="0"
     inkscape:window-maximized="1"
     inkscape:current-layer="svg5"
     showguides="false" />
  <defs
     id="defs2" />
  <rect
     style="opacity:1;fill:#6f6f6f;fill-opacity:1;stroke-width:0.264583"
     id="rect1162"
     width="6.3499999"
     height="5.2916665"
     x="0"
     y="0.52916664"
     ry="0.52916664" />
  <rect
     style="opacity:1;fill:#dedede;fill-opacity:1;stroke-width:0.383418"
     id="rect1437"
     width="5.8208332"
     height="4.7624998"
     x="0.26458332"
     y="0.79374999"
     ry="0.39687499" />
  <rect
     style="fill:#48b9c7;fill-opacity:1;stroke-width:0.547741;stroke-linecap:round;stroke-linejoin:round"
     id="rect1282"
     width="5.2916665"
     height="3.96875"
     x="0.52916664"
     y="1.0583333" />
  <path
     d="M 0.79374999,1.5875 V 2.6458333 H 1.0583333 v -0.79375 H 2.1166666 V 1.5875 H 1.0583333 Z m 3.43958331,0 v 0.2645833 h 1.0583333 v 0.79375 H 5.5562499 V 1.5875 H 5.2916666 Z M 0.79374999,3.96875 V 5.0270833 H 2.1166666 V 4.7625 H 1.0583333 V 3.96875 Z m 4.49791661,0 V 4.7625 H 4.2333333 V 5.0270833 H 5.5562499 V 3.96875 Z"
     id="path1254"
     style="opacity:0.2;fill:#000000;stroke-width:0.264583"
     sodipodi:nodetypes="cccccccccccccccccccccccccccccc" />
  <path
     d="m 0.79375,1.3229166 v 1.0583333 h 0.2645833 v -0.79375 H 2.1166666 V 1.3229166 H 1.0583333 Z m 3.4395833,0 v 0.2645833 h 1.0583333 v 0.79375 H 5.5562499 V 1.3229166 H 5.2916666 Z M 0.79375,3.7041665 V 4.7624999 H 2.1166666 V 4.4979166 H 1.0583333 V 3.7041665 Z m 4.4979166,0 V 4.4979166 H 4.2333333 V 4.7624999 H 5.5562499 V 3.7041665 Z"
     style="opacity:1;fill:#ffffff;stroke-width:0.0700042"
     id="path1584" />
</svg>
