<?xml version="1.0" encoding="UTF-8" standalone="no"?>
<!-- Created with Inkscape (http://www.inkscape.org/) -->

<svg
   width="24"
   height="24"
   viewBox="0 0 6.3499999 6.3499999"
   version="1.1"
   id="svg5"
   inkscape:version="1.1.2 (0a00cf5339, 2022-02-04, custom)"
   sodipodi:docname="accessories-clock.svg"
   xmlns:inkscape="http://www.inkscape.org/namespaces/inkscape"
   xmlns:sodipodi="http://sodipodi.sourceforge.net/DTD/sodipodi-0.dtd"
   xmlns="http://www.w3.org/2000/svg"
   xmlns:svg="http://www.w3.org/2000/svg">
  <sodipodi:namedview
     id="namedview7"
     pagecolor="#ffffff"
     bordercolor="#666666"
     borderopacity="1.0"
     inkscape:pageshadow="2"
     inkscape:pageopacity="0.0"
     inkscape:pagecheckerboard="0"
     inkscape:document-units="px"
     showgrid="false"
     units="px"
     height="48px"
     inkscape:zoom="16.208334"
     inkscape:cx="0.89460153"
     inkscape:cy="13.326478"
     inkscape:window-width="1920"
     inkscape:window-height="1002"
     inkscape:window-x="0"
     inkscape:window-y="0"
     inkscape:window-maximized="1"
     inkscape:current-layer="svg5"
     showguides="false" />
  <defs
     id="defs2" />
  <rect
     style="opacity:1;fill:#f6f6f6;fill-opacity:1;stroke-width:0.264583"
     id="rect1162"
     width="5.8208332"
     height="5.8208332"
     x="0.26458332"
     y="0.26458332"
     ry="2.1166666" />
  <path
     d="M 4.8131854,2.3019728 C 4.7834277,2.2352872 4.7052675,2.2053258 4.6385604,2.2350332 L 3.0674646,2.9343269 c -0.1334696,0.059415 -0.1935218,0.2157624 -0.1341437,0.34925 0.059415,0.1334691 0.215764,0.1935216 0.34925,0.1341438 0.023828,-0.010716 0.045941,-0.024871 0.065617,-0.042069 l 1.398058,-0.8990539 c 0.066684,-0.029758 0.096645,-0.1079183 0.06694,-0.174625 z"
     style="fill:#2b2928;stroke-width:0.264583"
     id="path1348" />
  <path
     d="m 3.8339625,4.3286811 c 0.066684,-0.029758 0.096645,-0.1079183 0.06694,-0.174625 L 3.4167146,3.066354 C 3.3572996,2.9328823 3.2009506,2.8728325 3.0674646,2.9322103 2.933995,2.9916253 2.8739428,3.1479727 2.9333209,3.2814603 c 0.015531,0.034708 0.038364,0.065662 0.06694,0.090752 l 0.6588125,0.8895292 c 0.029759,0.066831 0.1081121,0.096822 0.1748891,0.06694 z"
     style="fill:#474341;stroke-width:0.264583"
     id="path1228" />
  <path
     id="rect1055"
     style="opacity:0.5;fill:#000000;fill-opacity:1;stroke-width:2;stroke-linecap:round;stroke-linejoin:round"
     d="M 9 1 C 4.5680002 1 1 4.5680002 1 9 L 1 15 C 1 19.432 4.5680002 23 9 23 L 15 23 C 19.432 23 23 19.432 23 15 L 23 9 C 23 4.5680002 19.432 1 15 1 L 9 1 z M 9.5 2 L 14.5 2 C 18.655 2 22 5.3449999 22 9.5 L 22 14.5 C 22 18.655 18.655 22 14.5 22 L 9.5 22 C 5.3449999 22 2 18.655 2 14.5 L 2 9.5 C 2 5.3449999 5.3449999 2 9.5 2 z "
     transform="scale(0.26458333)" />
  <path
     id="rect212"
     d="m 3.1749999,0.79374999 c -0.1465791,0 -0.2645833,0.1180042 -0.2645833,0.26458331 v 0.2645834 c 0,0.1465791 0.1180042,0.2645833 0.2645833,0.2645833 0.1465792,0 0.2645834,-0.1180042 0.2645834,-0.2645833 V 1.0583333 c 0,-0.14657911 -0.1180042,-0.26458331 -0.2645834,-0.26458331 z M 1.0583333,2.9104166 c -0.14657914,0 -0.26458331,0.1180042 -0.26458331,0.2645834 0,0.1465791 0.11800417,0.2645833 0.26458331,0.2645833 H 1.3229166 C 1.4694958,3.4395833 1.5875,3.3215791 1.5875,3.175 1.5875,3.0284208 1.4694958,2.9104166 1.3229166,2.9104166 Z m 3.96875,0 c -0.1465792,0 -0.2645834,0.1180042 -0.2645834,0.2645834 0,0.1465791 0.1180042,0.2645833 0.2645834,0.2645833 h 0.2645833 c 0.1465791,0 0.2645833,-0.1180042 0.2645833,-0.2645833 0,-0.1465792 -0.1180042,-0.2645834 -0.2645833,-0.2645834 z M 3.1749999,4.7624999 c -0.1465791,0 -0.2645833,0.1180042 -0.2645833,0.2645834 v 0.2645833 c 0,0.1465792 0.1180042,0.2645833 0.2645833,0.2645833 0.1465792,0 0.2645834,-0.1180041 0.2645834,-0.2645833 V 5.0270833 c 0,-0.1465792 -0.1180042,-0.2645834 -0.2645834,-0.2645834 z"
     style="fill:#333333;fill-opacity:1;stroke-width:0.264583" />
</svg>
