<?xml version="1.0" encoding="UTF-8" standalone="no"?>
<!-- Created with Inkscape (http://www.inkscape.org/) -->

<svg
   width="24"
   height="24"
   viewBox="0 0 6.3499999 6.3499999"
   version="1.1"
   id="svg5"
   inkscape:version="1.2 (dc2aedaf03, 2022-05-15)"
   sodipodi:docname="application-games.svg"
   xmlns:inkscape="http://www.inkscape.org/namespaces/inkscape"
   xmlns:sodipodi="http://sodipodi.sourceforge.net/DTD/sodipodi-0.dtd"
   xmlns="http://www.w3.org/2000/svg"
   xmlns:svg="http://www.w3.org/2000/svg">
  <sodipodi:namedview
     id="namedview7"
     pagecolor="#ffffff"
     bordercolor="#666666"
     borderopacity="1.0"
     inkscape:pageshadow="2"
     inkscape:pageopacity="0.0"
     inkscape:pagecheckerboard="0"
     inkscape:document-units="px"
     showgrid="false"
     units="px"
     height="48px"
     inkscape:zoom="13.342157"
     inkscape:cx="-1.7613344"
     inkscape:cy="9.4812256"
     inkscape:window-width="1920"
     inkscape:window-height="1016"
     inkscape:window-x="0"
     inkscape:window-y="0"
     inkscape:window-maximized="1"
     inkscape:current-layer="svg5"
     inkscape:showpageshadow="2"
     inkscape:deskcolor="#d1d1d1" />
  <defs
     id="defs2" />
  <rect
     style="opacity:1;fill:#3f51b5;fill-opacity:1;stroke-width:0.264583"
     id="rect1162"
     width="5.8208332"
     height="5.8208332"
     x="0.26458332"
     y="0.26458332"
     ry="0.66145831" />
  <path
     id="rect1014"
     style="opacity:0.5;fill:#000000;stroke-width:0.999999"
     d="M 3.5,1 C 2.115,1 1,2.115 1,3.5 v 17 C 1,21.885 2.115,23 3.5,23 h 17 C 21.885,23 23,21.885 23,20.5 V 3.5 C 23,2.115 21.885,1 20.5,1 Z M 4,2 h 16 c 1.108,0 2,0.892 2,2 v 16 c 0,1.108 -0.892,2 -2,2 H 4 C 2.892,22 2,21.108 2,20 V 4 C 2,2.892 2.892,2 4,2 Z"
     transform="scale(0.26458333)"
     sodipodi:nodetypes="ssssssssssssssssss" />
  <path
     d="m 1.8513214,1.3229166 c -0.1465975,0 -0.2645817,0.117984 -0.2645817,0.2645815 L 1.0679112,4.6947753 c -1.399e-4,5.291e-4 -3.783e-4,0.001 -5.159e-4,0.00156 -0.00542,0.02117 -0.00827,0.043241 -0.00827,0.066145 0,0.1465974 0.117984,0.2650993 0.2645815,0.2650993 0.1191092,0 0.2192906,-0.078188 0.2526963,-0.1860337 L 2.1174499,3.9594376 h 2.0861636 l 0.5699862,0.8826242 c 0.033545,0.1076047 0.1337569,0.1855185 0.2526933,0.1855185 0.1465976,0 0.2645815,-0.118502 0.2645815,-0.2650993 0,-0.019621 -0.0022,-0.03846 -0.0062,-0.056843 h 5.291e-4 L 4.763263,1.5781964 H 4.761723 C 4.7567593,1.4360221 4.6405582,1.3229166 4.4971338,1.3229166 H 3.9679706 c -0.1434216,0 -0.2591076,0.1131084 -0.2640634,0.2552798 H 2.645063 C 2.6401099,1.4360221 2.5239088,1.3229166 2.3804844,1.3229166 Z M 2.5138066,1.8432929 H 2.778388 c 0.07352,0 0.1322922,0.05907 0.1322922,0.1322892 v 0.396874 H 3.307551 c 0.073223,0 0.1322893,0.059066 0.1322893,0.1322892 V 2.7693267 C 3.4400802,2.8424877 3.3807123,2.9018573 3.307551,2.901619 H 2.9106802 V 3.29849 C 2.9109186,3.371651 2.8515492,3.431019 2.778388,3.430779 H 2.5138066 C 2.4406467,3.4310174 2.381279,3.3716496 2.3815173,3.29849 V 2.901619 H 1.9846434 C 1.9114825,2.9018573 1.8521144,2.8424878 1.8523541,2.7693267 V 2.5047453 c 0,-0.072926 0.058768,-0.1322892 0.1322893,-0.1322892 h 0.3968739 v -0.396874 c 0,-0.07322 0.059066,-0.1322892 0.1322893,-0.1322892 z m 1.4061049,0.00465 c 0.015632,0.00285 0.031578,0.00413 0.048059,0.00413 h 0.068214 C 4.150099,1.881741 4.234103,1.9844258 4.234103,2.1078748 4.2344205,2.2543312 4.115459,2.3730559 3.9690034,2.3724563 3.8227501,2.3727738 3.7041101,2.2541282 3.704422,2.1078748 3.704422,1.978044 3.79696,1.87099 3.9199115,1.8479455 Z M 4.234103,2.6370376 c 0.1464457,0 0.2640634,0.1183533 0.2640634,0.2650967 0,0.146743 -0.1178381,0.2640633 -0.2645814,0.2640633 -0.1464457,0 -0.2645816,-0.1178352 -0.2645816,-0.2645784 0,-0.1467434 0.1183562,-0.2645816 0.2650996,-0.2645816 z"
     style="fill:#fafafb;fill-opacity:1;stroke-width:0.264581"
     id="path1035" />
</svg>
