<?xml version="1.0" encoding="UTF-8" standalone="no"?>
<!-- Created with Inkscape (http://www.inkscape.org/) -->

<svg
   width="24"
   height="24"
   viewBox="0 0 6.3499999 6.3499999"
   version="1.1"
   id="svg5"
   inkscape:version="1.2 (dc2aedaf03, 2022-05-15)"
   sodipodi:docname="applications-office.svg"
   xmlns:inkscape="http://www.inkscape.org/namespaces/inkscape"
   xmlns:sodipodi="http://sodipodi.sourceforge.net/DTD/sodipodi-0.dtd"
   xmlns="http://www.w3.org/2000/svg"
   xmlns:svg="http://www.w3.org/2000/svg">
  <sodipodi:namedview
     id="namedview7"
     pagecolor="#ffffff"
     bordercolor="#666666"
     borderopacity="1.0"
     inkscape:pageshadow="2"
     inkscape:pageopacity="0.0"
     inkscape:pagecheckerboard="0"
     inkscape:document-units="px"
     showgrid="false"
     units="px"
     height="48px"
     inkscape:zoom="13.342157"
     inkscape:cx="-4.3845984"
     inkscape:cy="9.3688"
     inkscape:window-width="1920"
     inkscape:window-height="1016"
     inkscape:window-x="0"
     inkscape:window-y="0"
     inkscape:window-maximized="1"
     inkscape:current-layer="svg5"
     inkscape:showpageshadow="2"
     inkscape:deskcolor="#d1d1d1" />
  <defs
     id="defs2" />
  <rect
     style="opacity:1;fill:#faa41a;fill-opacity:1;stroke-width:0.264583"
     id="rect1162"
     width="5.8208332"
     height="5.8208332"
     x="0.26458332"
     y="0.26458332"
     ry="0.66145831" />
  <path
     d="m 1.8520833,1.5875 c -0.5291667,0 -0.5291667,0.5291666 -0.5291667,0.5291666 v 2.6458333 c 0,0.5291667 0.5291667,0.5291667 0.5291667,0.5291667 h 2.6458333 c 0,0 0.5291666,0 0.5291666,-0.5291667 V 2.1166666 C 5.0270832,1.5875 4.4979166,1.5875 4.4979166,1.5875 H 3.9687499 Z m 0,0.5302249 H 3.9687499 V 2.3823083 H 1.8520833 Z m 0,0.79375 H 4.2333332 V 3.1760582 H 1.8520833 Z m 0,0.79375 H 3.4395832 V 3.9698082 H 1.8520833 Z m 0,0.79375 H 4.2333332 V 4.7635582 H 1.8520833 Z"
     style="fill:#000000;stroke-width:0.264583;opacity:0.2"
     id="path1786" />
  <path
     d="m 1.8520834,1.3229166 c -0.5291667,0 -0.5291667,0.5291667 -0.5291667,0.5291667 v 2.6458333 c 0,0.5291667 0.5291667,0.5291667 0.5291667,0.5291667 h 2.6458333 c 0,0 0.5291666,0 0.5291666,-0.5291667 V 1.8520833 c 0,-0.5291667 -0.5291666,-0.5291667 -0.5291666,-0.5291667 H 3.96875 Z m 0,0.530225 H 3.96875 V 2.117725 H 1.8520834 Z m 0,0.79375 H 4.2333333 V 2.9114749 H 1.8520834 Z m 0,0.79375 H 3.4395833 V 3.7052249 H 1.8520834 Z m 0,0.79375 H 4.2333333 V 4.4989749 H 1.8520834 Z"
     style="fill:#ffffff;stroke-width:0.264583"
     id="path304"
     sodipodi:nodetypes="scsccssccscccccccccccccccccccc" />
  <path
     id="rect1014"
     style="opacity:0.5;fill:#000000;stroke-width:0.999999"
     d="M 3.5,1 C 2.115,1 1,2.115 1,3.5 v 17 C 1,21.885 2.115,23 3.5,23 h 17 C 21.885,23 23,21.885 23,20.5 V 3.5 C 23,2.115 21.885,1 20.5,1 Z M 4,2 h 16 c 1.108,0 2,0.892 2,2 v 16 c 0,1.108 -0.892,2 -2,2 H 4 C 2.892,22 2,21.108 2,20 V 4 C 2,2.892 2.892,2 4,2 Z"
     transform="scale(0.26458333)"
     sodipodi:nodetypes="ssssssssssssssssss" />
</svg>
