<?xml version="1.0" encoding="UTF-8" standalone="no"?>
<!-- Created with Inkscape (http://www.inkscape.org/) -->

<svg
   width="24"
   height="24"
   viewBox="0 0 6.3499999 6.3499999"
   version="1.1"
   id="svg5"
   inkscape:version="1.2 (dc2aedaf03, 2022-05-15)"
   sodipodi:docname="applications-science.svg"
   xmlns:inkscape="http://www.inkscape.org/namespaces/inkscape"
   xmlns:sodipodi="http://sodipodi.sourceforge.net/DTD/sodipodi-0.dtd"
   xmlns="http://www.w3.org/2000/svg"
   xmlns:svg="http://www.w3.org/2000/svg">
  <sodipodi:namedview
     id="namedview7"
     pagecolor="#ffffff"
     bordercolor="#666666"
     borderopacity="1.0"
     inkscape:pageshadow="2"
     inkscape:pageopacity="0.0"
     inkscape:pagecheckerboard="0"
     inkscape:document-units="px"
     showgrid="false"
     units="px"
     height="48px"
     inkscape:zoom="32.416667"
     inkscape:cx="12.030848"
     inkscape:cy="14.467866"
     inkscape:window-width="1846"
     inkscape:window-height="1011"
     inkscape:window-x="0"
     inkscape:window-y="0"
     inkscape:window-maximized="1"
     inkscape:current-layer="svg5"
     showguides="false"
     inkscape:showpageshadow="2"
     inkscape:deskcolor="#d1d1d1" />
  <defs
     id="defs2" />
  <rect
     style="opacity:1;fill:#479863;fill-opacity:1;stroke-width:0.264583"
     id="rect1162"
     width="5.8208332"
     height="5.8208332"
     x="0.26458332"
     y="0.26458332"
     ry="0.66145831" />
  <path
     id="rect1161"
     style="opacity:0.5;fill:#000000;stroke-width:0.264583"
     d="M 0.92604165 0.26458333 C 0.55959411 0.26458333 0.26458333 0.55959411 0.26458333 0.92604165 L 0.26458333 5.4239582 C 0.26458333 5.7904058 0.55959411 6.0854166 0.92604165 6.0854166 L 5.4239582 6.0854166 C 5.7904058 6.0854166 6.0854166 5.7904058 6.0854166 5.4239582 L 6.0854166 0.92604165 C 6.0854166 0.55959411 5.7904058 0.26458333 5.4239582 0.26458333 L 0.92604165 0.26458333 z M 1.0583333 0.52916666 L 5.2916666 0.52916666 C 5.5848246 0.52916666 5.8208332 0.76517529 5.8208332 1.0583333 L 5.8208332 5.2916666 C 5.8208332 5.5848246 5.5848246 5.8208332 5.2916666 5.8208332 L 1.0583333 5.8208332 C 0.76517529 5.8208332 0.52916666 5.5848246 0.52916666 5.2916666 L 0.52916666 1.0583333 C 0.52916666 0.76517529 0.76517529 0.52916666 1.0583333 0.52916666 z " />
  <g
     id="g18784"
     transform="translate(0,0.26458332)"
     style="fill:#000000;opacity:0.2">
    <path
       d="M 2.3838611,1.0715625 C 2.1111416,1.0714858 2.0166602,1.4341157 2.2547444,1.5671271 l 0.130175,0.072231 V 2.3489708 C 2.3505236,2.4029458 2.3187736,2.4513646 2.2685028,2.5381479 2.1965361,2.662502 2.1084298,2.8186062 2.0129153,2.9897916 1.8170627,3.3411768 1.6227683,3.6934298 1.4300382,4.0465374 1.2784319,4.3235562 1.2842528,4.6958249 1.5094132,4.9762833 c 0.1783291,0.238125 0.4598458,0.301625 0.6932083,0.301625 h 1.9438937 c 0.2330979,0 0.5148792,-0.0635 0.6932084,-0.301625 C 5.0646194,4.6960895 5.069911,4.3246145 4.9190986,4.0475958 v -0.00106 C 4.6113881,3.4200041 4.2645194,2.9307895 3.9766527,2.3545271 V 1.6393583 L 4.1062986,1.5671271 C 4.34426,1.4341845 4.2500253,1.0717583 3.9774465,1.0715625 Z m 0.530225,0.5291667 h 0.5331354 v 0.8220604 c -3e-7,0.040357 0.00923,0.080177 0.026988,0.1164166 0.3180291,0.6500813 0.6810375,1.1490854 0.9752541,1.7507479 0.00169,0.00357 0.00345,0.00709 0.00529,0.010583 0.063235,0.1158875 0.06694,0.2333625 -0.026458,0.3476625 -0.00328,0.00378 -0.00646,0.00767 -0.00953,0.011642 -0.0381,0.052652 -0.1293813,0.0889 -0.2722563,0.0889 H 2.2023569 c -0.142875,0 -0.2338916,-0.036248 -0.2722562,-0.0889 -0.00298,-0.00397 -0.00606,-0.00786 -0.00926,-0.011642 -0.093662,-0.1143 -0.089958,-0.231775 -0.026458,-0.347927 0.1917642,-0.3515175 0.3850884,-0.702183 0.5799667,-1.0519834 0.094721,-0.1698625 0.1825625,-0.3243791 0.2521479,-0.4445 0.069585,-0.1201208 0.1296458,-0.2156354 0.1367896,-0.2254249 0.032949,-0.045186 0.050734,-0.09965 0.0508,-0.155575 z"
       style="font-variant-ligatures:normal;font-variant-position:normal;font-variant-caps:normal;font-variant-numeric:normal;font-variant-alternates:normal;font-feature-settings:normal;text-indent:0;text-decoration-line:none;text-decoration-style:solid;text-decoration-color:#000000;text-transform:none;text-orientation:mixed;white-space:normal;shape-padding:0;isolation:auto;mix-blend-mode:normal;stroke-width:0.264583;fill:#000000"
       id="path17252"
       sodipodi:nodetypes="ccccccccssccccccccccccccccssccccsccc" />
    <path
       d="M 2.7040069,3.4263541 2.1168965,4.4844229 H 4.2335631 L 3.6464527,3.4263541 Z"
       style="opacity:0.5;stroke-width:0.264583;fill:#000000"
       id="path17280"
       sodipodi:nodetypes="ccccc" />
  </g>
  <g
     id="g18780"
     style="fill:#ffffff">
    <path
       d="M 2.3838611,1.0715625 C 2.1111416,1.0714858 2.0166602,1.4341157 2.2547444,1.5671271 l 0.130175,0.072231 V 2.3489708 C 2.3505236,2.4029458 2.3187736,2.4513646 2.2685028,2.5381479 2.1965361,2.662502 2.1084298,2.8186062 2.0129153,2.9897916 1.8170627,3.3411768 1.6227683,3.6934298 1.4300382,4.0465374 1.2784319,4.3235562 1.2842528,4.6958249 1.5094132,4.9762833 c 0.1783291,0.238125 0.4598458,0.301625 0.6932083,0.301625 h 1.9438937 c 0.2330979,0 0.5148792,-0.0635 0.6932084,-0.301625 C 5.0646194,4.6960895 5.069911,4.3246145 4.9190986,4.0475958 v -0.00106 C 4.6113881,3.4200041 4.2645194,2.9307895 3.9766527,2.3545271 V 1.6393583 L 4.1062986,1.5671271 C 4.34426,1.4341845 4.2500253,1.0717583 3.9774465,1.0715625 Z m 0.530225,0.5291667 h 0.5331354 v 0.8220604 c -3e-7,0.040357 0.00923,0.080177 0.026988,0.1164166 0.3180291,0.6500813 0.6810375,1.1490854 0.9752541,1.7507479 0.00169,0.00357 0.00345,0.00709 0.00529,0.010583 0.063235,0.1158875 0.06694,0.2333625 -0.026458,0.3476625 -0.00328,0.00378 -0.00646,0.00767 -0.00953,0.011642 -0.0381,0.052652 -0.1293813,0.0889 -0.2722563,0.0889 H 2.2023569 c -0.142875,0 -0.2338916,-0.036248 -0.2722562,-0.0889 -0.00298,-0.00397 -0.00606,-0.00786 -0.00926,-0.011642 -0.093662,-0.1143 -0.089958,-0.231775 -0.026458,-0.347927 0.1917642,-0.3515175 0.3850884,-0.702183 0.5799667,-1.0519834 0.094721,-0.1698625 0.1825625,-0.3243791 0.2521479,-0.4445 0.069585,-0.1201208 0.1296458,-0.2156354 0.1367896,-0.2254249 0.032949,-0.045186 0.050734,-0.09965 0.0508,-0.155575 z"
       style="font-variant-ligatures:normal;font-variant-position:normal;font-variant-caps:normal;font-variant-numeric:normal;font-variant-alternates:normal;font-feature-settings:normal;text-indent:0;text-decoration-line:none;text-decoration-style:solid;text-decoration-color:#000000;text-transform:none;text-orientation:mixed;white-space:normal;shape-padding:0;isolation:auto;mix-blend-mode:normal;stroke-width:0.264583;fill:#ffffff"
       id="path18758" />
    <path
       d="M 2.7031384,3.4263541 2.116028,4.4844229 H 4.2326946 L 3.6455842,3.4263541 Z"
       style="opacity:0.5;stroke-width:0.264583;fill:#ffffff"
       id="path18730" />
  </g>
</svg>
