<?xml version="1.0" encoding="UTF-8" standalone="no"?>
<!-- Created with Inkscape (http://www.inkscape.org/) -->

<svg
   width="24"
   height="24"
   viewBox="0 0 6.3499999 6.3499999"
   version="1.1"
   id="svg5"
   inkscape:version="1.2 (dc2aedaf03, 2022-05-15)"
   sodipodi:docname="cuttlefish.svg"
   xmlns:inkscape="http://www.inkscape.org/namespaces/inkscape"
   xmlns:sodipodi="http://sodipodi.sourceforge.net/DTD/sodipodi-0.dtd"
   xmlns="http://www.w3.org/2000/svg"
   xmlns:svg="http://www.w3.org/2000/svg">
  <sodipodi:namedview
     id="namedview7"
     pagecolor="#ffffff"
     bordercolor="#666666"
     borderopacity="1.0"
     inkscape:pageshadow="2"
     inkscape:pageopacity="0.0"
     inkscape:pagecheckerboard="0"
     inkscape:document-units="px"
     showgrid="false"
     units="px"
     height="48px"
     inkscape:zoom="13.342157"
     inkscape:cx="-4.6094496"
     inkscape:cy="9.5187008"
     inkscape:window-width="1920"
     inkscape:window-height="1009"
     inkscape:window-x="0"
     inkscape:window-y="0"
     inkscape:window-maximized="1"
     inkscape:current-layer="svg5"
     inkscape:showpageshadow="2"
     inkscape:deskcolor="#d1d1d1" />
  <defs
     id="defs2" />
  <rect
     style="opacity:1;fill:#ffce51;fill-opacity:1;stroke-width:0.264583"
     id="rect1162"
     width="5.8208332"
     height="5.8208332"
     x="0.26458332"
     y="0.26458332"
     ry="0.66145831" />
  <path
     id="rect1014"
     style="opacity:0.5;fill:#000000;stroke-width:0.999999"
     d="M 3.5,1 C 2.115,1 1,2.115 1,3.5 v 17 C 1,21.885 2.115,23 3.5,23 h 17 C 21.885,23 23,21.885 23,20.5 V 3.5 C 23,2.115 21.885,1 20.5,1 Z M 4,2 h 16 c 1.108,0 2,0.892 2,2 v 16 c 0,1.108 -0.892,2 -2,2 H 4 C 2.892,22 2,21.108 2,20 V 4 C 2,2.892 2.892,2 4,2 Z"
     transform="scale(0.26458333)"
     sodipodi:nodetypes="ssssssssssssssssss" />
  <path
     d="m 3.1658422,1.0589709 c -0.8109482,0 -1.7293172,0.6746878 -1.9288925,1.4215275 -0.093932,0.5621339 0.015467,0.9588239 0.2991909,1.2311595 0.0076,0.079513 0.022786,0.1590227 0.016123,0.2385352 -1.512e-4,0.00235 -6.058e-4,0.00469 -7.533e-4,0.00703 -0.00151,0.014954 -0.00378,0.029901 -0.00724,0.044855 -0.00151,0.00611 -0.00376,0.012293 -0.00558,0.018397 -0.00333,0.011369 -0.00659,0.022733 -0.01137,0.034105 -0.00399,0.00945 -0.00977,0.018865 -0.014877,0.028318 -0.00475,0.00881 -0.00866,0.017637 -0.014469,0.026458 -0.011929,0.018058 -0.025858,0.0361 -0.042789,0.054158 -0.066122,0.06985 -0.1239865,0.1140353 -0.1736012,0.1426103 -0.1488281,0.085989 -0.2232502,0.033073 -0.2232502,0.1389063 0,0.1146519 0.2619244,0.3224214 0.5021,0.2449461 0.036949,-0.011913 0.073432,-0.030453 0.1083126,-0.05726 0.017441,-0.013393 0.03452,-0.028869 0.051057,-0.046508 0.030316,-0.032337 0.056642,-0.062561 0.079994,-0.09095 0.023102,-0.027831 0.042704,-0.053393 0.060359,-0.077724 0.00404,0.035454 0.00171,0.080338 -0.015503,0.1488281 -0.068479,0.2726008 -0.4305567,0.2496615 -0.2571461,0.4431775 0.1343687,0.1499446 0.5360196,0.155742 0.7581903,-0.039067 -0.088556,0.2008187 -0.2231761,0.3212047 0.03556,0.3212047 0.3968752,0 0.7937503,-0.282046 0.7937503,-0.7053798 0,0.4233338 0.3968751,0.7054858 0.7937503,0.7054858 0.2587494,0 0.1241161,-0.1204127 0.035555,-0.3212314 C 4.2264882,5.1653617 4.628147,5.1595704 4.7625021,5.00962 4.9359185,4.8161084 4.5738466,4.8390451 4.5053565,4.5664423 4.4881216,4.4978359 4.4857826,4.4528858 4.4898546,4.4174078 c 0.035832,0.04939 0.080518,0.1050555 0.1403536,0.1688809 0.264583,0.2820457 0.6614583,-2.646e-4 0.6614583,-0.1412875 0,-0.141113 -0.1322914,6.8e-5 -0.3968753,-0.2821518 C 4.7471271,4.0053376 4.8035762,3.8478364 4.8150042,3.6903035 5.1211271,3.4134699 5.2210865,3.0197432 5.0947485,2.4798343 4.8129662,1.6793635 3.9768829,1.0583333 3.1657758,1.0583333 Z"
     style="fill:#393634;fill-opacity:1;stroke-width:0.264583"
     id="path2347" />
</svg>
