<?xml version="1.0" encoding="UTF-8" standalone="no"?>
<!-- Created with Inkscape (http://www.inkscape.org/) -->

<svg
   width="24"
   height="24"
   viewBox="0 0 6.3499999 6.3499999"
   version="1.1"
   id="svg5"
   inkscape:version="1.2 (dc2aedaf03, 2022-05-15)"
   sodipodi:docname="deja-dup.svg"
   xmlns:inkscape="http://www.inkscape.org/namespaces/inkscape"
   xmlns:sodipodi="http://sodipodi.sourceforge.net/DTD/sodipodi-0.dtd"
   xmlns="http://www.w3.org/2000/svg"
   xmlns:svg="http://www.w3.org/2000/svg">
  <sodipodi:namedview
     id="namedview7"
     pagecolor="#ffffff"
     bordercolor="#666666"
     borderopacity="1.0"
     inkscape:pageshadow="2"
     inkscape:pageopacity="0.0"
     inkscape:pagecheckerboard="0"
     inkscape:document-units="px"
     showgrid="false"
     units="px"
     height="48px"
     inkscape:zoom="34.291667"
     inkscape:cx="12"
     inkscape:cy="12"
     inkscape:window-width="1846"
     inkscape:window-height="1011"
     inkscape:window-x="0"
     inkscape:window-y="0"
     inkscape:window-maximized="1"
     inkscape:current-layer="svg5"
     inkscape:showpageshadow="2"
     inkscape:deskcolor="#d1d1d1"
     showguides="false" />
  <defs
     id="defs2" />
  <rect
     style="opacity:1;fill:#222222;fill-opacity:1;stroke-width:0.264583"
     id="rect1162"
     width="5.2916665"
     height="6.3499999"
     x="0.52916664"
     y="0"
     ry="0.52916664" />
  <rect
     style="opacity:1;fill:#444444;fill-opacity:1;stroke-width:0.529167;stroke-linecap:round;stroke-linejoin:round"
     id="rect977"
     width="4.7624998"
     height="5.8208332"
     x="0.79374999"
     y="0.26458332"
     ry="0.26458332" />
  <rect
     style="fill:#6f6f6f;fill-opacity:1;stroke:none;stroke-width:0.264583;stroke-linecap:square;stroke-linejoin:bevel"
     id="rect29955"
     width="3.7041667"
     height="4.7624998"
     x="1.3229166"
     y="0.79374999"
     ry="0.26458332" />
  <path
     id="rect35821"
     style="opacity:0.2;fill:#000000;fill-opacity:1;stroke:none;stroke-width:0.132291;stroke-linecap:square;stroke-linejoin:bevel"
     d="m 1.190625,1.8520833 c -0.07329,0 -0.1322917,0.059002 -0.1322917,0.1322915 v 0.7937503 c 0,0.073289 0.059002,0.1322915 0.1322917,0.1322915 h 0.2645832 c 0.07329,0 0.1322917,-0.059002 0.1322917,-0.1322915 V 1.9843748 c 0,-0.073289 -0.059002,-0.1322915 -0.1322917,-0.1322915 z m 0,1.8520836 c -0.07329,0 -0.1322917,0.059002 -0.1322917,0.1322915 v 0.7937502 c 0,0.07329 0.059002,0.132291 0.1322917,0.132291 h 0.2645832 c 0.07329,0 0.1322917,-0.059 0.1322917,-0.132291 V 3.8364584 c 0,-0.073289 -0.059002,-0.1322915 -0.1322917,-0.1322915 z"
     sodipodi:nodetypes="ssssssssssssssssss" />
  <path
     id="rect34365"
     style="fill:#bbbbbb;fill-opacity:1;stroke:none;stroke-width:0.132291;stroke-linecap:square;stroke-linejoin:bevel"
     d="m 1.190625,1.5874999 c -0.07329,0 -0.1322917,0.059002 -0.1322917,0.1322917 v 0.7937501 c 0,0.073289 0.059002,0.1322914 0.1322917,0.1322914 h 0.2645832 c 0.07329,0 0.1322917,-0.059002 0.1322917,-0.1322914 V 1.7197916 c 0,-0.07329 -0.059002,-0.1322917 -0.1322917,-0.1322917 z m 0,1.8520834 c -0.07329,0 -0.1322917,0.059003 -0.1322917,0.132292 v 0.7937493 c 0,0.07329 0.059002,0.132292 0.1322917,0.132292 h 0.2645832 c 0.07329,0 0.1322917,-0.059 0.1322917,-0.132292 V 3.5718753 c 0,-0.073289 -0.059002,-0.132292 -0.1322917,-0.132292 z"
     sodipodi:nodetypes="ssssssssssssssssss" />
  <path
     d="m 1.8877915,3.5655518 c 0.044704,0.082492 0.1318789,0.1383771 0.2326481,0.1383824 l 0.8568532,-3.44e-5 c 0.093517,0.1656794 0.2687928,0.268388 0.4590415,0.2690283 l 0.4322709,0.7487206 c 0.07329,0.1269391 0.234487,0.170135 0.3614288,0.096845 0.1269418,-0.073292 0.170135,-0.234487 0.096845,-0.3614288 L 3.8938306,3.707006 C 3.9403364,3.6269828 3.9650802,3.5361831 3.9655353,3.4436265 3.9652707,3.3510171 3.9404528,3.2601353 3.8939179,3.1800592 L 4.3264111,2.4304285 C 4.3997007,2.3034867 4.3568779,2.142321 4.2299361,2.0690288 4.1029969,1.9957419 3.9413788,2.0388187 3.8680893,2.1657605 L 3.436403,2.914526 3.4358739,2.9147906 C 3.2489458,2.9150552 3.0760538,3.0140146 2.9810498,3.175003 L 2.120474,3.1747966 C 1.9739081,3.174786 1.8557875,3.2932109 1.8557875,3.4397901 c 8e-6,0.04581 0.011774,0.088373 0.032097,0.1258728 z"
     id="path985"
     style="opacity:0.2;fill:#000000;stroke-width:0.264583"
     sodipodi:nodetypes="ccccccsccccccccccccc" />
  <path
     d="m 1.8877915,3.3009684 c 0.044704,0.082492 0.1318789,0.1383771 0.2326481,0.1383824 l 0.8568532,-3.44e-5 c 0.093517,0.1656794 0.2687928,0.268388 0.4590415,0.2690283 l 0.4322709,0.7487206 c 0.07329,0.1269391 0.234487,0.170135 0.3614288,0.096845 0.1269418,-0.073292 0.170135,-0.234487 0.096845,-0.3614288 L 3.8938306,3.4424226 C 3.9403364,3.3623994 3.9650802,3.2715997 3.9655353,3.1790431 3.9652707,3.0864337 3.9404528,2.9955519 3.8939179,2.9154758 L 4.3264111,2.1658451 C 4.3997007,2.0389033 4.3568779,1.8777376 4.2299361,1.8044454 4.1029969,1.7311585 3.9413788,1.7742353 3.8680893,1.9011771 L 3.436403,2.6499426 3.4358739,2.6502072 C 3.2489458,2.6504718 3.0760538,2.7494312 2.9810498,2.9104196 L 2.120474,2.9102132 c -0.1465659,-1.06e-5 -0.2646865,0.1184143 -0.2646865,0.2649935 8e-6,0.04581 0.011774,0.088373 0.032097,0.1258728 z"
     style="fill:#cbcbcb;fill-opacity:1;stroke-width:0.264583"
     id="path1649" />
</svg>
