<?xml version="1.0" encoding="UTF-8" standalone="no"?>
<!-- Created with Inkscape (http://www.inkscape.org/) -->

<svg
   width="24"
   height="24"
   viewBox="0 0 6.3499999 6.3499999"
   version="1.1"
   id="svg5"
   inkscape:version="1.1.2 (0a00cf5339, 2022-02-04, custom)"
   sodipodi:docname="desktop-environment-kde.svg"
   xmlns:inkscape="http://www.inkscape.org/namespaces/inkscape"
   xmlns:sodipodi="http://sodipodi.sourceforge.net/DTD/sodipodi-0.dtd"
   xmlns="http://www.w3.org/2000/svg"
   xmlns:svg="http://www.w3.org/2000/svg">
  <sodipodi:namedview
     id="namedview7"
     pagecolor="#ffffff"
     bordercolor="#666666"
     borderopacity="1.0"
     inkscape:pageshadow="2"
     inkscape:pageopacity="0.0"
     inkscape:pagecheckerboard="0"
     inkscape:document-units="px"
     showgrid="false"
     units="px"
     height="48px"
     inkscape:zoom="32.416667"
     inkscape:cx="11.984576"
     inkscape:cy="12"
     inkscape:window-width="1920"
     inkscape:window-height="1002"
     inkscape:window-x="0"
     inkscape:window-y="0"
     inkscape:window-maximized="1"
     inkscape:current-layer="svg5"
     showguides="false" />
  <defs
     id="defs2" />
  <rect
     style="opacity:1;fill:#3daee9;fill-opacity:1;stroke-width:0.264583"
     id="rect1162"
     width="5.8208332"
     height="5.8208332"
     x="0.26458332"
     y="0.26458332"
     ry="0.66145831" />
  <path
     d="M 3.4437173,1.0583333 2.6458332,1.1973429 V 3.9454956 L 3.4395832,3.8431762 3.4354477,2.6044921 4.3718248,3.9754679 5.2916652,3.8431762 4.2333318,2.4241415 5.2952825,1.2335164 4.3640733,1.0619506 3.4354477,2.2525756 Z M 1.7657837,1.7600992 c -0.00767,6.377e-4 -0.014897,0.004 -0.020671,0.00982 L 1.471228,2.0469033 c -0.011893,0.011986 -0.013877,0.030671 -0.00465,0.044959 L 1.7973063,2.5998412 C 1.7349151,2.7105643 1.6877729,2.831966 1.6572632,2.9589924 L 1.0862386,3.0990356 c -0.01585,0.00389 -0.027905,0.018219 -0.027905,0.034623 v 0.1803509 0.1803508 c 0,0.016404 0.012055,0.030734 0.027905,0.034623 l 0.5710246,0.1400432 c 0.03051,0.1270264 0.077652,0.2484284 0.1400431,0.3591512 L 1.4665772,4.5361573 c -0.00922,0.014288 -0.00724,0.032973 0.00465,0.044958 l 0.273885,0.276986 c 0.011547,0.011642 0.029463,0.012602 0.043408,0.00413 L 2.3068358,4.5444255 c 0.101687,0.05924 0.2607495,0.1069015 0.3767211,0.1384927 l 0.1214398,0.5865275 c 0.00337,0.016933 0.016822,0.028939 0.03359,0.028939 H 3.0427082 3.24683 c 0.016769,0 0.030216,-0.012004 0.03359,-0.028939 L 3.4018594,4.6829182 C 3.5178313,4.651327 3.6768943,4.6036657 3.7785806,4.5444255 l 0.5183145,0.3178098 c 0.013946,0.00847 0.031862,0.00751 0.043408,-0.00413 l 0.273885,-0.2769859 c 0.011893,-0.011986 0.013877,-0.030671 0.00465,-0.044958 L 4.3434046,4.1129282 4.3092979,4.1180955 4.1160283,3.8349088 C 3.9186319,4.2487073 3.5011782,4.5124046 3.0427087,4.5129036 c -0.6575639,0 -1.1906249,-0.5330611 -1.1906249,-1.190625 3.81e-4,-0.4519425 0.2566053,-0.864706 0.6614577,-1.0655689 V 1.9967772 c -0.075469,0.025162 -0.1496248,0.053562 -0.2067057,0.086816 l -0.5183145,-0.31781 c -0.00697,-0.00423 -0.015072,-0.00632 -0.022738,-0.00568 z"
     style="fill:#ffffff;stroke-width:0.264583"
     id="path896" />
  <path
     id="rect1014"
     style="opacity:0.5;fill:#000000;stroke-width:0.999999"
     d="M 3.5,1 C 2.115,1 1,2.115 1,3.5 v 17 C 1,21.885 2.115,23 3.5,23 h 17 C 21.885,23 23,21.885 23,20.5 V 3.5 C 23,2.115 21.885,1 20.5,1 Z M 4,2 h 16 c 1.108,0 2,0.892 2,2 v 16 c 0,1.108 -0.892,2 -2,2 H 4 C 2.892,22 2,21.108 2,20 V 4 C 2,2.892 2.892,2 4,2 Z"
     transform="scale(0.26458333)"
     sodipodi:nodetypes="ssssssssssssssssss" />
</svg>
