<?xml version="1.0" encoding="UTF-8" standalone="no"?>
<!-- Created with Inkscape (http://www.inkscape.org/) -->

<svg
   width="24"
   height="24"
   viewBox="0 0 6.3499999 6.3499999"
   version="1.1"
   id="svg5"
   inkscape:version="1.2 (dc2aedaf03, 2022-05-15)"
   sodipodi:docname="digikam.svg"
   xmlns:inkscape="http://www.inkscape.org/namespaces/inkscape"
   xmlns:sodipodi="http://sodipodi.sourceforge.net/DTD/sodipodi-0.dtd"
   xmlns="http://www.w3.org/2000/svg"
   xmlns:svg="http://www.w3.org/2000/svg">
  <sodipodi:namedview
     id="namedview7"
     pagecolor="#ffffff"
     bordercolor="#666666"
     borderopacity="1.0"
     inkscape:pageshadow="2"
     inkscape:pageopacity="0.0"
     inkscape:pagecheckerboard="0"
     inkscape:document-units="px"
     showgrid="false"
     units="px"
     height="48px"
     inkscape:zoom="33.25"
     inkscape:cx="12.030075"
     inkscape:cy="12.030075"
     inkscape:window-width="1920"
     inkscape:window-height="1009"
     inkscape:window-x="0"
     inkscape:window-y="0"
     inkscape:window-maximized="1"
     inkscape:current-layer="svg5"
     showguides="true"
     inkscape:showpageshadow="2"
     inkscape:deskcolor="#d1d1d1" />
  <defs
     id="defs2" />
  <circle
     style="fill:#444444;fill-opacity:1;stroke-width:0.747114"
     id="path1430"
     cx="3.175"
     cy="3.175"
     r="3.175" />
  <circle
     style="fill:#1f285a;fill-opacity:1;stroke-width:0.15181"
     id="path10609"
     cx="3.175"
     cy="3.175"
     r="1.8520833" />
  <circle
     style="fill:#3f51b5;fill-opacity:1;stroke-width:0.101762"
     id="path12167"
     cx="3.175"
     cy="3.175"
     r="1.3229166" />
  <circle
     style="opacity:0.25;fill:#ffffff;fill-opacity:1;stroke-width:0.099219"
     id="path13933"
     cx="3.1749995"
     cy="3.175"
     r="0.79374993" />
  <path
     id="path13989"
     style="opacity:0.25;fill:#ffffff;fill-opacity:1;stroke-width:0.099219"
     d="M 2.614181,2.6141813 A 0.7937499,0.7937499 0 0 0 2.3812495,3.1749998 0.7937499,0.7937499 0 0 0 3.1749995,3.9687496 0.7937499,0.7937499 0 0 0 3.7358181,3.735818 Z" />
  <path
     id="path13994"
     style="opacity:0.25;fill:#ffffff;fill-opacity:1;stroke-width:0.099219"
     d="M 3.7362054,2.6137937 2.614181,3.735818 A 0.7937498,0.7937498 0 0 0 3.1749995,3.9687496 0.7937498,0.7937498 0 0 0 3.9687493,3.1749998 0.7937498,0.7937498 0 0 0 3.7362054,2.6137937 Z" />
  <path
     id="path1556"
     style="opacity:0.5;fill:#000000;fill-opacity:1;stroke-width:0.634999"
     d="M 3.175 0 A 3.175 3.175 0 0 0 0 3.175 A 3.175 3.175 0 0 0 3.175 6.3499999 A 3.175 3.175 0 0 0 6.3499999 3.175 A 3.175 3.175 0 0 0 3.175 0 z M 3.175 0.26458333 A 2.9104166 2.9104166 0 0 1 6.0854166 3.175 A 2.9104166 2.9104166 0 0 1 3.175 6.0854166 A 2.9104166 2.9104166 0 0 1 0.26458333 3.175 A 2.9104166 2.9104166 0 0 1 3.175 0.26458333 z " />
</svg>
