<?xml version="1.0" encoding="UTF-8" standalone="no"?>
<!-- Created with Inkscape (http://www.inkscape.org/) -->

<svg
   width="24"
   height="24"
   viewBox="0 0 6.3499999 6.3499999"
   version="1.1"
   id="svg5"
   inkscape:version="1.2 (dc2aedaf03, 2022-05-15)"
   sodipodi:docname="discord.svg"
   xmlns:inkscape="http://www.inkscape.org/namespaces/inkscape"
   xmlns:sodipodi="http://sodipodi.sourceforge.net/DTD/sodipodi-0.dtd"
   xmlns="http://www.w3.org/2000/svg"
   xmlns:svg="http://www.w3.org/2000/svg">
  <sodipodi:namedview
     id="namedview7"
     pagecolor="#ffffff"
     bordercolor="#666666"
     borderopacity="1.0"
     inkscape:pageshadow="2"
     inkscape:pageopacity="0.0"
     inkscape:pagecheckerboard="0"
     inkscape:document-units="px"
     showgrid="false"
     units="px"
     height="48px"
     inkscape:zoom="34.583333"
     inkscape:cx="11.985542"
     inkscape:cy="12"
     inkscape:window-width="1920"
     inkscape:window-height="1009"
     inkscape:window-x="0"
     inkscape:window-y="0"
     inkscape:window-maximized="1"
     inkscape:current-layer="svg5"
     showguides="true"
     inkscape:showpageshadow="2"
     inkscape:deskcolor="#d1d1d1" />
  <defs
     id="defs2" />
  <circle
     style="fill:#5865f2;fill-opacity:1;stroke-width:0.747114"
     id="path1430"
     cx="3.175"
     cy="3.175"
     r="3.175" />
  <path
     id="path1556"
     style="opacity:0.5;fill:#000000;fill-opacity:1;stroke-width:0.634999"
     d="M 3.175 0 A 3.175 3.175 0 0 0 0 3.175 A 3.175 3.175 0 0 0 3.175 6.3499999 A 3.175 3.175 0 0 0 6.3499999 3.175 A 3.175 3.175 0 0 0 3.175 0 z M 3.175 0.26458333 A 2.9104166 2.9104166 0 0 1 6.0854166 3.175 A 2.9104166 2.9104166 0 0 1 3.175 6.0854166 A 2.9104166 2.9104166 0 0 1 0.26458333 3.175 A 2.9104166 2.9104166 0 0 1 3.175 0.26458333 z " />
  <path
     d="m 2.5687141,1.5877311 c -0.3023109,0.05124 -0.5919062,0.1412121 -0.8618517,0.2631954 -0.00233,0.001 -0.00419,0.00268 -0.00551,0.00483 -0.5487349,0.8067734 -0.6992912,1.5936388 -0.6255486,2.3708257 3.418e-4,0.0038 0.00251,0.00733 0.00551,0.00964 0.3620394,0.2616497 0.7126341,0.4204151 1.0568189,0.525702 0.00551,0.00165 0.011652,-3.528e-4 0.015157,-0.00483 0.081418,-0.1094172 0.1540975,-0.1770073 0.2163242,-0.298334 0.00367,-0.00711 -7.01e-5,-0.01579 -0.00757,-0.018601 C 2.2469267,4.3971884 2.1374885,4.3101878 2.0320463,4.250687 c -0.00835,-0.0048 -0.00904,-0.017117 -0.00137,-0.022735 0.022189,-0.016361 0.044261,-0.033107 0.065449,-0.050297 0.00384,-0.00313 0.00928,-0.00404 0.013778,-0.00208 0.6927096,0.3112416 1.4428806,0.3112416 2.1274163,0 0.00451,-0.00215 0.00977,-0.00176 0.013778,0.00137 0.021192,0.017188 0.043093,0.034624 0.065449,0.050985 0.00767,0.00561 0.00696,0.017945 -0.00137,0.022735 -0.1054424,0.060658 -0.2147124,0.1466628 -0.3299976,0.1894732 -0.00751,0.00283 -0.010559,0.011493 -0.00689,0.018602 0.063563,0.1211568 0.1357201,0.1889117 0.2156351,0.298334 0.00335,0.00463 0.00965,0.00648 0.015157,0.00483 0.3458543,-0.1052866 0.696157,-0.2640523 1.0581968,-0.5257021 0.00317,-0.00229 0.00587,-0.00584 0.0062,-0.00964 0.088233,-0.8985163 -0.1482674,-1.6789282 -0.6262598,-2.3708286 -0.00116,-0.00231 -0.00317,-0.00383 -0.00552,-0.00483 -0.26977,-0.1217856 -0.5586784,-0.2117672 -0.8611559,-0.2631713 -0.00551,-0.001 -0.011625,0.00126 -0.014469,0.0062 -0.037206,0.065123 -0.077925,0.1185622 -0.1067836,0.1853392 -0.325334,-0.047931 -0.6492834,-0.047931 -0.9679469,0 -0.028863,-0.06826 -0.071476,-0.1202169 -0.1088499,-0.1853392 -0.00283,-0.00479 -0.00828,-0.00703 -0.013779,-0.0062 z m -0.099206,1.4110581 c 0.1979706,0 0.3558271,0.1597095 0.3527322,0.3527645 0,0.1944457 -0.1563094,0.3527645 -0.3527322,0.3527645 -0.1933388,0 -0.3527322,-0.1583188 -0.3527322,-0.3527645 0,-0.1944452 0.156304,-0.3527645 0.3527322,-0.3527645 z m 1.410929,0 c 0.1979763,0 0.3558215,0.1597095 0.3527322,0.3527645 4e-7,0.1944457 -0.1547559,0.3527645 -0.3527322,0.3527645 -0.1933332,0 -0.3527322,-0.1583188 -0.3527322,-0.3527645 0,-0.1944452 0.1563041,-0.3527645 0.3527322,-0.3527645 z"
     style="fill:#ffffff;stroke-width:0.352748"
     id="path20180" />
</svg>
