<?xml version="1.0" encoding="UTF-8" standalone="no"?>
<!-- Created with Inkscape (http://www.inkscape.org/) -->

<svg
   width="24"
   height="24"
   viewBox="0 0 6.3499999 6.3499999"
   version="1.1"
   id="svg5"
   inkscape:version="1.2.1 (9c6d41e410, 2022-07-14, custom)"
   sodipodi:docname="elisa.svg"
   xmlns:inkscape="http://www.inkscape.org/namespaces/inkscape"
   xmlns:sodipodi="http://sodipodi.sourceforge.net/DTD/sodipodi-0.dtd"
   xmlns="http://www.w3.org/2000/svg"
   xmlns:svg="http://www.w3.org/2000/svg">
  <sodipodi:namedview
     id="namedview7"
     pagecolor="#ffffff"
     bordercolor="#666666"
     borderopacity="1.0"
     inkscape:pageshadow="2"
     inkscape:pageopacity="0.0"
     inkscape:pagecheckerboard="0"
     inkscape:document-units="px"
     showgrid="false"
     units="px"
     height="48px"
     inkscape:zoom="33.416667"
     inkscape:cx="11.985037"
     inkscape:cy="12"
     inkscape:window-width="1920"
     inkscape:window-height="1011"
     inkscape:window-x="0"
     inkscape:window-y="0"
     inkscape:window-maximized="1"
     inkscape:current-layer="svg5"
     showguides="false"
     inkscape:showpageshadow="2"
     inkscape:deskcolor="#d1d1d1" />
  <defs
     id="defs2" />
  <rect
     style="opacity:1;fill:#676767;fill-opacity:1;stroke-width:0.264583"
     id="rect1162"
     width="6.3499999"
     height="5.2916665"
     x="0"
     y="0.52916664"
     ry="0.52916664" />
  <rect
     style="fill:#43b9a9;fill-opacity:1;stroke-width:0.365575"
     id="rect1437"
     width="5.2916665"
     height="3.7041667"
     x="0.52916664"
     y="1.0583333"
     ry="0.26458332" />
  <rect
     style="fill:#676767;fill-opacity:1;stroke-width:0.264583;stroke-linecap:round"
     id="rect1758"
     width="4.2333331"
     height="1.5875"
     x="1.0583333"
     y="2.116667"
     ry="0.79374999" />
  <circle
     style="fill:#f2f2f2;fill-opacity:1;stroke-width:0.211666;stroke-linecap:round"
     id="path1964"
     cx="1.852083"
     cy="2.9104161"
     r="0.52916634" />
  <circle
     style="fill:#f2f2f2;fill-opacity:1;stroke-width:0.211666;stroke-linecap:round"
     id="path1964-3"
     cx="4.4979162"
     cy="2.9104171"
     r="0.52916634" />
  <rect
     style="fill:#cdcdcd;fill-opacity:1;stroke-width:0.23665;stroke-linecap:round"
     id="rect2117"
     width="1.0583333"
     height="1.0583327"
     x="2.645834"
     y="2.3812506" />
  <path
     id="rect2367"
     style="fill:#74582d;fill-opacity:1;stroke-width:0.264583;stroke-linecap:round"
     d="M 2.6458333 2.38125 L 2.6458333 3.4395833 L 3.0752644 3.4395833 A 1.4552073 1.4552073 0 0 0 3.175 2.9104166 A 1.4552073 1.4552073 0 0 0 3.0752644 2.38125 L 2.6458333 2.38125 z " />
  <path
     id="rect1825"
     style="opacity:0.5;fill:#000000;fill-opacity:1;stroke-width:0.264583"
     d="M 0.52916666,0.52916667 C 0.23600834,0.52916667 0,0.765175 0,1.0583333 V 5.2916666 C 0,5.5848249 0.23600834,5.8208333 0.52916666,5.8208333 H 5.8208333 c 0.2931583,0 0.5291666,-0.2360084 0.5291666,-0.5291667 V 1.0583333 c 0,-0.2931583 -0.2360083,-0.52916663 -0.5291666,-0.52916663 z M 0.66145832,0.79375 H 5.6885416 c 0.2198687,0 0.396875,0.17700625 0.396875,0.396875 v 3.9687499 c 0,0.2198688 -0.1770063,0.396875 -0.396875,0.396875 H 0.66145832 c -0.21986874,0 -0.39687499,-0.1770062 -0.39687499,-0.396875 V 1.190625 c 0,-0.21986875 0.17700625,-0.396875 0.39687499,-0.396875 z" />
</svg>
