<?xml version="1.0" encoding="UTF-8" standalone="no"?>
<!-- Created with Inkscape (http://www.inkscape.org/) -->

<svg
   width="24"
   height="24"
   viewBox="0 0 6.3499999 6.3499999"
   version="1.1"
   id="svg5"
   inkscape:version="1.2 (dc2aedaf03, 2022-05-15)"
   sodipodi:docname="emacs.svg"
   xmlns:inkscape="http://www.inkscape.org/namespaces/inkscape"
   xmlns:sodipodi="http://sodipodi.sourceforge.net/DTD/sodipodi-0.dtd"
   xmlns="http://www.w3.org/2000/svg"
   xmlns:svg="http://www.w3.org/2000/svg">
  <sodipodi:namedview
     id="namedview7"
     pagecolor="#ffffff"
     bordercolor="#666666"
     borderopacity="1.0"
     inkscape:pageshadow="2"
     inkscape:pageopacity="0.0"
     inkscape:pagecheckerboard="0"
     inkscape:document-units="px"
     showgrid="false"
     units="px"
     height="48px"
     inkscape:zoom="17.699767"
     inkscape:cx="4.5763315"
     inkscape:cy="11.582074"
     inkscape:window-width="1920"
     inkscape:window-height="1009"
     inkscape:window-x="0"
     inkscape:window-y="0"
     inkscape:window-maximized="1"
     inkscape:current-layer="svg5"
     inkscape:showpageshadow="2"
     inkscape:deskcolor="#d1d1d1" />
  <defs
     id="defs2" />
  <circle
     style="fill:#583d78;fill-opacity:1;stroke-width:0.396875"
     id="path934"
     cx="3.175"
     cy="3.175"
     r="3.175" />
  <circle
     style="fill:#9c6ed5;fill-opacity:1;stroke-width:0.207886"
     id="path4871"
     cx="3.175"
     cy="3.175"
     r="2.9104166" />
  <path
     d="m 1.906293,4.8609232 c 0,0 0.223184,0.064114 0.5202767,0.1007692 0.120314,0.014843 0.5780881,0.066725 0.9290579,0.065363 0,0 0.4274608,5.292e-4 0.6634162,-0.032681 0.2468907,-0.034697 0.386768,-0.078978 0.4646084,-0.167349 0.00204,-0.021072 0.037573,-0.089758 -0.058396,-0.1559857 C 4.1799026,4.5017064 3.8627254,4.4553514 3.2466166,4.3105978 2.5653146,4.1411322 2.3617177,3.9788633 2.2600118,3.8614147 2.1635792,3.7437122 2.2781128,3.4992795 2.8270933,3.3793439 3.1050381,3.3124255 4.1402468,3.3001277 4.1402468,3.3001277 3.843252,3.0668445 3.2856691,2.6491733 3.1717131,2.5603527 3.0717561,2.482454 2.9106752,2.3629074 2.8933714,2.2560818 2.870014,2.15209 3.0354712,2.102015 3.1230668,2.096247 3.4053243,2.076989 3.7907164,2.109728 4.1332989,2.17713 4.3054976,2.211012 4.3357422,2.206017 4.3357422,2.206017 4.581003,2.2175797 4.771749,2.0904685 4.7620388,1.8227949 4.7600809,1.551253 4.4856815,1.3335274 4.1819928,1.3240024 3.8959782,1.3150462 3.1912076,1.3644439 3.1912076,1.3644439 4.012633,1.5319913 4.1469355,1.574748 4.1897715,1.6725777 4.2150763,1.7303521 4.1475017,1.7877932 3.9211401,1.7765695 3.674813,1.7640018 3.169988,1.7049732 3.169988,1.7049732 2.6891078,1.6317895 2.3543041,1.5624687 2.2083334,1.7511695 2.1129594,1.874468 2.2219584,2.0246429 2.2647824,2.1132254 2.455539,2.4425258 2.785403,2.6684799 2.9947149,2.8277062 3.0734759,2.8876182 3.3139347,3.0202832 3.3139347,3.0202832 2.5664602,2.8180753 1.9709096,2.9316954 1.593164,3.1281273 1.1590885,3.382339 1.2333306,3.8113079 1.9221204,4.2123369 c 0.4068233,0.2368682 0.6093883,0.3506787 1.2754769,0.4315883 0.3893343,0.06142 0.4473575,0.08655 0.4443941,0.1186127 -0.00417,0.045141 -0.4608248,0.062246 -0.5863431,0.07081 -0.3193256,0.021788 -1.1451696,0.027236 -1.1492971,0.027236 z"
     style="fill:#ffffff;stroke-width:0.264583"
     id="path19511" />
</svg>
