<?xml version="1.0" encoding="UTF-8" standalone="no"?>
<!-- Created with Inkscape (http://www.inkscape.org/) -->

<svg
   width="24"
   height="24"
   viewBox="0 0 6.3499999 6.3499999"
   version="1.1"
   id="svg5"
   inkscape:version="1.2 (dc2aedaf03, 2022-05-15)"
   sodipodi:docname="fcitx.svg"
   xmlns:inkscape="http://www.inkscape.org/namespaces/inkscape"
   xmlns:sodipodi="http://sodipodi.sourceforge.net/DTD/sodipodi-0.dtd"
   xmlns="http://www.w3.org/2000/svg"
   xmlns:svg="http://www.w3.org/2000/svg">
  <sodipodi:namedview
     id="namedview7"
     pagecolor="#ffffff"
     bordercolor="#666666"
     borderopacity="1.0"
     inkscape:pageshadow="2"
     inkscape:pageopacity="0.0"
     inkscape:pagecheckerboard="0"
     inkscape:document-units="px"
     showgrid="false"
     units="px"
     height="48px"
     inkscape:zoom="25.031251"
     inkscape:cx="11.265917"
     inkscape:cy="12.704119"
     inkscape:window-width="1920"
     inkscape:window-height="1014"
     inkscape:window-x="0"
     inkscape:window-y="0"
     inkscape:window-maximized="1"
     inkscape:current-layer="svg5"
     showguides="false"
     inkscape:showpageshadow="2"
     inkscape:deskcolor="#d1d1d1" />
  <defs
     id="defs2" />
  <rect
     style="opacity:1;fill:#7b736e;fill-opacity:1;stroke-width:0.264583"
     id="rect1162"
     width="6.3499999"
     height="4.7624998"
     x="0"
     y="0.79374999"
     ry="0.52916664" />
  <path
     id="rect1437"
     style="opacity:0.5;fill:#000000;fill-opacity:1;stroke-width:0.383418"
     d="M 0.52916666 0.79374999 C 0.23600863 0.79374999 0 1.0297586 0 1.3229166 L 0 5.0270833 C 7.8332323e-17 5.3202413 0.23600863 5.5562499 0.52916666 5.5562499 L 5.8208332 5.5562499 C 6.1139913 5.5562499 6.3499999 5.3202413 6.3499999 5.0270833 L 6.3499999 1.3229166 C 6.3499999 1.0297586 6.1139913 0.79374999 5.8208332 0.79374999 L 0.52916666 0.79374999 z M 0.52916666 1.0583333 L 5.8208332 1.0583333 C 5.9674123 1.0583333 6.0854166 1.1763376 6.0854166 1.3229166 L 6.0854166 5.0270833 C 6.0854166 5.1736623 5.9674123 5.2916666 5.8208332 5.2916666 L 0.52916666 5.2916666 C 0.38258765 5.2916666 0.26458333 5.1736623 0.26458333 5.0270833 L 0.26458333 1.3229166 C 0.26458333 1.1763376 0.38258765 1.0583333 0.52916666 1.0583333 z " />
  <path
     d="m 0.92604166,1.5875 c -0.0732896,0 -0.13229167,0.059002 -0.13229167,0.1322917 v 0.5291667 c 0,0.07329 0.0590021,0.1322916 0.13229167,0.1322916 H 1.4552083 C 1.5284983,2.38125 1.5875,2.322248 1.5875,2.2489584 V 1.7197917 C 1.5875,1.6465017 1.528498,1.5875 1.4552083,1.5875 Z m 1.32291664,0 c -0.07329,0 -0.1322916,0.059002 -0.1322916,0.1322917 v 0.5291667 c 0,0.07329 0.059002,0.1322916 0.1322916,0.1322916 H 2.778125 c 0.07329,0 0.1322917,-0.059002 0.1322917,-0.1322916 V 1.7197917 C 2.9104167,1.6465017 2.8514147,1.5875 2.778125,1.5875 Z m 1.3229167,0 c -0.07329,0 -0.1322917,0.059002 -0.1322917,0.1322917 v 0.5291667 c 0,0.07329 0.059002,0.1322916 0.1322917,0.1322916 h 0.5291666 c 0.07329,0 0.1322917,-0.059002 0.1322917,-0.1322916 V 1.7197917 c 0,-0.07329 -0.059002,-0.1322917 -0.1322917,-0.1322917 z m 1.3229166,0 C 4.8215016,1.5875 4.7625,1.646502 4.7625,1.7197917 v 0.5291667 c 0,0.07329 0.059002,0.1322916 0.1322916,0.1322916 h 0.5291667 c 0.07329,0 0.1322917,-0.059002 0.1322917,-0.1322916 V 1.7197917 C 5.55625,1.6465017 5.497248,1.5875 5.4239583,1.5875 Z M 0.92604166,2.9104167 c -0.0732896,0 -0.13229167,0.059002 -0.13229167,0.1322917 V 3.571875 c 0,0.07329 0.0590021,0.1322917 0.13229167,0.1322917 H 1.4552083 c 0.07329,0 0.1322917,-0.059002 0.1322917,-0.1322917 V 3.0427084 c 0,-0.07329 -0.059002,-0.1322917 -0.1322917,-0.1322917 z m 1.32291664,0 c -0.07329,0 -0.1322916,0.059002 -0.1322916,0.1322917 V 3.571875 c 0,0.07329 0.059002,0.1322917 0.1322916,0.1322917 H 2.778125 c 0.07329,0 0.1322917,-0.059002 0.1322917,-0.1322917 V 3.0427084 c 0,-0.07329 -0.059002,-0.1322917 -0.1322917,-0.1322917 z m 1.3229167,0 c -0.07329,0 -0.1322917,0.059002 -0.1322917,0.1322917 V 3.571875 c 0,0.07329 0.059002,0.1322917 0.1322917,0.1322917 h 0.5291666 c 0.07329,0 0.1322917,-0.059002 0.1322917,-0.1322917 V 3.0427084 c 0,-0.07329 -0.059002,-0.1322917 -0.1322917,-0.1322917 z m 1.3229166,0 c -0.07329,0 -0.1322916,0.059002 -0.1322916,0.1322917 V 3.571875 c 0,0.07329 0.059002,0.1322917 0.1322916,0.1322917 h 0.5291667 c 0.07329,0 0.1322917,-0.059002 0.1322917,-0.1322917 V 3.0427084 c 0,-0.07329 -0.059002,-0.1322917 -0.1322917,-0.1322917 z M 1.7197917,4.2333333 c -0.07329,0 -0.1322917,0.059002 -0.1322917,0.1322917 v 0.5291667 c 0,0.07329 0.059002,0.1322916 0.1322917,0.1322916 h 2.9104166 c 0.07329,0 0.1322917,-0.059002 0.1322917,-0.1322916 V 4.365625 c 0,-0.07329 -0.059002,-0.1322917 -0.1322917,-0.1322917 z"
     id="path4815"
     style="opacity:0.5;fill:#000000;stroke-width:0.264583"
     sodipodi:nodetypes="sssssssssssssssssssssssssssssssssssssssssssssssssssssssssssssssssssssssssssssssss" />
  <path
     d="m 0.92604166,1.3229166 c -0.0732896,0 -0.13229167,0.059002 -0.13229167,0.1322917 V 1.984375 c 0,0.07329 0.0590021,0.1322916 0.13229167,0.1322916 H 1.4552083 c 0.07329,0 0.1322917,-0.059002 0.1322917,-0.1322916 V 1.4552083 c 0,-0.07329 -0.059002,-0.1322917 -0.1322917,-0.1322917 z m 1.32291664,0 c -0.07329,0 -0.1322916,0.059002 -0.1322916,0.1322917 V 1.984375 c 0,0.07329 0.059002,0.1322916 0.1322916,0.1322916 H 2.778125 c 0.07329,0 0.1322917,-0.059002 0.1322917,-0.1322916 V 1.4552083 c 0,-0.07329 -0.059002,-0.1322917 -0.1322917,-0.1322917 z m 1.3229167,0 c -0.07329,0 -0.1322917,0.059002 -0.1322917,0.1322917 V 1.984375 c 0,0.07329 0.059002,0.1322916 0.1322917,0.1322916 h 0.5291666 c 0.07329,0 0.1322917,-0.059002 0.1322917,-0.1322916 V 1.4552083 c 0,-0.07329 -0.059002,-0.1322917 -0.1322917,-0.1322917 z m 1.3229166,0 c -0.07329,0 -0.1322916,0.059002 -0.1322916,0.1322917 V 1.984375 c 0,0.07329 0.059002,0.1322916 0.1322916,0.1322916 h 0.5291667 c 0.07329,0 0.1322917,-0.059002 0.1322917,-0.1322916 V 1.4552083 c 0,-0.07329 -0.059002,-0.1322917 -0.1322917,-0.1322917 z M 0.92604166,2.6458333 c -0.0732896,0 -0.13229167,0.059002 -0.13229167,0.1322917 v 0.5291666 c 0,0.07329 0.0590021,0.1322917 0.13229167,0.1322917 H 1.4552083 c 0.07329,0 0.1322917,-0.059002 0.1322917,-0.1322917 V 2.778125 c 0,-0.07329 -0.059002,-0.1322917 -0.1322917,-0.1322917 z m 1.32291664,0 c -0.07329,0 -0.1322916,0.059002 -0.1322916,0.1322917 v 0.5291666 c 0,0.07329 0.059002,0.1322917 0.1322916,0.1322917 H 2.778125 c 0.07329,0 0.1322917,-0.059002 0.1322917,-0.1322917 V 2.778125 c 0,-0.07329 -0.059002,-0.1322917 -0.1322917,-0.1322917 z m 1.3229167,0 c -0.07329,0 -0.1322917,0.059002 -0.1322917,0.1322917 v 0.5291666 c 0,0.07329 0.059002,0.1322917 0.1322917,0.1322917 h 0.5291666 c 0.07329,0 0.1322917,-0.059002 0.1322917,-0.1322917 V 2.778125 c 0,-0.07329 -0.059002,-0.1322917 -0.1322917,-0.1322917 z m 1.3229166,0 c -0.07329,0 -0.1322916,0.059002 -0.1322916,0.1322917 v 0.5291666 c 0,0.07329 0.059002,0.1322917 0.1322916,0.1322917 h 0.5291667 c 0.07329,0 0.1322917,-0.059002 0.1322917,-0.1322917 V 2.778125 c 0,-0.07329 -0.059002,-0.1322917 -0.1322917,-0.1322917 z M 1.7197917,3.9687499 c -0.07329,0 -0.1322917,0.059002 -0.1322917,0.1322917 v 0.5291667 c 0,0.07329 0.059002,0.1322916 0.1322917,0.1322916 h 2.9104166 c 0.07329,0 0.1322917,-0.059002 0.1322917,-0.1322916 V 4.1010416 c 0,-0.07329 -0.059002,-0.1322917 -0.1322917,-0.1322917 z"
     style="opacity:1;fill:#ffffff;stroke-width:0.264583"
     id="path5045" />
</svg>
