<?xml version="1.0" encoding="UTF-8" standalone="no"?>
<!-- Created with Inkscape (http://www.inkscape.org/) -->

<svg
   width="24"
   height="24"
   viewBox="0 0 6.3499999 6.3499999"
   version="1.1"
   id="svg5"
   inkscape:version="1.2 (dc2aedaf03, 2022-05-15)"
   sodipodi:docname="github-desktop.svg"
   xmlns:inkscape="http://www.inkscape.org/namespaces/inkscape"
   xmlns:sodipodi="http://sodipodi.sourceforge.net/DTD/sodipodi-0.dtd"
   xmlns="http://www.w3.org/2000/svg"
   xmlns:svg="http://www.w3.org/2000/svg">
  <sodipodi:namedview
     id="namedview7"
     pagecolor="#ffffff"
     bordercolor="#666666"
     borderopacity="1.0"
     inkscape:pageshadow="2"
     inkscape:pageopacity="0.0"
     inkscape:pagecheckerboard="0"
     inkscape:document-units="px"
     showgrid="false"
     units="px"
     height="48px"
     inkscape:zoom="13.342157"
     inkscape:cx="-1.7238592"
     inkscape:cy="9.5187008"
     inkscape:window-width="1920"
     inkscape:window-height="1009"
     inkscape:window-x="0"
     inkscape:window-y="0"
     inkscape:window-maximized="1"
     inkscape:current-layer="svg5"
     inkscape:showpageshadow="2"
     inkscape:deskcolor="#d1d1d1" />
  <defs
     id="defs2" />
  <rect
     style="opacity:1;fill:#9c27b0;fill-opacity:1;stroke-width:0.264583"
     id="rect1162"
     width="5.8208332"
     height="5.8208332"
     x="0.26458332"
     y="0.26458332"
     ry="0.66145831" />
  <path
     id="rect1014"
     style="opacity:0.5;fill:#000000;stroke-width:0.999999"
     d="M 3.5,1 C 2.115,1 1,2.115 1,3.5 v 17 C 1,21.885 2.115,23 3.5,23 h 17 C 21.885,23 23,21.885 23,20.5 V 3.5 C 23,2.115 21.885,1 20.5,1 Z M 4,2 h 16 c 1.108,0 2,0.892 2,2 v 16 c 0,1.108 -0.892,2 -2,2 H 4 C 2.892,22 2,21.108 2,20 V 4 C 2,2.892 2.892,2 4,2 Z"
     transform="scale(0.26458333)"
     sodipodi:nodetypes="ssssssssssssssssss" />
  <path
     d="m 3.175,1.0583333 c -1.1726334,0 -2.1166667,0.9440335 -2.1166667,2.1166668 0,0.945348 0.6138209,1.7409921 1.4660605,2.0143472 V 4.7495809 C 1.9885993,4.8678179 1.8758545,4.5139363 1.8758545,4.5139363 1.7882272,4.2878182 1.661914,4.2276489 1.661914,4.2276489 1.4870165,4.1063191 1.6748337,4.1082764 1.6748337,4.1082764 1.86817,4.1220851 1.969906,4.3103313 1.969906,4.3103313 2.1417267,4.6093952 2.4208595,4.5232135 2.5305954,4.4731119 2.5480975,4.3467126 2.5980829,4.2600155 2.6530686,4.2111126 2.2253696,4.1617149 1.8546678,3.8882109 1.8546678,3.138223 c 0,-0.2136248 0.1551871,-0.4941721 0.2784035,-0.6308825 -0.01987,-0.049504 -0.086277,-0.3543621 0.018603,-0.6237343 0,0 0.010104,-0.00318 0.031006,-0.00414 0.06268,-0.00294 0.2036762,0.1159801 0.4795573,0.3059245 0.1665668,-0.047853 0.3796858,-0.070229 0.5127625,-0.071314 0.1500536,-0.00124 0.3238071,0.024577 0.4803812,0.071314 0.2759603,-0.1899399 0.4522556,-0.3093471 0.5146972,-0.306437 h 5.292e-4 c 0.020876,9.79e-4 0.031006,0.00414 0.031006,0.00414 0.1051243,0.2693617 0.038869,0.5747477 0.019121,0.624251 0.1234333,0.1367369 0.2771816,0.4172577 0.2771816,0.6308828 0,0.7518981 -0.4500208,1.0229177 -0.8790162,1.0713391 0.069058,0.060431 0.0863,0.1802564 0.0863,0.3627686 0,0.2204297 -5.557e-4,0.3637069 -0.00103,0.4547526 V 5.2229369 C 4.6187185,4.9888651 5.2916666,4.1645195 5.2916666,3.1750001 5.2916666,2.0023668 4.3476333,1.0583333 3.175,1.0583333 Z"
     style="color:#444444;fill:#ffffff;stroke-width:0.264583"
     id="path347" />
</svg>
