<?xml version="1.0" encoding="UTF-8" standalone="no"?>
<!-- Created with Inkscape (http://www.inkscape.org/) -->

<svg
   width="24"
   height="24"
   viewBox="0 0 6.3499999 6.3499999"
   version="1.1"
   id="svg5"
   inkscape:version="1.2 (dc2aedaf03, 2022-05-15)"
   sodipodi:docname="gnome-boxes.svg"
   xmlns:inkscape="http://www.inkscape.org/namespaces/inkscape"
   xmlns:sodipodi="http://sodipodi.sourceforge.net/DTD/sodipodi-0.dtd"
   xmlns="http://www.w3.org/2000/svg"
   xmlns:svg="http://www.w3.org/2000/svg">
  <sodipodi:namedview
     id="namedview7"
     pagecolor="#ffffff"
     bordercolor="#666666"
     borderopacity="1.0"
     inkscape:pageshadow="2"
     inkscape:pageopacity="0.0"
     inkscape:pagecheckerboard="0"
     inkscape:document-units="px"
     showgrid="false"
     units="px"
     height="48px"
     inkscape:zoom="33.916667"
     inkscape:cx="11.985258"
     inkscape:cy="12"
     inkscape:window-width="1920"
     inkscape:window-height="1011"
     inkscape:window-x="0"
     inkscape:window-y="0"
     inkscape:window-maximized="1"
     inkscape:current-layer="svg5"
     inkscape:showpageshadow="2"
     inkscape:deskcolor="#d1d1d1" />
  <defs
     id="defs2" />
  <rect
     style="opacity:1;fill:#424242;fill-opacity:1;stroke-width:0.264583"
     id="rect1162"
     width="5.8208332"
     height="5.8208332"
     x="0.26458332"
     y="0.26458332"
     ry="0.66145831" />
  <path
     d="M 1.3229167,1.509985 V 4.8400149 L 1.5099853,5.0270833 H 4.8400147 L 5.0270833,4.8400149 V 1.509985 L 4.8400147,1.3229166 H 1.5099853 Z M 1.7745687,1.5875 H 4.5754314 L 4.0462647,2.1166666 H 2.3037353 Z M 1.5875,1.7745683 2.1166667,2.303735 V 4.0462649 L 1.5875,4.5754316 Z m 3.175,0 V 4.5754316 L 4.2333333,4.0462649 V 2.303735 Z M 2.38125,2.38125 h 1.5875 v 1.5875 H 2.38125 Z M 2.3037353,4.2333333 H 4.0462647 L 4.5754314,4.7624999 H 1.7745687 Z"
     style="color:#000000;fill:#ffffff;stroke:none;stroke-width:0.264583;stroke-linecap:round;-inkscape-stroke:none;opacity:0.6"
     id="path1138" />
  <path
     d="m 1.4552083,1.0583333 c -0.219188,0 -0.396875,0.177687 -0.396875,0.396875 0,0.219188 0.177687,0.396875 0.396875,0.396875 0.219188,0 0.396875,-0.177687 0.396875,-0.396875 0,-0.219188 -0.177687,-0.396875 -0.396875,-0.396875 z m 3.4395833,0 c -0.2191879,0 -0.396875,0.177687 -0.396875,0.396875 0,0.219188 0.1776871,0.396875 0.396875,0.396875 0.219188,0 0.396875,-0.177687 0.396875,-0.396875 0,-0.219188 -0.177687,-0.396875 -0.396875,-0.396875 z m -2.6458333,0.79375 c -0.219188,0 -0.396875,0.177687 -0.396875,0.396875 0,0.219188 0.177687,0.396875 0.396875,0.396875 0.219188,0 0.396875,-0.177687 0.396875,-0.396875 0,-0.219188 -0.177687,-0.396875 -0.396875,-0.396875 z m 1.8520833,0 c -0.2191879,0 -0.396875,0.177687 -0.396875,0.396875 0,0.219188 0.1776871,0.396875 0.396875,0.396875 0.219188,0 0.396875,-0.177687 0.396875,-0.396875 0,-0.219188 -0.177687,-0.396875 -0.396875,-0.396875 z M 2.2489583,3.7041666 c -0.219188,0 -0.396875,0.177687 -0.396875,0.396875 0,0.2191879 0.177687,0.396875 0.396875,0.396875 0.219188,0 0.396875,-0.1776871 0.396875,-0.396875 0,-0.219188 -0.177687,-0.396875 -0.396875,-0.396875 z m 1.8520833,0 c -0.2191879,0 -0.396875,0.177687 -0.396875,0.396875 0,0.2191879 0.1776871,0.396875 0.396875,0.396875 0.219188,0 0.396875,-0.1776871 0.396875,-0.396875 0,-0.219188 -0.177687,-0.396875 -0.396875,-0.396875 z m -2.6458333,0.79375 c -0.219188,0 -0.396875,0.177687 -0.396875,0.396875 0,0.2191879 0.177687,0.396875 0.396875,0.396875 0.219188,0 0.396875,-0.1776871 0.396875,-0.396875 0,-0.219188 -0.177687,-0.396875 -0.396875,-0.396875 z m 3.4395833,0 c -0.2191879,0 -0.396875,0.177687 -0.396875,0.396875 0,0.2191879 0.1776871,0.396875 0.396875,0.396875 0.219188,0 0.396875,-0.1776871 0.396875,-0.396875 0,-0.219188 -0.177687,-0.396875 -0.396875,-0.396875 z"
     id="path3577"
     style="stroke-width:0.264583;fill:#ffffff" />
  <path
     id="rect1014"
     style="opacity:0.5;fill:#000000;stroke-width:0.999999"
     d="M 3.5,1 C 2.115,1 1,2.115 1,3.5 v 17 C 1,21.885 2.115,23 3.5,23 h 17 C 21.885,23 23,21.885 23,20.5 V 3.5 C 23,2.115 21.885,1 20.5,1 Z M 4,2 h 16 c 1.108,0 2,0.892 2,2 v 16 c 0,1.108 -0.892,2 -2,2 H 4 C 2.892,22 2,21.108 2,20 V 4 C 2,2.892 2.892,2 4,2 Z"
     transform="scale(0.26458333)"
     sodipodi:nodetypes="ssssssssssssssssss" />
</svg>
