<?xml version="1.0" encoding="UTF-8" standalone="no"?>
<!-- Created with Inkscape (http://www.inkscape.org/) -->

<svg
   width="24"
   height="24"
   viewBox="0 0 6.3499999 6.3499999"
   version="1.1"
   id="svg5"
   inkscape:version="1.2 (dc2aedaf03, 2022-05-15)"
   sodipodi:docname="gnome-mahjongg.svg"
   xmlns:inkscape="http://www.inkscape.org/namespaces/inkscape"
   xmlns:sodipodi="http://sodipodi.sourceforge.net/DTD/sodipodi-0.dtd"
   xmlns="http://www.w3.org/2000/svg"
   xmlns:svg="http://www.w3.org/2000/svg">
  <sodipodi:namedview
     id="namedview7"
     pagecolor="#ffffff"
     bordercolor="#666666"
     borderopacity="1.0"
     inkscape:pageshadow="2"
     inkscape:pageopacity="0.0"
     inkscape:pagecheckerboard="0"
     inkscape:document-units="px"
     showgrid="false"
     units="px"
     height="48px"
     inkscape:zoom="23.363987"
     inkscape:cx="9.0523933"
     inkscape:cy="14.723514"
     inkscape:window-width="1920"
     inkscape:window-height="1011"
     inkscape:window-x="0"
     inkscape:window-y="0"
     inkscape:window-maximized="1"
     inkscape:current-layer="svg5"
     showguides="false"
     inkscape:showpageshadow="2"
     inkscape:deskcolor="#d1d1d1" />
  <defs
     id="defs2" />
  <rect
     style="opacity:1;fill:#ffce51;fill-opacity:1;stroke-width:0.264583"
     id="rect1162"
     width="4.7624998"
     height="6.3499999"
     x="0.79374999"
     y="-1.9482167e-08"
     ry="0.52916664" />
  <path
     d="m 2.7245024,1.0930811 c -0.031568,0.027849 -0.03946,0.069638 -0.03946,0.1183507 0,0.090513 0.031574,0.2019128 0.047364,0.2436863 0,0 0.023682,0.4873726 0.031575,0.5430706 -0.071046,0.00697 -0.1973469,0.013924 -0.2447143,0.02785 h -0.063151 c -0.1341983,0.00697 -0.2604985,0.013924 -0.315743,0.062664 l -0.023706,0.020924 0.023676,0.027849 c 0.039469,0.041777 0.055257,0.1601393 0.071047,0.2854749 0.039469,0.2576259 0.086831,0.5779046 0.3236652,0.7032099 l 0.047364,0.020888 v -0.048736 c 0,0 0.00791,-0.020888 0.00791,-0.048738 0,-0.020888 -0.00791,-0.055701 -0.015784,-0.1044412 0.063149,0.00697 0.1973469,0.020888 0.2447144,0.020888 0.00791,0.055701 0.2131309,2.3255879 0.2131309,2.3255879 h 0.078939 c 0,0 0.086833,-2.2419805 0.086833,-2.3115274 0.055257,0 0.299974,0.00697 0.3710176,0.013924 -0.015784,0.041777 -0.078939,0.2158372 -0.078939,0.2158372 L 3.6007533,3.11933 C 3.6323254,3.0984433 4.3190799,2.5483818 4.2243751,2.1863145 4.1927977,2.0679518 4.0822847,1.9844018 3.9007099,1.9426283 h -0.015815 c -0.1026207,0 -0.41837,0.00697 -0.6551923,0.020888 0.00791,-0.1810335 0.00791,-0.278505 0.00791,-0.3272332 v -0.062655 c 0,-0.034816 0.039469,-0.083553 0.071047,-0.1183659 0.031577,-0.041777 0.071047,-0.076589 0.071047,-0.1183628 0,-0.013924 -0.00791,-0.027852 -0.015784,-0.041777 -0.047171,-0.062653 -0.3944519,-0.222792 -0.5444313,-0.2367316 -0.047353,0.00698 -0.07892,0.013939 -0.094704,0.034804 z m 0.00791,1.1418694 h 0.039469 c 0,0.062664 0.023682,0.5013122 0.031575,0.5639952 -0.063169,-0.00698 -0.2131475,-0.020895 -0.2605,-0.020895 -0.023676,-0.090532 -0.031569,-0.1879884 -0.03946,-0.285475 -0.0079,-0.083547 -0.015784,-0.1671242 -0.031599,-0.2436863 0.071047,0 0.2604986,-0.013924 0.2604986,-0.013924 z m 0.4815368,0.2158373 c 0,0 0.00787,-0.1671091 0.00787,-0.2228071 0.1026208,0.013925 0.2368222,0.020888 0.3631255,0.020888 h 0.1420935 c 0,0.02785 -0.00791,0.062664 -0.00791,0.062664 -0.015784,0.1531846 -0.039469,0.334188 -0.1105167,0.5152519 -0.047362,0 -0.3394494,-0.013924 -0.4025859,-0.020888 0,-0.048737 0.00791,-0.3551125 0.00791,-0.3551125 z"
     style="fill:#997c31;stroke-width:0.302377;fill-opacity:1"
     id="path7652" />
  <path
     id="rect1825"
     style="opacity:0.5;fill:#000000;fill-opacity:1;stroke-width:0.264583"
     d="M 1.3229167,1.1666667e-8 C 1.0297584,1.1666667e-8 0.79374999,0.23600834 0.79374999,0.52916664 V 5.8208332 c 0,0.2931583 0.23600841,0.5291667 0.52916671,0.5291667 h 3.7041667 c 0.2931583,0 0.5291666,-0.2360084 0.5291666,-0.5291667 V 0.52916664 C 5.55625,0.23600834 5.3202417,1.1666667e-8 5.0270834,1.1666667e-8 Z M 1.4552084,0.26458334 h 3.4395833 c 0.2198687,0 0.396875,0.17700625 0.396875,0.396875 V 5.6885415 c 0,0.2198688 -0.1770063,0.396875 -0.396875,0.396875 H 1.4552084 c -0.2198688,0 -0.3968751,-0.1770062 -0.3968751,-0.396875 V 0.66145834 c 0,-0.21986875 0.1770063,-0.396875 0.3968751,-0.396875 z"
     sodipodi:nodetypes="ssssssssssssssssss" />
</svg>
