<?xml version="1.0" encoding="UTF-8" standalone="no"?>
<!-- Created with Inkscape (http://www.inkscape.org/) -->

<svg
   width="24"
   height="24"
   viewBox="0 0 6.3499999 6.3499999"
   version="1.1"
   id="svg5"
   inkscape:version="1.2 (dc2aedaf03, 2022-05-15)"
   sodipodi:docname="gnome-tweak-tool.svg"
   xmlns:inkscape="http://www.inkscape.org/namespaces/inkscape"
   xmlns:sodipodi="http://sodipodi.sourceforge.net/DTD/sodipodi-0.dtd"
   xmlns="http://www.w3.org/2000/svg"
   xmlns:svg="http://www.w3.org/2000/svg">
  <sodipodi:namedview
     id="namedview7"
     pagecolor="#ffffff"
     bordercolor="#666666"
     borderopacity="1.0"
     inkscape:pageshadow="2"
     inkscape:pageopacity="0.0"
     inkscape:pagecheckerboard="0"
     inkscape:document-units="px"
     showgrid="false"
     units="px"
     height="48px"
     inkscape:zoom="33.916667"
     inkscape:cx="12"
     inkscape:cy="12"
     inkscape:window-width="1846"
     inkscape:window-height="1011"
     inkscape:window-x="0"
     inkscape:window-y="0"
     inkscape:window-maximized="1"
     inkscape:current-layer="svg5"
     inkscape:showpageshadow="2"
     inkscape:deskcolor="#d1d1d1" />
  <defs
     id="defs2" />
  <rect
     style="opacity:1;fill:#ececec;fill-opacity:1;stroke-width:0.264583"
     id="rect1162"
     width="5.8208332"
     height="5.8208332"
     x="0.26458332"
     y="0.26458332"
     ry="0.66145831" />
  <path
     id="rect1014"
     style="opacity:0.5;fill:#000000;stroke-width:0.999999"
     d="M 3.5,1 C 2.115,1 1,2.115 1,3.5 v 17 C 1,21.885 2.115,23 3.5,23 h 17 C 21.885,23 23,21.885 23,20.5 V 3.5 C 23,2.115 21.885,1 20.5,1 Z M 4,2 h 16 c 1.108,0 2,0.892 2,2 v 16 c 0,1.108 -0.892,2 -2,2 H 4 C 2.892,22 2,21.108 2,20 V 4 C 2,2.892 2.892,2 4,2 Z"
     transform="scale(0.26458333)"
     sodipodi:nodetypes="ssssssssssssssssss" />
  <rect
     style="fill:#48b9c7;fill-opacity:1;stroke-width:0.264583;stroke-linejoin:round"
     id="rect5162"
     width="4.2333331"
     height="1.5875"
     x="1.0583333"
     y="1.0583326"
     ry="0.79374999" />
  <rect
     style="fill:#d2d2d2;fill-opacity:1;stroke-width:0.264583;stroke-linejoin:round"
     id="rect7103"
     width="4.2333331"
     height="1.5875"
     x="1.0583333"
     y="3.4395843"
     ry="0.79374999" />
  <ellipse
     style="opacity:1;fill:#8d8d8d;fill-opacity:1;stroke-width:0.529167;stroke-linejoin:round"
     id="path15341"
     cx="2.1166656"
     cy="4.2333336"
     rx="1.0583323"
     ry="1.0583327" />
  <ellipse
     style="opacity:1;fill:#8d8d8d;fill-opacity:1;stroke-width:0.529167;stroke-linejoin:round"
     id="path15343"
     cx="4.2333322"
     cy="1.8520828"
     rx="1.0583335"
     ry="1.0583329" />
  <circle
     style="fill:#fafafa;fill-opacity:1;stroke-width:0.226786;stroke-linejoin:round"
     id="path4848"
     cx="2.1166651"
     cy="4.2333331"
     r="0.79374999" />
  <circle
     style="fill:#fafafa;fill-opacity:1;stroke-width:0.0566961"
     id="path13694"
     cx="4.2333298"
     cy="1.8520826"
     r="0.79374999" />
</svg>
