<?xml version="1.0" encoding="UTF-8" standalone="no"?>
<!-- Created with Inkscape (http://www.inkscape.org/) -->

<svg
   width="24"
   height="24"
   viewBox="0 0 6.3499999 6.3499999"
   version="1.1"
   id="svg5"
   inkscape:version="1.2 (dc2aedaf03, 2022-05-15)"
   sodipodi:docname="goa-account-lastfm.svg"
   xmlns:inkscape="http://www.inkscape.org/namespaces/inkscape"
   xmlns:sodipodi="http://sodipodi.sourceforge.net/DTD/sodipodi-0.dtd"
   xmlns="http://www.w3.org/2000/svg"
   xmlns:svg="http://www.w3.org/2000/svg">
  <sodipodi:namedview
     id="namedview7"
     pagecolor="#ffffff"
     bordercolor="#666666"
     borderopacity="1.0"
     inkscape:pageshadow="2"
     inkscape:pageopacity="0.0"
     inkscape:pagecheckerboard="0"
     inkscape:document-units="px"
     showgrid="false"
     units="px"
     height="48px"
     inkscape:zoom="18.86866"
     inkscape:cx="9.619125"
     inkscape:cy="12.904997"
     inkscape:window-width="1846"
     inkscape:window-height="1011"
     inkscape:window-x="0"
     inkscape:window-y="0"
     inkscape:window-maximized="1"
     inkscape:current-layer="svg5"
     inkscape:showpageshadow="2"
     inkscape:deskcolor="#d1d1d1" />
  <defs
     id="defs2" />
  <rect
     style="opacity:1;fill:#cf3b00;fill-opacity:1;stroke-width:0.264583"
     id="rect1162"
     width="5.8208332"
     height="5.8208332"
     x="0.26458332"
     y="0.26458332"
     ry="0.66145831" />
  <path
     id="rect1014"
     style="opacity:0.5;fill:#000000;stroke-width:0.999999"
     d="M 3.5,1 C 2.115,1 1,2.115 1,3.5 v 17 C 1,21.885 2.115,23 3.5,23 h 17 C 21.885,23 23,21.885 23,20.5 V 3.5 C 23,2.115 21.885,1 20.5,1 Z M 4,2 h 16 c 1.108,0 2,0.892 2,2 v 16 c 0,1.108 -0.892,2 -2,2 H 4 C 2.892,22 2,21.108 2,20 V 4 C 2,2.892 2.892,2 4,2 Z"
     transform="scale(0.26458333)"
     sodipodi:nodetypes="ssssssssssssssssss" />
  <path
     d="M 2.1308788,4.4853981 C 2.0461798,4.4737564 1.8955134,4.4240148 1.7950146,4.3748816 1.1402258,4.0562175 0.87244624,3.2536304 1.1949543,2.5775935 1.563395,1.8046133 2.5687078,1.6075781 3.1736546,2.1897937 c 0.1749361,0.1680898 0.252631,0.3115205 0.5160126,0.9475259 0.274946,0.6651095 0.3257656,0.7696729 0.4148625,0.8583347 0.095449,0.094324 0.1838946,0.126074 0.3531298,0.126074 0.2780408,0 0.476595,-0.1745456 0.476595,-0.4180946 0,-0.2061369 -0.071343,-0.2721504 -0.4352229,-0.4033573 C 3.9449044,3.0972616 3.7654076,2.9137996 3.764756,2.5453408 3.764756,2.3487819 3.813784,2.2177337 3.9383891,2.0819231 4.1172344,1.88801 4.4257343,1.8239808 4.6987259,1.9202627 c 0.1164614,0.042042 0.3601339,0.2610908 0.3601339,0.3237971 0,0.030427 -0.1412193,0.1234281 -0.2195661,0.145415 -0.041372,0.010848 -0.077044,-0.00318 -0.124768,-0.049795 -0.096753,-0.094297 -0.1622314,-0.1234281 -0.2780411,-0.1234281 -0.1998572,0 -0.3238108,0.1221052 -0.3238108,0.3193256 0,0.1965589 0.078835,0.2630487 0.4726858,0.3980656 0.5427255,0.1861344 0.7030021,0.3542242 0.7062597,0.7431881 0.00326,0.3360473 -0.1457801,0.5784321 -0.4422267,0.7218627 -0.1348669,0.064691 -0.1806371,0.072972 -0.4008546,0.072972 -0.3143636,0 -0.4555831,-0.059399 -0.6318224,-0.2610908 C 3.6983001,4.0749235 3.5780924,3.8202885 3.1932004,2.8907808 3.0335754,2.5056269 2.8286689,2.3168467 2.4869407,2.2425517 2.3137963,2.2050073 2.0727297,2.2399058 1.9155479,2.3239639 1.762275,2.4053762 1.5910854,2.5890235 1.5102953,2.7569546 c -0.066782,0.1363133 -0.073134,0.1745456 -0.073134,0.4116387 0,0.2261658 0.00896,0.2797704 0.064827,0.40386 0.084699,0.1894417 0.2513281,0.3644635 0.4345714,0.4587875 0.1324237,0.067839 0.1736331,0.076279 0.384892,0.076279 0.2029518,0 0.2550745,-0.00979 0.3760962,-0.068501 0.1381248,-0.0685 0.3238112,-0.2365897 0.3995516,-0.3625049 l 0.039418,-0.065352 0.077695,0.18034 c 0.043327,0.099589 0.078184,0.1932517 0.078184,0.2101057 0,0.049821 -0.1755879,0.2126191 -0.3365159,0.3140339 C 2.7115561,4.4688616 2.4309091,4.5262498 2.1312047,4.4848954"
     style="fill:#ffffff;stroke-width:0.264583"
     id="path17295" />
</svg>
