<?xml version="1.0" encoding="UTF-8" standalone="no"?>
<!-- Created with Inkscape (http://www.inkscape.org/) -->

<svg
   width="24"
   height="24"
   viewBox="0 0 6.3499999 6.3499999"
   version="1.1"
   id="svg5"
   inkscape:version="1.2 (dc2aedaf03, 2022-05-15)"
   sodipodi:docname="goa-account-google.svg"
   xmlns:inkscape="http://www.inkscape.org/namespaces/inkscape"
   xmlns:sodipodi="http://sodipodi.sourceforge.net/DTD/sodipodi-0.dtd"
   xmlns="http://www.w3.org/2000/svg"
   xmlns:svg="http://www.w3.org/2000/svg">
  <sodipodi:namedview
     id="namedview7"
     pagecolor="#ffffff"
     bordercolor="#666666"
     borderopacity="1.0"
     inkscape:pageshadow="2"
     inkscape:pageopacity="0.0"
     inkscape:pagecheckerboard="0"
     inkscape:document-units="px"
     showgrid="false"
     units="px"
     height="48px"
     inkscape:zoom="18.86866"
     inkscape:cx="9.619125"
     inkscape:cy="12.904997"
     inkscape:window-width="1846"
     inkscape:window-height="1011"
     inkscape:window-x="0"
     inkscape:window-y="0"
     inkscape:window-maximized="1"
     inkscape:current-layer="svg5"
     inkscape:showpageshadow="2"
     inkscape:deskcolor="#d1d1d1" />
  <defs
     id="defs2" />
  <rect
     style="opacity:1;fill:#ededed;fill-opacity:1;stroke-width:0.264583"
     id="rect1162"
     width="5.8208332"
     height="5.8208332"
     x="0.26458332"
     y="0.26458332"
     ry="0.66145831" />
  <path
     id="rect1014"
     style="opacity:0.5;fill:#000000;stroke-width:0.999999"
     d="M 3.5,1 C 2.115,1 1,2.115 1,3.5 v 17 C 1,21.885 2.115,23 3.5,23 h 17 C 21.885,23 23,21.885 23,20.5 V 3.5 C 23,2.115 21.885,1 20.5,1 Z M 4,2 h 16 c 1.108,0 2,0.892 2,2 v 16 c 0,1.108 -0.892,2 -2,2 H 4 C 2.892,22 2,21.108 2,20 V 4 C 2,2.892 2.892,2 4,2 Z"
     transform="scale(0.26458333)"
     sodipodi:nodetypes="ssssssssssssssssss" />
  <path
     id="path782"
     style="fill:#3f51b5;fill-opacity:1;stroke-width:0.15119"
     d="M 3.1749999,2.7212809 V 3.4395833 H 4.4700113 A 1.3229166,1.3229166 0 0 1 3.9475626,4.2478027 l 0.666626,0.5028116 c 0.4180871,-0.3870467 0.677478,-0.9511989 0.677478,-1.5756144 0,-0.1015961 -0.0088,-0.1998642 -0.022221,-0.2971394 l 0.00155,-0.012402 -0.024805,-0.1441772 H 4.891691 4.7624999 4.4173014 Z" />
  <path
     id="path784"
     style="fill:#cf3b00;fill-opacity:1;stroke-width:0.15119"
     d="m 3.2199584,1.0583333 c -0.830004,0 -1.5691016,0.4775796 -1.9285644,1.173055 L 1.9502685,2.6768392 A 1.3229166,1.3229166 0 0 1 3.1749999,1.8520833 1.3229166,1.3229166 0 0 1 4.0850219,2.2148519 L 4.6389932,1.6252238 C 4.2718166,1.2744623 3.7753515,1.0583333 3.2199584,1.0583333 Z" />
  <path
     id="path786"
     style="fill:#faa41a;fill-opacity:1;stroke-width:0.15119"
     d="m 1.2898437,2.2313883 c -0.146562,0.2842379 -0.2315104,0.6049454 -0.2315104,0.9436116 0,0.3507616 0.089645,0.680198 0.2454631,0.9704834 L 1.9554362,3.6871134 A 1.3229166,1.3229166 0 0 1 1.8520833,3.1749999 1.3229166,1.3229166 0 0 1 1.9497518,2.6768392 L 1.795756,2.5729695 Z" />
  <path
     id="path788"
     style="fill:#479863;fill-opacity:1;stroke-width:0.15119"
     d="m 1.9564697,3.6876301 -0.651123,0.4578532 c 0.3640913,0.6803563 1.0954071,1.1461833 1.9146117,1.1461833 0.543051,0 1.0285964,-0.2038978 1.3942302,-0.5410523 L 3.9542805,4.242635 A 1.3229166,1.3229166 0 0 1 3.1749999,4.4979166 1.3229166,1.3229166 0 0 1 1.9564697,3.6876301 Z" />
</svg>
