<?xml version="1.0" encoding="UTF-8" standalone="no"?>
<!-- Created with Inkscape (http://www.inkscape.org/) -->

<svg
   width="24"
   height="24"
   viewBox="0 0 6.3499999 6.3499999"
   version="1.1"
   id="svg5"
   inkscape:version="1.2 (dc2aedaf03, 2022-05-15)"
   sodipodi:docname="ibus-setup-hangul.svg"
   xmlns:inkscape="http://www.inkscape.org/namespaces/inkscape"
   xmlns:sodipodi="http://sodipodi.sourceforge.net/DTD/sodipodi-0.dtd"
   xmlns="http://www.w3.org/2000/svg"
   xmlns:svg="http://www.w3.org/2000/svg">
  <sodipodi:namedview
     id="namedview7"
     pagecolor="#ffffff"
     bordercolor="#666666"
     borderopacity="1.0"
     inkscape:pageshadow="2"
     inkscape:pageopacity="0.0"
     inkscape:pagecheckerboard="0"
     inkscape:document-units="px"
     showgrid="false"
     units="px"
     height="48px"
     inkscape:zoom="23.982705"
     inkscape:cx="10.007211"
     inkscape:cy="13.822461"
     inkscape:window-width="1538"
     inkscape:window-height="973"
     inkscape:window-x="35"
     inkscape:window-y="32"
     inkscape:window-maximized="0"
     inkscape:current-layer="svg5"
     inkscape:showpageshadow="2"
     inkscape:deskcolor="#d1d1d1" />
  <defs
     id="defs2" />
  <circle
     style="fill:#1f285a;stroke-width:0.243022"
     id="path925"
     cx="3.175"
     cy="3.175"
     r="3.175" />
  <circle
     style="fill:#3f51b5;fill-opacity:1;stroke-width:0.420886"
     id="path927"
     cx="3.175"
     cy="3.175"
     r="2.9104166" />
  <path
     id="rect6754"
     style="fill:#7f6728;stroke-width:0.529167;stroke-linejoin:round;fill-opacity:1"
     d="M 5.1128661 0.66042479 L 3.1197062 1.0903727 L 5.0565388 2.6747721 L 5.5939737 4.0328287 L 4.8255452 5.4213744 C 4.5810943 5.6462228 4.3992192 5.8136771 3.9000203 5.992399 C 3.6986898 6.0917479 3.2256124 6.2738537 2.8540893 6.3319131 A 3.175 3.175 0 0 0 3.175 6.3499999 A 3.175 3.175 0 0 0 6.3499999 3.175 A 3.175 3.175 0 0 0 5.1133829 0.66042479 A 3.175 3.175 0 0 0 5.1128661 0.66042479 z " />
  <path
     id="rect5529"
     style="fill:#671d00;fill-opacity:1;stroke-width:0.529167;stroke-linejoin:round"
     d="M 3.175,0 C 2.0533311,4.6403128e-4 1.0151411,0.59273324 0.44390055,1.5580444 0.40549701,1.8914533 0.39224895,2.1872863 0.37465413,2.3869344 L 5.260144,1.1368815 C 5.5242499,1.309354 5.7286149,1.4319218 5.9613931,1.6536458 5.4049231,0.63431974 4.3363288,1.3913521e-4 3.175,0 Z"
     sodipodi:nodetypes="cccccc" />
  <path
     d="m 3.928855,0.58539359 c -0.06486,-0.00224 -0.1290237,-0.0021 -0.1918875,2.849e-4 C 3.1351488,0.60839759 2.4201048,1.0031469 2.1760051,1.5784932 1.9003776,2.2281522 1.7124687,3.1696791 3.1704154,3.1696791 3.5557268,2.5071182 4.562509,2.6414734 4.9873676,3.2049817 5.3636278,3.7040321 5.3431907,4.3829537 5.0619591,4.9154567 4.8269476,5.360443 4.4306283,5.8026994 3.9001002,5.9921906 5.1571647,5.6685432 6.085454,4.5272108 6.085454,3.1696791 6.085454,2.3798372 5.7709133,1.6617523 5.2601098,1.1366394 5.2354346,1.1152962 5.2084054,1.0961529 5.1826717,1.0757135 4.8164867,0.79502839 4.3566773,0.60012619 3.928855,0.58539359 Z"
     style="fill:#ffce51;fill-opacity:1;fill-rule:evenodd;stroke-width:0.291531"
     id="path886" />
  <path
     d="M 3.1188845,0.26517395 C 2.6433561,0.27475434 2.1636293,0.40095964 1.7227176,0.65549709 1.0386324,1.0504169 0.57406564,1.6818701 0.37466506,2.3867551 c -0.00556,0.028985 -0.00849,0.059302 -0.013096,0.088827 C 0.28928369,3.005266 0.46620836,3.5378843 0.72199844,3.9446313 1.0425863,4.4544141 1.6205111,4.8118225 2.240871,4.7355265 2.9413571,4.6493759 3.5612861,3.8448676 3.1800949,3.1799281 2.4135922,3.1775431 2.0267385,2.2384014 2.3023662,1.5887422 2.5464654,1.0133961 3.1448283,0.69159839 3.7466469,0.66887799 4.2495571,0.64989339 4.8307267,0.77197619 5.2601098,1.1366394 4.6920817,0.55743469 3.9114314,0.24920663 3.1188845,0.26517395 Z"
     style="fill:#cf3b00;fill-opacity:1;fill-rule:evenodd;stroke-width:0.291531"
     id="path858" />
  <path
     d="m 2.7119793,1.5875 -0.040746,0.4878916 c -0.1547416,0.057306 -0.2986114,0.1405131 -0.42545,0.2460625 l -0.4434417,-0.2090208 -0.463021,0.8022166 0.402696,0.2794 c -0.01434,0.081068 -0.021775,0.1632075 -0.022225,0.2455334 3.97e-5,0.082649 0.00712,0.1651447 0.021167,0.2465916 l -0.401638,0.2783417 0.463021,0.8022166 0.4423833,-0.2084916 c 0.1272752,0.1050898 0.2715022,0.187761 0.4265084,0.244475 l 0.040746,0.48895 h 0.9260414 l 0.040746,-0.4878917 c 0.1547415,-0.057306 0.2986087,-0.1405131 0.42545,-0.2460625 l 0.4431771,0.2090208 0.4630208,-0.8022166 -0.4024313,-0.2794 c 0.014341,-0.081068 0.021775,-0.1632074 0.022225,-0.2455333 -3.97e-5,-0.082649 -0.00712,-0.1651448 -0.021167,-0.2465917 L 5.0106793,2.9146499 4.5476584,2.1124333 4.1052751,2.3209249 C 3.9779999,2.2158348 3.8337729,2.1331639 3.6787668,2.0764499 L 3.6380208,1.5875 Z m 0.4630208,1.3229166 c 0.2922508,0 0.5291667,0.2369161 0.5291667,0.5291667 0,0.2922505 -0.2369159,0.5291666 -0.5291667,0.5291666 -0.2922508,0 -0.5291666,-0.2369161 -0.5291666,-0.5291666 0,-0.2922506 0.2369158,-0.5291667 0.5291666,-0.5291667 z"
     style="fill:#000000;stroke-width:0.264583;opacity:0.2"
     id="path4200" />
  <path
     d="M 2.7119793,1.3229166 2.6712335,1.8108083 C 2.5164919,1.8681141 2.3726221,1.9513214 2.2457835,2.0568708 L 1.8023418,1.84785 l -0.463021,0.8022166 0.402696,0.2794 c -0.01434,0.081068 -0.021775,0.1632075 -0.022225,0.2455334 3.97e-5,0.082649 0.00712,0.1651447 0.021167,0.2465916 l -0.401638,0.2783417 0.463021,0.8022166 0.4423833,-0.2084916 c 0.1272752,0.1050898 0.2715022,0.187761 0.4265084,0.244475 l 0.040746,0.48895 H 3.6380209 L 3.6787668,4.5391916 C 3.8335083,4.4818856 3.9773755,4.3986785 4.1042168,4.2931291 L 4.5473939,4.5021499 5.0104147,3.6999333 4.6079834,3.4205333 C 4.6223244,3.3394653 4.6297584,3.2573259 4.6302084,3.175 4.6301687,3.092351 4.6230884,3.0098552 4.6090414,2.9284083 L 5.0106793,2.6500666 4.5476584,1.84785 4.1052751,2.0563416 C 3.9779999,1.9512515 3.8337729,1.8685806 3.6787668,1.8118666 l -0.040746,-0.48895 z m 0.4630208,1.3229167 c 0.2922508,0 0.5291667,0.2369161 0.5291667,0.5291667 0,0.2922505 -0.2369159,0.5291666 -0.5291667,0.5291666 -0.2922508,0 -0.5291666,-0.2369161 -0.5291666,-0.5291666 0,-0.2922506 0.2369158,-0.5291667 0.5291666,-0.5291667 z"
     style="fill:#fafafb;stroke-width:0.264583"
     id="path1697"
     sodipodi:nodetypes="cccccccccccccccccccccccccccsssss" />
</svg>
