<?xml version="1.0" encoding="UTF-8" standalone="no"?>
<!-- Created with Inkscape (http://www.inkscape.org/) -->

<svg
   width="24"
   height="24"
   viewBox="0 0 6.3499999 6.3499999"
   version="1.1"
   id="svg5"
   inkscape:version="1.2 (dc2aedaf03, 2022-05-15)"
   sodipodi:docname="inkscape.svg"
   xmlns:inkscape="http://www.inkscape.org/namespaces/inkscape"
   xmlns:sodipodi="http://sodipodi.sourceforge.net/DTD/sodipodi-0.dtd"
   xmlns="http://www.w3.org/2000/svg"
   xmlns:svg="http://www.w3.org/2000/svg">
  <sodipodi:namedview
     id="namedview7"
     pagecolor="#ffffff"
     bordercolor="#666666"
     borderopacity="1.0"
     inkscape:pageshadow="2"
     inkscape:pageopacity="0.0"
     inkscape:pagecheckerboard="0"
     inkscape:document-units="px"
     showgrid="false"
     units="px"
     height="48px"
     inkscape:zoom="34.041667"
     inkscape:cx="11.985312"
     inkscape:cy="12"
     inkscape:window-width="1920"
     inkscape:window-height="1010"
     inkscape:window-x="0"
     inkscape:window-y="0"
     inkscape:window-maximized="1"
     inkscape:current-layer="svg5"
     showguides="true"
     inkscape:showpageshadow="2"
     inkscape:deskcolor="#d1d1d1" />
  <defs
     id="defs2" />
  <rect
     style="opacity:1;fill:#444444;fill-opacity:1;stroke-width:0.529153"
     id="rect6085"
     width="4.799418"
     height="4.799418"
     x="2.0904191"
     y="-2.399709"
     ry="0.52916664"
     transform="rotate(45)" />
  <path
     d="M 3.1749078,0 C 3.0397057,0 2.9045036,0.051858 2.800787,0.155575 L 0.15548287,2.8008791 c -0.20731049,0.2063353 -0.20731049,0.5419064 0,0.7482417 L 2.800787,6.1944249 c 0.2063353,0.2073106 0.5419063,0.2073106 0.7482416,0 L 6.1943328,3.5491208 c 0.2073105,-0.2063353 0.2073105,-0.5419064 0,-0.7482417 L 3.5490286,0.155575 C 3.4499999,0.0559877 3.315351,-4.8996784e-6 3.1749078,0 Z m 0,0.26458333 c 0.067733,0 0.1352021,0.0256646 0.1870604,0.0775229 L 6.0078015,2.9879395 c 0.1035818,0.1031981 0.1035818,0.2709228 0,0.3741209 L 3.3619682,6.0078937 c -0.1031981,0.1035817 -0.2709227,0.1035817 -0.3741208,0 L 0.34201412,3.3620604 c -0.10358166,-0.1031981 -0.10358166,-0.2709228 0,-0.3741209 L 2.9878474,0.34210625 c 0.049541,-0.0497214 0.116871,-0.0776247 0.1870604,-0.0775229 z"
     style="fill-opacity:1;stroke-width:0.264583;fill:#000000;opacity:0.5"
     id="path5579" />
  <path
     d="m 3.1750001,1.8520833 c -0.074789,0 -0.1495762,0.028253 -0.2060827,0.088084 L 1.940167,3.0004944 C 1.883661,3.0586634 1.853746,3.1351127 1.852083,3.2115625 v 0.00499 c 0,0.2276876 0.6066136,0.00665 0.6614582,0.2841943 0.029915,0.1512378 -0.3307291,0.081436 -0.3307291,0.2326738 0,0.177829 0.5102202,0.056506 0.6564723,0.2010966 0.059831,0.146252 -0.1961107,0.122985 -0.149576,0.2592651 0.08476,0.088084 0.2775465,0.038223 0.3141095,0.1811528 0.043211,0.1628718 0.3190954,0.1346185 0.4803054,0.014957 C 3.5705451,4.3018069 3.3528291,4.2619199 3.4375886,4.1721746 3.5240106,4.0840908 3.9461476,4.1023722 3.9494716,3.9095855 3.9095846,3.788263 3.7500361,3.7683196 3.7483741,3.6253912 3.7400661,3.5040683 3.8780071,3.5389695 4.3167636,3.4193087 4.4912689,3.3362111 4.4979169,3.2930001 4.4979169,3.2165504 v -0.00499 C 4.4962419,3.1351131 4.4613546,3.0586632 4.4048471,3.0004947 L 3.3810826,1.9401669 c -0.058169,-0.05983 -0.131295,-0.088084 -0.2060825,-0.088084 z m 0.019945,0.222702 c 0.078112,0 0.290842,0.262589 0.480305,0.4603616 0.054844,0.071464 -0.019945,0.1445901 -0.019945,0.1445901 L 3.2580976,2.4620209 3.0819304,2.6996805 2.9273685,2.4670068 2.834299,2.829313 2.5600764,2.6647794 2.6332024,2.5717099 3.0619869,2.1312918 c 0.031577,-0.033239 0.058167,-0.056506 0.1329567,-0.056506 z m 1.1783265,1.5921532 c -0.021605,-0.00167 -0.04155,0 -0.056506,0.00499 -0.028255,0.00831 -0.16121,0.013295 -0.149577,0.1130125 0.1196615,0.05152 0.3024763,0.091407 0.3240823,-0.00997 C 4.5078909,3.700183 4.4364269,3.668606 4.3732716,3.6669435 Z M 2.3224168,4.0026532 c -0.011637,0.00167 -0.019944,0.00499 -0.029915,0.00997 -0.091407,0.034898 -0.1528999,0.1080275 -0.06814,0.1396044 0.08476,0.031579 0.1429281,-0.00167 0.2177161,-0.04155 0.074788,-0.039887 0.071464,-0.046535 0.066479,-0.061492 -0.00998,0.00168 -0.078111,-0.039887 -0.1495758,-0.046535 -0.011637,-0.00168 -0.02493,-0.00168 -0.036563,0 z"
     style="fill:#ffffff;stroke-width:0.166196"
     id="path1246" />
</svg>
