<?xml version="1.0" encoding="UTF-8" standalone="no"?>
<!-- Created with Inkscape (http://www.inkscape.org/) -->

<svg
   width="24"
   height="24"
   viewBox="0 0 6.3499999 6.3499999"
   version="1.1"
   id="svg5"
   inkscape:version="1.1.2 (0a00cf5339, 2022-02-04, custom)"
   sodipodi:docname="internet-web-browser.svg"
   xmlns:inkscape="http://www.inkscape.org/namespaces/inkscape"
   xmlns:sodipodi="http://sodipodi.sourceforge.net/DTD/sodipodi-0.dtd"
   xmlns="http://www.w3.org/2000/svg"
   xmlns:svg="http://www.w3.org/2000/svg">
  <sodipodi:namedview
     id="namedview7"
     pagecolor="#ffffff"
     bordercolor="#666666"
     borderopacity="1.0"
     inkscape:pageshadow="2"
     inkscape:pageopacity="0.0"
     inkscape:pagecheckerboard="0"
     inkscape:document-units="px"
     showgrid="false"
     units="px"
     height="48px"
     inkscape:zoom="6.6710785"
     inkscape:cx="6.370784"
     inkscape:cy="34.027481"
     inkscape:window-width="1920"
     inkscape:window-height="1017"
     inkscape:window-x="0"
     inkscape:window-y="0"
     inkscape:window-maximized="1"
     inkscape:current-layer="svg5" />
  <defs
     id="defs2" />
  <circle
     style="fill:#1f285a;stroke-width:0.243022"
     id="path925"
     cx="3.175"
     cy="3.175"
     r="3.175" />
  <circle
     style="fill:#3f51b5;fill-opacity:1;stroke-width:0.420886"
     id="path927"
     cx="3.175"
     cy="3.175"
     r="2.9104166" />
  <path
     d="m 3.1752647,0.26458512 c -0.396875,0 -0.7741708,0.07911 -1.1183937,0.2217209 -0.1691375,0.1575646 -0.3226091,0.350139 -0.4558771,0.57202908 H 1.1776606 C 1.0095338,1.216511 0.86084853,1.3941496 0.73474813,1.5875018 H 1.3451418 C 1.1883947,1.9922746 1.0932532,2.4440295 1.0665356,2.9104184 H 0.27807733 c -0.00794,0.087312 -0.013494,0.1751542 -0.013494,0.2645834 0,0.089429 0.00556,0.1772708 0.013229,0.2645833 H 1.0670644 c 0.02622,0.4662011 0.1208272,0.9179454 0.2770187,1.3229166 H 0.73474813 C 0.86085913,4.955846 1.0095417,5.1334846 1.1776606,5.2916684 h 0.4228042 c 0.1326673,0.2212816 0.2854139,0.4134855 0.4537604,0.5709708 0.3553036,0.1475581 0.7363142,0.223274 1.1210395,0.2227792 0.396875,0 0.7741709,-0.07911 1.1181292,-0.2217208 C 4.4627193,5.7061911 4.6163708,5.5136141 4.7498001,5.2916684 H 5.1726043 C 5.3407311,5.1334925 5.4894137,4.9558513 5.6155168,4.7625017 H 5.0051231 C 5.1618702,4.3577289 5.2570117,3.9059714 5.2837293,3.4395851 h 0.7884583 c 0.00794,-0.087312 0.013494,-0.1751542 0.013494,-0.2645833 0,-0.089429 -0.00556,-0.1772709 -0.013229,-0.2645834 H 5.2832001 C 5.2569799,2.4442147 5.1623729,1.9924704 5.0061814,1.5875018 H 5.6155168 C 5.4894137,1.3941522 5.3407285,1.216511 5.1726043,1.0583351 H 4.7495356 C 4.6168682,0.83705092 4.4641216,0.64484692 4.2957751,0.48736432 3.9406382,0.33987232 3.5598102,0.26415922 3.1752647,0.26458512 Z m -0.2645833,0.301625 V 1.0583351 H 2.2254106 C 2.4271289,0.80588032 2.6620419,0.63717672 2.9106814,0.56621012 Z m 0.5291667,0.00265 c 0.2483141,0.070316 0.4830233,0.2380959 0.6847416,0.48947908 H 3.4398481 Z M 1.907646,1.5875018 H 2.9106814 V 2.9104184 H 1.5957023 C 1.6253356,2.4302764 1.7332089,1.972796 1.907646,1.5875018 Z m 1.5322021,0 H 4.4434126 C 4.6169978,1.9732246 4.7240403,2.4306706 4.7529751,2.9104184 H 3.4398481 Z M 1.5975543,3.4395851 H 2.9106814 V 4.7625017 H 1.9071168 C 1.7335317,4.3767763 1.6264892,3.9193302 1.5975543,3.4395851 Z m 1.8422938,0 H 4.7548272 C 4.7251939,3.9197245 4.617318,4.3772076 4.4428835,4.7625017 H 3.4398481 Z M 2.2259398,5.2916684 H 2.9106814 V 5.7811476 C 2.6623673,5.7108319 2.4276581,5.5430517 2.2259398,5.2916684 Z m 1.2139083,0 H 4.1251189 C 3.9234006,5.5441232 3.6884876,5.7128242 3.4398481,5.7837934 Z"
     style="fill:#94a6ff;stroke-width:0.264583"
     id="path1111" />
</svg>
