<?xml version="1.0" encoding="UTF-8" standalone="no"?>
<!-- Created with Inkscape (http://www.inkscape.org/) -->

<svg
   width="24"
   height="24"
   viewBox="0 0 6.3499999 6.3499999"
   version="1.1"
   id="svg5"
   inkscape:version="1.1.2 (0a00cf5339, 2022-02-04, custom)"
   sodipodi:docname="internet-news-reader.svg"
   xmlns:inkscape="http://www.inkscape.org/namespaces/inkscape"
   xmlns:sodipodi="http://sodipodi.sourceforge.net/DTD/sodipodi-0.dtd"
   xmlns="http://www.w3.org/2000/svg"
   xmlns:svg="http://www.w3.org/2000/svg">
  <sodipodi:namedview
     id="namedview7"
     pagecolor="#ffffff"
     bordercolor="#666666"
     borderopacity="1.0"
     inkscape:pageshadow="2"
     inkscape:pageopacity="0.0"
     inkscape:pagecheckerboard="0"
     inkscape:document-units="px"
     showgrid="false"
     units="px"
     height="48px"
     inkscape:zoom="16.208334"
     inkscape:cx="-3.2390745"
     inkscape:cy="22.51928"
     inkscape:window-width="1920"
     inkscape:window-height="1002"
     inkscape:window-x="0"
     inkscape:window-y="0"
     inkscape:window-maximized="1"
     inkscape:current-layer="svg5"
     showguides="false" />
  <defs
     id="defs2" />
  <rect
     style="opacity:1;fill:#de8800;fill-opacity:1;stroke-width:0.264583"
     id="rect1162"
     width="5.8208332"
     height="5.8208332"
     x="0.26458332"
     y="0.26458332"
     ry="0.66145831" />
  <path
     id="rect1014"
     style="opacity:0.5;fill:#000000;stroke-width:0.999999"
     d="M 3.5,1 C 2.115,1 1,2.115 1,3.5 v 17 C 1,21.885 2.115,23 3.5,23 h 17 C 21.885,23 23,21.885 23,20.5 V 3.5 C 23,2.115 21.885,1 20.5,1 Z M 4,2 h 16 c 1.108,0 2,0.892 2,2 v 16 c 0,1.108 -0.892,2 -2,2 H 4 C 2.892,22 2,21.108 2,20 V 4 C 2,2.892 2.892,2 4,2 Z"
     transform="scale(0.26458333)"
     sodipodi:nodetypes="ssssssssssssssssss" />
  <path
     d="m 0.52916666,2.1166667 v 0.5291667 c 1.75350414,0 3.17500004,1.4214951 3.17500004,3.175 h 0.5291667 c 0,-2.0457557 -1.6584121,-3.7041667 -3.70416674,-3.7041667 z m 0,1.0583334 v 0.5291666 c 1.16900274,0 2.11666674,0.9476634 2.11666674,2.1166667 H 3.175 C 3.175,4.3595793 1.99042,3.1750001 0.52916666,3.1750001 Z m 0,1.0583333 V 4.7625 c 0.58450144,0 1.05833344,0.4738317 1.05833344,1.0583334 h 0.5291666 c 0,-0.8767525 -0.7107481,-1.5875 -1.58750004,-1.5875 z m 0,1.0583333 c 0,0.2931583 0.2360084,0.5291667 0.52916674,0.5291667 0,-0.2922508 -0.23691614,-0.5291667 -0.52916674,-0.5291667 z"
     style="fill:#f5f5f5;stroke-width:0.264583"
     id="path892" />
</svg>
