<?xml version="1.0" encoding="UTF-8" standalone="no"?>
<!-- Created with Inkscape (http://www.inkscape.org/) -->

<svg
   width="24"
   height="24"
   viewBox="0 0 6.3499999 6.3499999"
   version="1.1"
   id="svg5"
   inkscape:version="1.2 (dc2aedaf03, 2022-05-15)"
   sodipodi:docname="io.elementary.music.svg"
   xmlns:inkscape="http://www.inkscape.org/namespaces/inkscape"
   xmlns:sodipodi="http://sodipodi.sourceforge.net/DTD/sodipodi-0.dtd"
   xmlns="http://www.w3.org/2000/svg"
   xmlns:svg="http://www.w3.org/2000/svg">
  <sodipodi:namedview
     id="namedview7"
     pagecolor="#ffffff"
     bordercolor="#666666"
     borderopacity="1.0"
     inkscape:pageshadow="2"
     inkscape:pageopacity="0.0"
     inkscape:pagecheckerboard="0"
     inkscape:document-units="px"
     showgrid="false"
     units="px"
     height="48px"
     inkscape:zoom="26.684314"
     inkscape:cx="3.560144"
     inkscape:cy="13.153795"
     inkscape:window-width="1846"
     inkscape:window-height="1011"
     inkscape:window-x="0"
     inkscape:window-y="0"
     inkscape:window-maximized="1"
     inkscape:current-layer="svg5"
     inkscape:showpageshadow="2"
     inkscape:deskcolor="#d1d1d1" />
  <defs
     id="defs2" />
  <rect
     style="opacity:1;fill:#faa41a;fill-opacity:1;stroke-width:0.264583"
     id="rect1162"
     width="5.8208332"
     height="5.8208332"
     x="0.26458332"
     y="0.26458332"
     ry="0.66145831" />
  <path
     id="rect1014"
     style="opacity:0.5;fill:#000000;stroke-width:0.999999"
     d="M 3.5,1 C 2.115,1 1,2.115 1,3.5 v 17 C 1,21.885 2.115,23 3.5,23 h 17 C 21.885,23 23,21.885 23,20.5 V 3.5 C 23,2.115 21.885,1 20.5,1 Z M 4,2 h 16 c 1.108,0 2,0.892 2,2 v 16 c 0,1.108 -0.892,2 -2,2 H 4 C 2.892,22 2,21.108 2,20 V 4 C 2,2.892 2.892,2 4,2 Z"
     transform="scale(0.26458333)"
     sodipodi:nodetypes="ssssssssssssssssss" />
  <path
     d="m 2.647402,1.5874999 c -0.2922509,0 -0.5291667,0.2369158 -0.5291667,0.5291667 v 1.6372416 c -0.084614,-0.031901 -0.174162,-0.048736 -0.2645834,-0.049742 -0.7072048,0 -1.06124641,0.8549799 -0.5612368,1.3549868 C 1.7924221,5.5591627 2.647402,5.2051211 2.647402,4.4979163 V 2.6458332 h 1.5874999 v 1.108075 c -0.084614,-0.031901 -0.174162,-0.048736 -0.2645834,-0.049742 -0.7072047,0 -1.0612463,0.8549799 -0.5612367,1.3549868 0.5000068,0.5000096 1.3549867,0.145968 1.3549867,-0.5612368 V 2.1166666 c 0,-0.2922509 -0.2369158,-0.5291667 -0.5291666,-0.5291667 z"
     style="opacity:0.2;fill:#000000;stroke-width:0.0700042"
     id="path938" />
  <path
     d="m 2.647402,1.3229166 c -0.2922508,0 -0.5291667,0.2369159 -0.5291667,0.5291667 v 1.6372416 c -0.084614,-0.031901 -0.174162,-0.048736 -0.2645833,-0.049742 -0.7072048,0 -1.06124641,0.8549799 -0.5612368,1.3549868 0.5000069,0.5000096 1.3549868,0.145968 1.3549868,-0.5612368 v -1.852083 h 1.5875 v 1.108075 C 4.150288,3.4574239 4.06074,3.4405889 3.9703186,3.4395829 c -0.7072048,0 -1.0612464,0.8549799 -0.5612368,1.3549868 0.5000069,0.5000096 1.3549868,0.145968 1.3549868,-0.5612368 V 1.8520833 c 0,-0.2922508 -0.2369158,-0.5291667 -0.5291666,-0.5291667 z"
     style="fill:#ffffff;stroke-width:0.264583"
     id="path934"
     sodipodi:nodetypes="sscccscccccssss" />
</svg>
