<?xml version="1.0" encoding="UTF-8" standalone="no"?>
<!-- Created with Inkscape (http://www.inkscape.org/) -->

<svg
   width="24"
   height="24"
   viewBox="0 0 6.3499999 6.3499999"
   version="1.1"
   id="svg5"
   inkscape:version="1.2 (dc2aedaf03, 2022-05-15)"
   sodipodi:docname="kleopatra.svg"
   xmlns:inkscape="http://www.inkscape.org/namespaces/inkscape"
   xmlns:sodipodi="http://sodipodi.sourceforge.net/DTD/sodipodi-0.dtd"
   xmlns="http://www.w3.org/2000/svg"
   xmlns:svg="http://www.w3.org/2000/svg">
  <sodipodi:namedview
     id="namedview7"
     pagecolor="#ffffff"
     bordercolor="#666666"
     borderopacity="1.0"
     inkscape:pageshadow="2"
     inkscape:pageopacity="0.0"
     inkscape:pagecheckerboard="0"
     inkscape:document-units="px"
     showgrid="false"
     units="px"
     height="48px"
     inkscape:zoom="13.342157"
     inkscape:cx="-16.189286"
     inkscape:cy="9.5187008"
     inkscape:window-width="1920"
     inkscape:window-height="1016"
     inkscape:window-x="0"
     inkscape:window-y="0"
     inkscape:window-maximized="1"
     inkscape:current-layer="svg5"
     inkscape:showpageshadow="2"
     inkscape:deskcolor="#d1d1d1" />
  <defs
     id="defs2" />
  <rect
     style="opacity:1;fill:#d3b165;fill-opacity:1;stroke-width:0.264583"
     id="rect1162"
     width="5.8208332"
     height="5.8208332"
     x="0.26458332"
     y="0.26458332"
     ry="0.66145831" />
  <path
     d="m 2.8065396,1.8520833 c -0.349806,0 -0.7181821,0.094437 -1.0968323,0.2808614 -0.308211,0.1517445 -0.44004,0.1444652 -0.367161,0.2164571 0.025708,0.025396 0.00805,0.1631431 0.4397663,-0.00303 0.2950353,-0.1135656 0.6577939,-0.2094461 0.8539531,-0.2258259 0.3028868,-0.025292 0.6636321,0.053369 1.302246,0.2837035 0.2293282,0.082714 0.493058,0.1695673 0.5860108,0.1930115 0.1987979,0.05014 0.2197616,0.042335 0.3855062,0.042891 l 0.1170471,2.584e-4 v -0.098444 c 0,-0.1121793 -0.013592,-0.1227316 -0.1568381,-0.1227316 -0.3193521,0 -0.3988842,-0.050899 -0.8795327,-0.2612243 C 3.4758875,1.9327301 3.1639168,1.8520833 2.8065396,1.8520833 Z M 2.5977668,2.5150247 c -0.053293,0.00193 -0.1010129,0.00695 -0.1392681,0.014728 -0.1764403,0.03587 -0.4126539,0.1661546 -0.5575886,0.2984311 -0.2246546,0.2050344 -0.478584,0.6412344 -0.4537191,0.7378907 0.011197,0.043525 0.022965,0.046357 0.2209168,0.054518 0.114913,0.00474 0.2341434,0.030573 0.4105535,0.057103 L 2.412491,3.7257545 V 3.8606301 C 2.357159,4.1079835 2.396703,4.1886565 2.406551,4.2787413 2.443425,4.6047776 2.443915,4.6401394 2.5292824,4.6283324 2.6611545,4.4167464 2.6763776,4.0639978 2.677333,3.8301408 l 0.1343588,0.1286745 c 0.3686556,0.320929 0.4773208,0.2634097 0.7934915,0.4134602 0.2615073,0.1052004 0.5915356,0.1516928 0.8441502,0.1335836 0.1552869,0 0.3515185,-0.1697503 0.3513997,-0.3661272 C 4.8006692,3.9883082 4.757499,3.906226 4.6524219,3.8575784 4.4592496,3.7681455 4.2449532,3.8743265 4.2449532,4.0728108 c 0,0.1948066 0.1902936,0.3029834 0.3165181,0.1798339 0.052653,-0.051371 0.065554,-0.1378067 0.028164,-0.1899108 -0.016595,-0.023125 -0.018373,-0.019264 -0.00801,0.016536 0.035762,0.1235454 -0.061755,0.2090206 -0.1738911,0.1524456 -0.1171919,-0.059126 -0.094959,-0.2490568 0.032814,-0.2803446 0.063114,-0.015454 0.1735924,0.038508 0.214974,0.1209228 0.022302,0.044411 0.023252,0.071343 0.00414,0.1335836 C 4.5969554,4.4100646 4.2091038,4.4110499 3.7850195,4.2092353 3.6822239,4.1603165 3.5444527,4.0865392 3.4788366,4.0451626 3.3657452,3.9738484 3.2279277,3.9670582 3.0305435,3.7978418 2.9259799,3.7081991 2.9105354,3.7203234 3.1832475,3.676919 3.2616523,3.6644413 3.5968603,3.5995916 3.7984712,3.5327417 4.1566432,3.4139806 4.17025,3.3054004 4.3891326,3.3038642 c 0.1232075,-8.731e-4 -0.081422,-0.00841 0.12299,2.646e-4 l 0.3826616,0.015498 V 3.1227397 2.9261109 L 4.4511419,2.9152603 C 3.8324188,2.8994044 4.1340166,2.9314288 3.4953865,2.6907249 3.3734403,2.6447628 3.2434643,2.5892318 3.1581978,2.5674765 3.0069877,2.5288956 2.7576456,2.5092353 2.5977668,2.515025 Z m 0.7245036,0.3134176 c 0.00741,0 0.1130073,0.058337 0.2831868,0.1294495 0.1701797,0.071112 0.3312982,0.1345089 0.3581177,0.1410767 0.02682,0.00657 0.048834,0.018968 0.048834,0.027388 0,0.00842 -0.1031775,0.1182243 -0.229185,0.1792682 -0.256971,0.124488 -0.4095435,0.1765916 -0.657841,0.1886188 l -0.060978,0.00259 0.066146,-0.050643 c 0.036409,-0.027995 0.09142,-0.092809 0.122215,-0.1439188 0.048857,-0.081087 0.056069,-0.166719 0.056069,-0.3097509 0,-0.090155 0.00602,-0.1640729 0.013436,-0.1640726 z m -1.1089762,0.04315 c 0.030521,-0.00564 0.030461,0.040554 0.030747,0.1328084 5.689e-4,0.1815496 0.045181,0.3332922 0.1736329,0.4373919 l 0.083974,0.068213 -0.3945496,-0.035915 C 1.8973289,3.4545674 1.7342573,3.4344231 1.7285692,3.4288735 1.708181,3.4089826 1.8207562,3.2040745 1.9856595,3.0496173 2.1084422,2.9346127 2.1827734,2.8772342 2.2132942,2.8715923 Z"
     style="fill:#482f00;stroke-width:0.264583"
     id="path4016" />
  <path
     id="rect1014"
     style="opacity:0.5;fill:#000000;stroke-width:0.999999"
     d="M 3.5,1 C 2.115,1 1,2.115 1,3.5 v 17 C 1,21.885 2.115,23 3.5,23 h 17 C 21.885,23 23,21.885 23,20.5 V 3.5 C 23,2.115 21.885,1 20.5,1 Z M 4,2 h 16 c 1.108,0 2,0.892 2,2 v 16 c 0,1.108 -0.892,2 -2,2 H 4 C 2.892,22 2,21.108 2,20 V 4 C 2,2.892 2.892,2 4,2 Z"
     transform="scale(0.26458333)"
     sodipodi:nodetypes="ssssssssssssssssss" />
</svg>
