<?xml version="1.0" encoding="UTF-8" standalone="no"?>
<!-- Created with Inkscape (http://www.inkscape.org/) -->

<svg
   width="24"
   height="24"
   viewBox="0 0 6.3499999 6.3499999"
   version="1.1"
   id="svg5"
   inkscape:version="1.2 (dc2aedaf03, 2022-05-15)"
   sodipodi:docname="kup.svg"
   xmlns:inkscape="http://www.inkscape.org/namespaces/inkscape"
   xmlns:sodipodi="http://sodipodi.sourceforge.net/DTD/sodipodi-0.dtd"
   xmlns="http://www.w3.org/2000/svg"
   xmlns:svg="http://www.w3.org/2000/svg">
  <sodipodi:namedview
     id="namedview7"
     pagecolor="#ffffff"
     bordercolor="#666666"
     borderopacity="1.0"
     inkscape:pageshadow="2"
     inkscape:pageopacity="0.0"
     inkscape:pagecheckerboard="0"
     inkscape:document-units="px"
     showgrid="false"
     units="px"
     height="48px"
     inkscape:zoom="32.416667"
     inkscape:cx="11.598972"
     inkscape:cy="12.046272"
     inkscape:window-width="1920"
     inkscape:window-height="1016"
     inkscape:window-x="0"
     inkscape:window-y="0"
     inkscape:window-maximized="1"
     inkscape:current-layer="svg5"
     inkscape:showpageshadow="2"
     inkscape:deskcolor="#d1d1d1" />
  <defs
     id="defs2" />
  <rect
     style="opacity:1;fill:#5b5b5b;fill-opacity:1;stroke-width:0.264583"
     id="rect1162"
     width="5.2916665"
     height="6.3499999"
     x="0.52916664"
     y="0"
     ry="0.66145831" />
  <rect
     style="opacity:1;fill:#acacac;fill-opacity:1;stroke-width:0.529167;stroke-linecap:round;stroke-linejoin:round"
     id="rect977"
     width="4.7624998"
     height="5.8208332"
     x="0.79374999"
     y="0.26458332"
     ry="0.52916664" />
  <path
     d="m 2.1166617,0.79374999 c -0.4352396,0 -0.79375,0.35851041 -0.79375,0.79375001 v 2.1166665 c 0,0.4352396 0.3585104,0.79375 0.79375,0.79375 l 2.1166666,1e-7 c 0.4352396,0 0.79375,-0.3585104 0.79375,-0.79375 V 1.5875 c 0,-0.4352396 -0.3585104,-0.79375001 -0.79375,-0.79375001 M 2.1166617,1.3229166 h 2.1166666 c 0.1510771,0 0.2645834,0.1135063 0.2645834,0.2645834 v 2.1166665 c 0,0.1510771 -0.1135063,0.2645833 -0.2645834,0.2645833 H 2.1166617 c -0.1510771,0 -0.2645833,-0.1135062 -0.2645833,-0.2645833 V 1.5875 c 0,-0.1510771 0.1135062,-0.2645834 0.2645833,-0.2645834 z M 2.6458284,1.5875 V 2.7982782 L 3.8364533,3.4855758 4.1010367,3.0277223 3.174995,2.4928697 V 1.5875 Z"
     style="font-variant-ligatures:normal;font-variant-position:normal;font-variant-caps:normal;font-variant-numeric:normal;font-variant-alternates:normal;font-variant-east-asian:normal;font-feature-settings:normal;font-variation-settings:normal;text-indent:0;text-decoration-line:none;text-decoration-style:solid;text-decoration-color:#000000;text-transform:none;text-orientation:mixed;white-space:normal;shape-padding:0;shape-margin:0;inline-size:0;isolation:auto;mix-blend-mode:normal;fill:#444444;fill-opacity:1;stroke-width:0.264583"
     id="path641" />
</svg>
