<?xml version="1.0" encoding="UTF-8" standalone="no"?>
<!-- Created with Inkscape (http://www.inkscape.org/) -->

<svg
   width="24"
   height="24"
   viewBox="0 0 6.3499999 6.3499999"
   version="1.1"
   id="svg5"
   inkscape:version="1.2 (dc2aedaf03, 2022-05-15)"
   sodipodi:docname="libreoffice-calc.svg"
   xmlns:inkscape="http://www.inkscape.org/namespaces/inkscape"
   xmlns:sodipodi="http://sodipodi.sourceforge.net/DTD/sodipodi-0.dtd"
   xmlns="http://www.w3.org/2000/svg"
   xmlns:svg="http://www.w3.org/2000/svg">
  <sodipodi:namedview
     id="namedview7"
     pagecolor="#ffffff"
     bordercolor="#666666"
     borderopacity="1.0"
     inkscape:pageshadow="2"
     inkscape:pageopacity="0.0"
     inkscape:pagecheckerboard="0"
     inkscape:document-units="px"
     showgrid="false"
     units="px"
     height="48px"
     inkscape:zoom="34.416667"
     inkscape:cx="12"
     inkscape:cy="12"
     inkscape:window-width="1920"
     inkscape:window-height="1009"
     inkscape:window-x="0"
     inkscape:window-y="0"
     inkscape:window-maximized="1"
     inkscape:current-layer="svg5"
     inkscape:showpageshadow="2"
     inkscape:deskcolor="#d1d1d1"
     showguides="false" />
  <defs
     id="defs2" />
  <rect
     style="opacity:1;fill:#234c31;fill-opacity:1;stroke-width:0.264583"
     id="rect1162"
     width="5.2916665"
     height="6.3499999"
     x="0.52916664"
     y="0"
     ry="0.66145831" />
  <rect
     style="opacity:1;fill:#479863;fill-opacity:1;stroke-width:0.529167;stroke-linecap:round;stroke-linejoin:round"
     id="rect977"
     width="4.7624998"
     height="5.8208332"
     x="0.79374999"
     y="0.26458332"
     ry="0.52916664" />
  <path
     d="m 3.175,0.26458333 h 1.8520834 c 0.2931583,0 0.5291667,0.2360084 0.5291667,0.5291667 V 2.6458333 Z"
     style="opacity:0.5;fill:#234c31;fill-opacity:1;stroke-width:0.264583"
     id="path15155"
     sodipodi:nodetypes="csscc" />
  <path
     id="rect1821"
     style="fill:#ffffff;stroke-width:0.529167"
     d="M 1.4552083 2.9104166 C 1.3819189 2.9104166 1.3229166 2.9694189 1.3229166 3.0427083 L 1.3229166 5.4239582 C 1.3229166 5.4972478 1.3819189 5.5562499 1.4552083 5.5562499 L 4.8947916 5.5562499 C 4.968081 5.5562499 5.0270833 5.4972478 5.0270833 5.4239582 L 5.0270833 3.0427083 C 5.0270833 2.9694189 4.968081 2.9104166 4.8947916 2.9104166 L 1.4552083 2.9104166 z M 1.5875 3.175 L 2.38125 3.175 L 2.38125 3.7041666 L 1.5875 3.7041666 L 1.5875 3.175 z M 2.6458333 3.175 L 4.7624999 3.175 L 4.7624999 3.7041666 L 2.6458333 3.7041666 L 2.6458333 3.175 z M 1.5875 3.9687499 L 2.38125 3.9687499 L 2.38125 4.4979166 L 1.5875 4.4979166 L 1.5875 3.9687499 z M 2.6458333 3.9687499 L 4.7624999 3.9687499 L 4.7624999 4.4979166 L 2.6458333 4.4979166 L 2.6458333 3.9687499 z M 1.5875 4.7624999 L 2.38125 4.7624999 L 2.38125 5.2916666 L 1.5875 5.2916666 L 1.5875 4.7624999 z M 2.6458333 4.7624999 L 4.7624999 4.7624999 L 4.7624999 5.2916666 L 2.6458333 5.2916666 L 2.6458333 4.7624999 z " />
  <path
     d="m 3.7041667,0.26458333 h 1.3229167 c 0.2931583,0 0.5291666,0.2360083 0.5291666,0.5291667 V 2.1166666"
     style="fill:#73c48f;stroke-width:0.264583;fill-opacity:1"
     id="path15183" />
</svg>
