<?xml version="1.0" encoding="UTF-8" standalone="no"?>
<!-- Created with Inkscape (http://www.inkscape.org/) -->

<svg
   width="24"
   height="24"
   viewBox="0 0 6.3499999 6.3499999"
   version="1.1"
   id="svg5"
   inkscape:version="1.2 (dc2aedaf03, 2022-05-15)"
   sodipodi:docname="libreoffice-math.svg"
   xmlns:inkscape="http://www.inkscape.org/namespaces/inkscape"
   xmlns:sodipodi="http://sodipodi.sourceforge.net/DTD/sodipodi-0.dtd"
   xmlns="http://www.w3.org/2000/svg"
   xmlns:svg="http://www.w3.org/2000/svg">
  <sodipodi:namedview
     id="namedview7"
     pagecolor="#ffffff"
     bordercolor="#666666"
     borderopacity="1.0"
     inkscape:pageshadow="2"
     inkscape:pageopacity="0.0"
     inkscape:pagecheckerboard="0"
     inkscape:document-units="px"
     showgrid="false"
     units="px"
     height="48px"
     inkscape:zoom="34.416667"
     inkscape:cx="12"
     inkscape:cy="12"
     inkscape:window-width="1920"
     inkscape:window-height="1009"
     inkscape:window-x="0"
     inkscape:window-y="0"
     inkscape:window-maximized="1"
     inkscape:current-layer="svg5"
     inkscape:showpageshadow="2"
     inkscape:deskcolor="#d1d1d1" />
  <defs
     id="defs2" />
  <rect
     style="opacity:1;fill:#212121;fill-opacity:1;stroke-width:0.264583"
     id="rect1162"
     width="5.2916665"
     height="6.3499999"
     x="0.52916664"
     y="0"
     ry="0.66145831" />
  <rect
     style="opacity:1;fill:#424242;fill-opacity:1;stroke-width:0.529167;stroke-linecap:round;stroke-linejoin:round"
     id="rect977"
     width="4.7624998"
     height="5.8208332"
     x="0.79374999"
     y="0.26458332"
     ry="0.52916664" />
  <path
     d="m 3.175,0.26458333 h 1.8520834 c 0.2931583,0 0.5291667,0.2360084 0.5291667,0.5291667 V 2.6458333 Z"
     style="opacity:0.5;fill:#212121;fill-opacity:1;stroke-width:0.264583"
     id="path15155"
     sodipodi:nodetypes="csscc" />
  <path
     d="m 3.7041667,0.26458333 h 1.3229167 c 0.2931583,0 0.5291666,0.2360083 0.5291666,0.5291667 V 2.1166666"
     style="fill:#6d6d6d;stroke-width:0.264583;fill-opacity:1"
     id="path15183" />
  <path
     id="path607"
     style="fill:#ffffff"
     d="M 2.8551228,3.175 2.3130371,4.6911864 2.2871989,4.803841 h -0.00827 L 2.2546427,4.6911864 2.0329508,4.0881224 H 1.5875 v 0.2118734 h 0.2552815 l 0.3369304,0.853178 H 2.3822835 L 3.0282389,3.4395833 h 1.734261 V 3.175 Z m 0.4113444,0.5290819 v 0.1725993 l 0.1457276,0.031523 0.4294311,0.5229654 -0.4392497,0.5405355 -0.1627807,0.031523 v 0.171049 H 3.8400756 V 5.0032274 L 3.6809122,4.9882412 3.9935546,4.5955003 4.3154988,4.9882412 4.1387654,5.0032274 v 0.171049 H 4.7624999 V 5.0032274 L 4.6105712,4.9717048 4.152718,4.4270351 4.5506266,3.9082038 4.6999714,3.8766812 V 3.7040819 H 4.1335978 V 3.8766812 L 4.2912109,3.8916673 3.9976887,4.2678717 3.6958984,3.8932176 3.8426594,3.8766812 V 3.7040819 Z"
     sodipodi:nodetypes="cccccccccccccccccccccccccccccccccccccccccccc" />
</svg>
