<?xml version="1.0" encoding="UTF-8" standalone="no"?>
<!-- Created with Inkscape (http://www.inkscape.org/) -->

<svg
   width="24"
   height="24"
   viewBox="0 0 6.3499999 6.3499999"
   version="1.1"
   id="svg5"
   inkscape:version="1.2 (dc2aedaf03, 2022-05-15)"
   sodipodi:docname="libreoffice-base.svg"
   xmlns:inkscape="http://www.inkscape.org/namespaces/inkscape"
   xmlns:sodipodi="http://sodipodi.sourceforge.net/DTD/sodipodi-0.dtd"
   xmlns="http://www.w3.org/2000/svg"
   xmlns:svg="http://www.w3.org/2000/svg">
  <sodipodi:namedview
     id="namedview7"
     pagecolor="#ffffff"
     bordercolor="#666666"
     borderopacity="1.0"
     inkscape:pageshadow="2"
     inkscape:pageopacity="0.0"
     inkscape:pagecheckerboard="0"
     inkscape:document-units="px"
     showgrid="false"
     units="px"
     height="48px"
     inkscape:zoom="33.25"
     inkscape:cx="12"
     inkscape:cy="12.030075"
     inkscape:window-width="1920"
     inkscape:window-height="1009"
     inkscape:window-x="0"
     inkscape:window-y="0"
     inkscape:window-maximized="1"
     inkscape:current-layer="svg5"
     inkscape:showpageshadow="2"
     inkscape:deskcolor="#d1d1d1" />
  <defs
     id="defs2" />
  <rect
     style="opacity:1;fill:#552d5d;fill-opacity:1;stroke-width:0.264583"
     id="rect1162"
     width="5.2916665"
     height="6.3499999"
     x="0.52916664"
     y="0"
     ry="0.66145831" />
  <rect
     style="opacity:1;fill:#aa5abb;fill-opacity:1;stroke-width:0.529167;stroke-linecap:round;stroke-linejoin:round"
     id="rect977"
     width="4.7624998"
     height="5.8208332"
     x="0.79374999"
     y="0.26458332"
     ry="0.52916664" />
  <path
     d="m 3.175,0.26458333 h 1.8520834 c 0.2931583,0 0.5291667,0.2360084 0.5291667,0.5291667 V 2.6458333 Z"
     style="opacity:0.5;fill:#552d5d;fill-opacity:1;stroke-width:0.264583"
     id="path15155"
     sodipodi:nodetypes="csscc" />
  <path
     d="m 3.7041667,0.26458333 h 1.3229167 c 0.2931583,0 0.5291666,0.2360083 0.5291666,0.5291667 V 2.1166666"
     style="fill:#bb7bc9;stroke-width:0.264583;fill-opacity:1"
     id="path15183" />
  <path
     id="rect2164"
     style="fill:#ffffff;fill-opacity:1;stroke-width:0.132291"
     d="m 1.4552081,2.9104166 c -0.073289,0 -0.1322916,0.059002 -0.1322916,0.1322917 v 0.2645832 c 0,0.07329 0.059002,0.1322917 0.1322916,0.1322917 h 3.4395834 c 0.07329,0 0.1322917,-0.059002 0.1322917,-0.1322917 V 3.0427083 c 0,-0.073289 -0.059002,-0.1322917 -0.1322917,-0.1322917 z m 0,1.0583332 c -0.073289,0 -0.1322916,0.059002 -0.1322916,0.1322917 v 0.2645834 c 0,0.073289 0.059002,0.1322917 0.1322916,0.1322917 h 3.4395834 c 0.07329,0 0.1322917,-0.059002 0.1322917,-0.1322917 V 4.1010415 c 0,-0.07329 -0.059002,-0.1322917 -0.1322917,-0.1322917 z m 0,1.0164755 c -0.073289,0 -0.1322916,0.059002 -0.1322916,0.1322917 v 0.3064413 c 0,0.073289 0.059002,0.1322915 0.1322916,0.1322915 h 3.4395834 c 0.07329,0 0.1322917,-0.059002 0.1322917,-0.1322915 V 5.117517 c 0,-0.07329 -0.059002,-0.1322917 -0.1322917,-0.1322917 z"
     sodipodi:nodetypes="sssssssssssssssssssssssssss" />
</svg>
