<?xml version="1.0" encoding="UTF-8" standalone="no"?>
<!-- Created with Inkscape (http://www.inkscape.org/) -->

<svg
   width="24"
   height="24"
   viewBox="0 0 6.3499999 6.3499999"
   version="1.1"
   id="svg5"
   inkscape:version="1.2 (dc2aedaf03, 2022-05-15)"
   sodipodi:docname="lutris.svg"
   xmlns:inkscape="http://www.inkscape.org/namespaces/inkscape"
   xmlns:sodipodi="http://sodipodi.sourceforge.net/DTD/sodipodi-0.dtd"
   xmlns="http://www.w3.org/2000/svg"
   xmlns:svg="http://www.w3.org/2000/svg">
  <sodipodi:namedview
     id="namedview7"
     pagecolor="#ffffff"
     bordercolor="#666666"
     borderopacity="1.0"
     inkscape:pageshadow="2"
     inkscape:pageopacity="0.0"
     inkscape:pagecheckerboard="0"
     inkscape:document-units="px"
     showgrid="false"
     units="px"
     height="48px"
     inkscape:zoom="16.958333"
     inkscape:cx="10.260442"
     inkscape:cy="4.6584767"
     inkscape:window-width="1846"
     inkscape:window-height="1011"
     inkscape:window-x="0"
     inkscape:window-y="0"
     inkscape:window-maximized="1"
     inkscape:current-layer="svg5"
     inkscape:showpageshadow="2"
     inkscape:deskcolor="#d1d1d1"
     showguides="false" />
  <defs
     id="defs2" />
  <circle
     style="fill:#7d520d;fill-opacity:1;stroke-width:0.297655"
     id="path934"
     cx="3.7041667"
     cy="3.7041667"
     r="2.3812499" />
  <circle
     style="fill:#faa41a;fill-opacity:1;stroke-width:0.151189"
     id="path4871"
     cx="3.7041667"
     cy="3.7041664"
     r="2.1166666" />
  <path
     style="color:#000000;fill:#4a342b;stroke-width:0.529167;-inkscape-stroke:none;fill-opacity:1"
     d="M 3.0743046,3.13e-6 C 1.4133076,-0.00148587 0.04473628,1.366425 0.00107304,3.0919718 -0.04333535,4.8449082 1.2961707,6.3030645 2.9927611,6.3488953 3.819312,6.3712053 4.6968866,6.0541477 5.2629322,5.5204016 c 0.06044,-0.050429 0.093326,-0.081857 0.093326,-0.081857 0,0 0.6138251,-0.6442657 0.6467678,-1.1760768 -0.1566254,0.258767 -0.2639325,0.5178575 -0.6538103,0.7097387 -0.1788033,0.082829 -0.4617255,0.1533001 -0.6268977,0.208984 -0.010575,0.0027 -0.021193,0.00519 -0.031936,0.00775 -0.078234,0.018674 -0.1602304,0.03436 -0.2461808,0.046199 -0.010417,0.00143 -0.021111,0.0027 -0.031626,0.00403 -0.089142,0.011306 -0.1811842,0.019537 -0.2762562,0.023564 -0.00978,4.234e-4 -0.019928,2.911e-4 -0.029766,6.35e-4 -0.093792,0.00321 -0.1897174,0.00292 -0.2871078,-9.525e-4 -0.00636,-2.54e-4 -0.012547,-2.72e-5 -0.018912,-3.175e-4 -0.099041,-0.00439 -0.1994757,-0.013372 -0.3001298,-0.025114 -0.014364,-0.00169 -0.028724,-0.00283 -0.043097,-0.00465 -0.09798,-0.012449 -0.1959213,-0.0289 -0.2933091,-0.04837 -0.015732,-0.00314 -0.031436,-0.00628 -0.047128,-0.00961 -0.095303,-0.020225 -0.1897501,-0.043964 -0.2824567,-0.071005 -0.029724,-0.00867 -0.059336,-0.0176 -0.088675,-0.026976 -0.022175,-0.00708 -0.044426,-0.013904 -0.066351,-0.021394 -0.031331,-0.010704 -0.061941,-0.022272 -0.092706,-0.033798 -0.025093,-0.0094 -0.050361,-0.018574 -0.075033,-0.028525 -0.02859,-0.011531 -0.056365,-0.024004 -0.084334,-0.036278 C 2.4036102,4.9459777 2.3795291,4.9359971 2.3563116,4.925064 2.3057647,4.901257 2.2560764,4.8763624 2.2081093,4.8500252 2.1699349,4.828908 2.133604,4.8067976 2.0989711,4.7836712 2.019436,4.7305619 1.9500203,4.6720257 1.8878258,4.6106551 1.5640319,4.2802118 1.579065,3.8916722 1.5960674,3.6398413 1.6174894,3.3235136 1.8463184,2.6294835 2.7189856,2.2619124 3.2581707,2.0715248 3.8922936,1.9383713 4.4224091,2.1090501 c 0.3987652,0.089977 0.6855087,0.220812 1.0647172,0.3547146 0,0 -0.00308,0.0066 0.1016968,0.032557 C 6.326306,2.613149 6.2435237,2.0055723 6.2435237,2.0055723 L 6.1857178,1.8633884 v 0 c -0.012785,-0.074925 0.043332,-0.1340164 0.043332,-0.1340164 0,0 -0.045457,-0.1675398 -0.037796,-0.2782643 0.00777,-0.1106736 0.00148,-0.252537 -0.022635,-0.45486541 C 6.1444883,0.79389949 6.0116892,0.71331132 5.9686354,0.68185983 5.9254842,0.650465 5.7244149,0.49887606 5.5317739,0.42326555 5.3390146,0.34765404 5.1441956,0.29177541 4.9042291,0.32559504 c -0.026645,0.003768 -0.051863,0.007842 -0.078133,0.0117827 -0.00465,-0.001476 -0.0083,-0.003159 -0.013332,-0.004651 -0.091505,-0.0271763 -0.156233,-0.17526118 -0.2309879,-0.17347006 -0.00572,1.3722e-4 -0.011507,6.2442e-4 -0.017365,0.001238 -0.00577,6.0325e-4 -0.011748,0.001376 -0.017671,0.002479 h -3.175e-4 c -0.00604,0.001127 -0.012049,0.002648 -0.018293,0.004341 -0.00682,0.001852 -0.013383,0.004273 -0.019532,0.007132 -0.043747,0.0203386 -0.070547,0.0968836 -0.087118,0.14709152 C 4.0376516,0.12752116 3.6084869,0.01350587 3.1533686,0.001241 3.1268606,5.2395e-4 3.1006706,2.4e-5 3.0743056,0 Z M 4.9151698,5.1228982 c -0.056347,0.021 -0.1175107,0.038772 -0.1804498,0.055192 0.062904,-0.016409 0.1241412,-0.034206 0.1804498,-0.055192 z"
     id="path32429" />
  <path
     id="path34488"
     style="fill:#696463;fill-opacity:1;stroke-width:0.3175"
     d="M 4.413684,0.95498045 C 4.0814417,0.95458355 3.7212461,1.0521136 3.4581868,1.1435994 2.9593218,1.3201296 2.4301045,1.435041 2.0153808,1.7063558 1.9081978,1.7841863 1.5219943,2.0936565 1.2660726,2.5249104 0.55882149,3.7753219 1.2532316,5.1708504 2.1678263,5.4725341 2.942142,5.7621117 3.7910921,5.9467995 4.7521705,5.4472176 5.1559351,5.2307572 5.7427095,4.6682783 5.7427095,4.6682783 c 0,0 -0.2089467,0.2571616 -0.5678317,0.3722408 C 4.4900234,5.2957516 3.0204281,5.296021 2.2081093,4.8500252 1.5546035,4.488532 1.5702773,3.9553679 1.5916341,3.6390543 1.613056,3.3227408 1.8465475,2.6289155 2.7192138,2.2613606 3.2583984,2.0709815 3.8923541,1.9377271 4.422469,2.1083984 c 0.3987648,0.089973 0.6853264,0.252643 1.0645345,0.3865397 0,0 -0.00295,0.0066 0.1018026,0.032556 C 6.3262882,2.6443006 6.3499999,1.995227 6.3499999,1.995227 L 6.3288126,1.876888 6.2647338,1.7166911 6.2342447,1.6479614 6.2156412,1.6107544 c 0,0 -0.00547,-0.046908 -0.012919,-0.094568 -0.014124,0.1781456 -0.08475,0.2294435 -0.08475,0.2294435 C 5.5447821,1.6369548 5.4423087,1.2332186 4.8379475,1.0257772 4.710215,0.97554266 4.564703,0.95516065 4.413684,0.95498045 Z"
     sodipodi:nodetypes="scccccccccccccccccccccs" />
  <path
     id="path33945"
     style="color:#000000;fill:#4a342b;stroke:none;stroke-width:0.529167;fill-opacity:1"
     d="M 2.2226033 1.3223999 C 2.2224938 1.3223999 1.0145456 1.5159474 0.9513631 2.4101888 L 0.91208902 2.736267 L 1.2247314 2.7207641 C 1.3100443 2.7164441 1.5060173 2.72497 1.6856852 2.75177 C 1.865353 2.7785749 2.0442673 2.8421851 2.0686076 2.859257 L 2.0701578 2.859257 L 2.0722249 2.861324 C 2.1334578 2.902662 2.215305 2.9767974 2.3357747 3.0427083 C 2.4562444 3.1086192 2.6455652 3.1560121 2.826184 3.0918009 C 2.9400085 3.051888 3.0723958 2.9548004 3.113505 2.8127482 C 3.1546141 2.6706959 3.1154825 2.561257 3.0799153 2.4706502 L 3.0799153 2.4685831 L 3.078365 2.4685831 C 3.0561597 2.4141167 3.0247071 2.3292066 2.9806966 2.2422404 C 2.9366859 2.1552741 2.8888944 2.0621621 2.7812255 1.9766235 C 2.6145567 1.8447302 2.4755369 1.8521466 2.3962361 1.8283121 C 2.3918861 1.8270021 2.3944217 1.8275548 2.3905517 1.8262451 C 2.3991117 1.8070881 2.4063749 1.7814996 2.4318929 1.7482137 L 2.7579711 1.3223999 L 2.2226033 1.3223999 z " />
  <path
     id="path32431"
     style="color:#000000;fill:#946857;stroke:none;opacity:1;fill-opacity:1"
     d="m 3.0742309,0.2635498 c 0.023201,2.111e-5 0.047245,0.001388 0.072347,0.002067 0.4154545,0.011196 0.8057943,0.11598289 1.1560018,0.29300536 l 0.2733683,0.1384929 0.060978,-0.18345133 c 0.034955,0.0273203 0.036161,0.0530055 0.1012858,0.072347 -0.013527,-0.004011 -0.014121,-0.003326 0.00775,0.003617 l 0.058911,0.01757 0.060461,-0.007751 c 0.02816,-0.004224 0.052582,-0.008062 0.075964,-0.0113688 0.1804907,-0.0254374 0.3164326,0.0119859 0.4940267,0.0816488 0.1389694,0.0545447 0.3226314,0.1871303 0.3772379,0.22685954 0.078481,0.0573316 0.081942,0.0335354 0.093534,0.13074143 0.023035,0.1932649 0.02767,0.3191443 0.021704,0.4041097 v 0.00207 c -0.012569,0.1816556 0.033541,0.3026604 0.042891,0.3302124 -0.023427,0.058514 -0.060274,0.054943 -0.044958,0.144694 l 0.00413,0.027389 0.048576,0.1209229 c -1.4e-5,0.015973 0.00231,0.073082 -0.019637,0.1152384 -0.012454,0.023916 -0.022224,0.036558 -0.060461,0.05271 -0.037958,0.016035 -0.1175922,0.032828 -0.2656169,0.00982 h -0.00207 l -0.05426,-0.019637 C 5.2152248,2.0873157 4.9141059,1.9530751 4.4999837,1.8572509 3.8741399,1.6573094 3.1937552,1.8129992 2.6308471,2.0117635 l -0.00775,0.00362 -0.00568,0.00207 C 1.6501914,2.4248435 1.3604597,3.2039439 1.3322184,3.6209676 1.3146901,3.8805888 1.2998997,4.3876363 1.6991211,4.7950561 l 0.00207,0.00207 v 0.00155 c 0.072382,0.071423 0.155037,0.1416682 0.250114,0.2051555 0.040931,0.027332 0.084268,0.053466 0.1286743,0.078031 0.053881,0.029584 0.1099293,0.056544 0.164331,0.082166 0.030864,0.014534 0.055609,0.026209 0.075964,0.03514 0.026593,0.01167 0.057141,0.02522 0.091984,0.039274 0.030474,0.012291 0.058239,0.022236 0.081649,0.031006 0.030294,0.011349 0.063108,0.022627 0.099735,0.03514 0.027225,0.0093 0.052099,0.017307 0.072347,0.023771 0.03211,0.010262 0.062273,0.019821 0.093534,0.028939 0.09912,0.028911 0.2011185,0.054897 0.3028239,0.076481 0.017718,0.00376 0.033302,0.00666 0.049093,0.00982 0.1027324,0.020538 0.2076205,0.037299 0.3126424,0.050643 0.022502,0.00285 0.036688,0.00477 0.044442,0.00568 h 0.00207 c 0.1053496,0.01229 0.2112416,0.022642 0.3183269,0.027389 0.010213,4.659e-4 0.016463,8.28e-5 0.019637,0 0.103758,0.00413 0.2059416,0.00344 0.3064412,0 0.00112,-3.92e-5 0.013529,8.685e-4 0.03359,0 0.1030881,-0.00437 0.2008296,-0.013172 0.2966227,-0.025321 0.00916,-0.00116 0.021463,-0.00225 0.03514,-0.00413 0.094719,-0.01304 0.1855214,-0.030045 0.271818,-0.050643 C 4.2507202,5.7980031 3.634287,6.1009917 2.9998168,6.0838663 1.4509055,6.0420248 0.22471401,4.714114 0.26561686,3.0995524 0.30583288,1.5102377 1.5586317,0.26219114 3.0742309,0.2635498 Z"
     sodipodi:nodetypes="sccccccccccccccccccsscccccccccccscccssscssccccccsccccccs" />
  <path
     id="path34923"
     style="fill:#d3c9c6;stroke-width:0.3175"
     d="M 4.413684 0.95498045 C 4.081442 0.95458355 3.7212458 1.0521137 3.4581868 1.1435994 C 2.9593223 1.3201295 2.4301042 1.4350412 2.0153808 1.7063558 C 1.9081979 1.7841862 1.521994 2.093657 1.2660726 2.5249104 C 0.55882212 3.7753207 1.2532325 5.1708507 2.1678263 5.4725341 C 2.8355028 5.7222309 3.7244418 5.8557187 4.5728474 5.5676187 C 4.6339809 5.5286262 4.6939763 5.4889514 4.7521646 5.4482462 C 4.6658681 5.4688442 4.5750655 5.4858491 4.4803466 5.4988891 C 4.4666696 5.5007691 4.4543666 5.5018632 4.4452066 5.5030232 C 4.3494136 5.5151722 4.2516719 5.5239746 4.1485839 5.5283446 C 4.1285229 5.5292131 4.1161142 5.5283054 4.1149942 5.5283446 C 4.0144947 5.5317846 3.9123109 5.5324746 3.808553 5.5283446 C 3.805379 5.5284274 3.7991289 5.5288105 3.788916 5.5283446 C 3.6818308 5.5235976 3.5759386 5.5132461 3.4705891 5.5009561 L 3.4685221 5.5009561 C 3.4607681 5.5000461 3.4465823 5.4981217 3.4240803 5.4952717 C 3.3190586 5.4819277 3.2141702 5.4651668 3.1114379 5.4446288 C 3.095647 5.4414688 3.0800633 5.4385703 3.0623453 5.4348103 C 2.96064 5.4132263 2.8586413 5.3872402 2.7595214 5.3583292 C 2.7282605 5.3492112 2.6980971 5.3396524 2.6659871 5.3293904 C 2.6457391 5.3229264 2.6208651 5.3149192 2.5936401 5.3056192 C 2.5570131 5.2931062 2.5241986 5.2818282 2.4939046 5.2704792 C 2.4704946 5.2617093 2.4427298 5.2517644 2.4122558 5.2394734 C 2.3774129 5.2254194 2.3468647 5.2118693 2.3202718 5.2001993 C 2.2999168 5.1912683 2.2751714 5.1795933 2.2443074 5.1650593 C 2.1899058 5.1394374 2.1338573 5.1124778 2.0799764 5.0828938 C 2.0355701 5.0583288 1.992233 5.0321944 1.9513021 5.0048624 C 1.8562251 4.9413752 1.7735701 4.8711299 1.7011881 4.799707 L 1.7011881 4.7981567 L 1.6991211 4.7960896 C 1.2999001 4.3886702 1.3146901 3.881622 1.3322184 3.6220011 C 1.3604597 3.2049778 1.6501865 2.425871 2.6174113 2.0184814 L 2.6230957 2.0164144 L 2.6308471 2.012797 C 3.1937547 1.8140329 3.8741405 1.6583432 4.4999837 1.8582845 C 4.9141054 1.9541086 5.2152344 2.0883411 5.5764037 2.2158854 L 5.630664 2.2355224 L 5.632731 2.2355224 C 5.7807556 2.2585304 5.8603899 2.2417389 5.8983479 2.2257039 C 5.9365849 2.2095519 5.9463553 2.1969099 5.9588093 2.1729939 C 5.9807563 2.1308376 5.9784324 2.0737285 5.9784464 2.0577555 L 5.9298705 1.9368327 L 5.9257364 1.9094441 C 5.9104204 1.8196932 5.9472679 1.8232641 5.9706949 1.7647501 C 5.9674023 1.7550478 5.9592997 1.7331525 5.9510578 1.7017049 C 5.5178722 1.5536095 5.3783507 1.2112656 4.8379475 1.0257772 C 4.7102151 0.97554268 4.5647028 0.95516065 4.413684 0.95498045 z " />
  <path
     d="m 1.2152316,2.428612 -0.00344,0.028327 C 1.442434,2.4452554 2.0109952,2.4952317 2.2206844,2.6423046 2.3832548,2.7520564 2.5297019,2.9158473 2.7381404,2.841746 2.880644,2.7917701 2.8885619,2.7071432 2.8339371,2.5679874 2.7878088,2.4548412 2.7115577,2.2594597 2.6172679,2.1845503 2.4814361,2.0770599 2.1302864,2.1145955 2.1126689,1.8898131 2.0994289,1.7835611 2.1631589,1.6649408 2.2225265,1.5875 c -1.095e-4,0 -0.9626778,0.2096321 -1.0072949,0.841112 z"
     style="color:#000000;fill:#946857;stroke-width:0.529167;-inkscape-stroke:none"
     id="path34895" />
</svg>
