<?xml version="1.0" encoding="UTF-8" standalone="no"?>
<svg
   width="24"
   height="24"
   version="1.1"
   id="svg16"
   sodipodi:docname="microsoft-edge.svg"
   inkscape:version="1.2 (dc2aedaf03, 2022-05-15)"
   xmlns:inkscape="http://www.inkscape.org/namespaces/inkscape"
   xmlns:sodipodi="http://sodipodi.sourceforge.net/DTD/sodipodi-0.dtd"
   xmlns="http://www.w3.org/2000/svg"
   xmlns:svg="http://www.w3.org/2000/svg">
  <defs
     id="defs20" />
  <sodipodi:namedview
     id="namedview18"
     pagecolor="#ffffff"
     bordercolor="#000000"
     borderopacity="0.25"
     inkscape:showpageshadow="2"
     inkscape:pageopacity="0.0"
     inkscape:pagecheckerboard="0"
     inkscape:deskcolor="#d1d1d1"
     showgrid="false"
     inkscape:zoom="16.958333"
     inkscape:cx="4.039312"
     inkscape:cy="16.39312"
     inkscape:window-width="1920"
     inkscape:window-height="1011"
     inkscape:window-x="0"
     inkscape:window-y="0"
     inkscape:window-maximized="1"
     inkscape:current-layer="svg16"
     showguides="false" />
  <path
     id="path21028"
     style="color:#000000;fill:#0b6e5f;fill-opacity:1;stroke:none;stroke-width:2;-inkscape-stroke:none"
     d="M 12.000003,0 C 4.975075,0.015805 -0.00455853,5.340996 3.1314906e-6,11.826172 v 0.002 0.0019 H 0.01172213 c -3e-5,0.006 -0.00185,0.01155 -0.00195,0.01758 -1.2e-5,0.0013 10e-6,0.0026 0,0.0039 -2e-6,0.0013 0,0.0026 0,0.0039 -0.01503,1.807245 0.37338097,3.593712 1.13476497,5.232422 v 0.002 l 0.00195,0.002 c 2.0274083,4.325171 6.3566189,6.82682 10.9170299,6.775857 1.959031,6.34e-4 2.525082,-0.147853 3.854371,-0.531744 2.742693,-0.917075 4.94862,-2.952286 6.242181,-4.943406 v -0.002 c 0.333327,-0.526868 0.212567,-1.249552 -0.160066,-1.642534 -0.373032,-0.393404 -1.083829,-0.552829 -1.628906,-0.25 l -0.119141,0.06641 -0.09766,0.09375 c -0.741123,0.729176 -2.110213,0.995611 -3.289063,1.001953 -3.550489,0 -6.599878,-2.778948 -6.605468,-5.707031 0.0083,-0.610839 0.346643,-1.163321 0.878906,-1.460938 0.275643,-0.129575 0.513775,-0.244403 0.847656,-0.238281 h 0.0059 0.0059 c 0.557946,0.0041 1.080812,0.270344 1.414062,0.716797 h 0.002 c 0.125975,0.168178 0.199641,0.368173 0.257813,0.572266 -6.7e-5,0.391222 -0.08367,0.726233 -0.322266,1.070312 0.02956,-0.09244 -0.542968,0.480784 -0.542968,1.175781 0,0.660487 0.414487,1.148351 0.833984,1.441407 h 0.002 v 0.002 c 0.87646,0.609414 1.892785,0.779394 2.710937,0.867187 0.818153,0.08779 1.42668,0.05664 1.429688,0.05664 h 0.002 0.002 c 1.094485,-0.0026 2.167102,-0.299605 3.107153,-0.857419 h 0.002 c 1.787185,-1.045417 3.095156,-2.692287 3.101563,-4.912109 0.02331,-2.1725671 -0.819818,-3.7143006 -1.080078,-4.228516 v -0.00195 l -0.002,-0.00195 C 20.900361,2.211981 16.593646,0 12.000003,0 Z"
     sodipodi:nodetypes="cccccccccccccccscccccccccccccscccsscsccccccc" />
  <path
     id="path21547"
     style="color:#000000;fill:#05436d;fill-opacity:1;stroke:none;stroke-width:2;stroke-linecap:round;stroke-linejoin:bevel;-inkscape-stroke:none"
     d="M 7.8847656 4.1347656 C 5.682302 4.1347656 3.3168623 6.7576031 2.265625 8.4824219 C 1.364523 9.9609055 0.572234 11.813846 0.2734375 14.472656 C 0.46363648 15.371736 0.7548531 16.249195 1.1445312 17.087891 L 1.1445312 17.089844 L 1.1464844 17.091797 C 3.1738906 21.416964 7.5040467 23.91815 12.064453 23.867188 C 14.023482 23.867821 14.588681 23.719828 15.917969 23.335938 C 16.8783 23.014831 17.771391 22.555146 18.583984 22.009766 C 17.42141 22.158232 16.982902 22.214594 15.589844 22.392578 C 14.08936 22.865607 11.60626 21.718497 10.294922 20.898438 L 10.283203 20.892578 C 9.6294088 20.486888 9.0636718 19.954797 8.6171875 19.328125 L 8.609375 19.318359 C 6.8794946 16.94863 8.9095749 14.699921 10.277344 12.310547 C 10.267131 12.191617 10.259994 12.072732 10.259766 11.953125 C 10.267852 11.358034 10.590897 10.820197 11.099609 10.517578 C 11.101681 10.510955 11.105375 10.504673 11.107422 10.498047 C 11.120113 10.492069 11.128259 10.491512 11.134766 10.494141 C 11.135222 10.494325 11.136291 10.493917 11.136719 10.494141 C 11.137514 10.493695 11.137876 10.492632 11.138672 10.492188 C 11.414315 10.362613 11.652447 10.247784 11.986328 10.253906 L 11.992188 10.253906 L 11.998047 10.253906 C 12.555992 10.258006 13.07886 10.524251 13.412109 10.970703 L 13.414062 10.970703 C 13.47705 11.054792 13.526925 11.147608 13.568359 11.244141 C 14.210163 11.1401 15.047476 11.886176 15.759766 11.974609 C 15.759766 11.974539 15.738255 12.180276 15.734375 12.197266 C 15.738475 12.182146 15.742277 12.168684 15.748047 12.146484 C 15.764427 12.083284 15.787127 11.993192 15.810547 11.882812 C 15.857387 11.662054 15.910723 11.355243 15.943359 10.986328 C 16.008629 10.248501 15.993579 9.256933 15.630859 8.21875 C 15.267735 7.1803713 14.524361 6.1032376 13.259766 5.34375 C 11.995167 4.5842624 10.255501 4.1347656 7.8847656 4.1347656 z " />
  <path
     id="path21752"
     style="color:#000000;fill:#07294d;fill-opacity:1;stroke:none;stroke-width:2"
     d="m 10.626956,8.5996093 c -0.169032,0.00711 -0.268541,0.1196851 -0.429687,0.140625 l -0.0059,-0.019531 c -0.01423,0.00774 -0.01911,0.025291 -0.0332,0.033203 -1.8953901,0.2618246 -3.3088032,1.3453777 -4.0546503,2.6933597 -0.8147479,1.472505 -1.0566406,3.119933 -1.0566406,4.382812 0,3.48111 3.4549834,5.146538 5.3085939,6.238281 1.85361,1.091743 7.428047,-0.05859 8.228515,-0.05859 0.0076,0 0.01583,-0.0019 0.02344,-0.002 1.417476,-0.93368 2.63233,-2.161279 3.550781,-3.615234 v -0.002 c 0.333238,-0.526907 0.212477,-1.249597 -0.160156,-1.642578 -0.373032,-0.393404 -1.083831,-0.552829 -1.628906,-0.25 l -0.119143,0.06454 -0.0957,0.0957 c -0.740729,0.728788 -2.110635,0.995339 -3.289063,1.001953 -3.550481,0 -6.599873,-2.778954 -6.605468,-5.707031 -0.0093,-1.508453 0.169894,-1.91585 0.367184,-3.3535097 z m 10.865235,9.5312497 -0.152344,0.115235 c -0.01729,0.0096 -0.03978,-0.01721 -0.05859,-0.0098 0.06335,-0.05398 0.141898,-0.06829 0.210938,-0.105469 z"
     sodipodi:nodetypes="ccccsssscccsccccccccccc" />
  <path
     style="fill:#0e539b;stroke-width:0.785706"
     class="cls-1"
     d="m 20.856363,17.371109 c -1.054109,1.037117 -2.689274,1.283296 -3.990646,1.28969 -4.066266,0 -7.608351,-3.126651 -7.608351,-6.715509 0.0106,-0.980168 0.550754,-1.877892 1.41185,-2.3464631 -3.6778558,0.154655 -4.6230998,3.9866671 -4.6230998,6.2317451 0,6.347735 5.8510568,6.991272 7.1116678,6.991272 0.679716,0 1.704876,-0.197615 2.320144,-0.391793 l 0.11257,-0.0378 c 2.367615,-0.818391 4.386022,-2.418352 5.723019,-4.536551 0.190952,-0.30081 -0.145674,-0.657636 -0.457154,-0.484587 z"
     id="path7652"
     sodipodi:nodetypes="scccsscccss" />
  <path
     id="path9923"
     style="opacity:0.25;fill:#000000;stroke-width:0.785706"
     d="m 10.669405,9.5982629 c -3.6778528,0.154655 -4.6236961,3.9868621 -4.6236961,6.2319381 0,2.192146 0.6979173,3.703404 1.6634865,4.743393 -2.1247336,-3.050293 -1.1859743,-7.153463 1.6650216,-9.3809 0.20293,-0.671469 0.661503,-1.2496081 1.295188,-1.5944311 z" />
  <path
     style="fill:#0b87da;stroke-width:0.785706"
     class="cls-3"
     d="M 9.755824,21.742695 C 8.9893713,21.267046 8.3251394,20.643793 7.8017476,19.909172 5.2620941,16.430149 6.8048776,11.502148 10.669216,9.5988269 c 0.268106,-0.126301 0.726119,-0.354848 1.335372,-0.343677 0.87014,0.0064 1.687111,0.419693 2.207572,1.1169531 0.34701,0.463264 0.538336,1.024528 0.546523,1.603258 0,-0.01804 2.101878,-6.8391946 -6.8744975,-6.8391946 -3.772381,0 -6.8744982,3.5794076 -6.8744982,6.7197666 -0.01488,1.661209 0.3406085,3.304862 1.0406272,4.811494 2.3680626,5.05191 8.1442825,7.53042 13.4379245,5.766061 -1.812205,0.5713 -4.113682,0.3201 -5.724681,-0.687356 z"
     id="path7656"
     sodipodi:nodetypes="ccccccsccccc" />
  <path
     id="path9151"
     style="opacity:0.25;fill:#000000;stroke-width:0.785706"
     d="M 11.999887,2 C 5.9851003,1.9994055 1.0845861,6.8299823 1.0000031,12.843357 1.0412495,9.7038599 4.1627049,6.7909651 7.8749307,6.7909651 c 0.300758,0 2.0161743,0.029508 3.6093373,0.8655045 1.404114,0.7371879 2.138933,2.0041563 2.650223,2.8865484 0.329922,0.622442 0.519772,1.222494 0.557053,1.790858 l 4.981828,-0.259824 c 0.06292,-0.298295 0.09752,-0.614214 0.09821,-0.951441 0.02234,-1.9254541 2.54074,-2.9451107 2.25373,-3.512179 C 20.204431,4.0490703 16.274103,2 11.999887,2 Z"
     sodipodi:nodetypes="ccsccccccc" />
  <path
     style="fill:#17dcbe;stroke-width:0.785706"
     class="cls-5"
     d="m 14.090138,13.303076 c -0.0696,0.09021 -0.283573,0.214798 -0.283573,0.486304 0,0.224249 0.146084,0.439908 0.405595,0.621199 1.235692,0.859194 3.565287,0.745781 3.571303,0.745781 0.915619,-0.0022 1.813884,-0.249951 2.601138,-0.717429 1.615995,-0.943446 2.611052,-2.185474 2.614887,-4.056518 C 23.021828,8.4569565 22.312038,7.1767557 22.025027,6.6096865 20.204145,3.0483218 16.273651,1 11.999431,1 5.9846384,0.9994054 1.0848179,5.8296651 1.0002349,11.843045 1.0414821,8.7035456 4.162504,5.7907685 7.8747334,5.7907685 c 0.3007581,0 2.0159466,0.029213 3.6091106,0.8652099 1.404116,0.7371887 2.139688,2.0046079 2.650978,2.8870015 0.743141,1.4020321 0.775123,2.6897621 -0.04468,3.7600961 z"
     id="path7660"
     sodipodi:nodetypes="cscccccccsccc" />
</svg>
