<?xml version="1.0" encoding="UTF-8" standalone="no"?>
<!-- Created with Inkscape (http://www.inkscape.org/) -->

<svg
   width="24"
   height="24"
   viewBox="0 0 6.3499999 6.3499999"
   version="1.1"
   id="svg5"
   inkscape:version="1.2 (dc2aedaf03, 2022-05-15)"
   sodipodi:docname="mintinstall.svg"
   xmlns:inkscape="http://www.inkscape.org/namespaces/inkscape"
   xmlns:sodipodi="http://sodipodi.sourceforge.net/DTD/sodipodi-0.dtd"
   xmlns="http://www.w3.org/2000/svg"
   xmlns:svg="http://www.w3.org/2000/svg">
  <sodipodi:namedview
     id="namedview7"
     pagecolor="#ffffff"
     bordercolor="#666666"
     borderopacity="1.0"
     inkscape:pageshadow="2"
     inkscape:pageopacity="0.0"
     inkscape:pagecheckerboard="0"
     inkscape:document-units="px"
     showgrid="false"
     units="px"
     height="48px"
     inkscape:zoom="32.416667"
     inkscape:cx="12.030848"
     inkscape:cy="12"
     inkscape:window-width="1846"
     inkscape:window-height="1011"
     inkscape:window-x="0"
     inkscape:window-y="0"
     inkscape:window-maximized="1"
     inkscape:current-layer="svg5"
     showguides="false"
     inkscape:showpageshadow="2"
     inkscape:deskcolor="#d1d1d1" />
  <defs
     id="defs2" />
  <rect
     style="opacity:1;fill:#396247;fill-opacity:1;stroke-width:0.264583"
     id="rect1162"
     width="5.8208332"
     height="5.8208332"
     x="0.26458332"
     y="0.26458332"
     ry="0.66145831" />
  <rect
     style="opacity:1;fill:#73c48f;fill-opacity:1;stroke-width:0.529167;stroke-linecap:round;stroke-linejoin:round"
     id="rect1055"
     width="5.2916665"
     height="5.2916665"
     x="0.52916664"
     y="0.52916664"
     ry="0.52916664" />
  <path
     id="path6"
     style="text-indent:0;text-decoration-line:none;text-transform:none;fill:#ffffff;stroke-width:0.264583"
     d="M 4.4131685,1.0585288 C 4.3361499,1.0571027 4.2569818,1.0632913 4.1795911,1.0833335 3.6861432,1.211921 3.3905788,1.7134056 3.5191663,2.2036787 A 0.92154374,0.92154374 0 0 0 3.6519747,2.4822145 C 3.6236647,2.4867145 3.22151,3.1689943 3.22151,3.1689943 l 0.9022705,0.00569 0.2123903,-0.2950726 c 0.1005414,0.00793 0.2063541,0.00553 0.3095416,-0.021192 C 5.1391603,2.7298322 5.4349893,2.2288643 5.3061372,1.7385915 5.2794143,1.6361977 5.2299372,1.5431346 5.1738455,1.4600555 L 4.8136609,2.0698373 A 0.2619375,0.2619375 0 0 1 4.4545096,2.1633718 L 4.2235159,2.0290121 A 0.25796875,0.25796875 0 0 1 4.129465,1.6724448 L 4.4891327,1.0621462 c -0.025135,-0.00198 -0.050291,-0.00314 -0.075964,-0.00362 z M 2.0660249,1.2414634 c -0.00277,-4.55e-5 -0.00562,5.054e-4 -0.00827,0.00103 -0.060854,0.012435 -0.1170245,0.034594 -0.1731161,0.057878 -0.0045,0.1651 0.022953,0.3815953 -0.041341,0.4382162 -0.063235,0.055563 -0.2744513,0.00893 -0.4376992,-0.00827 a 0.96043749,0.96043749 0 0 0 -0.082682,0.1984376 c 0.1262062,0.104775 0.301439,0.2220515 0.3054077,0.3059244 0.00423,0.084931 -0.1649925,0.2129896 -0.2800862,0.3307292 0.027252,0.068262 0.06596,0.1303734 0.1069702,0.1901693 0.1608666,-0.033602 0.3611687,-0.098822 0.429431,-0.049609 0.069586,0.050271 0.069796,0.2661708 0.090434,0.4299479 C 2.0412193,3.155761 2.1108707,3.163698 2.181779,3.16899 2.256128,3.0221516 2.3315467,2.8196792 2.4127738,2.796925 2.4961175,2.7733771 2.6673154,2.9181703 2.809132,3.0036307 2.8668112,2.9636787 2.9180867,2.9144 2.9657117,2.8630708 2.8987721,2.7117292 2.7752654,2.5212953 2.809132,2.4413912 2.8427341,2.361487 3.0669809,2.3169047 3.2220268,2.2594901 c 0.00106,-0.019579 0.00827,-0.038551 0.00827,-0.058394 0,-0.050271 -0.00913,-0.1001448 -0.016536,-0.1488281 C 3.053421,2.0099343 2.8261315,1.9889537 2.7843274,1.9122245 2.7427878,1.8357599 2.8482242,1.6314354 2.9000826,1.4740083 A 0.97419582,0.97419582 0 0 0 2.7269665,1.3499849 C 2.5946748,1.4492036 2.440092,1.613113 2.3548962,1.5980318 2.2712878,1.5832151 2.1797296,1.3811396 2.0908296,1.2424979 c -0.00794,0.00139 -0.016494,-8.969e-4 -0.024805,-0.00103 z m 0.1570963,0.4971273 c 0.2460625,0 0.4454509,0.1998926 0.4454509,0.4464843 a 0.44608749,0.44608749 0 1 1 -0.8914185,0 c 0,-0.2465917 0.1996406,-0.4464843 0.4459676,-0.4464843 z m -0.3240111,1.6944702 0.00206,1.5874999 c 0,0.1508125 0.1217207,0.2645834 0.2640666,0.2645834 h 2.1145997 c 0.1383771,0 0.2635498,-0.1176073 0.2635498,-0.2480469 l -0.00258,-1.6040364 z m 1.0583333,0.2645833 h 0.5291667 v 0.396875 H 3.7511934 L 3.2220268,4.7559775 h 0.396875 a 0.13229166,0.13229166 0 0 1 0,0.2645833 h -0.79375 a 0.13229166,0.13229166 0 0 1 0,-0.2645833 h 0.396875 L 2.6928601,4.0945192 h 0.2645833 z" />
</svg>
