<?xml version="1.0" encoding="UTF-8" standalone="no"?>
<!-- Created with Inkscape (http://www.inkscape.org/) -->

<svg
   width="24"
   height="24"
   viewBox="0 0 6.3499999 6.3499999"
   version="1.1"
   id="svg5"
   inkscape:version="1.2 (dc2aedaf03, 2022-05-15)"
   sodipodi:docname="multimedia-photo-viewer.svg"
   xmlns:inkscape="http://www.inkscape.org/namespaces/inkscape"
   xmlns:sodipodi="http://sodipodi.sourceforge.net/DTD/sodipodi-0.dtd"
   xmlns="http://www.w3.org/2000/svg"
   xmlns:svg="http://www.w3.org/2000/svg">
  <sodipodi:namedview
     id="namedview7"
     pagecolor="#ffffff"
     bordercolor="#666666"
     borderopacity="1.0"
     inkscape:pageshadow="2"
     inkscape:pageopacity="0.0"
     inkscape:pagecheckerboard="0"
     inkscape:document-units="px"
     showgrid="false"
     units="px"
     height="48px"
     inkscape:zoom="33.041667"
     inkscape:cx="11.984868"
     inkscape:cy="12"
     inkscape:window-width="1920"
     inkscape:window-height="1014"
     inkscape:window-x="0"
     inkscape:window-y="0"
     inkscape:window-maximized="1"
     inkscape:current-layer="svg5"
     showguides="true"
     inkscape:showpageshadow="2"
     inkscape:deskcolor="#d1d1d1" />
  <defs
     id="defs2" />
  <rect
     style="opacity:1;fill:#245c63;fill-opacity:1;stroke-width:0.264583"
     id="rect1162"
     width="6.3499999"
     height="5.2916665"
     x="0"
     y="0.52916664"
     ry="0.52916664" />
  <rect
     style="opacity:1;fill:#48b9c7;fill-opacity:1;stroke-width:0.383418"
     id="rect1437"
     width="5.8208332"
     height="4.7624998"
     x="0.26458332"
     y="0.79374999"
     ry="0.39687499" />
  <rect
     style="fill:#f6f6f6;fill-opacity:1;stroke-width:0.547741;stroke-linecap:round;stroke-linejoin:round"
     id="rect1282"
     width="4.7624998"
     height="3.7041667"
     x="0.79374999"
     y="1.3229166"
     ry="0.26458332" />
  <path
     d="m 1.0583333,1.5874999 v 2.1166666 l 0.79375,-0.79375 0.79375,0.79375 1.3229166,-1.3229166 1.3229167,1.3229166 V 1.5874999 Z"
     style="opacity:0.5;fill:#1c8d9b;stroke-width:0.264583"
     id="path6176" />
  <path
     d="M 3.1749999,2.6458332 5.2916666,4.7624998 H 1.0583333 Z"
     style="fill:#1c8d9b;stroke-width:0.264583"
     id="path6204" />
  <rect
     style="opacity:1;fill:#671d00;fill-opacity:1;stroke-width:0.264583"
     id="rect8487"
     width="3.4395833"
     height="3.175"
     x="2.9104166"
     y="3.175"
     ry="0.66145831" />
  <rect
     style="opacity:1;fill:#cf3b00;fill-opacity:1;stroke-width:0.264583"
     id="rect10253"
     width="2.9104166"
     height="2.6458333"
     x="3.175"
     y="3.4395833"
     ry="0.52916664" />
  <path
     d="M 4.6302083,4.1010417 C 4.1810331,4.1018354 3.7710091,4.3584998 3.5718749,4.7638229 3.771746,5.1681195 4.1816202,5.4237784 4.6302083,5.4239583 5.0793834,5.4231646 5.4894074,5.1665002 5.6885416,4.7611771 5.4886706,4.3568805 5.0787963,4.1012216 4.6302083,4.1010417 Z m 0,0.1322916 c 0.2922505,0 0.5291666,0.2369159 0.5291666,0.5291667 0,0.2922508 -0.2369161,0.5291667 -0.5291666,0.5291667 -0.2922506,0 -0.5291667,-0.2369159 -0.5291667,-0.5291667 0,-0.2922508 0.2369161,-0.5291667 0.5291667,-0.5291667 z m 0,0.2645834 c -0.1461254,0 -0.2645834,0.1184566 -0.2645834,0.2645833 0,0.1461241 0.118458,0.2645833 0.2645834,0.2645833 0.1461254,0 0.2645833,-0.1184592 0.2645833,-0.2645833 0,-0.1461267 -0.1184579,-0.2645833 -0.2645833,-0.2645833 z"
     style="fill:#ffffff;stroke-width:0.264583"
     id="path12753" />
</svg>
