<?xml version="1.0" encoding="UTF-8" standalone="no"?>
<!-- Created with Inkscape (http://www.inkscape.org/) -->

<svg
   width="24"
   height="24"
   viewBox="0 0 6.3499999 6.3499999"
   version="1.1"
   id="svg5"
   inkscape:version="1.2 (dc2aedaf03, 2022-05-15)"
   sodipodi:docname="nvidia.svg"
   xmlns:inkscape="http://www.inkscape.org/namespaces/inkscape"
   xmlns:sodipodi="http://sodipodi.sourceforge.net/DTD/sodipodi-0.dtd"
   xmlns="http://www.w3.org/2000/svg"
   xmlns:svg="http://www.w3.org/2000/svg">
  <sodipodi:namedview
     id="namedview7"
     pagecolor="#ffffff"
     bordercolor="#666666"
     borderopacity="1.0"
     inkscape:pageshadow="2"
     inkscape:pageopacity="0.0"
     inkscape:pagecheckerboard="0"
     inkscape:document-units="px"
     showgrid="false"
     units="px"
     height="48px"
     inkscape:zoom="17.699767"
     inkscape:cx="-3.2486303"
     inkscape:cy="12.034057"
     inkscape:window-width="1920"
     inkscape:window-height="1011"
     inkscape:window-x="0"
     inkscape:window-y="0"
     inkscape:window-maximized="1"
     inkscape:current-layer="svg5"
     showguides="false"
     inkscape:showpageshadow="2"
     inkscape:deskcolor="#d1d1d1" />
  <defs
     id="defs2" />
  <path
     d="M 2.3813161,0.79374999 V 1.3565063 C 1.2343785,1.5563553 0.34474796,2.4520467 0.34474796,2.4520467 l -0.12143963,0.118339 0.0563274,0.1596801 c 0,0 0.56148777,1.606419 2.10168037,1.9006593 v 0.6609416 h 3.4395833 c 0.293158,0 0.5291666,-0.2360086 0.5291666,-0.5291667 V 1.3229166 c 0,-0.293158 -0.2360086,-0.52916661 -0.5291666,-0.52916661 z"
     style="fill:#626b26;fill-opacity:1;stroke-width:0.264583"
     id="path1651" />
  <path
     d="M 2.6458994,1.0583334 V 1.5875 c 0.033338,-0.00238 0.038505,0.00106 0.071313,0 1.2787299,-0.043392 2.1218342,1.0536825 2.1218342,1.0536825 0,0 -0.9569492,1.1627196 -1.953369,1.1627196 -0.09181,0 -0.1590807,-0.014399 -0.2397786,-0.028422 v 0.3121258 c 0.068792,0.00873 0.1220351,0.018603 0.1958536,0.018603 0.9278929,0 1.599407,-0.4736584 2.2489583,-1.0340454 0.10795,0.086254 0.5492668,0.2954984 0.6397543,0.3875734 -0.6180658,0.5167305 -2.0412153,0.9405107 -2.8571895,0.9405107 -0.078846,0 -0.153293,0.00714 -0.2273763,0 v 0.6268357 h 3.1615642 c 0.1539872,0 0.2780191,-0.1240319 0.2780191,-0.2780191 V 1.3363526 c 0,-0.1539874 -0.1240319,-0.2780192 -0.2780191,-0.2780192 z m 0,3.3419147 V 4.0876059 C 1.510838,3.9447309 1.1038747,2.6985434 1.1038747,2.6985434 c 0,0 0.5265549,-0.7214073 1.5420247,-0.798401 V 1.5875 C 1.5211568,1.677987 0.52923276,2.6406657 0.52923276,2.6406657 c 0,0 0.56964944,1.6135327 2.11666664,1.7595824 z m 0.020153,-2.5011392 c -0.00557,6.62e-5 -0.012017,7.567e-4 -0.020153,0.00155 V 2.2117513 C 1.961423,2.2858343 1.5317555,2.7357504 1.5317555,2.7357504 c 0,0 0.256101,0.8855027 1.1141439,1.0386962 V 3.5150309 c 0.087312,0.029104 0.161644,0.045488 0.2542482,0.044959 0.6984992,0 1.3497882,-0.9043376 1.3497882,-0.9043376 0,0 -0.6135489,-0.7835676 -1.5332397,-0.7549926 -0.025003,7.938e-4 -0.033937,-0.00175 -0.050643,-0.00155 z m 0.1472777,0.2971395 c 0.5889619,0 0.938961,0.4578532 0.938961,0.4578532 L 3.2732508,3.0576946 C 3.0581454,2.699449 3.0036158,2.5690711 2.6458994,2.525944 V 3.5134807 C 2.1622415,3.3507619 1.9870249,2.7884604 1.9870249,2.7884602 c 0,0 0.2995706,-0.3079748 0.6588745,-0.2645832 V 2.2127848 c 0.059796,-0.00609 0.103138,-0.016536 0.1674307,-0.016536 z"
     style="fill:#c4d64d;fill-opacity:1;stroke-width:0.264583"
     id="path1622" />
</svg>
