<?xml version="1.0" encoding="UTF-8" standalone="no"?>
<!-- Created with Inkscape (http://www.inkscape.org/) -->

<svg
   width="24"
   height="24"
   viewBox="0 0 6.3499999 6.3499999"
   version="1.1"
   id="svg5"
   inkscape:version="1.2 (dc2aedaf03, 2022-05-15)"
   sodipodi:docname="org.gnome.TextEditor.svg"
   xmlns:inkscape="http://www.inkscape.org/namespaces/inkscape"
   xmlns:sodipodi="http://sodipodi.sourceforge.net/DTD/sodipodi-0.dtd"
   xmlns="http://www.w3.org/2000/svg"
   xmlns:svg="http://www.w3.org/2000/svg">
  <sodipodi:namedview
     id="namedview7"
     pagecolor="#ffffff"
     bordercolor="#666666"
     borderopacity="1.0"
     inkscape:pageshadow="2"
     inkscape:pageopacity="0.0"
     inkscape:pagecheckerboard="0"
     inkscape:document-units="px"
     showgrid="false"
     units="px"
     height="48px"
     inkscape:zoom="32.416667"
     inkscape:cx="12.046272"
     inkscape:cy="12"
     inkscape:window-width="1920"
     inkscape:window-height="1011"
     inkscape:window-x="0"
     inkscape:window-y="0"
     inkscape:window-maximized="1"
     inkscape:current-layer="svg5"
     showguides="false"
     inkscape:showpageshadow="2"
     inkscape:deskcolor="#d1d1d1" />
  <defs
     id="defs2" />
  <path
     d="M 1.1906263,6.3499977 C 0.82500972,6.3507915 0.52843452,6.0541565 0.52916802,5.6885394 V 0.6614588 C 0.52916802,0.2950109 0.82417842,0 1.1906263,0 h 3.9687499 c 0.366448,0 0.6614584,0.2950109 0.6614584,0.6614588 v 3.704164 l -1.984375,1.9843749 z"
     style="fill:#1f285a;stroke-width:0.264583;fill-opacity:1"
     id="path1100" />
  <path
     d="M 5.55625,4.2333327 V 0.7937494 c 0,-0.2931583 -0.2360083,-0.5291667 -0.5291667,-0.5291667 H 1.3229167 c -0.2931583,0 -0.52916671,0.2360084 -0.52916671,0.5291667 v 4.7624999 c 0,0.2931584 0.23600841,0.5291667 0.52916671,0.5291667 h 2.38125"
     style="fill:#3f51b5;stroke-width:0.264583;fill-opacity:1"
     id="path1319" />
  <path
     d="m 4.1984081,1.7607891 c -0.046968,-0.047255 -0.1234234,-0.047255 -0.1703917,0 l -0.288925,0.2891896 0.5611813,0.5611812 0.2891896,-0.288925 c 0.047255,-0.046969 0.047255,-0.1234228 0,-0.1703916 z M 3.552031,2.2370391 1.672431,4.1163745 1.5875,4.762487 2.2423437,4.669089 4.1132125,2.7982203 Z"
     id="path1827"
     style="fill:#2c397f;fill-opacity:1;stroke-width:0.264583"
     sodipodi:nodetypes="ccccccccccccc" />
  <path
     d="m 4.1984081,1.4962058 c -0.046968,-0.047255 -0.1234234,-0.047255 -0.1703917,0 L 3.7390914,1.7853954 4.3002726,2.3465765 4.5894622,2.0576516 c 0.047255,-0.046969 0.047255,-0.1234229 0,-0.1703917 z M 3.552031,1.9724557 1.672431,3.8517911 1.5875,4.4979036 2.2423437,4.4045056 4.1132125,2.5336368 Z"
     style="fill:#ffffff;fill-opacity:1;stroke-width:0.0700042"
     id="path1080" />
</svg>
