<?xml version="1.0" encoding="UTF-8" standalone="no"?>
<!-- Created with Inkscape (http://www.inkscape.org/) -->

<svg
   width="24"
   height="24"
   viewBox="0 0 6.3499999 6.3499999"
   version="1.1"
   id="svg5"
   inkscape:version="1.1.2 (0a00cf5339, 2022-02-04, custom)"
   sodipodi:docname="org.gnome.Shell.Extensions.GSConnect.svg"
   xmlns:inkscape="http://www.inkscape.org/namespaces/inkscape"
   xmlns:sodipodi="http://sodipodi.sourceforge.net/DTD/sodipodi-0.dtd"
   xmlns="http://www.w3.org/2000/svg"
   xmlns:svg="http://www.w3.org/2000/svg">
  <sodipodi:namedview
     id="namedview7"
     pagecolor="#ffffff"
     bordercolor="#666666"
     borderopacity="1.0"
     inkscape:pageshadow="2"
     inkscape:pageopacity="0.0"
     inkscape:pagecheckerboard="0"
     inkscape:document-units="px"
     showgrid="false"
     units="px"
     height="48px"
     inkscape:zoom="25.031251"
     inkscape:cx="16.11985"
     inkscape:cy="12.98377"
     inkscape:window-width="1920"
     inkscape:window-height="1002"
     inkscape:window-x="0"
     inkscape:window-y="0"
     inkscape:window-maximized="1"
     inkscape:current-layer="svg5"
     showguides="false" />
  <defs
     id="defs2" />
  <rect
     style="opacity:1;fill:#545454;fill-opacity:1;stroke-width:0.264583"
     id="rect1162"
     width="4.7624998"
     height="6.3499999"
     x="0.79374999"
     y="-1.9482167e-08"
     ry="0.52916664" />
  <rect
     style="opacity:1;fill:#48b9c7;fill-opacity:1;stroke-width:0.354976"
     id="rect1437"
     width="3.175"
     height="4.7624998"
     x="1.5875"
     y="0.79374999" />
  <path
     id="rect1825"
     style="opacity:0.5;fill:#ffffff;fill-opacity:1;stroke-width:0.264583"
     d="M 1.3229167,1.1666667e-8 C 1.0297584,1.1666667e-8 0.79374999,0.23600834 0.79374999,0.52916664 V 5.8208332 c 0,0.2931583 0.23600841,0.5291667 0.52916671,0.5291667 h 3.7041667 c 0.2931583,0 0.5291666,-0.2360084 0.5291666,-0.5291667 V 0.52916664 C 5.55625,0.23600834 5.3202417,1.1666667e-8 5.0270834,1.1666667e-8 Z M 1.4552084,0.26458334 h 3.4395833 c 0.2198687,0 0.396875,0.17700625 0.396875,0.396875 V 5.6885415 c 0,0.2198688 -0.1770063,0.396875 -0.396875,0.396875 H 1.4552084 c -0.2198688,0 -0.3968751,-0.1770062 -0.3968751,-0.396875 V 0.66145834 c 0,-0.21986875 0.1770063,-0.396875 0.3968751,-0.396875 z"
     sodipodi:nodetypes="ssssssssssssssssss" />
</svg>
