<?xml version="1.0" encoding="UTF-8" standalone="no"?>
<!-- Created with Inkscape (http://www.inkscape.org/) -->

<svg
   width="24"
   height="24"
   viewBox="0 0 6.3499999 6.3499999"
   version="1.1"
   id="svg5"
   inkscape:version="1.2 (dc2aedaf03, 2022-05-15)"
   sodipodi:docname="org.gnome.Extensions.svg"
   xmlns:inkscape="http://www.inkscape.org/namespaces/inkscape"
   xmlns:sodipodi="http://sodipodi.sourceforge.net/DTD/sodipodi-0.dtd"
   xmlns="http://www.w3.org/2000/svg"
   xmlns:svg="http://www.w3.org/2000/svg">
  <sodipodi:namedview
     id="namedview7"
     pagecolor="#ffffff"
     bordercolor="#666666"
     borderopacity="1.0"
     inkscape:pageshadow="2"
     inkscape:pageopacity="0.0"
     inkscape:pagecheckerboard="0"
     inkscape:document-units="px"
     showgrid="false"
     units="px"
     height="48px"
     inkscape:zoom="34.041667"
     inkscape:cx="11.985312"
     inkscape:cy="12"
     inkscape:window-width="1846"
     inkscape:window-height="1011"
     inkscape:window-x="74"
     inkscape:window-y="32"
     inkscape:window-maximized="1"
     inkscape:current-layer="svg5"
     inkscape:showpageshadow="2"
     inkscape:deskcolor="#d1d1d1" />
  <defs
     id="defs2" />
  <path
     id="rect950"
     style="fill:#396247;fill-opacity:1;stroke-width:0.529167;stroke-linejoin:round"
     d="M 1.8520833 1.0583333 C 1.5589256 1.0583333 1.3229166 1.2943423 1.3229166 1.5875 L 1.3229166 2.38125 L 1.0583333 2.38125 C 0.61859626 2.38125 0.26458333 2.7352629 0.26458333 3.175 C 0.26458333 3.614737 0.61859626 3.9687499 1.0583333 3.9687499 L 1.3229166 3.9687499 L 1.3229166 4.7624999 C 1.3229166 5.0556576 1.5589256 5.2916666 1.8520833 5.2916666 L 2.6458333 5.2916666 L 2.6458333 4.7624999 C 2.6458333 4.4739231 2.8742715 4.2405503 3.1610473 4.2333333 C 3.1655993 4.2332187 3.1704194 4.2333333 3.175 4.2333333 C 3.4681574 4.2333333 3.7041666 4.4693425 3.7041666 4.7624999 L 3.7041666 5.2916666 L 4.4979166 5.2916666 C 4.7910743 5.2916666 5.0270833 5.0556576 5.0270833 4.7624999 L 5.0270833 3.9687499 L 5.2916666 3.9687499 C 5.7314036 3.9687499 6.0854166 3.614737 6.0854166 3.175 C 6.0854166 2.7352629 5.7314036 2.38125 5.2916666 2.38125 L 5.0270833 2.38125 L 5.0270833 1.5875 C 5.0270833 1.2943423 4.7910743 1.0583333 4.4979166 1.0583333 L 3.7041666 1.0583333 L 3.7041666 1.5875 C 3.7041666 1.8806574 3.4681574 2.1166666 3.175 2.1166666 C 2.8818423 2.1166666 2.6458333 1.8806574 2.6458333 1.5875 L 2.6458333 1.0583333 L 1.8520833 1.0583333 z " />
  <path
     id="rect850"
     style="fill:#73c48f;fill-opacity:1;stroke-width:0.529167;stroke-linejoin:round"
     d="M 1.984375 1.3229166 C 1.7645066 1.3229166 1.5875 1.4999234 1.5875 1.7197916 L 1.5875 2.6458333 L 1.0583333 2.6458333 C 0.7651756 2.6458333 0.52916666 2.8818421 0.52916666 3.175 C 0.52916666 3.4681577 0.7651756 3.7041666 1.0583333 3.7041666 L 1.5875 3.7041666 L 1.5875 4.6302083 C 1.5875 4.8500765 1.7645066 5.0270833 1.984375 5.0270833 L 2.38125 5.0270833 L 2.38125 4.7624999 C 2.38125 4.3296343 2.7241651 3.9795755 3.1543294 3.9687499 C 3.1611574 3.9685781 3.1681291 3.9687499 3.175 3.9687499 C 3.6147365 3.9687499 3.9687499 4.3227634 3.9687499 4.7624999 L 3.9687499 5.0270833 L 4.3656249 5.0270833 C 4.5854933 5.0270833 4.7624999 4.8500765 4.7624999 4.6302083 L 4.7624999 3.7041666 L 5.2916666 3.7041666 C 5.5848243 3.7041666 5.8208332 3.4681577 5.8208332 3.175 C 5.8208332 2.8818421 5.5848243 2.6458333 5.2916666 2.6458333 L 4.7624999 2.6458333 L 4.7624999 1.7197916 C 4.7624999 1.4999234 4.5854933 1.3229166 4.3656249 1.3229166 L 3.9687499 1.3229166 L 3.9687499 1.5875 C 3.9687499 2.0272365 3.6147365 2.38125 3.175 2.38125 C 2.7352633 2.38125 2.38125 2.0272365 2.38125 1.5875 L 2.38125 1.3229166 L 1.984375 1.3229166 z " />
</svg>
