<?xml version="1.0" encoding="UTF-8" standalone="no"?>
<!-- Created with Inkscape (http://www.inkscape.org/) -->

<svg
   width="24"
   height="24"
   viewBox="0 0 6.3499999 6.3499999"
   version="1.1"
   id="svg5"
   inkscape:version="1.2 (dc2aedaf03, 2022-05-15)"
   sodipodi:docname="password-manager.svg"
   xmlns:inkscape="http://www.inkscape.org/namespaces/inkscape"
   xmlns:sodipodi="http://sodipodi.sourceforge.net/DTD/sodipodi-0.dtd"
   xmlns="http://www.w3.org/2000/svg"
   xmlns:svg="http://www.w3.org/2000/svg">
  <sodipodi:namedview
     id="namedview7"
     pagecolor="#ffffff"
     bordercolor="#666666"
     borderopacity="1.0"
     inkscape:pageshadow="2"
     inkscape:pageopacity="0.0"
     inkscape:pagecheckerboard="0"
     inkscape:document-units="px"
     showgrid="false"
     units="px"
     height="48px"
     inkscape:zoom="34.291667"
     inkscape:cx="12"
     inkscape:cy="12"
     inkscape:window-width="1846"
     inkscape:window-height="1011"
     inkscape:window-x="0"
     inkscape:window-y="0"
     inkscape:window-maximized="1"
     inkscape:current-layer="svg5"
     showguides="false"
     inkscape:showpageshadow="2"
     inkscape:deskcolor="#d1d1d1" />
  <defs
     id="defs2" />
  <rect
     style="opacity:1;fill:#444444;fill-opacity:1;stroke-width:0.264583"
     id="rect1162"
     width="5.8208332"
     height="5.8208332"
     x="0.26458332"
     y="0.26458332"
     ry="0.52916664" />
  <path
     id="rect1437"
     style="opacity:0.5;fill:#ffffff;fill-opacity:1;stroke-width:0.383418"
     d="m 0.79374997,0.26458333 c -0.29315801,0 -0.52916664,0.23600861 -0.52916664,0.52916661 V 5.5562499 c 0,0.293158 0.23600863,0.5291666 0.52916664,0.5291666 H 5.5562499 c 0.2931581,0 0.5291667,-0.2360086 0.5291667,-0.5291666 V 0.79374994 c 0,-0.293158 -0.2360086,-0.52916661 -0.5291667,-0.52916661 z m 0,0.26458331 H 5.5562499 c 0.1465791,0 0.2645834,0.1180043 0.2645834,0.2645833 V 5.5562499 c 0,0.146579 -0.1180043,0.2645833 -0.2645834,0.2645833 H 0.79374997 c -0.14657899,0 -0.26458331,-0.1180043 -0.26458331,-0.2645833 V 0.79374994 c 0,-0.146579 0.11800432,-0.2645833 0.26458331,-0.2645833 z"
     sodipodi:nodetypes="ssssssssssssssssss" />
  <rect
     style="fill:#cdcdcd;fill-opacity:1;stroke:none;stroke-width:0.264583;stroke-linecap:square;stroke-linejoin:bevel"
     id="rect29955"
     width="4.2333331"
     height="4.2333331"
     x="1.0583332"
     y="1.0583333"
     ry="0.26458332" />
  <path
     id="rect35821"
     style="opacity:0.2;fill:#000000;fill-opacity:1;stroke:none;stroke-width:0.132291;stroke-linecap:square;stroke-linejoin:bevel"
     d="m 0.92604169,1.8520834 c -0.07329,0 -0.1322917,0.059002 -0.1322917,0.1322915 v 0.7937503 c 0,0.073289 0.059002,0.1322915 0.1322917,0.1322915 H 1.1906249 c 0.07329,0 0.1322917,-0.059002 0.1322917,-0.1322915 V 1.9843749 c 0,-0.073289 -0.059002,-0.1322915 -0.1322917,-0.1322915 z m 0,1.8520836 c -0.07329,0 -0.1322917,0.059002 -0.1322917,0.1322915 v 0.7937502 c 0,0.07329 0.059002,0.132291 0.1322917,0.132291 H 1.1906249 c 0.07329,0 0.1322917,-0.059 0.1322917,-0.132291 V 3.8364585 c 0,-0.073289 -0.059002,-0.1322915 -0.1322917,-0.1322915 z"
     sodipodi:nodetypes="ssssssssssssssssss" />
  <path
     id="rect34365"
     style="fill:#ededed;fill-opacity:1;stroke:none;stroke-width:0.132291;stroke-linecap:square;stroke-linejoin:bevel"
     d="m 0.92604169,1.5875 c -0.07329,0 -0.1322917,0.059002 -0.1322917,0.1322917 v 0.7937501 c 0,0.073289 0.059002,0.1322914 0.1322917,0.1322914 H 1.1906249 c 0.07329,0 0.1322917,-0.059002 0.1322917,-0.1322914 V 1.7197917 c 0,-0.07329 -0.059002,-0.1322917 -0.1322917,-0.1322917 z m 0,1.8520834 c -0.07329,0 -0.1322917,0.059003 -0.1322917,0.132292 v 0.7937493 c 0,0.07329 0.059002,0.132292 0.1322917,0.132292 H 1.1906249 c 0.07329,0 0.1322917,-0.059 0.1322917,-0.132292 V 3.5718754 c 0,-0.073289 -0.059002,-0.132292 -0.1322917,-0.132292 z"
     sodipodi:nodetypes="ssssssssssssssssss" />
  <path
     d="m 1.8877915,3.5655519 c 0.044704,0.082492 0.1318789,0.1383771 0.2326481,0.1383824 l 0.8568532,-3.44e-5 c 0.093517,0.1656794 0.2687928,0.268388 0.4590415,0.2690283 l 0.4322709,0.7487206 c 0.07329,0.1269391 0.234487,0.170135 0.3614288,0.096845 C 4.3569758,4.7452018 4.400169,4.5840068 4.326879,4.457065 L 3.8938306,3.7070061 C 3.9403364,3.6269829 3.9650802,3.5361832 3.9655353,3.4436266 3.9652707,3.3510172 3.9404528,3.2601354 3.8939179,3.1800593 L 4.3264111,2.4304286 C 4.3997007,2.3034868 4.3568779,2.1423211 4.2299361,2.0690289 4.1029969,1.995742 3.9413788,2.0388188 3.8680893,2.1657606 L 3.436403,2.9145261 3.4358739,2.9147907 C 3.2489458,2.9150553 3.0760538,3.0140147 2.9810498,3.1750031 L 2.120474,3.1747967 C 1.9739081,3.1747861 1.8557875,3.293211 1.8557875,3.4397902 c 8e-6,0.04581 0.011774,0.088373 0.032097,0.1258728 z"
     id="path985"
     style="opacity:0.2;fill:#000000;stroke-width:0.264583"
     sodipodi:nodetypes="ccccccsccccccccccccc" />
  <path
     d="m 1.8877915,3.3009685 c 0.044704,0.082492 0.1318789,0.1383771 0.2326481,0.1383824 l 0.8568532,-3.44e-5 c 0.093517,0.1656794 0.2687928,0.268388 0.4590415,0.2690283 l 0.4322709,0.7487206 c 0.07329,0.1269391 0.234487,0.170135 0.3614288,0.096845 0.1269418,-0.073292 0.170135,-0.234487 0.096845,-0.3614288 L 3.8938306,3.4424227 C 3.9403364,3.3623995 3.9650802,3.2715998 3.9655353,3.1790432 3.9652707,3.0864338 3.9404528,2.995552 3.8939179,2.9154759 L 4.3264111,2.1658452 C 4.3997007,2.0389034 4.3568779,1.8777377 4.2299361,1.8044455 4.1029969,1.7311586 3.9413788,1.7742354 3.8680893,1.9011772 L 3.436403,2.6499427 3.4358739,2.6502073 C 3.2489458,2.6504719 3.0760538,2.7494313 2.9810498,2.9104197 L 2.120474,2.9102133 c -0.1465659,-1.06e-5 -0.2646865,0.1184143 -0.2646865,0.2649935 8e-6,0.04581 0.011774,0.088373 0.032097,0.1258728 z"
     style="fill:#656565;fill-opacity:1;stroke-width:0.264583"
     id="path1649" />
</svg>
