<?xml version="1.0" encoding="UTF-8" standalone="no"?>
<!-- Created with Inkscape (http://www.inkscape.org/) -->

<svg
   width="24"
   height="24"
   viewBox="0 0 6.3499999 6.3499999"
   version="1.1"
   id="svg5"
   inkscape:version="1.2 (dc2aedaf03, 2022-05-15)"
   sodipodi:docname="pop-cosmic-workspaces.svg"
   xmlns:inkscape="http://www.inkscape.org/namespaces/inkscape"
   xmlns:sodipodi="http://sodipodi.sourceforge.net/DTD/sodipodi-0.dtd"
   xmlns="http://www.w3.org/2000/svg"
   xmlns:svg="http://www.w3.org/2000/svg">
  <sodipodi:namedview
     id="namedview7"
     pagecolor="#ffffff"
     bordercolor="#666666"
     borderopacity="1.0"
     inkscape:pageshadow="2"
     inkscape:pageopacity="0.0"
     inkscape:pagecheckerboard="0"
     inkscape:document-units="px"
     showgrid="false"
     units="px"
     height="48px"
     inkscape:zoom="34.041667"
     inkscape:cx="12"
     inkscape:cy="12"
     inkscape:window-width="1920"
     inkscape:window-height="1010"
     inkscape:window-x="0"
     inkscape:window-y="0"
     inkscape:window-maximized="1"
     inkscape:current-layer="svg5"
     inkscape:showpageshadow="2"
     inkscape:deskcolor="#d1d1d1" />
  <defs
     id="defs2" />
  <rect
     style="opacity:1;fill:#48b9c7;fill-opacity:1;stroke-width:0.264583"
     id="rect1162"
     width="6.3499999"
     height="5.8208332"
     x="0"
     y="0.26458332"
     ry="0.66145831" />
  <path
     id="rect1014"
     style="opacity:0.5;fill:#000000;stroke-width:0.264583"
     d="M 0.66145832,0.26458333 C 0.29501041,0.26458333 0,0.55959374 0,0.92604165 V 5.4239583 C 0,5.7904062 0.29501041,6.0854166 0.66145832,6.0854166 H 5.6885416 C 6.0549895,6.0854166 6.35,5.7904062 6.35,5.4239583 V 0.92604165 C 6.35,0.55959374 6.0549895,0.26458333 5.6885416,0.26458333 Z M 0.79374999,0.52916666 H 5.55625 c 0.2931583,0 0.5291666,0.23600833 0.5291666,0.52916664 v 4.2333333 c 0,0.2931583 -0.2360083,0.5291667 -0.5291666,0.5291667 H 0.79374999 c -0.29315833,0 -0.52916666,-0.2360084 -0.52916666,-0.5291667 V 1.0583333 c 0,-0.29315831 0.23600833,-0.52916664 0.52916666,-0.52916664 z"
     sodipodi:nodetypes="ssssssssssssssssss" />
  <rect
     style="fill:#ededed;fill-opacity:1;stroke-width:0.264583"
     id="rect1503"
     width="3.175"
     height="2.3812499"
     x="0.26458329"
     y="0.79374999"
     ry="0.13229166" />
  <path
     d="M 0.39687493,0.79375006 H 3.3072918 c 0.07329,0 0.1322915,0.059002 0.1322915,0.1322917 V 1.3229165 H 0.26458333 V 0.92604176 c 0,-0.07329 0.059002,-0.1322917 0.1322916,-0.1322917 z"
     style="fill:#ffad00;stroke-width:0.264583"
     id="path2155"
     sodipodi:nodetypes="sssccss" />
  <rect
     style="fill:#ededed;fill-opacity:1;stroke-width:0.529167"
     id="rect1817"
     width="2.1166666"
     height="1.5875"
     x="3.96875"
     y="1.3229169"
     ry="0.13229166" />
  <path
     d="m 4.1010418,1.3229167 h 1.8520834 c 0.07329,0 0.132291,0.059002 0.132291,0.1322917 V 1.5874996 H 3.9687498 V 1.4552084 c 0,-0.07329 0.059003,-0.1322917 0.132292,-0.1322917 z"
     style="fill:#ffad00;stroke-width:0.264584"
     id="path2099"
     sodipodi:nodetypes="sssccss" />
  <rect
     style="fill:#ededed;fill-opacity:1;stroke-width:0.264583"
     id="rect1819"
     width="3.175"
     height="2.3812499"
     x="1.5875002"
     y="3.4395835"
     ry="0.13229166" />
  <path
     d="m 1.7197913,3.4395833 h 2.9104162 c 0.07329,0 0.1322922,0.059003 0.1322922,0.132292 v 0.3968744 h -3.175 V 3.5718753 c 0,-0.073289 0.059002,-0.132292 0.1322916,-0.132292 z"
     style="fill:#ffad00;stroke-width:0.264583"
     id="path2127"
     sodipodi:nodetypes="sssccss" />
</svg>
