<?xml version="1.0" encoding="UTF-8" standalone="no"?>
<!-- Created with Inkscape (http://www.inkscape.org/) -->

<svg
   width="24"
   height="24"
   viewBox="0 0 6.3499999 6.3500004"
   version="1.1"
   id="svg1099"
   inkscape:version="1.2 (dc2aedaf03, 2022-05-15)"
   sodipodi:docname="pop-cosmic-applications.svg"
   xmlns:inkscape="http://www.inkscape.org/namespaces/inkscape"
   xmlns:sodipodi="http://sodipodi.sourceforge.net/DTD/sodipodi-0.dtd"
   xmlns="http://www.w3.org/2000/svg"
   xmlns:svg="http://www.w3.org/2000/svg">
  <sodipodi:namedview
     id="namedview1101"
     pagecolor="#ffffff"
     bordercolor="#666666"
     borderopacity="1.0"
     inkscape:pageshadow="2"
     inkscape:pageopacity="0.0"
     inkscape:pagecheckerboard="0"
     inkscape:document-units="px"
     showgrid="false"
     units="px"
     inkscape:zoom="33.916667"
     inkscape:cx="12"
     inkscape:cy="12"
     inkscape:window-width="1920"
     inkscape:window-height="1011"
     inkscape:window-x="0"
     inkscape:window-y="0"
     inkscape:window-maximized="1"
     inkscape:current-layer="svg1099"
     inkscape:showpageshadow="2"
     inkscape:deskcolor="#d1d1d1"
     showguides="true"
     inkscape:lockguides="false" />
  <defs
     id="defs1096" />
  <path
     id="rect1993"
     style="opacity:1;fill:#48b9c7;fill-opacity:1;stroke-width:0.529167;stroke-linejoin:round"
     d="m 2.778125,2.38125 c -0.2198685,0 -0.396875,0.1770065 -0.396875,0.396875 v 0.79375 c 0,0.2198686 0.1770065,0.396875 0.396875,0.396875 h 0.7937501 c 0.2198686,0 0.396875,-0.1770064 0.396875,-0.396875 v -0.79375 c 0,-0.2198685 -0.1770064,-0.396875 -0.396875,-0.396875 z M 0.92604166,4.2333335 c -0.21986853,0 -0.39687499,0.1770064 -0.39687499,0.396875 v 0.7937499 c 0,0.2198686 0.17700646,0.396875 0.39687499,0.396875 H 1.7197917 c 0.2198685,0 0.396875,-0.1770064 0.396875,-0.396875 V 4.6302085 c 0,-0.2198686 -0.1770065,-0.396875 -0.396875,-0.396875 z"
     sodipodi:nodetypes="ssssssssssssssssss" />
  <rect
     style="opacity:1;fill:#966800;fill-opacity:1;stroke-width:0.529167;stroke-linejoin:round"
     id="rect1870"
     width="1.5875"
     height="1.5875"
     x="4.2333341"
     y="2.3812501"
     ry="0.39687499" />
  <rect
     style="opacity:1;fill:#ffad00;fill-opacity:1;stroke-width:0.529167;stroke-linejoin:round"
     id="rect1126"
     width="1.0583334"
     height="1.0583334"
     x="4.4979138"
     y="2.6458337"
     ry="0.26458335" />
  <path
     id="rect2144"
     style="opacity:1;fill:#94ebeb;fill-opacity:1;stroke-width:0.529167;stroke-linejoin:round"
     d="m 2.9104167,2.6458334 c -0.146579,0 -0.2645833,0.1180043 -0.2645833,0.2645833 v 0.5291667 c 0,0.146579 0.1180043,0.2645833 0.2645833,0.2645833 h 0.5291667 c 0.1465791,0 0.2645834,-0.1180043 0.2645834,-0.2645833 V 2.9104167 c 0,-0.146579 -0.1180043,-0.2645833 -0.2645834,-0.2645833 z M 1.0583334,4.4979168 c -0.14657904,0 -0.26458344,0.1180043 -0.26458344,0.2645833 v 0.5291666 c 0,0.1465791 0.1180044,0.2645834 0.26458344,0.2645834 H 1.5875 c 0.1465791,0 0.2645834,-0.1180043 0.2645834,-0.2645834 V 4.7625001 c 0,-0.146579 -0.1180043,-0.2645833 -0.2645834,-0.2645833 z"
     sodipodi:nodetypes="ssssssssssssssssss" />
  <path
     id="rect2364"
     style="opacity:1;fill:#a38c0d;fill-opacity:1;stroke-width:0.529167;stroke-linejoin:round"
     d="m 2.778125,0.52916686 c -0.2198685,0 -0.3968751,0.1770065 -0.3968751,0.396875 V 1.7197919 c 0,0.2198685 0.1770066,0.396875 0.3968751,0.396875 h 0.7937501 c 0.219868,0 0.396875,-0.1770065 0.396875,-0.396875 V 0.92604186 c 0,-0.2198685 -0.177007,-0.396875 -0.396875,-0.396875 z M 0.92604156,2.3812502 c -0.21986849,0 -0.39687489,0.1770065 -0.39687489,0.396875 v 0.79375 c 0,0.2198685 0.1770064,0.396875 0.39687489,0.396875 H 1.7197916 c 0.2198686,0 0.3968751,-0.1770065 0.3968751,-0.396875 v -0.79375 c 0,-0.2198685 -0.1770065,-0.396875 -0.3968751,-0.396875 z M 4.6302081,4.2333337 c -0.219868,0 -0.396875,0.1770064 -0.396875,0.396875 v 0.7937499 c 0,0.2198686 0.177007,0.396875 0.396875,0.396875 h 0.7937503 c 0.219869,0 0.396875,-0.1770064 0.396875,-0.396875 V 4.6302087 c 0,-0.2198686 -0.177006,-0.396875 -0.396875,-0.396875 z"
     sodipodi:nodetypes="sssssssssssssssssssssssssss" />
  <path
     id="rect2459"
     style="opacity:1;fill:#f7e062;fill-opacity:1;stroke-width:0.529167;stroke-linejoin:round"
     d="m 2.9104167,0.79374996 c -0.146579,0 -0.2645833,0.1180044 -0.2645833,0.26458344 v 0.5291667 c 0,0.146579 0.1180043,0.2645833 0.2645833,0.2645833 h 0.5291667 c 0.1465791,0 0.2645834,-0.1180043 0.2645834,-0.2645833 V 1.0583334 c 0,-0.14657904 -0.1180043,-0.26458344 -0.2645834,-0.26458344 z M 1.0583334,2.6458334 c -0.14657904,0 -0.26458344,0.1180043 -0.26458344,0.2645833 v 0.5291667 c 0,0.146579 0.1180044,0.2645833 0.26458344,0.2645833 H 1.5875 c 0.1465791,0 0.2645834,-0.1180043 0.2645834,-0.2645833 V 2.9104167 c 0,-0.146579 -0.1180043,-0.2645833 -0.2645834,-0.2645833 z m 3.7041667,1.8520834 c -0.146579,0 -0.2645833,0.1180043 -0.2645833,0.2645833 v 0.5291667 c 0,0.1465791 0.1180043,0.2645834 0.2645833,0.2645834 h 0.5291667 c 0.146579,0 0.2645833,-0.1180043 0.2645833,-0.2645834 V 4.7625001 c 0,-0.146579 -0.1180043,-0.2645833 -0.2645833,-0.2645833 z"
     sodipodi:nodetypes="sssssssssssssssssssssssssss" />
  <path
     id="rect2692"
     style="opacity:1;fill:#245c63;fill-opacity:1;stroke-width:0.529167;stroke-linejoin:round"
     d="m 0.92604166,0.52916667 c -0.21986852,0 -0.39687499,0.17700647 -0.39687499,0.39687499 V 1.7197917 c 0,0.2198685 0.17700647,0.396875 0.39687499,0.396875 H 1.7197917 c 0.2198685,0 0.396875,-0.1770065 0.396875,-0.396875 V 0.92604166 c 0,-0.21986852 -0.1770065,-0.39687499 -0.396875,-0.39687499 z m 3.70416684,0 c -0.2198686,0 -0.396875,0.17700647 -0.396875,0.39687499 V 1.7197917 c 0,0.2198685 0.1770064,0.396875 0.396875,0.396875 h 0.7937499 c 0.2198686,0 0.396875,-0.1770065 0.396875,-0.396875 V 0.92604166 c 0,-0.21986852 -0.1770064,-0.39687499 -0.396875,-0.39687499 z M 2.7781251,4.2333335 c -0.2198685,0 -0.396875,0.1770064 -0.396875,0.396875 v 0.7937499 c 0,0.2198686 0.1770065,0.396875 0.396875,0.396875 h 0.79375 c 0.2198685,0 0.396875,-0.1770064 0.396875,-0.396875 V 4.6302085 c 0,-0.2198686 -0.1770065,-0.396875 -0.396875,-0.396875 z"
     sodipodi:nodetypes="sssssssssssssssssssssssssss" />
  <path
     id="rect2787"
     style="opacity:1;fill:#48b9c7;fill-opacity:1;stroke-width:0.529167;stroke-linejoin:round"
     d="m 1.0583334,0.79374996 c -0.14657904,0 -0.26458344,0.1180044 -0.26458344,0.26458344 V 1.5875 c 0,0.146579 0.1180044,0.2645833 0.26458344,0.2645833 H 1.5875 c 0.1465791,0 0.2645834,-0.1180043 0.2645834,-0.2645833 V 1.0583334 c 0,-0.14657904 -0.1180043,-0.26458344 -0.2645834,-0.26458344 z m 3.7041667,0 c -0.146579,0 -0.2645833,0.1180044 -0.2645833,0.26458344 V 1.5875 c 0,0.146579 0.1180043,0.2645833 0.2645833,0.2645833 h 0.5291667 c 0.146579,0 0.2645833,-0.1180043 0.2645833,-0.2645833 V 1.0583334 c 0,-0.14657904 -0.1180043,-0.26458344 -0.2645833,-0.26458344 z M 2.9104168,4.4979168 c -0.146579,0 -0.2645833,0.1180043 -0.2645833,0.2645833 v 0.5291666 c 0,0.1465791 0.1180043,0.2645834 0.2645833,0.2645834 h 0.5291666 c 0.1465791,0 0.2645834,-0.1180043 0.2645834,-0.2645834 V 4.7625001 c 0,-0.146579 -0.1180043,-0.2645833 -0.2645834,-0.2645833 z"
     sodipodi:nodetypes="sssssssssssssssssssssssssss" />
</svg>
