<?xml version="1.0" encoding="UTF-8" standalone="no"?>
<!-- Created with Inkscape (http://www.inkscape.org/) -->

<svg
   width="24"
   height="24"
   viewBox="0 0 6.3499999 6.3499999"
   version="1.1"
   id="svg5"
   inkscape:version="1.1.2 (0a00cf5339, 2022-02-04, custom)"
   sodipodi:docname="preferences-desktop-wallpaper.svg"
   xmlns:inkscape="http://www.inkscape.org/namespaces/inkscape"
   xmlns:sodipodi="http://sodipodi.sourceforge.net/DTD/sodipodi-0.dtd"
   xmlns="http://www.w3.org/2000/svg"
   xmlns:svg="http://www.w3.org/2000/svg">
  <sodipodi:namedview
     id="namedview7"
     pagecolor="#ffffff"
     bordercolor="#666666"
     borderopacity="1.0"
     inkscape:pageshadow="2"
     inkscape:pageopacity="0.0"
     inkscape:pagecheckerboard="0"
     inkscape:document-units="px"
     showgrid="false"
     units="px"
     height="48px"
     inkscape:zoom="8.8498835"
     inkscape:cx="-3.1073855"
     inkscape:cy="14.463467"
     inkscape:window-width="1920"
     inkscape:window-height="1002"
     inkscape:window-x="0"
     inkscape:window-y="0"
     inkscape:window-maximized="1"
     inkscape:current-layer="svg5"
     showguides="true" />
  <defs
     id="defs2" />
  <rect
     style="opacity:1;fill:#6f6f6f;fill-opacity:1;stroke-width:0.264583"
     id="rect1162"
     width="6.3499999"
     height="5.2916665"
     x="0"
     y="0.52916664"
     ry="0.52916664" />
  <rect
     style="opacity:1;fill:#dedede;fill-opacity:1;stroke-width:0.383418"
     id="rect1437"
     width="5.8208332"
     height="4.7624998"
     x="0.26458332"
     y="0.79374999"
     ry="0.39687499" />
  <rect
     style="fill:#48b9c7;fill-opacity:1;stroke-width:0.547741;stroke-linecap:round;stroke-linejoin:round"
     id="rect1282"
     width="5.2916665"
     height="3.96875"
     x="0.52916664"
     y="1.0583333" />
  <path
     d="m 2.1166667,1.5874999 c -0.4352395,0 -0.7937499,0.3585104 -0.7937499,0.79375 v 1.5875 c 0,0.4352395 0.3585103,0.7937499 0.7937499,0.7937499 h 2.1166667 c 0.4352396,0 0.79375,-0.3585104 0.79375,-0.7937499 v -1.5875 c 0,-0.4352396 -0.3585104,-0.79375 -0.79375,-0.79375 z m 0,0.5291667 h 2.1166667 c 0.1510771,0 0.2645831,0.1135062 0.2645831,0.2645833 v 1.5875 c 0,0.151077 -0.113506,0.2645833 -0.2645831,0.2645833 H 2.1166667 c -0.151077,0 -0.2645833,-0.1135063 -0.2645833,-0.2645833 v -1.5875 c 0,-0.1510771 0.1135063,-0.2645833 0.2645833,-0.2645833 z M 3.1749999,2.9104165 4.2333334,3.9687499 H 2.1166667 Z"
     style="opacity:0.2;fill:#000000;stroke-width:0.0185219"
     id="path1387" />
  <path
     d="m 2.1166667,2.3812499 v 1.0583333 l 0.396875,-0.396875 0.3968749,0.396875 0.6614583,-0.6614583 0.6614583,0.6614583 V 2.3812499 Z"
     style="opacity:0.1;fill:#000000;stroke-width:0.264583"
     id="path12465"
     sodipodi:nodetypes="cccccccc" />
  <path
     d="M 2.1166667,2.1166666 V 3.1749999 L 2.5135417,2.778125 2.9104167,3.1749999 3.5718749,2.5135416 4.2333332,3.1749999 V 2.1166666 Z"
     style="opacity:0.5;fill:#ffffff;stroke-width:0.0700042"
     id="path1587" />
  <path
     d="m 2.1166667,1.3229166 c -0.4352397,0 -0.7937499,0.3585105 -0.7937499,0.79375 v 1.5875 c 0,0.4352395 0.3585102,0.7937499 0.7937499,0.7937499 h 2.1166666 c 0.4352396,0 0.79375,-0.3585104 0.79375,-0.7937499 v -1.5875 c 0,-0.4352395 -0.3585104,-0.79375 -0.79375,-0.79375 z m 0,0.5291667 h 2.1166666 c 0.1510771,0 0.2645833,0.1135062 0.2645833,0.2645833 v 1.5875 c 0,0.151077 -0.1135062,0.2645833 -0.2645833,0.2645833 H 2.1166667 c -0.1510772,0 -0.2645833,-0.1135063 -0.2645833,-0.2645833 v -1.5875 c 0,-0.1510771 0.1135061,-0.2645833 0.2645833,-0.2645833 z M 3.1749999,2.6458332 4.2333333,3.7041666 H 2.1166667 Z"
     style="fill:#ffffff;stroke-width:0.0700042"
     id="path1187"
     sodipodi:nodetypes="sssssssssssssssssscccc" />
</svg>
