<?xml version="1.0" encoding="UTF-8" standalone="no"?>
<!-- Created with Inkscape (http://www.inkscape.org/) -->

<svg
   width="24"
   height="24"
   viewBox="0 0 6.3499999 6.3499999"
   version="1.1"
   id="svg5"
   inkscape:version="1.2 (dc2aedaf03, 2022-05-15)"
   sodipodi:docname="preferences-activities.svg"
   xmlns:inkscape="http://www.inkscape.org/namespaces/inkscape"
   xmlns:sodipodi="http://sodipodi.sourceforge.net/DTD/sodipodi-0.dtd"
   xmlns="http://www.w3.org/2000/svg"
   xmlns:svg="http://www.w3.org/2000/svg">
  <sodipodi:namedview
     id="namedview7"
     pagecolor="#ffffff"
     bordercolor="#666666"
     borderopacity="1.0"
     inkscape:pageshadow="2"
     inkscape:pageopacity="0.0"
     inkscape:pagecheckerboard="0"
     inkscape:document-units="px"
     showgrid="false"
     units="px"
     height="48px"
     inkscape:zoom="33.333333"
     inkscape:cx="12"
     inkscape:cy="12"
     inkscape:window-width="1920"
     inkscape:window-height="1016"
     inkscape:window-x="0"
     inkscape:window-y="0"
     inkscape:window-maximized="1"
     inkscape:current-layer="svg5"
     inkscape:showpageshadow="2"
     inkscape:deskcolor="#d1d1d1" />
  <defs
     id="defs2" />
  <rect
     style="opacity:1;fill:#9f9792;fill-opacity:1;stroke-width:0.264583"
     id="rect1162"
     width="5.8208332"
     height="5.8208332"
     x="0.26458332"
     y="0.26458332"
     ry="0.66145831" />
  <path
     d="M 2.711979,1.5875 2.671233,2.0753917 C 2.5164909,2.1326977 2.3726229,2.2159047 2.245783,2.3214541 L 1.8023415,2.1124333 1.3393207,2.91465 1.7420165,3.19405 c -0.01434,0.081068 -0.021775,0.1632074 -0.022225,0.2455333 4.03e-5,0.082649 0.00712,0.1651447 0.021167,0.2465917 L 1.3395853,3.9645166 1.8026061,4.7667333 2.2447249,4.5582416 c 0.1272759,0.1050899 0.2715029,0.1877611 0.4265083,0.244475 l 0.040746,0.48895 h 0.9260415 l 0.040746,-0.4878917 c 0.1547421,-0.057306 0.2986101,-0.140513 0.42545,-0.2460624 l 0.4434417,0.2090208 0.4630208,-0.8022167 -0.4026958,-0.2794 c 0.01434,-0.081068 0.021775,-0.1632074 0.022225,-0.2455333 -4.03e-5,-0.082649 -0.00712,-0.1651447 -0.021167,-0.2465917 L 5.0104144,2.91465 4.5473936,2.1124333 4.1052748,2.320925 C 3.9779989,2.2158351 3.8337719,2.1331639 3.6787665,2.07645 L 3.6380205,1.5875 Z m 0.4630208,1.3229166 c 0.2922506,0 0.5291667,0.2369162 0.5291667,0.5291667 0,0.2922505 -0.2369161,0.5291667 -0.5291667,0.5291667 -0.2922505,0 -0.5291666,-0.2369162 -0.5291666,-0.5291667 0,-0.2922505 0.2369161,-0.5291667 0.5291666,-0.5291667 z"
     style="opacity:0.2;fill:#000000;stroke-width:0.264583"
     id="path7469"
     sodipodi:nodetypes="cccccccccccccccccccccccccccsssss" />
  <path
     d="M 2.711979,1.3229167 2.671233,1.8108084 C 2.5164909,1.8681144 2.3726229,1.9513214 2.245783,2.0568708 L 1.8023415,1.84785 1.3393207,2.6500667 l 0.4026958,0.2794 c -0.01434,0.081068 -0.021775,0.1632074 -0.022225,0.2455333 4.03e-5,0.082649 0.00712,0.1651446 0.021167,0.2465916 L 1.3395853,3.6999332 1.8026061,4.5021499 2.2447249,4.2936582 c 0.1272759,0.10509 0.2715029,0.1877612 0.4265083,0.244475 l 0.040746,0.4889501 h 0.9260415 l 0.040746,-0.4878918 c 0.1547421,-0.057306 0.2986101,-0.140513 0.42545,-0.2460623 L 4.5476584,4.50215 5.0106792,3.6999333 4.6079834,3.4205333 C 4.6223234,3.3394653 4.6297584,3.2573259 4.6302084,3.175 4.6301681,3.092351 4.6230884,3.0098553 4.6090414,2.9284083 L 5.0104144,2.6500667 4.5473936,1.84785 4.1052748,2.0563417 C 3.9779989,1.9512518 3.8337719,1.8685806 3.6787665,1.8118667 l -0.040746,-0.48895 z m 0.4630208,1.3229166 c 0.2922506,0 0.5291667,0.2369162 0.5291667,0.5291667 0,0.2922504 -0.2369161,0.5291667 -0.5291667,0.5291667 -0.2922505,0 -0.5291666,-0.2369162 -0.5291666,-0.5291667 0,-0.2922505 0.2369161,-0.5291667 0.5291666,-0.5291667 z"
     style="fill:#ffffff;stroke-width:0.264583"
     id="path8346" />
  <path
     id="rect1014"
     style="opacity:0.5;fill:#000000;stroke-width:0.999999"
     d="M 3.5,1 C 2.115,1 1,2.115 1,3.5 v 17 C 1,21.885 2.115,23 3.5,23 h 17 C 21.885,23 23,21.885 23,20.5 V 3.5 C 23,2.115 21.885,1 20.5,1 Z M 4,2 h 16 c 1.108,0 2,0.892 2,2 v 16 c 0,1.108 -0.892,2 -2,2 H 4 C 2.892,22 2,21.108 2,20 V 4 C 2,2.892 2.892,2 4,2 Z"
     transform="scale(0.26458333)"
     sodipodi:nodetypes="ssssssssssssssssss" />
</svg>
