<?xml version="1.0" encoding="UTF-8" standalone="no"?>
<!-- Created with Inkscape (http://www.inkscape.org/) -->

<svg
   width="24"
   height="24"
   viewBox="0 0 6.3499999 6.3499999"
   version="1.1"
   id="svg5"
   inkscape:version="1.2 (dc2aedaf03, 2022-05-15)"
   sodipodi:docname="preferences-desktop-emoticons.svg"
   xmlns:inkscape="http://www.inkscape.org/namespaces/inkscape"
   xmlns:sodipodi="http://sodipodi.sourceforge.net/DTD/sodipodi-0.dtd"
   xmlns="http://www.w3.org/2000/svg"
   xmlns:svg="http://www.w3.org/2000/svg">
  <sodipodi:namedview
     id="namedview7"
     pagecolor="#ffffff"
     bordercolor="#666666"
     borderopacity="1.0"
     inkscape:pageshadow="2"
     inkscape:pageopacity="0.0"
     inkscape:pagecheckerboard="0"
     inkscape:document-units="px"
     showgrid="false"
     units="px"
     height="48px"
     inkscape:zoom="18.868659"
     inkscape:cx="3.33887"
     inkscape:cy="12.666507"
     inkscape:window-width="1846"
     inkscape:window-height="1011"
     inkscape:window-x="0"
     inkscape:window-y="0"
     inkscape:window-maximized="1"
     inkscape:current-layer="svg5"
     inkscape:showpageshadow="2"
     inkscape:deskcolor="#d1d1d1" />
  <defs
     id="defs2" />
  <circle
     style="fill:#7f6728;stroke-width:0.243022;fill-opacity:1"
     id="path925"
     cx="3.175"
     cy="3.175"
     r="3.175" />
  <circle
     style="fill:#ffce51;fill-opacity:1;stroke-width:0.420886"
     id="path927"
     cx="3.175"
     cy="3.175"
     r="2.9104166" />
  <path
     d="m 1.8520833,1.5875 c -0.2922506,0 -0.5291667,0.236916 -0.5291667,0.5291667 0,0.2922507 0.2369161,0.5291667 0.5291667,0.5291667 0.2922508,0 0.5291667,-0.236916 0.5291667,-0.5291667 C 2.38125,1.824416 2.1443341,1.5875 1.8520833,1.5875 Z m 2.6458334,0 c -0.2922505,0 -0.5291664,0.236916 -0.5291664,0.5291667 0,0.2922507 0.2369159,0.5291667 0.5291664,0.5291667 0.2922505,0 0.5291665,-0.236916 0.5291665,-0.5291667 C 5.0270832,1.824416 4.7901672,1.5875 4.4979167,1.5875 Z M 1.7673346,4.3126554 c 0.2907304,0.6043935 0.8279294,0.976937 1.4094753,0.977461 0.5809908,-0.0012 1.1174693,-0.3736435 1.4079218,-0.977461 H 4.3868127 C 4.0787677,4.7260029 3.6389129,4.9628849 3.1768099,4.9642979 2.7144355,4.9631479 2.2742552,4.7262444 1.9660289,4.3126554 Z"
     id="path548"
     style="fill:#7f6728;fill-opacity:1;stroke-width:0.132291" />
</svg>
