<?xml version="1.0" encoding="UTF-8" standalone="no"?>
<!-- Created with Inkscape (http://www.inkscape.org/) -->

<svg
   width="24"
   height="24"
   viewBox="0 0 6.35 6.35"
   version="1.1"
   id="svg5"
   inkscape:version="1.2 (dc2aedaf03, 2022-05-15)"
   sodipodi:docname="preferences-system-login.svg"
   xmlns:inkscape="http://www.inkscape.org/namespaces/inkscape"
   xmlns:sodipodi="http://sodipodi.sourceforge.net/DTD/sodipodi-0.dtd"
   xmlns="http://www.w3.org/2000/svg"
   xmlns:svg="http://www.w3.org/2000/svg">
  <sodipodi:namedview
     id="namedview7"
     pagecolor="#ffffff"
     bordercolor="#666666"
     borderopacity="1.0"
     inkscape:pageshadow="2"
     inkscape:pageopacity="0.0"
     inkscape:pagecheckerboard="0"
     inkscape:document-units="px"
     showgrid="false"
     units="px"
     height="48px"
     inkscape:zoom="17.291667"
     inkscape:cx="24.115662"
     inkscape:cy="23.59518"
     inkscape:window-width="1920"
     inkscape:window-height="1009"
     inkscape:window-x="0"
     inkscape:window-y="0"
     inkscape:window-maximized="1"
     inkscape:current-layer="svg5"
     inkscape:showpageshadow="2"
     inkscape:deskcolor="#d1d1d1"
     showguides="true" />
  <defs
     id="defs2" />
  <rect
     style="opacity:1;fill:#424242;fill-opacity:1;stroke-width:0.264583"
     id="rect1162"
     width="3.175"
     height="1.8520833"
     x="1.5874999"
     y="3.96875"
     ry="0.26458332" />
  <rect
     style="opacity:1;fill:#848484;fill-opacity:1;stroke-width:0.264583"
     id="rect3774"
     width="2.6458333"
     height="1.5875"
     x="1.8520832"
     y="3.96875"
     ry="0.13229167" />
  <rect
     style="opacity:1;fill:#6f6f6f;fill-opacity:1;stroke-width:0.264583"
     id="rect2173"
     width="6.3499999"
     height="4.4979167"
     x="0"
     y="0.5291667"
     ry="0.39687499" />
  <rect
     style="opacity:1;fill:#acacac;fill-opacity:1;stroke-width:0.264583"
     id="rect2175"
     width="5.8208332"
     height="3.96875"
     x="0.26458335"
     y="0.79375005"
     ry="0.26458332" />
  <rect
     style="fill:#48b9c7;fill-opacity:1;stroke-width:0.383418"
     id="rect1437"
     width="5.2916665"
     height="2.9104166"
     x="0.52916658"
     y="1.0583334"
     ry="0.13229166" />
  <rect
     style="fill:#424242;fill-opacity:1;stroke-width:0.264583"
     id="rect15516"
     width="1.5875"
     height="0.26458332"
     x="2.3812499"
     y="4.2333331"
     ry="0.099218749" />
  <rect
     style="fill:#ffffff;fill-opacity:1;stroke-width:0.529167"
     id="rect31961"
     width="4.2333331"
     height="1.0583333"
     x="1.0583328"
     y="2.3812499"
     ry="0.26458332" />
  <rect
     style="fill:#424242;fill-opacity:1;stroke-width:0.264583"
     id="rect31963"
     width="2.1166666"
     height="0.26458332"
     x="1.0583326"
     y="1.5875"
     ry="0.13229166" />
  <path
     id="path32017"
     style="fill:#424242;fill-opacity:1;stroke-width:0.0788833"
     d="m 1.5874993,2.6458328 c -0.1461253,0 -0.2645833,0.118458 -0.2645833,0.2645833 0,0.1461254 0.118458,0.2645834 0.2645833,0.2645834 0.1461254,0 0.2645834,-0.118458 0.2645834,-0.2645834 0,-0.1461253 -0.118458,-0.2645833 -0.2645834,-0.2645833 z m 0.8819452,0 c -0.1461254,0 -0.2645834,0.118458 -0.2645834,0.2645833 0,0.1461254 0.118458,0.2645834 0.2645834,0.2645834 0.1461253,0 0.2645833,-0.118458 0.2645833,-0.2645834 0,-0.1461253 -0.118458,-0.2645833 -0.2645833,-0.2645833 z m 0.8819444,0 c -0.1461254,0 -0.2645833,0.118458 -0.2645833,0.2645833 0,0.1461254 0.1184579,0.2645834 0.2645833,0.2645834 0.1461253,0 0.2645833,-0.118458 0.2645833,-0.2645834 0,-0.1461253 -0.118458,-0.2645833 -0.2645833,-0.2645833 z m 0.8819446,0 C 4.0872081,2.6458327 3.96875,2.7642907 3.96875,2.9104161 c 0,0.1461254 0.1184581,0.2645835 0.2645835,0.2645834 0.1461252,-2e-7 0.264583,-0.1184582 0.264583,-0.2645834 0,-0.1461252 -0.1184578,-0.2645831 -0.264583,-0.2645833 z"
     sodipodi:nodetypes="ssssssssssssssssssss" />
</svg>
