<?xml version="1.0" encoding="UTF-8" standalone="no"?>
<!-- Created with Inkscape (http://www.inkscape.org/) -->

<svg
   width="24"
   height="24"
   viewBox="0 0 6.3499999 6.3499999"
   version="1.1"
   id="svg5"
   inkscape:version="1.2 (dc2aedaf03, 2022-05-15)"
   sodipodi:docname="preferences-color.svg"
   xmlns:inkscape="http://www.inkscape.org/namespaces/inkscape"
   xmlns:sodipodi="http://sodipodi.sourceforge.net/DTD/sodipodi-0.dtd"
   xmlns="http://www.w3.org/2000/svg"
   xmlns:svg="http://www.w3.org/2000/svg">
  <sodipodi:namedview
     id="namedview7"
     pagecolor="#ffffff"
     bordercolor="#666666"
     borderopacity="1.0"
     inkscape:pageshadow="2"
     inkscape:pageopacity="0.0"
     inkscape:pagecheckerboard="0"
     inkscape:document-units="px"
     showgrid="false"
     units="px"
     height="48px"
     inkscape:zoom="13.342157"
     inkscape:cx="-1.8362848"
     inkscape:cy="9.3688"
     inkscape:window-width="1920"
     inkscape:window-height="1016"
     inkscape:window-x="0"
     inkscape:window-y="0"
     inkscape:window-maximized="1"
     inkscape:current-layer="svg5"
     inkscape:showpageshadow="2"
     inkscape:deskcolor="#d1d1d1" />
  <defs
     id="defs2" />
  <rect
     style="opacity:1;fill:#ededed;fill-opacity:1;stroke-width:0.264583"
     id="rect1162"
     width="5.8208332"
     height="5.8208332"
     x="0.26458332"
     y="0.26458332"
     ry="0.66145831" />
  <circle
     style="opacity:0.7;fill:#f15d22;fill-opacity:1;stroke-width:0.264583"
     id="path9521"
     cx="2.3812499"
     cy="2.3812499"
     r="1.3229166" />
  <circle
     style="opacity:0.7;fill:#73c48f;fill-opacity:1;stroke-width:0.264583"
     id="path9525"
     cx="3.96875"
     cy="3.1750002"
     r="1.3229166" />
  <circle
     style="opacity:0.7;fill:#48b9c7;fill-opacity:1;stroke-width:0.264583"
     id="path9523"
     cx="2.3812499"
     cy="3.9687498"
     r="1.3229166" />
  <path
     d="m 2.38125,0.79374999 c -0.8751834,0 -1.58750001,0.71231651 -1.58750001,1.58750001 0,0.8751834 0.71231661,1.5875 1.58750001,1.5875 0.8751835,0 1.5875,-0.7123166 1.5875,-1.5875 0,-0.8751835 -0.7123165,-1.58750001 -1.5875,-1.58750001 z m 0,0.26458331 c 0.7321921,0 1.3229167,0.5907247 1.3229167,1.3229167 0,0.732192 -0.5907246,1.3229166 -1.3229167,1.3229166 -0.732192,0 -1.3229166,-0.5907246 -1.3229166,-1.3229166 0,-0.732192 0.5907246,-1.3229167 1.3229166,-1.3229167 z"
     style="color:#000000;fill:#743c26;stroke-width:0.264583;stroke-linecap:square;-inkscape-stroke:none"
     id="path5223" />
  <path
     d="m 3.96875,1.5875001 c -0.8751834,0 -1.5875,0.7123166 -1.5875,1.5875 0,0.8751834 0.7123166,1.5875 1.5875,1.5875 0.8751835,0 1.5875,-0.7123166 1.5875,-1.5875 0,-0.8751834 -0.7123165,-1.5875 -1.5875,-1.5875 z m 0,0.2645834 c 0.732192,0 1.3229167,0.5907246 1.3229167,1.3229166 0,0.7321919 -0.5907247,1.3229166 -1.3229167,1.3229166 -0.732192,0 -1.3229166,-0.5907246 -1.3229166,-1.3229166 0,-0.732192 0.5907246,-1.3229166 1.3229166,-1.3229166 z"
     style="color:#000000;fill:#44634f;stroke-width:0.264583;stroke-linecap:square;-inkscape-stroke:none"
     id="path7632" />
  <path
     d="m 2.38125,2.38125 c -0.8751834,0 -1.58750001,0.7123166 -1.58750001,1.5875 0,0.8751834 0.71231661,1.5875 1.58750001,1.5875 0.8751835,0 1.5875,-0.7123166 1.5875,-1.5875 0,-0.8751834 -0.7123165,-1.5875 -1.5875,-1.5875 z m 0,0.2645834 c 0.7321921,0 1.3229167,0.5907246 1.3229167,1.3229166 0,0.732192 -0.5907246,1.3229166 -1.3229167,1.3229166 -0.732192,0 -1.3229166,-0.5907246 -1.3229166,-1.3229166 0,-0.732192 0.5907246,-1.3229166 1.3229166,-1.3229166 z"
     style="color:#000000;fill:#345f64;stroke-width:0.264583;stroke-linecap:square;-inkscape-stroke:none"
     id="path6826" />
  <path
     id="rect1014"
     style="opacity:0.5;fill:#000000;stroke-width:0.999999"
     d="M 3.5,1 C 2.115,1 1,2.115 1,3.5 v 17 C 1,21.885 2.115,23 3.5,23 h 17 C 21.885,23 23,21.885 23,20.5 V 3.5 C 23,2.115 21.885,1 20.5,1 Z M 4,2 h 16 c 1.108,0 2,0.892 2,2 v 16 c 0,1.108 -0.892,2 -2,2 H 4 C 2.892,22 2,21.108 2,20 V 4 C 2,2.892 2.892,2 4,2 Z"
     transform="scale(0.26458333)"
     sodipodi:nodetypes="ssssssssssssssssss" />
</svg>
