<?xml version="1.0" encoding="UTF-8" standalone="no"?>
<!-- Created with Inkscape (http://www.inkscape.org/) -->

<svg
   width="24"
   height="24"
   viewBox="0 0 6.3499999 6.3499999"
   version="1.1"
   id="svg5"
   inkscape:version="1.2 (dc2aedaf03, 2022-05-15)"
   sodipodi:docname="preferences-desktop-notification.svg"
   xmlns:inkscape="http://www.inkscape.org/namespaces/inkscape"
   xmlns:sodipodi="http://sodipodi.sourceforge.net/DTD/sodipodi-0.dtd"
   xmlns="http://www.w3.org/2000/svg"
   xmlns:svg="http://www.w3.org/2000/svg">
  <sodipodi:namedview
     id="namedview7"
     pagecolor="#ffffff"
     bordercolor="#666666"
     borderopacity="1.0"
     inkscape:pageshadow="2"
     inkscape:pageopacity="0.0"
     inkscape:pagecheckerboard="0"
     inkscape:document-units="px"
     showgrid="false"
     units="px"
     height="48px"
     inkscape:zoom="13.342157"
     inkscape:cx="-1.7238592"
     inkscape:cy="9.4812256"
     inkscape:window-width="1920"
     inkscape:window-height="1014"
     inkscape:window-x="0"
     inkscape:window-y="0"
     inkscape:window-maximized="1"
     inkscape:current-layer="svg5"
     inkscape:showpageshadow="2"
     inkscape:deskcolor="#d1d1d1" />
  <defs
     id="defs2" />
  <rect
     style="opacity:1;fill:#9c27b0;fill-opacity:1;stroke-width:0.264583"
     id="rect1162"
     width="5.8208332"
     height="5.8208332"
     x="0.26458332"
     y="0.26458332"
     ry="0.66145831" />
  <path
     d="m 1.984375,1.5875 c -0.5114396,0 -0.9260417,0.414602 -0.9260417,0.9260416 0,0.5114396 0.4146021,0.9260417 0.9260417,0.9260417 0.5114395,0 0.9260416,-0.4146021 0.9260416,-0.9260417 C 2.9104166,2.002102 2.4958145,1.5875 1.984375,1.5875 Z M 1.8520833,1.8520833 h 0.2645833 v 0.79375 H 1.8520833 Z m 1.1218942,0 c 0.1311381,0.1956938 0.2012738,0.4258892 0.2015384,0.6614583 0,0.6575637 -0.5330613,1.190625 -1.190625,1.190625 C 1.7493773,3.7040555 1.5191846,3.6340996 1.3234326,3.5031441 v 0.2010225 c 0,0.2931583 0.2360083,0.5291667 0.5291666,0.5291667 H 3.175 L 3.7041666,4.7624999 4.2333333,4.2333333 h 0.2650992 c 0.2931584,0 0.5291667,-0.2360084 0.5291667,-0.5291667 V 2.3812499 c 0,-0.2931583 -0.2360083,-0.5291666 -0.5291667,-0.5291666 z M 1.8520833,2.9104166 H 2.1166666 V 3.1749999 H 1.8520833 Z"
     style="fill:#ffffff;stroke-width:0.264583"
     id="path938" />
  <path
     id="rect1014"
     style="opacity:0.5;fill:#000000;stroke-width:0.999999"
     d="M 3.5,1 C 2.115,1 1,2.115 1,3.5 v 17 C 1,21.885 2.115,23 3.5,23 h 17 C 21.885,23 23,21.885 23,20.5 V 3.5 C 23,2.115 21.885,1 20.5,1 Z M 4,2 h 16 c 1.108,0 2,0.892 2,2 v 16 c 0,1.108 -0.892,2 -2,2 H 4 C 2.892,22 2,21.108 2,20 V 4 C 2,2.892 2.892,2 4,2 Z"
     transform="scale(0.26458333)"
     sodipodi:nodetypes="ssssssssssssssssss" />
</svg>
