<?xml version="1.0" encoding="UTF-8" standalone="no"?>
<!-- Created with Inkscape (http://www.inkscape.org/) -->

<svg
   width="24"
   height="24"
   viewBox="0 0 6.3499999 6.3499999"
   version="1.1"
   id="svg5"
   inkscape:version="1.2 (dc2aedaf03, 2022-05-15)"
   sodipodi:docname="preferences-system-sharing.svg"
   xmlns:inkscape="http://www.inkscape.org/namespaces/inkscape"
   xmlns:sodipodi="http://sodipodi.sourceforge.net/DTD/sodipodi-0.dtd"
   xmlns="http://www.w3.org/2000/svg"
   xmlns:svg="http://www.w3.org/2000/svg">
  <sodipodi:namedview
     id="namedview7"
     pagecolor="#ffffff"
     bordercolor="#666666"
     borderopacity="1.0"
     inkscape:pageshadow="2"
     inkscape:pageopacity="0.0"
     inkscape:pagecheckerboard="0"
     inkscape:document-units="px"
     showgrid="false"
     units="px"
     height="48px"
     inkscape:zoom="13.342157"
     inkscape:cx="-16.226762"
     inkscape:cy="9.5187008"
     inkscape:window-width="1920"
     inkscape:window-height="1016"
     inkscape:window-x="0"
     inkscape:window-y="0"
     inkscape:window-maximized="1"
     inkscape:current-layer="svg5"
     inkscape:showpageshadow="2"
     inkscape:deskcolor="#d1d1d1" />
  <defs
     id="defs2" />
  <rect
     style="opacity:1;fill:#479863;fill-opacity:1;stroke-width:0.264583"
     id="rect1162"
     width="5.8208332"
     height="5.8208332"
     x="0.26458332"
     y="0.26458332"
     ry="0.66145831" />
  <path
     id="rect1014"
     style="opacity:0.5;fill:#000000;stroke-width:0.999999"
     d="M 3.5,1 C 2.115,1 1,2.115 1,3.5 v 17 C 1,21.885 2.115,23 3.5,23 h 17 C 21.885,23 23,21.885 23,20.5 V 3.5 C 23,2.115 21.885,1 20.5,1 Z M 4,2 h 16 c 1.108,0 2,0.892 2,2 v 16 c 0,1.108 -0.892,2 -2,2 H 4 C 2.892,22 2,21.108 2,20 V 4 C 2,2.892 2.892,2 4,2 Z"
     transform="scale(0.26458333)"
     sodipodi:nodetypes="ssssssssssssssssss" />
  <path
     d="m 4.2328715,1.0583333 c -0.4383759,0 -0.79375,0.3553739 -0.79375,0.79375 0,0.061119 0.011642,0.1164166 0.024871,0.1735666 L 2.6120341,2.5548166 C 2.0922013,2.1395842 1.3229166,2.509727 1.3229166,3.1749999 c 0,0.6652728 0.7692847,1.0354156 1.2891175,0.6201833 L 3.4639924,4.3243499 C 3.4507634,4.3814999 3.4391214,4.4367978 3.4391214,4.4979165 3.43973,5.3425517 4.5831451,5.6015402 4.9482987,4.8407229 5.3134521,4.0799053 4.3961213,3.3498363 3.7367778,3.8777332 L 2.885084,3.3485666 c 0.013229,-0.05715 0.024871,-0.112448 0.024871,-0.1735667 0,-0.061119 -0.011642,-0.1164167 -0.024871,-0.1735667 L 3.7367778,2.4722666 C 4.1639611,2.813492 4.8001422,2.6307706 4.981151,2.1148717 5.1621596,1.5989729 4.7796076,1.058818 4.2328715,1.0583333 Z"
     style="fill:#ffffff;stroke-width:0.264583"
     id="path302" />
</svg>
