<?xml version="1.0" encoding="UTF-8" standalone="no"?>
<!-- Created with Inkscape (http://www.inkscape.org/) -->

<svg
   width="24"
   height="24"
   viewBox="0 0 6.3499999 6.3499999"
   version="1.1"
   id="svg5"
   inkscape:version="1.2 (dc2aedaf03, 2022-05-15)"
   sodipodi:docname="preferences-desktop-locale.svg"
   xmlns:inkscape="http://www.inkscape.org/namespaces/inkscape"
   xmlns:sodipodi="http://sodipodi.sourceforge.net/DTD/sodipodi-0.dtd"
   xmlns="http://www.w3.org/2000/svg"
   xmlns:svg="http://www.w3.org/2000/svg">
  <sodipodi:namedview
     id="namedview7"
     pagecolor="#ffffff"
     bordercolor="#666666"
     borderopacity="1.0"
     inkscape:pageshadow="2"
     inkscape:pageopacity="0.0"
     inkscape:pagecheckerboard="0"
     inkscape:document-units="px"
     showgrid="false"
     units="px"
     height="48px"
     inkscape:zoom="13.342157"
     inkscape:cx="-16.189286"
     inkscape:cy="9.4812256"
     inkscape:window-width="1920"
     inkscape:window-height="1014"
     inkscape:window-x="0"
     inkscape:window-y="0"
     inkscape:window-maximized="1"
     inkscape:current-layer="svg5"
     inkscape:showpageshadow="2"
     inkscape:deskcolor="#d1d1d1" />
  <defs
     id="defs2" />
  <rect
     style="opacity:1;fill:#7b736e;fill-opacity:1;stroke-width:0.264583"
     id="rect1162"
     width="5.8208332"
     height="5.8208332"
     x="0.26458332"
     y="0.26458332"
     ry="0.66145831" />
  <path
     d="m 1.5874998,2.3812498 c -0.5291666,0 -0.5291666,0.5291667 -0.5291666,0.5291667 v 1.8520833 c 0,0.5199063 0.5291666,0.5291667 0.5291666,0.5291667 h 2.38125 V 4.2333332 H 3.2906226 c -0.00265,0.038364 -0.00635,0.078317 -0.00794,0.1158875 h 0.115623 V 4.4815123 H 3.2660164 c -0.021431,0.1870604 -0.09525,0.2809875 -0.2233082,0.2809875 -0.047197,-0.00159 -0.094181,-0.00714 -0.1404938,-0.016404 L 2.8773436,4.613804 c 0.069585,0.010583 0.1280583,0.016404 0.1653646,0.016404 0.037306,0 0.055562,-0.052652 0.066146,-0.1486959 H 2.4886707 c 0.011377,-0.077258 0.016669,-0.1653644 0.024871,-0.2481789 H 2.3315082 C 2.2703206,4.415004 2.189964,4.5896422 2.0917957,4.7542977 L 1.959504,4.6468769 C 2.0439061,4.5111457 2.115079,4.3751498 2.1746103,4.2333332 H 2.1164019 V 3.5967457 c -0.00582,-0.00503 -0.010319,-0.011906 -0.016404,-0.016669 l 0.016669,-0.016404 v -0.471223 c -0.00609,-0.00503 -0.010583,-0.011906 -0.016669,-0.016669 l 0.016669,-0.016404 V 2.3812498 Z m 0.024871,0.7194021 H 2.0338519 V 4.3656248 H 1.8936228 V 4.2251311 H 1.7528644 V 4.4317707 H 1.6123707 Z m 0.140229,0.1404938 V 4.0928394 H 1.8933582 V 3.2411457 Z M 2.670704,4.2333332 c -0.00529,0.037835 -0.011113,0.080169 -0.016669,0.1158875 h 0.4712229 c 0.0037,-0.039423 0.00529,-0.076729 0.00847,-0.1158875 H 3.0093707 l -0.057679,0.074348 c -0.0254,-0.027781 -0.054769,-0.048948 -0.08255,-0.074083 z"
     style="opacity:0.5;fill:#ffffff;stroke-width:0.264583"
     id="path1665" />
  <path
     d="m 2.3812498,1.0583332 v 2.9104166 h 2.38125 c 0,0 0.5291667,0 0.5291667,-0.5291666 V 1.5874999 c 0,0 0,-0.5291667 -0.5291667,-0.5291667 z M 3.5882789,1.5874999 H 4.0843727 L 4.6632811,3.4395832 H 4.225131 L 4.1092435,3.0014332 H 3.547004 l -0.1156229,0.43815 h -0.421746 z m 0.2315105,0.314325 C 3.7745456,2.0976165 3.7303602,2.3206603 3.6795601,2.5050748 L 3.6298181,2.670704 h 0.396875 L 3.985154,2.5053394 C 3.9340894,2.3206603 3.8766747,2.0949707 3.828256,1.9018249 Z"
     id="path1637"
     style="fill:#ffffff;stroke-width:0.264583" />
  <path
     id="rect1014"
     style="opacity:0.5;fill:#000000;stroke-width:0.999999"
     d="M 3.5,1 C 2.115,1 1,2.115 1,3.5 v 17 C 1,21.885 2.115,23 3.5,23 h 17 C 21.885,23 23,21.885 23,20.5 V 3.5 C 23,2.115 21.885,1 20.5,1 Z M 4,2 h 16 c 1.108,0 2,0.892 2,2 v 16 c 0,1.108 -0.892,2 -2,2 H 4 C 2.892,22 2,21.108 2,20 V 4 C 2,2.892 2.892,2 4,2 Z"
     transform="scale(0.26458333)"
     sodipodi:nodetypes="ssssssssssssssssss" />
</svg>
