<?xml version="1.0" encoding="UTF-8" standalone="no"?>
<!-- Created with Inkscape (http://www.inkscape.org/) -->

<svg
   width="24"
   height="24"
   viewBox="0 0 6.3499999 6.3499999"
   version="1.1"
   id="svg5"
   inkscape:version="1.2 (dc2aedaf03, 2022-05-15)"
   sodipodi:docname="preferences-desktop-online-accounts.svg"
   xmlns:inkscape="http://www.inkscape.org/namespaces/inkscape"
   xmlns:sodipodi="http://sodipodi.sourceforge.net/DTD/sodipodi-0.dtd"
   xmlns="http://www.w3.org/2000/svg"
   xmlns:svg="http://www.w3.org/2000/svg">
  <sodipodi:namedview
     id="namedview7"
     pagecolor="#ffffff"
     bordercolor="#666666"
     borderopacity="1.0"
     inkscape:pageshadow="2"
     inkscape:pageopacity="0.0"
     inkscape:pagecheckerboard="0"
     inkscape:document-units="px"
     showgrid="false"
     units="px"
     height="48px"
     inkscape:zoom="13.342157"
     inkscape:cx="-12.891469"
     inkscape:cy="11.579837"
     inkscape:window-width="1920"
     inkscape:window-height="1014"
     inkscape:window-x="0"
     inkscape:window-y="0"
     inkscape:window-maximized="1"
     inkscape:current-layer="svg5"
     inkscape:showpageshadow="2"
     inkscape:deskcolor="#d1d1d1" />
  <defs
     id="defs2" />
  <rect
     style="opacity:1;fill:#48b9c7;fill-opacity:1;stroke-width:0.264583"
     id="rect1162"
     width="5.8208332"
     height="5.8208332"
     x="0.26458332"
     y="0.26458332"
     ry="0.66145831" />
  <path
     d="m 3.175,1.0583333 c 1.1690032,0 2.1166666,0.9476634 2.1166666,2.1166667 V 3.4395833 C 5.2917381,4.1804431 4.3667177,4.5174799 3.8901687,3.9502291 3.6960757,4.131511 3.4405834,4.232648 3.175,4.2333333 2.2320594,4.2333333 1.7600057,3.0933628 2.4266843,2.4266842 3.0933628,1.7600057 4.2333333,2.2320594 4.2333333,3.175 v 0.2645833 c 0,0.3527769 0.5291667,0.3527769 0.5291667,0 V 3.175 C 4.7625,1.7605904 3.0525429,1.0525072 2.0525264,2.0525237 1.0525072,3.0525429 1.7605904,4.7624999 3.175,4.7624999 h 1.3229166 c 0,0 0.2645834,0 0.2645834,0.2645834 C 4.7460958,5.2916666 4.4979166,5.2916666 4.4979166,5.2916666 H 3.175 c -1.1690032,0 -2.1166666,-0.9476634 -2.1166666,-2.1166666 0,-1.1690033 0.9476634,-2.1166667 2.1166666,-2.1166667 z m 0,1.5875 c -0.7055564,0 -0.7055564,1.0583333 0,1.0583333 0.7055564,0 0.7055564,-1.0583333 0,-1.0583333 z"
     style="fill:#ffffff;stroke-width:0.264583"
     id="path1636" />
  <path
     id="rect1014"
     style="opacity:0.5;fill:#000000;stroke-width:0.999999"
     d="M 3.5,1 C 2.115,1 1,2.115 1,3.5 v 17 C 1,21.885 2.115,23 3.5,23 h 17 C 21.885,23 23,21.885 23,20.5 V 3.5 C 23,2.115 21.885,1 20.5,1 Z M 4,2 h 16 c 1.108,0 2,0.892 2,2 v 16 c 0,1.108 -0.892,2 -2,2 H 4 C 2.892,22 2,21.108 2,20 V 4 C 2,2.892 2.892,2 4,2 Z"
     transform="scale(0.26458333)"
     sodipodi:nodetypes="ssssssssssssssssss" />
</svg>
