<?xml version="1.0" encoding="UTF-8" standalone="no"?>
<!-- Created with Inkscape (http://www.inkscape.org/) -->

<svg
   width="24"
   height="24"
   viewBox="0 0 6.3499999 6.3499999"
   version="1.1"
   id="svg5"
   inkscape:version="1.2 (dc2aedaf03, 2022-05-15)"
   sodipodi:docname="preferences-system-privacy.svg"
   xmlns:inkscape="http://www.inkscape.org/namespaces/inkscape"
   xmlns:sodipodi="http://sodipodi.sourceforge.net/DTD/sodipodi-0.dtd"
   xmlns="http://www.w3.org/2000/svg"
   xmlns:svg="http://www.w3.org/2000/svg">
  <sodipodi:namedview
     id="namedview7"
     pagecolor="#ffffff"
     bordercolor="#666666"
     borderopacity="1.0"
     inkscape:pageshadow="2"
     inkscape:pageopacity="0.0"
     inkscape:pagecheckerboard="0"
     inkscape:document-units="px"
     showgrid="false"
     units="px"
     height="48px"
     inkscape:zoom="13.342157"
     inkscape:cx="-4.4220736"
     inkscape:cy="9.4062752"
     inkscape:window-width="1846"
     inkscape:window-height="1011"
     inkscape:window-x="74"
     inkscape:window-y="32"
     inkscape:window-maximized="1"
     inkscape:current-layer="svg5"
     inkscape:showpageshadow="2"
     inkscape:deskcolor="#d1d1d1" />
  <defs
     id="defs2" />
  <rect
     style="opacity:1;fill:#de8800;fill-opacity:1;stroke-width:0.264583"
     id="rect1162"
     width="5.8208332"
     height="5.8208332"
     x="0.26458332"
     y="0.26458332"
     ry="0.66145831" />
  <path
     id="rect1014"
     style="opacity:0.5;fill:#000000;stroke-width:0.999999"
     d="M 3.5,1 C 2.115,1 1,2.115 1,3.5 v 17 C 1,21.885 2.115,23 3.5,23 h 17 C 21.885,23 23,21.885 23,20.5 V 3.5 C 23,2.115 21.885,1 20.5,1 Z M 4,2 h 16 c 1.108,0 2,0.892 2,2 v 16 c 0,1.108 -0.892,2 -2,2 H 4 C 2.892,22 2,21.108 2,20 V 4 C 2,2.892 2.892,2 4,2 Z"
     transform="scale(0.26458333)"
     sodipodi:nodetypes="ssssssssssssssssss" />
  <path
     d="M 3.1749999,1.8520833 C 2.2766644,1.8533533 1.4565949,2.3669204 1.0583333,3.1776458 1.4580685,3.9863143 2.2778386,4.4976459 3.1749999,4.4979166 4.0733355,4.4966466 4.8934049,3.9830795 5.2916666,3.1723541 4.8919314,2.3636856 4.0721613,1.852354 3.1749999,1.8520833 Z m 0,0.2645833 c 0.5845014,0 1.0583334,0.473832 1.0583334,1.0583333 0,0.5845014 -0.473832,1.0583334 -1.0583334,1.0583334 -0.5845013,0 -1.0583333,-0.473832 -1.0583333,-1.0583334 0,-0.5845013 0.473832,-1.0583333 1.0583333,-1.0583333 z m 0,0.5291667 c -0.2922505,0 -0.5291666,0.2369161 -0.5291666,0.5291666 0,0.2922506 0.2369161,0.5291667 0.5291666,0.5291667 0.2922506,0 0.5291667,-0.2369161 0.5291667,-0.5291667 0,-0.2922505 -0.2369161,-0.5291666 -0.5291667,-0.5291666 z"
     style="fill:#ffffff;stroke-width:0.264583"
     id="path11518" />
</svg>
