<?xml version="1.0" encoding="UTF-8" standalone="no"?>
<!-- Created with Inkscape (http://www.inkscape.org/) -->

<svg
   width="24"
   height="24"
   viewBox="0 0 6.3499999 6.3499999"
   version="1.1"
   id="svg5"
   inkscape:version="1.2 (dc2aedaf03, 2022-05-15)"
   sodipodi:docname="simplescan.svg"
   xmlns:inkscape="http://www.inkscape.org/namespaces/inkscape"
   xmlns:sodipodi="http://sodipodi.sourceforge.net/DTD/sodipodi-0.dtd"
   xmlns="http://www.w3.org/2000/svg"
   xmlns:svg="http://www.w3.org/2000/svg">
  <sodipodi:namedview
     id="namedview7"
     pagecolor="#ffffff"
     bordercolor="#666666"
     borderopacity="1.0"
     inkscape:pageshadow="2"
     inkscape:pageopacity="0.0"
     inkscape:pagecheckerboard="0"
     inkscape:document-units="px"
     showgrid="false"
     units="px"
     height="48px"
     inkscape:zoom="17.699767"
     inkscape:cx="-1.2994521"
     inkscape:cy="13.164015"
     inkscape:window-width="1920"
     inkscape:window-height="1016"
     inkscape:window-x="0"
     inkscape:window-y="0"
     inkscape:window-maximized="1"
     inkscape:current-layer="svg5"
     showguides="false"
     inkscape:showpageshadow="2"
     inkscape:deskcolor="#d1d1d1" />
  <defs
     id="defs2" />
  <rect
     style="opacity:1;fill:#444444;fill-opacity:1;stroke-width:0.264583"
     id="rect1162"
     width="4.7624998"
     height="6.3499999"
     x="0.79374999"
     y="-1.9482167e-08"
     ry="0.39687499" />
  <rect
     style="opacity:1;fill:#ededed;fill-opacity:1;stroke-width:0.354976"
     id="rect1437"
     width="3.175"
     height="4.7624998"
     x="1.5875"
     y="0.79374999" />
  <path
     id="rect1491"
     style="opacity:0.5;fill:#ffffff;stroke-width:0.264583"
     d="M 1.190625 0 C 0.97075645 -3.9166161e-17 0.79374999 0.17700647 0.79374999 0.39687499 L 0.79374999 5.9531249 C 0.79374999 6.1729934 0.97075645 6.3499999 1.190625 6.3499999 L 5.1593749 6.3499999 C 5.3792434 6.3499999 5.5562499 6.1729934 5.5562499 5.9531249 L 5.5562499 0.39687499 C 5.5562499 0.17700647 5.3792434 1.2282263e-18 5.1593749 0 L 1.190625 0 z M 1.0583333 0.26458333 L 5.2916666 0.26458333 L 5.2916666 6.0854166 L 1.0583333 6.0854166 L 1.0583333 0.26458333 z " />
  <rect
     style="opacity:1;fill:#f15d22;fill-opacity:1;stroke-width:0.264583"
     id="rect4813"
     width="5.8208332"
     height="0.52916664"
     x="0.26458332"
     y="2.6458333"
     ry="0.26458332" />
</svg>
