<?xml version="1.0" encoding="UTF-8" standalone="no"?>
<!-- Created with Inkscape (http://www.inkscape.org/) -->

<svg
   width="24"
   height="24"
   viewBox="0 0 6.3499999 6.3499999"
   version="1.1"
   id="svg5"
   inkscape:version="1.2 (dc2aedaf03, 2022-05-15)"
   sodipodi:docname="skype.svg"
   xmlns:inkscape="http://www.inkscape.org/namespaces/inkscape"
   xmlns:sodipodi="http://sodipodi.sourceforge.net/DTD/sodipodi-0.dtd"
   xmlns="http://www.w3.org/2000/svg"
   xmlns:svg="http://www.w3.org/2000/svg">
  <sodipodi:namedview
     id="namedview7"
     pagecolor="#ffffff"
     bordercolor="#666666"
     borderopacity="1.0"
     inkscape:pageshadow="2"
     inkscape:pageopacity="0.0"
     inkscape:pagecheckerboard="0"
     inkscape:document-units="px"
     showgrid="false"
     units="px"
     height="48px"
     inkscape:zoom="33.916667"
     inkscape:cx="12"
     inkscape:cy="12"
     inkscape:window-width="1846"
     inkscape:window-height="1011"
     inkscape:window-x="0"
     inkscape:window-y="0"
     inkscape:window-maximized="1"
     inkscape:current-layer="svg5"
     inkscape:showpageshadow="2"
     inkscape:deskcolor="#d1d1d1" />
  <defs
     id="defs2" />
  <circle
     style="fill:#145474;stroke-width:0.22277;fill-opacity:1"
     id="path925"
     cx="3.175"
     cy="3.175"
     r="2.9104166" />
  <circle
     style="opacity:1;fill:#145474;stroke-width:0.604762;stroke-linejoin:round;fill-opacity:1"
     id="path13985"
     cx="2.1166666"
     cy="2.1166666"
     r="2.1166666" />
  <circle
     style="opacity:1;fill:#145474;stroke-width:0.604762;stroke-linejoin:round;fill-opacity:1"
     id="path13987"
     cx="4.2333331"
     cy="4.2333331"
     r="2.1166666" />
  <circle
     style="opacity:1;fill:#1587d7;fill-opacity:1;stroke-width:0.617361;stroke-linejoin:round"
     id="path14352"
     cx="2.1166666"
     cy="2.1166666"
     r="1.8520833" />
  <circle
     style="opacity:1;fill:#1587d7;fill-opacity:1;stroke-width:0.617361;stroke-linejoin:round"
     id="path15808"
     cx="4.2333331"
     cy="4.2333331"
     r="1.8520833" />
  <circle
     style="fill:#28a8ea;fill-opacity:1;stroke-width:0.420886"
     id="path927"
     cx="3.175"
     cy="3.175"
     r="2.6458333" />
  <path
     d="M 2.4664971,3.3855487 C 2.359706,3.3129756 2.2706113,3.2159332 2.2061626,3.1019916 2.1438956,2.9816795 2.1131561,2.8466824 2.1169853,2.7103545 2.112244,2.5373334 2.169471,2.3685766 2.2777299,2.2363329 2.3902114,2.1035319 2.5347924,2.0038434 2.6967575,1.9474137 c 0.1761933,-0.064183 0.3618306,-0.096403 0.5486831,-0.095233 0.1222777,-0.00119 0.2444279,0.00847 0.3650985,0.028889 0.086318,0.013765 0.1710947,0.036348 0.2530814,0.067415 0.075316,0.026314 0.1433054,0.071111 0.1981175,0.1305382 0.0404,0.048879 0.062154,0.1112675 0.061191,0.1754943 0.00294,0.067378 -0.020193,0.133201 -0.064309,0.1829803 -0.041842,0.045943 -0.1007203,0.071252 -0.1618064,0.069556 -0.041568,-3.164e-4 -0.08259,-0.00981 -0.120308,-0.027834 C 3.6836404,2.4363445 3.5879768,2.4002352 3.4902178,2.3711569 3.4002046,2.3466949 3.3074136,2.3348198 3.2143347,2.3358503 3.0931128,2.3312125 2.9731721,2.3627922 2.8689341,2.4267952 2.7792569,2.4829779 2.7263826,2.5851054 2.7309914,2.693234 c -6.561e-4,0.069639 0.025017,0.1368028 0.071558,0.1872512 0.055345,0.059197 0.1207362,0.1074317 0.1929341,0.142315 0.080908,0.041398 0.201567,0.096327 0.3619762,0.1647904 0.017782,0.00579 0.035119,0.012951 0.05187,0.021406 0.1565336,0.063861 0.3066093,0.143424 0.4480667,0.2375455 0.1117462,0.075165 0.2059694,0.1749249 0.2759015,0.2921162 0.068824,0.1231137 0.1032857,0.2634704 0.099572,0.4055369 0.00578,0.1740149 -0.042563,0.3453735 -0.1379621,0.4890115 C 3.9977725,4.7691842 3.8633956,4.8720458 3.709087,4.9285416 3.5231495,4.9970388 3.3266751,5.0300355 3.1292775,5.0259184 2.8580071,5.0357584 2.5880187,4.9831253 2.3389427,4.8718303 2.2752035,4.842583 2.2193166,4.7977826 2.1761007,4.7412909 2.1402791,4.6895535 2.1217127,4.6272156 2.1231967,4.5636552 c -0.00362,-0.067864 0.021777,-0.1339547 0.06948,-0.1808368 0.049478,-0.044702 0.1137206,-0.06807 0.1794353,-0.06527 0.073139,0.00105 0.1449747,0.020121 0.2095097,0.055637 0.080187,0.0414 0.1434601,0.072436 0.1898201,0.09311 0.052957,0.022882 0.1078082,0.040786 0.1638858,0.053494 0.069128,0.015664 0.1397538,0.023199 0.2105262,0.022461 0.125131,0.00919 0.2496432,-0.025089 0.3537055,-0.097359 C 3.5786073,4.3810871 3.6230073,4.2818992 3.6188275,4.1784499 3.6189809,4.1060755 3.5922629,4.0363859 3.544161,3.9836969 3.4805952,3.9161429 3.4062133,3.860402 3.3242843,3.8189241 3.2274608,3.7661428 3.0912345,3.7019392 2.9156052,3.6263132 2.7584814,3.5617347 2.608026,3.4810772 2.4664937,3.3855493"
     style="opacity:0.2;fill:#000000;fill-rule:evenodd;stroke-width:0.219096"
     id="path8397"
     sodipodi:nodetypes="ccccccccccccccccccccccccccccccccccsccccccc" />
  <path
     d="M 2.4664971,3.1209652 C 2.359706,3.0483923 2.2706113,2.9513499 2.2061626,2.8374085 2.1438956,2.7170965 2.1131561,2.5820993 2.1169853,2.4457716 2.112244,2.2727505 2.169471,2.1039938 2.2777299,1.9717501 2.3902114,1.8389492 2.5347924,1.7392608 2.6967575,1.682831 2.8729508,1.618649 3.0585881,1.586429 3.2454406,1.587598 c 0.1222777,-0.00119 0.2444279,0.00846 0.3650985,0.02889 0.086318,0.013765 0.1710947,0.036348 0.2530814,0.067415 0.075316,0.026312 0.1433054,0.071111 0.1981175,0.1305383 0.0404,0.04888 0.062154,0.1112676 0.061191,0.1754941 C 4.125869,2.0573124 4.102736,2.1231357 4.05862,2.172915 4.016778,2.218858 3.9578997,2.2441684 3.8968136,2.2424724 3.8552446,2.2421548 3.8142226,2.2326688 3.7765052,2.2146367 3.6836404,2.1717615 3.5879768,2.1356523 3.4902178,2.1065742 3.4002046,2.082112 3.3074136,2.0702368 3.2143347,2.0712674 3.0931128,2.0666281 2.9731721,2.0982096 2.8689341,2.1622125 2.7792571,2.2183951 2.7263826,2.3205226 2.7309914,2.4286512 c -6.561e-4,0.06964 0.025017,0.1368027 0.071558,0.1872509 0.055345,0.059196 0.1207362,0.1074312 0.1929341,0.1423151 0.080908,0.041398 0.201567,0.096329 0.3619762,0.1647903 0.017782,0.0058 0.035119,0.012952 0.05187,0.021406 0.1565336,0.06386 0.3066093,0.1434238 0.4480667,0.2375454 0.1117462,0.075164 0.2059694,0.1749248 0.2759015,0.2921161 0.068824,0.1231135 0.1032857,0.26347 0.099572,0.4055366 0.00578,0.1740156 -0.042563,0.3453743 -0.1379621,0.4890121 C 3.9977725,4.5046007 3.8633956,4.6074623 3.709087,4.6639582 3.5231495,4.7324549 3.3266751,4.765452 3.1292775,4.7613347 2.8580071,4.7711793 2.5880187,4.7185421 2.3389427,4.6072465 2.2752036,4.5779994 2.2193166,4.5331989 2.1761007,4.4767074 2.1402791,4.4249702 2.1217127,4.3626321 2.1231967,4.2990717 c -0.00362,-0.067865 0.021777,-0.1339546 0.06948,-0.1808368 0.049478,-0.044702 0.1137206,-0.06807 0.1794353,-0.065269 0.073139,0.00105 0.1449747,0.02012 0.2095097,0.055638 0.080187,0.0414 0.1434601,0.072437 0.1898201,0.09311 0.052957,0.022883 0.1078082,0.040786 0.1638858,0.053495 0.069128,0.015665 0.1397538,0.0232 0.2105262,0.02246 0.125131,0.00919 0.2496432,-0.025088 0.3537055,-0.097357 C 3.5786073,4.1165067 3.6230073,4.0173184 3.6188275,3.9138693 3.6189809,3.8414916 3.5922629,3.7718022 3.544161,3.7191132 3.4805952,3.6515591 3.4062133,3.5958184 3.3242843,3.5543405 3.2274608,3.5015593 3.0912345,3.4373555 2.9156052,3.3617297 2.7584814,3.2971514 2.608026,3.2164939 2.4664937,3.1209661"
     style="fill:#ffffff;fill-rule:evenodd;stroke-width:0.219096"
     id="path10585" />
</svg>
