<?xml version="1.0" encoding="UTF-8" standalone="no"?>
<!-- Created with Inkscape (http://www.inkscape.org/) -->

<svg
   width="24"
   height="24"
   viewBox="0 0 6.3499999 6.3499999"
   version="1.1"
   id="svg5"
   inkscape:version="1.2 (dc2aedaf03, 2022-05-15)"
   sodipodi:docname="system-error.svg"
   xmlns:inkscape="http://www.inkscape.org/namespaces/inkscape"
   xmlns:sodipodi="http://sodipodi.sourceforge.net/DTD/sodipodi-0.dtd"
   xmlns="http://www.w3.org/2000/svg"
   xmlns:svg="http://www.w3.org/2000/svg">
  <sodipodi:namedview
     id="namedview7"
     pagecolor="#ffffff"
     bordercolor="#666666"
     borderopacity="1.0"
     inkscape:pageshadow="2"
     inkscape:pageopacity="0.0"
     inkscape:pagecheckerboard="0"
     inkscape:document-units="px"
     showgrid="false"
     units="px"
     height="48px"
     inkscape:zoom="33.25"
     inkscape:cx="12"
     inkscape:cy="12"
     inkscape:window-width="1920"
     inkscape:window-height="1016"
     inkscape:window-x="0"
     inkscape:window-y="0"
     inkscape:window-maximized="1"
     inkscape:current-layer="svg5"
     inkscape:showpageshadow="2"
     inkscape:deskcolor="#d1d1d1" />
  <defs
     id="defs2" />
  <rect
     style="opacity:1;fill:#cf3b00;fill-opacity:1;stroke-width:0.264583"
     id="rect1162"
     width="5.8208332"
     height="5.8208332"
     x="0.26458332"
     y="0.26458332"
     ry="0.52916664" />
  <path
     d="M 2.9104167,1.3229166 V 3.96875 H 3.4395833 V 1.3229166 Z m 0,3.175 V 5.0270833 H 3.4395833 V 4.4979167 Z"
     style="fill:#ffffff;stroke-width:0.264583"
     id="path302" />
  <path
     id="rect1967"
     style="opacity:0.5;fill:#000000;fill-opacity:1;stroke-width:0.264583"
     d="M 0.79374999 0.26458333 C 0.50059196 0.26458333 0.26458333 0.50059196 0.26458333 0.79374999 L 0.26458333 5.5562499 C 0.26458333 5.8494079 0.50059196 6.0854166 0.79374999 6.0854166 L 5.5562499 6.0854166 C 5.8494079 6.0854166 6.0854166 5.8494079 6.0854166 5.5562499 L 6.0854166 0.79374999 C 6.0854166 0.50059196 5.8494079 0.26458333 5.5562499 0.26458333 L 0.79374999 0.26458333 z M 0.79374999 0.52916666 L 5.5562499 0.52916666 C 5.7028289 0.52916666 5.8208332 0.64717098 5.8208332 0.79374999 L 5.8208332 5.5562499 C 5.8208332 5.7028289 5.7028289 5.8208332 5.5562499 5.8208332 L 0.79374999 5.8208332 C 0.64717098 5.8208332 0.52916666 5.7028289 0.52916666 5.5562499 L 0.52916666 0.79374999 C 0.52916666 0.64717098 0.64717098 0.52916666 0.79374999 0.52916666 z " />
</svg>
