<?xml version="1.0" encoding="UTF-8" standalone="no"?>
<!-- Created with Inkscape (http://www.inkscape.org/) -->

<svg
   width="24"
   height="24"
   viewBox="0 0 6.3499999 6.3499999"
   version="1.1"
   id="svg5"
   inkscape:version="1.1.2 (0a00cf5339, 2022-02-04, custom)"
   sodipodi:docname="system-software-update.svg"
   xmlns:inkscape="http://www.inkscape.org/namespaces/inkscape"
   xmlns:sodipodi="http://sodipodi.sourceforge.net/DTD/sodipodi-0.dtd"
   xmlns="http://www.w3.org/2000/svg"
   xmlns:svg="http://www.w3.org/2000/svg">
  <sodipodi:namedview
     id="namedview7"
     pagecolor="#ffffff"
     bordercolor="#666666"
     borderopacity="1.0"
     inkscape:pageshadow="2"
     inkscape:pageopacity="0.0"
     inkscape:pagecheckerboard="0"
     inkscape:document-units="px"
     showgrid="false"
     units="px"
     height="48px"
     inkscape:zoom="32.416667"
     inkscape:cx="4.9203084"
     inkscape:cy="14.128535"
     inkscape:window-width="1920"
     inkscape:window-height="1002"
     inkscape:window-x="0"
     inkscape:window-y="0"
     inkscape:window-maximized="1"
     inkscape:current-layer="svg5"
     showguides="false" />
  <defs
     id="defs2" />
  <rect
     style="opacity:1;fill:#de8800;fill-opacity:1;stroke-width:0.264583"
     id="rect1162"
     width="5.8208332"
     height="5.8208332"
     x="0.26458332"
     y="0.26458332"
     ry="0.66145831" />
  <path
     d="m 4.3842299,1.0584337 c -0.067808,5.001e-4 -0.1369216,0.00727 -0.2046385,0.024805 -0.493448,0.1285875 -0.7890124,0.630072 -0.6604249,1.1203452 0.0283,0.09965 0.073198,0.193815 0.1328084,0.2785359 -0.02831,0.0045 -0.4304647,0.6867802 -0.4304647,0.6867797 L 4.1237807,3.1745895 4.336171,2.879517 C 4.4367124,2.887447 4.5425251,2.885057 4.6457126,2.858329 5.1391608,2.7297356 5.4349898,2.228768 5.3061375,1.738495 5.2794146,1.6361012 5.2299375,1.5430382 5.1738458,1.459959 L 4.8136611,2.0697402 c -0.07317,0.125241 -0.2341864,0.1671743 -0.3591512,0.093534 L 4.2235162,2.0289171 C 4.097733,1.9574574 4.0552912,1.7965517 4.1294653,1.6723497 L 4.489133,1.0620511 c -0.025135,-0.00198 -0.050292,-0.00314 -0.075964,-0.00362 -0.00963,-1.787e-4 -0.019251,-7.15e-5 -0.028939,0 z M 2.0660251,1.2413683 c -0.00277,-4.55e-5 -0.00562,5.08e-4 -0.00827,0.00103 -0.060854,0.012435 -0.1170247,0.034594 -0.1731161,0.057878 -0.0045,0.1651 0.022953,0.3815952 -0.041341,0.4382161 -0.063235,0.055561 -0.2744515,0.00893 -0.4376994,-0.00827 -0.0349,0.062843 -0.062634,0.129406 -0.082682,0.1984376 0.1262062,0.104775 0.301439,0.2220516 0.3054077,0.3059245 0.00423,0.084931 -0.1649925,0.2129896 -0.2800862,0.3307295 0.027252,0.068262 0.06596,0.1303731 0.1069702,0.190169 0.1608666,-0.033602 0.3611689,-0.098822 0.4294311,-0.049609 0.069586,0.050271 0.069796,0.2661711 0.090434,0.4299479 0.066146,0.019844 0.1357974,0.027781 0.2067057,0.033073 C 2.2561282,3.0220603 2.3315458,2.8195828 2.4127729,2.7968281 2.4961169,2.7732802 2.6673145,2.9180734 2.8091312,3.0035339 2.8668103,2.9635818 2.9180858,2.9143037 2.9657108,2.862974 2.8987707,2.7116326 2.7752645,2.5211985 2.8091312,2.4412943 2.8427333,2.3613901 3.0669801,2.3168078 3.2220259,2.2593932 c 0.00106,-0.019579 0.00827,-0.038551 0.00827,-0.058394 0,-0.050271 -0.00913,-0.1001448 -0.016537,-0.1488282 C 3.0534183,2.0098369 2.8261309,1.9888568 2.784327,1.9121276 2.7427869,1.835663 2.8482236,1.6313385 2.9000822,1.4739114 2.8470822,1.4263684 2.7890305,1.3847788 2.7269664,1.349888 2.5946745,1.4491067 2.4400917,1.6130161 2.3548958,1.5979349 2.2712875,1.5831182 2.1797292,1.3810427 2.0908292,1.242401 c -0.00794,0.00139 -0.016494,-8.996e-4 -0.024805,-0.00103 z m 0.1457275,0.4971273 c 0.00383,-9.71e-5 0.00752,0 0.011369,0 0.2460625,0 0.4454509,0.1998927 0.4454509,0.4464844 0.025516,0.619271 -0.9169366,0.619271 -0.8914186,0 0,-0.2427388 0.1935935,-0.4403722 0.4345987,-0.4464844 z m -0.3126423,1.6944702 0.00206,1.5874997 c 0,0.1508125 0.1217208,0.2645836 0.2640666,0.2645836 h 2.1145993 c 0.1383771,0 0.2635498,-0.1176075 0.2635498,-0.2480471 L 4.5407971,3.4329658 Z M 3.222027,3.6975489 3.7511934,4.3590072 H 3.48661 V 5.0204655 H 2.9574436 V 4.3590072 H 2.69286 Z"
     style="text-indent:0;text-decoration-line:none;text-transform:none;fill:#ffffff;stroke-width:0.0700042"
     id="path936" />
  <path
     id="rect1014"
     style="opacity:0.5;fill:#000000;stroke-width:0.999999"
     d="M 3.5,1 C 2.115,1 1,2.115 1,3.5 v 17 C 1,21.885 2.115,23 3.5,23 h 17 C 21.885,23 23,21.885 23,20.5 V 3.5 C 23,2.115 21.885,1 20.5,1 Z M 4,2 h 16 c 1.108,0 2,0.892 2,2 v 16 c 0,1.108 -0.892,2 -2,2 H 4 C 2.892,22 2,21.108 2,20 V 4 C 2,2.892 2.892,2 4,2 Z"
     transform="scale(0.26458333)"
     sodipodi:nodetypes="ssssssssssssssssss" />
</svg>
