<?xml version="1.0" encoding="UTF-8" standalone="no"?>
<!-- Created with Inkscape (http://www.inkscape.org/) -->

<svg
   width="24"
   height="24"
   viewBox="0 0 6.3499999 6.3499999"
   version="1.1"
   id="svg5"
   inkscape:version="1.2 (dc2aedaf03, 2022-05-15)"
   sodipodi:docname="utilities-log-viewer.svg"
   xmlns:inkscape="http://www.inkscape.org/namespaces/inkscape"
   xmlns:sodipodi="http://sodipodi.sourceforge.net/DTD/sodipodi-0.dtd"
   xmlns="http://www.w3.org/2000/svg"
   xmlns:svg="http://www.w3.org/2000/svg">
  <sodipodi:namedview
     id="namedview7"
     pagecolor="#ffffff"
     bordercolor="#666666"
     borderopacity="1.0"
     inkscape:pageshadow="2"
     inkscape:pageopacity="0.0"
     inkscape:pagecheckerboard="0"
     inkscape:document-units="px"
     showgrid="false"
     units="px"
     height="48px"
     inkscape:zoom="34.583333"
     inkscape:cx="11.985542"
     inkscape:cy="12"
     inkscape:window-width="1920"
     inkscape:window-height="1009"
     inkscape:window-x="0"
     inkscape:window-y="0"
     inkscape:window-maximized="1"
     inkscape:current-layer="svg5"
     showguides="true"
     inkscape:showpageshadow="2"
     inkscape:deskcolor="#d1d1d1" />
  <defs
     id="defs2" />
  <rect
     style="opacity:1;fill:#6f6f6f;fill-opacity:1;stroke-width:0.264583"
     id="rect1162"
     width="6.3499999"
     height="5.2916665"
     x="0"
     y="0.52916664"
     ry="0.52916664" />
  <rect
     style="opacity:1;fill:#acacac;fill-opacity:1;stroke-width:0.383418"
     id="rect1437"
     width="5.8208332"
     height="4.7624998"
     x="0.26458332"
     y="0.79374999"
     ry="0.39687499" />
  <rect
     style="fill:#464646;fill-opacity:1;stroke-width:0.547741;stroke-linecap:round;stroke-linejoin:round"
     id="rect1282"
     width="5.2916665"
     height="3.96875"
     x="0.52916664"
     y="1.0583333" />
  <path
     d="m 1.1787394,1.5875 c -0.06684,0 -0.1204061,0.053565 -0.1204061,0.1204066 v 0.02376 c 0,0.066842 0.053566,0.1204065 0.1204061,0.1204065 h 3.9925213 c 0.06684,0 0.120406,-0.053565 0.120406,-0.1204065 v -0.02376 c 0,-0.066842 -0.053566,-0.1204066 -0.120406,-0.1204066 z m 0,1.0583389 c -0.06684,0 -0.1204061,0.053565 -0.1204061,0.1204066 v 0.02376 c 0,0.066842 0.053566,0.1204066 0.1204061,0.1204066 h 3.9925213 c 0.06684,0 0.120406,-0.053565 0.120406,-0.1204066 v -0.02376 c 0,-0.066842 -0.053566,-0.1204066 -0.120406,-0.1204066 z m 0,1.0583333 c -0.06684,0 -0.1204061,0.053565 -0.1204061,0.1204066 v 0.023759 c 0,0.066842 0.053566,0.1204066 0.1204061,0.1204066 h 1.8757325 c 0.06684,0 0.1204061,-0.053565 0.1204061,-0.1204066 v -0.023759 c 0,-0.066842 -0.053566,-0.1204066 -0.1204061,-0.1204066 z"
     style="opacity:1;fill:#ffffff;fill-opacity:1;stroke-width:0.264583"
     id="path918"
     sodipodi:nodetypes="sssssssssssssssssssssssssss" />
  <rect
     style="fill:#6f4400;fill-opacity:1;stroke-width:0.264583"
     id="rect8487"
     width="3.4395833"
     height="3.175"
     x="2.9104164"
     y="3.1750109"
     ry="0.66145831" />
  <rect
     style="fill:#de8800;fill-opacity:1;stroke-width:0.264583"
     id="rect10253"
     width="2.9104166"
     height="2.6458333"
     x="3.1749997"
     y="3.4395943"
     ry="0.52916664" />
  <path
     d="M 4.6302084,4.1010527 C 4.1810332,4.1018464 3.7710093,4.3585108 3.5718751,4.7638339 3.7717462,5.1681305 4.1816204,5.4237894 4.6302084,5.4239693 5.0793836,5.4231756 5.4894075,5.1665112 5.6885417,4.7611881 5.4886707,4.3568915 5.0787964,4.1012326 4.6302084,4.1010527 Z m 0,0.1322916 c 0.2922505,0 0.5291666,0.2369159 0.5291666,0.5291667 0,0.2922508 -0.2369161,0.5291667 -0.5291666,0.5291667 -0.2922506,0 -0.5291667,-0.2369159 -0.5291667,-0.5291667 0,-0.2922508 0.2369161,-0.5291667 0.5291667,-0.5291667 z m 0,0.2645834 c -0.1461254,0 -0.2645834,0.1184566 -0.2645834,0.2645833 0,0.1461241 0.118458,0.2645833 0.2645834,0.2645833 0.1461254,0 0.2645833,-0.1184592 0.2645833,-0.2645833 0,-0.1461267 -0.1184579,-0.2645833 -0.2645833,-0.2645833 z"
     style="fill:#ffffff;stroke-width:0.264583"
     id="path12753" />
</svg>
