<?xml version="1.0" encoding="UTF-8" standalone="no"?>
<!-- Created with Inkscape (http://www.inkscape.org/) -->

<svg
   width="24"
   height="24"
   viewBox="0 0 6.3499999 6.3499999"
   version="1.1"
   id="svg5"
   inkscape:version="1.2 (dc2aedaf03, 2022-05-15)"
   sodipodi:docname="vscodium.svg"
   xmlns:inkscape="http://www.inkscape.org/namespaces/inkscape"
   xmlns:sodipodi="http://sodipodi.sourceforge.net/DTD/sodipodi-0.dtd"
   xmlns="http://www.w3.org/2000/svg"
   xmlns:svg="http://www.w3.org/2000/svg">
  <sodipodi:namedview
     id="namedview7"
     pagecolor="#ffffff"
     bordercolor="#666666"
     borderopacity="1.0"
     inkscape:pageshadow="2"
     inkscape:pageopacity="0.0"
     inkscape:pagecheckerboard="0"
     inkscape:document-units="px"
     showgrid="false"
     units="px"
     height="48px"
     inkscape:zoom="34.583333"
     inkscape:cx="12.014458"
     inkscape:cy="12.043374"
     inkscape:window-width="1846"
     inkscape:window-height="1011"
     inkscape:window-x="0"
     inkscape:window-y="0"
     inkscape:window-maximized="1"
     inkscape:current-layer="svg5"
     showguides="true"
     inkscape:showpageshadow="2"
     inkscape:deskcolor="#d1d1d1" />
  <defs
     id="defs2" />
  <circle
     style="fill:#dedede;fill-opacity:1;stroke-width:0.747114"
     id="path1430"
     cx="3.175"
     cy="3.175"
     r="3.175" />
  <path
     id="path1556"
     style="opacity:0.5;fill:#000000;fill-opacity:1;stroke-width:0.634999"
     d="M 3.175 0 A 3.175 3.175 0 0 0 0 3.175 A 3.175 3.175 0 0 0 3.175 6.3499999 A 3.175 3.175 0 0 0 6.3499999 3.175 A 3.175 3.175 0 0 0 3.175 0 z M 3.175 0.26458333 A 2.9104166 2.9104166 0 0 1 6.0854166 3.175 A 2.9104166 2.9104166 0 0 1 3.175 6.0854166 A 2.9104166 2.9104166 0 0 1 0.26458333 3.175 A 2.9104166 2.9104166 0 0 1 3.175 0.26458333 z " />
  <path
     d="M 3.0789681,5.0188692 C 3.0397148,5.0081404 3.0055425,4.9830473 2.9816364,4.9473788 2.9463568,4.8947452 2.9346056,4.856591 2.8915873,4.65496 2.8736485,4.5708767 2.8472143,4.514924 2.8026458,4.4667076 2.7248818,4.3825556 2.6350804,4.3526801 2.4223865,4.3401878 2.1844443,4.3262125 2.0999973,4.3052602 2.0205009,4.2404703 1.9301262,4.166817 1.8924102,4.0835777 1.8384486,3.8385894 1.8050841,3.6871671 1.7860242,3.6260642 1.7467059,3.5445514 1.6745572,3.3949387 1.5753886,3.2786636 1.4317818,3.1752671 1.3392183,3.1086239 1.3116251,3.0680976 1.3268679,3.0211857 c 0.012377,-0.037986 0.051812,-0.06244 0.1007579,-0.06244 0.039397,0 0.063381,0.00974 0.094661,0.038445 0.02999,0.027509 0.047721,0.053535 0.08915,0.1308762 0.037859,0.070652 0.074207,0.1221237 0.086271,0.1221237 0.0073,0 0.00847,-0.029804 0.00847,-0.214212 0,-0.1281284 0.00235,-0.2228466 0.00586,-0.2356974 0.00704,-0.025818 0.035045,-0.051386 0.056215,-0.051356 0.035162,5.29e-5 0.065283,0.033781 0.080669,0.090326 0.00352,0.012819 0.018239,0.141351 0.032765,0.2856177 0.014539,0.1442654 0.028583,0.2646124 0.031215,0.2674368 0.00808,0.0087 0.044999,-0.037597 0.069061,-0.086741 0.02362,-0.048227 0.039579,-0.1097544 0.039748,-0.1532532 6.51e-5,-0.013758 -0.00651,-0.057538 -0.014565,-0.097285 -0.011986,-0.059048 -0.013562,-0.076429 -0.0086,-0.095008 0.015647,-0.059027 0.080278,-0.068744 0.1226839,-0.018444 0.030694,0.036419 0.041285,0.077651 0.041051,0.1599764 0,0.089194 -0.00769,0.122383 -0.072553,0.3229689 -0.056033,0.1733074 -0.073686,0.2501199 -0.07353,0.3198759 0,0.2501477 0.2067533,0.4130424 0.5523974,0.4363919 0.030785,0.00206 0.055968,0.00185 0.055968,-5.292e-4 0,-0.00235 -0.019267,-0.040133 -0.042823,-0.083938 C 2.5006062,3.9454057 2.4676846,3.8399811 2.4676846,3.7310575 c 0,-0.081982 0.011856,-0.132047 0.064019,-0.2686434 0.071263,-0.1868739 0.078246,-0.2172308 0.078311,-0.3404777 5.21e-5,-0.064179 -0.00287,-0.1041255 -0.01003,-0.1379088 C 2.5611725,2.8001051 2.4656388,2.6421781 2.3308127,2.5390118 2.2773722,2.4981191 2.2614,2.4893058 2.124737,2.4252422 1.9932721,2.3636142 1.9590478,2.3421737 1.906467,2.2884937 1.8499909,2.2308476 1.8260326,2.1837107 1.8221763,2.1226965 c -0.00235,-0.037701 -0.00143,-0.043648 0.00808,-0.048699 0.021744,-0.011628 0.067889,-0.013745 0.1091089,-0.00501 0.0765,0.016195 0.1450399,0.060268 0.25467,0.1637414 0.1168084,0.1102492 0.1825995,0.1509554 0.2629819,0.1627135 0.039136,0.00573 0.043109,0.00534 0.050483,-0.00489 0.011983,-0.016623 0.010159,-0.07847 -0.00339,-0.1150471 C 2.4791497,2.2081027 2.4256309,2.1580448 2.3059955,2.0902189 2.2291176,2.0466314 2.1772795,2.0093358 2.1541159,1.980946 2.0974965,1.9115392 2.0859929,1.8097884 2.1289197,1.7579803 c 0.04066,-0.04906 0.1095519,-0.054603 0.1889832,-0.015206 0.038628,0.019165 0.055916,0.033226 0.1145285,0.093202 0.1710175,0.174969 0.2739904,0.4045096 0.3193146,0.7118125 0.012118,0.082035 0.010552,0.3910951 -0.00262,0.4983717 -0.012507,0.1022932 -0.032283,0.2236854 -0.05559,0.3404447 -0.02018,0.1011118 -0.021757,0.1474933 -0.00625,0.1823151 0.011464,0.025551 0.035149,0.042645 0.059186,0.042645 0.02715,0 0.075263,-0.031476 0.1306962,-0.085497 0.090531,-0.088241 0.1412618,-0.1737135 0.1702752,-0.2868599 0.012637,-0.049322 0.014878,-0.073657 0.018579,-0.2022515 0.00391,-0.1359138 0.00508,-0.1481336 0.017444,-0.1739344 0.017939,-0.037642 0.051056,-0.061676 0.084994,-0.061676 0.022005,0 0.028713,0.00312 0.047304,0.02199 0.048451,0.049201 0.046783,0.1137867 -0.00886,0.3435006 -0.039683,0.1637294 -0.092668,0.2898947 -0.1598658,0.380611 -0.020193,0.027251 -0.07951,0.090989 -0.1318167,0.1416434 -0.06281,0.060819 -0.1047336,0.106695 -0.1234288,0.1350808 C 2.6823844,3.990279 2.7407105,4.1530322 2.9204311,4.1831722 2.9956151,4.1957796 3.078916,4.1713056 3.135835,4.119868 3.215123,4.0482334 3.2891997,3.8885983 3.341103,3.6774648 3.4182282,3.3637602 3.4429813,3.0225152 3.4027641,2.827172 3.3663903,2.6505084 3.2933555,2.5023974 3.1907607,2.3972771 3.1627635,2.3685976 3.1021186,2.3187739 3.0405747,2.2738979 2.8690358,2.1488228 2.8000531,2.0680376 2.7761858,1.9642362 c -0.011856,-0.051512 -0.00886,-0.1039375 0.00651,-0.1156837 0.019854,-0.015126 0.06983,-0.022562 0.1043408,-0.015524 0.085476,0.017432 0.1604909,0.085185 0.2395707,0.2163882 0.062156,0.1031121 0.090596,0.1415759 0.1332494,0.1801786 0.031632,0.028631 0.047708,0.03651 0.047708,0.023389 0,-0.00345 -0.01519,-0.035582 -0.033742,-0.071404 C 3.1389097,1.9211317 3.0420339,1.7247381 3.0290061,1.6852569 c -0.029391,-0.089061 -0.012637,-0.152187 0.047773,-0.1792922 0.06854,-0.030786 0.1447795,0.0191 0.1813877,0.1186775 0.00782,0.021245 0.058378,0.1943643 0.1123792,0.3847094 0.1165867,0.4109496 0.1086789,0.3851156 0.1169516,0.3823772 0.01016,-0.00336 0.048086,-0.097422 0.06725,-0.1667193 0.02513,-0.090905 0.036022,-0.1856938 0.032192,-0.2805138 -0.00378,-0.09292 -0.01347,-0.152998 -0.047526,-0.2931888 -0.018317,-0.075433 -0.025196,-0.1155462 -0.025196,-0.146976 0,-0.074165 0.029065,-0.1345724 0.079106,-0.1644491 0.055486,-0.033117 0.1392293,-0.016476 0.1953408,0.038812 0.055108,0.054316 0.072969,0.1131834 0.068175,0.2248098 -0.00508,0.1193761 -0.024466,0.1918097 -0.1331066,0.4983731 -0.09685,0.2733146 -0.1259279,0.3751937 -0.1433984,0.5023723 -0.011464,0.083346 -0.011205,0.2149157 0,0.2849615 0.01016,0.061194 0.030694,0.1289963 0.039826,0.1318948 0.00326,0.00106 0.03141,-0.070932 0.062495,-0.1599367 0.076122,-0.2178935 0.086388,-0.2424442 0.1101513,-0.2636347 0.047109,-0.042007 0.1170168,-0.00606 0.1170168,0.060183 0,0.055343 -0.117525,0.4051339 -0.4170109,1.2411974 -0.0836,0.233381 -0.1512022,0.4284014 -0.1501992,0.4333796 0.0013,0.00587 0.1208733,-0.1010232 0.3404719,-0.3040116 C 4.1523912,3.5944663 4.1594524,3.5870937 4.1898075,3.498498 4.2019254,3.4629459 4.203579,3.4501044 4.2010126,3.4075541 4.196975,3.339531 4.1746707,3.2807724 4.1069508,3.1594834 4.0268159,3.0159866 4.0012942,2.9550081 3.9929434,2.8871517 3.9759678,2.7491848 4.0975446,2.6594315 4.1833596,2.7465747 c 0.047643,0.048376 0.1136427,0.2149289 0.1424736,0.3595568 0.00795,0.039955 0.014486,0.078063 0.014486,0.084684 0,0.033503 0.017769,0.00569 0.089463,-0.1400295 0.1037153,-0.2108067 0.1228923,-0.2396807 0.1786128,-0.268937 0.048894,-0.025672 0.108653,0.00106 0.1412359,0.063214 0.017613,0.033598 0.017079,0.096924 -0.0013,0.1535497 -0.048516,0.149606 -0.2397659,0.468245 -0.4457377,0.742647 -0.011464,0.015229 -0.017743,0.027687 -0.014031,0.027687 0.00378,0 0.021405,-0.00864 0.039305,-0.019201 0.1108546,-0.065419 0.1893088,-0.069675 0.2666296,-0.014462 0.023646,0.016886 0.049949,0.066936 0.049871,0.094866 -1.042e-4,0.031573 -0.017457,0.068173 -0.040817,0.086081 C 4.5608231,3.9489868 4.5160332,3.9595847 4.389167,3.966956 4.1803425,3.9790871 4.0217664,4.0361326 3.8696132,4.1538378 3.7496911,4.24661 3.6795749,4.3401772 3.5596266,4.5675099 3.4619824,4.752578 3.4162023,4.8196512 3.3249155,4.9114484 c -0.066117,0.066487 -0.1154665,0.098125 -0.171682,0.1100772 -0.0367,0.00781 -0.036478,0.00781 -0.074859,-0.00267 z"
     style="fill:#6a7ce0;fill-opacity:1;stroke-width:0.264583"
     id="path319" />
</svg>
