<?xml version="1.0" encoding="UTF-8" standalone="no"?>
<!-- Created with Inkscape (http://www.inkscape.org/) -->

<svg
   width="24"
   height="24"
   viewBox="0 0 6.3499999 6.3499999"
   version="1.1"
   id="svg5"
   inkscape:version="1.2 (dc2aedaf03, 2022-05-15)"
   sodipodi:docname="weather.svg"
   xmlns:inkscape="http://www.inkscape.org/namespaces/inkscape"
   xmlns:sodipodi="http://sodipodi.sourceforge.net/DTD/sodipodi-0.dtd"
   xmlns="http://www.w3.org/2000/svg"
   xmlns:svg="http://www.w3.org/2000/svg">
  <sodipodi:namedview
     id="namedview7"
     pagecolor="#ffffff"
     bordercolor="#666666"
     borderopacity="1.0"
     inkscape:pageshadow="2"
     inkscape:pageopacity="0.0"
     inkscape:pagecheckerboard="0"
     inkscape:document-units="px"
     showgrid="false"
     units="px"
     height="48px"
     inkscape:zoom="13.342157"
     inkscape:cx="11.092659"
     inkscape:cy="23.834227"
     inkscape:window-width="1920"
     inkscape:window-height="1014"
     inkscape:window-x="0"
     inkscape:window-y="0"
     inkscape:window-maximized="1"
     inkscape:current-layer="svg5"
     inkscape:showpageshadow="2"
     inkscape:deskcolor="#d1d1d1" />
  <defs
     id="defs2" />
  <circle
     style="fill:#ffce51;fill-opacity:1;stroke-width:0.420886"
     id="path927"
     cx="3.175"
     cy="3.175"
     r="2.9104166" />
  <path
     id="path925"
     style="opacity:0.4;fill:#000000;stroke-width:0.841965"
     d="M 12 1 A 11 11 0 0 0 1 12 A 11 11 0 0 0 12 23 A 11 11 0 0 0 23 12 A 11 11 0 0 0 12 1 z M 12 2 A 9.9999999 9.9999999 0 0 1 22 12 A 9.9999999 9.9999999 0 0 1 12 22 A 9.9999999 9.9999999 0 0 1 2 12 A 9.9999999 9.9999999 0 0 1 12 2 z "
     transform="scale(0.26458333)" />
  <path
     d="M 4.1010479,3.175 C 3.5045435,3.1751879 3.0002389,3.616759 2.9212751,4.2080127 2.8020927,3.9042367 2.5091376,3.7043546 2.1828188,3.7041667 c -0.438376,0 -0.79375,0.355375 -0.79375,0.79375 5.556e-4,0.00844 0.00124,0.01688 0.00206,0.025321 -0.3439464,0.087103 -0.59737881,0.3966607 -0.59737881,0.7684294 0,0.4397375 0.35401301,0.7937499 0.79374991,0.7937499 h 3.175 c 0.439737,0 0.79375,-0.3540124 0.79375,-0.7937499 0,-0.2548203 -0.1193419,-0.4802426 -0.304891,-0.6252846 0.02621,-0.098123 0.039754,-0.1991969 0.040308,-0.3007572 0,-0.6575636 -0.5330611,-1.190625 -1.190625,-1.190625 z"
     style="fill:#ffffff;stroke-width:0.264583"
     id="path1197" />
  <path
     d="M 4.10104,3.175 C 3.5046107,3.1757937 3.0007845,3.6177458 2.9223213,4.2089915 2.8033125,3.9044721 2.5097583,3.7040793 2.1828109,3.7041666 c -0.438376,0 -0.79375,0.355375 -0.79375,0.7937499 1.936e-4,0.00918 5.556e-4,0.018362 0.00106,0.027517 -0.3508031,0.088704 -0.5965058,0.4043891 -0.59637086,0.7662333 0,0.4397375 0.35401256,0.79375 0.79375006,0.79375 H 4.7625 c 0.4397375,0 0.79375,-0.3540125 0.79375,-0.79375 0,-0.254 -0.12065,-0.4770437 -0.3053292,-0.6223 0.02661,-0.099071 0.040305,-0.2011627 0.040746,-0.3037417 0,-0.6575636 -0.5330611,-1.1906249 -1.190625,-1.1906249 z m 0,0.2645833 c 0.5130271,0 0.9260417,0.4130146 0.9260417,0.9260415 -6.88e-4,0.1476349 -0.037195,0.2928991 -0.1063625,0.4233334 0.576255,0.1812898 0.4458784,1.0315733 -0.1582209,1.031875 H 1.5874984 c -0.2931584,0 -0.5291667,-0.2360084 -0.5291667,-0.5291667 0,-0.2931583 0.2360083,-0.5291667 0.5291667,-0.5291667 V 4.5640623 c 0,-0.3296708 0.265377,-0.5953123 0.5953125,-0.5953123 0.3299354,0 0.5953124,0.2656415 0.5953124,0.5953123 v 0.1984375 h 0.396875 v -0.396875 c 0,-0.5130269 0.4130146,-0.9260415 0.9260417,-0.9260415 z"
     style="fill-opacity:1;stroke-width:0.264583;fill:#000000;opacity:0.4"
     id="path308" />
</svg>
