<?xml version="1.0" encoding="UTF-8" standalone="no"?>
<!-- Created with Inkscape (http://www.inkscape.org/) -->

<svg
   width="24"
   height="24"
   viewBox="0 0 6.3499999 6.3499999"
   version="1.1"
   id="svg5"
   inkscape:version="1.2 (dc2aedaf03, 2022-05-15)"
   sodipodi:docname="winecfg.svg"
   xmlns:inkscape="http://www.inkscape.org/namespaces/inkscape"
   xmlns:sodipodi="http://sodipodi.sourceforge.net/DTD/sodipodi-0.dtd"
   xmlns="http://www.w3.org/2000/svg"
   xmlns:svg="http://www.w3.org/2000/svg">
  <sodipodi:namedview
     id="namedview7"
     pagecolor="#ffffff"
     bordercolor="#666666"
     borderopacity="1.0"
     inkscape:pageshadow="2"
     inkscape:pageopacity="0.0"
     inkscape:pagecheckerboard="0"
     inkscape:document-units="px"
     showgrid="false"
     units="px"
     height="48px"
     inkscape:zoom="17.041667"
     inkscape:cx="6.4547677"
     inkscape:cy="7.6870416"
     inkscape:window-width="1846"
     inkscape:window-height="1015"
     inkscape:window-x="0"
     inkscape:window-y="0"
     inkscape:window-maximized="1"
     inkscape:current-layer="svg5"
     inkscape:showpageshadow="2"
     inkscape:deskcolor="#d1d1d1" />
  <defs
     id="defs2" />
  <rect
     style="opacity:1;fill:#cf3b00;fill-opacity:1;stroke-width:0.264583"
     id="rect1162"
     width="5.8208332"
     height="5.8208332"
     x="0.26458332"
     y="0.26458332"
     ry="0.52916664" />
  <path
     id="path485"
     style="fill:#eeeeee;fill-opacity:1;stroke-width:0.160345"
     d="M 0.79374999 0.26458333 C 0.50059196 0.26458333 0.26458333 0.50059196 0.26458333 0.79374999 L 0.26458333 3.4395833 C 0.80124663 3.0272879 1.442695 2.9104166 1.8520833 2.9104166 C 2.2591331 2.9104166 2.7437074 2.9855118 3.175 3.175 C 3.584388 3.3537963 4.0885282 3.4395834 4.4979166 3.4395833 C 4.9049662 3.4395834 5.6541245 3.3644888 6.0854166 3.175 L 6.0854166 0.79374999 C 6.0854166 0.50059196 5.8494079 0.26458333 5.5562499 0.26458333 L 0.79374999 0.26458333 z " />
  <path
     id="rect1967"
     style="opacity:0.5;fill:#000000;fill-opacity:1;stroke-width:0.264583"
     d="M 0.79374999 0.26458333 C 0.50059196 0.26458333 0.26458333 0.50059196 0.26458333 0.79374999 L 0.26458333 5.5562499 C 0.26458333 5.8494079 0.50059196 6.0854166 0.79374999 6.0854166 L 5.5562499 6.0854166 C 5.8494079 6.0854166 6.0854166 5.8494079 6.0854166 5.5562499 L 6.0854166 0.79374999 C 6.0854166 0.50059196 5.8494079 0.26458333 5.5562499 0.26458333 L 0.79374999 0.26458333 z M 0.79374999 0.52916666 L 5.5562499 0.52916666 C 5.7028289 0.52916666 5.8208332 0.64717098 5.8208332 0.79374999 L 5.8208332 5.5562499 C 5.8208332 5.7028289 5.7028289 5.8208332 5.5562499 5.8208332 L 0.79374999 5.8208332 C 0.64717098 5.8208332 0.52916666 5.7028289 0.52916666 5.5562499 L 0.52916666 0.79374999 C 0.52916666 0.64717098 0.64717098 0.52916666 0.79374999 0.52916666 z " />
  <path
     d="m 2.7119786,1.5875 -0.040746,0.4878917 c -0.1547415,0.057306 -0.2986114,0.140513 -0.42545,0.2460625 L 1.8023411,2.1124333 1.3393202,2.91465 1.7420161,3.1940505 c -0.01434,0.08107 -0.021775,0.163207 -0.022225,0.245533 3.97e-5,0.08265 0.00712,0.165145 0.021167,0.246592 L 1.3393202,3.9645165 1.8023411,4.7667323 2.2447244,4.5582415 c 0.1272752,0.10509 0.2715022,0.1877608 0.4265083,0.2444748 l 0.040746,0.48895 h 0.9260416 l 0.040746,-0.487892 C 3.8335078,4.7464643 3.9773737,4.6632615 4.1042157,4.5577125 l 0.443178,0.2090198 0.46302,-0.8022158 -0.402431,-0.2794 c 0.01434,-0.08107 0.02177,-0.163207 0.02222,-0.245533 -4e-5,-0.08265 -0.0071,-0.165145 -0.02117,-0.246592 L 5.0106797,2.91465 4.5476587,2.1124333 4.1052727,2.320925 C 3.9779977,2.2158351 3.8337722,2.133164 3.6787661,2.07645 L 3.6380201,1.5875 Z m 0.4630208,1.3229166 c 0.2922508,0 0.5291667,0.2369159 0.5291667,0.5291669 0,0.29225 -0.2369159,0.529166 -0.5291667,0.529166 -0.2922508,0 -0.5291667,-0.236916 -0.5291667,-0.529166 0,-0.292251 0.2369159,-0.5291669 0.5291667,-0.5291669 z"
     style="fill:#000000;stroke-width:0.264583;opacity:0.2"
     id="path6631" />
  <path
     d="M 2.7119786,1.3229168 2.6712326,1.8108085 C 2.5164911,1.8681145 2.3726212,1.9513215 2.2457826,2.056871 L 1.8023411,1.8478501 1.3393202,2.6500668 1.7420161,2.9294673 c -0.01434,0.08107 -0.021775,0.163207 -0.022225,0.245533 3.97e-5,0.08265 0.00712,0.165145 0.021167,0.246592 L 1.3393202,3.6999333 1.8023411,4.5021491 2.2447244,4.2936583 c 0.1272752,0.10509 0.2715022,0.1877608 0.4265083,0.2444748 l 0.040746,0.48895 h 0.9260416 l 0.040746,-0.487892 C 3.8335078,4.4818811 3.9773737,4.3986783 4.1042157,4.2931293 l 0.443178,0.2090198 0.46302,-0.8022158 -0.402431,-0.2794 c 0.01434,-0.08107 0.02177,-0.163207 0.02222,-0.245533 -4e-5,-0.08265 -0.0071,-0.165145 -0.02117,-0.246592 L 5.0106797,2.6500668 4.5476587,1.8478501 4.1052727,2.0563418 C 3.9779977,1.9512519 3.8337722,1.8685808 3.6787661,1.8118668 l -0.040746,-0.48895 z m 0.4630208,1.3229166 c 0.2922508,0 0.5291667,0.2369159 0.5291667,0.5291669 0,0.29225 -0.2369159,0.529166 -0.5291667,0.529166 -0.2922508,0 -0.5291667,-0.236916 -0.5291667,-0.529166 0,-0.292251 0.2369159,-0.5291669 0.5291667,-0.5291669 z"
     style="fill:#aa5abb;stroke-width:0.264583;fill-opacity:1"
     id="path1697"
     sodipodi:nodetypes="cccccccccccccccccccccccccccsssss" />
</svg>
