<?xml version="1.0" encoding="UTF-8" standalone="no"?>
<!-- Created with Inkscape (http://www.inkscape.org/) -->

<svg
   width="32"
   height="32"
   viewBox="0 0 8.4666665 8.4666665"
   version="1.1"
   id="svg5"
   inkscape:version="1.2 (dc2aedaf03, 2022-05-15)"
   sodipodi:docname="folder-text.svg"
   xmlns:inkscape="http://www.inkscape.org/namespaces/inkscape"
   xmlns:sodipodi="http://sodipodi.sourceforge.net/DTD/sodipodi-0.dtd"
   xmlns="http://www.w3.org/2000/svg"
   xmlns:svg="http://www.w3.org/2000/svg">
  <sodipodi:namedview
     id="namedview7"
     pagecolor="#ffffff"
     bordercolor="#666666"
     borderopacity="1.0"
     inkscape:pageshadow="2"
     inkscape:pageopacity="0.0"
     inkscape:pagecheckerboard="0"
     inkscape:document-units="px"
     showgrid="false"
     units="px"
     height="48px"
     inkscape:zoom="25.03125"
     inkscape:cx="16.019975"
     inkscape:cy="16.019975"
     inkscape:window-width="1920"
     inkscape:window-height="1009"
     inkscape:window-x="0"
     inkscape:window-y="0"
     inkscape:window-maximized="1"
     inkscape:current-layer="svg5"
     inkscape:showpageshadow="2"
     inkscape:deskcolor="#d1d1d1" />
  <defs
     id="defs2" />
  <path
     d="M 1.3229166,0.79374998 H 3.4395833 L 4.2333333,1.5875 h 2.9104166 c 0.2931583,0 0.5291667,0.2360083 0.5291667,0.5291666 v 5.2916666 c 0,0.2931584 -0.2360084,0.5291667 -0.5291667,0.5291667 H 1.3229166 c -0.2931583,0 -0.52916662,-0.2360083 -0.52916662,-0.5291667 V 1.3229166 c 0,-0.2931583 0.23600832,-0.52916662 0.52916662,-0.52916662 z"
     style="display:inline;vector-effect:none;fill:#48b9c7;fill-opacity:1;stroke:none;stroke-width:0.264583;stroke-linecap:round;stroke-linejoin:miter;stroke-miterlimit:4;stroke-dasharray:none;stroke-dashoffset:0;stroke-opacity:0.392157;enable-background:new"
     id="path3353" />
  <path
     d="m 1.3229166,0.79374998 c -0.2931583,0 -0.52916664,0.23600832 -0.52916664,0.52916662 v 6.0854165 c 0,0.2931583 0.23600834,0.5291667 0.52916664,0.5291667 h 5.8208333 c 0.2931583,0 0.5291666,-0.2360084 0.5291666,-0.5291667 V 2.1166665 C 7.6729165,1.8235082 7.4369082,1.5875 7.1437499,1.5875 H 4.2333333 L 3.4395833,0.79374998 H 2.1166666 Z m 0,1.32291652 h 5.8208333 c 0.1465791,0 0.2645833,0.1180042 0.2645833,0.2645834 v 4.7624999 c 0,0.1465791 -0.1180042,0.2645833 -0.2645833,0.2645833 H 1.3229166 c -0.1465792,0 -0.2645833,-0.1180042 -0.2645833,-0.2645833 V 2.3812499 c 0,-0.1465792 0.1180041,-0.2645834 0.2645833,-0.2645834 z"
     style="opacity:1;vector-effect:none;fill:#000000;fill-opacity:0.25;stroke:none;stroke-width:0.264583;stroke-linecap:round;stroke-linejoin:miter;stroke-miterlimit:4;stroke-dasharray:none;stroke-dashoffset:0;stroke-opacity:0.392157"
     id="path3791" />
  <path
     d="m 1.3229167,1.8520833 c -0.2931584,0 -0.52916672,0.2360083 -0.52916672,0.5291667 v 5.0270832 c 0,0.2931584 0.23600832,0.5291667 0.52916672,0.5291667 h 5.8208332 c 0.2931584,0 0.5291667,-0.2360083 0.5291667,-0.5291667 V 2.38125 c 0,-0.2931584 -0.2360083,-0.5291667 -0.5291667,-0.5291667 z m 0,0.2645833 h 5.8208332 c 0.1465792,0 0.2645834,0.1180042 0.2645834,0.2645834 v 4.7624999 c 0,0.1465792 -0.1180042,0.2645833 -0.2645834,0.2645833 H 1.3229167 c -0.1465792,0 -0.2645834,-0.1180041 -0.2645834,-0.2645833 V 2.38125 c 0,-0.1465792 0.1180042,-0.2645834 0.2645834,-0.2645834 z"
     style="display:inline;vector-effect:none;fill:#000000;fill-opacity:0.25;stroke:none;stroke-width:0.529167;stroke-linecap:round;stroke-miterlimit:4;stroke-dasharray:none;stroke-opacity:1;enable-background:new"
     id="path3572" />
  <path
     d="m 2.3812499,3.1749999 c -0.1461242,0 -0.2645834,0.1184592 -0.2645834,0.2645834 0,0.1461241 0.1184592,0.2645833 0.2645834,0.2645833 h 3.7041666 c 0.1461241,0 0.2645834,-0.1184592 0.2645834,-0.2645833 0,-0.1461242 -0.1184593,-0.2645834 -0.2645834,-0.2645834 z m 0,1.0583334 c -0.1461242,0 -0.2645834,0.1184592 -0.2645834,0.2645833 0,0.146124 0.1184592,0.2645833 0.2645834,0.2645833 h 3.7041666 c 0.1461241,0 0.2645834,-0.1184593 0.2645834,-0.2645833 0,-0.1461241 -0.1184593,-0.2645833 -0.2645834,-0.2645833 z m 0,1.0583333 c -0.1461242,0 -0.2645834,0.1184592 -0.2645834,0.2645833 0,0.1461241 0.1184592,0.2645833 0.2645834,0.2645833 h 3.7041666 c 0.1461241,0 0.2645834,-0.1184592 0.2645834,-0.2645833 0,-0.1461241 -0.1184593,-0.2645833 -0.2645834,-0.2645833 z m 0,1.0583333 c -0.1461242,0 -0.2645834,0.1184593 -0.2645834,0.2645834 0,0.146124 0.1184592,0.2645833 0.2645834,0.2645833 h 2.1166666 c 0.1461241,0 0.2645833,-0.1184593 0.2645833,-0.2645833 0,-0.1461241 -0.1184592,-0.2645834 -0.2645833,-0.2645834 z"
     style="display:inline;opacity:0.2;fill:#000000;fill-opacity:1;stroke:none;stroke-width:0.264583;stroke-opacity:0.392157;enable-background:new"
     id="path968" />
  <path
     d="m 2.3812499,2.9104166 c -0.1461241,0 -0.2645833,0.1184592 -0.2645833,0.2645833 0,0.1461241 0.1184592,0.2645834 0.2645833,0.2645834 H 6.0854166 C 6.2315407,3.4395833 6.35,3.321124 6.35,3.1749999 6.35,3.0288758 6.2315407,2.9104166 6.0854166,2.9104166 Z m 0,1.0583334 c -0.1461241,0 -0.2645833,0.1184592 -0.2645833,0.2645833 0,0.146124 0.1184592,0.2645833 0.2645833,0.2645833 H 6.0854166 C 6.2315407,4.4979166 6.35,4.3794573 6.35,4.2333333 6.35,4.0872092 6.2315407,3.96875 6.0854166,3.96875 Z m 0,1.0583333 c -0.1461241,0 -0.2645833,0.1184592 -0.2645833,0.2645833 0,0.1461241 0.1184592,0.2645833 0.2645833,0.2645833 H 6.0854166 C 6.2315407,5.5562499 6.35,5.4377907 6.35,5.2916666 6.35,5.1455425 6.2315407,5.0270833 6.0854166,5.0270833 Z m 0,1.0583333 c -0.1461241,0 -0.2645833,0.1184593 -0.2645833,0.2645834 0,0.146124 0.1184592,0.2645833 0.2645833,0.2645833 h 2.1166667 c 0.1461241,0 0.2645833,-0.1184593 0.2645833,-0.2645833 0,-0.1461241 -0.1184592,-0.2645834 -0.2645833,-0.2645834 z"
     style="display:inline;fill:#ffffff;fill-opacity:1;stroke:none;stroke-width:0.264583;stroke-opacity:0.392157;enable-background:new"
     id="path848" />
</svg>
