<?xml version="1.0" encoding="UTF-8" standalone="no"?>
<!-- Created with Inkscape (http://www.inkscape.org/) -->

<svg
   width="32"
   height="32"
   viewBox="0 0 8.4666665 8.4666665"
   version="1.1"
   id="svg5"
   inkscape:version="1.2 (dc2aedaf03, 2022-05-15)"
   sodipodi:docname="folder-grey-templates.svg"
   xmlns:inkscape="http://www.inkscape.org/namespaces/inkscape"
   xmlns:sodipodi="http://sodipodi.sourceforge.net/DTD/sodipodi-0.dtd"
   xmlns="http://www.w3.org/2000/svg"
   xmlns:svg="http://www.w3.org/2000/svg">
  <sodipodi:namedview
     id="namedview7"
     pagecolor="#ffffff"
     bordercolor="#666666"
     borderopacity="1.0"
     inkscape:pageshadow="2"
     inkscape:pageopacity="0.0"
     inkscape:pagecheckerboard="0"
     inkscape:document-units="px"
     showgrid="false"
     units="px"
     height="48px"
     inkscape:zoom="12.515625"
     inkscape:cx="-1.0786517"
     inkscape:cy="26.966292"
     inkscape:window-width="1846"
     inkscape:window-height="1011"
     inkscape:window-x="0"
     inkscape:window-y="0"
     inkscape:window-maximized="1"
     inkscape:current-layer="svg5"
     inkscape:showpageshadow="2"
     inkscape:deskcolor="#d1d1d1" />
  <defs
     id="defs2" />
  <path
     d="M 1.3229166,0.79374998 H 3.4395833 L 4.2333333,1.5875 h 2.9104166 c 0.2931583,0 0.5291667,0.2360083 0.5291667,0.5291666 v 5.2916666 c 0,0.2931584 -0.2360084,0.5291667 -0.5291667,0.5291667 H 1.3229166 c -0.2931583,0 -0.52916662,-0.2360083 -0.52916662,-0.5291667 V 1.3229166 c 0,-0.2931583 0.23600832,-0.52916662 0.52916662,-0.52916662 z"
     style="display:inline;vector-effect:none;fill:#acacac;fill-opacity:1;stroke:none;stroke-width:0.264583;stroke-linecap:round;stroke-linejoin:miter;stroke-miterlimit:4;stroke-dasharray:none;stroke-dashoffset:0;stroke-opacity:0.392157;enable-background:new"
     id="path3353" />
  <path
     d="m 1.3229166,0.79374998 c -0.2931583,0 -0.52916664,0.23600832 -0.52916664,0.52916662 v 6.0854165 c 0,0.2931583 0.23600834,0.5291667 0.52916664,0.5291667 h 5.8208333 c 0.2931583,0 0.5291666,-0.2360084 0.5291666,-0.5291667 V 2.1166665 C 7.6729165,1.8235082 7.4369082,1.5875 7.1437499,1.5875 H 4.2333333 L 3.4395833,0.79374998 H 2.1166666 Z m 0,1.32291652 h 5.8208333 c 0.1465791,0 0.2645833,0.1180042 0.2645833,0.2645834 v 4.7624999 c 0,0.1465791 -0.1180042,0.2645833 -0.2645833,0.2645833 H 1.3229166 c -0.1465792,0 -0.2645833,-0.1180042 -0.2645833,-0.2645833 V 2.3812499 c 0,-0.1465792 0.1180041,-0.2645834 0.2645833,-0.2645834 z"
     style="opacity:1;vector-effect:none;fill:#000000;fill-opacity:0.25;stroke:none;stroke-width:0.264583;stroke-linecap:round;stroke-linejoin:miter;stroke-miterlimit:4;stroke-dasharray:none;stroke-dashoffset:0;stroke-opacity:0.392157"
     id="path3791" />
  <path
     d="m 1.3229167,1.8520833 c -0.2931584,0 -0.52916672,0.2360083 -0.52916672,0.5291667 v 5.0270832 c 0,0.2931584 0.23600832,0.5291667 0.52916672,0.5291667 h 5.8208332 c 0.2931584,0 0.5291667,-0.2360083 0.5291667,-0.5291667 V 2.38125 c 0,-0.2931584 -0.2360083,-0.5291667 -0.5291667,-0.5291667 z m 0,0.2645833 h 5.8208332 c 0.1465792,0 0.2645834,0.1180042 0.2645834,0.2645834 v 4.7624999 c 0,0.1465792 -0.1180042,0.2645833 -0.2645834,0.2645833 H 1.3229167 c -0.1465792,0 -0.2645834,-0.1180041 -0.2645834,-0.2645833 V 2.38125 c 0,-0.1465792 0.1180042,-0.2645834 0.2645834,-0.2645834 z"
     style="display:inline;vector-effect:none;fill:#000000;fill-opacity:0.25;stroke:none;stroke-width:0.529167;stroke-linecap:round;stroke-miterlimit:4;stroke-dasharray:none;stroke-opacity:1;enable-background:new"
     id="path3572" />
  <path
     d="m 4.2333335,3.1749999 c -0.5845013,0 -1.0583333,0.4738319 -1.0583333,1.0583333 0.00114,0.2802501 0.113388,0.5486069 0.3121263,0.7462044 L 2.980179,5.4864792 c -0.097609,-0.080184 -0.2382869,-0.080184 -0.3358962,0 -0.1113015,0.093349 -0.1265259,0.2589766 -0.034107,0.3710517 L 2.1166666,6.3499998 V 6.8791665 L 2.6458331,6.6145832 3.0246216,6.2358057 c 0.4633357,0.3220508 1.0442072,0.4505589 1.6128206,0.340016 0.2938383,-0.057123 0.5664094,-0.1751012 0.804087,-0.3405452 l 0.379304,0.3793067 0.5291666,0.2645833 V 6.3499998 l -0.494027,-0.49403 C 6.0270603,5.6515528 6.1610691,5.4139305 6.24613,5.1521517 6.29127,5.0133098 6.2154177,4.8641441 6.0766324,4.8188297 5.9377944,4.7736944 5.788635,4.8495428 5.7433185,4.9883217 5.6844302,5.1695613 5.593953,5.3348994 5.4797697,5.4797588 L 4.9795405,4.9795376 C 5.1782783,4.7819401 5.2905278,4.5135833 5.2916668,4.2333332 c 0,-0.5845014 -0.473832,-1.0583333 -1.0583333,-1.0583333 z m 0,0.5291666 c 0.2922506,0 0.5291664,0.2369161 0.5291664,0.5291667 -1.85e-5,0.1403392 -0.055784,0.2749233 -0.1550297,0.3741473 L 4.2333335,4.2333332 3.8591968,4.6074805 C 3.7599511,4.5082565 3.7041854,4.3736724 3.7041666,4.2333332 3.7041669,3.9410824 3.9410827,3.7041665 4.2333335,3.7041665 Z M 3.998206,5.2622184 c 0.077026,0.018587 0.1558962,0.028465 0.2351275,0.029448 0.079231,-9.79e-4 0.158101,-0.010861 0.235127,-0.029448 l 0.5906614,0.5906558 c -0.158528,0.096546 -0.3347376,0.1665023 -0.5229651,0.2030942 -0.3949197,0.076756 -0.7963191,0 -1.1291305,-0.2025915 z"
     style="display:inline;opacity:0.3;fill:#000000;fill-opacity:1;stroke:none;stroke-width:0.0185219px;stroke-linecap:butt;stroke-linejoin:miter;stroke-opacity:1;enable-background:new"
     id="path3516" />
  <path
     d="m 4.2333334,2.9104166 c -0.5845013,0 -1.0583333,0.473832 -1.0583333,1.0583333 C 3.1761401,4.249 3.2883883,4.5173568 3.4871264,4.7149543 L 2.9801791,5.2218959 c -0.097609,-0.080184 -0.2382869,-0.080184 -0.3358963,0 -0.1113015,0.093349 -0.1265259,0.2589766 -0.034107,0.3710517 L 2.1166666,6.0854165 V 6.6145832 L 2.6458331,6.3499999 3.0246215,5.9712224 C 3.4879572,6.2932732 4.0688287,6.4217813 4.6374421,6.3112384 4.9312805,6.2541149 5.2038516,6.1361372 5.4415292,5.9706932 l 0.379304,0.3793067 0.5291666,0.2645833 V 6.0854165 l -0.494027,-0.49403 C 6.0270603,5.3869695 6.1610691,5.1493472 6.24613,4.8875684 6.29127,4.7487265 6.2154177,4.5995608 6.0766324,4.5542464 5.9377944,4.5091111 5.788635,4.5849595 5.7433185,4.7237384 5.6844302,4.904978 5.593953,5.0703161 5.4797697,5.2151755 L 4.9795405,4.7149543 C 5.1782783,4.5173568 5.2905278,4.249 5.2916668,3.9687499 c 0,-0.5845013 -0.473832,-1.0583333 -1.0583334,-1.0583333 z m 0,0.5291667 c 0.2922506,0 0.5291664,0.2369161 0.5291664,0.5291666 -1.85e-5,0.1403392 -0.055784,0.2749233 -0.1550297,0.3741473 L 4.2333334,3.9687499 3.8591967,4.3428972 C 3.759951,4.2436732 3.7041853,4.1090891 3.7041665,3.9687499 3.7041668,3.6764991 3.9410826,3.4395833 4.2333334,3.4395833 Z M 3.9982059,4.9976351 c 0.077026,0.018587 0.1558964,0.028465 0.2351275,0.029448 0.079231,-9.79e-4 0.158101,-0.010861 0.235127,-0.029448 l 0.5906615,0.5906558 c -0.158528,0.096546 -0.3347377,0.1665023 -0.5229652,0.2030942 -0.3949197,0.076756 -0.7963191,0 -1.1291305,-0.2025915 z"
     style="display:inline;fill:#ffffff;fill-opacity:1;stroke:none;stroke-width:0.0700042px;stroke-linecap:butt;stroke-linejoin:miter;stroke-opacity:1;enable-background:new"
     id="path3396"
     sodipodi:nodetypes="scccccccccscccccccccccsscccccsccccccc" />
</svg>
