<?xml version="1.0" encoding="UTF-8" standalone="no"?>
<!-- Created with Inkscape (http://www.inkscape.org/) -->

<svg
   width="32"
   height="32"
   viewBox="0 0 8.4666665 8.4666665"
   version="1.1"
   id="svg5"
   inkscape:version="1.2 (dc2aedaf03, 2022-05-15)"
   sodipodi:docname="folder-yellow-system.svg"
   xmlns:inkscape="http://www.inkscape.org/namespaces/inkscape"
   xmlns:sodipodi="http://sodipodi.sourceforge.net/DTD/sodipodi-0.dtd"
   xmlns="http://www.w3.org/2000/svg"
   xmlns:svg="http://www.w3.org/2000/svg">
  <sodipodi:namedview
     id="namedview7"
     pagecolor="#ffffff"
     bordercolor="#666666"
     borderopacity="1.0"
     inkscape:pageshadow="2"
     inkscape:pageopacity="0.0"
     inkscape:pagecheckerboard="0"
     inkscape:document-units="px"
     showgrid="false"
     units="px"
     height="48px"
     inkscape:zoom="12.515625"
     inkscape:cx="8.349563"
     inkscape:cy="15.061174"
     inkscape:window-width="1846"
     inkscape:window-height="1011"
     inkscape:window-x="0"
     inkscape:window-y="0"
     inkscape:window-maximized="1"
     inkscape:current-layer="svg5"
     inkscape:showpageshadow="2"
     inkscape:deskcolor="#d1d1d1" />
  <defs
     id="defs2" />
  <path
     d="M 1.3229166,0.79374998 H 3.4395833 L 4.2333333,1.5875 h 2.9104166 c 0.2931583,0 0.5291667,0.2360083 0.5291667,0.5291666 v 5.2916666 c 0,0.2931584 -0.2360084,0.5291667 -0.5291667,0.5291667 H 1.3229166 c -0.2931583,0 -0.52916662,-0.2360083 -0.52916662,-0.5291667 V 1.3229166 c 0,-0.2931583 0.23600832,-0.52916662 0.52916662,-0.52916662 z"
     style="display:inline;vector-effect:none;fill:#ffce51;fill-opacity:1;stroke:none;stroke-width:0.264583;stroke-linecap:round;stroke-linejoin:miter;stroke-miterlimit:4;stroke-dasharray:none;stroke-dashoffset:0;stroke-opacity:0.392157;enable-background:new"
     id="path3353" />
  <path
     d="m 1.3229166,0.79374998 c -0.2931583,0 -0.52916664,0.23600832 -0.52916664,0.52916662 v 6.0854165 c 0,0.2931583 0.23600834,0.5291667 0.52916664,0.5291667 h 5.8208333 c 0.2931583,0 0.5291666,-0.2360084 0.5291666,-0.5291667 V 2.1166665 C 7.6729165,1.8235082 7.4369082,1.5875 7.1437499,1.5875 H 4.2333333 L 3.4395833,0.79374998 H 2.1166666 Z m 0,1.32291652 h 5.8208333 c 0.1465791,0 0.2645833,0.1180042 0.2645833,0.2645834 v 4.7624999 c 0,0.1465791 -0.1180042,0.2645833 -0.2645833,0.2645833 H 1.3229166 c -0.1465792,0 -0.2645833,-0.1180042 -0.2645833,-0.2645833 V 2.3812499 c 0,-0.1465792 0.1180041,-0.2645834 0.2645833,-0.2645834 z"
     style="opacity:1;vector-effect:none;fill:#000000;fill-opacity:0.25;stroke:none;stroke-width:0.264583;stroke-linecap:round;stroke-linejoin:miter;stroke-miterlimit:4;stroke-dasharray:none;stroke-dashoffset:0;stroke-opacity:0.392157"
     id="path3791" />
  <path
     d="m 1.3229167,1.8520833 c -0.2931584,0 -0.52916672,0.2360083 -0.52916672,0.5291667 v 5.0270832 c 0,0.2931584 0.23600832,0.5291667 0.52916672,0.5291667 h 5.8208332 c 0.2931584,0 0.5291667,-0.2360083 0.5291667,-0.5291667 V 2.38125 c 0,-0.2931584 -0.2360083,-0.5291667 -0.5291667,-0.5291667 z m 0,0.2645833 h 5.8208332 c 0.1465792,0 0.2645834,0.1180042 0.2645834,0.2645834 v 4.7624999 c 0,0.1465792 -0.1180042,0.2645833 -0.2645834,0.2645833 H 1.3229167 c -0.1465792,0 -0.2645834,-0.1180041 -0.2645834,-0.2645833 V 2.38125 c 0,-0.1465792 0.1180042,-0.2645834 0.2645834,-0.2645834 z"
     style="display:inline;vector-effect:none;fill:#000000;fill-opacity:0.25;stroke:none;stroke-width:0.529167;stroke-linecap:round;stroke-miterlimit:4;stroke-dasharray:none;stroke-opacity:1;enable-background:new"
     id="path3572" />
  <path
     d="m 3.6851166,2.9104166 -0.046566,0.5577416 c -0.176822,0.065256 -0.3412654,0.160094 -0.486304,0.2804584 L 2.6458332,3.5104916 2.1166666,4.4270082 2.5770416,4.746625 c -0.01656,0.092582 -0.02523,0.18641 -0.02593,0.2804583 1.132e-4,0.094362 0.00826,0.188536 0.024342,0.2815166 l -0.458787,0.3185584 0.5291666,0.9165166 0.5053542,-0.238125 c 0.145276,0.120042 0.309898,0.214519 0.4868334,0.2794 l 0.047096,0.5588 H 4.7434499 L 4.7900167,6.5860083 C 4.9668383,6.5207515 5.1312821,6.4259143 5.2763209,6.3055499 L 5.7827333,6.5436749 6.3118999,5.6271583 5.8515249,5.3075417 c 0.01656,-0.092584 0.02523,-0.18641 0.02593,-0.2804584 -1.132e-4,-0.094362 -0.00826,-0.1885361 -0.024342,-0.2815167 L 6.3118999,4.4270082 5.7827333,3.5104916 5.2773791,3.7486166 c -0.145276,-0.120042 -0.309898,-0.2145188 -0.4868332,-0.2794 l -0.047096,-0.5588 z m 0.5291666,1.5118292 c 0.3340423,0 0.6048377,0.2707956 0.6048377,0.6048375 0,0.3340418 -0.2707954,0.6048376 -0.6048377,0.6048376 -0.3340422,0 -0.6048374,-0.2707958 -0.6048374,-0.6048376 0,-0.3340419 0.2707952,-0.6048375 0.6048374,-0.6048375 z"
     style="fill:#000000;stroke-width:0.529166;opacity:0.3"
     id="path308" />
  <path
     d="m 3.6851166,2.6458333 -0.046566,0.5577416 c -0.176822,0.065256 -0.3412654,0.160094 -0.486304,0.2804584 L 2.6458332,3.2459083 2.1166666,4.1624249 2.5770416,4.4820417 c -0.01656,0.092582 -0.02523,0.18641 -0.02593,0.2804583 1.132e-4,0.094362 0.00826,0.188536 0.024342,0.2815166 L 2.1166666,5.362575 2.6458332,6.2790916 3.1511874,6.0409666 c 0.145276,0.120042 0.309898,0.214519 0.4868334,0.2794 l 0.047096,0.5588 H 4.7434499 L 4.7900167,6.321425 C 4.9668383,6.2561682 5.1312821,6.161331 5.2763209,6.0409666 L 5.7827333,6.2790916 6.3118999,5.362575 5.8515249,5.0429584 c 0.01656,-0.092584 0.02523,-0.18641 0.02593,-0.2804584 C 5.8773417,4.668138 5.8691949,4.5739639 5.8531129,4.4809833 L 6.3118999,4.1624249 5.7827333,3.2459083 5.2773791,3.4840333 c -0.145276,-0.120042 -0.309898,-0.2145188 -0.4868332,-0.2794 l -0.047096,-0.5588 z m 0.5291666,1.5118292 c 0.3340423,0 0.6048377,0.2707956 0.6048377,0.6048375 0,0.3340418 -0.2707954,0.6048376 -0.6048377,0.6048376 -0.3340422,0 -0.6048374,-0.2707958 -0.6048374,-0.6048376 0,-0.3340419 0.2707952,-0.6048375 0.6048374,-0.6048375 z"
     style="fill:#fefeff;stroke-width:0.529166;fill-opacity:1"
     id="path892"
     sodipodi:nodetypes="cccccccccccccccccccccccccccsssss" />
</svg>
