<?xml version="1.0" encoding="UTF-8" standalone="no"?>
<!-- Created with Inkscape (http://www.inkscape.org/) -->

<svg
   width="32"
   height="32"
   viewBox="0 0 8.4666665 8.4666665"
   version="1.1"
   id="svg5"
   inkscape:version="1.2 (dc2aedaf03, 2022-05-15)"
   sodipodi:docname="folder-red-games.svg"
   xmlns:inkscape="http://www.inkscape.org/namespaces/inkscape"
   xmlns:sodipodi="http://sodipodi.sourceforge.net/DTD/sodipodi-0.dtd"
   xmlns="http://www.w3.org/2000/svg"
   xmlns:svg="http://www.w3.org/2000/svg">
  <sodipodi:namedview
     id="namedview7"
     pagecolor="#ffffff"
     bordercolor="#666666"
     borderopacity="1.0"
     inkscape:pageshadow="2"
     inkscape:pageopacity="0.0"
     inkscape:pagecheckerboard="0"
     inkscape:document-units="px"
     showgrid="false"
     units="px"
     height="48px"
     inkscape:zoom="25.59375"
     inkscape:cx="16.039072"
     inkscape:cy="16.039072"
     inkscape:window-width="1846"
     inkscape:window-height="1011"
     inkscape:window-x="0"
     inkscape:window-y="0"
     inkscape:window-maximized="1"
     inkscape:current-layer="svg5"
     inkscape:showpageshadow="2"
     inkscape:deskcolor="#d1d1d1" />
  <defs
     id="defs2" />
  <path
     d="M 1.3229166,0.79374998 H 3.4395833 L 4.2333333,1.5875 h 2.9104166 c 0.2931583,0 0.5291667,0.2360083 0.5291667,0.5291666 v 5.2916666 c 0,0.2931584 -0.2360084,0.5291667 -0.5291667,0.5291667 H 1.3229166 c -0.2931583,0 -0.52916662,-0.2360083 -0.52916662,-0.5291667 V 1.3229166 c 0,-0.2931583 0.23600832,-0.52916662 0.52916662,-0.52916662 z"
     style="display:inline;fill:#f15d22;fill-opacity:1;stroke:none;stroke-width:0.264583;stroke-linecap:round;stroke-linejoin:miter;stroke-miterlimit:4;stroke-dasharray:none;stroke-dashoffset:0;stroke-opacity:0.392157;enable-background:new"
     id="path3353" />
  <path
     d="m 1.3229166,0.79374998 c -0.2931583,0 -0.52916664,0.23600832 -0.52916664,0.52916662 v 6.0854165 c 0,0.2931583 0.23600834,0.5291667 0.52916664,0.5291667 h 5.8208333 c 0.2931583,0 0.5291666,-0.2360084 0.5291666,-0.5291667 V 2.1166665 C 7.6729165,1.8235082 7.4369082,1.5875 7.1437499,1.5875 H 4.2333333 L 3.4395833,0.79374998 H 2.1166666 Z m 0,1.32291652 h 5.8208333 c 0.1465791,0 0.2645833,0.1180042 0.2645833,0.2645834 v 4.7624999 c 0,0.1465791 -0.1180042,0.2645833 -0.2645833,0.2645833 H 1.3229166 c -0.1465792,0 -0.2645833,-0.1180042 -0.2645833,-0.2645833 V 2.3812499 c 0,-0.1465792 0.1180041,-0.2645834 0.2645833,-0.2645834 z"
     style="opacity:1;vector-effect:none;fill:#000000;fill-opacity:0.25;stroke:none;stroke-width:0.264583;stroke-linecap:round;stroke-linejoin:miter;stroke-miterlimit:4;stroke-dasharray:none;stroke-dashoffset:0;stroke-opacity:0.392157"
     id="path3791" />
  <path
     d="m 1.3229167,1.8520833 c -0.2931584,0 -0.52916672,0.2360083 -0.52916672,0.5291667 v 5.0270832 c 0,0.2931584 0.23600832,0.5291667 0.52916672,0.5291667 h 5.8208332 c 0.2931584,0 0.5291667,-0.2360083 0.5291667,-0.5291667 V 2.38125 c 0,-0.2931584 -0.2360083,-0.5291667 -0.5291667,-0.5291667 z m 0,0.2645833 h 5.8208332 c 0.1465792,0 0.2645834,0.1180042 0.2645834,0.2645834 v 4.7624999 c 0,0.1465792 -0.1180042,0.2645833 -0.2645834,0.2645833 H 1.3229167 c -0.1465792,0 -0.2645834,-0.1180041 -0.2645834,-0.2645833 V 2.38125 c 0,-0.1465792 0.1180042,-0.2645834 0.2645834,-0.2645834 z"
     style="display:inline;vector-effect:none;fill:#000000;fill-opacity:0.25;stroke:none;stroke-width:0.529167;stroke-linecap:round;stroke-miterlimit:4;stroke-dasharray:none;stroke-opacity:1;enable-background:new"
     id="path3572" />
  <path
     d="m 2.9104166,2.9104166 c -0.4397366,0 -0.79375,0.3540134 -0.79375,0.79375 V 4.7625 6.3499998 c 0,0.2931578 0.2360089,0.5291667 0.5291667,0.5291667 0.2931577,0 0.5291666,-0.2360089 0.5291666,-0.5291667 V 5.5562499 h 2.1166667 v 0.7937499 c 0,0.2931578 0.2360089,0.5291667 0.5291666,0.5291667 0.2931578,0 0.5291667,-0.2360089 0.5291667,-0.5291667 V 4.7625 3.7041666 c 0,-0.4397366 -0.3540133,-0.79375 -0.79375,-0.79375 z m 0,0.5291667 H 3.4395833 V 3.96875 H 3.9687499 V 4.4979166 H 3.4395833 V 5.0270833 H 2.9104166 V 4.4979166 H 2.3812499 V 3.96875 h 0.5291667 z m 2.38125,0 c 0.1461253,0 0.2645833,0.118458 0.2645833,0.2645833 0,0.1461254 -0.1184579,0.2645834 -0.2645833,0.2645834 -0.1461254,0 -0.2645834,-0.118458 -0.2645834,-0.2645834 0,-0.1461254 0.118458,-0.2645833 0.2645834,-0.2645833 z M 4.7624999,3.96875 c 0.1461253,0 0.2645833,0.118458 0.2645833,0.2645833 0,0.1461253 -0.118458,0.2645833 -0.2645833,0.2645833 -0.1461253,0 -0.2645833,-0.118458 -0.2645833,-0.2645833 0,-0.1461253 0.118458,-0.2645833 0.2645833,-0.2645833 z m 1.0583333,0 c 0.1461254,0 0.2645834,0.1184579 0.2645834,0.2645833 0,0.1461254 -0.118458,0.2645833 -0.2645834,0.2645833 -0.1461253,0 -0.2645833,-0.118458 -0.2645833,-0.2645833 0,-0.1461253 0.118458,-0.2645833 0.2645833,-0.2645833 z M 5.2916666,4.4979166 c 0.1461253,0 0.2645833,0.118458 0.2645833,0.2645834 -1e-7,0.1461253 -0.118458,0.2645833 -0.2645833,0.2645833 -0.1461253,0 -0.2645833,-0.1184579 -0.2645834,-0.2645833 0,-0.1461254 0.118458,-0.2645834 0.2645834,-0.2645834 z"
     style="opacity:0.3;fill:#000000;fill-opacity:1;stroke-width:0.453572"
     id="path1376"
     sodipodi:nodetypes="sscsssccssscssscccccccccccccssssssssssssssssssss" />
  <path
     id="rect1779"
     style="fill:#fefeff;fill-opacity:1;stroke-width:0.453572"
     d="m 2.9104166,2.6458333 c -0.4397366,0 -0.79375,0.3540134 -0.79375,0.79375 v 1.0583334 1.5874998 c 0,0.2931578 0.2360089,0.5291667 0.5291667,0.5291667 0.2931577,0 0.5291666,-0.2360089 0.5291666,-0.5291667 V 5.2916666 h 2.1166667 v 0.7937499 c 0,0.2931578 0.2360089,0.5291667 0.5291666,0.5291667 0.2931578,0 0.5291667,-0.2360089 0.5291667,-0.5291667 V 4.4979167 3.4395833 c 0,-0.4397366 -0.3540133,-0.79375 -0.79375,-0.79375 z m 0,0.5291667 H 3.4395833 V 3.7041667 H 3.9687499 V 4.2333333 H 3.4395833 V 4.7625 H 2.9104166 V 4.2333333 H 2.3812499 V 3.7041667 h 0.5291667 z m 2.38125,0 c 0.1461253,0 0.2645833,0.118458 0.2645833,0.2645833 0,0.1461254 -0.1184579,0.2645834 -0.2645833,0.2645834 -0.1461254,0 -0.2645834,-0.118458 -0.2645834,-0.2645834 C 5.0270832,3.2934579 5.1455412,3.175 5.2916666,3.175 Z M 4.7624999,3.7041667 c 0.1461253,0 0.2645833,0.118458 0.2645833,0.2645833 0,0.1461253 -0.118458,0.2645833 -0.2645833,0.2645833 -0.1461253,0 -0.2645833,-0.118458 -0.2645833,-0.2645833 0,-0.1461253 0.118458,-0.2645833 0.2645833,-0.2645833 z m 1.0583333,0 c 0.1461254,0 0.2645834,0.1184579 0.2645834,0.2645833 0,0.1461254 -0.118458,0.2645833 -0.2645834,0.2645833 -0.1461253,0 -0.2645833,-0.118458 -0.2645833,-0.2645833 0,-0.1461253 0.118458,-0.2645833 0.2645833,-0.2645833 z M 5.2916666,4.2333333 c 0.1461253,0 0.2645833,0.118458 0.2645833,0.2645834 -1e-7,0.1461253 -0.118458,0.2645833 -0.2645833,0.2645833 -0.1461253,0 -0.2645833,-0.1184579 -0.2645834,-0.2645833 0,-0.1461254 0.118458,-0.2645834 0.2645834,-0.2645834 z"
     sodipodi:nodetypes="sscsssccssscssscccccccccccccssssssssssssssssssss" />
</svg>
