<?xml version="1.0" encoding="UTF-8" standalone="no"?>
<!-- Created with Inkscape (http://www.inkscape.org/) -->

<svg
   width="32"
   height="32"
   viewBox="0 0 8.4666665 8.4666665"
   version="1.1"
   id="svg5"
   inkscape:version="1.2 (dc2aedaf03, 2022-05-15)"
   sodipodi:docname="folder-yellow-remote.svg"
   xmlns:inkscape="http://www.inkscape.org/namespaces/inkscape"
   xmlns:sodipodi="http://sodipodi.sourceforge.net/DTD/sodipodi-0.dtd"
   xmlns="http://www.w3.org/2000/svg"
   xmlns:svg="http://www.w3.org/2000/svg">
  <sodipodi:namedview
     id="namedview7"
     pagecolor="#ffffff"
     bordercolor="#666666"
     borderopacity="1.0"
     inkscape:pageshadow="2"
     inkscape:pageopacity="0.0"
     inkscape:pagecheckerboard="0"
     inkscape:document-units="px"
     showgrid="false"
     units="px"
     height="48px"
     inkscape:zoom="17.699767"
     inkscape:cx="6.0735263"
     inkscape:cy="19.068048"
     inkscape:window-width="1846"
     inkscape:window-height="1011"
     inkscape:window-x="0"
     inkscape:window-y="0"
     inkscape:window-maximized="1"
     inkscape:current-layer="svg5"
     inkscape:showpageshadow="2"
     inkscape:deskcolor="#d1d1d1" />
  <defs
     id="defs2" />
  <path
     d="M 1.3229166,0.79374998 H 3.4395833 L 4.2333333,1.5875 h 2.9104166 c 0.2931583,0 0.5291667,0.2360083 0.5291667,0.5291666 v 5.2916666 c 0,0.2931584 -0.2360084,0.5291667 -0.5291667,0.5291667 H 1.3229166 c -0.2931583,0 -0.52916662,-0.2360083 -0.52916662,-0.5291667 V 1.3229166 c 0,-0.2931583 0.23600832,-0.52916662 0.52916662,-0.52916662 z"
     style="display:inline;vector-effect:none;fill:#ffce51;fill-opacity:1;stroke:none;stroke-width:0.264583;stroke-linecap:round;stroke-linejoin:miter;stroke-miterlimit:4;stroke-dasharray:none;stroke-dashoffset:0;stroke-opacity:0.392157;enable-background:new"
     id="path3353" />
  <path
     d="m 1.3229166,0.79374998 c -0.2931583,0 -0.52916664,0.23600832 -0.52916664,0.52916662 v 6.0854165 c 0,0.2931583 0.23600834,0.5291667 0.52916664,0.5291667 h 5.8208333 c 0.2931583,0 0.5291666,-0.2360084 0.5291666,-0.5291667 V 2.1166665 C 7.6729165,1.8235082 7.4369082,1.5875 7.1437499,1.5875 H 4.2333333 L 3.4395833,0.79374998 H 2.1166666 Z m 0,1.32291652 h 5.8208333 c 0.1465791,0 0.2645833,0.1180042 0.2645833,0.2645834 v 4.7624999 c 0,0.1465791 -0.1180042,0.2645833 -0.2645833,0.2645833 H 1.3229166 c -0.1465792,0 -0.2645833,-0.1180042 -0.2645833,-0.2645833 V 2.3812499 c 0,-0.1465792 0.1180041,-0.2645834 0.2645833,-0.2645834 z"
     style="opacity:1;vector-effect:none;fill:#000000;fill-opacity:0.25;stroke:none;stroke-width:0.264583;stroke-linecap:round;stroke-linejoin:miter;stroke-miterlimit:4;stroke-dasharray:none;stroke-dashoffset:0;stroke-opacity:0.392157"
     id="path3791" />
  <path
     d="m 1.3229167,1.8520833 c -0.2931584,0 -0.52916672,0.2360083 -0.52916672,0.5291667 v 5.0270832 c 0,0.2931584 0.23600832,0.5291667 0.52916672,0.5291667 h 5.8208332 c 0.2931584,0 0.5291667,-0.2360083 0.5291667,-0.5291667 V 2.38125 c 0,-0.2931584 -0.2360083,-0.5291667 -0.5291667,-0.5291667 z m 0,0.2645833 h 5.8208332 c 0.1465792,0 0.2645834,0.1180042 0.2645834,0.2645834 v 4.7624999 c 0,0.1465792 -0.1180042,0.2645833 -0.2645834,0.2645833 H 1.3229167 c -0.1465792,0 -0.2645834,-0.1180041 -0.2645834,-0.2645833 V 2.38125 c 0,-0.1465792 0.1180042,-0.2645834 0.2645834,-0.2645834 z"
     style="display:inline;vector-effect:none;fill:#000000;fill-opacity:0.25;stroke:none;stroke-width:0.529167;stroke-linecap:round;stroke-miterlimit:4;stroke-dasharray:none;stroke-opacity:1;enable-background:new"
     id="path3572" />
  <path
     d="m 4.2333597,3.4395833 c -0.3830426,0 -0.7662043,0.073078 -1.1265482,0.2191014 C 2.9266408,3.7317362 2.7518994,3.8230439 2.585913,3.9325814 2.4199293,4.0421189 2.2628171,4.169992 2.116693,4.3160155 l 1.7332272,2.0985957 h 5.292e-4 c 0.099811,0.1040077 0.2377334,0.1627981 0.381889,0.1627716 0.144563,-2.381e-4 0.2827337,-0.059611 0.3824049,-0.1643327 h 0.00106 L 6.3500615,4.3160155 C 6.130701,4.0967818 5.8859508,3.9186643 5.6250399,3.7816895 c -0.0059,-0.00317 -0.012171,-0.00529 -0.018097,-0.0082 C 5.5139509,3.7254391 5.4187273,3.6834762 5.3222073,3.6458524 5.2858748,3.6318295 5.248886,3.6196587 5.2121354,3.607091 5.1449974,3.5838076 5.0773672,3.5628262 5.0090492,3.5445435 4.9670333,3.5331664 4.924819,3.5228476 4.8824407,3.5135608 4.8126384,3.4982149 4.7421534,3.4857001 4.6716022,3.475302 4.6330128,3.4694812 4.59459,3.4628666 4.555847,3.4588978 4.4486035,3.4472562 4.3411668,3.4398478 4.2333861,3.4398478 Z"
     style="display:inline;opacity:0.3;fill:#000000;fill-opacity:1;stroke:none;stroke-width:0.140009;stroke-linecap:square;stroke-linejoin:miter;stroke-miterlimit:4;stroke-dasharray:none;stroke-opacity:1;enable-background:new"
     id="path2168" />
  <path
     d="m 4.2333332,3.1749999 c -0.3830426,0 -0.7662042,0.073078 -1.1265482,0.2191014 C 2.9266144,3.4671528 2.7518729,3.5584605 2.5858866,3.667998 2.4199029,3.7775355 2.2627907,3.9054086 2.1166666,4.0514321 l 1.7332272,2.0985956 h 5.291e-4 c 0.099811,0.1040078 0.2377334,0.1627982 0.381889,0.1627717 0.1445631,-2.381e-4 0.2827338,-0.059611 0.382405,-0.1643327 h 0.00106 l 1.73426,-2.0970346 C 6.1306762,3.8321984 5.885926,3.6540809 5.6250151,3.5171061 c -0.0059,-0.00317 -0.012171,-0.00529 -0.018097,-0.0082 C 5.5139245,3.4608557 5.4187009,3.4188928 5.3221809,3.381269 5.2858484,3.3672461 5.2488596,3.3550753 5.212109,3.3425076 5.144971,3.3192242 5.0773408,3.2982428 5.0090228,3.2799601 4.9670069,3.268583 4.9247926,3.2582642 4.8824143,3.2489774 4.812612,3.2336315 4.742127,3.2211167 4.6715758,3.2107186 4.6329863,3.2048978 4.5945635,3.1982832 4.5558206,3.1943145 4.448577,3.1826728 4.3411403,3.1752645 4.2333597,3.1752645 Z"
     style="display:inline;fill:#ffe49f;fill-opacity:1;stroke:none;stroke-width:0.529167;stroke-linecap:square;stroke-linejoin:miter;stroke-miterlimit:4;stroke-dasharray:none;stroke-opacity:1;enable-background:new"
     id="path13492"
     sodipodi:nodetypes="cccccccccccccccccccc" />
  <path
     d="m 4.2338624,3.9687498 c -0.5893462,0 -1.1786711,0.2244725 -1.6283252,0.6738673 l 1.2448857,1.5074106 h 5.292e-4 c 0.099811,0.1040077 0.2377334,0.1627981 0.381889,0.1627717 0.144563,-2.381e-4 0.2827337,-0.059611 0.3824049,-0.1643327 h 0.00106 l 1.2454,-1.5063788 C 5.4121181,4.1930636 4.8230127,3.9687498 4.2338994,3.9687498 Z"
     style="display:inline;fill:#ffffff;fill-opacity:1;stroke:none;stroke-width:0.529167;stroke-linecap:square;stroke-linejoin:miter;stroke-miterlimit:4;stroke-dasharray:none;stroke-opacity:1;enable-background:new"
     id="path13612" />
</svg>
