<?xml version="1.0" encoding="UTF-8" standalone="no"?>
<!-- Created with Inkscape (http://www.inkscape.org/) -->

<svg
   width="32"
   height="32"
   viewBox="0 0 8.4666665 8.4666665"
   version="1.1"
   id="svg5"
   inkscape:version="1.1.2 (0a00cf5339, 2022-02-04, custom)"
   sodipodi:docname="user-trash.svg"
   xmlns:inkscape="http://www.inkscape.org/namespaces/inkscape"
   xmlns:sodipodi="http://sodipodi.sourceforge.net/DTD/sodipodi-0.dtd"
   xmlns="http://www.w3.org/2000/svg"
   xmlns:svg="http://www.w3.org/2000/svg">
  <sodipodi:namedview
     id="namedview7"
     pagecolor="#ffffff"
     bordercolor="#666666"
     borderopacity="1.0"
     inkscape:pageshadow="2"
     inkscape:pageopacity="0.0"
     inkscape:pagecheckerboard="0"
     inkscape:document-units="px"
     showgrid="false"
     units="px"
     height="48px"
     inkscape:zoom="12.515625"
     inkscape:cx="11.705368"
     inkscape:cy="19.01623"
     inkscape:window-width="1920"
     inkscape:window-height="1017"
     inkscape:window-x="0"
     inkscape:window-y="0"
     inkscape:window-maximized="1"
     inkscape:current-layer="svg5" />
  <defs
     id="defs2" />
  <path
     d="m 1.85354,0.52916666 c -0.2931583,0 -0.55245,0.23706666 -0.5291666,0.52916664 L 1.85354,7.6729165 c 1.190625,0.6614584 3.571875,0.6614584 4.7624999,0 L 7.1452066,1.0583333 C 7.1684899,0.76596874 6.9091983,0.52916666 6.6160399,0.52916666 Z"
     style="fill:#898989;stroke-width:0.132292"
     id="path2651" />
  <path
     style="color:#000000;opacity:0.35;fill:#000000;stroke-width:0.264583;-inkscape-stroke:none"
     d="M 5.8208333,1.0527771 5.5562499,7.1381936 5.8208333,7.1495707 6.0854166,1.0641541 Z"
     id="path59" />
  <path
     style="color:#000000;opacity:0.35;fill:#ffffff;stroke-width:0.264583;-inkscape-stroke:none"
     d="M 5.5562499,1.0527771 5.2916666,7.1381936 5.5562499,7.1495707 5.8208333,1.0641541 Z"
     id="path61" />
  <path
     style="color:#000000;opacity:0.35;fill:#000000;stroke-width:0.264583;-inkscape-stroke:none"
     d="M 2.6458333,1.0527771 2.38125,1.0641541 2.6458333,7.1495707 2.9104166,7.1381936 Z"
     id="path65" />
  <path
     style="color:#000000;opacity:0.35;fill:#ffffff;stroke-width:0.264583;-inkscape-stroke:none"
     d="M 2.9104166,1.0527771 2.6458333,1.0641541 2.9104166,7.1495707 3.175,7.1381936 Z"
     id="path67" />
  <path
     style="color:#000000;opacity:0.35;fill:#000000;stroke-width:0.264583;-inkscape-stroke:none"
     d="M 4.2333333,1.0584603 V 7.4084602 H 4.4979166 V 1.0584603 Z"
     id="path71" />
  <path
     style="color:#000000;opacity:0.35;fill:#ffffff;stroke-width:0.264583;-inkscape-stroke:none"
     d="M 3.9687499,1.0584603 V 7.4084602 H 4.2333333 V 1.0584603 Z"
     id="path73" />
  <path
     d="m 1.85354,0.52916666 c -0.2931583,0 -0.55245,0.23706666 -0.5291666,0.52916664 L 1.85354,7.6729165 c 1.190625,0.6614584 3.571875,0.6614584 4.7624999,0 L 7.1452066,1.0583333 C 7.1684899,0.76596874 6.9091983,0.52916666 6.6160399,0.52916666 Z m 0,0.26458333 h 4.7624999 c 0.1465792,0 0.2645834,0.11800415 0.2645834,0.26458331 L 6.3514566,7.1437499 c -1.190625,0.6614583 -3.0427083,0.6614583 -4.2333332,0 L 1.5889567,1.0583333 c 0,-0.14657916 0.1180042,-0.26458331 0.2645833,-0.26458331 z"
     style="opacity:0.5;fill:#000000;fill-opacity:0.977083;stroke-width:0.132292"
     id="path2421" />
</svg>
