<?xml version="1.0" encoding="UTF-8" standalone="no"?>
<!-- Created with Inkscape (http://www.inkscape.org/) -->

<svg
   width="32"
   height="32"
   viewBox="0 0 8.4666665 8.4666665"
   version="1.1"
   id="svg5"
   inkscape:version="1.1.2 (0a00cf5339, 2022-02-04, custom)"
   sodipodi:docname="user-trash-full.svg"
   xmlns:inkscape="http://www.inkscape.org/namespaces/inkscape"
   xmlns:sodipodi="http://sodipodi.sourceforge.net/DTD/sodipodi-0.dtd"
   xmlns="http://www.w3.org/2000/svg"
   xmlns:svg="http://www.w3.org/2000/svg">
  <sodipodi:namedview
     id="namedview7"
     pagecolor="#ffffff"
     bordercolor="#666666"
     borderopacity="1.0"
     inkscape:pageshadow="2"
     inkscape:pageopacity="0.0"
     inkscape:pagecheckerboard="0"
     inkscape:document-units="px"
     showgrid="false"
     units="px"
     height="48px"
     inkscape:zoom="12.515625"
     inkscape:cx="11.705368"
     inkscape:cy="19.01623"
     inkscape:window-width="1920"
     inkscape:window-height="1017"
     inkscape:window-x="0"
     inkscape:window-y="0"
     inkscape:window-maximized="1"
     inkscape:current-layer="svg5" />
  <defs
     id="defs2" />
  <path
     d="m 1.85354,0.52916666 c -0.2931583,0 -0.55245,0.23706666 -0.5291666,0.52916664 L 1.85354,7.6729165 c 1.190625,0.6614584 3.571875,0.6614584 4.7624999,0 L 7.1452066,1.0583333 C 7.1684899,0.76596874 6.9091983,0.52916666 6.6160399,0.52916666 Z"
     style="fill:#898989;stroke-width:0.132292"
     id="path2651" />
  <path
     d="M 4.2994791,1.4205479 3.4742067,2.1279982 4.2049117,2.858703 4.6756822,3.5987095 4.45244,3.7408196 3.9971715,3.0256178 3.279902,2.3078323 3.3734375,2.2142979 2.9765625,1.8174229 2.3151041,2.7434646 2.9760465,3.2721145 2.8938802,3.1697951 3.5553385,2.6406284 3.7207031,2.8468174 3.0592448,3.3759841 2.9765625,3.2726312 2.3151041,3.8017979 2.7119791,4.4632562 2.745052,4.4560225 3.01997,5.1603722 3.5785927,4.6958011 3.7480927,4.8988895 3.1548466,5.3923993 3.0706139,5.2905969 2.4773678,5.78359 3.0111858,6.6383182 4.0369622,6.3458296 3.9914882,6.2218061 5.2585937,5.7577518 5.3495442,6.0063154 4.1165436,6.4579674 4.7216747,7.3111452 5.555734,6.6460697 5.8766445,5.2580407 5.0508534,4.5505904 4.4410735,5.3841311 3.7816816,5.9629071 3.6075329,5.7639529 4.2447024,5.2048139 4.8436318,4.3862593 5.051372,4.538188 5.2255208,4.4632562 5.1857301,4.1428625 5.2818479,4.0110875 5.1614413,3.950626 5.0932291,3.4049229 4.9635224,3.431278 4.6989391,2.1083614 4.9583525,2.0561683 5.2157021,3.3434282 6.1515624,2.8757565 5.6223958,1.9497148 Z m -0.6800612,2.0489706 0.396875,0.6614583 -0.053745,0.032039 0.5947966,0.5462201 -0.1788002,0.1948199 -0.623734,-0.5725747 0.0894,-0.097668 -0.055295,0.033073 -0.396875,-0.6614583 z"
     style="fill:#ededed;fill-opacity:1;stroke-width:0.264583"
     id="path2202" />
  <path
     d="m 1.85354,0.52916666 c -0.2931583,0 -0.55245,0.23706666 -0.5291666,0.52916664 L 1.85354,7.6729165 c 1.190625,0.6614584 3.571875,0.6614584 4.7624999,0 L 7.1452066,1.0583333 C 7.1684899,0.76596874 6.9091983,0.52916666 6.6160399,0.52916666 Z m 0,0.26458333 h 4.7624999 c 0.1465792,0 0.2645834,0.11800415 0.2645834,0.26458331 L 6.3514566,7.1437499 c -1.190625,0.6614583 -3.0427083,0.6614583 -4.2333332,0 L 1.5889567,1.0583333 c 0,-0.14657916 0.1180042,-0.26458331 0.2645833,-0.26458331 z"
     style="opacity:0.5;fill:#000000;fill-opacity:0.977083;stroke-width:0.132292"
     id="path2421" />
</svg>
