<?xml version="1.0" encoding="UTF-8" standalone="no"?>
<!-- Created with Inkscape (http://www.inkscape.org/) -->

<svg
   width="128"
   height="128"
   viewBox="0 0 33.866666 33.866668"
   version="1.1"
   id="svg1099"
   inkscape:version="1.2 (dc2aedaf03, 2022-05-15)"
   sodipodi:docname="image-missing.svg"
   xmlns:inkscape="http://www.inkscape.org/namespaces/inkscape"
   xmlns:sodipodi="http://sodipodi.sourceforge.net/DTD/sodipodi-0.dtd"
   xmlns="http://www.w3.org/2000/svg"
   xmlns:svg="http://www.w3.org/2000/svg">
  <sodipodi:namedview
     id="namedview1101"
     pagecolor="#ffffff"
     bordercolor="#666666"
     borderopacity="1.0"
     inkscape:pageshadow="2"
     inkscape:pageopacity="0.0"
     inkscape:pagecheckerboard="0"
     inkscape:document-units="px"
     showgrid="false"
     units="px"
     inkscape:zoom="6.359375"
     inkscape:cx="64.157248"
     inkscape:cy="64.235872"
     inkscape:window-width="1846"
     inkscape:window-height="1016"
     inkscape:window-x="0"
     inkscape:window-y="0"
     inkscape:window-maximized="1"
     inkscape:current-layer="svg1099"
     inkscape:showpageshadow="2"
     inkscape:deskcolor="#d1d1d1"
     showguides="false" />
  <defs
     id="defs1096" />
  <rect
     style="opacity:1;fill:#245c63;fill-opacity:1;stroke-width:0.529166"
     id="rect1196"
     width="29.633333"
     height="23.283333"
     x="2.1166668"
     y="7.4083338"
     ry="2.1166668" />
  <rect
     style="opacity:1;fill:#48b9c7;fill-opacity:1;stroke-width:0.529167;stroke-linecap:round;stroke-linejoin:bevel"
     id="rect16828"
     width="29.104166"
     height="21.960417"
     x="2.3812504"
     y="7.6729169"
     ry="1.984375" />
  <rect
     style="fill:#f6f6f6;fill-opacity:1;stroke-width:0.529167"
     id="rect2612"
     width="23.283333"
     height="15.875"
     x="5.291667"
     y="10.583336"
     ry="1.0583334" />
  <path
     d="m 13.758333,14.2875 c -0.584502,0 -1.058333,0.473832 -1.058333,1.058333 6e-5,0.280665 0.111601,0.549812 0.310091,0.748242 l 2.426759,2.426758 -2.426759,2.426759 c -0.19849,0.19843 -0.310031,0.467577 -0.310091,0.748241 0,0.584502 0.473831,1.058334 1.058333,1.058334 0.280664,-6e-5 0.549812,-0.111602 0.748242,-0.310092 l 2.426758,-2.426758 2.41644,2.416439 c 0.199232,0.204826 0.472821,0.320389 0.75856,0.320411 0.584502,0 1.058334,-0.473832 1.058334,-1.058334 -6.1e-5,-0.280664 -0.111603,-0.549811 -0.310092,-0.748241 l -2.426759,-2.426759 2.41644,-2.416439 c 0.204729,-0.199277 0.320193,-0.472861 0.320146,-0.758561 0,-0.584501 -0.473832,-1.058333 -1.058333,-1.058333 -0.280573,1.3e-4 -0.549613,0.111667 -0.747978,0.310092 l -2.426758,2.426758 -2.41644,-2.41644 c -0.0035,-0.0035 -0.007,-0.0071 -0.01058,-0.01058 -0.198408,-0.198329 -0.467442,-0.309766 -0.747977,-0.309827 z"
     style="fill:#f15d22;stroke-width:0.264583"
     id="path4953" />
</svg>
