<?xml version="1.0" encoding="UTF-8" standalone="no"?>
<!-- Created with Inkscape (http://www.inkscape.org/) -->

<svg
   width="128"
   height="128"
   viewBox="0 0 33.866666 33.866668"
   version="1.1"
   id="svg1099"
   inkscape:version="1.2.1 (9c6d41e410, 2022-07-14, custom)"
   sodipodi:docname="locked.svg"
   xmlns:inkscape="http://www.inkscape.org/namespaces/inkscape"
   xmlns:sodipodi="http://sodipodi.sourceforge.net/DTD/sodipodi-0.dtd"
   xmlns="http://www.w3.org/2000/svg"
   xmlns:svg="http://www.w3.org/2000/svg">
  <sodipodi:namedview
     id="namedview1101"
     pagecolor="#ffffff"
     bordercolor="#666666"
     borderopacity="1.0"
     inkscape:pageshadow="2"
     inkscape:pageopacity="0.0"
     inkscape:pagecheckerboard="0"
     inkscape:document-units="px"
     showgrid="false"
     units="px"
     inkscape:zoom="6.265625"
     inkscape:cx="63.9202"
     inkscape:cy="64"
     inkscape:window-width="1920"
     inkscape:window-height="1011"
     inkscape:window-x="0"
     inkscape:window-y="0"
     inkscape:window-maximized="1"
     inkscape:current-layer="svg1099"
     inkscape:showpageshadow="2"
     inkscape:deskcolor="#d1d1d1"
     showguides="false" />
  <defs
     id="defs1096" />
  <path
     id="rect353"
     style="fill:#6f6f6f;fill-opacity:1;stroke-width:0.26783;stroke-linecap:round;stroke-linejoin:round"
     d="m 16.933333,1.8520833 c -4.250792,0 -7.6729162,3.4221251 -7.6729162,7.6729171 v 6.6145826 c 0,4.250792 3.4221242,7.672917 7.6729162,7.672917 4.250792,0 7.672917,-3.422125 7.672917,-7.672917 V 9.5250004 c 0,-4.250792 -3.422125,-7.6729171 -7.672917,-7.6729171 z m 0,3.4395834 c 2.785001,0 5.027084,2.2420821 5.027084,5.0270833 v 4.365625 c 0,2.785001 -2.242083,5.027083 -5.027084,5.027083 -2.785001,0 -5.027083,-2.242082 -5.027083,-5.027083 V 10.31875 c 0,-2.7850012 2.242082,-5.0270833 5.027083,-5.0270833 z" />
  <path
     d="m 16.933333,2.1166666 c -4.104217,0 -7.4083329,3.3041168 -7.4083329,7.4083338 V 24.341667 c 0,4.104217 3.3041159,7.408333 7.4083329,7.408333 4.104217,0 7.408334,-3.304116 7.408334,-7.408333 V 9.5250004 c 0,-4.104217 -3.304117,-7.4083338 -7.408334,-7.4083338 z m 0,2.1166667 c 2.931584,0 5.291667,2.3600834 5.291667,5.2916671 V 24.341667 c 0,2.931583 -2.360083,5.291667 -5.291667,5.291667 -2.931583,0 -5.291667,-2.360084 -5.291667,-5.291667 V 9.5250004 c 0,-2.9315837 2.360084,-5.2916671 5.291667,-5.2916671 z"
     style="fill:#dedede;stroke-width:0.264583"
     id="path700" />
  <rect
     style="fill:#ffce51;fill-opacity:1;stroke-width:0.278752;stroke-linecap:round;stroke-linejoin:round"
     id="rect896"
     width="23.283335"
     height="16.933334"
     x="5.2916665"
     y="14.816667"
     ry="2.1166668" />
  <path
     d="m 7.4083334,14.816667 c -1.1726334,0 -2.1166667,0.944033 -2.1166667,2.116666 v 1.058334 H 28.575 v -1.058334 c 0,-1.172633 -0.944033,-2.116666 -2.116667,-2.116666 z M 5.2916667,28.575 v 1.058334 C 5.2916667,30.805967 6.2357,31.75 7.4083334,31.75 H 26.458333 c 1.172634,0 2.116667,-0.944033 2.116667,-2.116666 V 28.575 Z"
     style="opacity:0.1;fill:#000000;fill-opacity:1;stroke-width:0.264583"
     id="path1097" />
  <path
     id="rect777"
     style="opacity:0.5;fill:#000000;fill-opacity:1;stroke-width:0.264583;stroke-linecap:round;stroke-linejoin:round"
     d="m 7.4083334,14.816667 c -1.1726323,0 -2.1166667,0.944034 -2.1166667,2.116666 v 12.700001 c 0,1.172633 0.9440344,2.116666 2.1166667,2.116666 H 26.458333 c 1.172634,0 2.116667,-0.944033 2.116667,-2.116666 V 16.933333 c 0,-1.172632 -0.944033,-2.116666 -2.116667,-2.116666 z m 0,0.264583 H 26.458333 c 1.026055,0 1.852084,0.82603 1.852084,1.852083 v 11.906251 c 0,1.026054 -0.826029,1.852083 -1.852084,1.852083 H 7.4083334 c -1.0260531,0 -1.8520834,-0.826029 -1.8520834,-1.852083 V 16.933333 c 0,-1.026053 0.8260303,-1.852083 1.8520834,-1.852083 z" />
</svg>
