<?xml version="1.0" encoding="UTF-8" standalone="no"?>
<!-- Created with Inkscape (http://www.inkscape.org/) -->

<svg
   width="128"
   height="128"
   viewBox="0 0 33.866666 33.866668"
   version="1.1"
   id="svg1099"
   inkscape:version="1.2 (dc2aedaf03, 2022-05-15)"
   sodipodi:docname="system-shutdown.svg"
   xmlns:inkscape="http://www.inkscape.org/namespaces/inkscape"
   xmlns:sodipodi="http://sodipodi.sourceforge.net/DTD/sodipodi-0.dtd"
   xmlns="http://www.w3.org/2000/svg"
   xmlns:svg="http://www.w3.org/2000/svg">
  <sodipodi:namedview
     id="namedview1101"
     pagecolor="#ffffff"
     bordercolor="#666666"
     borderopacity="1.0"
     inkscape:pageshadow="2"
     inkscape:pageopacity="0.0"
     inkscape:pagecheckerboard="0"
     inkscape:document-units="px"
     showgrid="false"
     units="px"
     inkscape:zoom="6.589334"
     inkscape:cx="34.677253"
     inkscape:cy="48.108049"
     inkscape:window-width="1920"
     inkscape:window-height="1011"
     inkscape:window-x="0"
     inkscape:window-y="0"
     inkscape:window-maximized="1"
     inkscape:current-layer="svg1099"
     inkscape:showpageshadow="2"
     inkscape:deskcolor="#d1d1d1" />
  <defs
     id="defs1096" />
  <rect
     style="opacity:1;fill:#cf3b00;fill-opacity:1;stroke-width:0.529166"
     id="rect1196"
     width="31.75"
     height="32.543751"
     x="1.0583334"
     y="1.0583334"
     ry="15.875" />
  <path
     d="m 16.933276,9.2696772 c -0.65749,0 -1.322917,0.528484 -1.322917,1.1859738 v 5.953125 c 0,0.65749 0.665427,1.195276 1.322917,1.195276 0.657489,0 1.322917,-0.537786 1.322917,-1.195276 v -5.953125 c 0,-0.6574898 -0.665428,-1.1859738 -1.322917,-1.1859738 z m -4.571815,3.3098738 c -0.351944,-7e-6 -0.685859,0.155694 -0.912088,0.425297 -0.03667,0.04354 -0.07018,0.08965 -0.100253,0.137977 -1.4196255,1.783759 -1.9021455,4.138179 -1.298628,6.336565 0.863389,3.104133 3.695459,5.247968 6.917407,5.236371 3.222212,-0.01825 6.034205,-2.189291 6.867282,-5.302001 0.577228,-2.187475 0.08399,-4.519081 -1.329634,-6.285405 -0.218394,-0.341234 -0.595319,-0.547998 -1.000456,-0.548804 -0.657564,0 -1.190625,0.533061 -1.190625,1.190625 -2.38e-4,0.286824 0.103073,0.564094 0.290938,0.780831 0.979176,1.1826 1.325568,2.765917 0.929659,4.249354 -0.550964,2.078368 -2.428901,3.527777 -4.579049,3.53415 -2.150218,0.01431 -4.042213,-1.416769 -4.613672,-3.489708 -0.415865,-1.497161 -0.07268,-3.103072 0.918805,-4.29948 l 0.0098,-0.0093 v -5.29e-4 -5.3e-4 -5.29e-4 -5.29e-4 -5.29e-4 c 0.180401,-0.213532 0.279918,-0.483729 0.28112,-0.763262 0,-0.657564 -0.533061,-1.190625 -1.190625,-1.190625 z"
     id="path1692"
     style="fill:#ffffff;stroke-width:0.264583" />
  <path
     d="m 16.933334,1.0583333 c -8.7947505,0 -15.8750007,7.0802501 -15.8750007,15.8750007 v 0.79375 c 0,8.79475 7.0802502,15.875 15.8750007,15.875 8.79475,0 15.875,-7.08025 15.875,-15.875 v -0.79375 c 0,-8.7947506 -7.08025,-15.8750007 -15.875,-15.8750007 z m 0,0.2645833 c 8.648171,0 15.610417,6.962246 15.610417,15.6104174 0,8.648171 -6.962246,15.610417 -15.610417,15.610417 -8.6481713,0 -15.6104174,-6.962246 -15.6104174,-15.610417 0,-8.6481714 6.9622461,-15.6104174 15.6104174,-15.6104174 z"
     style="opacity:0.5;fill:#000000;fill-opacity:1;stroke-width:0.264583"
     id="path29047" />
</svg>
