<?xml version="1.0" encoding="UTF-8" standalone="no"?>
<!-- Created with Inkscape (http://www.inkscape.org/) -->

<svg
   width="16"
   height="16"
   viewBox="0 0 4.2333333 4.2333333"
   version="1.1"
   id="svg5"
   inkscape:version="1.2 (dc2aedaf03, 2022-05-15)"
   sodipodi:docname="system-reboot.svg"
   xmlns:inkscape="http://www.inkscape.org/namespaces/inkscape"
   xmlns:sodipodi="http://sodipodi.sourceforge.net/DTD/sodipodi-0.dtd"
   xmlns="http://www.w3.org/2000/svg"
   xmlns:svg="http://www.w3.org/2000/svg">
  <sodipodi:namedview
     id="namedview7"
     pagecolor="#ffffff"
     bordercolor="#666666"
     borderopacity="1.0"
     inkscape:pageshadow="2"
     inkscape:pageopacity="0.0"
     inkscape:pagecheckerboard="0"
     inkscape:document-units="px"
     showgrid="false"
     units="px"
     height="48px"
     inkscape:zoom="34.583333"
     inkscape:cx="5.7686748"
     inkscape:cy="12.187952"
     inkscape:window-width="1846"
     inkscape:window-height="1011"
     inkscape:window-x="0"
     inkscape:window-y="0"
     inkscape:window-maximized="1"
     inkscape:current-layer="svg5"
     showguides="true"
     inkscape:showpageshadow="2"
     inkscape:deskcolor="#d1d1d1" />
  <defs
     id="defs2" />
  <circle
     style="fill:#73c48f;fill-opacity:1;stroke-width:0.498076"
     id="path1430"
     cx="2.1166666"
     cy="2.1166666"
     r="2.1166666" />
  <path
     id="path1556"
     style="opacity:0.5;fill:#000000;fill-opacity:1;stroke-width:0.423333"
     d="M 2.1166666,0 C 0.94766503,0 0,0.94766503 0,2.1166666 3.6818945e-8,3.2856681 0.9476651,4.2333333 2.1166666,4.2333333 3.2856681,4.2333332 4.2333332,3.2856681 4.2333333,2.1166666 4.2333333,0.9476651 3.2856681,3.6818944e-8 2.1166666,0 Z m 0,0.26458333 c 1.0228764,0 1.8520833,0.82920697 1.8520833,1.85208327 0,1.0228763 -0.8292069,1.8520833 -1.8520833,1.8520833 -1.0228762,0 -1.85208327,-0.829207 -1.85208327,-1.8520833 -3e-8,-1.0228764 0.82920697,-1.85208327 1.85208327,-1.85208327 z" />
  <path
     d="m 1.8520833,0.79374999 c -0.3527776,0 -0.3527776,0.52916661 0,0.52916661 0.5845014,0 1.0583333,0.473832 1.0583333,1.0583334 H 2.38125 L 3.175,3.4395833 3.96875,2.38125 H 3.4395833 c 0,-0.8767521 -0.7107481,-1.58750001 -1.5875,-1.58750001 z m -0.79375,0 -0.79374997,1.05833331 h 0.52916666 c 0,0.8767519 0.71074801,1.5875 1.58750001,1.5875 0.3527777,0 0.3527777,-0.5291667 0,-0.5291667 -0.5845014,0 -1.0583333,-0.4738319 -1.0583333,-1.0583333 h 0.5291666 z"
     style="fill:#ffffff;fill-opacity:0.902;stroke-width:0.264583"
     id="path4370" />
</svg>
