<?xml version="1.0" encoding="UTF-8" standalone="no"?>
<!-- Created with Inkscape (http://www.inkscape.org/) -->

<svg
   width="16"
   height="16"
   viewBox="0 0 4.2333333 4.2333333"
   version="1.1"
   id="svg5"
   inkscape:version="1.2 (dc2aedaf03, 2022-05-15)"
   sodipodi:docname="system-lock-screen.svg"
   xmlns:inkscape="http://www.inkscape.org/namespaces/inkscape"
   xmlns:sodipodi="http://sodipodi.sourceforge.net/DTD/sodipodi-0.dtd"
   xmlns="http://www.w3.org/2000/svg"
   xmlns:svg="http://www.w3.org/2000/svg">
  <sodipodi:namedview
     id="namedview7"
     pagecolor="#ffffff"
     bordercolor="#666666"
     borderopacity="1.0"
     inkscape:pageshadow="2"
     inkscape:pageopacity="0.0"
     inkscape:pagecheckerboard="0"
     inkscape:document-units="px"
     showgrid="false"
     units="px"
     height="48px"
     inkscape:zoom="51.875"
     inkscape:cx="8.0192771"
     inkscape:cy="8.0192771"
     inkscape:window-width="1920"
     inkscape:window-height="1009"
     inkscape:window-x="0"
     inkscape:window-y="0"
     inkscape:window-maximized="1"
     inkscape:current-layer="svg5"
     inkscape:showpageshadow="2"
     inkscape:deskcolor="#d1d1d1" />
  <defs
     id="defs2" />
  <circle
     style="fill:#7b736e;stroke-width:0.264583;fill-opacity:1"
     id="path934"
     cx="2.1166666"
     cy="2.1166666"
     r="2.1166666" />
  <path
     d="M 2.1166665,0 C 0.94766381,0 -1.2919067e-7,0.94766343 -1.2919067e-7,2.1166666 -1.2919067e-7,3.2856698 0.94766381,4.2333332 2.1166665,4.2333332 c 1.1690027,0 2.1166666,-0.9476634 2.1166666,-2.1166666 C 4.2333331,0.94766343 3.2856692,0 2.1166665,0 Z m 0,0.26458333 c 1.0228773,0 1.8520833,0.82920677 1.8520833,1.85208327 0,1.0228765 -0.829206,1.8520833 -1.8520833,1.8520833 -1.0228774,0 -1.8520833,-0.8292068 -1.8520833,-1.8520833 0,-1.0228765 0.8292059,-1.85208327 1.8520833,-1.85208327 z"
     style="fill-opacity:1;stroke-width:0.264583;fill:#ffffff;opacity:0.5"
     id="path911" />
  <path
     d="M 2.1166666,1.0583333 C 1.8235083,1.0583333 1.5875,1.2993688 1.5875,1.5958344 V 1.8520833 H 1.3229167 V 2.9104167 H 2.9104166 V 1.8520833 H 2.6458333 V 1.5957021 c 0,-0.2963333 -0.2360083,-0.5373688 -0.5291667,-0.5373688 z m 0,0.2645834 c 0.1465792,0 0.2645834,0.1180041 0.2645834,0.2645833 V 1.8520833 H 1.8520833 V 1.5875 c 0,-0.1465792 0.1180042,-0.2645833 0.2645833,-0.2645833 z"
     style="color:#000000;fill:#ffffff;stroke-width:0.132291"
     id="path18264" />
</svg>
