<?xml version="1.0" encoding="UTF-8" standalone="no"?>
<!-- Created with Inkscape (http://www.inkscape.org/) -->

<svg
   width="16"
   height="16"
   viewBox="0 0 4.2333333 4.2333333"
   version="1.1"
   id="svg5"
   inkscape:version="1.2 (dc2aedaf03, 2022-05-15)"
   sodipodi:docname="system-suspend.svg"
   xmlns:inkscape="http://www.inkscape.org/namespaces/inkscape"
   xmlns:sodipodi="http://sodipodi.sourceforge.net/DTD/sodipodi-0.dtd"
   xmlns="http://www.w3.org/2000/svg"
   xmlns:svg="http://www.w3.org/2000/svg">
  <sodipodi:namedview
     id="namedview7"
     pagecolor="#ffffff"
     bordercolor="#666666"
     borderopacity="1.0"
     inkscape:pageshadow="2"
     inkscape:pageopacity="0.0"
     inkscape:pagecheckerboard="0"
     inkscape:document-units="px"
     showgrid="false"
     units="px"
     height="48px"
     inkscape:zoom="34.583333"
     inkscape:cx="5.7686748"
     inkscape:cy="12.187952"
     inkscape:window-width="1846"
     inkscape:window-height="1011"
     inkscape:window-x="0"
     inkscape:window-y="0"
     inkscape:window-maximized="1"
     inkscape:current-layer="svg5"
     showguides="true"
     inkscape:showpageshadow="2"
     inkscape:deskcolor="#d1d1d1" />
  <defs
     id="defs2" />
  <circle
     style="fill:#48b9c7;fill-opacity:1;stroke-width:0.498076"
     id="path1430"
     cx="2.1166666"
     cy="2.1166666"
     r="2.1166666" />
  <path
     id="path1556"
     style="opacity:0.5;fill:#000000;fill-opacity:1;stroke-width:0.423333"
     d="M 2.1166666,0 C 0.94766503,0 0,0.94766503 0,2.1166666 3.6818945e-8,3.2856681 0.9476651,4.2333333 2.1166666,4.2333333 3.2856681,4.2333332 4.2333332,3.2856681 4.2333333,2.1166666 4.2333333,0.9476651 3.2856681,3.6818944e-8 2.1166666,0 Z m 0,0.26458333 c 1.0228764,0 1.8520833,0.82920697 1.8520833,1.85208327 0,1.0228763 -0.8292069,1.8520833 -1.8520833,1.8520833 -1.0228762,0 -1.85208327,-0.829207 -1.85208327,-1.8520833 -3e-8,-1.0228764 0.82920697,-1.85208327 1.85208327,-1.85208327 z" />
  <path
     d="M 2.1117181,0.73025004 C 1.5531522,0.75018224 1.0636059,1.1097075 0.87743676,1.6367125 0.61867431,2.3584958 0.97956596,3.1620354 1.6899722,3.4247666 2.2294577,3.6242625 2.8125993,3.4538708 3.1750785,3.0461479 2.9066338,3.1356686 2.6157323,3.1312837 2.3501077,3.0337125 1.6905014,2.7897667 1.3520993,2.0462875 1.592341,1.3758333 1.6884079,1.1086168 1.8712746,0.88131444 2.1117181,0.73025004 Z"
     style="color:#bebebe;fill:#ffffff;stroke-width:0.264583"
     id="path6612" />
</svg>
