<?xml version="1.0" encoding="UTF-8" standalone="no"?>
<!-- Created with Inkscape (http://www.inkscape.org/) -->

<svg
   width="48"
   height="48"
   viewBox="0 0 12.7 12.7"
   version="1.1"
   id="svg5"
   inkscape:version="1.2 (dc2aedaf03, 2022-05-15)"
   sodipodi:docname="camera-web.svg"
   xmlns:inkscape="http://www.inkscape.org/namespaces/inkscape"
   xmlns:sodipodi="http://sodipodi.sourceforge.net/DTD/sodipodi-0.dtd"
   xmlns="http://www.w3.org/2000/svg"
   xmlns:svg="http://www.w3.org/2000/svg">
  <sodipodi:namedview
     id="namedview7"
     pagecolor="#ffffff"
     bordercolor="#666666"
     borderopacity="1.0"
     inkscape:pageshadow="2"
     inkscape:pageopacity="0.0"
     inkscape:pagecheckerboard="0"
     inkscape:document-units="px"
     showgrid="false"
     units="px"
     height="48px"
     inkscape:zoom="11.814576"
     inkscape:cx="25.392363"
     inkscape:cy="29.3705"
     inkscape:window-width="1920"
     inkscape:window-height="1016"
     inkscape:window-x="0"
     inkscape:window-y="0"
     inkscape:window-maximized="1"
     inkscape:current-layer="svg5"
     showguides="false"
     inkscape:showpageshadow="2"
     inkscape:deskcolor="#d1d1d1" />
  <defs
     id="defs2" />
  <rect
     style="opacity:1;fill:#e6e6e6;fill-opacity:1;stroke-width:0.264583"
     id="rect1040"
     width="11.641666"
     height="12.170834"
     x="0.52916664"
     y="0.52916664"
     ry="5.8208332" />
  <circle
     style="fill:#ac1800;fill-opacity:1;stroke-width:0.238559"
     id="path10609"
     cx="6.3499999"
     cy="6.3499999"
     r="2.9104166" />
  <circle
     style="fill:#cf3b00;fill-opacity:1;stroke-width:0.183172"
     id="path12167"
     cx="6.3499999"
     cy="6.3499999"
     r="2.3812499" />
  <circle
     style="opacity:0.25;fill:#ffffff;fill-opacity:1;stroke-width:0.198438"
     id="path13933"
     cx="6.3499999"
     cy="6.3499999"
     r="1.5875" />
  <path
     id="path13989"
     style="opacity:0.25;fill:#ffffff;fill-opacity:1;stroke-width:0.198438"
     d="m 5.2283627,5.2283629 a 1.5874999,1.5874999 0 0 0 -0.465863,1.121637 1.5874999,1.5874999 0 0 0 1.5875,1.5874997 1.5874999,1.5874999 0 0 0 1.1216373,-0.4658631 z" />
  <path
     id="path13994"
     style="opacity:0.25;fill:#ffffff;fill-opacity:1;stroke-width:0.198438"
     d="M 7.4724116,5.2275877 5.2283627,7.4716365 A 1.5874997,1.5874997 0 0 0 6.3499997,7.9374996 1.5874997,1.5874997 0 0 0 7.9374994,6.3499999 1.5874997,1.5874997 0 0 0 7.4724116,5.2275877 Z" />
  <path
     id="rect4520"
     style="opacity:0.5;fill:#000000;fill-opacity:1;stroke-width:0.999999"
     d="M 24 2 C 11.812001 2 2 11.812001 2 24 L 2 26 C 2 38.187999 11.812001 48 24 48 C 36.187999 48 46 38.187999 46 26 L 46 24 C 46 11.812001 36.187999 2 24 2 z M 24 3 A 21 21 0 0 1 45 24 A 21 21 0 0 1 24 45 A 21 21 0 0 1 3 24 A 21 21 0 0 1 24 3 z "
     transform="scale(0.26458333)" />
</svg>
