<?xml version="1.0" encoding="UTF-8" standalone="no"?>
<!-- Created with Inkscape (http://www.inkscape.org/) -->

<svg
   width="48"
   height="48"
   viewBox="0 0 12.7 12.7"
   version="1.1"
   id="svg5"
   inkscape:version="1.2 (dc2aedaf03, 2022-05-15)"
   sodipodi:docname="computer-laptop.svg"
   xmlns:inkscape="http://www.inkscape.org/namespaces/inkscape"
   xmlns:sodipodi="http://sodipodi.sourceforge.net/DTD/sodipodi-0.dtd"
   xmlns="http://www.w3.org/2000/svg"
   xmlns:svg="http://www.w3.org/2000/svg">
  <sodipodi:namedview
     id="namedview7"
     pagecolor="#ffffff"
     bordercolor="#666666"
     borderopacity="1.0"
     inkscape:pageshadow="2"
     inkscape:pageopacity="0.0"
     inkscape:pagecheckerboard="0"
     inkscape:document-units="px"
     showgrid="false"
     units="px"
     height="48px"
     inkscape:zoom="12.765625"
     inkscape:cx="5.5226438"
     inkscape:cy="22.913097"
     inkscape:window-width="1920"
     inkscape:window-height="1010"
     inkscape:window-x="0"
     inkscape:window-y="0"
     inkscape:window-maximized="1"
     inkscape:current-layer="svg5"
     inkscape:showpageshadow="2"
     inkscape:deskcolor="#d1d1d1"
     showguides="false" />
  <defs
     id="defs2" />
  <rect
     style="opacity:1;fill:#bfbfbf;fill-opacity:1;stroke-width:0.264583"
     id="rect2175"
     width="10.583333"
     height="7.1437497"
     x="1.0583334"
     y="2.9104166"
     ry="0.79374999" />
  <path
     d="m 1.8520827,2.9104166 c -0.4397375,0 -0.79375,0.3540125 -0.79375,0.79375 v 5.5562498 c 0,0.439738 0.3540125,0.7937496 0.79375,0.7937496 h 8.9958343 c 0.439737,0 0.79375,-0.3540116 0.79375,-0.7937496 V 3.7041666 c 0,-0.4397375 -0.354013,-0.79375 -0.79375,-0.79375 z m 0,0.2645834 h 8.9958343 c 0.293158,0 0.529166,0.2360083 0.529166,0.5291666 v 5.0270828 c 0,0.293159 -0.236008,0.529167 -0.529166,0.529167 H 1.8520827 c -0.2931583,0 -0.5291666,-0.236008 -0.5291666,-0.529167 V 3.7041666 C 1.3229161,3.4110083 1.5589244,3.175 1.8520827,3.175 Z"
     style="opacity:0.5;fill:#000000;fill-opacity:1;stroke-width:0.264583"
     id="path1483" />
  <rect
     style="fill:#222222;fill-opacity:1;stroke-width:0.734567"
     id="rect1437"
     width="8.9958334"
     height="5.0270834"
     x="1.8520834"
     y="3.7041669" />
  <rect
     style="opacity:1;fill:#bfbfbf;fill-opacity:1;stroke-width:0.264583"
     id="rect1162"
     width="11.1125"
     height="1.5875"
     x="0.79375017"
     y="9.7895823"
     ry="0.39687499" />
  <path
     d="m 1.190625,9.7895832 c -0.21986877,0 -0.39687502,0.177006 -0.39687502,0.3968748 v 0.79375 c 0,0.21987 0.17700625,0.396876 0.39687502,0.396876 h 10.318751 c 0.219868,0 0.396875,-0.177006 0.396875,-0.396876 v -0.79375 c 0,-0.2198688 -0.177007,-0.3968748 -0.396875,-0.3968748 z m 0,0.2645828 h 10.318751 c 0.07329,0 0.132291,0.059 0.132291,0.132292 v 0.529167 c 0,0.07329 -0.059,0.132291 -0.132291,0.132291 H 1.190625 c -0.073123,1.47e-4 -0.1324384,-0.05917 -0.1322917,-0.132291 v -0.529167 c 0,-0.07329 0.059002,-0.132292 0.1322917,-0.132292 z"
     style="opacity:0.5;fill:#000000;fill-opacity:1;stroke-width:0.264583"
     id="path1511" />
</svg>
