<?xml version="1.0" encoding="UTF-8" standalone="no"?>
<!-- Created with Inkscape (http://www.inkscape.org/) -->

<svg
   width="48"
   height="48"
   viewBox="0 0 12.7 12.7"
   version="1.1"
   id="svg5"
   inkscape:version="1.1.2 (0a00cf5339, 2022-02-04, custom)"
   sodipodi:docname="drive-harddisk-usb.svg"
   xmlns:inkscape="http://www.inkscape.org/namespaces/inkscape"
   xmlns:sodipodi="http://sodipodi.sourceforge.net/DTD/sodipodi-0.dtd"
   xmlns="http://www.w3.org/2000/svg"
   xmlns:svg="http://www.w3.org/2000/svg">
  <sodipodi:namedview
     id="namedview7"
     pagecolor="#ffffff"
     bordercolor="#666666"
     borderopacity="1.0"
     inkscape:pageshadow="2"
     inkscape:pageopacity="0.0"
     inkscape:pagecheckerboard="0"
     inkscape:document-units="px"
     showgrid="false"
     units="px"
     height="48px"
     inkscape:zoom="11.21875"
     inkscape:cx="-16.980501"
     inkscape:cy="20.32312"
     inkscape:window-width="1920"
     inkscape:window-height="1002"
     inkscape:window-x="0"
     inkscape:window-y="0"
     inkscape:window-maximized="1"
     inkscape:current-layer="svg5"
     showguides="false" />
  <defs
     id="defs2" />
  <rect
     style="opacity:1;fill:#565656;fill-opacity:1;stroke-width:0.264583"
     id="rect1319"
     width="8.9958334"
     height="12.170834"
     x="1.8520833"
     y="0.52916664"
     ry="0.92604166" />
  <rect
     style="opacity:1;fill:#acacac;fill-opacity:1;stroke-width:0.264583"
     id="rect1162"
     width="8.4666662"
     height="11.1125"
     x="2.1166666"
     y="0.79374999"
     ry="0.79374999" />
  <path
     d="M 6.35,1.8520833 5.55625,2.9104166 H 6.0854167 V 5.5562499 H 4.7625 V 4.6922213 c 0.1584484,-0.091223 0.2645834,-0.2622074 0.2645834,-0.4588881 0,-0.2931583 -0.2360084,-0.5291666 -0.5291667,-0.5291666 -0.2931583,0 -0.5291667,0.2360083 -0.5291667,0.5291666 0,0.1966807 0.106135,0.367665 0.2645834,0.4588881 v 1.1286119 c 0,0.1465792 0.1180041,0.2645834 0.2645833,0.2645834 h 1.5875 v 0.8660976 c -0.163277,0.094266 -0.2640648,0.2682849 -0.2645834,0.456819 0,0.2922508 0.2369159,0.5291667 0.5291667,0.5291667 0.2922508,0 0.5291667,-0.2369159 0.5291667,-0.5291667 C 6.8790159,7.2194286 6.7781779,7.0449306 6.6145833,6.9504797 V 6.0854166 h 1.5875 c 0.1465792,0 0.2645833,-0.1180042 0.2645833,-0.2645834 V 4.7624999 c 0.1465792,0 0.2645834,-0.1180042 0.2645834,-0.2645833 V 3.9687499 c 0,-0.1465791 -0.1180042,-0.2645833 -0.2645834,-0.2645833 H 7.9375 c -0.1465792,0 -0.2645833,0.1180042 -0.2645833,0.2645833 v 0.5291667 c 0,0.1465791 0.1180041,0.2645833 0.2645833,0.2645833 v 0.79375 H 6.6145833 V 2.9104166 H 7.14375 Z"
     style="fill:#444444;stroke-width:0.264583"
     id="path1708" />
</svg>
