<?xml version="1.0" encoding="UTF-8" standalone="no"?>
<!-- Created with Inkscape (http://www.inkscape.org/) -->

<svg
   width="48"
   height="48"
   viewBox="0 0 12.7 12.7"
   version="1.1"
   id="svg5"
   inkscape:version="1.2 (dc2aedaf03, 2022-05-15)"
   sodipodi:docname="input-mouse.svg"
   xmlns:inkscape="http://www.inkscape.org/namespaces/inkscape"
   xmlns:sodipodi="http://sodipodi.sourceforge.net/DTD/sodipodi-0.dtd"
   xmlns="http://www.w3.org/2000/svg"
   xmlns:svg="http://www.w3.org/2000/svg">
  <sodipodi:namedview
     id="namedview7"
     pagecolor="#ffffff"
     bordercolor="#666666"
     borderopacity="1.0"
     inkscape:pageshadow="2"
     inkscape:pageopacity="0.0"
     inkscape:pagecheckerboard="0"
     inkscape:document-units="px"
     showgrid="false"
     units="px"
     height="48px"
     inkscape:zoom="11.21875"
     inkscape:cx="11.67688"
     inkscape:cy="20.412256"
     inkscape:window-width="1920"
     inkscape:window-height="1009"
     inkscape:window-x="0"
     inkscape:window-y="0"
     inkscape:window-maximized="1"
     inkscape:current-layer="svg5"
     showguides="false"
     inkscape:showpageshadow="2"
     inkscape:deskcolor="#d1d1d1" />
  <defs
     id="defs2" />
  <rect
     style="opacity:1;fill:#98989d;fill-opacity:1;stroke-width:0.264583"
     id="rect1319"
     width="6.8791666"
     height="11.641666"
     x="2.9104166"
     y="0.52916664"
     ry="3.4395833" />
  <path
     id="rect1162"
     style="opacity:0.5;fill:#000000;fill-opacity:1;stroke-width:0.264583"
     d="M 6.35 0.52916667 C 4.4444728 0.52916667 2.9104167 2.0632228 2.9104167 3.96875 L 2.9104167 8.73125 C 2.9104167 10.636777 4.4444728 12.170833 6.35 12.170833 C 8.2555272 12.170833 9.7895833 10.636777 9.7895833 8.73125 L 9.7895833 3.96875 C 9.7895833 2.0632228 8.2555272 0.52916667 6.35 0.52916667 z M 6.35 0.79375 C 8.1089482 0.79375 9.525 2.2098018 9.525 3.96875 L 9.525 8.2020833 C 9.525 9.9610315 8.1089482 11.377083 6.35 11.377083 C 4.5910518 11.377083 3.175 9.9610315 3.175 8.2020833 L 3.175 3.96875 C 3.175 2.2098018 4.5910518 0.79375 6.35 0.79375 z " />
  <path
     d="M 6.35,0.52916667 V 12.170833 c 0.9755672,0 1.8537669,-0.402091 2.4785915,-1.050264 C 9.4242072,10.502697 9.7895833,9.6612115 9.7895833,8.7312495 V 3.96875 C 9.7895833,2.0632208 8.2555292,0.52916667 6.35,0.52916667 Z"
     style="fill:#ffffff;fill-opacity:0.2;stroke-width:0.264583"
     id="path15973" />
  <rect
     style="opacity:0.4;fill:#ffffff;fill-opacity:1;stroke-width:0.529167"
     id="rect20137"
     width="1.5875"
     height="4.4979167"
     x="5.5562501"
     y="1.5875"
     ry="0.80480498" />
  <rect
     style="opacity:1;fill:#343434;fill-opacity:1;stroke-width:0.529167"
     id="rect24547"
     width="1.0583333"
     height="3.7041667"
     x="5.8208337"
     y="2.1166666"
     ry="0.52916664" />
</svg>
