<?xml version="1.0" encoding="UTF-8" standalone="no"?>
<!-- Created with Inkscape (http://www.inkscape.org/) -->

<svg
   width="48"
   height="48"
   viewBox="0 0 12.7 12.7"
   version="1.1"
   id="svg5"
   inkscape:version="1.2 (dc2aedaf03, 2022-05-15)"
   sodipodi:docname="media-flash.svg"
   xmlns:inkscape="http://www.inkscape.org/namespaces/inkscape"
   xmlns:sodipodi="http://sodipodi.sourceforge.net/DTD/sodipodi-0.dtd"
   xmlns="http://www.w3.org/2000/svg"
   xmlns:svg="http://www.w3.org/2000/svg">
  <sodipodi:namedview
     id="namedview7"
     pagecolor="#ffffff"
     bordercolor="#666666"
     borderopacity="1.0"
     inkscape:pageshadow="2"
     inkscape:pageopacity="0.0"
     inkscape:pagecheckerboard="0"
     inkscape:document-units="px"
     showgrid="false"
     units="px"
     height="48px"
     inkscape:zoom="17.291667"
     inkscape:cx="24"
     inkscape:cy="24"
     inkscape:window-width="1920"
     inkscape:window-height="1009"
     inkscape:window-x="0"
     inkscape:window-y="0"
     inkscape:window-maximized="1"
     inkscape:current-layer="svg5"
     showguides="false"
     inkscape:showpageshadow="2"
     inkscape:deskcolor="#d1d1d1" />
  <defs
     id="defs2" />
  <path
     id="rect1162"
     style="opacity:1;fill:#463e39;stroke-width:0.264583"
     d="M 8.0697917,0.79375 10.847916,3.571875 V 11.1125 c 0,0.439738 -0.354012,0.79375 -0.79375,0.79375 H 2.9104165 c -0.4397374,0 -0.7937499,-0.354012 -0.7937499,-0.79375 V 0.79375 Z"
     sodipodi:nodetypes="ccsssscc" />
  <path
     id="rect31990"
     style="opacity:0.5;fill:#ffffff;stroke-width:0.529167"
     d="M 2.1166667 0.79375 L 2.1166667 11.1125 C 2.1166667 11.552238 2.4706797 11.90625 2.9104167 11.90625 L 10.054167 11.90625 C 10.493904 11.90625 10.847917 11.552238 10.847917 11.1125 L 10.847917 3.571875 L 8.0697917 0.79375 L 2.1166667 0.79375 z M 2.38125 1.0583333 L 7.8052083 1.0583333 L 10.583333 3.8364583 L 10.583333 10.583333 C 10.583333 10.876492 10.347324 11.1125 10.054167 11.1125 L 2.9104167 11.1125 C 2.6172586 11.1125 2.38125 10.876492 2.38125 10.583333 L 2.38125 1.0583333 z " />
  <rect
     style="opacity:1;fill:#ffce51;fill-opacity:1;stroke-width:0.151559"
     id="rect1437"
     width="7.1437502"
     height="1.3229166"
     x="2.9104166"
     y="9.5249996" />
</svg>
