<?xml version="1.0" encoding="UTF-8" standalone="no"?>
<!-- Created with Inkscape (http://www.inkscape.org/) -->

<svg
   width="48"
   height="48"
   viewBox="0 0 12.7 12.7"
   version="1.1"
   id="svg5"
   inkscape:version="1.2 (dc2aedaf03, 2022-05-15)"
   sodipodi:docname="multimedia-player.svg"
   xmlns:inkscape="http://www.inkscape.org/namespaces/inkscape"
   xmlns:sodipodi="http://sodipodi.sourceforge.net/DTD/sodipodi-0.dtd"
   xmlns="http://www.w3.org/2000/svg"
   xmlns:svg="http://www.w3.org/2000/svg">
  <sodipodi:namedview
     id="namedview7"
     pagecolor="#ffffff"
     bordercolor="#666666"
     borderopacity="1.0"
     inkscape:pageshadow="2"
     inkscape:pageopacity="0.0"
     inkscape:pagecheckerboard="0"
     inkscape:document-units="px"
     showgrid="false"
     units="px"
     height="48px"
     inkscape:zoom="17.020833"
     inkscape:cx="23.970624"
     inkscape:cy="24"
     inkscape:window-width="1920"
     inkscape:window-height="1010"
     inkscape:window-x="0"
     inkscape:window-y="0"
     inkscape:window-maximized="1"
     inkscape:current-layer="svg5"
     showguides="false"
     inkscape:showpageshadow="2"
     inkscape:deskcolor="#d1d1d1" />
  <defs
     id="defs2" />
  <rect
     style="opacity:1;fill:#545454;fill-opacity:1;stroke-width:0.264583"
     id="rect1162"
     width="8.4666662"
     height="11.1125"
     x="2.1166666"
     y="0.79374999"
     ry="0.79374999" />
  <rect
     style="opacity:1;fill:#222222;fill-opacity:1;stroke-width:0.361489"
     id="rect1437"
     width="6.8791666"
     height="4.4979167"
     x="2.9104166"
     y="1.5875" />
  <path
     d="M 5.3007202,2.4280814 C 5.1608887,2.4283962 5.0454449,2.5374659 5.0371952,2.6770543 H 5.036666 v 0.00688 l -5.292e-4,0.00873 c 0,0.00609 0,0.012435 5.292e-4,0.018521 L 5.0361368,4.980252 c 0,0.1461254 0.118458,0.2645833 0.2645834,0.2645833 0.038606,-1.323e-4 0.076716,-0.00871 0.1116541,-0.025135 l 5.292e-4,5.292e-4 0.00661,-0.0037 0.00106,-5.292e-4 c 0.00797,-0.00393 0.015745,-0.00826 0.023283,-0.012965 l 2.0759208,-1.1300354 0.00265,-0.00106 v -5.292e-4 c 0.1845895,-0.097072 0.1895343,-0.359596 0.00873,-0.46355 l -0.00476,-0.00265 -0.00106,-5.292e-4 -2.0962942,-1.1435272 h -5.292e-4 c -0.039162,-0.021537 -0.0831,-0.032909 -0.1277937,-0.033073 z"
     style="fill:#ededed;fill-opacity:1;stroke-width:0.264583;opacity:0.8"
     id="path1352" />
  <path
     d="M 4.6131551,6.6145836 C 4.2546846,6.6236049 3.96875,6.9153202 3.96875,7.276042 v 0.2645833 c 0,0.3664475 0.2950108,0.6614583 0.6614583,0.6614583 0.3664476,0 0.6614584,-0.2950108 0.6614584,-0.6614583 V 7.276042 c 0,-0.3664476 -0.2950108,-0.6614584 -0.6614584,-0.6614584 -0.00573,0 -0.011363,-1.432e-4 -0.017053,0 z m 3.4395833,0 C 7.6942679,6.6236049 7.4083333,6.9153202 7.4083333,7.276042 v 0.2645833 c 0,0.3664475 0.2950108,0.6614583 0.6614584,0.6614583 0.3664475,0 0.6614583,-0.2950108 0.6614583,-0.6614583 V 7.276042 c 0,-0.3664476 -0.2950108,-0.6614584 -0.6614583,-0.6614584 -0.00573,0 -0.011363,-1.432e-4 -0.017053,0 z m -3.4395833,2.38125 C 4.2546846,9.0048549 3.96875,9.2965702 3.96875,9.657292 v 0.264583 c 0,0.366448 0.2950108,0.661458 0.6614583,0.661458 0.3664476,0 0.6614584,-0.29501 0.6614584,-0.661458 V 9.657292 c 0,-0.3664476 -0.2950108,-0.6614584 -0.6614584,-0.6614584 -0.00573,0 -0.011363,-1.432e-4 -0.017053,0 z m 3.4395833,0 C 7.6942679,9.0048549 7.4083333,9.2965702 7.4083333,9.657292 v 0.264583 c 0,0.366448 0.2950108,0.661458 0.6614584,0.661458 0.3664475,0 0.6614583,-0.29501 0.6614583,-0.661458 V 9.657292 c 0,-0.3664476 -0.2950108,-0.6614584 -0.6614583,-0.6614584 -0.00573,0 -0.011363,-1.432e-4 -0.017053,0 z"
     style="opacity:1;fill:#222222;fill-opacity:1;stroke-width:0.529167"
     id="path2034" />
  <path
     id="rect2736"
     style="opacity:0.5;fill:#ffffff;fill-opacity:1;stroke-width:0.264583"
     d="m 2.9104166,0.79375007 c -0.4397374,0 -0.7937499,0.35401253 -0.7937499,0.79375003 v 9.5250009 c 0,0.439737 0.3540125,0.79375 0.7937499,0.79375 h 6.879166 c 0.4397384,0 0.7937504,-0.354013 0.7937504,-0.79375 V 1.5875001 c 0,-0.4397375 -0.354012,-0.79375003 -0.7937504,-0.79375003 z M 3.0427083,1.0583334 h 6.6145831 c 0.3664476,0 0.6614586,0.2950105 0.6614586,0.6614584 v 8.7312502 c 0,0.366448 -0.295011,0.661459 -0.6614586,0.661459 H 3.0427083 C 2.6762604,11.112501 2.38125,10.81749 2.38125,10.451042 V 1.7197918 c 0,-0.3664479 0.2950104,-0.6614584 0.6614583,-0.6614584 z"
     sodipodi:nodetypes="ssssssssssssssssss" />
  <path
     id="rect1911"
     style="opacity:0.5;fill:#ffffff;fill-opacity:1;stroke-width:0.529167"
     d="M 4.6131551 6.6145833 C 4.254685 6.6236046 3.96875 6.9153202 3.96875 7.2760417 L 3.96875 7.540625 C 3.96875 7.9070721 4.2637612 8.2020833 4.6302083 8.2020833 C 4.9966556 8.2020833 5.2916667 7.9070721 5.2916667 7.540625 L 5.2916667 7.2760417 C 5.2916667 6.9095944 4.9966556 6.6145833 4.6302083 6.6145833 C 4.6244783 6.6145833 4.6188453 6.6144401 4.6131551 6.6145833 z M 8.0527384 6.6145833 C 7.6942683 6.6236046 7.4083333 6.9153202 7.4083333 7.2760417 L 7.4083333 7.540625 C 7.4083333 7.9070721 7.7033444 8.2020833 8.0697917 8.2020833 C 8.4362388 8.2020833 8.73125 7.9070721 8.73125 7.540625 L 8.73125 7.2760417 C 8.73125 6.9095944 8.4362388 6.6145833 8.0697917 6.6145833 C 8.0640617 6.6145833 8.0584287 6.6144401 8.0527384 6.6145833 z M 4.6302083 7.14375 A 0.39687499 0.39687499 0 0 1 5.0270833 7.540625 A 0.39687499 0.39687499 0 0 1 4.6302083 7.9375 A 0.39687499 0.39687499 0 0 1 4.2333333 7.540625 A 0.39687499 0.39687499 0 0 1 4.6302083 7.14375 z M 8.0697917 7.14375 A 0.39687499 0.39687499 0 0 1 8.4666667 7.540625 A 0.39687499 0.39687499 0 0 1 8.0697917 7.9375 A 0.39687499 0.39687499 0 0 1 7.6729167 7.540625 A 0.39687499 0.39687499 0 0 1 8.0697917 7.14375 z M 4.6131551 8.9958333 C 4.254685 9.0048546 3.96875 9.2965702 3.96875 9.6572917 L 3.96875 9.921875 C 3.96875 10.288323 4.2637612 10.583333 4.6302083 10.583333 C 4.9966556 10.583333 5.2916667 10.288323 5.2916667 9.921875 L 5.2916667 9.6572917 C 5.2916667 9.2908444 4.9966556 8.9958333 4.6302083 8.9958333 C 4.6244783 8.9958333 4.6188453 8.9956901 4.6131551 8.9958333 z M 8.0527384 8.9958333 C 7.6942683 9.0048546 7.4083333 9.2965702 7.4083333 9.6572917 L 7.4083333 9.921875 C 7.4083333 10.288323 7.7033444 10.583333 8.0697917 10.583333 C 8.4362388 10.583333 8.73125 10.288323 8.73125 9.921875 L 8.73125 9.6572917 C 8.73125 9.2908444 8.4362388 8.9958333 8.0697917 8.9958333 C 8.0640617 8.9958333 8.0584287 8.9956901 8.0527384 8.9958333 z M 4.6302083 9.525 A 0.39687499 0.39687499 0 0 1 5.0270833 9.921875 A 0.39687499 0.39687499 0 0 1 4.6302083 10.31875 A 0.39687499 0.39687499 0 0 1 4.2333333 9.921875 A 0.39687499 0.39687499 0 0 1 4.6302083 9.525 z M 8.0697917 9.525 A 0.39687499 0.39687499 0 0 1 8.4666667 9.921875 A 0.39687499 0.39687499 0 0 1 8.0697917 10.31875 A 0.39687499 0.39687499 0 0 1 7.6729167 9.921875 A 0.39687499 0.39687499 0 0 1 8.0697917 9.525 z " />
</svg>
