<?xml version="1.0" encoding="UTF-8" standalone="no"?>
<!-- Created with Inkscape (http://www.inkscape.org/) -->

<svg
   width="48"
   height="48"
   viewBox="0 0 12.7 12.7"
   version="1.1"
   id="svg5"
   inkscape:version="1.2 (dc2aedaf03, 2022-05-15)"
   sodipodi:docname="network-firewall.svg"
   xmlns:inkscape="http://www.inkscape.org/namespaces/inkscape"
   xmlns:sodipodi="http://sodipodi.sourceforge.net/DTD/sodipodi-0.dtd"
   xmlns="http://www.w3.org/2000/svg"
   xmlns:svg="http://www.w3.org/2000/svg">
  <sodipodi:namedview
     id="namedview7"
     pagecolor="#ffffff"
     bordercolor="#666666"
     borderopacity="1.0"
     inkscape:pageshadow="2"
     inkscape:pageopacity="0.0"
     inkscape:pagecheckerboard="0"
     inkscape:document-units="px"
     showgrid="false"
     units="px"
     height="48px"
     inkscape:zoom="16.708333"
     inkscape:cx="7.3615962"
     inkscape:cy="25.466335"
     inkscape:window-width="1920"
     inkscape:window-height="1014"
     inkscape:window-x="0"
     inkscape:window-y="0"
     inkscape:window-maximized="1"
     inkscape:current-layer="svg5"
     inkscape:showpageshadow="2"
     inkscape:deskcolor="#d1d1d1" />
  <defs
     id="defs2" />
  <rect
     style="opacity:1;fill:#cf3b00;fill-opacity:1;stroke-width:0.264583"
     id="rect1162"
     width="10.583333"
     height="10.31875"
     x="1.0583333"
     y="1.3229166"
     ry="0.79374999" />
  <path
     id="rect3038"
     style="opacity:0.5;fill:#000000;stroke-width:0.264583"
     d="M 1.8520833 1.3229167 C 1.4123463 1.3229167 1.0583333 1.6769296 1.0583333 2.1166667 L 1.0583333 10.847917 C 1.0583333 11.287654 1.4123463 11.641667 1.8520833 11.641667 L 10.847917 11.641667 C 11.287654 11.641667 11.641667 11.287654 11.641667 10.847917 L 11.641667 2.1166667 C 11.641667 1.6769296 11.287654 1.3229167 10.847917 1.3229167 L 1.8520833 1.3229167 z M 1.8520833 1.5875 L 10.847917 1.5875 C 11.141075 1.5875 11.377083 1.8235086 11.377083 2.1166667 L 11.377083 10.31875 C 11.377083 10.611908 11.141075 10.847917 10.847917 10.847917 L 1.8520833 10.847917 C 1.5589253 10.847917 1.3229167 10.611908 1.3229167 10.31875 L 1.3229167 2.1166667 C 1.3229167 1.8235086 1.5589253 1.5875 1.8520833 1.5875 z " />
  <path
     d="m 6.6145831,3.96875 c -0.1465792,0 -0.2645834,0.1180042 -0.2645834,0.2645833 V 6.0854166 C 6.3499997,6.2319958 6.4680039,6.35 6.6145831,6.35 h 2.6458333 c 0.1465792,0 0.2645834,-0.1180042 0.2645834,-0.2645834 V 4.2333333 C 9.5249998,4.0867542 9.4069956,3.96875 9.2604164,3.96875 Z m 0.2645834,0.5291667 h 2.1166666 c 0.1465792,0 0.2645833,0.1180041 0.2645833,0.2645833 v 1.0583333 c 0,0.1465792 -0.1180041,0.2645833 -0.2645833,0.2645833 H 6.8791665 c -0.1465792,0 -0.2645835,-0.1180041 -0.2645835,-0.2645833 V 4.7625 c 0,-0.1465792 0.1180042,-0.2645833 0.2645835,-0.2645833 z M 3.4395831,3.96875 c -0.1465792,0 -0.2645834,0.1180042 -0.2645834,0.2645833 V 6.0854166 C 3.1749997,6.2319958 3.2930039,6.35 3.4395831,6.35 h 2.6458334 c 0.1465791,0 0.2645832,-0.1180042 0.2645832,-0.2645834 V 4.2333333 C 6.3499997,4.0867542 6.2319956,3.96875 6.0854165,3.96875 Z M 3.7041664,4.4979167 H 5.820833 c 0.1465792,0 0.2645834,0.1180041 0.2645834,0.2645833 v 1.0583333 c 0,0.1465792 -0.1180042,0.2645833 -0.2645834,0.2645833 H 3.7041664 c -0.1465792,0 -0.2645833,-0.1180041 -0.2645833,-0.2645833 V 4.7625 c 0,-0.1465792 0.1180041,-0.2645833 0.2645833,-0.2645833 z M 8.2020831,1.5875 c -0.1465792,0 -0.2645833,0.1180042 -0.2645833,0.2645833 v 1.8520834 c 0,0.1465791 0.1180041,0.2645833 0.2645833,0.2645833 h 2.6458329 c 0.146579,0 0.264583,-0.1180042 0.264583,-0.2645833 V 1.8520833 C 11.112499,1.7055042 10.994495,1.5875 10.847916,1.5875 Z m 0.2645833,0.5291667 h 2.1166666 c 0.146579,0 0.264583,0.1180042 0.264583,0.2645833 v 1.0583333 c 0,0.1465792 -0.118004,0.2645834 -0.264583,0.2645834 H 8.4666664 c -0.1465791,0 -0.2645833,-0.1180042 -0.2645833,-0.2645834 V 2.38125 c 0,-0.1465791 0.1180042,-0.2645833 0.2645833,-0.2645833 z M 5.0270831,1.5875 c -0.1465791,0 -0.2645834,0.1180042 -0.2645834,0.2645833 v 1.8520834 c 0,0.1465791 0.1180042,0.2645833 0.2645834,0.2645833 h 2.6458334 c 0.1465791,0 0.2645833,-0.1180042 0.2645833,-0.2645833 V 1.8520833 C 7.9374998,1.7055042 7.8194956,1.5875 7.6729165,1.5875 Z m 0.2645833,0.5291667 h 2.1166667 c 0.1465791,0 0.2645834,0.1180042 0.2645834,0.2645833 v 1.0583333 c 0,0.1465792 -0.1180042,0.2645834 -0.2645834,0.2645834 H 5.2916664 c -0.1465791,0 -0.2645833,-0.1180042 -0.2645833,-0.2645834 V 2.38125 c 0,-0.1465791 0.1180042,-0.2645833 0.2645833,-0.2645833 z M 1.8520831,1.5875 c -0.1465792,0 -0.2645833,0.1180042 -0.2645833,0.2645833 v 1.8520834 c 0,0.1465791 0.1180041,0.2645833 0.2645833,0.2645833 h 2.6458333 c 0.1465792,0 0.2645833,-0.1180042 0.2645833,-0.2645833 V 1.8520833 C 4.7624997,1.7055042 4.6444956,1.5875 4.4979164,1.5875 Z m 0.2645833,0.5291667 h 2.1166667 c 0.1465791,0 0.2645833,0.1180042 0.2645833,0.2645833 v 1.0583333 c 0,0.1465792 -0.1180042,0.2645834 -0.2645833,0.2645834 H 2.1166664 c -0.1465791,0 -0.2645833,-0.1180042 -0.2645833,-0.2645834 V 2.38125 c 0,-0.1465791 0.1180042,-0.2645833 0.2645833,-0.2645833 z M 1.8520831,6.35 c -0.1465792,0 -0.2645833,0.1180041 -0.2645833,0.2645833 v 1.5875 c 0,0.1465791 0.1180041,0.2645833 0.2645833,0.2645833 h 2.6458333 c 0.1465792,0 0.2645833,-0.1180042 0.2645833,-0.2645833 v -1.5875 C 4.7624997,6.4680041 4.6444956,6.35 4.4979164,6.35 Z m 0.2645833,0.5291666 h 2.1166667 c 0.1465791,0 0.2645833,0.1180042 0.2645833,0.2645834 v 0.7937499 c 0,0.1465792 -0.1180042,0.2645834 -0.2645833,0.2645834 H 2.1166664 c -0.1465791,0 -0.2645833,-0.1180042 -0.2645833,-0.2645834 V 7.14375 c 0,-0.1465792 0.1180042,-0.2645834 0.2645833,-0.2645834 z M 5.0270831,6.35 C 4.880504,6.35 4.7624997,6.4680041 4.7624997,6.6145833 v 1.5875 c 0,0.1465791 0.1180042,0.2645833 0.2645834,0.2645833 h 2.6458334 c 0.1465791,0 0.2645833,-0.1180042 0.2645833,-0.2645833 v -1.5875 C 7.9374998,6.4680041 7.8194956,6.35 7.6729165,6.35 Z m 0.2645833,0.5291666 h 2.1166667 c 0.1465791,0 0.2645834,0.1180042 0.2645834,0.2645834 v 0.7937499 c 0,0.1465792 -0.1180042,0.2645834 -0.2645834,0.2645834 H 5.2916664 c -0.1465791,0 -0.2645833,-0.1180042 -0.2645833,-0.2645834 V 7.14375 c 0,-0.1465792 0.1180042,-0.2645834 0.2645833,-0.2645834 z M 8.2020831,6.35 c -0.1465792,0 -0.2645833,0.1180041 -0.2645833,0.2645833 v 1.5875 c 0,0.1465791 0.1180041,0.2645833 0.2645833,0.2645833 h 2.6458329 c 0.146579,0 0.264583,-0.1180042 0.264583,-0.2645833 v -1.5875 C 11.112499,6.4680041 10.994495,6.35 10.847916,6.35 Z m 0.2645833,0.5291666 h 2.1166666 c 0.146579,0 0.264583,0.1180042 0.264583,0.2645834 v 0.7937499 c 0,0.1465792 -0.118004,0.2645834 -0.264583,0.2645834 H 8.4666664 c -0.1465791,0 -0.2645833,-0.1180042 -0.2645833,-0.2645834 V 7.14375 c 0,-0.1465792 0.1180042,-0.2645834 0.2645833,-0.2645834 z m -5.0270833,1.5875 c -0.1465792,0 -0.2645834,0.1180042 -0.2645834,0.2645833 v 1.8520831 c 0,0.146579 0.1180042,0.264584 0.2645834,0.264584 h 2.6458334 c 0.1465791,0 0.2645832,-0.118005 0.2645832,-0.264584 V 8.7312499 c 0,-0.1465791 -0.1180041,-0.2645833 -0.2645832,-0.2645833 z M 3.7041664,8.9958333 H 5.820833 c 0.1465792,0 0.2645834,0.1180041 0.2645834,0.2645833 V 10.31875 c 0,0.146579 -0.1180042,0.264583 -0.2645834,0.264583 H 3.7041664 c -0.1465792,0 -0.2645833,-0.118004 -0.2645833,-0.264583 V 9.2604166 c 0,-0.1465792 0.1180041,-0.2645833 0.2645833,-0.2645833 z M 6.6145831,8.4666666 c -0.1465792,0 -0.2645834,0.1180042 -0.2645834,0.2645833 v 1.8520831 c 0,0.146579 0.1180042,0.264584 0.2645834,0.264584 h 2.6458333 c 0.1465792,0 0.2645834,-0.118005 0.2645834,-0.264584 V 8.7312499 c 0,-0.1465791 -0.1180042,-0.2645833 -0.2645834,-0.2645833 z m 0.2645834,0.5291667 h 2.1166666 c 0.1465792,0 0.2645833,0.1180041 0.2645833,0.2645833 V 10.31875 c 0,0.146579 -0.1180041,0.264583 -0.2645833,0.264583 H 6.8791665 c -0.1465792,0 -0.2645835,-0.118004 -0.2645835,-0.264583 V 9.2604166 c 0,-0.1465792 0.1180042,-0.2645833 0.2645835,-0.2645833 z M 9.7895831,3.96875 c -0.1465792,0 -0.2645833,0.1180042 -0.2645833,0.2645833 V 6.0854166 C 9.5249998,6.2319958 9.6430039,6.35 9.7895831,6.35 h 1.3229159 c 0.14658,0 0.264584,-0.1180042 0.264584,-0.2645834 V 4.2333333 c 0,-0.1465791 -0.118004,-0.2645833 -0.264584,-0.2645833 z m 0.2645829,0.5291667 h 0.79375 c 0.146579,0 0.264583,0.1180041 0.264583,0.2645833 v 1.0583333 c 0,0.1465792 -0.118004,0.2645833 -0.264583,0.2645833 h -0.79375 c -0.1465787,0 -0.2645829,-0.1180041 -0.2645829,-0.2645833 V 4.7625 c 0,-0.1465792 0.1180042,-0.2645833 0.2645829,-0.2645833 z M 9.7895831,8.4666666 c -0.1465792,0 -0.2645833,0.1180042 -0.2645833,0.2645833 v 1.8520831 c 0,0.146579 0.1180041,0.264584 0.2645833,0.264584 h 1.3229159 c 0.14658,0 0.264584,-0.118005 0.264584,-0.264584 V 8.7312499 c 0,-0.1465791 -0.118004,-0.2645833 -0.264584,-0.2645833 z m 0.2645829,0.5291667 h 0.79375 c 0.146579,0 0.264583,0.1180041 0.264583,0.2645833 V 10.31875 c 0,0.146579 -0.118004,0.264583 -0.264583,0.264583 h -0.79375 c -0.1465787,0 -0.2645829,-0.118004 -0.2645829,-0.264583 V 9.2604166 c 0,-0.1465792 0.1180042,-0.2645833 0.2645829,-0.2645833 z M 1.5874998,8.4666666 c -0.1465792,0 -0.2645833,0.1180042 -0.2645833,0.2645833 v 1.8520831 c 0,0.146579 0.1180041,0.264584 0.2645833,0.264584 h 1.3229166 c 0.1465792,0 0.2645833,-0.118005 0.2645833,-0.264584 V 8.7312499 c 0,-0.1465791 -0.1180041,-0.2645833 -0.2645833,-0.2645833 z m 0.2645833,0.5291667 h 0.79375 c 0.1465791,0 0.2645833,0.1180041 0.2645833,0.2645833 V 10.31875 c 0,0.146579 -0.1180042,0.264583 -0.2645833,0.264583 h -0.79375 c -0.1465792,0 -0.2645833,-0.118004 -0.2645833,-0.264583 V 9.2604166 c 0,-0.1465792 0.1180041,-0.2645833 0.2645833,-0.2645833 z M 1.5874998,3.96875 c -0.1465792,0 -0.2645833,0.1180042 -0.2645833,0.2645833 V 6.0854166 C 1.3229165,6.2319958 1.4409206,6.35 1.5874998,6.35 h 1.3229166 c 0.1465792,0 0.2645833,-0.1180042 0.2645833,-0.2645834 V 4.2333333 C 3.1749997,4.0867542 3.0569956,3.96875 2.9104164,3.96875 Z m 0.2645833,0.5291667 h 0.79375 c 0.1465791,0 0.2645833,0.1180041 0.2645833,0.2645833 v 1.0583333 c 0,0.1465792 -0.1180042,0.2645833 -0.2645833,0.2645833 h -0.79375 c -0.1465792,0 -0.2645833,-0.1180041 -0.2645833,-0.2645833 V 4.7625 c 0,-0.1465792 0.1180041,-0.2645833 0.2645833,-0.2645833 z"
     style="fill:#ffffff;fill-opacity:0.5;stroke-width:0.264583"
     id="path1726" />
</svg>
