<?xml version="1.0" encoding="UTF-8" standalone="no"?>
<!-- Created with Inkscape (http://www.inkscape.org/) -->

<svg
   width="48"
   height="48"
   viewBox="0 0 12.7 12.7"
   version="1.1"
   id="svg5"
   inkscape:version="1.1.2 (0a00cf5339, 2022-02-04, custom)"
   sodipodi:docname="phone.svg"
   xmlns:inkscape="http://www.inkscape.org/namespaces/inkscape"
   xmlns:sodipodi="http://sodipodi.sourceforge.net/DTD/sodipodi-0.dtd"
   xmlns="http://www.w3.org/2000/svg"
   xmlns:svg="http://www.w3.org/2000/svg">
  <sodipodi:namedview
     id="namedview7"
     pagecolor="#ffffff"
     bordercolor="#666666"
     borderopacity="1.0"
     inkscape:pageshadow="2"
     inkscape:pageopacity="0.0"
     inkscape:pagecheckerboard="0"
     inkscape:document-units="px"
     showgrid="false"
     units="px"
     height="48px"
     inkscape:zoom="16.708333"
     inkscape:cx="23.970075"
     inkscape:cy="24"
     inkscape:window-width="1920"
     inkscape:window-height="1017"
     inkscape:window-x="0"
     inkscape:window-y="0"
     inkscape:window-maximized="1"
     inkscape:current-layer="svg5"
     showguides="false" />
  <defs
     id="defs2" />
  <rect
     style="opacity:1;fill:#545454;fill-opacity:1;stroke-width:0.264583"
     id="rect1162"
     width="8.4666662"
     height="11.1125"
     x="2.1166666"
     y="0.79374999"
     ry="0.79374999" />
  <rect
     style="opacity:1;fill:#222222;fill-opacity:1;stroke-width:0.361489"
     id="rect1437"
     width="6.3499999"
     height="8.4666662"
     x="3.175"
     y="1.8520833" />
  <path
     d="m 7.2760417,3.4395833 c -0.2198688,0 -0.396875,0.1770062 -0.396875,0.396875 V 4.7624999 L 7.4829458,5.3662791 C 7.2017758,6.0956427 6.6263414,6.6728021 5.8978271,6.9561603 L 5.2916667,6.3499999 H 4.365625 c -0.2198687,0 -0.396875,0.1770062 -0.396875,0.396875 v 1.0583333 c 0,0.2198688 0.1770063,0.396875 0.396875,0.396875 h 0.5291667 c 2.1918083,0 3.8364583,-1.64465 3.8364583,-3.8364583 V 3.8364583 c 0,-0.2198688 -0.1770063,-0.396875 -0.396875,-0.396875 z"
     style="fill:#ededed;fill-opacity:1;stroke-width:0.264583;filter:url(#filter7554);opacity:0.8"
     id="path1107" />
  <path
     id="rect2736"
     style="opacity:0.5;fill:#ffffff;fill-opacity:1;stroke-width:0.264583"
     d="m 2.9104166,0.79375007 c -0.4397374,0 -0.7937499,0.35401253 -0.7937499,0.79375003 v 9.5250009 c 0,0.439737 0.3540125,0.79375 0.7937499,0.79375 h 6.879166 c 0.4397384,0 0.7937504,-0.354013 0.7937504,-0.79375 V 1.5875001 c 0,-0.4397375 -0.354012,-0.79375003 -0.7937504,-0.79375003 z M 3.0427083,1.0583334 h 6.6145831 c 0.3664476,0 0.6614586,0.2950105 0.6614586,0.6614584 v 8.7312502 c 0,0.366448 -0.295011,0.661459 -0.6614586,0.661459 H 3.0427083 C 2.6762604,11.112501 2.38125,10.81749 2.38125,10.451042 V 1.7197918 c 0,-0.3664479 0.2950104,-0.6614584 0.6614583,-0.6614584 z"
     sodipodi:nodetypes="ssssssssssssssssss" />
</svg>
