<?xml version="1.0" encoding="UTF-8" standalone="no"?>
<!-- Created with Inkscape (http://www.inkscape.org/) -->

<svg
   width="16"
   height="16"
   viewBox="0 0 4.2333333 4.2333333"
   version="1.1"
   id="svg5"
   inkscape:version="1.2 (dc2aedaf03, 2022-05-15)"
   sodipodi:docname="7zip.svg"
   xmlns:inkscape="http://www.inkscape.org/namespaces/inkscape"
   xmlns:sodipodi="http://sodipodi.sourceforge.net/DTD/sodipodi-0.dtd"
   xmlns:xlink="http://www.w3.org/1999/xlink"
   xmlns="http://www.w3.org/2000/svg"
   xmlns:svg="http://www.w3.org/2000/svg">
  <sodipodi:namedview
     id="namedview7"
     pagecolor="#ffffff"
     bordercolor="#666666"
     borderopacity="1.0"
     inkscape:pageshadow="2"
     inkscape:pageopacity="0.0"
     inkscape:pagecheckerboard="0"
     inkscape:document-units="px"
     showgrid="false"
     units="px"
     height="48px"
     inkscape:zoom="51.875"
     inkscape:cx="8"
     inkscape:cy="8"
     inkscape:window-width="1920"
     inkscape:window-height="1009"
     inkscape:window-x="0"
     inkscape:window-y="0"
     inkscape:window-maximized="1"
     inkscape:current-layer="svg5"
     showguides="true"
     inkscape:showpageshadow="2"
     inkscape:deskcolor="#d1d1d1" />
  <defs
     id="defs2">
    <linearGradient
       inkscape:collect="always"
       xlink:href="#linearGradient2794"
       id="linearGradient2796"
       x1="3.7083273"
       y1="3.0340858"
       x2="5.0072336"
       y2="3.0340858"
       gradientUnits="userSpaceOnUse"
       gradientTransform="matrix(0.40739409,0,0,2.6684314,0.34133274,-6.2442401)" />
    <linearGradient
       inkscape:collect="always"
       id="linearGradient2794">
      <stop
         style="stop-color:#949390;stop-opacity:1;"
         offset="0"
         id="stop2790" />
      <stop
         style="stop-color:#d5d3cf;stop-opacity:1"
         offset="0.08"
         id="stop2862" />
      <stop
         style="stop-color:#949390;stop-opacity:1"
         offset="0.17"
         id="stop3440" />
      <stop
         style="stop-color:#949390;stop-opacity:1;"
         offset="0.83206075"
         id="stop3698" />
      <stop
         style="stop-color:#d5d3cf;stop-opacity:1"
         offset="0.92000002"
         id="stop3828" />
      <stop
         style="stop-color:#949390;stop-opacity:1"
         offset="1"
         id="stop2792" />
    </linearGradient>
  </defs>
  <rect
     style="opacity:1;fill:#5f5f5f;fill-opacity:1;stroke-width:0.264583"
     id="rect1162"
     width="3.7041667"
     height="3.7041667"
     x="0.26458332"
     y="0.26458332"
     ry="0.26458332" />
  <rect
     style="opacity:1;fill:#bebebe;fill-opacity:1;stroke-width:0.264583"
     id="rect1136"
     width="3.175"
     height="2.6458333"
     x="0.52916664"
     y="0.5291667"
     ry="0.13229166" />
  <g
     id="g5481"
     transform="translate(1.5875,-0.5291666)">
    <rect
       style="opacity:0.5;fill:#000000;fill-opacity:1;stroke-width:0.202926"
       id="rect1452"
       width="0.26458332"
       height="2.6458333"
       x="0.26458338"
       y="1.0583333" />
    <rect
       style="opacity:0.25;fill:#ffffff;fill-opacity:1;stroke-width:0.202926"
       id="rect1578"
       width="0.26458311"
       height="2.6458333"
       x="0.52916646"
       y="1.0583333" />
    <path
       id="path5364"
       style="opacity:0.5;fill:#000000;fill-opacity:1;stroke-width:0.264583"
       d="m 0.52916674,1.0583333 v 0.2645833 h 0.2645833 V 1.0583333 Z m 0,0.2645833 H 0.26458335 v 0.2645833 h 0.26458339 z m 0,0.2645833 v 0.2645833 h 0.2645833 V 1.5874999 Z m 0,0.2645833 H 0.26458335 v 0.2645834 h 0.26458339 z m 0,0.2645834 v 0.2645833 h 0.2645833 V 2.1166666 Z m 0,0.2645833 H 0.26458335 v 0.2645833 h 0.26458339 z m 0,0.2645833 v 0.2645834 h 0.2645833 V 2.6458332 Z m 0,0.2645834 H 0.26458335 v 0.2645833 h 0.26458339 z m 0,0.2645833 v 0.2645833 h 0.2645833 V 3.1749999 Z m 0,0.2645833 H 0.26458335 v 0.2645834 h 0.26458339 z" />
    <path
       id="rect4946"
       style="opacity:0.5;fill:#ffffff;fill-opacity:1;stroke-width:0.264583"
       d="M 0.26458336,1.0583333 V 1.3229166 H 0.5291667 V 1.0583333 Z M 0.5291667,1.3229166 V 1.5874999 H 0.79375003 V 1.3229166 Z m 0,0.2645833 H 0.26458336 V 1.8520833 H 0.5291667 Z m 0,0.2645834 V 2.1166666 H 0.79375003 V 1.8520833 Z m 0,0.2645833 H 0.26458336 V 2.3812499 H 0.5291667 Z m 0,0.2645833 V 2.6458332 H 0.79375003 V 2.3812499 Z m 0,0.2645833 H 0.26458336 V 2.9104166 H 0.5291667 Z m 0,0.2645834 V 3.175 H 0.79375003 V 2.9104166 Z m 0,0.2645834 H 0.26458336 V 3.4395833 H 0.5291667 Z m 0,0.2645833 V 3.7041666 H 0.79375003 V 3.4395833 Z" />
  </g>
  <rect
     style="fill:#3d3846;fill-opacity:1;stroke-width:0.264583"
     id="rect1736"
     width="1.0583333"
     height="1.190625"
     x="1.5875"
     y="0.79374999"
     ry="0.26458332" />
  <rect
     style="fill:#5e5c64;fill-opacity:1;stroke-width:0.264583"
     id="rect2060"
     width="1.0583332"
     height="1.1906248"
     x="1.5875"
     y="0.52916664"
     ry="0.26458332" />
  <path
     id="rect2290"
     style="fill:url(#linearGradient2796);fill-opacity:1;stroke-width:0.275865"
     d="m 1.9776569,1.1906756 c -0.070092,0.00353 -0.1255736,0.061292 -0.1255736,0.1322917 v 1.0583333 c 0,0.07329 0.059002,0.1322916 0.1322917,0.1322916 h 0.2645833 c 0.07329,0 0.1322917,-0.059002 0.1322917,-0.1322916 V 1.3229673 c 0,-0.07329 -0.059002,-0.1322917 -0.1322917,-0.1322917 H 1.984375 c -0.00229,0 -0.00446,-1.139e-4 -0.00672,0 z m 0.00672,0.9260416 H 2.2489583 V 2.3813006 H 1.984375 Z" />
  <path
     id="rect3962"
     style="fill:#ffffff;fill-opacity:1;stroke-width:0.264583"
     d="m 1.9776569,0.92609231 c -0.070092,0.00353 -0.1255736,0.061292 -0.1255736,0.13229159 v 1.190625 c 0,0.07329 0.059002,0.1322917 0.1322917,0.1322917 h 0.2645833 c 0.07329,0 0.1322917,-0.059002 0.1322917,-0.1322917 v -1.190625 c 0,-0.07329 -0.059002,-0.13229159 -0.1322917,-0.13229159 H 1.984375 c -0.00229,0 -0.00446,-1.139e-4 -0.00672,0 z m 0.00672,1.05833329 H 2.2489583 V 2.2490089 H 1.984375 Z" />
  <rect
     style="fill:#68676b;fill-opacity:1;stroke-width:0.264583"
     id="rect4341"
     width="0.26458332"
     height="0.66145831"
     x="1.984377"
     y="0.66145831"
     ry="0.13229166" />
  <rect
     style="fill:#949390;fill-opacity:1;stroke-width:0.264583"
     id="rect4688"
     width="0.26458311"
     height="0.52916664"
     x="1.984377"
     y="0.66145831"
     ry="0.13229156" />
</svg>
