<?xml version="1.0" encoding="UTF-8" standalone="no"?>
<!-- Created with Inkscape (http://www.inkscape.org/) -->

<svg
   width="16"
   height="16"
   viewBox="0 0 4.2333333 4.2333333"
   version="1.1"
   id="svg5"
   inkscape:version="1.2 (dc2aedaf03, 2022-05-15)"
   sodipodi:docname="accessories-dictionary.svg"
   xmlns:inkscape="http://www.inkscape.org/namespaces/inkscape"
   xmlns:sodipodi="http://sodipodi.sourceforge.net/DTD/sodipodi-0.dtd"
   xmlns="http://www.w3.org/2000/svg"
   xmlns:svg="http://www.w3.org/2000/svg">
  <sodipodi:namedview
     id="namedview7"
     pagecolor="#ffffff"
     bordercolor="#666666"
     borderopacity="1.0"
     inkscape:pageshadow="2"
     inkscape:pageopacity="0.0"
     inkscape:pagecheckerboard="0"
     inkscape:document-units="px"
     showgrid="false"
     units="px"
     height="48px"
     inkscape:zoom="50"
     inkscape:cx="8"
     inkscape:cy="8"
     inkscape:window-width="1920"
     inkscape:window-height="1016"
     inkscape:window-x="0"
     inkscape:window-y="0"
     inkscape:window-maximized="1"
     inkscape:current-layer="svg5"
     inkscape:showpageshadow="2"
     inkscape:deskcolor="#d1d1d1" />
  <defs
     id="defs2" />
  <rect
     style="opacity:1;fill:#560c00;fill-opacity:1;stroke-width:0.264583"
     id="rect1162"
     width="3.96875"
     height="3.96875"
     x="0"
     y="0.26458332"
     ry="0.39687499" />
  <rect
     style="opacity:1;fill:#dedede;fill-opacity:1;stroke-width:0.264583"
     id="rect12135"
     width="3.175"
     height="3.4395833"
     x="0.5291667"
     y="0.52916664"
     ry="0.26458332" />
  <rect
     style="opacity:1;fill:#560c00;fill-opacity:1;stroke-width:0.264583"
     id="rect5288"
     width="3.4395833"
     height="3.4395833"
     x="0"
     y="0"
     ry="0.39687499" />
  <rect
     style="opacity:1;fill:#f15d22;fill-opacity:1;stroke-width:0.264583"
     id="rect6742"
     width="2.6458333"
     height="2.9104166"
     x="0.52916664"
     y="0.26458332"
     ry="0.26458332" />
  <path
     d="m 0.52916664,0.26458332 c -0.14657916,0 -0.26458333,0.11800417 -0.26458333,0.26458333 V 3.7041666 c 0,0.1465792 0.11800417,0.2624667 0.26458333,0.2645833 H 0.79374997 V 0.26458332 Z"
     style="fill:#350700;stroke-width:0.264583"
     id="path11389" />
  <path
     d="M 2.1166667,1.3229167 V 1.5875001 H 2.6458334 L 2.1166667,2.38125 v 0.2645833 h 0.79375 V 2.3812501 H 2.38125 l 0.5291667,-0.79375 V 1.3229167 Z m -0.6614583,0 c -0.219188,0 -0.3968751,0.177687 -0.3968751,0.396875 V 2.6458333 H 1.3229167 V 2.3812501 H 1.5875 V 2.6458333 H 1.8520834 V 1.7197917 c 0,-0.219188 -0.177687,-0.396875 -0.396875,-0.396875 z m 0,0.2645834 c 0.07329,0 0.1322916,0.059002 0.1322916,0.1322916 V 2.1166666 H 1.3229167 V 1.7197917 c 0,-0.07329 0.059002,-0.1322916 0.1322917,-0.1322916 z"
     style="fill:#000000;stroke-width:0.264583;opacity:0.2"
     id="path10152" />
  <path
     d="m 2.1166667,1.0583333 v 0.2645834 h 0.5291667 l -0.5291667,0.79375 V 2.38125 h 0.79375 V 2.1166667 H 2.38125 l 0.5291667,-0.79375 V 1.0583333 Z m -0.6614583,0 c -0.219188,0 -0.3968751,0.177687 -0.3968751,0.396875 V 2.38125 H 1.3229167 V 2.1166667 H 1.5875 V 2.38125 H 1.8520834 V 1.4552083 c 0,-0.219188 -0.177687,-0.396875 -0.396875,-0.396875 z m 0,0.2645834 c 0.07329,0 0.1322916,0.059002 0.1322916,0.1322916 v 0.396875 H 1.3229167 v -0.396875 c 0,-0.07329 0.059002,-0.1322916 0.1322917,-0.1322916 z"
     style="fill:#ededed;stroke-width:0.264583"
     id="path9398"
     sodipodi:nodetypes="cccccccccccssccccccssssccss" />
</svg>
