<?xml version="1.0" encoding="UTF-8" standalone="no"?>
<!-- Created with Inkscape (http://www.inkscape.org/) -->

<svg
   width="16"
   height="16"
   viewBox="0 0 4.2333333 4.2333333"
   version="1.1"
   id="svg5"
   inkscape:version="1.1.2 (0a00cf5339, 2022-02-04, custom)"
   sodipodi:docname="accessories-text-editor.svg"
   xmlns:inkscape="http://www.inkscape.org/namespaces/inkscape"
   xmlns:sodipodi="http://sodipodi.sourceforge.net/DTD/sodipodi-0.dtd"
   xmlns="http://www.w3.org/2000/svg"
   xmlns:svg="http://www.w3.org/2000/svg">
  <sodipodi:namedview
     id="namedview7"
     pagecolor="#ffffff"
     bordercolor="#666666"
     borderopacity="1.0"
     inkscape:pageshadow="2"
     inkscape:pageopacity="0.0"
     inkscape:pagecheckerboard="0"
     inkscape:document-units="px"
     showgrid="false"
     units="px"
     height="48px"
     inkscape:zoom="25.03125"
     inkscape:cx="7.4906367"
     inkscape:cy="9.8676654"
     inkscape:window-width="1920"
     inkscape:window-height="1002"
     inkscape:window-x="0"
     inkscape:window-y="0"
     inkscape:window-maximized="1"
     inkscape:current-layer="svg5" />
  <defs
     id="defs2" />
  <path
     d="m 0.92604166,0 c -0.21986875,0 -0.396875,0.1770063 -0.396875,0.396875 v 3.4395833 c 0,0.2198688 0.17700625,0.396875 0.396875,0.396875 H 3.3072916 c 0.2198688,0 0.396875,-0.1770062 0.396875,-0.396875 V 1.190625 L 2.5135416,0 Z"
     style="fill:#7f6728;stroke-width:0.264583;fill-opacity:1"
     id="path2836" />
  <path
     d="m 3.4395833,1.3229167 v 2.38125 c 0,0.1465791 -0.1180042,0.2645833 -0.2645834,0.2645833 H 1.0583333 c -0.14657914,0 -0.26458331,-0.1180042 -0.26458331,-0.2645833 v -3.175 c 0,-0.1465792 0.11800417,-0.2645833 0.26458331,-0.2645833 H 2.38125"
     style="fill:#ffce51;stroke-width:0.264583;fill-opacity:1"
     id="path2716" />
  <path
     d="m 2.936875,1.3583579 c -0.046969,-0.047255 -0.1234229,-0.047255 -0.1703917,0 l -0.288925,0.288925 0.3741208,0.3741208 0.288925,-0.288925 c 0.047255,-0.046969 0.047255,-0.1234228 0,-0.1703917 z M 2.2902333,1.8343433 0.9808104,3.1440308 0.79374999,3.705212 1.3549312,3.5181516 2.6646187,2.2084641 Z"
     id="path1556"
     style="stroke-width:0.264583;fill:#cda641;opacity:1;fill-opacity:1"
     sodipodi:nodetypes="ccccccccccccc" />
  <path
     d="m 2.9368749,1.0937746 c -0.046969,-0.047255 -0.1234228,-0.047255 -0.1703917,0 l -0.288925,0.288925 0.3741209,0.3741208 0.2889249,-0.288925 c 0.047255,-0.046969 0.047255,-0.1234228 0,-0.1703917 z M 2.2902332,1.56976 0.9808103,2.8794475 0.7937499,3.4406287 1.3549311,3.2535683 2.6646186,1.9438808 Z"
     style="stroke-width:0.0700042;fill:#ffffff"
     id="path1171" />
</svg>
