<?xml version="1.0" encoding="UTF-8" standalone="no"?>
<!-- Created with Inkscape (http://www.inkscape.org/) -->

<svg
   width="16"
   height="16"
   viewBox="0 0 4.2333333 4.2333333"
   version="1.1"
   id="svg5"
   inkscape:version="1.2 (dc2aedaf03, 2022-05-15)"
   sodipodi:docname="accessories-calculator.svg"
   xmlns:inkscape="http://www.inkscape.org/namespaces/inkscape"
   xmlns:sodipodi="http://sodipodi.sourceforge.net/DTD/sodipodi-0.dtd"
   xmlns="http://www.w3.org/2000/svg"
   xmlns:svg="http://www.w3.org/2000/svg">
  <sodipodi:namedview
     id="namedview7"
     pagecolor="#ffffff"
     bordercolor="#666666"
     borderopacity="1.0"
     inkscape:pageshadow="2"
     inkscape:pageopacity="0.0"
     inkscape:pagecheckerboard="0"
     inkscape:document-units="px"
     showgrid="false"
     units="px"
     height="48px"
     inkscape:zoom="35.443727"
     inkscape:cx="1.8621067"
     inkscape:cy="10.608365"
     inkscape:window-width="1920"
     inkscape:window-height="1016"
     inkscape:window-x="0"
     inkscape:window-y="0"
     inkscape:window-maximized="1"
     inkscape:current-layer="svg5"
     showguides="false"
     inkscape:showpageshadow="2"
     inkscape:deskcolor="#d1d1d1" />
  <defs
     id="defs2" />
  <rect
     style="opacity:1;fill:#dedede;fill-opacity:1;stroke-width:0.264583"
     id="rect1162"
     width="3.7041667"
     height="3.7041667"
     x="0.26458332"
     y="0.26458332"
     ry="0.26458332" />
  <path
     id="rect3313"
     style="fill:#000000;fill-opacity:1;stroke-width:0.264583;opacity:0.5"
     d="M 0.52916666 0.26458333 C 0.38258765 0.26458333 0.26458333 0.38258765 0.26458333 0.52916666 L 0.26458333 3.7041666 C 0.26458333 3.8507456 0.38258765 3.96875 0.52916666 3.96875 L 3.7041666 3.96875 C 3.8507456 3.96875 3.96875 3.8507456 3.96875 3.7041666 L 3.96875 0.52916666 C 3.96875 0.38258765 3.8507456 0.26458333 3.7041666 0.26458333 L 0.52916666 0.26458333 z M 0.52916666 0.52916666 L 3.7041666 0.52916666 L 3.7041666 3.7041666 L 0.52916666 3.7041666 L 0.52916666 0.52916666 z " />
  <rect
     style="opacity:1;fill:#73c48f;fill-opacity:1;stroke-width:0.264583"
     id="rect5586"
     width="1.3229166"
     height="1.3229166"
     x="2.3812499"
     y="2.3812501" />
  <path
     id="rect6006"
     style="opacity:1;fill:#aaaaaa;fill-opacity:1;stroke-width:0.264583"
     d="M 0.52916666 0.52916666 L 0.52916666 1.8520833 L 1.8520833 1.8520833 L 1.8520833 0.52916666 L 0.52916666 0.52916666 z M 2.38125 0.52916666 L 2.38125 1.8520833 L 3.7041666 1.8520833 L 3.7041666 0.52916666 L 2.38125 0.52916666 z M 0.52916666 2.38125 L 0.52916666 3.7041666 L 1.8520833 3.7041666 L 1.8520833 2.38125 L 0.52916666 2.38125 z " />
  <path
     d="m 2.6458333,0.66145834 -0.1322917,0.1322916 0.396875,0.39687496 -0.396875,0.396875 0.1322917,0.1322917 0.396875,-0.396875 0.396875,0.396875 L 3.571875,1.5874999 3.175,1.1906249 3.571875,0.79374994 3.4395833,0.66145834 3.0427083,1.0583333 Z m -1.5875,0.1322916 V 1.0583333 H 0.79374999 V 1.3229166 H 1.0583333 V 1.5874999 H 1.3229166 V 1.3229166 H 1.5874999 V 1.0583333 H 1.3229166 V 0.79374994 Z m 0,1.71979166 V 2.7781249 H 1.3229166 V 2.5135416 Z m 1.5875,0.1322917 v 0.2645833 h 0.79375 V 2.6458333 Z M 0.79374999,2.9104166 V 3.1749999 H 1.5874999 V 2.9104166 Z M 2.6458333,3.1749999 v 0.2645833 h 0.79375 V 3.1749999 Z m -1.5875,0.1322917 V 3.5718749 H 1.3229166 V 3.3072916 Z"
     style="fill:#ffffff;stroke-width:0.264583"
     id="path980" />
</svg>
