<?xml version="1.0" encoding="UTF-8" standalone="no"?>
<!-- Created with Inkscape (http://www.inkscape.org/) -->

<svg
   width="16"
   height="16"
   viewBox="0 0 4.2333333 4.2333333"
   version="1.1"
   id="svg5"
   inkscape:version="1.2 (dc2aedaf03, 2022-05-15)"
   sodipodi:docname="accessories-document-viewer.svg"
   xmlns:inkscape="http://www.inkscape.org/namespaces/inkscape"
   xmlns:sodipodi="http://sodipodi.sourceforge.net/DTD/sodipodi-0.dtd"
   xmlns="http://www.w3.org/2000/svg"
   xmlns:svg="http://www.w3.org/2000/svg">
  <sodipodi:namedview
     id="namedview7"
     pagecolor="#ffffff"
     bordercolor="#666666"
     borderopacity="1.0"
     inkscape:pageshadow="2"
     inkscape:pageopacity="0.0"
     inkscape:pagecheckerboard="0"
     inkscape:document-units="px"
     showgrid="false"
     units="px"
     height="48px"
     inkscape:zoom="25.03125"
     inkscape:cx="9.4681648"
     inkscape:cy="10.906367"
     inkscape:window-width="1920"
     inkscape:window-height="1014"
     inkscape:window-x="0"
     inkscape:window-y="0"
     inkscape:window-maximized="1"
     inkscape:current-layer="svg5"
     inkscape:showpageshadow="2"
     inkscape:deskcolor="#d1d1d1" />
  <defs
     id="defs2" />
  <path
     d="m 0.92604166,0 c -0.21986875,0 -0.396875,0.1770063 -0.396875,0.396875 v 3.4395833 c 0,0.2198688 0.17700625,0.396875 0.396875,0.396875 H 3.3072916 c 0.2198688,0 0.396875,-0.1770062 0.396875,-0.396875 V 1.190625 L 2.5135416,0 Z"
     style="fill:#6f6f6f;stroke-width:0.264583"
     id="path2836" />
  <path
     d="m 3.4395833,1.3229167 v 2.38125 c 0,0.1465791 -0.1180042,0.2645833 -0.2645834,0.2645833 H 1.0583333 c -0.14657914,0 -0.26458331,-0.1180042 -0.26458331,-0.2645833 v -3.175 c 0,-0.1465792 0.11800417,-0.2645833 0.26458331,-0.2645833 H 2.38125"
     style="fill:#ececec;stroke-width:0.264583"
     id="path2716" />
  <path
     d="M 3.4395833,1.5875 H 2.38125 C 2.2346708,1.5875 2.1166666,1.4694959 2.1166666,1.3229167 V 0.2645834 H 2.38125 l 1.0583333,1.0583333 z"
     style="opacity:0.5;fill:#6f6f6f;fill-opacity:1;stroke-width:0.264583"
     id="path2956" />
  <path
     d="m 3.4395833,1.3229167 h -0.79375 C 2.4992541,1.3229167 2.38125,1.2049125 2.38125,1.0583334 v -0.79375"
     style="fill:#fafafa;stroke-width:0.264583"
     id="path3166" />
  <path
     id="rect111"
     d="m 1.190625,2.1166667 c -0.07329,0 -0.1322917,0.059002 -0.1322917,0.1322917 0,0.07329 0.059002,0.1322916 0.1322917,0.1322916 h 1.8520833 c 0.07329,0 0.1322916,-0.059002 0.1322916,-0.1322916 0,-0.07329 -0.059002,-0.1322917 -0.1322916,-0.1322917 z m 0,0.5291667 c -0.07329,0 -0.1322917,0.059002 -0.1322917,0.1322916 0,0.07329 0.059002,0.1322917 0.1322917,0.1322917 h 1.8520833 c 0.07329,0 0.1322916,-0.059002 0.1322916,-0.1322917 0,-0.07329 -0.059002,-0.1322916 -0.1322916,-0.1322916 z M 1.17874,3.175 c -0.066841,0 -0.1204066,0.053578 -0.1204066,0.1204119 v 0.023813 c 0,0.066834 0.053566,0.1204119 0.1204061,0.1204119 H 2.260844 C 2.327684,3.4395839 2.3812501,3.3860058 2.3812501,3.319172 V 3.29536 c 0,-0.066834 -0.053566,-0.1204119 -0.1204061,-0.1204119 z"
     style="fill:#474341;fill-opacity:1;stroke-width:0.264583;opacity:0.7" />
  <rect
     style="fill:#671d00;fill-opacity:1;stroke-width:0.264583"
     id="rect8487"
     width="2.9104166"
     height="2.6458335"
     x="1.3229166"
     y="1.5875"
     ry="0.39687499" />
  <rect
     style="fill:#cf3b00;fill-opacity:1;stroke-width:0.264583"
     id="rect10253"
     width="2.3812501"
     height="2.1166668"
     x="1.5875"
     y="1.8520833"
     ry="0.26458335" />
  <path
     d="M 2.7781464,2.2489583 C 2.3289712,2.249752 1.9189472,2.5064164 1.719813,2.9117396 1.9196841,3.3160362 2.3295583,3.571695 2.7781464,3.5718749 3.2273215,3.5710812 3.6373455,3.3144168 3.8364797,2.9090938 3.6366087,2.5047972 3.2267344,2.2491382 2.7781464,2.2489583 Z m 0,0.1322916 c 0.2922505,0 0.5291666,0.2369159 0.5291666,0.5291667 0,0.2922509 -0.2369161,0.5291668 -0.5291666,0.5291668 -0.2922506,0 -0.5291667,-0.2369159 -0.5291667,-0.5291668 0,-0.2922508 0.2369161,-0.5291667 0.5291667,-0.5291667 z m 0,0.2645834 c -0.1461254,0 -0.2645834,0.1184566 -0.2645834,0.2645833 0,0.1461242 0.118458,0.2645833 0.2645834,0.2645833 0.1461254,0 0.2645833,-0.1184592 0.2645833,-0.2645833 0,-0.1461267 -0.1184579,-0.2645833 -0.2645833,-0.2645833 z"
     style="fill:#ffffff;stroke-width:0.264583"
     id="path12753" />
</svg>
