<?xml version="1.0" encoding="UTF-8" standalone="no"?>
<!-- Created with Inkscape (http://www.inkscape.org/) -->

<svg
   width="16"
   height="16"
   viewBox="0 0 4.2333333 4.2333333"
   version="1.1"
   id="svg5"
   inkscape:version="1.2 (dc2aedaf03, 2022-05-15)"
   sodipodi:docname="aisleriot.svg"
   xmlns:inkscape="http://www.inkscape.org/namespaces/inkscape"
   xmlns:sodipodi="http://sodipodi.sourceforge.net/DTD/sodipodi-0.dtd"
   xmlns="http://www.w3.org/2000/svg"
   xmlns:svg="http://www.w3.org/2000/svg">
  <sodipodi:namedview
     id="namedview7"
     pagecolor="#ffffff"
     bordercolor="#666666"
     borderopacity="1.0"
     inkscape:pageshadow="2"
     inkscape:pageopacity="0.0"
     inkscape:pagecheckerboard="0"
     inkscape:document-units="px"
     showgrid="false"
     units="px"
     height="48px"
     inkscape:zoom="49.875"
     inkscape:cx="8"
     inkscape:cy="8"
     inkscape:window-width="1920"
     inkscape:window-height="1014"
     inkscape:window-x="0"
     inkscape:window-y="0"
     inkscape:window-maximized="1"
     inkscape:current-layer="svg5"
     inkscape:showpageshadow="2"
     inkscape:deskcolor="#d1d1d1" />
  <defs
     id="defs2" />
  <rect
     style="opacity:1;fill:#f6f6f6;fill-opacity:1;stroke-width:0.264583"
     id="rect1162"
     width="3.7041667"
     height="4.2333331"
     x="0.26458332"
     y="0"
     ry="0.66145831" />
  <path
     d="m 1.5082629,1.058338 c -0.3934451,0 -0.71451291,0.3165324 -0.71451291,0.7086547 0,0.2040925 0.0861724,0.3902325 0.22431281,0.51968 L 2.0989974,3.4395833 3.2148921,2.2866727 c 0.1435629,-0.1346846 0.22491,-0.322829 0.2246908,-0.51968 0,-0.3921223 -0.3212567,-0.7086547 -0.7145128,-0.7086547 -0.2592729,0 -0.4837749,0.1362506 -0.6084981,0.3426109 C 1.9882984,1.1875762 1.7572231,1.0574303 1.5082629,1.058338 Z"
     style="fill:#cf3b00;fill-opacity:1;stroke-width:0.188974"
     id="path852"
     sodipodi:nodetypes="csccccscc" />
  <path
     id="rect1014"
     style="opacity:0.5;fill:#000000;stroke-width:0.264583"
     d="M 0.92604166,1.0574417e-8 C 0.55959374,1.0574417e-8 0.26458333,0.29501042 0.26458333,0.66145834 V 3.571875 c 0,0.3664479 0.29501041,0.6614583 0.66145833,0.6614583 H 3.3072916 c 0.3664479,0 0.6614584,-0.2950104 0.6614584,-0.6614583 V 0.66145834 C 3.96875,0.29501042 3.6737395,1.0574417e-8 3.3072916,1.0574417e-8 Z M 1.0583333,0.26458334 H 3.175 c 0.2931583,0 0.5291666,0.23600833 0.5291666,0.52916666 V 3.4395833 C 3.7041666,3.7327417 3.4681583,3.96875 3.175,3.96875 H 1.0583333 c -0.29315831,0 -0.52916664,-0.2360083 -0.52916664,-0.5291667 V 0.79375 c 0,-0.29315833 0.23600833,-0.52916666 0.52916664,-0.52916666 z"
     sodipodi:nodetypes="ssssssssssssssssss" />
</svg>
