<?xml version="1.0" encoding="UTF-8" standalone="no"?>
<!-- Created with Inkscape (http://www.inkscape.org/) -->

<svg
   width="16"
   height="16"
   viewBox="0 0 4.2333333 4.2333333"
   version="1.1"
   id="svg5"
   inkscape:version="1.2 (dc2aedaf03, 2022-05-15)"
   sodipodi:docname="applications-accessories.svg"
   xmlns:inkscape="http://www.inkscape.org/namespaces/inkscape"
   xmlns:sodipodi="http://sodipodi.sourceforge.net/DTD/sodipodi-0.dtd"
   xmlns="http://www.w3.org/2000/svg"
   xmlns:svg="http://www.w3.org/2000/svg">
  <sodipodi:namedview
     id="namedview7"
     pagecolor="#ffffff"
     bordercolor="#666666"
     borderopacity="1.0"
     inkscape:pageshadow="2"
     inkscape:pageopacity="0.0"
     inkscape:pagecheckerboard="0"
     inkscape:document-units="px"
     showgrid="false"
     units="px"
     height="48px"
     inkscape:zoom="50.875"
     inkscape:cx="8"
     inkscape:cy="8"
     inkscape:window-width="1846"
     inkscape:window-height="1011"
     inkscape:window-x="0"
     inkscape:window-y="0"
     inkscape:window-maximized="1"
     inkscape:current-layer="svg5"
     inkscape:showpageshadow="2"
     inkscape:deskcolor="#d1d1d1" />
  <defs
     id="defs2" />
  <rect
     style="opacity:1;fill:#7b736e;fill-opacity:1;stroke-width:0.264583"
     id="rect1162"
     width="3.7041667"
     height="3.7041667"
     x="0.26458332"
     y="0.26458332"
     ry="0.66145831" />
  <path
     id="rect1014"
     style="opacity:0.5;fill:#000000;stroke-width:0.999999"
     d="M 3.5 1 C 2.115 1 1 2.115 1 3.5 L 1 12.5 C 1 13.885 2.115 15 3.5 15 L 12.5 15 C 13.885 15 15 13.885 15 12.5 L 15 3.5 C 15 2.115 13.885 1 12.5 1 L 3.5 1 z M 4 2 L 12 2 C 13.108 2 14 2.892 14 4 L 14 12 C 14 13.108 13.108 14 12 14 L 4 14 C 2.892 14 2 13.108 2 12 L 2 4 C 2 2.892 2.892 2 4 2 z "
     transform="scale(0.26458333)" />
  <path
     d="m 2.6716715,1.0599722 c -0.033904,2.129e-4 -0.068461,0.00363 -0.1023193,0.012402 -0.246724,0.064294 -0.394506,0.315039 -0.3302124,0.5601726 0.014097,0.04972 0.036458,0.09671 0.066146,0.1390096 -0.014155,0.00238 -0.2149741,0.3436482 -0.2149741,0.3436482 l 0.4511352,0.00258 0.1064535,-0.1472778 c 0.050271,0.00397 0.1029186,0.00238 0.1545125,-0.010852 0.2467224,-0.064294 0.3946384,-0.3150364 0.3302124,-0.5601726 -0.013361,-0.051197 -0.0381,-0.09747 -0.066146,-0.1390095 L 2.8866455,1.5653677 c -0.03668,0.062682 -0.1173634,0.083551 -0.179834,0.046509 L 2.5910563,1.5446971 C 2.5283517,1.5087853 2.5073746,1.4283788 2.5445475,1.3664134 l 0.179834,-0.3048909 c -0.012568,-0.00106 -0.025404,-0.00128 -0.038241,-0.00155 -0.00481,-9.92e-5 -0.00963,-3.04e-5 -0.014469,-3e-7 z m -1.2309326,0.05426 c -0.00138,-1.32e-5 -0.00281,2.39e-4 -0.00413,5.168e-4 -0.029799,0.00683 -0.058872,0.016538 -0.086816,0.028939 -0.00212,0.08255 0.011608,0.1902807 -0.020671,0.2185912 -0.031485,0.028046 -0.1368351,0.00511 -0.2185913,-0.00362 -0.017449,0.031422 -0.031317,0.064704 -0.041341,0.099219 0.0635,0.052388 0.1508456,0.1111555 0.1529622,0.1529623 0.00212,0.042331 -0.083145,0.1063598 -0.1405599,0.1653645 0.013229,0.034129 0.033106,0.065187 0.053743,0.095085 0.080433,-0.016933 0.1803259,-0.049425 0.2144572,-0.024805 0.034925,0.024871 0.035157,0.1329531 0.045475,0.2149739 0.033073,0.010054 0.067899,0.013626 0.1033528,0.016536 0.037042,-0.073554 0.074492,-0.1749102 0.1152385,-0.1865519 0.041804,-0.011642 0.1275292,0.061271 0.1984375,0.1038696 0.028469,-0.020743 0.054629,-0.044474 0.078031,-0.070797 -0.033602,-0.075671 -0.094964,-0.170371 -0.078031,-0.2103231 0.016669,-0.040217 0.1286661,-0.062111 0.2061889,-0.09095 5.292e-4,-0.00979 0.00413,-0.019394 0.00413,-0.029456 0,-0.025135 -0.00431,-0.050088 -0.00775,-0.073897 -0.080169,-0.021431 -0.1940719,-0.031916 -0.214974,-0.07028 -0.020637,-0.0381 0.031432,-0.1407792 0.057361,-0.2196248 -0.026442,-0.023574 -0.055382,-0.044199 -0.0863,-0.061495 C 1.7048054,1.2182347 1.6277663,1.2999244 1.5854329,1.2925161 1.543364,1.2851061 1.4978558,1.18407 1.4531413,1.1147492 c -0.00397,5.291e-4 -0.00828,-5.167e-4 -0.012402,-5.167e-4 z m 0.078548,0.2485637 c 0.290481,0.00706 0.2899666,0.4395594 -5.168e-4,0.4459675 -0.290481,-0.00709 -0.2899666,-0.4395621 5.168e-4,-0.4459675 z M 0.79375,2.3813386 v 1.0583333 c 0,0.1465789 0.1180043,0.2645833 0.2645833,0.2645833 H 3.175 c 0.1465789,0 0.2645833,-0.1180044 0.2645833,-0.2645833 V 2.3813386 Z"
     style="text-indent:0;text-decoration-line:none;text-transform:none;fill:#000000;stroke-width:0.264583;opacity:0.2"
     id="path5040" />
  <path
     id="path1902"
     style="text-indent:0;text-decoration-line:none;text-transform:none;fill:#ffffff;stroke-width:0.264583"
     d="m 2.6716715,0.79530029 c -0.033904,2.1286e-4 -0.068461,0.003627 -0.1023193,0.0124023 -0.246724,0.0642939 -0.394506,0.31503897 -0.3302124,0.56017257 0.014097,0.04972 0.036458,0.09671 0.066146,0.1390096 C 2.2911306,1.5092648 2.0903117,1.850533 2.0903117,1.850533 L 2.5414469,1.8531168 2.6479004,1.705839 C 2.6981713,1.709809 2.750819,1.708215 2.8024129,1.694987 3.0491353,1.630693 3.1970513,1.3799506 3.1326253,1.1348144 3.1192643,1.0836175 3.0945254,1.0373443 3.0664795,0.99580484 L 2.8866455,1.3006958 c -0.03668,0.062682 -0.1173634,0.083551 -0.179834,0.046509 L 2.5910563,1.2800252 C 2.5283517,1.2441134 2.5073746,1.1637069 2.5445475,1.1017415 l 0.179834,-0.30489092 c -0.012568,-0.00106 -0.025404,-0.00128 -0.038241,-0.00155 -0.00481,-9.922e-5 -0.00963,-3.041e-5 -0.014469,0 z m -1.2309326,0.0542603 c -0.00138,-1.32e-5 -0.00281,2.3896e-4 -0.00413,5.1676e-4 -0.029799,0.00683 -0.058872,0.0165378 -0.086816,0.0289388 -0.00212,0.0825499 0.011608,0.19028079 -0.020671,0.21859129 -0.031485,0.028046 -0.1368351,0.00511 -0.2185913,-0.00362 -0.017449,0.031422 -0.031317,0.064704 -0.041341,0.099219 0.0635,0.052388 0.1508456,0.1111555 0.1529622,0.1529623 0.00212,0.042331 -0.083145,0.1063598 -0.1405599,0.1653645 0.013229,0.034129 0.033106,0.065187 0.053743,0.095085 0.080433,-0.016933 0.1803259,-0.049425 0.2144572,-0.024805 0.034925,0.024871 0.035157,0.1329531 0.045475,0.2149739 0.033073,0.010054 0.067899,0.013626 0.1033528,0.016536 0.037042,-0.073554 0.074492,-0.1749102 0.1152385,-0.1865519 0.041804,-0.011642 0.1275292,0.061271 0.1984375,0.1038696 0.028469,-0.020743 0.054629,-0.044474 0.078031,-0.070797 -0.033602,-0.075671 -0.094964,-0.170371 -0.078031,-0.2103231 0.016669,-0.040217 0.1286661,-0.062111 0.2061889,-0.09095 5.292e-4,-0.00979 0.00413,-0.019394 0.00413,-0.029456 0,-0.025135 -0.00431,-0.050088 -0.00775,-0.073897 -0.080169,-0.021431 -0.1940719,-0.031916 -0.214974,-0.07028 -0.020637,-0.0381 0.031432,-0.1407792 0.057361,-0.21962485 -0.026442,-0.023574 -0.055382,-0.044199 -0.0863,-0.061495 C 1.7048054,0.95356274 1.6277663,1.0352525 1.5854329,1.0278442 1.543364,1.0204342 1.4978558,0.91939804 1.4531413,0.8500773 c -0.00397,5.291e-4 -0.00828,-5.1676e-4 -0.012402,-5.1676e-4 z m 0.078548,0.24856366 c 0.290481,0.00706 0.2899666,0.4395594 -5.168e-4,0.4459676 -0.290481,-0.00709 -0.2899666,-0.4395621 5.168e-4,-0.4459676 z M 0.79374999,2.1166667 V 3.175 c 0,0.1465789 0.11800429,0.2645833 0.26458331,0.2645833 H 3.175 c 0.1465789,0 0.2645833,-0.1180044 0.2645833,-0.2645833 V 2.1166667 Z"
     sodipodi:nodetypes="scccccccccccccccscccccccccccccccccscccccccccccsssscc" />
</svg>
