<?xml version="1.0" encoding="UTF-8" standalone="no"?>
<!-- Created with Inkscape (http://www.inkscape.org/) -->

<svg
   width="16"
   height="16"
   viewBox="0 0 4.2333333 4.2333333"
   version="1.1"
   id="svg5"
   inkscape:version="1.2 (dc2aedaf03, 2022-05-15)"
   sodipodi:docname="applications-graphics.svg"
   xmlns:inkscape="http://www.inkscape.org/namespaces/inkscape"
   xmlns:sodipodi="http://sodipodi.sourceforge.net/DTD/sodipodi-0.dtd"
   xmlns="http://www.w3.org/2000/svg"
   xmlns:svg="http://www.w3.org/2000/svg">
  <sodipodi:namedview
     id="namedview7"
     pagecolor="#ffffff"
     bordercolor="#666666"
     borderopacity="1.0"
     inkscape:pageshadow="2"
     inkscape:pageopacity="0.0"
     inkscape:pagecheckerboard="0"
     inkscape:document-units="px"
     showgrid="false"
     units="px"
     height="48px"
     inkscape:zoom="49.875"
     inkscape:cx="8.0200501"
     inkscape:cy="8"
     inkscape:window-width="1846"
     inkscape:window-height="1011"
     inkscape:window-x="0"
     inkscape:window-y="0"
     inkscape:window-maximized="1"
     inkscape:current-layer="svg5"
     inkscape:showpageshadow="2"
     inkscape:deskcolor="#d1d1d1" />
  <defs
     id="defs2" />
  <rect
     style="opacity:1;fill:#48b9c7;fill-opacity:1;stroke-width:0.264583"
     id="rect1162"
     width="3.7041667"
     height="3.7041667"
     x="0.26458332"
     y="0.26458332"
     ry="0.66145831" />
  <path
     id="rect1014"
     style="opacity:0.5;fill:#000000;stroke-width:0.999999"
     d="M 3.5 1 C 2.115 1 1 2.115 1 3.5 L 1 12.5 C 1 13.885 2.115 15 3.5 15 L 12.5 15 C 13.885 15 15 13.885 15 12.5 L 15 3.5 C 15 2.115 13.885 1 12.5 1 L 3.5 1 z M 4 2 L 12 2 C 13.108 2 14 2.892 14 4 L 14 12 C 14 13.108 13.108 14 12 14 L 4 14 C 2.892 14 2 13.108 2 12 L 2 4 C 2 2.892 2.892 2 4 2 z "
     transform="scale(0.26458333)" />
  <path
     d="m 2.1032308,1.3904204 c -0.2791351,0.00397 -0.6543725,0.105746 -0.6480225,0.4335648 0.00661,0.3421062 0.3860726,0.2202206 0.4170289,0.3601852 0.0045,-0.00609 0.011774,-0.011496 0.016536,-0.017052 0.026194,-0.02831 0.052619,-0.051297 0.078548,-0.07855 0.04154,-0.046567 0.084237,-0.089606 0.1281575,-0.1359085 C 2.2417937,1.7965558 2.2477431,1.7872954 2.5972574,1.5227121 2.464883,1.4436056 2.3151234,1.3981809 2.1611084,1.3904204 c -0.01929,-3.995e-4 -0.038587,-3.995e-4 -0.057878,0 z m 0.8123534,0 c -0.2381247,0.1719792 -0.5563237,0.4363032 -0.808736,0.7053845 -0.023019,0.024339 -0.045219,0.047739 -0.067179,0.072345 -0.013494,0.014288 -0.027583,0.026009 -0.041341,0.040825 -0.00873,0.010054 -0.016855,0.021468 -0.025321,0.031522 -0.1716591,0.1898154 -0.3412025,0.4134042 -0.4821423,0.6190833 -0.041332,-0.020926 -0.093336,-0.023394 -0.1483111,0.01292 -0.099748,0.065881 -0.078904,0.3023076 -0.2842205,0.3023076 0.019579,0.07964 0.2297369,0.07861 0.3715536,0.042892 0.1341435,-0.033338 0.1755262,-0.150921 0.1498616,-0.2490814 -0.00354,-0.013705 -0.00987,-0.028141 -0.018087,-0.041857 0.2619415,-0.2170562 0.4471239,-0.39742 0.574125,-0.5322675 0.03175,-0.032544 0.070321,-0.075113 0.1126548,-0.122473 C 2.4077205,2.0955429 2.6353907,1.8177225 2.9155842,1.3904204 Z M 1.8515666,1.5924748 C 2.1161782,1.5927923 2.1156614,1.989666 1.8510507,1.9893497 1.5864958,1.9889767 1.5870125,1.592102 1.8515666,1.5924748 Z m 0.9616982,0.08785 C 2.6254109,1.9758639 2.500118,2.150481 2.3672972,2.287006 2.2826308,2.3740539 2.2139465,2.4607393 2.1533569,2.5226518 2.0422319,2.640656 1.8966653,2.7792633 1.7363281,2.9319279 1.7447948,3.1263966 1.8432449,3.2950367 2.1652426,3.357743 2.6809149,3.4574909 3.2271848,3.1161096 3.172416,2.4234331 3.1486035,2.1260414 2.9863023,1.8573306 2.8132648,1.6803248 Z M 2.7791584,2.1180246 C 2.9556233,2.1182944 2.9551066,2.3828765 2.7786293,2.3826079 2.6023167,2.3821872 2.6028334,2.1176042 2.7791584,2.1180246 Z m 0,0.5291666 C 2.9556233,2.6474611 2.9551066,2.9120431 2.7786293,2.9117745 2.6023167,2.9113512 2.6028334,2.6467709 2.7791584,2.6471912 Z m -0.79375,0.2645833 C 2.1618734,2.9120391 2.1613567,3.1766264 1.9848925,3.1763579 1.8085799,3.1759345 1.8090966,2.9113541 1.9854084,2.9117745 Z m 0.5291667,0 C 2.69104,2.9120391 2.6905233,3.1766264 2.5140592,3.1763579 2.3377466,3.1759345 2.3382633,2.9113541 2.5145751,2.9117745 Z"
     style="stroke-width:0.264583;fill:#000000;opacity:0.2"
     id="path4953" />
  <path
     d="m 2.1032308,1.1258371 c -0.2791351,0.00397 -0.6543725,0.105746 -0.6480225,0.4335648 0.00661,0.3421062 0.3860726,0.2202206 0.4170289,0.3601852 0.0045,-0.00609 0.011774,-0.011496 0.016536,-0.017052 0.026194,-0.02831 0.052619,-0.051297 0.078548,-0.07855 0.04154,-0.046567 0.084237,-0.089606 0.1281575,-0.1359085 C 2.2417937,1.5319725 2.2477431,1.5227121 2.5972574,1.2581288 2.464883,1.1790223 2.3151234,1.1335976 2.1611084,1.1258371 c -0.01929,-3.995e-4 -0.038587,-3.995e-4 -0.057878,0 z m 0.8123534,0 c -0.2381247,0.1719792 -0.5563237,0.4363032 -0.808736,0.7053845 -0.023019,0.024339 -0.045219,0.047739 -0.067179,0.072345 -0.013494,0.014288 -0.027583,0.026009 -0.041341,0.040825 -0.00873,0.010054 -0.016855,0.021468 -0.025321,0.031522 -0.1716591,0.1898154 -0.3412025,0.4134042 -0.4821423,0.6190833 -0.041332,-0.020926 -0.093336,-0.023394 -0.1483111,0.01292 -0.099748,0.065881 -0.078904,0.3023076 -0.2842205,0.3023076 0.019579,0.07964 0.2297369,0.07861 0.3715536,0.042892 0.1341435,-0.033338 0.1755262,-0.150921 0.1498616,-0.2490814 -0.00354,-0.013705 -0.00987,-0.028141 -0.018087,-0.041857 0.2619415,-0.2170562 0.4471239,-0.39742 0.574125,-0.5322675 0.03175,-0.032544 0.070321,-0.075113 0.1126548,-0.122473 C 2.4077205,1.8309596 2.6353907,1.5531392 2.9155842,1.1258371 Z M 1.8515666,1.3278915 C 2.1161782,1.328209 2.1156614,1.7250827 1.8510507,1.7247664 1.5864958,1.7243934 1.5870125,1.3275187 1.8515666,1.3278915 Z m 0.9616982,0.08785 C 2.6254109,1.7112806 2.500118,1.8858977 2.3672972,2.0224227 2.2826308,2.1094706 2.2139465,2.196156 2.1533569,2.2580685 2.0422319,2.3760727 1.8966653,2.51468 1.7363281,2.6673446 1.7447948,2.8618133 1.8432449,3.0304534 2.1652426,3.0931597 2.6809149,3.1929076 3.2271848,2.8515263 3.172416,2.1588498 3.1486035,1.8614581 2.9863023,1.5927473 2.8132648,1.4157415 Z M 2.7791584,1.8534413 C 2.9556233,1.8537111 2.9551066,2.1182932 2.7786293,2.1180246 2.6023167,2.1176039 2.6028334,1.8530209 2.7791584,1.8534413 Z m 0,0.5291666 C 2.9556233,2.3828778 2.9551066,2.6474598 2.7786293,2.6471912 2.6023167,2.6467679 2.6028334,2.3821876 2.7791584,2.3826079 Z m -0.79375,0.2645833 C 2.1618734,2.6474558 2.1613567,2.9120431 1.9848925,2.9117746 1.8085799,2.9113512 1.8090966,2.6467708 1.9854084,2.6471912 Z m 0.5291667,0 C 2.69104,2.6474558 2.6905233,2.9120431 2.5140592,2.9117746 2.3377466,2.9113512 2.3382633,2.6467708 2.5145751,2.6471912 Z"
     id="path4802"
     style="stroke-width:0.264583;fill:#ffffff"
     sodipodi:nodetypes="ccccccccccccccccccccccccccccccccccccccccccccc" />
</svg>
