<?xml version="1.0" encoding="UTF-8" standalone="no"?>
<!-- Created with Inkscape (http://www.inkscape.org/) -->

<svg
   width="16"
   height="16"
   viewBox="0 0 4.2333333 4.2333333"
   version="1.1"
   id="svg5"
   inkscape:version="1.2 (dc2aedaf03, 2022-05-15)"
   sodipodi:docname="application-font.svg"
   xmlns:inkscape="http://www.inkscape.org/namespaces/inkscape"
   xmlns:sodipodi="http://sodipodi.sourceforge.net/DTD/sodipodi-0.dtd"
   xmlns="http://www.w3.org/2000/svg"
   xmlns:svg="http://www.w3.org/2000/svg">
  <sodipodi:namedview
     id="namedview7"
     pagecolor="#ffffff"
     bordercolor="#666666"
     borderopacity="1.0"
     inkscape:pageshadow="2"
     inkscape:pageopacity="0.0"
     inkscape:pagecheckerboard="0"
     inkscape:document-units="px"
     showgrid="false"
     units="px"
     height="48px"
     inkscape:zoom="50.0625"
     inkscape:cx="1.5980025"
     inkscape:cy="7.9900125"
     inkscape:window-width="1920"
     inkscape:window-height="1016"
     inkscape:window-x="0"
     inkscape:window-y="0"
     inkscape:window-maximized="1"
     inkscape:current-layer="svg5"
     inkscape:showpageshadow="2"
     inkscape:deskcolor="#d1d1d1" />
  <defs
     id="defs2" />
  <rect
     style="opacity:1;fill:#cdcdcd;fill-opacity:1;stroke-width:0.264583"
     id="rect1162"
     width="3.7041667"
     height="3.7041667"
     x="0.26458332"
     y="0.26458332"
     ry="0.66145831" />
  <path
     d="m 1.3229167,2.6458333 h 0.2645834 l 0.79375,-2.11666664 h 0.2645833 l 0.79375,2.11666664 H 3.7041667 V 2.9104166 H 2.778125 V 2.6458333 H 3.0427084 L 2.8535313,2.1166666 H 2.1775209 L 1.9843751,2.6458333 H 2.2489584 V 2.9104166 H 1.3229167 Z m 0.9260417,-0.79375 H 2.778125 L 2.5146,1.0027708 Z"
     id="path356"
     style="stroke-width:0.264583;fill:#000000" />
  <path
     id="rect1014"
     style="opacity:0.5;fill:#000000;stroke-width:0.999999"
     d="M 3.5 1 C 2.115 1 1 2.115 1 3.5 L 1 12.5 C 1 13.885 2.115 15 3.5 15 L 12.5 15 C 13.885 15 15 13.885 15 12.5 L 15 3.5 C 15 2.115 13.885 1 12.5 1 L 3.5 1 z M 4 2 L 12 2 C 13.108 2 14 2.892 14 4 L 14 12 C 14 13.108 13.108 14 12 14 L 4 14 C 2.892 14 2 13.108 2 12 L 2 4 C 2 2.892 2.892 2 4 2 z "
     transform="scale(0.26458333)" />
  <rect
     style="fill:#000000;fill-opacity:1;stroke-width:0.264583;opacity:0.2"
     id="rect1832"
     width="0.26458338"
     height="2.9104166"
     x="1.0583333"
     y="0.52916664" />
  <rect
     style="opacity:0.2;fill:#000000;fill-opacity:1;stroke-width:0.264583"
     id="rect1834"
     width="2.6458333"
     height="0.26458332"
     x="1.0583333"
     y="3.175" />
</svg>
