<?xml version="1.0" encoding="UTF-8" standalone="no"?>
<!-- Created with Inkscape (http://www.inkscape.org/) -->

<svg
   width="16"
   height="16"
   viewBox="0 0 4.2333333 4.2333333"
   version="1.1"
   id="svg5"
   inkscape:version="1.2 (dc2aedaf03, 2022-05-15)"
   sodipodi:docname="applications-system.svg"
   xmlns:inkscape="http://www.inkscape.org/namespaces/inkscape"
   xmlns:sodipodi="http://sodipodi.sourceforge.net/DTD/sodipodi-0.dtd"
   xmlns="http://www.w3.org/2000/svg"
   xmlns:svg="http://www.w3.org/2000/svg">
  <sodipodi:namedview
     id="namedview7"
     pagecolor="#ffffff"
     bordercolor="#666666"
     borderopacity="1.0"
     inkscape:pageshadow="2"
     inkscape:pageopacity="0.0"
     inkscape:pagecheckerboard="0"
     inkscape:document-units="px"
     showgrid="false"
     units="px"
     height="48px"
     inkscape:zoom="51.875"
     inkscape:cx="8.0385542"
     inkscape:cy="8"
     inkscape:window-width="1846"
     inkscape:window-height="1011"
     inkscape:window-x="0"
     inkscape:window-y="0"
     inkscape:window-maximized="1"
     inkscape:current-layer="svg5"
     inkscape:showpageshadow="2"
     inkscape:deskcolor="#d1d1d1"
     showguides="true" />
  <defs
     id="defs2" />
  <rect
     style="opacity:1;fill:#424242;fill-opacity:1;stroke-width:0.264583"
     id="rect1162"
     width="2.1166666"
     height="1.5875"
     x="1.0583333"
     y="2.3812499"
     ry="0.26458332" />
  <rect
     style="opacity:1;fill:#848484;fill-opacity:1;stroke-width:0.264583"
     id="rect3774"
     width="1.5875"
     height="1.3229166"
     x="1.3229166"
     y="2.3812499"
     ry="0.13229167" />
  <rect
     style="opacity:1;fill:#6f6f6f;fill-opacity:1;stroke-width:0.264583"
     id="rect2173"
     width="4.2333331"
     height="3.175"
     x="0"
     y="0.26458332"
     ry="0.26458332" />
  <rect
     style="opacity:1;fill:#acacac;fill-opacity:1;stroke-width:0.264583"
     id="rect2175"
     width="3.7041667"
     height="2.6458333"
     x="0.26458335"
     y="0.52916658"
     ry="0.13229166" />
  <rect
     style="fill:#464646;fill-opacity:1;stroke-width:0.383418"
     id="rect1437"
     width="3.175"
     height="1.8520833"
     x="0.52916658"
     y="0.79374993" />
  <path
     d="M 1.9212718,0.89693749 1.9040739,1.1027834 C 1.8388326,1.1269402 1.7781727,1.162012 1.7246864,1.2065001 L 1.537626,1.1183938 1.3423635,1.4567959 1.5119614,1.5748001 c -0.006,0.03416 -0.0091,0.068768 -0.00926,0.103452 4.12e-5,0.034853 0.00305,0.069639 0.009,0.1039813 L 1.3423635,1.8997084 1.537626,2.238375 1.7241572,2.1502688 c 0.053685,0.044352 0.1145256,0.079246 0.1799167,0.1031875 l 0.017198,0.206375 H 2.3120614 L 2.3292593,2.2537209 C 2.3945005,2.229564 2.4551605,2.1944922 2.5086468,2.1500042 L 2.6957072,2.2381105 2.8909697,1.8997084 2.7211072,1.7819688 c 0.00611,-0.03424 0.00929,-0.068937 0.00953,-0.1037167 -4.13e-5,-0.034853 -0.00305,-0.069639 -0.009,-0.1039812 L 2.8909697,1.4567959 2.6957072,1.1183938 2.5089114,1.2062355 C 2.4552263,1.1618833 2.3943858,1.1269895 2.3289947,1.103048 L 2.3120614,0.89693749 Z M 2.1165343,1.4552084 c 0.1232265,-1e-7 0.2231623,0.099817 0.2233083,0.2230437 0,0.1233298 -0.099979,0.2233084 -0.2233083,0.2233084 -0.1232265,-1.46e-4 -0.2230438,-0.1000818 -0.2230438,-0.2233084 0,-0.1232265 0.099817,-0.2231623 0.2230438,-0.2233083 z"
     style="fill:#ffffff;stroke-width:0.264583"
     id="path308" />
</svg>
