<?xml version="1.0" encoding="UTF-8" standalone="no"?>
<!-- Created with Inkscape (http://www.inkscape.org/) -->

<svg
   width="16"
   height="16"
   viewBox="0 0 4.2333333 4.2333333"
   version="1.1"
   id="svg5"
   inkscape:version="1.2 (dc2aedaf03, 2022-05-15)"
   sodipodi:docname="applications-multimedia.svg"
   xmlns:inkscape="http://www.inkscape.org/namespaces/inkscape"
   xmlns:sodipodi="http://sodipodi.sourceforge.net/DTD/sodipodi-0.dtd"
   xmlns="http://www.w3.org/2000/svg"
   xmlns:svg="http://www.w3.org/2000/svg">
  <sodipodi:namedview
     id="namedview7"
     pagecolor="#ffffff"
     bordercolor="#666666"
     borderopacity="1.0"
     inkscape:pageshadow="2"
     inkscape:pageopacity="0.0"
     inkscape:pagecheckerboard="0"
     inkscape:document-units="px"
     showgrid="false"
     units="px"
     height="48px"
     inkscape:zoom="25.4375"
     inkscape:cx="18.162162"
     inkscape:cy="17.651106"
     inkscape:window-width="1846"
     inkscape:window-height="1011"
     inkscape:window-x="0"
     inkscape:window-y="0"
     inkscape:window-maximized="1"
     inkscape:current-layer="svg5"
     inkscape:showpageshadow="2"
     inkscape:deskcolor="#d1d1d1" />
  <defs
     id="defs2" />
  <rect
     style="opacity:1;fill:#500302;fill-opacity:1;stroke-width:0.132291"
     id="rect4380"
     width="3.175"
     height="3.175"
     x="1.0583332"
     y="5.5511151e-17"
     ry="0.52916664" />
  <rect
     style="opacity:1;fill:#a10705;fill-opacity:1;stroke-width:0.264583"
     id="rect4538"
     width="2.6458333"
     height="2.6458333"
     x="1.3229165"
     y="0.26458332"
     ry="0.39687499" />
  <path
     d="m 1.9351528,0.65621318 c -0.045884,0 -0.083069,0.0368558 -0.083069,0.0824165 V 2.4257607 c 0,0.062599 0.067587,0.1023261 0.1229205,0.07223 l 1.559331,-0.8436116 c 0.057531,-0.031253 0.057531,-0.1132069 0,-0.1444604 L 2.1308527,0.75066815 1.9750038,0.66635323 c -0.012219,-0.006673 -0.025944,-0.0101733 -0.039898,-0.0101866 z"
     style="color:#000000;text-indent:0;text-decoration-line:none;text-decoration-style:solid;text-decoration-color:#000000;text-transform:none;white-space:normal;isolation:auto;mix-blend-mode:normal;fill:#ffffff;fill-opacity:0.94;stroke-width:0.0465369"
     id="path5591" />
  <rect
     style="opacity:1;fill:#793914;fill-opacity:1;stroke-width:0.132291"
     id="rect845"
     width="3.175"
     height="3.175"
     x="5.5511151e-17"
     y="1.0583333"
     ry="0.52916664" />
  <rect
     style="opacity:1;fill:#f37329;fill-opacity:1;stroke-width:0.264583"
     id="rect1249"
     width="2.6458333"
     height="2.6458333"
     x="0.26458362"
     y="1.3229169"
     ry="0.39687499" />
  <path
     id="path13115"
     style="opacity:0.2;fill:#000000;stroke-width:0.264583;stroke-linejoin:round"
     d="m 1.0583334,2.1166666 v 1.0810716 c -0.042486,-0.015036 -0.087223,-0.022725 -0.13229173,-0.022738 -0.219188,0 -0.396875,0.177687 -0.396875,0.396875 0,0.219188 0.177687,0.396875 0.396875,0.396875 0.21918803,0 0.39687503,-0.177687 0.39687503,-0.396875 V 2.6458333 h 0.79375 v 0.5519049 c -0.042486,-0.015036 -0.087223,-0.022725 -0.1322917,-0.022738 -0.219188,0 -0.3968749,0.177687 -0.3968749,0.396875 0,0.219188 0.1776869,0.396875 0.3968749,0.396875 0.219188,0 0.396875,-0.177687 0.396875,-0.396875 V 2.1166666 Z"
     sodipodi:nodetypes="cccsssccccssscc" />
  <path
     d="m 1.0583334,1.8520833 v 1.0810716 c -0.042486,-0.015036 -0.087223,-0.022725 -0.13229173,-0.022738 -0.219188,0 -0.396875,0.177687 -0.396875,0.396875 0,0.219188 0.177687,0.396875 0.396875,0.396875 0.21918803,0 0.39687503,-0.177687 0.39687503,-0.396875 V 2.38125 h 0.79375 v 0.5519049 c -0.042486,-0.015036 -0.087223,-0.022725 -0.1322917,-0.022738 -0.219188,0 -0.3968749,0.177687 -0.3968749,0.396875 0,0.219188 0.1776869,0.396875 0.3968749,0.396875 0.219188,0 0.396875,-0.177687 0.396875,-0.396875 V 1.8520833 Z"
     style="opacity:0.95;fill:#ffffff;stroke-width:0.264583;stroke-linejoin:round"
     id="path13562" />
</svg>
