<?xml version="1.0" encoding="UTF-8" standalone="no"?>
<!-- Created with Inkscape (http://www.inkscape.org/) -->

<svg
   width="16"
   height="16"
   viewBox="0 0 4.2333333 4.2333333"
   version="1.1"
   id="svg5"
   inkscape:version="1.2 (dc2aedaf03, 2022-05-15)"
   sodipodi:docname="applications-games.svg"
   xmlns:inkscape="http://www.inkscape.org/namespaces/inkscape"
   xmlns:sodipodi="http://sodipodi.sourceforge.net/DTD/sodipodi-0.dtd"
   xmlns="http://www.w3.org/2000/svg"
   xmlns:svg="http://www.w3.org/2000/svg">
  <sodipodi:namedview
     id="namedview7"
     pagecolor="#ffffff"
     bordercolor="#666666"
     borderopacity="1.0"
     inkscape:pageshadow="2"
     inkscape:pageopacity="0.0"
     inkscape:pagecheckerboard="0"
     inkscape:document-units="px"
     showgrid="false"
     units="px"
     height="48px"
     inkscape:zoom="35.399533"
     inkscape:cx="3.8983565"
     inkscape:cy="10.536862"
     inkscape:window-width="1846"
     inkscape:window-height="1011"
     inkscape:window-x="0"
     inkscape:window-y="0"
     inkscape:window-maximized="1"
     inkscape:current-layer="svg5"
     inkscape:showpageshadow="2"
     inkscape:deskcolor="#d1d1d1" />
  <defs
     id="defs2" />
  <rect
     style="opacity:1;fill:#3f51b5;fill-opacity:1;stroke-width:0.264583"
     id="rect1162"
     width="3.7041667"
     height="3.7041667"
     x="0.26458332"
     y="0.26458332"
     ry="0.66145831" />
  <path
     id="rect1014"
     style="opacity:0.5;fill:#000000;stroke-width:0.999999"
     d="M 3.5 1 C 2.115 1 1 2.115 1 3.5 L 1 12.5 C 1 13.885 2.115 15 3.5 15 L 12.5 15 C 13.885 15 15 13.885 15 12.5 L 15 3.5 C 15 2.115 13.885 1 12.5 1 L 3.5 1 z M 4 2 L 12 2 C 13.108 2 14 2.892 14 4 L 14 12 C 14 13.108 13.108 14 12 14 L 4 14 C 2.892 14 2 13.108 2 12 L 2 4 C 2 2.892 2.892 2 4 2 z "
     transform="scale(0.26458333)" />
  <path
     d="m 1.190629,1.0583341 c -0.07329,0 -0.1322922,0.059002 -0.1322922,0.1322922 V 1.3229185 L 0.79737,3.5408738 c -0.00238,0.00994 -0.00362,0.02032 -0.00362,0.031006 0,0.07329 0.059002,0.1322922 0.1322922,0.1322922 0.07329,0 0.1322922,-0.059002 0.1322922,-0.1322922 L 1.4552048,2.9104202 h 1.3229185 l 0.3968756,0.6614592 c 0,0.07329 0.059002,0.1322922 0.1322922,0.1322922 0.07329,0 0.1322922,-0.059002 0.1322922,-0.1322922 0,-0.01068 -0.00132,-0.021064 -0.00362,-0.031006 L 3.1750069,1.3229177 V 1.1906255 c 0,-0.07329 -0.059002,-0.1322922 -0.1322922,-0.1322922 H 2.5135475 c -0.07329,0 -0.1322922,0.059002 -0.1322922,0.1322922 V 1.3229177 H 1.8520882 V 1.1906255 c 0,-0.07329 -0.059002,-0.1322922 -0.1322922,-0.1322922 z"
     style="fill:#000000;stroke-width:0.264584;opacity:0.2"
     id="path9076" />
  <path
     d="m 1.190629,0.79375079 c -0.07329,0 -0.1322922,0.059002 -0.1322922,0.1322922 V 1.0583352 L 0.79736999,3.2762905 c -0.00238,0.00994 -0.00362,0.02032 -0.00362,0.031006 0,0.07329 0.059002,0.1322922 0.1322922,0.1322922 0.07329,0 0.13229221,-0.059002 0.13229221,-0.1322922 L 1.4552048,2.6458369 h 1.3229185 l 0.3968756,0.6614592 c 0,0.07329 0.059002,0.1322922 0.1322922,0.1322922 0.07329,0 0.1322922,-0.059002 0.1322922,-0.1322922 0,-0.01068 -0.00132,-0.021064 -0.00362,-0.031006 L 3.1750069,1.0583344 V 0.92604219 c 0,-0.07329 -0.059002,-0.1322922 -0.1322922,-0.1322922 H 2.5135475 c -0.07329,0 -0.1322922,0.059002 -0.1322922,0.1322922 V 1.0583344 H 1.8520882 V 0.92604219 c 0,-0.07329 -0.059002,-0.1322922 -0.1322922,-0.1322922 z"
     style="fill:#ffffff;stroke-width:0.264584"
     id="path7791"
     sodipodi:nodetypes="csccssccccssccssssccscc" />
  <path
     id="rect7169"
     style="fill:#3f51b5;stroke-width:0.132292"
     d="m 1.7197918,1.3229167 c -0.07329,0 -0.1322917,0.059002 -0.1322917,0.1322917 V 1.5875 H 1.4552084 c -0.07329,0 -0.1322917,0.059002 -0.1322917,0.1322917 0,0.07329 0.059002,0.1322917 0.1322917,0.1322917 H 1.5875001 V 1.984375 c 0,0.07329 0.059002,0.1322917 0.1322917,0.1322917 0.07329,0 0.1322916,-0.059002 0.1322916,-0.1322917 V 1.8520834 h 0.1322917 c 0.07329,0 0.1322917,-0.059002 0.1322917,-0.1322917 0,-0.07329 -0.059002,-0.1322917 -0.1322917,-0.1322917 H 1.8520834 V 1.4552084 c 0,-0.07329 -0.059002,-0.1322917 -0.1322916,-0.1322917 z M 2.5135418,1.5875 c -0.07329,0 -0.1322917,0.059002 -0.1322917,0.1322917 V 1.984375 c 0,0.07329 0.059002,0.1322917 0.1322917,0.1322917 h 0.2645833 c 0.07329,0 0.1322917,-0.059002 0.1322917,-0.1322917 V 1.7197917 c 0,-0.07329 -0.059002,-0.1322917 -0.1322917,-0.1322917 z" />
</svg>
