<?xml version="1.0" encoding="UTF-8" standalone="no"?>
<!-- Created with Inkscape (http://www.inkscape.org/) -->

<svg
   width="16"
   height="16"
   viewBox="0 0 4.2333333 4.2333333"
   version="1.1"
   id="svg5"
   inkscape:version="1.2 (dc2aedaf03, 2022-05-15)"
   sodipodi:docname="applications-educations.svg"
   xmlns:inkscape="http://www.inkscape.org/namespaces/inkscape"
   xmlns:sodipodi="http://sodipodi.sourceforge.net/DTD/sodipodi-0.dtd"
   xmlns="http://www.w3.org/2000/svg"
   xmlns:svg="http://www.w3.org/2000/svg">
  <sodipodi:namedview
     id="namedview7"
     pagecolor="#ffffff"
     bordercolor="#666666"
     borderopacity="1.0"
     inkscape:pageshadow="2"
     inkscape:pageopacity="0.0"
     inkscape:pagecheckerboard="0"
     inkscape:document-units="px"
     showgrid="false"
     units="px"
     height="48px"
     inkscape:zoom="50.875"
     inkscape:cx="8.039312"
     inkscape:cy="8"
     inkscape:window-width="1846"
     inkscape:window-height="1011"
     inkscape:window-x="0"
     inkscape:window-y="0"
     inkscape:window-maximized="1"
     inkscape:current-layer="svg5"
     inkscape:showpageshadow="2"
     inkscape:deskcolor="#d1d1d1" />
  <defs
     id="defs2" />
  <rect
     style="opacity:1;fill:#2e7153;fill-opacity:1;stroke-width:0.264583"
     id="rect1162"
     width="3.7041667"
     height="3.7041667"
     x="0.26458332"
     y="0.26458332"
     ry="0.66145831" />
  <path
     id="rect1014"
     style="opacity:0.5;fill:#000000;stroke-width:0.999999"
     d="M 3.5 1 C 2.115 1 1 2.115 1 3.5 L 1 12.5 C 1 13.885 2.115 15 3.5 15 L 12.5 15 C 13.885 15 15 13.885 15 12.5 L 15 3.5 C 15 2.115 13.885 1 12.5 1 L 3.5 1 z M 4 2 L 12 2 C 13.108 2 14 2.892 14 4 L 14 12 C 14 13.108 13.108 14 12 14 L 4 14 C 2.892 14 2 13.108 2 12 L 2 4 C 2 2.892 2.892 2 4 2 z "
     transform="scale(0.26458333)" />
  <path
     d="m 3.4504313,1.1668109 c -0.00653,0.00388 -0.013142,0.00582 -0.019844,0.00582 -0.00388,0 -0.00979,-0.00124 -0.017727,-0.0037 -0.00653,-0.00529 -0.015081,-0.011906 -0.025664,-0.019844 -0.010583,-0.00935 -0.019756,-0.017904 -0.027517,-0.025665 h 0.027517 c 0,0.010583 0.00926,0.019756 0.027781,0.027517 0.018344,0.00406 0.030162,0.00935 0.035454,0.015875 z m 0.039688,0.8514292 -0.021961,0.00397 v -0.021696 c 0.00406,0.00124 0.00741,0.00317 0.010054,0.00582 z M 3.5946292,1.3901192 c -0.00388,-0.00794 -0.00714,-0.012612 -0.00979,-0.014023 l -0.011906,-0.00979 -0.019844,0.00397 c -0.011819,0 -0.025665,-0.00988 -0.04154,-0.029633 -0.00529,-0.00794 -0.012523,-0.015169 -0.021696,-0.021696 -0.00265,-0.00124 -0.00591,-0.00388 -0.00979,-0.00794 -0.00917,0 -0.01905,0.00529 -0.029633,0.015875 l 0.029633,0.071173 c 0.00388,0.010583 0.00714,0.026987 0.00979,0.049213 0.00529,-0.011818 0.015169,-0.02099 0.029633,-0.027517 l 0.071437,-0.00794 -0.010054,0.035454 -0.049477,0.013758 0.017727,0.019844 c 0.00406,0.00406 0.00609,0.010671 0.00609,0.019844 l -0.00609,0.019844 -0.015875,-0.00609 c -0.00388,-0.00265 -0.010407,-0.00397 -0.019579,-0.00397 l -0.023813,0.023813 0.029633,0.023813 c 0.014465,0.00776 0.021696,0.019579 0.021696,0.035454 -0.022225,0.00794 -0.048507,0.025665 -0.078846,0.053181 l -0.092869,0.087048 -0.00979,0.039687 0.027517,0.0037 -0.090752,0.069321 -0.019844,-0.037571 c -0.00529,-0.00935 -0.015169,-0.010671 -0.029633,-0.00397 l -0.023813,0.03175 h -0.017727 c 0.00794,-0.01464 0.00265,-0.023901 -0.015875,-0.027781 l -0.033602,-0.011906 -0.00794,0.027517 0.00609,0.027781 0.019844,0.033602 c 0.00529,0.00529 0.010583,0.00794 0.015875,0.00794 l 0.015875,0.00185 0.017463,-0.027781 h 0.023813 c 0.00388,0.022401 -0.00468,0.046214 -0.025665,0.071438 -0.021167,0.024694 -0.03175,0.042333 -0.03175,0.052917 0,0.00935 0.00265,0.019315 0.00794,0.029898 l 0.039688,0.041275 c 0.023635,-0.014464 0.035454,-0.0381 0.035454,-0.070908 l 0.00582,-0.055563 h 0.039688 c 0.00265,0.0067 0.00459,0.018609 0.00582,0.035719 0.00265,0.015875 0.00397,0.03369 0.00397,0.053446 0,0.042157 0.010583,0.076994 0.03175,0.1045104 l -0.00609,0.045508 c 0,0.015875 0.00794,0.027693 0.023813,0.035454 l 0.015875,-0.019579 0.00794,-0.035719 -0.00212,-0.039423 c 0,-0.024871 0.012523,-0.037306 0.037571,-0.037306 l 0.017727,0.00185 0.017727,0.00794 0.017727,0.013758 c -0.015875,0.00388 -0.028398,0.013053 -0.037571,0.027517 -0.00653,0.015875 -0.00979,0.035013 -0.00979,0.057415 v 0.03175 l 0.00794,0.041275 c 0.023635,0.00653 0.035454,0.017727 0.035454,0.033602 0,0.010583 -0.00723,0.025047 -0.021696,0.043392 l -0.021696,0.03175 0.017727,0.00185 0.039687,-0.00609 v -0.00979 h 0.00979 v 0.069056 c -0.00388,-0.010583 -0.011819,-0.015875 -0.023813,-0.015875 -0.00776,0 -0.013671,0.00529 -0.017727,0.015875 l 0.013758,0.039687 c -0.020989,0 -0.033426,0.014464 -0.037306,0.043392 0,0.023636 -0.00397,0.040746 -0.011906,0.051329 -0.00794,-0.011818 -0.011906,-0.024342 -0.011906,-0.037571 l 0.00582,-0.037571 0.00794,-0.043392 c 0,-0.023636 -0.015788,-0.035454 -0.04736,-0.035454 l -0.039687,0.037571 c -0.00653,0.00776 -0.00979,0.019579 -0.00979,0.035454 l 0.023813,0.013758 c 0.013229,0.00406 0.021783,0.010054 0.025665,0.017992 l -0.04154,0.074877 c -0.011819,0.019756 -0.017727,0.038894 -0.017727,0.057415 0,0.018521 0.00723,0.034925 0.021696,0.049212 0,0.00935 -0.00459,0.02055 -0.013758,0.033602 l -0.025665,0.029633 c -0.00406,-0.00653 -0.00609,-0.013758 -0.00609,-0.021696 l 0.00609,-0.03175 0.00794,-0.037306 c 0,-0.015875 -0.010583,-0.026458 -0.03175,-0.03175 -0.00388,0.00406 -0.013052,0.022578 -0.027517,0.055563 -0.00935,0.027517 -0.027164,0.039335 -0.053446,0.035454 0,0.022402 -0.00397,0.047449 -0.011906,0.075142 l -0.027517,0.086783 -0.010054,-0.025664 c -0.00388,-0.013229 -0.011113,-0.022402 -0.021696,-0.027517 -0.00529,0.00246 -0.00855,0.011642 -0.00979,0.027517 0,0.013229 -0.00591,0.021783 -0.017727,0.025664 l -0.015879,-0.013738 c -0.00529,-0.00388 -0.010583,-0.00257 -0.015875,0.00397 -0.011819,0.00653 -0.020989,0.020373 -0.027517,0.041539 -0.0067,0.021167 -0.016582,0.032367 -0.029633,0.033602 l -0.023813,-0.00609 c -0.00529,0.019756 -0.029016,0.031662 -0.071173,0.035719 -0.039511,0 -0.061207,0.015081 -0.065087,0.045244 -0.00529,-0.00265 -0.00855,-0.00794 -0.00979,-0.015875 l 0.00794,-0.039423 c 0,-0.010583 -0.00864,-0.016492 -0.025929,-0.017727 -0.011819,-0.00388 -0.026281,0.00204 -0.043392,0.017727 -0.015875,0.015875 -0.028399,0.025135 -0.037571,0.027781 l -0.00979,-0.080963 -0.017727,-0.00609 c -0.00917,0 -0.023019,0.00468 -0.04154,0.014023 l -0.033602,0.011642 c -0.013229,0 -0.019844,-0.013758 -0.019844,-0.041275 l -0.011642,-0.014023 -0.010054,-0.00582 -0.017727,0.019844 c 0.00265,0.00246 0.00397,0.00573 0.00397,0.00979 0.00141,0.00388 0.00273,0.00653 0.00397,0.00794 l -0.021696,0.013758 c 0.00388,-0.019756 -0.006,-0.037571 -0.029633,-0.053446 -0.022401,-0.015875 -0.035631,-0.029633 -0.039687,-0.041275 -0.019756,0.00529 -0.030251,0.016491 -0.031485,0.033602 l 0.00397,0.021696 0.00397,0.025665 c 0,0.013052 -0.00855,0.023635 -0.025665,0.03175 -0.014464,-0.00406 -0.023724,-0.024519 -0.027781,-0.061383 0,-0.038277 -0.017727,-0.054152 -0.053181,-0.047625 -0.00265,0.017285 -0.00732,0.031133 -0.014023,0.041539 -0.00653,0.010583 -0.01711,0.013229 -0.03175,0.00794 l 0.00423,-0.021696 -0.00794,-0.037571 -0.00582,-0.045244 0.00582,-0.029633 c 0.00388,-0.00794 0.015699,-0.017198 0.035454,-0.027781 l -0.00185,-0.027517 0.00185,-0.03175 c 0,-0.021167 -0.00855,-0.036336 -0.025665,-0.045508 h -0.03175 l 0.012171,-0.033602 c 0.00388,-0.00917 0.010407,-0.014464 0.019579,-0.015875 l -0.00979,-0.06694 c -0.00141,-0.021167 -0.00406,-0.039687 -0.00794,-0.055562 -0.00265,-0.015699 -0.00723,-0.029457 -0.013758,-0.041275 0.011818,0 0.021696,-0.00459 0.029633,-0.013758 0.00917,-0.010583 0.015787,-0.02249 0.019844,-0.035719 -0.00141,-0.014464 5.291e-4,-0.035542 0.00582,-0.063235 0.00794,-0.023636 0.011906,-0.040746 0.011906,-0.051329 0,-0.011818 -0.00265,-0.023019 -0.00794,-0.033602 l -0.019844,-0.027517 c 0.014464,-0.011818 0.021696,-0.026988 0.021696,-0.045508 0,-0.00917 -0.00653,-0.026282 -0.019579,-0.051329 l -0.019844,-0.047625 c 0,-0.015699 0.00917,-0.03078 0.027517,-0.045244 -0.00247,-0.00388 -0.010407,-0.00714 -0.023813,-0.00979 l -0.017462,0.019579 v -0.031485 c 0.011818,0 0.020373,-0.00529 0.025665,-0.015875 l 0.015875,-0.035454 -0.023813,-0.049213 c 0.00794,-0.0067 0.013846,-0.019226 0.017727,-0.037571 0.00388,-0.018521 0.011818,-0.032985 0.023813,-0.043392 L 2.35585,1.7613296 c -0.00388,-0.013053 -0.011113,-0.022225 -0.021696,-0.027517 l -0.04154,0.011906 c 0,-0.0067 0.00926,-0.021255 0.027781,-0.043656 0.019756,-0.022225 0.030956,-0.038629 0.033602,-0.049212 0,-0.011818 -0.00855,-0.024342 -0.025664,-0.037571 l -0.00212,-0.065087 -0.00397,-0.049477 c 0,-0.019756 0.00203,-0.035631 0.00609,-0.047625 l -0.00794,-0.037306 -0.00212,-0.037571 c 0,-0.067028 0.018521,-0.1249715 0.055563,-0.1738313 0.02099,0.00265 0.043921,-0.00591 0.068792,-0.025664 0.025224,-0.021167 0.045067,-0.033073 0.059531,-0.035719 0.01711,0 0.034837,0.011201 0.053181,0.033602 0.0067,-0.00124 0.017903,-0.013053 0.033602,-0.035454 0.015875,-0.018521 0.029722,-0.029104 0.04154,-0.03175 0.00917,0 0.021696,0.006 0.037571,0.017992 0.015875,0 0.030339,-0.011201 0.043392,-0.033602 0.013229,-0.023813 0.027781,-0.037042 0.043656,-0.039688 0.013052,0 0.024871,0.00335 0.035454,0.010054 0.00388,-0.00794 0.00917,-0.012612 0.015875,-0.014023 l 0.051329,0.021696 -0.00609,0.019844 c 0,0.010583 0.00732,0.019844 0.02196,0.027781 0.010583,0.00265 0.026371,0.00397 0.04736,0.00397 l 0.017727,-0.027781 -0.037571,-0.013758 c -0.010583,-0.00529 -0.017815,-0.014552 -0.021696,-0.027781 l 0.017727,-0.00397 c 0.011819,0 0.027693,0.00467 0.047625,0.014023 l 0.043392,0.011642 c 0.00917,0 0.019756,-0.00388 0.03175,-0.011642 v 0.059267 l 0.021431,0.00582 c 0.011819,0 0.026987,-0.011201 0.045508,-0.033602 0.015875,-0.023636 0.029104,-0.035454 0.039688,-0.035454 0.011819,0 0.027605,0.011818 0.04736,0.035454 l 0.045244,-0.00794 h 0.029633 l 0.019844,-0.00185 -0.071173,0.037571 0.07911,0.03175 c 0.00917,0 0.01905,-0.00335 0.029633,-0.010054 0,0.022401 0.018433,0.038276 0.055298,0.047625 0.0381,0.00917 0.06447,0.023636 0.07911,0.043392 0.032808,0.015875 0.061031,0.033602 0.084667,0.053181 0.023635,0.019579 0.04542,0.045244 0.065352,0.076994 z m -1.260475,0.8712729 -0.013758,-0.039688 h 0.013758 z m 1.2070291,0.023813 -0.041275,-0.010054 c 0.00388,-0.011818 0.00776,-0.020373 0.011642,-0.025665 0.00529,-0.0067 0.01129,-0.011377 0.017992,-0.014023 0.00776,0 0.011642,0.00864 0.011642,0.025929 z m -0.090752,0.3058584 -0.00212,0.023813 c 0,0.010583 -0.00265,0.016492 -0.00794,0.017727 l -0.013758,-0.04154 z M 3.2863896,2.8537942 c -0.018344,0 -0.031573,-0.010496 -0.039687,-0.031485 l 0.039687,-0.00979 z M 2.9842354,1.1035755 c -0.00529,-0.00529 -0.00661,-0.011201 -0.00397,-0.017727 h -0.017727 v 0.027517 c 0.010583,0 0.017814,-0.00326 0.021697,-0.00979 z m 0.161925,0.03175 V 1.095638 h -0.043392 c -0.010583,0.011818 -0.00997,0.021696 0.00185,0.029633 0.011993,0.00794 0.025842,0.011201 0.04154,0.00979 z m -0.043392,0.090752 -0.00212,-0.021696 c 0,-0.014464 -0.00265,-0.023724 -0.00794,-0.027781 v 0.049477 z m 0.2667,0.049477 c -0.00265,-0.00265 -0.010583,-0.00529 -0.023813,-0.00794 v 0.03175 c 0.00794,-0.00529 0.014552,-0.011994 0.019844,-0.020108 0,-0.00124 0.00132,-0.00247 0.00397,-0.0037 z m -0.1322917,0 -0.02196,0.055298 h 0.014023 l 0.017727,-0.043656 c -0.00388,-0.00776 -0.00714,-0.011642 -0.00979,-0.011642 z M 3.3774059,1.397792 V 1.356517 c 0,-0.01711 -0.00926,-0.025665 -0.027781,-0.025665 l -0.011906,0.080962 c 0.0067,0.00388 0.014639,0.00256 0.023813,-0.00397 z m 0,0.055562 c -0.014465,0 -0.025048,0.00591 -0.03175,0.017727 h 0.023813 z m -0.059267,0.025664 h -0.021696 v 0.023813 l 0.017727,-0.00423 c 0.00388,0 0.00582,-0.00132 0.00582,-0.00397 0.0014,-0.00388 7.937e-4,-0.00917 -0.00185,-0.015875 z m -0.080963,0.041275 v 0.021961 h 0.017727 l 0.00794,-0.00794 c -0.0014,-0.00794 -0.00997,-0.012612 -0.025665,-0.014023 z m -0.0635,0.091017 V 1.573739 l 0.00212,-0.039688 c 0,-0.034043 -0.00326,-0.060325 -0.00979,-0.078846 -0.00529,-0.019756 -0.019137,-0.038806 -0.04154,-0.05715 -0.022402,-0.00794 -0.042157,-0.020461 -0.059267,-0.037571 -0.017111,-0.01711 -0.027693,-0.034925 -0.03175,-0.053446 0,0.019756 -0.00265,0.030339 -0.00794,0.03175 -0.00246,-0.015875 -0.00961,-0.027781 -0.021431,-0.035719 -0.010583,-0.00917 -0.023813,-0.014464 -0.039687,-0.015875 -0.013052,0 -0.024254,0.00661 -0.033602,0.019844 L 2.8657009,1.283225 c -0.014465,-0.00653 -0.028928,-0.019667 -0.043392,-0.039423 -0.00794,-0.00388 -0.015875,-0.00326 -0.023813,0.00185 -0.00794,0.00406 -0.013846,0.011289 -0.017727,0.021696 -0.010583,0.010583 -0.02249,0.017198 -0.035719,0.019844 -0.011819,0 -0.028928,-0.010583 -0.051329,-0.03175 -0.019756,-0.022225 -0.032896,-0.03466 -0.039423,-0.037306 l -0.033602,0.04736 c -0.010583,0.022401 -0.025047,0.039511 -0.043392,0.051329 l 0.00794,0.03175 -0.00794,0.035454 -0.00609,0.037571 0.00609,0.025664 0.03175,-0.04154 c 0.015699,-0.018521 0.024871,-0.037659 0.027517,-0.057415 l 0.00979,0.015875 0.011906,0.015875 c -0.00917,0.00529 -0.018433,0.013229 -0.027781,0.023813 l -0.00794,0.025665 c 0,0.010583 0.00794,0.02831 0.023813,0.053181 0.015875,0.025047 0.023813,0.042863 0.023813,0.053446 0,0.014464 -0.014552,0.025665 -0.043656,0.033602 0.00406,-0.00794 0.00935,-0.012612 0.015875,-0.014023 l 0.025665,0.014023 c 0.00794,0.00794 0.014552,0.019138 0.019844,0.033602 l 0.00582,0.037571 -0.00397,0.055298 -0.00397,0.041275 c 0.018521,0.00529 0.029721,0.025753 0.033602,0.061383 0,0.032985 0.00988,0.053358 0.029633,0.061119 0,-0.028928 0.00529,-0.046655 0.015875,-0.053181 0.011819,-0.00794 0.027693,-0.011906 0.047625,-0.011906 h 0.0254 c 0.013229,0 0.023813,-0.00194 0.03175,-0.00582 0.00917,-0.00529 0.015788,-0.016492 0.019844,-0.033602 l 0.019579,0.0037 c 0.014465,0 0.031574,-0.013758 0.051329,-0.041275 0.017111,-0.029104 0.036865,-0.043656 0.059267,-0.043656 l -0.00185,0.029633 0.00582,0.053446 0.00609,0.049477 -0.00397,0.029633 h 0.017727 v -0.00794 c 0.00388,-0.023813 0.017111,-0.037659 0.039688,-0.04154 0.00388,-0.00529 0.00714,-0.013846 0.00979,-0.025665 0,-0.021167 -0.010583,-0.03369 -0.03175,-0.037571 l -0.00794,-0.033602 c 0,-0.021167 0.00661,-0.040922 0.019844,-0.059267 l 0.04154,-0.05715 0.027517,0.031485 c 0.00529,0.00529 0.015875,0.00723 0.03175,0.00582 z M 2.5730729,1.57374 c 0.00406,-0.00794 0.00141,-0.015875 -0.00794,-0.023813 L 2.5455539,1.534052 2.5317959,1.552044 c 0.00794,0.021167 0.021784,0.028399 0.04154,0.021696 z m 0.7646459,0.037571 v -0.00979 c -0.00388,-0.00794 -0.00979,-0.00997 -0.017727,-0.00609 -0.00529,0.00265 -0.00855,0.00794 -0.00979,0.015875 z m -0.8001,0.00397 h -0.023813 v 0.023813 c 0,0.011818 0.006,0.017727 0.017992,0.017727 0.00529,-0.00529 0.00794,-0.010583 0.00794,-0.015875 z m 0.727075,0.080962 c 0,-0.010583 -0.00326,-0.017815 -0.00979,-0.021696 v 0.03175 z m -0.638175,0.00979 c -0.00388,-0.021167 -0.011112,-0.032367 -0.021696,-0.033602 -0.010583,0 -0.021167,0.00855 -0.03175,0.025665 -0.00917,0.017286 -0.012435,0.033161 -0.00979,0.047625 0.00265,0.00388 0.00467,0.00847 0.00609,0.013758 0.00265,0.00529 0.00529,0.013229 0.00794,0.023813 0.00265,0.00917 0.011818,0.013758 0.027517,0.013758 l -0.00185,-0.035719 c 0,-0.013053 -0.00265,-0.025488 -0.00794,-0.037306 0.013229,-0.013229 0.023813,-0.019226 0.03175,-0.017992 z m -0.130175,0.027781 h -0.014023 l 0.010054,0.021696 z m 0.1796521,0.1521354 c 0.00388,-0.00935 0.00124,-0.015963 -0.00794,-0.019844 l -0.023813,-0.011906 c -0.00917,0.0067 -0.014464,0.015963 -0.015875,0.027781 l 0.00794,0.013758 0.025929,-0.00185 c 0.00794,-0.00265 0.012523,-0.00529 0.013758,-0.00794 z m 0.063235,0.051329 -0.011906,-0.051329 0.00794,0.055298 z M 2.595033,1.9769654 V 1.9372784 H 2.577306 Z m 0.4384145,-0.039687 -0.00979,0.019844 c -0.00388,0.00917 -0.00317,0.015698 0.00212,0.019579 z m -0.5688541,0.039687 v -0.027781 c -0.00529,-0.0067 -0.00926,-0.010054 -0.011906,-0.010054 l -0.019579,-0.00185 -0.017992,0.021696 c -0.00388,0.0067 -0.00124,0.0127 0.00794,0.017992 z m 0.091017,0.080698 v -0.017727 c -0.00794,-0.00529 -0.013935,-0.00794 -0.017992,-0.00794 h -0.013758 c -0.00388,0.00794 -0.00194,0.014552 0.00582,0.019844 z m -0.091017,0.00609 h -0.00979 c -0.00935,0.00388 -0.01464,0.012435 -0.015875,0.025665 0,0.011818 0.00397,0.019756 0.011906,0.023813 z m 0.7646458,0.1203854 0.00794,-0.017727 -0.014023,-0.045508 c -0.00794,0.010583 -0.011906,0.02249 -0.011906,0.035719 0,0.011818 0.006,0.02099 0.017992,0.027517 z m -0.6421437,-0.00397 h -0.023813 l -0.00794,0.0635 h 0.02196 z m 0.6815666,0.087048 v -0.04154 c -0.00653,-0.00265 -0.011112,-0.00397 -0.013758,-0.00397 v 0.045508 z M 2.4722667,2.194188 h -0.017462 l -0.00609,0.053181 -0.00794,0.04154 c 0,0.015875 0.00794,0.031044 0.023813,0.045508 0.011818,-0.011818 0.017727,-0.026988 0.017727,-0.045508 z m 0.7252229,0.161925 0.00397,-0.025665 c 0,-0.022401 -0.00917,-0.052035 -0.027517,-0.0889 C 3.1686526,2.228319 3.1633596,2.213149 3.1580676,2.19604 3.1527776,2.177519 3.1488076,2.163055 3.1461616,2.152648 l -0.043392,0.00582 c -0.022402,0 -0.042157,-0.00661 -0.059267,-0.019844 l 0.00185,-0.023813 0.00609,-0.01561 C 3.0382136,2.095321 3.0249846,2.100611 3.0117556,2.115076 2.9987036,2.128305 2.9881206,2.136243 2.9800056,2.138889 2.9604266,2.134829 2.9440226,2.12028 2.9307936,2.095233 2.9189756,2.068775 2.9051286,2.053605 2.8892536,2.049725 l 0.010054,0.039688 c -0.022402,0.011818 -0.040217,0.017727 -0.053446,0.017727 -0.00917,0 -0.014465,-0.00661 -0.015875,-0.019844 l 0.00609,-0.037571 0.00582,-0.045244 c 0,-0.01711 -0.00653,-0.032279 -0.019579,-0.045508 0.011819,-0.011818 0.017727,-0.027693 0.017727,-0.047625 0,-0.00247 -0.00132,-0.00441 -0.00397,-0.00582 -0.0014,-0.00265 -0.00273,-0.00459 -0.00397,-0.00582 l -0.00794,0.00582 c -0.00388,0.00124 -0.010496,0.00723 -0.019844,0.017992 -0.00917,0.00917 -0.013758,0.022313 -0.013758,0.039423 0,0.011818 0.00265,0.025047 0.00794,0.039687 l 0.023813,0.037306 c 0,0.015875 -0.010583,0.02443 -0.03175,0.025665 h -0.03175 c -0.011819,0 -0.019666,0.00794 -0.023548,0.023813 -0.00794,-0.00794 -0.015875,-0.020461 -0.023813,-0.037571 l -0.00397,-0.033602 -0.039423,0.045508 c 0.011819,0.011818 0.017727,0.024342 0.017727,0.037571 0,0.00653 -0.00988,0.018962 -0.029633,0.037306 -0.019756,0.015875 -0.029633,0.031044 -0.029633,0.045508 0.00794,0.00794 0.02249,0.011906 0.043656,0.011906 l 0.037306,-0.00185 v 0.027517 c 0,0.015875 -0.00459,0.023813 -0.013758,0.023813 -0.019756,0 -0.031573,0.00265 -0.035454,0.00794 0.028928,0.011818 0.043392,0.028928 0.043392,0.051329 l -0.011906,0.043392 -0.00979,0.04154 0.00582,0.025664 c 0.011994,0.010583 0.017992,0.021167 0.017992,0.03175 0,0.00917 -0.00529,0.02099 -0.015875,0.035454 l -0.013758,0.03175 c 0,0.011818 0.00855,0.022401 0.025665,0.03175 -0.00935,0.009 -0.017904,0.015522 -0.025665,0.019579 -0.00776,0.00406 -0.00979,0.012612 -0.00609,0.025665 0.00653,0.00529 0.012435,0.013229 0.017727,0.023813 0.00529,0.00917 0.00794,0.019667 0.00794,0.031485 l -0.00582,0.043392 c -0.00406,0.018521 -0.00476,0.032367 -0.00212,0.04154 0.011994,-0.00794 0.021254,-0.011906 0.027781,-0.011906 0.00794,0 0.012523,0.00926 0.013758,0.027781 v 0.03175 c 0,0.022225 0.00397,0.036601 0.011906,0.043127 0.013229,0 0.023106,0.00132 0.029633,0.00397 h 0.029633 c 0.05274,0 0.1014236,-0.010583 0.14605,-0.03175 0.044803,-0.022225 0.083696,-0.05371 0.1166813,-0.094456 0.015875,-0.010583 0.029721,-0.026458 0.04154,-0.047625 l 0.03175,-0.065087 c 0,-0.010583 0.00193,-0.021167 0.00582,-0.03175 0.00529,-0.011818 0.016492,-0.017727 0.033602,-0.017727 l -0.00212,-0.011906 v -0.00979 c 0,-0.014464 0.00591,-0.036865 0.017727,-0.067204 l 0.019844,-0.05715 c 0,-0.011818 -0.00397,-0.023724 -0.011906,-0.035719 z M 2.6445104,2.348173 c -0.0067,-0.00529 -0.011994,-0.00855 -0.015875,-0.00979 -0.00406,-0.00123 -0.00741,-0.00256 -0.010054,-0.00397 l 0.017992,0.049212 -0.015875,0.025929 c -0.00653,0.014464 -0.017727,0.019756 -0.033602,0.015875 l -0.00212,0.05715 0.00609,0.069056 c 0.00388,0.019756 0.013053,0.038894 0.027517,0.057415 0,-0.023813 0.00265,-0.040305 0.00794,-0.049477 -0.011818,-0.00794 -0.020373,-0.017198 -0.025665,-0.027781 l -0.00794,-0.025665 c 0,-0.010583 0.00988,-0.029016 0.029633,-0.055298 0.019756,-0.027693 0.029633,-0.050712 0.029633,-0.069056 0,-0.011818 -0.00265,-0.023019 -0.00794,-0.033602 z m -0.1719791,0.2804583 0.00794,-0.043392 c 0,-0.025047 -0.00988,-0.036248 -0.029633,-0.033602 -0.010583,0.00653 -0.017815,0.015787 -0.021696,0.027781 -0.00406,0.010583 -0.00609,0.026988 -0.00609,0.049212 z m 0.2132541,0.1344083 -0.00979,-0.013758 -0.00794,0.013758 z m -0.23495,0.059267 -0.00212,-0.03175 c 0,-0.023635 -0.00265,-0.04004 -0.00794,-0.049212 l -0.015875,0.055298 c 0,0.010583 0.00265,0.019137 0.00794,0.025665 z m -1.53352494,-0.8299957 -0.00979,0.00397 c -0.00529,-0.00123 -0.00529,-0.00979 0,-0.025664 l 0.00979,-0.027781 0.00979,0.021696 z m 0.76252914,0 c 0,0.00794 -6.165e-4,0.014552 -0.00185,0.019844 0,0.00388 -7.064e-4,0.00776 -0.00212,0.011642 l -0.00794,-0.041275 z m 0.4741333,1.1202458 -0.033602,0.033602 c -0.00794,0.010583 -0.013229,0.023019 -0.015875,0.037306 -0.00247,-0.00246 -0.00573,-0.01755 -0.00979,-0.045244 0,-0.023813 -0.00723,-0.037042 -0.021696,-0.039688 l -0.019844,0.00609 c -0.019756,0.017111 -0.032897,0.039511 -0.039423,0.067204 l -0.029633,0.00794 c -0.019756,0 -0.037571,-0.013846 -0.053446,-0.04154 l -0.039423,-0.076994 c 0.00388,-0.019756 -0.00203,-0.045508 -0.017727,-0.077258 -0.014464,-0.031573 -0.021696,-0.056533 -0.021696,-0.074877 -0.029104,-0.00794 -0.046919,-0.035631 -0.053446,-0.083079 0,-0.046038 -0.01711,-0.075671 -0.051329,-0.0889 0,-0.039511 -0.013847,-0.079022 -0.04154,-0.1185334 L 1.6245417,2.502163 c -0.011818,0.00388 -0.023636,0.00318 -0.035454,-0.00212 -0.010583,-0.00529 -0.02249,-0.015169 -0.035719,-0.029633 -0.01711,0.0067 -0.03616,0.010054 -0.05715,0.010054 -0.019756,0 -0.042863,-0.00335 -0.069321,-0.010054 l -0.06694,-0.00979 c -0.023812,0 -0.04692,0.00661 -0.069321,0.019844 L 1.2848167,2.46062 C 1.2807567,2.45268 1.2774067,2.447391 1.2747627,2.444745 1.2274907,2.456739 1.1939767,2.49237 1.1742211,2.5516367 l -0.027782,0.1539909 c -0.015875,-0.019756 -0.027693,-0.044097 -0.035454,-0.073025 l 0.00794,0.013758 c 0.00917,0.00388 0.015699,0.00326 0.019579,-0.00185 l 0.011906,-0.019844 c 0,-0.015875 -0.00794,-0.036248 -0.023813,-0.061119 -0.014464,-0.025047 -0.021696,-0.042157 -0.021696,-0.051329 0,-0.015875 0.013846,-0.029721 0.04154,-0.041539 0,-0.011818 -0.00265,-0.020373 -0.00794,-0.025665 -0.014464,0 -0.026988,0.00397 -0.037571,0.011906 l -0.035454,0.045244 c 0.00917,0.015875 0.013758,0.034396 0.013758,0.055563 0,0.011818 -6.165e-4,0.02099 -0.00185,0.027517 -0.00141,0.00653 -0.006,0.022401 -0.013758,0.047625 l -0.014023,0.072761 c 0,0.030339 0.015875,0.057414 0.047625,0.081227 l -0.04154,0.1322917 c -0.00794,0.031573 -0.027693,0.063147 -0.059267,0.094721 -0.00935,-0.019756 -0.021255,-0.030956 -0.035719,-0.033602 -0.00388,0.00124 -0.00847,0.00326 -0.013758,0.00609 -0.00529,0.00265 -0.013846,0.00855 -0.025665,0.017727 -0.011818,0.00794 -0.025047,0.013229 -0.039687,0.015875 -0.011818,0 -0.024254,-0.00723 -0.037306,-0.021696 l -0.021696,0.031485 h -0.017992 v -0.015875 c -0.0105834,0.00794 -0.021784,0.012613 -0.0336021,0.014023 -0.0118181,0 -0.0223131,-0.014552 -0.0314854,-0.043656 l -0.0177271,-0.053181 0.03175,-0.014023 c -0.004057,-0.00917 -0.0146402,-0.020989 -0.03175,-0.035454 -0.015875,-0.015875 -0.0238125,-0.030339 -0.0238125,-0.043392 0,-0.00794 0.002646,-0.017198 0.007938,-0.027781 l 0.015875,-0.037571 c 0.003881,-0.00653 0.0177271,-0.015081 0.0415396,-0.025665 0.006526,0.00529 0.0170214,0.010583 0.0314854,0.015875 0.015875,-0.011819 0.0238125,-0.025048 0.0238125,-0.039687 0,-0.011819 -0.00661,-0.027605 -0.019844,-0.04736 -0.011818,-0.021167 -0.017727,-0.037571 -0.017727,-0.049212 l 0.005821,-0.021696 0.0216958,-0.096838 c 0.00794,-0.058032 0.030339,-0.089694 0.067204,-0.094985 l -0.03175,-0.041275 c -0.00776,-0.011995 -0.011642,-0.024518 -0.011642,-0.037571 0,-0.00794 0.00397,-0.019844 0.011906,-0.035719 l -0.037571,-0.039423 c -0.0105833,-0.014464 -0.015875,-0.028928 -0.015875,-0.043392 0,-0.010583 0.001323,-0.017815 0.003969,-0.021696 0.0289278,0 0.0566208,-0.013847 0.0830791,-0.04154 l 0.04736,-0.049477 v -0.03175 c 0.00917,0 0.016404,7.064e-4 0.021696,0.00212 l 0.033602,0.00794 c 0.010583,0 0.019138,-0.006 0.025665,-0.017992 l 0.00979,-0.03175 0.00212,-0.027517 c 0,-0.018344 -0.00591,-0.041363 -0.017727,-0.069056 l -0.035719,-0.090752 0.051329,0.00794 c 0.00406,-0.00794 0.00406,-0.015875 0,-0.023813 l -0.017727,-0.027781 c 0.00406,-0.00917 0.00732,-0.015699 0.00979,-0.019579 L 1.0556875,1.7533921 1.0199688,1.717938 C 1.0081508,1.70612 0.99633276,1.702151 0.98451476,1.706032 l 0.00794,-0.051329 c 0,-0.023813 0.00132,-0.042333 0.00397,-0.055562 h 0.019579 c 0,0.011994 -0.00265,0.021255 -0.00794,0.027781 0.0067,0.0067 0.016581,0.011377 0.029633,0.014023 0.013229,0 0.028399,-0.00529 0.045508,-0.015875 l 0.035719,-0.017727 c 0.00388,-0.0067 0.00582,-0.011377 0.00582,-0.014023 l 0.00397,-0.025664 -0.017727,-0.00794 -0.027781,0.017992 c -0.011818,0.011818 -0.023636,0.014464 -0.035454,0.00794 l 0.00794,-0.053446 0.00794,-0.055562 c 0,-0.016933 -0.00265,-0.030692 -0.00794,-0.041275 0.00265,-0.00265 0.00988,-0.00397 0.021696,-0.00397 0.00653,0 0.013053,0.00794 0.019579,0.023813 l -0.013758,0.023813 c -0.00388,0.00529 -0.00256,0.010495 0.00397,0.01561 0.01711,-0.00794 0.029016,-0.015875 0.035719,-0.023813 0.00776,-0.00917 0.011642,-0.01905 0.011642,-0.029633 0,-0.00917 -0.00459,-0.023636 -0.013758,-0.043392 L 1.1070238,1.348316 c 0,-0.00917 6.165e-4,-0.016404 0.00185,-0.021696 0.00265,-0.00653 0.00926,-0.015081 0.019844,-0.025664 l -0.00212,-0.027517 c 0,-0.00935 -0.00529,-0.016581 -0.015875,-0.021696 l -0.01561,0.00582 -0.015875,0.00397 0.069321,-0.1145645 c 0.019756,-0.030339 0.046037,-0.045508 0.078846,-0.045508 0,-0.019756 0.00661,-0.030339 0.019844,-0.03175 l 0.033602,0.010054 c 0.015875,0.00388 0.029721,0.0045 0.041539,0.00185 0.023636,0.03175 0.049918,0.047625 0.078846,0.047625 0.013229,0 0.025135,-0.00265 0.035719,-0.00794 0.00388,0.00529 0.00318,0.012435 -0.00212,0.021431 l -0.013758,0.017992 c 0.018344,0.00124 0.032191,0.00847 0.04154,0.021696 0.00917,0.013053 0.013758,0.03078 0.013758,0.053181 l -0.00185,0.039687 -0.00212,0.039423 -0.017727,0.05715 c 0,0.00935 0.00265,0.017286 0.00794,0.023813 0.015875,0.00388 0.029016,0.011818 0.039423,0.023812 l 0.04154,0.067204 -0.00794,0.053181 c 0,0.026458 0.00459,0.062001 0.013758,0.1066271 l 0.017727,0.075142 c -0.00265,0.00653 -0.00194,0.016404 0.00212,0.029633 0.00388,0.011818 0.011112,0.018433 0.021696,0.019844 0.00917,-0.00406 0.015081,-0.00741 0.017727,-0.010054 l 0.00794,-0.00794 c -0.00794,0.01464 -0.011906,0.031133 -0.011906,0.049477 0,0.015875 0.00467,0.038276 0.014023,0.067204 l 0.013758,0.059267 c 0,0.021167 -0.00529,0.038982 -0.015875,0.053446 0.014464,0.00917 0.025665,0.039423 0.033602,0.090752 0.00529,0.047449 0.015169,0.072496 0.029633,0.075142 0.010583,0 0.023813,-0.00723 0.039687,-0.021696 h 0.00979 l 0.00397,0.023813 c 0,0.016933 -0.00529,0.034043 -0.015875,0.051329 -0.010583,0.015875 -0.023107,0.029016 -0.037571,0.039423 0.00529,0.00388 0.00988,0.00653 0.013758,0.00794 0.00406,0.00124 0.00741,0.00256 0.010054,0.00397 0.015875,0 0.027693,-0.00132 0.035454,-0.00397 0.021167,0 0.040922,0.016404 0.059267,0.049212 0.018344,0.032808 0.032191,0.050624 0.041539,0.053446 0.010583,0 0.023813,-0.014464 0.039687,-0.043392 0,0.022401 0.017022,0.04348 0.051065,0.063235 0.029104,0.015875 0.043656,0.040217 0.043656,0.073025 -0.011994,0 -0.027164,-0.011818 -0.045508,-0.035454 -0.018344,-0.023636 -0.032808,-0.036865 -0.043392,-0.039688 -0.011994,0 -0.026547,0.010583 -0.043656,0.03175 0,0.011818 0.00661,0.024959 0.019844,0.039423 l 0.019844,0.027781 c 0,0.00776 -0.00723,0.015699 -0.021696,0.023813 h -0.017992 c 0,-0.023813 -0.00459,-0.039687 -0.013758,-0.047625 h -0.017727 l -0.00609,0.025665 c 0,0.013229 0.00335,0.025753 0.010054,0.037571 l 0.027517,0.025665 0.010054,-0.00979 c 0.014464,0.00529 0.023019,0.015169 0.025665,0.029633 l -0.010054,0.025665 -0.00794,0.025665 c 0,0.010583 0.00794,0.019756 0.023813,0.027517 0.022401,-0.00388 0.031662,-0.020285 0.027781,-0.049212 0.00529,0.034219 0.012523,0.063853 0.021696,0.0889 0.00917,0.025048 0.025576,0.055298 0.049212,0.090752 l -0.00794,0.00397 c 0.022401,0.011819 0.042245,0.042774 0.059531,0.092869 0.018344,0.047448 0.041981,0.077082 0.070908,0.0889 0,0.022402 0.00723,0.050094 0.021696,0.083079 0.015875,0.034219 0.025135,0.061207 0.027781,0.080963 z M 0.74533126,2.5651338 c -0.009172,0.0067 -0.0171098,0.010054 -0.0238125,0.010054 l 0.0198437,-0.023813 c 0.005292,0.00265 0.006615,0.00723 0.003969,0.013758 z m -0.0394229,0.098954 h -0.007938 v -0.03175 h 0.007938 z m 0.015875,0.059267 h -0.0396875 l 0.007938,-0.035719 0.0238125,0.011906 c 0.007937,0.00388 0.0105833,0.011819 0.007937,0.023813 z m -0.0396875,0.2034646 -0.0116417,0.017727 -0.0119063,0.013758 c -0.0105833,0 -0.0171979,-0.00591 -0.0198437,-0.017727 0,-0.00917 0.003969,-0.017111 0.0119063,-0.023813 0.0197556,0 0.0303389,0.00335 0.03175,0.010054 z m 0.42492084,0 -0.00609,0.035454 c -0.00124,0.00917 -0.00582,0.018433 -0.013758,0.027781 -0.00388,-0.00406 -0.00582,-0.00935 -0.00582,-0.015875 0,-0.019756 0.00855,-0.035631 0.025665,-0.047625 z m -0.43259375,0.070908 -0.002117,0.015875 c -0.003881,0.00529 -0.007144,0.00794 -0.00979,0.00794 H 0.65061043 V 2.9977275 Z M 1.150673,1.1842734 c -0.011994,0.00388 -0.018697,0.012435 -0.020108,0.025665 l 0.00794,0.014023 h 0.00794 l 0.00794,-0.019844 c 0.00529,-0.00935 0.00397,-0.015963 -0.00397,-0.019844 z m 0.1243541,0.049477 v -0.010054 h -0.015875 v 0.010054 z m 0.00794,0.3831166 V 1.549663 c -0.01464,-0.00124 -0.025929,0.00997 -0.033867,0.033602 -0.00529,0.022401 -0.018433,0.033602 -0.039423,0.033602 l -0.00794,0.037571 c 0.0067,0.00794 0.012612,0.011906 0.017727,0.011906 l 0.015875,-0.027781 c 0.00917,-0.015875 0.01905,-0.025047 0.029633,-0.027517 z M 1.1109855,1.690157 C 1.1083355,1.679574 1.1030455,1.670931 1.0951105,1.664228 1.0871705,1.657698 1.0792355,1.655758 1.0712975,1.658408 V 1.71397 c 0.00935,-0.00529 0.016669,-0.00794 0.02196,-0.00794 0.011818,0 0.017727,-0.00529 0.017727,-0.015875 z m 0.4741333,0.1698625 -0.00794,-0.059267 c -0.026458,-0.013229 -0.043568,-0.044185 -0.051329,-0.092869 l -0.00794,-0.076994 c -0.01711,0.00653 -0.025665,0.015699 -0.025665,0.027517 0,0.00917 0.00529,0.022401 0.015875,0.039687 0.010583,0.015699 0.015875,0.028134 0.015875,0.037306 0,0.0067 -0.00406,0.015258 -0.012171,0.025665 l 0.025929,0.07329 c 0.00529,0.01711 0.021078,0.025665 0.04736,0.025665 z M 1.2017375,1.7809088 v -0.011906 h -0.013758 v 0.011906 z m -0.051329,0.1105958 c -0.00388,-0.00917 -0.010495,-0.014464 -0.019844,-0.015875 -0.00917,0.00529 -0.015081,0.010583 -0.017727,0.015875 l -0.00582,0.033602 c 0.00794,0.011818 0.021167,0.017727 0.039687,0.017727 l 0.00767,-0.019579 z m 0.4484687,0.04154 v -0.017727 c -0.00388,-0.0067 -0.010495,-0.00732 -0.019844,-0.00185 -0.00529,0.00388 -0.00591,0.010407 -0.00185,0.019579 z m -0.1127126,0.343958 c 0.00794,-0.026458 0.011906,-0.050888 0.011906,-0.07329 0,-0.040922 -0.01905,-0.1054806 -0.05715,-0.193675 -0.038276,-0.089606 -0.058032,-0.1396118 -0.059267,-0.1500188 -0.00529,-0.0067 -0.00997,-0.027164 -0.014023,-0.061383 0,-0.032808 -0.012435,-0.049213 -0.037306,-0.049213 -0.011994,0.014464 -0.023195,0.031574 -0.033602,0.051329 -0.00529,0.010583 -0.00794,0.021784 -0.00794,0.033602 0,0.00776 6.164e-4,0.01367 0.00185,0.017727 h 0.03175 c 0.013053,0.00388 0.019579,0.020285 0.019579,0.049212 -0.00529,0.00794 -0.015169,0.013229 -0.029633,0.015875 l -0.037306,-0.00185 -0.014023,0.013758 -0.00185,0.014023 c 0.00653,0.00388 0.014464,0.00388 0.023813,0 l 0.017727,-0.00794 c 0.00776,0.00529 0.012347,0.010583 0.013758,0.015875 0.00265,0.015875 -0.00529,0.023813 -0.023813,0.023813 -0.015875,0 -0.027693,0.00388 -0.035454,0.011642 l -0.00794,0.019844 c 0.00124,0.00388 0.00318,0.00776 0.00582,0.011642 0.00265,0.00265 0.00864,0.00732 0.017992,0.014023 0.00917,0.00653 0.015699,0.014464 0.019579,0.023813 0,0.00917 -0.00653,0.015699 -0.019579,0.019579 -0.013053,0.00388 -0.022931,0.00785 -0.029633,0.011906 0.00124,0.00653 0.00776,0.011818 0.019579,0.015875 0.010583,0.00124 0.017815,0.00512 0.021696,0.011642 -0.011818,0 -0.021696,0.006 -0.029633,0.017992 -0.00653,0.010583 -0.013758,0.017815 -0.021696,0.021696 -0.00388,0.032808 0.00864,0.059796 0.037571,0.080962 0.028928,0 0.055298,6.165e-4 0.07911,0.00185 0.023813,0.00124 0.046831,0.0045 0.069056,0.00979 0.023636,0.00529 0.046655,0.015169 0.069056,0.029633 z M 1.1879792,2.0790942 v -0.00794 l -0.00979,-0.00794 z M 1.0080625,2.114813 c -0.010583,0 -0.021078,0.00723 -0.031485,0.021696 -0.00917,0.014464 -0.015787,0.030956 -0.019844,0.049477 0.00265,0.00388 0.00467,0.00776 0.00609,0.011642 0.00265,0.00406 0.00459,0.010054 0.00582,0.017992 0.00141,0.00776 0.00803,0.011642 0.019844,0.011642 l 0.00794,-0.061119 z m 0.047625,0.2981854 c 0.00388,-0.00917 5.292e-4,-0.015699 -0.010054,-0.019579 -0.010583,-0.00388 -0.016492,-0.00653 -0.017727,-0.00794 l -0.00397,-0.00423 c -0.011818,0 -0.017727,0.00459 -0.017727,0.013758 0,0.00794 0.00723,0.019138 0.021696,0.033602 l 0.015875,-0.00397 z m -0.091017,0.067204 v -0.059267 h -0.015875 c -0.00917,0.00124 -0.014464,0.010495 -0.015875,0.027781 v 0.03175 z m -0.071173,0.043392 c -0.00265,-0.00247 -0.00591,-0.01561 -0.00979,-0.039423 0,-0.019756 -0.00723,-0.030339 -0.021696,-0.03175 -0.013229,0.00935 -0.019844,0.020637 -0.019844,0.033867 0,0.00776 0.00265,0.016316 0.00794,0.025665 l 0.015875,0.021696 c 0.014464,0 0.023636,-0.00326 0.027517,-0.00979 z m 0.25691044,0.04154 V 2.5513755 Z M 1.0239375,2.6244005 V 2.5198901 h -0.015875 v 0.1045104 z m -0.13811254,0.080963 v -0.041275 c -0.010583,-0.00406 -0.017904,-0.00212 -0.02196,0.00582 l -0.00185,0.035454 z m 0.078846,0.1322916 c -0.00529,-0.013052 -0.00794,-0.032103 -0.00794,-0.05715 0,-0.027693 -0.00265,-0.046743 -0.00794,-0.05715 0,0.00776 -6.165e-4,0.014288 -0.00185,0.019579 -0.00124,0.00529 -0.0052,0.017198 -0.011906,0.035719 l -0.013758,0.04736 c 0,0.00917 0.00132,0.015788 0.00397,0.019844 l 0.021696,-0.00185 z m -0.19737918,0.1068917 -0.0140229,-0.017727 -0.007937,0.00397 0.0179917,0.017727 z"
     id="path911"
     style="stroke-width:0.264583;fill:#ffffff" />
</svg>
