<?xml version="1.0" encoding="UTF-8" standalone="no"?>
<!-- Created with Inkscape (http://www.inkscape.org/) -->

<svg
   width="16"
   height="16"
   viewBox="0 0 4.2333333 4.2333333"
   version="1.1"
   id="svg5"
   inkscape:version="1.2 (dc2aedaf03, 2022-05-15)"
   sodipodi:docname="applications-engineering.svg"
   xmlns:inkscape="http://www.inkscape.org/namespaces/inkscape"
   xmlns:sodipodi="http://sodipodi.sourceforge.net/DTD/sodipodi-0.dtd"
   xmlns="http://www.w3.org/2000/svg"
   xmlns:svg="http://www.w3.org/2000/svg">
  <sodipodi:namedview
     id="namedview7"
     pagecolor="#ffffff"
     bordercolor="#666666"
     borderopacity="1.0"
     inkscape:pageshadow="2"
     inkscape:pageopacity="0.0"
     inkscape:pagecheckerboard="0"
     inkscape:document-units="px"
     showgrid="false"
     units="px"
     height="48px"
     inkscape:zoom="50.875"
     inkscape:cx="8.019656"
     inkscape:cy="8"
     inkscape:window-width="1846"
     inkscape:window-height="1011"
     inkscape:window-x="0"
     inkscape:window-y="0"
     inkscape:window-maximized="1"
     inkscape:current-layer="svg5"
     inkscape:showpageshadow="2"
     inkscape:deskcolor="#d1d1d1" />
  <defs
     id="defs2" />
  <rect
     style="opacity:1;fill:#d1a023;fill-opacity:1;stroke-width:0.264583"
     id="rect1162"
     width="3.7041667"
     height="3.7041667"
     x="0.26458332"
     y="0.26458332"
     ry="0.66145831" />
  <path
     id="rect1014"
     style="opacity:0.5;fill:#000000;stroke-width:0.999999"
     d="M 3.5 1 C 2.115 1 1 2.115 1 3.5 L 1 12.5 C 1 13.885 2.115 15 3.5 15 L 12.5 15 C 13.885 15 15 13.885 15 12.5 L 15 3.5 C 15 2.115 13.885 1 12.5 1 L 3.5 1 z M 4 2 L 12 2 C 13.108 2 14 2.892 14 4 L 14 12 C 14 13.108 13.108 14 12 14 L 4 14 C 2.892 14 2 13.108 2 12 L 2 4 C 2 2.892 2.892 2 4 2 z "
     transform="scale(0.26458333)" />
  <path
     d="m 3.0408559,1.4022917 c -0.03858,-0.031157 -0.081728,-0.056189 -0.127926,-0.074216 L 2.9101499,1.623351 2.7770645,1.719924 H 2.6447747 L 2.5127476,1.6181917 v -0.295275 c -0.045627,0.016891 -0.088307,0.040865 -0.1264708,0.071041 -0.1821656,0.147373 -0.1845469,0.3899958 -0.00529,0.5421312 0.037571,0.03175 0.086387,0.054769 0.1317625,0.073554 0,0.1071563 -3.969e-4,0.175551 0,0.2711979 0.1971146,0.099219 0.3108854,0.2328334 0.3966104,0.365125 V 2.0175802 C 2.9549817,1.9999172 2.9975647,1.9752332 3.035566,1.9444232 3.2177316,1.7970503 3.2201129,1.5542951 3.0408559,1.4022917 Z M 2.1161372,2.38125 c -0.5291667,0 -0.7934855,0.396875 -0.7934855,0.79375 H 1.0911413 c -0.032808,0 -0.032808,0.020902 -0.032808,0.033073 v 0.1984375 c 0,0.033073 0.018256,0.033073 0.032808,0.033073 h 2.0497271 c 0.025929,7.938e-4 0.033073,-0.017198 0.033073,-0.033073 V 3.2080729 c 0.00291,-0.019315 0,-0.033073 -0.033073,-0.033073 H 2.9096226 c 0,-0.396875 -0.2645833,-0.79375 -0.7934854,-0.7937499 z m 0,0.396875 c 0.3108854,0 0.396875,0.2328333 0.396875,0.396875 h -0.79375 c 0,-0.1584854 0.093133,-0.396875 0.396875,-0.396875 z"
     style="fill-rule:evenodd;stroke-width:0.264583;fill:#000000;opacity:0.5"
     id="path1844" />
  <path
     d="m 3.0408561,1.1377083 c -0.03858,-0.031157 -0.081728,-0.056189 -0.127926,-0.074216 L 2.910152,1.3587676 2.7770666,1.4553406 H 2.6447749 L 2.5127478,1.3536083 v -0.295275 c -0.045627,0.016891 -0.088307,0.040865 -0.1264708,0.071041 -0.1821656,0.147373 -0.1845469,0.3899958 -0.00529,0.5421312 0.037571,0.03175 0.086387,0.054769 0.1317625,0.073554 0,0.1071563 -3.969e-4,0.175551 0,0.2711979 0.1971146,0.099219 0.3108854,0.2328334 0.3966104,0.365125 V 1.7529968 c 0.045622,-0.017663 0.088205,-0.042347 0.1262063,-0.073157 0.1821656,-0.1473729 0.1845469,-0.3901281 0.00529,-0.5421315 z M 2.1161374,2.1166666 c -0.5291667,0 -0.7934854,0.396875 -0.7934854,0.79375 H 1.0911416 c -0.032808,0 -0.032808,0.020902 -0.032808,0.033073 v 0.1984375 c 0,0.033073 0.018256,0.033073 0.032808,0.033073 h 2.049727 c 0.025929,7.938e-4 0.033073,-0.017198 0.033073,-0.033073 V 2.9434895 c 0.00291,-0.019315 0,-0.033073 -0.033073,-0.033073 H 2.9096228 c 0,-0.396875 -0.2645833,-0.79375 -0.7934854,-0.7937499 z m 0,0.396875 c 0.3108854,0 0.396875,0.2328333 0.396875,0.396875 h -0.79375 c 0,-0.1584854 0.093133,-0.396875 0.396875,-0.396875 z"
     style="fill-rule:evenodd;stroke-width:0.264583;fill:#ffffff"
     id="path411"
     sodipodi:nodetypes="cccccccccccccccscsssscscscssccs" />
</svg>
