<?xml version="1.0" encoding="UTF-8" standalone="no"?>
<!-- Created with Inkscape (http://www.inkscape.org/) -->

<svg
   width="16"
   height="16"
   viewBox="0 0 4.2333333 4.2333333"
   version="1.1"
   id="svg5"
   inkscape:version="1.2 (dc2aedaf03, 2022-05-15)"
   sodipodi:docname="applications-utilities.svg"
   xmlns:inkscape="http://www.inkscape.org/namespaces/inkscape"
   xmlns:sodipodi="http://sodipodi.sourceforge.net/DTD/sodipodi-0.dtd"
   xmlns="http://www.w3.org/2000/svg"
   xmlns:svg="http://www.w3.org/2000/svg">
  <sodipodi:namedview
     id="namedview7"
     pagecolor="#ffffff"
     bordercolor="#666666"
     borderopacity="1.0"
     inkscape:pageshadow="2"
     inkscape:pageopacity="0.0"
     inkscape:pagecheckerboard="0"
     inkscape:document-units="px"
     showgrid="false"
     units="px"
     height="48px"
     inkscape:zoom="51.875"
     inkscape:cx="8.0481928"
     inkscape:cy="8.0481928"
     inkscape:window-width="1846"
     inkscape:window-height="1011"
     inkscape:window-x="0"
     inkscape:window-y="0"
     inkscape:window-maximized="1"
     inkscape:current-layer="svg5"
     inkscape:showpageshadow="2"
     inkscape:deskcolor="#d1d1d1" />
  <defs
     id="defs2" />
  <rect
     style="opacity:1;fill:#9c27b0;fill-opacity:1;stroke-width:0.264583"
     id="rect1162"
     width="3.7041667"
     height="3.7041667"
     x="0.26458332"
     y="0.26458332"
     ry="0.66145831" />
  <path
     id="rect1014"
     style="opacity:0.5;fill:#000000;stroke-width:0.999999"
     d="M 3.5 1 C 2.115 1 1 2.115 1 3.5 L 1 12.5 C 1 13.885 2.115 15 3.5 15 L 12.5 15 C 13.885 15 15 13.885 15 12.5 L 15 3.5 C 15 2.115 13.885 1 12.5 1 L 3.5 1 z M 4 2 L 12 2 C 13.108 2 14 2.892 14 4 L 14 12 C 14 13.108 13.108 14 12 14 L 4 14 C 2.892 14 2 13.108 2 12 L 2 4 C 2 2.892 2.892 2 4 2 z "
     transform="scale(0.26458333)" />
  <path
     d="m 1.7197917,1.3229167 c -0.2198688,0 -0.396875,0.177006 -0.396875,0.396875 v 1.3229166 c 0,0.2198688 0.177006,0.3968751 0.396875,0.3968751 0.2198688,0 0.396875,-0.1770061 0.396875,-0.3968751 V 1.7197917 c 0,-0.2198688 -0.177006,-0.396875 -0.396875,-0.396875 z m 0.3188442,0 c 0.116152,0.094324 0.194304,0.2370666 0.194304,0.396875 v 0.132292 h 0.2811198 c -0.00978,-0.144594 0.1651,-0.2645832 0.2645832,-0.2645832 0.089958,0 0.132292,0.00159 0.132292,0.132292 v 0.132292 h 0.16123 c 0.162454,-0.079374 0.2356446,-0.2605484 0.2356446,-0.3555338 0,-0.097234 -0.3155832,-0.173632 -0.4878256,-0.173632 z m 0.2103226,0.6614584 v 0.5705078 c 0.3659186,0.352028 0.8102864,0.3183268 0.8102864,0.3183268 0,0 0.046666,-0.2012488 -0.252181,-0.5333008 L 2.4928711,1.9843751 Z m 0.393774,0.3348632 0.222209,0.22996 C 2.6269489,2.5710263 2.5809523,2.4356549 2.6427325,2.3192383 Z"
     style="stroke-width:0.264584;fill:#000000;opacity:0.2"
     id="path2309" />
  <path
     d="m 1.7197917,1.0583333 c -0.2198688,0 -0.396875,0.177006 -0.396875,0.396875 v 1.3229166 c 0,0.2198688 0.177006,0.3968751 0.396875,0.3968751 0.2198688,0 0.396875,-0.1770061 0.396875,-0.3968751 V 1.4552083 c 0,-0.2198688 -0.177006,-0.396875 -0.396875,-0.396875 z m 0.3188442,0 c 0.116152,0.094324 0.194304,0.2370666 0.194304,0.396875 v 0.132292 h 0.2811198 c -0.00978,-0.144594 0.1651,-0.2645832 0.2645832,-0.2645832 0.089958,0 0.132292,0.00159 0.132292,0.132292 v 0.132292 h 0.16123 c 0.162454,-0.079374 0.2356446,-0.2605484 0.2356446,-0.3555338 0,-0.097234 -0.3155832,-0.173632 -0.4878256,-0.173632 z m 0.2103226,0.6614584 v 0.5705078 c 0.3659186,0.352028 0.8102864,0.3183268 0.8102864,0.3183268 0,0 0.046666,-0.2012488 -0.252181,-0.5333008 L 2.4928711,1.7197917 Z m 0.393774,0.3348632 0.222209,0.22996 C 2.6269489,2.3064429 2.5809523,2.1710715 2.6427325,2.0546549 Z"
     id="path1918"
     style="stroke-width:0.264584;fill:#ffffff"
     sodipodi:nodetypes="ssssssscsccssccsccccccccccc" />
</svg>
