<?xml version="1.0" encoding="UTF-8" standalone="no"?>
<!-- Created with Inkscape (http://www.inkscape.org/) -->

<svg
   width="16"
   height="16"
   viewBox="0 0 4.2333333 4.2333333"
   version="1.1"
   id="svg5"
   inkscape:version="1.2 (dc2aedaf03, 2022-05-15)"
   sodipodi:docname="baloo.svg"
   xmlns:inkscape="http://www.inkscape.org/namespaces/inkscape"
   xmlns:sodipodi="http://sodipodi.sourceforge.net/DTD/sodipodi-0.dtd"
   xmlns="http://www.w3.org/2000/svg"
   xmlns:svg="http://www.w3.org/2000/svg">
  <sodipodi:namedview
     id="namedview7"
     pagecolor="#ffffff"
     bordercolor="#666666"
     borderopacity="1.0"
     inkscape:pageshadow="2"
     inkscape:pageopacity="0.0"
     inkscape:pagecheckerboard="0"
     inkscape:document-units="px"
     showgrid="false"
     units="px"
     height="48px"
     inkscape:zoom="50"
     inkscape:cx="7.99"
     inkscape:cy="8"
     inkscape:window-width="1920"
     inkscape:window-height="1016"
     inkscape:window-x="0"
     inkscape:window-y="0"
     inkscape:window-maximized="1"
     inkscape:current-layer="svg5"
     inkscape:showpageshadow="2"
     inkscape:deskcolor="#d1d1d1" />
  <defs
     id="defs2" />
  <rect
     style="opacity:1;fill:#3daee9;fill-opacity:1;stroke-width:0.264583"
     id="rect1162"
     width="3.7041667"
     height="3.7041667"
     x="0.26458332"
     y="0.26458332"
     ry="0.66145831" />
  <path
     d="M 2.1166666,0.79374998 1.9182291,1.190625 v 0.3968751 h 0.396875 V 1.190625 Z M 1.3890625,1.0583333 1.190625,1.4552084 1.3229166,1.8520834 H 1.5875 v -0.396875 z m 1.4552083,0 -0.1984375,0.3968751 v 0.396875 H 2.9104166 L 3.0427083,1.4552084 Z M 0.85989582,1.5875001 0.66145833,1.984375 0.79374999,2.38125 H 1.0583333 V 1.984375 Z m 2.51354158,0 L 3.175,1.984375 V 2.38125 H 3.4395833 L 3.5718749,1.984375 Z M 2.1166666,1.8520834 C 1.8244158,1.8520834 1.5875,2.0889992 1.5875,2.38125 c -0.2922508,0 -0.5291667,0.2369161 -0.5291667,0.5291667 0,0.2922505 0.2369159,0.5291666 0.5291667,0.5291666 0.2922505,0 0.5291666,-0.2369161 0.5291666,-0.5291666 0,0.2922505 0.2369161,0.5291666 0.5291667,0.5291666 C 2.9380838,3.4395833 3.175,3.2026672 3.175,2.9104167 3.175,2.6181661 2.9380838,2.38125 2.6458333,2.38125 c 0,-0.2922508 -0.2369161,-0.5291666 -0.5291667,-0.5291666 z"
     style="fill:#ffffff;stroke-width:0.264583"
     id="path18192" />
  <path
     id="rect1014"
     style="opacity:0.5;fill:#000000;stroke-width:0.999999"
     d="M 3.5 1 C 2.115 1 1 2.115 1 3.5 L 1 12.5 C 1 13.885 2.115 15 3.5 15 L 12.5 15 C 13.885 15 15 13.885 15 12.5 L 15 3.5 C 15 2.115 13.885 1 12.5 1 L 3.5 1 z M 4 2 L 12 2 C 13.108 2 14 2.892 14 4 L 14 12 C 14 13.108 13.108 14 12 14 L 4 14 C 2.892 14 2 13.108 2 12 L 2 4 C 2 2.892 2.892 2 4 2 z "
     transform="scale(0.26458333)" />
</svg>
