<?xml version="1.0" encoding="UTF-8" standalone="no"?>
<!-- Created with Inkscape (http://www.inkscape.org/) -->

<svg
   width="16"
   height="16"
   viewBox="0 0 4.2333333 4.2333333"
   version="1.1"
   id="svg5"
   inkscape:version="1.2 (dc2aedaf03, 2022-05-15)"
   sodipodi:docname="cuttlefish.svg"
   xmlns:inkscape="http://www.inkscape.org/namespaces/inkscape"
   xmlns:sodipodi="http://sodipodi.sourceforge.net/DTD/sodipodi-0.dtd"
   xmlns="http://www.w3.org/2000/svg"
   xmlns:svg="http://www.w3.org/2000/svg">
  <sodipodi:namedview
     id="namedview7"
     pagecolor="#ffffff"
     bordercolor="#666666"
     borderopacity="1.0"
     inkscape:pageshadow="2"
     inkscape:pageopacity="0.0"
     inkscape:pagecheckerboard="0"
     inkscape:document-units="px"
     showgrid="false"
     units="px"
     height="48px"
     inkscape:zoom="50.0625"
     inkscape:cx="1.627965"
     inkscape:cy="8.0099875"
     inkscape:window-width="1920"
     inkscape:window-height="1009"
     inkscape:window-x="0"
     inkscape:window-y="0"
     inkscape:window-maximized="1"
     inkscape:current-layer="svg5"
     inkscape:showpageshadow="2"
     inkscape:deskcolor="#d1d1d1" />
  <defs
     id="defs2" />
  <rect
     style="opacity:1;fill:#ffce51;fill-opacity:1;stroke-width:0.264583"
     id="rect1162"
     width="3.7041667"
     height="3.7041667"
     x="0.26458332"
     y="0.26458332"
     ry="0.66145831" />
  <path
     id="rect1014"
     style="opacity:0.5;fill:#000000;stroke-width:0.999999"
     d="M 3.5 1 C 2.115 1 1 2.115 1 3.5 L 1 12.5 C 1 13.885 2.115 15 3.5 15 L 12.5 15 C 13.885 15 15 13.885 15 12.5 L 15 3.5 C 15 2.115 13.885 1 12.5 1 L 3.5 1 z M 4 2 L 12 2 C 13.108 2 14 2.892 14 4 L 14 12 C 14 13.108 13.108 14 12 14 L 4 14 C 2.892 14 2 13.108 2 12 L 2 4 C 2 2.892 2.892 2 4 2 z "
     transform="scale(0.26458333)" />
  <path
     d="m 2.1109436,0.79411351 c -0.5068427,0 -1.0808235,0.42167989 -1.20555806,0.88845479 -0.0587075,0.3513338 0.009667,0.5992651 0.18699436,0.7694749 0.00475,0.049696 0.014241,0.099389 0.010077,0.1490845 -9.45e-5,0.00147 -3.787e-4,0.00293 -4.708e-4,0.00439 -9.438e-4,0.00935 -0.00236,0.018688 -0.00452,0.028034 -9.438e-4,0.00382 -0.00235,0.00768 -0.00349,0.011498 -0.00208,0.00711 -0.00412,0.014208 -0.00711,0.021316 -0.00249,0.00591 -0.00611,0.011791 -0.0093,0.017699 -0.00297,0.00551 -0.00541,0.011023 -0.00904,0.016536 -0.00746,0.011286 -0.016161,0.022562 -0.026743,0.033849 -0.041326,0.043656 -0.0774916,0.071272 -0.10850075,0.089132 -0.0930176,0.053743 -0.1395314,0.020671 -0.1395314,0.086816 0,0.071658 0.16370278,0.2015134 0.31381255,0.1530914 0.023093,-0.00745 0.045895,-0.019033 0.067695,-0.035788 0.010901,-0.00837 0.021575,-0.018043 0.031911,-0.029068 0.018947,-0.020211 0.035401,-0.039101 0.049996,-0.056844 0.014439,-0.017394 0.02669,-0.033371 0.037724,-0.048577 0.00252,0.022159 0.00107,0.050211 -0.00969,0.093018 -0.042799,0.1703755 -0.269098,0.1560384 -0.1607164,0.276986 0.08398,0.093715 0.3350123,0.097339 0.473869,-0.024417 -0.055347,0.1255117 -0.139485,0.2007529 0.022225,0.2007529 0.2480471,0 0.4960941,-0.1762787 0.4960941,-0.4408624 0,0.2645837 0.248047,0.4409287 0.4960941,0.4409287 0.1617184,0 0.077573,-0.075258 0.022222,-0.2007697 0.1388594,0.1217557 0.3898962,0.1181361 0.4738681,0.024417 C 3.2172415,3.1423248 2.9909465,3.1566603 2.9481402,2.9862835 c -0.010772,-0.042879 -0.012234,-0.070973 -0.00969,-0.093147 0.022395,0.030869 0.050324,0.06566 0.087721,0.1055506 0.1653644,0.1762786 0.4134115,-1.654e-4 0.4134115,-0.088305 0,-0.088196 -0.082682,4.25e-5 -0.2480471,-0.1763449 C 3.0992468,2.635593 3.1345275,2.5371547 3.14167,2.4386967 3.3329969,2.2656756 3.3954715,2.0195964 3.3165102,1.6821533 3.1403963,1.1818589 2.6178441,0.79371501 2.1109021,0.79371501 Z"
     style="fill:#393634;fill-opacity:1;stroke-width:0.165364"
     id="path2347" />
</svg>
