<?xml version="1.0" encoding="UTF-8" standalone="no"?>
<!-- Created with Inkscape (http://www.inkscape.org/) -->

<svg
   width="16"
   height="16"
   viewBox="0 0 4.2333333 4.2333333"
   version="1.1"
   id="svg5"
   inkscape:version="1.2 (dc2aedaf03, 2022-05-15)"
   sodipodi:docname="desktop-environment-mate.svg"
   xmlns:inkscape="http://www.inkscape.org/namespaces/inkscape"
   xmlns:sodipodi="http://sodipodi.sourceforge.net/DTD/sodipodi-0.dtd"
   xmlns="http://www.w3.org/2000/svg"
   xmlns:svg="http://www.w3.org/2000/svg">
  <sodipodi:namedview
     id="namedview7"
     pagecolor="#ffffff"
     bordercolor="#666666"
     borderopacity="1.0"
     inkscape:pageshadow="2"
     inkscape:pageopacity="0.0"
     inkscape:pagecheckerboard="0"
     inkscape:document-units="px"
     showgrid="false"
     units="px"
     height="48px"
     inkscape:zoom="49.875"
     inkscape:cx="7.9398496"
     inkscape:cy="8.3709273"
     inkscape:window-width="1846"
     inkscape:window-height="1011"
     inkscape:window-x="74"
     inkscape:window-y="32"
     inkscape:window-maximized="1"
     inkscape:current-layer="svg5"
     inkscape:showpageshadow="2"
     inkscape:deskcolor="#d1d1d1" />
  <defs
     id="defs2" />
  <circle
     style="fill:#87a752;stroke-width:0.264583;fill-opacity:1"
     id="path934"
     cx="2.1166666"
     cy="2.1166666"
     r="2.1166666" />
  <path
     d="M 2.1166665,0 C 0.94766381,0 -1.2919067e-7,0.94766343 -1.2919067e-7,2.1166666 -1.2919067e-7,3.2856698 0.94766381,4.2333332 2.1166665,4.2333332 c 1.1690027,0 2.1166666,-0.9476634 2.1166666,-2.1166666 C 4.2333331,0.94766343 3.2856692,0 2.1166665,0 Z m 0,0.26458333 c 1.0228773,0 1.8520833,0.82920677 1.8520833,1.85208327 0,1.0228765 -0.829206,1.8520833 -1.8520833,1.8520833 -1.0228774,0 -1.8520833,-0.8292068 -1.8520833,-1.8520833 0,-1.0228765 0.8292059,-1.85208327 1.8520833,-1.85208327 z"
     style="fill-opacity:1;stroke-width:0.264583;fill:#000000;opacity:0.5"
     id="path911" />
  <path
     d="m 2.1166666,0.79374999 c -0.4106907,1.5e-6 -0.7980897,0.1907416 -1.0485148,0.51624761 l 0.2289266,0.1374593 c 0.1973577,-0.2418732 0.491432,-0.3842771 0.8035685,-0.3891235 0.00534,-4.04e-5 0.01068,-4.04e-5 0.01602,0 0.5845014,0 1.0583333,0.4738319 1.0583333,1.0583333 C 3.1750002,2.701168 2.7011683,3.175 2.1166669,3.175 1.7986406,3.1749365 1.4975019,3.0318625 1.2965616,2.7853598 L 1.067635,2.9223023 c 0.2503239,0.3260386 0.6379803,0.5171932 1.0490316,0.517281 0.7306268,0 1.3229167,-0.5922899 1.3229167,-1.3229166 0,-0.7306267 -0.5922899,-1.32291671 -1.3229167,-1.32291671 z M 0.79374999,1.3192993 V 2.9130006 L 2.120284,2.1161499 Z m 1.30948081,0.00362 C 1.8830683,1.3267193 1.674376,1.4217973 1.5270385,1.5854356 L 1.7600993,1.7259929 C 1.8540831,1.6400399 1.9759141,1.5908672 2.1032308,1.5875 h 5.159e-4 c 0.00431,-5.26e-5 0.00861,-5.26e-5 0.01292,0 0.2922507,0 0.5291667,0.236916 0.5291667,0.5291667 0,0.2922507 -0.236916,0.5291666 -0.5291667,0.5291666 C 1.9844522,2.6457334 1.8570648,2.5961426 1.7595825,2.5068237 L 1.5265218,2.6468668 c 0.1504226,0.1675873 0.3649506,0.2633922 0.5901448,0.2635499 0.438376,0 0.79375,-0.355374 0.79375,-0.79375 0,-0.438376 -0.355374,-0.79375 -0.79375,-0.79375 -0.00448,-3.79e-5 -0.00896,-3.79e-5 -0.013436,0 z"
     style="fill:#ffffff;stroke-width:0.264583"
     id="path19599" />
</svg>
