<?xml version="1.0" encoding="UTF-8" standalone="no"?>
<!-- Created with Inkscape (http://www.inkscape.org/) -->

<svg
   width="16"
   height="16"
   viewBox="0 0 4.2333333 4.2333333"
   version="1.1"
   id="svg5"
   inkscape:version="1.2 (dc2aedaf03, 2022-05-15)"
   sodipodi:docname="discord.svg"
   xmlns:inkscape="http://www.inkscape.org/namespaces/inkscape"
   xmlns:sodipodi="http://sodipodi.sourceforge.net/DTD/sodipodi-0.dtd"
   xmlns="http://www.w3.org/2000/svg"
   xmlns:svg="http://www.w3.org/2000/svg">
  <sodipodi:namedview
     id="namedview7"
     pagecolor="#ffffff"
     bordercolor="#666666"
     borderopacity="1.0"
     inkscape:pageshadow="2"
     inkscape:pageopacity="0.0"
     inkscape:pagecheckerboard="0"
     inkscape:document-units="px"
     showgrid="false"
     units="px"
     height="48px"
     inkscape:zoom="49.875"
     inkscape:cx="7.9298246"
     inkscape:cy="8.3609023"
     inkscape:window-width="1920"
     inkscape:window-height="1016"
     inkscape:window-x="0"
     inkscape:window-y="0"
     inkscape:window-maximized="1"
     inkscape:current-layer="svg5"
     inkscape:showpageshadow="2"
     inkscape:deskcolor="#d1d1d1" />
  <defs
     id="defs2" />
  <circle
     style="fill:#5865f2;stroke-width:0.264583;fill-opacity:1"
     id="path934"
     cx="2.1166666"
     cy="2.1166666"
     r="2.1166666" />
  <path
     d="M 2.1166665,0 C 0.94766381,0 -1.2919067e-7,0.94766343 -1.2919067e-7,2.1166666 -1.2919067e-7,3.2856698 0.94766381,4.2333332 2.1166665,4.2333332 c 1.1690027,0 2.1166666,-0.9476634 2.1166666,-2.1166666 C 4.2333331,0.94766343 3.2856692,0 2.1166665,0 Z m 0,0.26458333 c 1.0228773,0 1.8520833,0.82920677 1.8520833,1.85208327 0,1.0228765 -0.829206,1.8520833 -1.8520833,1.8520833 -1.0228774,0 -1.8520833,-0.8292068 -1.8520833,-1.8520833 0,-1.0228765 0.8292059,-1.85208327 1.8520833,-1.85208327 z"
     style="fill-opacity:1;stroke-width:0.264583;fill:#000000;opacity:0.5"
     id="path911" />
  <path
     d="m 1.7373811,1.0584612 c -0.1889683,0.03416 -0.3697309,0.094378 -0.5384684,0.1756999 -0.00146,6.667e-4 -0.00227,0.00167 -0.0031,0.0031 -0.34300295,0.5378496 -0.43728558,1.0621401 -0.39119061,1.5802654 2.1371e-4,0.00254 0.001738,0.00518 0.003617,0.00672 0.22630351,0.1744332 0.44528191,0.2801753 0.66042471,0.3503663 0.00344,0.00111 0.00711,-1.267e-4 0.0093,-0.0031 0.050892,-0.072945 0.096496,-0.1712965 0.1353923,-0.252181 0.00229,-0.00474 4.24e-5,-0.010012 -0.00465,-0.011885 -0.071957,-0.02865 -0.1402792,-0.063685 -0.2061889,-0.1033528 -0.00521,-0.0032 -0.00582,-0.011239 -0.00103,-0.014986 0.01387,-0.010909 0.027581,-0.02213 0.040824,-0.03359 0.0024,-0.00209 0.00597,-0.00235 0.00879,-0.00103 0.4329985,0.207495 0.9017451,0.207495 1.3296347,0 0.00282,-0.00143 0.00577,-0.00106 0.00827,0.00103 0.013248,0.011459 0.027367,0.022683 0.041341,0.03359 0.00479,0.00375 0.0047,0.01179 -5.292e-4,0.014986 -0.06591,0.040438 -0.1346432,0.074812 -0.2067056,0.1033528 -0.00469,0.00188 -0.00695,0.00715 -0.00465,0.011885 0.039731,0.080771 0.085439,0.1792327 0.1353923,0.252181 0.00209,0.00309 0.00586,0.0042 0.0093,0.0031 0.2161866,-0.070191 0.4351547,-0.1759331 0.6614584,-0.3503663 0.00198,-0.00153 0.00341,-0.00418 0.00362,-0.00672 0.055166,-0.5990097 -0.092407,-1.1189978 -0.3911904,-1.5802654 -7.408e-4,-0.00154 -0.00214,-0.00244 -0.00362,-0.0031 -0.168629,-0.081213 -0.3493923,-0.1414304 -0.5384648,-0.1756999 -0.00344,-6.667e-4 -0.00701,8.361e-4 -0.00878,0.00413 -0.023257,0.043415 -0.048623,0.078989 -0.066663,0.1235067 -0.2033597,-0.031955 -0.4059411,-0.031955 -0.605131,0 -0.018039,-0.045507 -0.044852,-0.080091 -0.068213,-0.1235067 -0.00177,-0.0032 -0.00482,-0.00469 -0.00827,-0.00413 z m -0.1498616,0.79375 c 0.1484968,0 0.2669048,0.1197866 0.2645833,0.2645833 0,0.1458395 -0.1172472,0.2645833 -0.2645833,0.2645833 -0.1450229,0 -0.2645834,-0.1187438 -0.2645834,-0.2645833 0,-0.1458395 0.1172431,-0.2645833 0.2645834,-0.2645833 z m 1.0583333,0 c 0.1484969,0 0.2669048,0.1197866 0.2645833,0.2645833 0,0.1458395 -0.1172472,0.2645833 -0.2645833,0.2645833 -0.1450229,0 -0.2645833,-0.1187438 -0.2645833,-0.2645833 0,-0.1458395 0.117243,-0.2645833 0.2645833,-0.2645833 z"
     style="fill:#ffffff;stroke-width:0.264583"
     id="path11015" />
</svg>
