<?xml version="1.0" encoding="UTF-8" standalone="no"?>
<!-- Created with Inkscape (http://www.inkscape.org/) -->

<svg
   width="16"
   height="16"
   viewBox="0 0 4.2333333 4.2333333"
   version="1.1"
   id="svg5"
   inkscape:version="1.2 (dc2aedaf03, 2022-05-15)"
   sodipodi:docname="disk-burner.svg"
   xmlns:inkscape="http://www.inkscape.org/namespaces/inkscape"
   xmlns:sodipodi="http://sodipodi.sourceforge.net/DTD/sodipodi-0.dtd"
   xmlns="http://www.w3.org/2000/svg"
   xmlns:svg="http://www.w3.org/2000/svg">
  <sodipodi:namedview
     id="namedview7"
     pagecolor="#ffffff"
     bordercolor="#666666"
     borderopacity="1.0"
     inkscape:pageshadow="2"
     inkscape:pageopacity="0.0"
     inkscape:pagecheckerboard="0"
     inkscape:document-units="px"
     showgrid="false"
     units="px"
     height="48px"
     inkscape:zoom="49.875"
     inkscape:cx="7.9197995"
     inkscape:cy="8.3609023"
     inkscape:window-width="1920"
     inkscape:window-height="1016"
     inkscape:window-x="0"
     inkscape:window-y="0"
     inkscape:window-maximized="1"
     inkscape:current-layer="svg5"
     inkscape:showpageshadow="2"
     inkscape:deskcolor="#d1d1d1" />
  <defs
     id="defs2" />
  <circle
     style="fill:#cdcdcd;stroke-width:0.264583;fill-opacity:1"
     id="path934"
     cx="2.1166666"
     cy="2.1166666"
     r="2.1166666" />
  <path
     d="M 2.1166665,0 C 0.94766381,0 -1.2919067e-7,0.94766343 -1.2919067e-7,2.1166666 -1.2919067e-7,3.2856698 0.94766381,4.2333332 2.1166665,4.2333332 c 1.1690027,0 2.1166666,-0.9476634 2.1166666,-2.1166666 C 4.2333331,0.94766343 3.2856692,0 2.1166665,0 Z m 0,0.26458333 c 1.0228773,0 1.8520833,0.82920677 1.8520833,1.85208327 0,1.0228765 -0.829206,1.8520833 -1.8520833,1.8520833 -1.0228774,0 -1.8520833,-0.8292068 -1.8520833,-1.8520833 0,-1.0228765 0.8292059,-1.85208327 1.8520833,-1.85208327 z"
     style="fill-opacity:1;stroke-width:0.264583;fill:#000000;opacity:0.5"
     id="path911" />
  <circle
     style="opacity:0.2;fill:#000000;fill-opacity:1;stroke-width:0.264583"
     id="path3311"
     cx="2.1166666"
     cy="2.1166666"
     r="0.79374999" />
  <path
     id="path6683"
     style="opacity:0.5;fill:#000000;fill-opacity:1;stroke-width:0.264583"
     d="M 2.1166667 1.0583333 A 1.0583333 1.0583333 0 0 0 1.0583333 2.1166667 A 1.0583333 1.0583333 0 0 0 2.1166667 3.175 A 1.0583333 1.0583333 0 0 0 3.175 2.1166667 A 1.0583333 1.0583333 0 0 0 2.1166667 1.0583333 z M 2.1166667 1.3229167 A 0.79374999 0.79374999 0 0 1 2.9104166 2.1166667 A 0.79374999 0.79374999 0 0 1 2.1166667 2.9104166 A 0.79374999 0.79374999 0 0 1 1.3229167 2.1166667 A 0.79374999 0.79374999 0 0 1 2.1166667 1.3229167 z " />
  <circle
     style="opacity:1;fill:#292929;fill-opacity:1;stroke-width:0.264583"
     id="path6685"
     cx="2.1166666"
     cy="2.1166666"
     r="0.26458332" />
  <circle
     style="fill:#f15d22;stroke-width:0.3175;fill-opacity:1"
     id="path1504"
     cx="2.6458333"
     cy="2.6458333"
     r="1.5875" />
  <path
     d="M 2.6244058,3.2162751 C 2.4939125,3.2177567 2.3869401,3.1131413 2.385487,2.982648 c 0,-0.12065 0.076729,-0.2055813 0.2084917,-0.2323042 C 2.7257412,2.7236208 2.861737,2.6603858 2.937937,2.5582563 2.966777,2.6543003 2.9808,2.7556355 2.9808,2.8590876 c 5e-7,0.1969595 -0.1594345,0.3567498 -0.3563937,0.3571875 m 0.13335,-1.3641917 c 0,0 0.055033,0.1971146 0.055033,0.3571875 0,0.1534583 -0.1005417,0.2778125 -0.254,0.2778125 -0.1539875,0 -0.269875,-0.1243542 -0.269875,-0.2778125 l 0.00185,-0.027517 C 2.1349771,2.3671991 2.0498689,2.6018089 2.0505245,2.8440063 2.0503782,3.1728916 2.3169517,3.4395834 2.645837,3.4395834 c 0.3287821,0 0.5953125,-0.2665304 0.5953125,-0.5953125 0,-0.4019021 -0.1926167,-0.7590896 -0.4836583,-0.9921875 z"
     style="fill:#ffffff;stroke-width:0.264583"
     id="path919" />
  <path
     id="path1921"
     style="fill:#000000;fill-opacity:1;stroke-width:0.264583;opacity:0.5"
     d="M 2.6458333 1.0583333 A 1.5875 1.5875 0 0 0 1.0583333 2.6458333 A 1.5875 1.5875 0 0 0 2.6458333 4.2333333 A 1.5875 1.5875 0 0 0 4.2333333 2.6458333 A 1.5875 1.5875 0 0 0 2.6458333 1.0583333 z M 2.6458333 1.3229167 A 1.3229166 1.3229166 0 0 1 3.96875 2.6458333 A 1.3229166 1.3229166 0 0 1 2.6458333 3.96875 A 1.3229166 1.3229166 0 0 1 1.3229167 2.6458333 A 1.3229166 1.3229166 0 0 1 2.6458333 1.3229167 z " />
</svg>
