<?xml version="1.0" encoding="UTF-8" standalone="no"?>
<!-- Created with Inkscape (http://www.inkscape.org/) -->

<svg
   width="16"
   height="16"
   viewBox="0 0 16 16.000001"
   version="1.1"
   id="svg5"
   inkscape:version="1.2.1 (9c6d41e410, 2022-07-14, custom)"
   sodipodi:docname="dolphin-emu.svg"
   xmlns:inkscape="http://www.inkscape.org/namespaces/inkscape"
   xmlns:sodipodi="http://sodipodi.sourceforge.net/DTD/sodipodi-0.dtd"
   xmlns="http://www.w3.org/2000/svg"
   xmlns:svg="http://www.w3.org/2000/svg">
  <sodipodi:namedview
     id="namedview7"
     pagecolor="#ffffff"
     bordercolor="#000000"
     borderopacity="0.25"
     inkscape:showpageshadow="2"
     inkscape:pageopacity="0.0"
     inkscape:pagecheckerboard="0"
     inkscape:deskcolor="#d1d1d1"
     inkscape:document-units="px"
     showgrid="false"
     showguides="false"
     inkscape:zoom="50.125"
     inkscape:cx="8"
     inkscape:cy="8"
     inkscape:window-width="1920"
     inkscape:window-height="1011"
     inkscape:window-x="0"
     inkscape:window-y="0"
     inkscape:window-maximized="1"
     inkscape:current-layer="svg5" />
  <defs
     id="defs2" />
  <rect
     style="fill:#ededed;fill-opacity:1;stroke-width:0.999999"
     id="rect1162"
     width="14"
     height="14"
     x="1"
     y="1"
     ry="2.5" />
  <path
     id="rect1014"
     style="opacity:0.5;fill:#000000;stroke-width:0.999999"
     d="M 3.5,1 C 2.115,1 1,2.115 1,3.5 v 9 C 1,13.885 2.115,15 3.5,15 h 9 c 1.385,0 2.5,-1.115 2.5,-2.5 v -9 C 15,2.115 13.885,1 12.5,1 Z M 4,2 h 8 c 1.108,0 2,0.892 2,2 v 8 c 0,1.108 -0.892,2 -2,2 H 4 C 2.892,14 2,13.108 2,12 V 4 C 2,2.892 2.892,2 4,2 Z" />
  <path
     d="M 9.8359169,5.9987644 C 9.2534219,6.0361272 8.7303032,6.377539 8.6325386,6.4236063 8.3203046,6.3314723 7.9609808,6.1472026 7.5427928,6.0755426 6.0947464,5.8298511 4.86987,6.223982 4.2546165,6.6488239 3.4489519,7.2082844 3.470962,7.8363344 3.4044206,8.09687 3.3632656,8.260665 2.9949342,8.557543 3.0000528,8.766381 3.0072228,9.037666 3.179203,9.129799 3.179203,9.129799 3.3327601,9.117669 3.5630963,9.006954 3.7586262,8.925057 4.0503852,8.807329 4.0708599,8.740787 4.8673106,8.62306 5.2307301,8.56675 5.6182066,8.5514 5.9048472,8.5514 6.0174557,8.786855 6.2938594,9.271584 6.7744936,9.503968 7.0611342,9.637051 7.4890473,9.693356 7.6789471,9.729185 l 0.5548536,0.0819 V 9.585867 h -6.875e-4 c 0,0 -0.4657909,-0.194506 -0.7524309,-0.481146 C 7.3578362,8.981875 7.3578362,8.838555 7.3271247,8.695234 c 0.4401976,0.0819 0.8348404,0.148439 1.7664222,0.501621 0.857874,0.327589 1.4434401,0.805665 1.4439511,0.806177 l 6.88e-4,6.87e-4 0.0014,0.0014 V 9.779902 l -0.0021,-0.0014 C 10.529686,9.768802 9.9288869,9.024023 8.9184792,8.525474 8.0830769,8.115984 7.3971872,7.9097063 6.4471782,7.863639 5.4603158,7.8157761 4.8046257,7.9301802 4.7329657,7.9404172 4.8199815,7.7715044 4.9888948,7.489982 5.4490551,7.2734663 6.1308504,6.9561147 7.2026805,6.8998098 8.4336994,7.2120408 10.172481,7.6573572 10.765724,8.477354 11.514061,9.258449 c 0.795939,0.830234 1.483365,2.225559 1.483877,2.227095 l 6.25e-4,0.0014 0.0014,0.0035 v -0.22519 l -0.0063,-0.01746 C 12.960437,11.135226 12.753133,10.46418 12.404558,9.819751 11.943885,8.970578 11.548731,8.363515 10.889458,7.747238 10.428786,7.4042931 9.9614599,6.9369664 10.041309,6.7352946 10.246053,6.4640097 10.809608,6.2950964 10.811656,6.2950964 h 0.0014 v -6.25e-4 -0.2252176 c 0,0 -0.353183,-0.1228455 -0.9756021,-0.081897 z m 0.6966381,4.0052886 c 0,0 0.0056,0.0049 0,0 z"
     style="fill:#0096f4;stroke-width:0.499852"
     id="path1698" />
</svg>
