<?xml version="1.0" encoding="UTF-8" standalone="no"?>
<!-- Created with Inkscape (http://www.inkscape.org/) -->

<svg
   width="16"
   height="16"
   viewBox="0 0 4.2333333 4.2333333"
   version="1.1"
   id="svg5"
   inkscape:version="1.2 (dc2aedaf03, 2022-05-15)"
   sodipodi:docname="emacs.svg"
   xmlns:inkscape="http://www.inkscape.org/namespaces/inkscape"
   xmlns:sodipodi="http://sodipodi.sourceforge.net/DTD/sodipodi-0.dtd"
   xmlns="http://www.w3.org/2000/svg"
   xmlns:svg="http://www.w3.org/2000/svg">
  <sodipodi:namedview
     id="namedview7"
     pagecolor="#ffffff"
     bordercolor="#666666"
     borderopacity="1.0"
     inkscape:pageshadow="2"
     inkscape:pageopacity="0.0"
     inkscape:pagecheckerboard="0"
     inkscape:document-units="px"
     showgrid="false"
     units="px"
     height="48px"
     inkscape:zoom="50.0625"
     inkscape:cx="8.0299625"
     inkscape:cy="8.019975"
     inkscape:window-width="1370"
     inkscape:window-height="846"
     inkscape:window-x="0"
     inkscape:window-y="0"
     inkscape:window-maximized="0"
     inkscape:current-layer="svg5"
     inkscape:showpageshadow="2"
     inkscape:deskcolor="#d1d1d1" />
  <defs
     id="defs2" />
  <circle
     style="fill:#583d78;stroke-width:0.264583;fill-opacity:1"
     id="path934"
     cx="2.1166666"
     cy="2.1166666"
     r="2.1166666" />
  <circle
     style="fill:#9c6ed5;fill-opacity:1;stroke-width:0.132291"
     id="path4871"
     cx="2.1166666"
     cy="2.1166666"
     r="1.8520833" />
  <path
     d="m 1.4295363,3.3328001 c 0,0 0.1419489,0.041217 0.3308879,0.064781 0.07652,0.00954 0.367665,0.042894 0.5908939,0.042021 0,0 0.2718594,2.514e-4 0.4219311,-0.021011 0.1570302,-0.022307 0.2459831,-0.050774 0.2954866,-0.1075849 0.0013,-0.013544 0.023897,-0.0577 -0.037142,-0.1002771 C 2.8754895,3.1017209 2.673877,3.0720876 2.2819232,2.9789542 1.8486151,2.8699459 1.719128,2.7657001 1.6544374,2.6902938 1.5930805,2.6145701 1.6659468,2.457434 2.0150909,2.3803345 2.1918591,2.3373132 2.8503541,2.3294022 2.8503541,2.3294022 2.6614416,2.1794363 2.3067411,1.9109372 2.2342718,1.8538401 2.1706977,1.8037598 2.0682457,1.7269089 2.0572391,1.6582336 c -0.014856,-0.066852 0.090374,-0.099041 0.1460897,-0.1027535 0.1795065,-0.01238 0.4246297,0.00867 0.6425141,0.051996 0.1095243,0.02178 0.1287515,0.018571 0.1287515,0.018571 C 3.1305796,1.6334771 3.2519042,1.5517681 3.245713,1.3796803 3.2444694,1.2051215 3.0699503,1.0651437 2.8768045,1.0590318 2.6949034,1.0532718 2.2466728,1.0850297 2.2466728,1.0850297 2.769119,1.1927363 2.8545265,1.2202186 2.8817786,1.28311 c 0.01614,0.037161 -0.026855,0.074083 -0.1707885,0.066874 -0.1567656,-0.00786 -0.4779698,-0.045813 -0.4779698,-0.045813 -0.305726,-0.047043 -0.5187156,-0.091612 -0.6115844,0.029713 -0.060661,0.079264 0.00867,0.1758024 0.035901,0.2327407 0.1213247,0.2117064 0.3311261,0.3569494 0.4642379,0.4592902 0.050091,0.038513 0.2030281,0.1238012 0.2030281,0.1238012 -0.4753766,-0.1299898 -0.854207,-0.056949 -1.0943958,0.069329 -0.27606621,0.1634199 -0.2288513,0.4391818 0.2092193,0.6969918 0.2587493,0.152281 0.3875617,0.225425 0.8112125,0.2774422 0.2476235,0.039484 0.2845065,0.055639 0.2826279,0.07625 -0.00266,0.029019 -0.2930789,0.040015 -0.3729037,0.045521 -0.2030942,0.014007 -0.728345,0.017507 -0.7309644,0.017507 z"
     style="fill:#ffffff;stroke-width:0.264583"
     id="path1579" />
</svg>
