<?xml version="1.0" encoding="UTF-8" standalone="no"?>
<!-- Created with Inkscape (http://www.inkscape.org/) -->

<svg
   width="16"
   height="16"
   viewBox="0 0 4.2333333 4.2333333"
   version="1.1"
   id="svg5"
   inkscape:version="1.2 (dc2aedaf03, 2022-05-15)"
   sodipodi:docname="evolution.svg"
   xmlns:inkscape="http://www.inkscape.org/namespaces/inkscape"
   xmlns:sodipodi="http://sodipodi.sourceforge.net/DTD/sodipodi-0.dtd"
   xmlns="http://www.w3.org/2000/svg"
   xmlns:svg="http://www.w3.org/2000/svg">
  <sodipodi:namedview
     id="namedview7"
     pagecolor="#ffffff"
     bordercolor="#666666"
     borderopacity="1.0"
     inkscape:pageshadow="2"
     inkscape:pageopacity="0.0"
     inkscape:pagecheckerboard="0"
     inkscape:document-units="px"
     showgrid="false"
     units="px"
     height="48px"
     inkscape:zoom="51.1875"
     inkscape:cx="8"
     inkscape:cy="8"
     inkscape:window-width="1846"
     inkscape:window-height="1016"
     inkscape:window-x="0"
     inkscape:window-y="0"
     inkscape:window-maximized="1"
     inkscape:current-layer="svg5"
     showguides="false"
     inkscape:showpageshadow="2"
     inkscape:deskcolor="#d1d1d1" />
  <defs
     id="defs2" />
  <rect
     style="opacity:1;fill:#6f6f6f;fill-opacity:1;stroke-width:0.529167;stroke-linecap:round;stroke-linejoin:round"
     id="rect1220"
     width="3.7041667"
     height="3.4395833"
     x="0.26458335"
     y="0.52916664"
     ry="0.52916664" />
  <rect
     style="opacity:1;fill:#dedede;fill-opacity:1;stroke-width:0.264583"
     id="rect1162"
     width="3.7041667"
     height="3.4395833"
     x="0.26458335"
     y="0.26458332"
     ry="0.52916664" />
  <path
     d="M 0.79375003,3.7041668 H 3.4395833 c 0.2931583,0 0.5291667,-0.2360084 0.5291667,-0.5291667 L 2.1166666,1.3229167 0.26458333,3.1750001 c 0,0.2931583 0.2360084,0.5291667 0.5291667,0.5291667 z"
     style="fill:#afafaf;stroke-width:0.264583;fill-opacity:1"
     id="path1036"
     sodipodi:nodetypes="sscccs" />
  <path
     d="M 3.96875,0.79374999 V 1.0583334 L 2.1166667,2.9104167 0.26458343,1.0583334 V 0.79374999 Z"
     style="opacity:0.3;fill:#000000;fill-opacity:1;stroke-width:0.264583"
     id="path1474"
     sodipodi:nodetypes="cccccc" />
  <path
     d="M 0.79375003,0.26458335 H 3.4395833 c 0.2931583,0 0.5291667,0.23600834 0.5291667,0.52916664 L 2.1166666,2.6458333 0.26458333,0.79374999 c 0,-0.2931583 0.2360083,-0.52916664 0.5291667,-0.52916664 z"
     style="fill:#efefef;stroke-width:0.264583;fill-opacity:1"
     id="path1255"
     sodipodi:nodetypes="sscccs" />
  <path
     id="rect845"
     style="opacity:0.4;fill:#333333;stroke-width:0.529167;stroke-linecap:round;stroke-linejoin:round"
     d="m 0.79375003,0.26458335 c -0.2931583,0 -0.5291667,0.23600831 -0.5291667,0.52916664 V 3.175 c 0,0.2931584 0.2360084,0.5291667 0.5291667,0.5291667 H 3.4395833 C 3.7327417,3.7041667 3.96875,3.4681584 3.96875,3.175 V 0.79374999 c 0,-0.29315833 -0.2360083,-0.52916664 -0.5291667,-0.52916664 z m 0,0.26458331 H 3.4395833 c 0.1465792,0 0.2645834,0.1180042 0.2645834,0.26458333 V 3.175 c 0,0.1465792 -0.1180042,0.2645834 -0.2645834,0.2645834 H 0.79375003 c -0.1465792,0 -0.2645833,-0.1180042 -0.2645833,-0.2645834 V 0.79374999 c 0,-0.14657913 0.1180041,-0.26458333 0.2645833,-0.26458333 z"
     sodipodi:nodetypes="ssssssssssssssssss" />
  <circle
     style="fill:#552d5d;fill-opacity:1;stroke-width:0.595313;stroke-linejoin:round"
     id="path8197"
     cx="3.0427082"
     cy="3.0427082"
     r="1.190625" />
  <circle
     style="fill:#aa5abb;fill-opacity:1;stroke-width:0.463021;stroke-linejoin:round"
     id="path7832"
     cx="3.0427079"
     cy="3.0427079"
     r="0.92604166" />
  <path
     id="rect12835"
     style="fill:#f2f2f2;fill-opacity:1;stroke-width:0.264584;stroke-linejoin:bevel"
     d="M 2.9104165,2.3812498 H 3.1749996 V 2.9104166 H 3.7041667 V 3.1749999 H 2.9104165 Z"
     sodipodi:nodetypes="ccccccc" />
</svg>
