<?xml version="1.0" encoding="UTF-8" standalone="no"?>
<!-- Created with Inkscape (http://www.inkscape.org/) -->

<svg
   width="16"
   height="16"
   viewBox="0 0 4.2333333 4.2333333"
   version="1.1"
   id="svg5"
   inkscape:version="1.1.2 (0a00cf5339, 2022-02-04, custom)"
   sodipodi:docname="firefox-developer-icon.svg"
   xmlns:inkscape="http://www.inkscape.org/namespaces/inkscape"
   xmlns:sodipodi="http://sodipodi.sourceforge.net/DTD/sodipodi-0.dtd"
   xmlns="http://www.w3.org/2000/svg"
   xmlns:svg="http://www.w3.org/2000/svg">
  <sodipodi:namedview
     id="namedview7"
     pagecolor="#ffffff"
     bordercolor="#666666"
     borderopacity="1.0"
     inkscape:pageshadow="2"
     inkscape:pageopacity="0.0"
     inkscape:pagecheckerboard="0"
     inkscape:document-units="px"
     showgrid="false"
     units="px"
     height="48px"
     inkscape:zoom="8.5957668"
     inkscape:cx="-10.063093"
     inkscape:cy="22.918258"
     inkscape:window-width="1920"
     inkscape:window-height="1002"
     inkscape:window-x="0"
     inkscape:window-y="0"
     inkscape:window-maximized="1"
     inkscape:current-layer="svg5" />
  <defs
     id="defs2" />
  <path
     d="m 2.782279,0 c 0.1269251,0.50115147 0.5156795,0.6595243 0.9415682,1.2049849 0.3606869,0.4619527 0.2985235,0.7108885 0.431863,1.1742974 L 3.1534899,3.2418898 2.0214125,2.0797274 C 2.016329,1.307124 1.8308875,0.64661663 2.782279,0 Z"
     style="fill:#3fa3ff;stroke-width:0.264583;fill-opacity:1"
     id="path4251" />
  <path
     id="path1245"
     style="color:#000000;fill:#1f517f;fill-opacity:1;stroke:none;stroke-width:0.264583;-inkscape-stroke:none"
     d="M 2.7822594,0 C 1.8308679,0.64661663 2.0164989,1.3073731 2.0215823,2.0799764 L 3.1532963,3.2416625 4.1558189,2.3791829 C 4.0224792,1.9157741 4.0844912,1.6670471 3.7238041,1.2050944 3.2979154,0.65963381 2.9091845,0.50115147 2.7822594,0 Z m -0.091984,0.43976644 c 0.077357,0.12437062 0.1669818,0.23388153 0.2614827,0.33072915 0.1781268,0.18255001 0.367234,0.34563881 0.5637898,0.59737961 0.1616183,0.2069937 0.2136494,0.3380953 0.2532147,0.4904093 0.028177,0.1084732 0.060035,0.2675813 0.094568,0.42323 L 3.169316,2.8788939 2.287716,1.9740397 C 2.279686,1.6199827 2.248703,1.3016529 2.302185,1.0469645 2.345938,0.83861019 2.4756326,0.64331749 2.6902754,0.43976644 Z" />
  <circle
     style="fill:#1f285a;fill-opacity:1;stroke-width:0.148828"
     id="path934"
     cx="2.1166668"
     cy="2.1166668"
     r="1.190625" />
  <circle
     style="fill:#3f51b5;fill-opacity:1;stroke-width:0.0661454"
     id="path4871"
     cx="2.1166666"
     cy="2.1166666"
     r="0.92604166" />
  <path
     style="color:#000000;fill:#23607f;fill-opacity:1;stroke-width:0.288499;-inkscape-stroke:none"
     d="M 2.3740805,1.1244792 C 2.5934504,1.3592188 2.7082285,1.755449 2.7301974,2.1325377 2.7299579,2.3493632 2.6425104,2.6067894 2.5002991,2.8025108 2.357981,2.9983792 2.1693299,3.1270322 1.9723222,3.1372154 l -0.054093,0.2744129 c 0.1523364,0.072081 0.3131671,0.093673 0.4665582,0.094101 h 5.625e-4 c 0.2933504,2.2e-6 0.6035306,-0.089881 0.8508487,-0.278921 0.247318,-0.1890404 0.4266756,-0.4867741 0.4321857,-0.8660627 v -0.00169 -0.00226 C 3.6628349,1.9854147 3.4840246,1.6731106 3.2378893,1.4597473 2.9917538,1.2463842 2.6783782,1.1244765 2.3752075,1.1244792 h -5.626e-4 z"
     id="path2868"
     sodipodi:nodetypes="ccscccsscccsscc" />
  <path
     id="path2866"
     style="color:#000000;fill:#46c0ff;stroke-width:0.292374;-inkscape-stroke:none;fill-opacity:1"
     d="M 2.8561675,1.5875 C 2.9466353,1.7496561 3.0118084,1.9285149 3.0120622,2.1214254 3.0119148,2.4156773 2.9037168,2.7242925 2.7231144,2.9728506 2.6654469,3.0522167 2.5868477,3.1106781 2.5135416,3.175 2.7044791,3.1499991 2.9040934,3.1143818 3.0548906,2.9991186 3.2450165,2.8537938 3.3724746,2.6479494 3.3775298,2.3515557 3.3725085,2.0666448 3.2391702,1.8313033 3.0428985,1.6611646 2.98905,1.6144859 2.91744,1.6227557 2.8561675,1.5875 Z" />
  <path
     id="path999"
     style="color:#000000;fill:#004875;fill-opacity:1;stroke-width:0.264583;-inkscape-stroke:none"
     d="M 0.81338736,0.36069735 C 0.35677356,0.71380791 -0.0017091,1.2374416 0.007235,1.9869588 0.00279,2.0325508 0,2.0821238 0,2.1414713 c 0,1.1553465 0.94766396,2.091862 2.1166667,2.091862 1.1690027,0 2.1166666,-0.9365155 2.1166666,-2.091862 0,-0.5378921 -0.2055963,-1.0282598 -0.5431192,-1.39888098 0.00752,-2.8575e-4 -0.031525,-0.0307532 -0.051676,-0.0232544 0.124969,0.20713938 0.2029079,0.44630058 0.219108,0.70176598 -0.021243,-0.054665 -0.045057,-0.1080587 -0.07183,-0.160197 0.014272,0.084589 0.02222,0.170765 0.02222,0.2594157 0,0.8576326 -0.7731253,1.509863 -1.6307581,1.5098633 C 1.7026049,3.0079497 1.3428416,2.7960497 1.2298994,2.4665161 1.1570323,2.2539099 1.1809954,2.1640965 1.3792443,2.0319173 1.4869265,1.9635619 1.6383338,1.9173698 1.8867069,1.9094442 2.113595,1.7602295 2.1311982,1.7029565 2.1202843,1.6577799 2.049803,1.6385072 1.855327,1.5637744 1.682585,1.4278198 1.6128893,1.3729667 1.5332785,1.2931578 1.4267866,1.2216309 1.3869562,1.0884566 1.3573577,0.80677939 1.4097334,0.52761223 1.212185,0.59255614 1.036787,0.77422239 0.89865346,0.9286214 c -0.00284,-4.63e-5 -0.005408,-4.901e-4 -0.008268,-5.168e-4 C 0.80615166,0.76590779 0.82164366,0.55328499 0.81338736,0.36069735 Z"
     sodipodi:nodetypes="ccsssccccscscccsccccc" />
  <path
     d="m 0.63355347,0.9720296 c 0.12925099,0.1884003 0.20536709,0.2475093 0.22959789,0.3539877 0.067896,-0.092273 0.12956141,-0.1904507 0.30577004,-0.2780233 0.00696,0.030938 -0.00378,0.2262542 0.00413,0.2527019 l 0.027389,0.090951 0.079065,0.05271 c 0.081537,0.054765 0.1485023,0.1228722 0.2392619,0.1943034 0.05185,0.040808 0.080687,0.037381 0.1302246,0.068213 -0.1472022,0.0268 -0.3106466,0.040981 -0.4113444,0.1049032 l -0.00259,0.00155 -0.00258,0.00155 C 1.1144419,1.8935798 1.0018702,1.9876234 0.95188026,2.1388876 0.90189046,2.2901518 0.93676306,2.429872 0.97978557,2.5553997 1.1402194,3.0235003 1.6300661,3.2983252 2.2809065,3.2696277 3.071954,3.2669777 3.728873,2.8114836 3.9609991,2.1037476 c 3.439e-4,0.014355 0.00775,0.026384 0.00775,0.040824 0,1.0106639 -0.8243908,1.8272786 -1.8520834,1.8272786 -1.0276923,0 -1.85208334,-0.8166147 -1.85208334,-1.8272786 0,-0.051055 0.002516,-0.090877 0.006201,-0.1286743 v -0.0031 l 5.1593e-4,-0.0031 C 0.28778587,1.5401847 0.44238847,1.2366713 0.63355347,0.9720296 Z"
     style="color:#000000;fill:#0091eb;fill-opacity:1;stroke-width:0.264583;-inkscape-stroke:none"
     id="path3502"
     sodipodi:nodetypes="ccccccsccccssccssscccc" />
</svg>
