<?xml version="1.0" encoding="UTF-8" standalone="no"?>
<!-- Created with Inkscape (http://www.inkscape.org/) -->

<svg
   width="16"
   height="16"
   viewBox="0 0 4.2333333 4.2333333"
   version="1.1"
   id="svg5"
   inkscape:version="1.2 (dc2aedaf03, 2022-05-15)"
   sodipodi:docname="gnome-boxes.svg"
   xmlns:inkscape="http://www.inkscape.org/namespaces/inkscape"
   xmlns:sodipodi="http://sodipodi.sourceforge.net/DTD/sodipodi-0.dtd"
   xmlns="http://www.w3.org/2000/svg"
   xmlns:svg="http://www.w3.org/2000/svg">
  <sodipodi:namedview
     id="namedview7"
     pagecolor="#ffffff"
     bordercolor="#666666"
     borderopacity="1.0"
     inkscape:pageshadow="2"
     inkscape:pageopacity="0.0"
     inkscape:pagecheckerboard="0"
     inkscape:document-units="px"
     showgrid="false"
     units="px"
     height="48px"
     inkscape:zoom="50.875"
     inkscape:cx="7.990172"
     inkscape:cy="8"
     inkscape:window-width="1920"
     inkscape:window-height="1011"
     inkscape:window-x="0"
     inkscape:window-y="0"
     inkscape:window-maximized="1"
     inkscape:current-layer="svg5"
     inkscape:showpageshadow="2"
     inkscape:deskcolor="#d1d1d1" />
  <defs
     id="defs2" />
  <rect
     style="opacity:1;fill:#424242;fill-opacity:1;stroke-width:0.264583"
     id="rect1162"
     width="3.7041667"
     height="3.7041667"
     x="0.26458332"
     y="0.26458332"
     ry="0.66145831" />
  <path
     id="rect1014"
     style="opacity:0.5;fill:#000000;stroke-width:0.999999"
     d="M 3.5 1 C 2.115 1 1 2.115 1 3.5 L 1 12.5 C 1 13.885 2.115 15 3.5 15 L 12.5 15 C 13.885 15 15 13.885 15 12.5 L 15 3.5 C 15 2.115 13.885 1 12.5 1 L 3.5 1 z M 4 2 L 12 2 C 13.108 2 14 2.892 14 4 L 14 12 C 14 13.108 13.108 14 12 14 L 4 14 C 2.892 14 2 13.108 2 12 L 2 4 C 2 2.892 2.892 2 4 2 z "
     transform="scale(0.26458333)" />
  <path
     d="m 0.79374999,1.0583333 v 2.1941821 l 0.18706795,0.187068 H 3.2525153 l 0.187068,-0.187068 V 0.98081844 L 3.2525153,0.79374999 h -2.194182 z m 0.45165201,1.1e-6 H 2.9879319 L 2.7233481,1.3229166 H 1.5099849 Z M 1.0583339,1.2454025 1.3229169,1.5099857 V 2.7233482 L 1.0583331,2.9879323 Z m 2.1166674,0 V 2.9879323 L 2.9104167,2.7233482 V 1.5099851 Z M 1.5874997,1.5875001 H 2.6458333 V 2.6458334 H 1.5874997 Z M 1.5099849,2.9104166 H 2.7233481 L 2.9879319,3.1750005 H 1.245402 Z"
     style="color:#000000;opacity:0.6;fill:#ffffff;stroke:none;stroke-width:0.264582;stroke-linecap:round;-inkscape-stroke:none"
     id="path1138"
     sodipodi:nodetypes="cccccccccccccccccccccccccccccccccc" />
  <path
     id="path10934"
     style="opacity:1;fill:#ffffff;stroke-width:0.529167;stroke-linejoin:bevel;fill-opacity:1"
     d="M 1.0583333 0.79374999 A 0.26458332 0.26458332 0 0 0 0.79374999 1.0583333 A 0.26458332 0.26458332 0 0 0 1.0583333 1.3229167 A 0.26458332 0.26458332 0 0 0 1.3229167 1.0583333 A 0.26458332 0.26458332 0 0 0 1.0583333 0.79374999 z M 3.175 0.79374999 A 0.26458332 0.26458332 0 0 0 2.9104166 1.0583333 A 0.26458332 0.26458332 0 0 0 3.175 1.3229167 A 0.26458332 0.26458332 0 0 0 3.4395833 1.0583333 A 0.26458332 0.26458332 0 0 0 3.175 0.79374999 z M 1.5875 1.3229167 A 0.26458332 0.26458332 0 0 0 1.3229167 1.5875 A 0.26458332 0.26458332 0 0 0 1.5875 1.8520833 A 0.26458332 0.26458332 0 0 0 1.8520833 1.5875 A 0.26458332 0.26458332 0 0 0 1.5875 1.3229167 z M 2.6458333 1.3229167 A 0.26458332 0.26458332 0 0 0 2.38125 1.5875 A 0.26458332 0.26458332 0 0 0 2.6458333 1.8520833 A 0.26458332 0.26458332 0 0 0 2.9104166 1.5875 A 0.26458332 0.26458332 0 0 0 2.6458333 1.3229167 z M 1.5875 2.38125 A 0.26458332 0.26458332 0 0 0 1.3229167 2.6458333 A 0.26458332 0.26458332 0 0 0 1.5875 2.9104166 A 0.26458332 0.26458332 0 0 0 1.8520833 2.6458333 A 0.26458332 0.26458332 0 0 0 1.5875 2.38125 z M 2.6458333 2.38125 A 0.26458332 0.26458332 0 0 0 2.38125 2.6458333 A 0.26458332 0.26458332 0 0 0 2.6458333 2.9104166 A 0.26458332 0.26458332 0 0 0 2.9104166 2.6458333 A 0.26458332 0.26458332 0 0 0 2.6458333 2.38125 z M 1.0583333 2.9104166 A 0.26458332 0.26458332 0 0 0 0.79374999 3.175 A 0.26458332 0.26458332 0 0 0 1.0583333 3.4395833 A 0.26458332 0.26458332 0 0 0 1.3229167 3.175 A 0.26458332 0.26458332 0 0 0 1.0583333 2.9104166 z M 3.175 2.9104166 A 0.26458332 0.26458332 0 0 0 2.9104166 3.175 A 0.26458332 0.26458332 0 0 0 3.175 3.4395833 A 0.26458332 0.26458332 0 0 0 3.4395833 3.175 A 0.26458332 0.26458332 0 0 0 3.175 2.9104166 z " />
</svg>
