<?xml version="1.0" encoding="UTF-8" standalone="no"?>
<!-- Created with Inkscape (http://www.inkscape.org/) -->

<svg
   width="16"
   height="16"
   viewBox="0 0 4.2333333 4.2333333"
   version="1.1"
   id="svg5"
   inkscape:version="1.2 (dc2aedaf03, 2022-05-15)"
   sodipodi:docname="gnome-mahjongg.svg"
   xmlns:inkscape="http://www.inkscape.org/namespaces/inkscape"
   xmlns:sodipodi="http://sodipodi.sourceforge.net/DTD/sodipodi-0.dtd"
   xmlns="http://www.w3.org/2000/svg"
   xmlns:svg="http://www.w3.org/2000/svg">
  <sodipodi:namedview
     id="namedview7"
     pagecolor="#ffffff"
     bordercolor="#666666"
     borderopacity="1.0"
     inkscape:pageshadow="2"
     inkscape:pageopacity="0.0"
     inkscape:pagecheckerboard="0"
     inkscape:document-units="px"
     showgrid="false"
     units="px"
     height="48px"
     inkscape:zoom="24.78125"
     inkscape:cx="6.517024"
     inkscape:cy="11.419924"
     inkscape:window-width="1920"
     inkscape:window-height="1011"
     inkscape:window-x="0"
     inkscape:window-y="0"
     inkscape:window-maximized="1"
     inkscape:current-layer="svg5"
     inkscape:showpageshadow="2"
     inkscape:deskcolor="#d1d1d1" />
  <defs
     id="defs2" />
  <rect
     style="opacity:1;fill:#ffce51;fill-opacity:1;stroke-width:0.264583"
     id="rect1162"
     width="3.175"
     height="4.2333331"
     x="0.52916664"
     y="1.9390346e-07"
     ry="0.52916664" />
  <path
     d="m 1.7787994,0.81544598 c -0.02368,0.0174096 -0.029607,0.0434975 -0.029607,0.0739775 0,0.0565732 0.023681,0.12619562 0.035523,0.15230472 0,0 0.017763,0.3046148 0.023682,0.339434 -0.053284,0.00435 -0.1480132,0.0087 -0.1835282,0.017406 h -0.047363 c -0.1006475,0.00437 -0.1953683,0.0087 -0.2368285,0.039158 l -0.017761,0.013055 0.017761,0.017407 c 0.029601,0.02611 0.041444,0.1000893 0.053284,0.1784271 0.029602,0.1610122 0.065125,0.3611827 0.242742,0.4395258 l 0.035523,0.013055 v -0.030461 c 0,0 0.00593,-0.013055 0.00593,-0.030462 0,-0.013055 -0.00593,-0.034814 -0.011834,-0.065275 0.047363,0.00435 0.1480132,0.013055 0.1835283,0.013055 0.00593,0.034819 0.1598612,1.4535414 0.1598612,1.4535414 h 0.059214 c 0,0 0.065127,-1.4012068 0.065127,-1.4447572 0.041442,0 0.2249778,0.00435 0.2782622,0.0087 -0.011827,0.026114 -0.059187,0.134911 -0.059187,0.134911 l 0.082867,-0.056568 C 2.4596779,2.0688137 2.9747422,1.7250406 2.9038339,1.4987425 2.8800214,1.424765 2.7972068,1.3725362 2.6609464,1.3464483 h -0.011869 c -0.076967,0 -0.3137958,0.00435 -0.4914106,0.013055 0.00593,-0.1131438 0.00593,-0.174072 0.00593,-0.2045361 v -0.039166 c 0,-0.021759 0.029602,-0.052221 0.053284,-0.07398 0.023684,-0.02611 0.053287,-0.047868 0.053287,-0.07398 0,-0.0087 -0.00593,-0.017408 -0.011834,-0.0261096 C 2.2229098,0.90254662 1.9624014,0.80245478 1.849927,0.79374999 1.814393,0.79808899 1.790713,0.80245499 1.77886,0.81549869 Z m 0.00593,0.71368702 h 0.029602 c 0,0.039166 0.017761,0.3133196 0.023681,0.3524779 -0.04736,-0.00437 -0.1598348,-0.01307 -0.1953683,-0.01307 -0.01778,-0.056568 -0.02368,-0.1175014 -0.029607,-0.1784085 -0.00593,-0.052229 -0.011827,-0.1044575 -0.02368,-0.1523206 0.053284,0 0.1953789,-0.0087 0.1953789,-0.0087 z m 0.3611562,0.1348846 c 0,0 0.00592,-0.1044416 0.00592,-0.1392555 0.076965,0.0087 0.1776121,0.013055 0.2723356,0.013055 h 0.1065689 c 0,0.017407 -0.00593,0.039166 -0.00593,0.039166 -0.011835,0.095737 -0.029602,0.2088779 -0.082889,0.3220243 -0.03552,0 -0.2545768,-0.0087 -0.3019425,-0.013055 0,-0.030461 0.00593,-0.2219378 0.00593,-0.2219378 z"
     style="fill:#997c31;stroke-width:0.264583;fill-opacity:1"
     id="path298" />
  <path
     id="rect9805"
     style="opacity:0.5;fill:#000000;fill-opacity:1;stroke-width:0.264583"
     d="M 1.0583333,0 C 0.76517527,0 0.52916663,0.23600864 0.52916663,0.52916666 V 3.7041667 c 0,0.293158 0.23600864,0.5291667 0.52916667,0.5291667 h 2.1166666 c 0.293158,0 0.5291667,-0.2360087 0.5291667,-0.5291667 V 0.52916666 C 3.7041666,0.23600864 3.4681579,0 3.1749999,0 Z m 0,0.26458333 h 2.1166666 c 0.146579,0 0.2645833,0.11800432 0.2645833,0.26458333 V 3.7041667 c 0,0.146579 -0.1180043,0.2645833 -0.2645833,0.2645833 H 1.0583333 c -0.14657902,0 -0.26458334,-0.1180043 -0.26458334,-0.2645833 V 0.52916666 c 0,-0.14657901 0.11800432,-0.26458333 0.26458334,-0.26458333 z"
     sodipodi:nodetypes="ssssssssssssssssss" />
</svg>
