<?xml version="1.0" encoding="UTF-8" standalone="no"?>
<!-- Created with Inkscape (http://www.inkscape.org/) -->

<svg
   width="16"
   height="16"
   viewBox="0 0 4.2333333 4.2333333"
   version="1.1"
   id="svg5"
   inkscape:version="1.2 (dc2aedaf03, 2022-05-15)"
   sodipodi:docname="ibus-setup-hangul.svg"
   xmlns:inkscape="http://www.inkscape.org/namespaces/inkscape"
   xmlns:sodipodi="http://sodipodi.sourceforge.net/DTD/sodipodi-0.dtd"
   xmlns="http://www.w3.org/2000/svg"
   xmlns:svg="http://www.w3.org/2000/svg">
  <sodipodi:namedview
     id="namedview7"
     pagecolor="#ffffff"
     bordercolor="#666666"
     borderopacity="1.0"
     inkscape:pageshadow="2"
     inkscape:pageopacity="0.0"
     inkscape:pagecheckerboard="0"
     inkscape:document-units="px"
     showgrid="false"
     units="px"
     height="48px"
     inkscape:zoom="35.974058"
     inkscape:cx="5.5039662"
     inkscape:cy="12.925981"
     inkscape:window-width="1846"
     inkscape:window-height="1011"
     inkscape:window-x="0"
     inkscape:window-y="0"
     inkscape:window-maximized="1"
     inkscape:current-layer="svg5"
     inkscape:showpageshadow="2"
     inkscape:deskcolor="#d1d1d1"
     showguides="true" />
  <defs
     id="defs2" />
  <circle
     style="fill:#1f285a;stroke-width:0.264583"
     id="path934"
     cx="2.1166666"
     cy="2.1166666"
     r="2.1166666" />
  <circle
     style="fill:#3f51b5;fill-opacity:1;stroke-width:0.132291"
     id="path4871"
     cx="2.1166666"
     cy="2.1166666"
     r="1.8520833" />
  <path
     id="path934-7"
     style="fill:#7f6728;fill-opacity:1;stroke-width:0.264583"
     d="M 3.2023885,0.29920654 3.1186727,1.2288656 3.719575,2.5746852 3.4527914,3.2281644 C 3.3156876,3.4659054 3.2337007,3.5939774 2.5874389,3.9088053 2.3078218,4.1015618 2.1166667,4.2333336 2.1166667,4.2333336 c 1.1690027,0 2.1166666,-0.9476639 2.1166666,-2.1166666 C 4.2334956,1.3716271 3.841949,0.68136672 3.2023885,0.29920654 Z"
     sodipodi:nodetypes="cccccccc" />
  <path
     id="path1114"
     style="opacity:1;fill:#671d00;stroke-width:0.529167;stroke-linejoin:round;fill-opacity:1"
     d="M 2.1166667,0 C 1.4801755,3.5148945e-4 0.8776317,0.28710542 0.47593994,0.78083089 0.40975927,1.1790386 0.30940361,1.5165914 0.34227161,2.0310037 1.127852,2.0182291 1.7476136,2.1463433 1.8143595,1.2107788 1.9228306,0.95511057 2.20464,0.79611971 2.5001058,0.784965 2.7697326,0.77478673 3.2473534,0.64440514 3.4530192,0.81907145 L 4.0963908,1.3678752 C 3.7850421,0.54467298 2.9967803,2.9553283e-5 2.1166667,0 Z"
     sodipodi:nodetypes="cccccccc" />
  <path
     d="M 2.5963688,0.46873534 C 2.5550943,0.46730684 2.5142628,0.4673996 2.4742586,0.4689166 2.091283,0.48337422 1.636255,0.7345784 1.4809188,1.1007078 1.3055195,1.5141272 1.1859411,2.1132807 2.1137254,2.1132807 2.3589236,1.691651 2.9996032,1.7771498 3.2699678,2.1357461 3.5094061,2.4533236 3.4964007,2.8853646 3.3174351,3.2242302 3.1678823,3.5074033 2.9156791,3.7888392 2.5780703,3.9094245 3.3780205,3.7034671 3.9687501,2.9771646 3.9687501,2.1132807 3.9687501,1.6106541 3.7685878,1.1536909 3.443531,0.8195281 3.4278286,0.80594614 3.4106282,0.79376393 3.3942522,0.78075708 3.1612254,0.60213932 2.8686194,0.47811063 2.5963688,0.46873534 Z"
     style="fill:#ffce51;fill-opacity:1;fill-rule:evenodd;stroke-width:0.18552"
     id="path886" />
  <path
     d="M 2.080933,0.26495918 C 1.778324,0.27105579 1.4730433,0.35136826 1.1924631,0.51334663 0.75713616,0.76465929 0.46150267,1.1664931 0.3346114,1.6150563 0.3310714,1.6335013 0.3292054,1.6527943 0.3262774,1.6715823 0.2802778,2.0086542 0.3928662,2.3475931 0.55564176,2.6064322 0.75965227,2.9308394 1.1274226,3.1582812 1.5221971,3.1097291 1.967961,3.054906 2.3624613,2.5429462 2.1198851,2.1198028 1.6321106,2.1182851 1.385931,1.5206494 1.5613304,1.1072299 1.7166663,0.74110054 2.0974427,0.53632021 2.4804182,0.52186175 2.800452,0.50978065 3.1702872,0.58746974 3.443531,0.8195281 3.0820586,0.45094327 2.5852811,0.25479816 2.080933,0.26495918 Z"
     style="fill:#cf3b00;fill-opacity:1;fill-rule:evenodd;stroke-width:0.18552"
     id="path858" />
</svg>
