<?xml version="1.0" encoding="UTF-8" standalone="no"?>
<!-- Created with Inkscape (http://www.inkscape.org/) -->

<svg
   width="16"
   height="16"
   viewBox="0 0 4.2333333 4.2333333"
   version="1.1"
   id="svg5"
   inkscape:version="1.2 (dc2aedaf03, 2022-05-15)"
   sodipodi:docname="inkscape.svg"
   xmlns:inkscape="http://www.inkscape.org/namespaces/inkscape"
   xmlns:sodipodi="http://sodipodi.sourceforge.net/DTD/sodipodi-0.dtd"
   xmlns="http://www.w3.org/2000/svg"
   xmlns:svg="http://www.w3.org/2000/svg">
  <sodipodi:namedview
     id="namedview7"
     pagecolor="#ffffff"
     bordercolor="#666666"
     borderopacity="1.0"
     inkscape:pageshadow="2"
     inkscape:pageopacity="0.0"
     inkscape:pagecheckerboard="0"
     inkscape:document-units="px"
     showgrid="false"
     units="px"
     height="48px"
     inkscape:zoom="51.875"
     inkscape:cx="8"
     inkscape:cy="8"
     inkscape:window-width="1920"
     inkscape:window-height="1009"
     inkscape:window-x="0"
     inkscape:window-y="0"
     inkscape:window-maximized="1"
     inkscape:current-layer="svg5"
     inkscape:showpageshadow="2"
     inkscape:deskcolor="#d1d1d1"
     showguides="false" />
  <defs
     id="defs2" />
  <rect
     style="opacity:1;fill:#444444;fill-opacity:1;stroke-width:0.264583"
     id="rect1162"
     width="3.3027937"
     height="3.3027937"
     x="1.3420991"
     y="-1.6513969"
     ry="0.52916664"
     transform="rotate(45)" />
  <path
     id="rect472"
     style="opacity:0.5;fill:#000000;stroke-width:0.264583"
     d="m 2.4908985,0.15547068 c -0.207294,-0.20729403 -0.5410606,-0.20729403 -0.7483546,0 L 0.15557886,1.7424357 c -0.20729408,0.2072941 -0.20729405,0.5410606 -3e-8,0.7483547 l 1.58696497,1.586965 c 0.2072941,0.207294 0.5410607,0.207294 0.7483548,0 l 1.5869649,-1.586965 c 0.2072941,-0.2072941 0.2072941,-0.5410606 0,-0.7483547 z M 2.3038099,0.34255934 3.8907748,1.9295243 c 0.1036471,0.103647 0.1036471,0.2705304 10e-8,0.3741774 l -1.586965,1.586965 c -0.103647,0.103647 -0.2705304,0.103647 -0.3741774,0 L 0.34266748,2.3037017 c -0.10364702,-0.103647 -0.10364696,-0.2705304 4e-8,-0.3741774 L 1.9296325,0.34255934 c 0.103647,-0.10364701 0.2705303,-0.10364701 0.3741774,0 z" />
  <path
     d="m 2.1167213,0.79374999 c -0.074789,0 -0.1495762,0.028253 -0.2060827,0.088084 L 0.88188824,1.9421611 c -0.056506,0.058169 -0.086421,0.1346183 -0.088084,0.2110681 v 0.00499 c 0,0.2276876 0.60661356,0.00665 0.66145816,0.2841943 0.029915,0.1512378 -0.3307291,0.081436 -0.3307291,0.2326738 0,0.177829 0.5102202,0.056506 0.6564723,0.2010966 0.059831,0.146252 -0.1961107,0.122985 -0.149576,0.2592651 0.08476,0.088084 0.2775465,0.038223 0.3141095,0.1811528 0.043211,0.1628718 0.3190954,0.1346185 0.4803054,0.014957 C 2.5122663,3.2434736 2.2945503,3.2035866 2.3793098,3.1138413 2.4657318,3.0257575 2.8878688,3.0440389 2.8911928,2.8512522 2.8513058,2.7299297 2.6917573,2.7099863 2.6900953,2.5670579 2.6817873,2.445735 2.8197283,2.4806362 3.2584848,2.3609754 3.4329901,2.2778778 3.4396381,2.2346668 3.4396381,2.1582171 v -0.00499 C 3.4379631,2.0767798 3.4030758,2.0003299 3.3465683,1.9421614 L 2.3228038,0.88183359 c -0.058169,-0.05983 -0.131295,-0.088084 -0.2060825,-0.0880836 z M 2.1366663,1.016452 c 0.078112,0 0.290842,0.262589 0.480305,0.4603616 0.054844,0.071464 -0.019945,0.1445901 -0.019945,0.1445901 L 2.1998188,1.4036876 2.0236516,1.6413472 1.8690897,1.4086735 1.7760202,1.7709797 1.5017976,1.6064461 1.5749236,1.5133766 2.0037081,1.0729585 c 0.031577,-0.033239 0.058167,-0.056506 0.1329567,-0.056506 z m 1.1783265,1.5921532 c -0.021605,-0.00167 -0.04155,0 -0.056506,0.00499 -0.028255,0.00831 -0.16121,0.013295 -0.149577,0.1130125 0.1196615,0.05152 0.3024763,0.091407 0.3240823,-0.00997 0.01662,-0.074788 -0.054844,-0.106365 -0.1179993,-0.1080275 z M 1.264138,2.9443199 c -0.011637,0.00167 -0.019944,0.00499 -0.029915,0.00997 -0.091407,0.034898 -0.1528999,0.1080275 -0.06814,0.1396044 0.08476,0.031579 0.1429281,-0.00167 0.2177161,-0.04155 0.074788,-0.039887 0.071464,-0.046535 0.066479,-0.061492 -0.00998,0.00168 -0.078111,-0.039887 -0.1495758,-0.046535 -0.011637,-0.00168 -0.02493,-0.00168 -0.036563,0 z"
     style="fill:#ffffff;stroke-width:0.166196"
     id="path1246" />
</svg>
