<?xml version="1.0" encoding="UTF-8" standalone="no"?>
<!-- Created with Inkscape (http://www.inkscape.org/) -->

<svg
   width="16"
   height="16"
   viewBox="0 0 4.2333333 4.2333333"
   version="1.1"
   id="svg5"
   inkscape:version="1.1.2 (0a00cf5339, 2022-02-04, custom)"
   sodipodi:docname="kate.svg"
   xmlns:inkscape="http://www.inkscape.org/namespaces/inkscape"
   xmlns:sodipodi="http://sodipodi.sourceforge.net/DTD/sodipodi-0.dtd"
   xmlns="http://www.w3.org/2000/svg"
   xmlns:svg="http://www.w3.org/2000/svg">
  <sodipodi:namedview
     id="namedview7"
     pagecolor="#ffffff"
     bordercolor="#666666"
     borderopacity="1.0"
     inkscape:pageshadow="2"
     inkscape:pageopacity="0.0"
     inkscape:pagecheckerboard="0"
     inkscape:document-units="px"
     showgrid="false"
     units="px"
     height="48px"
     inkscape:zoom="50.0625"
     inkscape:cx="8.019975"
     inkscape:cy="8.0099875"
     inkscape:window-width="1920"
     inkscape:window-height="1017"
     inkscape:window-x="0"
     inkscape:window-y="0"
     inkscape:window-maximized="1"
     inkscape:current-layer="svg5" />
  <defs
     id="defs2" />
  <circle
     style="fill:#25688c;stroke-width:0.264583;fill-opacity:1"
     id="path934"
     cx="2.1166666"
     cy="2.1166666"
     r="2.1166666" />
  <circle
     style="fill:#3daee9;fill-opacity:1;stroke-width:0.132291"
     id="path4871"
     cx="2.1166666"
     cy="2.1166666"
     r="1.8520833" />
  <g
     id="g870"
     transform="translate(-0.07937501)">
    <path
       d="M 1.7103167,1.4125112 C 1.5896486,1.0119117 0.90773429,1.0826406 0.79375,1.0739437 0.92168434,1.0104373 1.0365732,1.0604032 1.3003167,0.86934525 1.8084005,0.50128604 2.1648664,0.4963941 2.4342453,0.64255951 1.6978025,0.67055486 2.0202879,1.0810945 2.1287592,1.2924971 1.9908156,1.3325654 1.7730613,1.3930513 1.7103167,1.4125112 Z"
       style="fill:#cccccc;fill-opacity:1;stroke-width:0.264583"
       id="path1081" />
    <path
       d="M 3.5281616,0.86126835 C 3.2629681,1.2115565 2.8220561,1.6848203 2.3395036,1.7471611 1.8569509,1.8095018 1.351565,1.7404403 1.2450018,2.0998226 1.1468672,2.4307813 1.5373672,2.739781 1.8953461,2.6653085 2.2777797,2.5857476 2.1951874,2.1522867 1.9860115,1.8571108 c 0.1588889,-0.00911 0.0654,0.046351 0.3348409,0.03277 L 2.4958641,2.4355822 C 2.5963276,2.6877547 2.8752808,3.260086 2.9217937,3.7041666 2.6981203,3.3827619 2.5490994,3.2646463 2.2024581,3.0327745 1.7584334,2.7357625 1.3534743,2.7257073 1.1453383,2.2881175 0.93765184,1.851473 1.257903,1.5369413 1.7498181,1.400727 2.4528009,1.2060664 3.058514,1.0215106 3.5281616,0.86126835 Z"
       style="fill:#f2f2f2;fill-opacity:1;stroke-width:0.264583"
       id="path1441" />
    <path
       d="m 1.9860115,1.8571108 c 0.1588889,-0.00911 0.129333,-0.00675 0.3987739,-0.020334 C 2.7864014,2.1791116 2.9195212,2.1651552 3.621169,2.6646187 2.9159187,2.6141676 2.382307,2.5177289 1.9860115,1.8571108 Z"
       style="fill:#cccccc;fill-opacity:1;stroke-width:0.264583"
       id="path1201" />
    <path
       d="M 0.79375,1.0739437 C 0.92168434,1.0104373 1.0373003,0.98456835 1.3010438,0.79351035 1.8091276,0.42545114 2.3470538,0.50571974 2.6164327,0.65188515 1.87999,0.67988047 1.9748786,0.82661565 1.9721608,0.94164715 1.4828663,0.83851005 1.3400027,0.95235885 0.79375,1.0739437 Z"
       style="fill:#e6e6e6;fill-opacity:1;stroke-width:0.264583"
       id="path961" />
    <path
       d="M 2.6164327,0.65188517 C 1.87999,0.6798805 2.0202879,1.0810945 2.1287592,1.2924971 2.0428205,1.3174594 2.0063161,1.3458973 1.8914337,1.3763016 1.4278953,0.55035468 2.2381032,0.44290403 2.6164327,0.65188517 Z"
       style="fill:#f2f2f2;fill-opacity:1;stroke-width:0.264583"
       id="path1321" />
    <path
       d="M 1.2779486,2.4938794 C 0.91757386,2.0298526 1.0294628,1.6045314 1.7351288,1.3835487 2.4315042,1.1654749 3.058514,1.0215104 3.5281616,0.86126825 2.2607559,1.3441774 0.6283657,1.6668552 1.2779486,2.4938794 Z"
       style="fill:#e6e6e6;fill-opacity:1;stroke-width:0.264583"
       id="path1561" />
  </g>
</svg>
