<?xml version="1.0" encoding="UTF-8" standalone="no"?>
<!-- Created with Inkscape (http://www.inkscape.org/) -->

<svg
   width="16"
   height="16"
   viewBox="0 0 4.2333333 4.2333333"
   version="1.1"
   id="svg5"
   inkscape:version="1.2 (dc2aedaf03, 2022-05-15)"
   sodipodi:docname="kleopatra.svg"
   xmlns:inkscape="http://www.inkscape.org/namespaces/inkscape"
   xmlns:sodipodi="http://sodipodi.sourceforge.net/DTD/sodipodi-0.dtd"
   xmlns="http://www.w3.org/2000/svg"
   xmlns:svg="http://www.w3.org/2000/svg">
  <sodipodi:namedview
     id="namedview7"
     pagecolor="#ffffff"
     bordercolor="#666666"
     borderopacity="1.0"
     inkscape:pageshadow="2"
     inkscape:pageopacity="0.0"
     inkscape:pagecheckerboard="0"
     inkscape:document-units="px"
     showgrid="false"
     units="px"
     height="48px"
     inkscape:zoom="50"
     inkscape:cx="8"
     inkscape:cy="8"
     inkscape:window-width="1920"
     inkscape:window-height="1016"
     inkscape:window-x="0"
     inkscape:window-y="0"
     inkscape:window-maximized="1"
     inkscape:current-layer="svg5"
     inkscape:showpageshadow="2"
     inkscape:deskcolor="#d1d1d1" />
  <defs
     id="defs2" />
  <rect
     style="opacity:1;fill:#d3b165;fill-opacity:1;stroke-width:0.264583"
     id="rect1162"
     width="3.7041667"
     height="3.7041667"
     x="0.26458332"
     y="0.26458332"
     ry="0.52916664" />
  <path
     d="m 1.959334,1.0583333 c -0.2748487,0 -0.5644508,0.06348 -0.8619629,0.188619 -0.24216669,0.1018593 -0.34561679,0.1857693 -0.28835442,0.2340942 0.0201994,0.017047 0.005993,0.020596 0.34519852,-0.090951 0.2318144,-0.076231 0.5171512,-0.1404169 0.6712769,-0.151412 0.2379833,-0.016977 0.5214231,0.035556 1.0231933,0.1901693 0.1801871,0.055522 0.3874021,0.1139708 0.4604369,0.1297079 0.1561991,0.033657 0.1725956,0.028565 0.3028241,0.028939 h 0.091984 v -0.066146 c 0,-0.075301 -0.010438,-0.082166 -0.12299,-0.082166 -0.2509208,0 -0.3137768,-0.034518 -0.6914306,-0.1756999 C 2.4850087,1.1122699 2.2401315,1.0583333 1.959334,1.0583333 Z M 1.6771807,1.5885335 c -0.040881,0.00155 -0.077108,0.00566 -0.1064534,0.011886 C 1.4353805,1.6291155 1.254542,1.7333429 1.1433632,1.8391642 0.97103141,2.0031917 0.64318186,2.3101262 0.66225559,2.3874511 c 0.008589,0.03482 0.0176506,0.036879 0.1694987,0.043408 0.0881494,0.00379 0.39384311,0.024252 0.52916661,0.045475 l 0.2557984,0.038757 v 0.1080038 c -0.042445,0.1978825 -0.012203,0.3046535 -0.00465,0.3767212 0.028286,0.2608292 0.028566,0.289015 0.094051,0.2795694 C 1.8072807,3.1101167 1.8190756,2.7853759 1.8198084,2.5982902 2.0208773,2.8393331 2.336962,2.9668443 2.526742,3.0592439 c 0.2006015,0.08416 0.4568266,0.1364438 0.6506064,0.1219566 0.1191199,0 0.2693255,-0.1353871 0.2692342,-0.2924887 -4.9e-5,-0.121139 -0.033084,-0.186908 -0.1136883,-0.2258261 -0.1481817,-0.071546 -0.3126422,0.013295 -0.3126422,0.1720826 0,0.1558451 0.1460526,0.24218 0.242879,0.1436603 0.04039,-0.041097 0.050387,-0.1102453 0.021704,-0.1519285 -0.012732,-0.0185 -0.01415,-0.015206 -0.0062,0.013435 C 3.3060681,2.9389711 3.2313291,3.0073518 3.14531,2.9620914 3.055413,2.9147904 3.072101,2.7628461 3.170115,2.7378157 c 0.048414,-0.012364 0.1336209,0.030704 0.1653646,0.096635 0.017108,0.035528 0.017251,0.057178 0.00259,0.1069702 -0.0481,0.1633507 -0.2643148,0.1640256 -0.5896285,0.00259 C 2.519281,2.8227525 2.2707246,2.6776912 2.0905922,2.5724527 c -0.08021,-0.071714 -0.091891,-0.061911 0.1173055,-0.096635 0.060144,-0.00998 0.2360188,-0.061758 0.3906738,-0.1152384 0.2747521,-0.095009 0.2852979,-0.1393309 0.4532022,-0.1405599 0.094512,-6.985e-4 -0.062753,-0.00694 0.094051,0 l 0.2935221,0.012402 V 2.0748087 1.9177124 L 3.0993162,1.9089274 C 2.6246956,1.8962439 2.8559186,1.9216566 2.3660276,1.7290934 2.2724832,1.6923237 2.1730532,1.6483124 2.1076454,1.6309082 1.9916526,1.6000435 1.7998231,1.5839019 1.6771807,1.5885335 Z M 2.1272824,1.839681 c 0.00569,0 0.1924336,0.046463 0.3229777,0.1033528 0.1305443,0.05689 0.2543454,0.1074006 0.2749186,0.1126546 0.020574,0.00525 0.037207,0.015484 0.037207,0.022221 0,0.00674 -0.078523,0.051934 -0.175183,0.100769 C 2.390081,2.2782694 2.1668552,2.319952 1.9763872,2.3295737 l -0.046509,0.00207 0.050643,-0.040308 c 0.027929,-0.022396 0.069911,-0.07435 0.093534,-0.1152385 0.037479,-0.06487 0.042891,-0.09073 0.042891,-0.2051554 0,-0.072124 0.00465,-0.1312584 0.010335,-0.1312581 z M 1.3030433,1.873787 c 0.023412,-0.00451 0.023552,0.03265 0.023771,0.1064535 4.365e-4,0.1452396 0.03479,0.2241948 0.1333251,0.3074747 l 0.064596,0.054777 -0.3028239,-0.028939 C 1.0609974,2.2979356 0.88262641,2.2818202 0.87826311,2.2773803 1.0536137,2.1658044 1.1926584,2.0081002 1.3030433,1.873787 Z"
     style="fill:#482f00;stroke-width:0.264583"
     id="path298" />
  <path
     id="rect2837"
     style="fill:#000000;fill-opacity:1;stroke-width:0.264583;opacity:0.5"
     d="M 0.79374999 0.26458333 C 0.50059197 0.26458333 0.26458333 0.50059197 0.26458333 0.79374999 L 0.26458333 3.4395833 C 0.26458333 3.7327413 0.50059197 3.96875 0.79374999 3.96875 L 3.4395833 3.96875 C 3.7327413 3.96875 3.96875 3.7327413 3.96875 3.4395833 L 3.96875 0.79374999 C 3.96875 0.50059197 3.7327413 0.26458333 3.4395833 0.26458333 L 0.79374999 0.26458333 z M 0.79374999 0.52916666 L 3.4395833 0.52916666 C 3.5861623 0.52916666 3.7041666 0.64717098 3.7041666 0.79374999 L 3.7041666 3.4395833 C 3.7041666 3.5861623 3.5861623 3.7041666 3.4395833 3.7041666 L 0.79374999 3.7041666 C 0.64717098 3.7041666 0.52916666 3.5861623 0.52916666 3.4395833 L 0.52916666 0.79374999 C 0.52916666 0.64717098 0.64717098 0.52916666 0.79374999 0.52916666 z " />
</svg>
