<?xml version="1.0" encoding="UTF-8" standalone="no"?>
<!-- Created with Inkscape (http://www.inkscape.org/) -->

<svg
   width="16"
   height="16"
   viewBox="0 0 4.2333333 4.2333333"
   version="1.1"
   id="svg5"
   inkscape:version="1.2 (dc2aedaf03, 2022-05-15)"
   sodipodi:docname="kontact.svg"
   xmlns:inkscape="http://www.inkscape.org/namespaces/inkscape"
   xmlns:sodipodi="http://sodipodi.sourceforge.net/DTD/sodipodi-0.dtd"
   xmlns="http://www.w3.org/2000/svg"
   xmlns:svg="http://www.w3.org/2000/svg">
  <sodipodi:namedview
     id="namedview7"
     pagecolor="#ffffff"
     bordercolor="#666666"
     borderopacity="1.0"
     inkscape:pageshadow="2"
     inkscape:pageopacity="0.0"
     inkscape:pagecheckerboard="0"
     inkscape:document-units="px"
     showgrid="false"
     units="px"
     height="48px"
     inkscape:zoom="32.416667"
     inkscape:cx="12"
     inkscape:cy="12.015424"
     inkscape:window-width="1846"
     inkscape:window-height="1011"
     inkscape:window-x="74"
     inkscape:window-y="32"
     inkscape:window-maximized="1"
     inkscape:current-layer="svg5"
     showguides="false"
     inkscape:showpageshadow="2"
     inkscape:deskcolor="#d1d1d1" />
  <defs
     id="defs2" />
  <rect
     style="opacity:1;fill:#a27100;fill-opacity:1;stroke-width:0.529167;stroke-linecap:round;stroke-linejoin:round"
     id="rect1220"
     width="3.7041667"
     height="3.4395833"
     x="0.26458335"
     y="0.52916664"
     ry="0.52916664" />
  <rect
     style="opacity:1;fill:#ffce51;fill-opacity:1;stroke-width:0.264583"
     id="rect1162"
     width="3.7041667"
     height="3.4395833"
     x="0.26458335"
     y="0.26458332"
     ry="0.52916664" />
  <path
     d="M 0.79375003,3.7041668 H 3.4395833 c 0.2931583,0 0.5291667,-0.2360084 0.5291667,-0.5291667 L 2.1166666,1.3229167 0.26458333,3.1750001 c 0,0.2931583 0.2360084,0.5291667 0.5291667,0.5291667 z"
     style="fill:#c29a32;stroke-width:0.264583"
     id="path1036"
     sodipodi:nodetypes="sscccs" />
  <path
     d="M 3.96875,0.79374999 V 1.0583334 L 2.1166667,2.9104167 0.26458343,1.0583334 V 0.79374999 Z"
     style="opacity:0.3;fill:#000000;fill-opacity:1;stroke-width:0.264583"
     id="path1474"
     sodipodi:nodetypes="cccccc" />
  <path
     d="M 0.79375003,0.26458335 H 3.4395833 c 0.2931583,0 0.5291667,0.23600834 0.5291667,0.52916664 L 2.1166666,2.6458333 0.26458333,0.79374999 c 0,-0.2931583 0.2360083,-0.52916664 0.5291667,-0.52916664 z"
     style="fill:#ffee7d;stroke-width:0.264583"
     id="path1255"
     sodipodi:nodetypes="sscccs" />
  <path
     id="rect845"
     style="opacity:0.4;fill:#333333;stroke-width:0.529167;stroke-linecap:round;stroke-linejoin:round"
     d="m 0.79375003,0.26458335 c -0.2931583,0 -0.5291667,0.23600831 -0.5291667,0.52916664 V 3.175 c 0,0.2931584 0.2360084,0.5291667 0.5291667,0.5291667 H 3.4395833 C 3.7327417,3.7041667 3.96875,3.4681584 3.96875,3.175 V 0.79374999 c 0,-0.29315833 -0.2360083,-0.52916664 -0.5291667,-0.52916664 z m 0,0.26458331 H 3.4395833 c 0.1465792,0 0.2645834,0.1180042 0.2645834,0.26458333 V 3.175 c 0,0.1465792 -0.1180042,0.2645834 -0.2645834,0.2645834 H 0.79375003 c -0.1465792,0 -0.2645833,-0.1180042 -0.2645833,-0.2645834 V 0.79374999 c 0,-0.14657913 0.1180041,-0.26458333 0.2645833,-0.26458333 z"
     sodipodi:nodetypes="ssssssssssssssssss" />
  <rect
     style="fill:#245c63;fill-opacity:1;stroke-width:0.264583"
     id="rect8487"
     width="2.9104166"
     height="2.6458335"
     x="1.3229165"
     y="1.5874999"
     ry="0.39687499" />
  <rect
     style="fill:#48b9c7;fill-opacity:1;stroke-width:0.264583"
     id="rect10253"
     width="2.3812501"
     height="2.1166668"
     x="1.5874999"
     y="1.8520832"
     ry="0.26458335" />
  <path
     d="m 2.6458324,1.8520832 c 0.5845009,0 1.0583329,0.473832 1.0583329,1.0583333 v 0.1322917 c -1.109e-4,0.3702494 -0.4623109,0.5386874 -0.7006159,0.2553225 -0.09709,0.09066 -0.224882,0.1412309 -0.357717,0.1415529 -0.4714697,0 -0.7074973,-0.5699862 -0.3741582,-0.9033254 0.3333392,-0.3333392 0.9033251,-0.097312 0.9033251,0.3741583 v 0.1322917 c 0,0.1763885 0.264583,0.1763885 0.264583,0 V 2.9104165 c 0,-0.7072048 -0.8549784,-1.0612462 -1.3549872,-0.5612375 -0.5000088,0.5000088 -0.1459674,1.3549876 0.5612373,1.3549876 h 0.661458 c 0,0 0.1322919,0 0.1322919,0.132291 -0.0082,0.132292 -0.1322919,0.132292 -0.1322919,0.132292 h -0.661458 c -1.4111102,0 -1.4111102,-2.1166664 0,-2.1166664 z m 0,0.79375 c -0.3527775,0 -0.3527775,0.5291667 0,0.5291667 0.3527779,0 0.3527779,-0.5291667 0,-0.5291667 z"
     style="fill:#ffffff;stroke-width:0.264583"
     id="path3853" />
</svg>
