<?xml version="1.0" encoding="UTF-8" standalone="no"?>
<!-- Created with Inkscape (http://www.inkscape.org/) -->

<svg
   width="16"
   height="16"
   viewBox="0 0 4.2333333 4.2333333"
   version="1.1"
   id="svg5"
   inkscape:version="1.2 (dc2aedaf03, 2022-05-15)"
   sodipodi:docname="libreoffice-base.svg"
   xmlns:inkscape="http://www.inkscape.org/namespaces/inkscape"
   xmlns:sodipodi="http://sodipodi.sourceforge.net/DTD/sodipodi-0.dtd"
   xmlns="http://www.w3.org/2000/svg"
   xmlns:svg="http://www.w3.org/2000/svg">
  <sodipodi:namedview
     id="namedview7"
     pagecolor="#ffffff"
     bordercolor="#666666"
     borderopacity="1.0"
     inkscape:pageshadow="2"
     inkscape:pageopacity="0.0"
     inkscape:pagecheckerboard="0"
     inkscape:document-units="px"
     showgrid="false"
     units="px"
     height="48px"
     inkscape:zoom="51.625"
     inkscape:cx="8"
     inkscape:cy="8"
     inkscape:window-width="1920"
     inkscape:window-height="1009"
     inkscape:window-x="0"
     inkscape:window-y="0"
     inkscape:window-maximized="1"
     inkscape:current-layer="svg5"
     inkscape:showpageshadow="2"
     inkscape:deskcolor="#d1d1d1"
     inkscape:lockguides="true" />
  <defs
     id="defs2" />
  <rect
     style="fill:#552d5d;fill-opacity:1;stroke-width:0.264583"
     id="rect2908"
     width="3.175"
     height="4.2333331"
     x="0.52916664"
     y="0"
     ry="0.39687499" />
  <rect
     style="fill:#aa5abb;stroke-width:0.264583;fill-opacity:1"
     id="rect2578"
     width="2.6458333"
     height="3.7041667"
     x="0.79374999"
     y="0.26458341"
     ry="0.26458332" />
  <path
     d="m 2.1166667,0.2645834 h 1.0583332 c 0.1465792,0 0.2645834,0.1180041 0.2645834,0.2645833 V 1.5875 Z"
     style="opacity:0.5;fill:#552d5d;fill-opacity:1;stroke-width:0.264583"
     id="path2956"
     sodipodi:nodetypes="csscc" />
  <path
     d="M 2.38125,0.2645834 H 3.175 c 0.1465792,0 0.2645833,0.1180042 0.2645833,0.2645833 v 0.79375"
     style="fill:#bb7bc9;fill-opacity:1;stroke-width:0.264583"
     id="path3166" />
  <path
     id="rect4069"
     style="fill:#ffffff;fill-opacity:1;stroke-width:0.529167"
     d="M 1.4484904 2.1166667 C 1.3783985 2.1201967 1.3229167 2.1779591 1.3229167 2.2489583 C 1.3229167 2.3222478 1.3819188 2.38125 1.4552083 2.38125 L 2.778125 2.38125 C 2.8514145 2.38125 2.9104166 2.3222478 2.9104166 2.2489583 C 2.9104166 2.1756688 2.8514145 2.1166667 2.778125 2.1166667 L 1.4552083 2.1166667 C 1.452918 2.1166667 1.4507514 2.1165528 1.4484904 2.1166667 z M 1.4484904 2.6458333 C 1.3783985 2.6493634 1.3229167 2.7071258 1.3229167 2.778125 C 1.3229167 2.8514145 1.3819188 2.9104166 1.4552083 2.9104166 L 2.778125 2.9104166 C 2.8514145 2.9104166 2.9104166 2.8514145 2.9104166 2.778125 C 2.9104166 2.7048355 2.8514145 2.6458333 2.778125 2.6458333 L 1.4552083 2.6458333 C 1.452918 2.6458333 1.4507514 2.6457194 1.4484904 2.6458333 z M 1.4484904 3.175 C 1.3783985 3.1785301 1.3229167 3.2362924 1.3229167 3.3072916 C 1.3229167 3.3805811 1.3819188 3.4395833 1.4552083 3.4395833 L 2.778125 3.4395833 C 2.8514145 3.4395833 2.9104166 3.3805811 2.9104166 3.3072916 C 2.9104166 3.2340021 2.8514145 3.175 2.778125 3.175 L 1.4552083 3.175 C 1.452918 3.175 1.4507514 3.1748861 1.4484904 3.175 z " />
</svg>
