<?xml version="1.0" encoding="UTF-8" standalone="no"?>
<!-- Created with Inkscape (http://www.inkscape.org/) -->

<svg
   width="16"
   height="16"
   viewBox="0 0 4.2333333 4.2333333"
   version="1.1"
   id="svg5"
   inkscape:version="1.2 (dc2aedaf03, 2022-05-15)"
   sodipodi:docname="libreoffice-calc.svg"
   xmlns:inkscape="http://www.inkscape.org/namespaces/inkscape"
   xmlns:sodipodi="http://sodipodi.sourceforge.net/DTD/sodipodi-0.dtd"
   xmlns="http://www.w3.org/2000/svg"
   xmlns:svg="http://www.w3.org/2000/svg">
  <sodipodi:namedview
     id="namedview7"
     pagecolor="#ffffff"
     bordercolor="#666666"
     borderopacity="1.0"
     inkscape:pageshadow="2"
     inkscape:pageopacity="0.0"
     inkscape:pagecheckerboard="0"
     inkscape:document-units="px"
     showgrid="false"
     units="px"
     height="48px"
     inkscape:zoom="51.625"
     inkscape:cx="8"
     inkscape:cy="8"
     inkscape:window-width="1920"
     inkscape:window-height="1009"
     inkscape:window-x="0"
     inkscape:window-y="0"
     inkscape:window-maximized="1"
     inkscape:current-layer="svg5"
     inkscape:showpageshadow="2"
     inkscape:deskcolor="#d1d1d1"
     inkscape:lockguides="true" />
  <defs
     id="defs2" />
  <rect
     style="fill:#234c31;fill-opacity:1;stroke-width:0.264583"
     id="rect2908"
     width="3.175"
     height="4.2333331"
     x="0.52916664"
     y="0"
     ry="0.39687499" />
  <rect
     style="fill:#479863;stroke-width:0.264583;fill-opacity:1"
     id="rect2578"
     width="2.6458333"
     height="3.7041667"
     x="0.79374999"
     y="0.26458341"
     ry="0.26458332" />
  <path
     d="M 1.0583333,1.8520833 V 3.7041666 H 3.1749999 V 1.8520833 Z M 1.3229166,2.1166666 H 1.8520833 V 2.3812499 H 1.3229166 Z m 0.79375,0 h 0.79375 v 0.2645833 h -0.79375 z m -0.79375,0.5291667 H 1.8520833 V 2.9104166 H 1.3229166 Z m 0.79375,0 h 0.79375 v 0.2645833 h -0.79375 z m -0.79375,0.5291666 H 1.8520833 V 3.4395833 H 1.3229166 Z m 0.79375,0 h 0.79375 v 0.2645834 h -0.79375 z"
     style="fill:#ffffff;stroke-width:0.264583"
     id="path1504" />
  <path
     d="m 2.1166667,0.2645834 h 1.0583332 c 0.1465792,0 0.2645834,0.1180041 0.2645834,0.2645833 V 1.5875 Z"
     style="opacity:0.5;fill:#234c31;fill-opacity:1;stroke-width:0.264583"
     id="path2956"
     sodipodi:nodetypes="csscc" />
  <path
     d="M 2.38125,0.2645834 H 3.175 c 0.1465792,0 0.2645833,0.1180042 0.2645833,0.2645833 v 0.79375"
     style="fill:#73c48f;fill-opacity:1;stroke-width:0.264583"
     id="path3166" />
</svg>
