<?xml version="1.0" encoding="UTF-8" standalone="no"?>
<!-- Created with Inkscape (http://www.inkscape.org/) -->

<svg
   width="16"
   height="16"
   viewBox="0 0 4.2333333 4.2333333"
   version="1.1"
   id="svg5"
   inkscape:version="1.2 (dc2aedaf03, 2022-05-15)"
   sodipodi:docname="lutris.svg"
   xmlns:inkscape="http://www.inkscape.org/namespaces/inkscape"
   xmlns:sodipodi="http://sodipodi.sourceforge.net/DTD/sodipodi-0.dtd"
   xmlns="http://www.w3.org/2000/svg"
   xmlns:svg="http://www.w3.org/2000/svg">
  <sodipodi:namedview
     id="namedview7"
     pagecolor="#ffffff"
     bordercolor="#666666"
     borderopacity="1.0"
     inkscape:pageshadow="2"
     inkscape:pageopacity="0.0"
     inkscape:pagecheckerboard="0"
     inkscape:document-units="px"
     showgrid="false"
     units="px"
     height="48px"
     inkscape:zoom="50.875"
     inkscape:cx="8"
     inkscape:cy="8"
     inkscape:window-width="1846"
     inkscape:window-height="1011"
     inkscape:window-x="0"
     inkscape:window-y="0"
     inkscape:window-maximized="1"
     inkscape:current-layer="svg5"
     inkscape:showpageshadow="2"
     inkscape:deskcolor="#d1d1d1" />
  <defs
     id="defs2" />
  <circle
     style="fill:#7d520d;stroke-width:0.198437;fill-opacity:1"
     id="path934"
     cx="2.3812499"
     cy="2.3812499"
     r="1.5875" />
  <circle
     style="fill:#faa41a;fill-opacity:1;stroke-width:0.0944936"
     id="path4871"
     cx="2.3812499"
     cy="2.3812497"
     r="1.3229166" />
  <path
     style="color:#000000;fill:#4a342b;fill-opacity:1;stroke-width:0.529167;-inkscape-stroke:none"
     d="M 2.0495364,8.1004395e-7 C 0.94220502,-9.9210996e-4 0.02982418,0.91094896 7.1536307e-4,2.0613139 -0.02889024,3.2299386 0.86411372,4.2020428 1.995174,4.2325969 2.546208,4.2474718 3.0519023,4.0360983 3.4292661,3.6802676 c 0.040293,-0.03362 0.062217,-0.054572 0.062217,-0.054572 0,0 0.3828093,-0.4295105 0.404771,-0.7840514 -0.104417,0.1725115 -0.1737908,0.3452384 -0.4337092,0.4731594 -0.1192022,0.055219 -0.2284617,0.1022001 -0.3385762,0.1393227 -0.00705,0.0018 -0.014129,0.00346 -0.021291,0.00517 -0.052156,0.012451 -0.1068205,0.022908 -0.1641208,0.0308 -0.00695,9.525e-4 -0.014073,0.0018 -0.021085,0.00269 -0.059428,0.00754 -0.1207895,0.013025 -0.1841707,0.015711 -0.00652,2.646e-4 -0.013285,1.905e-4 -0.019844,4.234e-4 -0.062528,0.00214 -0.1264783,-0.037387 -0.1914052,-0.039982 -0.00424,-1.694e-4 -0.00836,-1.83e-5 -0.012609,-2.117e-4 -0.066027,-0.00293 -0.1329839,-0.00892 -0.2000867,-0.016743 -0.00958,-0.00111 -0.019149,-0.00188 -0.028731,-0.0031 -0.06532,-0.0083 -0.130614,-0.019267 -0.1955392,-0.032247 -0.010489,-0.00209 -0.020958,-0.00419 -0.031419,-0.00641 -0.063534,-0.013486 0.00581,0.010034 -0.055996,-0.00799 C 1.9778559,3.396454 1.9581139,3.3905 1.9385539,3.38425 1.9237719,3.37953 1.9089369,3.37498 1.8943199,3.369986 1.8734319,3.362856 1.8530259,3.355138 1.8325159,3.347454 1.8157879,3.341184 1.7989419,3.335069 1.7824939,3.328436 1.7634339,3.320746 1.7449169,3.312431 1.7262709,3.30425 1.7104689,3.29732 1.6944149,3.290661 1.6789359,3.283372 1.6452408,3.2675044 1.6121153,3.2509078 1.5801372,3.2333498 1.5546876,3.2192716 1.530467,3.2045311 1.5073784,3.1891139 1.454355,3.1537076 1.4080779,3.1146834 1.3666149,3.0737696 1.1507523,2.853474 1.1607743,2.5944474 1.1721093,2.4265602 1.1863906,2.2156751 1.2308789,1.7529882 1.812657,1.5079406 2.1721138,1.3810155 2.5948624,1.2922466 2.9482727,1.4060325 c 0.2658435,0.059985 0.4570058,0.147208 0.7098114,0.2364763 0,0 -0.00204,0.0044 0.067798,0.021705 0.4916554,0.077885 0.436467,-0.3271662 0.436467,-0.3271662 l -0.038537,-0.094789 v 0 c -0.00852,-0.04995 0.028888,-0.089344 0.028888,-0.089344 0,0 -0.030305,-0.1116932 -0.025196,-0.18550962 0.00518,-0.0737824 0.00101,-0.16835805 -0.015089,-0.30324369 C 4.0963275,0.52926517 4.0077948,0.4755397 3.9790922,0.45457203 3.9503241,0.43364216 3.816278,0.33258284 3.6878505,0.2821758 3.5593443,0.23176813 3.4294651,0.19451571 3.2694874,0.21706213 c -0.017762,0.002512 -0.034576,0.005228 -0.052088,0.007855 -0.0031,-9.8425e-4 -0.00553,-0.002106 -0.00889,-0.003101 -0.061002,-0.0181171 -0.1041537,-0.11684049 -0.1539904,-0.1156464 -0.00381,9.145e-5 -0.00767,4.1804e-4 -0.011576,8.2656e-4 -0.00384,4.0216e-4 -0.00783,9.1651e-4 -0.011782,0.001654 h -2.117e-4 c -0.00403,7.5142e-4 -0.00803,0.001765 -0.012195,0.002894 -0.00455,0.001233 -0.00892,0.002849 -0.013023,0.004754 -0.029164,0.0135587 -0.04703,0.0645889 -0.058078,0.0980608 C 2.6917668,0.08501445 2.405657,0.00900424 2.1022446,8.2765004e-4 2.0845726,3.4927004e-4 2.0671126,1.6690044e-5 2.0495364,8.1004395e-7 Z M 3.2525366,3.4152652 c -0.037564,0.013999 -0.07834,0.025847 -0.1202999,0.036794 0.041936,-0.01094 0.082761,-0.022804 0.1202999,-0.036794 z"
     id="path25356"
     sodipodi:nodetypes="cccccccccccccscccccscccccscsccccccccsccccccccssccsccccccc" />
  <path
     id="path26878"
     style="color:#000000;fill:#946857;stroke-width:0.529167;-inkscape-stroke:none"
     d="M 2.0489705,0.2635498 C 1.087037,0.26268725 0.29127846,1.0544746 0.26561686,2.0686076 0.2395168,3.0988577 1.0185637,3.9421852 2.001945,3.96875 2.197118,3.97402 2.8267481,3.889821 2.8980143,3.7243204 c 0.00436,2.6e-4 -0.3842696,0.011826 -0.3999756,0.011111 -0.074067,-0.00329 -0.1468104,-0.0092 -0.2185913,-0.01757 -0.00347,-4.1e-4 -0.013884,-0.00137 -0.031523,-0.00362 -0.072359,-0.00919 -0.144703,-0.021091 -0.214974,-0.03514 -0.010711,-0.00213 -0.022758,-0.00357 -0.03514,-0.0062 -0.069931,-0.014843 -0.00618,0.0031 -0.074398,-0.016795 -0.021353,-0.00623 -0.042275,-0.012507 -0.064596,-0.019637 -0.012854,-0.0041 -0.030724,-0.00869 -0.050643,-0.015503 -0.026274,-0.00897 -0.048218,-0.017832 -0.068213,-0.025322 -0.015003,-0.00562 -0.034592,-0.012217 -0.056844,-0.021187 -0.02529,-0.010204 -0.045268,-0.019818 -0.062528,-0.027388 -0.012531,-0.0055 -0.031697,-0.012903 -0.054777,-0.023771 C 1.5282514,3.5056104 1.4905304,3.4857084 1.45264,3.4649044 1.420958,3.4473784 1.39004,3.4276814 1.360656,3.4080604 1.292092,3.3622764 1.2329893,3.3127824 1.1813394,3.2618164 l -0.00207,-0.00207 h -0.00207 C 0.88591493,2.9624773 0.8955931,2.5837996 0.90745408,2.4081217 0.92991841,2.0764021 1.0350263,1.5473446 1.7089396,1.2634888 l 0.00775,-0.00155 0.00775,-0.00413 C 2.1076471,1.1224938 2.5761484,1.0114614 3.0251383,1.1544515 3.306093,1.2202193 3.5110601,1.30972 3.7460245,1.3926798 l 0.027389,0.00982 c 0.077754,0.010899 0.1134528,0.00294 0.1209228,0 8.7e-4,-0.00411 0.00301,-0.00738 0.00413,-0.013953 L 3.8669474,1.3146484 3.86333,1.2872599 C 3.853059,1.2270469 3.88098,1.2358649 3.892786,1.1916589 3.884816,1.1702079 3.853274,1.0945949 3.86333,0.94929645 3.86671,0.90116695 3.86439,0.82133785 3.849377,0.69556517 c -4.436e-4,-0.00372 -1.212e-4,-0.006675 5.168e-4,-0.008268 l 5.167e-4,-5.1676e-4 c -0.00555,-0.002826 -0.013583,-0.008141 -0.027905,-0.0186035 C 3.7815796,0.63844939 3.6663217,0.55832613 3.5920288,0.52916666 3.4786877,0.48470781 3.4072769,0.46435947 3.3067749,0.47852376 c -0.014503,0.002052 -0.031761,0.004841 -0.05116,0.007751 l -0.060461,0.009819 -0.054777,-0.01757 -0.03669,0.11110433 L 2.8282511,0.45113525 C 2.6059848,0.33878487 2.3592279,0.27272485 2.0954793,0.26561686 c -0.016276,-4.4e-4 -0.032112,-0.002054 -0.046509,-0.002067 z"
     sodipodi:nodetypes="cccccccccsccccsccsccccccccccccccccscccccccccccc" />
</svg>
