<?xml version="1.0" encoding="UTF-8" standalone="no"?>
<svg
   width="16"
   height="16"
   version="1.1"
   id="svg16"
   sodipodi:docname="microsoft-edge.svg"
   inkscape:version="1.2 (dc2aedaf03, 2022-05-15)"
   xmlns:inkscape="http://www.inkscape.org/namespaces/inkscape"
   xmlns:sodipodi="http://sodipodi.sourceforge.net/DTD/sodipodi-0.dtd"
   xmlns="http://www.w3.org/2000/svg"
   xmlns:svg="http://www.w3.org/2000/svg">
  <defs
     id="defs20" />
  <sodipodi:namedview
     id="namedview18"
     pagecolor="#ffffff"
     bordercolor="#000000"
     borderopacity="0.25"
     inkscape:showpageshadow="2"
     inkscape:pageopacity="0.0"
     inkscape:pagecheckerboard="0"
     inkscape:deskcolor="#d1d1d1"
     showgrid="false"
     inkscape:zoom="33.916667"
     inkscape:cx="11.985258"
     inkscape:cy="12"
     inkscape:window-width="1920"
     inkscape:window-height="1011"
     inkscape:window-x="0"
     inkscape:window-y="0"
     inkscape:window-maximized="1"
     inkscape:current-layer="svg16"
     showguides="false" />
  <path
     style="fill:#0e539b;stroke-width:0.571429"
     class="cls-1"
     d="m 14.440972,11.906386 c -0.766633,0.754275 -1.955856,0.933316 -2.902318,0.937967 -2.9573156,0 -5.5334046,-2.273952 -5.5334046,-4.8840584 C 6.0129594,7.2474377 6.405802,6.5945406 7.0320602,6.2537581 4.3572279,6.3662356 3.6697705,9.153183 3.6697705,10.785984 c 0,4.616583 4.2553588,5.084615 5.1721764,5.084615 0.4943442,0 1.2399231,-0.143722 1.6873951,-0.284943 l 0.08187,-0.02749 c 1.72192,-0.595199 3.189868,-1.75882 4.162239,-3.299344 0.138876,-0.218773 -0.105945,-0.478286 -0.332479,-0.352431 z"
     id="path7652"
     sodipodi:nodetypes="scccsscccss" />
  <path
     style="fill:#0b87da;stroke-width:0.571429"
     class="cls-3"
     d="M 6.3677682,15.085755 C 5.8103421,14.739825 5.3272593,14.286545 4.9466067,13.75227 3.0995666,11.222045 4.2216027,7.6380062 7.0320602,6.2537581 7.2270485,6.1619018 7.5601523,5.9956841 8.0032501,6.0038085 c 0.6328357,0.00465 1.227003,0.3052345 1.605524,0.8123381 0.252373,0.3369228 0.3915209,0.7451191 0.3974749,1.1660181 0,-0.01312 1.528655,-4.974012 -4.9996868,-4.974012 -2.7435787,0 -4.9996877,2.6032329 -4.9996877,4.8871544 -0.0108219,1.2081649 0.2477179,2.4035609 0.7568278,3.4993049 1.7222455,3.674155 5.9231769,5.476727 9.7731387,4.193543 -1.3179809,0.415496 -2.9918001,0.232803 -4.1634481,-0.4999 z"
     id="path7656"
     sodipodi:nodetypes="ccccccsccccc" />
  <path
     style="fill:#17dcbe;stroke-width:0.571429"
     class="cls-5"
     d="m 9.5200301,8.9477858 c -0.05062,0.065608 -0.206237,0.1562182 -0.206237,0.3536792 0,0.163092 0.106244,0.319937 0.294981,0.451786 0.8986939,0.624875 2.5929629,0.542392 2.5973379,0.542392 0.665912,-0.0016 1.319203,-0.181785 1.891757,-0.521772 1.175281,-0.68615 1.898967,-1.5894525 1.901756,-2.9502261 0.01625,-1.4003468 -0.499969,-2.3314117 -0.708706,-2.74383 C 13.966627,1.4897042 11.108056,3.9922156e-8 7.9994995,3.9922156e-8 3.6250589,-4.3241008e-4 0.0615156,3.5125206 0,7.8859339 0.029998,5.6026375 2.2998563,3.4842319 4.9996879,3.4842319 c 0.2187354,0 1.4661584,0.021246 2.6248353,0.6292502 1.021186,0.5361429 1.5561529,1.457912 1.9280039,2.0996595 0.5404719,1.0196705 0.5637319,1.9562112 -0.03249,2.7346442 z"
     id="path7660"
     sodipodi:nodetypes="cscccccccsccc" />
  <path
     id="path23239"
     style="color:#000000;opacity:0.5;fill:#000000;stroke:none"
     d="M 7.9925128,3.9922156e-8 C 3.6916811,-4.2506008e-4 0.17787196,3.3954007 0.00227796,7.6660155 c 0.0051,-0.06774 0.014468,-0.135838 0.023438,-0.203125 -0.01719,0.144526 -0.025391005,0.288896 -0.025391005,0.431641 -0.010819995,1.208163 0.248703005,2.4042585 0.757813005,3.5000005 1.72224184,3.674147 5.92153004,5.476541 9.77148404,4.193359 -0.121709,0.03837 -0.245944,0.06945 -0.373047,0.09766 0.134045,-0.03214 0.259863,-0.06574 0.367188,-0.09961 l 0.08203,-0.02734 c 1.721913,-0.595204 3.18974,-1.760261 4.162109,-3.300781 0.138876,-0.218773 -0.107451,-0.477417 -0.333984,-0.351562 -0.766632,0.754273 -1.955884,0.932849 -2.902344,0.9375 -2.9573088,0 -5.5332029,-2.274666 -5.5332029,-4.8847665 0.0077,-0.712855 0.4010864,-1.364296 1.0273438,-1.7050782 0.1949878,-0.09186 0.5276065,-0.258124 0.9707031,-0.25 0.6328344,0.0047 1.2269481,0.3053983 1.6054688,0.8125002 0.1719198,0.229516 0.2910405,0.492381 0.3515624,0.769531 0.01692,0.490427 -0.1233454,0.948615 -0.4394531,1.361328 -0.05062,0.06561 -0.2070312,0.156055 -0.2070312,0.353516 0,0.163092 0.106185,0.319323 0.2949219,0.451172 0.8986922,0.6248735 2.5932812,0.5429685 2.5976562,0.5429685 0.66591,-0.0016 1.320025,-0.181497 1.892578,-0.5214845 1.175279,-0.686148 1.897602,-1.590401 1.900391,-2.951172 C 16.008762,5.4219218 15.494218,4.4924957 15.285481,4.0800781 13.961192,1.4899727 11.101062,3.9922156e-8 7.9925128,3.9922156e-8 Z M 7.9925128,1 c 2.7890042,0 5.2729692,1.3262728 6.4023432,3.5351563 0.234479,0.4629858 0.610981,1.1271791 0.597657,2.2753902 v 0.00586 0.00391 c -0.0021,1.007802 -0.405314,1.506619 -1.404297,2.089844 l -0.0039,0.00195 -0.002,0.00195 c -0.417661,0.248011 -0.89609,0.379348 -1.382812,0.380859 -0.0022,0 -0.401625,0.01771 -0.857422,-0.03125 -0.336243,-0.03612 -0.614107,-0.145315 -0.863281,-0.24414 0.238513,-0.472518 0.492368,-0.953994 0.474609,-1.46875 l -0.0039,-0.089842 -0.01953,-0.087891 C 10.83939,6.9579065 10.660764,6.5637495 10.402669,6.21875 9.838744,5.4632624 8.9527698,5.0147585 8.0100909,5.0058594 7.3107795,4.9947105 6.7701813,5.2694087 6.5999346,5.3496094 L 6.5725909,5.3613281 6.5472002,5.375 C 5.6054072,5.8874826 5.0099742,6.8731585 4.9983721,7.9472655 v 0.00586 0.00586 c 0,3.2680255 3.063121,5.8847665 6.5332029,5.8847665 h 0.002 0.0039 c 0.0546,-2.68e-4 0.127088,-0.02032 0.183594,-0.02148 -0.462516,0.29576 -0.915912,0.609371 -1.441406,0.791016 l -0.07227,0.02344 c -0.0051,0.0016 -0.01415,0.0042 -0.01953,0.0059 -3.3689831,1.108974 -7.0163341,-0.456662 -8.523437,-3.669922 v -0.002 C 1.218272,10.009862 0.99084596,8.9627165 1.000325,7.9042965 v -0.00586 -0.00391 c 0,-0.07786 0.0068,-0.15652 0.013672,-0.234375 C 1.193143,3.9386915 4.2349909,0.99962864 7.9925128,1 Z" />
</svg>
