<?xml version="1.0" encoding="UTF-8" standalone="no"?>
<!-- Created with Inkscape (http://www.inkscape.org/) -->

<svg
   width="16"
   height="16"
   viewBox="0 0 4.2333333 4.2333333"
   version="1.1"
   id="svg5"
   inkscape:version="1.2 (dc2aedaf03, 2022-05-15)"
   sodipodi:docname="mintinstall.svg"
   xmlns:inkscape="http://www.inkscape.org/namespaces/inkscape"
   xmlns:sodipodi="http://sodipodi.sourceforge.net/DTD/sodipodi-0.dtd"
   xmlns="http://www.w3.org/2000/svg"
   xmlns:svg="http://www.w3.org/2000/svg">
  <sodipodi:namedview
     id="namedview7"
     pagecolor="#ffffff"
     bordercolor="#666666"
     borderopacity="1.0"
     inkscape:pageshadow="2"
     inkscape:pageopacity="0.0"
     inkscape:pagecheckerboard="0"
     inkscape:document-units="px"
     showgrid="false"
     units="px"
     height="48px"
     inkscape:zoom="25.03125"
     inkscape:cx="1.5181024"
     inkscape:cy="11.945069"
     inkscape:window-width="1846"
     inkscape:window-height="1011"
     inkscape:window-x="0"
     inkscape:window-y="0"
     inkscape:window-maximized="1"
     inkscape:current-layer="svg5"
     inkscape:showpageshadow="2"
     inkscape:deskcolor="#d1d1d1" />
  <defs
     id="defs2" />
  <rect
     style="opacity:1;fill:#396247;fill-opacity:1;stroke-width:0.264583"
     id="rect1162"
     width="3.7041667"
     height="3.7041667"
     x="0.26458332"
     y="0.26458332"
     ry="0.66145831" />
  <rect
     style="opacity:1;fill:#73c48f;fill-opacity:1;stroke-width:0.529167;stroke-linecap:round;stroke-linejoin:round"
     id="rect5046"
     width="3.175"
     height="3.175"
     x="0.52916664"
     y="0.52916664"
     ry="0.52916664" />
  <path
     id="path939"
     style="color:#000000;text-indent:0;text-decoration-line:none;text-transform:none;fill:#ffffff;stroke-width:0.500001"
     d="M 10.193359 3 C 10.065219 3.0008051 9.9346107 3.0137115 9.8066406 3.046875 C 8.8741408 3.2898749 8.3155939 4.2375623 8.5585938 5.1640625 C 8.6118738 5.3519731 8.6963871 5.5295814 8.8085938 5.6894531 C 8.7550945 5.6984484 7.9960938 6.9882812 7.9960938 6.9882812 L 9.7011719 6.9980469 L 10.103516 6.4414062 C 10.293516 6.456411 10.4925 6.4503862 10.6875 6.4003906 C 11.62 6.1573897 12.179047 5.2097033 11.935547 4.2832031 C 11.885049 4.0897027 11.791548 3.9148118 11.685547 3.7578125 L 11.005859 4.9101562 C 10.867226 5.1470646 10.562283 5.225935 10.326172 5.0859375 L 9.8886719 4.8320312 C 9.6516777 4.6963114 9.5723954 4.3924034 9.7128906 4.1582031 L 10.392578 3.0058594 C 10.345077 3.0018606 10.296561 3.0009978 10.248047 3 C 10.229854 2.999625 10.211665 2.999885 10.193359 3 z M 5.5429688 3.2050781 C 5.537753 3.2050281 5.5323705 3.2059813 5.5273438 3.2070312 C 5.4147176 3.2329324 5.3048339 3.2695363 5.1992188 3.3164062 C 5.1912062 3.6284063 5.2430931 4.0355782 5.1210938 4.1425781 C 5.0020953 4.2485788 4.6039221 4.1619015 4.2949219 4.1289062 C 4.2289729 4.2476666 4.1765579 4.3734559 4.1386719 4.5039062 C 4.3786719 4.7019081 4.7087971 4.9240311 4.7167969 5.0820312 C 4.7248095 5.24203 4.4025481 5.4840316 4.1855469 5.7070312 C 4.2355462 5.8360303 4.3106738 5.9534059 4.3886719 6.0664062 C 4.6926706 6.0024075 5.0702189 5.8796043 5.1992188 5.9726562 C 5.3312188 6.0666569 5.3320966 6.4751564 5.3710938 6.7851562 C 5.4960941 6.8231556 5.6277198 6.8366578 5.7617188 6.8476562 C 5.90172 6.5696569 6.0432673 6.1865783 6.1972656 6.1425781 C 6.355265 6.0985769 6.6792657 6.3741578 6.9472656 6.5351562 C 7.054865 6.4567575 7.153739 6.3670704 7.2421875 6.2675781 C 7.1151878 5.9815775 6.8832669 5.6236563 6.9472656 5.4726562 C 7.0102666 5.320655 7.4335626 5.2379078 7.7265625 5.1289062 C 7.7285622 5.0919047 7.7421875 5.0556077 7.7421875 5.0175781 C 7.7421875 4.9225797 7.7258922 4.8282794 7.7128906 4.7382812 C 7.4098836 4.6572663 6.9793903 4.6176563 6.9003906 4.4726562 C 6.8223906 4.3286562 7.0191878 3.9405778 7.1171875 3.6425781 C 7.0172477 3.5534781 6.9078726 3.4755262 6.7910156 3.4101562 C 6.5410157 3.5981563 6.2498436 3.9069061 6.0898438 3.8789062 C 5.9308436 3.8509064 5.7588438 3.4690312 5.5898438 3.2070312 C 5.574839 3.2090312 5.5585442 3.2050781 5.5429688 3.2050781 z M 5.8398438 4.1445312 C 6.9899056 4.1192315 6.9879378 5.8580481 5.8378906 5.8300781 C 4.7399537 5.803378 4.7418007 4.1687013 5.8398438 4.1445312 z M 3.0019531 7.9863281 L 3 11.986328 C 3 12.556328 3.460047 12.986328 3.9980469 12.986328 L 6.4667969 12.986328 C 5.8310554 12.956047 5.8417976 11.986328 6.4980469 11.986328 L 7.9980469 11.986328 L 5.9980469 9.4863281 L 6.9980469 9.4863281 L 6.9980469 7.9863281 L 3.0019531 7.9863281 z M 7.9980469 11.986328 L 9.4980469 11.986328 C 10.154296 11.986328 10.165038 12.956047 9.5292969 12.986328 L 11.990234 12.986328 C 12.513234 12.986328 12.984375 12.541828 12.984375 12.048828 L 12.986328 7.9863281 L 8.9980469 7.9863281 L 8.9980469 9.4863281 L 9.9980469 9.4863281 L 7.9980469 11.986328 z "
     transform="scale(0.26458333)" />
</svg>
