<?xml version="1.0" encoding="UTF-8" standalone="no"?>
<!-- Created with Inkscape (http://www.inkscape.org/) -->

<svg
   width="16"
   height="16"
   viewBox="0 0 4.2333333 4.2333335"
   version="1.1"
   id="svg5"
   inkscape:version="1.2 (dc2aedaf03, 2022-05-15)"
   sodipodi:docname="multimedia-photo-viewer.svg"
   xmlns:inkscape="http://www.inkscape.org/namespaces/inkscape"
   xmlns:sodipodi="http://sodipodi.sourceforge.net/DTD/sodipodi-0.dtd"
   xmlns="http://www.w3.org/2000/svg"
   xmlns:svg="http://www.w3.org/2000/svg">
  <sodipodi:namedview
     id="namedview7"
     pagecolor="#ffffff"
     bordercolor="#666666"
     borderopacity="1.0"
     inkscape:pageshadow="2"
     inkscape:pageopacity="0.0"
     inkscape:pagecheckerboard="0"
     inkscape:document-units="px"
     showgrid="false"
     units="px"
     width="24px"
     inkscape:zoom="50.0625"
     inkscape:cx="0.77902622"
     inkscape:cy="9.1985019"
     inkscape:window-width="1920"
     inkscape:window-height="1014"
     inkscape:window-x="0"
     inkscape:window-y="0"
     inkscape:window-maximized="1"
     inkscape:current-layer="svg5"
     inkscape:showpageshadow="2"
     inkscape:deskcolor="#d1d1d1" />
  <defs
     id="defs2" />
  <path
     d="M 1.8520833,1.3229167 1.5875,1.5875001 H 1.190625 c -0.07329,0 -0.1322917,0.059002 -0.1322917,0.1322916 v 1.0583334 c 0,0.07329 0.059002,0.1322917 0.1322917,0.1322917 h 1.5875 c 0.07329,0 0.1322917,-0.059002 0.1322917,-0.1322917 V 1.7197917 c 0,-0.07329 -0.059002,-0.1322916 -0.1322917,-0.1322916 H 2.38125 L 2.1166667,1.3229167 Z M 1.984375,1.8520834 c 0.2191888,0 0.396875,0.1776942 0.396875,0.396875 0,0.2191808 -0.1776862,0.396875 -0.396875,0.396875 -0.2191861,0 -0.396875,-0.1776942 -0.396875,-0.396875 0,-0.2191808 0.1776889,-0.396875 0.396875,-0.396875 z"
     style="display:inline;vector-effect:none;fill:#1c8d9b;fill-opacity:1;stroke:none;stroke-width:0.264583;stroke-linecap:square;stroke-opacity:1;enable-background:new"
     id="path25645"
     sodipodi:nodetypes="ccsssssssscccsssss" />
  <rect
     style="fill:#245c63;fill-opacity:1;stroke-width:0.264583"
     id="rect1052"
     width="4.2333336"
     height="3.7041667"
     x="0"
     y="0.26458335"
     ry="1.0583334" />
  <rect
     style="opacity:1;fill:#48b9c7;fill-opacity:1;stroke-width:0.264583"
     id="rect1190"
     width="3.7041667"
     height="3.175"
     x="0.26458335"
     y="0.5291667"
     ry="0.92604166" />
  <rect
     style="fill:#fbfefe;fill-opacity:1;stroke-width:0.264583"
     id="rect1156"
     width="2.6458335"
     height="2.1166668"
     x="0.79374999"
     y="1.0583334"
     ry="0.26458335" />
  <path
     d="m 1.0583333,1.3229167 v 1.0583334 l 0.3968751,-0.396875 0.396875,0.396875 0.6614584,-0.6614584 0.6614583,0.6614584 V 1.3229167 Z"
     style="opacity:0.5;fill:#1c8d9b;stroke-width:0.264583"
     id="path23893" />
  <path
     d="M 2.1166668,1.8520834 3.1750001,2.9104168 H 1.0583333 Z"
     style="fill:#1c8d9b;stroke-width:0.264583"
     id="path23921" />
  <rect
     style="fill:#671d00;fill-opacity:1;stroke-width:0.264583"
     id="rect8487"
     width="2.9104166"
     height="2.6458335"
     x="1.3229167"
     y="1.5875"
     ry="0.39687499" />
  <rect
     style="fill:#cf3b00;fill-opacity:1;stroke-width:0.264583"
     id="rect10253"
     width="2.3812501"
     height="2.1166668"
     x="1.5875001"
     y="1.8520834"
     ry="0.26458335" />
  <path
     d="M 2.7781465,2.2489584 C 2.3289713,2.2497521 1.9189473,2.5064165 1.7198131,2.9117396 1.9196842,3.3160362 2.3295584,3.5716951 2.7781465,3.571875 3.2273216,3.5710813 3.6373456,3.3144169 3.8364798,2.9090938 3.6366088,2.5047972 3.2267345,2.2491383 2.7781465,2.2489584 Z m 0,0.1322916 c 0.2922505,0 0.5291666,0.2369159 0.5291666,0.5291667 0,0.2922508 -0.2369161,0.5291667 -0.5291666,0.5291667 -0.2922506,0 -0.5291667,-0.2369159 -0.5291667,-0.5291667 0,-0.2922508 0.2369161,-0.5291667 0.5291667,-0.5291667 z m 0,0.2645834 c -0.1461254,0 -0.2645834,0.1184566 -0.2645834,0.2645833 0,0.1461241 0.118458,0.2645833 0.2645834,0.2645833 0.1461254,0 0.2645833,-0.1184592 0.2645833,-0.2645833 0,-0.1461267 -0.1184579,-0.2645833 -0.2645833,-0.2645833 z"
     style="fill:#ffffff;stroke-width:0.264583"
     id="path12753" />
</svg>
