<?xml version="1.0" encoding="UTF-8" standalone="no"?>
<!-- Created with Inkscape (http://www.inkscape.org/) -->

<svg
   width="16"
   height="16"
   viewBox="0 0 4.2333333 4.2333333"
   version="1.1"
   id="svg5"
   inkscape:version="1.2 (dc2aedaf03, 2022-05-15)"
   sodipodi:docname="org.gnome.Software.Devel.svg"
   xmlns:inkscape="http://www.inkscape.org/namespaces/inkscape"
   xmlns:sodipodi="http://sodipodi.sourceforge.net/DTD/sodipodi-0.dtd"
   xmlns="http://www.w3.org/2000/svg"
   xmlns:svg="http://www.w3.org/2000/svg">
  <sodipodi:namedview
     id="namedview7"
     pagecolor="#ffffff"
     bordercolor="#666666"
     borderopacity="1.0"
     inkscape:pageshadow="2"
     inkscape:pageopacity="0.0"
     inkscape:pagecheckerboard="0"
     inkscape:document-units="px"
     showgrid="false"
     units="px"
     height="48px"
     inkscape:zoom="51.0625"
     inkscape:cx="7.9902081"
     inkscape:cy="8"
     inkscape:window-width="1846"
     inkscape:window-height="1011"
     inkscape:window-x="74"
     inkscape:window-y="32"
     inkscape:window-maximized="1"
     inkscape:current-layer="svg5"
     inkscape:showpageshadow="2"
     inkscape:deskcolor="#d1d1d1"
     showguides="false" />
  <defs
     id="defs2" />
  <rect
     style="opacity:1;fill:#cdcdcd;fill-opacity:1;stroke-width:0.264583"
     id="rect1162"
     width="3.7041667"
     height="3.7041667"
     x="0.26458332"
     y="0.26458332"
     ry="0.52916664" />
  <path
     id="rect4459"
     style="opacity:0.5;fill:#000000;stroke-width:0.529167;stroke-linejoin:round"
     d="M 0.79374999 0.26458333 C 0.50059197 0.26458333 0.26458333 0.50059197 0.26458333 0.79374999 L 0.26458333 3.4395833 C 0.26458333 3.7327413 0.50059197 3.96875 0.79374999 3.96875 L 3.4395833 3.96875 C 3.7327413 3.96875 3.96875 3.7327413 3.96875 3.4395833 L 3.96875 0.79374999 C 3.96875 0.50059197 3.7327413 0.26458333 3.4395833 0.26458333 L 0.79374999 0.26458333 z M 0.79374999 0.52916666 L 3.4395833 0.52916666 C 3.5861623 0.52916666 3.7041666 0.64717098 3.7041666 0.79374999 L 3.7041666 3.4395833 C 3.7041666 3.5861623 3.5861623 3.7041666 3.4395833 3.7041666 L 0.79374999 3.7041666 C 0.64717098 3.7041666 0.52916666 3.5861623 0.52916666 3.4395833 L 0.52916666 0.79374999 C 0.52916666 0.64717098 0.64717098 0.52916666 0.79374999 0.52916666 z " />
  <rect
     style="opacity:1;fill:#424242;fill-opacity:1;stroke-width:0.529167;stroke-linejoin:round"
     id="rect4983"
     width="2.6458333"
     height="2.6458333"
     x="0.79374999"
     y="0.79374999" />
  <path
     id="rect4333"
     style="fill:#94a6ff;fill-opacity:1;stroke-width:0.611029;stroke-linejoin:round"
     d="M 1.0583333,1.0583333 V 1.3229166 H 3.175 V 1.0583333 Z m 0,0.5291666 V 1.8520832 H 2.1166665 V 1.5874999 Z"
     sodipodi:nodetypes="cccccccccc" />
  <path
     id="rect7993"
     style="fill:#cf3b00;fill-opacity:1;stroke-width:0.529167;stroke-linejoin:round"
     d="M 1.0583333,2.6458332 V 2.9104165 H 1.5875 V 2.6458332 Z"
     sodipodi:nodetypes="ccccc" />
  <path
     id="rect10265"
     style="fill:#7851c2;fill-opacity:1;stroke-width:0.529167;stroke-linejoin:round"
     d="M 1.0583333,2.1166666 V 2.3812499 H 1.5875 V 2.1166666 Z"
     sodipodi:nodetypes="ccccc" />
  <path
     id="rect16549"
     style="fill:#73c48f;fill-opacity:1;stroke-width:0.529167;stroke-linejoin:round"
     d="M 1.8520834,2.6458332 V 2.9104166 H 2.9104166 V 2.6458332 Z"
     sodipodi:nodetypes="ccccc" />
  <path
     id="rect18497"
     style="fill:#b84acb;fill-opacity:1;stroke-width:0.529167;stroke-linejoin:round"
     d="M 1.8520833,2.1166665 V 2.3812498 H 3.1749999 V 2.1166665 Z"
     sodipodi:nodetypes="ccccc" />
</svg>
