<?xml version="1.0" encoding="UTF-8" standalone="no"?>
<!-- Created with Inkscape (http://www.inkscape.org/) -->

<svg
   width="16"
   height="16"
   viewBox="0 0 4.2333333 4.2333333"
   version="1.1"
   id="svg5"
   inkscape:version="1.2 (dc2aedaf03, 2022-05-15)"
   sodipodi:docname="password-manager.svg"
   xmlns:inkscape="http://www.inkscape.org/namespaces/inkscape"
   xmlns:sodipodi="http://sodipodi.sourceforge.net/DTD/sodipodi-0.dtd"
   xmlns="http://www.w3.org/2000/svg"
   xmlns:svg="http://www.w3.org/2000/svg">
  <sodipodi:namedview
     id="namedview7"
     pagecolor="#ffffff"
     bordercolor="#666666"
     borderopacity="1.0"
     inkscape:pageshadow="2"
     inkscape:pageopacity="0.0"
     inkscape:pagecheckerboard="0"
     inkscape:document-units="px"
     showgrid="false"
     units="px"
     height="48px"
     inkscape:zoom="35.399533"
     inkscape:cx="2.6695267"
     inkscape:cy="9.8730115"
     inkscape:window-width="1846"
     inkscape:window-height="1011"
     inkscape:window-x="0"
     inkscape:window-y="0"
     inkscape:window-maximized="1"
     inkscape:current-layer="svg5"
     inkscape:showpageshadow="2"
     inkscape:deskcolor="#d1d1d1" />
  <defs
     id="defs2" />
  <rect
     style="opacity:1;fill:#444444;fill-opacity:1;stroke-width:0.264583"
     id="rect1162"
     width="3.7041667"
     height="3.7041667"
     x="0.26458332"
     y="0.26458332"
     ry="0.52916664" />
  <path
     id="rect4459"
     style="opacity:0.5;fill:#ffffff;stroke-width:0.529167;stroke-linejoin:round"
     d="M 0.79374999 0.26458333 C 0.50059197 0.26458333 0.26458333 0.50059197 0.26458333 0.79374999 L 0.26458333 3.4395833 C 0.26458333 3.7327413 0.50059197 3.96875 0.79374999 3.96875 L 3.4395833 3.96875 C 3.7327413 3.96875 3.96875 3.7327413 3.96875 3.4395833 L 3.96875 0.79374999 C 3.96875 0.50059197 3.7327413 0.26458333 3.4395833 0.26458333 L 0.79374999 0.26458333 z M 0.79374999 0.52916666 L 3.4395833 0.52916666 C 3.5861623 0.52916666 3.7041666 0.64717098 3.7041666 0.79374999 L 3.7041666 3.4395833 C 3.7041666 3.5861623 3.5861623 3.7041666 3.4395833 3.7041666 L 0.79374999 3.7041666 C 0.64717098 3.7041666 0.52916666 3.5861623 0.52916666 3.4395833 L 0.52916666 0.79374999 C 0.52916666 0.64717098 0.64717098 0.52916666 0.79374999 0.52916666 z " />
  <rect
     style="opacity:1;fill:#cdcdcd;fill-opacity:1;stroke-width:0.529167;stroke-linejoin:round"
     id="rect4983"
     width="2.6458333"
     height="2.6458333"
     x="0.79374999"
     y="0.79374999"
     ry="0.26458332" />
  <path
     d="M 2.9176506,0.93486909 C 2.8238611,0.93233699 2.7318758,0.97989059 2.6814894,1.0671608 L 2.3812492,1.5875432 h -5.16e-4 C 2.2017737,1.5882153 2.0366472,1.6889843 1.947168,1.8521266 H 1.3229167 c -0.1465789,0 -0.2645834,0.1180041 -0.2645834,0.2645833 0,0.1465792 0.1180045,0.2645833 0.2645834,0.2645833 H 1.947168 C 2.03674,2.5446031 2.2021057,2.6453975 2.38125,2.6458766 l 0.2997232,0.518832 c 0.07329,0.1269418 0.2342771,0.1704393 0.3612184,0.09715 0.126941,-0.073287 0.1699244,-0.2347912 0.096635,-0.361733 L 2.8267009,2.3595895 C 2.8639958,2.2846222 2.8836662,2.2013331 2.8840618,2.1167099 2.8839829,2.0317816 2.8644858,1.9481208 2.8272176,1.8727958 L 3.1398601,1.3317441 C 3.2131494,1.2048049 3.1696496,1.0433006 3.0427083,0.97001099 3.0030393,0.94710609 2.9602829,0.93602269 2.9176514,0.93486909 Z"
     style="fill:#656565;fill-opacity:1;stroke-width:0.264583"
     id="path970" />
</svg>
