<?xml version="1.0" encoding="UTF-8" standalone="no"?>
<!-- Created with Inkscape (http://www.inkscape.org/) -->

<svg
   width="16"
   height="16"
   viewBox="0 0 4.2333333 4.2333333"
   version="1.1"
   id="svg5"
   inkscape:version="1.2 (dc2aedaf03, 2022-05-15)"
   sodipodi:docname="preferences-desktop-keyboard.svg"
   xmlns:inkscape="http://www.inkscape.org/namespaces/inkscape"
   xmlns:sodipodi="http://sodipodi.sourceforge.net/DTD/sodipodi-0.dtd"
   xmlns="http://www.w3.org/2000/svg"
   xmlns:svg="http://www.w3.org/2000/svg">
  <sodipodi:namedview
     id="namedview7"
     pagecolor="#ffffff"
     bordercolor="#666666"
     borderopacity="1.0"
     inkscape:pageshadow="2"
     inkscape:pageopacity="0.0"
     inkscape:pagecheckerboard="0"
     inkscape:document-units="px"
     showgrid="false"
     units="px"
     height="48px"
     inkscape:zoom="50.875"
     inkscape:cx="8"
     inkscape:cy="8"
     inkscape:window-width="1846"
     inkscape:window-height="1011"
     inkscape:window-x="0"
     inkscape:window-y="0"
     inkscape:window-maximized="1"
     inkscape:current-layer="svg5"
     inkscape:showpageshadow="2"
     inkscape:deskcolor="#d1d1d1" />
  <defs
     id="defs2" />
  <rect
     style="opacity:1;fill:#4f4b49;fill-opacity:1;stroke-width:0.264583"
     id="rect1162"
     width="3.7041667"
     height="3.7041667"
     x="0.26458332"
     y="0.26458332"
     ry="0.66145831" />
  <rect
     style="opacity:1;fill:#d1cdcb;stroke-width:0.529167;stroke-linejoin:round;fill-opacity:1"
     id="rect1556"
     width="3.175"
     height="3.175"
     x="0.52916664"
     y="0.52916664"
     ry="0.52916664" />
  <rect
     style="opacity:1;fill:#fdfbfb;fill-opacity:1;stroke-width:0.529167;stroke-linejoin:round"
     id="rect8298"
     width="2.3812499"
     height="1.5875"
     x="0.92604166"
     y="1.190625" />
  <path
     id="rect4881"
     style="opacity:1;fill:#2b2928;fill-opacity:1;stroke-width:0.529167;stroke-linejoin:round"
     d="M 1.0583333 1.0583333 C 0.91175431 1.0583333 0.79374999 1.1763376 0.79374999 1.3229167 L 0.79374999 2.6458333 C 0.79374999 2.7924123 0.91175431 2.9104166 1.0583333 2.9104166 L 3.175 2.9104166 C 3.321579 2.9104166 3.4395833 2.7924123 3.4395833 2.6458333 L 3.4395833 1.3229167 C 3.4395833 1.1763376 3.321579 1.0583333 3.175 1.0583333 L 1.0583333 1.0583333 z M 1.0583333 1.3229167 L 1.5875 1.3229167 L 1.5875 1.8520833 L 1.0583333 1.8520833 L 1.0583333 1.3229167 z M 1.8520833 1.3229167 L 2.38125 1.3229167 L 2.38125 1.8520833 L 1.8520833 1.8520833 L 1.8520833 1.3229167 z M 2.6458333 1.3229167 L 3.175 1.3229167 L 3.175 1.8520833 L 2.6458333 1.8520833 L 2.6458333 1.3229167 z M 1.0583333 2.1166667 L 3.175 2.1166667 L 3.175 2.6458333 L 1.0583333 2.6458333 L 1.0583333 2.1166667 z " />
</svg>
