<?xml version="1.0" encoding="UTF-8" standalone="no"?>
<!-- Created with Inkscape (http://www.inkscape.org/) -->

<svg
   width="16"
   height="16"
   viewBox="0 0 4.2333333 4.2333333"
   version="1.1"
   id="svg5"
   inkscape:version="1.2 (dc2aedaf03, 2022-05-15)"
   sodipodi:docname="preferences-desktop-online-accounts.svg"
   xmlns:inkscape="http://www.inkscape.org/namespaces/inkscape"
   xmlns:sodipodi="http://sodipodi.sourceforge.net/DTD/sodipodi-0.dtd"
   xmlns="http://www.w3.org/2000/svg"
   xmlns:svg="http://www.w3.org/2000/svg">
  <sodipodi:namedview
     id="namedview7"
     pagecolor="#ffffff"
     bordercolor="#666666"
     borderopacity="1.0"
     inkscape:pageshadow="2"
     inkscape:pageopacity="0.0"
     inkscape:pagecheckerboard="0"
     inkscape:document-units="px"
     showgrid="false"
     units="px"
     height="48px"
     inkscape:zoom="35.399533"
     inkscape:cx="-0.81921985"
     inkscape:cy="11.271335"
     inkscape:window-width="1920"
     inkscape:window-height="1016"
     inkscape:window-x="0"
     inkscape:window-y="0"
     inkscape:window-maximized="1"
     inkscape:current-layer="svg5"
     inkscape:showpageshadow="2"
     inkscape:deskcolor="#d1d1d1" />
  <defs
     id="defs2" />
  <rect
     style="opacity:1;fill:#48b9c7;fill-opacity:1;stroke-width:0.264583"
     id="rect1162"
     width="3.7041667"
     height="3.7041667"
     x="0.26458332"
     y="0.26458332"
     ry="0.66145831" />
  <path
     d="m 2.1166666,1.0583335 c 0.5845009,0 1.0583329,0.473832 1.0583329,1.0583333 v 0.1322917 c -1.11e-4,0.3702494 -0.462311,0.5386874 -0.700616,0.2553225 -0.09709,0.09066 -0.2248819,0.1412309 -0.3577169,0.1415529 -0.4714698,0 -0.7074974,-0.5699862 -0.3741582,-0.9033254 0.3333392,-0.3333392 0.9033251,-0.097312 0.9033251,0.3741583 v 0.1322917 c 0,0.1763885 0.264583,0.1763885 0.264583,0 V 2.1166668 C 2.9104165,1.409462 2.055438,1.0554206 1.5554292,1.5554293 1.0554205,2.0554381 1.4094619,2.9104169 2.1166666,2.9104169 h 0.6614579 c 0,0 0.132292,0 0.132292,0.132291 -0.0082,0.132292 -0.132292,0.132292 -0.132292,0.132292 H 2.1166666 c -1.41111035,0 -1.41111035,-2.1166664 0,-2.1166664 z m 0,0.79375 c -0.3527775,0 -0.3527775,0.5291667 0,0.5291667 0.3527779,0 0.3527779,-0.5291667 0,-0.5291667 z"
     style="fill:#ffffff;stroke-width:0.264583"
     id="path3853" />
  <path
     id="rect1014"
     style="opacity:0.5;fill:#000000;stroke-width:0.999999"
     d="M 3.5 1 C 2.115 1 1 2.115 1 3.5 L 1 12.5 C 1 13.885 2.115 15 3.5 15 L 12.5 15 C 13.885 15 15 13.885 15 12.5 L 15 3.5 C 15 2.115 13.885 1 12.5 1 L 3.5 1 z M 4 2 L 12 2 C 13.108 2 14 2.892 14 4 L 14 12 C 14 13.108 13.108 14 12 14 L 4 14 C 2.892 14 2 13.108 2 12 L 2 4 C 2 2.892 2.892 2 4 2 z "
     transform="scale(0.26458333)" />
</svg>
