<?xml version="1.0" encoding="UTF-8" standalone="no"?>
<!-- Created with Inkscape (http://www.inkscape.org/) -->

<svg
   width="16"
   height="16"
   viewBox="0 0 4.2333333 4.2333333"
   version="1.1"
   id="svg5"
   inkscape:version="1.2 (dc2aedaf03, 2022-05-15)"
   sodipodi:docname="preferences-desktop-color.svg"
   xmlns:inkscape="http://www.inkscape.org/namespaces/inkscape"
   xmlns:sodipodi="http://sodipodi.sourceforge.net/DTD/sodipodi-0.dtd"
   xmlns="http://www.w3.org/2000/svg"
   xmlns:svg="http://www.w3.org/2000/svg">
  <sodipodi:namedview
     id="namedview7"
     pagecolor="#ffffff"
     bordercolor="#666666"
     borderopacity="1.0"
     inkscape:pageshadow="2"
     inkscape:pageopacity="0.0"
     inkscape:pagecheckerboard="0"
     inkscape:document-units="px"
     showgrid="false"
     units="px"
     height="48px"
     inkscape:zoom="51.4375"
     inkscape:cx="8"
     inkscape:cy="8"
     inkscape:window-width="1846"
     inkscape:window-height="1011"
     inkscape:window-x="0"
     inkscape:window-y="0"
     inkscape:window-maximized="1"
     inkscape:current-layer="svg5"
     inkscape:showpageshadow="2"
     inkscape:deskcolor="#d1d1d1" />
  <defs
     id="defs2" />
  <rect
     style="opacity:1;fill:#ededed;fill-opacity:1;stroke-width:0.264583"
     id="rect1162"
     width="3.7041667"
     height="3.7041667"
     x="0.26458332"
     y="0.26458332"
     ry="0.66145831" />
  <path
     id="rect1014"
     style="opacity:0.5;fill:#000000;stroke-width:0.999999"
     d="M 3.5 1 C 2.115 1 1 2.115 1 3.5 L 1 12.5 C 1 13.885 2.115 15 3.5 15 L 12.5 15 C 13.885 15 15 13.885 15 12.5 L 15 3.5 C 15 2.115 13.885 1 12.5 1 L 3.5 1 z M 4 2 L 12 2 C 13.108 2 14 2.892 14 4 L 14 12 C 14 13.108 13.108 14 12 14 L 4 14 C 2.892 14 2 13.108 2 12 L 2 4 C 2 2.892 2.892 2 4 2 z "
     transform="scale(0.26458333)" />
  <circle
     style="opacity:0.75;fill:#f15d22;fill-opacity:1;stroke-width:0.529167;stroke-linejoin:round"
     id="path4717"
     cx="1.7197917"
     cy="1.7197917"
     r="0.66145831" />
  <circle
     style="opacity:0.75;fill:#73c48f;fill-opacity:1;stroke-width:0.529167;stroke-linejoin:round"
     id="path6223"
     cx="2.5135417"
     cy="2.1166666"
     r="0.66145831" />
  <circle
     style="opacity:0.75;fill:#48b9c7;fill-opacity:1;stroke-width:0.529167;stroke-linejoin:round"
     id="path6537"
     cx="1.7197917"
     cy="2.5135417"
     r="0.66145831" />
  <path
     d="m 1.7197917,0.92604166 c -0.4375891,0 -0.79375004,0.35615564 -0.79375004,0.79375004 0,0.4375943 0.35616094,0.79375 0.79375004,0.79375 0.4375891,0 0.79375,-0.3561557 0.79375,-0.79375 0,-0.4375944 -0.3561609,-0.79375004 -0.79375,-0.79375004 z m 0,0.13229164 c 0.3660934,0 0.6614584,0.2953597 0.6614584,0.6614584 0,0.3660986 -0.295365,0.6614583 -0.6614584,0.6614583 -0.3660934,0 -0.6614584,-0.2953597 -0.6614584,-0.6614583 0,-0.3660987 0.295365,-0.6614584 0.6614584,-0.6614584 z"
     style="color:#000000;fill:#743c26;stroke-width:0.264583;stroke-linecap:square;-inkscape-stroke:none"
     id="path1063" />
  <path
     d="m 2.5135417,1.3229166 c -0.4375917,0 -0.79375,0.3561583 -0.79375,0.7937501 0,0.4375917 0.3561583,0.79375 0.79375,0.79375 0.4375917,0 0.79375,-0.3561583 0.79375,-0.79375 0,-0.4375918 -0.3561583,-0.7937501 -0.79375,-0.7937501 z m 0,0.1322917 c 0.366096,0 0.6614584,0.2953623 0.6614584,0.6614584 0,0.366096 -0.2953624,0.6614583 -0.6614584,0.6614583 -0.366096,0 -0.6614583,-0.2953623 -0.6614583,-0.6614583 0,-0.3660961 0.2953623,-0.6614584 0.6614583,-0.6614584 z"
     style="color:#000000;fill:#44634f;stroke-width:0.264583;stroke-linecap:square;-inkscape-stroke:none"
     id="path430" />
  <path
     d="m 1.7197917,1.7197917 c -0.4375918,0 -0.79375004,0.3561582 -0.79375004,0.79375 0,0.4375917 0.35615824,0.79375 0.79375004,0.79375 0.4375918,0 0.79375,-0.3561583 0.79375,-0.79375 0,-0.4375918 -0.3561582,-0.79375 -0.79375,-0.79375 z m 0,0.1322916 c 0.366096,0 0.6614584,0.2953623 0.6614584,0.6614584 0,0.366096 -0.2953624,0.6614583 -0.6614584,0.6614583 -0.366096,0 -0.6614584,-0.2953623 -0.6614584,-0.6614583 0,-0.3660961 0.2953624,-0.6614584 0.6614584,-0.6614584 z"
     style="color:#000000;fill:#345f64;stroke-width:0.264583;stroke-linecap:square;-inkscape-stroke:none"
     id="path1091" />
</svg>
