<?xml version="1.0" encoding="UTF-8" standalone="no"?>
<!-- Created with Inkscape (http://www.inkscape.org/) -->

<svg
   width="16"
   height="16"
   viewBox="0 0 4.2333333 4.2333333"
   version="1.1"
   id="svg5"
   inkscape:version="1.2 (dc2aedaf03, 2022-05-15)"
   sodipodi:docname="preferences-desktop-theme.svg"
   xmlns:inkscape="http://www.inkscape.org/namespaces/inkscape"
   xmlns:sodipodi="http://sodipodi.sourceforge.net/DTD/sodipodi-0.dtd"
   xmlns="http://www.w3.org/2000/svg"
   xmlns:svg="http://www.w3.org/2000/svg">
  <sodipodi:namedview
     id="namedview7"
     pagecolor="#ffffff"
     bordercolor="#666666"
     borderopacity="1.0"
     inkscape:pageshadow="2"
     inkscape:pageopacity="0.0"
     inkscape:pagecheckerboard="0"
     inkscape:document-units="px"
     showgrid="false"
     units="px"
     height="48px"
     inkscape:zoom="50.0625"
     inkscape:cx="1.3583021"
     inkscape:cy="8.019975"
     inkscape:window-width="1920"
     inkscape:window-height="1016"
     inkscape:window-x="0"
     inkscape:window-y="0"
     inkscape:window-maximized="1"
     inkscape:current-layer="svg5"
     inkscape:showpageshadow="2"
     inkscape:deskcolor="#d1d1d1" />
  <defs
     id="defs2" />
  <rect
     style="opacity:1;fill:#aa5abb;fill-opacity:1;stroke-width:0.264583"
     id="rect1162"
     width="3.7041667"
     height="3.7041667"
     x="0.26458332"
     y="0.26458332"
     ry="0.66145831" />
  <path
     id="rect1014"
     style="opacity:0.5;fill:#000000;stroke-width:0.999999"
     d="M 3.5 1 C 2.115 1 1 2.115 1 3.5 L 1 12.5 C 1 13.885 2.115 15 3.5 15 L 12.5 15 C 13.885 15 15 13.885 15 12.5 L 15 3.5 C 15 2.115 13.885 1 12.5 1 L 3.5 1 z M 4 2 L 12 2 C 13.108 2 14 2.892 14 4 L 14 12 C 14 13.108 13.108 14 12 14 L 4 14 C 2.892 14 2 13.108 2 12 L 2 4 C 2 2.892 2.892 2 4 2 z "
     transform="scale(0.26458333)" />
  <path
     d="M 3.3590766,0.79494053 C 3.1598724,0.76982978 2.6402256,1.126022 2.1280888,1.6383605 1.8997061,1.8668817 1.7014987,2.0927095 1.5496907,2.3057152 1.7276121,2.3624013 1.8710048,2.5056989 1.9276612,2.6836856 2.1405855,2.5318335 2.3669256,2.3344895 2.5953846,2.1060256 3.1764233,1.5247444 3.5427782,0.94889916 3.4137053,0.81967103 3.4004375,0.80630991 3.3823375,0.79792441 3.3590775,0.79494047 Z M 1.4551982,2.5570802 v 3.929e-4 c -0.66141253,0.1773045 -0.1653898,0.596139 -0.66144822,0.8821681 0.66141262,0 0.99217232,-0.3310687 0.99217232,-0.551822 0,-0.1100421 0.011217,-0.3124111 -0.3307241,-0.3307236 z"
     style="color:#444444;fill:#ffffff;stroke-width:0.188985"
     id="path347" />
</svg>
