<?xml version="1.0" encoding="UTF-8" standalone="no"?>
<!-- Created with Inkscape (http://www.inkscape.org/) -->

<svg
   width="16"
   height="16"
   viewBox="0 0 4.2333333 4.2333333"
   version="1.1"
   id="svg5"
   inkscape:version="1.2 (dc2aedaf03, 2022-05-15)"
   sodipodi:docname="preferences-desktop-emoticons.svg"
   xmlns:inkscape="http://www.inkscape.org/namespaces/inkscape"
   xmlns:sodipodi="http://sodipodi.sourceforge.net/DTD/sodipodi-0.dtd"
   xmlns="http://www.w3.org/2000/svg"
   xmlns:svg="http://www.w3.org/2000/svg">
  <sodipodi:namedview
     id="namedview7"
     pagecolor="#ffffff"
     bordercolor="#666666"
     borderopacity="1.0"
     inkscape:pageshadow="2"
     inkscape:pageopacity="0.0"
     inkscape:pagecheckerboard="0"
     inkscape:document-units="px"
     showgrid="false"
     units="px"
     height="48px"
     inkscape:zoom="50.875"
     inkscape:cx="8"
     inkscape:cy="8"
     inkscape:window-width="1846"
     inkscape:window-height="1011"
     inkscape:window-x="0"
     inkscape:window-y="0"
     inkscape:window-maximized="1"
     inkscape:current-layer="svg5"
     inkscape:showpageshadow="2"
     inkscape:deskcolor="#d1d1d1"
     showguides="false" />
  <defs
     id="defs2" />
  <circle
     style="fill:#7f6728;stroke-width:0.264583;fill-opacity:1"
     id="path934"
     cx="2.1166666"
     cy="2.1166666"
     r="2.1166666" />
  <circle
     style="fill:#ffce51;fill-opacity:1;stroke-width:0.132291"
     id="path4871"
     cx="2.1166663"
     cy="2.1166663"
     r="1.8520833" />
  <path
     d="m 1.3229167,1.3229167 c -0.1461253,0 -0.2645834,0.118458 -0.2645834,0.2645834 0,0.1461253 0.1184581,0.2645833 0.2645834,0.2645833 0.1461254,0 0.2645833,-0.118458 0.2645833,-0.2645833 0,-0.1461254 -0.1184579,-0.2645834 -0.2645833,-0.2645834 z m 1.5874999,0 c -0.1461252,0 -0.2645832,0.118458 -0.2645832,0.2645834 0,0.1461253 0.118458,0.2645833 0.2645832,0.2645833 0.1461253,0 0.2645833,-0.118458 0.2645833,-0.2645833 0,-0.1461254 -0.118458,-0.2645834 -0.2645833,-0.2645834 z"
     id="path548"
     style="fill:#7f6728;fill-opacity:1;stroke-width:0.0661455"
     sodipodi:nodetypes="ssssssssss" />
  <path
     id="path2673"
     style="fill:#7f6728;fill-opacity:1;stroke-width:0.132291"
     d="M 0.86041259 2.9104166 C 1.1665392 3.3569219 1.6256424 3.623109 2.1166667 3.6235514 C 2.6072265 3.6225382 3.0660992 3.3565734 3.3718872 2.9104166 L 3.0855997 2.9104166 C 2.8078395 3.1586833 2.4686756 3.2963968 2.1166667 3.2974731 C 1.7644509 3.2965971 1.4251589 3.1587847 1.1472168 2.9104166 L 0.86041259 2.9104166 z " />
</svg>
