<?xml version="1.0" encoding="UTF-8" standalone="no"?>
<!-- Created with Inkscape (http://www.inkscape.org/) -->

<svg
   width="16"
   height="16"
   viewBox="0 0 4.2333333 4.2333333"
   version="1.1"
   id="svg5"
   inkscape:version="1.1.2 (0a00cf5339, 2022-02-04, custom)"
   sodipodi:docname="preferences-system.svg"
   xmlns:inkscape="http://www.inkscape.org/namespaces/inkscape"
   xmlns:sodipodi="http://sodipodi.sourceforge.net/DTD/sodipodi-0.dtd"
   xmlns="http://www.w3.org/2000/svg"
   xmlns:svg="http://www.w3.org/2000/svg">
  <sodipodi:namedview
     id="namedview7"
     pagecolor="#ffffff"
     bordercolor="#666666"
     borderopacity="1.0"
     inkscape:pageshadow="2"
     inkscape:pageopacity="0.0"
     inkscape:pagecheckerboard="0"
     inkscape:document-units="px"
     showgrid="false"
     units="px"
     height="48px"
     inkscape:zoom="50.0625"
     inkscape:cx="8.019975"
     inkscape:cy="7.9900125"
     inkscape:window-width="1920"
     inkscape:window-height="1017"
     inkscape:window-x="0"
     inkscape:window-y="0"
     inkscape:window-maximized="1"
     inkscape:current-layer="svg5" />
  <defs
     id="defs2" />
  <rect
     style="opacity:1;fill:#cdcdcd;fill-opacity:1;stroke-width:0.264583"
     id="rect1162"
     width="3.7041667"
     height="3.7041667"
     x="0.26458332"
     y="0.26458332"
     ry="0.66145831" />
  <path
     d="m 1.8425583,1.0583333 -0.023283,0.2788708 c -0.088411,0.032628 -0.1706327,0.080047 -0.243152,0.1402292 L 1.3229166,1.3583708 1.0583333,1.8166291 1.2885208,1.9764375 c -0.00828,0.046291 -0.012615,0.093205 -0.012965,0.1402291 5.66e-5,0.047181 0.00413,0.094268 0.012171,0.1407583 L 1.0583333,2.4167041 1.3229166,2.8749624 1.5755937,2.7558999 c 0.072638,0.060021 0.154949,0.1072595 0.2434167,0.1397 l 0.023548,0.2794 H 2.3717249 L 2.3950083,2.8961291 C 2.4834191,2.8635007 2.565641,2.8160821 2.6381604,2.7558999 L 2.8913666,2.8749624 3.1559499,2.4167041 2.9257624,2.2568958 c 0.00828,-0.046292 0.012615,-0.093205 0.012965,-0.1402292 -5.66e-5,-0.047181 -0.00413,-0.094268 -0.012171,-0.1407583 L 3.1559499,1.8166291 2.8913666,1.3583708 2.6386895,1.4774333 c -0.072638,-0.060021 -0.154949,-0.1072594 -0.2434166,-0.1397 l -0.023548,-0.2794 z m 0.2645833,0.7559146 c 0.1670211,0 0.3024188,0.1353978 0.3024188,0.3024187 0,0.1670209 -0.1353977,0.3024188 -0.3024188,0.3024188 -0.1670211,0 -0.3024187,-0.1353979 -0.3024187,-0.3024188 0,-0.1670209 0.1353976,-0.3024187 0.3024187,-0.3024187 z"
     style="fill:#463e39;stroke-width:0.264583"
     id="path892" />
  <path
     id="rect1014"
     style="opacity:0.5;fill:#000000;stroke-width:0.999999"
     d="M 3.5 1 C 2.115 1 1 2.115 1 3.5 L 1 12.5 C 1 13.885 2.115 15 3.5 15 L 12.5 15 C 13.885 15 15 13.885 15 12.5 L 15 3.5 C 15 2.115 13.885 1 12.5 1 L 3.5 1 z M 4 2 L 12 2 C 13.108 2 14 2.892 14 4 L 14 12 C 14 13.108 13.108 14 12 14 L 4 14 C 2.892 14 2 13.108 2 12 L 2 4 C 2 2.892 2.892 2 4 2 z "
     transform="scale(0.26458333)" />
</svg>
