<?xml version="1.0" encoding="UTF-8" standalone="no"?>
<!-- Created with Inkscape (http://www.inkscape.org/) -->

<svg
   width="16"
   height="16"
   viewBox="0 0 4.2333333 4.2333333"
   version="1.1"
   id="svg5"
   inkscape:version="1.2 (dc2aedaf03, 2022-05-15)"
   sodipodi:docname="preferences-system-splash.svg"
   xmlns:inkscape="http://www.inkscape.org/namespaces/inkscape"
   xmlns:sodipodi="http://sodipodi.sourceforge.net/DTD/sodipodi-0.dtd"
   xmlns="http://www.w3.org/2000/svg"
   xmlns:svg="http://www.w3.org/2000/svg">
  <sodipodi:namedview
     id="namedview7"
     pagecolor="#ffffff"
     bordercolor="#666666"
     borderopacity="1.0"
     inkscape:pageshadow="2"
     inkscape:pageopacity="0.0"
     inkscape:pagecheckerboard="0"
     inkscape:document-units="px"
     showgrid="false"
     units="px"
     height="48px"
     inkscape:zoom="51.875"
     inkscape:cx="8"
     inkscape:cy="8.0289157"
     inkscape:window-width="1920"
     inkscape:window-height="1010"
     inkscape:window-x="0"
     inkscape:window-y="0"
     inkscape:window-maximized="1"
     inkscape:current-layer="svg5"
     inkscape:showpageshadow="2"
     inkscape:deskcolor="#d1d1d1"
     showguides="true" />
  <defs
     id="defs2" />
  <rect
     style="opacity:1;fill:#424242;fill-opacity:1;stroke-width:0.264583"
     id="rect1162"
     width="2.1166666"
     height="1.5875"
     x="1.0583333"
     y="2.3812499"
     ry="0.26458332" />
  <rect
     style="opacity:1;fill:#848484;fill-opacity:1;stroke-width:0.264583"
     id="rect3774"
     width="1.5875"
     height="1.3229166"
     x="1.3229166"
     y="2.3812499"
     ry="0.13229167" />
  <rect
     style="opacity:1;fill:#6f6f6f;fill-opacity:1;stroke-width:0.264583"
     id="rect2173"
     width="4.2333331"
     height="3.175"
     x="0"
     y="0.26458332"
     ry="0.26458332" />
  <rect
     style="opacity:1;fill:#acacac;fill-opacity:1;stroke-width:0.264583"
     id="rect2175"
     width="3.7041667"
     height="2.6458333"
     x="0.26458335"
     y="0.52916658"
     ry="0.13229166" />
  <rect
     style="fill:#464646;fill-opacity:1;stroke-width:0.383418"
     id="rect1437"
     width="3.175"
     height="1.8520833"
     x="0.52916658"
     y="0.79374993" />
  <path
     id="path513"
     style="opacity:0.3;fill:#ffffff;stroke-width:0.529167"
     d="M 2.1166667 0.79374999 A 0.79374999 0.79374999 0 0 0 1.3229167 1.5875 A 0.79374999 0.79374999 0 0 0 2.1166667 2.38125 A 0.79374999 0.79374999 0 0 0 2.9104166 1.5875 A 0.79374999 0.79374999 0 0 0 2.1166667 0.79374999 z M 2.1166667 1.0583333 A 0.52916664 0.52916664 0 0 1 2.6458333 1.5875 A 0.52916664 0.52916664 0 0 1 2.1166667 2.1166667 A 0.52916664 0.52916664 0 0 1 1.5875 1.5875 A 0.52916664 0.52916664 0 0 1 2.1166667 1.0583333 z " />
  <path
     id="path595"
     style="opacity:1;fill:#ffffff;stroke-width:0.529167"
     d="M 2.1166667 0.79374999 A 0.79374993 0.79374993 0 0 0 1.3229167 1.5875 A 0.79374993 0.79374993 0 0 0 2.1166667 2.38125 A 0.79374993 0.79374993 0 0 0 2.6778727 2.148706 L 2.490804 1.9616374 A 0.52916664 0.52916664 0 0 1 2.1166667 2.1166667 A 0.52916664 0.52916664 0 0 1 1.5875 1.5875 A 0.52916664 0.52916664 0 0 1 2.1166667 1.0583333 L 2.1166667 0.79374999 z " />
</svg>
