<?xml version="1.0" encoding="UTF-8" standalone="no"?>
<!-- Created with Inkscape (http://www.inkscape.org/) -->

<svg
   width="16"
   height="16"
   viewBox="0 0 4.2333333 4.2333333"
   version="1.1"
   id="svg5"
   inkscape:version="1.2 (dc2aedaf03, 2022-05-15)"
   sodipodi:docname="preferences-system-power.svg"
   xmlns:inkscape="http://www.inkscape.org/namespaces/inkscape"
   xmlns:sodipodi="http://sodipodi.sourceforge.net/DTD/sodipodi-0.dtd"
   xmlns="http://www.w3.org/2000/svg"
   xmlns:svg="http://www.w3.org/2000/svg">
  <sodipodi:namedview
     id="namedview7"
     pagecolor="#ffffff"
     bordercolor="#666666"
     borderopacity="1.0"
     inkscape:pageshadow="2"
     inkscape:pageopacity="0.0"
     inkscape:pagecheckerboard="0"
     inkscape:document-units="px"
     showgrid="false"
     units="px"
     height="48px"
     inkscape:zoom="50.0625"
     inkscape:cx="8.0299625"
     inkscape:cy="8.0099875"
     inkscape:window-width="1920"
     inkscape:window-height="1009"
     inkscape:window-x="0"
     inkscape:window-y="0"
     inkscape:window-maximized="1"
     inkscape:current-layer="svg5"
     inkscape:showpageshadow="2"
     inkscape:deskcolor="#d1d1d1" />
  <defs
     id="defs2" />
  <rect
     style="opacity:1;fill:#ffce51;fill-opacity:1;stroke-width:0.264583"
     id="rect1162"
     width="3.7041667"
     height="3.7041667"
     x="0.26458332"
     y="0.26458332"
     ry="0.66145831" />
  <path
     id="rect1014"
     style="opacity:0.5;fill:#000000;stroke-width:0.999999"
     d="M 3.5 1 C 2.115 1 1 2.115 1 3.5 L 1 12.5 C 1 13.885 2.115 15 3.5 15 L 12.5 15 C 13.885 15 15 13.885 15 12.5 L 15 3.5 C 15 2.115 13.885 1 12.5 1 L 3.5 1 z M 4 2 L 12 2 C 13.108 2 14 2.892 14 4 L 14 12 C 14 13.108 13.108 14 12 14 L 4 14 C 2.892 14 2 13.108 2 12 L 2 4 C 2 2.892 2.892 2 4 2 z "
     transform="scale(0.26458333)" />
  <path
     d="M 2.1166667,0.90752083 V 1.8523479 H 3.0239229 L 2.1166667,3.3266062 V 2.38125 H 1.2094105 Z"
     style="color:#000000;fill:#393634;stroke-width:0.264583"
     id="path908" />
</svg>
