<?xml version="1.0" encoding="UTF-8" standalone="no"?>
<!-- Created with Inkscape (http://www.inkscape.org/) -->

<svg
   width="16"
   height="16"
   viewBox="0 0 4.2333333 4.2333333"
   version="1.1"
   id="svg5"
   inkscape:version="1.2 (dc2aedaf03, 2022-05-15)"
   sodipodi:docname="qv4l2.svg"
   xmlns:inkscape="http://www.inkscape.org/namespaces/inkscape"
   xmlns:sodipodi="http://sodipodi.sourceforge.net/DTD/sodipodi-0.dtd"
   xmlns="http://www.w3.org/2000/svg"
   xmlns:svg="http://www.w3.org/2000/svg">
  <sodipodi:namedview
     id="namedview7"
     pagecolor="#ffffff"
     bordercolor="#666666"
     borderopacity="1.0"
     inkscape:pageshadow="2"
     inkscape:pageopacity="0.0"
     inkscape:pagecheckerboard="0"
     inkscape:document-units="px"
     showgrid="false"
     units="px"
     height="48px"
     inkscape:zoom="49.875"
     inkscape:cx="8"
     inkscape:cy="8"
     inkscape:window-width="1920"
     inkscape:window-height="1009"
     inkscape:window-x="0"
     inkscape:window-y="0"
     inkscape:window-maximized="1"
     inkscape:current-layer="svg5"
     inkscape:showpageshadow="2"
     inkscape:deskcolor="#d1d1d1" />
  <defs
     id="defs2" />
  <circle
     style="fill:#e6e6e6;stroke-width:0.264583;fill-opacity:1"
     id="path934"
     cx="2.1166666"
     cy="2.1166666"
     r="2.1166666" />
  <circle
     style="fill:#ac1800;fill-opacity:1;stroke-width:0.108436"
     id="path10609"
     cx="2.1166666"
     cy="2.1166666"
     r="1.3229166" />
  <circle
     style="fill:#cf3b00;fill-opacity:1;stroke-width:0.0814096"
     id="path12167"
     cx="2.1166666"
     cy="2.1166666"
     r="1.0583333" />
  <circle
     style="opacity:0.25;fill:#ffffff;fill-opacity:1;stroke-width:0.066146"
     id="path13933"
     cx="2.1166661"
     cy="2.1166666"
     r="0.52916664" />
  <path
     id="path13989"
     style="opacity:0.25;fill:#ffffff;fill-opacity:1;stroke-width:0.066146"
     d="M 1.742787,1.7427872 A 0.52916665,0.52916665 0 0 0 1.5874993,2.1166662 0.52916665,0.52916665 0 0 0 2.116666,2.6458328 0.52916665,0.52916665 0 0 0 2.4905451,2.490545 Z" />
  <path
     id="path13994"
     style="opacity:0.25;fill:#ffffff;fill-opacity:1;stroke-width:0.066146"
     d="M 2.4908033,1.7425288 1.742787,2.490545 A 0.52916658,0.52916658 0 0 0 2.116666,2.6458328 0.52916658,0.52916658 0 0 0 2.6458326,2.1166662 0.52916658,0.52916658 0 0 0 2.4908033,1.7425288 Z" />
  <path
     d="M 2.1166665,0 C 0.94766381,0 -1.2919067e-7,0.94766343 -1.2919067e-7,2.1166666 -1.2919067e-7,3.2856698 0.94766381,4.2333332 2.1166665,4.2333332 c 1.1690027,0 2.1166666,-0.9476634 2.1166666,-2.1166666 C 4.2333331,0.94766343 3.2856692,0 2.1166665,0 Z m 0,0.26458333 c 1.0228773,0 1.8520833,0.82920677 1.8520833,1.85208327 0,1.0228765 -0.829206,1.8520833 -1.8520833,1.8520833 -1.0228774,0 -1.8520833,-0.8292068 -1.8520833,-1.8520833 0,-1.0228765 0.8292059,-1.85208327 1.8520833,-1.85208327 z"
     style="fill-opacity:1;stroke-width:0.264583;fill:#000000;opacity:0.5"
     id="path911" />
  <circle
     style="fill:#73c48f;fill-opacity:1;stroke-width:0.291042"
     id="path1504"
     cx="2.778125"
     cy="2.778125"
     r="1.4552083" />
  <path
     id="path1921"
     style="opacity:0.5;fill:#000000;fill-opacity:1;stroke-width:0.242534"
     d="m 2.778125,1.3229167 c -0.8036885,0 -1.4552083,0.6515198 -1.4552083,1.4552083 0,0.8036885 0.6515198,1.4552084 1.4552083,1.4552084 0.8036885,0 1.4552084,-0.6515199 1.4552084,-1.4552084 0,-0.8036885 -0.6515199,-1.4552083 -1.4552084,-1.4552083 z m 0,0.2645833 c 0.6575634,0 1.190625,0.5330617 1.190625,1.190625 0,0.6575634 -0.5330616,1.190625 -1.190625,1.190625 C 2.1205617,3.96875 1.5875,3.4356884 1.5875,2.778125 1.5875,2.1205617 2.1205617,1.5875 2.778125,1.5875 Z" />
  <path
     d="M 2.544498,1.8437491 2.523861,2.0898117 C 2.445894,2.1188227 2.3734242,2.1608727 2.3095485,2.2141658 l -0.223838,-0.1055687 -0.2336271,0.4048125 0.2032,0.1410229 c -0.00728,0.040879 -0.011086,0.082303 -0.011377,0.123825 -8e-6,0.041677 0.00352,0.083278 0.010583,0.1243542 L 1.8520834,3.0428408 2.0857105,3.4476533 2.3087543,3.3426137 c 0.064193,0.052995 0.1369324,0.094688 0.2151062,0.1232959 l 0.020637,0.2465916 H 3.0117522 L 3.0323892,3.4664387 C 3.1103562,3.4374277 3.182826,3.3953777 3.2467017,3.3420846 l 0.2238375,0.1055687 0.2336271,-0.4048125 -0.2032,-0.1407583 c 0.00728,-0.040879 0.011086,-0.082303 0.011377,-0.123825 8e-6,-0.041677 -0.00352,-0.083278 -0.010583,-0.1243542 L 3.7041668,2.513145 3.4705397,2.1085971 3.2474959,2.2136367 C 3.1833027,2.1606412 3.1105635,2.1189484 3.0323897,2.0903408 L 3.0117522,1.8437491 Z m 0.2336271,0.6672792 c 0.1475449,0 0.2671101,0.1196854 0.2669646,0.2672292 0,0.1475438 -0.1196843,0.2671109 -0.2672292,0.2669646 -0.1474417,-1.461e-4 -0.2668455,-0.1197888 -0.2667,-0.2672292 1.455e-4,-0.1473372 0.1196261,-0.2667 0.2669646,-0.2667 z"
     style="fill:#fafafb;stroke-width:0.264583"
     id="path10773" />
</svg>
