<?xml version="1.0" encoding="UTF-8" standalone="no"?>
<!-- Created with Inkscape (http://www.inkscape.org/) -->

<svg
   width="16"
   height="16"
   viewBox="0 0 4.2333333 4.2333333"
   version="1.1"
   id="svg5"
   inkscape:version="1.2 (dc2aedaf03, 2022-05-15)"
   sodipodi:docname="session-properties.svg"
   xmlns:inkscape="http://www.inkscape.org/namespaces/inkscape"
   xmlns:sodipodi="http://sodipodi.sourceforge.net/DTD/sodipodi-0.dtd"
   xmlns="http://www.w3.org/2000/svg"
   xmlns:svg="http://www.w3.org/2000/svg">
  <sodipodi:namedview
     id="namedview7"
     pagecolor="#ffffff"
     bordercolor="#666666"
     borderopacity="1.0"
     inkscape:pageshadow="2"
     inkscape:pageopacity="0.0"
     inkscape:pagecheckerboard="0"
     inkscape:document-units="px"
     showgrid="false"
     units="px"
     height="48px"
     inkscape:zoom="51.875"
     inkscape:cx="8"
     inkscape:cy="8"
     inkscape:window-width="1920"
     inkscape:window-height="1009"
     inkscape:window-x="0"
     inkscape:window-y="0"
     inkscape:window-maximized="1"
     inkscape:current-layer="svg5"
     inkscape:showpageshadow="2"
     inkscape:deskcolor="#d1d1d1" />
  <defs
     id="defs2" />
  <rect
     style="opacity:1;fill:#48b9c7;fill-opacity:1;stroke-width:0.264583"
     id="rect1162"
     width="3.7041667"
     height="3.7041667"
     x="0.26458332"
     y="0.26458332"
     ry="0.66145831" />
  <path
     id="path53732"
     style="opacity:0.699;fill:#ffffff;stroke-width:0.139448;stroke-linecap:square;paint-order:fill markers stroke"
     d="m 2.6458333,1.8520833 v 0.2645833 h 0.2645834 v 0.79375 H 1.8520834 V 2.6458333 H 1.5875 V 2.9104166 C 1.5875,3.0569955 1.7055043,3.175 1.8520834,3.175 H 2.9104167 C 3.0569957,3.175 3.175,3.0569955 3.175,2.9104166 v -0.79375 c 0,-0.146579 -0.1180043,-0.2645833 -0.2645833,-0.2645833 z"
     sodipodi:nodetypes="cccccccssssssc" />
  <path
     d="m 1.0583334,1.0583333 c -0.14657925,0 -0.2645834,0.1180042 -0.2645834,0.2645834 v 0.7937499 c 0,0.146579 0.11800415,0.2645835 0.2645834,0.2645835 h 1.0583333 c 0.1465792,0 0.2645834,-0.1180045 0.2645834,-0.2645835 V 1.3229167 c 0,-0.1465792 -0.1180042,-0.2645834 -0.2645834,-0.2645834 z m 0,0.2645834 H 2.1166667 V 2.1166666 H 1.0583334 Z"
     style="fill:#ffffff;stroke-width:0.139448;stroke-linecap:square;paint-order:fill markers stroke"
     id="path43230"
     sodipodi:nodetypes="sssssssssccccc" />
  <path
     id="rect1014"
     style="opacity:0.5;fill:#000000;stroke-width:0.999999"
     d="M 3.5 1 C 2.115 1 1 2.115 1 3.5 L 1 12.5 C 1 13.885 2.115 15 3.5 15 L 12.5 15 C 13.885 15 15 13.885 15 12.5 L 15 3.5 C 15 2.115 13.885 1 12.5 1 L 3.5 1 z M 4 2 L 12 2 C 13.108 2 14 2.892 14 4 L 14 12 C 14 13.108 13.108 14 12 14 L 4 14 C 2.892 14 2 13.108 2 12 L 2 4 C 2 2.892 2.892 2 4 2 z "
     transform="scale(0.26458333)" />
</svg>
