<?xml version="1.0" encoding="UTF-8" standalone="no"?>
<!-- Created with Inkscape (http://www.inkscape.org/) -->

<svg
   width="16"
   height="16"
   viewBox="0 0 4.2333333 4.2333333"
   version="1.1"
   id="svg5"
   inkscape:version="1.2 (dc2aedaf03, 2022-05-15)"
   sodipodi:docname="steam.svg"
   xmlns:inkscape="http://www.inkscape.org/namespaces/inkscape"
   xmlns:sodipodi="http://sodipodi.sourceforge.net/DTD/sodipodi-0.dtd"
   xmlns="http://www.w3.org/2000/svg"
   xmlns:svg="http://www.w3.org/2000/svg">
  <sodipodi:namedview
     id="namedview7"
     pagecolor="#ffffff"
     bordercolor="#666666"
     borderopacity="1.0"
     inkscape:pageshadow="2"
     inkscape:pageopacity="0.0"
     inkscape:pagecheckerboard="0"
     inkscape:document-units="px"
     showgrid="false"
     units="px"
     height="48px"
     inkscape:zoom="50.0625"
     inkscape:cx="8.0099875"
     inkscape:cy="8.0299625"
     inkscape:window-width="1920"
     inkscape:window-height="1009"
     inkscape:window-x="0"
     inkscape:window-y="0"
     inkscape:window-maximized="1"
     inkscape:current-layer="svg5"
     inkscape:showpageshadow="2"
     inkscape:deskcolor="#d1d1d1" />
  <defs
     id="defs2" />
  <circle
     style="fill:#1f285a;stroke-width:0.264583"
     id="path934"
     cx="2.1166666"
     cy="2.1166666"
     r="2.1166666" />
  <circle
     style="fill:#3f51b5;fill-opacity:1;stroke-width:0.132291"
     id="path4871"
     cx="2.1166666"
     cy="2.1166666"
     r="1.8520833" />
  <path
     id="path555"
     style="fill:#ffffff;stroke-width:0.264583"
     d="M 2.778125 0.79374999 C 2.2666874 0.79374999 1.8520833 1.2083541 1.8520833 1.7197917 C 1.8520833 1.7283016 1.8523726 1.7366571 1.8526001 1.7451131 L 1.4707113 2.3817667 C 1.4655513 2.3816478 1.4603983 2.38125 1.4552083 2.38125 C 1.2960541 2.38125 1.1502408 2.4374611 1.0361125 2.5311116 L 0.2651001 2.1368205 A 1.8520833 1.8520833 0 0 0 0.39429118 2.7972453 L 0.79530029 3.0024007 C 0.79449998 3.0157247 0.79374999 3.0291833 0.79374999 3.0427083 C 0.79374999 3.408021 1.0898957 3.7041666 1.4552083 3.7041666 C 1.820521 3.7041666 2.1166667 3.408021 2.1166667 3.0427083 C 2.1166667 3.0111383 2.1142287 2.9800817 2.1099487 2.9496907 L 2.6468668 2.6365316 C 2.6897488 2.6426215 2.7335628 2.6458333 2.778125 2.6458333 C 3.2895628 2.6458333 3.7041666 2.2312293 3.7041666 1.7197917 C 3.7041666 1.2083541 3.2895628 0.79374999 2.778125 0.79374999 z M 2.778125 1.190625 C 3.070375 1.190625 3.3072916 1.4275415 3.3072916 1.7197917 C 3.3072916 2.0120418 3.070375 2.2489583 2.778125 2.2489583 C 2.4858749 2.2489583 2.2489583 2.0120418 2.2489583 1.7197917 C 2.2489583 1.4275415 2.4858749 1.190625 2.778125 1.190625 z M 2.778125 1.3229167 C 2.5589374 1.3229167 2.38125 1.5006041 2.38125 1.7197917 C 2.38125 1.9389792 2.5589374 2.1166667 2.778125 2.1166667 C 2.9973125 2.1166667 3.175 1.9389792 3.175 1.7197917 C 3.175 1.5006041 2.9973125 1.3229167 2.778125 1.3229167 z M 1.4552083 2.6458333 C 1.6743959 2.6458333 1.8520832 2.8235208 1.8520833 3.0427083 C 1.8520832 3.2618958 1.6743959 3.4395833 1.4552083 3.4395833 C 1.270844 3.4395833 1.1158508 3.3138586 1.0712524 3.1434774 L 1.3348022 3.2783528 C 1.6490305 3.4390064 1.8898427 2.9677173 1.5756144 2.8070638 L 1.3125814 2.6727051 C 1.3568863 2.6556161 1.4048784 2.6458329 1.4552083 2.6458333 z " />
</svg>
