<?xml version="1.0" encoding="UTF-8" standalone="no"?>
<!-- Created with Inkscape (http://www.inkscape.org/) -->

<svg
   width="16"
   height="16"
   viewBox="0 0 4.2333333 4.2333333"
   version="1.1"
   id="svg5"
   inkscape:version="1.1.2 (0a00cf5339, 2022-02-04, custom)"
   sodipodi:docname="system-help.svg"
   xmlns:inkscape="http://www.inkscape.org/namespaces/inkscape"
   xmlns:sodipodi="http://sodipodi.sourceforge.net/DTD/sodipodi-0.dtd"
   xmlns="http://www.w3.org/2000/svg"
   xmlns:svg="http://www.w3.org/2000/svg">
  <sodipodi:namedview
     id="namedview7"
     pagecolor="#ffffff"
     bordercolor="#666666"
     borderopacity="1.0"
     inkscape:pageshadow="2"
     inkscape:pageopacity="0.0"
     inkscape:pagecheckerboard="0"
     inkscape:document-units="px"
     showgrid="false"
     units="px"
     height="48px"
     inkscape:zoom="50.0625"
     inkscape:cx="8.019975"
     inkscape:cy="8.0099875"
     inkscape:window-width="1920"
     inkscape:window-height="1002"
     inkscape:window-x="0"
     inkscape:window-y="0"
     inkscape:window-maximized="1"
     inkscape:current-layer="svg5" />
  <defs
     id="defs2" />
  <circle
     style="fill:#3f51b5;fill-opacity:1;stroke-width:0.132291"
     id="path4871"
     cx="2.1166666"
     cy="2.1166666"
     r="1.8520833" />
  <path
     id="path934"
     style="opacity:0.4;fill:#ffffff;fill-opacity:1;stroke-width:0.874998"
     d="M 8 1 A 7 7 0 0 0 1 8 A 7 7 0 0 0 8 15 A 7 7 0 0 0 15 8 A 7 7 0 0 0 8 1 z M 8 2 A 6 6 0 0 1 14 8 A 6 6 0 0 1 8 14 A 6 6 0 0 1 2 8 A 6 6 0 0 1 8 2 z "
     transform="scale(0.26458333)" />
  <path
     d="m 2.1166667,1.0583333 c -0.3092979,0 -0.6675438,0.1063625 -0.79375,0.5291666 l 0.2589001,0.081132 C 1.6736268,1.2839277 1.9304,1.3229167 2.1166667,1.3229167 c 0.2309812,0 0.5291666,0.059531 0.5291666,0.2645833 0,0.4024313 -0.8220604,0.5114052 -0.7937499,1.1368802 V 2.9104166 H 2.1166667 V 2.742467 c 0,-0.4881562 0.79375,-0.5588608 0.79375,-1.1549671 0,-0.2981854 -0.3241146,-0.5291666 -0.79375,-0.5291666 z M 1.8520834,3.1749999 V 3.4395832 H 2.1166667 V 3.1749999 Z"
     style="fill:#ffffff;stroke-width:0.264583"
     id="path1481" />
</svg>
