<?xml version="1.0" encoding="UTF-8" standalone="no"?>
<!-- Created with Inkscape (http://www.inkscape.org/) -->

<svg
   width="16"
   height="16"
   viewBox="0 0 4.2333333 4.2333333"
   version="1.1"
   id="svg5"
   inkscape:version="1.2 (dc2aedaf03, 2022-05-15)"
   sodipodi:docname="system-config-printer.svg"
   xmlns:inkscape="http://www.inkscape.org/namespaces/inkscape"
   xmlns:sodipodi="http://sodipodi.sourceforge.net/DTD/sodipodi-0.dtd"
   xmlns="http://www.w3.org/2000/svg"
   xmlns:svg="http://www.w3.org/2000/svg">
  <sodipodi:namedview
     id="namedview7"
     pagecolor="#ffffff"
     bordercolor="#666666"
     borderopacity="1.0"
     inkscape:pageshadow="2"
     inkscape:pageopacity="0.0"
     inkscape:pagecheckerboard="0"
     inkscape:document-units="px"
     showgrid="false"
     units="px"
     height="48px"
     inkscape:zoom="48.625"
     inkscape:cx="8.0411311"
     inkscape:cy="8.0205656"
     inkscape:window-width="1846"
     inkscape:window-height="1015"
     inkscape:window-x="0"
     inkscape:window-y="0"
     inkscape:window-maximized="1"
     inkscape:current-layer="svg5"
     showguides="false"
     inkscape:showpageshadow="2"
     inkscape:deskcolor="#d1d1d1" />
  <defs
     id="defs2" />
  <rect
     style="opacity:1;fill:#474341;fill-opacity:1;stroke-width:0.264583"
     id="rect1162"
     width="4.2333331"
     height="2.1166666"
     x="0"
     y="1.0583333"
     ry="0.26458332" />
  <rect
     style="fill:#73c48f;fill-opacity:1;stroke-width:0.529167"
     id="rect12031"
     width="0.26458332"
     height="0.26458332"
     x="0.52916664"
     y="1.5875" />
  <path
     id="rect1437"
     style="opacity:0.5;fill:#ffffff;fill-opacity:1;stroke-width:0.264583"
     d="M 0.26458333 1.0583333 C 0.11800432 1.0583333 0 1.1763376 0 1.3229167 L 0 2.9104166 C 0 3.0569957 0.11800432 3.175 0.26458333 3.175 L 3.96875 3.175 C 4.115329 3.175 4.2333333 3.0569957 4.2333333 2.9104166 L 4.2333333 1.3229167 C 4.2333333 1.1763376 4.115329 1.0583333 3.96875 1.0583333 L 0.26458333 1.0583333 z M 0.26458333 1.3229167 L 3.96875 1.3229167 L 3.96875 2.9104166 L 0.26458333 2.9104166 L 0.26458333 1.3229167 z " />
  <rect
     style="fill:#dedede;fill-opacity:1;stroke-width:0.529167;stroke-linecap:round;stroke-linejoin:round"
     id="rect1028"
     width="2.6458333"
     height="1.0583333"
     x="0.79374993"
     y="0"
     ry="0.13229166" />
  <rect
     style="fill:#dedede;fill-opacity:1;stroke-width:0.529167"
     id="rect10111"
     width="2.6458333"
     height="2.1166666"
     x="0.79374999"
     y="2.1166666"
     ry="0.13229166" />
  <path
     id="rect10168"
     style="opacity:0.5;stroke-width:0.529167"
     d="M 0.92604166 0 C 0.85275215 0 0.79374999 0.059002159 0.79374999 0.13229167 L 0.79374999 1.0583333 L 1.0583333 1.0583333 L 1.0583333 0.26458333 L 3.175 0.26458333 L 3.175 1.0583333 L 3.4395833 1.0583333 L 3.4395833 0.13229167 C 3.4395833 0.059002159 3.3805816 0 3.3072916 0 L 0.92604166 0 z " />
  <path
     id="rect10270"
     style="opacity:0.5;fill:#000000;fill-opacity:1;stroke-width:0.529167"
     d="M 0.92604166 2.1166667 C 0.85275215 2.1166666 0.79374999 2.1756688 0.79374999 2.2489583 L 0.79374999 4.1010416 C 0.79374999 4.1743311 0.85275215 4.2333333 0.92604166 4.2333333 L 3.3072916 4.2333333 C 3.3805811 4.2333333 3.4395833 4.1743311 3.4395833 4.1010416 L 3.4395833 2.2489583 C 3.4395833 2.1756688 3.3805811 2.1166667 3.3072916 2.1166667 L 3.175 2.1166667 L 3.175 3.96875 L 1.0583333 3.96875 L 1.0583333 2.1166667 L 0.92604166 2.1166667 z " />
  <circle
     style="fill:#aa5abb;fill-opacity:1;stroke-width:0.291042"
     id="path1504"
     cx="2.7781253"
     cy="2.778125"
     r="1.4552083" />
  <path
     id="path1921"
     style="opacity:0.5;fill:#000000;fill-opacity:1;stroke-width:0.242534"
     d="m 2.7781249,1.3229167 c -0.8036885,0 -1.4552083,0.6515198 -1.4552083,1.4552083 0,0.8036885 0.6515198,1.4552084 1.4552083,1.4552084 0.8036885,0 1.4552084,-0.6515199 1.4552084,-1.4552084 0,-0.8036885 -0.6515199,-1.4552083 -1.4552084,-1.4552083 z m 0,0.2645833 c 0.6575634,0 1.190625,0.5330617 1.190625,1.190625 0,0.6575634 -0.5330616,1.190625 -1.190625,1.190625 -0.6575633,0 -1.190625,-0.5330616 -1.190625,-1.190625 0,-0.6575633 0.5330617,-1.190625 1.190625,-1.190625 z" />
  <path
     d="m 2.5444979,1.8437491 -0.020637,0.2460626 c -0.077967,0.029011 -0.1504368,0.071061 -0.2143125,0.1243541 l -0.223838,-0.1055687 -0.2336271,0.4048125 0.2032,0.1410229 c -0.00728,0.040879 -0.011086,0.082303 -0.011377,0.123825 -8e-6,0.041677 0.00352,0.083278 0.010583,0.1243542 L 1.8520833,3.0428408 2.0857104,3.4476533 2.3087542,3.3426137 c 0.064193,0.052995 0.1369324,0.094688 0.2151062,0.1232959 l 0.020637,0.2465916 h 0.4672547 l 0.020637,-0.2460625 c 0.077967,-0.029011 0.1504368,-0.071061 0.2143125,-0.1243541 l 0.2238375,0.1055687 0.2336271,-0.4048125 -0.2032,-0.1407583 c 0.00728,-0.040879 0.011086,-0.082303 0.011377,-0.123825 8e-6,-0.041677 -0.00352,-0.083278 -0.010583,-0.1243542 L 3.7041667,2.513145 3.4705396,2.1085971 3.2474958,2.2136367 C 3.1833026,2.1606412 3.1105634,2.1189484 3.0323896,2.0903408 L 3.0117521,1.8437491 Z M 2.778125,2.5110283 c 0.1475449,0 0.2671101,0.1196854 0.2669646,0.2672292 0,0.1475438 -0.1196843,0.2671109 -0.2672292,0.2669646 -0.1474417,-1.461e-4 -0.2668455,-0.1197888 -0.2667,-0.2672292 1.455e-4,-0.1473372 0.1196261,-0.2667 0.2669646,-0.2667 z"
     style="fill:#fafafb;stroke-width:0.264583"
     id="path10773" />
</svg>
