<?xml version="1.0" encoding="UTF-8" standalone="no"?>
<!-- Created with Inkscape (http://www.inkscape.org/) -->

<svg
   width="16"
   height="16"
   viewBox="0 0 4.2333333 4.2333333"
   version="1.1"
   id="svg5"
   inkscape:version="1.2 (dc2aedaf03, 2022-05-15)"
   sodipodi:docname="vscodium.svg"
   xmlns:inkscape="http://www.inkscape.org/namespaces/inkscape"
   xmlns:sodipodi="http://sodipodi.sourceforge.net/DTD/sodipodi-0.dtd"
   xmlns="http://www.w3.org/2000/svg"
   xmlns:svg="http://www.w3.org/2000/svg">
  <sodipodi:namedview
     id="namedview7"
     pagecolor="#ffffff"
     bordercolor="#666666"
     borderopacity="1.0"
     inkscape:pageshadow="2"
     inkscape:pageopacity="0.0"
     inkscape:pagecheckerboard="0"
     inkscape:document-units="px"
     showgrid="false"
     units="px"
     height="48px"
     inkscape:zoom="49.875"
     inkscape:cx="7.9699248"
     inkscape:cy="8.3909774"
     inkscape:window-width="1846"
     inkscape:window-height="1011"
     inkscape:window-x="0"
     inkscape:window-y="0"
     inkscape:window-maximized="1"
     inkscape:current-layer="svg5"
     inkscape:showpageshadow="2"
     inkscape:deskcolor="#d1d1d1" />
  <defs
     id="defs2" />
  <circle
     style="fill:#dedede;stroke-width:0.264583;fill-opacity:1"
     id="path934"
     cx="2.1166666"
     cy="2.1166666"
     r="2.1166666" />
  <path
     d="M 2.1166665,0 C 0.94766381,0 -1.2919067e-7,0.94766343 -1.2919067e-7,2.1166666 -1.2919067e-7,3.2856698 0.94766381,4.2333332 2.1166665,4.2333332 c 1.1690027,0 2.1166666,-0.9476634 2.1166666,-2.1166666 C 4.2333331,0.94766343 3.2856692,0 2.1166665,0 Z m 0,0.26458333 c 1.0228773,0 1.8520833,0.82920677 1.8520833,1.85208327 0,1.0228765 -0.829206,1.8520833 -1.8520833,1.8520833 -1.0228774,0 -1.8520833,-0.8292068 -1.8520833,-1.8520833 0,-1.0228765 0.8292059,-1.85208327 1.8520833,-1.85208327 z"
     style="fill-opacity:1;stroke-width:0.264583;fill:#000000;opacity:0.5"
     id="path911" />
  <path
     d="M 2.1445568,3.4331303 C 2.1143621,3.4247007 2.0880758,3.4049844 2.0696864,3.3769592 2.0425482,3.3356043 2.0335089,3.305626 2.000418,3.1472017 1.9866183,3.081136 1.9662848,3.0371731 1.9320014,2.999289 1.8721831,2.9331694 1.8031051,2.9096958 1.6394945,2.8998806 1.4564622,2.8888998 1.3915029,2.8724372 1.330352,2.8215311 1.260833,2.7636604 1.2318207,2.698258 1.1903118,2.5057673 1.1646468,2.3867926 1.1499854,2.3387831 1.1197406,2.2747373 1.0642416,2.1571845 0.98795811,2.0658254 0.87749141,1.9845853 0.80628886,1.9322227 0.78506332,1.9003806 0.79678851,1.8635212 c 0.009521,-0.029846 0.0398554,-0.04906 0.0775061,-0.04906 0.030305,0 0.048755,0.00765 0.072816,0.030207 0.02307,0.021614 0.036709,0.042063 0.068577,0.1028313 0.029122,0.055512 0.057082,0.095954 0.066362,0.095954 0.00561,0 0.00651,-0.023417 0.00651,-0.1683095 0,-0.1006724 0.0018,-0.1750939 0.00451,-0.185191 0.00541,-0.020286 0.026958,-0.040375 0.043243,-0.040351 0.027048,4.16e-5 0.050218,0.026542 0.062053,0.07097 0.00271,0.010072 0.01403,0.1110616 0.025204,0.224414 0.011184,0.1133515 0.021987,0.2079099 0.024011,0.2101291 0.00621,0.00684 0.034614,-0.029541 0.053124,-0.068154 0.018169,-0.037893 0.030445,-0.086236 0.030576,-0.1204133 5e-5,-0.010811 -0.00501,-0.045208 -0.011204,-0.076438 -0.00922,-0.046395 -0.010433,-0.060051 -0.00661,-0.074649 0.012036,-0.046378 0.061752,-0.054013 0.094372,-0.014491 0.023611,0.028615 0.031758,0.061012 0.031578,0.1256958 0,0.070081 -0.00591,0.096158 -0.05581,0.2537614 -0.043102,0.1361702 -0.056681,0.1965229 -0.056561,0.2513313 0,0.1965444 0.1590409,0.3245331 0.4249206,0.3428793 0.023681,0.00164 0.043052,0.00146 0.043052,-4.233e-4 0,-0.00185 -0.014822,-0.031533 -0.032941,-0.065951 -0.062414,-0.1185765 -0.087738,-0.2014101 -0.087738,-0.286993 0,-0.064415 0.00912,-0.1037512 0.049245,-0.211077 0.054817,-0.1468222 0.060189,-0.1706741 0.060239,-0.267511 4.01e-5,-0.050426 -0.00221,-0.081813 -0.00772,-0.108357 C 1.7462529,1.689815 1.6727655,1.5657293 1.5690532,1.48467 1.5279451,1.4525401 1.5156588,1.4456153 1.4105335,1.3952796 1.3094068,1.3468576 1.2830803,1.3300115 1.2426336,1.2878343 1.1991906,1.2425413 1.1807606,1.2055043 1.1777946,1.157565 c -0.0018,-0.029622 -0.0011,-0.034295 0.00621,-0.038264 0.016726,-0.00914 0.052222,-0.0108 0.08393,-0.00394 0.058846,0.012725 0.1115691,0.047354 0.1958999,0.128654 0.089852,0.086624 0.1404609,0.1186078 0.2022935,0.1278463 0.030104,0.0045 0.033161,0.0042 0.038833,-0.00385 0.00922,-0.013054 0.00782,-0.061648 -0.00261,-0.090387 C 1.683151,1.2246653 1.641982,1.1853343 1.5499553,1.1320421 1.4908183,1.0977951 1.4509433,1.0684911 1.433125,1.0461851 1.389572,0.9916511 1.380723,0.911704 1.413743,0.8709976 1.44502,0.8324506 1.498014,0.8280946 1.5591146,0.8590506 c 0.029714,0.015058 0.043012,0.026106 0.088099,0.07323 0.1315519,0.1374757 0.2107617,0.3178291 0.2456264,0.5592816 0.00932,0.064456 0.00812,0.3072892 -0.00201,0.391578 -0.00962,0.080373 -0.024833,0.1757529 -0.042762,0.2674924 -0.015523,0.079445 -0.016736,0.1158876 -0.00481,0.1432477 0.00882,0.020074 0.027038,0.033507 0.045528,0.033507 0.020885,0 0.057894,-0.024731 0.1005354,-0.067177 0.069639,-0.069332 0.1086629,-0.1364893 0.1309808,-0.2253901 0.00972,-0.038753 0.011445,-0.057874 0.014291,-0.1589119 0.00301,-0.1067895 0.00391,-0.1163908 0.013419,-0.1366629 0.013799,-0.029576 0.039274,-0.048459 0.06538,-0.048459 0.016926,0 0.022087,0.00245 0.036388,0.017278 0.03727,0.038658 0.035988,0.089404 -0.00681,0.2698934 -0.030525,0.1286446 -0.071283,0.2277745 -0.1229735,0.2990517 -0.015533,0.021411 -0.061161,0.071491 -0.1013973,0.1112912 -0.048314,0.047786 -0.080563,0.083832 -0.094944,0.1061346 -0.08416,0.1305126 -0.039294,0.2583899 0.098952,0.2820714 0.057834,0.00991 0.1219113,-0.00932 0.1656952,-0.049739 0.060999,-0.05628 0.117981,-0.1817076 0.1579065,-0.3475983 C 2.4055364,2.1326871 2.4245772,1.8645659 2.3936409,1.7110818 2.3656612,1.5722747 2.3094807,1.4559016 2.2305617,1.373307 2.2090254,1.3507731 2.1623755,1.3116259 2.115034,1.2763662 1.9830812,1.1780928 1.9300176,1.1146187 1.9116583,1.0330605 c -0.00912,-0.040474 -0.00682,-0.081665 0.00501,-0.090895 0.015273,-0.011885 0.053715,-0.017728 0.080262,-0.012198 0.065751,0.013697 0.1234545,0.066931 0.1842849,0.1700194 0.047812,0.081017 0.069689,0.1112382 0.1024996,0.1415689 0.024332,0.022496 0.036699,0.028686 0.036699,0.018377 0,-0.00271 -0.011685,-0.027958 -0.025956,-0.056104 C 2.1906763,0.9991926 2.1161566,0.84488322 2.1061351,0.81386232 c -0.022608,-0.0699768 -0.00972,-0.1195755 0.036749,-0.1408725 0.052723,-0.0241887 0.1113688,0.015007 0.1395291,0.093247 0.00601,0.016692 0.044906,0.15271478 0.086445,0.30227178 0.089682,0.3228891 0.083599,0.302591 0.089963,0.3004394 0.00782,-0.00264 0.036989,-0.076546 0.051731,-0.1309938 0.019331,-0.071426 0.027709,-0.1459024 0.024763,-0.2204039 -0.00291,-0.073009 -0.010362,-0.1202127 -0.036558,-0.23036268 -0.01409,-0.059269 -0.019382,-0.090786 -0.019382,-0.1154812 0,-0.0582728 0.022358,-0.10573551 0.06085,-0.12921011 0.042681,-0.0260202 0.1070997,-0.0129453 0.150262,0.0304949 0.042391,0.0426771 0.05613,0.0889299 0.052443,0.17663641 -0.00391,0.093796 -0.018823,0.15070768 -0.1023894,0.39157908 -0.0745,0.2147473 -0.096868,0.2947952 -0.1103064,0.3947213 -0.00882,0.065487 -0.00862,0.1688625 0,0.2238985 0.00782,0.048081 0.023611,0.1013542 0.030636,0.1036316 0.00251,8.308e-4 0.024162,-0.055732 0.048073,-0.1256646 0.058556,-0.1712022 0.066453,-0.190492 0.084732,-0.2071417 0.036238,-0.033005 0.090013,-0.00476 0.090013,0.047287 0,0.043484 -0.090404,0.3183197 -0.3207776,0.9752271 -0.064308,0.1833707 -0.1163093,0.3366013 -0.1155377,0.3405126 9.975e-4,0.00461 0.092979,-0.079375 0.2619013,-0.2388664 C 2.9702783,2.3139565 2.97571,2.3081638 2.99906,2.2385528 3.00838,2.2106188 3.009654,2.2005288 3.00768,2.1670968 3.0045709,2.1136498 2.9874127,2.0674823 2.9353216,1.9721838 2.8736797,1.8594363 2.8540476,1.8115245 2.8476238,1.7582088 2.8345666,1.6498061 2.9280863,1.5792856 2.9940979,1.6477553 c 0.036648,0.03801 0.087417,0.1688729 0.1095947,0.2825091 0.00611,0.031393 0.011144,0.061335 0.011144,0.066537 0,0.026324 0.013668,0.00447 0.068818,-0.1100232 0.079781,-0.165634 0.094533,-0.1883207 0.1373942,-0.2113078 0.037611,-0.020172 0.083579,8.308e-4 0.1086432,0.049668 0.013549,0.026398 0.013139,0.076154 -9.79e-4,0.1206461 -0.03732,0.1175477 -0.1844349,0.3679071 -0.3428743,0.5835087 -0.00882,0.011965 -0.01365,0.021754 -0.010792,0.021754 0.00291,0 0.016465,-0.00679 0.030235,-0.015086 0.085273,-0.051401 0.1456219,-0.054745 0.2050994,-0.011363 0.01819,0.013267 0.038422,0.052592 0.038362,0.074538 -8.04e-5,0.024807 -0.01343,0.053564 -0.031398,0.067635 -0.032871,0.025736 -0.067324,0.034063 -0.1649134,0.039855 C 2.9917974,2.6161562 2.869816,2.6609802 2.7527752,2.7534625 2.6605272,2.8263555 2.6065919,2.8998721 2.5143241,3.0784907 2.4392131,3.2239015 2.4039977,3.276602 2.3337772,3.3487282 c -0.050859,0.05224 -0.08882,0.077098 -0.132063,0.086489 -0.02823,0.00613 -0.02806,0.00613 -0.057583,-0.00212 z"
     style="fill:#6a7ce0;stroke-width:0.264583;fill-opacity:1"
     id="path348" />
</svg>
