<?xml version="1.0" encoding="UTF-8" standalone="no"?>
<!-- Created with Inkscape (http://www.inkscape.org/) -->

<svg
   width="16"
   height="16"
   viewBox="0 0 4.2333333 4.2333333"
   version="1.1"
   id="svg5"
   inkscape:version="1.2 (dc2aedaf03, 2022-05-15)"
   sodipodi:docname="wine.svg"
   xmlns:inkscape="http://www.inkscape.org/namespaces/inkscape"
   xmlns:sodipodi="http://sodipodi.sourceforge.net/DTD/sodipodi-0.dtd"
   xmlns="http://www.w3.org/2000/svg"
   xmlns:svg="http://www.w3.org/2000/svg">
  <sodipodi:namedview
     id="namedview7"
     pagecolor="#ffffff"
     bordercolor="#666666"
     borderopacity="1.0"
     inkscape:pageshadow="2"
     inkscape:pageopacity="0.0"
     inkscape:pagecheckerboard="0"
     inkscape:document-units="px"
     showgrid="false"
     units="px"
     height="48px"
     inkscape:zoom="23.78125"
     inkscape:cx="9.3561104"
     inkscape:cy="10.091984"
     inkscape:window-width="1463"
     inkscape:window-height="973"
     inkscape:window-x="35"
     inkscape:window-y="32"
     inkscape:window-maximized="0"
     inkscape:current-layer="svg5"
     inkscape:showpageshadow="2"
     inkscape:deskcolor="#d1d1d1"
     showguides="false" />
  <defs
     id="defs2" />
  <rect
     style="opacity:1;fill:#cf3b00;fill-opacity:1;stroke-width:0.264583"
     id="rect1162"
     width="3.7041667"
     height="3.7041667"
     x="0.26458332"
     y="0.26458332"
     ry="0.52916664" />
  <path
     id="path485"
     style="fill:#eeeeee;fill-opacity:1;stroke-width:0.0801726"
     d="M 0.79375001 0.26458333 C 0.50059199 0.26458333 0.26458335 0.50059197 0.26458335 0.79374999 L 0.26458335 2.1166666 C 0.53291473 1.9105193 0.8548958 1.8464498 1.190625 1.8520833 C 1.5289093 1.8577597 1.9010206 2.021922 2.1166667 2.1166666 C 2.3213605 2.2060647 2.5599595 2.3787169 3.0427083 2.38125 C 3.5626542 2.3839782 3.7531042 2.2114112 3.96875 2.1166666 L 3.96875 0.79374999 C 3.96875 0.50059197 3.7327414 0.26458333 3.4395833 0.26458333 L 0.79375001 0.26458333 z " />
  <path
     id="rect15459"
     style="fill:#000000;fill-opacity:1;stroke-width:0.529167;stroke-linejoin:round;opacity:0.5"
     d="M 0.79374999 0.26458333 C 0.50059197 0.26458333 0.26458333 0.50059197 0.26458333 0.79374999 L 0.26458333 3.4395833 C 0.26458333 3.7327413 0.50059197 3.96875 0.79374999 3.96875 L 3.4395833 3.96875 C 3.7327413 3.96875 3.96875 3.7327413 3.96875 3.4395833 L 3.96875 0.79374999 C 3.96875 0.50059197 3.7327413 0.26458333 3.4395833 0.26458333 L 0.79374999 0.26458333 z M 0.79478352 0.52916666 L 3.4406168 0.52916666 C 3.5871958 0.52916666 3.7052002 0.64717098 3.7052002 0.79374999 L 3.7052002 3.4395833 C 3.7052002 3.5861623 3.5871958 3.7041666 3.4406168 3.7041666 L 0.79478352 3.7041666 C 0.64820451 3.7041666 0.53020019 3.5861623 0.53020019 3.4395833 L 0.53020019 0.79374999 C 0.53020019 0.64717098 0.64820451 0.52916666 0.79478352 0.52916666 z " />
</svg>
