<?xml version="1.0" encoding="UTF-8" standalone="no"?>
<!-- Created with Inkscape (http://www.inkscape.org/) -->

<svg
   width="16"
   height="16"
   viewBox="0 0 4.2333333 4.2333333"
   version="1.1"
   id="svg5"
   inkscape:version="1.2 (dc2aedaf03, 2022-05-15)"
   sodipodi:docname="youtube.svg"
   xmlns:inkscape="http://www.inkscape.org/namespaces/inkscape"
   xmlns:sodipodi="http://sodipodi.sourceforge.net/DTD/sodipodi-0.dtd"
   xmlns="http://www.w3.org/2000/svg"
   xmlns:svg="http://www.w3.org/2000/svg">
  <sodipodi:namedview
     id="namedview7"
     pagecolor="#ffffff"
     bordercolor="#666666"
     borderopacity="1.0"
     inkscape:pageshadow="2"
     inkscape:pageopacity="0.0"
     inkscape:pagecheckerboard="0"
     inkscape:document-units="px"
     showgrid="false"
     units="px"
     height="48px"
     inkscape:zoom="25.03125"
     inkscape:cx="0.91885144"
     inkscape:cy="10.107366"
     inkscape:window-width="1920"
     inkscape:window-height="1009"
     inkscape:window-x="0"
     inkscape:window-y="0"
     inkscape:window-maximized="1"
     inkscape:current-layer="svg5"
     inkscape:showpageshadow="2"
     inkscape:deskcolor="#d1d1d1" />
  <defs
     id="defs2" />
  <rect
     style="opacity:1;fill:#cf3b00;fill-opacity:1;stroke-width:0.264583"
     id="rect1162"
     width="3.7041667"
     height="3.7041667"
     x="0.26458332"
     y="0.26458332"
     ry="0.66145831" />
  <path
     id="rect1014"
     style="opacity:0.5;fill:#000000;stroke-width:0.999999"
     d="M 3.5 1 C 2.115 1 1 2.115 1 3.5 L 1 12.5 C 1 13.885 2.115 15 3.5 15 L 12.5 15 C 13.885 15 15 13.885 15 12.5 L 15 3.5 C 15 2.115 13.885 1 12.5 1 L 3.5 1 z M 4 2 L 12 2 C 13.108 2 14 2.892 14 4 L 14 12 C 14 13.108 13.108 14 12 14 L 4 14 C 2.892 14 2 13.108 2 12 L 2 4 C 2 2.892 2.892 2 4 2 z "
     transform="scale(0.26458333)" />
  <path
     id="path4077"
     style="fill:#ffffff;stroke-width:0.159757"
     d="M 2.1344304,1.0583334 C 1.825232,1.0583952 1.369077,1.0774324 1.2323537,1.0818464 1.0837242,1.0951194 1.0288885,1.1025334 0.9478103,1.1716774 0.8229899,1.2813515 0.7937499,1.4967555 0.79375,1.8267194 v 0.3141067 c 0,0.3761886 0.050194,0.5674948 0.1337127,0.6372567 0.095429,0.081646 0.1583902,0.087945 0.2215627,0.097669 0.024622,0.00356 0.1996496,0.034666 0.9741008,0.034666 0.4827979,0 0.8976817,-0.022941 0.940511,-0.028034 0.069288,-0.0088 0.1673,-0.02142 0.2432022,-0.1043003 C 3.4177989,2.6527577 3.4395832,2.444477 3.4395833,2.142634 V 1.7772814 c 0,-0.1952866 -0.010705,-0.4708741 -0.1327439,-0.5866138 C 3.2142354,1.1126792 3.1805136,1.0909045 2.9893524,1.0812428 2.9354434,1.0788628 2.463952,1.0582799 2.1344304,1.0583334 Z m -0.2823471,0.5291667 0.79375,0.396875 -0.79375,0.396875 z"
     sodipodi:nodetypes="cccssccsccssccccccc" />
</svg>
