<?xml version="1.0" encoding="UTF-8" standalone="no"?>
<!-- Created with Inkscape (http://www.inkscape.org/) -->

<svg
   width="16"
   height="16"
   viewBox="0 0 4.2333333 4.2333333"
   version="1.1"
   id="svg5"
   inkscape:version="1.1.2 (0a00cf5339, 2022-02-04, custom)"
   sodipodi:docname="zanshin.svg"
   xmlns:inkscape="http://www.inkscape.org/namespaces/inkscape"
   xmlns:sodipodi="http://sodipodi.sourceforge.net/DTD/sodipodi-0.dtd"
   xmlns="http://www.w3.org/2000/svg"
   xmlns:svg="http://www.w3.org/2000/svg">
  <sodipodi:namedview
     id="namedview7"
     pagecolor="#ffffff"
     bordercolor="#666666"
     borderopacity="1.0"
     inkscape:pageshadow="2"
     inkscape:pageopacity="0.0"
     inkscape:pagecheckerboard="0"
     inkscape:document-units="px"
     showgrid="false"
     units="px"
     height="48px"
     inkscape:zoom="25.0625"
     inkscape:cx="1.8154613"
     inkscape:cy="8.7381546"
     inkscape:window-width="1920"
     inkscape:window-height="1017"
     inkscape:window-x="0"
     inkscape:window-y="0"
     inkscape:window-maximized="1"
     inkscape:current-layer="svg5"
     showguides="false" />
  <defs
     id="defs2" />
  <rect
     style="opacity:1;fill:#cdcdcd;fill-opacity:1;stroke-width:0.264583"
     id="rect1162"
     width="3.7041667"
     height="3.7041667"
     x="0.26458332"
     y="0.26458332"
     ry="0.39687499" />
  <path
     id="rect1308"
     style="opacity:0.5;fill:#000000;stroke-width:0.264583"
     d="m 0.66145833,0.26458333 c -0.21986875,0 -0.396875,0.17700625 -0.396875,0.396875 V 3.571875 c 0,0.2198687 0.17700625,0.396875 0.396875,0.396875 H 3.571875 c 0.2198687,0 0.396875,-0.1770063 0.396875,-0.396875 V 0.66145833 c 0,-0.21986875 -0.1770063,-0.396875 -0.396875,-0.396875 z M 0.79374999,0.52916666 H 3.4395833 c 0.1465792,0 0.2645833,0.11800417 0.2645833,0.26458333 V 3.4395833 c 0,0.1465792 -0.1180041,0.2645833 -0.2645833,0.2645833 H 0.79374999 c -0.14657916,0 -0.26458333,-0.1180041 -0.26458333,-0.2645833 V 0.79374999 c 0,-0.14657916 0.11800417,-0.26458333 0.26458333,-0.26458333 z"
     sodipodi:nodetypes="ssssssssssssssssss" />
  <rect
     style="opacity:1;fill:#424242;fill-opacity:1;stroke-width:0.24153"
     id="rect1437"
     width="2.6458333"
     height="2.6458333"
     x="0.79374999"
     y="0.79374999" />
  <circle
     style="opacity:0.2;fill:#67d8e9;fill-opacity:1;stroke-width:0.264583"
     id="path926"
     cx="2.1166666"
     cy="2.1166666"
     r="1.3229166" />
  <circle
     style="opacity:0.4;fill:#67d8e9;fill-opacity:1;stroke-width:0.463021"
     id="path1138"
     cx="2.1166666"
     cy="2.1166666"
     r="0.92604166" />
  <circle
     style="opacity:1;fill:#67d8e9;fill-opacity:1;stroke-width:0.264583"
     id="path1330"
     cx="2.1166666"
     cy="2.1166666"
     r="0.52916664" />
</svg>
