<?xml version="1.0" encoding="UTF-8" standalone="no"?>
<!-- Created with Inkscape (http://www.inkscape.org/) -->

<svg
   width="256"
   height="256"
   viewBox="0 0 67.733332 67.733336"
   version="1.1"
   id="svg1099"
   inkscape:version="1.2 (dc2aedaf03, 2022-05-15)"
   sodipodi:docname="accessories-calculator.svg"
   xmlns:inkscape="http://www.inkscape.org/namespaces/inkscape"
   xmlns:sodipodi="http://sodipodi.sourceforge.net/DTD/sodipodi-0.dtd"
   xmlns="http://www.w3.org/2000/svg"
   xmlns:svg="http://www.w3.org/2000/svg">
  <sodipodi:namedview
     id="namedview1101"
     pagecolor="#ffffff"
     bordercolor="#666666"
     borderopacity="1.0"
     inkscape:pageshadow="2"
     inkscape:pageopacity="0.0"
     inkscape:pagecheckerboard="0"
     inkscape:document-units="px"
     showgrid="false"
     units="px"
     inkscape:zoom="3.0976563"
     inkscape:cx="144.30265"
     inkscape:cy="161.73518"
     inkscape:window-width="1846"
     inkscape:window-height="1011"
     inkscape:window-x="0"
     inkscape:window-y="0"
     inkscape:window-maximized="1"
     inkscape:current-layer="svg1099"
     inkscape:showpageshadow="2"
     inkscape:deskcolor="#d1d1d1"
     showguides="true" />
  <defs
     id="defs1096" />
  <rect
     style="opacity:1;fill:#dedede;fill-opacity:1;stroke-width:1.05833;stroke-linecap:round"
     id="rect934"
     width="55.033333"
     height="56.091667"
     x="6.3499999"
     y="6.3499999"
     ry="2.1166668" />
  <path
     d="m 8.4666671,6.3500001 c -1.172633,0 -2.116667,0.9440333 -2.116667,2.1166667 V 60.325002 c 0,1.172633 0.944034,2.116666 2.116667,2.116666 H 59.266668 c 1.172634,0 2.116667,-0.944033 2.116667,-2.116666 V 8.4666668 c 0,-1.1726334 -0.944033,-2.1166667 -2.116667,-2.1166667 z m 0.132292,0.2645833 H 59.134377 c 1.099344,0 1.984375,0.8850313 1.984375,1.9843754 V 59.134377 c 0,1.099343 -0.885031,1.984375 -1.984375,1.984375 H 8.5989591 c -1.096911,0.0024 -1.986723,-0.887463 -1.984375,-1.984375 V 8.5989588 c 0,-1.0993441 0.885031,-1.9843754 1.984375,-1.9843754 z"
     style="opacity:0.5;fill:#000000;fill-opacity:1;stroke-width:0.264583"
     id="path1619" />
  <path
     id="rect2246"
     style="opacity:0.5;fill:#000000;fill-opacity:1;stroke-width:0.529167;stroke-linejoin:round"
     d="m 11.641667,10.054167 c -1.026053,0 -1.8520836,0.82603 -1.8520836,1.852083 v 19.050001 c 0,1.026053 0.8260306,1.852083 1.8520836,1.852083 h 19.05 c 1.026053,0 1.852083,-0.82603 1.852083,-1.852083 V 11.90625 c 0,-1.026053 -0.82603,-1.852083 -1.852083,-1.852083 z m 25.4,0 c -1.026053,0 -1.852083,0.82603 -1.852083,1.852083 v 19.050001 c 0,1.026053 0.82603,1.852083 1.852083,1.852083 h 19.05 c 1.026053,0 1.852084,-0.82603 1.852084,-1.852083 V 11.90625 c 0,-1.026053 -0.826031,-1.852083 -1.852084,-1.852083 z m -25.4,25.4 c -1.026053,0 -1.8520836,0.826031 -1.8520836,1.852084 v 19.05 c 0,1.026053 0.8260306,1.852083 1.8520836,1.852083 h 19.05 c 1.026053,0 1.852083,-0.82603 1.852083,-1.852083 v -19.05 c 0,-1.026053 -0.82603,-1.852084 -1.852083,-1.852084 z m 25.4,0 c -1.026053,0 -1.852083,0.826031 -1.852083,1.852084 v 19.05 c 0,1.026053 0.82603,1.852083 1.852083,1.852083 h 19.05 c 1.026053,0 1.852084,-0.82603 1.852084,-1.852083 v -19.05 c 0,-1.026053 -0.826031,-1.852084 -1.852084,-1.852084 z" />
  <path
     id="rect706"
     style="fill:#aaaaaa;fill-opacity:1;stroke-width:0.529167;stroke-linejoin:round"
     d="m 11.641667,9.5250001 c -1.026053,0 -1.8520836,0.8260299 -1.8520836,1.8520829 v 19.050001 c 0,1.026053 0.8260306,1.852083 1.8520836,1.852083 h 19.05 c 1.026053,0 1.852083,-0.82603 1.852083,-1.852083 V 11.377083 c 0,-1.026053 -0.82603,-1.8520829 -1.852083,-1.8520829 z m 25.4,0 c -1.026053,0 -1.852083,0.8260299 -1.852083,1.8520829 v 19.050001 c 0,1.026053 0.82603,1.852083 1.852083,1.852083 h 19.05 c 1.026053,0 1.852084,-0.82603 1.852084,-1.852083 V 11.377083 c 0,-1.026053 -0.826031,-1.8520829 -1.852084,-1.8520829 z m -25.4,25.3999999 c -1.026053,0 -1.8520836,0.826031 -1.8520836,1.852084 v 19.05 c 0,1.026053 0.8260306,1.852083 1.8520836,1.852083 h 19.05 c 1.026053,0 1.852083,-0.82603 1.852083,-1.852083 v -19.05 c 0,-1.026053 -0.82603,-1.852084 -1.852083,-1.852084 z" />
  <rect
     style="fill:#73c48f;fill-opacity:1;stroke-width:0.529167;stroke-linejoin:round"
     id="rect1076"
     width="22.754166"
     height="22.754166"
     x="35.189583"
     y="34.925003"
     ry="1.8520833" />
  <path
     d="m 22.225,12.964583 v 6.879168 h 6.879167 v 2.116667 H 22.225 v 6.879167 h -2.116667 v -6.879167 h -6.879166 v -2.116667 h 6.879166 v -6.879168 z m 31.485416,2.248959 -5.68854,5.688542 5.68854,5.688542 -1.455208,1.455209 -5.688541,-5.688542 -5.688542,5.688542 -1.455208,-1.455209 5.688542,-5.688542 -5.688542,-5.688542 1.455208,-1.455209 5.688542,5.688543 5.688541,-5.688543 z m -34.13125,25.003126 h 3.175001 v 2.910417 h -3.175001 z m 0,9.260417 h 3.175001 v 2.910418 h -3.175001 z m -6.349999,-4.233333 h 15.875 v 2.116667 h -15.875 z M 39.158334,42.597918 H 53.975 v 2.116667 H 39.158334 Z m 0,5.291667 H 53.975 v 2.116667 H 39.158334 Z"
     style="opacity:0.2;fill:#000000;stroke-width:0.264583"
     id="path1438" />
  <path
     d="m 22.225001,12.7 v 6.879167 h 6.879167 v 2.116667 h -6.879167 v 6.879167 h -2.116667 v -6.879167 h -6.879167 v -2.116667 h 6.879167 V 12.7 Z m 31.485417,2.248959 -5.688541,5.688541 5.688541,5.688542 -1.455208,1.455209 -5.688542,-5.688542 -5.688542,5.688542 -1.455208,-1.455209 5.688542,-5.688542 -5.688542,-5.688541 1.455208,-1.455209 5.688542,5.688542 5.688542,-5.688542 z M 19.579167,39.952084 h 3.175001 v 2.910417 h -3.175001 z m 0,9.260417 h 3.175001 v 2.910417 h -3.175001 z m -6.35,-4.233333 h 15.875001 v 2.116667 H 13.229167 Z m 25.929168,-2.645834 h 14.816667 v 2.116667 H 39.158335 Z m 0,5.291667 h 14.816667 v 2.116667 H 39.158335 Z"
     style="fill:#ffffff;stroke-width:0.264583"
     id="path1409"
     sodipodi:nodetypes="ccccccccccccccccccccccccccccccccccccccccccccccccccc" />
</svg>
