<?xml version="1.0" encoding="UTF-8" standalone="no"?>
<!-- Created with Inkscape (http://www.inkscape.org/) -->

<svg
   width="256"
   height="256"
   viewBox="0 0 67.733332 67.733336"
   version="1.1"
   id="svg1099"
   inkscape:version="1.2 (dc2aedaf03, 2022-05-15)"
   sodipodi:docname="applications-utilities.svg"
   xmlns:inkscape="http://www.inkscape.org/namespaces/inkscape"
   xmlns:sodipodi="http://sodipodi.sourceforge.net/DTD/sodipodi-0.dtd"
   xmlns="http://www.w3.org/2000/svg"
   xmlns:svg="http://www.w3.org/2000/svg">
  <sodipodi:namedview
     id="namedview1101"
     pagecolor="#ffffff"
     bordercolor="#666666"
     borderopacity="1.0"
     inkscape:pageshadow="2"
     inkscape:pageopacity="0.0"
     inkscape:pagecheckerboard="0"
     inkscape:document-units="px"
     showgrid="false"
     units="px"
     inkscape:zoom="2.2483786"
     inkscape:cx="85.394871"
     inkscape:cy="132.53996"
     inkscape:window-width="1846"
     inkscape:window-height="1011"
     inkscape:window-x="0"
     inkscape:window-y="0"
     inkscape:window-maximized="1"
     inkscape:current-layer="svg1099"
     inkscape:showpageshadow="2"
     inkscape:deskcolor="#d1d1d1"
     showguides="false" />
  <defs
     id="defs1096" />
  <rect
     style="opacity:1;fill:#9c27b0;fill-opacity:1;stroke-width:0.529167;stroke-linecap:round"
     id="rect934"
     width="55.033333"
     height="55.033333"
     x="6.3499999"
     y="6.3499999"
     ry="4.3656249" />
  <path
     id="rect1388"
     style="opacity:0.5;fill:#000000;stroke-width:0.529167;stroke-linejoin:bevel"
     d="M 10.715625 6.3500001 C 8.2970713 6.3500001 6.3500001 8.2970713 6.3500001 10.715625 L 6.3500001 57.017709 C 6.3500001 59.436263 8.2970713 61.383334 10.715625 61.383334 L 57.017709 61.383334 C 59.436263 61.383334 61.383334 59.436263 61.383334 57.017709 L 61.383334 10.715625 C 61.383334 8.2970713 59.436263 6.3500001 57.017709 6.3500001 L 10.715625 6.3500001 z M 10.847917 6.6145834 L 56.885417 6.6145834 C 59.230682 6.6145834 61.118751 8.5026523 61.118751 10.847917 L 61.118751 55.827084 C 61.118751 58.172348 59.230682 60.060417 56.885417 60.060417 L 10.847917 60.060417 C 8.5026523 60.060417 6.6145834 58.172348 6.6145834 55.827084 L 6.6145834 10.847917 C 6.6145834 8.5026523 8.5026523 6.6145834 10.847917 6.6145834 z " />
  <path
     d="m 26.9875,21.43125 c -2.638426,0 -4.7625,2.124074 -4.7625,4.7625 v 15.875 c 0,2.638422 2.124074,4.7625 4.7625,4.7625 2.638424,0 4.7625,-2.124078 4.7625,-4.7625 v -15.875 c 0,-2.638426 -2.124076,-4.7625 -4.7625,-4.7625 z m 3.489198,0 c 1.393828,1.131888 2.331642,2.844802 2.331642,4.7625 v 1.587498 h 3.377562 c -0.11748,-1.735134 1.98279,-3.174996 3.175,-3.174996 1.079502,0 1.587504,0.0192 1.587504,1.587498 v 1.587498 h 1.93476 c 1.949452,-0.952496 2.825674,-3.12658 2.825674,-4.2664 0,-1.166818 -3.786982,-2.083598 -5.853906,-2.083598 z m 2.331642,7.40834 v 6.879158 c 4.391008,4.224338 9.723434,3.704178 9.723434,3.704178 0,0 0.559974,-2.330244 -3.026172,-6.314868 l -3.77031,-4.268468 z m 4.723224,4.022484 2.670636,2.751264 c -2.855912,0.26193 -3.412,-1.354264 -2.670636,-2.751264 z"
     id="path14303"
     style="opacity:0.2;fill:#000000;stroke-width:1.05833"
     sodipodi:nodetypes="ssssssscsccssccsscccccccccc" />
  <path
     d="m 26.9875,21.166667 c -2.638424,0 -4.7625,2.124076 -4.7625,4.7625 v 15.875 c 0,2.638424 2.124076,4.7625 4.7625,4.7625 2.638424,0 4.7625,-2.124076 4.7625,-4.7625 v -15.875 c 0,-2.638424 -2.124076,-4.7625 -4.7625,-4.7625 z m 3.4892,0 c 1.393824,1.131888 2.33164,2.8448 2.33164,4.7625 v 1.5875 h 3.377564 c -0.11748,-1.735136 1.982788,-3.175 3.175,-3.175 1.0795,0 1.5875,0.0192 1.5875,1.5875 v 1.5875 h 1.934764 c 1.949452,-0.9525 2.825672,-3.126584 2.825672,-4.266408 0,-1.166812 -3.78698,-2.083592 -5.853908,-2.083592 z m 2.33164,7.408336 v 6.879164 c 4.391008,4.224336 9.723436,3.704176 9.723436,3.704176 0,0 0.559972,-2.330244 -3.026172,-6.314868 l -3.770312,-4.268472 z m 4.723224,4.022488 2.670636,2.751264 c -2.855916,0.26192 -3.412,-1.354264 -2.670636,-2.751264 z"
     style="fill:#ffffff;stroke-width:1.05833"
     id="path16152" />
</svg>
