<?xml version="1.0" encoding="UTF-8" standalone="no"?>
<!-- Created with Inkscape (http://www.inkscape.org/) -->

<svg
   width="256"
   height="256"
   viewBox="0 0 67.733332 67.733336"
   version="1.1"
   id="svg1099"
   inkscape:version="1.2 (dc2aedaf03, 2022-05-15)"
   sodipodi:docname="applications-educations.svg"
   xmlns:inkscape="http://www.inkscape.org/namespaces/inkscape"
   xmlns:sodipodi="http://sodipodi.sourceforge.net/DTD/sodipodi-0.dtd"
   xmlns="http://www.w3.org/2000/svg"
   xmlns:svg="http://www.w3.org/2000/svg">
  <sodipodi:namedview
     id="namedview1101"
     pagecolor="#ffffff"
     bordercolor="#666666"
     borderopacity="1.0"
     inkscape:pageshadow="2"
     inkscape:pageopacity="0.0"
     inkscape:pagecheckerboard="0"
     inkscape:document-units="px"
     showgrid="false"
     units="px"
     inkscape:zoom="2.8284271"
     inkscape:cx="117.5565"
     inkscape:cy="79.372737"
     inkscape:window-width="1846"
     inkscape:window-height="1011"
     inkscape:window-x="0"
     inkscape:window-y="0"
     inkscape:window-maximized="1"
     inkscape:current-layer="svg1099"
     inkscape:showpageshadow="2"
     inkscape:deskcolor="#d1d1d1"
     showguides="false" />
  <defs
     id="defs1096" />
  <rect
     style="opacity:1;fill:#2e7153;fill-opacity:1;stroke-width:0.529167;stroke-linecap:round"
     id="rect934"
     width="55.033333"
     height="55.033333"
     x="6.3499999"
     y="6.3499999"
     ry="4.3656249" />
  <path
     id="rect1388"
     style="opacity:0.5;fill:#000000;stroke-width:0.529167;stroke-linejoin:bevel"
     d="M 10.715625 6.3500001 C 8.2970713 6.3500001 6.3500001 8.2970713 6.3500001 10.715625 L 6.3500001 57.017709 C 6.3500001 59.436263 8.2970713 61.383334 10.715625 61.383334 L 57.017709 61.383334 C 59.436263 61.383334 61.383334 59.436263 61.383334 57.017709 L 61.383334 10.715625 C 61.383334 8.2970713 59.436263 6.3500001 57.017709 6.3500001 L 10.715625 6.3500001 z M 10.847917 6.6145834 L 56.885417 6.6145834 C 59.230682 6.6145834 61.118751 8.5026523 61.118751 10.847917 L 61.118751 55.827084 C 61.118751 58.172348 59.230682 60.060417 56.885417 60.060417 L 10.847917 60.060417 C 8.5026523 60.060417 6.6145834 58.172348 6.6145834 55.827084 L 6.6145834 10.847917 C 6.6145834 8.5026523 8.5026523 6.6145834 10.847917 6.6145834 z " />
  <path
     d="m 42.113594,27.852247 c 0,0.04938 -0.0208,0.09034 -0.06212,0.12296 h -0.12296 l 0.04892,-0.07404 c 0.0248,-0.04052 0.07008,-0.05686 0.1362,-0.04892 z m 7.193944,9.810527 c 0,0.205376 -0.11108,0.415162 -0.3332,0.629354 -0.22212,0.19744 -0.3332,0.407232 -0.3332,0.629354 l -0.08596,-0.0118 h -0.04896 c -0.04948,0 -0.08636,-0.0162 -0.11104,-0.04892 l 0.12296,-0.09916 c -0.04948,-0.1146 -0.13176,-0.17188 -0.24728,-0.17188 -0.0652,0 -0.13088,0.0162 -0.197,0.04892 l -0.22212,0.09784 c -0.07404,0.03348 -0.11504,0.0996 -0.12296,0.19832 v 0.14808 l 0.0608,0.06082 c -0.0324,0.0088 -0.0652,0.0132 -0.09784,0.0132 h -0.07404 c -0.0336,0 -0.08284,-0.0088 -0.14808,-0.02644 -0.05816,-0.0238 -0.10756,-0.07272 -0.14808,-0.14676 l -0.22212,0.197 c -0.0908,0.05728 -0.16924,0.08594 -0.23536,0.08594 -0.04948,0 -0.10664,-0.02028 -0.17192,-0.06082 -0.04948,-0.0176 -0.0908,-0.0136 -0.12428,0.0118 -0.0244,0.02468 -0.0368,0.07404 -0.0368,0.14808 v 0.1851 l -0.567136,-0.346388 c -0.1146,0.214196 -0.2834,0.321288 -0.506396,0.321288 -0.09872,0 -0.26708,-0.02864 -0.505068,-0.08594 l -0.506392,-0.08726 -0.18512,0.0132 -0.28428,-0.284264 c -0.06524,0 -0.1146,0.04498 -0.14808,0.13486 l -0.07404,0.210228 0.06212,0.06214 -0.06212,0.06082 c -0.09888,-0.22214 -0.28792,-0.390496 -0.567348,-0.505086 -0.2794,-0.1234 -0.563248,-0.1851 -0.85148,-0.1851 -0.0908,-0.04938 -0.19788,-0.17718 -0.32128,-0.383428 -0.09872,-0.213308 -0.2014,-0.319964 -0.30808,-0.319964 -0.07404,0 -0.14808,0.02468 -0.22212,0.07404 -0.04936,-0.04938 -0.12736,-0.04938 -0.23404,0 l -0.19832,0.07404 c -0.05728,0 -0.10224,-0.05728 -0.13484,-0.17188 -0.15688,0 -0.37904,-0.0908 -0.666376,-0.272368 -0.280304,-0.18158 -0.486122,-0.272372 -0.617456,-0.272372 l -0.19832,0.03704 c 0.07492,-0.09872 0.11238,-0.19304 0.11238,-0.282944 0,-0.0899 -0.09872,-0.230056 -0.296168,-0.420448 -0.19744,-0.19744 -0.283824,-0.382548 -0.259144,-0.555312 -0.1895,0 -0.284264,0.08638 -0.284264,0.259144 l 0.0132,0.1851 c 0,0.08286 0.008,0.14456 0.0238,0.1851 l -0.03704,0.1613 c -0.1146,-0.03348 -0.18466,-0.16924 -0.210228,-0.407232 0,-0.23094 -0.0661,-0.37902 -0.19832,-0.44425 l 0.284264,-0.284264 c -0.10578,-0.03264 -0.200088,-0.05728 -0.282948,-0.07404 -0.08286,-0.0168 -0.17762,-0.02512 -0.284264,-0.02512 l -0.02512,-0.1851 c 0,-0.09872 0.02072,-0.222124 0.06214,-0.370208 l 0.06214,-0.345088 c 0,-0.0908 -0.02072,-0.1732 -0.06214,-0.247248 -0.02468,-0.07404 -0.0908,-0.15204 -0.19832,-0.234024 0.02552,-0.02468 0.04628,-0.08638 0.06214,-0.1851 l -0.0238,-0.259144 c -0.1569,-0.04938 -0.235348,-0.14412 -0.235348,-0.284264 l 0.07404,-0.44425 c -0.02468,-0.05728 -0.04498,-0.09828 -0.06082,-0.12296 -0.14016,0.02468 -0.238876,0.1071 -0.296168,0.247248 l -0.14808,0.383428 -0.05024,-0.211548 c 0,-0.0899 0.05774,-0.217276 0.1732,-0.382112 0.1234,-0.16484 0.1851,-0.283824 0.1851,-0.356988 l -0.02512,-0.12428 0.1613,0.03704 c 0.03264,-0.02468 0.06126,-0.07008 0.08594,-0.13618 l 0.02512,-0.197 v -0.17188 c 0,-0.0908 0.0122,-0.16924 0.03704,-0.235348 0.02468,-0.0661 0.0908,-0.10314 0.19832,-0.11106 0.04848,-0.04142 0.08506,-0.08682 0.10974,-0.13618 0.03264,-0.05728 0.04892,-0.13926 0.04892,-0.24592 -0.02468,-0.08286 -0.08198,-0.12428 -0.17188,-0.12428 -0.07404,0 -0.13178,0.0088 -0.1732,0.02644 l -0.09916,0.03568 c 0.02468,-0.1146 0.14412,-0.26664 0.358308,-0.456148 0.222124,-0.1895 0.333188,-0.36624 0.333188,-0.530192 0,-0.09872 -0.02072,-0.1895 -0.06214,-0.272368 h 0.09916 c 0,0.19744 0.0084,0.362276 0.02512,0.494492 0.02468,0.1234 0.11106,0.209788 0.259144,0.259144 0.13926,0.02468 0.221244,-0.04582 0.245924,-0.211548 0.02468,-0.17188 0.09872,-0.270164 0.222124,-0.294844 l 0.02644,-0.13618 c 0,-0.04938 -0.02512,-0.14368 -0.07536,-0.282944 l -0.07404,-0.211549 c 0,-0.08108 0.02072,-0.1428 0.06214,-0.1851 l -0.02512,0.12428 c 0,0.1146 0.0617,0.230057 0.1851,0.346413 l 0.345084,0.282944 c 0.11546,-0.07404 0.218596,-0.18906 0.309392,-0.345084 0.09872,-0.156021 0.16484,-0.324813 0.19832,-0.506393 -0.0088,-0.04142 -0.05464,-0.0824 -0.13752,-0.12296 -0.07404,-0.04142 -0.1234,-0.09476 -0.14808,-0.15998 0.0908,-0.04142 0.1732,-0.02112 0.247244,0.06082 l 0.22212,0.222124 0.28428,-0.345088 0.0608,0.06214 c 0.04936,-0.03348 0.0824,-0.0996 0.09916,-0.19832 l -0.04892,-0.319964 c 0,-0.08286 0.05728,-0.1406 0.17188,-0.1732 l 0.06212,0.691496 c 0.09872,0.008 0.16044,-0.05818 0.18512,-0.19832 0.0328,-0.14808 0.06568,-0.238432 0.09916,-0.271044 l 0.20888,0.0118 c 0.1234,0 0.22212,-0.0122 0.29616,-0.03704 0.07404,-0.03264 0.11548,-0.09432 0.12428,-0.1851 l -0.0252,-0.11106 c -0.0328,-0.14808 0.0292,-0.234464 0.18512,-0.259144 0.156,-0.03264 0.25076,-0.08198 0.28428,-0.14808 l 0.11108,0.19832 c 0.016,0.0158 0.07316,0.0238 0.17188,0.0238 l 0.06212,-0.383428 c 0.04144,0.02552 0.08684,0.0136 0.1362,-0.03568 l 0.14808,-0.14808 v -0.06214 c 0.05728,0 0.13928,0.02864 0.24592,0.08594 l 0.25916,0.09916 c 0.07404,-0.04142 0.13576,-0.12386 0.18512,-0.247248 0.04936,-0.13222 0.10312,-0.218596 0.16132,-0.259144 l -0.0132,0.222124 c 0,0.09872 0.0376,0.17276 0.1124,0.222124 0.1322,0.02468 0.22652,-0.02864 0.28296,-0.15998 v -0.06214 l 0.22212,0.210228 c 0.04144,0.02468 0.08284,0.03704 0.12428,0.03704 0.016,0 0.05684,-0.0084 0.12296,-0.02512 0.0248,-0.13926 0.13176,-0.26708 0.32128,-0.383428 0.19744,-0.1234 0.31248,-0.20538 0.34508,-0.245928 0.16484,-0.03264 0.2596,0.02908 0.28428,0.1851 l 0.0608,0.395328 c 0.0176,-0.0088 0.03,-0.0172 0.0368,-0.02512 0.04948,-0.04142 0.11104,-0.1115 0.18508,-0.210228 0.04948,0.11546 0.17276,0.1732 0.3702,0.1732 l 0.13616,-0.0118 0.06212,-0.03704 c 0.04948,0.04142 0.07408,0.0952 0.07408,0.1613 0,0.06522 -0.04948,0.18422 -0.14808,0.356988 -0.09876,0.14808 -0.14808,0.246808 -0.14808,0.296168 0,0.04938 0.0368,0.07404 0.11108,0.07404 l 0.23404,-0.03704 0.04896,0.13618 c -0.008,0.008 -0.012,0.0162 -0.012,0.02512 -0.04048,0.03264 -0.10224,0.06964 -0.18508,0.11106 -0.12336,0.03264 -0.18908,0.0899 -0.197,0.17188 h -0.15996 c -0.0164,-0.02468 -0.0288,-0.04538 -0.0368,-0.06214 -0.0336,-0.04052 -0.08284,-0.09344 -0.14808,-0.15866 -0.1146,0.13926 -0.22568,0.208904 -0.3332,0.208904 -0.04948,0 -0.12784,-0.02864 -0.23536,-0.08594 -0.08196,-0.0661 -0.18072,-0.11546 -0.29616,-0.14808 l -0.3702,-0.05024 c -0.05728,0 -0.13132,0.0044 -0.22212,0.0132 -0.08196,0.007 -0.17232,0.0234 -0.27104,0.04892 l -0.641256,0.11106 c -1.045364,0.550906 -1.839548,1.035702 -2.38252,1.454391 -0.534156,0.420452 -0.801236,0.975764 -0.801236,1.66594 l -0.19832,-0.03568 c -0.1234,0 -0.20538,0.1234 -0.245928,0.370208 0,0.222124 -0.02072,0.361836 -0.06214,0.419128 0.04142,0.1234 0.06214,0.251212 0.06214,0.383428 0,0.15602 -0.04142,0.373736 -0.12428,0.653154 -0.07404,0.271488 -0.11106,0.460996 -0.11106,0.568534 0,0.1146 0.0168,0.217276 0.05024,0.308068 0.03264,0.08198 0.10666,0.1807 0.222124,0.296168 -0.0088,0.1146 0.0036,0.208904 0.03704,0.282948 l 0.370208,0.309394 c 0.19744,0.13222 0.35788,0.358308 0.481268,0.678274 0.1322,0.312912 0.28824,0.46937 0.468048,0.46937 l 0.18512,-0.03704 c 0.10752,0.18862 0.4037,0.378144 0.8885,0.568536 0.485676,0.17982 0.79022,0.422212 0.91362,0.727194 0.0908,0.02468 0.15248,-0.004 0.18512,-0.08594 0.0088,-0.04142 0.0212,-0.08286 0.0372,-0.12428 0.0088,0 0.0172,-0.004 0.0252,-0.0118 l 1.060384,0.309392 c 0.542972,0.13926 0.946232,0.287352 1.209784,0.44425 0.07408,-0.11546 0.17276,-0.19392 0.2962,-0.235348 0.12336,-0.04052 0.26748,-0.06082 0.432356,-0.06082 h 0.25916 l 0.40722,-0.03704 c 0.10664,-0.02468 0.20932,-0.0908 0.30808,-0.19832 0.26356,-0.13222 0.420016,-0.32966 0.469388,-0.592332 l 0.09916,-0.703404 c 0.07404,0.07404 0.14368,0.11504 0.20888,0.12296 0.05728,0 0.15208,-0.09034 0.28424,-0.271048 l 0.23404,-0.296168 c -0.0244,-0.14016 0.0288,-0.234908 0.16132,-0.284264 l 0.27104,0.679596 c 0.09876,0.222124 0.14808,0.435876 0.14808,0.641254 0,0.1146 -0.0244,0.254296 -0.07404,0.41913 z m -11.513484,-2.59146 c -0.02468,0.02468 -0.04098,0.04538 -0.04892,0.06214 0,0.008 -0.004,0.02028 -0.0118,0.03704 l -0.06214,-0.222124 z m -0.06082,0.383428 h -0.06214 v -0.06214 h 0.06214 z m 1.480834,1.8246 h -0.06214 v -0.1851 h 0.06214 z m 6.243298,-9.364955 -0.08596,-0.14808 c -0.0248,-0.08286 -0.07008,-0.12826 -0.1362,-0.13618 l -0.06084,0.15998 c 0.04052,0.04938 0.09388,0.09476 0.15996,0.13618 0.04936,0.0168 0.09036,0.0128 0.12296,-0.0118 z m -6.74969,3.688867 h -0.1851 l 0.12296,0.09916 0.05024,-0.06214 z m -0.247244,0.950642 c -0.04938,0 -0.1027,0.02864 -0.15998,0.08594 l -0.06214,0.09916 h 0.12428 l 0.08594,-0.09916 z m 1.258708,0.85148 c -0.03264,-0.03264 -0.0736,-0.04498 -0.12296,-0.03704 v 0.321288 c 0.0661,-0.02468 0.10314,-0.07008 0.11106,-0.13618 z m -1.011464,0.691496 v -0.12428 h -0.06214 v 0.12428 z m -0.1851,1.35655 h -0.09916 v 0.1851 l 0.06214,-0.06082 z m 10.402854,1.542976 c -0.06612,-0.02468 -0.10708,-0.04538 -0.12296,-0.06214 -0.08284,0.04938 -0.13224,0.09476 -0.14808,0.13618 -0.0244,0.02468 -0.0368,0.07008 -0.0368,0.13618 l 0.0608,0.13486 h 0.06212 l 0.14788,-0.17188 c 0.0324,-0.04938 0.04496,-0.1071 0.0368,-0.1732 z m 0,0.85148 v -0.12296 c -0.0244,-0.02468 -0.08636,-0.04538 -0.18508,-0.06214 -0.0168,0.05728 -0.0084,0.10666 0.0248,0.14808 0.0324,0.03264 0.08596,0.04498 0.15996,0.03704 z m -4.787588,0.506392 c -0.04144,0 -0.07052,0.008 -0.08728,0.0238 l -0.07404,0.09916 c 0.0248,0.04938 0.06612,0.0617 0.12428,0.03704 l 0.0372,-0.07404 z m -1.420012,0.15998 -0.04892,-0.13618 c -0.04144,-0.0158 -0.07844,-0.0238 -0.11104,-0.0238 v 0.222124 c 0.08196,0 0.13532,-0.02072 0.16,-0.06214 z M 35.912604,27.931573 c -0.04142,0.02468 -0.0824,0.03704 -0.12296,0.03704 -0.02468,0 -0.0617,-0.0084 -0.11106,-0.02512 l -0.1613,-0.12296 c -0.06522,-0.05732 -0.12252,-0.11066 -0.17188,-0.16002 h 0.17188 c 0,0.06522 0.05774,0.12252 0.1732,0.17188 0.1146,0.02468 0.18862,0.05774 0.222124,0.09916 z m 0.247244,5.319105 -0.13618,0.0238 v -0.13486 c 0.02468,0.008 0.04538,0.02028 0.06214,0.03704 z m 0.653156,-3.924211 c -0.02468,-0.04938 -0.04498,-0.07844 -0.06082,-0.08726 l -0.07404,-0.06082 -0.12428,0.0238 c -0.07404,0 -0.16042,-0.0617 -0.259144,-0.1851 -0.03264,-0.04938 -0.07758,-0.09432 -0.13486,-0.13486 -0.0168,-0.0088 -0.03748,-0.02552 -0.06214,-0.05024 -0.05728,0 -0.119,0.03304 -0.1851,0.09916 l 0.1851,0.44425 c 0.02468,0.0661 0.04538,0.1688 0.06214,0.308068 0.03264,-0.07404 0.09432,-0.13134 0.1851,-0.17188 l 0.44425,-0.04892 -0.06214,0.222124 -0.308068,0.08594 0.11106,0.12296 c 0.02468,0.02468 0.03704,0.06568 0.03704,0.12296 l -0.03704,0.124281 -0.09916,-0.03704 c -0.02468,-0.0168 -0.06568,-0.02512 -0.12296,-0.02512 l -0.14808,0.14808 0.1851,0.14808 c 0.0899,0.04938 0.13486,0.1234 0.13486,0.222124 -0.13926,0.04938 -0.30366,0.16042 -0.493172,0.333188 l -0.580434,0.54209 -0.06082,0.247248 0.17188,0.02512 -0.568534,0.432352 -0.12164,-0.235348 c -0.03348,-0.05728 -0.0952,-0.06522 -0.1851,-0.0238 l -0.14808,0.19702 h -0.11106 c 0.04938,-0.0908 0.0162,-0.14808 -0.09916,-0.17188 l -0.210228,-0.07536 -0.04892,0.1732 0.03704,0.17188 0.12296,0.211548 c 0.03348,0.03264 0.06654,0.04892 0.09916,0.04892 l 0.09916,0.0118 0.11106,-0.1732 h 0.14808 c 0.02468,0.14016 -0.02908,0.288232 -0.1613,0.44425 -0.13134,0.15602 -0.197,0.26708 -0.197,0.333188 0,0.05728 0.0162,0.119 0.04892,0.1851 l 0.247244,0.259144 c 0.14808,-0.0908 0.222124,-0.238876 0.222124,-0.44425 l 0.03704,-0.345088 h 0.247244 c 0.0158,0.04052 0.0282,0.1146 0.03704,0.222124 0.0158,0.09872 0.0238,0.209788 0.0238,0.333188 0,0.262672 0.0661,0.48039 0.19832,0.653154 l -0.03704,0.284264 c 0,0.09872 0.04938,0.17276 0.14808,0.222124 l 0.09784,-0.12296 0.05024,-0.222124 -0.0132,-0.247248 c 0,-0.15602 0.07844,-0.234024 0.235348,-0.234024 l 0.11106,0.0118 0.11106,0.04892 0.11106,0.08594 c -0.09872,0.02468 -0.17674,0.08198 -0.234024,0.17188 -0.04142,0.0996 -0.06214,0.21948 -0.06214,0.359632 v 0.197 l 0.04892,0.259144 c 0.14808,0.04142 0.222124,0.1115 0.222124,0.210228 0,0.06522 -0.04498,0.15558 -0.13486,0.271048 l -0.13618,0.19832 0.11106,0.0106 0.247244,-0.03704 v -0.06082 h 0.06082 v 0.431028 c -0.02468,-0.06522 -0.07404,-0.09784 -0.14808,-0.09784 -0.04938,0 -0.08638,0.03264 -0.11106,0.09784 l 0.08726,0.247248 c -0.13222,0 -0.210668,0.09034 -0.235348,0.271048 0,0.14808 -0.02468,0.25518 -0.07404,0.321288 -0.04938,-0.07404 -0.07404,-0.15204 -0.07404,-0.234024 l 0.03704,-0.235348 0.05024,-0.271048 c 0,-0.14808 -0.09872,-0.222124 -0.296168,-0.222124 l -0.247248,0.234024 c -0.04142,0.04938 -0.06214,0.1234 -0.06214,0.222124 l 0.14808,0.08726 c 0.08286,0.02468 0.13662,0.0617 0.1613,0.11106 L 35.25951,36.78991 c -0.07404,0.1234 -0.11106,0.2424 -0.11106,0.356988 0,0.1146 0.04498,0.217716 0.13486,0.309392 0,0.05728 -0.02864,0.12736 -0.08594,0.210228 l -0.15998,0.1851 c -0.02468,-0.04142 -0.03704,-0.08682 -0.03704,-0.13618 l 0.03704,-0.19832 0.04892,-0.232704 c 0,-0.09872 -0.0661,-0.16484 -0.19832,-0.19832 -0.0238,0.02468 -0.08108,0.14016 -0.17188,0.346412 -0.05728,0.17276 -0.16836,0.246808 -0.333188,0.222124 0,0.13926 -0.02468,0.295284 -0.07404,0.468046 l -0.17188,0.542092 -0.06214,-0.15866 c -0.02468,-0.08286 -0.07008,-0.1406 -0.13618,-0.1732 -0.03264,0.0168 -0.05332,0.07404 -0.06214,0.17188 0,0.08286 -0.03704,0.13662 -0.11106,0.1613 l -0.0992,-0.0859 c -0.03264,-0.02468 -0.06522,-0.0168 -0.09784,0.0238 -0.07404,0.04142 -0.13134,0.12782 -0.17188,0.259144 -0.04232,0.13222 -0.10402,0.202292 -0.1851,0.210228 l -0.1494,-0.03704 c -0.03264,0.1234 -0.1807,0.19744 -0.44425,0.222124 -0.246804,0 -0.382552,0.09476 -0.40723,0.284264 -0.03264,-0.0176 -0.05332,-0.05068 -0.06214,-0.09916 l 0.05024,-0.247244 c 0,-0.06522 -0.05378,-0.10224 -0.1613,-0.11106 -0.07404,-0.02468 -0.16438,0.0122 -0.271048,0.11106 -0.09872,0.09872 -0.17674,0.15602 -0.234024,0.17188 l -0.06214,-0.50507 -0.11106,-0.03704 c -0.05728,0 -0.14368,0.02908 -0.259144,0.08726 l -0.210228,0.07404 c -0.08198,0 -0.12296,-0.08638 -0.12296,-0.259144 l -0.07404,-0.08726 -0.06214,-0.03704 -0.11106,0.12428 c 0.0168,0.0158 0.02512,0.03612 0.02512,0.06082 0.008,0.02468 0.0162,0.04142 0.02512,0.05024 l -0.13618,0.08594 c 0.02468,-0.1234 -0.03704,-0.234464 -0.1851,-0.333188 -0.14016,-0.09872 -0.222565,-0.1851 -0.247249,-0.259144 -0.1234,0.03264 -0.18906,0.10224 -0.197,0.208904 l 0.02512,0.13618 0.0238,0.15998 c 0,0.08286 -0.05288,0.14896 -0.15866,0.19832 -0.09166,-0.02468 -0.14984,-0.15248 -0.17452,-0.383428 0,-0.237992 -0.11106,-0.336716 -0.333188,-0.296168 -0.0158,0.10752 -0.04452,0.19392 -0.08594,0.259144 -0.04142,0.0661 -0.10752,0.08286 -0.19832,0.05024 l 0.02644,-0.13618 -0.05024,-0.234024 -0.03704,-0.284264 0.03704,-0.1851 c 0.02468,-0.04938 0.09872,-0.10666 0.222124,-0.17188 l -0.0118,-0.1732 0.0132,-0.19832 c 0,-0.13134 -0.05378,-0.225652 -0.1613,-0.282948 h -0.19832 l 0.07536,-0.210228 c 0.02468,-0.05728 0.06568,-0.09034 0.12296,-0.09916 l -0.06212,-0.419104 c -0.008,-0.13222 -0.02424,-0.247248 -0.04892,-0.345088 -0.0168,-0.09872 -0.04538,-0.1851 -0.08594,-0.259144 0.07404,0 0.13574,-0.02908 0.1851,-0.08726 0.05728,-0.06522 0.09828,-0.13926 0.12296,-0.222124 -0.0088,-0.0899 0.0036,-0.221246 0.03704,-0.39401 0.04938,-0.14808 0.07404,-0.255176 0.07404,-0.321288 0,-0.07404 -0.0162,-0.14412 -0.04892,-0.210228 l -0.12428,-0.17188 c 0.0908,-0.07404 0.13618,-0.1688 0.13618,-0.284264 0,-0.05728 -0.04098,-0.16438 -0.12296,-0.321288 L 28.878865,33.3589 c 0,-0.09872 0.05774,-0.19304 0.1732,-0.282944 -0.0168,-0.02468 -0.0661,-0.04538 -0.14808,-0.06214 l -0.11106,0.12296 v -0.19568 c 0.07404,0 0.12736,-0.03264 0.15998,-0.09784 l 0.09916,-0.222124 -0.14808,-0.309392 c 0.04938,-0.04052 0.08638,-0.11856 0.11106,-0.234024 0.02468,-0.1146 0.07404,-0.204936 0.14808,-0.271048 l -0.08594,-0.1613 c -0.02468,-0.08198 -0.07008,-0.13926 -0.13618,-0.17188 l -0.259144,0.07404 c 0,-0.04142 0.05728,-0.13222 0.17188,-0.272368 0.1234,-0.13926 0.19392,-0.24196 0.211548,-0.308068 0,-0.07404 -0.05378,-0.15204 -0.1613,-0.234024 l -0.0118,-0.40723 -0.02512,-0.309393 c 0,-0.1234 0.0122,-0.222124 0.03704,-0.296168 l -0.04892,-0.234024 -0.0118,-0.234024 c 0,-0.41957 0.11504,-0.781844 0.345084,-1.086826 0.13222,0.0168 0.276336,-0.03656 0.432352,-0.15998 0.15602,-0.13222 0.279416,-0.20626 0.370208,-0.222124 0.106661,0 0.217717,0.07008 0.333189,0.210228 0.04142,-0.0088 0.1115,-0.08286 0.210228,-0.222124 0.09872,-0.11546 0.1851,-0.18158 0.259144,-0.19832 0.05728,0 0.1353,0.03704 0.234024,0.11106 0.09872,0 0.18906,-0.06964 0.271048,-0.208904 0.08286,-0.14808 0.17364,-0.2305 0.272368,-0.247248 0.08198,0 0.15602,0.02072 0.222124,0.06214 0.02468,-0.04938 0.05728,-0.07844 0.09784,-0.08726 l 0.321288,0.13618 -0.03704,0.12296 c 0,0.0661 0.04538,0.12384 0.13618,0.1732 0.06522,0.0168 0.16394,0.02512 0.296168,0.02512 l 0.111,-0.17188 -0.235348,-0.08726 c -0.06522,-0.03348 -0.11018,-0.0908 -0.13486,-0.17188 l 0.11106,-0.02644 c 0.07404,0 0.17276,0.02908 0.296168,0.08726 l 0.271048,0.07404 c 0.05728,0 0.1234,-0.02468 0.19832,-0.07404 v 0.370208 l 0.13486,0.03704 c 0.07404,0 0.1688,-0.07008 0.284264,-0.210228 0.09872,-0.14808 0.1807,-0.222124 0.245924,-0.222124 0.07404,0 0.17276,0.07404 0.296168,0.222124 l 0.284264,-0.04894 h 0.1851 l 0.12296,-0.0132 -0.44425,0.235348 0.494492,0.19832 c 0.05728,0 0.119,-0.02072 0.1851,-0.06214 0,0.13926 0.11504,0.237992 0.345084,0.296168 0.237992,0.05728 0.40238,0.14764 0.493174,0.271048 0.20626,0.09872 0.383428,0.209788 0.531512,0.333188 0.14808,0.1234 0.283824,0.283824 0.407232,0.48127 z m -7.872221,5.442065 -0.08726,-0.247246 h 0.08726 z m 7.539035,0.14808 -0.259144,-0.06214 c 0.02468,-0.07404 0.04938,-0.12736 0.07404,-0.15998 0.03348,-0.04142 0.07052,-0.07052 0.11106,-0.08726 0.04938,0 0.07404,0.05378 0.07404,0.1613 z m -0.567214,1.911862 -0.0118,0.14808 c 0,0.0661 -0.0162,0.10314 -0.04892,0.11106 l -0.08726,-0.259144 z m -1.024684,1.64214 c -0.1146,0 -0.19656,-0.0661 -0.24592,-0.19832 l 0.24592,-0.06082 z M 32.999858,27.536239 c -0.03264,-0.03264 -0.04052,-0.06964 -0.0238,-0.11106 h -0.11106 v 0.1732 c 0.06522,0 0.11018,-0.02072 0.13486,-0.06214 z m 1.012784,0.19832 v -0.247248 h -0.272368 c -0.06522,0.07404 -0.06082,0.13574 0.0132,0.1851 0.07316,0.04938 0.1591,0.07008 0.257824,0.06214 z m -0.272368,0.568536 -0.0118,-0.1375 c 0,-0.0899 -0.0162,-0.1472 -0.04892,-0.17188 v 0.308068 z m 1.665938,0.306744 c -0.0158,-0.0158 -0.06522,-0.0322 -0.14808,-0.04892 v 0.19832 c 0.04938,-0.03348 0.0908,-0.07492 0.12428,-0.12428 0,-0.008 0.008,-0.0162 0.0238,-0.02512 z m -0.826358,0 -0.13618,0.346412 h 0.08726 l 0.11106,-0.272368 c -0.02468,-0.04938 -0.04538,-0.07404 -0.06214,-0.07404 z m 0.8766,0.76686 v -0.260468 c 0,-0.10666 -0.05774,-0.15998 -0.1732,-0.15998 l -0.07404,0.50507 c 0.04142,0.02468 0.0908,0.0168 0.14808,-0.0238 z m 0,0.343768 c -0.0908,0 -0.1569,0.03704 -0.19832,0.11106 h 0.14808 z m -0.370208,0.1613 h -0.13618 v 0.14808 l 0.11106,-0.02512 c 0.02468,0 0.03704,-0.0084 0.03704,-0.02512 0.008,-0.02468 0.004,-0.05728 -0.0118,-0.09784 z m -0.506392,0.259145 v 0.13486 h 0.11106 l 0.04892,-0.04892 c -0.008,-0.04938 -0.06126,-0.07802 -0.15998,-0.08594 z m -0.395328,0.568534 v -0.235348 l 0.0132,-0.247248 c 0,-0.214197 -0.02072,-0.378581 -0.06214,-0.493173 -0.03348,-0.1234 -0.11988,-0.2424 -0.259144,-0.356988 -0.14016,-0.05024 -0.263552,-0.12868 -0.370208,-0.235348 -0.10754,-0.10754 -0.17364,-0.218596 -0.19832,-0.333188 0,0.1234 -0.0162,0.1895 -0.04892,0.19832 -0.0168,-0.0996 -0.06214,-0.17408 -0.13618,-0.223448 -0.06522,-0.05728 -0.1472,-0.09034 -0.245928,-0.09916 -0.08286,0 -0.15294,0.04142 -0.210228,0.12428 l -0.407232,-0.14808 c -0.0908,-0.04142 -0.18114,-0.12384 -0.271048,-0.247248 -0.04938,-0.02468 -0.09872,-0.02072 -0.14808,0.0118 -0.04938,0.02468 -0.08638,0.07008 -0.11106,0.13618 -0.0661,0.06522 -0.14016,0.10622 -0.222124,0.12296 -0.07404,0 -0.18114,-0.0661 -0.321288,-0.19832 -0.1234,-0.13926 -0.20582,-0.217276 -0.247248,-0.234024 l -0.208904,0.296168 c -0.0661,0.14016 -0.1569,0.247244 -0.272368,0.321288 l 0.05024,0.19832 -0.05024,0.2208 -0.03704,0.235348 0.03704,0.15998 0.19832,-0.259144 c 0.09872,-0.1146 0.15602,-0.233584 0.17188,-0.356988 l 0.06214,0.09784 0.07404,0.09916 c -0.05728,0.03264 -0.1146,0.08198 -0.17188,0.14808 l -0.05024,0.15998 c 0,0.0661 0.04938,0.17718 0.14808,0.333188 0.09872,0.156021 0.14808,0.267081 0.14808,0.333189 0,0.0908 -0.09034,0.16086 -0.271048,0.210228 0.02468,-0.04938 0.05728,-0.07844 0.09784,-0.08726 l 0.1613,0.08726 c 0.04938,0.04938 0.09034,0.119 0.12296,0.208904 l 0.03704,0.235348 -0.02512,0.345084 -0.0238,0.259144 c 0.1146,0.03264 0.18422,0.16042 0.208904,0.383428 0,0.20538 0.0617,0.332748 0.1851,0.382108 0,-0.18158 0.03304,-0.29264 0.09916,-0.333188 0.07404,-0.04938 0.17276,-0.07404 0.296168,-0.07404 h 0.15998 c 0.08286,0 0.14896,-0.0122 0.19832,-0.03704 0.05728,-0.03348 0.09828,-0.10356 0.12296,-0.210228 l 0.12296,0.02512 c 0.0908,0 0.19788,-0.08638 0.321288,-0.259144 0.10666,-0.18158 0.230056,-0.272368 0.370208,-0.272368 l -0.0118,0.1851 0.03704,0.333188 0.03704,0.309392 -0.02512,0.1851 h 0.11106 v -0.05024 c 0.02468,-0.14808 0.1071,-0.234464 0.247244,-0.259144 0.02468,-0.03264 0.04538,-0.0855 0.06214,-0.15866 0,-0.13222 -0.0661,-0.210668 -0.19832,-0.235348 l -0.04892,-0.210228 c 0,-0.13222 0.04098,-0.25562 0.12296,-0.370208 l 0.259144,-0.356988 0.1732,0.197 c 0.03264,0.03264 0.09872,0.04498 0.19832,0.03704 z m -3.751008,-0.235348 c 0.02468,-0.04938 0.0084,-0.09872 -0.04892,-0.14808 l -0.12428,-0.09916 -0.08594,0.11106 c 0.04938,0.13222 0.13574,0.17762 0.259148,0.13618 z m 4.77569,0.234024 v -0.06214 c -0.02468,-0.04938 -0.0617,-0.0617 -0.11106,-0.03704 -0.03264,0.0176 -0.05332,0.05068 -0.06214,0.09916 z m -4.997814,0.02512 h -0.14808 v 0.14808 c 0,0.07404 0.03704,0.11106 0.11106,0.11106 0.03264,-0.03348 0.04892,-0.06654 0.04892,-0.09916 z m 4.541664,0.50507 c 0,-0.06522 -0.02072,-0.11018 -0.06214,-0.13486 v 0.19832 z m -3.986352,0.06214 c -0.02468,-0.13222 -0.07008,-0.202292 -0.13618,-0.210228 -0.06522,0 -0.1309,0.05378 -0.197,0.1613 -0.05728,0.10666 -0.078,0.20538 -0.06214,0.296168 0.0168,0.02468 0.02908,0.05332 0.03704,0.08594 0.0168,0.03264 0.03348,0.08198 0.05024,0.14808 0.0158,0.05728 0.07316,0.08594 0.17188,0.08594 l -0.0118,-0.222124 c 0,-0.08198 -0.0162,-0.15998 -0.04892,-0.234024 0.08198,-0.08198 0.14808,-0.119 0.19832,-0.11106 z m -0.814459,0.17188 h -0.08594 l 0.06082,0.13618 z m 1.123847,0.951964 c 0.0238,-0.05818 0.007,-0.0996 -0.05024,-0.12428 l -0.14808,-0.07404 c -0.05728,0.04142 -0.09034,0.09872 -0.09916,0.17188 l 0.05024,0.08726 0.15998,-0.0118 c 0.04938,-0.0168 0.078,-0.03304 0.08594,-0.04892 z m 0.394008,0.319964 -0.07404,-0.321288 0.04892,0.346412 z m -0.900398,0.247244 V 32.74426 h -0.11106 z m 2.739542,-0.247244 -0.06214,0.12296 c -0.02468,0.05818 -0.02072,0.0996 0.0118,0.12428 z m -3.554003,0.247244 v -0.17188 c -0.03348,-0.04232 -0.05818,-0.06346 -0.07404,-0.06346 l -0.12428,-0.0118 -0.11106,0.13618 c -0.02468,0.04142 -0.008,0.07844 0.05024,0.11106 z m 0.567213,0.50507 v -0.11104 c -0.04938,-0.03264 -0.08638,-0.04892 -0.11106,-0.04892 h -0.08594 c -0.02468,0.04938 -0.0122,0.09034 0.03704,0.12296 z m -0.568535,0.03704 h -0.06082 c -0.05728,0.02468 -0.09034,0.07844 -0.09916,0.1613 0,0.07404 0.02468,0.1234 0.07404,0.14808 z m 4.777013,0.75362 0.04892,-0.11106 -0.08594,-0.284264 c -0.04938,0.0661 -0.07404,0.14016 -0.07404,0.222124 0,0.07404 0.03704,0.13134 0.11106,0.17188 z m -4.011474,-0.02512 h -0.14808 l -0.04892,0.395328 h 0.13618 z m 4.257398,0.542084 v -0.257824 c -0.04052,-0.0168 -0.0692,-0.02512 -0.08594,-0.02512 v 0.284248 z m -4.971373,-0.456136 h -0.11238 l -0.03704,0.333188 -0.04892,0.259144 c 0,0.09872 0.04938,0.19348 0.14808,0.284264 0.07404,-0.07404 0.11106,-0.1688 0.11106,-0.284264 z m 4.527123,1.012784 0.02644,-0.1613 c 0,-0.13926 -0.05818,-0.324372 -0.17452,-0.555314 -0.03264,-0.08198 -0.06522,-0.1763 -0.09784,-0.282944 -0.03348,-0.1146 -0.05818,-0.205376 -0.07404,-0.272368 l -0.272368,0.03704 c -0.13926,0 -0.262672,-0.04098 -0.370208,-0.12296 l 0.0132,-0.14808 0.03568,-0.09916 c -0.08198,-0.02468 -0.16394,0.0084 -0.245928,0.09916 -0.08286,0.08198 -0.14896,0.13134 -0.19832,0.14808 -0.1234,-0.02468 -0.226092,-0.11504 -0.308068,-0.271048 -0.07404,-0.16484 -0.16042,-0.259584 -0.259144,-0.284264 l 0.06214,0.247248 c -0.14016,0.07404 -0.251212,0.11106 -0.333188,0.11106 -0.05818,0 -0.09122,-0.04142 -0.09916,-0.12428 l 0.03704,-0.234024 0.03704,-0.284264 c 0,-0.10578 -0.04098,-0.200088 -0.12296,-0.282944 0.07404,-0.07404 0.11106,-0.17276 0.11106,-0.296168 0,-0.0168 -0.0084,-0.02908 -0.02512,-0.03704 -0.008,-0.0168 -0.0162,-0.02908 -0.02512,-0.03704 -0.008,0.008 -0.02424,0.02028 -0.04892,0.03704 -0.02468,0.008 -0.06568,0.04498 -0.12296,0.11106 -0.05818,0.05728 -0.08726,0.13972 -0.08726,0.247248 0,0.07404 0.0168,0.15602 0.05024,0.245928 l 0.14808,0.234024 c 0,0.09872 -0.0661,0.15248 -0.19832,0.1613 h -0.197 c -0.07404,0 -0.1234,0.04938 -0.14808,0.14808 -0.04938,-0.04938 -0.09872,-0.12782 -0.14808,-0.235348 l -0.02512,-0.208904 -0.245928,0.282944 c 0.07404,0.07404 0.11106,0.15248 0.11106,0.235348 0,0.04142 -0.0617,0.11944 -0.1851,0.234024 -0.1234,0.09872 -0.1851,0.19348 -0.1851,0.284264 0.04938,0.04938 0.13972,0.07404 0.271048,0.07404 l 0.234024,-0.0132 v 0.17452 c 0,0.09872 -0.02864,0.14808 -0.08594,0.14808 -0.1234,0 -0.19744,0.0162 -0.222124,0.04892 0.1807,0.07404 0.271048,0.1807 0.271048,0.319964 l -0.07404,0.27237 -0.06082,0.259144 0.03704,0.15998 c 0.07404,0.0661 0.11106,0.13222 0.11106,0.19832 0,0.05728 -0.03304,0.1309 -0.09916,0.2208 l -0.08594,0.19832 c 0,0.07404 0.05332,0.14016 0.15998,0.19832 -0.05728,0.05642 -0.11062,0.09696 -0.15998,0.12164 -0.04938,0.02468 -0.0617,0.07844 -0.03704,0.1613 0.04052,0.03264 0.07758,0.08198 0.11106,0.14808 0.03264,0.05728 0.04892,0.1234 0.04892,0.19832 l -0.03704,0.269724 c -0.02468,0.11546 -0.02864,0.201852 -0.0118,0.259144 0.07404,-0.04938 0.13134,-0.07404 0.17188,-0.07404 0.05024,0 0.07934,0.05774 0.08726,0.1732 v 0.19832 c 0,0.13926 0.02468,0.229616 0.07404,0.271048 0.08198,0 0.14368,0.008 0.1851,0.0238 h 0.1851 c 0.32878,0 0.63288,-0.06568 0.9123,-0.197 0.280304,-0.14016 0.52314,-0.337596 0.728516,-0.592334 0.09872,-0.0661 0.1851,-0.16484 0.259144,-0.296168 l 0.19832,-0.40723 c 0,-0.0661 0.0122,-0.13222 0.03704,-0.19832 0.03264,-0.07316 0.10224,-0.10974 0.208904,-0.10974 l -0.012,-0.07406 v -0.06214 c 0,-0.0908 0.03704,-0.2305 0.11106,-0.41913 l 0.12428,-0.356988 c 0,-0.07492 -0.02468,-0.1494 -0.07404,-0.223448 z m -3.45484,-0.05024 c -0.04142,-0.03264 -0.07448,-0.05288 -0.09916,-0.06082 -0.02468,-0.0088 -0.04498,-0.0172 -0.06082,-0.02512 l 0.11106,0.308068 -0.09916,0.1613 c -0.04142,0.0899 -0.1115,0.12252 -0.210228,0.09784 l -0.0118,0.358308 0.03704,0.432352 c 0.02468,0.1234 0.0824,0.2424 0.1732,0.356988 0,-0.14808 0.0162,-0.250772 0.04892,-0.308068 -0.07404,-0.04938 -0.12736,-0.10666 -0.15998,-0.17188 l -0.04892,-0.1613 c 0,-0.0661 0.0617,-0.18114 0.1851,-0.345084 0.1234,-0.17276 0.1851,-0.31688 0.1851,-0.432352 0,-0.07404 -0.0168,-0.14412 -0.05024,-0.210228 z m -1.073605,1.7532 0.04892,-0.272368 c 0,-0.15602 -0.0617,-0.225652 -0.1851,-0.208904 -0.06522,0.04052 -0.11018,0.09784 -0.13486,0.17188 -0.02468,0.0661 -0.03704,0.16924 -0.03704,0.309392 z m 1.332751,0.838258 -0.06214,-0.08594 -0.04892,0.08594 z m -1.467613,0.370208 -0.0132,-0.197 c 0,-0.14808 -0.0162,-0.250772 -0.04892,-0.308068 l -0.09916,0.345084 c 0,0.0661 0.0168,0.11944 0.05024,0.15998 z m -9.583112,-5.18424 -0.06214,0.02512 c -0.03264,-0.0088 -0.03264,-0.06258 0,-0.1613 l 0.06214,-0.17188 0.06214,0.13486 z m 4.76379,0 c 0,0.04938 -0.0044,0.09034 -0.0132,0.12296 0,0.02468 -0.0036,0.04938 -0.0106,0.07404 l -0.05024,-0.259144 z m 2.96167,6.996942 -0.210228,0.21024 c -0.04938,0.06524 -0.0824,0.14324 -0.09916,0.23404 -0.0158,-0.0168 -0.03612,-0.11148 -0.06082,-0.28428 0,-0.14808 -0.04538,-0.23008 -0.13618,-0.24592 l -0.12296,0.03704 c -0.1234,0.10668 -0.20582,0.24636 -0.247248,0.419128 l -0.1851,0.04892 c -0.1234,0 -0.234464,-0.08636 -0.333188,-0.25916 l -0.24724,-0.481288 c 0.02468,-0.1234 -0.0122,-0.283824 -0.11106,-0.481268 -0.0899,-0.19744 -0.13486,-0.35346 -0.13486,-0.468052 -0.18158,-0.04938 -0.29264,-0.222124 -0.333188,-0.518292 0,-0.288232 -0.1071,-0.47334 -0.321288,-0.555314 0,-0.246808 -0.08638,-0.493612 -0.259144,-0.740416 l -0.50639,-0.728528 c -0.07404,0.02468 -0.14808,0.02072 -0.222124,-0.0118 -0.06522,-0.03264 -0.13926,-0.09432 -0.222124,-0.1851 -0.10666,0.04142 -0.225652,0.06214 -0.356988,0.06214 -0.1234,0 -0.26752,-0.02072 -0.432352,-0.06214 l -0.419134,-0.06216 c -0.14808,0 -0.2922,0.04142 -0.43235,0.12428 l -0.03704,-0.12428 c -0.02468,-0.04938 -0.04538,-0.08198 -0.06214,-0.09784 -0.296168,0.07404 -0.505952,0.296168 -0.629356,0.666376 l -0.17188,0.962542 c -0.09872,-0.1234 -0.17276,-0.275896 -0.222124,-0.457474 l 0.04892,0.08726 c 0.05728,0.02468 0.09828,0.02028 0.12296,-0.0132 l 0.07404,-0.12296 c 0,-0.09872 -0.04938,-0.226532 -0.14808,-0.383428 -0.0899,-0.15514 -0.13486,-0.261792 -0.13486,-0.319964 0,-0.09872 0.08638,-0.1851 0.259144,-0.259144 0,-0.07404 -0.0168,-0.12736 -0.05024,-0.15998 -0.0899,0 -0.16792,0.02468 -0.234024,0.07404 l -0.222124,0.284264 c 0.05728,0.09872 0.08594,0.213308 0.08594,0.343768 0,0.07492 -0.004,0.1331 -0.0118,0.17452 -0.008,0.04052 -0.03656,0.13926 -0.08594,0.296168 l -0.08594,0.45615 c 0,0.1895 0.09872,0.358308 0.296168,0.506392 l -0.259144,0.826366 c -0.04938,0.19744 -0.17276,0.394888 -0.370208,0.592334 -0.05818,-0.1234 -0.13222,-0.19348 -0.222124,-0.210228 -0.02468,0.0088 -0.05378,0.02112 -0.08726,0.03704 -0.03264,0.0168 -0.08594,0.05378 -0.15998,0.11106 -0.07404,0.04938 -0.156456,0.0824 -0.247244,0.09916 -0.07404,0 -0.152048,-0.04538 -0.234024,-0.13618 l -0.136184,0.19832 h -0.111068 v -0.09916 c -0.06522,0.04938 -0.13486,0.07802 -0.208904,0.08594 -0.07404,0 -0.140152,-0.09034 -0.198324,-0.271048 l -0.111068,-0.333188 0.198324,-0.08594 c -0.02468,-0.05818 -0.09079,-0.13222 -0.198324,-0.222124 -0.09873,-0.09872 -0.14808,-0.18952 -0.14808,-0.272368 0,-0.04938 0.01676,-0.10666 0.05024,-0.17188 l 0.09784,-0.235348 c 0.02468,-0.04052 0.111064,-0.09388 0.259144,-0.15998 0.04143,0.03264 0.107536,0.06568 0.198324,0.09916 0.09872,-0.07404 0.14808,-0.15646 0.14808,-0.247248 0,-0.07404 -0.04143,-0.17276 -0.124284,-0.296168 -0.07404,-0.13222 -0.111064,-0.234908 -0.111064,-0.308068 l 0.03704,-0.13618 0.136184,-0.604232 c 0.04934,-0.362288 0.18904,-0.559732 0.419099,-0.592346 l -0.197076,-0.259144 c -0.04937,-0.07404 -0.07404,-0.15248 -0.07404,-0.235348 0,-0.04938 0.02468,-0.1234 0.07404,-0.222124 l -0.234028,-0.24592 c -0.06611,-0.0908 -0.09916,-0.18158 -0.09916,-0.272368 0,-0.06522 0.0084,-0.11018 0.02512,-0.13486 0.1807,0 0.35346,-0.08638 0.518292,-0.259144 l 0.296169,-0.309392 v -0.197 c 0.05728,0 0.10224,0.004 0.13486,0.0118 l 0.211548,0.04892 c 0.06522,0 0.1181,-0.03704 0.15866,-0.11106 l 0.06214,-0.19832 0.0132,-0.17188 c 0,-0.1146 -0.03748,-0.258264 -0.11238,-0.431028 l -0.222152,-0.568566 0.321288,0.05024 c 0.02468,-0.04938 0.02468,-0.09872 0,-0.14808 l -0.11104,-0.1732 c 0.02468,-0.05728 0.04498,-0.09828 0.06082,-0.12296 l 0.296168,-0.1732 -0.222124,-0.222124 c -0.07404,-0.07404 -0.14808,-0.09872 -0.222124,-0.07404 l 0.05024,-0.321288 c 0,-0.14808 0.008,-0.263112 0.0238,-0.345084 h 0.12428 c 0,0.07404 -0.0168,0.13134 -0.05024,0.17188 0.04142,0.04142 0.10314,0.07052 0.1851,0.08726 0.08286,0 0.17762,-0.03304 0.284264,-0.09916 l 0.222124,-0.11106 c 0.02468,-0.04142 0.03704,-0.07008 0.03704,-0.08594 l 0.02512,-0.15998 -0.11106,-0.05024 -0.17188,0.11106 c -0.07492,0.07404 -0.1494,0.0908 -0.223448,0.05024 l 0.04892,-0.333188 0.05024,-0.346413 c 0,-0.10666 -0.0168,-0.19304 -0.05024,-0.259144 0.0176,-0.0158 0.06302,-0.0238 0.13618,-0.0238 0.04142,0 0.0824,0.04938 0.12296,0.14808 l -0.08594,0.14808 c -0.02468,0.03264 -0.0162,0.06522 0.02512,0.09784 0.10666,-0.04938 0.1807,-0.09872 0.222124,-0.14808 0.04938,-0.05728 0.07404,-0.119 0.07404,-0.1851 0,-0.05728 -0.02864,-0.14764 -0.08594,-0.271048 l -0.08726,-0.308068 c 0,-0.05818 0.0044,-0.10356 0.0132,-0.13618 0.0158,-0.04142 0.05686,-0.09476 0.12296,-0.15998 l -0.0132,-0.1732 c 0,-0.05728 -0.03264,-0.1027 -0.09784,-0.13618 l -0.09916,0.03704 -0.09916,0.02512 0.432352,-0.715296 c 0.1234,-0.18952 0.287792,-0.284264 0.493172,-0.284264 0,-0.1234 0.04142,-0.18952 0.12428,-0.19832 l 0.208904,0.06214 c 0.09872,0.02468 0.1851,0.02908 0.259144,0.0132 0.14808,0.19656 0.312916,0.294844 0.494492,0.294844 0.08198,0 0.15602,-0.0162 0.222126,-0.04892 0.02468,0.03264 0.02028,0.078 -0.0132,0.13618 l -0.08594,0.11106 c 0.11546,0.008 0.201852,0.05288 0.259144,0.13486 0.05818,0.08286 0.08726,0.19392 0.08726,0.333188 l -0.0132,0.247248 -0.0106,0.247248 -0.11106,0.356988 c 0,0.05818 0.0162,0.10752 0.04892,0.14808 0.09872,0.02468 0.18114,0.07404 0.247244,0.14808 l 0.259144,0.420448 -0.05024,0.333189 c 0,0.16394 0.02908,0.386072 0.08726,0.666376 l 0.11106,0.468046 c -0.0168,0.04142 -0.0128,0.10314 0.0118,0.1851 0.02468,0.07404 0.06964,0.11546 0.13486,0.12428 0.05818,-0.02468 0.0952,-0.04538 0.11106,-0.06214 l 0.05024,-0.04892 c -0.04938,0.0899 -0.07404,0.1926 -0.07404,0.308068 0,0.09872 0.02864,0.238432 0.08594,0.41913 l 0.08594,0.370208 c 0,0.13222 -0.03264,0.24328 -0.09784,0.333188 0.0899,0.05818 0.15954,0.247684 0.208904,0.568534 0.03348,0.296168 0.0952,0.452186 0.1851,0.468048 0.0661,0 0.14852,-0.04498 0.247248,-0.13486 h 0.06214 l 0.0238,0.14808 c 0,0.10666 -0.03264,0.213308 -0.09784,0.319964 -0.0661,0.09872 -0.14456,0.18114 -0.235348,0.247244 0.03348,0.02468 0.06258,0.04098 0.08726,0.04892 0.02468,0.0088 0.04498,0.0172 0.06082,0.02512 0.09872,0 0.17276,-0.0084 0.222124,-0.02512 0.13222,0 0.25562,0.10312 0.370208,0.309392 0.1146,0.205376 0.200972,0.316444 0.259144,0.333188 0.0661,0 0.14852,-0.0908 0.247248,-0.272368 0,0.14016 0.1071,0.271928 0.321288,0.395328 0.1807,0.09872 0.271048,0.250772 0.271048,0.456148 -0.07404,0 -0.1688,-0.07404 -0.284264,-0.222124 -0.1146,-0.14808 -0.204936,-0.23006 -0.271048,-0.245928 -0.07404,0 -0.16438,0.06568 -0.271048,0.197 0,0.07404 0.04098,0.15646 0.12296,0.247244 l 0.12296,0.17188 c 0,0.04938 -0.04498,0.09872 -0.13486,0.14808 h -0.11104 c 0,-0.14808 -0.02908,-0.246808 -0.08726,-0.296168 h -0.11106 l -0.03704,0.1613 c 0,0.08198 0.02072,0.15998 0.06214,0.234024 l 0.17188,0.15998 0.06214,-0.06082 c 0.0908,0.03264 0.14456,0.09432 0.1613,0.1851 l -0.06214,0.15866 -0.04892,0.1613 c 0,0.0661 0.04938,0.1234 0.14808,0.17188 0.13926,-0.0238 0.19656,-0.12604 0.17188,-0.306744 0.03348,0.213308 0.0789,0.398416 0.13618,0.555312 0.05728,0.15602 0.15998,0.345088 0.308068,0.567212 l -0.04892,0.02512 c 0.14016,0.07404 0.263552,0.26708 0.370208,0.579112 0.1146,0.296168 0.262672,0.48127 0.44425,0.555314 0,0.14016 0.04538,0.312912 0.13618,0.518292 0.09872,0.214196 0.15602,0.382988 0.17188,0.50639 z m -8.799065,-3.41782 c -0.05729,0.04052 -0.10666,0.06082 -0.14808,0.06082 l 0.12296,-0.14808 c 0.03348,0.0176 0.04188,0.04672 0.02512,0.08726 z m -0.247248,0.616132 h -0.04892 v -0.197 h 0.04892 z m 0.09916,0.370208 h -0.247248 l 0.05024,-0.222124 0.14808,0.07404 c 0.04937,0.02468 0.06567,0.07404 0.04892,0.14808 z m -0.247248,1.27193 -0.07404,0.11106 -0.07404,0.08594 c -0.06522,0 -0.106212,-0.03704 -0.12296,-0.11106 0,-0.05728 0.02468,-0.10666 0.07404,-0.14808 0.1234,0 0.189512,0.02072 0.198328,0.06214 z m 2.653603,0 -0.03704,0.222124 c -0.008,0.05728 -0.03656,0.1146 -0.08594,0.17188 -0.02468,-0.02468 -0.03704,-0.05728 -0.03704,-0.09784 0,-0.1234 0.05332,-0.222124 0.15998,-0.296168 z m -2.702524,0.444252 -0.01188,0.09784 c -0.02468,0.03348 -0.04538,0.05024 -0.06214,0.05024 h -0.07404 v -0.14808 z m 2.974896,-11.328383 c -0.07492,0.02468 -0.11634,0.078 -0.12428,0.15998 l 0.04892,0.08594 h 0.05024 l 0.04892,-0.12296 c 0.03264,-0.05728 0.02424,-0.09828 -0.02512,-0.12296 z m 0.776116,0.308068 v -0.06214 h -0.09784 v 0.06214 z m 0.05024,2.393135 v -0.419132 c -0.0908,-0.008 -0.16086,0.06258 -0.210228,0.211544 -0.03264,0.13926 -0.11504,0.208904 -0.247248,0.208904 l -0.04892,0.234024 c 0.04142,0.04938 0.07844,0.07404 0.11106,0.07404 l 0.09916,-0.17188 c 0.05728,-0.0996 0.119,-0.15734 0.1851,-0.1732 z m -1.073608,0.45747 c -0.0168,-0.0661 -0.04982,-0.11944 -0.09916,-0.15998 -0.04938,-0.04142 -0.09872,-0.05378 -0.14808,-0.03704 v 0.345084 c 0.05728,-0.03264 0.1027,-0.04892 0.13618,-0.04892 0.07404,0 0.11106,-0.03304 0.11106,-0.09916 z m 2.961668,1.061706 -0.05024,-0.370208 c -0.16394,-0.08286 -0.270604,-0.276334 -0.319966,-0.580434 l -0.05024,-0.48127 c -0.10578,0.04142 -0.15866,0.09872 -0.15866,0.17188 0,0.05818 0.03264,0.1406 0.09784,0.247248 0.06522,0.09872 0.09784,0.17718 0.09784,0.235348 0,0.04052 -0.02468,0.09388 -0.07404,0.15998 l 0.1613,0.456148 c 0.03264,0.10754 0.13134,0.1613 0.29617,0.1613 z m -2.39446,-0.49447 v -0.07404 h -0.08594 v 0.07404 z m -0.32129,0.691498 c -0.02468,-0.05728 -0.06568,-0.09034 -0.12296,-0.09916 -0.05728,0.03348 -0.09432,0.06654 -0.11106,0.09916 l -0.03704,0.210228 c 0.04938,0.07404 0.13178,0.11106 0.247248,0.11106 l 0.04892,-0.12428 z m 2.801686,0.259144 v -0.11106 c -0.02468,-0.04142 -0.06568,-0.04538 -0.12296,-0.0118 -0.03348,0.02468 -0.03792,0.06568 -0.0132,0.12296 z m -0.703396,2.14721 c 0.04938,-0.16484 0.07404,-0.31688 0.07404,-0.456148 0,-0.25562 -0.119,-0.658882 -0.356988,-1.209788 -0.238872,-0.55972 -0.362276,-0.872634 -0.370208,-0.938744 -0.03348,-0.04052 -0.06258,-0.16792 -0.08726,-0.382112 0,-0.20538 -0.078,-0.308068 -0.234024,-0.308068 -0.07404,0.0908 -0.14412,0.19788 -0.210228,0.321288 -0.03264,0.06522 -0.04892,0.13486 -0.04892,0.208904 0,0.04938 0.004,0.08638 0.0118,0.11106 h 0.19834 c 0.08108,0.02468 0.12164,0.12782 0.12164,0.309392 -0.03264,0.04938 -0.09432,0.08198 -0.1851,0.09784 l -0.234024,-0.0118 -0.08594,0.08726 -0.0132,0.08594 c 0.04142,0.02468 0.09122,0.02468 0.1494,0 l 0.11106,-0.04892 c 0.04938,0.03264 0.078,0.06522 0.08594,0.09784 0.0168,0.09872 -0.03264,0.14808 -0.14808,0.14808 -0.09872,0 -0.17276,0.02468 -0.222124,0.07404 l -0.04892,0.12428 c 0.008,0.02468 0.02028,0.04938 0.03704,0.07404 0.0158,0.0158 0.05288,0.04452 0.11106,0.08594 0.05728,0.04142 0.09828,0.0908 0.12296,0.14808 0,0.05728 -0.04098,0.09828 -0.12296,0.12296 -0.08198,0.02468 -0.14368,0.04938 -0.1851,0.07404 0.008,0.04142 0.04892,0.07448 0.12296,0.09916 0.0661,0.008 0.1115,0.03264 0.13618,0.07404 -0.07404,0 -0.13574,0.03704 -0.1851,0.11106 -0.04142,0.0661 -0.08682,0.1115 -0.13618,0.13618 -0.02468,0.205376 0.05332,0.373736 0.234024,0.505072 0.18158,0 0.346412,0.0044 0.494492,0.0132 0.14808,0.0088 0.29176,0.02908 0.431028,0.06082 0.14808,0.03264 0.2922,0.09432 0.432352,0.1851 z m -1.864264,-1.233586 v -0.05024 l -0.06082,-0.04892 z m -1.12252,0.222124 c -0.06522,0 -0.1309,0.04498 -0.197,0.13486 -0.05728,0.0908 -0.09828,0.19392 -0.12296,0.309392 0.0158,0.02468 0.0282,0.04938 0.03704,0.07404 0.0158,0.02468 0.0282,0.0617 0.03704,0.11106 0.008,0.04938 0.04892,0.07404 0.12296,0.07404 l 0.04892,-0.383428 z m 0.296168,1.862942 c 0.02468,-0.05728 0.0044,-0.09828 -0.06082,-0.12296 -0.06522,-0.02468 -0.10224,-0.04142 -0.11106,-0.05024 l -0.02512,-0.0238 c -0.07404,0 -0.11106,0.02864 -0.11106,0.08594 0,0.04938 0.04538,0.11944 0.13618,0.210228 l 0.09784,-0.02512 z m -0.567214,0.41913 v -0.370208 h -0.09916 c -0.05728,0.0088 -0.0899,0.06654 -0.09784,0.1732 v 0.19832 z m -0.44425,0.272368 c -0.01676,-0.0168 -0.03748,-0.09916 -0.06214,-0.247244 0,-0.1234 -0.04498,-0.1895 -0.134864,-0.19832 -0.08286,0.05818 -0.124284,0.12868 -0.124284,0.211544 0,0.04848 0.01676,0.10138 0.05024,0.15866 l 0.09784,0.13618 c 0.09079,0 0.14852,-0.02028 0.173204,-0.06082 z m 1.603796,0.259144 v -0.08726 z m -0.789338,0.37021 V 36.38291 h -0.09916 v 0.654476 z m -0.86338,0.50507 v -0.259144 c -0.06611,-0.02468 -0.111496,-0.0122 -0.136184,0.03704 l -0.01188,0.222124 z m 0.493168,0.82768 c -0.03264,-0.08286 -0.04892,-0.202292 -0.04892,-0.358308 0,-0.17276 -0.0168,-0.29176 -0.05024,-0.356984 0,0.04848 -0.004,0.08946 -0.0118,0.12296 -0.008,0.03348 -0.03264,0.10752 -0.07404,0.222124 l -0.08594,0.296168 c 0,0.05728 0.0084,0.09828 0.02512,0.12296 l 0.13486,-0.0118 z m -1.233588,0.666376 -0.08726,-0.11106 -0.04892,0.0238 0.111064,0.11106 z"
     id="path308"
     style="fill:#ffffff;stroke-width:1.32217" />
</svg>
