<?xml version="1.0" encoding="UTF-8" standalone="no"?>
<!-- Created with Inkscape (http://www.inkscape.org/) -->

<svg
   width="256"
   height="256"
   viewBox="0 0 67.733334 67.733334"
   version="1.1"
   id="svg5"
   inkscape:version="1.2 (dc2aedaf03, 2022-05-15)"
   sodipodi:docname="applications-system.svg"
   xmlns:inkscape="http://www.inkscape.org/namespaces/inkscape"
   xmlns:sodipodi="http://sodipodi.sourceforge.net/DTD/sodipodi-0.dtd"
   xmlns="http://www.w3.org/2000/svg"
   xmlns:svg="http://www.w3.org/2000/svg">
  <sodipodi:namedview
     id="namedview7"
     pagecolor="#ffffff"
     bordercolor="#666666"
     borderopacity="1.0"
     inkscape:pageshadow="2"
     inkscape:pageopacity="0.0"
     inkscape:pagecheckerboard="0"
     inkscape:document-units="px"
     showgrid="false"
     units="px"
     height="48px"
     inkscape:zoom="2.0885416"
     inkscape:cx="101.02743"
     inkscape:cy="106.29427"
     inkscape:window-width="1846"
     inkscape:window-height="1011"
     inkscape:window-x="0"
     inkscape:window-y="0"
     inkscape:window-maximized="1"
     inkscape:current-layer="svg5"
     inkscape:showpageshadow="2"
     inkscape:deskcolor="#d1d1d1"
     showguides="true" />
  <defs
     id="defs2" />
  <rect
     style="opacity:1;fill:#424242;fill-opacity:1;stroke-width:0.264583"
     id="rect1162"
     width="31.75"
     height="19.049999"
     x="18.256248"
     y="42.333332"
     ry="2.1166668" />
  <rect
     style="opacity:1;fill:#848484;fill-opacity:1;stroke-width:0.264583"
     id="rect3774"
     width="31.220833"
     height="14.419792"
     x="18.520832"
     y="45.640625"
     ry="2.1166668" />
  <rect
     style="opacity:1;fill:#6f6f6f;fill-opacity:1;stroke-width:0.264583"
     id="rect2173"
     width="59.266666"
     height="42.333332"
     x="4.4979167"
     y="8.4666672"
     ry="3.175" />
  <rect
     style="opacity:1;fill:#acacac;fill-opacity:1;stroke-width:0.264583"
     id="rect2175"
     width="58.737499"
     height="40.745834"
     x="4.7625003"
     y="8.7312508"
     ry="3.0427084" />
  <rect
     style="fill:#464646;fill-opacity:1;stroke-width:0.383418"
     id="rect1437"
     width="55.5625"
     height="34.924999"
     x="6.3500004"
     y="10.31875"
     ry="0.5291667" />
  <rect
     style="fill:#424242;fill-opacity:1;stroke-width:0.529167"
     id="rect15516"
     width="12.7"
     height="2.1166668"
     x="27.781248"
     y="46.037502"
     ry="0.5291667" />
  <path
     d="m 31.352875,16.404167 -0.24448,2.927348 c -0.92838,0.34352 -1.791586,0.842396 -2.552702,1.475316 l -2.659592,-1.253064 -2.778124,4.812242 2.415116,1.67746 c -0.08604,0.486408 -0.13064,0.979244 -0.13336,1.4732 3e-4,0.49554 0.0428,0.990156 0.127,1.478488 l -2.408764,1.672168 2.778124,4.811186 2.6543,-1.248832 c 0.763336,0.630436 1.628334,1.126456 2.557994,1.466848 l 0.24448,2.93264 h 5.556248 l 0.24448,-2.927348 c 0.92838,-0.34352 1.791584,-0.842396 2.5527,-1.475316 l 2.659592,1.253064 2.778126,-4.812242 -2.415116,-1.677456 c 0.08604,-0.486412 0.13064,-0.979248 0.13336,-1.4732 -3.04e-4,-0.495544 -0.0428,-0.99016 -0.127,-1.478492 l 2.408756,-1.672168 -2.778126,-4.812242 -2.6543,1.249888 c -0.763332,-0.630436 -1.628328,-1.126456 -2.557988,-1.466848 l -0.24448,-2.93264 z m 2.778124,7.937502 c 1.753504,0 3.175,1.421496 3.175,3.175 0,1.753504 -1.421496,3.174996 -3.175,3.174996 -1.753504,0 -3.175,-1.421492 -3.175,-3.174996 0,-1.753504 1.421496,-3.175 3.175,-3.175 z"
     style="fill:#ffffff;stroke-width:1.05833"
     id="path310" />
</svg>
