<?xml version="1.0" encoding="UTF-8" standalone="no"?>
<!-- Created with Inkscape (http://www.inkscape.org/) -->

<svg
   width="256"
   height="256"
   viewBox="0 0 67.733332 67.733336"
   version="1.1"
   id="svg1099"
   inkscape:version="1.2 (dc2aedaf03, 2022-05-15)"
   sodipodi:docname="applications-accessories.svg"
   xmlns:inkscape="http://www.inkscape.org/namespaces/inkscape"
   xmlns:sodipodi="http://sodipodi.sourceforge.net/DTD/sodipodi-0.dtd"
   xmlns="http://www.w3.org/2000/svg"
   xmlns:svg="http://www.w3.org/2000/svg">
  <sodipodi:namedview
     id="namedview1101"
     pagecolor="#ffffff"
     bordercolor="#666666"
     borderopacity="1.0"
     inkscape:pageshadow="2"
     inkscape:pageopacity="0.0"
     inkscape:pagecheckerboard="0"
     inkscape:document-units="px"
     showgrid="false"
     units="px"
     inkscape:zoom="2.2483786"
     inkscape:cx="85.394871"
     inkscape:cy="132.53996"
     inkscape:window-width="1846"
     inkscape:window-height="1011"
     inkscape:window-x="0"
     inkscape:window-y="0"
     inkscape:window-maximized="1"
     inkscape:current-layer="svg1099"
     inkscape:showpageshadow="2"
     inkscape:deskcolor="#d1d1d1"
     showguides="false" />
  <defs
     id="defs1096" />
  <rect
     style="opacity:1;fill:#7b736e;fill-opacity:1;stroke-width:0.529167;stroke-linecap:round"
     id="rect934"
     width="55.033333"
     height="55.033333"
     x="6.3499999"
     y="6.3499999"
     ry="4.3656249" />
  <path
     id="rect1388"
     style="opacity:0.5;fill:#000000;stroke-width:0.529167;stroke-linejoin:bevel"
     d="M 10.715625 6.3500001 C 8.2970713 6.3500001 6.3500001 8.2970713 6.3500001 10.715625 L 6.3500001 57.017709 C 6.3500001 59.436263 8.2970713 61.383334 10.715625 61.383334 L 57.017709 61.383334 C 59.436263 61.383334 61.383334 59.436263 61.383334 57.017709 L 61.383334 10.715625 C 61.383334 8.2970713 59.436263 6.3500001 57.017709 6.3500001 L 10.715625 6.3500001 z M 10.847917 6.6145834 L 56.885417 6.6145834 C 59.230682 6.6145834 61.118751 8.5026523 61.118751 10.847917 L 61.118751 55.827084 C 61.118751 58.172348 59.230682 60.060417 56.885417 60.060417 L 10.847917 60.060417 C 8.5026523 60.060417 6.6145834 58.172348 6.6145834 55.827084 L 6.6145834 10.847917 C 6.6145834 8.5026523 8.5026523 6.6145834 10.847917 6.6145834 z " />
  <path
     d="m 42.079205,16.160585 c -0.616716,-0.011 -1.24886,0.0404 -1.867586,0.20154 -3.947578,1.02817 -6.313658,5.03957 -5.284428,8.960696 0.214842,0.81915 0.612674,1.564158 1.062466,2.22932 -0.229658,0.03704 -3.443714,5.492169 -3.443714,5.492169 l 7.217128,0.04858 1.698086,-2.359544 c 0.804332,0.0635 1.652396,0.04274 2.477368,-0.17156 3.94758,-1.028171 6.313662,-5.040609 5.284432,-8.961729 -0.21537,-0.819688 -0.6127,-1.564166 -1.061434,-2.22933 l -2.879408,4.881356 c -0.58511,1.000934 -1.871924,1.336302 -2.871146,0.748274 l -1.851046,-1.076934 c -1.005148,-0.572754 -1.343218,-1.859744 -0.749312,-2.852542 l 2.879414,-4.880324 c -0.201086,-0.0158 -0.405244,-0.0263 -0.61082,-0.02998 z m -18.779213,1.471746 c -0.0218,-3.54e-4 -0.04426,0.0011 -0.06512,0.0052 -0.486452,0.09952 -0.937528,0.27741 -1.38596,0.46302 -0.03546,1.32133 0.18308,3.051704 -0.33073,3.50573 -0.505354,0.446086 -2.194577,0.0725 -3.500559,-0.06614 -0.277284,0.50059 -0.497444,1.026582 -0.660426,1.5875 1.010708,0.83767 2.411484,1.775882 2.444294,2.447396 0.03386,0.679978 -1.324578,1.703916 -2.245858,2.645832 0.218546,0.545572 0.529194,1.044576 0.858864,1.521354 1.285874,-0.267758 2.887283,-0.790574 3.433381,-0.396874 0.556682,0.400578 0.561448,2.127779 0.727604,3.439585 0.52705,0.15874 1.08275,0.22119 1.650546,0.264582 0.594784,-1.17422 1.19967,-2.794 1.850014,-2.976562 0.66728,-0.18786 2.036362,0.969434 3.169836,1.653646 0.462492,-0.321204 0.873681,-0.713316 1.255735,-1.12448 -0.536571,-1.211793 -1.524551,-2.734733 -1.255735,-3.373437 0.269876,-0.639764 2.062265,-0.994306 3.303161,-1.45521 0.0084,-0.15558 0.06614,-0.305328 0.06614,-0.46302 0,-0.405342 -0.07302,-0.802216 -0.1323,-1.190626 -1.280582,-0.340254 -3.101043,-0.510646 -3.434419,-1.124478 -0.331258,-0.6096 0.5107,-2.246842 0.923974,-3.505728 -0.42433,-0.3804 -0.889094,-0.713118 -1.385962,-0.992188 -1.058858,0.79375 -2.292954,2.104494 -2.973462,1.984374 -0.66939,-0.11854 -1.400778,-1.734608 -2.113566,-2.84427 -0.0635,0.0112 -0.133,-0.004 -0.19946,-0.0052 z m 1.256772,3.97392 c 1.970088,0 3.566704,1.59914 3.566704,3.571874 0,1.972734 -1.596616,3.571876 -3.566704,3.571876 -1.970088,0 -3.566706,-1.599142 -3.566706,-3.571876 0,-1.972734 1.597148,-3.571874 3.566706,-3.571874 z m -2.596224,13.556797 0.0166,12.7 c 0,1.20703 0.97427,2.116668 2.113566,2.116668 h 16.916797 c 1.105958,0 2.1053,-0.942446 2.1053,-1.984376 l -0.0166,-12.832292 z"
     style="text-indent:0;text-decoration-line:none;text-transform:none;opacity:0.2;fill:#000000;stroke-width:0.529166"
     id="path2158" />
  <path
     d="m 42.079207,15.895998 c -0.616718,-0.01098 -1.24886,0.04041 -1.867588,0.201538 -3.947578,1.028171 -6.313656,5.039571 -5.284428,8.960697 0.214842,0.81915 0.612674,1.564158 1.062466,2.22932 -0.229658,0.03704 -3.443716,5.492169 -3.443716,5.492169 l 7.21713,0.04858 1.698086,-2.359544 c 0.804332,0.0635 1.652396,0.04274 2.477368,-0.17156 3.947582,-1.028171 6.313662,-5.040609 5.284432,-8.961729 -0.21537,-0.819688 -0.6127,-1.564167 -1.061434,-2.229329 l -2.879408,4.881355 c -0.58511,1.000934 -1.871924,1.336302 -2.871146,0.748274 L 40.559923,23.658835 C 39.554775,23.086081 39.216705,21.799091 39.810611,20.806293 L 42.690025,15.92597 C 42.488941,15.91023 42.284783,15.89967 42.079207,15.896 Z M 23.29999,17.367742 c -0.0218,-3.54e-4 -0.04426,0.0011 -0.06512,0.0052 -0.486452,0.09952 -0.937528,0.277411 -1.38596,0.463021 -0.03546,1.321329 0.18308,3.051704 -0.33073,3.50573 -0.505354,0.446086 -2.194575,0.0725 -3.500557,-0.06614 -0.277284,0.50059 -0.497444,1.026582 -0.660427,1.5875 1.010709,0.83767 2.411485,1.775882 2.444295,2.447396 0.03386,0.679978 -1.324578,1.703916 -2.245857,2.645832 0.218545,0.545572 0.529193,1.044576 0.858864,1.521354 1.285873,-0.267758 2.88728,-0.790574 3.43338,-0.396874 0.556682,0.400578 0.561446,2.127779 0.727604,3.439585 0.52705,0.15874 1.082748,0.22119 1.650544,0.264582 0.594784,-1.17422 1.19967,-2.794001 1.850014,-2.976563 0.66728,-0.18786 2.036362,0.969435 3.169836,1.653647 0.462492,-0.321204 0.873681,-0.713316 1.255735,-1.12448 -0.536571,-1.211793 -1.524551,-2.734733 -1.255735,-3.373437 0.269876,-0.639764 2.062265,-0.994306 3.303161,-1.45521 0.0084,-0.15558 0.06614,-0.305328 0.06614,-0.46302 0,-0.405342 -0.07302,-0.802216 -0.1323,-1.190626 -1.280584,-0.340254 -3.101045,-0.510646 -3.434421,-1.124478 -0.331258,-0.6096 0.5107,-2.246842 0.923974,-3.505729 -0.424328,-0.3804 -0.889094,-0.713118 -1.385962,-0.992188 -1.058858,0.79375 -2.292954,2.104495 -2.973462,1.984375 -0.66939,-0.118534 -1.400778,-1.734608 -2.113566,-2.844271 -0.0635,0.01112 -0.133,-0.0041 -0.19946,-0.0052 z m 1.256772,3.973921 c 1.970088,0 3.566704,1.59914 3.566704,3.571874 0,1.972734 -1.596616,3.571876 -3.566704,3.571876 -1.970088,0 -3.566706,-1.599142 -3.566706,-3.571876 0,-1.972734 1.597148,-3.571874 3.566706,-3.571874 z m -2.596224,13.556795 0.0166,12.7 c 0,1.20703 0.97427,2.116668 2.113566,2.116668 h 16.916799 c 1.105958,0 2.1053,-0.942446 2.1053,-1.984376 l -0.0166,-12.832292 z"
     style="text-indent:0;text-decoration-line:none;text-transform:none;fill:#ffffff;stroke-width:0.529166"
     id="path918"
     sodipodi:nodetypes="cccccccccccccccccccccccccccccccccsccccccccsssssccssccc" />
</svg>
