<?xml version="1.0" encoding="UTF-8" standalone="no"?>
<!-- Created with Inkscape (http://www.inkscape.org/) -->

<svg
   width="256"
   height="256"
   viewBox="0 0 67.733332 67.733336"
   version="1.1"
   id="svg1099"
   inkscape:version="1.2 (dc2aedaf03, 2022-05-15)"
   sodipodi:docname="baloo.svg"
   xmlns:inkscape="http://www.inkscape.org/namespaces/inkscape"
   xmlns:sodipodi="http://sodipodi.sourceforge.net/DTD/sodipodi-0.dtd"
   xmlns="http://www.w3.org/2000/svg"
   xmlns:svg="http://www.w3.org/2000/svg">
  <sodipodi:namedview
     id="namedview1101"
     pagecolor="#ffffff"
     bordercolor="#666666"
     borderopacity="1.0"
     inkscape:pageshadow="2"
     inkscape:pageopacity="0.0"
     inkscape:pagecheckerboard="0"
     inkscape:document-units="px"
     showgrid="false"
     units="px"
     inkscape:zoom="1.6210938"
     inkscape:cx="-34.853011"
     inkscape:cy="99.624093"
     inkscape:window-width="1846"
     inkscape:window-height="1011"
     inkscape:window-x="0"
     inkscape:window-y="0"
     inkscape:window-maximized="1"
     inkscape:current-layer="svg1099"
     inkscape:showpageshadow="2"
     inkscape:deskcolor="#d1d1d1"
     showguides="false" />
  <defs
     id="defs1096" />
  <rect
     style="opacity:1;fill:#25688c;fill-opacity:1;stroke-width:0.529167;stroke-linecap:round"
     id="rect934"
     width="55.033333"
     height="55.033333"
     x="6.3499999"
     y="6.3499999"
     ry="4.3656249" />
  <rect
     style="fill:#3daee9;fill-opacity:1;stroke-width:0.529167"
     id="rect873"
     width="54.504166"
     height="53.445835"
     x="6.6145835"
     y="6.6145835"
     ry="4.2333336" />
  <path
     id="path19114"
     style="fill:#ffffff;stroke-width:1.77042"
     d="m 34.189673,20.108334 c -0.791016,2.374134 -0.940796,2.26089 -1.184684,4.798602 -1.259928,1.054088 -1.42876,2.249674 -1.373732,3.415418 0.05972,1.265842 0.991328,2.093895 2.0858,2.151969 1.357624,-0.0044 2.149648,-1.253887 2.274848,-2.467043 0.1468,-1.422296 -0.114,-2.349424 -1.203588,-3.081442 -0.0288,-1.924458 -0.1126,-2.379056 -0.598644,-4.817504 z m -4.757643,1.33592 c -0.791018,2.374134 -0.940796,2.26089 -1.184686,4.798602 -1.259924,1.05409 -1.425604,2.249676 -1.370578,3.41542 0.05972,1.265841 0.991328,2.093893 2.0858,2.151967 1.357627,-0.0044 2.146499,-1.253884 2.271695,-2.467043 0.14678,-1.422296 -0.11084,-2.349424 -1.200437,-3.081438 -0.02864,-1.924462 -0.11574,-2.37906 -0.601794,-4.817508 z m 9.052123,0.601794 c -0.48606,2.438448 -0.573188,2.896196 -0.601784,4.820658 -1.089596,0.732016 -1.347216,1.655994 -1.200436,3.078288 0.12516,1.213159 0.914068,2.465909 2.271696,2.470195 1.09447,-0.0581 2.026086,-0.886128 2.085802,-2.151968 0.05488,-1.165745 -0.11384,-2.364481 -1.37373,-3.418571 -0.24388,-2.53771 -0.39052,-2.424468 -1.181536,-4.798602 z M 24.664936,25.21571 c -0.791018,2.374134 -0.940796,2.26089 -1.184686,4.7986 -1.259924,1.054091 -1.425604,2.249679 -1.37058,3.415421 0.05968,1.265842 0.98818,2.093892 2.082652,2.151966 h 0.0032 c 1.357624,-0.0044 2.146496,-1.253882 2.271694,-2.467042 0.14678,-1.422294 -0.11084,-2.349422 -1.200436,-3.081439 -0.02864,-1.924462 -0.11574,-2.37906 -0.601796,-4.817506 z m 18.400415,0.11342 c -0.48606,2.438448 -0.570016,2.893044 -0.598672,4.817507 -1.089596,0.732016 -1.350372,1.659144 -1.203588,3.081438 0.12516,1.213158 0.91722,2.462758 2.274848,2.467044 1.094468,-0.0581 2.026076,-0.886126 2.0858,-2.151968 0.05488,-1.165744 -0.11384,-2.36133 -1.373728,-3.415418 -0.243884,-2.537713 -0.393692,-2.424471 -1.184688,-4.798603 z m -9.49953,6.172331 c -1.67792,0.0272 -2.758408,0.875036 -5.491769,2.942806 -3.774156,2.159758 -4.905394,3.356422 -4.95929,6.522066 -0.05956,3.49972 4.782536,4.626452 8.680335,3.07514 1.188248,-0.472904 3.751196,-0.511816 5.119976,0.0504 2.84414,0.860888 7.888106,0.30384 7.968266,-3.528844 0.16176,-3.21152 -2.02782,-4.12247 -5.349986,-6.118782 -1.986556,-1.806512 -2.977836,-2.815804 -5.6241,-2.936504 -0.11784,-0.0054 -0.23156,-0.008 -0.34344,-0.0062 z" />
</svg>
