<?xml version="1.0" encoding="UTF-8" standalone="no"?>
<!-- Created with Inkscape (http://www.inkscape.org/) -->

<svg
   width="256"
   height="256"
   viewBox="0 0 67.733332 67.733332"
   version="1.1"
   id="svg5"
   inkscape:version="1.2 (dc2aedaf03, 2022-05-15)"
   sodipodi:docname="brave-browser-nightly.svg"
   xmlns:inkscape="http://www.inkscape.org/namespaces/inkscape"
   xmlns:sodipodi="http://sodipodi.sourceforge.net/DTD/sodipodi-0.dtd"
   xmlns="http://www.w3.org/2000/svg"
   xmlns:svg="http://www.w3.org/2000/svg">
  <sodipodi:namedview
     id="namedview7"
     pagecolor="#ffffff"
     bordercolor="#666666"
     borderopacity="1.0"
     inkscape:pageshadow="2"
     inkscape:pageopacity="0.0"
     inkscape:pagecheckerboard="0"
     inkscape:document-units="px"
     showgrid="false"
     units="px"
     height="48px"
     inkscape:zoom="1.2465805"
     inkscape:cx="97.867729"
     inkscape:cy="125.14234"
     inkscape:window-width="1846"
     inkscape:window-height="1015"
     inkscape:window-x="0"
     inkscape:window-y="0"
     inkscape:window-maximized="1"
     inkscape:current-layer="svg5"
     inkscape:showpageshadow="2"
     inkscape:deskcolor="#d1d1d1" />
  <defs
     id="defs2" />
  <path
     id="path1212"
     style="color:#000000;fill:#552d5d;fill-opacity:1;stroke:none;stroke-width:4"
     d="M 24.495195,4.2333333 19.507386,9.3058909 C 19.44177,9.3276928 18.953463,8.9225981 18.422181,8.7663894 16.997669,8.3480315 15.190194,8.418959 13.961473,8.9772289 13.158201,9.3424584 12.844579,9.5997263 10.933235,11.478368 8.8729836,13.501895 8.4672357,13.986983 8.4672357,14.417723 v 2.116666 c 0,0.111124 0.7435102,1.197556 1.1100096,2.048454 l 0.248047,0.576708 -0.4361492,1.198894 c -0.4697927,1.289046 -0.876584,2.414306 -0.905371,2.503206 v 2.116665 c -0.072812,0.225424 6.5991869,25.915967 6.9473779,26.743583 0.632881,1.502827 1.62863,2.851495 2.916617,3.954279 1.164163,0.996948 12.971283,9.055244 14.140737,9.651088 0.34608,0.17568 0.90248,0.27776 1.378728,0.2894 0.476251,-0.0116 1.032655,-0.11372 1.378725,-0.2894 1.169456,-0.595844 12.97657,-8.65414 14.140737,-9.651088 1.287992,-1.102784 2.283744,-2.451452 2.916616,-3.954279 0.3482,-0.827616 7.018334,-26.518159 6.94531,-26.743583 v -2.116665 c -0.0284,-0.0889 -0.433404,-1.21416 -0.903303,-2.503206 l -0.436148,-1.198894 0.24598,-0.576708 c 0.367239,-0.850898 1.112075,-1.937329 1.112075,-2.048454 v -2.116666 c 0,-0.43074 -0.405432,-0.915828 -2.465995,-2.939355 C 54.889881,9.5997263 54.576265,9.3424584 53.772989,8.9772289 52.544266,8.418959 50.736794,8.3480315 49.312278,8.7663894 48.781006,8.9225981 48.292691,9.3276928 48.227075,9.3058909 L 43.239268,4.2333333 Z"
     sodipodi:nodetypes="cccccccccccccccccccccccccccccccc" />
  <path
     id="path4952"
     style="color:#000000;fill:#aa5abb;stroke:none;stroke-width:0.529167;fill-opacity:1"
     d="m 24.594364,4.4979166 -4.954736,5.0389687 -0.06046,0.0217 c -0.171587,0.0565 -0.198518,-0.0044 -0.236678,-0.0217 -0.03816,-0.01729 -0.06815,-0.03545 -0.103353,-0.05633 C 19.168747,9.4388064 19.08576,9.3872384 18.991091,9.33018 18.801753,9.2160653 18.563926,9.0863575 18.336867,9.0196046 16.978251,8.6205986 15.20703,8.6956691 14.059609,9.2170086 c -0.392114,0.178289 -0.636319,0.3137117 -1.039213,0.6464717 -0.402895,0.3327597 -0.95719,0.8639727 -1.912028,1.8024737 -1.028785,1.010449 -1.6433648,1.637511 -1.9885095,2.048971 -0.3347075,0.399016 -0.3852367,0.551724 -0.3886067,0.681612 0.017029,0.03321 0.042733,0.07797 0.076481,0.136426 0.073143,0.12669 0.1778268,0.298827 0.2945557,0.496094 0.2334576,0.394534 0.5141248,0.884576 0.7069338,1.332218 l 0.7074507,1.644344 -0.8909027,2.443778 c -0.2347929,0.644242 -0.4534498,1.247755 -0.6170162,1.701189 -0.1534854,0.425486 -0.2497529,0.6987 -0.2656168,0.74414 9.1e-4,0.005 9.67e-4,0.0056 0.00207,0.01137 0.00949,0.04994 0.026435,0.12797 0.048576,0.226859 0.044282,0.197787 0.1116031,0.48545 0.199471,0.847494 0.1757356,0.724087 0.4318832,1.74836 0.742073,2.974495 0.6203817,2.452272 1.4574087,5.709747 2.3083867,8.986532 0.850977,3.276784 1.715996,6.572108 2.389002,9.099702 0.336503,1.263797 0.624526,2.336347 0.839742,3.117123 0.107607,0.390388 0.198266,0.707911 0.265616,0.939477 0.06735,0.231568 0.121457,0.397577 0.125057,0.406177 0.616344,1.463556 1.585506,2.776194 2.843754,3.853512 0.256973,0.22006 1.23015,0.925817 2.517676,1.829862 1.287527,0.904045 2.907871,2.022589 4.528923,3.129008 1.621051,1.10642 3.241331,2.200683 4.529439,3.054594 1.288107,0.85391 2.275674,1.482325 2.513541,1.603519 0.279347,0.141805 0.817372,0.248233 1.259872,0.259933 0.442086,-0.01193 0.978864,-0.118333 1.257804,-0.259933 0.237868,-0.121194 1.225434,-0.749609 2.513542,-1.603519 1.288107,-0.853911 2.910455,-1.948174 4.531506,-3.054594 1.621051,-1.106419 3.241912,-2.224963 4.529439,-3.129008 1.287526,-0.904045 2.258636,-1.609802 2.515609,-1.829862 1.258249,-1.077318 2.22741,-2.389956 2.843754,-3.853512 0.0036,-0.0086 0.05926,-0.174609 0.126607,-0.406177 0.06735,-0.231566 0.155946,-0.549089 0.26355,-0.939477 0.215208,-0.780776 0.503772,-1.853326 0.840259,-3.117123 0.672974,-2.527594 1.537559,-5.822917 2.388484,-9.099702 0.850926,-3.276785 1.688067,-6.534263 2.308387,-8.986532 0.310159,-1.226134 0.566884,-2.250412 0.74259,-2.974495 0.08785,-0.362042 0.154684,-0.649713 0.198954,-0.847494 0.02213,-0.09889 0.03959,-0.176929 0.04909,-0.226859 0.0011,-0.0058 6.41e-4,-0.0064 0.0015,-0.01137 -0.01478,-0.04221 -0.112155,-0.318672 -0.265617,-0.74414 -0.163542,-0.453415 -0.38217,-1.056948 -0.617016,-1.701189 l -0.888835,-2.443778 0.705383,-1.644344 c 0.193138,-0.447503 0.4756,-0.937714 0.709001,-1.332218 0.1167,-0.197253 0.221972,-0.369412 0.295072,-0.496094 0.03316,-0.05747 0.05683,-0.101189 0.0739,-0.134359 -0.0031,-0.130087 -0.05117,-0.283826 -0.38654,-0.683679 -0.345097,-0.411447 -0.959572,-1.038528 -1.988509,-2.048971 h -0.0021 C 55.647391,10.727453 55.095162,10.196241 54.692268,9.8634803 54.289373,9.5307193 54.045167,9.3952929 53.653055,9.2170083 52.505632,8.6956754 50.732343,8.620595 49.37373,9.0196043 c -0.227032,0.066748 -0.464876,0.1964302 -0.654224,0.3105754 -0.09468,0.057073 -0.17555,0.1086154 -0.24598,0.1503786 -0.03522,0.02088 -0.06719,0.03904 -0.10542,0.05633 -0.03823,0.01729 -0.06457,0.07871 -0.236161,0.0217 l -0.06098,-0.0217 -4.952669,-5.038969 h -9.261967 z" />
  <path
     d="m 36.255398,49.206092 c 0,0 2.597128,-1.711324 4.909568,-3.365494 1.300678,-0.931332 1.505996,-1.1684 1.29327,-1.49754 -0.1704,-0.262478 -4.367704,-2.32621 -6.373228,-3.133718 -2.1103,-0.848782 -2.332548,-0.849842 -4.379346,-0.0168 -1.836192,0.745068 -5.965774,2.786588 -6.312904,3.121018 -0.357712,0.345 -0.1778,0.66146 0.723894,1.27106 1.858418,1.256236 5.420736,3.67347 5.420736,3.67347 2.421446,2.063744 2.234122,2.064804 4.71801,-0.0508 z m -9.736582,-7.381866 c 2.51881,-1.183212 2.895574,-1.427684 4.821724,-3.132658 1.618178,-1.43298 1.917682,-1.859488 1.688026,-2.402412 -0.07832,-0.1831 -1.29433,-1.304922 -2.702958,-2.492372 -3.329488,-2.805636 -3.190848,-2.40982 -1.924034,-5.45464 0.752468,-1.80869 0.949316,-2.414056 0.946142,-2.915702 -0.0042,-0.75671 -0.28469,-1.325036 -0.849834,-1.717678 -0.229656,-0.1598 -2.241532,-0.97049 -4.470362,-1.802338 -2.229888,-0.831848 -4.041741,-1.568448 -4.025864,-1.635122 0.03492,-0.15452 2.494468,-0.422274 4.279862,-0.465665 l 1.349364,-0.03388 2.482828,0.865713 c 2.165332,0.756722 2.505052,0.911238 2.668036,1.218156 0.10266,0.19368 0.1852,0.45402 0.18308,0.577846 -0.0011,0.12382 -0.403222,1.920876 -0.892168,3.99309 -0.856184,3.62796 -0.880526,3.77507 -0.65722,3.99626 0.352422,0.352424 3.815258,1.168398 4.89581,1.085848 1.235064,-0.0942 3.75705,-0.846666 4.012106,-1.098548 0.205314,-0.205316 0.16616,-0.436032 -0.672036,-3.98356 -0.490004,-2.072214 -0.892168,-3.869266 -0.893226,-3.99309 -0.0022,-0.12382 0.0815,-0.38523 0.18414,-0.579964 0.16298,-0.306916 0.482596,-0.4572 2.410864,-1.131356 3.110414,-1.087965 3.046914,-1.078441 5.87264,-0.827616 1.317614,0.116414 2.447904,0.261408 2.512462,0.321732 0.06984,0.06562 -0.0084,0.15876 -0.1926,0.22754 -0.1704,0.06456 -1.98859,0.74718 -4.03962,1.51553 -2.051034,0.769406 -3.944374,1.537756 -4.207896,1.708146 -0.619122,0.398992 -0.918628,0.970494 -0.92286,1.754718 -0.0032,0.496356 0.19156,1.09643 0.923916,2.846914 0.510112,1.220254 0.928152,2.33362 0.928152,2.47332 0,0.566208 -0.422272,1.023406 -2.763286,2.990844 -1.34513,1.131356 -2.538918,2.222496 -2.653218,2.425696 -0.1143,0.2032 -0.17886,0.51435 -0.14498,0.690032 0.05926,0.301622 1.670034,1.857372 3.310436,3.19828 0.68897,0.563032 4.861944,3.17393 5.530802,3.279768 0.559856,0.08892 1.15781,-0.746124 2.137818,-1.556806 0.959898,-0.795864 1.53245,-1.59173 1.920854,-2.672288 0.365116,-1.014938 0.273038,-1.697564 -0.448728,-3.341154 -0.550328,-1.25412 -0.696378,-1.943094 -0.512228,-2.412994 0.0434,-0.10794 1.533512,-1.517648 3.311498,-3.13266 3.874526,-3.517896 4.799496,-4.147604 5.012224,-4.776252 0.235996,-0.697442 0.06984,-2.674408 -0.460372,-3.599388 C 53.202332,19.623605 47.94246,12.7 47.495848,12.7 c -2.300794,0.368299 -4.225886,1.182156 -6.650508,1.555747 -0.19048,0 -1.001172,-0.197908 -1.80021,-0.441324 C 35.629922,12.779375 34.522914,12.7 33.86146,12.7 c -0.661452,0 -1.76846,0.07938 -5.183672,1.114423 -0.799026,0.242358 -1.618168,0.441325 -1.81925,0.441325 C 24.4699,13.910732 22.699324,12.981517 20.22602,12.7 c -0.385231,0.255058 -3.805735,4.945584 -5.221773,6.995572 -1.664744,2.408764 -2.135698,3.777186 -2.271164,4.694762 -0.189438,1.283754 0.292098,1.499654 5.26728,6.008148 1.67321,1.515532 3.076549,2.843736 3.118883,2.94957 0.18626,0.475192 0.03916,1.191682 -0.503762,2.446864 -0.745062,1.724022 -0.811736,2.202386 -0.451906,3.243784 0.390522,1.131358 1.054092,2.046814 2.055266,2.836326 0.931326,0.734484 1.291156,1.471084 1.841484,1.482728 0.19578,0.0044 1.302798,-0.9906 2.458488,-1.533528 z"
     style="fill:#ffffff;stroke-width:1.05833"
     id="path3620" />
</svg>
