<?xml version="1.0" encoding="UTF-8" standalone="no"?>
<!-- Created with Inkscape (http://www.inkscape.org/) -->

<svg
   width="256"
   height="256"
   viewBox="0 0 67.733332 67.733336"
   version="1.1"
   id="svg1099"
   inkscape:version="1.2 (dc2aedaf03, 2022-05-15)"
   sodipodi:docname="desktop-environment-mate.svg"
   xmlns:inkscape="http://www.inkscape.org/namespaces/inkscape"
   xmlns:sodipodi="http://sodipodi.sourceforge.net/DTD/sodipodi-0.dtd"
   xmlns="http://www.w3.org/2000/svg"
   xmlns:svg="http://www.w3.org/2000/svg">
  <rect
     style="opacity:1;fill:#87a752;fill-opacity:1;stroke-width:1.05833"
     id="rect1196"
     width="63.5"
     height="64.558334"
     x="2.1166668"
     y="2.1166668"
     ry="31.75" />
  <sodipodi:namedview
     id="namedview1101"
     pagecolor="#ffffff"
     bordercolor="#666666"
     borderopacity="1.0"
     inkscape:pageshadow="2"
     inkscape:pageopacity="0.0"
     inkscape:pagecheckerboard="0"
     inkscape:document-units="px"
     showgrid="false"
     units="px"
     inkscape:zoom="1.1241893"
     inkscape:cx="18.680128"
     inkscape:cy="226.38536"
     inkscape:window-width="1846"
     inkscape:window-height="1011"
     inkscape:window-x="74"
     inkscape:window-y="32"
     inkscape:window-maximized="1"
     inkscape:current-layer="svg1099"
     inkscape:showpageshadow="2"
     inkscape:deskcolor="#d1d1d1" />
  <defs
     id="defs1096" />
  <path
     id="rect3750"
     style="opacity:0.5;fill:#000000;stroke-width:0.264583"
     d="m 33.866667,2.1166667 c -17.589483,0 -31.7500003,14.1605173 -31.7500003,31.7500003 V 34.925 c 0,17.589482 14.1605173,31.75 31.7500003,31.75 17.589482,0 31.75,-14.160518 31.75,-31.75 v -1.058333 c 0,-17.589483 -14.160518,-31.7500003 -31.75,-31.7500003 z m 0,0.2645834 A 31.485416,31.485416 0 0 1 65.352084,33.866667 31.485416,31.485416 0 0 1 33.866667,65.352084 31.485416,31.485416 0 0 1 2.3812501,33.866667 31.485416,31.485416 0 0 1 33.866667,2.3812501 Z" />
  <path
     id="path346"
     style="fill:#ffffff;stroke-width:3.0753;stroke-linejoin:round"
     d="m 33.866669,14.816667 a 19.050002,19.050002 0 0 0 -15.195974,7.568526 l 2.70991,1.692922 A 15.875002,15.875002 0 0 1 33.866669,17.991665 15.875002,15.875002 0 0 1 49.741671,33.866667 15.875002,15.875002 0 0 1 33.866669,49.741665 15.875002,15.875002 0 0 1 21.380605,43.655217 l -2.70991,1.692916 a 19.050002,19.050002 0 0 0 15.195974,7.568532 19.050002,19.050002 0 0 0 19.049998,-19.049998 19.050002,19.050002 0 0 0 -19.049998,-19.05 z m 0,7.937498 a 11.112501,11.112501 0 0 0 -8.418092,3.86643 l 2.73782,1.711524 a 7.9375007,7.9375007 0 0 1 5.680272,-2.402952 7.9375007,7.9375007 0 0 1 7.937498,7.9375 7.9375007,7.9375007 0 0 1 -7.937498,7.937502 7.9375007,7.9375007 0 0 1 -5.680272,-2.402958 l -2.73782,1.711522 A 11.112501,11.112501 0 0 0 33.866669,44.979165 11.112501,11.112501 0 0 0 44.979171,33.866667 11.112501,11.112501 0 0 0 33.866669,22.754165 Z m -19.050002,1.587502 v 19.049998 l 15.875002,-9.524998 z" />
</svg>
