<?xml version="1.0" encoding="UTF-8" standalone="no"?>
<!-- Created with Inkscape (http://www.inkscape.org/) -->

<svg
   width="256"
   height="256"
   viewBox="0 0 67.733332 67.733336"
   version="1.1"
   id="svg1099"
   inkscape:version="1.2 (dc2aedaf03, 2022-05-15)"
   sodipodi:docname="discord.svg"
   xmlns:inkscape="http://www.inkscape.org/namespaces/inkscape"
   xmlns:sodipodi="http://sodipodi.sourceforge.net/DTD/sodipodi-0.dtd"
   xmlns="http://www.w3.org/2000/svg"
   xmlns:svg="http://www.w3.org/2000/svg">
  <sodipodi:namedview
     id="namedview1101"
     pagecolor="#ffffff"
     bordercolor="#666666"
     borderopacity="1.0"
     inkscape:pageshadow="2"
     inkscape:pageopacity="0.0"
     inkscape:pagecheckerboard="0"
     inkscape:document-units="px"
     showgrid="false"
     units="px"
     inkscape:zoom="1.4142136"
     inkscape:cx="108.89444"
     inkscape:cy="163.34167"
     inkscape:window-width="1846"
     inkscape:window-height="1011"
     inkscape:window-x="0"
     inkscape:window-y="0"
     inkscape:window-maximized="1"
     inkscape:current-layer="svg1099"
     inkscape:showpageshadow="2"
     inkscape:deskcolor="#d1d1d1" />
  <defs
     id="defs1096" />
  <rect
     style="opacity:1;fill:#5865f2;fill-opacity:1;stroke-width:1.05833"
     id="rect1196"
     width="63.5"
     height="64.558334"
     x="2.1166668"
     y="2.1166668"
     ry="31.75" />
  <path
     id="rect1972"
     style="fill:#000000;fill-opacity:1;stroke-width:0.529167;stroke-linejoin:round;opacity:0.5"
     d="M 33.866667 2.1166667 C 16.277185 2.1166667 2.1166667 16.277185 2.1166667 33.866667 L 2.1166667 34.925 C 2.1166667 52.514483 16.277185 66.675001 33.866667 66.675001 C 51.456149 66.675001 65.616667 52.514483 65.616667 34.925 L 65.616667 33.866667 C 65.616667 16.277185 51.456149 2.1166667 33.866667 2.1166667 z M 33.866667 2.38125 A 31.485416 31.485416 0 0 1 65.352084 33.866667 A 31.485416 31.485416 0 0 1 33.866667 65.352084 A 31.485416 31.485416 0 0 1 2.38125 33.866667 A 31.485416 31.485416 0 0 1 33.866667 2.38125 z " />
  <path
     d="m 28.407491,19.052044 c -2.721087,0.478246 -5.325658,1.31502 -7.755424,2.453542 -0.0212,0.0092 -0.0356,0.0232 -0.04756,0.0434 -4.939138,7.529973 -6.294288,14.875595 -5.630536,22.129429 0.003,0.0356 0.0224,0.06936 0.0496,0.09096 3.258703,2.442085 6.414394,3.924397 9.512387,4.907082 0.0496,0.0156 0.1028,-0.0019 0.13436,-0.0434 0.732832,-1.021237 1.387026,-1.864775 1.947125,-2.997167 0.0332,-0.06632 0.0015,-0.14532 -0.06616,-0.17156 -1.036165,-0.401098 -2.021215,-0.889488 -2.970295,-1.444839 -0.07508,-0.04476 -0.08344,-0.15424 -0.0144,-0.206716 0.19972,-0.15272 0.40046,-0.312912 0.591164,-0.473346 0.0344,-0.0292 0.08344,-0.0352 0.12404,-0.0164 6.235052,2.904959 12.985246,2.904959 19.146734,0 0.04056,-0.02 0.08596,-0.0148 0.12196,0.0144 0.19076,0.16044 0.391992,0.322674 0.593232,0.475414 0.06904,0.05244 0.06268,0.16196 -0.0124,0.206716 -0.94908,0.566143 -1.934685,1.045273 -2.972367,1.444839 -0.06756,0.0264 -0.09712,0.10524 -0.06408,0.17156 0.572122,1.130808 1.223684,1.973814 1.942993,2.995099 0.03,0.0432 0.08476,0.06092 0.13436,0.04548 3.113019,-0.982685 6.270218,-2.464997 9.528923,-4.907086 0.0284,-0.0216 0.04868,-0.05548 0.05168,-0.09096 0.794378,-8.386228 -1.334353,-15.667479 -5.636744,-22.125297 -0.0104,-0.0216 -0.0264,-0.0384 -0.04752,-0.04752 -2.428263,-1.13699 -5.03077,-1.973764 -7.753361,-2.453542 -0.0496,-0.0092 -0.10056,0.0116 -0.12608,0.05788 -0.334912,0.607736 -0.703476,0.680946 -0.963242,1.3042 -2.928323,-0.44737 -5.84418,-0.44737 -8.712457,0 -0.259834,-0.637106 -0.64337,-0.696464 -0.979762,-1.304284 -0.0256,-0.04476 -0.07652,-0.0656 -0.12608,-0.05788 z M 26.983323,32.80801 c 2.07891,0 3.740717,1.676908 3.708219,3.704083 0,2.041773 -1.645559,3.704085 -3.708219,3.704085 -2.030275,0 -3.699951,-1.662312 -3.699951,-3.704085 0,-2.041775 1.637232,-3.704083 3.699951,-3.704083 z m 13.762164,0 c 2.078971,0 3.736535,1.676908 3.704087,3.704083 0,2.041773 -1.625116,3.704085 -3.704087,3.704085 -2.030217,0 -3.704085,-1.662312 -3.704085,-3.704085 0,-2.041775 1.641368,-3.704083 3.704085,-3.704083 z"
     style="fill:#ffffff;stroke-width:1.05831"
     id="path13141" />
</svg>
