<?xml version="1.0" encoding="UTF-8" standalone="no"?>
<!-- Created with Inkscape (http://www.inkscape.org/) -->

<svg
   width="256"
   height="256"
   viewBox="0 0 67.733332 67.733336"
   version="1.1"
   id="svg1099"
   inkscape:version="1.2 (dc2aedaf03, 2022-05-15)"
   sodipodi:docname="disk-utility.svg"
   xmlns:inkscape="http://www.inkscape.org/namespaces/inkscape"
   xmlns:sodipodi="http://sodipodi.sourceforge.net/DTD/sodipodi-0.dtd"
   xmlns="http://www.w3.org/2000/svg"
   xmlns:svg="http://www.w3.org/2000/svg">
  <sodipodi:namedview
     id="namedview1101"
     pagecolor="#ffffff"
     bordercolor="#666666"
     borderopacity="1.0"
     inkscape:pageshadow="2"
     inkscape:pageopacity="0.0"
     inkscape:pagecheckerboard="0"
     inkscape:document-units="px"
     showgrid="false"
     units="px"
     inkscape:zoom="2.2925728"
     inkscape:cx="46.018168"
     inkscape:cy="171.85932"
     inkscape:window-width="1920"
     inkscape:window-height="1011"
     inkscape:window-x="0"
     inkscape:window-y="0"
     inkscape:window-maximized="1"
     inkscape:current-layer="svg1099"
     inkscape:showpageshadow="2"
     inkscape:deskcolor="#d1d1d1"
     showguides="true" />
  <defs
     id="defs1096" />
  <rect
     style="fill:#565656;fill-opacity:1;stroke-width:0.529167"
     id="rect873"
     width="47.095833"
     height="60.854168"
     x="10.31875"
     y="3.4395831"
     ry="2.2489583" />
  <rect
     style="fill:#acacac;fill-opacity:1;stroke-width:0.264583"
     id="rect4469"
     width="46.566666"
     height="59.266666"
     x="10.583333"
     y="3.7041667"
     ry="2.1166668" />
  <path
     d="M 33.866667,12.7 C 25.683647,12.7 19.05,19.333648 19.05,27.516667 v 12.7 c 0,1.172634 0.944033,2.116667 2.116667,2.116667 h 12.7 c 8.18302,0 14.816667,-6.633647 14.816667,-14.816667 C 48.683334,19.333648 42.049687,12.7 33.866667,12.7 Z"
     id="path1716"
     style="stroke-width:0.264583;fill:#424242;fill-opacity:1" />
  <circle
     style="fill:#acacac;fill-opacity:1;stroke-width:0.264583"
     id="path7427"
     cx="33.866669"
     cy="27.516666"
     r="7.4083333" />
  <rect
     style="fill:#552d5d;fill-opacity:1;stroke-width:0.264583"
     id="rect9245"
     width="29.633333"
     height="30.691668"
     x="38.100002"
     y="37.041664"
     ry="14.816667" />
  <circle
     style="fill:#aa5abb;fill-opacity:1;stroke-width:0.264583"
     id="path11115"
     cx="52.916672"
     cy="51.858334"
     r="14.552083" />
  <path
     d="m 51.064583,44.449999 -0.163248,1.951302 c -0.618763,0.229196 -1.194051,0.561934 -1.701271,0.983986 l -1.773502,-0.835025 -1.852083,3.208073 1.610254,1.118129 c -0.05735,0.324186 -0.08709,0.652654 -0.0889,0.98187 1.74e-4,0.330509 0.0285,0.6604 0.08467,0.986102 l -1.60602,1.113896 1.852083,3.208337 1.769269,-0.833173 c 0.508865,0.420282 1.085498,0.750965 1.705239,0.977899 l 0.163513,1.955272 h 3.704167 l 0.163248,-1.951302 c 0.618762,-0.229195 1.194051,-0.561933 1.70127,-0.983985 l 1.773503,0.835289 1.852083,-3.208073 -1.610254,-1.118394 c 0.05733,-0.324098 0.08707,-0.652478 0.0889,-0.981604 -1.62e-4,-0.330597 -0.02848,-0.66058 -0.08467,-0.986366 l 1.606021,-1.113897 -1.852083,-3.208338 -1.769534,0.833174 c -0.508885,-0.420187 -1.085518,-0.75078 -1.70524,-0.977635 L 54.76875,44.449999 Z m 1.852083,5.291668 c 1.169003,0 2.116667,0.947663 2.116667,2.116667 0,1.169002 -0.947664,2.116666 -2.116667,2.116666 -1.169003,0 -2.116667,-0.947663 -2.116667,-2.116666 0,-1.169004 0.947664,-2.116667 2.116667,-2.116667 z"
     style="fill:#fafafb;stroke-width:0.264583"
     id="path1143" />
</svg>
