<?xml version="1.0" encoding="UTF-8" standalone="no"?>
<!-- Created with Inkscape (http://www.inkscape.org/) -->

<svg
   width="256"
   height="256"
   viewBox="0 0 67.733332 67.733336"
   version="1.1"
   id="svg1099"
   inkscape:version="1.2 (dc2aedaf03, 2022-05-15)"
   sodipodi:docname="disk-burner.svg"
   xmlns:inkscape="http://www.inkscape.org/namespaces/inkscape"
   xmlns:sodipodi="http://sodipodi.sourceforge.net/DTD/sodipodi-0.dtd"
   xmlns="http://www.w3.org/2000/svg"
   xmlns:svg="http://www.w3.org/2000/svg">
  <rect
     style="opacity:1;fill:#cdcdcd;fill-opacity:1;stroke-width:1.05833"
     id="rect1196"
     width="63.5"
     height="64.558334"
     x="2.1166668"
     y="2.1166668"
     ry="31.75" />
  <sodipodi:namedview
     id="namedview1101"
     pagecolor="#ffffff"
     bordercolor="#666666"
     borderopacity="1.0"
     inkscape:pageshadow="2"
     inkscape:pageopacity="0.0"
     inkscape:pagecheckerboard="0"
     inkscape:document-units="px"
     showgrid="false"
     units="px"
     inkscape:zoom="1.1241893"
     inkscape:cx="18.235364"
     inkscape:cy="154.33344"
     inkscape:window-width="1846"
     inkscape:window-height="1011"
     inkscape:window-x="0"
     inkscape:window-y="0"
     inkscape:window-maximized="1"
     inkscape:current-layer="svg1099"
     inkscape:showpageshadow="2"
     inkscape:deskcolor="#d1d1d1" />
  <defs
     id="defs1096" />
  <circle
     style="opacity:0.2;fill:#000000;fill-opacity:1;stroke-width:1.08479"
     id="path4495"
     cx="33.866669"
     cy="33.866669"
     r="10.847916" />
  <circle
     style="fill:#292929;stroke-width:0.846664"
     id="path1454"
     cx="33.866669"
     cy="33.866669"
     r="4.2333336" />
  <path
     id="path3324"
     style="opacity:0.5;fill:#000000;fill-opacity:1;stroke-width:0.986173"
     d="M 33.866667,23.01875 A 10.847917,10.847917 0 0 0 23.01875,33.866667 10.847917,10.847917 0 0 0 33.866667,44.714583 10.847917,10.847917 0 0 0 44.714583,33.866667 10.847917,10.847917 0 0 0 33.866667,23.01875 Z m 0,0.264583 A 10.583333,10.583333 0 0 1 44.45,33.866667 10.583333,10.583333 0 0 1 33.866667,44.45 10.583333,10.583333 0 0 1 23.283333,33.866667 10.583333,10.583333 0 0 1 33.866667,23.283333 Z" />
  <path
     id="rect3750"
     style="opacity:0.5;fill:#000000;stroke-width:0.264583"
     d="m 33.866667,2.1166667 c -17.589483,0 -31.7500003,14.1605173 -31.7500003,31.7500003 V 34.925 c 0,17.589482 14.1605173,31.75 31.7500003,31.75 17.589482,0 31.75,-14.160518 31.75,-31.75 v -1.058333 c 0,-17.589483 -14.160518,-31.7500003 -31.75,-31.7500003 z m 0,0.2645834 A 31.485416,31.485416 0 0 1 65.352084,33.866667 31.485416,31.485416 0 0 1 33.866667,65.352084 31.485416,31.485416 0 0 1 2.3812501,33.866667 31.485416,31.485416 0 0 1 33.866667,2.3812501 Z" />
  <rect
     style="fill:#f15d22;fill-opacity:1;stroke-width:0.529167;stroke-linejoin:round"
     id="rect347"
     width="34.395824"
     height="35.45417"
     x="33.337509"
     y="32.279167"
     ry="17.197912" />
  <path
     d="m 50.248611,57.083325 c -1.76636,0 -3.185584,-1.399118 -3.185584,-3.115734 0,-1.607608 1.02235,-2.738966 2.778654,-3.096154 1.756834,-0.357188 3.572403,-1.201208 4.584699,-2.560108 0.386822,1.280054 0.575734,2.629428 0.575734,4.008966 0,2.619376 -2.124076,4.76303 -4.753503,4.76303 M 52.025022,38.89375 c 0,0 0.733954,2.629958 0.733954,4.763558 0,2.044172 -1.339319,3.700992 -3.383491,3.700992 -2.054224,0 -3.602566,-1.65682 -3.602566,-3.700992 l 0.03016,-0.367242 c -2.004484,2.38125 -3.205162,5.467879 -3.205162,8.831791 0,4.384348 3.554212,7.93856 7.938558,7.93856 4.384343,0 7.938557,-3.554212 7.938557,-7.93856 0,-5.358869 -2.570162,-10.121899 -6.450542,-13.228107 z"
     style="fill:#ffffff;stroke-width:0.529166"
     id="path461" />
  <path
     id="rect345"
     style="opacity:0.5;fill:#000000;stroke-width:0.529167;stroke-linejoin:round"
     d="m 50.535417,32.279176 c -9.527636,0 -17.197917,7.670281 -17.197917,17.197917 v 1.058333 c 0,9.527636 7.670281,17.197917 17.197917,17.197917 9.527636,0 17.197917,-7.670281 17.197917,-17.197917 v -1.058333 c 0,-9.527636 -7.670281,-17.197917 -17.197917,-17.197917 z m 0,0.264583 A 16.933334,16.933334 0 0 1 67.468751,49.477093 16.933334,16.933334 0 0 1 50.535417,66.410426 16.933334,16.933334 0 0 1 33.602084,49.477093 16.933334,16.933334 0 0 1 50.535417,32.543759 Z" />
</svg>
