<?xml version="1.0" encoding="UTF-8" standalone="no"?>
<!-- Created with Inkscape (http://www.inkscape.org/) -->

<svg
   width="256"
   height="256"
   viewBox="0 0 256 256"
   version="1.1"
   id="svg5"
   inkscape:version="1.2.1 (9c6d41e410, 2022-07-14, custom)"
   sodipodi:docname="dolphin-emu.svg"
   xmlns:inkscape="http://www.inkscape.org/namespaces/inkscape"
   xmlns:sodipodi="http://sodipodi.sourceforge.net/DTD/sodipodi-0.dtd"
   xmlns="http://www.w3.org/2000/svg"
   xmlns:svg="http://www.w3.org/2000/svg">
  <sodipodi:namedview
     id="namedview7"
     pagecolor="#ffffff"
     bordercolor="#000000"
     borderopacity="0.25"
     inkscape:showpageshadow="2"
     inkscape:pageopacity="0.0"
     inkscape:pagecheckerboard="0"
     inkscape:deskcolor="#d1d1d1"
     inkscape:document-units="px"
     showgrid="false"
     showguides="false"
     inkscape:zoom="3.1328125"
     inkscape:cx="124.96758"
     inkscape:cy="128.3192"
     inkscape:window-width="1920"
     inkscape:window-height="1011"
     inkscape:window-x="0"
     inkscape:window-y="0"
     inkscape:window-maximized="1"
     inkscape:current-layer="svg5" />
  <defs
     id="defs2" />
  <rect
     style="fill:#ededed;fill-opacity:1;stroke-width:2;stroke-linecap:round"
     id="rect934"
     width="208"
     height="208"
     x="24"
     y="24"
     ry="16.5" />
  <path
     id="rect1388"
     style="opacity:0.5;fill:#000000;stroke-width:2;stroke-linejoin:bevel"
     d="m 40.500001,24.000001 c -9.14099,0 -16.499999,7.359009 -16.499999,16.499999 v 175 c 0,9.14099 7.359009,16.5 16.499999,16.5 H 215.5 c 9.14099,0 16.5,-7.35901 16.5,-16.5 v -175 c 0,-9.14099 -7.35901,-16.499999 -16.5,-16.499999 z M 41.000003,25 H 215 c 8.86399,0 16,7.136009 16,16.000001 V 211 c 0,8.86399 -7.13601,16 -16,16 H 41.000003 C 32.13601,227 25.000002,219.86399 25.000002,211 V 41.000001 C 25.000002,32.136009 32.13601,25 41.000003,25 Z" />
  <path
     d="m 151.49973,92.084979 c -7.45593,0.478244 -14.15185,4.848316 -15.40323,5.437976 -3.9966,-1.179312 -8.59594,-3.537964 -13.94875,-4.455212 -18.53499,-3.144852 -34.213413,1.900024 -42.088657,7.337997 -10.312508,7.16109 -10.030776,15.20013 -10.882508,18.53499 -0.526788,2.09658 -5.241424,5.89661 -5.175908,8.56974 0.09172,3.47244 2.293124,4.65176 2.293124,4.65176 1.965532,-0.15528 4.913836,-1.57242 7.416616,-2.62071 3.734516,-1.50691 3.996592,-2.35865 14.19116,-3.86556 4.651768,-0.72073 9.611468,-0.91725 13.280463,-0.91725 1.44139,3.01382 4.97936,9.21836 11.13148,12.19288 3.669,1.70346 9.14629,2.42416 11.577,2.88278 l 7.10213,1.04828 v -2.88278 h -0.009 c 0,0 -5.96213,-2.48968 -9.63112,-6.15867 -1.57243,-1.57244 -1.57243,-3.40693 -1.96553,-5.24144 5.63452,1.04829 10.68596,1.90003 22.6102,6.42075 10.98079,4.19314 18.47603,10.31251 18.48258,10.31906 l 0.009,0.009 0.0176,0.0176 v -2.88278 l -0.0272,-0.0176 c -0.0996,-0.12384 -7.79007,-9.65733 -20.72328,-16.03876 -10.69252,-5.24144 -19.4719,-7.8818 -31.63202,-8.47146 -12.631835,-0.61264 -21.024671,0.85173 -21.941919,0.98276 1.113804,-2.16208 3.275896,-5.76557 9.165948,-8.53697 8.726981,-4.0621 22.446401,-4.7828 38.203441,-0.78625 22.25641,5.70006 29.84992,16.19602 39.42863,26.19404 10.18802,10.62699 18.98708,28.48715 18.99362,28.5068 l 0.008,0.0184 0.018,0.0448 v -2.88243 l -0.0806,-0.22344 c -0.42584,-1.44139 -3.07934,-10.03078 -7.5411,-18.27947 -5.8966,-10.86941 -10.95458,-18.63982 -19.39328,-26.52817 -5.8966,-4.38969 -11.87838,-10.37147 -10.8563,-12.95287 2.62072,-3.472447 9.83423,-5.634535 9.86044,-5.634535 h 0.0176 v -0.008 -2.882788 c 0,0 -4.52074,-1.57242 -12.48771,-1.04828 z m 8.91698,51.267701 c 0,0 0.0712,0.0624 0,0 z"
     style="fill:#0096f4;stroke-width:6.39812"
     id="path1698" />
</svg>
