<?xml version="1.0" encoding="UTF-8" standalone="no"?>
<!-- Created with Inkscape (http://www.inkscape.org/) -->

<svg
   width="256"
   height="256"
   viewBox="0 0 67.733332 67.733336"
   version="1.1"
   id="svg1099"
   inkscape:version="1.2 (dc2aedaf03, 2022-05-15)"
   sodipodi:docname="github-desktop.svg"
   xmlns:inkscape="http://www.inkscape.org/namespaces/inkscape"
   xmlns:sodipodi="http://sodipodi.sourceforge.net/DTD/sodipodi-0.dtd"
   xmlns="http://www.w3.org/2000/svg"
   xmlns:svg="http://www.w3.org/2000/svg">
  <sodipodi:namedview
     id="namedview1101"
     pagecolor="#ffffff"
     bordercolor="#666666"
     borderopacity="1.0"
     inkscape:pageshadow="2"
     inkscape:pageopacity="0.0"
     inkscape:pagecheckerboard="0"
     inkscape:document-units="px"
     showgrid="false"
     units="px"
     inkscape:zoom="2"
     inkscape:cx="125"
     inkscape:cy="106.5"
     inkscape:window-width="1846"
     inkscape:window-height="1015"
     inkscape:window-x="0"
     inkscape:window-y="0"
     inkscape:window-maximized="1"
     inkscape:current-layer="svg1099"
     inkscape:showpageshadow="2"
     inkscape:deskcolor="#d1d1d1"
     showguides="false" />
  <defs
     id="defs1096" />
  <rect
     style="opacity:1;fill:#9c27b0;fill-opacity:1;stroke-width:0.529167;stroke-linecap:round"
     id="rect934"
     width="55.033333"
     height="55.033333"
     x="6.3499999"
     y="6.3499999"
     ry="4.3656249" />
  <path
     id="rect1388"
     style="opacity:0.5;fill:#000000;stroke-width:0.529167;stroke-linejoin:bevel"
     d="M 10.715625 6.3500001 C 8.2970713 6.3500001 6.3500001 8.2970713 6.3500001 10.715625 L 6.3500001 57.017709 C 6.3500001 59.436263 8.2970713 61.383334 10.715625 61.383334 L 57.017709 61.383334 C 59.436263 61.383334 61.383334 59.436263 61.383334 57.017709 L 61.383334 10.715625 C 61.383334 8.2970713 59.436263 6.3500001 57.017709 6.3500001 L 10.715625 6.3500001 z M 10.847917 6.6145834 L 56.885417 6.6145834 C 59.230682 6.6145834 61.118751 8.5026523 61.118751 10.847917 L 61.118751 55.827084 C 61.118751 58.172348 59.230682 60.060417 56.885417 60.060417 L 10.847917 60.060417 C 8.5026523 60.060417 6.6145834 58.172348 6.6145834 55.827084 L 6.6145834 10.847917 C 6.6145834 8.5026523 8.5026523 6.6145834 10.847917 6.6145834 z " />
  <path
     d="m 33.866669,21.166667 c -7.035802,0 -12.700002,5.664204 -12.700002,12.700006 0,5.672088 3.757955,10.445954 8.871395,12.086087 v -2.130321 c -3.214771,0.709424 -3.966271,-1.413871 -3.966271,-1.413871 -0.525761,-1.356704 -1.283641,-1.463624 -1.283641,-1.463624 -1.049387,-0.72798 0.07752,-0.71624 0.07752,-0.71624 1.160017,0.08284 1.770433,1.212335 1.770433,1.212335 1.030927,1.794381 2.780752,1.277293 3.439167,0.976681 0.105,-0.758393 0.2864,-2.040956 0.6163,-2.334368 -2.566192,-0.296399 -4.444907,-1.937416 -4.444907,-6.437343 0,-1.281749 0.756763,-2.965031 1.496063,-3.785299 -0.1192,-0.29704 -0.517664,-2.015228 0.11164,-3.631463 0,0 0.06064,-0.0192 0.18604,-0.0248 0.376079,-0.0176 1.222057,0.58494 2.877343,1.724607 0.999404,-0.28712 2.150485,-0.421372 2.948948,-0.427884 0.900319,-0.0076 1.815837,0.14748 2.755276,0.427884 1.655763,-1.139667 2.71354,-1.745167 3.088188,-1.727707 h 0.0032 c 0.125239,0.006 0.186039,0.0248 0.186039,0.0248 0.630748,1.616171 0.23324,3.337539 0.11472,3.634563 0.7406,0.82042 1.472583,2.503546 1.472583,3.785299 0,4.511391 -2.929468,6.137504 -5.503438,6.428035 0.41434,0.3626 0.529164,1.081543 0.529164,2.176613 0,1.322579 0.003,2.182242 0,2.728517 l 0.0212,1.175122 c 5.487306,-1.404429 10.033038,-6.350507 10.033038,-12.287627 0,-7.035802 -5.664203,-12.700002 -12.700006,-12.700002 z"
     style="fill:#ffffff;stroke-width:1.27"
     id="path794"
     sodipodi:nodetypes="csccccccccsccccccccccscsccscc" />
</svg>
