<?xml version="1.0" encoding="UTF-8" standalone="no"?>
<!-- Created with Inkscape (http://www.inkscape.org/) -->

<svg
   width="256"
   height="256"
   viewBox="0 0 67.733332 67.733336"
   version="1.1"
   id="svg1099"
   inkscape:version="1.2 (dc2aedaf03, 2022-05-15)"
   sodipodi:docname="ibus-setup.svg"
   xmlns:inkscape="http://www.inkscape.org/namespaces/inkscape"
   xmlns:sodipodi="http://sodipodi.sourceforge.net/DTD/sodipodi-0.dtd"
   xmlns="http://www.w3.org/2000/svg"
   xmlns:svg="http://www.w3.org/2000/svg">
  <sodipodi:namedview
     id="namedview1101"
     pagecolor="#ffffff"
     bordercolor="#666666"
     borderopacity="1.0"
     inkscape:pageshadow="2"
     inkscape:pageopacity="0.0"
     inkscape:pagecheckerboard="0"
     inkscape:document-units="px"
     showgrid="false"
     units="px"
     inkscape:zoom="1.5898438"
     inkscape:cx="112.27518"
     inkscape:cy="108.50123"
     inkscape:window-width="1846"
     inkscape:window-height="1011"
     inkscape:window-x="0"
     inkscape:window-y="0"
     inkscape:window-maximized="1"
     inkscape:current-layer="svg1099"
     inkscape:showpageshadow="2"
     inkscape:deskcolor="#d1d1d1"
     showguides="false" />
  <defs
     id="defs1096" />
  <rect
     style="opacity:1;fill:#3f51b5;fill-opacity:1;stroke-width:0.529167;stroke-linecap:round"
     id="rect934"
     width="55.033333"
     height="55.033333"
     x="6.3499999"
     y="6.3499999"
     ry="4.3656249" />
  <path
     id="rect1388"
     style="opacity:0.5;fill:#000000;stroke-width:0.529167;stroke-linejoin:bevel"
     d="M 10.715625 6.3500001 C 8.2970713 6.3500001 6.3500001 8.2970713 6.3500001 10.715625 L 6.3500001 57.017709 C 6.3500001 59.436263 8.2970713 61.383334 10.715625 61.383334 L 57.017709 61.383334 C 59.436263 61.383334 61.383334 59.436263 61.383334 57.017709 L 61.383334 10.715625 C 61.383334 8.2970713 59.436263 6.3500001 57.017709 6.3500001 L 10.715625 6.3500001 z M 10.847917 6.6145834 L 56.885417 6.6145834 C 59.230682 6.6145834 61.118751 8.5026523 61.118751 10.847917 L 61.118751 55.827084 C 61.118751 58.172348 59.230682 60.060417 56.885417 60.060417 L 10.847917 60.060417 C 8.5026523 60.060417 6.6145834 58.172348 6.6145834 55.827084 L 6.6145834 10.847917 C 6.6145834 8.5026523 8.5026523 6.6145834 10.847917 6.6145834 z " />
  <path
     id="rect183"
     style="fill:#ffffff;stroke-width:2.44412;stroke-linejoin:round"
     d="M 31.75,21.166667 V 25.4 h 4.233333 v -4.233333 z m 0,8.466669 v 16.933335 h 4.233333 V 29.633336 Z" />
  <rect
     style="fill:#552d5d;fill-opacity:1;stroke-width:0.264583"
     id="rect9245"
     width="29.633333"
     height="30.691668"
     x="38.099998"
     y="37.041668"
     ry="14.816667" />
  <circle
     style="fill:#aa5abb;fill-opacity:1;stroke-width:0.264583"
     id="path11115"
     cx="52.916668"
     cy="51.858337"
     r="14.552083" />
  <path
     d="m 51.06458,44.450003 -0.163248,1.951302 c -0.618763,0.229196 -1.194051,0.561934 -1.701271,0.983986 l -1.773502,-0.835025 -1.852083,3.208073 1.610254,1.118129 c -0.05735,0.324186 -0.08709,0.652654 -0.0889,0.98187 1.74e-4,0.330509 0.0285,0.6604 0.08467,0.986102 l -1.60602,1.113896 1.852083,3.208337 1.769269,-0.833173 c 0.508865,0.420282 1.085498,0.750965 1.705239,0.977899 l 0.163513,1.955272 h 3.704167 l 0.163248,-1.951302 c 0.618762,-0.229195 1.194051,-0.561933 1.70127,-0.983985 l 1.773503,0.835289 1.852083,-3.208073 -1.610254,-1.118394 c 0.05733,-0.324098 0.08707,-0.652478 0.0889,-0.981604 -1.62e-4,-0.330597 -0.02848,-0.66058 -0.08467,-0.986366 l 1.606021,-1.113897 -1.852083,-3.208338 -1.769534,0.833174 c -0.508885,-0.420187 -1.085518,-0.75078 -1.70524,-0.977635 l -0.163248,-1.955537 z m 1.852083,5.291668 c 1.169003,0 2.116667,0.947663 2.116667,2.116667 0,1.169002 -0.947664,2.116666 -2.116667,2.116666 -1.169003,0 -2.116667,-0.947663 -2.116667,-2.116666 0,-1.169004 0.947664,-2.116667 2.116667,-2.116667 z"
     style="fill:#fafafb;stroke-width:0.264583"
     id="path1143" />
</svg>
