<?xml version="1.0" encoding="UTF-8" standalone="no"?>
<!-- Created with Inkscape (http://www.inkscape.org/) -->

<svg
   width="256"
   height="256"
   viewBox="0 0 67.733332 67.733336"
   version="1.1"
   id="svg1099"
   inkscape:version="1.2 (dc2aedaf03, 2022-05-15)"
   sodipodi:docname="internet-web-browser.svg"
   xmlns:inkscape="http://www.inkscape.org/namespaces/inkscape"
   xmlns:sodipodi="http://sodipodi.sourceforge.net/DTD/sodipodi-0.dtd"
   xmlns="http://www.w3.org/2000/svg"
   xmlns:svg="http://www.w3.org/2000/svg">
  <sodipodi:namedview
     id="namedview1101"
     pagecolor="#ffffff"
     bordercolor="#666666"
     borderopacity="1.0"
     inkscape:pageshadow="2"
     inkscape:pageopacity="0.0"
     inkscape:pagecheckerboard="0"
     inkscape:document-units="px"
     showgrid="false"
     units="px"
     inkscape:zoom="2.215233"
     inkscape:cx="52.138985"
     inkscape:cy="82.38411"
     inkscape:window-width="1920"
     inkscape:window-height="1016"
     inkscape:window-x="0"
     inkscape:window-y="0"
     inkscape:window-maximized="1"
     inkscape:current-layer="svg1099"
     inkscape:showpageshadow="2"
     inkscape:deskcolor="#d1d1d1" />
  <defs
     id="defs1096" />
  <rect
     style="opacity:1;fill:#1f285a;fill-opacity:1;stroke-width:1.05833"
     id="rect1196"
     width="63.5"
     height="64.558334"
     x="2.1166668"
     y="2.1166668"
     ry="31.75" />
  <circle
     style="opacity:1;fill:#3f51b5;fill-opacity:1;stroke-width:1.12448"
     id="path1427"
     cx="33.866669"
     cy="33.866669"
     r="31.485416" />
  <path
     d="m 33.86723,2.646098 c -0.374915,0 -0.745596,0.014817 -1.117336,0.027781 h -0.0021 C 32.448815,2.684462 32.15063,2.697692 31.853767,2.716212 l -0.01429,0.00132 c -0.102129,0.00635 -0.2032,0.01614 -0.305065,0.023813 -0.525741,0.038632 -1.047764,0.089961 -1.565818,0.1537259 -0.518054,0.064029 -1.03214,0.1402292 -1.541992,0.2296584 l -0.05477,0.00926 c -0.06615,0.011377 -0.132291,0.023019 -0.198437,0.03519 l -0.02064,0.00397 C 27.820442,3.2342668 27.489183,3.2990897 27.160571,3.3705272 26.04671,3.6131432 24.947029,3.916814 23.866508,4.2801647 18.995265,6.927321 14.896869,11.444024 12.145466,17.198182 H 7.4448794 c -0.0016,0.0021 -0.0026,0.0048 -0.0042,0.0071 -0.202286,0.321319 -0.398728,0.646281 -0.589228,0.974725 l -0.01032,0.01746 c -0.0209,0.03598 -0.04128,0.0725 -0.06191,0.108479 l -0.0093,0.01667 c -0.187263,0.325611 -0.368533,0.654632 -0.543719,0.986896 l -0.0021,0.0032 -0.0011,0.0021 h 4.9754896 c -1.6623766,4.194704 -2.5841856,8.799512 -2.7016606,13.49375 h -5.824008 c -0.01164,0.352161 -0.02699,0.703527 -0.02699,1.058333 0,0.354807 0.01535,0.706438 0.02699,1.058334 h 5.835385 c 0.122238,4.69556 1.049602,9.300633 2.7172706,13.49375 H 6.2232674 c 0.176173,0.334068 0.358502,0.664853 0.546893,0.992188 l 0.0093,0.01667 c 0.02064,0.03625 0.04101,0.0725 0.06191,0.10848 0.193721,0.334393 0.393603,0.665178 0.599546,0.992187 l 0.0021,0.0032 c 5.02e-4,0.0016 0.0012,0.0029 0.0021,0.0042 h 4.7077316 c 2.687902,5.662084 6.678877,10.138834 11.433969,12.824355 5.29e-4,0 0.0016,2.65e-4 0.0021,7.94e-4 h 0.0011 c 0.0037,0.0011 0.0074,0.0026 0.01138,0.0042 0.0066,0.0021 0.01376,0.0037 0.02064,0.0064 0.508529,0.175419 1.023937,0.338667 1.544108,0.487627 0.02725,0.0079 0.0545,0.01508 0.08176,0.02275 0.522552,0.148432 1.049867,0.284163 1.583267,0.4064 l 0.0071,0.0021 c 0.408868,0.09373 0.819586,0.179208 1.2319,0.256381 h 0.0013 c 0.07038,0.01297 0.141287,0.02434 0.211666,0.03704 1.081067,0.193992 2.171603,0.330885 3.267075,0.410104 0.08149,0.0061 0.162454,0.01323 0.243946,0.01852 0.332317,0.02196 0.666221,0.03757 1.001448,0.04868 0.356658,0.01217 0.712258,0.02699 1.071563,0.02699 0.374914,0 0.746125,-0.01482 1.1176,-0.02778 h 0.0021 c 0.298979,-0.01058 0.597165,-0.02381 0.893763,-0.04233 l 0.01455,-0.0013 c 0.102129,-0.0063 0.2032,-0.01614 0.3048,-0.02381 0.525992,-0.03863 1.04775,-0.08996 1.565804,-0.153723 0.515853,-0.06353 1.030015,-0.140108 1.541992,-0.229659 l 0.05477,-0.0093 c 0.06615,-0.01164 0.132557,-0.02302 0.198438,-0.03519 0.0071,-0.0011 0.01376,-0.0026 0.0209,-0.0042 0.332317,-0.06085 0.663575,-0.125677 0.992188,-0.197379 1.113766,-0.242538 2.213358,-0.546121 3.293798,-0.909373 4.871508,-2.647156 8.969904,-7.163858 11.721306,-12.918282 h 4.700588 c 0.0011,-0.0011 0.0011,-0.0026 0.0021,-0.0042 l 0.0021,-0.0032 c 0.202285,-0.32132 0.398727,-0.646282 0.589227,-0.974725 0.02752,-0.04736 0.05424,-0.09525 0.08149,-0.14261 0.186531,-0.325438 0.368564,-0.65405 0.543719,-0.986896 l 0.0021,-0.0032 0.0011,-0.0021 h -4.97549 c 1.662112,-4.194704 2.584185,-8.799513 2.701396,-13.49375 h 5.824008 c 0.01164,-0.352161 0.02672,-0.703263 0.02672,-1.058334 0,-0.35507 -0.01508,-0.706437 -0.02672,-1.058333 h -5.835385 c -0.122238,-4.69556 -1.049602,-9.300633 -2.717271,-13.49375 h 5.002212 l -0.0011,-0.0021 c -5.29e-4,-0.0011 -0.0016,-0.0016 -0.0021,-0.0032 -0.175183,-0.332266 -0.356452,-0.661287 -0.543718,-0.986896 l -0.08149,-0.142875 c -0.190416,-0.328322 -0.386856,-0.653196 -0.589146,-0.974424 l -0.0021,-0.0032 c -0.0011,-0.0011 -0.0011,-0.0026 -0.0021,-0.0042 H 55.581584 C 52.893682,11.535834 48.902707,7.0590835 44.147615,4.3735626 l -0.0032,-7.937e-4 c -0.0039,-0.00119 -0.0077,-0.00262 -0.01138,-0.00423 -0.0069,-0.00212 -0.01402,-0.0037 -0.02064,-0.00635 -0.50853,-0.1754188 -1.023938,-0.3386667 -1.544109,-0.4878917 -0.02725,-0.00794 -0.0545,-0.014817 -0.08176,-0.02249 -0.524163,-0.1490985 -1.052094,-0.2846104 -1.583267,-0.4064 l -0.0074,-0.00185 c -0.07276,-0.016669 -0.145521,-0.033602 -0.219075,-0.049742 -0.335492,-0.074083 -0.6731,-0.1434041 -1.012825,-0.2066396 h -0.0011 C 39.592548,3.1739418 39.52164,3.1625647 39.451261,3.1501293 38.370205,2.9559587 37.279667,2.8188908 36.184186,2.7394959 36.102694,2.7336751 36.021732,2.7262668 35.94024,2.7209751 35.607923,2.6992793 35.274019,2.6839334 34.938792,2.6722918 34.582663,2.6609147 34.227063,2.6458334 33.86723,2.6458334 Z m 1.058333,1.2123209 c 3.155685,0.9101667 6.001808,5.8060168 7.754673,13.3397631 h -7.754673 z m -2.116667,0.019579 V 17.198447 H 25.054223 C 26.808411,9.6723727 29.654269,4.784196 32.808896,3.8782626 Z m 6.300259,0.6315605 C 44.890036,6.2539564 49.938022,10.792884 53.22203,17.198182 H 44.714088 C 43.391436,11.630026 41.437753,7.2072502 39.109155,4.5095584 Z M 28.606519,4.5227876 C 26.278186,7.2167752 24.324502,11.634524 23.000527,17.198182 H 14.498671 C 17.783208,10.799234 22.829077,6.2655981 28.606254,4.5230522 Z M 13.494312,19.315113 h 9.057746 C 21.712271,23.504791 21.2429,28.109864 21.176225,32.808864 H 10.625171 c 0.12647,-4.727046 1.109133,-9.349582 2.869141,-13.493751 z m 11.105357,0 h 8.209227 v 13.493751 h -9.506479 c 0.0553,-4.725459 0.499533,-9.34773 1.296987,-13.493751 z m 10.325894,0 h 8.198908 c 0.802746,4.142317 1.252538,8.764588 1.312334,13.493751 h -9.511242 z m 10.253663,0 h 9.038167 c 1.775618,4.139142 2.774156,8.761942 2.91465,13.493751 H 46.545534 c -0.0635,-4.697148 -0.52996,-9.302221 -1.366308,-13.493751 z M 10.603475,34.92553 h 10.586508 c 0.0635,4.697148 0.529696,9.302221 1.366309,13.493751 H 13.518125 C 11.742506,44.280139 10.743969,39.657339 10.603475,34.92553 Z m 12.694708,0 H 32.80969 V 48.419281 H 24.610781 C 23.807771,44.276964 23.358244,39.654693 23.298448,34.92553 Z m 11.628174,0 h 9.506479 c -0.0553,4.725459 -0.499533,9.34773 -1.296987,13.493751 h -8.209228 z m 11.632406,0 h 10.551319 c -0.126471,4.727046 -1.109133,9.349582 -2.869142,13.493751 H 45.183194 C 46.022982,44.229604 46.492353,39.62453 46.559028,34.92553 Z M 14.512429,50.535947 h 8.507942 c 1.322652,5.568157 3.276335,9.990667 5.604933,12.688624 C 22.844423,61.479908 17.796437,56.941246 14.512429,50.535947 Z m 10.542059,0 h 7.754673 V 63.87571 C 29.653475,62.965544 26.807352,58.069693 25.054488,50.535947 Z m 9.871339,0 h 7.754674 c -1.754188,7.526074 -4.600046,12.414251 -7.754674,13.320184 z m 9.808105,0 h 8.501856 c -3.284537,6.398949 -8.330406,10.932319 -14.107583,12.67513 2.328333,-2.693723 4.282016,-7.111471 5.605991,-12.67513 z"
     style="fill:#94a6ff;stroke-width:0.264583"
     id="path908" />
</svg>
