<?xml version="1.0" encoding="UTF-8" standalone="no"?>
<!-- Created with Inkscape (http://www.inkscape.org/) -->

<svg
   width="256"
   height="256"
   viewBox="0 0 67.733332 67.733332"
   version="1.1"
   id="svg5"
   inkscape:version="1.2 (dc2aedaf03, 2022-05-15)"
   sodipodi:docname="io.github.seadve.Kooha.svg"
   xmlns:inkscape="http://www.inkscape.org/namespaces/inkscape"
   xmlns:sodipodi="http://sodipodi.sourceforge.net/DTD/sodipodi-0.dtd"
   xmlns="http://www.w3.org/2000/svg"
   xmlns:svg="http://www.w3.org/2000/svg">
  <sodipodi:namedview
     id="namedview7"
     pagecolor="#ffffff"
     bordercolor="#666666"
     borderopacity="1.0"
     inkscape:pageshadow="2"
     inkscape:pageopacity="0.0"
     inkscape:pagecheckerboard="0"
     inkscape:document-units="px"
     showgrid="false"
     units="px"
     height="48px"
     inkscape:zoom="3.1796875"
     inkscape:cx="128"
     inkscape:cy="128"
     inkscape:window-width="1846"
     inkscape:window-height="1011"
     inkscape:window-x="0"
     inkscape:window-y="0"
     inkscape:window-maximized="1"
     inkscape:current-layer="svg5"
     inkscape:showpageshadow="2"
     inkscape:deskcolor="#d1d1d1"
     showguides="false" />
  <defs
     id="defs2" />
  <rect
     style="opacity:1;fill:#6f6f6f;fill-opacity:1;stroke-width:0.264583"
     id="rect845"
     width="59.266666"
     height="46.566666"
     x="4.2333331"
     y="14.816667"
     ry="2.1166666" />
  <rect
     style="opacity:1;fill:#dedede;fill-opacity:1;stroke-width:0.264583"
     id="rect1249"
     width="58.737499"
     height="44.979164"
     x="4.4979167"
     y="15.081249"
     ry="1.984375" />
  <rect
     style="opacity:1;fill:#474747;fill-opacity:1;stroke-width:0.529167;stroke-linecap:round"
     id="rect1185"
     width="55.033333"
     height="37.835415"
     x="6.3499999"
     y="17.197918"
     ry="0.26458332" />
  <rect
     style="fill:#ee5496;fill-opacity:1;stroke-width:2.11666;stroke-linejoin:round"
     id="rect344"
     width="51.858334"
     height="35.189583"
     x="7.9375"
     y="18.520832" />
  <path
     id="path1381"
     style="opacity:0.2;fill:#000000;stroke-width:0.529166"
     d="M 9.7895831 20.902083 L 9.7895831 29.368749 L 11.90625 29.368749 L 11.90625 23.01875 L 20.372916 23.01875 L 20.372916 20.902083 L 9.7895831 20.902083 z M 47.889582 20.902083 L 47.889582 23.01875 L 56.356249 23.01875 L 56.356249 29.368749 L 58.472916 29.368749 L 58.472916 20.902083 L 47.889582 20.902083 z M 29.55065 29.104683 C 27.829993 29.147963 26.458333 30.548222 26.458333 32.279683 L 26.458333 34.251655 L 21.850862 30.404862 C 21.672462 30.256422 21.450222 30.170709 21.218343 30.160949 C 21.045663 30.154149 20.873943 30.189342 20.718115 30.264302 C 20.345196 30.438822 20.107345 30.81376 20.108333 31.225484 L 20.108333 41.802616 C 20.104333 42.706183 21.161383 43.198971 21.850862 42.614969 L 26.458333 38.774377 L 26.458333 40.746349 C 26.458333 42.505296 27.874384 43.921349 29.633333 43.921349 L 42.333332 43.921349 C 44.092278 43.921349 45.508332 42.505296 45.508332 40.746349 L 45.508332 32.279683 C 45.508332 30.520738 44.092278 29.104683 42.333332 29.104683 L 29.633333 29.104683 C 29.605733 29.104683 29.57797 29.103995 29.55065 29.104683 z M 35.983333 31.221349 C 38.905837 31.221349 41.274999 33.590517 41.274999 36.513016 C 41.274999 39.43552 38.905837 41.804683 35.983333 41.804683 C 33.06083 41.804683 30.691666 39.43552 30.691666 36.513016 C 30.691666 33.590517 33.06083 31.221349 35.983333 31.221349 z M 35.983333 33.338016 C 34.229831 33.338016 32.808333 34.759515 32.808333 36.513016 C 32.808333 38.266518 34.229831 39.688016 35.983333 39.688016 C 37.736834 39.688016 39.158333 38.266518 39.158333 36.513016 C 39.158333 34.759515 37.736834 33.338016 35.983333 33.338016 z M 9.7895831 43.656249 L 9.7895831 52.122916 L 20.372916 52.122916 L 20.372916 50.006249 L 11.90625 50.006249 L 11.90625 43.656249 L 9.7895831 43.656249 z M 56.356249 43.656249 L 56.356249 50.006249 L 47.889582 50.006249 L 47.889582 52.122916 L 58.472916 52.122916 L 58.472916 43.656249 L 56.356249 43.656249 z " />
  <path
     d="m 9.7895831,20.637501 v 8.466667 H 11.90625 v -6.350001 h 8.466669 v -2.116666 m 27.516667,0 v 2.116666 h 8.466665 v 6.350001 h 2.116666 V 20.637501 M 9.7895831,43.391668 v 8.466665 H 20.372919 V 49.741667 H 11.90625 v -6.349999 z m 46.5666679,0 v 6.349999 h -8.466665 v 2.116666 h 10.583331 v -8.466665 z"
     style="fill:#ffffff;stroke-width:0.529165"
     id="path2057" />
  <path
     id="rect847"
     style="fill:#ffffff;stroke-width:2.11666;stroke-linecap:round"
     d="m 29.550655,28.839889 c -1.720659,0.04328 -3.092314,1.443535 -3.092314,3.174998 v 1.971971 l -4.60747,-3.84679 c -0.1784,-0.14844 -0.40064,-0.23416 -0.63252,-0.24392 -0.17268,-0.0068 -0.3444,0.0284 -0.500228,0.10336 -0.372919,0.17452 -0.610767,0.549452 -0.609779,0.961176 v 10.577127 c -0.004,0.903568 1.053047,1.396359 1.742527,0.812356 l 4.60747,-3.840587 v 1.971971 c 0,1.758948 1.416047,3.174999 3.174998,3.174999 h 12.699994 c 1.758947,0 3.174999,-1.416051 3.174999,-3.174999 v -8.466664 c 0,-1.758947 -1.416052,-3.174998 -3.174999,-3.174998 H 29.633339 c -0.0276,0 -0.05536,-6.88e-4 -0.08268,0 z m 6.432681,2.116667 c 2.922507,0 5.291666,2.369159 5.291666,5.291661 0,2.922507 -2.369159,5.291666 -5.291666,5.291666 -2.922506,0 -5.291665,-2.369159 -5.291665,-5.291666 0,-2.922502 2.369159,-5.291661 5.291665,-5.291661 z m 0,2.116663 c -1.753503,0 -3.174998,1.421495 -3.174998,3.174998 0,1.753504 1.421495,3.174999 3.174998,3.174999 1.753503,0 3.174999,-1.421495 3.174999,-3.174999 0,-1.753503 -1.421496,-3.174998 -3.174999,-3.174998 z"
     sodipodi:nodetypes="csccccccccssssssscssssssssss" />
</svg>
