<?xml version="1.0" encoding="UTF-8" standalone="no"?>
<!-- Created with Inkscape (http://www.inkscape.org/) -->

<svg
   width="256"
   height="256"
   viewBox="0 0 67.733332 67.733336"
   version="1.1"
   id="svg1099"
   inkscape:version="1.2 (dc2aedaf03, 2022-05-15)"
   sodipodi:docname="kakaotalk.svg"
   xmlns:inkscape="http://www.inkscape.org/namespaces/inkscape"
   xmlns:sodipodi="http://sodipodi.sourceforge.net/DTD/sodipodi-0.dtd"
   xmlns="http://www.w3.org/2000/svg"
   xmlns:svg="http://www.w3.org/2000/svg">
  <sodipodi:namedview
     id="namedview1101"
     pagecolor="#ffffff"
     bordercolor="#666666"
     borderopacity="1.0"
     inkscape:pageshadow="2"
     inkscape:pageopacity="0.0"
     inkscape:pagecheckerboard="0"
     inkscape:document-units="px"
     showgrid="false"
     units="px"
     inkscape:zoom="1"
     inkscape:cx="128"
     inkscape:cy="128"
     inkscape:window-width="1846"
     inkscape:window-height="1015"
     inkscape:window-x="0"
     inkscape:window-y="0"
     inkscape:window-maximized="1"
     inkscape:current-layer="svg1099"
     inkscape:showpageshadow="2"
     inkscape:deskcolor="#d1d1d1"
     showguides="false" />
  <defs
     id="defs1096" />
  <rect
     style="opacity:1;fill:#ffce51;fill-opacity:1;stroke-width:0.529167;stroke-linecap:round"
     id="rect934"
     width="55.033333"
     height="55.033333"
     x="6.3499999"
     y="6.3499999"
     ry="4.3656249" />
  <path
     id="rect1388"
     style="opacity:0.5;fill:#000000;stroke-width:0.529167;stroke-linejoin:bevel"
     d="M 10.715625 6.3500001 C 8.2970713 6.3500001 6.3500001 8.2970713 6.3500001 10.715625 L 6.3500001 57.017709 C 6.3500001 59.436263 8.2970713 61.383334 10.715625 61.383334 L 57.017709 61.383334 C 59.436263 61.383334 61.383334 59.436263 61.383334 57.017709 L 61.383334 10.715625 C 61.383334 8.2970713 59.436263 6.3500001 57.017709 6.3500001 L 10.715625 6.3500001 z M 10.847917 6.6145834 L 56.885417 6.6145834 C 59.230682 6.6145834 61.118751 8.5026523 61.118751 10.847917 L 61.118751 55.827084 C 61.118751 58.172348 59.230682 60.060417 56.885417 60.060417 L 10.847917 60.060417 C 8.5026523 60.060417 6.6145834 58.172348 6.6145834 55.827084 L 6.6145834 10.847917 C 6.6145834 8.5026523 8.5026523 6.6145834 10.847917 6.6145834 z " />
  <path
     id="path455"
     style="fill:#393634;fill-opacity:1;stroke-width:1.05833"
     d="m 33.866668,16.404166 a 17.991668,14.816666 0 0 0 -17.991665,14.816669 17.991668,14.816666 0 0 0 5.942789,10.992612 l -1.709456,9.115719 7.699788,-6.161895 A 17.991668,14.816666 0 0 0 33.866668,46.037503 17.991668,14.816666 0 0 0 51.858331,31.220835 17.991668,14.816666 0 0 0 33.866668,16.404166 Z" />
  <path
     d="m 35.990832,33.966667 h 3.157352 l -0.17968,1.360484 h -4.64618 v -8.86882 h 1.668516 z m 5.852643,1.360484 h -1.66852 v -8.86882 h 1.66852 z m 1.8097,-4.85154 2.913492,4.85154 h -1.886712 l -2.78514,-4.736024 2.720968,-4.132796 h 1.745528 z M 26.993668,27.767479 H 24.95294 v 7.559672 h -1.655684 v -7.559672 h -2.130572 v -1.309148 h 6.006668 z m 4.273976,5.493276 h -2.566952 l -0.48772,2.066396 H 26.53162 l 2.464272,-8.86882 h 2.027892 l 2.45144,8.86882 h -1.71986 z m -0.28236,-1.257808 -1.001112,-4.273972 -1.001112,4.273972 z"
     style="font-weight:500;font-stretch:condensed;font-family:'Fira Sans Condensed';-inkscape-font-specification:'Fira Sans Condensed,  Medium Condensed';fill:#ffce51;fill-opacity:1;stroke-width:4"
     id="path832" />
</svg>
