<?xml version="1.0" encoding="UTF-8" standalone="no"?>
<!-- Created with Inkscape (http://www.inkscape.org/) -->

<svg
   width="256"
   height="256"
   viewBox="0 0 67.733332 67.733336"
   version="1.1"
   id="svg1099"
   inkscape:version="1.2 (dc2aedaf03, 2022-05-15)"
   sodipodi:docname="kate.svg"
   xmlns:inkscape="http://www.inkscape.org/namespaces/inkscape"
   xmlns:sodipodi="http://sodipodi.sourceforge.net/DTD/sodipodi-0.dtd"
   xmlns="http://www.w3.org/2000/svg"
   xmlns:svg="http://www.w3.org/2000/svg">
  <sodipodi:namedview
     id="namedview1101"
     pagecolor="#ffffff"
     bordercolor="#666666"
     borderopacity="1.0"
     inkscape:pageshadow="2"
     inkscape:pageopacity="0.0"
     inkscape:pagecheckerboard="0"
     inkscape:document-units="px"
     showgrid="false"
     units="px"
     inkscape:zoom="1.1076165"
     inkscape:cx="69.970067"
     inkscape:cy="205.396"
     inkscape:window-width="1920"
     inkscape:window-height="1016"
     inkscape:window-x="0"
     inkscape:window-y="0"
     inkscape:window-maximized="1"
     inkscape:current-layer="svg1099"
     inkscape:showpageshadow="2"
     inkscape:deskcolor="#d1d1d1" />
  <defs
     id="defs1096" />
  <rect
     style="opacity:1;fill:#25688c;fill-opacity:1;stroke-width:1.05833"
     id="rect1196"
     width="63.5"
     height="64.558334"
     x="2.1166668"
     y="2.1166668"
     ry="31.75" />
  <circle
     style="opacity:1;fill:#3daee9;fill-opacity:1;stroke-width:1.12448"
     id="path1427"
     cx="33.866669"
     cy="33.866669"
     r="31.485416" />
  <path
     d="m 32.250229,14.032192 c -3.121719,0.102267 -6.645371,1.062338 -10.068636,3.516065 -3.553991,2.547443 -5.11182,3.033114 -6.835759,3.879869 1.524867,0.11512 10.589445,-0.948722 12.311396,4.262273 -6.176897,2.121753 -8.64286,5.481574 -7.914764,9.38237 0.0308,0.19288 0.07001,0.3876 0.117826,0.584976 0.0099,0.0372 0.0206,0.07428 0.031,0.11164 0.142456,0.5533 0.333716,1.120195 0.615984,1.707387 0.482504,1.003752 1.033292,1.82972 1.641244,2.544548 0.0019,0.0021 0.0042,0.004 0.0061,0.0064 2.925802,3.43455 7.222086,4.100543 12.1729,7.377326 4.671011,3.091576 6.221522,4.66698 9.235566,8.952384 -0.626761,-5.921259 -3.927559,-13.552606 -5.28132,-16.914905 l -0.09095,-0.27904 c 4.252655,2.935027 9.299527,4.043303 15.254883,4.464843 -9.45484,-6.659511 -11.248631,-7.604302 -16.660479,-12.168766 -3.630767,0.18108 -3.233291,0.14928 -5.374347,0.2708 0.769512,1.269264 1.583115,2.39084 2.430857,3.40858 1.165471,3.267563 0.764209,6.58845 -3.017902,7.366989 -4.823835,0.992941 -10.297551,-3.12787 -8.975169,-7.540653 1.43596,-4.791772 7.824289,-3.86928 14.326775,-4.700488 6.502522,-0.831208 12.444125,-7.14272 16.017661,-11.813232 -5.168585,1.744962 -11.52276,3.376084 -18.770879,5.488039 -1.352515,-2.686922 -2.938203,-7.272882 4.758364,-8.152475 0.530923,-0.06038 1.105763,-0.102764 1.725992,-0.126091 -1.814964,-0.974436 -4.534657,-1.731102 -7.65638,-1.628842 z"
     style="opacity:0.2;fill:#000000;stroke-width:1.05833"
     id="path2109" />
  <path
     id="path8"
     style="fill:#cccccc;fill-opacity:1;stroke-width:1.05833"
     d="m 32.826939,14.07784 c -2.895217,-0.02537 -6.376602,1.149637 -10.65568,4.216797 -3.553993,2.547444 -5.101486,2.022323 -6.825425,2.869078 1.53596,0.11596 10.724644,-0.967434 12.350669,4.373893 0.845495,-0.259463 3.780119,-1.06566 5.638932,-1.599901 -1.461669,-2.818704 -5.808189,-8.293904 4.115511,-8.667175 -1.361222,-0.730827 -2.886877,-1.177469 -4.624007,-1.192692 z"
     sodipodi:nodetypes="scccccs" />
  <path
     d="m 52.192539,18.187534 c -3.573532,4.670512 -9.514904,10.980696 -16.017387,11.811907 -6.502486,0.831209 -12.889851,-0.08963 -14.325811,4.702151 -1.322383,4.412782 4.15164,8.532779 8.97547,7.539812 5.153362,-1.060812 4.040418,-6.840291 1.221733,-10.775967 2.141057,-0.12148 0.246515,0.618017 3.87728,0.436934 l 2.358316,7.276016 c 1.353761,3.3623 4.654864,10.99338 5.281631,16.914459 -3.014044,-4.285399 -4.564278,-5.860275 -9.235332,-8.951895 -5.983314,-3.960159 -11.017413,-4.094223 -13.822084,-9.928759 -2.798615,-5.821924 1.516832,-10.015683 8.145479,-11.831871 9.472823,-2.595478 17.212117,-5.056223 23.540705,-7.192787 z"
     style="fill:#f2f2f2;fill-opacity:1;stroke-width:1.05833"
     id="path1289" />
  <path
     d="m 36.785353,31.195143 c -3.630766,0.181075 -3.23329,0.149289 -5.374347,0.270786 5.340155,8.808237 12.531445,11.225303 22.034828,11.897979 C 43.990995,36.7044 42.197204,35.759606 36.785353,31.195143 Z"
     style="fill:#cccccc;fill-opacity:1;stroke-width:1.05833"
     id="path1856" />
  <path
     id="path14"
     style="fill:#e6e6e6;fill-opacity:1;stroke-width:1.05833"
     d="m 32.831074,13.759514 c -3.261341,-0.0025 -7.012262,0.917247 -10.649481,3.524332 -3.553993,2.547442 -5.11182,3.033114 -6.835759,3.879869 7.360858,-1.621135 9.2858,-3.278922 15.879136,-1.903761 0.03662,-1.533754 -1.242063,-3.49006 8.681639,-3.863331 -1.701529,-0.913534 -4.197881,-1.634878 -7.075535,-1.637109 z"
     sodipodi:nodetypes="sccccs" />
  <path
     d="m 39.906821,15.39576 c -9.923702,0.37327 -8.03316,5.722792 -6.57149,8.541496 -1.158039,0.332831 -1.649941,0.712002 -3.198003,1.117393 -6.246267,-11.012629 4.671436,-12.445304 9.769493,-9.658889 z"
     style="fill:#f2f2f2;fill-opacity:1;stroke-width:1.05833"
     id="path1169" />
  <path
     d="M 52.193194,18.187151 C 45.864607,20.323715 37.836833,22.24342 28.453046,25.151069 19.22427,28.010681 17.534227,33.4363 21.881871,39.409631 14.258338,28.784164 35.399127,24.518699 52.193194,18.187151 Z m -30.311323,21.22248 c 0.129133,0.179959 0.265552,0.36204 0.411344,0.545699 -0.143097,-0.18232 -0.27934,-0.36432 -0.411344,-0.545699 z"
     style="fill:#e6e6e6;fill-opacity:1;stroke-width:1.05833"
     id="path1561" />
</svg>
