<?xml version="1.0" encoding="UTF-8" standalone="no"?>
<!-- Created with Inkscape (http://www.inkscape.org/) -->

<svg
   width="256"
   height="256"
   viewBox="0 0 67.733332 67.733336"
   version="1.1"
   id="svg1099"
   inkscape:version="1.2 (dc2aedaf03, 2022-05-15)"
   sodipodi:docname="kleopatra.svg"
   xmlns:inkscape="http://www.inkscape.org/namespaces/inkscape"
   xmlns:sodipodi="http://sodipodi.sourceforge.net/DTD/sodipodi-0.dtd"
   xmlns="http://www.w3.org/2000/svg"
   xmlns:svg="http://www.w3.org/2000/svg">
  <sodipodi:namedview
     id="namedview1101"
     pagecolor="#ffffff"
     bordercolor="#666666"
     borderopacity="1.0"
     inkscape:pageshadow="2"
     inkscape:pageopacity="0.0"
     inkscape:pagecheckerboard="0"
     inkscape:document-units="px"
     showgrid="false"
     units="px"
     inkscape:zoom="1"
     inkscape:cx="129"
     inkscape:cy="128"
     inkscape:window-width="1846"
     inkscape:window-height="1011"
     inkscape:window-x="0"
     inkscape:window-y="0"
     inkscape:window-maximized="1"
     inkscape:current-layer="svg1099"
     inkscape:showpageshadow="2"
     inkscape:deskcolor="#d1d1d1"
     showguides="false" />
  <defs
     id="defs1096" />
  <rect
     style="opacity:1;fill:#d3b165;fill-opacity:1;stroke-width:0.529167;stroke-linecap:round"
     id="rect934"
     width="55.033333"
     height="55.033333"
     x="6.3499999"
     y="6.3499999"
     ry="4.3656249" />
  <path
     id="rect1388"
     style="opacity:0.5;fill:#000000;stroke-width:0.529167;stroke-linejoin:bevel"
     d="M 10.715625 6.3500001 C 8.2970713 6.3500001 6.3500001 8.2970713 6.3500001 10.715625 L 6.3500001 57.017709 C 6.3500001 59.436263 8.2970713 61.383334 10.715625 61.383334 L 57.017709 61.383334 C 59.436263 61.383334 61.383334 59.436263 61.383334 57.017709 L 61.383334 10.715625 C 61.383334 8.2970713 59.436263 6.3500001 57.017709 6.3500001 L 10.715625 6.3500001 z M 10.847917 6.6145834 L 56.885417 6.6145834 C 59.230682 6.6145834 61.118751 8.5026523 61.118751 10.847917 L 61.118751 55.827084 C 61.118751 58.172348 59.230682 60.060417 56.885417 60.060417 L 10.847917 60.060417 C 8.5026523 60.060417 6.6145834 58.172348 6.6145834 55.827084 L 6.6145834 10.847917 C 6.6145834 8.5026523 8.5026523 6.6145834 10.847917 6.6145834 z " />
  <path
     d="m 31.339436,23.283422 c -2.39862,0 -4.924198,0.660484 -7.520602,1.962004 -2.113408,1.0594 -3.017348,1.930672 -2.517616,2.43328 0.17628,0.17732 0.05592,0.21512 3.016176,-0.945036 2.02306,-0.792856 4.511182,-1.460704 5.85625,-1.57506 2.076896,-0.17656 4.550492,0.2448 8.929474,1.852868 1.5725,0.57746 3.380884,1.056684 4.01826,1.22036 1.363157,0.350042 1.505129,0.296242 2.641641,0.300122 l 0.803648,0.0024 v -0.560574 c 0,-0.783176 -0.0942,-0.85822 -1.0765,-0.85822 -2.189796,0 -2.734061,-0.22824 -6.029869,-1.6966 -3.53011,-1.572768 -5.670326,-2.135632 -8.120862,-2.135632 z m -2.113312,5.087322 c -0.37284,0.014 -0.707164,0.05064 -0.9748,0.10668 -1.234386,0.25828 -2.885238,1.198048 -3.899206,2.150512 -1.571692,1.476356 -3.346396,4.23508 -3.17244,4.931056 0.07832,0.313401 0.15796,0.333121 1.542812,0.391921 0.803936,0.034 2.379788,0.22072 3.613956,0.411748 l 1.954566,0.34476 v 0.97232 c -0.387122,1.781082 -0.10856,2.744542 -0.0396,3.393202 0.25796,2.34764 0.261,2.602632 0.85822,2.517616 0.922608,-1.523536 1.027656,-4.447676 1.03434,-6.131574 l 0.942556,0.927672 c 0.953584,0.854402 1.64468,1.310386 2.239808,1.61971 2.598868,1.350784 5.52719,2.373176 8.346578,2.192684 1.086392,0 2.458921,-1.22514 2.458085,-2.639156 -4.44e-4,-1.090328 -0.30168,-1.67869 -1.036809,-2.028978 -1.351436,-0.643964 -2.849992,0.12108 -2.849992,1.550258 0,1.402712 1.329456,2.179036 2.212528,1.292292 0.36836,-0.36988 0.460024,-0.989048 0.19844,-1.364224 -0.11612,-0.16652 -0.12704,-0.1412 -0.05456,0.1166 0.25016,0.889592 -0.43338,1.506196 -1.217884,1.098824 -0.819876,-0.425736 -0.663228,-1.79377 0.23068,-2.019058 0.44154,-0.11128 1.21362,0.279682 1.503132,0.873106 0.156001,0.3198 0.161041,0.511756 0.0272,0.95992 -0.438752,1.470256 -2.974896,1.211624 -5.933222,-0.0324 -1.931804,-0.812168 -4.089676,-1.922922 -5.149204,-2.834974 -0.731532,-0.645472 -0.28572,-0.501036 1.622188,-0.813572 0.54852,-0.08984 2.535852,-0.55794 3.946328,-1.039293 2.505786,-0.855148 2.59857,-1.382932 4.129882,-1.393992 0.861968,-0.0064 -0.569376,-0.06004 0.8607,0.0026 l 2.676373,0.11156 v -1.289812 -1.795816 l -3.102993,-0.07936 c -4.32861,-0.11416 -2.21682,0.495488 -6.684702,-1.237724 -0.85314,-0.33096 -1.762344,-0.728856 -2.358872,-0.885508 -1.057872,-0.2778 -2.805488,-0.421194 -3.924008,-0.37952 z m 5.06996,2.259652 c 0.05188,0 0.791264,0.418108 1.981844,0.930152 1.190588,0.512048 2.31759,0.967196 2.505218,1.014488 0.18764,0.04728 0.34228,0.1378 0.34228,0.19844 0,0.06064 -0.723272,0.470764 -1.60483,0.910312 -1.79776,0.89638 -2.864044,1.272664 -4.60114,1.359264 l -0.429112,0.0172 0.463836,-0.36712 c 0.25472,-0.2016 0.6403,-0.666324 0.85574,-1.034348 0.3418,-0.583868 0.39192,-0.820476 0.39192,-1.850384 0,-0.64916 0.0424,-1.178196 0.09424,-1.178192 z m -7.758722,0.30756 c 0.21352,-0.0406 0.21132,0.29316 0.21332,0.957436 0.004,1.307256 0.31676,2.018564 1.2154,2.768136 l 0.590338,0.49112 -2.760698,-0.25796 c -1.46756,-0.14056 -2.609284,-0.28496 -2.649076,-0.32492 -0.14264,-0.14324 0.644628,-1.239252 1.798296,-2.351428 0.858992,-0.828096 1.3789,-1.241744 1.592424,-1.282368 z"
     style="fill:#482f00;stroke-width:1.26997"
     id="path304" />
</svg>
