<?xml version="1.0" encoding="UTF-8" standalone="no"?>
<!-- Created with Inkscape (http://www.inkscape.org/) -->

<svg
   width="256"
   height="256"
   viewBox="0 0 67.733332 67.733332"
   version="1.1"
   id="svg5"
   inkscape:version="1.2 (dc2aedaf03, 2022-05-15)"
   sodipodi:docname="kvantum.svg"
   xmlns:inkscape="http://www.inkscape.org/namespaces/inkscape"
   xmlns:sodipodi="http://sodipodi.sourceforge.net/DTD/sodipodi-0.dtd"
   xmlns="http://www.w3.org/2000/svg"
   xmlns:svg="http://www.w3.org/2000/svg">
  <sodipodi:namedview
     id="namedview7"
     pagecolor="#ffffff"
     bordercolor="#666666"
     borderopacity="1.0"
     inkscape:pageshadow="2"
     inkscape:pageopacity="0.0"
     inkscape:pagecheckerboard="0"
     inkscape:document-units="px"
     showgrid="false"
     units="px"
     height="48px"
     inkscape:zoom="2.173801"
     inkscape:cx="140.99727"
     inkscape:cy="168.13867"
     inkscape:window-width="1846"
     inkscape:window-height="1011"
     inkscape:window-x="0"
     inkscape:window-y="0"
     inkscape:window-maximized="1"
     inkscape:current-layer="svg5"
     inkscape:showpageshadow="2"
     inkscape:deskcolor="#d1d1d1"
     showguides="false" />
  <defs
     id="defs2" />
  <rect
     style="fill:#cf3b00;fill-opacity:1;stroke-width:2.11666;stroke-linecap:round"
     id="rect934"
     width="59.266666"
     height="46.566666"
     x="4.2333331"
     y="14.816667"
     ry="4.2333336" />
  <path
     id="path24962"
     style="fill:#faa41a;fill-opacity:1;stroke-width:0.148175"
     d="M 25.399999,14.816666 4.2333332,35.983332 v 21.166667 c 0,2.345268 1.8880665,4.233337 4.2333332,4.233337 H 53.710417 L 63.499999,50.940559 V 19.050001 c 0,-2.345267 -1.888068,-4.233335 -4.233332,-4.233335 z"
     sodipodi:nodetypes="ccssccssc" />
  <path
     id="rect8968"
     style="fill:#73c48f;fill-opacity:1;stroke-width:2.11666"
     d="M 44.45,14.816666 4.2333332,55.033335 v 2.116664 c 0,2.345268 1.8880665,4.233337 4.2333332,4.233337 H 48.683332 L 63.499999,46.566669 V 19.050001 c 0,-2.345267 -1.888068,-4.233335 -4.233332,-4.233335 z" />
  <path
     id="rect6191"
     style="fill:#6a7ce0;stroke-width:2.11666"
     d="M 63.499999,19.050001 21.166667,61.383336 h 38.1 c 2.345264,0 4.233332,-1.888069 4.233332,-4.233337 z" />
  <path
     id="rect1303"
     style="fill:#b84acb;fill-opacity:1;stroke-width:2.41906"
     d="m 42.333332,61.383336 h 16.933335 c 2.345264,0 4.233332,-1.888069 4.233332,-4.233337 v -16.93333 z"
     sodipodi:nodetypes="csscc" />
  <path
     d="m 19.049872,25.664579 2.6e-4,2.747016 2.353428,0.1782 0.392972,0.53455 -3.906726,18.494732 -0.60103,0.55697 -2.47211,0.17932 v 2.709044 l 10.583166,1.6e-4 3.34e-4,-2.7089 -2.1692,-0.15624 -0.416096,-0.579166 1.595074,-7.198424 h 2.450276 l 3.513708,6.492736 c 1.436094,2.842318 2.443536,4.060862 5.54796,4.098566 0.892628,0.0112 1.251724,0.0742 3.659806,0 8.305676,-6.681658 12.545192,-12.338102 13.215024,-14.640766 0.405676,-1.394648 -0.2384,-2.250002 -1.618524,-2.250002 -0.673228,0 -1.44398,0.273192 -2.311212,0.82457 l -0.624132,5.352156 c -1.699852,2.140572 -3.965928,4.472324 -6.726868,6.904892 l 2.412184,-9.7638 c 0.37896,-1.88133 0.503904,-2.88511 -0.762984,-3.274394 l -5.663286,1.203026 -0.30016,1.024424 2.611766,0.401188 c 0.18156,0.648596 -0.605596,2.623244 -1.002112,4.796572 l -1.271402,6.748866 c -0.02,0.0694 -0.0328,0.1456 -0.04624,0.22276 -0.8244,-0.426812 -1.344084,-1.18683 -1.941788,-2.338666 l -4.970006,-8.942972 9.084676,-8.51258 2.666892,-0.28954 -3.76e-4,-2.813942 -10.583348,7.6e-5 4.04e-4,2.814084 3.709182,0.17796 0.23116,0.601436 -9.585498,8.327396 h -1.155818 l 1.772192,-8.460972 0.508562,-0.534548 2.403472,-0.17814 -2.4e-4,-2.747296 z"
     style="opacity:0.2;fill:#000000;stroke-width:0.280016"
     id="path1098" />
  <path
     d="m 19.049872,25.399999 2.58e-4,2.747012 2.35343,0.1782 0.392972,0.534552 -3.906725,18.49473 -0.601031,0.556972 -2.47211,0.17932 v 2.709042 l 10.583166,1.6e-4 3.34e-4,-2.708897 -2.1692,-0.15624 -0.416095,-0.579171 1.595073,-7.198423 h 2.450276 l 3.513708,6.492735 c 1.436095,2.84232 2.443534,4.060862 5.547958,4.098566 0.892628,0.01124 1.251724,0.0742 3.659808,0 8.305676,-6.681657 12.545193,-12.3381 13.215024,-14.640766 0.405676,-1.394647 -0.238399,-2.25 -1.618523,-2.25 -0.673228,0 -1.44398,0.273192 -2.311213,0.824571 l -0.624131,5.352154 c -1.699852,2.140571 -3.965928,4.472323 -6.726868,6.904891 l 2.412183,-9.763798 C 44.307126,35.29428 44.43207,34.2905 43.165182,33.901215 l -5.663288,1.203026 -0.30016,1.024424 2.611768,0.401186 c 0.18156,0.648594 -0.605595,2.623246 -1.002112,4.796572 l -1.271404,6.748868 c -0.02,0.0694 -0.0328,0.145601 -0.04624,0.222761 -0.8244,-0.426812 -1.344083,-1.186833 -1.941787,-2.338669 l -4.970005,-8.942972 9.084676,-8.512578 2.666893,-0.28954 -3.77e-4,-2.813942 -10.583348,7.6e-5 4.04e-4,2.814084 3.70918,0.17796 0.231161,0.601436 -9.585497,8.327396 h -1.15582 l 1.772192,-8.46097 0.508565,-0.534552 2.40347,-0.178139 -2.39e-4,-2.747294 z"
     style="fill:#ffffff;stroke-width:1.05833"
     id="path870"
     sodipodi:nodetypes="ccccccccccccccccccsccccccccccccccccccccccccccc" />
  <path
     d="m 8.4666666,14.816667 c -2.3452674,0 -4.2333344,1.888067 -4.2333344,4.233333 v 38.100001 c 0,2.345267 1.888067,4.233334 4.2333344,4.233334 H 59.266667 c 2.345267,0 4.233334,-1.888067 4.233334,-4.233334 V 19.05 c 0,-2.345266 -1.888067,-4.233333 -4.233334,-4.233333 z m 0.132292,0.264583 H 59.134375 c 2.271978,0 4.101042,1.829065 4.101042,4.101042 v 36.777084 c 0,2.271977 -1.829064,4.101042 -4.101042,4.101042 H 8.5989586 c -2.2719784,0 -4.1010424,-1.829065 -4.1010424,-4.101042 V 19.182292 c 0,-2.271977 1.829064,-4.101042 4.1010424,-4.101042 z"
     style="opacity:0.5;fill:#000000;stroke-width:0.264583"
     id="path7677" />
</svg>
