<?xml version="1.0" encoding="UTF-8" standalone="no"?>
<!-- Created with Inkscape (http://www.inkscape.org/) -->

<svg
   width="256"
   height="256"
   viewBox="0 0 67.733332 67.733332"
   version="1.1"
   id="svg5"
   inkscape:version="1.2 (dc2aedaf03, 2022-05-15)"
   sodipodi:docname="libreoffice-impress.svg"
   xmlns:inkscape="http://www.inkscape.org/namespaces/inkscape"
   xmlns:sodipodi="http://sodipodi.sourceforge.net/DTD/sodipodi-0.dtd"
   xmlns="http://www.w3.org/2000/svg"
   xmlns:svg="http://www.w3.org/2000/svg">
  <sodipodi:namedview
     id="namedview7"
     pagecolor="#ffffff"
     bordercolor="#666666"
     borderopacity="1.0"
     inkscape:pageshadow="2"
     inkscape:pageopacity="0.0"
     inkscape:pagecheckerboard="0"
     inkscape:document-units="px"
     showgrid="false"
     units="px"
     height="48px"
     inkscape:zoom="3.1796875"
     inkscape:cx="146.24079"
     inkscape:cy="110.07371"
     inkscape:window-width="1846"
     inkscape:window-height="1011"
     inkscape:window-x="0"
     inkscape:window-y="0"
     inkscape:window-maximized="1"
     inkscape:current-layer="svg5"
     inkscape:showpageshadow="2"
     inkscape:deskcolor="#d1d1d1"
     showguides="false" />
  <defs
     id="defs2" />
  <rect
     style="opacity:1;fill:#571d00;fill-opacity:1;stroke-width:0.529167"
     id="rect479"
     width="47.095833"
     height="60.854164"
     x="10.318749"
     y="3.4395833"
     ry="2.2489583" />
  <rect
     style="opacity:1;fill:#cf3b00;fill-opacity:1;stroke-width:0.529167"
     id="rect3992"
     width="46.566666"
     height="59.266666"
     x="10.583333"
     y="3.7041664"
     ry="2.1166666" />
  <path
     d="m 38.89375,3.7041665 h 16.139582 c 1.172634,0 2.116667,0.9440329 2.116667,2.1166669 V 21.960416 Z"
     style="opacity:0.5;fill:#571d00;fill-opacity:1;stroke-width:0.264583"
     id="path967"
     sodipodi:nodetypes="csscc" />
  <path
     d="m 40.216667,3.7041664 h 14.816665 c 1.172633,0 2.116667,0.944034 2.116667,2.116668 V 20.6375"
     style="fill:#f15b00;fill-opacity:1;stroke-width:0.264583"
     id="path995"
     sodipodi:nodetypes="cssc" />
  <path
     id="rect18623"
     style="opacity:1;fill:#ffffff;fill-opacity:1;stroke-width:0.529166"
     d="M 25.929166,29.633333 A 6.8791663,6.8791663 0 0 0 19.05,36.512501 h 6.879166 v 6.879166 a 6.8791663,6.8791663 0 0 0 6.879166,-6.879166 6.8791663,6.8791663 0 0 0 -6.879166,-6.879168 z m 11.1125,1.5875 c -0.586316,0 -1.058334,0.472018 -1.058334,1.058334 v 8.466666 c 0,0.586316 0.472018,1.058334 1.058334,1.058334 h 10.583333 c 0.586316,0 1.058332,-0.472018 1.058332,-1.058334 v -8.466666 c 0,-0.586316 -0.472016,-1.058334 -1.058332,-1.058334 z m -16.933334,14.2875 c -0.586314,0 -1.058332,0.472018 -1.058332,1.058334 0,0.586316 0.472018,1.058334 1.058332,1.058334 h 27.516667 c 0.586314,0 1.058332,-0.472018 1.058332,-1.058334 0,-0.586316 -0.472018,-1.058334 -1.058332,-1.058334 z m 0,5.820834 c -0.586314,0 -1.058332,0.472016 -1.058332,1.058332 0,0.586318 0.472018,1.058334 1.058332,1.058334 h 12.7 c 0.586316,0 1.058334,-0.472016 1.058334,-1.058334 0,-0.586316 -0.472018,-1.058332 -1.058334,-1.058332 z" />
</svg>
