<?xml version="1.0" encoding="UTF-8" standalone="no"?>
<!-- Created with Inkscape (http://www.inkscape.org/) -->

<svg
   width="256"
   height="256"
   viewBox="0 0 67.733332 67.733332"
   version="1.1"
   id="svg5"
   inkscape:version="1.2 (dc2aedaf03, 2022-05-15)"
   sodipodi:docname="libreoffice-math.svg"
   xmlns:inkscape="http://www.inkscape.org/namespaces/inkscape"
   xmlns:sodipodi="http://sodipodi.sourceforge.net/DTD/sodipodi-0.dtd"
   xmlns="http://www.w3.org/2000/svg"
   xmlns:svg="http://www.w3.org/2000/svg">
  <sodipodi:namedview
     id="namedview7"
     pagecolor="#ffffff"
     bordercolor="#666666"
     borderopacity="1.0"
     inkscape:pageshadow="2"
     inkscape:pageopacity="0.0"
     inkscape:pagecheckerboard="0"
     inkscape:document-units="px"
     showgrid="false"
     units="px"
     height="48px"
     inkscape:zoom="2.2483786"
     inkscape:cx="105.85406"
     inkscape:cy="134.76378"
     inkscape:window-width="1846"
     inkscape:window-height="1011"
     inkscape:window-x="0"
     inkscape:window-y="0"
     inkscape:window-maximized="1"
     inkscape:current-layer="svg5"
     inkscape:showpageshadow="2"
     inkscape:deskcolor="#d1d1d1"
     showguides="false" />
  <defs
     id="defs2" />
  <rect
     style="opacity:1;fill:#212121;fill-opacity:1;stroke-width:0.529167"
     id="rect479"
     width="47.095833"
     height="60.854164"
     x="10.318749"
     y="3.4395833"
     ry="2.2489583" />
  <rect
     style="opacity:1;fill:#424242;fill-opacity:1;stroke-width:1.05833"
     id="rect3992"
     width="46.566666"
     height="59.266666"
     x="10.583333"
     y="3.7041664"
     ry="2.1166666" />
  <path
     id="path1266"
     style="fill:#ffffff;stroke-width:1.05833"
     d="m 30.605675,36.512497 -4.398698,12.303126 -0.208772,0.915704 h -0.06614 l -0.19844,-0.915704 -1.796272,-4.894792 h -3.617356 v 1.719792 h 2.07326 l 2.734716,6.922572 h 1.641244 l 5.25446,-13.934032 h 14.754654 v -2.116666 z m 3.340366,4.123778 v 1.3994 l 1.180288,0.25424 3.482992,4.243668 -3.559472,4.388364 -1.322916,0.2522 v 1.38906 h 4.872054 v -1.38906 l -1.289844,-0.11988 2.53628,-3.1874 2.61276,3.1874 -1.43454,0.11988 v 1.38906 h 5.060156 v -1.38906 l -1.234032,-0.2522 -3.714504,-4.421436 3.228744,-4.210596 1.213364,-0.25424 v -1.3994 h -4.597136 v 1.3994 l 1.279508,0.12196 -2.381248,3.053044 -2.447396,-3.042708 1.190624,-0.13228 v -1.3994 z"
     sodipodi:nodetypes="cccccccccccccccccccccccccccccccccccccccccccc" />
  <path
     d="m 38.893749,3.7041665 h 16.139582 c 1.172634,0 2.116667,0.9440329 2.116667,2.1166669 V 21.960416 Z"
     style="opacity:0.5;fill:#212121;fill-opacity:1;stroke-width:0.264583"
     id="path967"
     sodipodi:nodetypes="csscc" />
  <path
     d="m 40.216665,3.7041664 h 14.816666 c 1.172633,0 2.116667,0.944034 2.116667,2.116668 V 20.6375"
     style="fill:#6d6d6d;fill-opacity:1;stroke-width:0.264583"
     id="path995"
     sodipodi:nodetypes="cssc" />
</svg>
