<?xml version="1.0" encoding="UTF-8" standalone="no"?>
<!-- Created with Inkscape (http://www.inkscape.org/) -->

<svg
   width="256"
   height="256"
   viewBox="0 0 67.733332 67.733332"
   version="1.1"
   id="svg5"
   inkscape:version="1.2 (dc2aedaf03, 2022-05-15)"
   sodipodi:docname="libreoffice-writer.svg"
   xmlns:inkscape="http://www.inkscape.org/namespaces/inkscape"
   xmlns:sodipodi="http://sodipodi.sourceforge.net/DTD/sodipodi-0.dtd"
   xmlns="http://www.w3.org/2000/svg"
   xmlns:svg="http://www.w3.org/2000/svg">
  <sodipodi:namedview
     id="namedview7"
     pagecolor="#ffffff"
     bordercolor="#666666"
     borderopacity="1.0"
     inkscape:pageshadow="2"
     inkscape:pageopacity="0.0"
     inkscape:pagecheckerboard="0"
     inkscape:document-units="px"
     showgrid="false"
     units="px"
     height="48px"
     inkscape:zoom="3.1796876"
     inkscape:cx="111.64619"
     inkscape:cy="46.545453"
     inkscape:window-width="1846"
     inkscape:window-height="1011"
     inkscape:window-x="0"
     inkscape:window-y="0"
     inkscape:window-maximized="1"
     inkscape:current-layer="svg5"
     inkscape:showpageshadow="2"
     inkscape:deskcolor="#d1d1d1"
     showguides="false" />
  <defs
     id="defs2" />
  <rect
     style="opacity:1;fill:#1f285a;fill-opacity:1;stroke-width:0.529167"
     id="rect479"
     width="47.095833"
     height="60.854164"
     x="10.318749"
     y="3.4395833"
     ry="2.2489583" />
  <rect
     style="opacity:1;fill:#3f51b5;fill-opacity:1;stroke-width:0.529167"
     id="rect3992"
     width="46.566666"
     height="59.266666"
     x="10.583333"
     y="3.7041664"
     ry="2.1166666" />
  <path
     d="m 20.014284,33.337499 c -0.534432,0 -0.964284,0.429852 -0.964284,0.964284 v 0.1881 c 0,0.534432 0.429852,0.964284 0.964284,0.964284 h 27.704762 c 0.534432,0 0.964286,-0.429852 0.964286,-0.964284 v -0.1881 c 0,-0.534432 -0.429854,-0.964284 -0.964286,-0.964284 z m 0,6.349999 c -0.534432,0 -0.964284,0.429852 -0.964284,0.964284 v 0.1881 c 0,0.534432 0.429852,0.964284 0.964284,0.964284 h 27.704762 c 0.534432,0 0.964286,-0.429852 0.964286,-0.964284 v -0.1881 c 0,-0.534432 -0.429854,-0.964284 -0.964286,-0.964284 z m 0,6.35 c -0.534432,0 -0.964284,0.429852 -0.964284,0.964284 v 0.1881 c 0,0.534432 0.429852,0.964284 0.964284,0.964284 h 27.704762 c 0.534432,0 0.964286,-0.429852 0.964286,-0.964284 v -0.1881 c 0,-0.534432 -0.429854,-0.964284 -0.964286,-0.964284 z m 0,6.349999 c -0.534432,0 -0.964284,0.429852 -0.964284,0.964284 v 0.1881 c 0,0.534432 0.429852,0.964284 0.964284,0.964284 h 17.121431 c 0.534432,0 0.964284,-0.429852 0.964284,-0.964284 v -0.1881 c 0,-0.534432 -0.429852,-0.964284 -0.964284,-0.964284 z"
     style="opacity:1;fill:#ffffff;fill-opacity:1;stroke-width:0.529166"
     id="path918" />
  <path
     d="m 38.893748,3.7041666 h 16.139583 c 1.172634,0 2.116667,0.9440329 2.116667,2.1166669 V 21.960417 Z"
     style="opacity:0.5;fill:#1f285a;fill-opacity:1;stroke-width:0.264583"
     id="path967"
     sodipodi:nodetypes="csscc" />
  <path
     d="m 40.216665,3.7041665 h 14.816666 c 1.172633,0 2.116667,0.944034 2.116667,2.116668 V 20.6375"
     style="fill:#6a7ce0;fill-opacity:1;stroke-width:0.264583"
     id="path995"
     sodipodi:nodetypes="cssc" />
</svg>
