<?xml version="1.0" encoding="UTF-8" standalone="no"?>
<!-- Created with Inkscape (http://www.inkscape.org/) -->

<svg
   width="256"
   height="256"
   viewBox="0 0 67.733332 67.733336"
   version="1.1"
   id="svg1099"
   inkscape:version="1.2 (dc2aedaf03, 2022-05-15)"
   sodipodi:docname="lutris.svg"
   xmlns:inkscape="http://www.inkscape.org/namespaces/inkscape"
   xmlns:sodipodi="http://sodipodi.sourceforge.net/DTD/sodipodi-0.dtd"
   xmlns="http://www.w3.org/2000/svg"
   xmlns:svg="http://www.w3.org/2000/svg">
  <sodipodi:namedview
     id="namedview1101"
     pagecolor="#ffffff"
     bordercolor="#666666"
     borderopacity="1.0"
     inkscape:pageshadow="2"
     inkscape:pageopacity="0.0"
     inkscape:pagecheckerboard="0"
     inkscape:document-units="px"
     showgrid="false"
     units="px"
     inkscape:zoom="3.078125"
     inkscape:cx="128"
     inkscape:cy="128"
     inkscape:window-width="1846"
     inkscape:window-height="1011"
     inkscape:window-x="0"
     inkscape:window-y="0"
     inkscape:window-maximized="1"
     inkscape:current-layer="svg1099"
     inkscape:showpageshadow="2"
     inkscape:deskcolor="#d1d1d1"
     inkscape:lockguides="false" />
  <defs
     id="defs1096" />
  <rect
     style="fill:#7d520d;fill-opacity:1;stroke-width:1.33094"
     id="rect1040"
     width="43.920834"
     height="44.979168"
     x="15.610416"
     y="15.610416"
     ry="21.960417" />
  <circle
     style="fill:#faa41a;fill-opacity:1;stroke-width:1.03313"
     id="path1188"
     cx="37.570835"
     cy="37.570835"
     r="21.695833" />
  <path
     id="path15870"
     style="color:#000000;fill:#4a342b;fill-opacity:1;stroke-width:0.529167;-inkscape-stroke:none"
     d="m 23.19135,19.261874 c 0,0 -0.07183,0.0098 -0.08578,0.01344 -0.01395,0.0037 -0.03461,0.01029 -0.06046,0.01757 -0.05169,0.01455 -0.125951,0.03672 -0.220658,0.06666 -0.189415,0.05988 -0.459537,0.151011 -0.783415,0.28112 -0.647756,0.260219 -1.514176,0.672479 -2.398303,1.285193 -1.765525,1.223535 -3.607458,3.270144 -3.838009,6.459037 l -0.0021,0.0098 c -9.7e-5,0.0014 9.7e-5,0.0022 0,0.0036 l -0.07028,0.578259 0.31471,-0.01757 c 2.219008,-0.112425 4.949744,0.377389 6.943245,1.775602 l 0.0021,0.0016 0.0016,0.0021 c 0.779248,0.526078 1.54322,1.203201 2.396752,1.670182 0.853004,0.466693 1.827084,0.710858 2.92747,0.320394 0.743212,-0.260644 1.209664,-0.655954 1.365292,-1.193726 0.155627,-0.537771 0.01327,-1.138081 -0.26355,-1.843298 l -0.0021,-0.0021 v -0.0021 C 29.191901,28.133462 28.888702,27.368898 28.521257,26.642818 28.153812,25.916739 27.731244,25.226763 27.207125,24.810372 26.440531,24.203728 25.225301,24.055734 24.201107,23.747905 23.68901,23.59399 23.230375,23.405761 22.906096,23.148458 22.581816,22.891156 22.381771,22.58164 22.343856,22.097876 v -0.0062 -0.0057 c -0.114646,-0.920098 0.46961,-1.630352 1.058333,-2.398304 l 0.326079,-0.425813 z" />
  <path
     id="path15909"
     style="color:#000000;fill:#4a342b;fill-opacity:1"
     d="m 32.850708,2.38125 -0.01757,0.00413 -0.0057,0.00155 C 16.371581,2.399723 2.3747424,16.215741 2.38125,33.072917 c -7.97e-5,0.189335 0.00324,0.377741 0.0062,0.566374 -0.00259,0.163838 -0.00626,0.327533 -0.0062,0.491959 -0.00731,17.357964 12.802486,31.824523 29.633334,32.279167 8.193513,0.221172 14.669593,-2.945884 20.268013,-8.220687 l 0.0036,-0.0041 c 0.594552,-0.496407 0.928108,-0.812353 0.928108,-0.812353 l 0.0036,-0.0041 0.0036,-0.0057 c 0,0 1.522062,-1.595977 3.08405,-3.851444 1.561986,-2.255468 3.181836,-5.169839 3.349666,-7.879106 0.0013,-0.279282 -0.01636,-0.422939 -0.04599,-0.568958 0.02018,-0.16375 0.03593,-0.326913 0.04599,-0.489375 9.27e-4,-0.205295 -0.0067,-0.325448 -0.0217,-0.434599 -0.01901,-0.138095 -0.05102,-0.256724 -0.102836,-0.483692 -0.08697,0.245531 -0.120672,0.363996 -0.186035,0.49041 -0.04033,0.07799 -0.08993,0.158338 -0.179834,0.275435 -1.542595,2.548482 -2.905007,5.018956 -6.671945,6.875033 -1.752215,0.811653 -3.354503,1.500696 -4.963004,2.043286 -0.0018,6.23e-4 -0.0038,9e-4 -0.0057,0.0015 -0.09478,0.02388 -0.191561,0.0471 -0.290938,0.0708 -0.761234,0.181707 -1.558257,0.333849 -2.394686,0.449068 -0.09838,0.01368 -0.203366,0.02553 -0.308508,0.03876 -0.869919,0.110321 -1.766535,0.189714 -2.693376,0.228927 -0.08609,0.0037 -0.185656,0.0021 -0.290938,0.0057 -0.915545,0.03151 -1.853652,0.02993 -2.804997,-0.0078 -0.07509,-0.0029 -0.134548,-0.0019 -0.183451,-0.0041 -0.478468,-0.02123 -0.667755,-0.05088 -0.874882,-0.09147 -0.207128,-0.04059 -0.43973,-0.09368 -0.943612,-0.152446 -0.148204,-0.0175 -0.288936,-0.03005 -0.42168,-0.04702 C 35.360726,53.710833 34.404006,53.550428 33.451705,53.360051 33.297017,53.329141 33.143064,53.29829 32.990751,53.266 32.06,53.068466 31.138495,52.836523 30.233297,52.572502 c -0.290728,-0.0848 -0.579816,-0.170193 -0.86558,-0.261483 -0.220031,-0.0703 -0.438277,-0.136943 -0.648539,-0.208772 -0.302776,-0.103403 -0.600804,-0.216706 -0.903821,-0.330213 -0.248439,-0.09309 -0.493882,-0.184082 -0.730705,-0.279569 C 26.809755,51.381581 26.53888,51.260287 26.26248,51.138998 26.026084,51.035292 25.791736,50.93854 25.571049,50.834624 25.077862,50.6024 24.593498,50.359646 24.127726,50.103919 23.758581,49.899727 23.407275,49.686327 23.07301,49.463131 c -0.765313,-0.511015 -1.43283,-1.073702 -2.033467,-1.666048 -2.24853,-2.294601 -2.790782,-4.863776 -2.85719,-7.045048 0.0128,-0.43715 0.0366,-0.854064 0.06253,-1.238167 0.06003,-0.886429 0.328683,-2.105728 0.895036,-3.47369 0.969552,-3.370647 3.699211,-8.10764 10.342521,-10.907345 0.0015,-6.35e-4 0.0021,-8e-4 0.0036,-0.0016 5.273751,-1.860343 11.455373,-3.142062 16.566431,-1.49655 l 0.0217,0.0083 c 3.857404,0.870342 6.658297,2.446911 10.377144,3.767211 5.29e-4,4e-4 9e-4,0.0017 0.0016,0.0021 0.05009,0.03777 0.09265,0.0559 0.164332,0.08423 0.143363,0.05668 0.399239,0.136592 0.91984,0.265617 l 0.02325,0.0036 c 3.406859,0.539601 5.378522,-0.574332 6.460071,-1.942 0.429861,-1.196034 0.296057,-2.306921 0.284221,-2.39727 0.05661,-0.639589 -0.0031,-1.096057 -0.0031,-1.096057 l -0.0036,-0.03101 -0.430465,-1.059883 c 0.102343,-0.21162 0.221692,-0.348816 0.221692,-0.348816 l 0.103353,-0.10697 -0.03876,-0.142627 c 0,0 -0.06073,-0.306396 -0.122989,-0.734323 0.03085,-0.04157 0.05839,-0.07441 0.05839,-0.07441 l 0.103353,-0.10697 -0.03927,-0.142627 c 0,0 -0.218459,-1.077116 -0.250631,-2.06499 -0.0019,-0.05979 -0.01195,-0.146595 -0.02687,-0.238228 -0.0059,-0.03486 -0.0122,-0.07032 -0.02015,-0.106971 -1.12e-4,-5.3e-4 -4.03e-4,-10e-4 -5.16e-4,-0.0016 -7e-5,-3.22e-4 7e-5,-7.11e-4 0,-10e-4 -0.0097,-0.04432 -0.02085,-0.08939 -0.03359,-0.133842 -1.05e-4,-3.68e-4 -4.11e-4,-6.67e-4 -5.17e-4,-0.001 -0.0097,-0.03395 -0.01876,-0.06818 -0.03049,-0.100769 0.01348,-0.192075 0.02112,-0.396146 0.02584,-0.607715 8.78e-4,-0.03841 0.0015,-0.07665 0.0021,-0.115755 0.003,-0.210292 0.0025,-0.430002 -0.0031,-0.661975 -6.32e-4,-0.02695 -0.0013,-0.0549 -0.0021,-0.08217 -0.01449,-0.513704 -0.0492,-1.080441 -0.10697,-1.719275 h 5.16e-4 C 63.669161,13.331991 63.622739,12.889549 63.56563,12.410612 63.441331,11.367674 63.040944,10.419442 62.618401,9.6877809 62.195854,8.95612 61.78513,8.45963 61.493405,8.2465251 61.080536,7.9461612 59.086096,6.4349916 57.138115,5.670455 55.227479,4.9210238 53.252222,4.352843 50.833073,4.6937704 50.589342,4.7282164 50.360727,4.7656874 50.12614,4.8012574 50.10238,4.7922974 50.08581,4.7856714 50.04604,4.7738694 49.90474,4.7319043 49.724236,4.5876865 49.542196,4.3697592 49.360156,4.1518316 49.177347,3.8700536 48.995459,3.5884115 48.813574,3.3067695 48.634658,3.0259617 48.436837,2.8013794 48.239016,2.576797 48.004841,2.3779054 47.692697,2.3853841 c -0.06693,0.00162 -0.129967,0.00698 -0.191203,0.013436 -0.05245,0.0055 -0.110569,0.013357 -0.168465,0.023254 -0.002,3.386e-4 -0.0037,-3.456e-4 -0.0057,0 l -0.02119,0.00413 h -0.0026 c -0.0706,0.013153 -0.137453,0.031206 -0.201538,0.048576 -0.08192,0.022231 -0.160134,0.049832 -0.234094,0.084233 -0.13754,0.063945 -0.209384,0.1664451 -0.271818,0.2733683 -0.06243,0.1069231 -0.112349,0.228974 -0.15968,0.3653524 -0.09466,0.2727565 -0.173344,0.6037833 -0.24443,0.9415446 -0.07109,0.3377609 -0.133516,0.6824056 -0.187585,0.9704834 -0.03037,0.1618327 -0.04894,0.2323779 -0.0739,0.3457153 C 42.198688,3.6208151 38.0595,2.5116513 33.661512,2.3931356 33.399472,2.3860556 33.138473,2.381497 32.87603,2.38125 Z m 23.984583,24.908557 c 0.0019,6.47e-4 0.0043,0.0014 0.0062,0.0021 -2.25e-4,0.0011 -0.0016,0.0088 -0.0016,0.0088 z" />
  <path
     style="color:#000000;fill:#946857;stroke-width:0.529167;-inkscape-stroke:none"
     d="M 32.876686,2.6458472 C 16.543447,2.631199 2.6635662,16.688588 2.656385,33.049078 c 0.021897,17.17769 12.735207,31.574574 29.418451,32.025232 8.127805,0.219398 14.47284,-2.898251 20.038991,-8.146557 0.59433,-0.495869 0.917705,-0.804901 0.917705,-0.804901 0,0 6.035989,-6.335045 6.359925,-11.564331 -1.540158,2.544456 -2.952942,5.09208 -6.786762,6.978847 -1.758249,0.814448 -3.36983,1.507389 -4.994032,2.05493 -0.104003,0.02645 -0.208415,0.05102 -0.314045,0.07621 -0.769307,0.183633 -1.575607,0.337851 -2.420795,0.454276 -0.102415,0.01424 -0.207558,0.02645 -0.310993,0.03947 -0.876565,0.111164 -1.781659,0.192136 -2.716535,0.231689 -0.09623,0.0041 -0.195961,0.0028 -0.292682,0.0061 -0.92229,0.03174 -1.865564,0.02889 -2.823246,-0.009 -0.0625,-0.0024 -0.123371,-2.68e-4 -0.185992,-0.0031 -0.973895,-0.04321 -0.847511,-0.131509 -1.837283,-0.246948 -0.141254,-0.01668 -0.282449,-0.02767 -0.423793,-0.04574 C 35.321823,53.97282 34.358732,53.811076 33.40108,53.61963 33.246358,53.58871 33.091943,53.55782 32.937654,53.52511 32.000504,53.326219 31.07176,53.092817 30.160141,52.826924 29.867857,52.741674 29.57667,52.65383 29.288166,52.561666 29.07013,52.492006 28.85131,52.424949 28.635711,52.351298 28.327607,52.246075 28.026628,52.132307 27.7241,52.018984 c -0.246744,-0.09245 -0.495213,-0.182656 -0.737823,-0.280476 -0.281139,-0.113402 -0.55426,-0.236041 -0.829288,-0.356728 -0.233084,-0.102253 -0.469884,-0.200437 -0.698192,-0.307941 -0.497064,-0.234049 -0.985668,-0.478855 -1.457348,-0.737826 -0.375385,-0.207641 -0.73264,-0.42506 -1.0732,-0.652459 -0.782098,-0.522223 -1.464691,-1.097806 -2.076273,-1.701262 -3.183997,-3.249236 -3.036168,-7.069734 -2.868978,-9.545981 0.210652,-3.110435 2.818409,-9.934814 11.399686,-13.549132 5.302023,-1.872078 11.537607,-3.181369 16.75044,-1.50309 3.921215,0.884742 6.740876,2.171239 10.469785,3.487895 0,0 -0.03011,0.0649 1.000028,0.320148 7.251961,1.148763 6.437925,-4.825522 6.437925,-4.825522 L 63.47245,20.968434 v 0 c -0.125731,-0.736737 0.426096,-1.317778 0.426096,-1.317778 0,0 -0.447,-1.647413 -0.371661,-2.736165 0.07637,-1.088249 0.01465,-2.483188 -0.222575,-4.472678 C 63.067012,10.452205 61.761159,8.7684983 61.337798,8.4592362 60.913466,8.1505319 58.936274,6.6599626 57.041955,5.916487 55.146476,5.1730011 53.230746,4.6235486 50.871062,4.9560958 c -0.262003,0.037028 -0.509996,0.077111 -0.768313,0.1158556 -0.04574,-0.014526 -0.08162,-0.031046 -0.131102,-0.045731 -0.899805,-0.267223 -1.536309,-2.3937764 -2.271402,-2.3761643 -0.05627,0.00136 -0.113158,0.00614 -0.170734,0.012207 -0.05668,0.00594 -0.115477,0.013509 -0.173785,0.024373 h -0.0031 c -0.05941,0.011068 -0.118488,0.026041 -0.179889,0.042683 -0.06702,0.018188 -0.131631,0.04202 -0.192055,0.070125 -0.43015,0.1999834 -0.693686,2.5143748 -0.85663,3.0080678 C 42.349724,3.8997494 38.129578,2.7786408 33.654221,2.6580403 33.393553,2.651001 33.136018,2.6460775 32.87676,2.6458334 Z M 49.507053,53.019111 c -0.554079,0.206502 -1.155527,0.381266 -1.774437,0.542702 0.61856,-0.161375 1.220728,-0.336343 1.774437,-0.542702 z"
     id="path15907"
     sodipodi:nodetypes="cccccccccccccccccscssccccscsccccccccsccccccccccccccccccccc" />
  <path
     id="path15819"
     style="color:#000000;fill:#696463;fill-opacity:1;stroke-width:0.529167;stroke-linecap:round;stroke-linejoin:bevel"
     d="m 46.048869,11.334192 c -3.318927,-0.0042 -6.880026,0.959881 -9.482625,1.865002 h -0.0021 c -4.91524,1.739327 -8.010494,3.161772 -12.003919,6.015654 l -0.0016,0.0021 c -1.056947,0.767498 -5.230239,3.822571 -7.783504,8.125086 l -0.0036,0.0057 c -7.0179594,12.407669 -2.081934,25.65915 7.097242,28.695406 0.0013,4.96e-4 0.0028,0.0016 0.0041,0.0021 0.002,6.44e-4 0.0037,0.0014 0.0057,0.0021 4.967171,1.856464 10.390501,2.997694 15.82074,2.345594 5.433776,-0.652525 10.86811,-3.11 15.816089,-8.41034 l -0.339514,-0.398425 c 0,0 -2.709371,1.824864 -6.482809,3.339848 -5.34e-4,1.99e-4 -0.0015,-1.99e-4 -0.0021,0 -0.0016,6.4e-4 -0.002,0.0014 -0.0036,0.0021 -3.297036,1.22709 -8.029387,1.385048 -12.636955,0.796851 -4.609945,-0.588501 -9.102607,-1.923783 -11.914002,-3.613217 l -0.0078,-0.0041 c -3.16153,-1.749094 -4.549685,-3.876831 -5.148375,-5.958991 -0.598691,-2.08216 -0.392363,-4.127697 -0.286804,-5.691126 0.204134,-3.01418 2.306691,-9.747981 10.789005,-13.322701 0.0015,-6.35e-4 0.0021,-8.5e-4 0.0036,-0.0016 5.273761,-1.860347 11.455363,-3.142066 16.566431,-1.49655 l 0.0217,0.0083 c 3.857412,0.870344 6.658289,2.446907 10.377144,3.767211 5.29e-4,4e-4 9.5e-4,0.0017 0.0016,0.0021 0.05009,0.03777 0.09265,0.0559 0.164332,0.08423 0.143365,0.05668 0.399237,0.136592 0.91984,0.265617 l 0.02325,0.0036 c 3.701192,0.586219 5.711259,-0.778399 6.723104,-2.300634 1.011845,-1.522237 1.068153,-3.183785 1.068152,-3.183785 l -0.0041,-0.05633 -0.206706,-1.162203 -0.01395,-0.05271 -0.63252,-1.576131 -0.0041,-0.0098 -0.300757,-0.675928 -0.0036,-0.0098 -0.162264,-0.330212 c -0.0053,-0.04611 -0.05048,-0.440118 -0.120923,-0.890385 l -0.525549,0.01964 c -0.11624,1.466703 -0.563851,2.196132 -0.695565,2.396236 -2.624463,-0.552189 -4.219745,-1.924455 -5.873027,-3.484542 -1.693784,-1.598305 -3.472829,-3.362428 -6.494177,-4.402315 -0.0012,-4.54e-4 -0.0024,4.54e-4 -0.0036,0 -1.296074,-0.509057 -2.754489,-0.710819 -4.261756,-0.712618 z m 10.786422,15.955615 c 0.0019,6.47e-4 0.0043,0.0014 0.0062,0.0021 -2.25e-4,0.0011 -0.0016,0.0088 -0.0016,0.0088 z" />
  <path
     d="m 46.049308,11.597672 c -3.26707,-0.0041 -6.808889,0.952093 -9.39566,1.851709 -4.905537,1.735893 -7.964278,3.14071 -11.939043,5.981257 -1.053976,0.765341 -5.195735,3.806398 -7.712317,8.047096 -6.954685,12.295801 -2.033864,25.351566 6.959715,28.318145 9.887902,3.697864 21.540715,4.525913 31.360718,-5.993406 0,0 -2.732334,1.842042 -6.536914,3.368647 -6.734455,2.509807 -19.055175,0.607977 -24.784644,-2.834998 -6.42619,-3.554707 -5.781278,-8.788705 -5.571268,-11.899148 0.210652,-3.110437 2.372371,-9.935978 10.953649,-13.5503 5.302018,-1.872074 11.536495,-3.181276 16.749332,-1.502995 3.921218,0.88474 6.739781,2.485709 10.468687,3.802371 0,0 -0.03052,0.0639 0.999498,0.319176 7.251961,1.148612 7.486439,-5.23343 7.486439,-5.23343 l -0.206789,-1.162855 -0.631312,-1.577783 -0.300861,-0.675992 -0.181476,-0.366339 c 0,0 -0.05229,-0.461245 -0.125609,-0.929904 -0.138833,1.751776 -0.836407,2.702961 -0.836407,2.702961 -5.636426,-1.06865 -6.643861,-5.928358 -12.58679,-7.968212 -1.256049,-0.493978 -2.683918,-0.694228 -4.168948,-0.696 z"
     style="color:#000000;fill:#d3c9c6;stroke-width:0.529167;stroke-linecap:round;stroke-linejoin:bevel;-inkscape-stroke:none"
     id="path15831" />
  <path
     d="m 16.067011,27.417137 -0.03381,0.278543 c 2.267998,-0.114907 5.047692,0.376544 7.109648,1.822771 1.598605,1.079234 3.038679,2.689854 5.088339,1.961186 1.401291,-0.491431 1.47915,-1.3236 0.942006,-2.691979 -0.453602,-1.112601 -1.203408,-3.033861 -2.130598,-3.770476 -1.335686,-1.056995 -4.78868,-0.687893 -4.96192,-2.898269 -0.130186,-1.044819 0.52792,-1.830679 1.111705,-2.592188 -0.001,0 -6.686627,1.680819 -7.125367,7.890412 z"
     style="color:#000000;fill:#946857;stroke-width:0.529167;-inkscape-stroke:none"
     id="path15882" />
  <path
     d="m 62.901001,20.485964 c 0,0 -0.259093,0.817026 -1.475775,0.888719 -1.216181,0.07265 -1.005836,1.763966 0.04875,2.710907 1.055076,0.947425 1.880205,1.20726 2.583429,0.480209 0.702274,-0.725606 2.427106,-1.929489 -1.156421,-4.079835 z"
     style="fill:#424242;fill-opacity:1;stroke-width:1.12447"
     id="path6681" />
  <circle
     style="fill:#424242;fill-opacity:1;stroke:none;stroke-width:4.23331;stroke-linejoin:round;stroke-dasharray:none;stroke-opacity:1"
     id="path47129"
     cx="55.297916"
     cy="16.668751"
     r="2.1166668" />
  <ellipse
     style="fill:#424242;fill-opacity:1;stroke:none;stroke-width:2.59239;stroke-linejoin:round;stroke-dasharray:none;stroke-opacity:1"
     id="path47443"
     cx="62.706253"
     cy="17.991667"
     rx="1.0583334"
     ry="1.5875" />
</svg>
