<?xml version="1.0" encoding="UTF-8" standalone="no"?>
<svg
   width="256"
   height="256"
   version="1.1"
   id="svg16"
   sodipodi:docname="microsoft-edge.svg"
   inkscape:version="1.2 (dc2aedaf03, 2022-05-15)"
   xmlns:inkscape="http://www.inkscape.org/namespaces/inkscape"
   xmlns:sodipodi="http://sodipodi.sourceforge.net/DTD/sodipodi-0.dtd"
   xmlns="http://www.w3.org/2000/svg"
   xmlns:svg="http://www.w3.org/2000/svg">
  <defs
     id="defs20" />
  <sodipodi:namedview
     id="namedview18"
     pagecolor="#ffffff"
     bordercolor="#000000"
     borderopacity="0.25"
     inkscape:showpageshadow="2"
     inkscape:pageopacity="0.0"
     inkscape:pagecheckerboard="0"
     inkscape:deskcolor="#d1d1d1"
     showgrid="false"
     inkscape:zoom="1.4142136"
     inkscape:cx="-3.8890873"
     inkscape:cy="203.64675"
     inkscape:window-width="1920"
     inkscape:window-height="1011"
     inkscape:window-x="0"
     inkscape:window-y="0"
     inkscape:window-maximized="1"
     inkscape:current-layer="svg16" />
  <path
     id="path4034"
     style="color:#000000;fill:#0b6e5f;fill-opacity:1;stroke:none;stroke-width:4.00006"
     d="M 127.99155,8.0000006 C 62.399411,7.9936004 8.9223987,60.707318 8.0000038,126.28843 v 3.99997 l 0.1132814,0.004 c -1.608e-4,0.0481 -0.0117,0.0965 -0.01172,0.14454 -3.46e-5,0.004 3.46e-5,0.008 0,0.0118 v 0.008 c -0.1593092,18.1116 3.7198668,36.0343 11.3515028,52.46066 v 0.004 0.004 c 25.80245,55.04757 88.747602,82.09266 146.436712,62.95242 0.0425,-0.014 0.0864,-0.0218 0.1289,-0.0352 v -0.004 c 0.0102,-0.004 0.021,-0.004 0.0313,-0.008 l -0.0234,-0.0704 1.13281,-0.3789 0.008,-0.004 c 25.82488,-8.92719 47.84487,-26.37884 62.42935,-49.48411 0.61698,-0.97204 0.8695,-2.02041 0.84766,-3.03905 h 0.004 v -0.0508 -4.0195 h -0.0508 c -0.0266,-1.45345 -0.53562,-2.84683 -1.47265,-3.83983 -1.61108,-1.70732 -4.44998,-2.43065 -6.89841,-1.0703 l -0.23828,0.13281 -0.1914,0.1914 c -10.68044,10.50891 -27.69208,13.19287 -41.40602,13.26165 -41.05314,0 -76.91451,-30.52553 -79.45661,-66.02699 0.76816,-8.98074 5.92213,-17.0467 13.91008,-21.41004 2.92472,-1.37919 7.38456,-3.57836 13.36321,-3.46873 h 0.0118 0.0118 c 8.71018,0.0637 16.88429,4.20026 22.09363,11.17962 h 0.004 c 2.12393,2.83564 3.60357,6.06286 4.49217,9.46089 -0.66375,4.81364 -2.53664,9.32369 -5.78903,13.57024 -0.0857,0.1066 -3.45311,2.47796 -3.45311,6.43747 v 3.99996 c 0,3.27464 2.10167,6.13128 5.207,8.30074 v 0.004 c 7.1452,4.96847 16.9576,6.93551 25.03112,7.80074 8.07352,0.86523 14.38953,0.55859 14.4218,0.55859 h 0.004 c 10.17483,0 20.16017,-2.77557 28.91,-7.9687 v 0 C 237.05958,149.18484 247.97841,133.86716 248,114.66287 V 110 C 247.997,90.187823 240.34617,75.251747 237.32,69.27231 v -0.004 l -0.004,-0.004 C 217.39149,30.299559 174.48048,8.0000006 127.99155,8.0000006 Z"
     sodipodi:nodetypes="cccccccccccccccccccccccscccccccccccccssccssscccccccc" />
  <path
     id="path5154"
     style="color:#000000;fill:#05436d;fill-opacity:1;stroke:none;stroke-width:4.21399"
     d="m 83.847506,51.261632 c -20.900125,0 -39.851023,9.896052 -53.562391,24.050733 C 13.246195,95.709158 8.7796062,109.75727 8.00391,131.15991 11.427715,128.99976 8.00061,131.24561 8,131.28881 l 0.1132818,0.004 c -1.6e-4,0.048 -0.01152,0.0963 -0.01172,0.14454 -3.36e-5,0.004 3.4e-5,0.008 0,0.0118 v 0.008 c -0.1592997,18.11163 3.7198942,36.03446 11.3515392,52.46083 v 0.004 0.004 c 25.802486,55.04691 88.770649,80.86508 146.459829,61.72482 0.0426,-0.014 0.0865,-0.0218 0.1289,-0.0352 v -0.004 c 0.01,-0.004 0.0211,-0.004 0.0313,-0.008 l -0.0234,-0.0704 1.13281,-0.3789 0.008,-0.004 c 1.45217,-0.50198 2.88894,-1.03836 4.3164,-1.59374 0.58319,-0.22726 1.15943,-0.4709 1.73828,-0.70704 0.84753,-0.34506 1.69311,-0.69485 2.53124,-1.05857 0.67264,-0.29262 1.34145,-0.59386 2.00781,-0.89844 0.70074,-0.31946 1.39614,-0.648 2.08984,-0.98048 0.74115,-0.35618 1.48194,-0.71108 2.21484,-1.08202 0.23886,-0.1206 0.47297,-0.249 0.71094,-0.3711 4.75373,-2.44595 9.33397,-5.19283 13.707,-8.23044 0.014,-0.01 0.029,-0.018 0.043,-0.0274 -12.03445,2.88517 -31.21365,6.69672 -31.13194,6.7239 -18.78329,5.92149 -43.64432,1.25518 -60.29285,-9.16014 l -0.125,-0.0782 -0.0273,-0.012 C 97.0159,222.72448 90.116874,216.25548 84.679521,208.62369 l -0.0078,-0.012 -0.0078,-0.008 c -8.18116,-11.20684 -12.280881,-21.86158 -12.863254,-34.58585 0.972664,-24.07558 10.521175,-41.20581 31.988213,-53.91005 2.42043,-4.60176 6.12516,-8.50205 10.85545,-11.08591 2.92472,-1.3792 7.38458,-3.57838 13.36325,-3.46875 h 0.0118 0.0118 c 1.08877,0.008 2.17099,0.0781 3.23827,0.21094 2.13456,0.26569 4.21537,0.77537 6.20702,1.51171 2.98748,1.10452 5.77016,2.71803 8.22264,4.77343 0.81825,0.68577 1.60016,1.42114 2.33984,2.20312 0.73832,0.78055 1.43537,1.60885 2.08593,2.48047 h 0.004 c 1.59295,2.12672 2.82425,4.47116 3.71484,6.9453 4.1e-4,0.001 -4.1e-4,0.003 0,0.004 0.29634,0.82358 0.55551,1.6634 0.77734,2.51171 -0.004,0.0305 -0.0152,0.0594 -0.0196,0.0898 3.3e-4,0.001 -3.2e-4,0.003 0,0.004 0.54721,2.10444 0.85169,4.2766 0.88282,6.47655 l 4.21483,-0.0273 c 0,-7.6e-4 -0.0431,0.42753 -0.0508,0.46093 0.009,-0.033 0.0188,-0.0697 0.0352,-0.1289 0.0414,-0.15032 0.10552,-0.37397 0.17968,-0.66015 0.14832,-0.57237 0.34881,-1.40139 0.57031,-2.44531 0.443,-2.08785 0.96378,-5.04141 1.27734,-8.58592 0.25691,-2.90729 0.36031,-6.22673 0.1836,-9.77342 0.24748,-6.52048 -0.28809,-14.345755 -3.07421,-22.320265 C 155.48384,79.740152 148.92518,70.115098 137.07786,62.99989 125.23056,55.884683 108.18742,51.261632 83.847506,51.261632 Z"
     sodipodi:nodetypes="sccccsccccccccccccccccccccccscccccccccccsssscccccccccccsscccss" />
  <path
     id="path5843"
     style="color:#000000;fill:#07294d;fill-opacity:1;stroke:none;stroke-width:3.99999;stroke-linejoin:round"
     d="m 125.78492,97.617008 c -20.41233,0.858343 -25.862254,3.455162 -33.566337,17.378872 -7.704082,13.92371 -22.398392,32.11099 -22.398392,44.4335 0,0.96073 0.05744,1.867 0.08204,2.80469 -0.03668,1.07895 -0.08204,2.17094 -0.08204,3.1953 0,34.66156 16.210081,54.2453 34.058529,64.75768 17.84844,10.51244 37.12857,12.23826 44.23037,12.23826 4.52069,-0.014 17.30856,-5.49961 17.30856,-5.49961 0.005,-0.001 31.11936,-6.7208 31.13194,-6.7239 8.8e-4,-6e-4 0.003,6.2e-4 0.004,0 13.11493,-9.11858 24.38593,-20.8032 33.03509,-34.49211 0.01,-0.016 0.0212,-0.027 0.0312,-0.043 6.6e-4,-10e-4 -6.8e-4,-0.003 0,-0.004 0.004,-0.008 0.006,-0.0158 0.012,-0.0234 0.26624,-0.4246 0.44278,-0.86803 0.57812,-1.3125 0.0262,-0.0878 0.0644,-0.17346 0.086,-0.26172 0.1048,-0.42054 0.1484,-0.84179 0.1524,-1.26171 0.002,-0.18266 0.01,-0.36603 -0.004,-0.54688 h 0.0274 l -0.0226,-4.01084 c 0.01,-0.15522 -0.018,-0.30677 -0.02,-0.46093 h -0.0312 c -0.0266,-1.45346 -0.53562,-2.84684 -1.47266,-3.83984 -1.20829,-1.2805 -3.10871,-2.00918 -5.01561,-1.71875 -0.31782,0.0484 -0.63412,0.1273 -0.94922,0.23438 -0.31247,0.10646 -0.62233,0.24181 -0.92577,0.41015 l 0.30468,0.17968 c -0.25302,0.001 -0.50354,0.0501 -0.73828,0.14454 l -0.004,0.004 c -0.66632,0.65536 -1.35708,1.27928 -2.07032,1.875 -10e-4,0.001 -0.002,0.003 -0.004,0.004 -1.4279,1.19274 -2.94731,2.26929 -4.53515,3.23827 -0.002,9.4e-4 -0.002,0.003 -0.004,0.004 -0.79332,0.48375 -1.6035,0.93939 -2.42969,1.3711 -0.002,8.2e-4 -0.002,0.003 -0.004,0.004 -0.02,0.01 -0.0396,0.0174 -0.0586,0.0273 -1.58288,0.82393 -3.22436,1.54829 -4.90233,2.1953 -0.134,0.0517 -0.2678,0.10168 -0.40234,0.15234 -1.60846,0.60519 -3.2505,1.13672 -4.91405,1.59766 -0.1838,0.051 -0.36658,0.0991 -0.5508,0.14844 -1.67548,0.44802 -3.36736,0.83251 -5.06639,1.15234 -5.61272,1.05752 -11.27479,1.46615 -16.46481,1.49218 -2.71472,0 -5.4013,-0.15058 -8.06248,-0.41015 -2.27867,-0.22228 -4.53723,-0.53109 -6.76561,-0.9336 -0.1564,-0.0283 -0.31262,-0.0568 -0.46875,-0.0859 -2.25506,-0.4205 -4.4798,-0.9358 -6.67186,-1.53125 -0.23349,-0.0634 -0.46652,-0.12604 -0.69922,-0.1914 -2.11389,-0.5936 -4.19031,-1.272 -6.23436,-2.01953 -0.27613,-0.101 -0.55337,-0.19706 -0.82813,-0.30078 -2.04303,-0.77109 -4.04629,-1.61879 -6.0078,-2.53515 -0.2002,-0.0935 -0.40227,-0.18234 -0.60156,-0.27734 -2.00761,-0.95688 -3.96898,-1.98986 -5.87889,-3.08984 -0.12918,-0.0744 -0.26191,-0.1437 -0.39063,-0.21875 -1.96291,-1.14428 -3.86421,-2.3669 -5.71092,-3.65234 -0.10006,-0.0697 -0.20499,-0.13306 -0.30469,-0.20312 -0.009,-0.006 -0.0182,-0.0132 -0.0273,-0.0196 -1.80917,-1.27215 -3.55336,-2.61769 -5.23827,-4.01562 -0.1232,-0.10226 -0.25249,-0.19788 -0.375,-0.30078 -0.006,-0.005 -0.0132,-0.0102 -0.0196,-0.0156 -1.68993,-1.41981 -3.30423,-2.90852 -4.85546,-4.4453 -0.0882,-0.0874 -0.18178,-0.17002 -0.26953,-0.25781 -1.55316,-1.55328 -3.02538,-3.16744 -4.42577,-4.82812 -0.0814,-0.0966 -0.16914,-0.18824 -0.25,-0.28516 -1.39633,-1.67278 -2.70748,-3.39821 -3.93749,-5.16795 -0.0639,-0.0919 -0.13192,-0.18128 -0.19532,-0.27344 -1.24457,-1.80862 -2.39428,-3.66492 -3.45312,-5.56249 -0.0295,-0.0529 -0.0644,-0.10324 -0.0937,-0.15626 -1.03983,-1.87528 -1.97771,-3.79537 -2.82421,-5.74608 -0.0533,-0.1229 -0.11154,-0.244 -0.16406,-0.36719 -0.15914,-0.37309 -0.29741,-0.75332 -0.44922,-1.1289 -0.26288,-0.65067 -0.53289,-1.29921 -0.77344,-1.95703 -0.193,-0.52752 -0.36066,-1.06186 -0.53905,-1.59375 -0.17022,-0.50782 -0.35111,-1.0118 -0.50782,-1.52343 -0.19912,-0.64967 -0.36991,-1.30545 -0.54687,-1.96093 -0.11072,-0.41031 -0.23402,-0.818 -0.33594,-1.23047 -0.1618,-0.65457 -0.29428,-1.31683 -0.43359,-1.97656 -0.0894,-0.42385 -0.1934,-0.84367 -0.27344,-1.26953 -0.15324,-0.81479 -0.2724,-1.63538 -0.39062,-2.45702 -0.0375,-0.26089 -0.0872,-0.51972 -0.1211,-0.78125 -0.10922,-0.84118 -0.18612,-1.68773 -0.25781,-2.53515 -0.0204,-0.2416 -0.0569,-0.48059 -0.0742,-0.72266 4.6e-4,-0.005 0.003,-0.0102 0.004,-0.0156 -0.006,-0.0889 -0.0214,-0.17662 -0.0273,-0.26562 0.52742,-5.51147 2.73734,-10.65635 6.22264,-14.80466 0.10198,-0.1214 0.19268,-0.25144 0.29687,-0.37109 2.72178,-5.32696 6.49047,-13.73268 18.55465,-17.359342 z"
     sodipodi:nodetypes="csscscccccssscccccccccssccccsscscsssscscccsssscscscscsscsssscscscscscccccccccscscccsccc" />
  <path
     d="m 223.0039,184.6188 c -11.30781,11.12553 -28.84882,13.76639 -42.80911,13.83497 -43.62031,0 -81.617545,-33.54071 -81.617545,-72.0397 0.113699,-10.51462 5.908135,-20.14484 15.145425,-25.17137 -39.4537,1.65905 -49.593676,42.76643 -49.593676,66.8502 0,68.09444 62.766416,74.99791 76.289456,74.99791 7.29155,0 18.28882,-2.1199 24.88902,-4.20292 l 1.20758,-0.40549 c 25.39827,-8.77919 47.05045,-25.94255 61.39292,-48.66523 2.0484,-3.2269 -1.56271,-7.05469 -4.90407,-5.19833 z"
     style="fill:#0e539b;stroke-width:4.21437"
     id="path8625" />
  <path
     d="m 115.72375,100.242 c -39.453742,1.65905 -49.593746,42.76777 -49.593746,66.85156 0,35.13712 16.714728,53.95856 34.749996,63.96876 -6.106758,-4.53914 -11.488468,-9.9977 -15.917964,-16.21484 -24.68068,-33.80959 -13.419212,-80.37674 19.738274,-104.01954 2.61891,-4.37514 6.38468,-8.06173 11.02344,-10.58594 z"
     style="opacity:0.25;fill:#000000;stroke-width:4.21438"
     id="path8569" />
  <path
     d="M 103.92438,231.51443 C 95.702372,226.41198 88.576917,219.72611 82.9623,211.84557 55.718509,174.52483 72.268508,121.66036 113.72268,101.24274 c 2.87606,-1.354876 7.78934,-3.806577 14.32501,-3.686746 9.33431,0.06828 18.09826,4.502196 23.68144,11.981966 3.7225,4.9696 5.77492,10.99048 5.86274,17.19873 0,-0.19352 22.54762,-73.36653 -73.745228,-73.36653 -40.467706,0 -73.745243,38.397608 -73.745243,72.08539 -0.1595991,17.82038 3.653829,35.45245 11.163184,51.61464 25.403071,54.19368 87.366677,80.78157 144.153507,61.85462 -19.44019,6.12855 -44.12897,3.43384 -61.41074,-7.3735 z"
     style="fill:#0b87da;stroke-width:4.21437"
     id="path8653" />
  <path
     id="path8541"
     style="opacity:0.25;fill:#000000;stroke-width:4.21438"
     d="M 127.99219,12.000001 C 63.469312,11.993601 10.907358,63.80869 10.000004,128.31641 10.442475,94.637852 43.923662,63.390626 83.746098,63.390624 c 3.22634,0 21.624382,0.317116 38.714842,9.285158 15.06246,7.908092 22.9527,21.50299 28.4375,30.968748 7.97193,15.04011 8.3178,28.85408 -0.47656,40.33594 -0.25699,0.33307 -0.70473,0.74521 -1.17188,1.21484 h 56.5 V 80.464844 h 33.75782 c -1.51404,-3.508058 -2.976,-6.335304 -3.96486,-8.289062 C 216.00968,33.97172 173.8433,12.000001 127.99219,12.000001 Z" />
  <path
     d="m 150.42016,140.97957 c -0.74668,0.96777 -3.042,2.30421 -3.042,5.21676 0,2.4056 1.56709,4.71905 4.35097,6.66382 13.25571,9.2169 38.24613,8.00027 38.31066,8.00027 9.82218,-0.0236 19.4582,-2.68132 27.90334,-7.69612 17.33537,-10.12069 28.00973,-23.44437 28.05085,-43.51574 C 246.23366,88.993484 238.61947,75.260308 235.5406,69.177146 216.00732,30.973093 173.84349,9.0000009 127.99238,9.0000009 63.46951,8.9936227 10.907353,60.809575 9.9999998,125.31729 10.44247,91.638736 43.922813,60.392318 83.745249,60.392318 c 3.226339,0 21.625781,0.313381 38.716241,9.281421 15.06247,7.90809 22.95321,21.504156 28.43801,30.969911 7.97193,15.04011 8.31502,28.85406 -0.47934,40.33592 z"
     style="fill:#17dcbe;stroke-width:4.21437"
     id="path8597" />
</svg>
