<?xml version="1.0" encoding="UTF-8" standalone="no"?>
<!-- Created with Inkscape (http://www.inkscape.org/) -->

<svg
   width="256"
   height="256"
   viewBox="0 0 67.733332 67.733336"
   version="1.1"
   id="svg1099"
   inkscape:version="1.2 (dc2aedaf03, 2022-05-15)"
   sodipodi:docname="multimedia-photo-viewer.svg"
   xmlns:inkscape="http://www.inkscape.org/namespaces/inkscape"
   xmlns:sodipodi="http://sodipodi.sourceforge.net/DTD/sodipodi-0.dtd"
   xmlns="http://www.w3.org/2000/svg"
   xmlns:svg="http://www.w3.org/2000/svg">
  <sodipodi:namedview
     id="namedview1101"
     pagecolor="#ffffff"
     bordercolor="#666666"
     borderopacity="1.0"
     inkscape:pageshadow="2"
     inkscape:pageopacity="0.0"
     inkscape:pagecheckerboard="0"
     inkscape:document-units="px"
     showgrid="false"
     units="px"
     inkscape:zoom="3.1796875"
     inkscape:cx="127.84275"
     inkscape:cy="128"
     inkscape:window-width="1920"
     inkscape:window-height="1011"
     inkscape:window-x="0"
     inkscape:window-y="0"
     inkscape:window-maximized="1"
     inkscape:current-layer="svg1099"
     inkscape:showpageshadow="2"
     inkscape:deskcolor="#d1d1d1" />
  <defs
     id="defs1096" />
  <rect
     style="opacity:1;fill:#245c63;fill-opacity:1;stroke-width:0.529166"
     id="rect1196"
     width="59.266666"
     height="46.566666"
     x="4.2333336"
     y="14.816667"
     ry="4.2333336" />
  <rect
     style="opacity:1;fill:#48b9c7;fill-opacity:1;stroke-width:0.529167;stroke-linecap:round;stroke-linejoin:bevel"
     id="rect16828"
     width="58.737499"
     height="44.979168"
     x="4.4979167"
     y="15.08125"
     ry="4.1010418" />
  <rect
     style="fill:#f6f6f6;fill-opacity:1;stroke-width:1.05833"
     id="rect2612"
     width="46.566666"
     height="31.750002"
     x="10.583333"
     y="21.166666"
     ry="2.1166668" />
  <path
     d="m 16.933333,23.283334 v 17.991667 l 6.350001,-6.350002 6.35,6.350002 10.583333,-10.583333 10.583334,10.583333 V 23.283334 Z"
     style="opacity:0.5;fill:#1c8d9b;fill-opacity:1;stroke-width:0.529166"
     id="path12479" />
  <path
     d="M 33.866667,32.808334 50.800001,50.800001 H 16.933333 Z"
     id="path12451"
     style="fill:#1c8d9b;fill-opacity:1;stroke-width:0.529166" />
  <rect
     style="fill:#671d00;fill-opacity:1;stroke-width:0.264583"
     id="rect49816"
     width="27.516666"
     height="24.341667"
     x="38.629166"
     y="39.158333"
     ry="5.4239583" />
  <rect
     style="fill:#cf3b00;fill-opacity:1;stroke-width:0.264583"
     id="rect3945"
     width="26.987501"
     height="22.754168"
     x="38.893749"
     y="39.422916"
     ry="5.2916665" />
  <path
     d="m 52.387499,45.508332 c -3.593282,0.005 -6.873547,2.059186 -8.466667,5.301986 1.598867,3.234777 4.877965,5.280216 8.466667,5.281348 3.593283,-0.005 6.873547,-2.059186 8.466667,-5.301985 -1.598866,-3.234778 -4.877964,-5.280216 -8.466667,-5.281349 z m 0,1.058334 c 2.338007,0 4.233334,1.895327 4.233334,4.233333 0,2.338007 -1.895327,4.233334 -4.233334,4.233334 -2.338006,0 -4.233333,-1.895327 -4.233333,-4.233334 0,-2.338006 1.895327,-4.233333 4.233333,-4.233333 z m 0,2.116667 c -1.169003,0 -2.116667,0.947663 -2.116667,2.116666 0,1.169004 0.947664,2.116667 2.116667,2.116667 1.169003,0 2.116667,-0.947663 2.116667,-2.116667 0,-1.169003 -0.947664,-2.116666 -2.116667,-2.116666 z"
     style="fill:#ffffff;stroke-width:0.264583"
     id="path24546" />
</svg>
