<?xml version="1.0" encoding="UTF-8" standalone="no"?>
<!-- Created with Inkscape (http://www.inkscape.org/) -->

<svg
   width="256"
   height="256"
   viewBox="0 0 67.733332 67.733332"
   version="1.1"
   id="svg5"
   inkscape:version="1.2 (dc2aedaf03, 2022-05-15)"
   sodipodi:docname="multimedia-audio-player.svg"
   xmlns:inkscape="http://www.inkscape.org/namespaces/inkscape"
   xmlns:sodipodi="http://sodipodi.sourceforge.net/DTD/sodipodi-0.dtd"
   xmlns="http://www.w3.org/2000/svg"
   xmlns:svg="http://www.w3.org/2000/svg">
  <sodipodi:namedview
     id="namedview7"
     pagecolor="#ffffff"
     bordercolor="#666666"
     borderopacity="1.0"
     inkscape:pageshadow="2"
     inkscape:pageopacity="0.0"
     inkscape:pagecheckerboard="0"
     inkscape:document-units="px"
     showgrid="false"
     units="px"
     height="48px"
     inkscape:zoom="1"
     inkscape:cx="109"
     inkscape:cy="86"
     inkscape:window-width="1846"
     inkscape:window-height="1011"
     inkscape:window-x="0"
     inkscape:window-y="0"
     inkscape:window-maximized="1"
     inkscape:current-layer="svg5"
     inkscape:showpageshadow="2"
     inkscape:deskcolor="#d1d1d1"
     showguides="false" />
  <defs
     id="defs2" />
  <path
     d="m 33.866667,1.8520833 c -6.009217,0 -11.6205,1.6404167 -16.415015,4.4979166 h -6.736027 c -2.4185564,0 -4.3656251,1.9470687 -4.3656251,4.3656251 v 6.736026 C 3.4927645,22.246166 1.8520833,27.857449 1.8520833,33.866666 v 1.058333 c 0,6.009217 1.6404167,11.6205 4.4979166,16.415014 v 6.736027 c 0,2.418557 1.9470687,4.365625 4.3656251,4.365625 h 6.736027 c 4.794515,2.857236 10.405798,4.497917 16.415015,4.497917 6.009216,0 11.620499,-1.640417 16.415014,-4.497917 h 6.736027 c 2.418556,0 4.365625,-1.947068 4.365625,-4.365625 v -6.736027 c 2.857235,-4.794514 4.497916,-10.405797 4.497916,-16.415014 v -1.058333 c 0,-6.009217 -1.640416,-11.6205 -4.497916,-16.415015 v -6.736026 c 0,-2.4185564 -1.947069,-4.3656251 -4.365625,-4.3656251 H 50.281681 C 45.487166,3.4927645 39.875883,1.8520833 33.866667,1.8520833 Z"
     style="fill:#565656;stroke-width:0.264583"
     id="path67144" />
  <path
     d="m 33.866666,2.1166666 c -5.985668,0 -11.573404,1.64121 -16.342254,4.497916 h -6.676495 c -2.3452674,0 -4.2333344,1.888067 -4.2333344,4.2333344 v 6.676495 c -2.856706,4.768586 -4.497916,10.356321 -4.497916,16.342254 0,5.985933 1.64121,11.573404 4.497916,16.342254 v 6.676496 c 0,2.345267 1.888067,4.233333 4.2333344,4.233333 h 6.676495 c 4.768586,2.856706 10.356321,4.497917 16.342254,4.497917 5.985933,0 11.573404,-1.641211 16.342254,-4.497917 h 6.676496 c 2.345267,0 4.233333,-1.888066 4.233333,-4.233333 V 50.20892 c 2.856706,-4.768585 4.497917,-10.356321 4.497917,-16.342254 0,-5.985933 -1.641211,-11.573404 -4.497917,-16.342254 v -6.676495 c 0,-2.3452674 -1.888066,-4.2333344 -4.233333,-4.2333344 H 50.20892 C 45.440335,3.7578766 39.852599,2.1166666 33.866666,2.1166666 Z"
     style="fill:#acacac;stroke-width:0.264583"
     id="path67299" />
  <circle
     style="fill:#333333;fill-opacity:1;stroke-width:1.3626"
     id="path8113"
     cx="33.866665"
     cy="33.866665"
     r="27.252083" />
  <circle
     style="fill:#faa41a;fill-opacity:1;stroke-width:2.01242"
     id="path11492"
     cx="33.866669"
     cy="33.866669"
     r="22.225" />
  <path
     id="rect975"
     style="fill:#845914;stroke-width:1.79893"
     d="m 33.866665,24.077083 c 4.837115,0 8.731251,3.894136 8.731251,8.731249 v 1.058333 c 0,4.837113 -3.894136,8.731252 -8.731251,8.731252 -4.837113,0 -8.731249,-3.894139 -8.731249,-8.731252 v -1.058333 c 0,-4.837113 3.894136,-8.731249 8.731249,-8.731249 z"
     sodipodi:nodetypes="sssssss" />
  <circle
     style="fill:#333333;fill-opacity:1;stroke-width:1.08289"
     id="path13793"
     cx="33.866665"
     cy="33.866665"
     r="8.4666662" />
  <path
     d="m 11.641666,10.583333 c -0.5845,0 -1.058333,0.473832 -1.058333,1.058334 0,0.584501 0.473833,1.058333 1.058333,1.058333 0.584502,0 1.058334,-0.473832 1.058334,-1.058333 0,-0.584502 -0.473832,-1.058334 -1.058334,-1.058334 z m 44.450001,0 c -0.584502,0 -1.058334,0.473832 -1.058334,1.058334 0,0.584501 0.473832,1.058333 1.058334,1.058333 0.584502,0 1.058332,-0.473832 1.058332,-1.058333 0,-0.584502 -0.47383,-1.058334 -1.058332,-1.058334 z m -44.450001,44.45 c -0.5845,0 -1.058333,0.473832 -1.058333,1.058334 0,0.584502 0.473833,1.058332 1.058333,1.058332 0.584502,0 1.058334,-0.47383 1.058334,-1.058332 0,-0.584502 -0.473832,-1.058334 -1.058334,-1.058334 z m 44.450001,0 c -0.584502,0 -1.058334,0.473832 -1.058334,1.058334 0,0.584502 0.473832,1.058332 1.058334,1.058332 0.584502,0 1.058332,-0.47383 1.058332,-1.058332 0,-0.584502 -0.47383,-1.058334 -1.058332,-1.058334 z"
     id="path768"
     style="fill:#565656;fill-opacity:1;stroke-width:0.529166" />
</svg>
