<?xml version="1.0" encoding="UTF-8" standalone="no"?>
<!-- Created with Inkscape (http://www.inkscape.org/) -->

<svg
   width="256"
   height="256"
   viewBox="0 0 67.733332 67.733336"
   version="1.1"
   id="svg1099"
   inkscape:version="1.2 (dc2aedaf03, 2022-05-15)"
   sodipodi:docname="org.gnome.Software.svg"
   xmlns:inkscape="http://www.inkscape.org/namespaces/inkscape"
   xmlns:sodipodi="http://sodipodi.sourceforge.net/DTD/sodipodi-0.dtd"
   xmlns="http://www.w3.org/2000/svg"
   xmlns:svg="http://www.w3.org/2000/svg">
  <sodipodi:namedview
     id="namedview1101"
     pagecolor="#ffffff"
     bordercolor="#666666"
     borderopacity="1.0"
     inkscape:pageshadow="2"
     inkscape:pageopacity="0.0"
     inkscape:pagecheckerboard="0"
     inkscape:document-units="px"
     showgrid="false"
     units="px"
     inkscape:zoom="0.79882813"
     inkscape:cx="90.132029"
     inkscape:cy="56.332518"
     inkscape:window-width="1846"
     inkscape:window-height="1015"
     inkscape:window-x="0"
     inkscape:window-y="0"
     inkscape:window-maximized="1"
     inkscape:current-layer="svg1099"
     inkscape:showpageshadow="2"
     inkscape:deskcolor="#d1d1d1"
     showguides="false" />
  <defs
     id="defs1096" />
  <path
     id="path9751"
     style="opacity:1;fill:#d1cbcb;fill-opacity:1;stroke-width:2.11666;stroke-linecap:round"
     d="m 25.4,6.3500001 c -1.753504,0 -3.175,1.421496 -3.175,3.175 V 19.579167 c 0,2.052106 1.652059,3.704167 3.704167,3.704167 h 15.875 c 2.052102,0 3.704167,-1.652061 3.704167,-3.704167 V 9.5250001 c 0,-1.753504 -1.421496,-3.175 -3.175,-3.175 z m 0.529167,3.7041669 h 15.875 c 0.586315,0 1.058333,0.472017 1.058333,1.058333 v 8.995834 c 0,0.586315 -0.472018,1.058333 -1.058333,1.058333 h -15.875 c -0.586315,0 -1.058333,-0.472018 -1.058333,-1.058333 V 11.1125 c 0,-0.586316 0.472018,-1.058333 1.058333,-1.058333 z"
     sodipodi:nodetypes="ssssssssssssssssss" />
  <path
     id="path9864"
     style="opacity:0.3;fill:#000000;fill-opacity:1;stroke-width:2.11666;stroke-linecap:round"
     d="m 25.4,6.3500001 c -1.7535,0 -3.175,1.4214994 -3.175,3.175 V 19.579167 c 0,2.052102 1.652063,3.704167 3.704167,3.704167 h 15.875 c 2.052098,0 3.704167,-1.652065 3.704167,-3.704167 V 9.5250001 c 0,-1.7535006 -1.4215,-3.175 -3.175,-3.175 z m 0,0.2645833 h 16.933334 c 1.607375,3e-7 2.910417,1.3030416 2.910416,2.9104167 V 18.25625 c 0,1.758946 -1.416054,3.175 -3.175,3.175 H 25.664584 c -1.758948,0 -3.175,-1.416054 -3.175,-3.175 V 9.5250001 C 22.489583,7.917625 23.792625,6.6145837 25.4,6.6145834 Z m 0.79375,2.1166667 c -0.879472,0 -1.5875,0.7080263 -1.5875,1.5874999 v 7.408334 c 0,0.32588 0.09746,0.628031 0.264584,0.879532 V 11.1125 c 0,-0.586314 0.47202,-1.058333 1.058333,-1.058333 h 15.875 c 0.586313,0 1.058333,0.472019 1.058333,1.058333 v 7.494116 c 0.167126,-0.251501 0.264584,-0.553652 0.264584,-0.879532 V 10.31875 c 0,-0.8794736 -0.708029,-1.5874999 -1.5875,-1.5874999 z" />
  <rect
     style="opacity:1;fill:#ececec;fill-opacity:1;stroke-width:2.11666;stroke-linecap:round"
     id="rect934"
     width="59.266666"
     height="49.477085"
     x="4.2333336"
     y="13.758333"
     ry="4.2333336" />
  <path
     id="rect6893"
     style="fill:#d8d8d8;fill-opacity:1;stroke-width:2.11666;stroke-linejoin:round"
     d="m 8.466667,13.758333 c -2.3452644,0 -4.2333336,1.888069 -4.2333336,4.233334 V 35.983333 H 63.500001 V 17.991667 c 0,-2.345265 -1.888068,-4.233334 -4.233332,-4.233334 z"
     sodipodi:nodetypes="ssccsss" />
  <path
     id="rect500"
     style="opacity:0.3;fill:#000000;stroke-width:2.11666;stroke-linejoin:round"
     d="m 41.275001,21.43125 a 6.3499994,6.3499994 0 0 0 -6.35,6.35 6.3499994,6.3499994 0 0 0 6.35,6.35 6.3499994,6.3499994 0 0 0 6.35,-6.35 6.3499994,6.3499994 0 0 0 -6.35,-6.35 z m -19.05,8.467183 c -2.345265,0 -4.233334,1.888069 -4.233334,4.233334 V 38.3651 c 0,2.345265 1.888069,4.233333 4.233334,4.233333 h 4.233333 c 2.345264,0 4.233333,-1.888068 4.233333,-4.233333 v -4.233333 c 0,-2.345265 -1.888069,-4.233334 -4.233333,-4.233334 z m 23.602177,8.46615 c -0.310824,-0.0013 -0.622026,0.08259 -0.901237,0.252181 v -5.16e-4 l -9.104871,5.52111 c -0.554375,0.334839 -0.896069,0.959415 -0.896069,1.635559 0,0.676143 0.341694,1.300703 0.896069,1.635559 l 9.104871,5.520593 c 0.558423,0.33916 1.244528,0.335039 1.800923,-0.0062 0.5564,-0.34352 0.898137,-0.972613 0.898137,-1.655196 v -10.98951 c 0,-0.682584 -0.341729,-1.311759 -0.898137,-1.655197 -0.278197,-0.170646 -0.588863,-0.257047 -0.899686,-0.258383 z" />
  <rect
     style="fill:#f15d22;fill-opacity:1;stroke-width:2.11666;stroke-linejoin:round"
     id="rect549"
     width="12.699999"
     height="12.699999"
     x="17.991667"
     y="29.633337"
     ry="4.2333336" />
  <path
     d="m 44.925973,38.351907 -9.104668,5.520768 c -0.554376,0.33484 -0.896304,0.959484 -0.896304,1.635628 0,0.676144 0.341928,1.300772 0.896304,1.635628 l 9.104668,5.520768 c 0.558424,0.33916 1.244308,0.33484 1.800704,-0.0064 0.5564,-0.34352 0.898328,-0.972428 0.898328,-1.655012 V 40.013331 c 0,-0.682586 -0.34192,-1.311508 -0.898328,-1.654944 -0.556396,-0.341292 -1.24228,-0.34558 -1.800704,-0.0064 z"
     style="fill:#48b9c7;fill-opacity:1;stroke-width:1.05833"
     id="path1868" />
  <circle
     style="fill:#b84acb;fill-opacity:1;stroke-width:2.11666;stroke-linejoin:round"
     id="path1942"
     cx="41.275005"
     cy="27.51667"
     r="6.3499994" />
  <path
     id="rect908"
     style="opacity:0.5;fill:#000000;stroke-width:1.05833;stroke-linejoin:round"
     d="m 8.4666667,13.758333 c -2.3452622,0 -4.2333333,1.888072 -4.2333333,4.233334 v 41.010416 c 0,2.345262 1.8880711,4.233334 4.2333333,4.233334 H 59.266667 c 2.345262,0 4.233334,-1.888072 4.233334,-4.233334 V 17.991667 c 0,-2.345262 -1.888072,-4.233334 -4.233334,-4.233334 z m 0,0.264584 H 59.266667 c 2.198686,0 3.96875,1.770065 3.96875,3.96875 V 57.94375 c 0,2.198685 -1.770064,3.96875 -3.96875,3.96875 H 8.4666667 c -2.1986853,0 -3.96875,-1.770065 -3.96875,-3.96875 V 17.991667 c 0,-2.198685 1.7700647,-3.96875 3.96875,-3.96875 z"
     sodipodi:nodetypes="ssssssssssssssssss" />
</svg>
