<?xml version="1.0" encoding="UTF-8" standalone="no"?>
<!-- Created with Inkscape (http://www.inkscape.org/) -->

<svg
   width="256"
   height="256"
   viewBox="0 0 67.733332 67.733332"
   version="1.1"
   id="svg5"
   inkscape:version="1.2 (dc2aedaf03, 2022-05-15)"
   sodipodi:docname="password-manager.svg"
   xmlns:inkscape="http://www.inkscape.org/namespaces/inkscape"
   xmlns:sodipodi="http://sodipodi.sourceforge.net/DTD/sodipodi-0.dtd"
   xmlns="http://www.w3.org/2000/svg"
   xmlns:svg="http://www.w3.org/2000/svg">
  <sodipodi:namedview
     id="namedview7"
     pagecolor="#ffffff"
     bordercolor="#666666"
     borderopacity="1.0"
     inkscape:pageshadow="2"
     inkscape:pageopacity="0.0"
     inkscape:pagecheckerboard="0"
     inkscape:document-units="px"
     showgrid="false"
     units="px"
     height="48px"
     inkscape:zoom="2.2732379"
     inkscape:cx="104.03663"
     inkscape:cy="85.560778"
     inkscape:window-width="1846"
     inkscape:window-height="1011"
     inkscape:window-x="0"
     inkscape:window-y="0"
     inkscape:window-maximized="1"
     inkscape:current-layer="svg5"
     inkscape:showpageshadow="2"
     inkscape:deskcolor="#d1d1d1"
     showguides="false" />
  <defs
     id="defs2" />
  <rect
     style="fill:#444444;fill-opacity:1;stroke-width:0.529167;stroke-linecap:round"
     id="rect934"
     width="55.033333"
     height="55.033333"
     x="6.3499999"
     y="6.3499999"
     ry="4.2333336" />
  <path
     id="rect24299"
     style="opacity:0.5;fill:#ffffff;stroke-width:0.529167;stroke-linejoin:round"
     d="m 10.583333,6.3500007 c -2.345264,0 -4.2333329,1.888069 -4.2333329,4.2333333 v 46.566668 c 0,2.345264 1.8880689,4.233333 4.2333329,4.233333 h 46.566668 c 2.345264,0 4.233333,-1.888069 4.233333,-4.233333 V 10.583334 c 0,-2.3452643 -1.888069,-4.2333333 -4.233333,-4.2333333 z m 0,0.264583 h 46.566668 c 2.198685,0 3.96875,1.770065 3.96875,3.9687503 v 45.508334 c 0,2.198686 -1.770065,3.96875 -3.96875,3.96875 H 10.583333 c -2.1986849,0 -3.9687496,-1.770064 -3.9687496,-3.96875 V 10.583334 c 0,-2.1986853 1.7700647,-3.9687503 3.9687496,-3.9687503 z" />
  <rect
     style="opacity:1;fill:#cdcdcd;fill-opacity:1;stroke:none;stroke-width:1.05833;stroke-linecap:square;stroke-linejoin:bevel"
     id="rect29955"
     width="42.333332"
     height="40.216667"
     x="12.7"
     y="12.7"
     ry="2.1166666" />
  <path
     d="m 21.47195,33.364799 c 0.370322,0.610744 1.041945,1.017037 1.811242,1.017037 l 6.923599,5.3e-4 c 0.756434,1.307748 2.152609,2.113113 3.663372,2.113109 l 3.457633,5.988807 c 0.586137,1.015221 1.875317,1.360664 2.890538,0.774525 1.015201,-0.586136 1.360638,-1.875316 0.7745,-2.890538 l -3.457632,-5.988803 c 0.371355,-0.643259 0.566872,-1.372919 0.566904,-2.115674 8.4e-5,-0.745704 -0.196875,-1.478189 -0.570925,-2.123294 l 3.451807,-5.977643 c 0.586137,-1.015228 0.239938,-2.30443 -0.775264,-2.890561 -1.015221,-0.586138 -2.303533,-0.240469 -2.88967,0.774754 l -3.455965,5.984849 c -1.509833,0.0032 -2.903758,0.809969 -3.657992,2.117928 l -6.920763,1.34e-4 c -1.172269,0 -2.116668,0.943378 -2.116668,2.115653 0,0.402949 0.111297,0.779199 0.3053,1.099097 z"
     style="opacity:0.2;fill:#000000;fill-opacity:1;stroke-width:0.529004"
     id="path28379" />
  <path
     d="m 21.47195,32.835632 c 0.370322,0.610744 1.041945,1.017037 1.811242,1.017037 l 6.923599,5.3e-4 c 0.756434,1.307748 2.152609,2.113113 3.663372,2.113109 l 3.457633,5.988807 c 0.586137,1.015221 1.875317,1.360664 2.890538,0.774525 1.015201,-0.586136 1.360638,-1.875316 0.7745,-2.890538 l -3.457632,-5.988803 c 0.371355,-0.643259 0.566872,-1.372919 0.566904,-2.115674 8.4e-5,-0.745704 -0.196875,-1.478189 -0.570925,-2.123294 l 3.451807,-5.977643 c 0.586137,-1.015228 0.239938,-2.30443 -0.775264,-2.890561 -1.015221,-0.586138 -2.303533,-0.240469 -2.88967,0.774754 l -3.455965,5.984849 c -1.509833,0.0032 -2.903758,0.809969 -3.657992,2.117928 l -6.920763,1.34e-4 c -1.172269,0 -2.116668,0.943378 -2.116668,2.115653 0,0.402949 0.111297,0.779199 0.3053,1.099097 z"
     id="path24342"
     style="fill:#656565;fill-opacity:1;stroke-width:0.529004"
     sodipodi:nodetypes="ccccsssccccsccccscc" />
  <path
     id="rect35821"
     style="opacity:0.2;fill:#000000;fill-opacity:1;stroke:none;stroke-width:1.05833;stroke-linecap:square;stroke-linejoin:bevel"
     d="m 11.641666,23.283335 c -0.586316,0 -1.058334,0.472018 -1.058334,1.058332 v 6.350001 c 0,0.586315 0.472018,1.058331 1.058334,1.058331 h 2.116665 c 0.586316,0 1.058334,-0.472016 1.058334,-1.058331 v -6.350001 c 0,-0.586314 -0.472018,-1.058332 -1.058334,-1.058332 z m 0,14.816668 c -0.586316,0 -1.058334,0.472018 -1.058334,1.058334 v 6.349997 c 0,0.586318 0.472018,1.058334 1.058334,1.058334 h 2.116665 c 0.586316,0 1.058334,-0.472016 1.058334,-1.058334 v -6.349997 c 0,-0.586316 -0.472018,-1.058334 -1.058334,-1.058334 z"
     sodipodi:nodetypes="ssssssssssssssssss" />
  <path
     id="rect34365"
     style="opacity:1;fill:#ededed;fill-opacity:1;stroke:none;stroke-width:1.05833;stroke-linecap:square;stroke-linejoin:bevel"
     d="m 11.641666,21.166666 c -0.586316,0 -1.058334,0.472016 -1.058334,1.058332 v 6.349999 c 0,0.586316 0.472018,1.058334 1.058334,1.058334 h 2.116665 c 0.586316,0 1.058334,-0.472018 1.058334,-1.058334 v -6.349999 c 0,-0.586316 -0.472018,-1.058332 -1.058334,-1.058332 z m 0,14.816668 c -0.586316,0 -1.058334,0.472017 -1.058334,1.058333 v 6.349999 c 0,0.586316 0.472018,1.058332 1.058334,1.058332 h 2.116665 c 0.586316,0 1.058334,-0.472016 1.058334,-1.058332 v -6.349999 c 0,-0.586316 -0.472018,-1.058333 -1.058334,-1.058333 z"
     sodipodi:nodetypes="ssssssssssssssssss" />
</svg>
