<?xml version="1.0" encoding="UTF-8" standalone="no"?>
<!-- Created with Inkscape (http://www.inkscape.org/) -->

<svg
   width="256"
   height="256"
   viewBox="0 0 67.733332 67.733336"
   version="1.1"
   id="svg1099"
   inkscape:version="1.2.1 (9c6d41e410, 2022-07-14, custom)"
   sodipodi:docname="preferences-system-windows-move.svg"
   xmlns:inkscape="http://www.inkscape.org/namespaces/inkscape"
   xmlns:sodipodi="http://sodipodi.sourceforge.net/DTD/sodipodi-0.dtd"
   xmlns="http://www.w3.org/2000/svg"
   xmlns:svg="http://www.w3.org/2000/svg">
  <sodipodi:namedview
     id="namedview1101"
     pagecolor="#ffffff"
     bordercolor="#666666"
     borderopacity="1.0"
     inkscape:pageshadow="2"
     inkscape:pageopacity="0.0"
     inkscape:pagecheckerboard="0"
     inkscape:document-units="px"
     showgrid="false"
     units="px"
     inkscape:zoom="3.1328125"
     inkscape:cx="128"
     inkscape:cy="128"
     inkscape:window-width="1920"
     inkscape:window-height="1011"
     inkscape:window-x="0"
     inkscape:window-y="0"
     inkscape:window-maximized="1"
     inkscape:current-layer="svg1099"
     inkscape:showpageshadow="2"
     inkscape:deskcolor="#d1d1d1"
     showguides="false" />
  <defs
     id="defs1096" />
  <rect
     style="opacity:1;fill:#245c63;fill-opacity:1;stroke-width:1.05578"
     id="rect1196"
     width="59.266663"
     height="54.768749"
     x="4.2333345"
     y="6.6145835"
     ry="4.2333336" />
  <rect
     style="opacity:1;fill:#48b9c7;fill-opacity:1;stroke-width:0.264583;stroke-linecap:round;stroke-linejoin:round"
     id="rect1062"
     width="58.737499"
     height="52.652084"
     x="4.4979167"
     y="6.8791666"
     ry="3.96875" />
  <path
     id="rect1821"
     style="fill:#3a95a0;fill-opacity:1;stroke-width:2.11666"
     d="m 9.2604168,10.847917 c -0.4397367,0 -0.7937501,0.354013 -0.7937501,0.79375 v 19.05 c 0,0.439737 0.3540134,0.79375 0.7937501,0.79375 H 35.71875 c 0.439737,0 0.79375,-0.354013 0.79375,-0.79375 v -19.05 c 0,-0.439737 -0.354013,-0.79375 -0.79375,-0.79375 z m 32.8083332,3.96875 c -0.439737,0 -0.79375,0.354013 -0.79375,0.79375 V 26.9875 c 0,0.439737 0.354013,0.79375 0.79375,0.79375 h 16.139584 c 0.439737,0 0.79375,-0.354013 0.79375,-0.79375 V 15.610417 c 0,-0.439737 -0.354013,-0.79375 -0.79375,-0.79375 z M 20.6375,35.71875 c -0.439735,0 -0.79375,0.354015 -0.79375,0.79375 v 19.050001 c 0,0.439735 0.354015,0.79375 0.79375,0.79375 h 26.458334 c 0.439735,0 0.79375,-0.354015 0.79375,-0.79375 V 36.5125 c 0,-0.439735 -0.354015,-0.79375 -0.79375,-0.79375 z" />
  <rect
     style="fill:#ededed;fill-opacity:1;stroke-width:2.11666"
     id="rect1503"
     width="28.045834"
     height="20.372917"
     x="8.4666672"
     y="10.847917"
     ry="0.79374999" />
  <rect
     style="fill:#ededed;fill-opacity:1;stroke-width:2.11666"
     id="rect1817"
     width="17.727083"
     height="12.7"
     x="41.275002"
     y="14.816667"
     ry="0.79374999" />
  <path
     d="m 42.068754,14.816667 h 16.13958 c 0.439737,0 0.793749,0.354014 0.793749,0.793751 v 2.381249 H 41.275002 v -2.381249 c 0,-0.439737 0.354015,-0.793751 0.793752,-0.793751 z"
     style="fill:#3d3937;stroke-width:1.5875;fill-opacity:1"
     id="path2099"
     sodipodi:nodetypes="sssccss" />
  <rect
     style="fill:#ededed;fill-opacity:1;stroke-width:2.11666"
     id="rect1819"
     width="28.045834"
     height="20.372917"
     x="19.84375"
     y="35.71875"
     ry="0.79374999" />
  <path
     id="path2127"
     style="fill:#3d3937;stroke-width:2.11666;fill-opacity:1"
     d="m 20.6375,35.71875 c -0.439737,0 -0.79375,0.354013 -0.79375,0.79375 v 4.233334 H 47.889584 V 36.5125 c 0,-0.439737 -0.354013,-0.79375 -0.79375,-0.79375 z" />
  <path
     id="rect594"
     style="opacity:1;fill:#3d3937;fill-opacity:1;stroke-width:0.264583;stroke-linecap:round;stroke-linejoin:round"
     d="m 9.2604168,10.847917 c -0.4397372,0 -0.7937501,0.354013 -0.7937501,0.79375 V 15.875 H 36.5125 v -4.233333 c 0,-0.439737 -0.354013,-0.79375 -0.79375,-0.79375 z" />
</svg>
