<?xml version="1.0" encoding="UTF-8" standalone="no"?>
<!-- Created with Inkscape (http://www.inkscape.org/) -->

<svg
   width="256"
   height="256"
   viewBox="0 0 67.733332 67.733336"
   version="1.1"
   id="svg1099"
   inkscape:version="1.2 (dc2aedaf03, 2022-05-15)"
   sodipodi:docname="preferences-desktop-keyboard.svg"
   xmlns:inkscape="http://www.inkscape.org/namespaces/inkscape"
   xmlns:sodipodi="http://sodipodi.sourceforge.net/DTD/sodipodi-0.dtd"
   xmlns="http://www.w3.org/2000/svg"
   xmlns:svg="http://www.w3.org/2000/svg">
  <sodipodi:namedview
     id="namedview1101"
     pagecolor="#ffffff"
     bordercolor="#666666"
     borderopacity="1.0"
     inkscape:pageshadow="2"
     inkscape:pageopacity="0.0"
     inkscape:pagecheckerboard="0"
     inkscape:document-units="px"
     showgrid="false"
     units="px"
     inkscape:zoom="1.1462864"
     inkscape:cx="-11.34097"
     inkscape:cy="65.428675"
     inkscape:window-width="1846"
     inkscape:window-height="1011"
     inkscape:window-x="0"
     inkscape:window-y="0"
     inkscape:window-maximized="1"
     inkscape:current-layer="svg1099"
     inkscape:showpageshadow="2"
     inkscape:deskcolor="#d1d1d1"
     showguides="false" />
  <defs
     id="defs1096" />
  <rect
     style="opacity:1;fill:#4f4b49;fill-opacity:1;stroke-width:0.529167;stroke-linecap:round"
     id="rect934"
     width="55.033333"
     height="55.033333"
     x="6.3499999"
     y="6.3499999"
     ry="4.3656249" />
  <rect
     style="fill:#d1cbcb;fill-opacity:1;stroke-width:0.529167"
     id="rect873"
     width="54.504166"
     height="53.445835"
     x="6.6145835"
     y="6.6145835"
     ry="4.2333336" />
  <path
     d="m 22.225027,20.108334 c 0,0 -4.23336,0 -4.23336,4.233336 v 16.933332 c 0,4.233336 4.23336,4.233336 4.23336,4.233336 h 23.28332 c 0,0 4.23332,0 4.23332,-4.233336 V 24.34167 c 0,-4.233336 -4.23332,-4.233336 -4.23332,-4.233336 z"
     style="fill:#2b2928;stroke-width:1.05833;filter:url(#filter7554)"
     id="path1138" />
  <path
     id="rect68"
     style="fill:#fdfdfd;fill-opacity:1;stroke-width:2.11666"
     d="m 21.668987,23.283334 c -0.2804,0.014 -0.50232,0.24516 -0.50232,0.529168 v 2.116668 c 0,0.29316 0.236,0.529164 0.5292,0.529164 h 2.11664 c 0.2932,0 0.52916,-0.236 0.52916,-0.529164 v -2.116668 c 0,-0.29316 -0.236,-0.529168 -0.52916,-0.529168 h -2.11664 c -0.008,0 -0.016,-4.56e-4 -0.028,0 z m 5.29164,0 c -0.2804,0.014 -0.50228,0.24516 -0.50228,0.529168 v 2.116668 c 0,0.29316 0.236,0.529164 0.52916,0.529164 h 2.11668 c 0.2932,0 0.52916,-0.236 0.52916,-0.529164 v -2.116668 c 0,-0.29316 -0.236,-0.529168 -0.52916,-0.529168 h -2.11668 c -0.008,0 -0.016,-4.56e-4 -0.028,0 z m 5.29168,0 c -0.2804,0.014 -0.50228,0.24516 -0.50228,0.529168 v 2.116668 c 0,0.29316 0.236,0.529164 0.52916,0.529164 h 2.11668 c 0.2932,0 0.52916,-0.236 0.52916,-0.529164 v -2.116668 c 0,-0.29316 -0.236,-0.529168 -0.52916,-0.529168 h -2.11668 c -0.008,0 -0.016,-4.56e-4 -0.028,0 z m 5.29168,0 c -0.2804,0.014 -0.50232,0.24516 -0.50232,0.529168 v 2.116668 c 0,0.29316 0.236,0.529164 0.5292,0.529164 h 2.11664 c 0.2932,0 0.52916,-0.236 0.52916,-0.529164 v -2.116668 c 0,-0.29316 -0.236,-0.529168 -0.52916,-0.529168 h -2.11664 c -0.008,0 -0.016,-4.56e-4 -0.028,0 z m 5.29164,0 c -0.2804,0.014 -0.50228,0.24516 -0.50228,0.529168 v 2.116668 c 0,0.29316 0.236,0.529164 0.52916,0.529164 h 3.175 c 0.2932,0 0.52916,-0.236 0.52916,-0.529164 v -2.116668 c 0,-0.29316 -0.236,-0.529168 -0.52916,-0.529168 h -3.175 c -0.008,0 -0.02,-4.56e-4 -0.028,0 z m -21.16664,5.291668 c -0.2804,0.014 -0.50232,0.24516 -0.50232,0.529168 v 2.116664 c 0,0.29316 0.236,0.529164 0.5292,0.529164 h 3.175 c 0.2932,0 0.52916,-0.236 0.52916,-0.529164 V 29.10417 c 0,-0.29316 -0.236,-0.529168 -0.52916,-0.529168 h -3.175 c -0.008,0 -0.016,-4.56e-4 -0.028,0 z m 6.35,0 c -0.2804,0.014 -0.50232,0.24516 -0.50232,0.529168 v 2.116664 c 0,0.29316 0.236,0.529164 0.5292,0.529164 h 2.11664 c 0.2932,0 0.52916,-0.236 0.52916,-0.529164 V 29.10417 c 0,-0.29316 -0.236,-0.529168 -0.52916,-0.529168 h -2.11664 c -0.008,0 -0.016,-4.56e-4 -0.028,0 z m 5.29164,0 c -0.2804,0.014 -0.50228,0.24516 -0.50228,0.529168 v 2.116664 c 0,0.29316 0.236,0.529164 0.52916,0.529164 h 2.11668 c 0.2932,0 0.52916,-0.236 0.52916,-0.529164 V 29.10417 c 0,-0.29316 -0.236,-0.529168 -0.52916,-0.529168 h -2.11668 c -0.008,0 -0.016,-4.56e-4 -0.028,0 z m 5.29168,0 c -0.2804,0.014 -0.50228,0.24516 -0.50228,0.529168 v 2.116664 c 0,0.29316 0.236,0.529164 0.52916,0.529164 h 2.11668 c 0.2932,0 0.52916,-0.236 0.52916,-0.529164 V 29.10417 c 0,-0.29316 -0.236,-0.529168 -0.52916,-0.529168 h -2.11668 c -0.008,0 -0.016,-4.56e-4 -0.028,0 z m 5.29168,0 c -0.2804,0.014 -0.50232,0.24516 -0.50232,0.529168 v 2.116664 c 0,0.29316 0.236,0.529164 0.5292,0.529164 h 2.11664 c 0.2932,0 0.52916,-0.236 0.52916,-0.529164 V 29.10417 c 0,-0.29316 -0.236,-0.529168 -0.52916,-0.529168 h -2.11664 c -0.008,0 -0.02,-4.56e-4 -0.028,0 z m -22.19812,5.291664 c -0.2932,0 -0.5292,0.236 -0.5292,0.529168 v 2.116664 c 0,0.29316 0.236,0.529168 0.5292,0.529168 h 5.29164 c 0.2932,0 0.52916,-0.236 0.52916,-0.529168 v -2.116664 c 0,-0.29316 -0.236,-0.529168 -0.52916,-0.529168 z m 8.43976,0 c -0.2804,0.014 -0.50228,0.24516 -0.50228,0.529168 v 2.116664 c 0,0.29316 0.236,0.529168 0.52916,0.529168 h 2.11668 c 0.2932,0 0.52916,-0.236 0.52916,-0.529168 v -2.116664 c 0,-0.29316 -0.236,-0.529168 -0.52916,-0.529168 h -2.11668 c -0.008,0 -0.016,-4.56e-4 -0.028,0 z m 5.29168,0 c -0.2804,0.014 -0.50228,0.24516 -0.50228,0.529168 v 2.116664 c 0,0.29316 0.236,0.529168 0.52916,0.529168 h 2.11668 c 0.2932,0 0.52916,-0.236 0.52916,-0.529168 v -2.116664 c 0,-0.29316 -0.236,-0.529168 -0.52916,-0.529168 h -2.11668 c -0.008,0 -0.016,-4.56e-4 -0.028,0 z m 5.31856,0 c -0.2932,0 -0.5292,0.236 -0.5292,0.529168 v 2.116664 c 0,0.29316 0.236,0.529168 0.5292,0.529168 h 5.29164 c 0.2932,0 0.52916,-0.236 0.52916,-0.529168 v -2.116664 c 0,-0.29316 -0.236,-0.529168 -0.52916,-0.529168 z m -13.75836,5.291668 c -0.2932,0 -0.52916,0.236 -0.52916,0.529164 v 2.116668 c 0,0.29316 0.236,0.529172 0.52916,0.529172 h 13.75836 c 0.2932,0 0.52916,-0.236 0.52916,-0.529172 v -2.116668 c 0,-0.29316 -0.236,-0.529164 -0.52916,-0.529164 z" />
</svg>
