<?xml version="1.0" encoding="UTF-8" standalone="no"?>
<!-- Created with Inkscape (http://www.inkscape.org/) -->

<svg
   width="256"
   height="256"
   viewBox="0 0 67.733332 67.733336"
   version="1.1"
   id="svg1099"
   inkscape:version="1.2 (dc2aedaf03, 2022-05-15)"
   sodipodi:docname="preferences-desktop-emoticons.svg"
   xmlns:inkscape="http://www.inkscape.org/namespaces/inkscape"
   xmlns:sodipodi="http://sodipodi.sourceforge.net/DTD/sodipodi-0.dtd"
   xmlns="http://www.w3.org/2000/svg"
   xmlns:svg="http://www.w3.org/2000/svg">
  <sodipodi:namedview
     id="namedview1101"
     pagecolor="#ffffff"
     bordercolor="#666666"
     borderopacity="1.0"
     inkscape:pageshadow="2"
     inkscape:pageopacity="0.0"
     inkscape:pagecheckerboard="0"
     inkscape:document-units="px"
     showgrid="false"
     units="px"
     inkscape:zoom="2.8284271"
     inkscape:cx="156.44738"
     inkscape:cy="200.288"
     inkscape:window-width="1846"
     inkscape:window-height="1011"
     inkscape:window-x="0"
     inkscape:window-y="0"
     inkscape:window-maximized="1"
     inkscape:current-layer="svg1099"
     inkscape:showpageshadow="2"
     inkscape:deskcolor="#d1d1d1" />
  <defs
     id="defs1096" />
  <rect
     style="opacity:1;fill:#7f6728;fill-opacity:1;stroke-width:1.05833"
     id="rect1196"
     width="63.5"
     height="64.558334"
     x="2.1166668"
     y="2.1166668"
     ry="31.75" />
  <circle
     style="opacity:1;fill:#ffce51;fill-opacity:1;stroke-width:1.12448"
     id="path1427"
     cx="33.866669"
     cy="33.866669"
     r="31.485416" />
  <path
     d="m 23.283332,19.05 c -2.338004,0 -4.233332,1.895328 -4.233332,4.233332 0,2.338006 1.895328,4.233334 4.233332,4.233334 2.338006,0 4.233334,-1.895328 4.233334,-4.233334 0,-2.338004 -1.895328,-4.233332 -4.233334,-4.233332 z m 21.16667,0 c -2.338004,0 -4.233332,1.895328 -4.233332,4.233332 0,2.338006 1.895328,4.233334 4.233332,4.233334 2.338005,0 4.233333,-1.895328 4.233333,-4.233334 0,-2.338004 -1.895328,-4.233332 -4.233333,-4.233332 z M 22.605344,40.851243 c 2.325842,4.83515 6.623436,7.815499 11.275802,7.819691 4.647926,-0.0096 8.939756,-2.989149 11.263376,-7.819691 H 43.56117 c -2.46436,3.30678 -5.9832,5.201838 -9.680024,5.213142 -3.698996,-0.0092 -7.220438,-1.90443 -9.68625,-5.213142 z"
     id="path548"
     style="fill:#7f6728;fill-opacity:1;stroke-width:1.05833" />
</svg>
