<?xml version="1.0" encoding="UTF-8" standalone="no"?>
<!-- Created with Inkscape (http://www.inkscape.org/) -->

<svg
   width="256"
   height="256"
   viewBox="0 0 67.733332 67.733336"
   version="1.1"
   id="svg1099"
   inkscape:version="1.2 (dc2aedaf03, 2022-05-15)"
   sodipodi:docname="preferences-desktop-locale.svg"
   xmlns:inkscape="http://www.inkscape.org/namespaces/inkscape"
   xmlns:sodipodi="http://sodipodi.sourceforge.net/DTD/sodipodi-0.dtd"
   xmlns="http://www.w3.org/2000/svg"
   xmlns:svg="http://www.w3.org/2000/svg">
  <sodipodi:namedview
     id="namedview1101"
     pagecolor="#ffffff"
     bordercolor="#666666"
     borderopacity="1.0"
     inkscape:pageshadow="2"
     inkscape:pageopacity="0.0"
     inkscape:pagecheckerboard="0"
     inkscape:document-units="px"
     showgrid="false"
     units="px"
     inkscape:zoom="1"
     inkscape:cx="128"
     inkscape:cy="128"
     inkscape:window-width="1846"
     inkscape:window-height="1011"
     inkscape:window-x="0"
     inkscape:window-y="0"
     inkscape:window-maximized="1"
     inkscape:current-layer="svg1099"
     inkscape:showpageshadow="2"
     inkscape:deskcolor="#d1d1d1"
     showguides="false" />
  <defs
     id="defs1096" />
  <rect
     style="opacity:1;fill:#7b736e;fill-opacity:1;stroke-width:0.529167;stroke-linecap:round"
     id="rect934"
     width="55.033333"
     height="55.033333"
     x="6.3499999"
     y="6.3499999"
     ry="4.3656249" />
  <path
     id="rect1388"
     style="opacity:0.5;fill:#000000;stroke-width:0.529167;stroke-linejoin:bevel"
     d="M 10.715625 6.3500001 C 8.2970713 6.3500001 6.3500001 8.2970713 6.3500001 10.715625 L 6.3500001 57.017709 C 6.3500001 59.436263 8.2970713 61.383334 10.715625 61.383334 L 57.017709 61.383334 C 59.436263 61.383334 61.383334 59.436263 61.383334 57.017709 L 61.383334 10.715625 C 61.383334 8.2970713 59.436263 6.3500001 57.017709 6.3500001 L 10.715625 6.3500001 z M 10.847917 6.6145834 L 56.885417 6.6145834 C 59.230682 6.6145834 61.118751 8.5026523 61.118751 10.847917 L 61.118751 55.827084 C 61.118751 58.172348 59.230682 60.060417 56.885417 60.060417 L 10.847917 60.060417 C 8.5026523 60.060417 6.6145834 58.172348 6.6145834 55.827084 L 6.6145834 10.847917 C 6.6145834 8.5026523 8.5026523 6.6145834 10.847917 6.6145834 z " />
  <path
     d="m 24.341667,28.574999 c -3.175,0 -3.175,3.175 -3.175,3.175 v 11.641668 c 0,3.119968 3.175,3.175 3.175,3.175 h 14.816664 v -6.35 h -4.5974 c -0.016,0.23072 -0.038,0.4699 -0.04976,0.694268 h 0.695324 v 0.793748 h -0.793728 c -0.12808,1.121832 -0.570444,1.686984 -1.339852,1.686984 -0.2834,-0.0104 -0.565488,-0.0436 -0.843492,-0.09948 l -0.14816,-0.793752 c 0.416984,0.06352 0.767292,0.09948 0.99166,0.09948 0.22436,0 0.33232,-0.3154 0.39688,-0.893236 h -3.7211 c 0.0688,-0.463548 0.10052,-0.9906 0.14816,-1.488016 h -1.090084 c -0.36752,1.089872 -0.850012,2.137536 -1.439332,3.125256 l -0.793752,-0.645576 c 0.50694,-0.81386 0.933452,-1.629836 1.290108,-2.479676 h -0.34712 v -3.820584 c -0.036,-0.0284 -0.06352,-0.07092 -0.09948,-0.09844 l 0.09948,-0.09948 v -2.827856 c -0.036,-0.0284 -0.06352,-0.07092 -0.09948,-0.09844 l 0.09948,-0.09948 v -4.5974 z m 0.14816,4.845052 h 2.530472 v 7.590364 h -0.843492 v -0.843488 h -0.842432 v 1.240364 h -0.843492 z m 0.843488,0.843488 v 5.109636 h 0.843492 v -5.109636 z m 5.507568,5.953128 c -0.0316,0.22756 -0.0656,0.480484 -0.09948,0.694268 h 2.827868 c 0.0212,-0.23496 0.0296,-0.460376 0.04868,-0.694268 h -0.744008 l -0.34712,0.446616 c -0.1524,-0.1672 -0.32808,-0.2942 -0.49636,-0.446616 z"
     style="opacity:0.5;fill:#ffffff;stroke-width:1.05833"
     id="path1423" />
  <path
     d="m 28.574999,21.166667 v 17.991664 h 14.816668 c 0,0 3.175,0 3.175,-3.175 V 24.341667 c 0,0 0,-3.175 -3.175,-3.175 z m 7.245032,3.697964 h 2.976564 l 3.472656,11.1125 h -2.629292 l -0.545708,-2.116668 h -3.681424 l -0.535368,2.116668 h -2.530084 z m 1.389064,1.885156 -1.2609,4.994012 h 2.598296 l -1.28778,-4.994012 z"
     id="path1395"
     style="fill:#ffffff;stroke-width:1.05833" />
</svg>
