<?xml version="1.0" encoding="UTF-8" standalone="no"?>
<!-- Created with Inkscape (http://www.inkscape.org/) -->

<svg
   width="256"
   height="256"
   viewBox="0 0 67.733332 67.733336"
   version="1.1"
   id="svg1099"
   inkscape:version="1.2 (dc2aedaf03, 2022-05-15)"
   sodipodi:docname="session-properties.svg"
   xmlns:inkscape="http://www.inkscape.org/namespaces/inkscape"
   xmlns:sodipodi="http://sodipodi.sourceforge.net/DTD/sodipodi-0.dtd"
   xmlns="http://www.w3.org/2000/svg"
   xmlns:svg="http://www.w3.org/2000/svg">
  <sodipodi:namedview
     id="namedview1101"
     pagecolor="#ffffff"
     bordercolor="#666666"
     borderopacity="1.0"
     inkscape:pageshadow="2"
     inkscape:pageopacity="0.0"
     inkscape:pagecheckerboard="0"
     inkscape:document-units="px"
     showgrid="false"
     units="px"
     inkscape:zoom="3.1796875"
     inkscape:cx="128"
     inkscape:cy="128"
     inkscape:window-width="1846"
     inkscape:window-height="1011"
     inkscape:window-x="0"
     inkscape:window-y="0"
     inkscape:window-maximized="1"
     inkscape:current-layer="svg1099"
     inkscape:showpageshadow="2"
     inkscape:deskcolor="#d1d1d1"
     showguides="false" />
  <defs
     id="defs1096" />
  <rect
     style="opacity:1;fill:#48b9c7;fill-opacity:1;stroke-width:0.529167;stroke-linecap:round"
     id="rect934"
     width="55.033333"
     height="55.033333"
     x="6.3499999"
     y="6.3499999"
     ry="4.3656249" />
  <path
     id="rect1388"
     style="opacity:0.5;fill:#000000;stroke-width:0.529167;stroke-linejoin:bevel"
     d="M 10.715625 6.3500001 C 8.2970713 6.3500001 6.3500001 8.2970713 6.3500001 10.715625 L 6.3500001 57.017709 C 6.3500001 59.436263 8.2970713 61.383334 10.715625 61.383334 L 57.017709 61.383334 C 59.436263 61.383334 61.383334 59.436263 61.383334 57.017709 L 61.383334 10.715625 C 61.383334 8.2970713 59.436263 6.3500001 57.017709 6.3500001 L 10.715625 6.3500001 z M 10.847917 6.6145834 L 56.885417 6.6145834 C 59.230682 6.6145834 61.118751 8.5026523 61.118751 10.847917 L 61.118751 55.827084 C 61.118751 58.172348 59.230682 60.060417 56.885417 60.060417 L 10.847917 60.060417 C 8.5026523 60.060417 6.6145834 58.172348 6.6145834 55.827084 L 6.6145834 10.847917 C 6.6145834 8.5026523 8.5026523 6.6145834 10.847917 6.6145834 z " />
  <path
     d="m 24.341668,23.283334 c -1.172636,0 -2.116668,0.944036 -2.116668,2.116668 v 9.525001 c 0,1.172632 0.944032,2.116668 2.116668,2.116668 h 12.700001 c 1.172632,0 2.116664,-0.944036 2.116664,-2.116668 v -9.525001 c 0,-1.172632 -0.944032,-2.116668 -2.116664,-2.116668 z m 0,2.116668 h 12.700001 v 9.525001 H 24.341668 Z"
     style="fill:#ffffff;stroke-width:1.11559;stroke-linecap:square;paint-order:fill markers stroke"
     id="path43230"
     sodipodi:nodetypes="sssssssssccccc" />
  <path
     d="m 40.216665,30.69167 v 2.116665 h 3.175 v 9.525 H 30.691669 V 38.100003 H 28.575 v 4.233332 c 0,1.172636 0.944032,2.116668 2.116669,2.116668 h 12.699996 c 1.172636,0 2.116669,-0.944032 2.116669,-2.116668 v -9.525 c 0,-1.172632 -0.944033,-2.116665 -2.116669,-2.116665 z"
     style="opacity:0.7;fill:#ffffff;stroke-width:1.11559;stroke-linecap:square;paint-order:fill markers stroke"
     id="path43258"
     sodipodi:nodetypes="cccccccssssssc" />
</svg>
