<?xml version="1.0" encoding="UTF-8" standalone="no"?>
<!-- Created with Inkscape (http://www.inkscape.org/) -->

<svg
   width="256"
   height="256"
   viewBox="0 0 67.733332 67.733336"
   version="1.1"
   id="svg1099"
   inkscape:version="1.2 (dc2aedaf03, 2022-05-15)"
   sodipodi:docname="system-os-installer.svg"
   xmlns:inkscape="http://www.inkscape.org/namespaces/inkscape"
   xmlns:sodipodi="http://sodipodi.sourceforge.net/DTD/sodipodi-0.dtd"
   xmlns="http://www.w3.org/2000/svg"
   xmlns:svg="http://www.w3.org/2000/svg">
  <sodipodi:namedview
     id="namedview1101"
     pagecolor="#ffffff"
     bordercolor="#666666"
     borderopacity="1.0"
     inkscape:pageshadow="2"
     inkscape:pageopacity="0.0"
     inkscape:pagecheckerboard="0"
     inkscape:document-units="px"
     showgrid="false"
     units="px"
     inkscape:zoom="2.2925728"
     inkscape:cx="64.556292"
     inkscape:cy="111.22875"
     inkscape:window-width="1920"
     inkscape:window-height="1011"
     inkscape:window-x="0"
     inkscape:window-y="0"
     inkscape:window-maximized="1"
     inkscape:current-layer="svg1099"
     inkscape:showpageshadow="2"
     inkscape:deskcolor="#d1d1d1"
     showguides="false" />
  <defs
     id="defs1096" />
  <rect
     style="fill:#565656;fill-opacity:1;stroke-width:0.529167"
     id="rect873"
     width="47.095833"
     height="60.854168"
     x="10.31875"
     y="3.4395831"
     ry="2.2489583" />
  <rect
     style="fill:#acacac;fill-opacity:1;stroke-width:0.264583"
     id="rect4469"
     width="46.566666"
     height="59.266666"
     x="10.583333"
     y="3.7041667"
     ry="2.1166668" />
  <path
     d="M 33.866667,12.7 C 25.683647,12.7 19.05,19.333648 19.05,27.516667 v 12.7 c 0,1.172634 0.944033,2.116667 2.116667,2.116667 h 12.7 c 8.18302,0 14.816667,-6.633647 14.816667,-14.816667 C 48.683334,19.333648 42.049687,12.7 33.866667,12.7 Z"
     id="path1716"
     style="stroke-width:0.264583;fill:#424242;fill-opacity:1" />
  <circle
     style="fill:#acacac;fill-opacity:1;stroke-width:0.264583"
     id="path7427"
     cx="33.866669"
     cy="27.516666"
     r="7.4083333" />
  <rect
     style="fill:#245c63;fill-opacity:1;stroke-width:0.264583"
     id="rect9245"
     width="29.633333"
     height="30.691668"
     x="38.100002"
     y="37.041664"
     ry="14.816667" />
  <circle
     style="fill:#48b9c7;fill-opacity:1;stroke-width:0.264583"
     id="path11115"
     cx="52.916672"
     cy="51.858334"
     r="14.552083" />
  <path
     id="path1283"
     style="stroke-width:0.264583;fill:#ffffff"
     d="m 50.8,43.127084 v 6.35 h -2.645833 l 4.762499,7.408333 4.7625,-7.408333 h -2.645833 v -6.35 z M 47.625,57.94375 c -0.586317,0 -1.058333,0.472018 -1.058333,1.058333 0,0.586316 0.472016,1.058334 1.058333,1.058334 h 10.583333 c 0.586317,0 1.058333,-0.472018 1.058333,-1.058334 0,-0.586315 -0.472016,-1.058333 -1.058333,-1.058333 z" />
</svg>
