<?xml version="1.0" encoding="UTF-8" standalone="no"?>
<!-- Created with Inkscape (http://www.inkscape.org/) -->

<svg
   width="256"
   height="256"
   viewBox="0 0 67.733332 67.733336"
   version="1.1"
   id="svg1099"
   inkscape:version="1.2 (dc2aedaf03, 2022-05-15)"
   sodipodi:docname="telegram.svg"
   xmlns:inkscape="http://www.inkscape.org/namespaces/inkscape"
   xmlns:sodipodi="http://sodipodi.sourceforge.net/DTD/sodipodi-0.dtd"
   xmlns="http://www.w3.org/2000/svg"
   xmlns:svg="http://www.w3.org/2000/svg">
  <sodipodi:namedview
     id="namedview1101"
     pagecolor="#ffffff"
     bordercolor="#666666"
     borderopacity="1.0"
     inkscape:pageshadow="2"
     inkscape:pageopacity="0.0"
     inkscape:pagecheckerboard="0"
     inkscape:document-units="px"
     showgrid="false"
     units="px"
     inkscape:zoom="2.215233"
     inkscape:cx="52.816115"
     inkscape:cy="82.1584"
     inkscape:window-width="1846"
     inkscape:window-height="1015"
     inkscape:window-x="0"
     inkscape:window-y="0"
     inkscape:window-maximized="1"
     inkscape:current-layer="svg1099"
     inkscape:showpageshadow="2"
     inkscape:deskcolor="#d1d1d1" />
  <defs
     id="defs1096" />
  <rect
     style="opacity:1;fill:#145271;fill-opacity:1;stroke-width:1.05833"
     id="rect1196"
     width="63.5"
     height="64.558334"
     x="2.1166668"
     y="2.1166668"
     ry="31.75" />
  <circle
     style="opacity:1;fill:#28a4e2;fill-opacity:1;stroke-width:1.12448"
     id="path1427"
     cx="33.866669"
     cy="33.866669"
     r="31.485416" />
  <path
     d="m 46.420397,48.716549 c 0.570409,-1.093008 3.848009,-19.782275 4.316557,-24.613491 0.506896,-4.787323 -2.136108,-3.897081 -4.568093,-3.088351 -5.966604,1.991 -24.831109,10.061298 -29.994692,12.724808 -1.271224,0.520936 -1.820702,1.404808 -0.895734,2.16982 0.796394,0.64844 3.710562,1.539053 6.060763,1.991019 2.003442,0.59981 3.559624,0.02528 4.99611,-0.77549 3.452153,-2.022677 13.738781,-8.455482 14.292729,-8.81405 0.553948,-0.358568 1.160232,0.30688 0.850208,0.629024 -0.31004,0.322144 -7.595183,6.778503 -9.987064,9.697636 -1.267184,1.60507 -1.229228,2.46199 0.07254,3.474134 2.920407,2.263125 10.723144,7.422461 11.88416,7.734309 1.480476,0.39764 2.347544,0.06824 2.972528,-1.129368 z"
     style="opacity:0.2;fill:#000000;stroke-width:1.05833"
     id="path2237" />
  <path
     d="M 46.420396,48.451966 C 46.990804,47.358958 50.268405,28.669689 50.736953,23.838473 51.243849,19.05115 48.600845,19.941394 46.16886,20.750124 40.202256,22.741123 21.337753,30.81142 16.174168,33.47493 c -1.271224,0.520938 -1.8207,1.40481 -0.895734,2.169822 0.796394,0.64844 3.710563,1.539051 6.060765,1.991017 2.003442,0.59981 3.559625,0.02528 4.996109,-0.775489 3.452152,-2.022678 13.73878,-8.455483 14.292728,-8.814051 0.553948,-0.358568 1.160232,0.30688 0.850208,0.629024 -0.31004,0.322144 -7.595181,6.778503 -9.987064,9.697636 -1.267182,1.60507 -1.229226,2.461992 0.07254,3.474136 2.920409,2.263124 10.723144,7.422461 11.88416,7.734309 1.480476,0.39764 2.347544,0.06824 2.972528,-1.129368 z"
     style="fill:#ffffff;stroke-width:1.05833"
     id="path304"
     sodipodi:nodetypes="cccccccscccccc" />
</svg>
