<?xml version="1.0" encoding="UTF-8" standalone="no"?>
<!-- Created with Inkscape (http://www.inkscape.org/) -->

<svg
   width="256"
   height="256"
   viewBox="0 0 67.733332 67.733336"
   version="1.1"
   id="svg1099"
   inkscape:version="1.2 (dc2aedaf03, 2022-05-15)"
   sodipodi:docname="weather.svg"
   xmlns:inkscape="http://www.inkscape.org/namespaces/inkscape"
   xmlns:sodipodi="http://sodipodi.sourceforge.net/DTD/sodipodi-0.dtd"
   xmlns="http://www.w3.org/2000/svg"
   xmlns:svg="http://www.w3.org/2000/svg">
  <sodipodi:namedview
     id="namedview1101"
     pagecolor="#ffffff"
     bordercolor="#666666"
     borderopacity="1.0"
     inkscape:pageshadow="2"
     inkscape:pageopacity="0.0"
     inkscape:pagecheckerboard="0"
     inkscape:document-units="px"
     showgrid="false"
     units="px"
     inkscape:zoom="3.1328126"
     inkscape:cx="71.022443"
     inkscape:cy="177.47631"
     inkscape:window-width="1920"
     inkscape:window-height="1016"
     inkscape:window-x="0"
     inkscape:window-y="0"
     inkscape:window-maximized="1"
     inkscape:current-layer="svg1099"
     inkscape:showpageshadow="2"
     inkscape:deskcolor="#d1d1d1" />
  <defs
     id="defs1096" />
  <circle
     style="opacity:1;fill:#ffce51;fill-opacity:1;stroke-width:0.982739"
     id="path1427"
     cx="33.866665"
     cy="33.866665"
     r="27.516666" />
  <path
     d="m 33.866667,6.3500001 c -15.244233,0 -27.5166669,12.2724339 -27.5166669,27.5166679 0,15.244233 12.2724339,27.516667 27.5166669,27.516667 15.244234,0 27.516668,-12.272434 27.516668,-27.516667 0,-15.244234 -12.272434,-27.5166679 -27.516668,-27.5166679 z m 0,0.264583 c 15.097655,0 27.252084,12.1544299 27.252084,27.2520849 0,15.097654 -12.154429,27.252084 -27.252084,27.252084 -15.097654,0 -27.2520839,-12.15443 -27.2520839,-27.252084 0,-15.097655 12.1544299,-27.2520849 27.2520839,-27.2520849 z"
     style="fill-opacity:1;stroke-width:0.264583;fill:#000000;opacity:0.4"
     id="path358" />
  <path
     d="m 44.450001,31.75 c -5.280655,0.01445 -10.001377,3.295057 -11.856125,8.239289 -1.543431,-2.489957 -4.264358,-4.005122 -7.193875,-4.005956 -4.676011,0 -8.466667,3.790657 -8.466667,8.466667 0.0049,0.09019 0.01131,0.180285 0.01912,0.270267 -3.667493,0.929957 -6.369121,4.231759 -6.369121,8.1964 0,4.690528 3.776138,8.466667 8.466666,8.466667 h 33.866668 c 4.690528,0 8.466667,-3.776139 8.466667,-8.466667 0,-3.177035 -1.735315,-5.930112 -4.310849,-7.378877 0.0414,-0.361321 0.06727,-0.72425 0.07752,-1.08779 0,-7.014017 -5.685983,-12.7 -12.7,-12.7 z"
     style="fill:#ffffff;fill-opacity:1;stroke-width:0.264583"
     id="path2624" />
  <path
     d="m 44.46282,31.764981 c -5.281554,0.0068 -10.00764,3.281595 -11.868944,8.224308 -1.544637,-2.48035 -4.259064,-3.988932 -7.181056,-3.990975 -4.676011,0 -8.466667,3.790657 -8.466667,8.466667 0.0017,0.08753 0.0048,0.17503 0.0093,0.262467 -3.748152,0.956164 -6.367955,4.336021 -6.35926,8.2042 0,4.690533 3.776133,8.466667 8.466667,8.466667 h 33.866667 c 4.690534,0 8.466667,-3.776134 8.466667,-8.466667 0,-3.168386 -1.72429,-5.917671 -4.288102,-7.369704 0.03407,-0.364694 0.05234,-0.73069 0.05477,-1.096963 0,-7.014017 -5.685984,-12.7 -12.700001,-12.7 z m 0,0.264583 c 6.889221,0 12.435417,5.546196 12.435417,12.435417 0,0.449792 -0.02513,0.893498 -0.07144,1.330854 2.495169,1.353323 4.046643,3.966544 4.040187,6.805084 0.0092,4.27799 -3.461073,7.748307 -7.739062,7.739062 h -34.26354 c -4.277989,0.0092 -7.748307,-3.461072 -7.739063,-7.739062 -0.008,-3.648536 2.539127,-6.804623 6.107113,-7.567084 -0.01368,-0.189317 -0.02092,-0.379045 -0.0217,-0.568854 0,-4.543954 3.658129,-8.202084 8.202084,-8.202084 3.023227,-0.007 5.803955,1.653609 7.231592,4.31853 1.624541,-4.975225 6.287029,-8.551863 11.818408,-8.551863 z"
     style="fill-opacity:1;stroke-width:0.264583;fill:#000000;opacity:0.4"
     id="path5575" />
</svg>
