<?xml version="1.0" encoding="UTF-8" standalone="no"?>
<!-- Created with Inkscape (http://www.inkscape.org/) -->

<svg
   width="256"
   height="256"
   viewBox="0 0 67.733332 67.733336"
   version="1.1"
   id="svg1099"
   inkscape:version="1.2 (dc2aedaf03, 2022-05-15)"
   sodipodi:docname="wingpanel.svg"
   xmlns:inkscape="http://www.inkscape.org/namespaces/inkscape"
   xmlns:sodipodi="http://sodipodi.sourceforge.net/DTD/sodipodi-0.dtd"
   xmlns="http://www.w3.org/2000/svg"
   xmlns:svg="http://www.w3.org/2000/svg">
  <sodipodi:namedview
     id="namedview1101"
     pagecolor="#ffffff"
     bordercolor="#666666"
     borderopacity="1.0"
     inkscape:pageshadow="2"
     inkscape:pageopacity="0.0"
     inkscape:pagecheckerboard="0"
     inkscape:document-units="px"
     showgrid="false"
     units="px"
     inkscape:zoom="2"
     inkscape:cx="177"
     inkscape:cy="204.5"
     inkscape:window-width="1846"
     inkscape:window-height="1011"
     inkscape:window-x="0"
     inkscape:window-y="0"
     inkscape:window-maximized="1"
     inkscape:current-layer="svg1099"
     inkscape:showpageshadow="2"
     inkscape:deskcolor="#d1d1d1"
     showguides="false" />
  <defs
     id="defs1096" />
  <rect
     style="fill:#48b9c7;fill-opacity:1;stroke-width:0.529167"
     id="rect873"
     width="59.266666"
     height="46.566666"
     x="4.2333336"
     y="14.816667"
     ry="4.2333336" />
  <path
     id="rect1231"
     style="fill:#232323;stroke-width:2.11666"
     d="m 8.466664,14.816667 c -2.345264,0 -4.233332,1.888068 -4.233332,4.233334 v 6.879167 h 59.266667 v -6.879167 c 0,-2.345266 -1.888068,-4.233334 -4.233332,-4.233334 z"
     sodipodi:nodetypes="ssccsss" />
  <path
     d="m 8.466665,14.816667 c -2.345267,0 -4.233334,1.888067 -4.233334,4.233333 v 38.100001 c 0,2.345267 1.888067,4.233334 4.233334,4.233334 h 50.800001 c 2.345267,0 4.233334,-1.888067 4.233334,-4.233334 V 19.05 c 0,-2.345266 -1.888067,-4.233333 -4.233334,-4.233333 z m 0.132292,0.264583 h 50.535417 c 2.271978,0 4.101042,1.829065 4.101042,4.101042 v 36.777084 c 0,2.271977 -1.829064,4.101042 -4.101042,4.101042 H 8.598957 c -2.271978,0 -4.101042,-1.829065 -4.101042,-4.101042 V 19.182292 c 0,-2.271977 1.829064,-4.101042 4.101042,-4.101042 z"
     style="fill:#000000;stroke-width:0.264583;opacity:0.5"
     id="path7677" />
</svg>
