<?xml version="1.0" encoding="UTF-8" standalone="no"?>
<!-- Created with Inkscape (http://www.inkscape.org/) -->

<svg
   width="256"
   height="256"
   viewBox="0 0 67.733332 67.733336"
   version="1.1"
   id="svg1099"
   inkscape:version="1.2 (dc2aedaf03, 2022-05-15)"
   sodipodi:docname="youtube.svg"
   xmlns:inkscape="http://www.inkscape.org/namespaces/inkscape"
   xmlns:sodipodi="http://sodipodi.sourceforge.net/DTD/sodipodi-0.dtd"
   xmlns="http://www.w3.org/2000/svg"
   xmlns:svg="http://www.w3.org/2000/svg">
  <sodipodi:namedview
     id="namedview1101"
     pagecolor="#ffffff"
     bordercolor="#666666"
     borderopacity="1.0"
     inkscape:pageshadow="2"
     inkscape:pageopacity="0.0"
     inkscape:pagecheckerboard="0"
     inkscape:document-units="px"
     showgrid="false"
     units="px"
     inkscape:zoom="1"
     inkscape:cx="105.5"
     inkscape:cy="126"
     inkscape:window-width="1920"
     inkscape:window-height="1011"
     inkscape:window-x="0"
     inkscape:window-y="0"
     inkscape:window-maximized="1"
     inkscape:current-layer="svg1099"
     inkscape:showpageshadow="2"
     inkscape:deskcolor="#d1d1d1"
     showguides="false" />
  <defs
     id="defs1096" />
  <rect
     style="opacity:1;fill:#cf3b00;fill-opacity:1;stroke-width:0.529167;stroke-linecap:round"
     id="rect934"
     width="55.033333"
     height="55.033333"
     x="6.3499999"
     y="6.3499999"
     ry="4.3656249" />
  <path
     id="rect1973"
     style="opacity:0.5;fill:#000000;stroke-width:0.264583"
     d="M 10.715625 6.3500001 C 8.2970713 6.3500001 6.3500001 8.2970713 6.3500001 10.715625 L 6.3500001 57.017709 C 6.3500001 59.436263 8.2970713 61.383334 10.715625 61.383334 L 57.017709 61.383334 C 59.436263 61.383334 61.383334 59.436263 61.383334 57.017709 L 61.383334 10.715625 C 61.383334 8.2970713 59.436263 6.3500001 57.017709 6.3500001 L 10.715625 6.3500001 z M 10.847917 6.6145834 L 56.885417 6.6145834 C 59.230682 6.6145834 61.118751 8.5026523 61.118751 10.847917 L 61.118751 55.827084 C 61.118751 58.172348 59.230682 60.060417 56.885417 60.060417 L 10.847917 60.060417 C 8.5026523 60.060417 6.6145834 58.172348 6.6145834 55.827084 L 6.6145834 10.847917 C 6.6145834 8.5026523 8.5026523 6.6145834 10.847917 6.6145834 z " />
  <path
     id="path11557"
     style="fill:#ffffff;stroke-width:0.451671"
     d="m 33.867888,24.870834 c -4.550292,0 -8.779212,0.15759 -9.715092,0.361734 -0.627006,0.13677 -1.124907,0.396468 -1.577151,0.822681 -0.359832,0.339123 -0.558423,0.645411 -0.77514,1.203018 -0.23796,0.612294 -0.363723,1.189959 -0.450615,2.058771 -0.16569,1.657248 -0.19464,2.476491 -0.17982,4.973301 0.0126,2.123133 0.0216,2.368347 0.14262,3.731007 0.10719,1.207494 0.22371,1.78014 0.510558,2.499054 0.313731,0.786336 0.747915,1.272909 1.44693,1.622628 0.423228,0.21177 0.798561,0.311835 1.562682,0.413403 1.041975,0.13851 2.747073,0.20865 6.945255,0.28941 3.378378,0.06501 9.241665,-0.07359 11.162022,-0.2646 0.619719,-0.06165 1.004169,-0.15861 1.407651,-0.351399 0.398478,-0.19041 0.874815,-0.567354 1.116201,-0.884691 0.351837,-0.462546 0.663786,-1.276698 0.822681,-2.145588 0.0618,-0.337962 0.15588,-1.281336 0.23151,-2.341959 0.06465,-0.906636 0.06465,-5.0832 0,-5.990283 -0.13614,-1.910112 -0.22965,-2.555172 -0.469221,-3.284529 -0.2325,-0.707853 -0.426813,-1.057212 -0.806145,-1.440729 -0.484665,-0.490014 -0.980943,-0.761853 -1.657761,-0.909498 -0.935883,-0.20415 -5.166867,-0.361731 -9.717159,-0.361731 z m -3.176301,4.2333 8.466747,4.762461 -8.466747,4.762461 z"
     sodipodi:nodetypes="csscccccssssssscsssssccccc" />
</svg>
