<?xml version="1.0" encoding="UTF-8" standalone="no"?>
<!-- Created with Inkscape (http://www.inkscape.org/) -->

<svg
   width="24"
   height="24"
   viewBox="0 0 6.3499999 6.3500002"
   version="1.1"
   id="svg5"
   inkscape:version="1.1.2 (0a00cf5339, 2022-02-04, custom)"
   sodipodi:docname="folder-wine.svg"
   xmlns:inkscape="http://www.inkscape.org/namespaces/inkscape"
   xmlns:sodipodi="http://sodipodi.sourceforge.net/DTD/sodipodi-0.dtd"
   xmlns="http://www.w3.org/2000/svg"
   xmlns:svg="http://www.w3.org/2000/svg">
  <sodipodi:namedview
     id="namedview7"
     pagecolor="#ffffff"
     bordercolor="#666666"
     borderopacity="1.0"
     inkscape:pageshadow="2"
     inkscape:pageopacity="0.0"
     inkscape:pagecheckerboard="0"
     inkscape:document-units="px"
     showgrid="false"
     units="px"
     width="24px"
     inkscape:zoom="1"
     inkscape:cx="12.5"
     inkscape:cy="12"
     inkscape:window-width="1920"
     inkscape:window-height="1017"
     inkscape:window-x="0"
     inkscape:window-y="0"
     inkscape:window-maximized="1"
     inkscape:current-layer="svg5"
     showguides="false" />
  <defs
     id="defs2" />
  <rect
     style="fill:#48b9c7;fill-opacity:1;stroke-width:0.264583"
     id="rect846"
     width="5.8208332"
     height="5.8208332"
     x="0.26458335"
     y="0.26458335"
     ry="0.5291667" />
  <path
     id="rect1058"
     style="opacity:0.4;fill:#000000;fill-opacity:1;stroke-width:0.264583"
     d="m 0.79375002,0.26458334 c -0.29315837,0 -0.52916668,0.23600831 -0.52916668,0.52916668 V 5.5562501 c 0,0.2931584 0.23600831,0.5291667 0.52916668,0.5291667 H 5.5562501 c 0.2931584,0 0.5291667,-0.2360083 0.5291667,-0.5291667 V 0.79375002 c 0,-0.29315837 -0.2360083,-0.52916668 -0.5291667,-0.52916668 z m 0,0.26458334 H 5.5562501 c 0.1465792,0 0.2645834,0.11800417 0.2645834,0.26458334 V 5.5562501 c 0,0.1465792 -0.1180042,0.2645834 -0.2645834,0.2645834 H 0.79375002 c -0.14657917,0 -0.26458334,-0.1180042 -0.26458334,-0.2645834 V 0.79375002 c 0,-0.14657917 0.11800417,-0.26458334 0.26458334,-0.26458334 z" />
  <path
     d="m 1.3229166,1.3229167 h 1.5875 V 3.175 H 1.0583333 V 1.5875 c 0,-0.1465792 0.1180041,-0.2645833 0.2645833,-0.2645833 z m 1.5875,2.1166666 v 1.8520833 h -1.5875 c -0.1465792,0 -0.2645833,-0.1180041 -0.2645833,-0.2645833 v -1.5875 z m 2.1166666,0 v 1.5875 c 0,0.1465792 -0.1180041,0.2645833 -0.2645833,0.2645833 H 3.1749997 V 3.4395833 Z M 3.1750002,1.3229167 h 1.5875 c 0.1465794,0 0.2645833,0.1180041 0.2645833,0.2645833 V 3.175 H 3.1750002 Z"
     style="fill:#33302f;fill-opacity:1;stroke-width:0.0700042"
     id="path2168" />
</svg>
