<?xml version="1.0" encoding="UTF-8" standalone="no"?>
<!-- Created with Inkscape (http://www.inkscape.org/) -->

<svg
   width="24"
   height="24"
   viewBox="0 0 6.3499999 6.3500002"
   version="1.1"
   id="svg5"
   inkscape:version="1.2 (dc2aedaf03, 2022-05-15)"
   sodipodi:docname="folder-system.svg"
   xmlns:inkscape="http://www.inkscape.org/namespaces/inkscape"
   xmlns:sodipodi="http://sodipodi.sourceforge.net/DTD/sodipodi-0.dtd"
   xmlns="http://www.w3.org/2000/svg"
   xmlns:svg="http://www.w3.org/2000/svg">
  <sodipodi:namedview
     id="namedview7"
     pagecolor="#ffffff"
     bordercolor="#666666"
     borderopacity="1.0"
     inkscape:pageshadow="2"
     inkscape:pageopacity="0.0"
     inkscape:pagecheckerboard="0"
     inkscape:document-units="px"
     showgrid="false"
     units="px"
     width="24px"
     inkscape:zoom="33.375"
     inkscape:cx="12.059925"
     inkscape:cy="12.014981"
     inkscape:window-width="1920"
     inkscape:window-height="1011"
     inkscape:window-x="0"
     inkscape:window-y="0"
     inkscape:window-maximized="1"
     inkscape:current-layer="svg5"
     inkscape:showpageshadow="2"
     inkscape:deskcolor="#d1d1d1" />
  <defs
     id="defs2" />
  <rect
     style="fill:#cdcdcd;fill-opacity:1;stroke-width:0.264583"
     id="rect846"
     width="5.8208332"
     height="5.8208332"
     x="0.26458335"
     y="0.26458335"
     ry="0.5291667" />
  <path
     id="rect1058"
     style="opacity:0.4;fill:#000000;fill-opacity:1;stroke-width:0.264583"
     d="m 0.79375002,0.26458334 c -0.29315837,0 -0.52916668,0.23600831 -0.52916668,0.52916668 V 5.5562501 c 0,0.2931584 0.23600831,0.5291667 0.52916668,0.5291667 H 5.5562501 c 0.2931584,0 0.5291667,-0.2360083 0.5291667,-0.5291667 V 0.79375002 c 0,-0.29315837 -0.2360083,-0.52916668 -0.5291667,-0.52916668 z m 0,0.26458334 H 5.5562501 c 0.1465792,0 0.2645834,0.11800417 0.2645834,0.26458334 V 5.5562501 c 0,0.1465792 -0.1180042,0.2645834 -0.2645834,0.2645834 H 0.79375002 c -0.14657917,0 -0.26458334,-0.1180042 -0.26458334,-0.2645834 V 0.79375002 c 0,-0.14657917 0.11800417,-0.26458334 0.26458334,-0.26458334 z" />
  <path
     d="M 2.7119792,1.3229166 2.6712333,1.8108083 C 2.5164914,1.8681141 2.3726232,1.9513214 2.2457833,2.0568708 L 1.8023417,1.84785 1.3393208,2.6500667 l 0.4026959,0.2794 c -0.01434,0.081068 -0.021776,0.1632075 -0.022225,0.2455333 4.01e-5,0.082649 0.00712,0.1651447 0.021167,0.2465917 L 1.3393208,3.6999333 1.8023417,4.5018855 2.244725,4.2936584 c 0.127276,0.1050898 0.2715031,0.187761 0.4265083,0.244475 l 0.040746,0.48895 H 3.6380209 L 3.6787667,4.5391917 C 3.8335088,4.4818859 3.9773768,4.3986786 4.1042167,4.2931292 L 4.5473938,4.50215 5.0104146,3.6999333 4.6079834,3.4205333 C 4.6223234,3.3394653 4.6297584,3.2573258 4.6302084,3.175 4.6301682,3.092351 4.6230884,3.0098553 4.6090414,2.9284083 L 5.0106792,2.6500667 4.5476584,1.84785 4.105275,2.0563416 C 3.9779991,1.9512516 3.8337721,1.8685805 3.6787667,1.8118666 l -0.040746,-0.48895 z M 3.175,2.6458333 c 0.2922507,0 0.5291667,0.236916 0.5291667,0.5291667 0,0.2922507 -0.236916,0.5291667 -0.5291667,0.5291667 -0.2922507,0 -0.5291667,-0.236916 -0.5291667,-0.5291667 0,-0.2922507 0.236916,-0.5291667 0.5291667,-0.5291667 z"
     style="fill:#463e39;stroke-width:0.264583;fill-opacity:1"
     id="path3267" />
</svg>
