<?xml version="1.0" encoding="UTF-8" standalone="no"?>
<!-- Created with Inkscape (http://www.inkscape.org/) -->

<svg
   width="24"
   height="24"
   viewBox="0 0 6.3499999 6.3500002"
   version="1.1"
   id="svg5"
   inkscape:version="1.2 (dc2aedaf03, 2022-05-15)"
   sodipodi:docname="folder-games.svg"
   xmlns:inkscape="http://www.inkscape.org/namespaces/inkscape"
   xmlns:sodipodi="http://sodipodi.sourceforge.net/DTD/sodipodi-0.dtd"
   xmlns="http://www.w3.org/2000/svg"
   xmlns:svg="http://www.w3.org/2000/svg">
  <sodipodi:namedview
     id="namedview7"
     pagecolor="#ffffff"
     bordercolor="#666666"
     borderopacity="1.0"
     inkscape:pageshadow="2"
     inkscape:pageopacity="0.0"
     inkscape:pagecheckerboard="0"
     inkscape:document-units="px"
     showgrid="false"
     units="px"
     width="24px"
     inkscape:zoom="33.375"
     inkscape:cx="12.059925"
     inkscape:cy="12.029963"
     inkscape:window-width="1846"
     inkscape:window-height="1011"
     inkscape:window-x="0"
     inkscape:window-y="0"
     inkscape:window-maximized="1"
     inkscape:current-layer="svg5"
     inkscape:showpageshadow="2"
     inkscape:deskcolor="#d1d1d1" />
  <defs
     id="defs2" />
  <rect
     style="fill:#48b9c7;fill-opacity:1;stroke-width:0.264583"
     id="rect846"
     width="5.8208332"
     height="5.8208332"
     x="0.26458335"
     y="0.26458335"
     ry="0.5291667" />
  <path
     id="rect1058"
     style="opacity:0.4;fill:#000000;fill-opacity:1;stroke-width:0.264583"
     d="m 0.79375002,0.26458334 c -0.29315837,0 -0.52916668,0.23600831 -0.52916668,0.52916668 V 5.5562501 c 0,0.2931584 0.23600831,0.5291667 0.52916668,0.5291667 H 5.5562501 c 0.2931584,0 0.5291667,-0.2360083 0.5291667,-0.5291667 V 0.79375002 c 0,-0.29315837 -0.2360083,-0.52916668 -0.5291667,-0.52916668 z m 0,0.26458334 H 5.5562501 c 0.1465792,0 0.2645834,0.11800417 0.2645834,0.26458334 V 5.5562501 c 0,0.1465792 -0.1180042,0.2645834 -0.2645834,0.2645834 H 0.79375002 c -0.14657917,0 -0.26458334,-0.1180042 -0.26458334,-0.2645834 V 0.79375002 c 0,-0.14657917 0.11800417,-0.26458334 0.26458334,-0.26458334 z" />
  <rect
     style="fill:#ffffff;stroke-width:0.565703"
     id="rect182"
     width="3.7041667"
     height="2.1166668"
     x="1.3229166"
     y="1.5875" />
  <path
     id="rect1779"
     style="fill:#33302f;fill-opacity:1;stroke-width:0.453572"
     d="m 1.8520834,1.3229167 c -0.4397367,0 -0.7937501,0.3540134 -0.7937501,0.79375 V 3.175 4.7624999 c 0,0.2931578 0.2360089,0.5291667 0.5291668,0.5291667 0.2931577,0 0.5291665,-0.2360089 0.5291665,-0.5291667 V 3.96875 h 2.1166667 v 0.7937499 c 0,0.2931578 0.2360089,0.5291667 0.5291666,0.5291667 0.2931578,0 0.5291667,-0.2360089 0.5291667,-0.5291667 V 3.175 2.1166667 c 0,-0.4397366 -0.3540133,-0.79375 -0.79375,-0.79375 z m 0,0.5291667 H 2.38125 V 2.38125 H 2.9104166 V 2.9104166 H 2.38125 V 3.4395834 H 1.8520834 V 2.9104166 H 1.3229166 V 2.38125 h 0.5291668 z m 2.3812499,0 c 0.1461253,0 0.2645833,0.118458 0.2645833,0.2645833 0,0.1461254 -0.1184579,0.2645833 -0.2645833,0.2645833 -0.1461254,0 -0.2645834,-0.1184579 -0.2645834,-0.2645833 0,-0.1461254 0.118458,-0.2645833 0.2645834,-0.2645833 z M 3.7041666,2.38125 c 0.1461253,0 0.2645833,0.118458 0.2645833,0.2645833 0,0.1461253 -0.118458,0.2645833 -0.2645833,0.2645833 -0.1461253,0 -0.2645833,-0.118458 -0.2645833,-0.2645833 0,-0.1461253 0.118458,-0.2645833 0.2645833,-0.2645833 z m 1.0583333,0 c 0.1461254,0 0.2645834,0.118458 0.2645834,0.2645833 0,0.1461255 -0.118458,0.2645833 -0.2645834,0.2645833 -0.1461253,0 -0.2645833,-0.118458 -0.2645833,-0.2645833 0,-0.1461253 0.118458,-0.2645833 0.2645833,-0.2645833 z M 4.2333333,2.9104166 c 0.1461253,0 0.2645833,0.118458 0.2645833,0.2645834 -1e-7,0.1461253 -0.118458,0.2645834 -0.2645833,0.2645834 -0.1461253,0 -0.2645833,-0.1184579 -0.2645834,-0.2645833 0,-0.1461254 0.118458,-0.2645834 0.2645834,-0.2645835 z"
     sodipodi:nodetypes="sscsssccssscssscccccccccccccssssssssssssssssssss" />
</svg>
