<?xml version="1.0" encoding="UTF-8" standalone="no"?>
<!-- Created with Inkscape (http://www.inkscape.org/) -->

<svg
   width="24"
   height="24"
   viewBox="0 0 6.3499999 6.3500002"
   version="1.1"
   id="svg5"
   inkscape:version="1.1.2 (0a00cf5339, 2022-02-04, custom)"
   sodipodi:docname="folder-publicshare.svg"
   xmlns:inkscape="http://www.inkscape.org/namespaces/inkscape"
   xmlns:sodipodi="http://sodipodi.sourceforge.net/DTD/sodipodi-0.dtd"
   xmlns="http://www.w3.org/2000/svg"
   xmlns:svg="http://www.w3.org/2000/svg">
  <sodipodi:namedview
     id="namedview7"
     pagecolor="#ffffff"
     bordercolor="#666666"
     borderopacity="1.0"
     inkscape:pageshadow="2"
     inkscape:pageopacity="0.0"
     inkscape:pagecheckerboard="0"
     inkscape:document-units="px"
     showgrid="false"
     units="px"
     width="24px"
     inkscape:zoom="33.375"
     inkscape:cx="12.014981"
     inkscape:cy="12"
     inkscape:window-width="1920"
     inkscape:window-height="1017"
     inkscape:window-x="0"
     inkscape:window-y="0"
     inkscape:window-maximized="1"
     inkscape:current-layer="svg5"
     showguides="false" />
  <defs
     id="defs2" />
  <rect
     style="fill:#48b9c7;fill-opacity:1;stroke-width:0.264583"
     id="rect846"
     width="5.8208332"
     height="5.8208332"
     x="0.26458335"
     y="0.26458335"
     ry="0.5291667" />
  <path
     id="rect1058"
     style="opacity:0.4;fill:#000000;fill-opacity:1;stroke-width:0.264583"
     d="m 0.79375002,0.26458334 c -0.29315837,0 -0.52916668,0.23600831 -0.52916668,0.52916668 V 5.5562501 c 0,0.2931584 0.23600831,0.5291667 0.52916668,0.5291667 H 5.5562501 c 0.2931584,0 0.5291667,-0.2360083 0.5291667,-0.5291667 V 0.79375002 c 0,-0.29315837 -0.2360083,-0.52916668 -0.5291667,-0.52916668 z m 0,0.26458334 H 5.5562501 c 0.1465792,0 0.2645834,0.11800417 0.2645834,0.26458334 V 5.5562501 c 0,0.1465792 -0.1180042,0.2645834 -0.2645834,0.2645834 H 0.79375002 c -0.14657917,0 -0.26458334,-0.1180042 -0.26458334,-0.2645834 V 0.79375002 c 0,-0.14657917 0.11800417,-0.26458334 0.26458334,-0.26458334 z" />
  <path
     d="m 3.1750608,1.3229167 c 0.4383776,0 0.79375,0.3553884 0.79375,0.79375 0,0.4383617 -0.3553724,0.79375 -0.79375,0.79375 -0.4383775,0 -0.79375,-0.3553883 -0.79375,-0.79375 0,-0.4383616 0.3553725,-0.79375 0.79375,-0.79375 z m 0,2.1166667 C 4.7625,3.4395834 4.7625,4.4988163 4.7625,4.4988163 V 4.7633996 H 1.5875 V 4.4988163 c 0,0 0,-1.0583333 1.5875608,-1.0592329 z"
     style="color:#000000;font-style:normal;font-variant:normal;font-weight:normal;font-stretch:normal;font-size:medium;line-height:normal;font-family:Sans;-inkscape-font-specification:Sans;text-indent:0;text-align:start;text-decoration:none;text-decoration-line:none;letter-spacing:normal;word-spacing:normal;text-transform:none;writing-mode:lr-tb;direction:ltr;baseline-shift:baseline;text-anchor:start;display:inline;overflow:visible;visibility:visible;fill:#33302f;fill-opacity:1;stroke:none;stroke-width:0.529167;marker:none;enable-background:accumulate"
     id="path13273"
     sodipodi:nodetypes="ssssscccccc" />
</svg>
