<?xml version="1.0" encoding="UTF-8" standalone="no"?>
<!-- Created with Inkscape (http://www.inkscape.org/) -->

<svg
   width="24"
   height="24"
   viewBox="0 0 6.3499999 6.3500002"
   version="1.1"
   id="svg5"
   inkscape:version="1.2 (dc2aedaf03, 2022-05-15)"
   sodipodi:docname="folder-vbox.svg"
   xmlns:inkscape="http://www.inkscape.org/namespaces/inkscape"
   xmlns:sodipodi="http://sodipodi.sourceforge.net/DTD/sodipodi-0.dtd"
   xmlns="http://www.w3.org/2000/svg"
   xmlns:svg="http://www.w3.org/2000/svg">
  <sodipodi:namedview
     id="namedview7"
     pagecolor="#ffffff"
     bordercolor="#666666"
     borderopacity="1.0"
     inkscape:pageshadow="2"
     inkscape:pageopacity="0.0"
     inkscape:pagecheckerboard="0"
     inkscape:document-units="px"
     showgrid="false"
     units="px"
     width="24px"
     inkscape:zoom="33.916667"
     inkscape:cx="12"
     inkscape:cy="12"
     inkscape:window-width="1846"
     inkscape:window-height="1011"
     inkscape:window-x="0"
     inkscape:window-y="0"
     inkscape:window-maximized="1"
     inkscape:current-layer="svg5"
     showguides="true"
     inkscape:showpageshadow="2"
     inkscape:deskcolor="#d1d1d1" />
  <defs
     id="defs2" />
  <rect
     style="fill:#48b9c7;fill-opacity:1;stroke-width:0.264583"
     id="rect846"
     width="5.8208332"
     height="5.8208332"
     x="0.26458335"
     y="0.26458335"
     ry="0.5291667" />
  <path
     id="rect1058"
     style="opacity:0.4;fill:#000000;fill-opacity:1;stroke-width:0.264583"
     d="m 0.79375002,0.26458334 c -0.29315837,0 -0.52916668,0.23600831 -0.52916668,0.52916668 V 5.5562501 c 0,0.2931584 0.23600831,0.5291667 0.52916668,0.5291667 H 5.5562501 c 0.2931584,0 0.5291667,-0.2360083 0.5291667,-0.5291667 V 0.79375002 c 0,-0.29315837 -0.2360083,-0.52916668 -0.5291667,-0.52916668 z m 0,0.26458334 H 5.5562501 c 0.1465792,0 0.2645834,0.11800417 0.2645834,0.26458334 V 5.5562501 c 0,0.1465792 -0.1180042,0.2645834 -0.2645834,0.2645834 H 0.79375002 c -0.14657917,0 -0.26458334,-0.1180042 -0.26458334,-0.2645834 V 0.79375002 c 0,-0.14657917 0.11800417,-0.26458334 0.26458334,-0.26458334 z" />
  <path
     style="color:#000000;fill:#33302f;fill-opacity:1;stroke:none;stroke-width:2;stroke-linejoin:round"
     d="m 3.1752854,1.5890875 c -0.113188,2.62e-4 -0.2136748,0.072488 -0.25,0.179688 L 2.1166916,4.1945564 1.8393478,2.8255381 c -0.036326,-0.1072 -0.136812,-0.179426 -0.25,-0.179688 H 0.79375001 v 0.5291582 l 0.60419159,-1.66e-5 0.46875,1.9375329 c 0.082268,0.2372028 0.4177312,0.2372028 0.5,0 L 3.1752854,2.6867437 3.452629,3.5226814 c 0.078626,0.2450042 0.4252803,0.2450042 0.5039065,0 L 4.2260667,2.7062749 4.4877855,3.518775 c 0.033588,0.110288 0.134718,0.186136 0.25,0.1875 H 5.55625 V 3.1750249 H 4.9330979 L 4.4838791,1.7726811 c -0.080402,-0.2378664 -0.4158964,-0.2404832 -0.5,-0.0039 L 3.7065354,2.6008063 3.4252854,1.7687749 c -0.036326,-0.1072 -0.136812,-0.179426 -0.25,-0.1796874 z"
     id="path1493"
     sodipodi:nodetypes="cccccccccccccccccccccccc" />
</svg>
