<?xml version="1.0" encoding="UTF-8" standalone="no"?>
<!-- Created with Inkscape (http://www.inkscape.org/) -->

<svg
   width="24"
   height="24"
   viewBox="0 0 6.3499999 6.3500002"
   version="1.1"
   id="svg5"
   inkscape:version="1.1.2 (0a00cf5339, 2022-02-04, custom)"
   sodipodi:docname="folder-videos.svg"
   xmlns:inkscape="http://www.inkscape.org/namespaces/inkscape"
   xmlns:sodipodi="http://sodipodi.sourceforge.net/DTD/sodipodi-0.dtd"
   xmlns="http://www.w3.org/2000/svg"
   xmlns:svg="http://www.w3.org/2000/svg">
  <sodipodi:namedview
     id="namedview7"
     pagecolor="#ffffff"
     bordercolor="#666666"
     borderopacity="1.0"
     inkscape:pageshadow="2"
     inkscape:pageopacity="0.0"
     inkscape:pagecheckerboard="0"
     inkscape:document-units="px"
     showgrid="false"
     units="px"
     width="24px"
     inkscape:zoom="23.599689"
     inkscape:cx="12.245924"
     inkscape:cy="13.2417"
     inkscape:window-width="1920"
     inkscape:window-height="1017"
     inkscape:window-x="0"
     inkscape:window-y="0"
     inkscape:window-maximized="1"
     inkscape:current-layer="svg5" />
  <defs
     id="defs2" />
  <rect
     style="fill:#ff793e;fill-opacity:1;stroke-width:0.264583"
     id="rect846"
     width="5.8208332"
     height="5.8208332"
     x="0.26458335"
     y="0.26458335"
     ry="0.5291667" />
  <path
     id="rect1058"
     style="opacity:0.4;fill:#000000;fill-opacity:1;stroke-width:0.264583"
     d="m 0.79375002,0.26458334 c -0.29315837,0 -0.52916668,0.23600831 -0.52916668,0.52916668 V 5.5562501 c 0,0.2931584 0.23600831,0.5291667 0.52916668,0.5291667 H 5.5562501 c 0.2931584,0 0.5291667,-0.2360083 0.5291667,-0.5291667 V 0.79375002 c 0,-0.29315837 -0.2360083,-0.52916668 -0.5291667,-0.52916668 z m 0,0.26458334 H 5.5562501 c 0.1465792,0 0.2645834,0.11800417 0.2645834,0.26458334 V 5.5562501 c 0,0.1465792 -0.1180042,0.2645834 -0.2645834,0.2645834 H 0.79375002 c -0.14657917,0 -0.26458334,-0.1180042 -0.26458334,-0.2645834 V 0.79375002 c 0,-0.14657917 0.11800417,-0.26458334 0.26458334,-0.26458334 z" />
  <path
     d="m 1.984375,1.5875001 c -0.5130271,0 -0.9260417,0.4130145 -0.9260417,0.9260416 0,0.4097073 0.2635594,0.7557823 0.6309704,0.8784961 C 1.6253827,3.4795088 1.5875,3.5870621 1.5875,3.7041667 V 4.7625 c 0,0.2931584 0.2360083,0.5291667 0.5291666,0.5291667 h 1.8520833 c 0.2931583,0 0.5291667,-0.2360083 0.5291667,-0.5291667 L 5.2916665,5.2916667 V 3.4395834 L 4.4979166,3.9687501 V 3.7041667 c 0,-0.1171046 -0.037883,-0.2246577 -0.1018038,-0.3121289 0.367411,-0.1227138 0.6309704,-0.4687888 0.6309704,-0.8784961 0,-0.5130271 -0.4130146,-0.9260416 -0.9260416,-0.9260416 -0.5130271,0 -0.9260416,0.4130145 -0.9260416,0.9260416 0,0.2596621 0.105955,0.4936332 0.2769869,0.6614584 H 2.6334296 c 0.171032,-0.1678252 0.276987,-0.4017963 0.276987,-0.6614584 0,-0.5130271 -0.4130146,-0.9260416 -0.9260416,-0.9260416 z m 0,0.5291666 c 0.2198687,0 0.396875,0.1770063 0.396875,0.396875 0,0.2198688 -0.1770063,0.396875 -0.396875,0.396875 -0.2198687,0 -0.396875,-0.1770062 -0.396875,-0.396875 0,-0.2198687 0.1770063,-0.396875 0.396875,-0.396875 z m 2.1166666,0 c 0.2198687,0 0.396875,0.1770063 0.396875,0.396875 0,0.2198688 -0.1770063,0.396875 -0.396875,0.396875 -0.2198688,0 -0.396875,-0.1770062 -0.396875,-0.396875 0,-0.2198687 0.1770062,-0.396875 0.396875,-0.396875 z"
     style="display:inline;opacity:0.3;vector-effect:none;fill:#000000;fill-opacity:1;stroke:none;stroke-width:0.140009;stroke-linecap:square;stroke-opacity:1;enable-background:new"
     id="path856"
     sodipodi:nodetypes="sscssssccccscsssccssssssssssss" />
  <path
     d="m 1.9843749,1.3229167 c -0.513027,0 -0.9260416,0.4130146 -0.9260416,0.9260417 0,0.4097072 0.2635594,0.7557822 0.6309704,0.878496 -0.063921,0.087471 -0.1018038,0.1950243 -0.1018038,0.3121289 v 1.0583333 c 0,0.2931584 0.2360084,0.5291667 0.5291667,0.5291667 h 1.8520833 c 0.2931583,0 0.5291667,-0.2360083 0.5291667,-0.5291667 L 5.2916665,5.0270833 V 3.175 L 4.4979166,3.7041667 V 3.4395833 c 0,-0.1171046 -0.037883,-0.2246577 -0.1018038,-0.3121289 0.367411,-0.1227138 0.6309704,-0.4687888 0.6309704,-0.878496 0,-0.5130271 -0.4130146,-0.9260417 -0.9260416,-0.9260417 -0.5130271,0 -0.9260416,0.4130146 -0.9260416,0.9260417 0,0.259662 0.105955,0.4936331 0.2769869,0.6614583 H 2.6334296 c 0.171032,-0.1678252 0.276987,-0.4017963 0.276987,-0.6614583 0,-0.5130271 -0.4130146,-0.9260417 -0.9260417,-0.9260417 z m 0,0.5291667 c 0.2198688,0 0.3968751,0.1770062 0.3968751,0.396875 0,0.2198687 -0.1770063,0.3968749 -0.3968751,0.3968749 -0.2198687,0 -0.396875,-0.1770062 -0.396875,-0.3968749 0,-0.2198688 0.1770063,-0.396875 0.396875,-0.396875 z m 2.1166667,0 c 0.2198687,0 0.396875,0.1770062 0.396875,0.396875 0,0.2198687 -0.1770063,0.3968749 -0.396875,0.3968749 -0.2198688,0 -0.396875,-0.1770062 -0.396875,-0.3968749 0,-0.2198688 0.1770062,-0.396875 0.396875,-0.396875 z"
     style="display:inline;vector-effect:none;fill:#ffffff;fill-opacity:1;stroke:none;stroke-width:0.037044;stroke-linecap:square;stroke-opacity:1;enable-background:new"
     id="path1056" />
</svg>
