<?xml version="1.0" encoding="UTF-8" standalone="no"?>
<!-- Created with Inkscape (http://www.inkscape.org/) -->

<svg
   width="24"
   height="24"
   viewBox="0 0 6.3499999 6.3499999"
   version="1.1"
   id="svg5"
   inkscape:version="1.1.2 (0a00cf5339, 2022-02-04, custom)"
   sodipodi:docname="user-trash.svg"
   xmlns:inkscape="http://www.inkscape.org/namespaces/inkscape"
   xmlns:sodipodi="http://sodipodi.sourceforge.net/DTD/sodipodi-0.dtd"
   xmlns="http://www.w3.org/2000/svg"
   xmlns:svg="http://www.w3.org/2000/svg">
  <sodipodi:namedview
     id="namedview7"
     pagecolor="#ffffff"
     bordercolor="#666666"
     borderopacity="1.0"
     inkscape:pageshadow="2"
     inkscape:pageopacity="0.0"
     inkscape:pagecheckerboard="0"
     inkscape:document-units="px"
     showgrid="false"
     units="px"
     height="48px"
     inkscape:zoom="6.2578126"
     inkscape:cx="-8.8689137"
     inkscape:cy="19.815231"
     inkscape:window-width="1920"
     inkscape:window-height="1017"
     inkscape:window-x="0"
     inkscape:window-y="0"
     inkscape:window-maximized="1"
     inkscape:current-layer="svg5" />
  <defs
     id="defs2" />
  <path
     d="M 0.92759663,0 H 5.4255133 c 0.2198687,0 0.396875,0.1770062 0.396875,0.396875 L 5.2932216,5.8208333 c -1.3229167,0.6614583 -2.9104166,0.6614583 -4.2333333,0 L 0.53072163,0.396875 C 0.50955463,0.1780646 0.70772793,0 0.92759663,0 Z"
     style="fill:#898989;stroke-width:0.264583"
     id="path1381" />
  <path
     d="m 0.92759663,0 c -0.2198687,0 -0.4180416,0.1780646 -0.396875,0.396875 L 1.0598883,5.8208333 c 1.3229167,0.6614583 2.9104166,0.6614583 4.2333333,0 L 5.8223883,0.396875 C 5.8223883,0.1770062 5.645382,0 5.4255133,0 Z m 0,0.2645833 H 5.4255133 c 0.07329,0 0.1322916,0.059002 0.1322916,0.1322917 L 5.0286383,5.5562499 c -1.3229167,0.6614584 -2.38125,0.6614584 -3.7041667,0 L 0.79530503,0.396875 c 0,-0.07329 0.059002,-0.1322917 0.1322916,-0.1322917 z"
     style="opacity:0.5;fill:#000000;fill-opacity:1;stroke-width:0.264583"
     id="path1171" />
  <path
     style="color:#000000;opacity:0.35;fill:#000000;stroke-width:0.264583;-inkscape-stroke:none"
     d="M 4.4994716,0.7865163 4.2348883,5.2844329 4.4989549,5.2999379 4.7635382,0.8020213 Z"
     id="path115" />
  <path
     style="color:#000000;opacity:0.35;fill:#ffffff;stroke-width:0.264583;-inkscape-stroke:none"
     d="M 4.235405,0.7865163 3.9708217,5.2844329 4.2348883,5.2999379 4.4994716,0.8020213 Z"
     id="path117" />
  <path
     style="color:#000000;opacity:0.35;fill:#000000;stroke-width:0.264583;-inkscape-stroke:none"
     d="M 1.8536383,0.7865163 1.589055,0.8020213 1.8536383,5.2999379 2.1182216,5.2844329 Z"
     id="path121" />
  <path
     style="color:#000000;opacity:0.35;fill:#ffffff;stroke-width:0.264583;-inkscape-stroke:none"
     d="M 2.1182216,0.7865163 1.854155,0.8020213 2.1187384,5.2999379 2.382805,5.2844329 Z"
     id="path123" />
  <path
     style="color:#000000;opacity:0.35;fill:#000000;stroke-width:0.264583;-inkscape-stroke:none"
     d="m 3.1765549,0.7942659 v 4.7625 h 0.2645834 v -4.7625 z"
     id="path127" />
  <path
     style="color:#000000;opacity:0.35;fill:#ffffff;stroke-width:0.264583;-inkscape-stroke:none"
     d="m 2.9114549,0.7942659 v 4.7625 h 0.2645833 v -4.7625 z"
     id="path129" />
</svg>
