<?xml version="1.0" encoding="UTF-8" standalone="no"?>
<!-- Created with Inkscape (http://www.inkscape.org/) -->

<svg
   width="64"
   height="64"
   viewBox="0 0 16.933333 16.933334"
   version="1.1"
   id="svg1099"
   inkscape:version="1.2 (dc2aedaf03, 2022-05-15)"
   sodipodi:docname="system-suspend-hibernate.svg"
   xmlns:inkscape="http://www.inkscape.org/namespaces/inkscape"
   xmlns:sodipodi="http://sodipodi.sourceforge.net/DTD/sodipodi-0.dtd"
   xmlns="http://www.w3.org/2000/svg"
   xmlns:svg="http://www.w3.org/2000/svg">
  <sodipodi:namedview
     id="namedview1101"
     pagecolor="#ffffff"
     bordercolor="#666666"
     borderopacity="1.0"
     inkscape:pageshadow="2"
     inkscape:pageopacity="0.0"
     inkscape:pagecheckerboard="0"
     inkscape:document-units="px"
     showgrid="false"
     units="px"
     inkscape:zoom="12.90625"
     inkscape:cx="32"
     inkscape:cy="32"
     inkscape:window-width="1920"
     inkscape:window-height="1009"
     inkscape:window-x="0"
     inkscape:window-y="0"
     inkscape:window-maximized="1"
     inkscape:current-layer="svg1099"
     inkscape:showpageshadow="2"
     inkscape:deskcolor="#d1d1d1"
     showguides="false" />
  <defs
     id="defs1096" />
  <rect
     style="opacity:1;fill:#aa5abb;stroke-width:0.264583;fill-opacity:1"
     id="rect1196"
     width="15.875"
     height="16.404167"
     x="0.5291667"
     y="0.5291667"
     ry="7.9375" />
  <path
     id="rect1966"
     style="opacity:0.5;fill:#000000;fill-opacity:1;stroke-width:0.264583"
     d="M 8.4666667 0.52916667 C 4.0692961 0.52916667 0.52916667 4.0692961 0.52916667 8.4666667 L 0.52916667 8.9958334 C 0.52916667 13.393204 4.0692961 16.933333 8.4666667 16.933333 C 12.864037 16.933333 16.404167 13.393204 16.404167 8.9958334 L 16.404167 8.4666667 C 16.404167 4.0692961 12.864037 0.52916667 8.4666667 0.52916667 z M 8.4666667 0.79375001 A 7.6729169 7.6729169 0 0 1 16.139583 8.4666667 A 7.6729169 7.6729169 0 0 1 8.4666667 16.139583 A 7.6729169 7.6729169 0 0 1 0.79375001 8.4666667 A 7.6729169 7.6729169 0 0 1 8.4666667 0.79375001 z " />
  <path
     d="m 8.7430536,6.0854168 c -0.264583,0 -0.264583,0.2645833 -0.264583,0.2645833 v 3.1750001 c 0,0 0,0.2645838 0.264583,0.2645838 h 2.6458334 c 0,0 0.264584,0 0.264584,-0.2645838 V 6.3500001 c 0,0 0,-0.2645833 -0.264584,-0.2645833 z m 1.3229174,0.5291666 c 1.41111,0 1.41111,2.1166668 0,2.1166668 H 9.0076366 V 7.6729168 c 0,-0.5845014 0.473832,-1.0583334 1.0583344,-1.0583334 z m 0,0.5291667 c -0.7055564,0 -0.7055564,1.0583334 0,1.0583334 0.705555,0 0.705555,-1.0583334 0,-1.0583334 z M 8.8674076,4.3047709 c -1.6446499,0.060325 -3.1604478,1.0742083 -3.757877,2.7162126 -0.7871354,2.1627042 0.3116792,4.5706775 2.474383,5.3578125 1.64174,0.597694 3.4170944,0.08625 4.5206714,-1.135062 -0.790575,0.255322 -1.670579,0.269081 -2.5116894,-0.03704 C 7.5847076,10.475913 6.5554786,8.2478564 7.2862577,6.2396688 7.5923806,5.398823 8.1638806,4.7466251 8.8674076,4.3050355 Z"
     style="color:#bebebe;fill:#ffffff;stroke-width:0.264583"
     id="path304" />
</svg>
