<?xml version="1.0" encoding="UTF-8" standalone="no"?>
<!-- Created with Inkscape (http://www.inkscape.org/) -->

<svg
   width="24"
   height="24"
   viewBox="0 0 6.3499999 6.3499999"
   version="1.1"
   id="svg5"
   inkscape:version="1.2 (dc2aedaf03, 2022-05-15)"
   sodipodi:docname="audio-microphone.svg"
   xmlns:inkscape="http://www.inkscape.org/namespaces/inkscape"
   xmlns:sodipodi="http://sodipodi.sourceforge.net/DTD/sodipodi-0.dtd"
   xmlns="http://www.w3.org/2000/svg"
   xmlns:svg="http://www.w3.org/2000/svg">
  <sodipodi:namedview
     id="namedview7"
     pagecolor="#ffffff"
     bordercolor="#666666"
     borderopacity="1.0"
     inkscape:pageshadow="2"
     inkscape:pageopacity="0.0"
     inkscape:pagecheckerboard="0"
     inkscape:document-units="px"
     showgrid="false"
     units="px"
     height="48px"
     inkscape:zoom="12.168129"
     inkscape:cx="4.191277"
     inkscape:cy="7.8894626"
     inkscape:window-width="1920"
     inkscape:window-height="1009"
     inkscape:window-x="0"
     inkscape:window-y="0"
     inkscape:window-maximized="1"
     inkscape:current-layer="svg5"
     inkscape:showpageshadow="2"
     inkscape:deskcolor="#d1d1d1" />
  <defs
     id="defs2" />
  <rect
     style="opacity:1;fill:#909090;fill-opacity:1;stroke-width:0.529167"
     id="rect1088"
     width="2.6458333"
     height="4.4979167"
     x="1.8520833"
     y="0"
     ry="1.3229166" />
  <rect
     style="opacity:1;fill:#2e2e2e;fill-opacity:1;stroke-width:0.529167"
     id="rect1661"
     width="2.1166666"
     height="3.96875"
     x="2.1166666"
     y="0.26458335"
     ry="1.0583333" />
  <path
     d="m 1.0583333,2.38125 c -0.29315805,0 -0.52916664,0.2360083 -0.52916664,0.5291666 V 3.175 c 0,1.2853034 0.90754224,2.3507091 2.11925054,2.5936389 -0.00167,0.017171 -0.00258,0.034573 -0.00258,0.052194 0,0.2931583 0.2360086,0.5291666 0.5291667,0.5291666 0.293158,0 0.5291666,-0.2360083 0.5291666,-0.5291666 0,-0.017621 -9.26e-4,-0.035023 -0.00259,-0.052194 C 4.913291,5.5257091 5.8208333,4.4603034 5.8208333,3.175 V 2.9104166 c 0,-0.2931583 -0.2360086,-0.5291666 -0.5291667,-0.5291666 -0.2931581,0 -0.5291667,0.2360083 -0.5291667,0.5291666 V 3.175 c 0,0.8794749 -0.7080258,1.5874999 -1.5874999,1.5874999 -0.8794742,0 -1.5875,-0.708025 -1.5875,-1.5874999 V 2.9104166 C 1.5875,2.6172583 1.3514914,2.38125 1.0583333,2.38125 Z"
     style="fill:#444444;fill-opacity:1;stroke-width:0.264583"
     id="path1719" />
  <path
     d="m 1.0583333,2.6458332 c -0.14657886,0 -0.26458336,0.1180042 -0.26458336,0.2645833 v 0.2645834 c 0,1.2296536 0.92301926,2.2353111 2.11666666,2.3662639 v 0.2795694 c 0,0.1465791 0.1180044,0.2645833 0.2645833,0.2645833 0.1465789,0 0.2645833,-0.1180042 0.2645833,-0.2645833 V 5.5412638 C 4.6332306,5.410311 5.5562499,4.4046535 5.5562499,3.1749999 V 2.9104165 c 0,-0.1465791 -0.1180045,-0.2645833 -0.2645834,-0.2645833 -0.1465789,0 -0.2645833,0.1180042 -0.2645833,0.2645833 v 0.2645834 c 0,1.0260541 -0.8260302,1.8520833 -1.8520833,1.8520833 -1.0260531,0 -1.8520833,-0.8260292 -1.8520833,-1.8520833 V 2.9104165 c 0,-0.1465791 -0.1180044,-0.2645833 -0.2645833,-0.2645833 z"
     style="fill:#838383;fill-opacity:1;stroke-width:0.264583"
     id="path1748" />
</svg>
