<?xml version="1.0" encoding="UTF-8" standalone="no"?>
<!-- Created with Inkscape (http://www.inkscape.org/) -->

<svg
   width="24"
   height="24"
   viewBox="0 0 6.3499999 6.3499999"
   version="1.1"
   id="svg5"
   inkscape:version="1.2 (dc2aedaf03, 2022-05-15)"
   sodipodi:docname="input-tablet.svg"
   xmlns:inkscape="http://www.inkscape.org/namespaces/inkscape"
   xmlns:sodipodi="http://sodipodi.sourceforge.net/DTD/sodipodi-0.dtd"
   xmlns="http://www.w3.org/2000/svg"
   xmlns:svg="http://www.w3.org/2000/svg">
  <sodipodi:namedview
     id="namedview7"
     pagecolor="#ffffff"
     bordercolor="#666666"
     borderopacity="1.0"
     inkscape:pageshadow="2"
     inkscape:pageopacity="0.0"
     inkscape:pagecheckerboard="0"
     inkscape:document-units="px"
     showgrid="false"
     units="px"
     height="48px"
     inkscape:zoom="17.699767"
     inkscape:cx="-1.2429542"
     inkscape:cy="13.164015"
     inkscape:window-width="1920"
     inkscape:window-height="1009"
     inkscape:window-x="0"
     inkscape:window-y="0"
     inkscape:window-maximized="1"
     inkscape:current-layer="svg5"
     showguides="false"
     inkscape:showpageshadow="2"
     inkscape:deskcolor="#d1d1d1" />
  <defs
     id="defs2" />
  <rect
     style="opacity:1;fill:#98989d;fill-opacity:1;stroke-width:0.264583"
     id="rect1162"
     width="4.7624998"
     height="5.8208332"
     x="0.79374999"
     y="0.26458332"
     ry="0.39687499" />
  <path
     d="m 1.1906249,0.26458332 c -0.2198688,0 -0.396875,0.1770062 -0.396875,0.3968749 V 1.3229166 H 5.5562498 V 0.66145822 c 0,-0.2198687 -0.1770062,-0.3968749 -0.396875,-0.3968749 z"
     style="fill:#bcbcc0;stroke-width:0.264583"
     id="path1577" />
  <circle
     style="fill:#ffca40;fill-opacity:1;stroke-width:0.529166"
     id="path1245"
     cx="1.4552083"
     cy="0.92604166"
     r="0.26458332" />
  <path
     d="m 1.1906249,0.26458332 c -0.21986877,0 -0.39687502,0.1770063 -0.39687502,0.396875 V 5.6885416 c 0,0.2198687 0.17700625,0.396875 0.39687502,0.396875 h 3.9687499 c 0.2198688,0 0.396875,-0.1770063 0.396875,-0.396875 V 0.66145832 c 0,-0.2198687 -0.1770062,-0.396875 -0.396875,-0.396875 z m 0,0.2645834 h 3.9687499 c 0.07329,0 0.1322917,0.059002 0.1322917,0.1322916 V 5.6885416 c 0,0.07329 -0.059002,0.1322917 -0.1322917,0.1322917 H 1.1906249 C 1.1175015,5.8209798 1.0581865,5.761665 1.0583332,5.6885416 V 0.66145832 c 0,-0.07329 0.059002,-0.1322916 0.1322917,-0.1322916 z"
     style="fill-opacity:1;stroke-width:0.264583;fill:#000000;opacity:0.5"
     id="path1549" />
  <path
     d="M 2.8537005,1.6914181 C 2.5105296,1.6755167 2.1113757,1.8092821 1.6811625,2.1425539 L 1.9240415,2.456228 C 2.3010711,2.1641571 2.6096335,2.0773076 2.8356139,2.0877746 3.061594,2.0982521 3.215554,2.2015427 3.3074197,2.3332391 3.3992854,2.4649354 3.4198959,2.6224207 3.3740822,2.7409647 3.3282688,2.8595112 3.2258851,2.963765 2.968939,2.9952134 2.1290372,3.0980834 1.783919,3.7053259 1.8609963,4.1863569 1.8995353,4.4268711 2.0353832,4.6494095 2.2656228,4.7418761 2.4958624,4.8343451 2.7835754,4.7592331 3.0299173,4.5274207 3.2121564,4.3559284 3.3614838,4.3083113 3.4975889,4.3083113 c 0.1361051,0 0.2710088,0.055234 0.3948078,0.139528 C 4.1399954,4.6164265 4.313043,4.885021 4.313043,4.885021 L 4.6494567,4.6746984 c 0,0 -0.1985399,-0.3267181 -0.5338178,-0.5550059 C 3.9480002,4.0055486 3.7382172,3.9114363 3.4975889,3.9114363 3.2569607,3.9114363 2.9976056,4.013166 2.7580992,4.2385486 2.5826955,4.4036089 2.4812802,4.4011959 2.4134175,4.3739412 2.3455545,4.3466865 2.274027,4.2569028 2.2527037,4.1238279 2.2100571,3.8576756 2.3360763,3.4723867 3.0169982,3.3889874 3.3826158,3.3442385 3.6446637,3.1427053 3.7446023,2.8841095 3.844541,2.6255164 3.7926017,2.3346917 3.6329813,2.1058615 3.4733605,1.8770313 3.1968717,1.707317 2.8537005,1.6914181 Z"
     style="color:#000000;fill:#000000;stroke-width:0.264583;-inkscape-stroke:none"
     id="path310" />
</svg>
