<?xml version="1.0" encoding="UTF-8" standalone="no"?>
<!-- Created with Inkscape (http://www.inkscape.org/) -->

<svg
   width="24"
   height="24"
   viewBox="0 0 6.3499999 6.3499999"
   version="1.1"
   id="svg5"
   inkscape:version="1.2 (dc2aedaf03, 2022-05-15)"
   sodipodi:docname="media-flash.svg"
   xmlns:inkscape="http://www.inkscape.org/namespaces/inkscape"
   xmlns:sodipodi="http://sodipodi.sourceforge.net/DTD/sodipodi-0.dtd"
   xmlns="http://www.w3.org/2000/svg"
   xmlns:svg="http://www.w3.org/2000/svg">
  <sodipodi:namedview
     id="namedview7"
     pagecolor="#ffffff"
     bordercolor="#666666"
     borderopacity="1.0"
     inkscape:pageshadow="2"
     inkscape:pageopacity="0.0"
     inkscape:pagecheckerboard="0"
     inkscape:document-units="px"
     showgrid="false"
     units="px"
     height="48px"
     inkscape:zoom="24.45411"
     inkscape:cx="9.4667115"
     inkscape:cy="6.9926897"
     inkscape:window-width="1920"
     inkscape:window-height="1009"
     inkscape:window-x="0"
     inkscape:window-y="0"
     inkscape:window-maximized="1"
     inkscape:current-layer="svg5"
     inkscape:showpageshadow="2"
     inkscape:deskcolor="#d1d1d1"
     showguides="false" />
  <defs
     id="defs2" />
  <path
     id="rect1162"
     style="opacity:1;fill:#463e39;stroke-width:0.264583;fill-opacity:1"
     d="m 4.2333333,0 1.3229163,1.3229166 2e-7,4.6302083 c 0,0.2198688 -0.1770062,0.396875 -0.396875,0.396875 H 1.190625 c -0.21986876,0 -0.39687501,-0.1770062 -0.39687501,-0.396875 V 0 Z"
     sodipodi:nodetypes="ccsssscc" />
  <path
     id="rect977"
     style="opacity:0.5;fill:#ffffff;stroke-width:0.529167;stroke-linecap:round;stroke-linejoin:round"
     d="M 0.79374999 0 L 0.79374999 5.9531249 C 0.79374999 6.1729935 0.97075644 6.3499999 1.190625 6.3499999 L 5.1593749 6.3499999 C 5.3792435 6.3499999 5.5562499 6.1729935 5.5562499 5.9531249 L 5.5562499 1.3229166 L 4.2333333 0 L 0.79374999 0 z M 1.0583333 0.26458333 L 3.9687499 0.26458333 L 5.2916666 1.5875 L 5.2916666 5.8208332 C 5.2916666 5.9674123 5.1736622 6.0854166 5.0270833 6.0854166 L 1.3229166 6.0854166 C 1.1763376 6.0854166 1.0583333 5.9674123 1.0583333 5.8208332 L 1.0583333 0.26458333 z " />
  <rect
     style="opacity:1;fill:#ffce51;fill-opacity:1;stroke-width:0.529167"
     id="rect41880"
     width="3.7041667"
     height="0.79374999"
     x="1.3229166"
     y="5.0270834" />
</svg>
