<?xml version="1.0" encoding="UTF-8" standalone="no"?>
<!-- Created with Inkscape (http://www.inkscape.org/) -->

<svg
   width="24"
   height="24"
   viewBox="0 0 6.3499999 6.3499999"
   version="1.1"
   id="svg5"
   inkscape:version="1.2 (dc2aedaf03, 2022-05-15)"
   sodipodi:docname="network-firewall.svg"
   xmlns:inkscape="http://www.inkscape.org/namespaces/inkscape"
   xmlns:sodipodi="http://sodipodi.sourceforge.net/DTD/sodipodi-0.dtd"
   xmlns="http://www.w3.org/2000/svg"
   xmlns:svg="http://www.w3.org/2000/svg">
  <sodipodi:namedview
     id="namedview7"
     pagecolor="#ffffff"
     bordercolor="#666666"
     borderopacity="1.0"
     inkscape:pageshadow="2"
     inkscape:pageopacity="0.0"
     inkscape:pagecheckerboard="0"
     inkscape:document-units="px"
     showgrid="false"
     units="px"
     height="48px"
     inkscape:zoom="25.031251"
     inkscape:cx="11.265917"
     inkscape:cy="12.704119"
     inkscape:window-width="1920"
     inkscape:window-height="1014"
     inkscape:window-x="0"
     inkscape:window-y="0"
     inkscape:window-maximized="1"
     inkscape:current-layer="svg5"
     showguides="false"
     inkscape:showpageshadow="2"
     inkscape:deskcolor="#d1d1d1" />
  <defs
     id="defs2" />
  <rect
     style="opacity:1;fill:#cf3b00;fill-opacity:1;stroke-width:0.264583"
     id="rect1162"
     width="5.8208332"
     height="5.8208332"
     x="0.26458332"
     y="0.26458332"
     ry="0.52916664" />
  <path
     d="m 1.3229166,2.6458334 c -0.1465791,0 -0.2645833,0.1180041 -0.2645833,0.2645833 v 0.5291666 c 0,0.1465792 0.1180042,0.2645834 0.2645833,0.2645834 h 1.5875 c 0.1465792,0 0.2645833,-0.1180042 0.2645833,-0.2645834 V 2.9104167 c 0,-0.1465792 -0.1180041,-0.2645833 -0.2645833,-0.2645833 z m 0,0.2645833 h 1.5875 v 0.5291666 h -1.5875 z m 3.175,-1.3229167 c -0.1465792,0 -0.2645834,0.1180042 -0.2645834,0.2645834 V 2.38125 c 0,0.1465792 0.1180042,0.2645834 0.2645834,0.2645834 h 1.0583333 c 0.1465792,0 0.2645833,-0.1180042 0.2645833,-0.2645834 V 1.8520834 C 5.8208332,1.7055042 5.7028291,1.5875 5.5562499,1.5875 Z m 0,0.2645834 H 5.5562499 V 2.38125 H 4.4979166 Z M 0.79374999,1.5875 c -0.14657916,0 -0.26458333,0.1180042 -0.26458333,0.2645834 V 2.38125 c 0,0.1465792 0.11800417,0.2645834 0.26458333,0.2645834 H 1.8520833 c 0.1465791,0 0.2645833,-0.1180042 0.2645833,-0.2645834 V 1.8520834 C 2.1166666,1.7055042 1.9986624,1.5875 1.8520833,1.5875 Z m 0,0.2645834 H 1.8520833 V 2.38125 H 0.79374999 Z M 2.3812499,1.5875 c -0.1465791,0 -0.2645833,0.1180042 -0.2645833,0.2645834 V 2.38125 c 0,0.1465792 0.1180042,0.2645834 0.2645833,0.2645834 h 1.5875 c 0.1465792,0 0.2645833,-0.1180042 0.2645833,-0.2645834 V 1.8520834 C 4.2333332,1.7055042 4.1153291,1.5875 3.9687499,1.5875 Z m 0,0.2645834 h 1.5875 V 2.38125 h -1.5875 z M 3.4395833,0.52916666 c -0.1465792,0 -0.2645834,0.1180042 -0.2645834,0.2645833 V 1.3229167 c 0,0.1465792 0.1180042,0.2645833 0.2645834,0.2645833 h 1.5874999 c 0.1465792,0 0.2645834,-0.1180041 0.2645834,-0.2645833 V 0.79374996 c 0,-0.1465791 -0.1180042,-0.2645833 -0.2645834,-0.2645833 z m 0,0.2645833 H 5.0270832 V 1.3229167 H 3.4395833 Z M 1.3229166,0.52916666 c -0.1465791,0 -0.2645833,0.1180042 -0.2645833,0.2645833 V 1.3229167 c 0,0.1465792 0.1180042,0.2645833 0.2645833,0.2645833 h 1.5875 c 0.1465792,0 0.2645833,-0.1180041 0.2645833,-0.2645833 V 0.79374996 c 0,-0.1465791 -0.1180041,-0.2645833 -0.2645833,-0.2645833 z m 0,0.2645833 h 1.5875 V 1.3229167 h -1.5875 z M 3.4395833,2.6458334 c -0.1465792,0 -0.2645834,0.1180041 -0.2645834,0.2645833 v 0.5291666 c 0,0.1465792 0.1180042,0.2645834 0.2645834,0.2645834 h 1.5874999 c 0.1465792,0 0.2645834,-0.1180042 0.2645834,-0.2645834 V 2.9104167 c 0,-0.1465792 -0.1180042,-0.2645833 -0.2645834,-0.2645833 z m 0,0.2645833 H 5.0270832 V 3.4395833 H 3.4395833 Z m -1.0583334,0.79375 c -0.1465791,0 -0.2645833,0.1180041 -0.2645833,0.2645833 v 0.5291667 c 0,0.1465791 0.1180042,0.2645833 0.2645833,0.2645833 h 1.5875 c 0.1465792,0 0.2645833,-0.1180042 0.2645833,-0.2645833 V 3.96875 c 0,-0.1465792 -0.1180041,-0.2645833 -0.2645833,-0.2645833 z m 0,0.2645833 h 1.5875 v 0.5291667 h -1.5875 z M 0.79374999,3.7041667 c -0.14657916,0 -0.26458333,0.1180041 -0.26458333,0.2645833 v 0.5291667 c 0,0.1465791 0.11800417,0.2645833 0.26458333,0.2645833 H 1.8520833 c 0.1465791,0 0.2645833,-0.1180042 0.2645833,-0.2645833 V 3.96875 c 0,-0.1465792 -0.1180042,-0.2645833 -0.2645833,-0.2645833 z m 0,0.2645833 H 1.8520833 V 4.4979167 H 0.79374999 Z M 4.4979166,3.7041667 c -0.1465792,0 -0.2645834,0.1180041 -0.2645834,0.2645833 v 0.5291667 c 0,0.1465791 0.1180042,0.2645833 0.2645834,0.2645833 h 1.0583333 c 0.1465792,0 0.2645833,-0.1180042 0.2645833,-0.2645833 V 3.96875 c 0,-0.1465792 -0.1180041,-0.2645833 -0.2645833,-0.2645833 z m 0,0.2645833 H 5.5562499 V 4.4979167 H 4.4979166 Z m -3.175,0.79375 c -0.1465791,0 -0.2645833,0.1180042 -0.2645833,0.2645833 V 5.55625 c 0,0.1465791 0.1180042,0.2645833 0.2645833,0.2645833 h 1.5875 c 0.1465792,0 0.2645833,-0.1180042 0.2645833,-0.2645833 V 5.0270833 C 3.1749999,4.8805042 3.0569958,4.7625 2.9104166,4.7625 Z m 0,0.2645833 h 1.5875 V 5.55625 h -1.5875 z M 3.4395833,4.7625 c -0.1465792,0 -0.2645834,0.1180042 -0.2645834,0.2645833 V 5.55625 c 0,0.1465791 0.1180042,0.2645833 0.2645834,0.2645833 h 1.5874999 c 0.1465792,0 0.2645834,-0.1180042 0.2645834,-0.2645833 V 5.0270833 C 5.2916666,4.8805042 5.1736624,4.7625 5.0270832,4.7625 Z m 0,0.2645833 H 5.0270832 V 5.55625 H 3.4395833 Z"
     style="fill:#ffffff;fill-opacity:0.5;stroke-width:0.264583"
     id="path373" />
  <path
     id="rect1437"
     style="opacity:0.5;fill:#000000;fill-opacity:1;stroke-width:0.383418"
     d="m 0.79374997,0.26458333 c -0.29315801,0 -0.52916664,0.23600861 -0.52916664,0.52916661 V 5.5562499 c 0,0.293158 0.23600863,0.5291666 0.52916664,0.5291666 H 5.5562499 c 0.2931581,0 0.5291667,-0.2360086 0.5291667,-0.5291666 V 0.79374994 c 0,-0.293158 -0.2360086,-0.52916661 -0.5291667,-0.52916661 z m 0,0.26458331 H 5.5562499 c 0.1465791,0 0.2645834,0.1180043 0.2645834,0.2645833 V 5.5562499 c 0,0.146579 -0.1180043,0.2645833 -0.2645834,0.2645833 H 0.79374997 c -0.14657899,0 -0.26458331,-0.1180043 -0.26458331,-0.2645833 V 0.79374994 c 0,-0.146579 0.11800432,-0.2645833 0.26458331,-0.2645833 z"
     sodipodi:nodetypes="ssssssssssssssssss" />
</svg>
