<?xml version="1.0" encoding="UTF-8" standalone="no"?>
<!-- Created with Inkscape (http://www.inkscape.org/) -->

<svg
   width="24"
   height="24"
   viewBox="0 0 6.3499999 6.3499999"
   version="1.1"
   id="svg5"
   inkscape:version="1.2 (dc2aedaf03, 2022-05-15)"
   sodipodi:docname="network-server.svg"
   xmlns:inkscape="http://www.inkscape.org/namespaces/inkscape"
   xmlns:sodipodi="http://sodipodi.sourceforge.net/DTD/sodipodi-0.dtd"
   xmlns="http://www.w3.org/2000/svg"
   xmlns:svg="http://www.w3.org/2000/svg">
  <sodipodi:namedview
     id="namedview7"
     pagecolor="#ffffff"
     bordercolor="#666666"
     borderopacity="1.0"
     inkscape:pageshadow="2"
     inkscape:pageopacity="0.0"
     inkscape:pagecheckerboard="0"
     inkscape:document-units="px"
     showgrid="false"
     units="px"
     height="48px"
     inkscape:zoom="17.291667"
     inkscape:cx="12.66506"
     inkscape:cy="17.522892"
     inkscape:window-width="1846"
     inkscape:window-height="1011"
     inkscape:window-x="0"
     inkscape:window-y="0"
     inkscape:window-maximized="1"
     inkscape:current-layer="svg5"
     inkscape:showpageshadow="2"
     inkscape:deskcolor="#d1d1d1" />
  <defs
     id="defs2" />
  <path
     id="rect977"
     style="opacity:1;fill:#444444;fill-opacity:1;stroke-width:0.529167;stroke-linecap:round;stroke-linejoin:round"
     d="M 0.39687499 0.52916666 C 0.17700647 0.52916666 2.4564527e-18 0.70617313 0 0.92604165 L 0 1.984375 C -3.9166161e-17 2.2042435 0.17700647 2.38125 0.39687499 2.38125 C 0.17700647 2.38125 2.4564527e-18 2.5582564 0 2.778125 L 0 3.8364583 C -3.9166161e-17 4.0563268 0.17700647 4.2333333 0.39687499 4.2333333 C 0.17700647 4.2333333 1.2282263e-18 4.4103397 0 4.6302083 L 0 5.6885416 C 7.8332323e-17 5.9084101 0.17700647 6.0854166 0.39687499 6.0854166 L 5.9531249 6.0854166 C 6.1729934 6.0854166 6.3499999 5.9084101 6.3499999 5.6885416 L 6.3499999 4.6302083 C 6.3499999 4.4103397 6.1729934 4.2333333 5.9531249 4.2333333 C 6.1729934 4.2333333 6.3499999 4.0563268 6.3499999 3.8364583 L 6.3499999 2.778125 C 6.3499999 2.5582564 6.1729934 2.38125 5.9531249 2.38125 C 6.1729934 2.38125 6.3499999 2.2042435 6.3499999 1.984375 L 6.3499999 0.92604165 C 6.3499999 0.70617313 6.1729934 0.52916666 5.9531249 0.52916666 L 0.39687499 0.52916666 z " />
  <path
     id="path49032"
     d="M 5.5562499,1.3229166 V 1.5875 H 5.8208332 V 1.3229166 Z m 0,1.8520834 V 3.4395833 H 5.8208332 V 3.175 Z m 0,1.8520833 V 5.2916666 H 5.8208332 V 5.0270833 Z"
     style="fill:#faa41a;fill-opacity:1;stroke-width:0.264583" />
  <path
     id="path49030"
     d="M 5.0270833,1.3229166 V 1.5874999 H 5.2916666 V 1.3229166 Z m 0,1.8520833 V 3.4395832 H 5.2916666 V 3.1749999 Z m 0,1.8520833 V 5.2916665 H 5.2916666 V 5.0270832 Z"
     style="fill:#f15d22;fill-opacity:1;stroke-width:0.264583" />
  <path
     id="rect49028"
     d="M 4.4979166,1.3229166 V 1.5874999 H 4.7624999 V 1.3229166 Z m 0,1.8520833 V 3.4395832 H 4.7624999 V 3.1749999 Z m 0,1.8520833 V 5.2916665 H 4.7624999 V 5.0270832 Z"
     style="fill:#73c48f;fill-opacity:1;stroke-width:0.264583" />
  <path
     d="m 2.629335,0.97578324 c -0.050724,0 -0.1011757,0.01901 -0.1400415,0.057876 L 1.9275692,1.5953834 c -0.077735,0.077735 -0.077735,0.2028678 0,0.2806031 0.077735,0.077735 0.2033841,0.077735 0.2811194,0 L 2.7698967,1.3142621 c 0.077733,-0.077733 0.077733,-0.2028658 -1.8e-6,-0.2806011 -0.038868,-0.038868 -0.089833,-0.057878 -0.1405599,-0.0578778 z m 0.9580811,0 c -0.050724,0 -0.1016921,0.01901 -0.1405597,0.057878 L 2.8856503,1.5953834 c -0.077735,0.077735 -0.077735,0.2028678 0,0.2806031 0.077735,0.077735 0.2028677,0.077735 0.2806031,0 L 3.7274595,1.314264 c 0.077735,-0.077735 0.077735,-0.2028677 0,-0.280603 -0.038868,-0.038868 -0.089316,-0.057878 -0.1400434,-0.0578778 z m -1.9177113,0.00155 c -0.050723,0 -0.101692,0.019527 -0.1405597,0.058394 L 0.96793896,1.5969326 c -0.0777353,0.077735 -0.0777353,0.2028677 0,0.280603 0.0777354,0.077735 0.20286774,0.077735 0.28060314,0 L 1.8097482,1.3163295 c 0.077735,-0.077735 0.077735,-0.2028677 0,-0.2806031 -0.038868,-0.038868 -0.089318,-0.058392 -0.1400434,-0.0583932 z M 2.6293369,2.8278664 c -0.050725,1.8e-6 -0.1011757,0.01901 -0.1400434,0.057878 L 1.927571,3.4474646 c -0.077735,0.077735 -0.077735,0.2028677 0,0.2806031 0.077735,0.077735 0.2033841,0.077735 0.2811195,0 L 2.7698967,3.1663451 c 0.077735,-0.077735 0.077735,-0.2028677 0,-0.2806031 C 2.7310287,2.846875 2.6800607,2.827864 2.6293369,2.827864 Z m 0.958081,0 c -0.050725,1.8e-6 -0.1016921,0.01901 -0.1405596,0.057878 L 2.8856522,3.4474646 c -0.077735,0.077735 -0.077735,0.2028677 0,0.2806031 0.077735,0.077735 0.2028677,0.077735 0.280603,0 L 3.7274613,3.1663451 c 0.077735,-0.077735 0.077735,-0.2028677 0,-0.2806031 C 3.6885933,2.846875 3.6381413,2.827864 3.5874179,2.827864 Z m -1.9177131,0.00156 c -0.050723,0 -0.101692,0.019526 -0.1405597,0.058394 L 0.96793896,3.4490257 c -0.0777353,0.077735 -0.0777353,0.2028676 0,0.280603 0.0777354,0.077735 0.20286774,0.077735 0.28060314,0 L 1.8097482,3.1684226 c 0.077735,-0.077735 0.077735,-0.2028679 0,-0.2806033 -0.038868,-0.038876 -0.08932,-0.058403 -0.1400434,-0.058403 z m 0.9596321,1.8505334 c -0.050724,0 -0.1011757,0.01901 -0.1400434,0.057878 L 1.927571,5.2995588 c -0.077735,0.077735 -0.077735,0.2028676 0,0.280603 0.077735,0.077735 0.2033841,0.077735 0.2811195,0 L 2.7698967,5.0184395 c 0.077735,-0.077735 0.077735,-0.2028679 0,-0.280603 -0.038868,-0.038877 -0.089836,-0.057887 -0.1405598,-0.057887 z m 0.958081,0 c -0.050724,0 -0.1016921,0.01901 -0.1405596,0.057878 l -0.5612061,0.561721 c -0.077735,0.077735 -0.077735,0.2028676 0,0.280603 0.077735,0.077735 0.2028677,0.077735 0.280603,0 L 3.7274613,5.0184395 c 0.077735,-0.077735 0.077735,-0.2028679 0,-0.280603 -0.038868,-0.038868 -0.08932,-0.057878 -0.1400434,-0.057878 z m -1.9177131,0.00156 c -0.050723,0 -0.101692,0.019526 -0.1405597,0.058394 l -0.56120614,0.561206 c -0.0777353,0.077735 -0.0777353,0.2028677 0,0.2806031 0.0777354,0.077735 0.20286774,0.077735 0.28060314,0 L 1.8097482,5.0205168 c 0.077735,-0.077735 0.077735,-0.2028677 0,-0.2806031 -0.038868,-0.038886 -0.089318,-0.058415 -0.1400434,-0.058413 z"
     style="fill:#000000;stroke-width:0.264583"
     id="path52083" />
  <path
     d="M 0.39687503,0.52916666 C 0.17700651,0.52916666 0,0.70617291 0,0.92604166 V 1.984375 C 0,2.2042438 0.17700651,2.38125 0.39687503,2.38125 0.17700651,2.38125 0,2.5582563 0,2.778125 V 3.8364583 C 0,4.0563271 0.17700651,4.2333333 0.39687503,4.2333333 0.17700651,4.2333333 0,4.4103396 0,4.6302083 v 1.0583333 c 0,0.2198688 0.17700651,0.396875 0.39687503,0.396875 H 5.9531249 c 0.2198685,0 0.396875,-0.1770062 0.396875,-0.396875 V 4.6302083 c 0,-0.2198687 -0.1770065,-0.396875 -0.396875,-0.396875 0.2198685,0 0.396875,-0.1770062 0.396875,-0.396875 V 2.778125 c 0,-0.2198687 -0.1770065,-0.396875 -0.396875,-0.396875 0.2198685,0 0.396875,-0.1770062 0.396875,-0.396875 V 0.92604166 c 0,-0.21986875 -0.1770065,-0.396875 -0.396875,-0.396875 z m 0,0.26458333 H 5.9531249 c 0.07329,0 0.1322917,0.0590021 0.1322917,0.13229167 V 1.984375 c 0,0.07329 -0.059002,0.1322917 -0.1322917,0.1322917 H 0.39687503 C 0.32375163,2.1168134 0.26443663,2.0574984 0.26458333,1.984375 V 0.92604166 c 0,-0.0732896 0.059002,-0.13229167 0.1322917,-0.13229167 z m 0,1.85208331 H 5.9531249 c 0.07329,0 0.1322917,0.059002 0.1322917,0.1322917 v 1.0583333 c 0,0.07329 -0.059002,0.1322917 -0.1322917,0.1322917 H 0.39687503 C 0.32375163,3.9688966 0.26443663,3.9095817 0.26458333,3.8364583 V 2.778125 c 0,-0.07329 0.059002,-0.1322917 0.1322917,-0.1322917 z m 0,1.8520833 H 5.9531249 c 0.07329,0 0.1322917,0.059002 0.1322917,0.1322917 v 1.0583333 c 0,0.07329 -0.059002,0.1322917 -0.1322917,0.1322917 H 0.39687503 C 0.32375163,5.8209799 0.26443663,5.7616651 0.26458333,5.6885416 V 4.6302083 c 0,-0.07329 0.059002,-0.1322917 0.1322917,-0.1322917 z"
     style="opacity:0.5;fill:#ffffff;stroke-width:0.264583"
     id="path49746" />
</svg>
