<?xml version="1.0" encoding="UTF-8" standalone="no"?>
<!-- Created with Inkscape (http://www.inkscape.org/) -->

<svg
   width="24"
   height="24"
   viewBox="0 0 6.3499999 6.3499999"
   version="1.1"
   id="svg5"
   inkscape:version="1.2 (dc2aedaf03, 2022-05-15)"
   sodipodi:docname="tablet.svg"
   xmlns:inkscape="http://www.inkscape.org/namespaces/inkscape"
   xmlns:sodipodi="http://sodipodi.sourceforge.net/DTD/sodipodi-0.dtd"
   xmlns="http://www.w3.org/2000/svg"
   xmlns:svg="http://www.w3.org/2000/svg">
  <sodipodi:namedview
     id="namedview7"
     pagecolor="#ffffff"
     bordercolor="#666666"
     borderopacity="1.0"
     inkscape:pageshadow="2"
     inkscape:pageopacity="0.0"
     inkscape:pagecheckerboard="0"
     inkscape:document-units="px"
     showgrid="false"
     units="px"
     height="48px"
     inkscape:zoom="17.699767"
     inkscape:cx="7.5142232"
     inkscape:cy="13.474754"
     inkscape:window-width="1846"
     inkscape:window-height="1011"
     inkscape:window-x="74"
     inkscape:window-y="32"
     inkscape:window-maximized="1"
     inkscape:current-layer="svg5"
     showguides="false"
     inkscape:showpageshadow="2"
     inkscape:deskcolor="#d1d1d1" />
  <defs
     id="defs2" />
  <rect
     style="opacity:1;fill:#545454;fill-opacity:1;stroke-width:0.264583"
     id="rect1162"
     width="6.3499999"
     height="5.2916665"
     x="0"
     y="0.52916664"
     ry="0.52916664" />
  <path
     id="rect17513"
     style="fill:#ffffff;fill-opacity:1;stroke-width:0.529167;stroke-linejoin:round;opacity:0.5"
     d="M 0.52916666 0.52916666 C 0.23600863 0.52916666 0 0.76517529 0 1.0583333 L 0 5.2916666 C 7.8332323e-17 5.5848246 0.23600863 5.8208332 0.52916666 5.8208332 L 5.8208332 5.8208332 C 6.1139913 5.8208332 6.3499999 5.5848246 6.3499999 5.2916666 L 6.3499999 1.0583333 C 6.3499999 0.76517529 6.1139913 0.52916666 5.8208332 0.52916666 L 0.52916666 0.52916666 z M 0.66145832 0.79374999 L 5.6885416 0.79374999 C 5.9084101 0.79374999 6.0854166 0.97075645 6.0854166 1.190625 L 6.0854166 5.1593749 C 6.0854166 5.3792434 5.9084101 5.5562499 5.6885416 5.5562499 L 0.66145832 5.5562499 C 0.4415898 5.5562499 0.26458333 5.3792434 0.26458333 5.1593749 L 0.26458333 1.190625 C 0.26458333 0.97075645 0.4415898 0.79374999 0.66145832 0.79374999 z " />
  <rect
     style="fill:#222222;fill-opacity:1;stroke-width:0.547741;stroke-linecap:round;stroke-linejoin:round"
     id="rect1282"
     width="4.7624998"
     height="3.7041667"
     x="0.79374999"
     y="1.3229166" />
</svg>
