<?xml version="1.0" encoding="UTF-8" standalone="no"?>
<!-- Created with Inkscape (http://www.inkscape.org/) -->

<svg
   width="24"
   height="24"
   viewBox="0 0 6.3499999 6.3499999"
   version="1.1"
   id="svg5"
   inkscape:version="1.2 (dc2aedaf03, 2022-05-15)"
   sodipodi:docname="application-x-tar.svg"
   xmlns:inkscape="http://www.inkscape.org/namespaces/inkscape"
   xmlns:sodipodi="http://sodipodi.sourceforge.net/DTD/sodipodi-0.dtd"
   xmlns="http://www.w3.org/2000/svg"
   xmlns:svg="http://www.w3.org/2000/svg">
  <sodipodi:namedview
     id="namedview7"
     pagecolor="#ffffff"
     bordercolor="#666666"
     borderopacity="1.0"
     inkscape:pageshadow="2"
     inkscape:pageopacity="0.0"
     inkscape:pagecheckerboard="0"
     inkscape:document-units="px"
     showgrid="false"
     units="px"
     height="48px"
     inkscape:zoom="17.699767"
     inkscape:cx="-3.1921324"
     inkscape:cy="12.034057"
     inkscape:window-width="1920"
     inkscape:window-height="1014"
     inkscape:window-x="0"
     inkscape:window-y="0"
     inkscape:window-maximized="1"
     inkscape:current-layer="svg5"
     showguides="false"
     inkscape:showpageshadow="2"
     inkscape:deskcolor="#d1d1d1" />
  <defs
     id="defs2" />
  <rect
     style="opacity:1;fill:#a19282;fill-opacity:1;stroke-width:0.264583"
     id="rect1162"
     width="5.8208332"
     height="5.8208332"
     x="0.26458332"
     y="0.26458332"
     ry="0.26458332" />
  <rect
     style="opacity:1;fill:#d7c3ad;fill-opacity:1;stroke-width:0.264583"
     id="rect1136"
     width="5.2916665"
     height="4.4979167"
     x="0.52916664"
     y="0.5291667"
     ry="0.13229166" />
  <path
     d="M 1.5875,1.8520833 V 2.1166666 H 1.8520833 V 3.4395832 H 2.1166667 V 2.1166666 H 2.38125 V 1.8520833 Z M 3.7041666,3.4395832 H 3.96875 V 2.9104166 H 4.2333333 L 4.4979166,3.4395832 H 4.7625 L 4.5174958,2.8273374 C 4.670003,2.7302614 4.7623947,2.5620397 4.7625,2.3812499 4.7625,2.0889912 4.5255839,1.8520833 4.2333333,1.8520833 H 3.7041666 M 3.96875,2.6458333 V 2.1166666 h 0.2645833 c 0.1461254,0 0.2645833,0.1184539 0.2645833,0.2645833 0,0.1461294 -0.1184579,0.2645834 -0.2645833,0.2645834 z M 2.38125,3.4395832 H 2.6458333 V 2.9104166 H 3.175 V 3.4395832 H 3.4395833 V 2.3812499 c 0,-0.2922587 -0.2369161,-0.5291666 -0.5291666,-0.5291666 -0.2922506,0 -0.5291667,0.2369079 -0.5291667,0.5291666 z M 2.6458333,2.6458333 V 2.3812499 c 0,-0.1461294 0.118458,-0.2645833 0.2645834,-0.2645833 0.1461254,0 0.2645833,0.1184539 0.2645833,0.2645833 v 0.2645834 z"
     style="fill:#635749;fill-opacity:1;stroke-width:0.264583"
     id="path3827" />
</svg>
