<?xml version="1.0" encoding="UTF-8" standalone="no"?>
<!-- Created with Inkscape (http://www.inkscape.org/) -->

<svg
   width="24"
   height="24"
   viewBox="0 0 6.3499999 6.3499999"
   version="1.1"
   id="svg5"
   inkscape:version="1.2 (dc2aedaf03, 2022-05-15)"
   sodipodi:docname="application-x-javascript.svg"
   xmlns:inkscape="http://www.inkscape.org/namespaces/inkscape"
   xmlns:sodipodi="http://sodipodi.sourceforge.net/DTD/sodipodi-0.dtd"
   xmlns="http://www.w3.org/2000/svg"
   xmlns:svg="http://www.w3.org/2000/svg">
  <sodipodi:namedview
     id="namedview7"
     pagecolor="#ffffff"
     bordercolor="#666666"
     borderopacity="1.0"
     inkscape:pageshadow="2"
     inkscape:pageopacity="0.0"
     inkscape:pagecheckerboard="0"
     inkscape:document-units="px"
     showgrid="false"
     units="px"
     height="48px"
     inkscape:zoom="32.416667"
     inkscape:cx="6.0771208"
     inkscape:cy="12.092545"
     inkscape:window-width="1920"
     inkscape:window-height="1014"
     inkscape:window-x="0"
     inkscape:window-y="0"
     inkscape:window-maximized="1"
     inkscape:current-layer="svg5"
     showguides="false"
     inkscape:showpageshadow="2"
     inkscape:deskcolor="#d1d1d1" />
  <defs
     id="defs2" />
  <path
     d="M 1.1906263,1.5894574e-6 C 0.82500972,-7.9221054e-4 0.52843452,0.29584279 0.52916802,0.66145989 V 5.6885405 c 0,0.3664479 0.2950104,0.6614588 0.66145828,0.6614588 h 3.9687499 c 0.366448,0 0.6614584,-0.2950109 0.6614584,-0.6614588 V 1.9843765 L 3.8364596,1.5894574e-6 Z"
     style="fill:#6f6f6f;stroke-width:0.264583;fill-opacity:1"
     id="path1100" />
  <path
     d="m 5.55625,2.1166666 v 3.4395833 c 0,0.2931583 -0.2360083,0.5291667 -0.5291667,0.5291667 H 1.3229167 c -0.2931583,0 -0.52916671,-0.2360084 -0.52916671,-0.5291667 V 0.79375003 c 0,-0.2931584 0.23600841,-0.5291667 0.52916671,-0.5291667 h 2.38125"
     style="fill:#ececec;stroke-width:0.264583;fill-opacity:1"
     id="path1319" />
  <path
     d="m 3.4357175,5.2039571 c -0.1173485,0 -0.2271609,-0.011845 -0.3294372,-0.035533 C 3.004004,5.1447513 2.8952682,5.1081515 2.7800729,5.0586215 l -0.00323,-0.4150254 h 0.2406182 l 0.059751,0.2502958 c 0.1141188,0.047378 0.2336205,0.071067 0.3585051,0.071067 0.129191,0 0.221778,-0.024765 0.2777609,-0.074295 0.055983,-0.049512 0.083974,-0.1108781 0.083974,-0.1840971 0,-0.068897 -0.02853,-0.1270264 -0.085589,-0.1743868 C 3.6558797,4.4837261 3.5536034,4.4428125 3.4050338,4.4094399 3.1940217,4.3609859 3.0384541,4.2963921 2.938331,4.215659 2.8392845,4.1338321 2.7897614,4.0250974 2.7897614,3.8894542 c 0,-0.094756 0.027453,-0.1792729 0.082359,-0.2535502 0.054906,-0.075353 0.1313442,-0.1351049 0.2293141,-0.1792552 0.09797,-0.044132 0.2120887,-0.066199 0.3423566,-0.066199 0.1324208,0 0.2454629,0.015073 0.3391265,0.045217 0.09474,0.030145 0.1770995,0.070511 0.2470781,0.1210998 l 0.01615,0.3988858 H 3.8071425 L 3.7554659,3.7231107 c -0.037681,-0.027993 -0.082359,-0.04953 -0.1340357,-0.064611 -0.051676,-0.014994 -0.1108888,-0.02249 -0.1776376,-0.02249 -0.099047,0 -0.179791,0.023151 -0.2422334,0.069453 -0.061366,0.046284 -0.092049,0.1044133 -0.092049,0.1743869 0,0.040922 0.00861,0.076456 0.025839,0.1066006 0.018301,0.030145 0.052753,0.057591 0.1033529,0.082338 0.0506,0.023688 0.1248846,0.047378 0.2228546,0.071067 0.24331,0.057062 0.4128734,0.1297339 0.5086901,0.2180167 0.096893,0.088283 0.1453398,0.1970174 0.1453398,0.3262048 0,0.1474964 -0.054906,0.2713037 -0.1647187,0.371422 C 3.8421326,5.1545417 3.6704162,5.204063 3.4357191,5.204063 Z M 2.0764077,5.8757607 c -0.034451,0 -0.065672,-0.00265 -0.093664,-0.00794 -0.027991,-0.00441 -0.057059,-0.011377 -0.087204,-0.020902 l 0.020995,-0.242226 c 0.015073,0.00547 0.040372,0.010319 0.0759,0.014552 0.036604,0.00423 0.064596,0.00635 0.083974,0.00635 0.063519,0 0.1135806,-0.027993 0.1501846,-0.083979 0.037681,-0.054892 0.056521,-0.1307836 0.056521,-0.227674 V 3.6732103 L 2.0198877,3.627993 V 3.422888 h 0.5813599 v 1.8910564 c 0,0.1797757 -0.046293,0.3181173 -0.1388806,0.4150254 C 2.36978,5.8269368 2.2411274,5.8759194 2.0764088,5.8759194 Z M 2.2669646,2.9915643 V 2.6508338 h 0.334282 v 0.3407305 z m -0.169137,2.766298 C 1.887892,5.6986486 1.7382457,5.6044482 1.6488886,5.4752609 1.560608,5.3460736 1.5164676,5.1899694 1.5164676,5.0069484 V 4.6759017 c 0,-0.1205793 -0.027453,-0.2142418 -0.082359,-0.2809875 C 1.3792022,4.3270751 1.2946897,4.2931555 1.1805708,4.2931555 V 4.0557713 c 0.1141189,0 0.1986314,-0.032835 0.2535375,-0.098504 0.054906,-0.066746 0.082359,-0.160946 0.082359,-0.2826014 v -0.332661 c 0,-0.1840971 0.04414,-0.34021 0.1324211,-0.468339 0.089357,-0.1291873 0.2390034,-0.2233877 0.448939,-0.2826014 l 0.064596,0.1889389 C 2.043998,2.8176978 1.9594855,2.885528 1.9088857,2.9834945 c -0.049523,0.09689 -0.074285,0.2163939 -0.074285,0.3585104 v 0.3326606 c 0,0.1130477 -0.022608,0.2126279 -0.067825,0.298741 -0.045217,0.086131 -0.1135804,0.1534232 -0.2050908,0.2018771 0.09151,0.049512 0.159874,0.1178719 0.2050908,0.2050785 0.045217,0.086131 0.067825,0.184644 0.067825,0.2955396 v 0.3310467 c 0,0.142099 0.024761,0.2610644 0.074285,0.3568964 0.0506,0.09689 0.1351123,0.1647119 0.2535375,0.2034646 z m 2.0447847,0 -0.064595,-0.1905529 c 0.116272,-0.038753 0.1997078,-0.1065741 0.2503075,-0.2034646 0.0506,-0.095832 0.0759,-0.2147974 0.0759,-0.3568964 V 4.6759017 c 0,-0.1151996 0.024223,-0.2158648 0.07267,-0.3019954 C 4.5253408,4.2877757 4.6001642,4.221568 4.7013639,4.1752836 4.6001642,4.1311334 4.5253408,4.065993 4.4768943,3.9798624 4.4284478,3.8937492 4.4042244,3.7920169 4.4042244,3.6746655 V 3.3420049 c 0,-0.1421165 -0.0253,-0.26162 -0.0759,-0.3585104 C 4.2777247,2.885528 4.1942889,2.8176978 4.0780169,2.7800034 l 0.064595,-0.1889389 c 0.2088589,0.059214 0.3574286,0.1534141 0.4457092,0.2826014 0.089357,0.128129 0.1340358,0.2842419 0.1340358,0.468339 v 0.3326606 c 0,0.1216554 0.027453,0.2158558 0.082359,0.2826014 0.054906,0.06567 0.1399569,0.098504 0.2551522,0.098504 v 0.2373842 c -0.1151953,0 -0.2002462,0.03392 -0.2551522,0.1017587 -0.054906,0.066746 -0.082359,0.1604082 -0.082359,0.2809875 V 5.006948 c 0,0.183021 -0.044679,0.3391252 -0.1340358,0.4683125 -0.088281,0.1291873 -0.2368503,0.2233877 -0.4457088,0.2826018 z"
     style="letter-spacing:-0.85;fill:#817205;fill-opacity:1;stroke-width:0.264583"
     id="path1633" />
  <path
     d="m 5.55625,2.38125 h -1.5875 c -0.2931583,0 -0.5291667,-0.2360084 -0.5291667,-0.5291667 V 0.26458333 H 3.7041667 L 5.55625,2.1166666 Z"
     style="opacity:0.5;fill:#6f6f6f;fill-opacity:1;stroke-width:0.264583"
     id="path15155" />
  <path
     d="M 5.55625,2.1166666 H 4.2333333 c -0.2931583,0 -0.5291666,-0.2360083 -0.5291666,-0.5291667 V 0.26458333"
     style="fill:#fafafa;stroke-width:0.264583"
     id="path15183" />
</svg>
