<?xml version="1.0" encoding="UTF-8" standalone="no"?>
<!-- Created with Inkscape (http://www.inkscape.org/) -->

<svg
   width="24"
   height="24"
   viewBox="0 0 6.3499999 6.3499999"
   version="1.1"
   id="svg5"
   inkscape:version="1.2.1 (9c6d41e410, 2022-07-14, custom)"
   sodipodi:docname="application-x-alpm-package.svg"
   xmlns:inkscape="http://www.inkscape.org/namespaces/inkscape"
   xmlns:sodipodi="http://sodipodi.sourceforge.net/DTD/sodipodi-0.dtd"
   xmlns="http://www.w3.org/2000/svg"
   xmlns:svg="http://www.w3.org/2000/svg">
  <sodipodi:namedview
     id="namedview7"
     pagecolor="#ffffff"
     bordercolor="#666666"
     borderopacity="1.0"
     inkscape:pageshadow="2"
     inkscape:pageopacity="0.0"
     inkscape:pagecheckerboard="0"
     inkscape:document-units="px"
     showgrid="false"
     units="px"
     height="48px"
     inkscape:zoom="33.416667"
     inkscape:cx="11.985037"
     inkscape:cy="12"
     inkscape:window-width="1920"
     inkscape:window-height="1011"
     inkscape:window-x="0"
     inkscape:window-y="0"
     inkscape:window-maximized="1"
     inkscape:current-layer="svg5"
     showguides="false"
     inkscape:showpageshadow="2"
     inkscape:deskcolor="#d1d1d1" />
  <defs
     id="defs2" />
  <rect
     style="opacity:1;fill:#2176a0;fill-opacity:1;stroke-width:0.264583"
     id="rect1162"
     width="5.8208332"
     height="5.8208332"
     x="0.26458332"
     y="0.26458332"
     ry="0.26458332" />
  <rect
     style="opacity:1;fill:#82c4e5;fill-opacity:1;stroke-width:0.264583"
     id="rect1136"
     width="5.2916665"
     height="4.4979167"
     x="0.52916664"
     y="0.5291667"
     ry="0.13229166" />
  <path
     id="path306"
     style="fill:#1a5b7c;fill-opacity:1;stroke-width:0.264583"
     d="m 1.3229166,1.8520833 v 0.2645833 h 0.79375 l -0.79375,1.3229167 V 3.7041666 H 2.3812499 V 3.4395833 h -0.79375 l 0.79375,-1.3229167 V 1.8520833 Z m 1.8386474,0 C 2.875627,1.8593276 2.6458344,2.0935672 2.6458333,2.38125 c 0,0.2922501 0.2369165,0.5291666 0.5291666,0.5291666 0.1461251,0 0.2645833,0.1184583 0.2645833,0.2645834 0,0.1461249 -0.1184867,0.2616956 -0.2645833,0.2645833 H 2.6458333 v 0.2645833 h 0.5291666 c 0.292251,0 0.529168,-0.2369156 0.5291667,-0.5291666 0,-0.2922503 -0.2369166,-0.5291667 -0.5291667,-0.5291667 -0.146125,0 -0.2645833,-0.1184583 -0.2645833,-0.2645833 0,-0.1461252 0.1184583,-0.2645834 0.2645833,-0.2645834 H 3.7041666 V 1.8520833 H 3.1749999 c -0.00457,0 -0.0089,-1.15e-4 -0.013436,0 z m 0.807186,0 v 0.2645833 h 0.5291666 v 1.5875 H 4.7625 v -1.5875 H 5.2916666 V 1.8520833 Z"
     sodipodi:nodetypes="cccccccccccscsscccscsssccssccccccccc" />
</svg>
