<?xml version="1.0" encoding="UTF-8" standalone="no"?>
<!-- Created with Inkscape (http://www.inkscape.org/) -->

<svg
   width="24"
   height="24"
   viewBox="0 0 6.3499999 6.3499999"
   version="1.1"
   id="svg5"
   inkscape:version="1.2 (dc2aedaf03, 2022-05-15)"
   sodipodi:docname="application-x-epub.svg"
   xmlns:inkscape="http://www.inkscape.org/namespaces/inkscape"
   xmlns:sodipodi="http://sodipodi.sourceforge.net/DTD/sodipodi-0.dtd"
   xmlns="http://www.w3.org/2000/svg"
   xmlns:svg="http://www.w3.org/2000/svg">
  <sodipodi:namedview
     id="namedview7"
     pagecolor="#ffffff"
     bordercolor="#666666"
     borderopacity="1.0"
     inkscape:pageshadow="2"
     inkscape:pageopacity="0.0"
     inkscape:pagecheckerboard="0"
     inkscape:document-units="px"
     showgrid="false"
     units="px"
     height="48px"
     inkscape:zoom="33.333333"
     inkscape:cx="12.045"
     inkscape:cy="12"
     inkscape:window-width="1920"
     inkscape:window-height="1014"
     inkscape:window-x="0"
     inkscape:window-y="0"
     inkscape:window-maximized="1"
     inkscape:current-layer="svg5"
     inkscape:showpageshadow="2"
     inkscape:deskcolor="#d1d1d1" />
  <defs
     id="defs2" />
  <rect
     style="opacity:1;fill:#425c0b;fill-opacity:1;stroke-width:0.264583"
     id="rect1162"
     width="5.2916665"
     height="6.0854168"
     x="0.52916664"
     y="0.26458332"
     ry="0.39687499" />
  <rect
     style="opacity:1;fill:#dedede;fill-opacity:1;stroke-width:0.529167;stroke-linecap:round;stroke-linejoin:round"
     id="rect977"
     width="4.7624998"
     height="5.5562501"
     x="0.79374999"
     y="0.52916664"
     ry="0.26458332" />
  <rect
     style="opacity:1;fill:#425c0b;fill-opacity:1;stroke-width:0.264583"
     id="rect4725"
     width="4.7624998"
     height="5.5562501"
     x="0.52916664"
     y="0"
     ry="0.39687499" />
  <rect
     style="opacity:1;fill:#85b916;fill-opacity:1;stroke-width:0.264583"
     id="rect6179"
     width="4.2333331"
     height="5.0270834"
     x="0.79374999"
     y="0.26458332"
     ry="0.26458332" />
  <path
     d="M 3.1496566,3.7571391 2.3342107,2.9414287 3.1496566,2.1259829 3.4216482,2.3979746 2.8776649,2.9414287 3.1496566,3.2134204 3.9651024,2.3979746 3.2546961,1.6875683 c -0.058045,-0.05793 -0.1520338,-0.05793 -0.2100791,0 L 1.8955316,2.8366537 c -0.057931,0.058045 -0.057931,0.1520338 0,0.2100792 L 3.044617,4.1958183 c 0.058208,0.057944 0.1521354,0.057944 0.2100791,0 L 4.4037815,3.0467329 c 0.057931,-0.058045 0.057931,-0.1520338 0,-0.2100792 L 4.237094,2.6699662 Z"
     style="fill:#ffffff;stroke-width:0.264583"
     id="path14503" />
  <path
     id="rect9449"
     style="opacity:1;fill:#253907;stroke-width:0.264583;fill-opacity:1"
     d="M 1.0583333,0.26458332 H 1.3229167 V 6.0854165 H 1.0583333 c -0.14657915,0 -0.26458331,-0.1180041 -0.26458331,-0.2645833 V 0.52916664 c 0,-0.14657916 0.11800416,-0.26458332 0.26458331,-0.26458332 z"
     sodipodi:nodetypes="sccssss" />
</svg>
