<?xml version="1.0" encoding="UTF-8" standalone="no"?>
<!-- Created with Inkscape (http://www.inkscape.org/) -->

<svg
   width="24"
   height="24"
   viewBox="0 0 6.3499999 6.3499999"
   version="1.1"
   id="svg5"
   inkscape:version="1.2 (dc2aedaf03, 2022-05-15)"
   sodipodi:docname="application-photoshop.svg"
   xmlns:inkscape="http://www.inkscape.org/namespaces/inkscape"
   xmlns:sodipodi="http://sodipodi.sourceforge.net/DTD/sodipodi-0.dtd"
   xmlns="http://www.w3.org/2000/svg"
   xmlns:svg="http://www.w3.org/2000/svg">
  <sodipodi:namedview
     id="namedview7"
     pagecolor="#ffffff"
     bordercolor="#666666"
     borderopacity="1.0"
     inkscape:pageshadow="2"
     inkscape:pageopacity="0.0"
     inkscape:pagecheckerboard="0"
     inkscape:document-units="px"
     showgrid="false"
     units="px"
     height="48px"
     inkscape:zoom="33.041667"
     inkscape:cx="12.030265"
     inkscape:cy="15.64691"
     inkscape:window-width="1920"
     inkscape:window-height="1014"
     inkscape:window-x="0"
     inkscape:window-y="0"
     inkscape:window-maximized="1"
     inkscape:current-layer="svg5"
     showguides="true"
     inkscape:showpageshadow="2"
     inkscape:deskcolor="#d1d1d1" />
  <defs
     id="defs2" />
  <rect
     style="opacity:1;fill:#245c63;fill-opacity:1;stroke-width:0.264583"
     id="rect1162"
     width="6.3499999"
     height="5.2916665"
     x="0"
     y="0.52916664"
     ry="0.52916664" />
  <rect
     style="opacity:1;fill:#48b9c7;fill-opacity:1;stroke-width:0.383418"
     id="rect1437"
     width="5.8208332"
     height="4.7624998"
     x="0.26458332"
     y="0.79374999"
     ry="0.39687499" />
  <rect
     style="fill:#001d26;fill-opacity:1;stroke-width:0.547741;stroke-linecap:round;stroke-linejoin:round"
     id="rect1282"
     width="4.7624998"
     height="3.7041667"
     x="0.79374999"
     y="1.3229166"
     ry="0.26458332" />
  <path
     d="m 3.9381262,2.5822566 c 0.1072478,0 0.2079101,0.016007 0.3019872,0.047979 0.094077,0.031986 0.1768647,0.077145 0.2483633,0.135472 L 4.3247827,3.0168929 C 4.2024825,2.939751 4.0792417,2.90118 3.9550601,2.90118 c -0.058328,0 -0.1034846,0.010345 -0.1354709,0.031044 -0.030105,0.018812 -0.045157,0.046098 -0.045157,0.081849 0,0.028223 0.00659,0.051742 0.019756,0.070556 0.015052,0.016933 0.044217,0.034809 0.087492,0.053623 0.043276,0.018812 0.1100701,0.041394 0.200384,0.067736 0.1561679,0.045156 0.2718827,0.1044257 0.3471442,0.1778053 0.077143,0.071498 0.1157147,0.1712198 0.1157147,0.2991643 0,0.1016027 -0.029164,0.190037 -0.087492,0.2652977 C 4.3991031,4.0216373 4.3191379,4.0780837 4.2175347,4.117594 4.1159315,4.157107 4.0030391,4.176863 3.8788575,4.176863 3.7527944,4.176863 3.6351979,4.157099 3.5260687,4.117594 3.4188214,4.0780837 3.3275666,4.0235187 3.2523051,3.9539015 L 3.469623,3.7111807 c 0.1260631,0.09784 0.2587117,0.1467618 0.3979457,0.1467618 0.067735,0 0.1204185,-0.012224 0.1580494,-0.03669 0.039512,-0.024447 0.059268,-0.059269 0.059268,-0.1044258 0,-0.035748 -0.00753,-0.063971 -0.022579,-0.084669 -0.015052,-0.02069 -0.044217,-0.039513 -0.087492,-0.056446 C 3.93154,3.5568996 3.8628639,3.5343174 3.7687868,3.5079754 3.6201452,3.4647002 3.5091343,3.4044916 3.4357542,3.3273471 3.3623741,3.2502051 3.3256841,3.1542461 3.3256841,3.0394725 c 0,-0.08655 0.024461,-0.1636951 0.07338,-0.2314311 C 3.4498661,2.7384264 3.5213644,2.6838619 3.6135597,2.644349 3.7076367,2.602955 3.8158252,2.582257 3.9381262,2.5822566 Z M 2.4366558,2.1730229 c 0.2577711,0 0.4581551,0.053623 0.6011521,0.160872 0.142997,0.1072488 0.2144956,0.2662369 0.2144956,0.4769696 0,0.2201413 -0.070558,0.3866568 -0.2116733,0.4995492 C 2.9013961,3.421425 2.7141831,3.4769292 2.4789904,3.4769292 H 2.2673172 V 4.1288837 H 1.8044583 V 2.1730229 Z m 0.00282,0.9708753 c 0.1091292,0 0.1919171,-0.0254 0.2483633,-0.076203 0.058328,-0.052684 0.087492,-0.1382951 0.087492,-0.2568311 0,-0.2050865 -0.1147738,-0.307631 -0.3443218,-0.307631 H 2.2673179 v 0.6406647 z"
     style="font-weight:bold;font-size:10.667px;line-height:1.25;font-family:'Fira Sans';letter-spacing:0;word-spacing:0;fill:#00c8ff;fill-opacity:1;stroke-width:0.0330729"
     id="path849" />
</svg>
