<?xml version="1.0" encoding="UTF-8" standalone="no"?>
<!-- Created with Inkscape (http://www.inkscape.org/) -->

<svg
   width="24"
   height="24"
   viewBox="0 0 6.3499999 6.3499999"
   version="1.1"
   id="svg5"
   inkscape:version="1.2 (dc2aedaf03, 2022-05-15)"
   sodipodi:docname="application-illustrator.svg"
   xmlns:inkscape="http://www.inkscape.org/namespaces/inkscape"
   xmlns:sodipodi="http://sodipodi.sourceforge.net/DTD/sodipodi-0.dtd"
   xmlns="http://www.w3.org/2000/svg"
   xmlns:svg="http://www.w3.org/2000/svg">
  <sodipodi:namedview
     id="namedview7"
     pagecolor="#ffffff"
     bordercolor="#666666"
     borderopacity="1.0"
     inkscape:pageshadow="2"
     inkscape:pageopacity="0.0"
     inkscape:pagecheckerboard="0"
     inkscape:document-units="px"
     showgrid="false"
     units="px"
     height="48px"
     inkscape:zoom="33.041667"
     inkscape:cx="12.030265"
     inkscape:cy="15.64691"
     inkscape:window-width="1920"
     inkscape:window-height="1014"
     inkscape:window-x="0"
     inkscape:window-y="0"
     inkscape:window-maximized="1"
     inkscape:current-layer="svg5"
     showguides="true"
     inkscape:showpageshadow="2"
     inkscape:deskcolor="#d1d1d1" />
  <defs
     id="defs2" />
  <rect
     style="opacity:1;fill:#245c63;fill-opacity:1;stroke-width:0.264583"
     id="rect1162"
     width="6.3499999"
     height="5.2916665"
     x="0"
     y="0.52916664"
     ry="0.52916664" />
  <rect
     style="opacity:1;fill:#48b9c7;fill-opacity:1;stroke-width:0.383418"
     id="rect1437"
     width="5.8208332"
     height="4.7624998"
     x="0.26458332"
     y="0.79374999"
     ry="0.39687499" />
  <rect
     style="fill:#f6f6f6;fill-opacity:1;stroke-width:0.547741;stroke-linecap:round;stroke-linejoin:round"
     id="rect1282"
     width="4.7624998"
     height="3.7041667"
     x="0.79374999"
     y="1.3229166"
     ry="0.26458332" />
  <path
     d="m 4.0904582,2.0306771 c -0.1553104,0 -0.2624667,0.1100666 -0.2624667,0.254 0,0.1439333 0.1071563,0.254 0.2624667,0.254 0.1553104,0 0.2653771,-0.1100667 0.2653771,-0.254 0,-0.1439334 -0.1100667,-0.254 -0.2653771,-0.254 z M 4.3161478,2.8209875 H 3.8703249 V 4.3195874 H 4.3161478 Z M 3.2443207,4.3193229 H 3.7353874 L 3.1749999,2.38125 H 2.6458332 L 1.9941645,4.3193229 H 2.473854 L 2.572544,3.8986354 H 3.1427207 Z M 2.651654,3.5628791 l 0.2061105,-0.8636 0.2058458,0.8636 z"
     style="fill:#ff7c00;stroke-width:0.0330729"
     id="path4356" />
</svg>
