<?xml version="1.0" encoding="UTF-8" standalone="no"?>
<!-- Created with Inkscape (http://www.inkscape.org/) -->

<svg
   width="24"
   height="24"
   viewBox="0 0 6.3499999 6.3499999"
   version="1.1"
   id="svg5"
   inkscape:version="1.2 (dc2aedaf03, 2022-05-15)"
   sodipodi:docname="application-x-gzip.svg"
   xmlns:inkscape="http://www.inkscape.org/namespaces/inkscape"
   xmlns:sodipodi="http://sodipodi.sourceforge.net/DTD/sodipodi-0.dtd"
   xmlns="http://www.w3.org/2000/svg"
   xmlns:svg="http://www.w3.org/2000/svg">
  <sodipodi:namedview
     id="namedview7"
     pagecolor="#ffffff"
     bordercolor="#666666"
     borderopacity="1.0"
     inkscape:pageshadow="2"
     inkscape:pageopacity="0.0"
     inkscape:pagecheckerboard="0"
     inkscape:document-units="px"
     showgrid="false"
     units="px"
     height="48px"
     inkscape:zoom="17.699767"
     inkscape:cx="-3.2203814"
     inkscape:cy="12.034057"
     inkscape:window-width="1920"
     inkscape:window-height="1009"
     inkscape:window-x="0"
     inkscape:window-y="0"
     inkscape:window-maximized="1"
     inkscape:current-layer="svg5"
     showguides="false"
     inkscape:showpageshadow="2"
     inkscape:deskcolor="#d1d1d1" />
  <defs
     id="defs2" />
  <rect
     style="opacity:1;fill:#a19282;fill-opacity:1;stroke-width:0.264583"
     id="rect1162"
     width="5.8208332"
     height="5.8208332"
     x="0.26458332"
     y="0.26458332"
     ry="0.26458332" />
  <rect
     style="opacity:1;fill:#d7c3ad;fill-opacity:1;stroke-width:0.264583"
     id="rect1136"
     width="5.2916665"
     height="4.4979167"
     x="0.52916664"
     y="0.5291667"
     ry="0.13229166" />
  <path
     d="m 1.8520833,2.9104166 c 0,0.2931583 0.2360084,0.5291667 0.5291667,0.5291667 0.2931583,0 0.5291667,-0.2360084 0.5291667,-0.5291667 V 2.6458333 H 2.38125 v 0.2645833 h 0.2645833 c 0,0.1465792 -0.1180041,0.2645833 -0.2645833,0.2645833 -0.1465792,0 -0.2645833,-0.1180041 -0.2645833,-0.2645833 V 2.38125 c 0,-0.1465792 0.1180041,-0.2645834 0.2645833,-0.2645834 0.1465792,0 0.2645833,0.1180042 0.2645833,0.2645834 h 0.2645834 c 0,-0.2931584 -0.2360084,-0.5291667 -0.5291667,-0.5291667 -0.2931583,0 -0.5291667,0.2360083 -0.5291667,0.5291667 z m 1.5875,-0.79375 h 0.79375 l -0.79375,1.0583333 V 3.4395833 H 4.4979166 V 3.1749999 h -0.79375 l 0.79375,-1.0583333 V 1.8520833 H 3.4395833 Z"
     style="fill:#635749;stroke-width:0.264583"
     id="path926" />
</svg>
