<?xml version="1.0" encoding="UTF-8" standalone="no"?>
<!-- Created with Inkscape (http://www.inkscape.org/) -->

<svg
   width="24"
   height="24"
   viewBox="0 0 6.3499999 6.3499999"
   version="1.1"
   id="svg5"
   inkscape:version="1.2 (dc2aedaf03, 2022-05-15)"
   sodipodi:docname="image-x-xcf.svg"
   xmlns:inkscape="http://www.inkscape.org/namespaces/inkscape"
   xmlns:sodipodi="http://sodipodi.sourceforge.net/DTD/sodipodi-0.dtd"
   xmlns="http://www.w3.org/2000/svg"
   xmlns:svg="http://www.w3.org/2000/svg">
  <sodipodi:namedview
     id="namedview7"
     pagecolor="#ffffff"
     bordercolor="#666666"
     borderopacity="1.0"
     inkscape:pageshadow="2"
     inkscape:pageopacity="0.0"
     inkscape:pagecheckerboard="0"
     inkscape:document-units="px"
     showgrid="false"
     units="px"
     height="48px"
     inkscape:zoom="33.041667"
     inkscape:cx="11.984867"
     inkscape:cy="15.64691"
     inkscape:window-width="1920"
     inkscape:window-height="1014"
     inkscape:window-x="0"
     inkscape:window-y="0"
     inkscape:window-maximized="1"
     inkscape:current-layer="svg5"
     showguides="true"
     inkscape:showpageshadow="2"
     inkscape:deskcolor="#d1d1d1" />
  <defs
     id="defs2" />
  <rect
     style="opacity:1;fill:#245c63;fill-opacity:1;stroke-width:0.264583"
     id="rect1162"
     width="6.3499999"
     height="5.2916665"
     x="0"
     y="0.52916664"
     ry="0.52916664" />
  <rect
     style="opacity:1;fill:#48b9c7;fill-opacity:1;stroke-width:0.383418"
     id="rect1437"
     width="5.8208332"
     height="4.7624998"
     x="0.26458332"
     y="0.79374999"
     ry="0.39687499" />
  <rect
     style="fill:#f6f6f6;fill-opacity:1;stroke-width:0.547741;stroke-linecap:round;stroke-linejoin:round"
     id="rect1282"
     width="4.7624998"
     height="3.7041667"
     x="0.79374999"
     y="1.3229166"
     ry="0.26458332" />
  <path
     d="M 2.765425,3.9041917 H 2.3865417 l -0.2518833,-0.5588 -0.24765,0.5588 H 1.5187083 L 1.9293417,3.1252584 1.5504584,2.4373416 h 0.3767667 l 0.2116666,0.4699001 0.22225,-0.4699001 h 0.3683 l -0.38735,0.6752168 z M 4.0735261,2.4373416 h 0.8741833 l -0.035983,0.24765 h -0.491067 v 0.3894668 h 0.4275667 v 0.24765 H 4.4206594 V 3.9041917 H 4.0735261 Z M 3.4554578,2.4013583 c 0.091722,0 0.1728611,0.013406 0.2434167,0.040217 0.071967,0.026811 0.1397,0.067028 0.2032,0.12065 l -0.1651,0.19685 c -0.043744,-0.033867 -0.086783,-0.059267 -0.1291167,-0.0762 -0.042333,-0.016933 -0.087489,-0.0254 -0.1354666,-0.0254 -0.098778,0 -0.1770944,0.041628 -0.23495,0.1248834 -0.056444,0.083256 -0.084667,0.2116666 -0.084667,0.3852333 0,0.1707444 0.028222,0.2977444 0.084667,0.381 0.057856,0.081844 0.1375833,0.1227667 0.2391833,0.1227667 0.053622,0 0.1023057,-0.00988 0.14605,-0.029633 0.043744,-0.021167 0.091017,-0.0508 0.1418167,-0.0889 l 0.1545166,0.1989667 c -0.055033,0.055033 -0.122061,0.100189 -0.2010833,0.1354667 -0.077611,0.035278 -0.163689,0.052917 -0.2582333,0.052917 -0.1354667,0 -0.2532944,-0.029633 -0.3534834,-0.0889 C 3.0060189,3.7920084 2.9277022,3.7045194 2.8712579,3.5888084 2.8162245,3.4716861 2.7887079,3.3312807 2.7887079,3.1675917 c 0,-0.1594556 0.028222,-0.297039 0.084667,-0.41275 0.057856,-0.1157112 0.1368777,-0.2032001 0.2370667,-0.2624667 0.1016,-0.060678 0.2166056,-0.091017 0.3450162,-0.091017 z"
     style="font-weight:bold;fill:#9b9291;fill-opacity:1;stroke-width:0.264583;opacity:0.75"
     id="path3184" />
</svg>
