<?xml version="1.0" encoding="UTF-8" standalone="no"?>
<!-- Created with Inkscape (http://www.inkscape.org/) -->

<svg
   width="24"
   height="24"
   viewBox="0 0 6.3499999 6.3499999"
   version="1.1"
   id="svg5"
   inkscape:version="1.2 (dc2aedaf03, 2022-05-15)"
   sodipodi:docname="text-x-html.svg"
   xmlns:inkscape="http://www.inkscape.org/namespaces/inkscape"
   xmlns:sodipodi="http://sodipodi.sourceforge.net/DTD/sodipodi-0.dtd"
   xmlns="http://www.w3.org/2000/svg"
   xmlns:svg="http://www.w3.org/2000/svg">
  <sodipodi:namedview
     id="namedview7"
     pagecolor="#ffffff"
     bordercolor="#666666"
     borderopacity="1.0"
     inkscape:pageshadow="2"
     inkscape:pageopacity="0.0"
     inkscape:pagecheckerboard="0"
     inkscape:document-units="px"
     showgrid="false"
     units="px"
     height="48px"
     inkscape:zoom="45.84409"
     inkscape:cx="8.910636"
     inkscape:cy="14.723817"
     inkscape:window-width="1920"
     inkscape:window-height="1014"
     inkscape:window-x="0"
     inkscape:window-y="0"
     inkscape:window-maximized="1"
     inkscape:current-layer="svg5"
     showguides="false"
     inkscape:showpageshadow="2"
     inkscape:deskcolor="#d1d1d1" />
  <defs
     id="defs2" />
  <path
     d="M 1.1906263,1.5894574e-6 C 0.82500972,-7.9221054e-4 0.52843452,0.29584279 0.52916802,0.66145989 V 5.6885405 c 0,0.3664479 0.2950104,0.6614588 0.66145828,0.6614588 h 3.9687499 c 0.366448,0 0.6614584,-0.2950109 0.6614584,-0.6614588 V 1.9843765 L 3.8364596,1.5894574e-6 Z"
     style="fill:#6f6f6f;stroke-width:0.264583;fill-opacity:1"
     id="path1100" />
  <path
     d="m 5.55625,2.1166666 v 3.4395833 c 0,0.2931583 -0.2360083,0.5291667 -0.5291667,0.5291667 H 1.3229167 c -0.2931583,0 -0.52916671,-0.2360084 -0.52916671,-0.5291667 V 0.79375003 c 0,-0.2931584 0.23600841,-0.5291667 0.52916671,-0.5291667 h 2.38125"
     style="fill:#ececec;stroke-width:0.264583;fill-opacity:1"
     id="path1319" />
  <path
     d="M 2.0108333,2.9104167 2.2230292,5.2916667 3.1757938,5.55625 4.1312042,5.2916667 4.3436646,2.9104167 Z M 2.44475,3.3972501 h 1.4631458 l -0.00688,0.078317 -0.013229,0.1481667 -0.00609,0.065617 h -1.1176 l 0.026723,0.2989791 H 3.8552385 L 3.8480985,4.0669109 3.7793065,4.83579 3.7750765,4.885002 3.1771182,5.0506312 3.1760582,5.0511604 2.5778353,4.885002 2.5368253,4.4264791 h 0.2931583 l 0.020902,0.2328334 0.3251729,0.087842 h 2.646e-4 L 3.502025,4.659048 3.5358917,4.2804292 H 2.5238604 l -0.071967,-0.8048625 -0.00688,-0.078317 z"
     style="fill:#e44d26;stroke-width:0.264583"
     id="path2119" />
  <path
     d="m 2.0108334,2.9104167 0.2121958,2.38125 0.9527646,0.2645833 h 0.00159 V 5.0508959 L 3.1760584,5.051425 2.5775709,4.8852667 2.5368251,4.4267438 h 0.2931583 l 0.020902,0.2328333 0.3251729,0.087842 0.00132,-2.646e-4 V 4.2806938 H 2.5238605 L 2.4518938,3.4758313 2.4450146,3.3975146 H 3.1773813 V 2.9106813 H 2.0105688 Z M 2.7641021,3.68935 2.7908251,3.9883292 H 3.1773813 V 3.68935 h -7.937e-4 z"
     style="opacity:0.1;stroke-width:0.264583;fill:#000000"
     id="path2271" />
  <path
     d="m 5.55625,2.38125 h -1.5875 c -0.2931583,0 -0.5291667,-0.2360084 -0.5291667,-0.5291667 V 0.26458333 H 3.7041667 L 5.55625,2.1166666 Z"
     style="opacity:0.5;fill:#6f6f6f;fill-opacity:1;stroke-width:0.264583"
     id="path15155" />
  <path
     d="M 5.55625,2.1166666 H 4.2333333 c -0.2931583,0 -0.5291666,-0.2360083 -0.5291666,-0.5291667 V 0.26458333"
     style="fill:#fafafa;stroke-width:0.264583"
     id="path15183" />
</svg>
