<?xml version="1.0" encoding="UTF-8" standalone="no"?>
<!-- Created with Inkscape (http://www.inkscape.org/) -->

<svg
   width="24"
   height="24"
   viewBox="0 0 6.3499999 6.3499999"
   version="1.1"
   id="svg5"
   inkscape:version="1.2 (dc2aedaf03, 2022-05-15)"
   sodipodi:docname="text-x-generic-template.svg"
   xmlns:inkscape="http://www.inkscape.org/namespaces/inkscape"
   xmlns:sodipodi="http://sodipodi.sourceforge.net/DTD/sodipodi-0.dtd"
   xmlns="http://www.w3.org/2000/svg"
   xmlns:svg="http://www.w3.org/2000/svg">
  <sodipodi:namedview
     id="namedview7"
     pagecolor="#ffffff"
     bordercolor="#666666"
     borderopacity="1.0"
     inkscape:pageshadow="2"
     inkscape:pageopacity="0.0"
     inkscape:pagecheckerboard="0"
     inkscape:document-units="px"
     showgrid="false"
     units="px"
     height="48px"
     inkscape:zoom="32.416667"
     inkscape:cx="6.1233933"
     inkscape:cy="12.030848"
     inkscape:window-width="1920"
     inkscape:window-height="1014"
     inkscape:window-x="0"
     inkscape:window-y="0"
     inkscape:window-maximized="1"
     inkscape:current-layer="svg5"
     showguides="false"
     inkscape:showpageshadow="2"
     inkscape:deskcolor="#d1d1d1" />
  <defs
     id="defs2" />
  <path
     d="M 1.1906263,1.5894574e-6 C 0.82500972,-7.9221054e-4 0.52843452,0.29584279 0.52916802,0.66145989 V 5.6885405 c 0,0.3664479 0.2950104,0.6614588 0.66145828,0.6614588 h 3.9687499 c 0.366448,0 0.6614584,-0.2950109 0.6614584,-0.6614588 V 1.9843765 L 3.8364596,1.5894574e-6 Z"
     style="fill:#6f6f6f;stroke-width:0.264583;fill-opacity:1"
     id="path1100" />
  <path
     d="m 5.55625,2.1166666 v 3.4395833 c 0,0.2931583 -0.2360083,0.5291667 -0.5291667,0.5291667 H 1.3229167 c -0.2931583,0 -0.52916671,-0.2360084 -0.52916671,-0.5291667 V 0.79375003 c 0,-0.2931584 0.23600841,-0.5291667 0.52916671,-0.5291667 h 2.38125"
     style="fill:#ececec;stroke-width:0.264583;fill-opacity:1"
     id="path1319" />
  <path
     d="m 3.1749999,2.1166666 c -0.5845013,1e-7 -1.0583332,0.4738321 -1.0583332,1.0583335 8.652e-4,0.2803562 0.1129339,0.5489146 0.3116089,0.7467242 L 1.9140951,4.435905 C 1.6734992,4.2758321 1.3871197,4.5622115 1.5471924,4.8028075 L 1.0583334,5.2916667 V 5.8208334 L 1.5875001,5.55625 1.9606039,5.183146 C 2.4305504,5.5134682 3.0144876,5.6387974 3.578593,5.5304116 3.8699588,5.4723964 4.145858,5.3537263 4.3883627,5.1821125 L 4.7624999,5.55625 5.2916666,5.8208334 V 5.2916667 L 4.8022909,4.8022907 C 4.9735072,4.5970146 5.1043122,4.361179 5.187797,4.1072428 5.2467713,3.9351734 5.1185434,3.7562878 4.9366495,3.7568768 4.8211477,3.7573001 4.7192749,3.8326161 4.6849857,3.9429116 4.6270314,4.1211524 4.5386209,4.2839495 4.4271199,4.42712 L 3.9212077,3.9212076 C 4.1199461,3.7236094 4.2321956,3.4552512 4.2333333,3.1750001 c 0,-0.5845014 -0.473832,-1.0583335 -1.0583334,-1.0583335 z m 0,0.5291668 c 0.2922509,0 0.5291667,0.2369159 0.5291667,0.5291667 -2.12e-5,0.1403355 -0.055786,0.2749155 -0.1550292,0.3741372 L 3.1749999,3.1750001 2.8008627,3.5491373 H 2.8003335 C 2.7012802,3.4498312 2.645705,3.3152615 2.6458208,3.1750001 c 0,-0.2922508 0.2369159,-0.5291667 0.5291667,-0.5291667 z M 2.9398724,4.2038779 c 0.077026,0.01859 0.1558962,0.02847 0.2351275,0.029456 0.079232,-9.79e-4 0.1581018,-0.010866 0.2351278,-0.029456 L 4.0085409,4.8022907 C 3.8479362,4.9014108 3.6687741,4.9733793 3.4773073,5.0105469 3.0792732,5.0878135 2.6746898,5.0097267 2.3404257,4.8033245 Z"
     id="path500"
     style="fill:#9a9a9a;fill-opacity:1;stroke-width:0.264583" />
  <path
     d="m 5.55625,2.38125 h -1.5875 c -0.2931583,0 -0.5291667,-0.2360084 -0.5291667,-0.5291667 V 0.26458333 H 3.7041667 L 5.55625,2.1166666 Z"
     style="opacity:0.5;fill:#6f6f6f;fill-opacity:1;stroke-width:0.264583"
     id="path15155" />
  <path
     d="M 5.55625,2.1166666 H 4.2333333 c -0.2931583,0 -0.5291666,-0.2360083 -0.5291666,-0.5291667 V 0.26458333"
     style="fill:#fafafa;stroke-width:0.264583"
     id="path15183" />
</svg>
