<?xml version="1.0" encoding="UTF-8" standalone="no"?>
<!-- Created with Inkscape (http://www.inkscape.org/) -->

<svg
   width="24"
   height="24"
   viewBox="0 0 6.3499999 6.3499999"
   version="1.1"
   id="svg5"
   inkscape:version="1.2 (dc2aedaf03, 2022-05-15)"
   sodipodi:docname="text-x-c.svg"
   xmlns:inkscape="http://www.inkscape.org/namespaces/inkscape"
   xmlns:sodipodi="http://sodipodi.sourceforge.net/DTD/sodipodi-0.dtd"
   xmlns="http://www.w3.org/2000/svg"
   xmlns:svg="http://www.w3.org/2000/svg">
  <sodipodi:namedview
     id="namedview7"
     pagecolor="#ffffff"
     bordercolor="#666666"
     borderopacity="1.0"
     inkscape:pageshadow="2"
     inkscape:pageopacity="0.0"
     inkscape:pagecheckerboard="0"
     inkscape:document-units="px"
     showgrid="false"
     units="px"
     height="48px"
     inkscape:zoom="32.416667"
     inkscape:cx="6.1233933"
     inkscape:cy="12.030848"
     inkscape:window-width="1920"
     inkscape:window-height="1014"
     inkscape:window-x="0"
     inkscape:window-y="0"
     inkscape:window-maximized="1"
     inkscape:current-layer="svg5"
     showguides="false"
     inkscape:showpageshadow="2"
     inkscape:deskcolor="#d1d1d1" />
  <defs
     id="defs2" />
  <path
     d="M 1.1906263,1.5894574e-6 C 0.82500972,-7.9221054e-4 0.52843452,0.29584279 0.52916802,0.66145989 V 5.6885405 c 0,0.3664479 0.2950104,0.6614588 0.66145828,0.6614588 h 3.9687499 c 0.366448,0 0.6614584,-0.2950109 0.6614584,-0.6614588 V 1.9843765 L 3.8364596,1.5894574e-6 Z"
     style="fill:#6f6f6f;stroke-width:0.264583;fill-opacity:1"
     id="path1100" />
  <path
     d="m 5.55625,2.1166666 v 3.4395833 c 0,0.2931583 -0.2360083,0.5291667 -0.5291667,0.5291667 H 1.3229167 c -0.2931583,0 -0.52916671,-0.2360084 -0.52916671,-0.5291667 V 0.79375003 c 0,-0.2931584 0.23600841,-0.5291667 0.52916671,-0.5291667 h 2.38125"
     style="fill:#ececec;stroke-width:0.264583;fill-opacity:1"
     id="path1319" />
  <path
     d="M 4.250002,4.6495228 C 4.2417126,4.8285576 4.1933812,4.9870431 4.1050104,5.1249791 4.016816,5.2616805 3.8924619,5.3676901 3.7319479,5.4430082 3.5730214,5.5185026 3.3910764,5.5562499 3.1861125,5.5562499 2.8477985,5.5562499 2.5814514,5.4460951 2.3870708,5.2257853 2.1926903,5.0052993 2.0955,4.6942374 2.0955,4.2925999 V 4.1653353 c 0,-0.252236 0.043568,-0.4726339 0.1307042,-0.6611937 0.088371,-0.1896181 0.2151062,-0.3356681 0.3802062,-0.43815 0.1649235,-0.1037167 0.3557765,-0.155575 0.5725583,-0.155575 0.3122084,0 0.5632098,0.082462 0.7530042,0.2473854 0.1896181,0.1638652 0.2973916,0.3900839 0.3233208,0.6786563 H 3.6366979 C 3.6319354,3.6798249 3.5924244,3.5672889 3.5181646,3.4988499 3.4440812,3.4305874 3.331016,3.3964562 3.1789687,3.3964562 c -0.1543402,0 -0.2674937,0.057767 -0.3394604,0.1733021 -0.07179,0.1153583 -0.1094494,0.2996848 -0.1129771,0.5529791 v 0.1820333 c 0,0.2746375 0.034131,0.4708703 0.1023938,0.588698 0.069497,0.1178276 0.1885598,0.1767416 0.3571875,0.1767416 0.1425223,0 0.2514422,-0.033514 0.3267604,-0.1005416 0.075494,-0.067381 0.1156229,-0.1740959 0.1203854,-0.3201459 z"
     style="fill:#3f51b5;stroke-width:0.264583"
     id="path304" />
  <path
     d="m 5.55625,2.38125 h -1.5875 c -0.2931583,0 -0.5291667,-0.2360084 -0.5291667,-0.5291667 V 0.26458333 H 3.7041667 L 5.55625,2.1166666 Z"
     style="opacity:0.5;fill:#6f6f6f;fill-opacity:1;stroke-width:0.264583"
     id="path15155" />
  <path
     d="M 5.55625,2.1166666 H 4.2333333 c -0.2931583,0 -0.5291666,-0.2360083 -0.5291666,-0.5291667 V 0.26458333"
     style="fill:#fafafa;stroke-width:0.264583"
     id="path15183" />
</svg>
