<?xml version="1.0" encoding="UTF-8" standalone="no"?>
<!-- Created with Inkscape (http://www.inkscape.org/) -->

<svg
   width="24"
   height="24"
   viewBox="0 0 6.3499999 6.3499999"
   version="1.1"
   id="svg5"
   inkscape:version="1.2 (dc2aedaf03, 2022-05-15)"
   sodipodi:docname="text-css.svg"
   xmlns:inkscape="http://www.inkscape.org/namespaces/inkscape"
   xmlns:sodipodi="http://sodipodi.sourceforge.net/DTD/sodipodi-0.dtd"
   xmlns="http://www.w3.org/2000/svg"
   xmlns:svg="http://www.w3.org/2000/svg">
  <sodipodi:namedview
     id="namedview7"
     pagecolor="#ffffff"
     bordercolor="#666666"
     borderopacity="1.0"
     inkscape:pageshadow="2"
     inkscape:pageopacity="0.0"
     inkscape:pagecheckerboard="0"
     inkscape:document-units="px"
     showgrid="false"
     units="px"
     height="48px"
     inkscape:zoom="22.922045"
     inkscape:cx="8.398029"
     inkscape:cy="10.557522"
     inkscape:window-width="1920"
     inkscape:window-height="1011"
     inkscape:window-x="0"
     inkscape:window-y="0"
     inkscape:window-maximized="1"
     inkscape:current-layer="svg5"
     showguides="false"
     inkscape:showpageshadow="2"
     inkscape:deskcolor="#d1d1d1" />
  <defs
     id="defs2" />
  <path
     d="M 1.1906263,1.5894574e-6 C 0.82500972,-7.9221054e-4 0.52843452,0.29584279 0.52916802,0.66145989 V 5.6885405 c 0,0.3664479 0.2950104,0.6614588 0.66145828,0.6614588 h 3.9687499 c 0.366448,0 0.6614584,-0.2950109 0.6614584,-0.6614588 V 1.9843765 L 3.8364596,1.5894574e-6 Z"
     style="fill:#6f6f6f;stroke-width:0.264583;fill-opacity:1"
     id="path1100" />
  <path
     d="m 5.55625,2.1166666 v 3.4395833 c 0,0.2931583 -0.2360083,0.5291667 -0.5291667,0.5291667 H 1.3229167 c -0.2931583,0 -0.52916671,-0.2360084 -0.52916671,-0.5291667 V 0.79375003 c 0,-0.2931584 0.23600841,-0.5291667 0.52916671,-0.5291667 h 2.38125"
     style="fill:#ececec;stroke-width:0.264583;fill-opacity:1"
     id="path1319" />
  <path
     d="M 2.6269942,5.7578623 C 2.4170586,5.6986486 2.2674123,5.6044482 2.1780552,5.4752609 2.0897746,5.3460736 2.0456342,5.1899694 2.0456342,5.0069484 V 4.6759017 c 0,-0.1205793 -0.027453,-0.2142418 -0.082359,-0.2809875 C 1.9083688,4.3270751 1.8238563,4.2931555 1.7097374,4.2931555 V 4.0557713 c 0.1141189,0 0.1986314,-0.032835 0.2535375,-0.098504 0.054906,-0.066746 0.082359,-0.160946 0.082359,-0.2826014 v -0.332661 c 0,-0.1840971 0.04414,-0.34021 0.1324211,-0.468339 C 2.267412,2.7444786 2.4170584,2.6502782 2.626994,2.5910645 L 2.69159,2.7800034 C 2.5731646,2.8176978 2.4886521,2.885528 2.4380523,2.9834945 c -0.049523,0.09689 -0.074285,0.2163939 -0.074285,0.3585104 v 0.3326606 c 0,0.1130477 -0.022608,0.2126279 -0.067825,0.298741 -0.045217,0.086131 -0.1135804,0.1534232 -0.2050908,0.2018771 0.09151,0.049512 0.159874,0.1178719 0.2050908,0.2050785 0.045217,0.086131 0.067825,0.184644 0.067825,0.2955396 v 0.3310467 c 0,0.142099 0.024761,0.2610644 0.074285,0.3568964 0.0506,0.09689 0.1351123,0.1647119 0.2535375,0.2034646 z m 0.9864514,0 -0.064595,-0.1905529 c 0.116272,-0.038753 0.1997078,-0.1065741 0.2503075,-0.2034646 0.0506,-0.095832 0.0759,-0.2147974 0.0759,-0.3568964 V 4.6759017 c 0,-0.1151996 0.024223,-0.2158648 0.07267,-0.3019954 C 3.9961741,4.2877757 4.0709975,4.221568 4.1721972,4.1752836 4.0709975,4.1311334 3.9961741,4.065993 3.9477276,3.9798624 3.8992811,3.8937492 3.8750577,3.7920169 3.8750577,3.6746655 V 3.3420049 c 0,-0.1421165 -0.0253,-0.26162 -0.0759,-0.3585104 C 3.748558,2.885528 3.6651222,2.8176978 3.5488502,2.7800034 l 0.064595,-0.1889389 c 0.2088589,0.059214 0.3574286,0.1534141 0.4457092,0.2826014 0.089357,0.128129 0.1340358,0.2842419 0.1340358,0.468339 v 0.3326606 c 0,0.1216554 0.027453,0.2158558 0.082359,0.2826014 0.054906,0.06567 0.1399569,0.098504 0.2551522,0.098504 v 0.2373842 c -0.1151953,0 -0.2002462,0.03392 -0.2551522,0.1017587 -0.054906,0.066746 -0.082359,0.1604082 -0.082359,0.2809875 V 5.006948 c 0,0.183021 -0.044679,0.3391252 -0.1340358,0.4683125 -0.088281,0.1291873 -0.2368503,0.2233877 -0.4457088,0.2826018 z"
     style="letter-spacing:-0.85;fill:#6f6f6f;fill-opacity:1;stroke-width:0.264583;opacity:0.7"
     id="path1633"
     sodipodi:nodetypes="ccssccccssccccsscccssccccccsssccssccccssccccsscc" />
  <path
     d="m 5.55625,2.38125 h -1.5875 c -0.2931583,0 -0.5291667,-0.2360084 -0.5291667,-0.5291667 V 0.26458333 H 3.7041667 L 5.55625,2.1166666 Z"
     style="opacity:0.5;fill:#6f6f6f;fill-opacity:1;stroke-width:0.264583"
     id="path15155" />
  <path
     d="M 5.55625,2.1166666 H 4.2333333 c -0.2931583,0 -0.5291666,-0.2360083 -0.5291666,-0.5291667 V 0.26458333"
     style="fill:#fafafa;stroke-width:0.264583"
     id="path15183" />
</svg>
