<?xml version="1.0" encoding="UTF-8" standalone="no"?>
<!-- Created with Inkscape (http://www.inkscape.org/) -->

<svg
   width="24"
   height="24"
   viewBox="0 0 6.3499999 6.3499999"
   version="1.1"
   id="svg5"
   inkscape:version="1.2 (dc2aedaf03, 2022-05-15)"
   sodipodi:docname="text-x-rust.svg"
   xmlns:inkscape="http://www.inkscape.org/namespaces/inkscape"
   xmlns:sodipodi="http://sodipodi.sourceforge.net/DTD/sodipodi-0.dtd"
   xmlns="http://www.w3.org/2000/svg"
   xmlns:svg="http://www.w3.org/2000/svg">
  <sodipodi:namedview
     id="namedview7"
     pagecolor="#ffffff"
     bordercolor="#666666"
     borderopacity="1.0"
     inkscape:pageshadow="2"
     inkscape:pageopacity="0.0"
     inkscape:pagecheckerboard="0"
     inkscape:document-units="px"
     showgrid="false"
     units="px"
     height="48px"
     inkscape:zoom="32.416667"
     inkscape:cx="6.1233933"
     inkscape:cy="12.138817"
     inkscape:window-width="1846"
     inkscape:window-height="1011"
     inkscape:window-x="0"
     inkscape:window-y="0"
     inkscape:window-maximized="1"
     inkscape:current-layer="svg5"
     showguides="false"
     inkscape:showpageshadow="2"
     inkscape:deskcolor="#d1d1d1" />
  <defs
     id="defs2" />
  <path
     d="M 1.1906263,1.5894574e-6 C 0.82500972,-7.9221054e-4 0.52843452,0.29584279 0.52916802,0.66145989 V 5.6885405 c 0,0.3664479 0.2950104,0.6614588 0.66145828,0.6614588 h 3.9687499 c 0.366448,0 0.6614584,-0.2950109 0.6614584,-0.6614588 V 1.9843765 L 3.8364596,1.5894574e-6 Z"
     style="fill:#6f6f6f;stroke-width:0.264583;fill-opacity:1"
     id="path1100" />
  <path
     d="m 5.55625,2.1166666 v 3.4395833 c 0,0.2931583 -0.2360083,0.5291667 -0.5291667,0.5291667 H 1.3229167 c -0.2931583,0 -0.52916671,-0.2360084 -0.52916671,-0.5291667 V 0.79375003 c 0,-0.2931584 0.23600841,-0.5291667 0.52916671,-0.5291667 h 2.38125"
     style="fill:#ececec;stroke-width:0.264583;fill-opacity:1"
     id="path1319" />
  <path
     d="m 3.1750429,2.6458538 c -0.014319,-4.525e-4 -0.027837,0.0066 -0.035657,0.018603 l -0.075447,0.1224731 -0.035657,0.00362 -0.098185,-0.1054198 c -0.020108,-0.021167 -0.060226,-0.013047 -0.07028,0.01447 l -0.050643,0.1338419 -0.034623,0.010335 -0.1162719,-0.083716 c -0.023813,-0.016933 -0.060867,-0.00251 -0.065629,0.027388 l -0.023255,0.1415937 -0.032039,0.017052 -0.1307414,-0.059428 c -0.026458,-0.012171 -0.060486,0.010687 -0.059428,0.039791 L 2.3523564,3.070115 2.3249684,3.092853 2.1844085,3.05978 C 2.1558335,3.05317 2.1268865,3.081849 2.1337655,3.110423 l 0.033073,0.1400431 -0.022738,0.027905 -0.1436604,-0.00517 c -0.029104,-0.00265 -0.051962,0.033222 -0.039791,0.059945 l 0.059428,0.1307414 -0.017053,0.032039 -0.1415934,0.022738 c -0.02884,0.0045 -0.044322,0.042333 -0.027389,0.066146 l 0.083716,0.116272 -0.010335,0.034623 -0.1343587,0.050126 c -0.027252,0.010054 -0.035384,0.050688 -0.013953,0.070797 l 0.1054199,0.097152 -0.00413,0.036173 -0.1219564,0.075965 c -0.024871,0.015346 -0.024871,0.05622 0,0.07183 l 0.1219564,0.074931 0.00413,0.036174 -0.1054199,0.098185 c -0.021431,0.019579 -0.013035,0.059444 0.013953,0.069763 l 0.1343587,0.050643 0.010335,0.034106 -0.083716,0.1167887 c -0.017198,0.023813 -0.00119,0.061648 0.027389,0.066146 l 0.1415934,0.022738 0.017053,0.032039 -0.059428,0.1307414 c -0.012171,0.026458 0.010951,0.060751 0.039791,0.059428 l 0.1436604,-0.00517 0.022738,0.027389 -0.033073,0.1405599 c -0.00688,0.028575 0.022068,0.057257 0.050643,0.050643 l 0.1405599,-0.033073 0.027388,0.022738 -0.00517,0.1436603 c -0.00106,0.029104 0.032705,0.051445 0.059428,0.039274 l 0.1307414,-0.058911 0.032039,0.016536 0.023254,0.1415934 c 0.00476,0.029104 0.042081,0.044322 0.065629,0.027388 l 0.1162719,-0.083716 0.034623,0.010335 0.050643,0.1343586 c 0.010054,0.027252 0.04992,0.035384 0.069763,0.013952 l 0.098185,-0.1054198 0.036173,0.00414 0.075448,0.1219565 c 0.015346,0.024871 0.056485,0.024871 0.07183,0 l 0.074931,-0.1219565 0.036174,-0.00414 0.098185,0.1054198 c 0.020108,0.021431 0.060226,0.013301 0.07028,-0.013952 l 0.050126,-0.1343586 0.034623,-0.010335 0.1162719,0.083716 c 0.023813,0.016933 0.061648,0.00277 0.066146,-0.027388 l 0.022738,-0.1415934 0.03204,-0.016536 0.1307414,0.058911 c 0.026458,0.012171 0.060486,-0.00991 0.059428,-0.039274 l -0.00517,-0.1436603 0.027389,-0.022738 0.1405599,0.033073 c 0.028575,0.00661 0.057257,-0.022069 0.050643,-0.050643 l -0.033073,-0.1405599 0.022738,-0.027389 0.1436606,0.00517 c 0.029104,0.00265 0.051962,-0.032969 0.039791,-0.059428 L 4.3300129,4.7392662 4.3470653,4.707227 4.4886586,4.6844887 c 0.02884,-0.0045 0.044586,-0.042333 0.027388,-0.066146 l -0.083716,-0.116272 0.010853,-0.03514 0.1338419,-0.050126 c 0.027252,-0.00979 0.035119,-0.050436 0.013952,-0.07028 l -0.1054198,-0.097668 0.00414,-0.036174 0.1219565,-0.075448 c 0.024871,-0.015346 0.024871,-0.055703 0,-0.071313 l -0.1219565,-0.075965 -0.00414,-0.036173 0.1054198,-0.097152 c 0.021167,-0.019844 0.013301,-0.060742 -0.013952,-0.070797 l -0.1343578,-0.050125 -0.010335,-0.034623 0.083716,-0.116272 c 0.017198,-0.023548 0.00146,-0.061383 -0.027388,-0.066146 L 4.3470671,3.4954142 4.3300147,3.4638914 4.3894428,3.33315 C 4.4016138,3.306692 4.3787558,3.272412 4.3496518,3.273205 L 4.2059913,3.278375 4.1832533,3.250986 4.2163263,3.1104262 c 0.00661,-0.028575 -0.022069,-0.057257 -0.050643,-0.050643 l -0.1400432,0.033073 -0.027905,-0.022738 0.00517,-0.1436605 c 0.00132,-0.029104 -0.032705,-0.051962 -0.059428,-0.039791 l -0.1307415,0.059428 -0.032039,-0.017052 -0.02222,-0.1415933 c -0.00476,-0.028575 -0.04285,-0.044322 -0.066663,-0.027388 L 3.575539,2.8437743 3.5409156,2.8334396 3.4907895,2.6995978 c -0.010054,-0.027252 -0.050436,-0.035371 -0.07028,-0.01447 l -0.098185,0.1054197 -0.035657,-0.00362 -0.075448,-0.1224732 c -0.00806,-0.012006 -0.021724,-0.019032 -0.036177,-0.018604 z m 0,0.396875 c 0.5845013,0 1.0583333,0.4738319 1.0583333,1.0583333 -0.00101,0.044292 -0.00482,0.088476 -0.011369,0.1322916 H 3.9687929 c 0,0 -3e-7,0.2645834 -0.2645834,0.2645834 -0.1246187,0 -0.2645833,-0.2645834 -0.2645833,-0.2645834 h 0.1322917 c 0.2198685,0 0.396875,-0.1770065 0.396875,-0.396875 0,-0.2198684 -0.1770065,-0.3968749 -0.396875,-0.3968749 H 3.1750429 2.3513206 C 2.5516353,3.189409 2.8545388,3.043468 3.1750429,3.0427288 Z M 2.196808,3.7041871 h 0.1844849 v 0.79375 H 2.196808 c -0.051991,-0.1259044 -0.079188,-0.2606614 -0.080098,-0.396875 9.1e-4,-0.1362136 0.028107,-0.2709707 0.080098,-0.396875 z m 0.7136516,0 h 0.3968749 c 0.1763888,0 0.1763888,0.2645833 0,0.2645833 H 2.9104596 Z m 0,0.5291666 c 0.1322914,0 0.1984374,0.1322917 0.2645833,0.2645834 0.066146,0.1322916 0.1322919,0.2645833 0.2645833,0.2645833 h 0.5291667 c 0.011332,0 0.022175,-0.00124 0.032556,-0.0031 C 3.8010841,5.0114825 3.4969765,5.1586866 3.1750429,5.1593954 2.8545388,5.1586561 2.5516353,5.0127152 2.3513206,4.7625204 H 3.1750429 V 4.4979371 H 2.9104596 Z"
     id="path16498"
     style="stroke-width:0.264583;fill:#1976d2;fill-opacity:1" />
  <path
     d="m 5.55625,2.38125 h -1.5875 c -0.2931583,0 -0.5291667,-0.2360084 -0.5291667,-0.5291667 V 0.26458333 H 3.7041667 L 5.55625,2.1166666 Z"
     style="opacity:0.5;fill:#6f6f6f;fill-opacity:1;stroke-width:0.264583"
     id="path15155" />
  <path
     d="M 5.55625,2.1166666 H 4.2333333 c -0.2931583,0 -0.5291666,-0.2360083 -0.5291666,-0.5291667 V 0.26458333"
     style="fill:#fafafa;stroke-width:0.264583"
     id="path15183" />
</svg>
