<?xml version="1.0" encoding="UTF-8" standalone="no"?>
<!-- Created with Inkscape (http://www.inkscape.org/) -->

<svg
   width="24"
   height="24"
   viewBox="0 0 6.3499999 6.3499999"
   version="1.1"
   id="svg5"
   inkscape:version="1.1.2 (0a00cf5339, 2022-02-04, custom)"
   sodipodi:docname="video-x-generic.svg"
   xmlns:inkscape="http://www.inkscape.org/namespaces/inkscape"
   xmlns:sodipodi="http://sodipodi.sourceforge.net/DTD/sodipodi-0.dtd"
   xmlns="http://www.w3.org/2000/svg"
   xmlns:svg="http://www.w3.org/2000/svg">
  <sodipodi:namedview
     id="namedview7"
     pagecolor="#ffffff"
     bordercolor="#666666"
     borderopacity="1.0"
     inkscape:pageshadow="2"
     inkscape:pageopacity="0.0"
     inkscape:pagecheckerboard="0"
     inkscape:document-units="px"
     showgrid="false"
     units="px"
     height="48px"
     inkscape:zoom="17.699767"
     inkscape:cx="7.5989701"
     inkscape:cy="11.864563"
     inkscape:window-width="1920"
     inkscape:window-height="1017"
     inkscape:window-x="0"
     inkscape:window-y="0"
     inkscape:window-maximized="1"
     inkscape:current-layer="svg5"
     showguides="false" />
  <defs
     id="defs2" />
  <rect
     style="opacity:1;fill:#782e11;fill-opacity:1;stroke-width:0.264583"
     id="rect1162"
     width="6.3499999"
     height="5.2916665"
     x="0"
     y="0.52916664"
     ry="0.52916664" />
  <rect
     style="opacity:1;fill:#f15d22;fill-opacity:1;stroke-width:0.264583"
     id="rect1136"
     width="5.8208332"
     height="4.7624998"
     x="0.26458332"
     y="0.79374999"
     ry="0.39687499" />
  <path
     d="m 2.1166666,2.1166669 c -0.4383749,0 -0.79375,0.3553751 -0.79375,0.79375 5.29e-5,0.351155 0.2308331,0.6605428 0.5674069,0.760677 -0.023971,0.051181 -0.037724,0.1080188 -0.037724,0.1684655 v 0.79375 c 0,0.2198688 0.1770062,0.396875 0.396875,0.396875 h 1.5875 c 0.1901534,0 0.3477974,-0.1325615 0.3870563,-0.3105758 L 5.0270832,5.2937332 V 3.441134 l -0.793234,0.4532021 v -0.054777 c 0,-0.060613 -0.013626,-0.1176946 -0.037722,-0.1689814 0.3359812,-0.1004569 0.5662295,-0.4094824 0.5663724,-0.7601611 0,-0.4383749 -0.3553751,-0.79375 -0.79375,-0.79375 -0.4383749,0 -0.79375,0.3553751 -0.79375,0.79375 2.646e-4,0.1968526 0.073835,0.3865509 0.2061898,0.5322676 H 2.7042268 C 2.8365819,3.2969678 2.9100673,3.1072695 2.9104166,2.9104169 c 0,-0.4383749 -0.3553751,-0.79375 -0.79375,-0.79375 z m 0,0.5291666 c 0.1461399,-3.7e-5 0.2646203,0.1184434 0.2645833,0.2645834 3.7e-5,0.1461399 -0.1184434,0.2646203 -0.2645833,0.2645833 C 1.9703255,3.1752648 1.8515303,3.0567606 1.8515673,2.9104169 1.8515303,2.7640732 1.9703255,2.6455108 2.1166666,2.6458335 Z m 1.8520833,0 C 4.1146888,2.6460823 4.2328543,2.764478 4.2328173,2.9104169 4.2328543,3.0563557 4.1146888,3.1747515 3.9687499,3.1750002 3.8224088,3.1752648 3.7036136,3.0567606 3.7036506,2.9104169 3.7036136,2.7640732 3.8224088,2.6455108 3.9687499,2.6458335 Z"
     style="fill:#ffffff;stroke-width:0.198437"
     id="path1029" />
  <path
     d="m 0.66145832,0.79374999 c -0.21986875,0 -0.39687499,0.17700622 -0.39687499,0.39687491 V 1.8520833 H 6.0854166 V 1.1906249 c 0,-0.21986869 -0.1770063,-0.39687491 -0.396875,-0.39687491 z"
     id="path1248"
     style="fill:#000000;stroke-width:0.264583" />
  <path
     d="M 1.0583333,0.79374999 0.52916666,1.8520833 H 1.0583333 L 1.5875,0.79374999 Z m 1.3229167,0 L 1.8520833,1.8520833 H 2.38125 L 2.9104166,0.79374999 Z m 1.3229166,0 L 3.1749999,1.8520833 H 3.7041666 L 4.2333333,0.79374999 Z m 1.3229167,0 L 4.4979166,1.8520833 H 5.0270833 L 5.5562499,0.79374999 Z"
     style="fill:#f7f7f7;fill-opacity:1;stroke-width:0.264583"
     id="path1504" />
</svg>
