<?xml version="1.0" encoding="UTF-8" standalone="no"?>
<!-- Created with Inkscape (http://www.inkscape.org/) -->

<svg
   width="24"
   height="24"
   viewBox="0 0 6.3499999 6.3499999"
   version="1.1"
   id="svg5"
   inkscape:version="1.2 (dc2aedaf03, 2022-05-15)"
   sodipodi:docname="x-office-drawing.svg"
   xmlns:inkscape="http://www.inkscape.org/namespaces/inkscape"
   xmlns:sodipodi="http://sodipodi.sourceforge.net/DTD/sodipodi-0.dtd"
   xmlns="http://www.w3.org/2000/svg"
   xmlns:svg="http://www.w3.org/2000/svg">
  <sodipodi:namedview
     id="namedview7"
     pagecolor="#ffffff"
     bordercolor="#666666"
     borderopacity="1.0"
     inkscape:pageshadow="2"
     inkscape:pageopacity="0.0"
     inkscape:pagecheckerboard="0"
     inkscape:document-units="px"
     showgrid="false"
     units="px"
     height="48px"
     inkscape:zoom="22.922046"
     inkscape:cx="11.822679"
     inkscape:cy="19.588129"
     inkscape:window-width="1920"
     inkscape:window-height="1009"
     inkscape:window-x="0"
     inkscape:window-y="0"
     inkscape:window-maximized="1"
     inkscape:current-layer="svg5"
     showguides="false"
     inkscape:showpageshadow="2"
     inkscape:deskcolor="#d1d1d1" />
  <defs
     id="defs2" />
  <path
     d="M 1.1906263,1.5894574e-6 C 0.82500972,-7.9221054e-4 0.52843452,0.29584279 0.52916802,0.66145989 V 5.6885405 c 0,0.3664479 0.2950104,0.6614588 0.66145828,0.6614588 h 3.9687499 c 0.366448,0 0.6614584,-0.2950109 0.6614584,-0.6614588 V 1.9843765 L 3.8364596,1.5894574e-6 Z"
     style="fill:#7f6728;stroke-width:0.264583;fill-opacity:1"
     id="path1100" />
  <path
     d="m 5.55625,2.1166666 v 3.4395833 c 0,0.2931583 -0.2360083,0.5291667 -0.5291667,0.5291667 H 1.3229167 c -0.2931583,0 -0.52916671,-0.2360084 -0.52916671,-0.5291667 V 0.79375003 c 0,-0.2931584 0.23600841,-0.5291667 0.52916671,-0.5291667 h 2.38125"
     style="fill:#ffce51;stroke-width:0.264583;fill-opacity:1"
     id="path1319" />
  <path
     d="M 3.4395834,2.9104166 V 3.7041665 H 4.7624999 V 2.9104166 Z M 2.3812501,3.4395833 c -0.4383776,0 -0.7937501,0.3553725 -0.7937501,0.7937498 0,0.4383749 0.3553725,0.7937501 0.7937501,0.7937501 C 2.8196248,5.0270832 3.175,4.671708 3.175,4.2333331 3.175,3.7949558 2.8196248,3.4395833 2.3812501,3.4395833 Z M 4.7624999,3.9687499 3.4395834,5.2916666 h 1.3229165 z"
     id="path311"
     style="fill:#ffffff;stroke-width:0.264583"
     sodipodi:nodetypes="cccccssssscccc" />
  <path
     d="m 5.55625,2.38125 h -1.5875 c -0.2931583,0 -0.5291667,-0.2360084 -0.5291667,-0.5291667 V 0.26458333 H 3.7041667 L 5.55625,2.1166666 Z"
     style="opacity:0.5;fill:#7f6728;fill-opacity:1;stroke-width:0.264583"
     id="path15155" />
  <path
     d="M 5.55625,2.1166666 H 4.2333333 c -0.2931583,0 -0.5291666,-0.2360083 -0.5291666,-0.5291667 V 0.26458333"
     style="fill:#fffa7d;stroke-width:0.264583;fill-opacity:1"
     id="path15183" />
</svg>
