<?xml version="1.0" encoding="UTF-8" standalone="no"?>
<!-- Created with Inkscape (http://www.inkscape.org/) -->

<svg
   width="128"
   height="128"
   viewBox="0 0 33.866666 33.866668"
   version="1.1"
   id="svg1099"
   inkscape:version="1.2 (dc2aedaf03, 2022-05-15)"
   sodipodi:docname="accessories-calculator.svg"
   xmlns:inkscape="http://www.inkscape.org/namespaces/inkscape"
   xmlns:sodipodi="http://sodipodi.sourceforge.net/DTD/sodipodi-0.dtd"
   xmlns="http://www.w3.org/2000/svg"
   xmlns:svg="http://www.w3.org/2000/svg">
  <sodipodi:namedview
     id="namedview1101"
     pagecolor="#ffffff"
     bordercolor="#666666"
     borderopacity="1.0"
     inkscape:pageshadow="2"
     inkscape:pageopacity="0.0"
     inkscape:pagecheckerboard="0"
     inkscape:document-units="px"
     showgrid="false"
     units="px"
     inkscape:zoom="6.1953125"
     inkscape:cx="73.684741"
     inkscape:cy="87.64691"
     inkscape:window-width="1920"
     inkscape:window-height="1011"
     inkscape:window-x="0"
     inkscape:window-y="0"
     inkscape:window-maximized="1"
     inkscape:current-layer="svg1099"
     inkscape:showpageshadow="2"
     inkscape:deskcolor="#d1d1d1"
     showguides="true" />
  <defs
     id="defs1096" />
  <rect
     style="opacity:1;fill:#dedede;fill-opacity:1;stroke-width:1.05833;stroke-linecap:round"
     id="rect934"
     width="27.516666"
     height="28.310417"
     x="3.175"
     y="3.175"
     ry="2.1166668" />
  <path
     id="path26616"
     style="fill:#000000;fill-opacity:1;stroke-width:0.264583;opacity:0.5"
     d="M 7.1437501 5.2916667 C 5.9711172 5.2916667 5.0270834 6.2357012 5.0270834 7.4083334 L 5.0270834 14.552083 C 5.0270834 15.724715 5.9711172 16.66875 7.1437501 16.66875 L 14.2875 16.66875 C 15.460133 16.66875 16.404167 15.724715 16.404167 14.552083 L 16.404167 7.4083334 C 16.404167 6.2357012 15.460133 5.2916667 14.2875 5.2916667 L 7.1437501 5.2916667 z M 19.579167 5.2916667 C 18.406535 5.2916667 17.4625 6.2357012 17.4625 7.4083334 L 17.4625 14.552083 C 17.4625 15.724715 18.406535 16.66875 19.579167 16.66875 L 26.722917 16.66875 C 27.89555 16.66875 28.839584 15.724715 28.839584 14.552083 L 28.839584 7.4083334 C 28.839584 6.2357012 27.89555 5.2916667 26.722917 5.2916667 L 19.579167 5.2916667 z M 7.1437501 17.727084 C 5.9711172 17.727084 5.0270834 18.671119 5.0270834 19.84375 L 5.0270834 26.9875 C 5.0270834 28.160132 5.9711172 29.104167 7.1437501 29.104167 L 14.2875 29.104167 C 15.460133 29.104167 16.404167 28.160132 16.404167 26.9875 L 16.404167 19.84375 C 16.404167 18.671118 15.460133 17.727084 14.2875 17.727084 L 7.1437501 17.727084 z M 19.579167 17.727084 C 18.406535 17.727084 17.4625 18.671118 17.4625 19.84375 L 17.4625 26.9875 C 17.4625 28.160132 18.406535 29.104167 19.579167 29.104167 L 26.722917 29.104167 C 27.89555 29.104167 28.839584 28.160132 28.839584 26.9875 L 28.839584 19.84375 C 28.839584 18.671118 27.89555 17.727084 26.722917 17.727084 L 19.579167 17.727084 z " />
  <path
     d="m 7.1437501,5.0270834 c -1.1726334,0 -2.1166667,0.9440333 -2.1166667,2.1166667 v 7.1437509 c 0,1.172633 0.9440333,2.116666 2.1166667,2.116666 H 14.2875 c 1.172634,0 2.116667,-0.944033 2.116667,-2.116666 V 7.1437501 c 0,-1.1726334 -0.944033,-2.1166667 -2.116667,-2.1166667 z m 12.4354169,0 c -1.172633,0 -2.116667,0.9440333 -2.116667,2.1166667 v 7.1437509 c 0,1.172633 0.944034,2.116666 2.116667,2.116666 h 7.14375 c 1.172634,0 2.116667,-0.944033 2.116667,-2.116666 V 7.1437501 c 0,-1.1726334 -0.944033,-2.1166667 -2.116667,-2.1166667 z M 7.1437501,17.462501 c -1.1726334,0 -2.1166667,0.944033 -2.1166667,2.116666 v 7.143751 c 0,1.172633 0.9440333,2.116666 2.1166667,2.116666 H 14.2875 c 1.172634,0 2.116667,-0.944033 2.116667,-2.116666 v -7.143751 c 0,-1.172633 -0.944033,-2.116666 -2.116667,-2.116666 z"
     style="fill:#aaaaaa;fill-opacity:1;stroke-width:0.264583"
     id="path19138"
     sodipodi:nodetypes="sssssssssssssssssssssssssss" />
  <path
     id="rect27417"
     style="opacity:0.5;fill:#000000;fill-opacity:1;stroke-width:0.529167;stroke-linecap:round;stroke-linejoin:bevel"
     d="M 5.2916667 3.175 C 4.1190345 3.175 3.175 4.1190345 3.175 5.2916667 L 3.175 29.36875 C 3.175 30.541383 4.1190345 31.485417 5.2916667 31.485417 L 28.575 31.485417 C 29.747633 31.485417 30.691667 30.541383 30.691667 29.36875 L 30.691667 5.2916667 C 30.691667 4.1190345 29.747633 3.175 28.575 3.175 L 5.2916667 3.175 z M 5.4239584 3.4395834 L 28.442709 3.4395834 C 29.542051 3.4395834 30.427084 4.3246157 30.427084 5.4239584 L 30.427084 28.442709 C 30.427084 29.542051 29.542051 30.427084 28.442709 30.427084 L 5.4239584 30.427084 C 4.3246157 30.427084 3.4395834 29.542051 3.4395834 28.442709 L 3.4395834 5.4239584 C 3.4395834 4.3246157 4.3246157 3.4395834 5.4239584 3.4395834 z " />
  <rect
     style="opacity:1;fill:#73c48f;fill-opacity:1;stroke-width:0.529167;stroke-linecap:round;stroke-linejoin:bevel"
     id="rect27422"
     width="11.377084"
     height="11.377084"
     x="17.4625"
     y="17.4625"
     ry="2.1166668" />
  <path
     d="M 11.377082,7.4083334 V 10.31875 h 2.910417 v 1.322916 h -2.910417 v 2.910417 H 10.054166 V 11.641666 H 7.1437494 V 10.31875 H 10.054166 V 7.4083334 Z m 7.937499,14.0229176 h 7.672917 v 1.322916 h -7.672917 z m 0,2.645833 h 7.672917 v 1.322917 H 19.314581 Z M 9.7895834,20.372917 h 1.8520826 v 1.5875 H 9.7895834 Z m 0,4.497917 h 1.8520826 v 1.5875 H 9.7895834 Z m -3.175,-2.116667 h 8.2020826 v 1.322917 H 6.6145834 Z M 26.722915,8.2020834 23.94479,10.980208 l 2.778125,2.778125 -0.79375,0.79375 -2.778125,-2.778125 -2.778125,2.778125 -0.79375,-0.79375 2.778125,-2.778125 -2.778125,-2.7781246 0.79375,-0.79375 2.778125,2.7781256 2.778125,-2.7781256 z"
     style="fill:#000000;stroke-width:0.264583;opacity:0.2"
     id="path29950" />
  <path
     d="M 11.377083,7.1437501 V 10.054167 H 14.2875 v 1.322916 H 11.377083 V 14.2875 H 10.054167 V 11.377083 H 7.1437501 V 10.054167 H 10.054167 V 7.1437501 Z m 7.9375,14.0229169 H 26.9875 v 1.322916 h -7.672917 z m 0,2.645833 H 26.9875 v 1.322917 H 19.314583 Z M 9.7895835,20.108333 h 1.8520835 v 1.5875 H 9.7895835 Z m 0,4.497917 h 1.8520835 v 1.5875 H 9.7895835 Z M 6.6145834,22.489583 H 14.816667 V 23.8125 H 6.6145834 Z M 26.722917,7.9375001 l -2.778125,2.7781249 2.778125,2.778125 -0.79375,0.79375 -2.778125,-2.778125 -2.778125,2.778125 -0.79375,-0.79375 2.778125,-2.778125 -2.778125,-2.7781249 0.79375,-0.79375 2.778125,2.778125 2.778125,-2.778125 z"
     style="fill:#ffffff;stroke-width:0.264583"
     id="path29196"
     sodipodi:nodetypes="ccccccccccccccccccccccccccccccccccccccccccccccccccc" />
</svg>
