<?xml version="1.0" encoding="UTF-8" standalone="no"?>
<!-- Created with Inkscape (http://www.inkscape.org/) -->

<svg
   width="128"
   height="128"
   viewBox="0 0 33.866666 33.866666"
   version="1.1"
   id="svg5"
   inkscape:version="1.2 (dc2aedaf03, 2022-05-15)"
   sodipodi:docname="accessories-screenshot.svg"
   xmlns:inkscape="http://www.inkscape.org/namespaces/inkscape"
   xmlns:sodipodi="http://sodipodi.sourceforge.net/DTD/sodipodi-0.dtd"
   xmlns="http://www.w3.org/2000/svg"
   xmlns:svg="http://www.w3.org/2000/svg">
  <sodipodi:namedview
     id="namedview7"
     pagecolor="#ffffff"
     bordercolor="#666666"
     borderopacity="1.0"
     inkscape:pageshadow="2"
     inkscape:pageopacity="0.0"
     inkscape:pagecheckerboard="0"
     inkscape:document-units="px"
     showgrid="false"
     units="px"
     height="48px"
     inkscape:zoom="4.3476019"
     inkscape:cx="16.445848"
     inkscape:cy="57.962989"
     inkscape:window-width="1920"
     inkscape:window-height="1011"
     inkscape:window-x="0"
     inkscape:window-y="0"
     inkscape:window-maximized="1"
     inkscape:current-layer="svg5"
     inkscape:showpageshadow="2"
     inkscape:deskcolor="#d1d1d1"
     showguides="false" />
  <defs
     id="defs2" />
  <rect
     style="opacity:1;fill:#6f6f6f;fill-opacity:1;stroke-width:0.264583"
     id="rect845"
     width="29.633333"
     height="23.283333"
     x="2.1166666"
     y="7.4083333"
     ry="2.1166666" />
  <rect
     style="opacity:1;fill:#dedede;fill-opacity:1;stroke-width:0.264583"
     id="rect1249"
     width="29.104166"
     height="21.960417"
     x="2.3812499"
     y="7.6729164"
     ry="1.984375" />
  <rect
     style="opacity:1;fill:#48b9c7;fill-opacity:1;stroke-width:0.529167;stroke-linecap:round"
     id="rect1185"
     width="26.987499"
     height="18.25625"
     x="3.4395833"
     y="8.7312498"
     ry="0.26458332" />
  <path
     d="m 4.7624999,10.31875 v 4.233333 h 1.0583333 v -3.175 H 10.054167 V 10.31875 m 13.758333,0 v 1.058333 h 4.233333 v 3.175 h 1.058333 V 10.31875 M 4.7624999,21.695833 v 4.233333 H 10.054167 V 24.870833 H 5.8208332 v -3.175 z m 23.2833331,0 v 3.175 H 23.8125 v 1.058333 h 5.291666 v -4.233333 z"
     id="path1381"
     style="stroke-width:0.264583;fill:#000000;opacity:0.2"
     sodipodi:nodetypes="cccccccccccccccccccccccccc" />
  <path
     d="m 4.7624997,10.054166 v 4.233333 H 5.820833 v -3.175 h 4.233334 v -1.058333 m 13.758333,0 v 1.058333 h 4.233333 v 3.175 h 1.058333 V 10.054166 M 4.7624997,21.431249 v 4.233333 H 10.054167 V 24.606249 H 5.820833 v -3.175 z m 23.2833333,0 v 3.175 H 23.8125 v 1.058333 h 5.291666 v -4.233333 z"
     style="stroke-width:0.264583;fill:#ffffff"
     id="path2057" />
</svg>
