<?xml version="1.0" encoding="UTF-8" standalone="no"?>
<!-- Created with Inkscape (http://www.inkscape.org/) -->

<svg
   width="128"
   height="128"
   viewBox="0 0 33.866666 33.866668"
   version="1.1"
   id="svg1099"
   inkscape:version="1.2 (dc2aedaf03, 2022-05-15)"
   sodipodi:docname="accessories-clock.svg"
   xmlns:inkscape="http://www.inkscape.org/namespaces/inkscape"
   xmlns:sodipodi="http://sodipodi.sourceforge.net/DTD/sodipodi-0.dtd"
   xmlns="http://www.w3.org/2000/svg"
   xmlns:svg="http://www.w3.org/2000/svg">
  <sodipodi:namedview
     id="namedview1101"
     pagecolor="#ffffff"
     bordercolor="#666666"
     borderopacity="1.0"
     inkscape:pageshadow="2"
     inkscape:pageopacity="0.0"
     inkscape:pagecheckerboard="0"
     inkscape:document-units="px"
     showgrid="false"
     units="px"
     inkscape:zoom="3.078125"
     inkscape:cx="121.50254"
     inkscape:cy="85.116751"
     inkscape:window-width="1920"
     inkscape:window-height="1011"
     inkscape:window-x="0"
     inkscape:window-y="0"
     inkscape:window-maximized="1"
     inkscape:current-layer="svg1099"
     inkscape:showpageshadow="2"
     inkscape:deskcolor="#d1d1d1" />
  <defs
     id="defs1096" />
  <rect
     style="opacity:1;fill:#7b7b7b;fill-opacity:1;stroke-width:0.529166"
     id="rect1196"
     width="31.75"
     height="32.543751"
     x="1.0583334"
     y="1.0583334"
     ry="15.875" />
  <circle
     style="opacity:1;fill:#f6f6f6;fill-opacity:1;stroke-width:0.536019"
     id="path6320"
     cx="16.933334"
     cy="16.933332"
     r="15.610416" />
  <path
     d="m 17.364676,18.163518 c 0.03238,-0.01471 0.06399,-0.03105 0.09472,-0.04895 l 7.666303,-3.985684 c 0.266939,-0.11883 0.387043,-0.431527 0.268287,-0.6985 -0.118831,-0.267088 -0.431722,-0.387221 -0.698765,-0.268287 l -8.08011,3.026039 c -0.03789,0.01183 -0.07507,0.02579 -0.11139,0.04181 -0.533879,0.23766 -0.774088,0.863055 -0.536575,1.397 0.237661,0.534027 0.86325,0.774265 1.397265,0.536575 z"
     style="fill-opacity:1;stroke-width:0.264583;fill:#000000;opacity:0.5"
     id="path3727" />
  <path
     d="m 17.364677,17.898935 c 0.03238,-0.01471 0.06399,-0.03105 0.09472,-0.04895 l 7.666302,-3.985684 c 0.26694,-0.11883 0.387044,-0.431527 0.268288,-0.6985 -0.118831,-0.267088 -0.431723,-0.387221 -0.698765,-0.268287 l -8.080111,3.02604 c -0.03788,0.01183 -0.07507,0.02579 -0.111389,0.0418 -0.533879,0.23766 -0.774088,0.863055 -0.536575,1.397 0.237661,0.534027 0.86325,0.774265 1.397264,0.536575 z"
     style="fill:#2b2928;stroke-width:0.264583"
     id="path5978" />
  <path
     d="m 15.967682,17.629328 c 0.02758,0.06105 0.06089,0.119343 0.09948,0.174095 l 2.536295,4.445001 c 0.118931,0.266837 0.4316,0.386812 0.6985,0.268023 0.26694,-0.11883 0.387044,-0.431528 0.268288,-0.698501 l -1.602581,-4.848754 -7.94e-4,-0.0032 c -0.01532,-0.06788 -0.0373,-0.13408 -0.06562,-0.197644 -0.23776,-0.533776 -0.863127,-0.773856 -1.397,-0.53631 -0.533879,0.23766 -0.774088,0.863056 -0.536575,1.397 z"
     style="fill-opacity:1;stroke-width:0.264583;fill:#000000;opacity:0.5"
     id="path7488" />
  <path
     d="m 15.967682,17.364745 c 0.02758,0.06105 0.06089,0.119343 0.09948,0.174096 l 2.536295,4.445 c 0.118931,0.266837 0.4316,0.386812 0.6985,0.268023 0.26694,-0.11883 0.387044,-0.431528 0.268288,-0.6985 l -1.602581,-4.848755 -7.94e-4,-0.0032 c -0.01532,-0.06788 -0.0373,-0.13408 -0.06562,-0.197643 -0.23776,-0.533777 -0.863128,-0.773857 -1.397,-0.536311 -0.533879,0.23766 -0.774088,0.863056 -0.536575,1.397 z"
     style="fill:#474341;stroke-width:0.264583"
     id="path9013" />
  <path
     d="m 17.197919,3.7041667 c -0.293159,5e-7 -0.529167,0.236007 -0.529167,0.5291664 v 3.1749987 c 0,0.2931594 0.236008,0.5291696 0.529167,0.5291691 0.293156,-1.6e-6 0.529166,-0.2360094 0.529166,-0.5291688 v -3.174999 c 0,-0.2931591 -0.236009,-0.5291656 -0.529166,-0.5291664 z m -6.373255,2.129585 c -0.04263,0.00116 -0.08539,0.012237 -0.125058,0.03514 -0.126941,0.07329 -0.170441,0.2347952 -0.09715,0.3617365 l 1.058335,1.8329614 c 0.07329,0.1269413 0.234793,0.1699258 0.361735,0.096636 0.126941,-0.07329 0.169924,-0.2342769 0.09663,-0.3612182 L 11.060823,5.9660436 c -0.05039,-0.087271 -0.142371,-0.134824 -0.236159,-0.1322919 z m 12.448853,0.1322932 c -0.09379,-0.00254 -0.185776,0.045019 -0.236163,0.1322914 l -1.058331,1.8334803 c -0.07329,0.1269415 -0.02979,0.2879275 0.09715,0.3612176 0.12694,0.073288 0.287926,0.030306 0.361216,-0.096636 L 23.495724,6.362919 c 0.07329,-0.1269402 0.03031,-0.2879286 -0.09664,-0.3612187 -0.03967,-0.022902 -0.08294,-0.034504 -0.125573,-0.035656 z M 6.237863,10.336837 c -0.093789,-0.0025 -0.1857735,0.04554 -0.2361604,0.132809 -0.07329,0.126942 -0.029791,0.287929 0.09715,0.361219 l 1.8329646,1.058333 c 0.1269402,0.07329 0.2879288,0.03031 0.3612166,-0.09664 0.07329,-0.126941 0.030306,-0.288445 -0.096636,-0.361735 L 6.3634369,10.372495 c -0.039668,-0.0229 -0.082944,-0.03451 -0.1255739,-0.03566 z m 21.52582,0.228927 c -0.04263,0.0012 -0.08591,0.01275 -0.125576,0.03566 l -1.832961,1.058334 c -0.126941,0.07329 -0.170443,0.234793 -0.09715,0.361734 0.07329,0.126942 0.234794,0.169926 0.361735,0.09664 l 1.832962,-1.058334 c 0.126942,-0.07329 0.170445,-0.234277 0.09715,-0.361218 -0.05039,-0.08727 -0.142375,-0.135342 -0.236162,-0.132808 z m -23.5303497,5.57382 c -0.293157,-1e-6 -0.5291658,0.236009 -0.5291666,0.529166 5e-7,0.293159 0.2360094,0.529166 0.5291664,0.529167 l 3.1750011,-1e-6 c 0.293157,1e-6 0.5291672,-0.236007 0.5291667,-0.529166 8e-7,-0.293157 -0.2360094,-0.529166 -0.5291664,-0.529167 z m 22.2250017,0.529165 c -0.293159,1e-6 -0.529168,0.236011 -0.529166,0.529167 0,0.293159 0.236008,0.529169 0.529169,0.529169 h 3.174997 c 0.293158,-3e-6 0.529167,-0.236009 0.529167,-0.529168 0,-0.293157 -0.236009,-0.529167 -0.529167,-0.529167 z M 7.9256148,21.713922 c -0.042631,0.0011 -0.085905,0.01275 -0.1255731,0.03565 l -1.8329638,1.058335 c -0.1269413,0.07329 -0.1699247,0.234277 -0.096635,0.361219 0.07329,0.126941 0.2342782,0.17044 0.3612197,0.09715 l 1.8329613,-1.058329 c 0.1269413,-0.07329 0.1704425,-0.234793 0.097153,-0.361734 -0.050387,-0.08727 -0.1423728,-0.134826 -0.236162,-0.132291 z m 17.8857312,0.229443 c -0.09379,-0.0025 -0.185776,0.04502 -0.236163,0.132291 -0.07329,0.126941 -0.02979,0.287928 0.09715,0.361218 l 1.832963,1.058333 c 0.126942,0.07329 0.28793,0.03031 0.36122,-0.09663 0.07329,-0.126941 0.03031,-0.287928 -0.09664,-0.36122 l -1.832963,-1.058332 c -0.03967,-0.0229 -0.08294,-0.0345 -0.125573,-0.03566 z m -14.143841,3.596162 c -0.09379,-0.0025 -0.185773,0.04502 -0.23616,0.132292 l -1.058334,1.832963 c -0.07329,0.126942 -0.03031,0.288447 0.09664,0.361736 0.12694,0.07329 0.288444,0.02979 0.361734,-0.09715 l 1.058333,-1.832964 c 0.07329,-0.126942 0.02979,-0.287928 -0.09715,-0.361218 -0.03967,-0.0229 -0.08242,-0.0345 -0.125057,-0.03566 z m 10.305314,0.131775 c -0.04263,0.0012 -0.0859,0.01276 -0.125572,0.03566 -0.126941,0.07329 -0.169925,0.234793 -0.09664,0.361735 l 1.058336,1.832963 c 0.07329,0.12694 0.234275,0.169924 0.361217,0.09663 0.126941,-0.07329 0.170441,-0.234278 0.09715,-0.361217 l -1.058335,-1.832962 c -0.05039,-0.08727 -0.142371,-0.135343 -0.236162,-0.13281 z m -5.304067,0.257864 c -0.29316,1e-6 -0.529166,0.23601 -0.529167,0.529167 l 1e-6,3.175001 c -1e-6,0.293156 0.236007,0.529167 0.529166,0.529167 0.293157,0 0.529166,-0.236011 0.529167,-0.529167 l -10e-7,-3.175001 c 10e-7,-0.293157 -0.236009,-0.529166 -0.529166,-0.529167 z"
     style="fill:#333333;fill-opacity:1;stroke-width:0.264583"
     id="path1269" />
  <circle
     style="opacity:0.5;fill:#000000;fill-opacity:1;stroke-width:0.264583"
     id="path12715"
     cx="16.933334"
     cy="17.197916"
     r="0.79374999" />
  <ellipse
     style="opacity:1;fill:#f6f6f6;fill-opacity:1;stroke-width:0.264583"
     id="path12717"
     cx="16.933334"
     cy="16.933334"
     rx="0.79375005"
     ry="0.79374999" />
</svg>
