<?xml version="1.0" encoding="UTF-8" standalone="no"?>
<!-- Created with Inkscape (http://www.inkscape.org/) -->

<svg
   width="128"
   height="128"
   viewBox="0 0 33.866666 33.866668"
   version="1.1"
   id="svg1099"
   inkscape:version="1.2 (dc2aedaf03, 2022-05-15)"
   sodipodi:docname="applications-accessories.svg"
   xmlns:inkscape="http://www.inkscape.org/namespaces/inkscape"
   xmlns:sodipodi="http://sodipodi.sourceforge.net/DTD/sodipodi-0.dtd"
   xmlns="http://www.w3.org/2000/svg"
   xmlns:svg="http://www.w3.org/2000/svg">
  <sodipodi:namedview
     id="namedview1101"
     pagecolor="#ffffff"
     bordercolor="#666666"
     borderopacity="1.0"
     inkscape:pageshadow="2"
     inkscape:pageopacity="0.0"
     inkscape:pagecheckerboard="0"
     inkscape:document-units="px"
     showgrid="false"
     units="px"
     inkscape:zoom="6.359375"
     inkscape:cx="57.395577"
     inkscape:cy="70.289926"
     inkscape:window-width="1846"
     inkscape:window-height="1011"
     inkscape:window-x="0"
     inkscape:window-y="0"
     inkscape:window-maximized="1"
     inkscape:current-layer="svg1099"
     inkscape:showpageshadow="2"
     inkscape:deskcolor="#d1d1d1"
     showguides="false" />
  <defs
     id="defs1096" />
  <rect
     style="opacity:1;fill:#7b736e;fill-opacity:1;stroke-width:1.05833;stroke-linecap:round"
     id="rect934"
     width="27.516666"
     height="27.516666"
     x="3.175"
     y="3.175"
     ry="2.2489583" />
  <path
     id="rect2485"
     style="opacity:0.5;fill:#000000;fill-opacity:1;stroke-width:0.529166"
     d="m 5.4239584,3.1750001 c -1.2459217,0 -2.2489583,1.0030366 -2.2489583,2.2489583 V 28.442709 c 0,1.245922 1.0030366,2.248958 2.2489583,2.248958 H 28.442709 c 1.245922,0 2.248958,-1.003036 2.248958,-2.248958 V 5.4239584 c 0,-1.2459217 -1.003036,-2.2489583 -2.248958,-2.2489583 z M 5.5562501,3.4395834 H 28.310417 c 1.172633,0 2.116667,0.9440345 2.116667,2.1166667 V 27.516667 c 0,1.172633 -0.944034,2.116667 -2.116667,2.116667 H 5.5562501 c -1.1726322,0 -2.1166667,-0.944034 -2.1166667,-2.116667 V 5.5562501 c 0,-1.1726322 0.9440345,-2.1166667 2.1166667,-2.1166667 z" />
  <path
     d="m 21.039602,8.2125847 c -0.308358,-0.0055 -0.62443,0.0202 -0.933793,0.10077 -1.973789,0.514085 -3.156829,2.5197853 -2.642214,4.4803483 0.107421,0.409575 0.306337,0.782079 0.531233,1.11466 -0.114829,0.01852 -1.721857,2.746084 -1.721857,2.746084 l 3.608564,0.02429 0.849043,-1.179772 c 0.402166,0.03175 0.826198,0.02137 1.238684,-0.08578 1.97379,-0.514085 3.156831,-2.520304 2.642216,-4.480864 -0.107685,-0.409844 -0.30635,-0.782083 -0.530717,-1.1146653 l -1.439704,2.4406783 c -0.292555,0.500467 -0.935962,0.668151 -1.435573,0.374137 l -0.925523,-0.538467 c -0.502574,-0.286377 -0.671609,-0.929872 -0.374656,-1.426271 l 1.439707,-2.4401623 c -0.100543,-0.0079 -0.202622,-0.01315 -0.30541,-0.01499 z m -9.389606,0.735873 c -0.0109,-1.77e-4 -0.02213,5.55e-4 -0.03256,0.0026 -0.243226,0.04976 -0.468764,0.138705 -0.69298,0.23151 -0.01773,0.660665 0.09154,1.5258523 -0.165365,1.7528653 -0.252677,0.223043 -1.0972885,0.03625 -1.7502795,-0.03307 -0.138642,0.250295 -0.248722,0.513291 -0.330213,0.79375 0.505354,0.418835 1.205742,0.887941 1.222147,1.223698 0.01693,0.339989 -0.662289,0.851958 -1.122929,1.322916 0.109273,0.272786 0.264597,0.522288 0.429432,0.760677 0.642937,-0.133879 1.4436415,-0.395287 1.7166905,-0.198437 0.278341,0.200289 0.280724,1.063889 0.363802,1.719792 0.263525,0.07937 0.541375,0.110595 0.825273,0.132291 0.297392,-0.58711 0.599835,-1.397 0.925007,-1.488281 0.33364,-0.09393 1.018181,0.484717 1.584918,0.826823 0.231246,-0.160602 0.43684,-0.356658 0.627867,-0.56224 -0.268285,-0.605896 -0.762275,-1.367366 -0.627867,-1.686718 0.134938,-0.319882 1.031132,-0.497153 1.65158,-0.727605 0.0042,-0.07779 0.03307,-0.152664 0.03307,-0.23151 0,-0.202671 -0.03651,-0.401108 -0.06615,-0.595313 -0.640291,-0.170127 -1.550521,-0.255323 -1.717209,-0.562239 -0.165629,-0.3048 0.25535,-1.123421 0.461987,-1.7528643 -0.212165,-0.1902 -0.444547,-0.356559 -0.692981,-0.496094 -0.529429,0.396875 -1.146477,1.0522473 -1.486731,0.9921873 -0.334695,-0.05927 -0.700389,-0.8673043 -1.056783,-1.4221353 -0.03175,0.0056 -0.0665,-0.002 -0.09973,-0.0026 z m 0.628386,1.9869603 c 0.985044,0 1.783352,0.79957 1.783352,1.785937 0,0.986367 -0.798308,1.785938 -1.783352,1.785938 -0.985044,0 -1.783353,-0.799571 -1.783353,-1.785938 0,-0.986367 0.798574,-1.785937 1.783353,-1.785937 z m -1.298112,6.778398 0.0083,6.35 c 0,0.603515 0.487135,1.058334 1.056783,1.058334 h 8.458398 c 0.552979,0 1.05265,-0.471223 1.05265,-0.992188 l -0.0083,-6.416146 z"
     style="text-indent:0;text-decoration-line:none;text-transform:none;stroke-width:0.264583;fill:#000000;opacity:0.2"
     id="path2158" />
  <path
     d="m 21.039603,7.9479992 c -0.308359,-0.00549 -0.62443,0.020204 -0.933794,0.1007692 -1.973789,0.5140854 -3.156828,2.5197856 -2.642214,4.4803486 0.107421,0.409575 0.306337,0.782079 0.531233,1.11466 -0.114829,0.01852 -1.721858,2.746084 -1.721858,2.746084 l 3.608565,0.02429 0.849043,-1.179772 c 0.402166,0.03175 0.826198,0.02137 1.238684,-0.08578 1.973791,-0.514085 3.156831,-2.520304 2.642216,-4.480864 -0.107685,-0.409844 -0.30635,-0.7820836 -0.530717,-1.1146648 l -1.439704,2.4406778 c -0.292555,0.500467 -0.935962,0.668151 -1.435573,0.374137 l -0.925523,-0.538467 c -0.502574,-0.286377 -0.671609,-0.929872 -0.374656,-1.426271 l 1.439707,-2.4401618 c -0.100542,-0.00787 -0.202621,-0.013152 -0.305409,-0.014986 z m -9.389608,0.7358724 c -0.0109,-1.773e-4 -0.02213,5.556e-4 -0.03256,0.00259 -0.243226,0.04976 -0.468764,0.1387052 -0.69298,0.2315104 -0.01773,0.6606646 0.09154,1.525852 -0.165365,1.752865 -0.252677,0.223043 -1.0972877,0.03625 -1.7502788,-0.03307 -0.1386417,0.250295 -0.2487216,0.513291 -0.3302132,0.79375 0.5053542,0.418835 1.2057423,0.887941 1.2221473,1.223698 0.01693,0.339989 -0.662289,0.851958 -1.1229286,1.322916 0.1092729,0.272786 0.2645966,0.522288 0.429432,0.760677 0.6429366,-0.133879 1.4436403,-0.395287 1.7166903,-0.198437 0.278341,0.200289 0.280723,1.063889 0.363802,1.719792 0.263525,0.07937 0.541374,0.110595 0.825272,0.132291 0.297392,-0.58711 0.599835,-1.397 0.925007,-1.488281 0.33364,-0.09393 1.018181,0.484717 1.584918,0.826823 0.231246,-0.160602 0.43684,-0.356658 0.627867,-0.56224 -0.268285,-0.605896 -0.762275,-1.367366 -0.627867,-1.686718 0.134938,-0.319882 1.031132,-0.497153 1.65158,-0.727605 0.0042,-0.07779 0.03307,-0.152664 0.03307,-0.23151 0,-0.202671 -0.03651,-0.401108 -0.06615,-0.595313 -0.640292,-0.170127 -1.550522,-0.255323 -1.71721,-0.562239 -0.165629,-0.3048 0.25535,-1.123421 0.461987,-1.7528647 C 14.774051,9.4223066 14.541668,9.2559474 14.293234,9.1164125 13.763805,9.5132875 13.146757,10.16866 12.806503,10.1086 12.471808,10.049333 12.106114,9.2412959 11.74972,8.6864646 c -0.03175,0.00556 -0.0665,-0.00204 -0.09973,-0.00259 z m 0.628386,1.9869604 c 0.985044,0 1.783352,0.79957 1.783352,1.785937 0,0.986367 -0.798308,1.785938 -1.783352,1.785938 -0.985044,0 -1.783353,-0.799571 -1.783353,-1.785938 0,-0.986367 0.798574,-1.785937 1.783353,-1.785937 z m -1.298112,6.778397 0.0083,6.35 c 0,0.603515 0.487135,1.058334 1.056783,1.058334 h 8.458399 c 0.552979,0 1.05265,-0.471223 1.05265,-0.992188 l -0.0083,-6.416146 z"
     style="text-indent:0;text-decoration-line:none;text-transform:none;stroke-width:0.264583;fill:#ffffff"
     id="path918"
     sodipodi:nodetypes="cccccccccccccccccccccccccccccccccsccccccccsssssccssccc" />
</svg>
