<?xml version="1.0" encoding="UTF-8" standalone="no"?>
<!-- Created with Inkscape (http://www.inkscape.org/) -->

<svg
   width="128"
   height="128"
   viewBox="0 0 33.866666 33.866668"
   version="1.1"
   id="svg1099"
   inkscape:version="1.2 (dc2aedaf03, 2022-05-15)"
   sodipodi:docname="application-font.svg"
   xmlns:inkscape="http://www.inkscape.org/namespaces/inkscape"
   xmlns:sodipodi="http://sodipodi.sourceforge.net/DTD/sodipodi-0.dtd"
   xmlns="http://www.w3.org/2000/svg"
   xmlns:svg="http://www.w3.org/2000/svg">
  <sodipodi:namedview
     id="namedview1101"
     pagecolor="#ffffff"
     bordercolor="#666666"
     borderopacity="1.0"
     inkscape:pageshadow="2"
     inkscape:pageopacity="0.0"
     inkscape:pagecheckerboard="0"
     inkscape:document-units="px"
     showgrid="false"
     units="px"
     inkscape:zoom="4.4967572"
     inkscape:cx="39.806463"
     inkscape:cy="68.049038"
     inkscape:window-width="1846"
     inkscape:window-height="1011"
     inkscape:window-x="0"
     inkscape:window-y="0"
     inkscape:window-maximized="1"
     inkscape:current-layer="svg1099"
     inkscape:showpageshadow="2"
     inkscape:deskcolor="#d1d1d1"
     showguides="false" />
  <defs
     id="defs1096" />
  <rect
     style="opacity:1;fill:#cdcdcd;fill-opacity:1;stroke-width:1.05833;stroke-linecap:round"
     id="rect934"
     width="27.516666"
     height="27.516666"
     x="3.175"
     y="3.175"
     ry="2.2489583" />
  <path
     d="M 9.5250002,9.5250006 V 21.166667 H 12.170834 V 20.902084 H 9.7895837 V 9.7895837 H 12.170834 V 9.5250006 Z M 12.435417,21.431147 v 1.852083 h 11.641667 v -1.852083 h -0.264583 v 1.5875 h -11.1125 v -1.5875 z"
     style="color:#000000;opacity:0.25;fill:#000000;fill-opacity:1;stroke:none;stroke-width:0.264583;-inkscape-stroke:none"
     id="path2005"
     sodipodi:nodetypes="cccccccccccccccccc" />
  <path
     d="m 12.435417,20.108334 h 1.058334 L 17.727084,9.5250001 h 1.058333 l 4.233334,10.5833339 h 1.058333 v 1.058333 h -3.704167 v -1.058333 h 1.058334 l -0.756709,-2.116667 h -4.820179 l -0.773112,2.116667 h 1.058333 v 1.058333 h -3.704167 z m 3.704167,-3.175 h 4.233333 l -2.112433,-5.514976 z"
     id="path454"
     style="fill:#000000;stroke-width:0.264583" />
  <path
     id="rect2485"
     style="opacity:0.5;fill:#000000;fill-opacity:1;stroke-width:0.529166"
     d="m 5.4239584,3.1750001 c -1.2459217,0 -2.2489583,1.0030366 -2.2489583,2.2489583 V 28.442709 c 0,1.245922 1.0030366,2.248958 2.2489583,2.248958 H 28.442709 c 1.245922,0 2.248958,-1.003036 2.248958,-2.248958 V 5.4239584 c 0,-1.2459217 -1.003036,-2.2489583 -2.248958,-2.2489583 z M 5.5562501,3.4395834 H 28.310417 c 1.172633,0 2.116667,0.9440345 2.116667,2.1166667 V 27.516667 c 0,1.172633 -0.944034,2.116667 -2.116667,2.116667 H 5.5562501 c -1.1726322,0 -2.1166667,-0.944034 -2.1166667,-2.116667 V 5.5562501 c 0,-1.1726322 0.9440345,-2.1166667 2.1166667,-2.1166667 z" />
</svg>
