<?xml version="1.0" encoding="UTF-8" standalone="no"?>
<!-- Created with Inkscape (http://www.inkscape.org/) -->

<svg
   width="128"
   height="128"
   viewBox="0 0 33.866666 33.866668"
   version="1.1"
   id="svg1099"
   inkscape:version="1.2 (dc2aedaf03, 2022-05-15)"
   sodipodi:docname="applications-utilities.svg"
   xmlns:inkscape="http://www.inkscape.org/namespaces/inkscape"
   xmlns:sodipodi="http://sodipodi.sourceforge.net/DTD/sodipodi-0.dtd"
   xmlns="http://www.w3.org/2000/svg"
   xmlns:svg="http://www.w3.org/2000/svg">
  <sodipodi:namedview
     id="namedview1101"
     pagecolor="#ffffff"
     bordercolor="#666666"
     borderopacity="1.0"
     inkscape:pageshadow="2"
     inkscape:pageopacity="0.0"
     inkscape:pagecheckerboard="0"
     inkscape:document-units="px"
     showgrid="false"
     units="px"
     inkscape:zoom="4.3807475"
     inkscape:cx="38.34962"
     inkscape:cy="64.372576"
     inkscape:window-width="1846"
     inkscape:window-height="1011"
     inkscape:window-x="0"
     inkscape:window-y="0"
     inkscape:window-maximized="1"
     inkscape:current-layer="svg1099"
     inkscape:showpageshadow="2"
     inkscape:deskcolor="#d1d1d1"
     showguides="false" />
  <defs
     id="defs1096" />
  <rect
     style="opacity:1;fill:#9c27b0;fill-opacity:1;stroke-width:1.05833;stroke-linecap:round"
     id="rect934"
     width="27.516666"
     height="27.516666"
     x="3.175"
     y="3.175"
     ry="2.2489583" />
  <path
     id="rect2485"
     style="opacity:0.5;fill:#000000;fill-opacity:1;stroke-width:0.529166"
     d="m 5.4239584,3.1750001 c -1.2459217,0 -2.2489583,1.0030366 -2.2489583,2.2489583 V 28.442709 c 0,1.245922 1.0030366,2.248958 2.2489583,2.248958 H 28.442709 c 1.245922,0 2.248958,-1.003036 2.248958,-2.248958 V 5.4239584 c 0,-1.2459217 -1.003036,-2.2489583 -2.248958,-2.2489583 z M 5.5562501,3.4395834 H 28.310417 c 1.172633,0 2.116667,0.9440345 2.116667,2.1166667 V 27.516667 c 0,1.172633 -0.944034,2.116667 -2.116667,2.116667 H 5.5562501 c -1.1726322,0 -2.1166667,-0.944034 -2.1166667,-2.116667 V 5.5562501 c 0,-1.1726322 0.9440345,-2.1166667 2.1166667,-2.1166667 z" />
  <path
     d="m 13.49375,10.847916 c -1.319213,0 -2.38125,1.062037 -2.38125,2.38125 v 7.9375 c 0,1.319211 1.062037,2.38125 2.38125,2.38125 1.319212,0 2.38125,-1.062039 2.38125,-2.38125 v -7.9375 c 0,-1.319213 -1.062038,-2.38125 -2.38125,-2.38125 z m 1.744599,0 c 0.696914,0.565944 1.165821,1.422401 1.165821,2.38125 v 0.793749 h 1.688781 c -0.05874,-0.867567 0.991395,-1.587498 1.5875,-1.587498 0.539751,0 0.793752,0.0096 0.793752,0.793749 v 0.793749 h 0.96738 c 0.974726,-0.476248 1.412837,-1.56329 1.412837,-2.1332 0,-0.583409 -1.893491,-1.041799 -2.926953,-1.041799 z m 1.165821,3.70417 v 3.439579 c 2.195504,2.112169 4.861717,1.852089 4.861717,1.852089 0,0 0.279987,-1.165122 -1.513086,-3.157434 l -1.885155,-2.134234 z m 2.361612,2.011242 1.335318,1.375632 c -1.427956,0.130965 -1.706,-0.677132 -1.335318,-1.375632 z"
     id="path14303"
     style="opacity:0.2;fill:#000000;stroke-width:0.529167"
     sodipodi:nodetypes="ssssssscsccssccsscccccccccc" />
  <path
     d="m 13.49375,10.583333 c -1.319212,0 -2.38125,1.062038 -2.38125,2.38125 v 7.9375 c 0,1.319212 1.062038,2.38125 2.38125,2.38125 1.319212,0 2.38125,-1.062038 2.38125,-2.38125 v -7.9375 c 0,-1.319212 -1.062038,-2.38125 -2.38125,-2.38125 z m 1.7446,0 c 0.696912,0.565944 1.16582,1.4224 1.16582,2.38125 v 0.79375 h 1.688782 c -0.05874,-0.867568 0.991394,-1.5875 1.5875,-1.5875 0.53975,0 0.79375,0.0096 0.79375,0.79375 v 0.79375 h 0.967382 c 0.974726,-0.47625 1.412836,-1.563292 1.412836,-2.133204 0,-0.583406 -1.89349,-1.041796 -2.926954,-1.041796 z m 1.16582,3.704168 v 3.439582 c 2.195504,2.112168 4.861718,1.852088 4.861718,1.852088 0,0 0.279986,-1.165122 -1.513086,-3.157434 l -1.885156,-2.134236 z m 2.361612,2.011244 1.335318,1.375632 c -1.427958,0.13096 -1.706,-0.677132 -1.335318,-1.375632 z"
     style="fill:#ffffff;stroke-width:0.529166"
     id="path16152" />
</svg>
