<?xml version="1.0" encoding="UTF-8" standalone="no"?>
<!-- Created with Inkscape (http://www.inkscape.org/) -->

<svg
   width="128"
   height="128"
   viewBox="0 0 33.866666 33.866668"
   version="1.1"
   id="svg1099"
   inkscape:version="1.2 (dc2aedaf03, 2022-05-15)"
   sodipodi:docname="applications-games.svg"
   xmlns:inkscape="http://www.inkscape.org/namespaces/inkscape"
   xmlns:sodipodi="http://sodipodi.sourceforge.net/DTD/sodipodi-0.dtd"
   xmlns="http://www.w3.org/2000/svg"
   xmlns:svg="http://www.w3.org/2000/svg">
  <sodipodi:namedview
     id="namedview1101"
     pagecolor="#ffffff"
     bordercolor="#666666"
     borderopacity="1.0"
     inkscape:pageshadow="2"
     inkscape:pageopacity="0.0"
     inkscape:pagecheckerboard="0"
     inkscape:document-units="px"
     showgrid="false"
     units="px"
     inkscape:zoom="6.359375"
     inkscape:cx="64.314496"
     inkscape:cy="64"
     inkscape:window-width="1846"
     inkscape:window-height="1011"
     inkscape:window-x="0"
     inkscape:window-y="0"
     inkscape:window-maximized="1"
     inkscape:current-layer="svg1099"
     inkscape:showpageshadow="2"
     inkscape:deskcolor="#d1d1d1"
     showguides="false" />
  <defs
     id="defs1096" />
  <rect
     style="opacity:1;fill:#3f51b5;fill-opacity:1;stroke-width:1.05833;stroke-linecap:round"
     id="rect934"
     width="27.516666"
     height="27.516666"
     x="3.175"
     y="3.175"
     ry="2.2489583" />
  <path
     id="rect2485"
     style="opacity:0.5;fill:#000000;fill-opacity:1;stroke-width:0.529166"
     d="m 5.4239584,3.1750001 c -1.2459217,0 -2.2489583,1.0030366 -2.2489583,2.2489583 V 28.442709 c 0,1.245922 1.0030366,2.248958 2.2489583,2.248958 H 28.442709 c 1.245922,0 2.248958,-1.003036 2.248958,-2.248958 V 5.4239584 c 0,-1.2459217 -1.003036,-2.2489583 -2.248958,-2.2489583 z M 5.5562501,3.4395834 H 28.310417 c 1.172633,0 2.116667,0.9440345 2.116667,2.1166667 V 27.516667 c 0,1.172633 -0.944034,2.116667 -2.116667,2.116667 H 5.5562501 c -1.1726322,0 -2.1166667,-0.944034 -2.1166667,-2.116667 V 5.5562501 c 0,-1.1726322 0.9440345,-2.1166667 2.1166667,-2.1166667 z" />
  <path
     d="m 12.964583,11.377207 c -0.439733,0 -0.793742,0.354008 -0.793742,0.793741 v 0.0011 l -1.54924,9.278896 c -0.02482,0.07708 -0.03826,0.159398 -0.03826,0.244943 0,0.439734 0.354008,0.793742 0.793741,0.793742 0.24153,0 0.457195,-0.106799 0.60254,-0.275947 h 0.0011 l 0.0032,-0.0054 c 0.05117,-0.06058 0.09376,-0.129359 0.125056,-0.203606 l 1.649444,-2.689187 h 6.257947 l 1.750781,2.710919 c 0.03234,0.07088 0.07534,0.135518 0.126099,0.193258 l 0.0042,0.0072 h 0.0011 c 0.145078,0.161478 0.355966,0.262511 0.591152,0.262511 0.439733,0 0.793741,-0.35401 0.793741,-0.793742 0,-0.08738 -0.0134,-0.171618 -0.03926,-0.250113 l -1.54819,-9.273596 v -0.0011 c 0,-0.439733 -0.35401,-0.793742 -0.793741,-0.793742 h -1.587543 c -0.439732,0 -0.79374,0.354009 -0.79374,0.793742 v 0.0011 h -3.174967 v -0.0011 c 0,-0.439733 -0.35401,-0.793742 -0.793741,-0.793742 z"
     style="opacity:0.2;fill:#000000;fill-opacity:1;stroke-width:0.529166"
     id="path3605" />
  <path
     d="m 12.964579,11.112623 c -0.439733,0 -0.793742,0.354009 -0.793742,0.793743 v 0.0011 l -1.549244,9.27891 c -0.02482,0.07708 -0.03826,0.159399 -0.03826,0.244942 0,0.439734 0.35401,0.793743 0.793743,0.793743 0.241531,0 0.457196,-0.106799 0.602541,-0.275946 h 0.0011 l 0.0032,-0.0054 c 0.05117,-0.06058 0.09376,-0.129359 0.125057,-0.203606 l 1.649445,-2.689191 h 6.257957 l 1.750786,2.710921 c 0.03234,0.07088 0.07534,0.135519 0.126079,0.193258 l 0.0042,0.0072 h 0.0011 c 0.145079,0.161479 0.355967,0.262512 0.591153,0.262512 0.439734,0 0.793743,-0.354009 0.793743,-0.793743 0,-0.08738 -0.0134,-0.171619 -0.03926,-0.250114 l -1.548215,-9.273609 v -0.0011 c 0,-0.439734 -0.354009,-0.793743 -0.793743,-0.793743 h -1.587485 c -0.439734,0 -0.793743,0.354009 -0.793743,0.793743 v 0.0011 h -3.174972 v -0.0011 c 0,-0.439734 -0.354009,-0.793743 -0.793743,-0.793743 z"
     style="fill:#ffffff;fill-opacity:1;stroke-width:0.529167"
     id="path2073"
     sodipodi:nodetypes="csccssccccccccccssccssssccscc" />
  <path
     d="m 14.019866,13.232313 c -0.146429,0 -0.263549,0.117115 -0.263549,0.26355 v 0.791673 h -0.791674 c -0.146429,0 -0.264581,0.118151 -0.264581,0.264581 v 0.529162 c 0,0.146429 0.118151,0.264581 0.264581,0.264581 h 0.791674 v 0.796844 c 0,0.146428 0.117119,0.26458 0.263549,0.26458 h 0.530193 c 0.146435,0 0.263549,-0.118151 0.263549,-0.26458 V 15.34586 h 0.797876 c 0.146435,0 0.263549,-0.118151 0.263549,-0.264581 v -0.529162 c 0,-0.146429 -0.117115,-0.264581 -0.263549,-0.264581 h -0.797876 v -0.791673 c 0,-0.146435 -0.117114,-0.26355 -0.263549,-0.26355 z m 4.762457,0 c -0.438374,0 -0.793743,0.35537 -0.793743,0.793743 0,0.438374 0.355369,0.793743 0.793743,0.793743 0.438374,0 0.793743,-0.355369 0.793743,-0.793743 0,-0.438373 -0.355369,-0.793743 -0.793743,-0.793743 z m 1.587485,2.642709 c -0.438373,0 -0.793742,0.355369 -0.793742,0.793742 0,0.438374 0.355369,0.793743 0.793742,0.793743 0.438374,0 0.793743,-0.355369 0.793743,-0.793743 0,-0.438373 -0.355369,-0.793742 -0.793743,-0.793742 z"
     style="fill:#3f51b5;fill-opacity:1;stroke-width:0.793743"
     id="path2045" />
</svg>
