<?xml version="1.0" encoding="UTF-8" standalone="no"?>
<!-- Created with Inkscape (http://www.inkscape.org/) -->

<svg
   width="128"
   height="128"
   viewBox="0 0 33.866666 33.866668"
   version="1.1"
   id="svg1099"
   inkscape:version="1.2 (dc2aedaf03, 2022-05-15)"
   sodipodi:docname="applications-educations.svg"
   xmlns:inkscape="http://www.inkscape.org/namespaces/inkscape"
   xmlns:sodipodi="http://sodipodi.sourceforge.net/DTD/sodipodi-0.dtd"
   xmlns="http://www.w3.org/2000/svg"
   xmlns:svg="http://www.w3.org/2000/svg">
  <sodipodi:namedview
     id="namedview1101"
     pagecolor="#ffffff"
     bordercolor="#666666"
     borderopacity="1.0"
     inkscape:pageshadow="2"
     inkscape:pageopacity="0.0"
     inkscape:pagecheckerboard="0"
     inkscape:document-units="px"
     showgrid="false"
     units="px"
     inkscape:zoom="3.1953125"
     inkscape:cx="13.300733"
     inkscape:cy="119.39364"
     inkscape:window-width="1846"
     inkscape:window-height="1011"
     inkscape:window-x="0"
     inkscape:window-y="0"
     inkscape:window-maximized="1"
     inkscape:current-layer="svg1099"
     inkscape:showpageshadow="2"
     inkscape:deskcolor="#d1d1d1"
     showguides="false" />
  <defs
     id="defs1096" />
  <rect
     style="opacity:1;fill:#2e7153;fill-opacity:1;stroke-width:1.05833;stroke-linecap:round"
     id="rect934"
     width="27.516666"
     height="27.516666"
     x="3.175"
     y="3.175"
     ry="2.2489583" />
  <path
     id="rect2485"
     style="opacity:0.5;fill:#000000;fill-opacity:1;stroke-width:0.529166"
     d="m 5.4239584,3.1750001 c -1.2459217,0 -2.2489583,1.0030366 -2.2489583,2.2489583 V 28.442709 c 0,1.245922 1.0030366,2.248958 2.2489583,2.248958 H 28.442709 c 1.245922,0 2.248958,-1.003036 2.248958,-2.248958 V 5.4239584 c 0,-1.2459217 -1.003036,-2.2489583 -2.248958,-2.2489583 z M 5.5562501,3.4395834 H 28.310417 c 1.172633,0 2.116667,0.9440345 2.116667,2.1166667 V 27.516667 c 0,1.172633 -0.944034,2.116667 -2.116667,2.116667 H 5.5562501 c -1.1726322,0 -2.1166667,-0.944034 -2.1166667,-2.116667 V 5.5562501 c 0,-1.1726322 0.9440345,-2.1166667 2.1166667,-2.1166667 z" />
  <path
     d="m 21.056799,13.926124 c 0,0.02469 -0.0104,0.04517 -0.03106,0.06148 h -0.06148 l 0.02446,-0.03702 c 0.0124,-0.02026 0.03504,-0.02843 0.0681,-0.02446 z m 3.596972,4.905263 c 0,0.102688 -0.05554,0.207581 -0.1666,0.314677 -0.11106,0.09872 -0.1666,0.203616 -0.1666,0.314677 l -0.04298,-0.0059 h -0.02448 c -0.02474,0 -0.04318,-0.0081 -0.05552,-0.02446 l 0.06148,-0.04958 c -0.02474,-0.0573 -0.06588,-0.08594 -0.12364,-0.08594 -0.0326,0 -0.06544,0.0081 -0.0985,0.02446 l -0.11106,0.04892 c -0.03702,0.01674 -0.05752,0.0498 -0.06148,0.09916 v 0.07404 l 0.0304,0.03041 c -0.0162,0.0044 -0.0326,0.0066 -0.04892,0.0066 h -0.03702 c -0.0168,0 -0.04142,-0.0044 -0.07404,-0.01322 -0.02908,-0.0119 -0.05378,-0.03636 -0.07404,-0.07338 l -0.11106,0.0985 c -0.0454,0.02864 -0.08462,0.04297 -0.11768,0.04297 -0.02474,0 -0.05332,-0.01014 -0.08596,-0.03041 -0.02474,-0.0088 -0.0454,-0.0068 -0.06214,0.0059 -0.0122,0.01234 -0.0184,0.03702 -0.0184,0.07404 v 0.09255 l -0.283568,-0.173194 c -0.0573,0.107098 -0.1417,0.160644 -0.253198,0.160644 -0.04936,0 -0.13354,-0.01432 -0.252534,-0.04297 l -0.253196,-0.04363 -0.09256,0.0066 -0.14214,-0.142132 c -0.03262,0 -0.0573,0.02249 -0.07404,0.06743 l -0.03702,0.105114 0.03106,0.03107 -0.03106,0.03041 c -0.04944,-0.11107 -0.14396,-0.195248 -0.283674,-0.252543 -0.1397,-0.0617 -0.281624,-0.09255 -0.42574,-0.09255 -0.0454,-0.02469 -0.09894,-0.08859 -0.16064,-0.191714 -0.04936,-0.106654 -0.1007,-0.159982 -0.15404,-0.159982 -0.03702,0 -0.07404,0.01234 -0.11106,0.03702 -0.02468,-0.02469 -0.06368,-0.02469 -0.11702,0 l -0.09916,0.03702 c -0.02864,0 -0.05112,-0.02864 -0.06742,-0.08594 -0.07844,0 -0.18952,-0.0454 -0.333188,-0.136184 -0.140152,-0.09079 -0.243061,-0.136186 -0.308728,-0.136186 l -0.09916,0.01852 c 0.03746,-0.04936 0.05619,-0.09652 0.05619,-0.141472 0,-0.04495 -0.04936,-0.115028 -0.148084,-0.210224 -0.09872,-0.09872 -0.141912,-0.191274 -0.129572,-0.277656 -0.09475,0 -0.142132,0.04319 -0.142132,0.129572 l 0.0066,0.09255 c 0,0.04143 0.004,0.07228 0.0119,0.09255 l -0.01852,0.08065 c -0.0573,-0.01674 -0.09233,-0.08462 -0.105114,-0.203616 0,-0.11547 -0.03305,-0.18951 -0.09916,-0.222125 l 0.142132,-0.142132 c -0.05289,-0.01632 -0.100044,-0.02864 -0.141474,-0.03702 -0.04143,-0.0084 -0.08881,-0.01256 -0.142132,-0.01256 l -0.01256,-0.09255 c 0,-0.04936 0.01036,-0.111062 0.03107,-0.185104 l 0.03107,-0.172544 c 0,-0.0454 -0.01036,-0.0866 -0.03107,-0.123624 -0.01234,-0.03702 -0.0454,-0.07602 -0.09916,-0.117012 0.01276,-0.01234 0.02314,-0.04319 0.03107,-0.09255 l -0.0119,-0.129572 c -0.07845,-0.02469 -0.117674,-0.07206 -0.117674,-0.142132 l 0.03702,-0.222125 c -0.01234,-0.02864 -0.02249,-0.04914 -0.03041,-0.06148 -0.07008,0.01234 -0.119438,0.05355 -0.148084,0.123624 l -0.07404,0.191714 -0.02512,-0.105774 c 0,-0.04495 0.02887,-0.108638 0.0866,-0.191056 0.0617,-0.08242 0.09255,-0.141912 0.09255,-0.178494 l -0.01256,-0.06214 0.08065,0.01852 c 0.01632,-0.01234 0.03063,-0.03504 0.04297,-0.06809 l 0.01256,-0.0985 v -0.08594 c 0,-0.0454 0.0061,-0.08462 0.01852,-0.117674 0.01234,-0.03305 0.0454,-0.05157 0.09916,-0.05553 0.02424,-0.02071 0.04253,-0.04341 0.05487,-0.06809 0.01632,-0.02864 0.02446,-0.06963 0.02446,-0.12296 -0.01234,-0.04143 -0.04099,-0.06214 -0.08594,-0.06214 -0.03702,0 -0.06589,0.0044 -0.0866,0.01322 l -0.04958,0.01784 c 0.01234,-0.0573 0.07206,-0.13332 0.179154,-0.228074 0.111062,-0.09475 0.166594,-0.18312 0.166594,-0.265096 0,-0.04936 -0.01036,-0.09475 -0.03107,-0.136184 h 0.04958 c 0,0.09872 0.0042,0.181138 0.01256,0.247246 0.01234,0.0617 0.05553,0.104894 0.129572,0.129572 0.06963,0.01234 0.110622,-0.02291 0.122962,-0.105774 0.01234,-0.08594 0.04936,-0.135082 0.111062,-0.147422 l 0.01322,-0.06809 c 0,-0.02469 -0.01256,-0.07184 -0.03768,-0.141472 l -0.03702,-0.105774 c 0,-0.04054 0.01036,-0.0714 0.03107,-0.09255 l -0.01256,0.06214 c 0,0.0573 0.03085,0.115028 0.09255,0.173206 l 0.172542,0.141472 c 0.05773,-0.03702 0.109298,-0.09453 0.154696,-0.172542 0.04936,-0.07801 0.08242,-0.162406 0.09916,-0.253196 -0.0044,-0.02071 -0.02732,-0.0412 -0.06876,-0.06148 -0.03702,-0.02071 -0.0617,-0.04738 -0.07404,-0.07999 0.0454,-0.02071 0.0866,-0.01056 0.123622,0.03041 l 0.11106,0.111062 0.14214,-0.172544 0.0304,0.03107 c 0.02468,-0.01674 0.0412,-0.0498 0.04958,-0.09916 l -0.02446,-0.159982 c 0,-0.04143 0.02864,-0.0703 0.08594,-0.0866 l 0.03106,0.345748 c 0.04936,0.004 0.08022,-0.02909 0.09256,-0.09916 0.0164,-0.07404 0.03284,-0.119216 0.04958,-0.135522 l 0.10444,0.0059 c 0.0617,0 0.11106,-0.0061 0.14808,-0.01852 0.03702,-0.01632 0.05774,-0.04716 0.06214,-0.09255 l -0.0126,-0.05553 c -0.0164,-0.07404 0.0146,-0.117232 0.09256,-0.129572 0.078,-0.01632 0.12538,-0.04099 0.14214,-0.07404 l 0.05554,0.09916 c 0.008,0.0079 0.03658,0.0119 0.08594,0.0119 l 0.03106,-0.191714 c 0.02072,0.01276 0.04342,0.0068 0.0681,-0.01784 l 0.07404,-0.07404 v -0.03107 c 0.02864,0 0.06964,0.01432 0.12296,0.04297 l 0.12958,0.04958 c 0.03702,-0.02071 0.06788,-0.06193 0.09256,-0.123624 0.02468,-0.06611 0.05156,-0.109298 0.08066,-0.129572 l -0.0066,0.111062 c 0,0.04936 0.0188,0.08638 0.0562,0.111062 0.0661,0.01234 0.11326,-0.01432 0.14148,-0.07999 v -0.03107 l 0.11106,0.105114 c 0.02072,0.01234 0.04142,0.01852 0.06214,0.01852 0.008,0 0.02842,-0.0042 0.06148,-0.01256 0.0124,-0.06963 0.06588,-0.13354 0.16064,-0.191714 0.09872,-0.0617 0.15624,-0.10269 0.17254,-0.122964 0.08242,-0.01632 0.1298,0.01454 0.14214,0.09255 l 0.0304,0.197664 c 0.0088,-0.0044 0.015,-0.0086 0.0184,-0.01256 0.02474,-0.02071 0.05552,-0.05575 0.09254,-0.105114 0.02474,0.05773 0.08638,0.0866 0.1851,0.0866 l 0.06808,-0.0059 0.03106,-0.01852 c 0.02474,0.02071 0.03704,0.0476 0.03704,0.08065 0,0.03261 -0.02474,0.09211 -0.07404,0.178494 -0.04938,0.07404 -0.07404,0.123404 -0.07404,0.148084 0,0.02469 0.0184,0.03702 0.05554,0.03702 l 0.11702,-0.01852 0.02448,0.06809 c -0.004,0.004 -0.006,0.0081 -0.006,0.01256 -0.02024,0.01632 -0.05112,0.03482 -0.09254,0.05553 -0.06168,0.01632 -0.09454,0.04495 -0.0985,0.08594 h -0.07998 c -0.0082,-0.01234 -0.0144,-0.02269 -0.0184,-0.03107 -0.0168,-0.02026 -0.04142,-0.04672 -0.07404,-0.07933 -0.0573,0.06963 -0.11284,0.104452 -0.1666,0.104452 -0.02474,0 -0.06392,-0.01432 -0.11768,-0.04297 -0.04098,-0.03305 -0.09036,-0.05773 -0.14808,-0.07404 l -0.1851,-0.02512 c -0.02864,0 -0.06566,0.0022 -0.11106,0.0066 -0.04098,0.0035 -0.08616,0.0117 -0.13552,0.02446 l -0.320628,0.05553 c -0.522682,0.275453 -0.919774,0.517851 -1.19126,0.727195 -0.267078,0.210226 -0.400618,0.487882 -0.400618,0.83297 l -0.09916,-0.01784 c -0.0617,0 -0.10269,0.0617 -0.122964,0.185104 0,0.111062 -0.01036,0.180918 -0.03107,0.209564 0.02071,0.0617 0.03107,0.125606 0.03107,0.191714 0,0.07801 -0.02071,0.186868 -0.06214,0.326577 -0.03702,0.135744 -0.05553,0.230498 -0.05553,0.284267 0,0.0573 0.0084,0.108638 0.02512,0.154034 0.01632,0.04099 0.05333,0.09035 0.111062,0.148084 -0.0044,0.0573 0.0018,0.104452 0.01852,0.141474 l 0.185104,0.154697 c 0.09872,0.06611 0.17894,0.179154 0.240634,0.339137 0.0661,0.156456 0.14412,0.234685 0.234024,0.234685 l 0.09256,-0.01852 c 0.05376,0.09431 0.20185,0.189072 0.44425,0.284268 0.242838,0.08991 0.39511,0.211106 0.45681,0.363597 0.0454,0.01234 0.07624,-0.002 0.09256,-0.04297 0.0044,-0.02071 0.0106,-0.04143 0.0186,-0.06214 0.0044,0 0.0086,-0.002 0.0126,-0.0059 l 0.530192,0.154696 c 0.271486,0.06963 0.473116,0.143676 0.604892,0.222125 0.03704,-0.05773 0.08638,-0.09696 0.1481,-0.117674 0.06168,-0.02026 0.13374,-0.03041 0.216178,-0.03041 h 0.12958 l 0.20361,-0.01852 c 0.05332,-0.01234 0.10466,-0.0454 0.15404,-0.09916 0.13178,-0.06611 0.210008,-0.16483 0.234694,-0.296166 l 0.04958,-0.351702 c 0.03702,0.03702 0.07184,0.05752 0.10444,0.06148 0.02864,0 0.07604,-0.04517 0.14212,-0.135524 l 0.11702,-0.148084 c -0.0122,-0.07008 0.0144,-0.117454 0.08066,-0.142132 l 0.13552,0.339798 c 0.04938,0.111062 0.07404,0.217938 0.07404,0.320627 0,0.0573 -0.0122,0.127148 -0.03702,0.209565 z m -5.756742,-1.29573 c -0.01234,0.01234 -0.02049,0.02269 -0.02446,0.03107 0,0.004 -0.002,0.01014 -0.0059,0.01852 l -0.03107,-0.111062 z m -0.03041,0.191714 h -0.03107 v -0.03107 h 0.03107 z m 0.740417,0.9123 h -0.03107 v -0.09255 h 0.03107 z m 3.121649,-4.682477 -0.04298,-0.07404 c -0.0124,-0.04143 -0.03504,-0.06413 -0.0681,-0.06809 l -0.03042,0.07999 c 0.02026,0.02469 0.04694,0.04738 0.07998,0.06809 0.02468,0.0084 0.04518,0.0064 0.06148,-0.0059 z m -3.374845,1.844433 h -0.09255 l 0.06148,0.04958 0.02512,-0.03107 z m -0.123622,0.475321 c -0.02469,0 -0.05135,0.01432 -0.07999,0.04297 l -0.03107,0.04958 h 0.06214 l 0.04297,-0.04958 z m 0.629354,0.42574 c -0.01632,-0.01632 -0.0368,-0.02249 -0.06148,-0.01852 v 0.160644 c 0.03305,-0.01234 0.05157,-0.03504 0.05553,-0.06809 z m -0.505732,0.345748 v -0.06214 h -0.03107 v 0.06214 z m -0.09255,0.678275 h -0.04958 v 0.09255 l 0.03107,-0.03041 z m 5.201427,0.771488 c -0.03306,-0.01234 -0.05354,-0.02269 -0.06148,-0.03107 -0.04142,0.02469 -0.06612,0.04738 -0.07404,0.06809 -0.0122,0.01234 -0.0184,0.03504 -0.0184,0.06809 l 0.0304,0.06743 h 0.03106 l 0.07394,-0.08594 c 0.0162,-0.02469 0.02248,-0.05355 0.0184,-0.0866 z m 0,0.42574 v -0.06148 c -0.0122,-0.01234 -0.04318,-0.02269 -0.09254,-0.03107 -0.0084,0.02864 -0.0042,0.05333 0.0124,0.07404 0.0162,0.01632 0.04298,0.02249 0.07998,0.01852 z m -2.393794,0.253196 c -0.02072,0 -0.03526,0.004 -0.04364,0.0119 l -0.03702,0.04958 c 0.0124,0.02469 0.03306,0.03085 0.06214,0.01852 l 0.0186,-0.03702 z m -0.710006,0.07999 -0.02446,-0.06809 c -0.02072,-0.0079 -0.03922,-0.0119 -0.05552,-0.0119 v 0.111062 c 0.04098,0 0.06766,-0.01036 0.08,-0.03107 z m -3.402613,-5.291338 c -0.02071,0.01234 -0.0412,0.01852 -0.06148,0.01852 -0.01234,0 -0.03085,-0.0042 -0.05553,-0.01256 l -0.08065,-0.06148 c -0.03261,-0.02866 -0.06126,-0.05533 -0.08594,-0.08001 h 0.08594 c 0,0.03261 0.02887,0.06126 0.0866,0.08594 0.0573,0.01234 0.09431,0.02887 0.111062,0.04958 z m 0.123622,2.659552 -0.06809,0.0119 v -0.06743 c 0.01234,0.004 0.02269,0.01014 0.03107,0.01852 z m 0.326578,-1.962105 c -0.01234,-0.02469 -0.02249,-0.03922 -0.03041,-0.04363 l -0.03702,-0.03041 -0.06214,0.0119 c -0.03702,0 -0.08021,-0.03085 -0.129572,-0.09255 -0.01632,-0.02469 -0.03879,-0.04716 -0.06743,-0.06743 -0.0084,-0.0044 -0.01874,-0.01276 -0.03107,-0.02512 -0.02864,0 -0.0595,0.01652 -0.09255,0.04958 l 0.09255,0.222125 c 0.01234,0.03305 0.02269,0.0844 0.03107,0.154034 0.01632,-0.03702 0.04716,-0.06567 0.09255,-0.08594 l 0.222125,-0.02446 -0.03107,0.111062 -0.154034,0.04297 0.05553,0.06148 c 0.01234,0.01234 0.01852,0.03284 0.01852,0.06148 l -0.01852,0.06214 -0.04958,-0.01852 c -0.01234,-0.0084 -0.03284,-0.01256 -0.06148,-0.01256 l -0.07404,0.07404 0.09255,0.07404 c 0.04495,0.02469 0.06743,0.0617 0.06743,0.111062 -0.06963,0.02469 -0.15183,0.08021 -0.246586,0.166594 l -0.290217,0.271045 -0.03041,0.123624 0.08594,0.01256 -0.284267,0.216176 -0.06082,-0.117674 c -0.01674,-0.02864 -0.0476,-0.03261 -0.09255,-0.0119 l -0.07404,0.09851 h -0.05553 c 0.02469,-0.0454 0.0081,-0.07404 -0.04958,-0.08594 l -0.105114,-0.03768 -0.02446,0.0866 0.01852,0.08594 0.06148,0.105774 c 0.01674,0.01632 0.03327,0.02446 0.04958,0.02446 l 0.04958,0.0059 0.05553,-0.0866 h 0.07404 c 0.01234,0.07008 -0.01454,0.144116 -0.08065,0.222125 -0.06567,0.07801 -0.0985,0.13354 -0.0985,0.166594 0,0.02864 0.0081,0.0595 0.02446,0.09255 l 0.123622,0.129572 c 0.07404,-0.0454 0.111062,-0.119438 0.111062,-0.222125 l 0.01852,-0.172544 h 0.123622 c 0.0079,0.02026 0.0141,0.0573 0.01852,0.111062 0.0079,0.04936 0.0119,0.104894 0.0119,0.166594 0,0.131336 0.03305,0.240195 0.09916,0.326577 l -0.01852,0.142132 c 0,0.04936 0.02469,0.08638 0.07404,0.111062 l 0.04892,-0.06148 0.02512,-0.111062 -0.0066,-0.123624 c 0,-0.07801 0.03922,-0.117012 0.117674,-0.117012 l 0.05553,0.0059 0.05553,0.02446 0.05553,0.04297 c -0.04936,0.01234 -0.08837,0.04099 -0.117012,0.08594 -0.02071,0.0498 -0.03107,0.10974 -0.03107,0.179816 v 0.0985 l 0.02446,0.129572 c 0.07404,0.02071 0.111062,0.05575 0.111062,0.105114 0,0.03261 -0.02249,0.07779 -0.06743,0.135524 l -0.06809,0.09916 0.05553,0.0053 0.123622,-0.01852 v -0.03041 h 0.03041 v 0.215514 c -0.01234,-0.03261 -0.03702,-0.04892 -0.07404,-0.04892 -0.02469,0 -0.04319,0.01632 -0.05553,0.04892 l 0.04363,0.123624 c -0.06611,0 -0.105334,0.04517 -0.117674,0.135524 0,0.07404 -0.01234,0.12759 -0.03702,0.160644 -0.02469,-0.03702 -0.03702,-0.07602 -0.03702,-0.117012 l 0.01852,-0.117674 0.02512,-0.135524 c 0,-0.07404 -0.04936,-0.111062 -0.148084,-0.111062 l -0.123624,0.117012 c -0.02071,0.02469 -0.03107,0.0617 -0.03107,0.111062 l 0.07404,0.04363 c 0.04143,0.01234 0.06831,0.03085 0.08065,0.05553 l -0.129572,0.234024 c -0.03702,0.0617 -0.05553,0.1212 -0.05553,0.178494 0,0.0573 0.02249,0.108858 0.06743,0.154696 0,0.02864 -0.01432,0.06368 -0.04297,0.105114 l -0.07999,0.09255 c -0.01234,-0.02071 -0.01852,-0.04341 -0.01852,-0.06809 l 0.01852,-0.09916 0.02446,-0.116352 c 0,-0.04936 -0.03305,-0.08242 -0.09916,-0.09916 -0.0119,0.01234 -0.04054,0.07008 -0.08594,0.173206 -0.02864,0.08638 -0.08418,0.123404 -0.166594,0.111062 0,0.06963 -0.01234,0.147642 -0.03702,0.234023 l -0.08594,0.271046 -0.03107,-0.07933 c -0.01234,-0.04143 -0.03504,-0.0703 -0.06809,-0.0866 -0.01632,0.0084 -0.02666,0.03702 -0.03107,0.08594 0,0.04143 -0.01852,0.06831 -0.05553,0.08065 l -0.0496,-0.04295 c -0.01632,-0.01234 -0.03261,-0.0084 -0.04892,0.0119 -0.03702,0.02071 -0.06567,0.06391 -0.08594,0.129572 -0.02116,0.06611 -0.05201,0.101146 -0.09255,0.105114 l -0.0747,-0.01852 c -0.01632,0.0617 -0.09035,0.09872 -0.222125,0.111062 -0.123402,0 -0.191276,0.04738 -0.203615,0.142132 -0.01632,-0.0088 -0.02666,-0.02534 -0.03107,-0.04958 l 0.02512,-0.123622 c 0,-0.03261 -0.02689,-0.05112 -0.08065,-0.05553 -0.03702,-0.01234 -0.08219,0.0061 -0.135524,0.05553 -0.04936,0.04936 -0.08837,0.07801 -0.117012,0.08594 l -0.03107,-0.252535 -0.05553,-0.01852 c -0.02864,0 -0.07184,0.01454 -0.129572,0.04363 l -0.105114,0.03702 c -0.04099,0 -0.06148,-0.04319 -0.06148,-0.129572 l -0.03702,-0.04363 -0.03107,-0.01852 -0.05553,0.06214 c 0.0084,0.0079 0.01256,0.01806 0.01256,0.03041 0.004,0.01234 0.0081,0.02071 0.01256,0.02512 l -0.06809,0.04297 c 0.01234,-0.0617 -0.01852,-0.117232 -0.09255,-0.166594 -0.07008,-0.04936 -0.111282,-0.09255 -0.123624,-0.129572 -0.0617,0.01632 -0.09453,0.05112 -0.0985,0.104452 l 0.01256,0.06809 0.0119,0.07999 c 0,0.04143 -0.02644,0.07448 -0.07933,0.09916 -0.04583,-0.01234 -0.07492,-0.07624 -0.08726,-0.191714 0,-0.118996 -0.05553,-0.168358 -0.166594,-0.148084 -0.0079,0.05376 -0.02226,0.09696 -0.04297,0.129572 -0.02071,0.03305 -0.05376,0.04143 -0.09916,0.02512 l 0.01322,-0.06809 -0.02512,-0.117012 -0.01852,-0.142132 0.01852,-0.09255 c 0.01234,-0.02469 0.04936,-0.05333 0.111062,-0.08594 l -0.0059,-0.0866 0.0066,-0.09916 c 0,-0.06567 -0.02689,-0.112826 -0.08065,-0.141474 h -0.09916 l 0.03768,-0.105114 c 0.01234,-0.02864 0.03284,-0.04517 0.06148,-0.04958 l -0.03106,-0.209552 c -0.004,-0.06611 -0.01212,-0.123624 -0.02446,-0.172544 -0.0084,-0.04936 -0.02269,-0.09255 -0.04297,-0.129572 0.03702,0 0.06787,-0.01454 0.09255,-0.04363 0.02864,-0.03261 0.04914,-0.06963 0.06148,-0.111062 -0.0044,-0.04495 0.0018,-0.110623 0.01852,-0.197005 0.02469,-0.07404 0.03702,-0.127588 0.03702,-0.160644 0,-0.03702 -0.0081,-0.07206 -0.02446,-0.105114 l -0.06214,-0.08594 c 0.0454,-0.03702 0.06809,-0.0844 0.06809,-0.142132 0,-0.02864 -0.02049,-0.08219 -0.06148,-0.160644 l -0.06214,-0.148084 c 0,-0.04936 0.02887,-0.09652 0.0866,-0.141472 -0.0084,-0.01234 -0.03305,-0.02269 -0.07404,-0.03107 l -0.05553,0.06148 v -0.09784 c 0.03702,0 0.06368,-0.01632 0.07999,-0.04892 l 0.04958,-0.111062 -0.07404,-0.154696 c 0.02469,-0.02026 0.04319,-0.05928 0.05553,-0.117012 0.01234,-0.0573 0.03702,-0.102468 0.07404,-0.135524 l -0.04297,-0.08065 c -0.01234,-0.04099 -0.03504,-0.06963 -0.06809,-0.08594 l -0.129572,0.03702 c 0,-0.02071 0.02864,-0.06611 0.08594,-0.136184 0.0617,-0.06963 0.09696,-0.12098 0.105774,-0.154034 0,-0.03702 -0.02689,-0.07602 -0.08065,-0.117012 l -0.0059,-0.203615 -0.01256,-0.154696 c 0,-0.0617 0.0061,-0.111062 0.01852,-0.148084 l -0.02446,-0.117012 -0.0059,-0.117012 c 0,-0.209785 0.05752,-0.390922 0.172542,-0.543413 0.06611,0.0084 0.138168,-0.01828 0.216176,-0.07999 0.07801,-0.06611 0.139708,-0.10313 0.185104,-0.111062 0.05333,0 0.108858,0.03504 0.166594,0.105114 0.02071,-0.0044 0.05575,-0.04143 0.105114,-0.111062 0.04936,-0.05773 0.09255,-0.09079 0.129572,-0.09916 0.02864,0 0.06765,0.01852 0.117012,0.05553 0.04936,0 0.09453,-0.03482 0.135524,-0.104452 0.04143,-0.07404 0.08682,-0.11525 0.136184,-0.123624 0.04099,0 0.07801,0.01036 0.111062,0.03107 0.01234,-0.02469 0.02864,-0.03922 0.04892,-0.04363 l 0.160644,0.06809 -0.01852,0.06148 c 0,0.03305 0.02269,0.06192 0.06809,0.0866 0.03261,0.0084 0.08197,0.01256 0.148084,0.01256 l 0.0555,-0.08594 -0.117674,-0.04363 c -0.03261,-0.01674 -0.05509,-0.0454 -0.06743,-0.08594 l 0.05553,-0.01322 c 0.03702,0 0.08638,0.01454 0.148084,0.04363 l 0.135524,0.03702 c 0.02864,0 0.0617,-0.01234 0.09916,-0.03702 v 0.185104 l 0.06743,0.01852 c 0.03702,0 0.0844,-0.03504 0.142132,-0.105114 0.04936,-0.07404 0.09035,-0.111062 0.122962,-0.111062 0.03702,0 0.08638,0.03702 0.148084,0.111062 l 0.142132,-0.02447 h 0.09255 l 0.06148,-0.0066 -0.222125,0.117674 0.247246,0.09916 c 0.02864,0 0.0595,-0.01036 0.09255,-0.03107 0,0.06963 0.05752,0.118996 0.172542,0.148084 0.118996,0.02864 0.20119,0.07382 0.246587,0.135524 0.10313,0.04936 0.191714,0.104894 0.265756,0.166594 0.07404,0.0617 0.141912,0.141912 0.203616,0.240635 z m -3.93611,2.721032 -0.04363,-0.123623 h 0.04363 z m 3.769517,0.07404 -0.129572,-0.03107 c 0.01234,-0.03702 0.02469,-0.06368 0.03702,-0.07999 0.01674,-0.02071 0.03526,-0.03526 0.05553,-0.04363 0.02469,0 0.03702,0.02689 0.03702,0.08065 z m -0.283607,0.955931 -0.0059,0.07404 c 0,0.03305 -0.0081,0.05157 -0.02446,0.05553 l -0.04363,-0.129572 z m -0.512342,0.82107 c -0.0573,0 -0.09828,-0.03305 -0.12296,-0.09916 l 0.12296,-0.03041 z M 16.499931,13.76812 c -0.01632,-0.01632 -0.02026,-0.03482 -0.0119,-0.05553 h -0.05553 v 0.0866 c 0.03261,0 0.05509,-0.01036 0.06743,-0.03107 z m 0.506392,0.09916 v -0.123624 h -0.136184 c -0.03261,0.03702 -0.03041,0.06787 0.0066,0.09255 0.03658,0.02469 0.07955,0.03504 0.128912,0.03107 z m -0.136184,0.284268 -0.0059,-0.06875 c 0,-0.04495 -0.0081,-0.0736 -0.02446,-0.08594 v 0.154034 z m 0.832969,0.153372 c -0.0079,-0.0079 -0.03261,-0.0161 -0.07404,-0.02446 v 0.09916 c 0.02469,-0.01674 0.0454,-0.03746 0.06214,-0.06214 0,-0.004 0.004,-0.0081 0.0119,-0.01256 z m -0.413179,0 -0.06809,0.173206 h 0.04363 l 0.05553,-0.136184 c -0.01234,-0.02469 -0.02269,-0.03702 -0.03107,-0.03702 z m 0.4383,0.38343 v -0.130234 c 0,-0.05333 -0.02887,-0.07999 -0.0866,-0.07999 l -0.03702,0.252535 c 0.02071,0.01234 0.0454,0.0084 0.07404,-0.0119 z m 0,0.171884 c -0.0454,0 -0.07845,0.01852 -0.09916,0.05553 h 0.07404 z m -0.185104,0.08065 h -0.06809 v 0.07404 l 0.05553,-0.01256 c 0.01234,0 0.01852,-0.0042 0.01852,-0.01256 0.004,-0.01234 0.002,-0.02864 -0.0059,-0.04892 z m -0.253196,0.129572 v 0.06743 h 0.05553 l 0.02446,-0.02446 c -0.004,-0.02469 -0.03063,-0.03901 -0.07999,-0.04297 z m -0.197664,0.284267 v -0.117674 l 0.0066,-0.123624 c 0,-0.107098 -0.01036,-0.18929 -0.03107,-0.246586 -0.01674,-0.0617 -0.05994,-0.1212 -0.129572,-0.178494 -0.07008,-0.02512 -0.131776,-0.06434 -0.185104,-0.117674 -0.05377,-0.05377 -0.08682,-0.109298 -0.09916,-0.166594 0,0.0617 -0.0081,0.09475 -0.02446,0.09916 -0.0084,-0.0498 -0.03107,-0.08704 -0.06809,-0.111724 -0.03261,-0.02864 -0.0736,-0.04517 -0.122964,-0.04958 -0.04143,0 -0.07647,0.02071 -0.105114,0.06214 l -0.203616,-0.07404 c -0.0454,-0.02071 -0.09057,-0.06192 -0.135524,-0.123624 -0.02469,-0.01234 -0.04936,-0.01036 -0.07404,0.0059 -0.02469,0.01234 -0.04319,0.03504 -0.05553,0.06809 -0.03305,0.03261 -0.07008,0.05311 -0.111062,0.06148 -0.03702,0 -0.09057,-0.03305 -0.160644,-0.09916 -0.0617,-0.06963 -0.10291,-0.108638 -0.123624,-0.117012 l -0.104452,0.148084 c -0.03305,0.07008 -0.07845,0.123622 -0.136184,0.160644 l 0.02512,0.09916 -0.02512,0.1104 -0.01852,0.117674 0.01852,0.07999 0.09916,-0.129572 c 0.04936,-0.0573 0.07801,-0.116792 0.08594,-0.178494 l 0.03107,0.04892 0.03702,0.04958 c -0.02864,0.01632 -0.0573,0.04099 -0.08594,0.07404 l -0.02512,0.07999 c 0,0.03305 0.02469,0.08859 0.07404,0.166594 0.04936,0.07801 0.07404,0.13354 0.07404,0.166594 0,0.0454 -0.04517,0.08043 -0.135524,0.105114 0.01234,-0.02469 0.02864,-0.03922 0.04892,-0.04363 l 0.08065,0.04363 c 0.02469,0.02469 0.04517,0.0595 0.06148,0.104452 l 0.01852,0.117674 -0.01256,0.172542 -0.0119,0.129572 c 0.0573,0.01632 0.09211,0.08021 0.104452,0.191714 0,0.10269 0.03085,0.166374 0.09255,0.191054 0,-0.09079 0.01652,-0.14632 0.04958,-0.166594 0.03702,-0.02469 0.08638,-0.03702 0.148084,-0.03702 h 0.07999 c 0.04143,0 0.07448,-0.0061 0.09916,-0.01852 0.02864,-0.01674 0.04914,-0.05178 0.06148,-0.105114 l 0.06148,0.01256 c 0.0454,0 0.09894,-0.04319 0.160644,-0.129572 0.05333,-0.09079 0.115028,-0.136184 0.185104,-0.136184 l -0.0059,0.09255 0.01852,0.166594 0.01852,0.154696 -0.01256,0.09255 h 0.05553 v -0.02512 c 0.01234,-0.07404 0.05355,-0.117232 0.123622,-0.129572 0.01234,-0.01632 0.02269,-0.04275 0.03107,-0.07933 0,-0.06611 -0.03305,-0.105334 -0.09916,-0.117674 l -0.02446,-0.105114 c 0,-0.06611 0.02049,-0.12781 0.06148,-0.185104 l 0.129572,-0.178494 0.0866,0.0985 c 0.01632,0.01632 0.04936,0.02249 0.09916,0.01852 z m -1.875504,-0.117674 c 0.01234,-0.02469 0.0042,-0.04936 -0.02446,-0.07404 l -0.06214,-0.04958 -0.04297,0.05553 c 0.02469,0.06611 0.06787,0.08881 0.129574,0.06809 z m 2.387845,0.117012 v -0.03107 c -0.01234,-0.02469 -0.03085,-0.03085 -0.05553,-0.01852 -0.01632,0.0088 -0.02666,0.02534 -0.03107,0.04958 z m -2.498907,0.01256 h -0.07404 v 0.07404 c 0,0.03702 0.01852,0.05553 0.05553,0.05553 0.01632,-0.01674 0.02446,-0.03327 0.02446,-0.04958 z m 2.270832,0.252535 c 0,-0.03261 -0.01036,-0.05509 -0.03107,-0.06743 v 0.09916 z m -1.993176,0.03107 c -0.01234,-0.06611 -0.03504,-0.101146 -0.06809,-0.105114 -0.03261,0 -0.06545,0.02689 -0.0985,0.08065 -0.02864,0.05333 -0.039,0.10269 -0.03107,0.148084 0.0084,0.01234 0.01454,0.02666 0.01852,0.04297 0.0084,0.01632 0.01674,0.04099 0.02512,0.07404 0.0079,0.02864 0.03658,0.04297 0.08594,0.04297 l -0.0059,-0.111062 c 0,-0.04099 -0.0081,-0.07999 -0.02446,-0.117012 0.04099,-0.04099 0.07404,-0.0595 0.09916,-0.05553 z m -0.407229,0.08594 h -0.04297 l 0.03041,0.06809 z m 0.561923,0.475982 c 0.0119,-0.02909 0.0035,-0.0498 -0.02512,-0.06214 l -0.07404,-0.03702 c -0.02864,0.02071 -0.04517,0.04936 -0.04958,0.08594 l 0.02512,0.04363 0.07999,-0.0059 c 0.02469,-0.0084 0.039,-0.01652 0.04297,-0.02446 z m 0.197004,0.159982 -0.03702,-0.160644 0.02446,0.173206 z m -0.450199,0.123622 V 16.37213 h -0.05553 z m 1.369771,-0.123622 -0.03107,0.06148 c -0.01234,0.02909 -0.01036,0.0498 0.0059,0.06214 z m -1.777001,0.123622 v -0.08594 c -0.01674,-0.02116 -0.02909,-0.03173 -0.03702,-0.03173 l -0.06214,-0.0059 -0.05553,0.06809 c -0.01234,0.02071 -0.004,0.03922 0.02512,0.05553 z m 0.283606,0.252535 v -0.05552 c -0.02469,-0.01632 -0.04319,-0.02446 -0.05553,-0.02446 h -0.04297 c -0.01234,0.02469 -0.0061,0.04517 0.01852,0.06148 z m -0.284267,0.01852 h -0.03041 c -0.02864,0.01234 -0.04517,0.03922 -0.04958,0.08065 0,0.03702 0.01234,0.0617 0.03702,0.07404 z m 2.388506,0.37681 0.02446,-0.05553 -0.04297,-0.142132 c -0.02469,0.03305 -0.03702,0.07008 -0.03702,0.111062 0,0.03702 0.01852,0.06567 0.05553,0.08594 z m -2.005737,-0.01256 h -0.07404 l -0.02446,0.197664 h 0.06809 z m 2.128699,0.271042 v -0.128912 c -0.02026,-0.0084 -0.0346,-0.01256 -0.04297,-0.01256 v 0.142124 z m -2.485686,-0.228068 h -0.05619 l -0.01852,0.166594 -0.02446,0.129572 c 0,0.04936 0.02469,0.09674 0.07404,0.142132 0.03702,-0.03702 0.05553,-0.0844 0.05553,-0.142132 z m 2.263561,0.506392 0.01322,-0.08065 c 0,-0.06963 -0.02909,-0.162186 -0.08726,-0.277657 -0.01632,-0.04099 -0.03261,-0.08815 -0.04892,-0.141472 -0.01674,-0.0573 -0.02909,-0.102688 -0.03702,-0.136184 l -0.136184,0.01852 c -0.06963,0 -0.131336,-0.02049 -0.185104,-0.06148 l 0.0066,-0.07404 0.01784,-0.04958 c -0.04099,-0.01234 -0.08197,0.0042 -0.122964,0.04958 -0.04143,0.04099 -0.07448,0.06567 -0.09916,0.07404 -0.0617,-0.01234 -0.113046,-0.05752 -0.154034,-0.135524 -0.03702,-0.08242 -0.08021,-0.129792 -0.129572,-0.142132 l 0.03107,0.123624 c -0.07008,0.03702 -0.125606,0.05553 -0.166594,0.05553 -0.02909,0 -0.04561,-0.02071 -0.04958,-0.06214 l 0.01852,-0.117012 0.01852,-0.142132 c 0,-0.05289 -0.02049,-0.100044 -0.06148,-0.141472 0.03702,-0.03702 0.05553,-0.08638 0.05553,-0.148084 0,-0.0084 -0.0042,-0.01454 -0.01256,-0.01852 -0.004,-0.0084 -0.0081,-0.01454 -0.01256,-0.01852 -0.004,0.004 -0.01212,0.01014 -0.02446,0.01852 -0.01234,0.004 -0.03284,0.02249 -0.06148,0.05553 -0.02909,0.02864 -0.04363,0.06986 -0.04363,0.123624 0,0.03702 0.0084,0.07801 0.02512,0.122964 l 0.07404,0.117012 c 0,0.04936 -0.03305,0.07624 -0.09916,0.08065 h -0.0985 c -0.03702,0 -0.0617,0.02469 -0.07404,0.07404 -0.02469,-0.02469 -0.04936,-0.06391 -0.07404,-0.117674 l -0.01256,-0.104452 -0.122964,0.141472 c 0.03702,0.03702 0.05553,0.07624 0.05553,0.117674 0,0.02071 -0.03085,0.05972 -0.09255,0.117012 -0.0617,0.04936 -0.09255,0.09674 -0.09255,0.142132 0.02469,0.02469 0.06986,0.03702 0.135524,0.03702 l 0.117012,-0.0066 v 0.08726 c 0,0.04936 -0.01432,0.07404 -0.04297,0.07404 -0.0617,0 -0.09872,0.0081 -0.111062,0.02446 0.09035,0.03702 0.135524,0.09035 0.135524,0.159982 l -0.03702,0.136185 -0.03041,0.129572 0.01852,0.07999 c 0.03702,0.03305 0.05553,0.06611 0.05553,0.09916 0,0.02864 -0.01652,0.06545 -0.04958,0.1104 l -0.04297,0.09916 c 0,0.03702 0.02666,0.07008 0.07999,0.09916 -0.02864,0.02821 -0.05531,0.04848 -0.07999,0.06082 -0.02469,0.01234 -0.03085,0.03922 -0.01852,0.08065 0.02026,0.01632 0.03879,0.04099 0.05553,0.07404 0.01632,0.02864 0.02446,0.0617 0.02446,0.09916 l -0.01852,0.134862 c -0.01234,0.05773 -0.01432,0.100926 -0.0059,0.129572 0.03702,-0.02469 0.06567,-0.03702 0.08594,-0.03702 0.02512,0 0.03967,0.02887 0.04363,0.0866 v 0.09916 c 0,0.06963 0.01234,0.114808 0.03702,0.135524 0.04099,0 0.07184,0.004 0.09255,0.0119 h 0.09255 c 0.16439,0 0.31644,-0.03284 0.45615,-0.0985 0.140152,-0.07008 0.26157,-0.168798 0.364258,-0.296167 0.04936,-0.03305 0.09255,-0.08242 0.129572,-0.148084 l 0.09916,-0.203615 c 0,-0.03305 0.0061,-0.06611 0.01852,-0.09916 0.01632,-0.03658 0.05112,-0.05487 0.104452,-0.05487 l -0.006,-0.03703 v -0.03107 c 0,-0.0454 0.01852,-0.11525 0.05553,-0.209565 l 0.06214,-0.178494 c 0,-0.03746 -0.01234,-0.0747 -0.03702,-0.111724 z m -1.72742,-0.02512 c -0.02071,-0.01632 -0.03724,-0.02644 -0.04958,-0.03041 -0.01234,-0.0044 -0.02249,-0.0086 -0.03041,-0.01256 l 0.05553,0.154034 -0.04958,0.08065 c -0.02071,0.04495 -0.05575,0.06126 -0.105114,0.04892 l -0.0059,0.179154 0.01852,0.216176 c 0.01234,0.0617 0.0412,0.1212 0.0866,0.178494 0,-0.07404 0.0081,-0.125386 0.02446,-0.154034 -0.03702,-0.02469 -0.06368,-0.05333 -0.07999,-0.08594 l -0.02446,-0.08065 c 0,-0.03305 0.03085,-0.09057 0.09255,-0.172542 0.0617,-0.08638 0.09255,-0.15844 0.09255,-0.216176 0,-0.03702 -0.0084,-0.07206 -0.02512,-0.105114 z m -0.536802,0.8766 0.02446,-0.136184 c 0,-0.07801 -0.03085,-0.112826 -0.09255,-0.104452 -0.03261,0.02026 -0.05509,0.04892 -0.06743,0.08594 -0.01234,0.03305 -0.01852,0.08462 -0.01852,0.154696 z m 0.666375,0.419129 -0.03107,-0.04297 -0.02446,0.04297 z m -0.733806,0.185104 -0.0066,-0.0985 c 0,-0.07404 -0.0081,-0.125386 -0.02446,-0.154034 l -0.04958,0.172542 c 0,0.03305 0.0084,0.05972 0.02512,0.07999 z m -4.791556,-2.59212 -0.03107,0.01256 c -0.016319,-0.0044 -0.016319,-0.03129 0,-0.08065 l 0.03107,-0.08594 0.03107,0.06743 z m 2.381895,0 c 0,0.02469 -0.0022,0.04517 -0.0066,0.06148 0,0.01234 -0.0018,0.02469 -0.0053,0.03702 l -0.02512,-0.129572 z m 1.480835,3.498471 -0.105114,0.10512 c -0.02469,0.03262 -0.0412,0.07162 -0.04958,0.11702 -0.0079,-0.0084 -0.01806,-0.05574 -0.03041,-0.14214 0,-0.07404 -0.02269,-0.11504 -0.06809,-0.12296 l -0.06148,0.01852 c -0.0617,0.05334 -0.10291,0.12318 -0.123624,0.209564 l -0.09255,0.02446 c -0.0617,0 -0.117232,-0.04318 -0.166594,-0.12958 l -0.12362,-0.240644 c 0.01234,-0.0617 -0.0061,-0.141912 -0.05553,-0.240634 -0.04495,-0.09872 -0.06743,-0.17673 -0.06743,-0.234026 -0.09079,-0.02469 -0.14632,-0.111062 -0.166594,-0.259146 0,-0.144116 -0.05355,-0.23667 -0.160644,-0.277657 0,-0.123404 -0.04319,-0.246806 -0.129572,-0.370208 L 12.2518,18.135912 c -0.03702,0.01234 -0.07404,0.01036 -0.111062,-0.0059 -0.03261,-0.01632 -0.06963,-0.04716 -0.111062,-0.09255 -0.05333,0.02071 -0.112826,0.03107 -0.178494,0.03107 -0.0617,0 -0.13376,-0.01036 -0.216176,-0.03107 l -0.209567,-0.03108 c -0.07404,0 -0.1461,0.02071 -0.216175,0.06214 l -0.01852,-0.06214 c -0.01234,-0.02469 -0.02269,-0.04099 -0.03107,-0.04892 -0.148084,0.03702 -0.252976,0.148084 -0.314678,0.333188 l -0.08594,0.481271 c -0.04936,-0.0617 -0.08638,-0.137948 -0.111062,-0.228737 l 0.02446,0.04363 c 0.02864,0.01234 0.04914,0.01014 0.06148,-0.0066 l 0.03702,-0.06148 c 0,-0.04936 -0.02469,-0.113266 -0.07404,-0.191714 -0.04495,-0.07757 -0.06743,-0.130896 -0.06743,-0.159982 0,-0.04936 0.04319,-0.09255 0.129572,-0.129572 0,-0.03702 -0.0084,-0.06368 -0.02512,-0.07999 -0.04495,0 -0.08396,0.01234 -0.117012,0.03702 l -0.111062,0.142132 c 0.02864,0.04936 0.04297,0.106654 0.04297,0.171884 0,0.03746 -0.002,0.06655 -0.0059,0.08726 -0.004,0.02026 -0.01828,0.06963 -0.04297,0.148084 l -0.04297,0.228075 c 0,0.09475 0.04936,0.179154 0.148084,0.253196 l -0.129572,0.413183 c -0.02469,0.09872 -0.08638,0.197444 -0.185104,0.296167 -0.02909,-0.0617 -0.06611,-0.09674 -0.111062,-0.105114 -0.01234,0.0044 -0.02689,0.01056 -0.04363,0.01852 -0.01632,0.0084 -0.04297,0.02689 -0.07999,0.05553 -0.03702,0.02469 -0.078228,0.0412 -0.1236222,0.04958 -0.037022,0 -0.076024,-0.02269 -0.117012,-0.06809 l -0.068092,0.09916 h -0.055534 v -0.04958 c -0.032612,0.02469 -0.06743,0.03901 -0.104452,0.04297 -0.037022,0 -0.070076,-0.04517 -0.099162,-0.135524 l -0.055534,-0.166594 0.099162,-0.04297 c -0.01234,-0.02909 -0.045396,-0.06611 -0.099162,-0.111062 -0.049364,-0.04936 -0.07404,-0.09476 -0.07404,-0.136184 0,-0.02469 0.00838,-0.05333 0.02512,-0.08594 l 0.04892,-0.117674 c 0.01234,-0.02026 0.055532,-0.04694 0.129572,-0.07999 0.020714,0.01632 0.053768,0.03284 0.099162,0.04958 0.049362,-0.03702 0.07404,-0.07823 0.07404,-0.123624 0,-0.03702 -0.020714,-0.08638 -0.062142,-0.148084 -0.037022,-0.06611 -0.055532,-0.117454 -0.055532,-0.154034 l 0.01852,-0.06809 0.068092,-0.302116 c 0.02467,-0.181144 0.09452,-0.279866 0.2095495,-0.296173 l -0.098538,-0.129572 c -0.024686,-0.03702 -0.037022,-0.07624 -0.037022,-0.117674 0,-0.02469 0.01234,-0.0617 0.037022,-0.111062 l -0.1170141,-0.12296 c -0.033054,-0.0454 -0.049582,-0.09079 -0.049582,-0.136184 0,-0.03261 0.00418,-0.05509 0.01256,-0.06743 0.09035,0 0.1767301,-0.04319 0.2591463,-0.129572 l 0.1480845,-0.154696 v -0.0985 c 0.02864,0 0.05112,0.002 0.06743,0.0059 l 0.105774,0.02446 c 0.03261,0 0.05905,-0.01852 0.07933,-0.05553 l 0.03107,-0.09916 0.0066,-0.08594 c 0,-0.0573 -0.01874,-0.129132 -0.05619,-0.215514 l -0.111076,-0.284283 0.160644,0.02512 c 0.01234,-0.02469 0.01234,-0.04936 0,-0.07404 l -0.05552,-0.0866 c 0.01234,-0.02864 0.02249,-0.04914 0.03041,-0.06148 l 0.148084,-0.0866 -0.111062,-0.111062 c -0.03702,-0.03702 -0.07404,-0.04936 -0.111062,-0.03702 l 0.02512,-0.160644 c 0,-0.07404 0.004,-0.131556 0.0119,-0.172542 h 0.06214 c 0,0.03702 -0.0084,0.06567 -0.02512,0.08594 0.02071,0.02071 0.05157,0.03526 0.09255,0.04363 0.04143,0 0.08881,-0.01652 0.142132,-0.04958 l 0.111062,-0.05553 c 0.01234,-0.02071 0.01852,-0.03504 0.01852,-0.04297 l 0.01256,-0.07999 -0.05553,-0.02512 -0.08594,0.05553 c -0.03746,0.03702 -0.0747,0.0454 -0.111724,0.02512 l 0.02446,-0.166594 0.02512,-0.173206 c 0,-0.05333 -0.0084,-0.09652 -0.02512,-0.129572 0.0088,-0.0079 0.03151,-0.0119 0.06809,-0.0119 0.02071,0 0.0412,0.02469 0.06148,0.07404 l -0.04297,0.07404 c -0.01234,0.01632 -0.0081,0.03261 0.01256,0.04892 0.05333,-0.02469 0.09035,-0.04936 0.111062,-0.07404 0.02469,-0.02864 0.03702,-0.0595 0.03702,-0.09255 0,-0.02864 -0.01432,-0.07382 -0.04297,-0.135524 l -0.04363,-0.154034 c 0,-0.02909 0.0022,-0.05178 0.0066,-0.06809 0.0079,-0.02071 0.02843,-0.04738 0.06148,-0.07999 l -0.0066,-0.0866 c 0,-0.02864 -0.01632,-0.05135 -0.04892,-0.06809 l -0.04958,0.01852 -0.04958,0.01256 0.216176,-0.357648 c 0.0617,-0.09476 0.143896,-0.142132 0.246586,-0.142132 0,-0.0617 0.02071,-0.09476 0.06214,-0.09916 l 0.104452,0.03107 c 0.04936,0.01234 0.09255,0.01454 0.129572,0.0066 0.07404,0.09828 0.156458,0.147422 0.247246,0.147422 0.04099,0 0.07801,-0.0081 0.111063,-0.02446 0.01234,0.01632 0.01014,0.039 -0.0066,0.06809 l -0.04297,0.05553 c 0.05773,0.004 0.100926,0.02644 0.129572,0.06743 0.02909,0.04143 0.04363,0.09696 0.04363,0.166594 l -0.0066,0.123624 -0.0053,0.123624 -0.05553,0.178494 c 0,0.02909 0.0081,0.05376 0.02446,0.07404 0.04936,0.01234 0.09057,0.03702 0.123622,0.07404 l 0.129572,0.210224 -0.02512,0.166594 c 0,0.08197 0.01454,0.193036 0.04363,0.333188 l 0.05553,0.234023 c -0.0084,0.02071 -0.0064,0.05157 0.0059,0.09255 0.01234,0.03702 0.03482,0.05773 0.06743,0.06214 0.02909,-0.01234 0.0476,-0.02269 0.05553,-0.03107 l 0.02512,-0.02446 c -0.02469,0.04495 -0.03702,0.0963 -0.03702,0.154034 0,0.04936 0.01432,0.119216 0.04297,0.209565 l 0.04297,0.185104 c 0,0.06611 -0.01632,0.12164 -0.04892,0.166594 0.04495,0.02909 0.07977,0.123842 0.104452,0.284267 0.01674,0.148084 0.0476,0.226093 0.09255,0.234024 0.03305,0 0.07426,-0.02249 0.123624,-0.06743 h 0.03107 l 0.0119,0.07404 c 0,0.05333 -0.01632,0.106654 -0.04892,0.159982 -0.03305,0.04936 -0.07228,0.09057 -0.117674,0.123622 0.01674,0.01234 0.03129,0.02049 0.04363,0.02446 0.01234,0.0044 0.02249,0.0086 0.03041,0.01256 0.04936,0 0.08638,-0.0042 0.111062,-0.01256 0.06611,0 0.12781,0.05156 0.185104,0.154696 0.0573,0.102688 0.100486,0.158222 0.129572,0.166594 0.03305,0 0.07426,-0.0454 0.123624,-0.136184 0,0.07008 0.05355,0.135964 0.160644,0.197664 0.09035,0.04936 0.135524,0.125386 0.135524,0.228074 -0.03702,0 -0.0844,-0.03702 -0.142132,-0.111062 -0.0573,-0.07404 -0.102468,-0.11503 -0.135524,-0.122964 -0.03702,0 -0.08219,0.03284 -0.135524,0.0985 0,0.03702 0.02049,0.07823 0.06148,0.123622 l 0.06148,0.08594 c 0,0.02469 -0.02249,0.04936 -0.06743,0.07404 h -0.05552 c 0,-0.07404 -0.01454,-0.123404 -0.04363,-0.148084 h -0.05553 l -0.01852,0.08065 c 0,0.04099 0.01036,0.07999 0.03107,0.117012 l 0.08594,0.07999 0.03107,-0.03041 c 0.0454,0.01632 0.07228,0.04716 0.08065,0.09255 l -0.03107,0.07933 -0.02446,0.08065 c 0,0.03305 0.02469,0.0617 0.07404,0.08594 0.06963,-0.0119 0.09828,-0.06302 0.08594,-0.153372 0.01674,0.106654 0.03945,0.199208 0.06809,0.277656 0.02864,0.07801 0.07999,0.172544 0.154034,0.283606 l -0.02446,0.01256 c 0.07008,0.03702 0.131776,0.13354 0.185104,0.289556 0.0573,0.148084 0.131336,0.240635 0.222125,0.277657 0,0.07008 0.02269,0.156456 0.06809,0.259146 0.04936,0.107098 0.07801,0.191494 0.08594,0.253195 z m -4.3995327,-1.70891 c -0.028644,0.02026 -0.05333,0.03041 -0.07404,0.03041 l 0.06148,-0.07404 c 0.01674,0.0088 0.020938,0.02336 0.01256,0.04363 z m -0.123624,0.308066 h -0.024462 v -0.0985 h 0.024462 z m 0.049582,0.185104 H 9.3086285 l 0.02512,-0.111062 0.07404,0.03702 c 0.024686,0.01234 0.032836,0.03702 0.024462,0.07404 z m -0.123624,0.635965 -0.037022,0.05553 -0.037022,0.04297 c -0.032612,0 -0.053106,-0.01852 -0.06148,-0.05553 0,-0.02864 0.01234,-0.05333 0.037022,-0.07404 0.0617,0 0.094756,0.01036 0.099164,0.03107 z m 1.3268017,0 -0.01852,0.111062 c -0.004,0.02864 -0.01828,0.0573 -0.04297,0.08594 -0.01234,-0.01234 -0.01852,-0.02864 -0.01852,-0.04892 0,-0.0617 0.02666,-0.111062 0.07999,-0.148084 z m -1.3512619,0.222126 -0.00594,0.04892 c -0.01234,0.01674 -0.022688,0.02512 -0.031072,0.02512 h -0.037022 v -0.07404 z m 1.4874479,-5.664191 c -0.03746,0.01234 -0.05817,0.039 -0.06214,0.07999 l 0.02446,0.04297 h 0.02512 l 0.02446,-0.06148 c 0.01632,-0.02864 0.01212,-0.04914 -0.01256,-0.06148 z m 0.388058,0.154034 v -0.03107 h -0.04892 v 0.03107 z m 0.02512,1.196567 v -0.209566 c -0.0454,-0.004 -0.08043,0.03129 -0.105114,0.105772 -0.01632,0.06963 -0.05752,0.104452 -0.123624,0.104452 l -0.02446,0.117012 c 0.02071,0.02469 0.03922,0.03702 0.05553,0.03702 l 0.04958,-0.08594 c 0.02864,-0.0498 0.0595,-0.07867 0.09255,-0.0866 z m -0.536804,0.228735 c -0.0084,-0.03305 -0.02491,-0.05972 -0.04958,-0.07999 -0.02469,-0.02071 -0.04936,-0.02689 -0.07404,-0.01852 v 0.172542 c 0.02864,-0.01632 0.05135,-0.02446 0.06809,-0.02446 0.03702,0 0.05553,-0.01652 0.05553,-0.04958 z m 1.480834,0.530853 -0.02512,-0.185104 c -0.08197,-0.04143 -0.135302,-0.138167 -0.159983,-0.290217 l -0.02512,-0.240635 c -0.05289,0.02071 -0.07933,0.04936 -0.07933,0.08594 0,0.02909 0.01632,0.0703 0.04892,0.123624 0.03261,0.04936 0.04892,0.08859 0.04892,0.117674 0,0.02026 -0.01234,0.04694 -0.03702,0.07999 l 0.08065,0.228074 c 0.01632,0.05377 0.06567,0.08065 0.148085,0.08065 z m -1.19723,-0.247235 v -0.03702 h -0.04297 v 0.03702 z m -0.160645,0.345749 c -0.01234,-0.02864 -0.03284,-0.04517 -0.06148,-0.04958 -0.02864,0.01674 -0.04716,0.03327 -0.05553,0.04958 l -0.01852,0.105114 c 0.02469,0.03702 0.06589,0.05553 0.123624,0.05553 l 0.02446,-0.06214 z m 1.400843,0.129572 v -0.05553 c -0.01234,-0.02071 -0.03284,-0.02269 -0.06148,-0.0059 -0.01674,0.01234 -0.01896,0.03284 -0.0066,0.06148 z m -0.351698,1.073605 c 0.02469,-0.08242 0.03702,-0.15844 0.03702,-0.228074 0,-0.12781 -0.0595,-0.329441 -0.178494,-0.604894 -0.119436,-0.27986 -0.181138,-0.436317 -0.185104,-0.469372 -0.01674,-0.02026 -0.03129,-0.08396 -0.04363,-0.191056 0,-0.10269 -0.039,-0.154034 -0.117012,-0.154034 -0.03702,0.0454 -0.07206,0.09894 -0.105114,0.160644 -0.01632,0.03261 -0.02446,0.06743 -0.02446,0.104452 0,0.02469 0.002,0.04319 0.0059,0.05553 h 0.09917 c 0.04054,0.01234 0.06082,0.06391 0.06082,0.154696 -0.01632,0.02469 -0.04716,0.04099 -0.09255,0.04892 l -0.117012,-0.0059 -0.04297,0.04363 -0.0066,0.04297 c 0.02071,0.01234 0.04561,0.01234 0.0747,0 l 0.05553,-0.02446 c 0.02469,0.01632 0.039,0.03261 0.04297,0.04892 0.0084,0.04936 -0.01632,0.07404 -0.07404,0.07404 -0.04936,0 -0.08638,0.01234 -0.111062,0.03702 l -0.02446,0.06214 c 0.004,0.01234 0.01014,0.02469 0.01852,0.03702 0.0079,0.0079 0.02644,0.02226 0.05553,0.04297 0.02864,0.02071 0.04914,0.0454 0.06148,0.07404 0,0.02864 -0.02049,0.04914 -0.06148,0.06148 -0.04099,0.01234 -0.07184,0.02469 -0.09255,0.03702 0.004,0.02071 0.02446,0.03724 0.06148,0.04958 0.03305,0.004 0.05575,0.01632 0.06809,0.03702 -0.03702,0 -0.06787,0.01852 -0.09255,0.05553 -0.02071,0.03305 -0.04341,0.05575 -0.06809,0.06809 -0.01234,0.102688 0.02666,0.186868 0.117012,0.252536 0.09079,0 0.173206,0.0022 0.247246,0.0066 0.07404,0.0044 0.14588,0.01454 0.215514,0.03041 0.07404,0.01632 0.1461,0.04716 0.216176,0.09255 z m -0.932132,-0.616793 v -0.02512 l -0.03041,-0.02446 z M 10.3267,16.926796 c -0.03261,0 -0.06545,0.02249 -0.0985,0.06743 -0.02864,0.0454 -0.04914,0.09696 -0.06148,0.154696 0.0079,0.01234 0.0141,0.02469 0.01852,0.03702 0.0079,0.01234 0.0141,0.03085 0.01852,0.05553 0.004,0.02469 0.02446,0.03702 0.06148,0.03702 l 0.02446,-0.191714 z m 0.148084,0.931471 c 0.01234,-0.02864 0.0022,-0.04914 -0.03041,-0.06148 -0.03261,-0.01234 -0.05112,-0.02071 -0.05553,-0.02512 l -0.01256,-0.0119 c -0.03702,0 -0.05553,0.01432 -0.05553,0.04297 0,0.02469 0.02269,0.05972 0.06809,0.105114 l 0.04892,-0.01256 z m -0.283607,0.209565 v -0.185104 h -0.04958 c -0.02864,0.0044 -0.04495,0.03327 -0.04892,0.0866 v 0.09916 z m -0.2221252,0.136184 c -0.00838,-0.0084 -0.01874,-0.04958 -0.03107,-0.123622 0,-0.0617 -0.022488,-0.09475 -0.067432,-0.09916 -0.04143,0.02909 -0.062142,0.06434 -0.062142,0.105772 0,0.02424 0.00838,0.05069 0.025122,0.07933 l 0.04892,0.06809 c 0.045396,0 0.07426,-0.01014 0.086602,-0.03041 z m 0.8018982,0.129572 v -0.04363 z m -0.394669,0.185105 v -0.327238 h -0.04958 v 0.327238 z m -0.43169,0.252535 v -0.129572 c -0.033054,-0.01234 -0.055748,-0.0061 -0.068092,0.01852 l -0.00594,0.111062 z m 0.246584,0.41384 c -0.01632,-0.04143 -0.02446,-0.101146 -0.02446,-0.179154 0,-0.08638 -0.0084,-0.14588 -0.02512,-0.178492 0,0.02424 -0.002,0.04473 -0.0059,0.06148 -0.004,0.01674 -0.01632,0.05376 -0.03702,0.111062 l -0.04297,0.148084 c 0,0.02864 0.0042,0.04914 0.01256,0.06148 l 0.06743,-0.0059 z m -0.6167939,0.333188 -0.043632,-0.05553 -0.024462,0.0119 0.055532,0.05553 z"
     id="path308"
     style="fill:#ffffff;stroke-width:0.661086" />
</svg>
