<?xml version="1.0" encoding="UTF-8" standalone="no"?>
<!-- Created with Inkscape (http://www.inkscape.org/) -->

<svg
   width="128"
   height="128"
   viewBox="0 0 33.866666 33.866666"
   version="1.1"
   id="svg5"
   inkscape:version="1.2 (dc2aedaf03, 2022-05-15)"
   sodipodi:docname="brave-browser-nightly.svg"
   xmlns:inkscape="http://www.inkscape.org/namespaces/inkscape"
   xmlns:sodipodi="http://sodipodi.sourceforge.net/DTD/sodipodi-0.dtd"
   xmlns="http://www.w3.org/2000/svg"
   xmlns:svg="http://www.w3.org/2000/svg">
  <sodipodi:namedview
     id="namedview7"
     pagecolor="#ffffff"
     bordercolor="#666666"
     borderopacity="1.0"
     inkscape:pageshadow="2"
     inkscape:pageopacity="0.0"
     inkscape:pagecheckerboard="0"
     inkscape:document-units="px"
     showgrid="false"
     units="px"
     height="48px"
     inkscape:zoom="2.2594271"
     inkscape:cx="21.244323"
     inkscape:cy="60.19225"
     inkscape:window-width="1846"
     inkscape:window-height="1015"
     inkscape:window-x="0"
     inkscape:window-y="0"
     inkscape:window-maximized="1"
     inkscape:current-layer="svg5"
     inkscape:showpageshadow="2"
     inkscape:deskcolor="#d1d1d1" />
  <defs
     id="defs2" />
  <path
     id="path1212"
     style="color:#000000;fill:#552d5d;fill-opacity:1;stroke:none;stroke-width:2"
     d="M 12.247315,2.1166666 9.7534098,4.6529459 C 9.7206016,4.6638469 9.4764482,4.4612995 9.2108073,4.3831951 8.4985511,4.1740161 7.5948133,4.2094799 6.9804525,4.4886149 6.5788164,4.6712297 6.4220052,4.7998637 5.466333,5.7391845 4.4362072,6.7509481 4.2333332,6.9934921 4.2333332,7.2088623 v 1.0583333 c 0,0.055562 0.3717552,0.5987782 0.555005,1.024227 L 4.9123616,9.579777 4.694287,10.179224 c -0.2348964,0.644523 -0.4382921,1.207153 -0.4526856,1.251603 v 1.058333 c -0.036406,0.112712 3.2995945,12.957986 3.4736899,13.371794 0.3164405,0.751414 0.8143154,1.425748 1.4583088,1.97714 0.5820817,0.498474 6.4856429,4.527623 7.0703699,4.825545 0.17304,0.08784 0.45124,0.13888 0.689364,0.1447 0.238126,-0.0058 0.516328,-0.05686 0.689363,-0.1447 0.584728,-0.297922 6.488286,-4.327071 7.07037,-4.825545 0.643996,-0.551392 1.141872,-1.225726 1.458308,-1.97714 0.1741,-0.413808 3.509168,-13.259082 3.472656,-13.371794 v -1.058333 c -0.0142,-0.04445 -0.216702,-0.60708 -0.451652,-1.251603 l -0.218074,-0.599447 0.12299,-0.2883544 c 0.18362,-0.4254488 0.556038,-0.9686644 0.556038,-1.024227 V 7.2088623 c 0,-0.2153702 -0.202716,-0.4579142 -1.232998,-1.4696778 C 27.444661,4.7998637 27.287853,4.6712297 26.886215,4.4886149 26.271853,4.2094799 25.368117,4.1740161 24.655859,4.3831951 24.390223,4.4612995 24.146065,4.6638469 24.113257,4.6529459 L 21.619353,2.1166666 Z"
     sodipodi:nodetypes="cccccccccccccccccccccccccccccccc" />
  <path
     id="path4797"
     style="color:#000000;fill:#aa5abb;fill-opacity:1;stroke:none;stroke-width:0.529167"
     d="m 12.358936,2.3807332 -2.4608323,2.5037231 -0.062528,0.019637 c -5.13e-4,1.69e-4 -0.040311,0.011676 -0.056844,0.013436 -0.016533,0.00176 -0.030569,6.085e-4 -0.042891,0 -0.024643,-0.00121 -0.04063,-0.0042 -0.054777,-0.00775 -0.028295,-0.0071 -0.044475,-0.014867 -0.058394,-0.021187 -0.027838,-0.012634 -0.047299,-0.023636 -0.066664,-0.035142 -0.038729,-0.023011 -0.07752,-0.049035 -0.12299,-0.076481 C 9.342075,4.7220773 9.2305539,4.6640914 9.136393,4.6364094 8.4901291,4.4466114 7.6225765,4.4882484 7.0894896,4.7304605 6.8981597,4.8174559 6.7931914,4.8724686 6.5990802,5.0327676 6.404969,5.1930666 6.1288499,5.4584486 5.6518513,5.9272867 5.1381344,6.4318461 4.8329651,6.7458617 4.6674152,6.9432453 4.5175185,7.1219695 4.5147127,7.1569117 4.5129027,7.1835407 c 0.00397,0.00702 0.00525,0.00965 0.00982,0.01757 0.035379,0.061257 0.088017,0.1467349 0.1467611,0.2459798 0.1174875,0.1984898 0.2620928,0.4466783 0.3632838,0.6816121 L 5.4058715,8.9999673 4.9428507,10.26914 c -0.1173585,0.322015 -0.2267398,0.62516 -0.3085084,0.851628 -0.069839,0.193428 -0.107121,0.299774 -0.1193725,0.333829 0.00454,0.02239 0.00719,0.04504 0.015503,0.08217 0.021808,0.09741 0.055899,0.241569 0.099735,0.422196 0.087674,0.361255 0.2159988,0.873357 0.3710368,1.486215 0.3100761,1.225713 0.729016,2.854008 1.1544515,4.492232 0.4254354,1.638224 0.8568186,3.285158 1.1932088,4.548559 0.168195,0.631702 0.3127088,1.168845 0.4201294,1.558561 0.05371,0.194859 0.09944,0.352427 0.1328084,0.467155 0.033369,0.114723 0.064124,0.206436 0.056844,0.189136 0.2999125,0.712166 0.7722539,1.350987 1.3864786,1.876888 0.1114306,0.09543 0.6049278,0.456997 1.2479857,0.908472 0.643058,0.451474 1.453787,1.00929 2.263944,1.562178 0.810159,0.552889 1.620118,1.101146 2.263428,1.527556 0.642594,0.425933 1.149832,0.745426 1.242302,0.792716 h 0.0021 c 0.107377,0.05401 0.36419,0.109238 0.567924,0.115238 0.204377,-0.006 0.463762,-0.06105 0.570507,-0.115238 0.09171,-0.04673 0.598991,-0.366307 1.242302,-0.792716 0.643311,-0.42641 1.453269,-0.974667 2.263428,-1.527556 0.810158,-0.552888 1.620886,-1.110704 2.263944,-1.562178 0.643058,-0.451475 1.136554,-0.813042 1.247986,-0.908472 0.614224,-0.525902 1.086567,-1.164722 1.386478,-1.876888 -0.0073,0.0173 0.02554,-0.07441 0.05891,-0.189136 0.03337,-0.114728 0.07703,-0.272296 0.130741,-0.467155 0.107424,-0.389716 0.251929,-0.926859 0.420129,-1.558561 0.336399,-1.263401 0.767768,-2.910335 1.193209,-4.548559 0.425442,-1.638224 0.844381,-3.26652 1.154452,-4.492232 0.155034,-0.612857 0.283366,-1.124963 0.371036,-1.486215 0.04383,-0.180625 0.07742,-0.324786 0.09922,-0.422196 0.0082,-0.03632 0.01307,-0.05785 0.01757,-0.0801 -0.01101,-0.03032 -0.05058,-0.141121 -0.120923,-0.335897 -0.08178,-0.22645 -0.191119,-0.529602 -0.308508,-0.851628 L 28.460278,8.9999673 28.835449,8.1287026 c 0.101328,-0.234778 0.243795,-0.4831549 0.361218,-0.6816121 0.05871,-0.099229 0.111411,-0.1847309 0.146761,-0.2459798 0.0046,-0.00792 0.0058,-0.01055 0.0098,-0.01757 -0.0018,-0.026681 -0.0026,-0.061647 -0.152446,-0.2402954 C 29.035286,6.7458749 28.728089,6.4318405 28.214298,5.9272867 27.737317,5.4584651 27.461293,5.1951287 27.267069,5.0348347 27.072845,4.8745406 26.968028,4.8174704 26.77666,4.7304605 26.243522,4.488228 25.37605,4.4466005 24.729757,4.6364094 c -0.09413,0.027676 -0.205673,0.085649 -0.296623,0.1405599 -0.04548,0.027456 -0.08422,0.053454 -0.12299,0.076481 -0.01939,0.011513 -0.03875,0.022494 -0.06666,0.03514 -0.01395,0.00632 -0.03,0.014097 -0.05839,0.021187 -0.0142,0.00354 -0.03006,0.00658 -0.05478,0.00775 -0.01236,5.864e-4 -0.0284,0.0018 -0.04496,0 -0.01657,-0.0018 -0.05426,-0.013266 -0.05478,-0.013436 l -0.06046,-0.019637 -2.460832,-2.5037231 z" />
  <path
     d="m 18.127697,24.602915 c 0,0 1.298564,-0.855655 2.454784,-1.682735 0.650339,-0.465662 0.752998,-0.584195 0.646635,-0.748764 -0.0852,-0.131238 -2.183852,-1.163097 -3.186614,-1.566848 -1.055149,-0.424388 -1.166273,-0.424918 -2.189672,-0.0084 -0.918096,0.372531 -2.982887,1.393284 -3.156452,1.560498 -0.178856,0.172499 -0.0889,0.330728 0.361947,0.635525 0.929209,0.628114 2.710368,1.836722 2.710368,1.836722 1.210723,1.031865 1.117061,1.032395 2.359004,-0.0254 z m -4.86829,-3.690906 c 1.259405,-0.591602 1.447787,-0.713837 2.410862,-1.566318 0.809089,-0.716485 0.958841,-0.929737 0.844013,-1.201197 -0.03916,-0.09155 -0.647165,-0.652457 -1.351479,-1.246177 -1.664744,-1.402808 -1.595424,-1.204902 -0.962017,-2.727301 0.376234,-0.904338 0.474658,-1.207019 0.473071,-1.457841 -0.0021,-0.378352 -0.142345,-0.662513 -0.424917,-0.858832 -0.114828,-0.0799 -1.120766,-0.485242 -2.235181,-0.901163 -1.114944,-0.415921 -2.0208699,-0.784218 -2.012932,-0.817555 0.01746,-0.07726 1.247234,-0.2111356 2.139931,-0.2328312 l 0.674682,-0.01694 1.241414,0.4328542 c 1.082666,0.378358 1.252526,0.455615 1.334018,0.609073 0.05133,0.09684 0.0926,0.227009 0.09154,0.288921 -5.3e-4,0.06191 -0.201611,0.960431 -0.446084,1.996531 -0.428092,1.813967 -0.440263,1.887521 -0.32861,1.998116 0.176211,0.17621 1.907629,0.584194 2.447904,0.54292 0.617532,-0.0471 1.878525,-0.42333 2.006053,-0.54927 0.102657,-0.102658 0.08308,-0.218015 -0.336018,-1.991766 -0.245002,-1.0361 -0.446084,-1.934619 -0.446613,-1.996531 -0.0011,-0.06191 0.04075,-0.192613 0.09207,-0.28998 0.08149,-0.153457 0.241298,-0.228598 1.205432,-0.565674 1.555207,-0.5439787 1.523457,-0.5392163 2.93632,-0.4138048 0.658807,0.058207 1.223952,0.1307028 1.256231,0.1608648 0.03492,0.03281 -0.0042,0.07938 -0.0963,0.113769 -0.0852,0.03228 -0.994295,0.373588 -2.01981,0.75776 -1.025517,0.3847 -1.972187,0.768872 -2.103948,0.854067 -0.309561,0.199494 -0.459314,0.485243 -0.46143,0.877352 -0.0016,0.248177 0.09578,0.548212 0.461958,1.423447 0.255056,0.610123 0.464076,1.166802 0.464076,1.236651 0,0.283102 -0.211136,0.5117 -1.381643,1.495412 -0.672565,0.565674 -1.269459,1.11124 -1.326609,1.212839 -0.05715,0.101599 -0.08943,0.257173 -0.07249,0.345014 0.02963,0.15081 0.835017,0.928679 1.655218,1.599128 0.344485,0.281514 2.430972,1.586954 2.765401,1.639872 0.279928,0.04446 0.578905,-0.373059 1.068909,-0.778397 0.479949,-0.397929 0.766225,-0.795859 0.960427,-1.336134 0.182558,-0.507466 0.136519,-0.848776 -0.224364,-1.670565 -0.275164,-0.627056 -0.348189,-0.971541 -0.256114,-1.206489 0.0217,-0.05397 0.766756,-0.758818 1.655748,-1.566319 1.937263,-1.758935 2.399748,-2.073787 2.506112,-2.388109 0.117998,-0.348718 0.03492,-1.337194 -0.230186,-1.799681 -0.632889,-1.1059473 -3.262824,-4.5677251 -3.48613,-4.5677251 -1.150397,0.1841484 -2.112943,0.591074 -3.325254,0.7778681 -0.09524,0 -0.500586,-0.098953 -0.900105,-0.2206603 -1.707604,-0.5175205 -2.261108,-0.5572078 -2.591834,-0.5572078 -0.330726,0 -0.88423,0.039688 -2.591836,0.5572078 C 13.93938,7.0283858 13.529809,7.1278683 13.429268,7.1278683 12.234949,6.9553615 11.349661,6.4907574 10.113009,6.3500002 9.9203939,6.4775283 8.2101424,8.8227742 7.5021237,9.8477609 6.6697518,11.052134 6.4342747,11.73634 6.3665419,12.195125 c -0.094719,0.641873 0.1460487,0.749822 2.6336393,3.004053 0.836605,0.75776 1.5382738,1.421858 1.5594408,1.474774 0.09313,0.237594 0.01958,0.595837 -0.251881,1.223423 -0.3725306,0.862005 -0.4058677,1.101186 -0.225953,1.621881 0.195261,0.565675 0.527046,1.023399 1.027633,1.418153 0.465663,0.367239 0.645578,0.735536 0.920742,0.741358 0.09789,0.0022 0.651399,-0.495296 1.229244,-0.766758 z"
     style="fill:#ffffff;stroke-width:0.529161"
     id="path3620" />
</svg>
