<?xml version="1.0" encoding="UTF-8" standalone="no"?>
<!-- Created with Inkscape (http://www.inkscape.org/) -->

<svg
   width="128"
   height="128"
   viewBox="0 0 33.866666 33.866668"
   version="1.1"
   id="svg1099"
   inkscape:version="1.2 (dc2aedaf03, 2022-05-15)"
   sodipodi:docname="discord.svg"
   xmlns:inkscape="http://www.inkscape.org/namespaces/inkscape"
   xmlns:sodipodi="http://sodipodi.sourceforge.net/DTD/sodipodi-0.dtd"
   xmlns="http://www.w3.org/2000/svg"
   xmlns:svg="http://www.w3.org/2000/svg">
  <sodipodi:namedview
     id="namedview1101"
     pagecolor="#ffffff"
     bordercolor="#666666"
     borderopacity="1.0"
     inkscape:pageshadow="2"
     inkscape:pageopacity="0.0"
     inkscape:pagecheckerboard="0"
     inkscape:document-units="px"
     showgrid="false"
     units="px"
     inkscape:zoom="3.294667"
     inkscape:cx="-4.0975309"
     inkscape:cy="41.27883"
     inkscape:window-width="1920"
     inkscape:window-height="1011"
     inkscape:window-x="0"
     inkscape:window-y="0"
     inkscape:window-maximized="1"
     inkscape:current-layer="svg1099"
     inkscape:showpageshadow="2"
     inkscape:deskcolor="#d1d1d1" />
  <defs
     id="defs1096" />
  <rect
     style="opacity:1;fill:#5865f2;fill-opacity:1;stroke-width:0.529166"
     id="rect1196"
     width="31.75"
     height="32.543751"
     x="1.0583334"
     y="1.0583334"
     ry="15.875" />
  <path
     id="rect1786"
     style="opacity:0.5;fill:#000000;stroke-width:0.529167;stroke-linejoin:bevel"
     d="M 16.933333 1.0583333 C 8.1385923 1.0583333 1.0583333 8.1385923 1.0583333 16.933333 L 1.0583333 17.727084 C 1.0583333 26.521825 8.1385923 33.602084 16.933333 33.602084 C 25.728075 33.602084 32.808334 26.521825 32.808334 17.727084 L 32.808334 16.933333 C 32.808334 8.1385923 25.728075 1.0583333 16.933333 1.0583333 z M 16.933333 1.3229167 A 15.610416 15.610416 0 0 1 32.54375 16.933333 A 15.610416 15.610416 0 0 1 16.933333 32.54375 A 15.610416 15.610416 0 0 1 1.3229167 16.933333 A 15.610416 15.610416 0 0 1 16.933333 1.3229167 z " />
  <path
     d="m 14.203745,9.5263284 c -1.360544,0.239123 -2.66283,0.6575096 -3.877713,1.2267706 -0.0106,0.0046 -0.0178,0.0116 -0.02378,0.0217 -2.4695704,3.764988 -3.1471454,7.4378 -2.8152694,11.064718 0.0015,0.0178 0.0112,0.03468 0.0248,0.04548 1.629352,1.221043 3.2071984,1.962199 4.7561954,2.453542 0.0248,0.0078 0.0514,-9.52e-4 0.06718,-0.0217 0.366416,-0.510619 0.693513,-0.932388 0.973563,-1.498584 0.0166,-0.03316 7.42e-4,-0.07266 -0.03308,-0.08578 -0.518083,-0.200549 -1.010608,-0.444744 -1.485148,-0.72242 -0.03754,-0.02238 -0.04172,-0.07712 -0.0072,-0.103358 0.09986,-0.07636 0.20023,-0.156456 0.295582,-0.236673 0.0172,-0.0146 0.04172,-0.0176 0.06202,-0.0082 3.117527,1.45248 6.492625,1.45248 9.57337,0 0.02028,-0.01 0.04298,-0.0074 0.06098,0.0072 0.09538,0.08022 0.195996,0.161337 0.296616,0.237707 0.03452,0.02622 0.03134,0.08098 -0.0062,0.103358 -0.47454,0.283072 -0.967343,0.522637 -1.486184,0.72242 -0.03378,0.0132 -0.04856,0.05262 -0.03204,0.08578 0.286061,0.565404 0.611842,0.986907 0.971497,1.49755 0.015,0.0216 0.04238,0.03046 0.06718,0.02274 1.55651,-0.491343 3.13511,-1.232499 4.764463,-2.453544 0.0142,-0.0108 0.02434,-0.02774 0.02584,-0.04548 0.397189,-4.193115 -0.667177,-7.833742 -2.818373,-11.062652 -0.0052,-0.0108 -0.0132,-0.0192 -0.02376,-0.02376 -1.214132,-0.568495 -2.515386,-0.9868816 -3.876682,-1.2267706 -0.0248,-0.0046 -0.05028,0.0058 -0.06304,0.02894 -0.167456,0.303868 -0.351738,0.340473 -0.481621,0.6520996 -1.464162,-0.2236846 -2.922091,-0.2236846 -4.35623,0 -0.129917,-0.3185526 -0.321685,-0.3482316 -0.489881,-0.6521416 -0.0128,-0.02238 -0.03826,-0.0328 -0.06304,-0.02894 z m -0.712084,6.8779846 c 1.039455,0 1.870359,0.838454 1.85411,1.852042 0,1.020887 -0.82278,1.852043 -1.85411,1.852043 -1.015138,0 -1.849976,-0.831156 -1.849976,-1.852043 0,-1.020888 0.818616,-1.852042 1.849976,-1.852042 z m 6.881084,0 c 1.039486,0 1.868268,0.838454 1.852044,1.852042 0,1.020887 -0.812558,1.852043 -1.852044,1.852043 -1.015109,0 -1.852043,-0.831156 -1.852043,-1.852043 0,-1.020888 0.820684,-1.852042 1.852043,-1.852042 z"
     style="fill:#ffffff;stroke-width:0.529154"
     id="path13141" />
</svg>
