<?xml version="1.0" encoding="UTF-8" standalone="no"?>
<!-- Created with Inkscape (http://www.inkscape.org/) -->

<svg
   width="128"
   height="128"
   viewBox="0 0 128 128"
   version="1.1"
   id="svg5"
   inkscape:version="1.2.1 (9c6d41e410, 2022-07-14, custom)"
   sodipodi:docname="dolphin-emu.svg"
   xmlns:inkscape="http://www.inkscape.org/namespaces/inkscape"
   xmlns:sodipodi="http://sodipodi.sourceforge.net/DTD/sodipodi-0.dtd"
   xmlns="http://www.w3.org/2000/svg"
   xmlns:svg="http://www.w3.org/2000/svg">
  <sodipodi:namedview
     id="namedview7"
     pagecolor="#ffffff"
     bordercolor="#000000"
     borderopacity="0.25"
     inkscape:showpageshadow="2"
     inkscape:pageopacity="0.0"
     inkscape:pagecheckerboard="0"
     inkscape:deskcolor="#d1d1d1"
     inkscape:document-units="px"
     showgrid="false"
     showguides="false"
     inkscape:zoom="6.265625"
     inkscape:cx="64"
     inkscape:cy="64"
     inkscape:window-width="1920"
     inkscape:window-height="1011"
     inkscape:window-x="0"
     inkscape:window-y="0"
     inkscape:window-maximized="1"
     inkscape:current-layer="svg5" />
  <defs
     id="defs2" />
  <rect
     style="fill:#ededed;fill-opacity:1;stroke-width:3.99999;stroke-linecap:round"
     id="rect934"
     width="104"
     height="104"
     x="12"
     y="12"
     ry="8.5" />
  <path
     id="rect2485"
     style="opacity:0.5;fill:#000000;fill-opacity:1;stroke-width:2"
     d="m 20.499999,12 c -4.708995,0 -8.5,3.791005 -8.5,8.5 v 87 c 0,4.70899 3.791005,8.49999 8.5,8.49999 H 107.5 c 4.709,0 8.5,-3.791 8.5,-8.49999 v -87 c 0,-4.708995 -3.791,-8.5 -8.5,-8.5 z m 0.5,1 H 107 c 4.432,0 8,3.568005 8,8.000001 V 104 c 0,4.43199 -3.568,8 -8,8 H 20.999999 c -4.431995,0 -8,-3.56801 -8,-8 V 21.000001 c 0,-4.431996 3.568005,-8.000001 8,-8.000001 z" />
  <path
     d="m 75.749866,46.04249 c -3.727964,0.239122 -7.075926,2.424158 -7.701618,2.718988 -1.998298,-0.589656 -4.29797,-1.768982 -6.974374,-2.227606 -9.267496,-1.572426 -17.106706,0.950012 -21.044328,3.669 -5.156254,3.580546 -5.015388,7.600066 -5.441254,9.267496 -0.263394,1.048286 -2.620712,2.948302 -2.587954,4.284866 0.04586,1.736222 1.146562,2.32588 1.146562,2.32588 0.982766,-0.07764 2.456918,-0.78621 3.708308,-1.310352 1.867258,-0.753458 1.998296,-1.179326 7.09558,-1.93278 2.325884,-0.360364 4.805734,-0.458624 6.640234,-0.458624 0.720694,1.506908 2.489678,4.60918 5.565738,6.096438 1.8345,0.85173 4.573144,1.212078 5.788502,1.441388 l 3.551064,0.524144 v -1.441392 h -0.0044 c 0,0 -2.981064,-1.24484 -4.81556,-3.079336 -0.786214,-0.786218 -0.786214,-1.703466 -0.982768,-2.620718 2.817264,0.524144 5.34298,0.950012 11.305104,3.210376 5.490392,2.09657 9.238012,5.156254 9.241288,5.15953 l 0.0044,0.0044 0.0088,0.0088 v -1.441394 l -0.0136,-0.0088 c -0.0498,-0.06192 -3.895034,-4.828662 -10.361642,-8.019378 -5.346256,-2.620718 -9.73595,-3.940898 -15.816006,-4.235728 -6.31592,-0.306324 -10.512338,0.425862 -10.970962,0.49138 0.556902,-1.081042 1.637948,-2.882786 4.582974,-4.268486 4.36349,-2.03105 11.223202,-2.3914 19.101722,-0.393124 11.128202,2.850026 14.924958,8.098008 19.714316,13.097016 5.09401,5.313498 9.493532,14.243576 9.496808,14.253404 l 0.004,0.0092 0.0092,0.0224 v -1.441216 l -0.04028,-0.11172 C 95.746798,78.915848 94.42005,74.62115 92.18917,70.496806 89.240864,65.0621 86.711878,61.176898 82.49253,57.232722 c -2.948302,-2.194846 -5.939188,-5.185736 -5.428152,-6.476436 1.31036,-1.736224 4.917116,-2.817268 4.93022,-2.817268 h 0.0088 v -0.004 -1.441394 c 0,0 -2.260368,-0.78621 -6.243852,-0.52414 z m 4.458488,25.63385 c 0,0 0.0356,0.0312 0,0 z"
     style="fill:#0096f4;stroke-width:3.19906"
     id="path1698" />
</svg>
