<?xml version="1.0" encoding="UTF-8" standalone="no"?>
<!-- Created with Inkscape (http://www.inkscape.org/) -->

<svg
   width="128"
   height="128"
   viewBox="0 0 33.866666 33.866668"
   version="1.1"
   id="svg1099"
   inkscape:version="1.2 (dc2aedaf03, 2022-05-15)"
   sodipodi:docname="emacs.svg"
   xmlns:inkscape="http://www.inkscape.org/namespaces/inkscape"
   xmlns:sodipodi="http://sodipodi.sourceforge.net/DTD/sodipodi-0.dtd"
   xmlns="http://www.w3.org/2000/svg"
   xmlns:svg="http://www.w3.org/2000/svg">
  <sodipodi:namedview
     id="namedview1101"
     pagecolor="#ffffff"
     bordercolor="#666666"
     borderopacity="1.0"
     inkscape:pageshadow="2"
     inkscape:pageopacity="0.0"
     inkscape:pagecheckerboard="0"
     inkscape:document-units="px"
     showgrid="false"
     units="px"
     inkscape:zoom="3.078125"
     inkscape:cx="121.82741"
     inkscape:cy="85.116751"
     inkscape:window-width="1846"
     inkscape:window-height="1011"
     inkscape:window-x="0"
     inkscape:window-y="0"
     inkscape:window-maximized="1"
     inkscape:current-layer="svg1099"
     inkscape:showpageshadow="2"
     inkscape:deskcolor="#d1d1d1" />
  <defs
     id="defs1096" />
  <rect
     style="opacity:1;fill:#583d78;fill-opacity:1;stroke-width:0.529166"
     id="rect1196"
     width="31.75"
     height="32.543751"
     x="1.0583334"
     y="1.0583334"
     ry="15.875" />
  <circle
     style="opacity:1;fill:#9c6ed5;fill-opacity:1;stroke-width:0.536019"
     id="path6320"
     cx="16.933334"
     cy="16.933332"
     r="15.610416" />
  <path
     d="m 11.11788,25.663977 c 0,0 1.13552,0.534169 2.647039,0.722656 0.612122,0.07634 2.941129,0.343132 4.726847,0.336148 0,0 2.174839,0.002 3.375333,-0.168074 1.256161,-0.178434 1.967739,-0.406161 2.363847,-0.860613 0.0104,-0.108356 0.191173,-0.461561 -0.297117,-0.802175 -1.248329,-0.870824 -2.862079,-1.109168 -5.996657,-1.853657 -3.466241,-0.87147 -4.555247,-1.706028 -5.072847,-2.309874 -0.490632,-0.605284 0.145275,-1.862335 2.938326,-2.478986 1.414159,-0.344138 6.388429,-0.522639 6.388429,-0.522639 -1.511096,-1.199649 -4.055273,-3.232233 -4.635096,-3.688981 -0.50856,-0.400605 -1.328122,-1.015373 -1.416169,-1.564749 -0.118836,-0.534784 0.722942,-0.792281 1.168641,-0.821985 1.435958,-0.09904 3.396923,0.280801 5.139886,0.627413 0.876137,0.174233 1.029955,0.148554 1.029955,0.148554 1.247801,0.05942 2.466343,-0.805677 2.416816,-2.182277 -0.01,-1.3963814 -1.654018,-2.5161308 -3.19919,-2.565023 -1.563137,-0.0068 -5.267171,-0.0068 -5.267171,-0.0068 4.179301,0.8616068 5.088854,1.2961691 5.306856,1.7992668 0.129115,0.2972673 -0.214828,0.5926292 -1.366221,0.5349532 -1.254044,-0.062858 -3.823509,-0.3664733 -3.823509,-0.3664733 -2.445652,-0.3763183 -3.937793,-0.7328494 -4.680697,0.2376854 -0.485256,0.6340589 0.06934,1.4063289 0.287204,1.8618069 0.970535,1.693539 2.437174,2.855407 3.502105,3.674187 0.400712,0.308093 1.624119,0.990344 1.624119,0.990344 -3.802874,-1.03986 -7.044883,-0.455561 -8.9661615,0.554596 -2.2084938,1.307275 -1.8306929,3.513229 1.6736455,5.57568 2.06986,1.21817 3.311959,1.803283 6.700842,2.219394 1.980858,0.315848 2.381946,0.445084 2.366918,0.609962 -0.02124,0.232141 -2.450523,0.320104 -3.08908,0.364149 -1.624647,0.112036 -5.826384,-0.06454 -5.847337,-0.06454 z"
     style="opacity:0.2;fill:#000000;stroke-width:0.529147"
     id="path858"
     sodipodi:nodetypes="csccccccccsccscccccccccscccccccc" />
  <path
     d="m 11.117881,25.399395 c 0,0 1.13552,0.534169 2.647039,0.722656 0.612122,0.07634 2.94113,0.343132 4.726848,0.336148 0,0 2.17484,0.002 3.375335,-0.168074 1.25616,-0.178434 1.967739,-0.406161 2.363847,-0.860613 0.0104,-0.108356 0.191173,-0.461561 -0.297118,-0.802175 -1.248329,-0.870825 -2.862079,-1.109168 -5.996658,-1.853657 -3.466241,-0.871471 -4.555248,-1.706029 -5.072847,-2.309875 -0.490633,-0.605284 0.145274,-1.862335 2.938326,-2.478985 1.414159,-0.344138 6.38843,-0.522639 6.38843,-0.522639 -1.511096,-1.199651 -4.055274,-3.232234 -4.635097,-3.688981 -0.50856,-0.400606 -1.328122,-1.015374 -1.416169,-1.564751 -0.118836,-0.534783 0.722942,-0.79228 1.168642,-0.821985 1.435958,-0.09904 3.396923,0.2808 5.139887,0.627414 0.876136,0.174233 1.029955,0.148554 1.029955,0.148554 1.247801,0.05942 2.466343,-0.805679 2.416817,-2.1822812 -0.01,-1.3963757 -1.654019,-2.5161274 -3.199191,-2.5650176 -1.563138,-0.0068 -5.267173,-0.0068 -5.267173,-0.0068 4.179302,0.861607 5.088855,1.2961674 5.306857,1.7992672 0.129116,0.2972673 -0.214828,0.5926287 -1.36622,0.5349528 C 20.115346,9.6796957 17.54588,9.3760786 17.54588,9.3760786 15.10023,8.9997601 13.608086,8.643231 12.865183,9.613766 c -0.485257,0.634059 0.06934,1.406329 0.287203,1.861805 0.970535,1.693542 2.437175,2.85541 3.502106,3.674191 0.400712,0.308093 1.62412,0.990344 1.62412,0.990344 -3.802875,-1.03986 -7.044885,-0.455561 -8.9661641,0.554594 -2.2084945,1.307275 -1.8306933,3.513232 1.6736461,5.575682 2.06986,1.218172 3.311959,1.803283 6.700841,2.219394 1.980861,0.315848 2.381948,0.445084 2.366921,0.609962 -0.02124,0.232142 -2.450524,0.320104 -3.089081,0.364149 -1.624647,0.112036 -5.826385,-0.06454 -5.847338,-0.06454 z"
     style="fill:#ffffff;stroke-width:0.140003"
     id="path1230" />
</svg>
