<?xml version="1.0" encoding="UTF-8" standalone="no"?>
<!-- Created with Inkscape (http://www.inkscape.org/) -->

<svg
   width="128"
   height="128"
   viewBox="0 0 33.866666 33.866668"
   version="1.1"
   id="svg1099"
   inkscape:version="1.2 (dc2aedaf03, 2022-05-15)"
   sodipodi:docname="firefox.svg"
   xmlns:inkscape="http://www.inkscape.org/namespaces/inkscape"
   xmlns:sodipodi="http://sodipodi.sourceforge.net/DTD/sodipodi-0.dtd"
   xmlns="http://www.w3.org/2000/svg"
   xmlns:svg="http://www.w3.org/2000/svg">
  <sodipodi:namedview
     id="namedview1101"
     pagecolor="#ffffff"
     bordercolor="#666666"
     borderopacity="1.0"
     inkscape:pageshadow="2"
     inkscape:pageopacity="0.0"
     inkscape:pagecheckerboard="0"
     inkscape:document-units="px"
     showgrid="false"
     units="px"
     inkscape:zoom="4"
     inkscape:cx="51.125"
     inkscape:cy="91.25"
     inkscape:window-width="1920"
     inkscape:window-height="1011"
     inkscape:window-x="0"
     inkscape:window-y="0"
     inkscape:window-maximized="1"
     inkscape:current-layer="svg1099"
     showguides="false"
     inkscape:showpageshadow="2"
     inkscape:deskcolor="#d1d1d1" />
  <defs
     id="defs1096" />
  <path
     id="path3946"
     style="color:#000000;fill:#bb9b00;fill-opacity:1;stroke:none;-inkscape-stroke:none"
     d="m 21.72684,1.0583333 -0.255799,0.1875855 c -2.987159,2.1770694 -4.314314,4.5625855 -4.792989,7.0936239 -0.236718,1.2516686 -0.286372,2.5369963 -0.271301,3.8364583 -0.02111,1.644571 0.102472,3.318247 0.122473,4.982641 l 0.0021,0.10542 7.804692,8.015532 6.82439,-5.873027 -0.04496,-0.161747 c -0.04399,-0.16031 -0.08594,-0.321831 -0.127641,-0.483175 l 0.1726,-0.148828 -0.04496,-0.161747 C 30.224153,15.202884 29.86715,11.727803 27.433468,8.610844 24.637933,5.0304423 22.724596,3.1081355 21.865333,1.3435872 Z" />
  <path
     style="color:#000000;fill:#ffde3f;stroke:none;stroke-width:0.529167;-inkscape-stroke:none"
     d="m 21.626165,1.4443563 c -2.943561,2.1452948 -4.222272,4.4558995 -4.690181,6.9300145 -0.47932,2.5344532 -0.175873,5.2488342 -0.143147,7.9720432 l 7.558389,7.761532 6.507941,-5.601692 C 29.960216,15.229866 29.606161,11.811033 27.223646,8.7596056 24.436125,5.1894684 22.519007,3.2778606 21.626165,1.4443563 Z"
     id="path3944" />
  <rect
     style="opacity:1;fill:#472463;fill-opacity:1;stroke-width:0.246944"
     id="rect1196"
     width="14.816667"
     height="15.345834"
     x="9.260416"
     y="9.260417"
     ry="7.4083333" />
  <circle
     style="opacity:1;fill:#a448c7;fill-opacity:1;stroke-width:0.255133"
     id="path1427"
     cx="16.668751"
     cy="16.668749"
     r="7.1437502" />
  <path
     id="path1836"
     style="color:#000000;fill:#b57700;fill-opacity:1;stroke:none;stroke-width:0.529167;stroke-linejoin:bevel"
     d="m 19.038115,11.377254 c -0.111594,0.0011 -0.221899,0.0065 -0.33383,0.01344 l -1.051098,0.02842 v 0.02377 c 0,-0.0079 0.0039,-0.01481 0.0098,-0.01912 l 0.943612,0.469222 c 2.092913,0.982469 3.430341,3.084532 3.433382,5.39657 -8.5e-5,0.180098 -0.0085,0.358758 -0.02429,0.535368 3.1e-5,3.42e-4 -3e-5,6.91e-4 0,0.001 -3.08e-4,0.0034 -7.2e-4,0.0069 -0.001,0.01033 -0.0039,0.04256 -0.0082,0.0848 -0.01292,0.127125 -0.0051,0.0456 -0.0109,0.09111 -0.01705,0.136425 -0.0053,0.03885 -0.01053,0.07764 -0.01654,0.116272 -0.001,0.0065 -0.0021,0.01311 -0.0031,0.01964 -2.75e-4,0.0017 -7.57e-4,0.0034 -0.001,0.0052 -0.0069,0.0434 -0.01437,0.08659 -0.02222,0.129708 -0.0021,0.0117 -0.004,0.02346 -0.0062,0.03514 h -5.17e-4 c -0.502385,2.669736 -2.7643,4.772234 -5.555217,4.916496 l -0.04961,0.252181 -0.04961,0.252181 c 0.04027,0.01906 0.08604,0.0074 0.126607,0.02532 0.358526,0.157999 0.726636,0.275602 1.100708,0.359151 -0.363668,0.09173 -0.740785,0.149479 -1.128097,0.169499 l -0.04961,0.252181 -0.04961,0.252181 c 0.04027,0.01906 0.08604,0.0074 0.126607,0.02532 0.841003,0.370621 1.735657,0.520986 2.632914,0.523483 h 0.0021 c 3.585755,3.4e-5 6.497749,-2.912559 6.497795,-6.498312 v -1.058329 c 2e-5,-2.289162 -1.186877,-4.304493 -2.978113,-5.462716 -0.01818,-0.01175 -0.03647,-0.02305 -0.05478,-0.03462 -0.0075,-0.0047 -0.01472,-0.0098 -0.02222,-0.01447 -0.02469,-0.01548 -0.0495,-0.03084 -0.07441,-0.04599 -0.0012,-7.2e-4 -0.0024,-0.0013 -0.0036,-0.0021 -0.0077,-0.0047 -0.01554,-0.0093 -0.02325,-0.01395 -0.01847,-0.01112 -0.03722,-0.02214 -0.05581,-0.03307 -0.01761,-0.01036 -0.03499,-0.02081 -0.05271,-0.03101 -0.0088,-0.005 -0.01756,-0.01 -0.02636,-0.01499 -0.03669,-0.0209 -0.07345,-0.0413 -0.110588,-0.0615 -0.0361,-0.01963 -0.07253,-0.03891 -0.109037,-0.05788 -0.0076,-0.0039 -0.01513,-0.008 -0.02274,-0.01188 -0.02144,-0.01103 -0.04302,-0.02176 -0.0646,-0.03256 -0.0059,-0.0029 -0.0117,-0.0059 -0.01757,-0.0088 -0.02203,-0.01094 -0.04398,-0.02186 -0.06615,-0.03256 -0.0055,-0.0026 -0.01106,-0.0051 -0.01654,-0.0078 -0.02771,-0.01327 -0.0558,-0.02639 -0.08372,-0.03927 -0.02498,-0.01152 -0.04979,-0.02289 -0.07493,-0.03411 -0.003,-0.0013 -0.0058,-0.0028 -0.0088,-0.0041 -0.008,-0.0036 -0.01623,-0.0068 -0.02429,-0.01033 -0.04064,-0.01785 -0.0814,-0.03567 -0.122473,-0.05271 -0.01697,-0.007 -0.03412,-0.01377 -0.05116,-0.02067 -0.04081,-0.01653 -0.08177,-0.03286 -0.12299,-0.04858 -0.0072,-0.0028 -0.01445,-0.0055 -0.0217,-0.0083 -0.0053,-0.002 -0.01072,-0.0037 -0.01602,-0.0057 -0.02368,-0.0089 -0.0475,-0.01776 -0.07131,-0.02636 -0.0053,-0.0019 -0.01067,-0.0038 -0.01602,-0.0057 -0.02378,-0.0085 -0.0474,-0.01708 -0.07131,-0.02532 -0.0105,-0.0036 -0.021,-0.0073 -0.03152,-0.01085 -0.01883,-0.0064 -0.03794,-0.01239 -0.05684,-0.0186 -0.03158,-0.01037 -0.06329,-0.02111 -0.09509,-0.03101 -0.02758,-0.0086 -0.05546,-0.01657 -0.0832,-0.0248 -0.0057,-0.0017 -0.01136,-0.0035 -0.01705,-0.0052 -0.02422,-0.0071 -0.04853,-0.01384 -0.07286,-0.02067 -0.03006,-0.0084 -0.0602,-0.01679 -0.09043,-0.02481 -0.03007,-0.008 -0.06019,-0.01622 -0.09043,-0.02377 -1.62e-4,-4.1e-5 -3.55e-4,4e-5 -5.17e-4,0 -5.26e-4,-1.31e-4 -0.001,-3.85e-4 -0.0016,-5.17e-4 -0.05689,-0.01419 -0.114093,-0.02763 -0.171566,-0.04031 -0.0034,-7.59e-4 -0.0069,-0.0013 -0.01034,-0.0021 -0.0048,-0.0011 -0.0097,-0.0021 -0.01447,-0.0031 -0.04576,-0.0099 -0.09187,-0.01897 -0.137976,-0.02791 -0.01101,-0.0021 -0.02204,-0.0046 -0.03307,-0.0067 -0.007,-0.0013 -0.01415,-0.0023 -0.02119,-0.0036 -0.02405,-0.0044 -0.0482,-0.0087 -0.07235,-0.01292 -0.06241,-0.01081 -0.125097,-0.02096 -0.188102,-0.02997 -0.06301,-0.009 -0.126082,-0.0171 -0.189653,-0.02429 -0.241766,-0.02735 -0.487374,-0.04186 -0.736389,-0.04186 z" />
  <path
     style="color:#000000;fill:#ffba36;stroke:none;stroke-width:1.07782;stroke-linejoin:round;-inkscape-stroke:none"
     d="m 19.04172,11.642613 c -0.10732,0.0011 -0.214587,0.0048 -0.321706,0.01143 2.185104,1.025746 3.581606,3.220822 3.584781,5.634704 -0.0016,3.316543 -2.599808,6.126895 -5.911929,6.298097 0.828206,0.391884 1.732617,0.520629 2.648854,0.523179 3.442779,3.3e-5 6.233731,-2.790857 6.233775,-6.233636 3.1e-5,-3.442831 -2.790943,-6.233806 -6.233775,-6.233774 z"
     id="path4043" />
  <path
     id="path1404"
     style="color:#000000;fill:#a64700;fill-opacity:1;stroke-width:0.529167;stroke-linejoin:bevel;-inkscape-stroke:none"
     d="M 7.0398802,5.97948 6.6709104,6.3350139 C 4.0167115,8.7949917 2.3929091,12.129717 2.1554237,16.03623 v 0.0155 0.0036 c -0.023276,0.336394 -0.031234,0.598318 -0.038757,0.947745 0,0.161799 0.00352,0.322646 0.00879,0.483175 -0.00304,0.1005 -0.00634,0.19718 -0.00879,0.310575 0,8.086051 6.6273623,14.636316 14.8140833,14.636316 8.186722,0 14.818734,-6.619984 14.818734,-14.706058 v -0.79375 c 0,-2.461712 -0.785424,-4.596158 -1.853634,-6.609953 L 29.103651,9.2604167 c 0.142656,0.3795416 0.252075,0.8207693 0.333829,1.2412673 0.109844,0.490079 0.122579,1.530414 0.163295,1.961121 v 0.0057 c 0.0065,0.07826 0.01103,0.15218 0.0155,0.224793 v 0.0036 c 2.33e-4,0.0038 -2.39e-4,0.0082 0,0.01189 v 0.0021 c 0.0058,0.100605 0.01121,0.201954 0.0155,0.303857 -0.232013,6.037418 -5.226329,10.538307 -11.323857,10.544576 l -0.01189,0.0021 c -2.876581,0.136327 -5.280275,-0.7741 -6.716902,-2.220536 0.0044,0.0044 -5.04e-4,-0.0023 -0.0036,-0.0057 -0.531484,-0.55852 -0.921003,-1.181083 -1.132753,-1.79891 -0.122002,-0.355967 -0.20976,-0.654672 -0.260449,-0.913122 0.104412,-0.356513 0.389511,-0.687684 1.023711,-1.111561 0.718403,-0.456035 1.743282,-0.778493 3.484542,-0.834057 l 0.136942,-0.04289 c 0.819058,-0.538658 1.271996,-0.91302 1.529106,-1.230415 0.128396,-0.158283 0.21024,-0.307192 0.248047,-0.453203 0.01635,-0.06327 0.02254,-0.124684 0.02325,-0.183451 h 10e-4 v -0.02791 -0.79375 -0.114205 0 c -0.0038,-0.02383 -0.0077,-0.04757 -0.01292,-0.06925 -0.0306,-0.08172 -0.114084,-0.162404 -0.183452,-0.189135 -0.689727,-0.232639 -1.675911,-0.586445 -2.767273,-1.44539 -0.492914,-0.387944 -1.097643,-0.918489 -1.888773,-1.400432 l -0.0021,-0.0021 -0.08785,-0.05271 -0.02946,-0.101802 -0.0015,-0.0016 c -0.08861,-0.293017 -0.130055,-0.7037547 -0.143661,-1.1761548 -0.03534,-0.6335739 -0.0045,-1.4285646 0.04807,-1.9022095 L 11.653543,6.9664119 11.1652,7.2449478 C 10.160776,7.8098004 9.1449802,8.5871751 8.3333413,9.4950273 l -0.08785,0.0956 -0.1312581,-0.0057 h -0.00155 c -0.1238061,-0.0066 -0.2367793,-0.0144 -0.3555339,-0.0155 L 7.591268,9.5673753 7.514787,9.4226817 v -0.00207 C 7.0611149,8.5470456 7.1354963,7.5587826 7.1163613,6.5241496 Z"
     sodipodi:nodetypes="ccccccccsccccccccccccccccsccccccccccccccsccccccccccccccccccc" />
  <path
     id="path1985"
     style="color:#000000;fill:#ff750e;stroke-width:1.07782;-inkscape-stroke:none"
     d="M 6.8514651,6.5281914 C 4.2450435,8.9438883 2.6538357,12.208735 2.4202133,16.051699 v 0.0042 0.0084 c -0.00823,0.09954 -0.014621,0.205763 -0.019999,0.317871 -2.4e-6,-1.21e-4 6.14e-5,0.0059 0,0.01158 v 0.01263 c -1.289e-4,0.0028 1.275e-4,0.0046 0,0.0074 v 0.0042 c -0.00878,0.194242 -0.019999,0.378973 -0.019999,0.585219 0,7.9416 6.5057781,14.372623 14.5515577,14.372623 8.045778,0 14.55261,-6.431023 14.55261,-14.372623 0,-2.405547 -0.766055,-4.565739 -1.821971,-6.556358 0.01436,0.07696 0.06611,0.137255 0.07894,0.214721 0.02644,0.15886 0.05112,0.320164 0.07157,0.481017 0.02012,0.162957 0.03898,0.33312 0.05263,0.505226 v 0.0042 c 0.0075,0.08972 0.0111,0.172473 0.01579,0.246297 v 0.0042 c 0.01246,0.21747 0.02316,0.439628 0.02316,0.672582 -2e-6,0.05508 7.9e-5,0.09212 0,0.111571 v 0.0042 c -0.06245,6.344 -5.256149,11.127436 -11.595987,11.133954 C 14.209692,24.01906 11.009312,22.141557 10.101751,19.49355 9.8286261,18.696645 9.695039,18.026058 9.9070291,17.384232 10.119019,16.742406 10.629125,16.270664 11.37429,15.773824 l 0.0042,-0.0042 0.0084,-0.0042 c 0.815462,-0.517647 2.007131,-0.81142 3.655519,-0.898881 0.739345,-0.491667 1.150016,-0.848719 1.300957,-1.034661 0.0078,-0.0096 -0.0026,9.22e-4 0.0042,-0.0074 -0.694685,-0.234309 -1.720333,-0.603112 -2.845053,-1.488311 -0.502576,-0.395546 -1.095349,-0.915542 -1.865126,-1.384109 l -0.175776,-0.10736 -0.05894,-0.198933 C 11.181355,9.9139163 11.222298,8.7107854 11.295348,7.4754902 10.315035,8.0266962 9.3186164,8.7893388 8.5302884,9.6711173 l -0.1715661,0.190512 -0.2578759,-0.01158 c -0.1279615,-0.0067 -0.238783,-0.01479 -0.3462902,-0.01579 L 7.4282644,9.8300523 7.2809071,9.5437583 C 6.7851531,8.5891524 6.8702649,7.5447182 6.8514651,6.5281914 Z" />
  <path
     id="path11096"
     style="color:#000000;fill:#ed6803;fill-opacity:1;stroke-width:1.07782;-inkscape-stroke:none"
     d="M 11.295348,7.4754902 C 10.315035,8.0266956 9.3186164,8.7893388 8.5302884,9.6711173 l -0.1715661,0.190512 0.011578,0.0032 c 1.271761,0.107939 2.2735917,0.5031897 3.0902987,0.9767707 l -0.05789,-0.195775 C 11.181357,9.9139183 11.222298,8.7107849 11.295348,7.4754902 Z" />
  <path
     d="m 7.9755935,12.790886 c -1.0268636,-0.02228 -1.8920656,0.331327 -2.5787573,0.799942 -0.122998,0.122999 0.9784616,2.348322 3.273443,2.372456 -0.212485,3.702049 2.8142678,6.633237 4.6748148,7.16892 l 0.816782,0.149461 C 12.184314,22.603249 10.709828,21.1308 10.192853,19.622409 9.6733935,18.10677 9.6504991,17.436057 11.063787,16.493771 c 0.767651,-0.487297 1.848064,-0.81712 3.61868,-0.87362 0.808727,-0.531865 1.245949,-0.900951 1.469365,-1.176755 0.111732,-0.13774 0.169816,-0.251296 0.195775,-0.351552 0.02594,-0.100377 0.01945,-0.186835 0,-0.267349 -2.180209,2.195624 -5.27595,-0.220341 -7.6752224,-0.955719 -0.2257776,-0.0482 -0.4598226,-0.07276 -0.6967911,-0.07789 z"
     style="fill:#ffba36;stroke-width:0.538907"
     id="path1673"
     sodipodi:nodetypes="cccccscccccccc" />
</svg>
