<?xml version="1.0" encoding="UTF-8" standalone="no"?>
<!-- Created with Inkscape (http://www.inkscape.org/) -->

<svg
   width="128"
   height="128"
   viewBox="0 0 33.866666 33.866668"
   version="1.1"
   id="svg1099"
   inkscape:version="1.2 (dc2aedaf03, 2022-05-15)"
   sodipodi:docname="github-desktop.svg"
   xmlns:inkscape="http://www.inkscape.org/namespaces/inkscape"
   xmlns:sodipodi="http://sodipodi.sourceforge.net/DTD/sodipodi-0.dtd"
   xmlns="http://www.w3.org/2000/svg"
   xmlns:svg="http://www.w3.org/2000/svg">
  <sodipodi:namedview
     id="namedview1101"
     pagecolor="#ffffff"
     bordercolor="#666666"
     borderopacity="1.0"
     inkscape:pageshadow="2"
     inkscape:pageopacity="0.0"
     inkscape:pagecheckerboard="0"
     inkscape:document-units="px"
     showgrid="false"
     units="px"
     inkscape:zoom="4.3807475"
     inkscape:cx="18.718267"
     inkscape:cy="66.883563"
     inkscape:window-width="1846"
     inkscape:window-height="1011"
     inkscape:window-x="0"
     inkscape:window-y="0"
     inkscape:window-maximized="1"
     inkscape:current-layer="svg1099"
     inkscape:showpageshadow="2"
     inkscape:deskcolor="#d1d1d1"
     showguides="false" />
  <defs
     id="defs1096" />
  <rect
     style="opacity:1;fill:#9c27b0;fill-opacity:1;stroke-width:1.05833;stroke-linecap:round"
     id="rect934"
     width="27.516666"
     height="27.516666"
     x="3.175"
     y="3.175"
     ry="2.2489583" />
  <path
     id="rect2485"
     style="opacity:0.5;fill:#000000;fill-opacity:1;stroke-width:0.529166"
     d="m 5.4239584,3.1750001 c -1.2459217,0 -2.2489583,1.0030366 -2.2489583,2.2489583 V 28.442709 c 0,1.245922 1.0030366,2.248958 2.2489583,2.248958 H 28.442709 c 1.245922,0 2.248958,-1.003036 2.248958,-2.248958 V 5.4239584 c 0,-1.2459217 -1.003036,-2.2489583 -2.248958,-2.2489583 z M 5.5562501,3.4395834 H 28.310417 c 1.172633,0 2.116667,0.9440345 2.116667,2.1166667 V 27.516667 c 0,1.172633 -0.944034,2.116667 -2.116667,2.116667 H 5.5562501 c -1.1726322,0 -2.1166667,-0.944034 -2.1166667,-2.116667 V 5.5562501 c 0,-1.1726322 0.9440345,-2.1166667 2.1166667,-2.1166667 z" />
  <path
     d="m 16.933335,10.583334 c -3.517904,0 -6.350006,2.832104 -6.350006,6.350008 0,2.836046 1.878979,5.222981 4.435701,6.043048 v -1.065161 c -1.607387,0.354712 -1.983137,-0.706936 -1.983137,-0.706936 -0.262881,-0.678353 -0.641821,-0.731813 -0.641821,-0.731813 -0.524694,-0.36399 0.03876,-0.35812 0.03876,-0.35812 0.580009,0.04142 0.885217,0.606168 0.885217,0.606168 0.515464,0.897191 1.390377,0.638647 1.719585,0.488341 0.0525,-0.379197 0.1432,-1.020479 0.30815,-1.167185 -1.283097,-0.1482 -2.222455,-0.968709 -2.222455,-3.218674 0,-0.640875 0.378382,-1.482517 0.748032,-1.892651 -0.0596,-0.14852 -0.258832,-1.007615 0.05582,-1.815733 0,0 0.03032,-0.0096 0.09302,-0.0124 0.18804,-0.0088 0.611029,0.29247 1.438673,0.862304 0.499702,-0.14356 1.075243,-0.210686 1.474475,-0.213942 0.45016,-0.0038 0.907919,0.07374 1.377639,0.213942 0.827882,-0.569834 1.356771,-0.872584 1.544095,-0.863854 h 0.0016 c 0.06262,0.003 0.09302,0.0124 0.09302,0.0124 0.315374,0.808086 0.11662,1.668771 0.05736,1.817283 0.3703,0.41021 0.736292,1.251774 0.736292,1.892651 0,2.255697 -1.464735,3.068754 -2.751721,3.21402 0.20717,0.1813 0.264582,0.540772 0.264582,1.088307 0,0.66129 0.0015,1.091122 0,1.36426 l 0.0106,0.587561 c 2.743655,-0.702215 5.016523,-3.175256 5.016523,-6.143818 0,-3.517904 -2.832104,-6.350006 -6.350008,-6.350006 z"
     style="fill:#ffffff;stroke-width:0.635"
     id="path794"
     sodipodi:nodetypes="csccccccccsccccccccccscsccscc" />
</svg>
