<?xml version="1.0" encoding="UTF-8" standalone="no"?>
<!-- Created with Inkscape (http://www.inkscape.org/) -->

<svg
   width="128"
   height="128"
   viewBox="0 0 33.866666 33.866668"
   version="1.1"
   id="svg1099"
   inkscape:version="1.2 (dc2aedaf03, 2022-05-15)"
   sodipodi:docname="gnome-boxes.svg"
   xmlns:inkscape="http://www.inkscape.org/namespaces/inkscape"
   xmlns:sodipodi="http://sodipodi.sourceforge.net/DTD/sodipodi-0.dtd"
   xmlns="http://www.w3.org/2000/svg"
   xmlns:svg="http://www.w3.org/2000/svg">
  <sodipodi:namedview
     id="namedview1101"
     pagecolor="#ffffff"
     bordercolor="#666666"
     borderopacity="1.0"
     inkscape:pageshadow="2"
     inkscape:pageopacity="0.0"
     inkscape:pagecheckerboard="0"
     inkscape:document-units="px"
     showgrid="false"
     units="px"
     inkscape:zoom="3.1796875"
     inkscape:cx="58.181818"
     inkscape:cy="81.769042"
     inkscape:window-width="1846"
     inkscape:window-height="1011"
     inkscape:window-x="0"
     inkscape:window-y="0"
     inkscape:window-maximized="1"
     inkscape:current-layer="svg1099"
     inkscape:showpageshadow="2"
     inkscape:deskcolor="#d1d1d1"
     showguides="false" />
  <defs
     id="defs1096" />
  <rect
     style="opacity:1;fill:#424242;fill-opacity:1;stroke-width:1.05833;stroke-linecap:round"
     id="rect934"
     width="27.516666"
     height="27.516666"
     x="3.175"
     y="3.175"
     ry="2.2489583" />
  <path
     d="m 10.583333,10.583334 v 12.7 h 12.7 v -12.7 z m 1.432454,1.058334 h 9.835092 l -2.645833,2.645833 H 14.661673 L 12.01584,11.641668 Z m -0.37412,0.375708 2.645833,2.645833 v 4.543373 l -2.645833,2.645833 v -9.835092 z m 10.583333,0 v 9.835092 L 19.579167,19.206635 V 14.663262 L 22.225,12.017429 Z m -7.408334,2.799291 H 19.05 v 4.233334 h -4.233334 z m -0.15503,4.762501 h 4.543373 l 2.645833,2.645833 H 12.01575 l 2.645833,-2.645833 z"
     style="opacity:0.5;fill:#ffffff;stroke-width:0.264583"
     id="path7778"
     sodipodi:nodetypes="cccccccccccccccccccccccccccccccccc" />
  <path
     d="m 11.1125,9.5250007 c -0.876752,0 -1.5875003,0.7107483 -1.5875003,1.5875003 0,0.876751 0.7107483,1.5875 1.5875003,1.5875 0.876752,0 1.5875,-0.710749 1.5875,-1.5875 0,-0.876752 -0.710748,-1.5875003 -1.5875,-1.5875003 z m 11.641667,0 c -0.876752,0 -1.5875,0.7107483 -1.5875,1.5875003 0,0.876751 0.710748,1.5875 1.5875,1.5875 0.876752,0 1.5875,-0.710749 1.5875,-1.5875 0,-0.876752 -0.710748,-1.5875003 -1.5875,-1.5875003 z m -8.202084,4.2333333 c -0.438376,0 -0.79375,0.355374 -0.79375,0.79375 0,0.438376 0.355374,0.79375 0.79375,0.79375 0.438376,0 0.79375,-0.355374 0.79375,-0.79375 0,-0.438376 -0.355374,-0.79375 -0.79375,-0.79375 z m 4.762501,0 c -0.438376,0 -0.79375,0.355374 -0.79375,0.79375 0,0.438376 0.355374,0.79375 0.79375,0.79375 0.438376,0 0.79375,-0.355374 0.79375,-0.79375 0,-0.438376 -0.355374,-0.79375 -0.79375,-0.79375 z m -4.762501,4.7625 c -0.438376,0 -0.79375,0.355374 -0.79375,0.79375 0,0.438376 0.355374,0.79375 0.79375,0.79375 0.438376,0 0.79375,-0.355374 0.79375,-0.79375 0,-0.438376 -0.355374,-0.79375 -0.79375,-0.79375 z m 4.762501,0 c -0.438376,0 -0.79375,0.355374 -0.79375,0.79375 0,0.438376 0.355374,0.79375 0.79375,0.79375 0.438376,0 0.79375,-0.355374 0.79375,-0.79375 0,-0.438376 -0.355374,-0.79375 -0.79375,-0.79375 z M 11.1125,21.166667 c -0.876752,0 -1.5875003,0.710748 -1.5875003,1.5875 0,0.876752 0.7107483,1.5875 1.5875003,1.5875 0.876752,0 1.5875,-0.710748 1.5875,-1.5875 0,-0.876752 -0.710748,-1.5875 -1.5875,-1.5875 z m 11.641667,0 c -0.876752,0 -1.5875,0.710748 -1.5875,1.5875 0,0.876752 0.710748,1.5875 1.5875,1.5875 0.876752,0 1.5875,-0.710748 1.5875,-1.5875 0,-0.876752 -0.710748,-1.5875 -1.5875,-1.5875 z"
     style="fill:#ffffff;stroke-width:0.264583"
     id="path8685"
     sodipodi:nodetypes="ssssssssssssssssssssssssssssssssssssssss" />
  <path
     id="rect2485"
     style="opacity:0.5;fill:#000000;fill-opacity:1;stroke-width:0.529166"
     d="m 5.4239584,3.1750001 c -1.2459217,0 -2.2489583,1.0030366 -2.2489583,2.2489583 V 28.442709 c 0,1.245922 1.0030366,2.248958 2.2489583,2.248958 H 28.442709 c 1.245922,0 2.248958,-1.003036 2.248958,-2.248958 V 5.4239584 c 0,-1.2459217 -1.003036,-2.2489583 -2.248958,-2.2489583 z M 5.5562501,3.4395834 H 28.310417 c 1.172633,0 2.116667,0.9440345 2.116667,2.1166667 V 27.516667 c 0,1.172633 -0.944034,2.116667 -2.116667,2.116667 H 5.5562501 c -1.1726322,0 -2.1166667,-0.944034 -2.1166667,-2.116667 V 5.5562501 c 0,-1.1726322 0.9440345,-2.1166667 2.1166667,-2.1166667 z" />
</svg>
