<?xml version="1.0" encoding="UTF-8" standalone="no"?>
<!-- Created with Inkscape (http://www.inkscape.org/) -->

<svg
   width="128"
   height="128"
   viewBox="0 0 33.866666 33.866668"
   version="1.1"
   id="svg1099"
   inkscape:version="1.2 (dc2aedaf03, 2022-05-15)"
   sodipodi:docname="gnome-boxes.svg"
   xmlns:inkscape="http://www.inkscape.org/namespaces/inkscape"
   xmlns:sodipodi="http://sodipodi.sourceforge.net/DTD/sodipodi-0.dtd"
   xmlns="http://www.w3.org/2000/svg"
   xmlns:svg="http://www.w3.org/2000/svg">
  <sodipodi:namedview
     id="namedview1101"
     pagecolor="#ffffff"
     bordercolor="#666666"
     borderopacity="1.0"
     inkscape:pageshadow="2"
     inkscape:pageopacity="0.0"
     inkscape:pagecheckerboard="0"
     inkscape:document-units="px"
     showgrid="false"
     units="px"
     inkscape:zoom="6.359375"
     inkscape:cx="63.921376"
     inkscape:cy="64"
     inkscape:window-width="1920"
     inkscape:window-height="1011"
     inkscape:window-x="0"
     inkscape:window-y="0"
     inkscape:window-maximized="1"
     inkscape:current-layer="svg1099"
     inkscape:showpageshadow="2"
     inkscape:deskcolor="#d1d1d1"
     showguides="false" />
  <defs
     id="defs1096" />
  <rect
     style="opacity:1;fill:#424242;fill-opacity:1;stroke-width:1.05833;stroke-linecap:round"
     id="rect934"
     width="27.516666"
     height="27.516666"
     x="3.4395833"
     y="3.4395833"
     ry="2.2489583" />
  <path
     d="m 10.847916,10.847917 v 12.7 h 12.7 v -12.7 z m 1.432454,1.058334 h 9.835092 l -2.645833,2.645833 h -4.543373 l -2.645833,-2.645833 z m -0.37412,0.375708 2.645833,2.645833 v 4.543373 l -2.645833,2.645833 v -9.835092 z m 10.583333,0 v 9.835092 L 19.84375,19.471218 v -4.543373 l 2.645833,-2.645833 z m -7.408334,2.799291 h 4.233334 v 4.233334 h -4.233334 z m -0.15503,4.762501 h 4.543373 l 2.645833,2.645833 h -9.835092 l 2.645833,-2.645833 z"
     style="opacity:0.5;fill:#ffffff;stroke-width:0.264583"
     id="path7778"
     sodipodi:nodetypes="cccccccccccccccccccccccccccccccccc" />
  <path
     d="m 11.377083,9.789584 c -0.876752,0 -1.5875,0.710748 -1.5875,1.5875 0,0.876751 0.710748,1.5875 1.5875,1.5875 0.876752,0 1.5875,-0.710749 1.5875,-1.5875 0,-0.876752 -0.710748,-1.5875 -1.5875,-1.5875 z m 11.641667,0 c -0.876752,0 -1.5875,0.710748 -1.5875,1.5875 0,0.876751 0.710748,1.5875 1.5875,1.5875 0.876752,0 1.5875,-0.710749 1.5875,-1.5875 0,-0.876752 -0.710748,-1.5875 -1.5875,-1.5875 z m -8.202084,4.233333 c -0.438376,0 -0.79375,0.355374 -0.79375,0.79375 0,0.438376 0.355374,0.79375 0.79375,0.79375 0.438376,0 0.79375,-0.355374 0.79375,-0.79375 0,-0.438376 -0.355374,-0.79375 -0.79375,-0.79375 z m 4.762501,0 c -0.438376,0 -0.79375,0.355374 -0.79375,0.79375 0,0.438376 0.355374,0.79375 0.79375,0.79375 0.438376,0 0.79375,-0.355374 0.79375,-0.79375 0,-0.438376 -0.355374,-0.79375 -0.79375,-0.79375 z m -4.762501,4.7625 c -0.438376,0 -0.79375,0.355374 -0.79375,0.79375 0,0.438376 0.355374,0.79375 0.79375,0.79375 0.438376,0 0.79375,-0.355374 0.79375,-0.79375 0,-0.438376 -0.355374,-0.79375 -0.79375,-0.79375 z m 4.762501,0 c -0.438376,0 -0.79375,0.355374 -0.79375,0.79375 0,0.438376 0.355374,0.79375 0.79375,0.79375 0.438376,0 0.79375,-0.355374 0.79375,-0.79375 0,-0.438376 -0.355374,-0.79375 -0.79375,-0.79375 z m -8.202084,2.645833 c -0.876752,0 -1.5875,0.710748 -1.5875,1.5875 0,0.876752 0.710748,1.5875 1.5875,1.5875 0.876752,0 1.5875,-0.710748 1.5875,-1.5875 0,-0.876752 -0.710748,-1.5875 -1.5875,-1.5875 z m 11.641667,0 c -0.876752,0 -1.5875,0.710748 -1.5875,1.5875 0,0.876752 0.710748,1.5875 1.5875,1.5875 0.876752,0 1.5875,-0.710748 1.5875,-1.5875 0,-0.876752 -0.710748,-1.5875 -1.5875,-1.5875 z"
     style="fill:#ffffff;stroke-width:0.264583"
     id="path8685"
     sodipodi:nodetypes="ssssssssssssssssssssssssssssssssssssssss" />
  <path
     id="rect2485"
     style="fill:#000000;fill-opacity:1;stroke-width:0.529166;opacity:0.5"
     d="M 5.6885417 3.4395834 C 4.44262 3.4395834 3.4395834 4.44262 3.4395834 5.6885417 L 3.4395834 28.707292 C 3.4395834 29.953214 4.44262 30.95625 5.6885417 30.95625 L 28.707292 30.95625 C 29.953214 30.95625 30.95625 29.953214 30.95625 28.707292 L 30.95625 5.6885417 C 30.95625 4.44262 29.953214 3.4395834 28.707292 3.4395834 L 5.6885417 3.4395834 z M 5.8208334 3.7041667 L 28.575 3.7041667 C 29.747633 3.7041667 30.691667 4.6482012 30.691667 5.8208334 L 30.691667 27.78125 C 30.691667 28.953883 29.747633 29.897917 28.575 29.897917 L 5.8208334 29.897917 C 4.6482012 29.897917 3.7041667 28.953883 3.7041667 27.78125 L 3.7041667 5.8208334 C 3.7041667 4.6482012 4.6482012 3.7041667 5.8208334 3.7041667 z " />
</svg>
