<?xml version="1.0" encoding="UTF-8" standalone="no"?>
<!-- Created with Inkscape (http://www.inkscape.org/) -->

<svg
   width="128"
   height="128"
   viewBox="0 0 33.866666 33.866668"
   version="1.1"
   id="svg1099"
   inkscape:version="1.2 (dc2aedaf03, 2022-05-15)"
   sodipodi:docname="goa-account-lastfm.svg"
   xmlns:inkscape="http://www.inkscape.org/namespaces/inkscape"
   xmlns:sodipodi="http://sodipodi.sourceforge.net/DTD/sodipodi-0.dtd"
   xmlns="http://www.w3.org/2000/svg"
   xmlns:svg="http://www.w3.org/2000/svg">
  <sodipodi:namedview
     id="namedview1101"
     pagecolor="#ffffff"
     bordercolor="#666666"
     borderopacity="1.0"
     inkscape:pageshadow="2"
     inkscape:pageopacity="0.0"
     inkscape:pagecheckerboard="0"
     inkscape:document-units="px"
     showgrid="false"
     units="px"
     inkscape:zoom="6.359375"
     inkscape:cx="64"
     inkscape:cy="64.078624"
     inkscape:window-width="1846"
     inkscape:window-height="1011"
     inkscape:window-x="74"
     inkscape:window-y="32"
     inkscape:window-maximized="1"
     inkscape:current-layer="svg1099"
     inkscape:showpageshadow="2"
     inkscape:deskcolor="#d1d1d1"
     showguides="false" />
  <defs
     id="defs1096" />
  <rect
     style="opacity:1;fill:#cf3b00;fill-opacity:1;stroke-width:1.05833;stroke-linecap:round"
     id="rect934"
     width="27.516666"
     height="27.516666"
     x="3.175"
     y="3.175"
     ry="2.2489583" />
  <path
     id="rect1772"
     style="opacity:0.5;fill:#000000;fill-opacity:1;stroke-width:0.264583"
     d="m 5.4239584,3.1750001 c -1.2459217,0 -2.2489583,1.0030366 -2.2489583,2.2489583 V 28.442709 c 0,1.245922 1.0030366,2.248958 2.2489583,2.248958 H 28.442709 c 1.245922,0 2.248958,-1.003036 2.248958,-2.248958 V 5.4239584 c 0,-1.2459217 -1.003036,-2.2489583 -2.248958,-2.2489583 z M 5.5562501,3.4395834 H 28.310417 c 1.172633,0 2.116667,0.9440345 2.116667,2.1166667 V 27.516667 c 0,1.172633 -0.944034,2.116667 -2.116667,2.116667 H 5.5562501 c -1.1726322,0 -2.1166667,-0.944034 -2.1166667,-2.116667 V 5.5562501 c 0,-1.1726322 0.9440345,-2.1166667 2.1166667,-2.1166667 z" />
  <path
     d="M 12.756844,21.910331 C 12.418048,21.863763 11.815383,21.664798 11.413388,21.468265 8.7942361,20.19361 7.7231195,16.983266 9.0131498,14.279121 c 1.4737622,-3.091917 5.4950082,-3.880057 7.9147922,-1.551198 0.699744,0.672359 1.010525,1.246081 2.064049,3.790099 1.099783,2.660435 1.30306,3.078688 1.659448,3.433335 0.381795,0.377297 0.735577,0.504297 1.412517,0.504297 1.112163,0 1.906379,-0.698182 1.906379,-1.672377 0,-0.824548 -0.285373,-1.088601 -1.740891,-1.613428 -2.216506,-0.812059 -2.934492,-1.545906 -2.9371,-3.019739 0,-0.786234 0.19612,-1.310427 0.694532,-1.853669 0.71538,-0.775651 1.949381,-1.031767 3.041346,-0.64664 0.465844,0.168167 1.440533,1.044362 1.440533,1.295187 0,0.121707 -0.564876,0.493711 -0.878263,0.581659 -0.16548,0.04339 -0.308173,-0.01272 -0.499073,-0.19918 -0.38701,-0.377191 -0.648924,-0.493711 -1.112162,-0.493711 -0.799428,0 -1.295242,0.48842 -1.295242,1.277301 0,0.786234 0.315341,1.052193 1.890742,1.59226 2.170899,0.744537 2.812004,1.416895 2.825036,2.97275 0.013,1.344186 -0.583121,2.313725 -1.768905,2.887447 -0.539469,0.258764 -0.722548,0.291887 -1.603417,0.291887 -1.257453,0 -1.822332,-0.237595 -2.527287,-1.044362 -0.473663,-0.542605 -0.954491,-1.561144 -2.494058,-5.279171 -0.638499,-1.540613 -1.458125,-2.295733 -2.825036,-2.592913 -0.692577,-0.150177 -1.656843,-0.01058 -2.285569,0.325649 -0.61309,0.325648 -1.297848,1.060237 -1.621008,1.73196 -0.267128,0.545253 -0.2925362,0.698182 -0.2925362,1.646553 0,0.904661 0.03584,1.119081 0.2593082,1.615439 0.338795,0.757766 1.005311,1.457852 1.738283,1.835147 0.529694,0.271357 0.694532,0.305117 1.539566,0.305117 0.811807,0 1.020298,-0.03916 1.504384,-0.274005 0.5525,-0.274 1.295244,-0.946358 1.598206,-1.450018 l 0.157671,-0.261407 0.31078,0.72136 c 0.173308,0.398354 0.312736,0.773005 0.312736,0.840421 0,0.199279 -0.702351,0.850475 -1.346062,1.256134 -0.977299,0.61288 -2.099885,0.842432 -3.298701,0.677014"
     style="fill:#ffffff;stroke-width:1.05833"
     id="path16950" />
</svg>
