<?xml version="1.0" encoding="UTF-8" standalone="no"?>
<!-- Created with Inkscape (http://www.inkscape.org/) -->

<svg
   width="128"
   height="128"
   viewBox="0 0 33.866666 33.866668"
   version="1.1"
   id="svg1099"
   inkscape:version="1.2 (dc2aedaf03, 2022-05-15)"
   sodipodi:docname="help-contents.svg"
   xmlns:inkscape="http://www.inkscape.org/namespaces/inkscape"
   xmlns:sodipodi="http://sodipodi.sourceforge.net/DTD/sodipodi-0.dtd"
   xmlns="http://www.w3.org/2000/svg"
   xmlns:svg="http://www.w3.org/2000/svg">
  <sodipodi:namedview
     id="namedview1101"
     pagecolor="#ffffff"
     bordercolor="#666666"
     borderopacity="1.0"
     inkscape:pageshadow="2"
     inkscape:pageopacity="0.0"
     inkscape:pagecheckerboard="0"
     inkscape:document-units="px"
     showgrid="false"
     units="px"
     inkscape:zoom="6.359375"
     inkscape:cx="64"
     inkscape:cy="64"
     inkscape:window-width="1920"
     inkscape:window-height="1011"
     inkscape:window-x="0"
     inkscape:window-y="0"
     inkscape:window-maximized="1"
     inkscape:current-layer="svg1099"
     inkscape:showpageshadow="2"
     inkscape:deskcolor="#d1d1d1"
     showguides="false" />
  <defs
     id="defs1096" />
  <rect
     style="opacity:1;fill:#1f285a;fill-opacity:1;stroke-width:1.05833;stroke-linecap:round"
     id="rect934"
     width="23.283333"
     height="29.633333"
     x="5.2916665"
     y="1.8520833"
     ry="2.1166668" />
  <rect
     style="opacity:1;fill:#3f51b5;fill-opacity:1;stroke-width:0.529167;stroke-linecap:round;stroke-linejoin:bevel"
     id="rect16173"
     width="23.283333"
     height="29.104166"
     x="5.2916665"
     y="1.8520833"
     ry="2.1166668" />
  <path
     d="m 14.552084,24.606185 h 3.175 v 3.704167 h -3.175 z m 3.175,-2.116667 h -3.175 c 0,-3.042708 0.438679,-5.378714 2.342885,-7.206721 0.926307,-0.889264 1.951567,-1.838854 2.600855,-2.857764 0.291041,-0.456671 0.381529,-1.084263 0.347927,-1.576917 C 19.703257,8.7846309 17.986905,7.9043621 16.271876,7.9376996 14.235113,7.9768579 12.35419,9.0216975 10.847917,10.054366 V 7.1439496 c 1.849438,-1.1022542 3.968486,-1.5970251 5.953125,-1.5875001 3.382698,0.014288 6.281738,2.1968355 6.217709,5.2916665 -0.05477,2.653771 -2.036498,4.119563 -3.840427,5.795434 -1.450975,1.348052 -1.450975,3.464718 -1.450975,5.845968 z"
     style="fill:#ffffff;stroke-width:0.264583"
     id="path10475" />
  <path
     id="rect16171"
     style="opacity:0.3;fill:#000000;fill-opacity:1;stroke-width:0.529167;stroke-linecap:round;stroke-linejoin:bevel"
     d="M 7.4083334 1.8520834 C 6.2357012 1.8520834 5.2916667 2.7961178 5.2916667 3.96875 L 5.2916667 28.839584 C 5.2916667 30.012216 6.2357012 30.95625 7.4083334 30.95625 L 26.458334 30.95625 C 27.630966 30.95625 28.575 30.012216 28.575 28.839584 L 28.575 3.96875 C 28.575 2.7961178 27.630966 1.8520834 26.458334 1.8520834 L 7.4083334 1.8520834 z M 7.4083334 2.1166667 L 26.458334 2.1166667 C 27.484387 2.1166667 28.310417 2.9426969 28.310417 3.96875 L 28.310417 28.839584 C 28.310417 29.865637 27.484387 30.691667 26.458334 30.691667 L 7.4083334 30.691667 C 6.3822803 30.691667 5.5562501 29.865637 5.5562501 28.839584 L 5.5562501 3.96875 C 5.5562501 2.9426969 6.3822803 2.1166667 7.4083334 2.1166667 z " />
</svg>
