<?xml version="1.0" encoding="UTF-8" standalone="no"?>
<!-- Created with Inkscape (http://www.inkscape.org/) -->

<svg
   width="128"
   height="128"
   viewBox="0 0 33.866666 33.866666"
   version="1.1"
   id="svg5"
   inkscape:version="1.2 (dc2aedaf03, 2022-05-15)"
   sodipodi:docname="ibus-setup-hangul.svg"
   xmlns:inkscape="http://www.inkscape.org/namespaces/inkscape"
   xmlns:sodipodi="http://sodipodi.sourceforge.net/DTD/sodipodi-0.dtd"
   xmlns="http://www.w3.org/2000/svg"
   xmlns:svg="http://www.w3.org/2000/svg">
  <sodipodi:namedview
     id="namedview7"
     pagecolor="#ffffff"
     bordercolor="#666666"
     borderopacity="1.0"
     inkscape:pageshadow="2"
     inkscape:pageopacity="0.0"
     inkscape:pagecheckerboard="0"
     inkscape:document-units="px"
     showgrid="false"
     units="px"
     height="48px"
     inkscape:zoom="2.2483786"
     inkscape:cx="-11.563889"
     inkscape:cy="61.377563"
     inkscape:window-width="1846"
     inkscape:window-height="1011"
     inkscape:window-x="0"
     inkscape:window-y="0"
     inkscape:window-maximized="1"
     inkscape:current-layer="svg5"
     inkscape:showpageshadow="2"
     inkscape:deskcolor="#d1d1d1" />
  <defs
     id="defs2" />
  <path
     id="rect5567"
     style="opacity:1;fill:#1f285a;stroke-width:1.05833"
     d="m 16.933334,1.0583333 c 8.79475,0 15.874999,7.0802501 15.874999,15.8750007 v 0.793749 c 0,8.79475 -7.080249,15.875 -15.874999,15.875 -8.7947506,0 -15.8750007,-7.08025 -15.8750007,-15.875 v -0.793749 c 0,-8.7947506 7.0802501,-15.8750007 15.8750007,-15.8750007 z"
     sodipodi:nodetypes="sssssss" />
  <circle
     style="opacity:1;fill:#3f51b5;fill-opacity:1;stroke-width:1.11503"
     id="path4871"
     cx="16.933332"
     cy="16.933332"
     r="15.610416" />
  <path
     id="path934-7"
     style="fill:#7f6728;fill-opacity:1;stroke-width:2.11666"
     d="m 25.538492,3.5760091 c -0.0092,4.53e-4 -0.0178,0.00161 -0.02688,0.00206 l -0.56223,6.2528485 0.07854,0.1777664 -0.07854,0.880566 4.582665,9.996296 -1.844046,5.196368 c -0.850862,1.525591 -1.773065,2.291975 -3.706235,4.171321 -0.588378,0.599464 -1.7993,1.337896 -3.15946,1.790486 l -3.888972,1.558362 c 8.76021,0 15.817635,-7.024928 15.872933,-15.771647 4.6e-5,-0.03876 0.002,-0.06701 0.002,-0.103352 v -0.79375 c 0,-5.618469 -2.889628,-10.5372947 -7.269841,-13.3573249 z"
     sodipodi:nodetypes="ccccccccccccscc" />
  <path
     id="path1114"
     style="fill:#671d00;fill-opacity:1;stroke-width:4.23332;stroke-linejoin:round"
     d="m 16.933333,1.0583333 c -6.815509,0 -12.6005522,4.2524304 -14.8595578,10.2593227 -0.089439,0.511473 -0.1532162,0.997697 -0.1607137,1.388029 -0.00778,0.405284 0.7980156,3.106704 0.8257894,3.541385 C 9.0234753,16.144873 13.980911,17.170724 14.514876,9.6862303 15.382643,7.6408902 17.637127,6.3689569 20.000846,6.27972 22.157852,6.198294 26.61445,4.7940255 28.259774,6.191353 28.616023,6.4945716 29.08223,6.8771971 29.550651,7.2770748 26.654332,3.4920232 22.088757,1.0583333 16.933333,1.0583333 Z" />
  <path
     d="m 20.976536,3.0436277 c -0.347885,-0.012044 -0.692036,-0.011251 -1.029214,0.00153 -3.227937,0.1218574 -7.063172,2.2391491 -8.372434,5.3250966 -1.478366,3.4845347 -2.4862409,8.5345417 5.333655,8.5345417 2.06667,-3.553735 7.466682,-2.833102 9.745469,0.189352 2.018124,2.676724 1.908508,6.318211 0.400083,9.174364 -1.260517,2.386746 -3.38623,4.758847 -6.231789,5.775209 6.742436,-1.735926 11.721442,-7.857618 11.721442,-15.138925 0,-4.236423 -1.68708,-8.0879699 -4.426845,-10.9044849 C 27.984554,5.8858327 27.839578,5.7831542 27.701553,5.6735251 25.737469,4.1680328 23.271219,3.122648 20.976536,3.0436277 Z"
     style="fill:#ffce51;fill-opacity:1;fill-rule:evenodd;stroke-width:1.56367"
     id="path886" />
  <path
     d="M 16.63215,1.326086 C 14.081588,1.3774718 11.508508,2.0543912 9.1436183,3.4196372 5.474434,5.5378436 2.9826667,8.9247283 1.9131547,12.705475 c -0.029837,0.155465 -0.045565,0.318078 -0.070244,0.476433 -0.3877108,2.841035 0.5612485,5.697805 1.9332137,7.879449 1.7195168,2.734288 4.8192951,4.651298 8.1466806,4.242072 3.757152,-0.46208 7.082226,-4.777167 5.037655,-8.343662 -4.111241,-0.01279 -6.186184,-5.050007 -4.707817,-8.5345425 1.309259,-3.0859474 4.51866,-4.8119528 7.746596,-4.9338167 2.697427,-0.1018265 5.814609,0.5529814 8.117664,2.5089014 C 25.070208,2.893666 20.883084,1.2404432 16.63215,1.326086 Z"
     style="fill:#cf3b00;fill-opacity:1;fill-rule:evenodd;stroke-width:1.56367"
     id="path858" />
</svg>
