<?xml version="1.0" encoding="UTF-8" standalone="no"?>
<!-- Created with Inkscape (http://www.inkscape.org/) -->

<svg
   width="128"
   height="128"
   viewBox="0 0 33.866666 33.866668"
   version="1.1"
   id="svg1099"
   inkscape:version="1.2 (dc2aedaf03, 2022-05-15)"
   sodipodi:docname="ibus-setup.svg"
   xmlns:inkscape="http://www.inkscape.org/namespaces/inkscape"
   xmlns:sodipodi="http://sodipodi.sourceforge.net/DTD/sodipodi-0.dtd"
   xmlns="http://www.w3.org/2000/svg"
   xmlns:svg="http://www.w3.org/2000/svg">
  <sodipodi:namedview
     id="namedview1101"
     pagecolor="#ffffff"
     bordercolor="#666666"
     borderopacity="1.0"
     inkscape:pageshadow="2"
     inkscape:pageopacity="0.0"
     inkscape:pagecheckerboard="0"
     inkscape:document-units="px"
     showgrid="false"
     units="px"
     inkscape:zoom="6.359375"
     inkscape:cx="64.707617"
     inkscape:cy="64.235872"
     inkscape:window-width="1846"
     inkscape:window-height="1011"
     inkscape:window-x="0"
     inkscape:window-y="0"
     inkscape:window-maximized="1"
     inkscape:current-layer="svg1099"
     inkscape:showpageshadow="2"
     inkscape:deskcolor="#d1d1d1"
     showguides="false" />
  <defs
     id="defs1096" />
  <rect
     style="opacity:1;fill:#3f51b5;fill-opacity:1;stroke-width:1.05833;stroke-linecap:round"
     id="rect934"
     width="27.516666"
     height="27.516666"
     x="3.175"
     y="3.175"
     ry="2.2489583" />
  <path
     id="rect2485"
     style="opacity:0.5;fill:#000000;fill-opacity:1;stroke-width:0.529166"
     d="m 5.4239584,3.1750001 c -1.2459217,0 -2.2489583,1.0030366 -2.2489583,2.2489583 V 28.442709 c 0,1.245922 1.0030366,2.248958 2.2489583,2.248958 H 28.442709 c 1.245922,0 2.248958,-1.003036 2.248958,-2.248958 V 5.4239584 c 0,-1.2459217 -1.003036,-2.2489583 -2.248958,-2.2489583 z M 5.5562501,3.4395834 H 28.310417 c 1.172633,0 2.116667,0.9440345 2.116667,2.1166667 V 27.516667 c 0,1.172633 -0.944034,2.116667 -2.116667,2.116667 H 5.5562501 c -1.1726322,0 -2.1166667,-0.944034 -2.1166667,-2.116667 V 5.5562501 c 0,-1.1726322 0.9440345,-2.1166667 2.1166667,-2.1166667 z" />
  <path
     id="rect183"
     style="fill:#ffffff;stroke-width:1.22206;stroke-linejoin:round"
     d="M 15.875,10.583333 V 12.7 h 2.116667 v -2.116667 z m 0,4.233335 v 8.466669 h 2.116667 v -8.466669 z" />
  <rect
     style="fill:#552d5d;fill-opacity:1;stroke-width:0.511527"
     id="rect12654"
     width="15.345833"
     height="16.139584"
     x="18.520834"
     y="17.727083"
     ry="7.6729164" />
  <circle
     style="fill:#aa5abb;fill-opacity:1;stroke-width:0.529166"
     id="path13694"
     cx="26.19375"
     cy="25.4"
     r="7.4083333" />
  <path
     d="m 25.267711,21.695833 -0.08176,0.975783 c -0.309279,0.114585 -0.596831,0.280907 -0.850371,0.49186 l -0.886883,-0.417512 -0.926042,1.603904 0.805128,0.559329 c -0.02867,0.16205 -0.04354,0.326239 -0.04445,0.490802 9.5e-5,0.16521 0.01426,0.330112 0.04233,0.492919 l -0.803011,0.557212 0.926042,1.603905 0.884767,-0.416455 c 0.254392,0.21013 0.542663,0.375468 0.852487,0.48895 l 0.08176,0.977636 h 1.852083 l 0.08149,-0.975519 c 0.309391,-0.114639 0.597035,-0.281051 0.850636,-0.492125 l 0.886883,0.417513 0.926042,-1.603905 -0.805127,-0.559064 c 0.02868,-0.162137 0.04355,-0.326415 0.04445,-0.491067 -9.5e-5,-0.16521 -0.01426,-0.330112 -0.04233,-0.492919 l 0.803011,-0.557212 -0.926042,-1.603904 -0.884766,0.416454 C 27.799646,22.95229 27.511375,22.78695 27.20155,22.673468 l -0.08176,-0.977635 z m 0.926041,2.645833 c 0.584502,0 1.058333,0.473832 1.058333,1.058333 0,0.584502 -0.473831,1.058334 -1.058333,1.058334 -0.584501,0 -1.058333,-0.473832 -1.058333,-1.058334 0,-0.584501 0.473832,-1.058333 1.058333,-1.058333 z"
     style="fill:#fafafb;stroke-width:0.264583"
     id="path704" />
</svg>
