<?xml version="1.0" encoding="UTF-8" standalone="no"?>
<!-- Created with Inkscape (http://www.inkscape.org/) -->

<svg
   width="128"
   height="128"
   viewBox="0 0 33.866666 33.866668"
   version="1.1"
   id="svg1099"
   inkscape:version="1.2 (dc2aedaf03, 2022-05-15)"
   sodipodi:docname="internet-news-reader.svg"
   xmlns:inkscape="http://www.inkscape.org/namespaces/inkscape"
   xmlns:sodipodi="http://sodipodi.sourceforge.net/DTD/sodipodi-0.dtd"
   xmlns="http://www.w3.org/2000/svg"
   xmlns:svg="http://www.w3.org/2000/svg">
  <sodipodi:namedview
     id="namedview1101"
     pagecolor="#ffffff"
     bordercolor="#666666"
     borderopacity="1.0"
     inkscape:pageshadow="2"
     inkscape:pageopacity="0.0"
     inkscape:pagecheckerboard="0"
     inkscape:document-units="px"
     showgrid="false"
     units="px"
     inkscape:zoom="4.5851456"
     inkscape:cx="43.619117"
     inkscape:cy="99.887777"
     inkscape:window-width="1846"
     inkscape:window-height="1015"
     inkscape:window-x="0"
     inkscape:window-y="0"
     inkscape:window-maximized="1"
     inkscape:current-layer="svg1099"
     inkscape:showpageshadow="2"
     inkscape:deskcolor="#d1d1d1"
     showguides="false" />
  <defs
     id="defs1096" />
  <rect
     style="opacity:1;fill:#6f4400;fill-opacity:1;stroke-width:0.264583;stroke-linecap:round"
     id="rect934"
     width="27.516666"
     height="27.516666"
     x="3.175"
     y="3.175"
     ry="2.2489583" />
  <rect
     style="fill:#de8800;fill-opacity:1;stroke-width:0.262015"
     id="rect873"
     width="26.987501"
     height="26.19375"
     x="3.4395835"
     y="3.4395835"
     ry="2.1166668" />
  <path
     d="m 3.4395835,14.816667 v 2.116667 c 7.0140165,0 12.7000005,5.685983 12.7000005,12.7 h 2.116666 c 0,-8.183019 -6.633648,-14.816667 -14.8166665,-14.816667 z m 0,4.233333 v 2.116667 c 4.6760108,0 8.4666665,3.790656 8.4666665,8.466667 h 2.116667 C 14.022917,23.78832 9.2845973,19.05 3.4395835,19.05 Z m 0,4.233334 v 2.116667 c 2.3380055,0 4.2333338,1.895326 4.2333338,4.233333 h 2.116666 c 0,-3.507008 -2.8429915,-6.35 -6.3499998,-6.35 z m 0,4.233333 c 0,1.172634 0.9440334,2.116667 2.1166667,2.116667 0,-1.169003 -0.9476639,-2.116667 -2.1166667,-2.116667 z"
     style="fill:#f5f5f5;stroke-width:0.264583"
     id="path14534" />
</svg>
