<?xml version="1.0" encoding="UTF-8" standalone="no"?>
<!-- Created with Inkscape (http://www.inkscape.org/) -->

<svg
   width="128"
   height="128"
   viewBox="0 0 33.866666 33.866666"
   version="1.1"
   id="svg5"
   inkscape:version="1.2 (dc2aedaf03, 2022-05-15)"
   sodipodi:docname="internet-chat.svg"
   xmlns:inkscape="http://www.inkscape.org/namespaces/inkscape"
   xmlns:sodipodi="http://sodipodi.sourceforge.net/DTD/sodipodi-0.dtd"
   xmlns="http://www.w3.org/2000/svg"
   xmlns:svg="http://www.w3.org/2000/svg">
  <sodipodi:namedview
     id="namedview7"
     pagecolor="#ffffff"
     bordercolor="#666666"
     borderopacity="1.0"
     inkscape:pageshadow="2"
     inkscape:pageopacity="0.0"
     inkscape:pagecheckerboard="0"
     inkscape:document-units="px"
     showgrid="false"
     units="px"
     height="48px"
     inkscape:zoom="4.4083689"
     inkscape:cx="23.13781"
     inkscape:cy="53.307699"
     inkscape:window-width="1846"
     inkscape:window-height="1015"
     inkscape:window-x="0"
     inkscape:window-y="0"
     inkscape:window-maximized="1"
     inkscape:current-layer="svg5"
     inkscape:showpageshadow="2"
     inkscape:deskcolor="#d1d1d1" />
  <defs
     id="defs2" />
  <rect
     style="opacity:1;fill:#396247;fill-opacity:1;stroke-width:0.529166"
     id="rect4380"
     width="25.4"
     height="23.283333"
     x="3.175"
     y="3.175"
     ry="2.3812499" />
  <rect
     style="opacity:1;fill:#73c48f;fill-opacity:1;stroke-width:0.264583"
     id="rect4538"
     width="24.870832"
     height="21.960417"
     x="3.4395835"
     y="3.4395835"
     ry="2.1166666" />
  <path
     d="m 8.9958333,7.9374998 c -0.2931584,0 -0.5291668,0.2360084 -0.5291668,0.5291666 0,0.2931584 0.2360084,0.5291667 0.5291668,0.5291667 H 22.754167 c 0.293158,0 0.529166,-0.2360083 0.529166,-0.5291667 0,-0.2931582 -0.236008,-0.5291666 -0.529166,-0.5291666 z m 0,3.1750002 c -0.2931584,0 -0.5291668,0.236008 -0.5291668,0.529166 0,0.293159 0.2360084,0.529167 0.5291668,0.529167 H 22.754167 c 0.293158,0 0.529166,-0.236008 0.529166,-0.529167 0,-0.293158 -0.236008,-0.529166 -0.529166,-0.529166 z m 0,3.175 c -0.2931584,0 -0.5291668,0.236008 -0.5291668,0.529166 0,0.293159 0.2360084,0.529167 0.5291668,0.529167 H 22.754167 c 0.293158,0 0.529166,-0.236008 0.529166,-0.529167 0,-0.293158 -0.236008,-0.529166 -0.529166,-0.529166 z m 0,3.175001 c -0.2931584,0 -0.5291668,0.236008 -0.5291668,0.529166 0,0.293158 0.2360084,0.529166 0.5291668,0.529166 H 17.4625 c 0.293158,0 0.529166,-0.236008 0.529166,-0.529166 0,-0.293158 -0.236008,-0.529166 -0.529166,-0.529166 z"
     id="path15451"
     style="fill:#ffffff;stroke-width:0.529166" />
  <rect
     style="opacity:1;fill:#245c63;fill-opacity:1;stroke-width:0.529166"
     id="rect845"
     width="19.049999"
     height="17.991667"
     x="11.641666"
     y="12.7"
     ry="2.3812499" />
  <rect
     style="opacity:1;fill:#48b9c7;fill-opacity:1;stroke-width:0.264583"
     id="rect1249"
     width="18.520832"
     height="16.668749"
     x="11.90625"
     y="12.964583"
     ry="2.1166666" />
  <path
     d="m 17.991665,20.108333 c -0.5845,0 -1.058332,0.473832 -1.058332,1.058334 0,0.5845 0.473832,1.058333 1.058332,1.058333 0.584502,0 1.058335,-0.473833 1.058335,-1.058333 0,-0.584502 -0.473833,-1.058334 -1.058335,-1.058334 z m 3.174997,0 c -0.5845,0 -1.05833,0.473832 -1.05833,1.058334 0,0.5845 0.47383,1.058333 1.05833,1.058333 0.584502,0 1.058335,-0.473833 1.058335,-1.058333 0,-0.584502 -0.473833,-1.058334 -1.058335,-1.058334 z m 3.175001,0 c -0.584502,0 -1.058334,0.473832 -1.058334,1.058334 0,0.5845 0.473834,1.058333 1.058334,1.058333 0.5845,0 1.058332,-0.473833 1.058332,-1.058333 0,-0.584502 -0.473832,-1.058334 -1.058332,-1.058334 z"
     id="path13970"
     style="fill:#ffffff;stroke-width:0.529166" />
</svg>
