<?xml version="1.0" encoding="UTF-8" standalone="no"?>
<!-- Created with Inkscape (http://www.inkscape.org/) -->

<svg
   width="128"
   height="128"
   viewBox="0 0 33.866666 33.866668"
   version="1.1"
   id="svg1099"
   inkscape:version="1.2 (dc2aedaf03, 2022-05-15)"
   sodipodi:docname="io.elementary.music.svg"
   xmlns:inkscape="http://www.inkscape.org/namespaces/inkscape"
   xmlns:sodipodi="http://sodipodi.sourceforge.net/DTD/sodipodi-0.dtd"
   xmlns="http://www.w3.org/2000/svg"
   xmlns:svg="http://www.w3.org/2000/svg">
  <sodipodi:namedview
     id="namedview1101"
     pagecolor="#ffffff"
     bordercolor="#666666"
     borderopacity="1.0"
     inkscape:pageshadow="2"
     inkscape:pageopacity="0.0"
     inkscape:pagecheckerboard="0"
     inkscape:document-units="px"
     showgrid="false"
     units="px"
     inkscape:zoom="3.1953125"
     inkscape:cx="30.04401"
     inkscape:cy="116.7335"
     inkscape:window-width="1846"
     inkscape:window-height="1011"
     inkscape:window-x="0"
     inkscape:window-y="0"
     inkscape:window-maximized="1"
     inkscape:current-layer="svg1099"
     inkscape:showpageshadow="2"
     inkscape:deskcolor="#d1d1d1"
     showguides="false" />
  <defs
     id="defs1096" />
  <rect
     style="opacity:1;fill:#faa41a;fill-opacity:1;stroke-width:1.05833;stroke-linecap:round"
     id="rect934"
     width="27.516666"
     height="27.516666"
     x="3.175"
     y="3.175"
     ry="2.2489583" />
  <path
     id="rect2485"
     style="opacity:0.5;fill:#000000;fill-opacity:1;stroke-width:0.529166"
     d="m 5.4239584,3.1750001 c -1.2459217,0 -2.2489583,1.0030366 -2.2489583,2.2489583 V 28.442709 c 0,1.245922 1.0030366,2.248958 2.2489583,2.248958 H 28.442709 c 1.245922,0 2.248958,-1.003036 2.248958,-2.248958 V 5.4239584 c 0,-1.2459217 -1.003036,-2.2489583 -2.248958,-2.2489583 z M 5.5562501,3.4395834 H 28.310417 c 1.172633,0 2.116667,0.9440345 2.116667,2.1166667 V 27.516667 c 0,1.172633 -0.944034,2.116667 -2.116667,2.116667 H 5.5562501 c -1.1726322,0 -2.1166667,-0.944034 -2.1166667,-2.116667 V 5.5562501 c 0,-1.1726322 0.9440345,-2.1166667 2.1166667,-2.1166667 z" />
  <path
     d="m 15.345833,11.1125 c -0.879473,0 -1.5875,0.708027 -1.5875,1.5875 v 4.898927 c -0.254918,-0.09021 -0.523339,-0.136349 -0.79375,-0.136425 -1.315128,0 -2.38125,1.066122 -2.381249,2.38125 -1e-6,1.315128 1.066121,2.38125 2.381249,2.38125 1.315129,0 2.38125,-1.066122 2.38125,-2.38125 h 0.0047 V 14.2875 h 4.7625 v 3.312978 c -0.256297,-0.09126 -0.526339,-0.137931 -0.798401,-0.137976 -1.315128,0 -2.38125,1.066122 -2.38125,2.38125 0,1.315128 1.066122,2.38125 2.38125,2.38125 1.315128,0 2.38125,-1.066122 2.38125,-2.38125 V 12.7 c 0,-0.879473 -0.708027,-1.5875 -1.5875,-1.5875 z"
     style="opacity:0.2;fill:#000000;fill-opacity:1;stroke-width:0.529167;stroke-linejoin:bevel"
     id="path53287" />
  <path
     id="path53193"
     style="fill:#ffffff;fill-opacity:1;stroke-width:0.529167;stroke-linejoin:bevel"
     d="m 15.345833,10.847916 c -0.879473,0 -1.5875,0.708027 -1.5875,1.5875 v 4.898926 c -0.254918,-0.09021 -0.52334,-0.136348 -0.79375,-0.136425 -1.315128,0 -2.38125,1.066122 -2.38125,2.38125 0,1.315128 1.066122,2.38125 2.38125,2.38125 1.315128,0 2.38125,-1.066122 2.38125,-2.38125 h 0.0047 v -5.556251 h 4.7625 v 3.312977 c -0.256298,-0.09126 -0.526339,-0.137931 -0.798401,-0.137976 -1.315128,0 -2.38125,1.066122 -2.38125,2.38125 0,1.315128 1.066122,2.38125 2.38125,2.38125 1.315128,0 2.38125,-1.066122 2.38125,-2.38125 v -7.143751 c 0,-0.879473 -0.708027,-1.5875 -1.5875,-1.5875 z"
     sodipodi:nodetypes="ssccssccccccssssss" />
</svg>
