<?xml version="1.0" encoding="UTF-8" standalone="no"?>
<!-- Created with Inkscape (http://www.inkscape.org/) -->

<svg
   width="128"
   height="128"
   viewBox="0 0 33.866666 33.866668"
   version="1.1"
   id="svg1099"
   inkscape:version="1.2 (dc2aedaf03, 2022-05-15)"
   sodipodi:docname="kate.svg"
   xmlns:inkscape="http://www.inkscape.org/namespaces/inkscape"
   xmlns:sodipodi="http://sodipodi.sourceforge.net/DTD/sodipodi-0.dtd"
   xmlns="http://www.w3.org/2000/svg"
   xmlns:svg="http://www.w3.org/2000/svg">
  <sodipodi:namedview
     id="namedview1101"
     pagecolor="#ffffff"
     bordercolor="#666666"
     borderopacity="1.0"
     inkscape:pageshadow="2"
     inkscape:pageopacity="0.0"
     inkscape:pagecheckerboard="0"
     inkscape:document-units="px"
     showgrid="false"
     units="px"
     inkscape:zoom="1"
     inkscape:cx="47.5"
     inkscape:cy="61"
     inkscape:window-width="1920"
     inkscape:window-height="1016"
     inkscape:window-x="0"
     inkscape:window-y="0"
     inkscape:window-maximized="1"
     inkscape:current-layer="svg1099"
     inkscape:showpageshadow="2"
     inkscape:deskcolor="#d1d1d1" />
  <defs
     id="defs1096" />
  <rect
     style="opacity:1;fill:#25688c;fill-opacity:1;stroke-width:0.529166"
     id="rect1196"
     width="31.75"
     height="32.543751"
     x="1.0583334"
     y="1.0583334"
     ry="15.875" />
  <circle
     style="opacity:1;fill:#3daee9;fill-opacity:1;stroke-width:0.536019"
     id="path6320"
     cx="16.933334"
     cy="16.933332"
     r="15.610416" />
  <path
     d="m 15.860529,6.8837982 c -1.56086,0.05114 -3.322686,0.531168 -5.034318,1.758032 -1.7769956,1.2737219 -2.5559096,1.5165578 -3.4178776,1.9399338 0.762432,0.05756 5.2947216,-0.47436 6.1556956,2.131136 -3.088448,1.060878 -4.3214296,2.740788 -3.9573816,4.691186 0.0154,0.09644 0.035,0.1938 0.05892,0.292488 0.005,0.0186 0.0104,0.03714 0.0154,0.05582 0.07122,0.27665 0.16686,0.560098 0.307992,0.853694 0.2412516,0.501876 0.5166456,0.91486 0.8206216,1.272274 9.52e-4,0.0011 0.0022,0.002 0.0032,0.0032 1.4629,1.717276 3.611042,2.050272 6.08645,3.688664 2.335506,1.545788 3.110762,2.333491 4.617784,4.476193 -0.31338,-2.960629 -1.963778,-6.776303 -2.64066,-8.457453 l -0.04548,-0.13952 c 2.126328,1.467514 4.649764,2.021652 7.627442,2.232422 -4.72742,-3.329756 -5.624316,-3.802152 -8.33024,-6.084384 -1.815384,0.09054 -1.616646,0.07464 -2.687174,0.1354 0.384756,0.634632 0.791558,1.19542 1.215428,1.70429 0.582736,1.633782 0.382104,3.294226 -1.508952,3.683496 -2.411916,0.49647 -5.1487716,-1.563936 -4.487582,-3.770328 0.71798,-2.395886 3.912144,-1.93464 7.163388,-2.350244 3.251244,-0.415604 6.222046,-3.57136 8.008814,-5.9066158 -2.584326,0.8724819 -5.761414,1.6880418 -9.385474,2.7440198 -0.676258,-1.343462 -1.469102,-3.6364398 2.379182,-4.0762378 0.265462,-0.03018 0.552882,-0.05138 0.862996,-0.06304 -0.907482,-0.487218 -2.267328,-0.865552 -3.82819,-0.814422 z"
     style="opacity:0.2;fill:#000000;stroke-width:0.529166"
     id="path2109" />
  <path
     id="path8"
     style="fill:#cccccc;fill-opacity:1;stroke-width:0.529166"
     d="m 16.148885,6.7737501 c -1.44761,-0.0126 -3.188302,0.574818 -5.32784,2.108398 -1.7769976,1.2737199 -2.5507436,1.0111616 -3.4127116,1.4345379 0.76798,0.05798 5.3623196,-0.4837163 6.1753336,2.186946 0.422746,-0.12974 1.890058,-0.53283 2.819466,-0.79995 -0.730836,-1.409352 -2.904096,-4.1469499 2.057756,-4.3335859 -0.680612,-0.365414 -1.44344,-0.588734 -2.312004,-0.596346 z"
     sodipodi:nodetypes="scccccs" />
  <path
     d="m 25.831685,8.8285961 c -1.786766,2.3352559 -4.757452,5.4903479 -8.008694,5.9059539 -3.251244,0.415604 -6.444926,-0.0448 -7.162906,2.351076 -0.6611916,2.20639 2.07582,4.26639 4.487734,3.769906 2.576682,-0.530406 2.02021,-3.420146 0.610868,-5.387984 1.070528,-0.06074 0.12326,0.309008 1.93864,0.218466 l 1.179158,3.638008 c 0.67688,1.681152 2.327432,5.496692 2.640816,8.457233 -1.507022,-2.142701 -2.28214,-2.930139 -4.617666,-4.475949 -2.991658,-1.98008 -5.508708,-2.047112 -6.9110416,-4.96438 -1.399308,-2.910964 0.7584136,-5.007842 4.0727376,-5.915936 4.736412,-1.29774 8.60606,-2.5281123 11.770354,-3.5963939 z"
     style="fill:#f2f2f2;fill-opacity:1;stroke-width:0.529166"
     id="path1289" />
  <path
     d="m 18.128091,15.3324 c -1.815384,0.09054 -1.616646,0.07464 -2.687174,0.1354 2.670078,4.404118 6.265724,5.612652 11.017416,5.94899 -4.72742,-3.329754 -5.624316,-3.802152 -8.330242,-6.084384 z"
     style="fill:#cccccc;fill-opacity:1;stroke-width:0.529166"
     id="path1856" />
  <path
     id="path14"
     style="fill:#e6e6e6;fill-opacity:1;stroke-width:0.529166"
     d="m 16.150951,6.6145861 c -1.63067,-0.0013 -3.50613,0.458624 -5.32474,1.762166 C 9.0492154,9.6504741 8.2703014,9.8933097 7.4083334,10.316686 11.088761,9.5061201 12.051231,8.6772261 15.347899,9.3648061 c 0.0184,-0.766876 -0.62103,-1.74503 4.34082,-1.931664 -0.850764,-0.456768 -2.09894,-0.81744 -3.537768,-0.818556 z"
     sodipodi:nodetypes="sccccs" />
  <path
     d="m 19.688825,7.4327101 c -4.96185,0.18664 -4.01658,2.8613959 -3.285746,4.2707459 -0.579018,0.16642 -0.82497,0.356002 -1.599002,0.558698 -3.123132,-5.5063139 2.33572,-6.2226519 4.884748,-4.8294439 z"
     style="fill:#f2f2f2;fill-opacity:1;stroke-width:0.529166"
     id="path1169" />
  <path
     d="M 25.832013,8.8284061 C 22.667719,9.8966857 18.653831,10.85654 13.961937,12.310364 9.3475494,13.74017 8.5025294,16.45298 10.676349,19.439644 6.8645854,14.12691 17.434979,11.994178 25.832013,8.8284061 Z M 10.676349,19.439644 c 0.06456,0.08998 0.13278,0.18102 0.205674,0.27285 -0.07154,-0.09116 -0.13968,-0.18216 -0.205674,-0.27285 z"
     style="fill:#e6e6e6;fill-opacity:1;stroke-width:0.529166"
     id="path1561" />
</svg>
