<?xml version="1.0" encoding="UTF-8" standalone="no"?>
<!-- Created with Inkscape (http://www.inkscape.org/) -->

<svg
   width="128"
   height="128"
   viewBox="0 0 33.866666 33.866668"
   version="1.1"
   id="svg1099"
   inkscape:version="1.2 (dc2aedaf03, 2022-05-15)"
   sodipodi:docname="kleopatra.svg"
   xmlns:inkscape="http://www.inkscape.org/namespaces/inkscape"
   xmlns:sodipodi="http://sodipodi.sourceforge.net/DTD/sodipodi-0.dtd"
   xmlns="http://www.w3.org/2000/svg"
   xmlns:svg="http://www.w3.org/2000/svg">
  <sodipodi:namedview
     id="namedview1101"
     pagecolor="#ffffff"
     bordercolor="#666666"
     borderopacity="1.0"
     inkscape:pageshadow="2"
     inkscape:pageopacity="0.0"
     inkscape:pagecheckerboard="0"
     inkscape:document-units="px"
     showgrid="false"
     units="px"
     inkscape:zoom="3.1953125"
     inkscape:cx="13.144254"
     inkscape:cy="118.92421"
     inkscape:window-width="1846"
     inkscape:window-height="1011"
     inkscape:window-x="0"
     inkscape:window-y="0"
     inkscape:window-maximized="1"
     inkscape:current-layer="svg1099"
     inkscape:showpageshadow="2"
     inkscape:deskcolor="#d1d1d1"
     showguides="false" />
  <defs
     id="defs1096" />
  <rect
     style="opacity:1;fill:#d3b165;fill-opacity:1;stroke-width:1.05833;stroke-linecap:round"
     id="rect934"
     width="27.516666"
     height="27.516666"
     x="3.175"
     y="3.175"
     ry="2.2489583" />
  <path
     id="rect2485"
     style="opacity:0.5;fill:#000000;fill-opacity:1;stroke-width:0.529166"
     d="m 5.4239584,3.1750001 c -1.2459217,0 -2.2489583,1.0030366 -2.2489583,2.2489583 V 28.442709 c 0,1.245922 1.0030366,2.248958 2.2489583,2.248958 H 28.442709 c 1.245922,0 2.248958,-1.003036 2.248958,-2.248958 V 5.4239584 c 0,-1.2459217 -1.003036,-2.2489583 -2.248958,-2.2489583 z M 5.5562501,3.4395834 H 28.310417 c 1.172633,0 2.116667,0.9440345 2.116667,2.1166667 V 27.516667 c 0,1.172633 -0.944034,2.116667 -2.116667,2.116667 H 5.5562501 c -1.1726322,0 -2.1166667,-0.944034 -2.1166667,-2.116667 V 5.5562501 c 0,-1.1726322 0.9440345,-2.1166667 2.1166667,-2.1166667 z" />
  <path
     d="m 15.669718,11.641671 c -1.19931,0 -2.462099,0.330242 -3.760301,0.981002 -1.056704,0.5297 -1.508674,0.965336 -1.258808,1.21664 0.08814,0.08866 0.02796,0.10756 1.508088,-0.472518 1.01153,-0.396428 2.255591,-0.730352 2.928125,-0.78753 1.038448,-0.08828 2.275246,0.1224 4.464737,0.926434 0.78625,0.28873 1.690442,0.528342 2.00913,0.61018 0.681578,0.175021 0.752564,0.148121 1.32082,0.150061 l 0.401824,0.0012 v -0.280287 c 0,-0.391588 -0.0471,-0.42911 -0.53825,-0.42911 -1.094898,0 -1.36703,-0.11412 -3.014934,-0.8483 -1.765055,-0.786384 -2.835163,-1.067816 -4.060431,-1.067816 z m -1.056656,2.543661 c -0.18642,0.007 -0.353582,0.02532 -0.4874,0.05334 -0.617193,0.12914 -1.442619,0.599024 -1.949603,1.075256 -0.785846,0.738178 -1.673198,2.11754 -1.58622,2.465528 0.03916,0.1567 0.07898,0.16656 0.771406,0.19596 0.401968,0.017 1.189894,0.11036 1.806978,0.205874 l 0.977283,0.17238 v 0.48616 c -0.193561,0.890541 -0.05428,1.372271 -0.0198,1.696601 0.12898,1.17382 0.1305,1.301316 0.42911,1.258808 0.461304,-0.761768 0.513828,-2.223838 0.51717,-3.065787 l 0.471278,0.463836 c 0.476792,0.427201 0.82234,0.655193 1.119904,0.809855 1.299434,0.675392 2.763595,1.186588 4.173289,1.096342 0.543196,0 1.22946,-0.61257 1.229042,-1.319578 -2.22e-4,-0.545164 -0.15084,-0.839345 -0.518404,-1.014489 -0.675718,-0.321982 -1.424996,0.06054 -1.424996,0.775129 0,0.701356 0.664728,1.089518 1.106264,0.646146 0.18418,-0.18494 0.230012,-0.494524 0.09922,-0.682112 -0.05806,-0.08326 -0.06352,-0.0706 -0.02728,0.0583 0.12508,0.444796 -0.21669,0.753098 -0.608942,0.549412 -0.409938,-0.212868 -0.331614,-0.896885 0.11534,-1.009529 0.22077,-0.05564 0.60681,0.139841 0.751566,0.436553 0.078,0.1599 0.08052,0.255878 0.0136,0.47996 -0.219376,0.735128 -1.487448,0.605812 -2.966611,-0.0162 -0.965902,-0.406084 -2.044838,-0.961461 -2.574602,-1.417487 -0.365766,-0.322736 -0.14286,-0.250518 0.811094,-0.406786 0.27426,-0.04492 1.267926,-0.27897 1.973164,-0.519646 1.252893,-0.427574 1.299285,-0.691466 2.064941,-0.696996 0.430984,-0.0032 -0.284688,-0.03002 0.43035,0.0013 l 1.338186,0.05578 v -0.644906 -0.897908 l -1.551496,-0.03968 c -2.164305,-0.05708 -1.10841,0.247744 -3.342351,-0.618862 -0.42657,-0.16548 -0.881172,-0.364428 -1.179436,-0.442754 -0.528936,-0.1389 -1.402744,-0.210597 -1.962004,-0.18976 z m 2.53498,1.129826 c 0.02594,0 0.395632,0.209054 0.990922,0.465076 0.595294,0.256024 1.158795,0.483598 1.252609,0.507244 0.09382,0.02364 0.17114,0.0689 0.17114,0.09922 0,0.03032 -0.361636,0.235382 -0.802415,0.455156 -0.89888,0.44819 -1.432022,0.636332 -2.30057,0.679632 l -0.214556,0.0086 0.231918,-0.18356 c 0.12736,-0.1008 0.32015,-0.333162 0.42787,-0.517174 0.1709,-0.291934 0.19596,-0.410238 0.19596,-0.925192 0,-0.32458 0.0212,-0.589098 0.04712,-0.589096 z m -3.879361,0.15378 c 0.10676,-0.0203 0.10566,0.14658 0.10666,0.478718 0.002,0.653628 0.15838,1.009282 0.6077,1.384068 l 0.295169,0.24556 -1.380349,-0.12898 c -0.73378,-0.07028 -1.304642,-0.14248 -1.324538,-0.16246 -0.07132,-0.07162 0.322314,-0.619626 0.899148,-1.175714 0.429496,-0.414048 0.68945,-0.620872 0.796212,-0.641184 z"
     style="fill:#482f00;stroke-width:0.634984"
     id="path304" />
</svg>
