<?xml version="1.0" encoding="UTF-8" standalone="no"?>
<!-- Created with Inkscape (http://www.inkscape.org/) -->

<svg
   width="128"
   height="128"
   viewBox="0 0 33.866666 33.866668"
   version="1.1"
   id="svg1099"
   inkscape:version="1.2 (dc2aedaf03, 2022-05-15)"
   sodipodi:docname="lastfm.svg"
   xmlns:inkscape="http://www.inkscape.org/namespaces/inkscape"
   xmlns:sodipodi="http://sodipodi.sourceforge.net/DTD/sodipodi-0.dtd"
   xmlns="http://www.w3.org/2000/svg"
   xmlns:svg="http://www.w3.org/2000/svg">
  <sodipodi:namedview
     id="namedview1101"
     pagecolor="#ffffff"
     bordercolor="#666666"
     borderopacity="1.0"
     inkscape:pageshadow="2"
     inkscape:pageopacity="0.0"
     inkscape:pagecheckerboard="0"
     inkscape:document-units="px"
     showgrid="false"
     units="px"
     inkscape:zoom="1.6473335"
     inkscape:cx="-2.1246457"
     inkscape:cy="0.30352081"
     inkscape:window-width="1846"
     inkscape:window-height="1011"
     inkscape:window-x="0"
     inkscape:window-y="0"
     inkscape:window-maximized="1"
     inkscape:current-layer="svg1099"
     inkscape:showpageshadow="2"
     inkscape:deskcolor="#d1d1d1" />
  <defs
     id="defs1096" />
  <rect
     style="opacity:1;fill:#cf3b00;fill-opacity:1;stroke-width:0.529166"
     id="rect1196"
     width="31.75"
     height="32.543751"
     x="1.0583334"
     y="1.0583334"
     ry="15.875" />
  <path
     d="m 16.933334,1.0583333 c -8.7947505,0 -15.8750007,7.0802501 -15.8750007,15.8750007 v 0.79375 c 0,8.79475 7.0802502,15.875 15.8750007,15.875 8.79475,0 15.875,-7.08025 15.875,-15.875 v -0.79375 c 0,-8.7947506 -7.08025,-15.8750007 -15.875,-15.8750007 z m 0,0.2645833 c 8.648171,0 15.610417,6.962246 15.610417,15.6104174 0,8.648171 -6.962246,15.610417 -15.610417,15.610417 -8.6481713,0 -15.6104174,-6.962246 -15.6104174,-15.610417 0,-8.6481714 6.9622461,-15.6104174 15.6104174,-15.6104174 z"
     style="opacity:0.5;fill:#000000;fill-opacity:1;stroke-width:0.264583"
     id="path29047" />
  <path
     d="m 12.75684,22.174908 c -0.338799,-0.04656 -0.941458,-0.245519 -1.343454,-0.442063 -2.6191516,-1.274654 -3.6902659,-4.484997 -2.4002359,-7.189141 1.4737579,-3.091915 5.4950039,-3.880058 7.9147889,-1.551198 0.699743,0.672359 1.010522,1.246082 2.064049,3.790098 1.099782,2.660432 1.303058,3.078688 1.659445,3.433331 0.3818,0.37728 0.735579,0.504299 1.412518,0.504299 1.112162,0 1.906377,-0.698183 1.906377,-1.672377 0,-0.824547 -0.28536,-1.088598 -1.740889,-1.613426 -2.216505,-0.812058 -2.934492,-1.545905 -2.9371,-3.019739 0,-0.786235 0.19612,-1.310426 0.694531,-1.853669 0.715383,-0.775651 1.949381,-1.031767 3.041343,-0.646639 0.465848,0.16816 1.440534,1.044362 1.440534,1.295186 0,0.12172 -0.564875,0.493711 -0.878262,0.581659 -0.16548,0.0434 -0.30816,-0.0128 -0.499072,-0.19916 -0.386999,-0.377199 -0.648923,-0.493711 -1.112162,-0.493711 -0.799427,0 -1.295242,0.488419 -1.295242,1.277302 0,0.786235 0.31532,1.05219 1.890741,1.592258 2.170897,0.744539 2.812004,1.416893 2.825036,2.972747 0.0132,1.344186 -0.583123,2.313725 -1.768905,2.887448 -0.539468,0.258759 -0.722547,0.291879 -1.603418,0.291879 -1.25745,0 -1.822329,-0.237599 -2.527284,-1.044362 -0.473663,-0.542603 -0.954491,-1.561142 -2.494056,-5.279168 -0.638499,-1.540614 -1.458126,-2.295733 -2.825037,-2.592912 -0.692575,-0.15016 -1.656841,-0.0104 -2.285568,0.325639 -0.613091,0.32564 -1.297846,1.060239 -1.621006,1.731962 -0.267119,0.545251 -0.2925194,0.698179 -0.2925194,1.646549 0,0.904663 0.036,1.119083 0.2593194,1.615442 0.3388,0.757763 1.005311,1.45785 1.738282,1.835145 0.529695,0.27136 0.69453,0.305119 1.539565,0.305119 0.811807,0 1.020295,-0.0392 1.504383,-0.273999 0.552499,-0.274 1.295246,-0.946359 1.598205,-1.450018 l 0.15768,-0.261399 0.31076,0.721358 c 0.173319,0.39836 0.312719,0.773007 0.312719,0.840423 0,0.19928 -0.702351,0.850475 -1.346062,1.256134 -0.977298,0.612879 -2.099881,0.842431 -3.2987,0.677015"
     style="fill:#ffffff;stroke-width:1.05833"
     id="path16950" />
</svg>
