<?xml version="1.0" encoding="UTF-8" standalone="no"?>
<!-- Created with Inkscape (http://www.inkscape.org/) -->

<svg
   width="128"
   height="128"
   viewBox="0 0 33.866666 33.866666"
   version="1.1"
   id="svg5"
   inkscape:version="1.2 (dc2aedaf03, 2022-05-15)"
   sodipodi:docname="libreoffice-math.svg"
   xmlns:inkscape="http://www.inkscape.org/namespaces/inkscape"
   xmlns:sodipodi="http://sodipodi.sourceforge.net/DTD/sodipodi-0.dtd"
   xmlns="http://www.w3.org/2000/svg"
   xmlns:svg="http://www.w3.org/2000/svg">
  <sodipodi:namedview
     id="namedview7"
     pagecolor="#ffffff"
     bordercolor="#666666"
     borderopacity="1.0"
     inkscape:pageshadow="2"
     inkscape:pageopacity="0.0"
     inkscape:pagecheckerboard="0"
     inkscape:document-units="px"
     showgrid="false"
     units="px"
     height="48px"
     inkscape:zoom="6.359375"
     inkscape:cx="64.235872"
     inkscape:cy="64"
     inkscape:window-width="1920"
     inkscape:window-height="1011"
     inkscape:window-x="0"
     inkscape:window-y="0"
     inkscape:window-maximized="1"
     inkscape:current-layer="svg5"
     inkscape:showpageshadow="2"
     inkscape:deskcolor="#d1d1d1"
     showguides="false" />
  <defs
     id="defs2" />
  <rect
     style="opacity:1;fill:#212121;fill-opacity:1;stroke-width:0.529167"
     id="rect479"
     width="23.8125"
     height="30.956249"
     x="5.0270834"
     y="1.8520833"
     ry="2.2489583" />
  <rect
     style="opacity:1;fill:#424242;fill-opacity:1;stroke-width:0.529167"
     id="rect3992"
     width="23.283333"
     height="29.633333"
     x="5.2916665"
     y="2.1166666"
     ry="2.1166666" />
  <path
     id="path1266"
     style="fill:#ffffff;stroke-width:0.529166"
     d="m 15.832005,18.520832 -2.199349,6.151563 -0.104386,0.457852 H 13.4952 l -0.09922,-0.457852 -0.898136,-2.447396 h -1.808678 v 0.859896 h 1.03663 l 1.367358,3.461286 h 0.820622 l 2.62723,-6.967016 h 7.377327 v -1.058333 z m 1.670183,2.061889 v 0.6997 l 0.590144,0.12712 1.741496,2.121834 -1.779736,2.194182 -0.661458,0.1261 v 0.69453 h 2.436027 v -0.69453 l -0.644922,-0.05994 1.26814,-1.5937 1.30638,1.5937 -0.71727,0.05994 v 0.69453 h 2.530078 v -0.69453 l -0.617016,-0.1261 -1.857252,-2.210718 1.614372,-2.105298 0.606682,-0.12712 v -0.6997 h -2.298568 v 0.6997 l 0.639754,0.06098 -1.190624,1.526522 -1.223698,-1.521354 0.595312,-0.06614 v -0.6997 z"
     sodipodi:nodetypes="cccccccccccccccccccccccccccccccccccccccccccc" />
  <path
     d="m 18.785416,2.1166667 h 7.672916 c 1.172634,0 2.116667,0.9440329 2.116667,2.1166669 V 11.90625 Z"
     style="opacity:0.5;fill:#212121;fill-opacity:1;stroke-width:0.264583"
     id="path967"
     sodipodi:nodetypes="csscc" />
  <path
     d="m 20.108332,2.1166666 h 6.35 c 1.172633,0 2.116667,0.944034 2.116667,2.116668 v 6.3499994"
     style="fill:#6d6d6d;stroke-width:0.264583;fill-opacity:1"
     id="path995" />
</svg>
