<?xml version="1.0" encoding="UTF-8" standalone="no"?>
<!-- Created with Inkscape (http://www.inkscape.org/) -->

<svg
   width="128"
   height="128"
   viewBox="0 0 33.866666 33.866666"
   version="1.1"
   id="svg5"
   inkscape:version="1.2 (dc2aedaf03, 2022-05-15)"
   sodipodi:docname="libreoffice-draw.svg"
   xmlns:inkscape="http://www.inkscape.org/namespaces/inkscape"
   xmlns:sodipodi="http://sodipodi.sourceforge.net/DTD/sodipodi-0.dtd"
   xmlns="http://www.w3.org/2000/svg"
   xmlns:svg="http://www.w3.org/2000/svg">
  <sodipodi:namedview
     id="namedview7"
     pagecolor="#ffffff"
     bordercolor="#666666"
     borderopacity="1.0"
     inkscape:pageshadow="2"
     inkscape:pageopacity="0.0"
     inkscape:pagecheckerboard="0"
     inkscape:document-units="px"
     showgrid="false"
     units="px"
     height="48px"
     inkscape:zoom="4.4967572"
     inkscape:cx="48.256997"
     inkscape:cy="49.813675"
     inkscape:window-width="1920"
     inkscape:window-height="1011"
     inkscape:window-x="0"
     inkscape:window-y="0"
     inkscape:window-maximized="1"
     inkscape:current-layer="svg5"
     inkscape:showpageshadow="2"
     inkscape:deskcolor="#d1d1d1"
     showguides="false" />
  <defs
     id="defs2" />
  <rect
     style="opacity:1;fill:#7f6728;fill-opacity:1;stroke-width:0.529167"
     id="rect479"
     width="23.8125"
     height="30.956249"
     x="5.0270834"
     y="1.8520833"
     ry="2.2489583" />
  <rect
     style="opacity:1;fill:#ffce51;fill-opacity:1;stroke-width:0.529167"
     id="rect3992"
     width="23.283333"
     height="29.633333"
     x="5.2916665"
     y="2.1166666"
     ry="2.1166666" />
  <path
     d="m 18.25625,15.875 v 4.233333 h 6.349999 V 15.875 Z m -4.7625,2.116666 c -2.338006,0 -4.2333335,1.895328 -4.2333335,4.233333 0,2.338006 1.8953275,4.233334 4.2333335,4.233334 2.338005,0 4.233333,-1.895328 4.233333,-4.233334 0,-2.338005 -1.895328,-4.233333 -4.233333,-4.233333 z m 11.112499,4.233333 -6.349999,6.35 h 6.349999 z"
     id="path9665"
     style="fill:#ffffff;stroke-width:0.264583" />
  <path
     d="m 18.785416,2.1166667 h 7.672916 c 1.172634,0 2.116667,0.9440329 2.116667,2.1166669 V 11.90625 Z"
     style="opacity:0.5;fill:#7f6728;fill-opacity:1;stroke-width:0.264583"
     id="path967"
     sodipodi:nodetypes="csscc" />
  <path
     d="m 20.108332,2.1166666 h 6.35 c 1.172633,0 2.116667,0.944034 2.116667,2.116668 v 6.3499994"
     style="fill:#fffa7d;stroke-width:0.264583;fill-opacity:1"
     id="path995" />
</svg>
