<?xml version="1.0" encoding="UTF-8" standalone="no"?>
<!-- Created with Inkscape (http://www.inkscape.org/) -->

<svg
   width="128"
   height="128"
   viewBox="0 0 33.866666 33.866668"
   version="1.1"
   id="svg1099"
   inkscape:version="1.2 (dc2aedaf03, 2022-05-15)"
   sodipodi:docname="lutris.svg"
   xmlns:inkscape="http://www.inkscape.org/namespaces/inkscape"
   xmlns:sodipodi="http://sodipodi.sourceforge.net/DTD/sodipodi-0.dtd"
   xmlns="http://www.w3.org/2000/svg"
   xmlns:svg="http://www.w3.org/2000/svg">
  <sodipodi:namedview
     id="namedview1101"
     pagecolor="#ffffff"
     bordercolor="#666666"
     borderopacity="1.0"
     inkscape:pageshadow="2"
     inkscape:pageopacity="0.0"
     inkscape:pagecheckerboard="0"
     inkscape:document-units="px"
     showgrid="false"
     units="px"
     inkscape:zoom="6.15625"
     inkscape:cx="64"
     inkscape:cy="64"
     inkscape:window-width="1846"
     inkscape:window-height="1011"
     inkscape:window-x="0"
     inkscape:window-y="0"
     inkscape:window-maximized="1"
     inkscape:current-layer="svg1099"
     inkscape:showpageshadow="2"
     inkscape:deskcolor="#d1d1d1" />
  <defs
     id="defs1096" />
  <rect
     style="fill:#7d520d;fill-opacity:1;stroke-width:0.673485"
     id="rect1040"
     width="22.225"
     height="23.018751"
     x="7.6729331"
     y="7.6729169"
     ry="11.1125" />
  <circle
     style="fill:#faa41a;fill-opacity:1;stroke-width:0.516567"
     id="path1188"
     cx="18.785477"
     cy="18.78546"
     r="10.847917" />
  <path
     id="path14252"
     style="color:#000000;fill:#4a342b;fill-opacity:1;stroke:none"
     d="m 16.421753,1.3229167 -0.02532,0.00413 C 8.1677467,1.3369389 1.3200795,8.2021261 1.3229333,16.66875 v 0.79375 c -0.011903,8.573534 6.3799086,15.643455 14.7220987,15.868799 4.060742,0.109615 7.256978,-1.460196 10.025228,-4.066419 l 0.0041,-0.0036 c 0.292442,-0.244345 0.460954,-0.40411 0.460954,-0.40411 l 0.0036,-0.0041 0.0062,-0.0041 c 0,0 0.75499,-0.792159 1.529105,-1.909961 0.774116,-1.117802 1.582642,-2.561567 1.668116,-3.941361 l 0.09973,-1.499651 -0.06201,0.142111 0.02739,-0.409794 h -0.195854 l -0.359668,0.821138 c -0.760421,1.256274 -1.403818,2.432933 -3.226676,3.330029 -0.855809,0.396302 -1.635057,0.730693 -2.415873,0.994255 -0.0018,6.22e-4 -0.0038,0.0014 -0.0057,0.0021 -0.04221,0.01054 -0.08574,0.02016 -0.131258,0.03101 -0.370064,0.08833 -0.759146,0.163088 -1.16582,0.219108 -0.0463,0.0064 -0.09575,0.01251 -0.148312,0.01912 -0.424209,0.0538 -0.863166,0.09252 -1.314648,0.111621 -0.03736,0.0016 -0.08469,1.39e-4 -0.14056,0.0021 -0.446588,0.01537 -0.904509,0.01421 -1.368909,-0.0041 -0.04353,-0.0017 -0.07284,-0.0013 -0.08992,-0.0021 -0.230868,-0.01024 -0.311926,-0.02154 -0.410311,-0.04082 -0.09799,-0.0192 -0.222625,-0.04873 -0.472839,-0.07803 h -0.0015 c -0.07553,-0.0089 -0.14485,-0.014 -0.205156,-0.0217 -0.466536,-0.05929 -0.933002,-0.137446 -1.398364,-0.230477 -0.07603,-0.0152 -0.150945,-0.03086 -0.224792,-0.04651 -0.454238,-0.0964 -0.903988,-0.209143 -1.345655,-0.337964 -0.142104,-0.04144 -0.284674,-0.08477 -0.423747,-0.129191 -0.109164,-0.03488 -0.214072,-0.0669 -0.314709,-0.101286 -0.146115,-0.0499 -0.292127,-0.104312 -0.441317,-0.160197 -0.122975,-0.04607 -0.24207,-0.09119 -0.355534,-0.136943 -0.131944,-0.05322 -0.263936,-0.111641 -0.400492,-0.171565 -0.117879,-0.05171 -0.233366,-0.09957 -0.337964,-0.148828 -0.24039,-0.113288 -0.474798,-0.231487 -0.700732,-0.355534 v 0.0021 c -0.178275,-0.09861 -0.34688,-0.203006 -0.50798,-0.310576 -0.36728,-0.24524 -0.688799,-0.515276 -0.978234,-0.800468 v -0.0021 C 9.6981748,22.635723 9.4132829,21.473874 9.362236,20.457149 c 0.00682,-0.162239 0.016406,-0.318244 0.026355,-0.465605 0.022579,-0.33339 0.1094792,-0.773017 0.2821533,-1.271757 0.267911,-1.586965 1.4457167,-4.387256 5.1562747,-5.953125 2.579157,-0.909608 5.592282,-1.527135 8.054805,-0.734322 l 0.02325,0.0057 c 1.879787,0.424132 3.249836,1.199573 5.095813,1.853633 0.02092,0.01128 0.04257,0.02564 0.06666,0.03514 0.08178,0.03233 0.209971,0.07231 0.468706,0.136426 l 0.02119,0.0041 c 1.85366,0.293596 2.913716,-0.402934 3.435966,-1.18494 0.08724,-0.473544 0.03204,-0.843877 0.03204,-0.843877 l -0.0041,-0.03307 -0.0098,-0.0248 c 0.06127,-0.420717 0.01395,-0.735873 0.01395,-0.735873 l -0.0041,-0.03307 -0.12299,-0.304375 0.08992,-0.09353 -0.03876,-0.144177 c 0,0 -0.05397,-0.215191 -0.102319,-0.483691 0.02076,-0.03378 0.03772,-0.05839 0.03772,-0.05839 l 0.103353,-0.107487 -0.03876,-0.1441773 c 0,0 -0.114214,-0.4527385 -0.159163,-0.8671308 C 31.7919,8.853512 31.7889,8.6873808 31.7811,8.5090398 31.80919,7.9669212 31.7745,7.2958129 31.664234,6.3717082 31.600194,5.8347542 31.396133,5.3526161 31.181576,4.9810914 30.967018,4.6095668 30.776043,4.3657457 30.591948,4.2312664 30.394841,4.08787 29.404761,3.3346408 28.419988,2.9481406 27.47315,2.5767512 26.473086,2.290029 25.253773,2.4618653 c -0.110374,0.015599 -0.214187,0.030585 -0.318327,0.046509 -0.0061,-0.00196 -0.004,-0.00145 -0.01137,-0.00362 -0.02692,-0.008 -0.100383,-0.058991 -0.181901,-0.1565796 C 24.660656,2.2505884 24.572236,2.1156883 24.48276,1.9771404 24.39328,1.8385924 24.303207,1.6974451 24.195439,1.5750977 24.08767,1.4527505 23.945436,1.3197439 23.726734,1.3249838 c -0.03836,9.245e-4 -0.0735,0.00439 -0.10542,0.00775 -0.02281,0.00239 -0.0504,0.00575 -0.07648,0.00982 -0.0026,4.105e-4 -0.0052,-4.337e-4 -0.0078,0 l -0.02325,0.00362 h -0.0021 c -0.04039,0.00752 -0.07463,0.018481 -0.107487,0.027389 -0.04783,0.012982 -0.09319,0.028982 -0.136426,0.049093 -0.110199,0.051228 -0.156106,0.1246118 -0.193786,0.1891357 -0.03768,0.064524 -0.06438,0.1309829 -0.0894,0.2030884 -0.05006,0.1442112 -0.08957,0.3099068 -0.125057,0.4785238 -0.03549,0.1686167 -0.06554,0.3376607 -0.09198,0.4785237 -0.0014,0.00772 -0.0027,0.00842 -0.0041,0.01602 -1.812006,-0.8655485 -3.804905,-1.402154 -5.92725,-1.4593462 -0.129496,-0.0035 -0.260057,-0.00556 -0.390673,-0.00568 z M 28.334722,13.735596 c 0.0042,0.0012 0.01214,0.0034 0.01654,0.0047 -0.0015,0.0075 -0.0047,0.02429 -0.0047,0.02429 z"
     sodipodi:nodetypes="ccccccccccsccccccccccccccccscccsccccscccccsccccccccccccccccccccccccccccscccccsssccccccccscsccccccccc" />
  <path
     id="path14258"
     style="color:#000000;fill:#696463;fill-opacity:1;stroke-width:0.529167;stroke-linecap:round;stroke-linejoin:bevel"
     d="m 22.921098,5.7236818 c -1.657696,-0.00202 -3.417837,0.4757658 -4.705139,0.9234578 -2.420906,0.8566711 -3.963193,1.5654733 -5.935555,2.9750123 v 0.00155 C 11.759375,10.002045 9.6907243,11.510816 8.417074,13.657047 l -0.00413,0.0062 c -3.4831943,6.158244 -1.0452765,12.774772 3.56464,14.298869 0.0014,4.58e-4 0.0022,0.0011 0.0036,0.0016 2.453323,0.916341 5.137828,1.482378 7.834147,1.158585 2.67775,-0.321562 5.359474,-1.545181 7.794873,-4.12688 8.2e-5,-5.5e-5 0.01757,-0.0098 0.01757,-0.0098 l -0.0021,-0.0021 c 0.01516,-0.01611 0.03189,-0.02099 0.04702,-0.03721 l -0.341581,-0.400493 c 0,0 -1.318934,0.890321 -3.156396,1.628842 -0.0011,3.95e-4 -0.003,-3.94e-4 -0.0041,0 -0.0014,5.47e-4 -1.42e-4,0.0015 -0.0016,0.0021 -1.584969,0.589031 -3.895682,0.670048 -6.144844,0.382922 -2.25156,-0.287432 -4.45006,-0.943929 -5.804814,-1.758032 l -0.0078,-0.0036 C 10.683799,23.952742 10.032801,22.941205 9.7472253,21.948014 9.4616498,20.954823 9.5581158,19.97095 9.6102829,19.198311 c 0.097001,-1.432292 1.1001271,-4.694426 5.2167361,-6.431649 2.579162,-0.90961 5.592276,-1.527137 8.054805,-0.734322 l 0.02325,0.0057 c 1.879792,0.424134 3.249831,1.199571 5.095813,1.853633 0.02092,0.01128 0.04257,0.02561 0.06666,0.03514 0.08178,0.03233 0.209971,0.07231 0.468706,0.136426 l 0.02119,0.0041 c 1.857476,0.2942 2.918474,-0.405625 3.439583,-1.189591 0.52111,-0.783965 0.546737,-1.634526 0.546737,-1.634526 l -0.0036,-0.05478 -0.101803,-0.572058 -0.0155,-0.05271 -0.310575,-0.7756633 -0.0041,-0.0077 -0.146245,-0.3322789 -0.0057,-0.011369 -0.0708,-0.142627 c 0,0 -0.579836,-0.3963373 -0.579809,-0.3963582 C 31.252111,9.5733223 31.06766,9.8023017 31.00074,9.9053677 29.830792,9.6223536 29.081278,9.0101114 28.301649,8.2744305 27.471006,7.4906114 26.574823,6.6018475 25.061536,6.0807659 24.404688,5.823491 23.672497,5.7245785 22.921098,5.7236818 Z m 5.413624,8.0119142 c 0.0042,0.0012 0.01213,0.0034 0.01654,0.0047 -0.0015,0.0075 -0.0047,0.02429 -0.0047,0.02429 z"
     sodipodi:nodetypes="ccccccscsccccccccsccsccccccccscccccccccccscccccc" />
  <path
     style="color:#000000;fill:#4a342b;fill-opacity:1;stroke:none"
     d="m 11.686475,9.6200522 c 0,0 -0.08266,0.012013 -0.109375,0.019531 -0.02671,0.00752 -0.06334,0.019987 -0.111328,0.035156 -0.09598,0.030338 -0.231781,0.075245 -0.394531,0.1406245 C 10.74574,9.9461257 10.311381,10.153305 9.8661623,10.461849 8.975725,11.078937 8.0352166,12.126393 7.92085,13.745052 v -0.01367 l -0.052734,0.449219 0.3125,-0.01563 c 1.0657923,-0.054 2.385025,0.18481 3.330078,0.847656 l 0.002,0.002 h 0.002 c 0.372825,0.251698 0.748908,0.588164 1.1875,0.828125 0.438592,0.239961 0.970652,0.372256 1.550781,0.166016 0.385308,-0.135828 0.663347,-0.362854 0.753907,-0.675782 0.0908,-0.313779 0.0055,-0.634862 -0.134766,-0.992187 v -0.002 -0.002 C 14.761403,14.06552 14.611079,13.685541 14.426709,13.321224 14.24234,12.956906 14.031508,12.605027 13.743116,12.375911 13.316101,12.037993 12.710981,11.978067 12.221631,11.830989 11.976956,11.75745 11.766513,11.667954 11.629834,11.559505 11.493156,11.451056 11.419165,11.340414 11.403272,11.13763 v -0.0059 -0.0059 c -0.04845,-0.388836 0.202256,-0.699334 0.494141,-1.080077 l 0.326171,-0.4257008 z"
     id="path15362"
     sodipodi:nodetypes="ccssscccccccscccccscsscccccc" />
  <path
     style="color:#000000;fill:#946857;stroke-width:0.529167;-inkscape-stroke:none"
     d="M 16.44675,1.5875061 C 8.4185474,1.5803061 1.8037445,8.1916334 1.5927031,16.531467 1.3780617,25.00368 7.8523816,32.051173 16.05262,32.272683 c 3.995023,0.10784 7.113769,-1.424564 9.849674,-4.00424 0.292128,-0.243732 0.451075,-0.395629 0.451075,-0.395629 0,0 2.966842,-3.113836 3.126065,-5.684163 -0.757027,1.250665 -1.451446,2.502887 -3.335866,3.430281 -0.864224,0.400322 -1.656357,0.74092 -2.454694,1.01005 -0.05112,0.013 -0.102441,0.02508 -0.154361,0.03746 -0.378134,0.09026 -0.774451,0.166062 -1.189882,0.223288 -0.05034,0.007 -0.10202,0.013 -0.152861,0.0194 -0.430854,0.05464 -0.875731,0.09444 -1.335246,0.113881 -0.0473,0.002 -0.09632,0.0014 -0.143861,0.003 -0.453329,0.0156 -0.916972,0.0142 -1.387697,-0.0044 -0.03072,-0.0012 -0.06064,-1.32e-4 -0.09142,-0.0015 -0.478694,-0.02124 -0.416573,-0.06464 -0.903071,-0.121381 -0.06943,-0.0082 -0.138831,-0.0136 -0.208305,-0.02248 -0.473573,-0.06018 -0.946957,-0.139681 -1.417667,-0.233782 -0.07605,-0.0152 -0.151949,-0.03038 -0.227786,-0.04646 -0.460633,-0.09776 -0.917134,-0.212483 -1.365218,-0.343176 -0.143665,-0.0419 -0.286791,-0.08508 -0.428598,-0.130381 -0.10717,-0.03424 -0.214726,-0.0672 -0.320698,-0.103401 -0.151441,-0.05172 -0.29938,-0.10764 -0.44808,-0.163341 -0.121281,-0.04544 -0.24341,-0.08978 -0.362659,-0.137861 -0.138187,-0.05574 -0.272433,-0.11602 -0.407616,-0.175341 -0.114567,-0.05026 -0.23096,-0.09852 -0.343179,-0.151361 -0.24432,-0.115041 -0.484481,-0.235369 -0.716324,-0.36266 -0.184511,-0.102061 -0.360111,-0.208928 -0.527505,-0.3207 C 11.172419,24.4511 10.836907,24.168186 10.536299,23.871572 8.9712838,22.27449 9.0439451,20.396618 9.1261236,19.17948 c 0.1035407,-1.528858 1.3853194,-4.883214 5.6032354,-6.659743 2.606079,-0.920174 5.671027,-1.563724 8.233267,-0.738807 1.927377,0.434873 3.313312,1.067219 5.146166,1.714389 0,0 -0.0148,0.0319 0.491539,0.157361 3.564523,0.564646 3.164404,-2.371867 3.164404,-2.371867 l -0.279389,-0.687239 v 0 c -0.0618,-0.362125 0.209437,-0.6477213 0.209437,-0.6477213 0,0 -0.219712,-0.8097454 -0.182681,-1.3448949 0.03754,-0.534902 0.0072,-1.2205499 -0.109401,-2.1984346 C 31.286063,5.4245295 30.644203,4.5969448 30.43611,4.4449346 30.22754,4.2931986 29.2557,3.5605459 28.324594,3.1951087 27.392918,2.8296665 26.451288,2.5595966 25.291443,2.723052 c -0.128781,0.0182 -0.250676,0.037902 -0.377645,0.056946 -0.02248,-0.00714 -0.04012,-0.01526 -0.06444,-0.022478 -0.442277,-0.1313469 -0.755135,-1.176602 -1.116452,-1.1679452 -0.02766,6.666e-4 -0.05562,0.00302 -0.08392,0.006 -0.02786,0.00292 -0.05676,0.00664 -0.08542,0.01198 h -0.0015 c -0.0292,0.00544 -0.05824,0.0128 -0.08842,0.02098 -0.03294,0.00894 -0.0647,0.020654 -0.0944,0.034468 -0.211453,0.098297 -0.340988,1.2358792 -0.421079,1.4785419 -1.855178,-0.9377138 -3.929487,-1.4887672 -6.129239,-1.5480454 -0.128125,-0.00346 -0.25471,-0.00588 -0.382142,-0.006 z m 8.174248,24.7597399 c -0.272344,0.101501 -0.567971,0.187402 -0.872181,0.266752 0.304038,-0.07932 0.600019,-0.165321 0.872181,-0.266752 z"
     id="path14250" />
  <path
     d="m 22.921428,5.9875555 c -1.605848,-0.002 -3.346742,0.467978 -4.618206,0.910162 -2.411196,0.853236 -3.914645,1.543739 -5.868343,2.9399402 -0.518056,0.3761843 -2.5538357,1.8709413 -3.7907999,3.9553523 -3.4184052,6.043699 -0.9996965,12.460939 3.4208769,13.919088 4.860155,1.817594 10.587809,2.224601 15.414591,-2.945911 0,0 -1.343012,0.90541 -3.21306,1.655775 -3.310156,1.233634 -9.366103,0.298836 -12.182283,-1.393473 -3.1586359,-1.747229 -2.8416449,-4.319872 -2.7384199,-5.848734 0.103541,-1.528859 1.1660809,-4.883786 5.3839969,-6.660317 2.606077,-0.920172 5.670481,-1.563678 8.232723,-0.73876 1.927378,0.434872 3.312774,1.221789 5.145626,1.868962 0,0 -0.015,0.03141 0.491279,0.156883 3.564523,0.564572 3.679775,-2.572364 3.679775,-2.572364 l -0.101642,-0.571573 -0.310306,-0.7755203 -0.147881,-0.3322672 -0.0892,-0.180065 c 0,0 -0.0257,-0.226714 -0.06174,-0.457072 C 31.500175,9.7787047 31.1573,10.246236 31.1573,10.246236 28.386853,9.7209675 27.891673,7.3322975 24.970572,6.3296575 24.353192,6.0868545 23.651358,5.9884265 22.921428,5.9875555 Z"
     style="color:#000000;fill:#d3c9c6;stroke-width:0.529167;stroke-linecap:round;stroke-linejoin:bevel;-inkscape-stroke:none"
     id="path14270" />
  <path
     style="color:#000000;fill:#946857;stroke:none;stroke-width:0.529167;-inkscape-stroke:none"
     d="m 8.1843667,13.763225 -0.01662,0.136911 c 1.1147792,-0.05648 2.4810693,0.185081 3.4945733,0.895938 0.785755,0.530471 1.493588,1.322132 2.501048,0.963973 0.68877,-0.241551 0.72704,-0.650583 0.46302,-1.323176 -0.222957,-0.546872 -0.591506,-1.49122 -1.047243,-1.853285 -0.656524,-0.51954 -2.353758,-0.338117 -2.43891,-1.424573 -0.06399,-0.513555 0.259486,-0.899825 0.546431,-1.2741263 -5.11e-4,0 -3.2866476,0.8261653 -3.5022993,3.8783383 z"
     id="path15360" />
  <path
     d="m 31.194947,10.356377 c 0,0 -0.126281,0.398217 -0.719289,0.43316 -0.592764,0.03541 -0.490243,0.859753 0.02376,1.32129 0.514242,0.461773 0.916408,0.588416 1.259158,0.234053 0.342287,-0.353659 1.182966,-0.940429 -0.563637,-1.988503 z"
     style="fill:#424242;fill-opacity:1;stroke-width:0.548068"
     id="path6681" />
  <circle
     style="fill:#424242;fill-opacity:1;stroke:none;stroke-width:2.11667;stroke-linejoin:round;stroke-dasharray:none;stroke-opacity:1"
     id="path47129"
     cx="27.516691"
     cy="8.466712"
     r="1.0583402" />
  <ellipse
     style="fill:#424242;fill-opacity:1;stroke:none;stroke-width:1.2962;stroke-linejoin:round;stroke-dasharray:none;stroke-opacity:1"
     id="path47443"
     cx="31.220854"
     cy="9.2604218"
     rx="0.5291701"
     ry="0.79375511" />
</svg>
