<?xml version="1.0" encoding="UTF-8" standalone="no"?>
<!-- Created with Inkscape (http://www.inkscape.org/) -->

<svg
   width="128"
   height="128"
   viewBox="0 0 33.866666 33.866668"
   version="1.1"
   id="svg1099"
   inkscape:version="1.2 (dc2aedaf03, 2022-05-15)"
   sodipodi:docname="mintinstall.svg"
   xmlns:inkscape="http://www.inkscape.org/namespaces/inkscape"
   xmlns:sodipodi="http://sodipodi.sourceforge.net/DTD/sodipodi-0.dtd"
   xmlns="http://www.w3.org/2000/svg"
   xmlns:svg="http://www.w3.org/2000/svg">
  <sodipodi:namedview
     id="namedview1101"
     pagecolor="#ffffff"
     bordercolor="#666666"
     borderopacity="1.0"
     inkscape:pageshadow="2"
     inkscape:pageopacity="0.0"
     inkscape:pagecheckerboard="0"
     inkscape:document-units="px"
     showgrid="false"
     units="px"
     inkscape:zoom="6.390625"
     inkscape:cx="64.469438"
     inkscape:cy="64"
     inkscape:window-width="1846"
     inkscape:window-height="1011"
     inkscape:window-x="0"
     inkscape:window-y="0"
     inkscape:window-maximized="1"
     inkscape:current-layer="svg1099"
     inkscape:showpageshadow="2"
     inkscape:deskcolor="#d1d1d1"
     showguides="false" />
  <defs
     id="defs1096" />
  <rect
     style="opacity:1;fill:#396247;fill-opacity:1;stroke-width:0.264583;stroke-linecap:round"
     id="rect934"
     width="27.516666"
     height="27.516666"
     x="3.175"
     y="3.175"
     ry="2.2489583" />
  <rect
     style="fill:#73c48f;fill-opacity:1;stroke-width:0.262015"
     id="rect873"
     width="26.987501"
     height="26.19375"
     x="3.4395835"
     y="3.4395835"
     ry="2.1166668" />
  <path
     d="m 21.436479,7.9612283 c -0.308359,-0.00549 -0.62443,0.020204 -0.933794,0.1007692 -1.973789,0.5140854 -3.156829,2.5197865 -2.642214,4.4803485 0.107421,0.409575 0.306337,0.782079 0.531233,1.11466 -0.114829,0.01852 -1.721858,2.746084 -1.721858,2.746084 l 3.608565,0.02429 0.849042,-1.179772 c 0.402167,0.03175 0.826199,0.02137 1.238684,-0.08578 1.973792,-0.514085 3.156832,-2.520304 2.642217,-4.480864 C 24.900669,10.27112 24.702003,9.8988807 24.477637,9.5662993 l -1.439704,2.4406777 c -0.292556,0.500467 -0.935962,0.668151 -1.435574,0.374137 l -0.925523,-0.538467 c -0.502573,-0.286377 -0.671608,-0.929872 -0.374655,-1.42627 l 1.439706,-2.4401627 c -0.100541,-0.00787 -0.20262,-0.013153 -0.305408,-0.014986 z m -9.389608,0.7358724 c -0.0109,-1.773e-4 -0.02213,5.556e-4 -0.03256,0.00259 -0.243226,0.049763 -0.468765,0.1387081 -0.692981,0.2315133 -0.01773,0.6606646 0.09155,1.525852 -0.165364,1.752865 -0.252677,0.223044 -1.097288,0.03625 -1.7502797,-0.03307 -0.1386417,0.250296 -0.2487216,0.513292 -0.3302133,0.79375 0.5053542,0.418835 1.205743,0.887941 1.222147,1.223698 0.01693,0.339989 -0.6622886,0.851958 -1.1229282,1.322916 0.1092729,0.272786 0.2645965,0.522288 0.429432,0.760677 0.6429372,-0.133879 1.4436412,-0.395287 1.7166912,-0.198437 0.278341,0.200289 0.280722,1.06389 0.363802,1.719792 0.263525,0.07938 0.541374,0.110595 0.825272,0.132291 0.297392,-0.58711 0.599834,-1.397 0.925007,-1.488281 0.33364,-0.09393 1.01818,0.484717 1.584918,0.826823 0.231246,-0.160602 0.43684,-0.356658 0.627867,-0.56224 -0.268285,-0.605896 -0.762275,-1.367366 -0.627867,-1.686718 0.134937,-0.319882 1.031131,-0.497153 1.651579,-0.727605 0.0042,-0.07779 0.03307,-0.152664 0.03307,-0.23151 0,-0.202671 -0.03651,-0.401108 -0.06615,-0.595313 -0.640284,-0.170127 -1.550514,-0.255323 -1.717202,-0.562239 -0.165629,-0.3048 0.255349,-1.123421 0.461986,-1.7528647 -0.212164,-0.1901997 -0.444546,-0.3565589 -0.69298,-0.4960938 -0.529429,0.396875 -1.146477,1.0522485 -1.486731,0.9921875 -0.334695,-0.05927 -0.700389,-0.8673041 -1.056783,-1.4221354 -0.03175,0.00556 -0.0665,-0.00204 -0.09974,-0.00259 z m 0.628386,1.9869603 c 0.985043,0 1.783352,0.799571 1.783352,1.785937 0,0.986367 -0.798309,1.785938 -1.783352,1.785938 -0.985044,0 -1.783353,-0.799571 -1.783353,-1.785938 0,-0.986366 0.798573,-1.785937 1.783353,-1.785937 z m -1.298112,6.778397 0.0083,6.35 c 0,0.603515 0.487135,1.058334 1.056783,1.058334 h 8.458398 c 0.55298,0 1.052651,-0.471223 1.052651,-0.992188 l -0.0083,-6.416146 z m 4.758883,1.5875 h 1.058333 v 1.5875 h 0.661459 l -1.190625,1.852084 -1.190625,-1.852084 h 0.661458 z m -0.79375,3.704167 h 2.645833 c 0.352778,0 0.352778,0.529167 0,0.529167 h -2.645833 c -0.352778,0 -0.352778,-0.529167 0,-0.529167 z"
     style="text-indent:0;text-decoration-line:none;text-transform:none;fill:#ffffff;fill-opacity:1;stroke-width:0.264583"
     id="path1024" />
</svg>
