<?xml version="1.0" encoding="UTF-8" standalone="no"?>
<!-- Created with Inkscape (http://www.inkscape.org/) -->

<svg
   width="128"
   height="128"
   viewBox="0 0 33.866666 33.866666"
   version="1.1"
   id="svg5"
   inkscape:version="1.2 (dc2aedaf03, 2022-05-15)"
   sodipodi:docname="multimedia-audio-player.svg"
   xmlns:inkscape="http://www.inkscape.org/namespaces/inkscape"
   xmlns:sodipodi="http://sodipodi.sourceforge.net/DTD/sodipodi-0.dtd"
   xmlns="http://www.w3.org/2000/svg"
   xmlns:svg="http://www.w3.org/2000/svg">
  <sodipodi:namedview
     id="namedview7"
     pagecolor="#ffffff"
     bordercolor="#666666"
     borderopacity="1.0"
     inkscape:pageshadow="2"
     inkscape:pageopacity="0.0"
     inkscape:pagecheckerboard="0"
     inkscape:document-units="px"
     showgrid="false"
     units="px"
     height="48px"
     inkscape:zoom="5.6568542"
     inkscape:cx="57.80598"
     inkscape:cy="54.270446"
     inkscape:window-width="1846"
     inkscape:window-height="1015"
     inkscape:window-x="0"
     inkscape:window-y="0"
     inkscape:window-maximized="1"
     inkscape:current-layer="svg5"
     inkscape:showpageshadow="2"
     inkscape:deskcolor="#d1d1d1"
     showguides="false" />
  <defs
     id="defs2" />
  <path
     d="m 16.933333,1.0583333 c -2.896923,0 -5.605462,0.772054 -7.9385581,2.116667 H 5.4239583 C 4.1807397,3.1722003 3.1722115,4.1807403 3.175,5.4239583 v 3.570817 C 1.8303875,11.327871 1.0583333,14.03641 1.0583333,16.933333 v 0.79375 c 0,2.896923 0.7720542,5.605463 2.1166667,7.938558 v 3.570817 c 0,1.245923 1.0030354,2.248958 2.2489583,2.248958 h 3.5708166 c 2.3330961,1.344613 5.0416351,2.116667 7.9385581,2.116667 2.896923,0 5.605463,-0.772054 7.938559,-2.116667 h 3.570816 c 1.245923,0 2.248959,-1.003035 2.248959,-2.248958 v -3.570817 c 1.344612,-2.333095 2.116666,-5.041635 2.116666,-7.938558 v -0.79375 c 0,-2.896923 -0.772054,-5.605462 -2.116666,-7.9385577 v -3.570817 c 0,-1.245923 -1.003036,-2.248958 -2.248959,-2.248958 h -3.570816 c -2.333096,-1.344613 -5.041636,-2.116667 -7.938559,-2.116667 z"
     style="fill:#565656;stroke-width:0.264583"
     id="path474" />
  <path
     d="m 16.933334,1.3229166 c -2.874169,0 -5.55969,0.7725833 -7.8676508,2.1166666 H 5.5562499 c -1.1726333,0 -2.1166666,0.9440334 -2.1166666,2.1166667 V 9.0656832 C 2.0955,11.373643 1.3229166,14.059429 1.3229166,16.933333 c 0,2.873904 0.7725834,5.559689 2.1166667,7.86765 v 3.509433 c 0,1.172633 0.9440333,2.116666 2.1166666,2.116666 h 3.5094333 c 2.3079608,1.344084 4.9937468,2.116667 7.8676508,2.116667 2.873904,0 5.559689,-0.772583 7.86765,-2.116667 h 3.509433 c 1.172633,0 2.116667,-0.944033 2.116667,-2.116666 v -3.509433 c 1.344083,-2.307961 2.116666,-4.993746 2.116666,-7.86765 0,-2.873904 -0.772583,-5.55969 -2.116666,-7.8676498 V 5.5562499 c 0,-1.1726333 -0.944034,-2.1166667 -2.116667,-2.1166667 H 24.800984 C 22.493023,2.0954999 19.807238,1.3229166 16.933334,1.3229166 Z"
     style="fill:#acacac;stroke-width:0.264583"
     id="path739" />
  <circle
     style="fill:#333333;fill-opacity:1;stroke-width:0.674687"
     id="path8113"
     cx="16.933332"
     cy="16.933332"
     r="13.49375" />
  <circle
     style="fill:#faa41a;fill-opacity:1;stroke-width:1.00621"
     id="path11492"
     cx="16.933332"
     cy="16.933332"
     r="11.1125" />
  <path
     id="rect975"
     style="fill:#845914;stroke-width:0.926723"
     d="m 16.933332,11.641666 c 2.491847,0 4.497917,2.00607 4.497917,4.497916 v 0.79375 c 0,2.491846 -2.00607,4.497918 -4.497917,4.497918 -2.491846,0 -4.497916,-2.006072 -4.497916,-4.497918 v -0.79375 c 0,-2.491846 2.00607,-4.497916 4.497916,-4.497916 z"
     sodipodi:nodetypes="sssssss" />
  <circle
     style="fill:#333333;fill-opacity:1;stroke-width:0.541446"
     id="path13793"
     cx="16.933331"
     cy="16.933332"
     r="4.2333331" />
  <path
     d="m 5.8208332,5.2916666 c -0.29225,0 -0.5291666,0.2369161 -0.5291666,0.5291667 0,0.2922505 0.2369166,0.5291666 0.5291666,0.5291666 0.292251,0 0.529167,-0.2369161 0.529167,-0.5291666 0,-0.2922506 -0.236916,-0.5291667 -0.529167,-0.5291667 z m 22.2249998,0 c -0.292251,0 -0.529167,0.2369161 -0.529167,0.5291667 0,0.2922505 0.236916,0.5291666 0.529167,0.5291666 0.292251,0 0.529166,-0.2369161 0.529166,-0.5291666 0,-0.2922506 -0.236915,-0.5291667 -0.529166,-0.5291667 z M 5.8208332,27.516666 c -0.29225,0 -0.5291666,0.236916 -0.5291666,0.529167 0,0.292251 0.2369166,0.529166 0.5291666,0.529166 0.292251,0 0.529167,-0.236915 0.529167,-0.529166 0,-0.292251 -0.236916,-0.529167 -0.529167,-0.529167 z m 22.2249998,0 c -0.292251,0 -0.529167,0.236916 -0.529167,0.529167 0,0.292251 0.236916,0.529166 0.529167,0.529166 0.292251,0 0.529166,-0.236915 0.529166,-0.529166 0,-0.292251 -0.236915,-0.529167 -0.529166,-0.529167 z"
     id="path768"
     style="stroke-width:0.264583;fill:#565656;fill-opacity:1" />
</svg>
