<?xml version="1.0" encoding="UTF-8" standalone="no"?>
<!-- Created with Inkscape (http://www.inkscape.org/) -->

<svg
   width="128"
   height="128"
   viewBox="0 0 33.866666 33.866666"
   version="1.1"
   id="svg5"
   inkscape:version="1.2 (dc2aedaf03, 2022-05-15)"
   sodipodi:docname="office-address-book.svg"
   xmlns:inkscape="http://www.inkscape.org/namespaces/inkscape"
   xmlns:sodipodi="http://sodipodi.sourceforge.net/DTD/sodipodi-0.dtd"
   xmlns="http://www.w3.org/2000/svg"
   xmlns:svg="http://www.w3.org/2000/svg">
  <sodipodi:namedview
     id="namedview7"
     pagecolor="#ffffff"
     bordercolor="#666666"
     borderopacity="1.0"
     inkscape:pageshadow="2"
     inkscape:pageopacity="0.0"
     inkscape:pagecheckerboard="0"
     inkscape:document-units="px"
     showgrid="false"
     units="px"
     height="48px"
     inkscape:zoom="1.5898438"
     inkscape:cx="-0.31449631"
     inkscape:cy="-29.562653"
     inkscape:window-width="1920"
     inkscape:window-height="1011"
     inkscape:window-x="0"
     inkscape:window-y="0"
     inkscape:window-maximized="1"
     inkscape:current-layer="svg5"
     inkscape:showpageshadow="2"
     inkscape:deskcolor="#d1d1d1" />
  <defs
     id="defs2" />
  <rect
     style="opacity:1;fill:#245c63;fill-opacity:1;stroke-width:0.264583"
     id="rect845"
     width="23.283333"
     height="28.310415"
     x="5.2916665"
     y="2.3812499"
     ry="1.3229166" />
  <rect
     style="opacity:1;fill:#dedede;fill-opacity:1;stroke-width:0.529167;stroke-linecap:round"
     id="rect1223"
     width="22.754166"
     height="27.78125"
     x="5.5562501"
     y="2.645833"
     ry="1.190625" />
  <rect
     style="opacity:0.2;fill:#000000;fill-opacity:1;stroke-width:1.05833;stroke-linecap:round;stroke-linejoin:round"
     id="rect2284"
     width="4.2333088"
     height="5.291636"
     x="26.458332"
     y="5.2916665"
     ry="1.0583272" />
  <rect
     style="fill:#faa41a;fill-opacity:1;stroke-width:1.05833;stroke-linecap:round;stroke-linejoin:round"
     id="rect2388"
     width="4.2333093"
     height="5.291636"
     x="26.458332"
     y="5.5562496"
     ry="1.0583272" />
  <rect
     style="opacity:0.2;fill:#000000;fill-opacity:1;stroke-width:1.05833;stroke-linecap:round;stroke-linejoin:round"
     id="rect2530"
     width="4.2333093"
     height="5.291636"
     x="26.458332"
     y="10.054166"
     ry="1.0583272" />
  <rect
     style="fill:#73c48f;fill-opacity:1;stroke-width:1.05833;stroke-linecap:round;stroke-linejoin:round"
     id="rect2634"
     width="4.2333093"
     height="5.291636"
     x="26.458332"
     y="10.318749"
     ry="1.0583272" />
  <rect
     style="opacity:0.2;fill:#000000;fill-opacity:1;stroke-width:1.05833;stroke-linecap:round;stroke-linejoin:round"
     id="rect2980"
     width="4.2333093"
     height="5.2916355"
     x="26.458332"
     y="14.816667"
     ry="1.0583272" />
  <rect
     style="fill:#b84acb;fill-opacity:1;stroke-width:1.05833;stroke-linecap:round;stroke-linejoin:round"
     id="rect3308"
     width="4.2333093"
     height="5.2916365"
     x="26.458332"
     y="15.08125"
     ry="1.0583272" />
  <rect
     style="opacity:0.2;fill:#000000;fill-opacity:1;stroke-width:1.05833;stroke-linecap:round;stroke-linejoin:round"
     id="rect3566"
     width="4.2333093"
     height="5.2916355"
     x="26.458332"
     y="19.579165"
     ry="1.0583272" />
  <rect
     style="fill:#f15d22;fill-opacity:1;stroke-width:1.05833;stroke-linecap:round;stroke-linejoin:round"
     id="rect3746"
     width="4.2333093"
     height="5.2916374"
     x="26.458332"
     y="19.843748"
     ry="1.0583272" />
  <rect
     style="fill:#245c63;fill-opacity:1;stroke-width:0.529167;stroke-linecap:round;stroke-linejoin:round"
     id="rect1198"
     width="22.754166"
     height="26.458332"
     x="5.2916665"
     y="2.1166666"
     ry="1.3229166" />
  <rect
     style="opacity:1;fill:#48b9c7;fill-opacity:1;stroke-width:0.264583"
     id="rect1249"
     width="22.225"
     height="25.929167"
     x="5.5562501"
     y="2.3812499"
     ry="1.190625" />
  <path
     d="M 6.7468779,2.381253 C 6.088707,2.379783 5.5547855,2.9137071 5.5562529,3.571878 v 25.664583 c -0.00146,0.658172 0.5324541,1.192093 1.190625,1.190625 h 0.396875 V 2.381253 Z"
     style="fill:#16393e;stroke-width:0.264583;fill-opacity:1"
     id="path2323" />
  <path
     d="m 17.727083,9.2604165 c 3.506788,0 6.35,2.8432125 6.35,6.3499985 v 0.79375 c -8e-5,2.222216 -2.774522,3.233166 -4.20423,1.531938 -0.566208,0.521758 -1.315508,0.849312 -2.14577,0.849312 -2.82882,0 -4.244986,-3.419914 -2.244952,-5.419951 2.000038,-2.000033 5.419952,-0.583867 5.419952,2.244951 v 0.79375 c 0,1.058334 1.5875,1.058334 1.5875,0 v -0.79375 c 0,-4.243227 -5.129874,-6.3674769 -8.129926,-3.367425 -3.000052,3.000053 -0.875804,8.129925 3.367426,8.129925 h 3.96875 c 0,0 0.79375,0 0.79375,0.79375 -0.04974,0.79375 -0.79375,0.79375 -0.79375,0.79375 h -3.96875 c -3.506788,0 -6.35,-2.843212 -6.35,-6.35 0,-3.506786 2.843212,-6.3499985 6.35,-6.3499985 z m 0,4.7624995 c -2.116668,0 -2.116668,3.174999 0,3.174999 2.116666,0 2.116666,-3.174999 0,-3.174999 z"
     id="path1444"
     style="opacity:0.2;fill:#000000;stroke-width:0.529166"
     sodipodi:nodetypes="ssccscsssssscccssssss" />
  <path
     d="m 17.727083,8.9958332 c 3.506788,0 6.35,2.8432128 6.35,6.3499998 v 0.79375 c -8e-5,2.222214 -2.774522,3.233166 -4.20423,1.531938 -0.566208,0.521758 -1.315508,0.849312 -2.14577,0.849312 -2.82882,0 -4.244986,-3.419914 -2.244952,-5.419952 2.000038,-2.000033 5.419952,-0.583867 5.419952,2.244952 v 0.79375 c 0,1.058334 1.5875,1.058334 1.5875,0 v -0.79375 c 0,-4.243229 -5.129874,-6.3674782 -8.129926,-3.367426 -3.000052,3.000052 -0.875804,8.129926 3.367426,8.129926 h 3.96875 c 0,0 0.79375,0 0.79375,0.79375 -0.04974,0.79375 -0.79375,0.79375 -0.79375,0.79375 h -3.96875 c -3.506788,0 -6.35,-2.843212 -6.35,-6.35 0,-3.506787 2.843212,-6.3499998 6.35,-6.3499998 z m 0,4.7624998 c -2.116668,0 -2.116668,3.175 0,3.175 2.116666,0 2.116666,-3.175 0,-3.175 z"
     style="fill:#ffffff;stroke-width:0.140008"
     id="path2058" />
</svg>
