<?xml version="1.0" encoding="UTF-8" standalone="no"?>
<!-- Created with Inkscape (http://www.inkscape.org/) -->

<svg
   width="128"
   height="128"
   viewBox="0 0 33.866666 33.866668"
   version="1.1"
   id="svg1099"
   inkscape:version="1.2 (dc2aedaf03, 2022-05-15)"
   sodipodi:docname="org.gnome.Software.svg"
   xmlns:inkscape="http://www.inkscape.org/namespaces/inkscape"
   xmlns:sodipodi="http://sodipodi.sourceforge.net/DTD/sodipodi-0.dtd"
   xmlns="http://www.w3.org/2000/svg"
   xmlns:svg="http://www.w3.org/2000/svg">
  <sodipodi:namedview
     id="namedview1101"
     pagecolor="#ffffff"
     bordercolor="#666666"
     borderopacity="1.0"
     inkscape:pageshadow="2"
     inkscape:pageopacity="0.0"
     inkscape:pagecheckerboard="0"
     inkscape:document-units="px"
     showgrid="false"
     units="px"
     inkscape:zoom="6.390625"
     inkscape:cx="64"
     inkscape:cy="64"
     inkscape:window-width="1846"
     inkscape:window-height="1015"
     inkscape:window-x="0"
     inkscape:window-y="0"
     inkscape:window-maximized="1"
     inkscape:current-layer="svg1099"
     inkscape:showpageshadow="2"
     inkscape:deskcolor="#d1d1d1"
     showguides="false" />
  <defs
     id="defs1096" />
  <path
     id="rect848"
     style="fill:#d1cbcb;fill-opacity:1;stroke-width:1.05833;stroke-linecap:round"
     d="m 12.964584,3.175 c -1.026055,0 -1.852084,0.8260293 -1.852084,1.8520836 v 4.7625006 c 0,1.0260538 0.826029,1.8520838 1.852084,1.8520838 h 7.937501 c 1.026052,0 1.852082,-0.82603 1.852082,-1.8520838 V 5.0270836 C 22.754167,4.0010293 21.928137,3.175 20.902085,3.175 Z m 0.264583,2.1166669 h 7.408335 c 0.293158,0 0.529166,0.2360084 0.529166,0.5291669 v 4.2333342 c 0,0.293158 -0.236008,0.529166 -0.529166,0.529166 H 13.229167 C 12.936009,10.583334 12.7,10.347326 12.7,10.054168 V 5.8208338 c 0,-0.2931585 0.236009,-0.5291669 0.529167,-0.5291669 z"
     sodipodi:nodetypes="ssssssssssssssssss" />
  <path
     id="path3704"
     style="fill:#000000;fill-opacity:1;stroke-width:1.05833;stroke-linecap:round;opacity:0.3"
     d="M 12.964583 3.175 C 11.938528 3.175 11.1125 4.0010301 11.1125 5.0270834 L 11.1125 9.7895834 C 11.1125 10.815636 11.938528 11.641667 12.964583 11.641667 L 20.902084 11.641667 C 21.928135 11.641667 22.754167 10.815636 22.754167 9.7895834 L 22.754167 5.0270834 C 22.754167 4.0010301 21.928135 3.175 20.902084 3.175 L 12.964583 3.175 z M 12.964583 3.4395834 L 20.902084 3.4395834 C 21.781557 3.4395834 22.489584 4.1476091 22.489584 5.0270834 L 22.489584 9.2604168 C 22.489584 10.139891 21.781557 10.847917 20.902084 10.847917 L 12.964583 10.847917 C 12.085109 10.847917 11.377083 10.139891 11.377083 9.2604168 L 11.377083 5.0270834 C 11.377083 4.1476091 12.085109 3.4395834 12.964583 3.4395834 z M 13.229167 4.4979167 C 12.78943 4.4979167 12.435417 4.8519295 12.435417 5.2916667 L 12.435417 8.9958334 C 12.435417 9.2315594 12.537869 9.4418818 12.7 9.5870118 L 12.7 5.8208334 C 12.7 5.5276752 12.936009 5.2916667 13.229167 5.2916667 L 20.6375 5.2916667 C 20.930658 5.2916667 21.166667 5.5276752 21.166667 5.8208334 L 21.166667 9.5870118 C 21.328798 9.4418818 21.43125 9.2315594 21.43125 8.9958334 L 21.43125 5.2916667 C 21.43125 4.8519295 21.077237 4.4979167 20.6375 4.4979167 L 13.229167 4.4979167 z " />
  <rect
     style="opacity:1;fill:#ececec;fill-opacity:1;stroke-width:1.05833;stroke-linecap:round"
     id="rect934"
     width="29.633333"
     height="24.870834"
     x="2.1166668"
     y="6.8791666"
     ry="2.1166668" />
  <path
     id="rect6893"
     style="fill:#d8d8d8;fill-opacity:1;stroke-width:1.05833;stroke-linejoin:round"
     d="m 4.2333335,6.8791667 c -1.1726322,0 -2.1166668,0.9440344 -2.1166668,2.1166666 V 17.991666 H 31.75 V 8.9958333 c 0,-1.1726322 -0.944034,-2.1166666 -2.116666,-2.1166666 z"
     sodipodi:nodetypes="ssccsss" />
  <rect
     style="opacity:0.3;fill:#000000;stroke-width:1.05833;stroke-linejoin:round"
     id="rect500"
     width="6.3499999"
     height="6.3499999"
     x="8.9958334"
     y="15.081459"
     ry="2.1166668" />
  <rect
     style="fill:#f15d22;fill-opacity:1;stroke-width:1.05833;stroke-linejoin:round"
     id="rect549"
     width="6.3499994"
     height="6.3499994"
     x="8.9958334"
     y="14.816668"
     ry="2.1166668" />
  <path
     d="m 22.462986,19.440538 -4.552334,2.760384 c -0.277188,0.16742 -0.448152,0.479742 -0.448152,0.817814 0,0.338072 0.170964,0.650386 0.448152,0.817814 l 4.552334,2.760384 c 0.279212,0.16958 0.622154,0.16742 0.900352,-0.0032 0.2782,-0.17176 0.449164,-0.486214 0.449164,-0.827506 V 20.27125 c 0,-0.341292 -0.17096,-0.655753 -0.449164,-0.827472 -0.278198,-0.170646 -0.62114,-0.17279 -0.900352,-0.0032 z"
     style="opacity:0.3;fill:#000000;stroke-width:0.529166"
     id="path1477"
     sodipodi:nodetypes="ccscccssccc" />
  <path
     d="m 22.462986,19.175953 -4.552334,2.760384 c -0.277188,0.16742 -0.448152,0.479742 -0.448152,0.817814 0,0.338072 0.170964,0.650386 0.448152,0.817814 l 4.552334,2.760384 c 0.279212,0.16958 0.622154,0.16742 0.900352,-0.0032 0.2782,-0.17176 0.449164,-0.486214 0.449164,-0.827506 v -5.494978 c 0,-0.341293 -0.17096,-0.655754 -0.449164,-0.827472 -0.278198,-0.170646 -0.62114,-0.17279 -0.900352,-0.0032 z"
     style="fill:#48b9c7;fill-opacity:1;stroke-width:0.529166"
     id="path1868" />
  <circle
     style="opacity:0.3;fill:#000000;stroke-width:1.05833;stroke-linejoin:round"
     id="path1940"
     cx="20.637503"
     cy="14.022918"
     r="3.1749997" />
  <circle
     style="fill:#b84acb;fill-opacity:1;stroke-width:1.05833;stroke-linejoin:round"
     id="path1942"
     cx="20.637503"
     cy="13.758334"
     r="3.1749997" />
  <path
     id="rect908"
     style="opacity:0.5;fill:#000000;stroke-width:0.529167;stroke-linejoin:round"
     d="M 4.2333334 6.8791667 C 3.0607011 6.8791667 2.1166667 7.8232012 2.1166667 8.9958334 L 2.1166667 29.633334 C 2.1166667 30.805966 3.0607011 31.75 4.2333334 31.75 L 29.633334 31.75 C 30.805966 31.75 31.75 30.805966 31.75 29.633334 L 31.75 8.9958334 C 31.75 7.8232012 30.805966 6.8791667 29.633334 6.8791667 L 4.2333334 6.8791667 z M 4.2333334 7.1437501 L 29.633334 7.1437501 C 30.659387 7.1437501 31.485417 7.9697803 31.485417 8.9958334 L 31.485417 28.839584 C 31.485417 29.865637 30.659387 30.691667 29.633334 30.691667 L 4.2333334 30.691667 C 3.2072802 30.691667 2.38125 29.865637 2.38125 28.839584 L 2.38125 8.9958334 C 2.38125 7.9697803 3.2072802 7.1437501 4.2333334 7.1437501 z " />
</svg>
