<?xml version="1.0" encoding="UTF-8" standalone="no"?>
<!-- Created with Inkscape (http://www.inkscape.org/) -->

<svg
   width="128"
   height="128"
   viewBox="0 0 33.866666 33.866668"
   version="1.1"
   id="svg1099"
   inkscape:version="1.2 (dc2aedaf03, 2022-05-15)"
   sodipodi:docname="preferences-desktop-emoticons.svg"
   xmlns:inkscape="http://www.inkscape.org/namespaces/inkscape"
   xmlns:sodipodi="http://sodipodi.sourceforge.net/DTD/sodipodi-0.dtd"
   xmlns="http://www.w3.org/2000/svg"
   xmlns:svg="http://www.w3.org/2000/svg">
  <sodipodi:namedview
     id="namedview1101"
     pagecolor="#ffffff"
     bordercolor="#666666"
     borderopacity="1.0"
     inkscape:pageshadow="2"
     inkscape:pageopacity="0.0"
     inkscape:pagecheckerboard="0"
     inkscape:document-units="px"
     showgrid="false"
     units="px"
     inkscape:zoom="3.294667"
     inkscape:cx="-4.7045726"
     inkscape:cy="41.27883"
     inkscape:window-width="1920"
     inkscape:window-height="1014"
     inkscape:window-x="0"
     inkscape:window-y="0"
     inkscape:window-maximized="1"
     inkscape:current-layer="svg1099"
     inkscape:showpageshadow="2"
     inkscape:deskcolor="#d1d1d1" />
  <defs
     id="defs1096" />
  <rect
     style="opacity:1;fill:#7f6728;fill-opacity:1;stroke-width:0.529166"
     id="rect1196"
     width="31.75"
     height="32.543751"
     x="1.0583334"
     y="1.0583334"
     ry="15.875" />
  <circle
     style="opacity:1;fill:#ffce51;fill-opacity:1;stroke-width:0.536019"
     id="path6320"
     cx="16.933334"
     cy="16.933332"
     r="15.610416" />
  <path
     d="m 11.641667,9.5250001 c -1.169002,0 -2.1166656,0.9476639 -2.1166656,2.1166659 0,1.169003 0.9476636,2.116667 2.1166656,2.116667 1.169003,0 2.116667,-0.947664 2.116667,-2.116667 0,-1.169002 -0.947664,-2.1166659 -2.116667,-2.1166659 z m 10.583334,0 c -1.169002,0 -2.116666,0.9476639 -2.116666,2.1166659 0,1.169003 0.947664,2.116667 2.116666,2.116667 1.169002,0 2.116666,-0.947664 2.116666,-2.116667 0,-1.169002 -0.947664,-2.1166659 -2.116666,-2.1166659 z M 11.302673,20.425621 c 1.162921,2.417575 3.311717,3.907749 5.6379,3.909845 2.323963,-0.0048 4.469878,-1.494574 5.631688,-3.909845 h -0.791676 c -1.23218,1.65339 -2.9916,2.600919 -4.840012,2.606571 -1.849498,-0.0046 -3.610218,-0.952215 -4.843124,-2.606571 z"
     id="path548"
     style="fill:#7f6728;fill-opacity:1;stroke-width:0.529166" />
</svg>
