<?xml version="1.0" encoding="UTF-8" standalone="no"?>
<!-- Created with Inkscape (http://www.inkscape.org/) -->

<svg
   width="128"
   height="128"
   viewBox="0 0 33.866666 33.866668"
   version="1.1"
   id="svg1099"
   inkscape:version="1.2 (dc2aedaf03, 2022-05-15)"
   sodipodi:docname="preferences-system-power.svg"
   xmlns:inkscape="http://www.inkscape.org/namespaces/inkscape"
   xmlns:sodipodi="http://sodipodi.sourceforge.net/DTD/sodipodi-0.dtd"
   xmlns="http://www.w3.org/2000/svg"
   xmlns:svg="http://www.w3.org/2000/svg">
  <sodipodi:namedview
     id="namedview1101"
     pagecolor="#ffffff"
     bordercolor="#666666"
     borderopacity="1.0"
     inkscape:pageshadow="2"
     inkscape:pageopacity="0.0"
     inkscape:pagecheckerboard="0"
     inkscape:document-units="px"
     showgrid="false"
     units="px"
     inkscape:zoom="2.2594271"
     inkscape:cx="37.177565"
     inkscape:cy="57.536708"
     inkscape:window-width="1846"
     inkscape:window-height="1011"
     inkscape:window-x="0"
     inkscape:window-y="0"
     inkscape:window-maximized="1"
     inkscape:current-layer="svg1099"
     inkscape:showpageshadow="2"
     inkscape:deskcolor="#d1d1d1"
     showguides="false" />
  <defs
     id="defs1096" />
  <rect
     style="opacity:1;fill:#ffce51;fill-opacity:1;stroke-width:1.05833;stroke-linecap:round"
     id="rect934"
     width="27.516666"
     height="27.516666"
     x="3.1750002"
     y="3.1750002"
     ry="2.2489583" />
  <path
     id="rect2485"
     style="opacity:0.5;fill:#000000;fill-opacity:1;stroke-width:0.529166"
     d="M 5.4239583,3.175 C 4.1780366,3.175 3.175,4.1780366 3.175,5.4239583 V 28.442709 c 0,1.245922 1.0030366,2.248958 2.2489583,2.248958 H 28.442709 c 1.245922,0 2.248958,-1.003036 2.248958,-2.248958 V 5.4239583 C 30.691667,4.1780366 29.688631,3.175 28.442709,3.175 Z M 5.55625,3.4395833 h 22.754167 c 1.172633,0 2.116667,0.9440345 2.116667,2.1166667 v 21.960417 c 0,1.172633 -0.944034,2.116667 -2.116667,2.116667 H 5.55625 c -1.1726322,0 -2.1166667,-0.944034 -2.1166667,-2.116667 V 5.55625 c 0,-1.1726322 0.9440345,-2.1166667 2.1166667,-2.1166667 z" />
  <path
     d="m 16.933333,10.583333 c -3.506785,0 -6.349999,2.843212 -6.349999,6.349999 0,3.506786 2.843214,6.350001 6.349999,6.350001 3.506788,0 6.35,-2.843215 6.35,-6.350001 0,-3.506787 -2.843212,-6.349999 -6.35,-6.349999 z m 0,2.986086 v 2.834745 h 2.721506 l -2.721506,4.422245 v -2.834745 h -2.721504 z"
     style="color:#000000;fill:#393634;stroke-width:0.529166"
     id="path930" />
</svg>
