<?xml version="1.0" encoding="UTF-8" standalone="no"?>
<!-- Created with Inkscape (http://www.inkscape.org/) -->

<svg
   width="128"
   height="128"
   viewBox="0 0 33.866667 33.866667"
   version="1.1"
   id="svg5"
   inkscape:version="1.2 (dc2aedaf03, 2022-05-15)"
   sodipodi:docname="preferences-system-splash.svg"
   xmlns:inkscape="http://www.inkscape.org/namespaces/inkscape"
   xmlns:sodipodi="http://sodipodi.sourceforge.net/DTD/sodipodi-0.dtd"
   xmlns="http://www.w3.org/2000/svg"
   xmlns:svg="http://www.w3.org/2000/svg">
  <sodipodi:namedview
     id="namedview7"
     pagecolor="#ffffff"
     bordercolor="#666666"
     borderopacity="1.0"
     inkscape:pageshadow="2"
     inkscape:pageopacity="0.0"
     inkscape:pagecheckerboard="0"
     inkscape:document-units="px"
     showgrid="false"
     units="px"
     height="48px"
     inkscape:zoom="2.9536439"
     inkscape:cx="50.615445"
     inkscape:cy="88.534708"
     inkscape:window-width="1846"
     inkscape:window-height="1011"
     inkscape:window-x="0"
     inkscape:window-y="0"
     inkscape:window-maximized="1"
     inkscape:current-layer="svg5"
     inkscape:showpageshadow="2"
     inkscape:deskcolor="#d1d1d1"
     showguides="true" />
  <defs
     id="defs2" />
  <rect
     style="opacity:1;fill:#424242;fill-opacity:1;stroke-width:0.264583"
     id="rect1162"
     width="15.875"
     height="9.5249996"
     x="8.9958344"
     y="21.166666"
     ry="1.0583334" />
  <rect
     style="opacity:1;fill:#848484;fill-opacity:1;stroke-width:0.264583"
     id="rect3774"
     width="15.345834"
     height="8.4666672"
     x="9.2604179"
     y="21.166666"
     ry="1.0583334" />
  <rect
     style="opacity:1;fill:#6f6f6f;fill-opacity:1;stroke-width:0.264583"
     id="rect2173"
     width="29.633333"
     height="21.166666"
     x="2.1166666"
     y="4.2333331"
     ry="1.5875" />
  <rect
     style="opacity:1;fill:#acacac;fill-opacity:1;stroke-width:0.264583"
     id="rect2175"
     width="29.104166"
     height="19.84375"
     x="2.3812501"
     y="4.4979167"
     ry="1.4552083" />
  <rect
     style="fill:#464646;fill-opacity:1;stroke-width:0.383418"
     id="rect1437"
     width="26.987501"
     height="16.404167"
     x="3.4395833"
     y="5.5562501"
     ry="0.26458332" />
  <rect
     style="fill:#424242;fill-opacity:1;stroke-width:0.529167"
     id="rect15516"
     width="6.3499999"
     height="1.0583334"
     x="13.758334"
     y="22.489584"
     ry="0.26458332" />
  <path
     id="path513"
     style="opacity:0.3;fill:#ffffff;stroke-width:3.52776"
     d="m 16.933334,8.4666668 c -2.922499,0 -5.291667,2.3691682 -5.291667,5.2916672 0,2.922498 2.369168,5.291666 5.291667,5.291666 2.922498,0 5.291666,-2.369168 5.291666,-5.291666 0,-2.922499 -2.369168,-5.2916672 -5.291666,-5.2916672 z m 0,0.5291661 c 2.63025,0 4.762498,2.1322541 4.762498,4.7625011 0,2.63025 -2.132248,4.7625 -4.762498,4.7625 -2.630249,0 -4.762501,-2.13225 -4.762501,-4.7625 0,-2.630247 2.132252,-4.7625011 4.762501,-4.7625011 z" />
  <path
     id="path595"
     style="fill:#ffffff;stroke-width:3.52776"
     d="M 16.933334,8.4666668 A 5.2916673,5.2916673 0 0 0 11.641667,13.758334 5.2916673,5.2916673 0 0 0 16.933334,19.05 5.2916673,5.2916673 0 0 0 20.674706,17.499708 L 20.30057,17.12557 c -0.861842,0.861842 -2.052112,1.395264 -3.367236,1.395264 -2.630249,0 -4.762501,-2.13225 -4.762501,-4.7625 0,-2.630247 2.132252,-4.7625011 4.762501,-4.7625011 z" />
</svg>
