<?xml version="1.0" encoding="UTF-8" standalone="no"?>
<!-- Created with Inkscape (http://www.inkscape.org/) -->

<svg
   width="128"
   height="128"
   viewBox="0 0 33.866666 33.866668"
   version="1.1"
   id="svg1099"
   inkscape:version="1.2.1 (9c6d41e410, 2022-07-14, custom)"
   sodipodi:docname="preferences-system-privacy.svg"
   xmlns:inkscape="http://www.inkscape.org/namespaces/inkscape"
   xmlns:sodipodi="http://sodipodi.sourceforge.net/DTD/sodipodi-0.dtd"
   xmlns="http://www.w3.org/2000/svg"
   xmlns:svg="http://www.w3.org/2000/svg">
  <sodipodi:namedview
     id="namedview1101"
     pagecolor="#ffffff"
     bordercolor="#666666"
     borderopacity="1.0"
     inkscape:pageshadow="2"
     inkscape:pageopacity="0.0"
     inkscape:pagecheckerboard="0"
     inkscape:document-units="px"
     showgrid="false"
     units="px"
     inkscape:zoom="6.265625"
     inkscape:cx="63.9202"
     inkscape:cy="64"
     inkscape:window-width="1920"
     inkscape:window-height="1011"
     inkscape:window-x="0"
     inkscape:window-y="0"
     inkscape:window-maximized="1"
     inkscape:current-layer="svg1099"
     inkscape:showpageshadow="2"
     inkscape:deskcolor="#d1d1d1"
     showguides="false" />
  <defs
     id="defs1096" />
  <rect
     style="opacity:1;fill:#de8800;fill-opacity:1;stroke-width:0.264583;stroke-linecap:round"
     id="rect934"
     width="27.516666"
     height="27.516666"
     x="3.175"
     y="3.175"
     ry="2.2489583" />
  <path
     d="m 16.933333,11.641667 c -3.59334,0.005 -6.87362,2.059348 -8.4666663,5.30225 1.5989403,3.234673 4.8780223,5.279997 8.4666663,5.281081 3.593344,-0.005 6.873621,-2.059348 8.466667,-5.302249 -1.59894,-3.234674 -4.878021,-5.28 -8.466667,-5.281082 z m 0,1.058332 c 2.338006,0 4.233333,1.895328 4.233333,4.233334 0,2.338006 -1.895327,4.233331 -4.233333,4.233331 -2.338004,0 -4.233332,-1.895325 -4.233332,-4.233331 0,-2.338006 1.895328,-4.233334 4.233332,-4.233334 z m 0,2.116668 c -1.169002,0 -2.116666,0.947664 -2.116666,2.116666 0,1.169004 0.947664,2.116668 2.116666,2.116668 1.169004,0 2.116668,-0.947664 2.116668,-2.116668 0,-1.169002 -0.947664,-2.116666 -2.116668,-2.116666 z"
     style="fill:#ffffff;stroke-width:0.529166"
     id="path302" />
  <path
     id="rect2485"
     style="opacity:0.5;fill:#000000;fill-opacity:1;stroke-width:0.529166"
     d="m 5.4239574,3.175 c -1.2459213,0 -2.2489579,1.0030366 -2.2489579,2.248958 v 23.018751 c 0,1.245922 1.0030366,2.248958 2.2489579,2.248958 H 28.442708 c 1.245922,0 2.248958,-1.003036 2.248958,-2.248958 V 5.423958 C 30.691666,4.1780366 29.68863,3.175 28.442708,3.175 Z m 0.132292,0.2645833 H 28.310416 c 1.172633,0 2.116667,0.9440345 2.116667,2.1166667 v 21.960417 c 0,1.172633 -0.944034,2.116667 -2.116667,2.116667 H 5.5562494 c -1.1726321,0 -2.1166666,-0.944034 -2.1166666,-2.116667 V 5.55625 c 0,-1.1726322 0.9440345,-2.1166667 2.1166666,-2.1166667 z" />
</svg>
