<?xml version="1.0" encoding="UTF-8" standalone="no"?>
<!-- Created with Inkscape (http://www.inkscape.org/) -->

<svg
   width="128"
   height="128"
   viewBox="0 0 33.866666 33.866668"
   version="1.1"
   id="svg1099"
   inkscape:version="1.2 (dc2aedaf03, 2022-05-15)"
   sodipodi:docname="preferences-activities.svg"
   xmlns:inkscape="http://www.inkscape.org/namespaces/inkscape"
   xmlns:sodipodi="http://sodipodi.sourceforge.net/DTD/sodipodi-0.dtd"
   xmlns="http://www.w3.org/2000/svg"
   xmlns:svg="http://www.w3.org/2000/svg">
  <sodipodi:namedview
     id="namedview1101"
     pagecolor="#ffffff"
     bordercolor="#666666"
     borderopacity="1.0"
     inkscape:pageshadow="2"
     inkscape:pageopacity="0.0"
     inkscape:pagecheckerboard="0"
     inkscape:document-units="px"
     showgrid="false"
     units="px"
     inkscape:zoom="2.2594271"
     inkscape:cx="-8.4092112"
     inkscape:cy="91.616143"
     inkscape:window-width="1846"
     inkscape:window-height="1011"
     inkscape:window-x="0"
     inkscape:window-y="0"
     inkscape:window-maximized="1"
     inkscape:current-layer="svg1099"
     inkscape:showpageshadow="2"
     inkscape:deskcolor="#d1d1d1"
     showguides="false" />
  <defs
     id="defs1096" />
  <rect
     style="opacity:1;fill:#9f9792;fill-opacity:1;stroke-width:1.05833;stroke-linecap:round"
     id="rect934"
     width="27.516666"
     height="27.516666"
     x="3.175"
     y="3.175"
     ry="2.2489583" />
  <path
     id="rect2485"
     style="opacity:0.5;fill:#000000;fill-opacity:1;stroke-width:0.529166"
     d="m 5.4239584,3.1750001 c -1.2459217,0 -2.2489583,1.0030366 -2.2489583,2.2489583 V 28.442709 c 0,1.245922 1.0030366,2.248958 2.2489583,2.248958 H 28.442709 c 1.245922,0 2.248958,-1.003036 2.248958,-2.248958 V 5.4239584 c 0,-1.2459217 -1.003036,-2.2489583 -2.248958,-2.2489583 z M 5.5562501,3.4395834 H 28.310417 c 1.172633,0 2.116667,0.9440345 2.116667,2.1166667 V 27.516667 c 0,1.172633 -0.944034,2.116667 -2.116667,2.116667 H 5.5562501 c -1.1726322,0 -2.1166667,-0.944034 -2.1166667,-2.116667 V 5.5562501 c 0,-1.1726322 0.9440345,-2.1166667 2.1166667,-2.1166667 z" />
  <path
     d="m 15.544279,10.31875 -0.12224,1.463676 c -0.46419,0.17176 -0.895792,0.421198 -1.27635,0.737658 l -1.329796,-0.626004 -1.389062,2.405592 1.207558,0.838728 c -0.04302,0.243206 -0.06532,0.489624 -0.06668,0.7366 1.5e-4,0.247772 0.0214,0.49508 0.0635,0.739246 l -1.204382,0.836084 1.389062,2.405592 1.32715,-0.624416 c 0.381706,0.31503 0.814202,0.56286 1.278996,0.732894 l 0.12224,1.46685 h 2.778124 l 0.12224,-1.463674 c 0.46419,-0.17176 0.895792,-0.421198 1.27635,-0.737658 l 1.329796,0.626004 1.389064,-2.406122 -1.20756,-0.8382 c 0.04302,-0.243204 0.06532,-0.489622 0.06668,-0.7366 -1.2e-4,-0.247946 -0.02136,-0.495434 -0.0635,-0.739774 l 1.204376,-0.835554 -1.389064,-2.405592 -1.32715,0.624416 C 19.341925,12.203466 18.909429,11.955634 18.444635,11.7856 l -0.12224,-1.46685 z m 1.389062,3.96875 c 0.87675,0 1.587498,0.710748 1.587498,1.5875 0,0.876752 -0.710748,1.5875 -1.587498,1.5875 -0.876752,0 -1.5875,-0.710748 -1.5875,-1.5875 0,-0.876752 0.710748,-1.5875 1.5875,-1.5875 z"
     style="opacity:0.2;fill:#000000;stroke-width:0.529166"
     id="path5097"
     sodipodi:nodetypes="cccccccccccccccccccccccccccsssss" />
  <path
     d="m 15.544279,10.054167 -0.12224,1.463674 c -0.46419,0.17176 -0.895792,0.421198 -1.27635,0.73766 l -1.329796,-0.626004 -1.389064,2.40559 1.20756,0.83873 c -0.04302,0.243206 -0.06532,0.489622 -0.06668,0.7366 1.5e-4,0.24777 0.0214,0.495078 0.0635,0.739246 l -1.204384,0.836084 1.389064,2.405592 1.32715,-0.624418 c 0.381706,0.315032 0.814202,0.562862 1.278996,0.732896 l 0.12224,1.46685 h 2.778124 l 0.12224,-1.463674 c 0.46419,-0.17176 0.895792,-0.421198 1.27635,-0.737658 l 1.329796,0.626004 1.389064,-2.406122 -1.20756,-0.8382 c 0.04302,-0.243204 0.06532,-0.489622 0.06668,-0.7366 -1.2e-4,-0.247948 -0.02136,-0.495434 -0.0635,-0.739774 l 1.204374,-0.835556 -1.389062,-2.40559 -1.32715,0.624416 c -0.381706,-0.31503 -0.814202,-0.562862 -1.278996,-0.732896 l -0.12224,-1.46685 z m 1.389064,3.96875 c 0.87675,0 1.587498,0.710748 1.587498,1.5875 0,0.876752 -0.710748,1.5875 -1.587498,1.5875 -0.876752,0 -1.5875,-0.710748 -1.5875,-1.5875 0,-0.876752 0.710748,-1.5875 1.5875,-1.5875 z"
     style="fill:#ffffff;stroke-width:0.529166"
     id="path6559" />
</svg>
