<?xml version="1.0" encoding="UTF-8" standalone="no"?>
<!-- Created with Inkscape (http://www.inkscape.org/) -->

<svg
   width="128"
   height="128"
   viewBox="0 0 33.866666 33.866668"
   version="1.1"
   id="svg1099"
   inkscape:version="1.2 (dc2aedaf03, 2022-05-15)"
   sodipodi:docname="preferences-desktop-keyboard.svg"
   xmlns:inkscape="http://www.inkscape.org/namespaces/inkscape"
   xmlns:sodipodi="http://sodipodi.sourceforge.net/DTD/sodipodi-0.dtd"
   xmlns="http://www.w3.org/2000/svg"
   xmlns:svg="http://www.w3.org/2000/svg">
  <sodipodi:namedview
     id="namedview1101"
     pagecolor="#ffffff"
     bordercolor="#666666"
     borderopacity="1.0"
     inkscape:pageshadow="2"
     inkscape:pageopacity="0.0"
     inkscape:pagecheckerboard="0"
     inkscape:document-units="px"
     showgrid="false"
     units="px"
     inkscape:zoom="2.2925728"
     inkscape:cx="-8.7238233"
     inkscape:cy="85.493468"
     inkscape:window-width="1846"
     inkscape:window-height="1011"
     inkscape:window-x="0"
     inkscape:window-y="0"
     inkscape:window-maximized="1"
     inkscape:current-layer="svg1099"
     inkscape:showpageshadow="2"
     inkscape:deskcolor="#d1d1d1"
     showguides="false" />
  <defs
     id="defs1096" />
  <rect
     style="opacity:1;fill:#4f4b49;fill-opacity:1;stroke-width:0.264583;stroke-linecap:round"
     id="rect934"
     width="27.516666"
     height="27.516666"
     x="3.175"
     y="3.175"
     ry="2.2489583" />
  <rect
     style="fill:#d1cbcb;fill-opacity:1;stroke-width:0.262015"
     id="rect873"
     width="26.987501"
     height="26.19375"
     x="3.4395835"
     y="3.4395835"
     ry="2.1166668" />
  <path
     d="m 11.112513,10.054167 c 0,0 -2.1166796,0 -2.1166796,2.116668 v 8.466666 c 0,2.116668 2.1166796,2.116668 2.1166796,2.116668 h 11.64166 c 0,0 2.11666,0 2.11666,-2.116668 v -8.466666 c 0,-2.116668 -2.11666,-2.116668 -2.11666,-2.116668 z"
     style="fill:#2b2928;stroke-width:0.529166;filter:url(#filter7554)"
     id="path1138" />
  <path
     id="rect68"
     style="fill:#fdfdfd;fill-opacity:1;stroke-width:1.05833"
     d="m 10.834493,11.641667 c -0.1402,0.007 -0.25116,0.12258 -0.25116,0.264584 v 1.058334 c 0,0.14658 0.118,0.264582 0.2646,0.264582 h 1.05832 c 0.1466,0 0.26458,-0.118 0.26458,-0.264582 v -1.058334 c 0,-0.14658 -0.118,-0.264584 -0.26458,-0.264584 h -1.05832 c -0.004,0 -0.008,-2.28e-4 -0.014,0 z m 2.64582,0 c -0.1402,0.007 -0.25114,0.12258 -0.25114,0.264584 v 1.058334 c 0,0.14658 0.118,0.264582 0.26458,0.264582 h 1.05834 c 0.1466,0 0.26458,-0.118 0.26458,-0.264582 v -1.058334 c 0,-0.14658 -0.118,-0.264584 -0.26458,-0.264584 h -1.05834 c -0.004,0 -0.008,-2.28e-4 -0.014,0 z m 2.64584,0 c -0.1402,0.007 -0.25114,0.12258 -0.25114,0.264584 v 1.058334 c 0,0.14658 0.118,0.264582 0.26458,0.264582 h 1.05834 c 0.1466,0 0.26458,-0.118 0.26458,-0.264582 v -1.058334 c 0,-0.14658 -0.118,-0.264584 -0.26458,-0.264584 h -1.05834 c -0.004,0 -0.008,-2.28e-4 -0.014,0 z m 2.64584,0 c -0.1402,0.007 -0.25116,0.12258 -0.25116,0.264584 v 1.058334 c 0,0.14658 0.118,0.264582 0.2646,0.264582 h 1.05832 c 0.1466,0 0.26458,-0.118 0.26458,-0.264582 v -1.058334 c 0,-0.14658 -0.118,-0.264584 -0.26458,-0.264584 h -1.05832 c -0.004,0 -0.008,-2.28e-4 -0.014,0 z m 2.64582,0 c -0.1402,0.007 -0.25114,0.12258 -0.25114,0.264584 v 1.058334 c 0,0.14658 0.118,0.264582 0.26458,0.264582 h 1.5875 c 0.1466,0 0.26458,-0.118 0.26458,-0.264582 v -1.058334 c 0,-0.14658 -0.118,-0.264584 -0.26458,-0.264584 h -1.5875 c -0.004,0 -0.01,-2.28e-4 -0.014,0 z m -10.58332,2.645834 c -0.1402,0.007 -0.25116,0.12258 -0.25116,0.264584 v 1.058332 c 0,0.14658 0.118,0.264582 0.2646,0.264582 h 1.5875 c 0.1466,0 0.26458,-0.118 0.26458,-0.264582 v -1.058332 c 0,-0.14658 -0.118,-0.264584 -0.26458,-0.264584 h -1.5875 c -0.004,0 -0.008,-2.28e-4 -0.014,0 z m 3.175,0 c -0.1402,0.007 -0.25116,0.12258 -0.25116,0.264584 v 1.058332 c 0,0.14658 0.118,0.264582 0.2646,0.264582 h 1.05832 c 0.1466,0 0.26458,-0.118 0.26458,-0.264582 v -1.058332 c 0,-0.14658 -0.118,-0.264584 -0.26458,-0.264584 h -1.05832 c -0.004,0 -0.008,-2.28e-4 -0.014,0 z m 2.64582,0 c -0.1402,0.007 -0.25114,0.12258 -0.25114,0.264584 v 1.058332 c 0,0.14658 0.118,0.264582 0.26458,0.264582 h 1.05834 c 0.1466,0 0.26458,-0.118 0.26458,-0.264582 v -1.058332 c 0,-0.14658 -0.118,-0.264584 -0.26458,-0.264584 h -1.05834 c -0.004,0 -0.008,-2.28e-4 -0.014,0 z m 2.64584,0 c -0.1402,0.007 -0.25114,0.12258 -0.25114,0.264584 v 1.058332 c 0,0.14658 0.118,0.264582 0.26458,0.264582 h 1.05834 c 0.1466,0 0.26458,-0.118 0.26458,-0.264582 v -1.058332 c 0,-0.14658 -0.118,-0.264584 -0.26458,-0.264584 h -1.05834 c -0.004,0 -0.008,-2.28e-4 -0.014,0 z m 2.64584,0 c -0.1402,0.007 -0.25116,0.12258 -0.25116,0.264584 v 1.058332 c 0,0.14658 0.118,0.264582 0.2646,0.264582 h 1.05832 c 0.1466,0 0.26458,-0.118 0.26458,-0.264582 v -1.058332 c 0,-0.14658 -0.118,-0.264584 -0.26458,-0.264584 h -1.05832 c -0.004,0 -0.01,-2.28e-4 -0.014,0 z m -11.09906,2.645832 c -0.1466,0 -0.2646,0.118 -0.2646,0.264584 v 1.058332 c 0,0.14658 0.118,0.264584 0.2646,0.264584 h 2.64582 c 0.1466,0 0.26458,-0.118 0.26458,-0.264584 v -1.058332 c 0,-0.14658 -0.118,-0.264584 -0.26458,-0.264584 z m 4.21988,0 c -0.1402,0.007 -0.25114,0.12258 -0.25114,0.264584 v 1.058332 c 0,0.14658 0.118,0.264584 0.26458,0.264584 h 1.05834 c 0.1466,0 0.26458,-0.118 0.26458,-0.264584 v -1.058332 c 0,-0.14658 -0.118,-0.264584 -0.26458,-0.264584 h -1.05834 c -0.004,0 -0.008,-2.28e-4 -0.014,0 z m 2.64584,0 c -0.1402,0.007 -0.25114,0.12258 -0.25114,0.264584 v 1.058332 c 0,0.14658 0.118,0.264584 0.26458,0.264584 h 1.05834 c 0.1466,0 0.26458,-0.118 0.26458,-0.264584 v -1.058332 c 0,-0.14658 -0.118,-0.264584 -0.26458,-0.264584 h -1.05834 c -0.004,0 -0.008,-2.28e-4 -0.014,0 z m 2.65928,0 c -0.1466,0 -0.2646,0.118 -0.2646,0.264584 v 1.058332 c 0,0.14658 0.118,0.264584 0.2646,0.264584 h 2.64582 c 0.1466,0 0.26458,-0.118 0.26458,-0.264584 v -1.058332 c 0,-0.14658 -0.118,-0.264584 -0.26458,-0.264584 z m -6.87918,2.645834 c -0.1466,0 -0.26458,0.118 -0.26458,0.264582 v 1.058334 c 0,0.14658 0.118,0.264586 0.26458,0.264586 h 6.87918 c 0.1466,0 0.26458,-0.118 0.26458,-0.264586 v -1.058334 c 0,-0.14658 -0.118,-0.264582 -0.26458,-0.264582 z" />
</svg>
