<?xml version="1.0" encoding="UTF-8" standalone="no"?>
<!-- Created with Inkscape (http://www.inkscape.org/) -->

<svg
   width="128"
   height="128"
   viewBox="0 0 33.866666 33.866666"
   version="1.1"
   id="svg5"
   inkscape:version="1.2 (dc2aedaf03, 2022-05-15)"
   sodipodi:docname="qt.svg"
   xmlns:inkscape="http://www.inkscape.org/namespaces/inkscape"
   xmlns:sodipodi="http://sodipodi.sourceforge.net/DTD/sodipodi-0.dtd"
   xmlns="http://www.w3.org/2000/svg"
   xmlns:svg="http://www.w3.org/2000/svg">
  <sodipodi:namedview
     id="namedview7"
     pagecolor="#ffffff"
     bordercolor="#666666"
     borderopacity="1.0"
     inkscape:pageshadow="2"
     inkscape:pageopacity="0.0"
     inkscape:pagecheckerboard="0"
     inkscape:document-units="px"
     showgrid="false"
     units="px"
     height="48px"
     inkscape:zoom="2.2364131"
     inkscape:cx="76.238153"
     inkscape:cy="68.636695"
     inkscape:window-width="1846"
     inkscape:window-height="1011"
     inkscape:window-x="0"
     inkscape:window-y="0"
     inkscape:window-maximized="1"
     inkscape:current-layer="svg5"
     inkscape:showpageshadow="2"
     inkscape:deskcolor="#d1d1d1" />
  <defs
     id="defs2" />
  <path
     id="rect845"
     style="opacity:1;fill:#33cb6c;fill-opacity:1;stroke-width:0.529166"
     d="M 6.8791665,6.3499999 2.1166666,11.1125 V 28.575 c 0,1.17263 0.9440358,2.116666 2.1166666,2.116666 H 26.987497 l 4.762502,-4.7625 V 8.4666665 c 0,-1.1726308 -0.944036,-2.1166666 -2.116668,-2.1166666 z"
     sodipodi:nodetypes="ccssccssc" />
  <path
     id="path345"
     style="opacity:0.5;fill:#000000;fill-opacity:1;stroke-width:0.529166"
     d="M 6.8791665,6.3499999 2.1166666,11.1125 v 17.462499 c 0,1.172629 0.944037,2.116667 2.1166666,2.116667 H 26.987499 l 4.7625,-4.7625 V 8.4666666 c 0,-1.1726297 -0.944036,-2.1166667 -2.116667,-2.1166667 z M 7.0114582,6.6145833 H 29.501041 c 1.099342,0 1.984375,0.8850323 1.984375,1.9843749 V 24.870833 l -4.497917,4.497916 H 4.3656249 c -1.0993426,0 -1.984375,-0.885032 -1.984375,-1.984374 V 11.244791 Z"
     sodipodi:nodetypes="ccssccssccssccsscc" />
  <path
     d="m 21.166665,10.825178 v 3.175 h -2.116666 v 1.5875 h 2.116666 v 4.357358 c 0,2.988234 1.057488,4.109308 2.955894,4.109308 h 2.335774 v -2.116666 h -2.10013 c -1.021068,0 -1.07487,-0.709364 -1.07487,-2.203482 v -4.146518 h 3.175 v -1.5875 h -3.175 v -3.175 z M 12.726873,10.31875 c -4.2020532,0 -5.3185398,2.374076 -5.3185398,6.856428 0,4.482354 1.0968466,6.908106 5.3185398,6.908106 h 1.198892 l 1.746664,2.986898 2.023648,-0.746208 -1.649512,-2.988966 c 1.570862,-0.747058 1.945102,-3.171596 1.945102,-6.15983 0,-4.482352 -1.062742,-6.856428 -5.264794,-6.856428 z m -0.0186,2.093928 c 2.563288,0 3.166738,1.859482 3.166732,4.925798 0,3.066316 -0.58402,4.599202 -3.166732,4.599202 -2.582711,0 -3.1832688,-1.532886 -3.1832688,-4.599202 0,-3.066316 0.6199808,-4.925798 3.1832688,-4.925798 z"
     style="opacity:0.3;fill:#000000;stroke-width:0.529166"
     id="path5657" />
  <path
     d="m 21.166665,10.560596 v 3.175 h -2.116666 v 1.5875 h 2.116666 v 4.357358 c 0,2.988234 1.057488,4.109308 2.955894,4.109308 h 2.335774 v -2.116666 h -2.10013 c -1.021068,0 -1.07487,-0.709364 -1.07487,-2.203482 v -4.146518 h 3.175 v -1.5875 h -3.175 v -3.175 z m -8.439792,-0.50643 c -4.2020532,0 -5.3185398,2.374076 -5.3185398,6.85643 0,4.482354 1.0968466,6.908106 5.3185398,6.908106 h 1.198892 l 1.746664,2.986898 2.023648,-0.746208 -1.649512,-2.988966 c 1.570862,-0.747058 1.945102,-3.171596 1.945102,-6.15983 0,-4.482354 -1.062742,-6.85643 -5.264794,-6.85643 z m -0.0186,2.09393 c 2.563288,0 3.166738,1.85948 3.166732,4.925796 0,3.066318 -0.58402,4.599204 -3.166732,4.599204 -2.582711,0 -3.1832688,-1.532886 -3.1832688,-4.599204 0,-3.066316 0.6199808,-4.925796 3.1832688,-4.925796 z"
     style="fill:#ffffff;stroke-width:0.529166"
     id="path1602"
     sodipodi:nodetypes="cccccssccssccccccsssccccssscsss" />
</svg>
