<?xml version="1.0" encoding="UTF-8" standalone="no"?>
<!-- Created with Inkscape (http://www.inkscape.org/) -->

<svg
   width="128"
   height="128"
   viewBox="0 0 33.866666 33.866666"
   version="1.1"
   id="svg5"
   inkscape:version="1.2 (dc2aedaf03, 2022-05-15)"
   sodipodi:docname="qvidcap.svg"
   xmlns:inkscape="http://www.inkscape.org/namespaces/inkscape"
   xmlns:sodipodi="http://sodipodi.sourceforge.net/DTD/sodipodi-0.dtd"
   xmlns="http://www.w3.org/2000/svg"
   xmlns:svg="http://www.w3.org/2000/svg">
  <sodipodi:namedview
     id="namedview7"
     pagecolor="#ffffff"
     bordercolor="#666666"
     borderopacity="1.0"
     inkscape:pageshadow="2"
     inkscape:pageopacity="0.0"
     inkscape:pagecheckerboard="0"
     inkscape:document-units="px"
     showgrid="false"
     units="px"
     height="48px"
     inkscape:zoom="1"
     inkscape:cx="109.5"
     inkscape:cy="54"
     inkscape:window-width="1920"
     inkscape:window-height="1011"
     inkscape:window-x="0"
     inkscape:window-y="0"
     inkscape:window-maximized="1"
     inkscape:current-layer="svg5"
     inkscape:showpageshadow="2"
     inkscape:deskcolor="#d1d1d1"
     showguides="false" />
  <defs
     id="defs2" />
  <rect
     style="opacity:1;fill:#9a8f70;fill-opacity:1;stroke-width:0.264583"
     id="rect845"
     width="29.633333"
     height="23.283333"
     x="2.1166666"
     y="7.4083333"
     ry="2.1166666" />
  <path
     id="rect898"
     style="fill:#000000;fill-opacity:1;stroke-width:0.529167;stroke-linejoin:bevel;opacity:0.5"
     d="M 4.2333332 7.4083332 C 3.0607012 7.4083332 2.1166666 8.3523677 2.1166666 9.5249998 L 2.1166666 28.574999 C 2.1166666 29.747632 3.0607012 30.691666 4.2333332 30.691666 L 29.633333 30.691666 C 30.805965 30.691666 31.749999 29.747632 31.749999 28.574999 L 31.749999 9.5249998 C 31.749999 8.3523677 30.805965 7.4083332 29.633333 7.4083332 L 4.2333332 7.4083332 z M 4.3656249 7.6729165 L 29.501041 7.6729165 C 30.600384 7.6729165 31.485416 8.5579488 31.485416 9.6572915 L 31.485416 27.648958 C 31.485416 28.7483 30.600384 29.633333 29.501041 29.633333 L 4.3656249 29.633333 C 3.2662823 29.633333 2.38125 28.7483 2.38125 27.648958 L 2.38125 9.6572915 C 2.38125 8.5579488 3.2662823 7.6729165 4.3656249 7.6729165 z " />
  <rect
     style="opacity:0.5;fill:#ffffff;fill-opacity:1;stroke-width:0.529167;stroke-linecap:round"
     id="rect1185"
     width="25.4"
     height="18.25625"
     x="4.2333331"
     y="9.260416"
     ry="0.26458332" />
</svg>
