<?xml version="1.0" encoding="UTF-8" standalone="no"?>
<!-- Created with Inkscape (http://www.inkscape.org/) -->

<svg
   width="128"
   height="128"
   viewBox="0 0 33.866666 33.866668"
   version="1.1"
   id="svg1099"
   inkscape:version="1.2 (dc2aedaf03, 2022-05-15)"
   sodipodi:docname="session-properties.svg"
   xmlns:inkscape="http://www.inkscape.org/namespaces/inkscape"
   xmlns:sodipodi="http://sodipodi.sourceforge.net/DTD/sodipodi-0.dtd"
   xmlns="http://www.w3.org/2000/svg"
   xmlns:svg="http://www.w3.org/2000/svg">
  <sodipodi:namedview
     id="namedview1101"
     pagecolor="#ffffff"
     bordercolor="#666666"
     borderopacity="1.0"
     inkscape:pageshadow="2"
     inkscape:pageopacity="0.0"
     inkscape:pagecheckerboard="0"
     inkscape:document-units="px"
     showgrid="false"
     units="px"
     inkscape:zoom="6.359375"
     inkscape:cx="64.157248"
     inkscape:cy="64"
     inkscape:window-width="1846"
     inkscape:window-height="1011"
     inkscape:window-x="0"
     inkscape:window-y="0"
     inkscape:window-maximized="1"
     inkscape:current-layer="svg1099"
     inkscape:showpageshadow="2"
     inkscape:deskcolor="#d1d1d1"
     showguides="false" />
  <defs
     id="defs1096" />
  <rect
     style="opacity:1;fill:#48b9c7;fill-opacity:1;stroke-width:1.05833;stroke-linecap:round"
     id="rect934"
     width="27.516666"
     height="27.516666"
     x="3.175"
     y="3.175"
     ry="2.2489583" />
  <path
     id="rect2485"
     style="opacity:0.5;fill:#000000;fill-opacity:1;stroke-width:0.529166"
     d="m 5.4239584,3.1750001 c -1.2459217,0 -2.2489583,1.0030366 -2.2489583,2.2489583 V 28.442709 c 0,1.245922 1.0030366,2.248958 2.2489583,2.248958 H 28.442709 c 1.245922,0 2.248958,-1.003036 2.248958,-2.248958 V 5.4239584 c 0,-1.2459217 -1.003036,-2.2489583 -2.248958,-2.2489583 z M 5.5562501,3.4395834 H 28.310417 c 1.172633,0 2.116667,0.9440345 2.116667,2.1166667 V 27.516667 c 0,1.172633 -0.944034,2.116667 -2.116667,2.116667 H 5.5562501 c -1.1726322,0 -2.1166667,-0.944034 -2.1166667,-2.116667 V 5.5562501 c 0,-1.1726322 0.9440345,-2.1166667 2.1166667,-2.1166667 z" />
  <path
     d="m 12.170834,11.641667 c -0.586318,0 -1.058334,0.472016 -1.058334,1.058332 v 4.7625 c 0,0.586316 0.472016,1.058334 1.058334,1.058334 h 6.35 c 0.586317,0 1.058333,-0.472018 1.058333,-1.058334 v -4.7625 c 0,-0.586316 -0.472016,-1.058332 -1.058333,-1.058332 z m 0,1.058332 h 6.35 v 4.7625 h -6.35 z"
     style="fill:#ffffff;stroke-width:0.557794;stroke-linecap:square;paint-order:fill markers stroke"
     id="path43230"
     sodipodi:nodetypes="sssssssssccccc" />
  <path
     d="m 20.108333,15.345833 v 1.058334 h 1.5875 v 4.762499 H 15.345834 V 19.049999 H 14.2875 v 2.116667 c 0,0.586318 0.472016,1.058334 1.058334,1.058334 h 6.349999 c 0.586318,0 1.058334,-0.472016 1.058334,-1.058334 v -4.762501 c 0,-0.586316 -0.472016,-1.058332 -1.058334,-1.058332 z"
     style="opacity:0.7;fill:#ffffff;stroke-width:0.557794;stroke-linecap:square;paint-order:fill markers stroke"
     id="path43258"
     sodipodi:nodetypes="cccccccssssssc" />
</svg>
