<?xml version="1.0" encoding="UTF-8" standalone="no"?>
<!-- Created with Inkscape (http://www.inkscape.org/) -->

<svg
   width="128"
   height="128"
   viewBox="0 0 33.866666 33.866668"
   version="1.1"
   id="svg1099"
   inkscape:version="1.2 (dc2aedaf03, 2022-05-15)"
   sodipodi:docname="skype.svg"
   xmlns:inkscape="http://www.inkscape.org/namespaces/inkscape"
   xmlns:sodipodi="http://sodipodi.sourceforge.net/DTD/sodipodi-0.dtd"
   xmlns="http://www.w3.org/2000/svg"
   xmlns:svg="http://www.w3.org/2000/svg">
  <sodipodi:namedview
     id="namedview1101"
     pagecolor="#ffffff"
     bordercolor="#666666"
     borderopacity="1.0"
     inkscape:pageshadow="2"
     inkscape:pageopacity="0.0"
     inkscape:pagecheckerboard="0"
     inkscape:document-units="px"
     showgrid="false"
     units="px"
     inkscape:zoom="6.359375"
     inkscape:cx="66.673219"
     inkscape:cy="72.805897"
     inkscape:window-width="1846"
     inkscape:window-height="1011"
     inkscape:window-x="0"
     inkscape:window-y="0"
     inkscape:window-maximized="1"
     inkscape:current-layer="svg1099"
     inkscape:showpageshadow="2"
     inkscape:deskcolor="#d1d1d1"
     showguides="false" />
  <defs
     id="defs1096" />
  <rect
     style="opacity:1;fill:#145475;fill-opacity:1;stroke-width:0.529165;stroke-linejoin:round"
     id="rect1925"
     width="17.4625"
     height="18.25625"
     x="14.2875"
     y="14.2875"
     ry="8.7312498" />
  <rect
     style="opacity:1;fill:#145475;fill-opacity:1;stroke-width:0.529165;stroke-linejoin:round"
     id="rect341"
     width="17.4625"
     height="18.25625"
     x="2.1166668"
     y="2.1166668"
     ry="8.7312498" />
  <rect
     style="opacity:1;fill:#145475;fill-opacity:1;stroke-width:0.264583"
     id="rect1196"
     width="28.045834"
     height="28.839584"
     x="2.9104166"
     y="2.9104166"
     ry="14.022917" />
  <circle
     style="opacity:1;fill:#1587d7;fill-opacity:1;stroke-width:1.05832;stroke-linejoin:round"
     id="path2655"
     cx="22.754168"
     cy="22.754168"
     r="8.4666662" />
  <circle
     style="opacity:1;fill:#1587d7;fill-opacity:1;stroke-width:1.25432;stroke-linejoin:round"
     id="path950"
     cx="10.847918"
     cy="10.847918"
     r="8.4666672" />
  <path
     id="path23994"
     style="opacity:0.1;fill:#000000;stroke-width:0.486234;stroke-linejoin:round"
     d="M 22.754167,14.2875 A 8.4666672,8.4666672 0 0 0 14.2875,22.754167 8.4666672,8.4666672 0 0 0 19.733162,30.660661 13.758333,13.758333 0 0 0 30.514933,19.370394 8.4666672,8.4666672 0 0 0 22.754167,14.2875 Z" />
  <circle
     style="opacity:1;fill:#28a8ea;fill-opacity:1;stroke-width:0.491369"
     id="path1427"
     cx="16.933332"
     cy="16.933332"
     r="13.758333" />
  <path
     d="m 13.390817,16.945757 c -0.533954,-0.338675 -0.979426,-0.791537 -1.30167,-1.323265 -0.311335,-0.561456 -0.465033,-1.191442 -0.445887,-1.827639 -0.0237,-0.80743 0.262428,-1.594962 0.803721,-2.212098 0.562408,-0.619738 1.285314,-1.084949 2.09514,-1.348289 0.880966,-0.2995189 1.809153,-0.4498809 2.743416,-0.4444189 0.611388,-0.0056 1.222142,0.03952 1.825492,0.13482 0.431587,0.06424 0.855475,0.1696209 1.265407,0.3146029 0.37658,0.1228 0.716526,0.331852 0.990588,0.609177 0.202,0.228104 0.310768,0.519248 0.305956,0.818972 0.0148,0.314432 -0.10096,0.621604 -0.321542,0.853908 -0.209214,0.214396 -0.503602,0.33251 -0.809034,0.324598 -0.207844,-0.0015 -0.412954,-0.04576 -0.601544,-0.1299 -0.464326,-0.200082 -0.942641,-0.368592 -1.431435,-0.504292 -0.450066,-0.11416 -0.914024,-0.16958 -1.379418,-0.16476 -0.606111,-0.02164 -1.205813,0.12572 -1.727002,0.42441 -0.448386,0.262184 -0.712758,0.73878 -0.689714,1.24338 -0.0032,0.324984 0.12508,0.63841 0.357788,0.873837 0.276726,0.27625 0.603682,0.501346 0.964671,0.664136 0.404542,0.19318 1.007837,0.449528 1.809883,0.769022 0.0889,0.02704 0.1756,0.06044 0.259346,0.0999 0.782668,0.298014 1.533045,0.66931 2.240333,1.108547 0.558732,0.350766 1.029848,0.816314 1.379508,1.363205 0.344118,0.574532 0.516428,1.229528 0.497858,1.892504 0.02892,0.81207 -0.212806,1.611743 -0.689804,2.282053 -0.485678,0.63456 -1.157562,1.114582 -1.929104,1.378228 -0.929687,0.319652 -1.912059,0.473638 -2.899047,0.454424 -1.356354,0.04594 -2.706296,-0.1997 -3.951678,-0.719078 -0.318696,-0.13648 -0.59813,-0.345556 -0.814209,-0.609182 -0.1791,-0.241442 -0.271936,-0.532352 -0.26452,-0.828966 -0.018,-0.3167 0.10888,-0.625122 0.347397,-0.843903 0.247386,-0.208608 0.568602,-0.317662 0.897176,-0.304592 0.365694,0.0048 0.724874,0.0939 1.04755,0.259644 0.400932,0.1932 0.7173,0.338035 0.9491,0.434513 0.264786,0.10678 0.539042,0.19034 0.819429,0.249638 0.34564,0.0731 0.698768,0.10826 1.052633,0.10482 0.625656,0.04286 1.248218,-0.11708 1.76853,-0.454342 0.39524,-0.297749 0.61724,-0.760627 0.59634,-1.243391 7.5e-4,-0.337754 -0.13282,-0.662972 -0.373332,-0.908854 -0.317828,-0.315258 -0.689738,-0.575382 -1.099384,-0.768946 -0.484118,-0.246312 -1.165249,-0.545928 -2.043396,-0.898849 -0.785618,-0.301366 -1.537896,-0.677766 -2.245558,-1.123564"
     style="opacity:0.2;fill:#000000;fill-rule:evenodd;stroke-width:0.529165"
     id="path10365"
     sodipodi:nodetypes="ccccccccccccccccccccccccccccccccccsccccccc" />
  <path
     d="M 13.390817,16.681174 C 12.856863,16.3425 12.411391,15.889636 12.089147,15.35791 11.777812,14.796454 11.624114,14.166467 11.64326,13.530271 c -0.0237,-0.807432 0.262428,-1.594962 0.803721,-2.212098 0.562408,-0.619737 1.285314,-1.084951 2.09514,-1.3482899 0.880966,-0.29952 1.809153,-0.449882 2.743416,-0.44442 0.611388,-0.0056 1.22214,0.03952 1.825492,0.13482 0.431587,0.06424 0.855475,0.16962 1.265407,0.314604 0.37658,0.1228009 0.716526,0.3318509 0.990588,0.6091789 0.202,0.228102 0.310768,0.519247 0.305956,0.818971 0.0148,0.314432 -0.10096,0.621604 -0.321542,0.853908 -0.209214,0.214396 -0.503602,0.332508 -0.809034,0.324598 -0.207844,-0.0015 -0.412954,-0.04576 -0.601544,-0.1299 -0.464326,-0.200082 -0.942641,-0.368594 -1.431437,-0.504292 -0.450064,-0.11416 -0.914022,-0.16958 -1.379416,-0.16476 -0.606111,-0.02164 -1.205813,0.12572 -1.727002,0.424408 -0.448386,0.262186 -0.712758,0.738782 -0.689714,1.243382 -0.0032,0.324984 0.12508,0.63841 0.357788,0.873836 0.276726,0.276252 0.603682,0.501345 0.964671,0.664135 0.404542,0.19318 1.007837,0.44953 1.809883,0.769024 0.0889,0.02704 0.1756,0.06044 0.259346,0.0999 0.782668,0.298014 1.533045,0.66931 2.240333,1.108545 0.558732,0.350768 1.029848,0.816318 1.379508,1.363208 0.344118,0.574529 0.516428,1.229527 0.497858,1.892503 0.02892,0.81207 -0.212806,1.611744 -0.689804,2.282053 -0.485678,0.63456 -1.157562,1.114582 -1.929104,1.378228 -0.929687,0.319652 -1.912059,0.473638 -2.899047,0.454424 -1.356354,0.04594 -2.706296,-0.1997 -3.951678,-0.719078 -0.318696,-0.13648 -0.59813,-0.345556 -0.814209,-0.609182 -0.1791,-0.241442 -0.271936,-0.532352 -0.26452,-0.828966 -0.018,-0.316699 0.10888,-0.625121 0.347397,-0.843903 0.247386,-0.208608 0.568602,-0.317662 0.897176,-0.304592 0.365694,0.0048 0.724874,0.0939 1.04755,0.259644 0.400932,0.1932 0.7173,0.338036 0.9491,0.434514 0.264786,0.10678 0.539042,0.19034 0.819429,0.249638 0.34564,0.0731 0.698768,0.108259 1.052633,0.104819 0.625656,0.04286 1.248218,-0.117079 1.76853,-0.454341 0.395238,-0.29775 0.61724,-0.760628 0.59634,-1.243392 7.5e-4,-0.337754 -0.13282,-0.662972 -0.373332,-0.908854 -0.31783,-0.315268 -0.68974,-0.575392 -1.099384,-0.768956 -0.484118,-0.246312 -1.165249,-0.545927 -2.043396,-0.898849 -0.785618,-0.301366 -1.537896,-0.677768 -2.245558,-1.123565"
     style="fill:#ffffff;fill-rule:evenodd;stroke-width:0.529165"
     id="path11120" />
</svg>
