<?xml version="1.0" encoding="UTF-8" standalone="no"?>
<!-- Created with Inkscape (http://www.inkscape.org/) -->

<svg
   width="128"
   height="128"
   viewBox="0 0 33.866666 33.866668"
   version="1.1"
   id="svg1099"
   inkscape:version="1.2 (dc2aedaf03, 2022-05-15)"
   sodipodi:docname="system-config-printer.svg"
   xmlns:inkscape="http://www.inkscape.org/namespaces/inkscape"
   xmlns:sodipodi="http://sodipodi.sourceforge.net/DTD/sodipodi-0.dtd"
   xmlns="http://www.w3.org/2000/svg"
   xmlns:svg="http://www.w3.org/2000/svg">
  <sodipodi:namedview
     id="namedview1101"
     pagecolor="#ffffff"
     bordercolor="#666666"
     borderopacity="1.0"
     inkscape:pageshadow="2"
     inkscape:pageopacity="0.0"
     inkscape:pagecheckerboard="0"
     inkscape:document-units="px"
     showgrid="false"
     units="px"
     inkscape:zoom="6.390625"
     inkscape:cx="64"
     inkscape:cy="64"
     inkscape:window-width="1846"
     inkscape:window-height="1015"
     inkscape:window-x="0"
     inkscape:window-y="0"
     inkscape:window-maximized="1"
     inkscape:current-layer="svg1099"
     inkscape:showpageshadow="2"
     inkscape:deskcolor="#d1d1d1"
     showguides="false" />
  <defs
     id="defs1096" />
  <rect
     style="fill:#dedede;fill-opacity:1;stroke-width:0.529167"
     id="rect26675"
     width="19.049999"
     height="7.4083333"
     x="7.4083333"
     y="2.1166663"
     ry="1.0583334" />
  <path
     d="m 8.4666645,2.1166663 c -0.586316,0 -1.058333,0.4720167 -1.058333,1.0583334 v 9.7895833 c 6.09e-4,0.256018 0.09469,0.503001 0.264583,0.694531 V 3.1749997 c 0,-0.4397375 0.354013,-0.79375 0.79375,-0.79375 H 25.375128 c 0.439738,0 0.79375,0.3540125 0.79375,0.79375 V 13.689012 c 0.185741,-0.19547 0.289353,-0.454785 0.289455,-0.724429 V 3.1749997 c 0,-0.5863167 -0.472017,-1.0583334 -1.058334,-1.0583334 z"
     style="fill:#010101;fill-opacity:1;stroke-width:0.264583;opacity:0.5"
     id="path7055" />
  <rect
     style="fill:#474341;fill-opacity:1;stroke-width:0.529167"
     id="rect15360"
     width="27.516666"
     height="13.758333"
     x="3.175"
     y="9.5249996"
     ry="2.1166668" />
  <path
     d="m 5.2916664,9.5249996 c -1.172634,0 -2.1166671,0.9440334 -2.1166671,2.1166664 v 9.525001 c 0,1.172633 0.9440331,2.116666 2.1166671,2.116666 H 28.575 c 1.172633,0 2.116666,-0.944033 2.116666,-2.116666 v -9.525001 c 0,-1.172633 -0.944033,-2.1166664 -2.116666,-2.1166664 z m 0,0.264583 H 28.575 c 1.026054,0 1.852083,0.8260294 1.852083,1.8520834 v 8.731251 c 0,1.026054 -0.826029,1.852083 -1.852083,1.852083 H 5.2916664 c -1.026055,0 -1.8520838,-0.826029 -1.8520838,-1.852083 v -8.731251 c 0,-1.026054 0.8260288,-1.8520834 1.8520838,-1.8520834 z"
     style="opacity:0.5;fill:#ffffff;fill-opacity:1;stroke-width:0.529167"
     id="path865" />
  <circle
     style="fill:#73c48f;fill-opacity:1;stroke-width:0.264583"
     id="path13158"
     cx="6.8791666"
     cy="13.229167"
     r="1.0583334" />
  <rect
     style="fill:#dedede;fill-opacity:1;stroke-width:0.264583"
     id="rect17074"
     width="19.049999"
     height="14.816668"
     x="7.4083333"
     y="16.933334"
     ry="1.0583334" />
  <path
     d="m 26.168879,17.266709 v 12.63068 c 0,0.439737 -0.354013,0.79375 -0.79375,0.79375 H 8.4666656 c -0.4397375,0 -0.79375,-0.354013 -0.79375,-0.79375 V 17.296607 c -0.1698884,0.19153 -0.2639772,0.438513 -0.2645833,0.694531 v 12.700001 c 0,0.586316 0.4720166,1.058333 1.0583333,1.058333 H 25.4 c 0.586316,0 1.058333,-0.472017 1.058333,-1.058333 V 17.991138 c 0,-0.281781 -0.111125,-0.535252 -0.289454,-0.724429 z"
     style="fill:#010101;fill-opacity:1;stroke-width:0.264583;opacity:0.5"
     id="path5575" />
  <rect
     style="fill:#552d5d;fill-opacity:1;stroke-width:0.511527"
     id="rect12654"
     width="15.345833"
     height="16.139584"
     x="18.520834"
     y="17.727083"
     ry="7.6729164" />
  <circle
     style="fill:#aa5abb;fill-opacity:1;stroke-width:0.529166"
     id="path13694"
     cx="26.19375"
     cy="25.4"
     r="7.4083333" />
  <path
     d="m 25.267713,21.695832 -0.08176,0.975783 c -0.309279,0.114585 -0.596831,0.280907 -0.850371,0.49186 l -0.886883,-0.417512 -0.926042,1.603904 0.805128,0.559329 c -0.02867,0.16205 -0.04354,0.326239 -0.04445,0.490802 9.5e-5,0.16521 0.01426,0.330112 0.04233,0.492919 l -0.803011,0.557212 0.926042,1.603905 0.884767,-0.416455 c 0.254392,0.21013 0.542663,0.375468 0.852487,0.48895 l 0.08176,0.977636 h 1.852083 l 0.08149,-0.975519 c 0.309391,-0.114639 0.597035,-0.281051 0.850636,-0.492125 l 0.886883,0.417513 0.926042,-1.603905 -0.805127,-0.559064 c 0.02868,-0.162137 0.04355,-0.326415 0.04445,-0.491067 -9.5e-5,-0.16521 -0.01426,-0.330112 -0.04233,-0.492919 l 0.803011,-0.557212 -0.926042,-1.603904 -0.884766,0.416454 c -0.254392,-0.210128 -0.542663,-0.375468 -0.852488,-0.48895 l -0.08176,-0.977635 z m 0.926041,2.645833 c 0.584502,0 1.058333,0.473832 1.058333,1.058333 0,0.584502 -0.473831,1.058334 -1.058333,1.058334 -0.584501,0 -1.058333,-0.473832 -1.058333,-1.058334 0,-0.584501 0.473832,-1.058333 1.058333,-1.058333 z"
     style="fill:#fafafb;stroke-width:0.264583"
     id="path704" />
</svg>
