<?xml version="1.0" encoding="UTF-8" standalone="no"?>
<!-- Created with Inkscape (http://www.inkscape.org/) -->

<svg
   width="128"
   height="128"
   viewBox="0 0 33.866666 33.866668"
   version="1.1"
   id="svg1099"
   inkscape:version="1.2 (dc2aedaf03, 2022-05-15)"
   sodipodi:docname="telegram.svg"
   xmlns:inkscape="http://www.inkscape.org/namespaces/inkscape"
   xmlns:sodipodi="http://sodipodi.sourceforge.net/DTD/sodipodi-0.dtd"
   xmlns="http://www.w3.org/2000/svg"
   xmlns:svg="http://www.w3.org/2000/svg">
  <sodipodi:namedview
     id="namedview1101"
     pagecolor="#ffffff"
     bordercolor="#666666"
     borderopacity="1.0"
     inkscape:pageshadow="2"
     inkscape:pageopacity="0.0"
     inkscape:pagecheckerboard="0"
     inkscape:document-units="px"
     showgrid="false"
     units="px"
     inkscape:zoom="3.294667"
     inkscape:cx="-4.2492914"
     inkscape:cy="41.27883"
     inkscape:window-width="1846"
     inkscape:window-height="1015"
     inkscape:window-x="0"
     inkscape:window-y="0"
     inkscape:window-maximized="1"
     inkscape:current-layer="svg1099"
     inkscape:showpageshadow="2"
     inkscape:deskcolor="#d1d1d1" />
  <defs
     id="defs1096" />
  <rect
     style="opacity:1;fill:#145271;fill-opacity:1;stroke-width:0.529166"
     id="rect1196"
     width="31.75"
     height="32.543751"
     x="1.0583334"
     y="1.0583334"
     ry="15.875" />
  <circle
     style="opacity:1;fill:#28a4e2;fill-opacity:1;stroke-width:0.536019"
     id="path6320"
     cx="16.933334"
     cy="16.933332"
     r="15.610416" />
  <path
     d="M 23.210196,24.490564 C 23.4954,23.94406 25.1342,14.599428 25.368474,12.18382 25.621922,9.7901585 24.30042,10.23528 23.084428,10.639645 c -2.983302,0.9955 -12.415553,5.030648 -14.9973436,6.362403 -0.6356124,0.260468 -0.9103509,0.702404 -0.4478678,1.08491 0.3981974,0.32422 1.8552812,0.769526 3.0303814,0.995509 1.001721,0.299905 1.779812,0.01264 2.498055,-0.387745 1.726076,-1.011338 6.869389,-4.22774 7.146363,-4.407024 0.276974,-0.179284 0.580116,0.15344 0.425104,0.314512 -0.15502,0.161072 -3.797591,3.389251 -4.993531,4.848817 -0.633592,0.802535 -0.614614,1.230995 0.03627,1.737067 1.460203,1.131562 5.361571,3.71123 5.942079,3.867154 0.740238,0.19882 1.173772,0.03412 1.486264,-0.564684 z"
     style="opacity:0.2;fill:#000000;stroke-width:0.529166"
     id="path2237" />
  <path
     d="M 23.210196,24.225981 C 23.4954,23.679477 25.1342,14.334844 25.368474,11.919236 25.621922,9.5255753 24.30042,9.9706971 23.084428,10.375062 c -2.983302,0.995499 -12.415552,5.030647 -14.9973435,6.362402 -0.6356124,0.260469 -0.9103509,0.702405 -0.4478678,1.084911 0.3981974,0.32422 1.8552811,0.769525 3.0303823,0.995508 1.001721,0.299905 1.779812,0.01264 2.498054,-0.387744 1.726076,-1.011339 6.869389,-4.227741 7.146363,-4.407025 0.276974,-0.179284 0.580116,0.15344 0.425104,0.314512 -0.15502,0.161072 -3.79759,3.389251 -4.993531,4.848817 -0.633591,0.802535 -0.614613,1.230996 0.03627,1.737068 1.460204,1.131562 5.361571,3.71123 5.942079,3.867154 0.740238,0.19882 1.173772,0.03412 1.486264,-0.564684 z"
     style="fill:#ffffff;stroke-width:0.529166"
     id="path304"
     sodipodi:nodetypes="cccccccscccccc" />
</svg>
