<?xml version="1.0" encoding="UTF-8" standalone="no"?>
<!-- Created with Inkscape (http://www.inkscape.org/) -->

<svg
   width="128"
   height="128"
   viewBox="0 0 33.866666 33.866668"
   version="1.1"
   id="svg1099"
   inkscape:version="1.2 (dc2aedaf03, 2022-05-15)"
   sodipodi:docname="tilix.svg"
   xmlns:inkscape="http://www.inkscape.org/namespaces/inkscape"
   xmlns:sodipodi="http://sodipodi.sourceforge.net/DTD/sodipodi-0.dtd"
   xmlns="http://www.w3.org/2000/svg"
   xmlns:svg="http://www.w3.org/2000/svg">
  <sodipodi:namedview
     id="namedview1101"
     pagecolor="#ffffff"
     bordercolor="#666666"
     borderopacity="1.0"
     inkscape:pageshadow="2"
     inkscape:pageopacity="0.0"
     inkscape:pagecheckerboard="0"
     inkscape:document-units="px"
     showgrid="false"
     units="px"
     inkscape:zoom="6.589334"
     inkscape:cx="37.40894"
     inkscape:cy="72.844995"
     inkscape:window-width="1920"
     inkscape:window-height="1011"
     inkscape:window-x="0"
     inkscape:window-y="0"
     inkscape:window-maximized="1"
     inkscape:current-layer="svg1099"
     inkscape:showpageshadow="2"
     inkscape:deskcolor="#d1d1d1" />
  <defs
     id="defs1096" />
  <rect
     style="opacity:1;fill:#cdcdcd;fill-opacity:1;stroke-width:0.529166"
     id="rect1196"
     width="29.633333"
     height="23.283333"
     x="2.1166668"
     y="7.4083338"
     ry="2.1166668" />
  <path
     id="rect2612"
     style="fill:#424242;fill-opacity:1;stroke-width:0.529167"
     d="M 4.4979167 9.5250001 C 4.3513377 9.5250001 4.2333334 9.6430044 4.2333334 9.7895834 L 4.2333334 27.516667 C 4.2333334 27.663246 4.3513377 27.78125 4.4979167 27.78125 L 15.875 27.78125 L 15.875 9.5250001 L 4.4979167 9.5250001 z M 17.727084 9.5250001 L 17.727084 17.4625 L 29.633334 17.4625 L 29.633334 9.7895834 C 29.633334 9.6430044 29.515329 9.5250001 29.36875 9.5250001 L 17.727084 9.5250001 z M 17.727084 19.314584 L 17.727084 27.78125 L 29.36875 27.78125 C 29.515329 27.78125 29.633334 27.663246 29.633334 27.516667 L 29.633334 19.314584 L 17.727084 19.314584 z " />
  <path
     id="path4379"
     style="fill:#f6f6f6;fill-opacity:1;stroke-width:0.264583"
     d="M 6.8791667 10.847917 L 6.8791667 11.377083 C 6.2946663 11.377083 5.8208334 11.850916 5.8208334 12.435417 C 5.8208334 13.019917 6.2946663 13.49375 6.8791667 13.49375 L 6.8791667 14.552083 L 5.8208334 14.552083 L 5.8208334 15.08125 L 6.8791667 15.08125 L 6.8791667 15.610417 L 7.4083334 15.610417 L 7.4083334 15.08125 C 7.9928338 15.08125 8.4666667 14.607417 8.4666667 14.022917 C 8.4666667 13.438416 7.9928338 12.964583 7.4083334 12.964583 L 7.4083334 11.90625 L 7.9375001 11.90625 L 7.9375001 11.377083 L 7.4083334 11.377083 L 7.4083334 10.847917 L 6.8791667 10.847917 z M 20.372917 10.847917 L 20.372917 11.377083 C 19.788416 11.377083 19.314584 11.850916 19.314584 12.435417 C 19.314584 13.019917 19.788416 13.49375 20.372917 13.49375 L 20.372917 14.552083 L 19.314584 14.552083 L 19.314584 15.08125 L 20.372917 15.08125 L 20.372917 15.610417 L 20.902084 15.610417 L 20.902084 15.08125 C 21.486584 15.08125 21.960417 14.607417 21.960417 14.022917 C 21.960417 13.438416 21.486584 12.964583 20.902084 12.964583 L 20.902084 11.90625 L 21.43125 11.90625 L 21.43125 11.377083 L 20.902084 11.377083 L 20.902084 10.847917 L 20.372917 10.847917 z M 6.8791667 11.90625 L 6.8791667 12.964583 C 6.586917 12.964583 6.3500001 12.727667 6.3500001 12.435417 C 6.3500001 12.143167 6.586917 11.90625 6.8791667 11.90625 z M 20.372917 11.90625 L 20.372917 12.964583 C 20.080667 12.964583 19.84375 12.727667 19.84375 12.435417 C 19.84375 12.143167 20.080667 11.90625 20.372917 11.90625 z M 7.4083334 13.49375 C 7.7005831 13.49375 7.9375001 13.730667 7.9375001 14.022917 C 7.9375001 14.315168 7.7005831 14.552083 7.4083334 14.552083 L 7.4083334 13.49375 z M 20.902084 13.49375 C 21.194333 13.49375 21.43125 13.730667 21.43125 14.022917 C 21.43125 14.315168 21.194333 14.552083 20.902084 14.552083 L 20.902084 13.49375 z M 8.9958334 15.08125 L 8.9958334 15.610417 L 11.641667 15.610417 L 11.641667 15.08125 L 8.9958334 15.08125 z M 22.489584 15.08125 L 22.489584 15.610417 L 25.135417 15.610417 L 25.135417 15.08125 L 22.489584 15.08125 z M 20.372917 20.6375 L 20.372917 21.166667 C 19.788416 21.166667 19.314584 21.6405 19.314584 22.225 C 19.314584 22.809501 19.788416 23.283334 20.372917 23.283334 L 20.372917 24.341667 L 19.314584 24.341667 L 19.314584 24.870834 L 20.372917 24.870834 L 20.372917 25.4 L 20.902084 25.4 L 20.902084 24.870834 C 21.486584 24.870834 21.960417 24.397001 21.960417 23.8125 C 21.960417 23.228 21.486584 22.754167 20.902084 22.754167 L 20.902084 21.695834 L 21.43125 21.695834 L 21.43125 21.166667 L 20.902084 21.166667 L 20.902084 20.6375 L 20.372917 20.6375 z M 20.372917 21.695834 L 20.372917 22.754167 C 20.080667 22.754167 19.84375 22.517251 19.84375 22.225 C 19.84375 21.932751 20.080667 21.695834 20.372917 21.695834 z M 20.902084 23.283334 C 21.194333 23.283334 21.43125 23.520251 21.43125 23.8125 C 21.43125 24.104751 21.194333 24.341667 20.902084 24.341667 L 20.902084 23.283334 z M 22.489584 24.870834 L 22.489584 25.4 L 25.135417 25.4 L 25.135417 24.870834 L 22.489584 24.870834 z " />
  <path
     d="m 4.2333324,7.4083338 c -1.172633,0 -2.116666,0.9440334 -2.116666,2.1166667 V 28.575005 c 0,1.172633 0.944033,2.116666 2.116666,2.116666 H 29.633334 c 1.172633,0 2.116667,-0.944033 2.116667,-2.116666 V 9.5250005 c 0,-1.1726333 -0.944034,-2.1166667 -2.116667,-2.1166667 z m 0.132292,0.2645834 H 29.501042 c 1.099344,0 1.984375,0.8850312 1.984375,1.984375 V 27.648963 c 0,1.099344 -0.885031,1.984375 -1.984375,1.984375 H 4.3656244 c -1.096911,0.0024 -1.986723,-0.887463 -1.984375,-1.984375 V 9.6572922 c 0,-1.0993438 0.885031,-1.984375 1.984375,-1.984375 z"
     style="fill:#666666;stroke-width:0.264583"
     id="path407" />
</svg>
