<?xml version="1.0" encoding="UTF-8" standalone="no"?>
<!-- Created with Inkscape (http://www.inkscape.org/) -->

<svg
   width="128"
   height="128"
   viewBox="0 0 33.866666 33.866666"
   version="1.1"
   id="svg5"
   inkscape:version="1.2 (dc2aedaf03, 2022-05-15)"
   sodipodi:docname="ubiquity.svg"
   xmlns:inkscape="http://www.inkscape.org/namespaces/inkscape"
   xmlns:sodipodi="http://sodipodi.sourceforge.net/DTD/sodipodi-0.dtd"
   xmlns="http://www.w3.org/2000/svg"
   xmlns:svg="http://www.w3.org/2000/svg">
  <sodipodi:namedview
     id="namedview7"
     pagecolor="#ffffff"
     bordercolor="#666666"
     borderopacity="1.0"
     inkscape:pageshadow="2"
     inkscape:pageopacity="0.0"
     inkscape:pagecheckerboard="0"
     inkscape:document-units="px"
     showgrid="false"
     units="px"
     height="48px"
     inkscape:zoom="6.25"
     inkscape:cx="51.12"
     inkscape:cy="66.08"
     inkscape:window-width="1920"
     inkscape:window-height="1011"
     inkscape:window-x="0"
     inkscape:window-y="0"
     inkscape:window-maximized="1"
     inkscape:current-layer="svg5"
     inkscape:showpageshadow="2"
     inkscape:deskcolor="#d1d1d1"
     showguides="false" />
  <defs
     id="defs2" />
  <rect
     style="opacity:1;fill:#565656;fill-opacity:1;stroke-width:0.529167"
     id="rect479"
     width="23.8125"
     height="30.956249"
     x="5.0270834"
     y="1.8520833"
     ry="2.2489583" />
  <rect
     style="opacity:1;fill:#acacac;fill-opacity:1;stroke-width:0.529167"
     id="rect3992"
     width="23.283333"
     height="29.633333"
     x="5.2916665"
     y="2.1166666"
     ry="2.1166666" />
  <path
     d="m 16.933333,6.3500004 c -4.091509,0 -7.4083333,3.316824 -7.4083333,7.4083326 0.0054,0.244108 0,6.35 0,6.35 0,0.586317 0.472017,1.058333 1.0583333,1.058333 0,0 6.105892,-0.0054 6.35,0 4.09151,0 7.408333,-3.316823 7.408333,-7.408333 0,-4.0915086 -3.316823,-7.4083326 -7.408333,-7.4083326 z"
     id="path13310"
     style="stroke-width:0.264583;fill-opacity:1;fill:#444444" />
  <circle
     style="opacity:1;fill:#acacac;fill-opacity:1;stroke-width:0.926042"
     id="path11835"
     cx="16.933331"
     cy="13.758334"
     r="3.7041667" />
  <rect
     style="fill:#742a13;fill-opacity:1;stroke-width:0.511527"
     id="rect12654"
     width="15.345833"
     height="16.139584"
     x="18.520834"
     y="17.727083"
     ry="7.6729164" />
  <circle
     style="fill:#e95427;fill-opacity:1;stroke-width:0.529166"
     id="path13694"
     cx="26.19375"
     cy="25.4"
     r="7.4083333" />
  <path
     d="m 25.135417,21.166666 v 3.175 h -1.322916 l 2.38125,3.704166 2.381249,-3.704166 h -1.322916 v -3.175 z m -1.5875,7.408333 c -0.293158,0 -0.529166,0.236008 -0.529166,0.529167 0,0.293158 0.236008,0.529166 0.529166,0.529166 h 5.291667 c 0.293158,0 0.529166,-0.236008 0.529166,-0.529166 0,-0.293159 -0.236008,-0.529167 -0.529166,-0.529167 z"
     id="path18582"
     style="stroke-width:0.264583;fill:#ffffff;fill-opacity:1"
     sodipodi:nodetypes="ccccccccsssssss" />
</svg>
