<?xml version="1.0" encoding="UTF-8" standalone="no"?>
<!-- Created with Inkscape (http://www.inkscape.org/) -->

<svg
   width="128"
   height="128"
   viewBox="0 0 33.866666 33.866668"
   version="1.1"
   id="svg1099"
   inkscape:version="1.2 (dc2aedaf03, 2022-05-15)"
   sodipodi:docname="utilities-log-viewer.svg"
   xmlns:inkscape="http://www.inkscape.org/namespaces/inkscape"
   xmlns:sodipodi="http://sodipodi.sourceforge.net/DTD/sodipodi-0.dtd"
   xmlns="http://www.w3.org/2000/svg"
   xmlns:svg="http://www.w3.org/2000/svg">
  <sodipodi:namedview
     id="namedview1101"
     pagecolor="#ffffff"
     bordercolor="#666666"
     borderopacity="1.0"
     inkscape:pageshadow="2"
     inkscape:pageopacity="0.0"
     inkscape:pagecheckerboard="0"
     inkscape:document-units="px"
     showgrid="false"
     units="px"
     inkscape:zoom="6.359375"
     inkscape:cx="64"
     inkscape:cy="64"
     inkscape:window-width="1920"
     inkscape:window-height="1011"
     inkscape:window-x="0"
     inkscape:window-y="0"
     inkscape:window-maximized="1"
     inkscape:current-layer="svg1099"
     inkscape:showpageshadow="2"
     inkscape:deskcolor="#d1d1d1" />
  <defs
     id="defs1096" />
  <rect
     style="opacity:1;fill:#cdcdcd;fill-opacity:1;stroke-width:0.529166"
     id="rect1196"
     width="29.633333"
     height="23.283333"
     x="2.1166668"
     y="7.4083338"
     ry="2.1166668" />
  <rect
     style="fill:#424242;fill-opacity:1;stroke-width:0.529167"
     id="rect2612"
     width="25.400002"
     height="18.25625"
     x="4.2333336"
     y="9.5249996"
     ry="0.26458335" />
  <path
     d="m 7.3613089,12.435417 c -0.2672158,0 -0.4821418,0.214926 -0.4821418,0.482142 v 0.09405 c 0,0.267216 0.214926,0.482142 0.4821418,0.482142 H 25.976189 c 0.267216,0 0.482143,-0.214926 0.482143,-0.482142 v -0.09405 c 0,-0.267216 -0.214927,-0.482142 -0.482143,-0.482142 z m 0,3.704167 c -0.2672158,0 -0.4821418,0.214926 -0.4821418,0.482142 v 0.09405 c 0,0.267216 0.214926,0.482142 0.4821418,0.482142 H 25.976189 c 0.267216,0 0.482143,-0.214926 0.482143,-0.482142 v -0.09405 c 0,-0.267216 -0.214927,-0.482142 -0.482143,-0.482142 z m 0,3.704167 c -0.2672158,0 -0.4821418,0.214926 -0.4821418,0.482142 v 0.09405 c 0,0.267216 0.214926,0.482142 0.4821418,0.482142 H 25.976189 c 0.267216,0 0.482143,-0.214926 0.482143,-0.482142 v -0.09405 c 0,-0.267216 -0.214927,-0.482142 -0.482143,-0.482142 z m 0,3.704167 c -0.2672158,0 -0.4821418,0.214926 -0.4821418,0.482142 v 0.09405 c 0,0.267216 0.214926,0.482142 0.4821418,0.482142 h 8.5607151 c 0.267216,0 0.482142,-0.214926 0.482142,-0.482142 v -0.09405 c 0,-0.267216 -0.214926,-0.482142 -0.482142,-0.482142 z"
     style="opacity:0.3;fill:#000000;fill-opacity:1;stroke-width:0.264583"
     id="path11642" />
  <path
     d="m 7.3613085,12.170832 c -0.2672158,0 -0.4821418,0.214926 -0.4821418,0.482142 v 0.09405 c 0,0.267216 0.214926,0.482142 0.4821418,0.482142 H 25.976189 c 0.267216,0 0.482143,-0.214926 0.482143,-0.482142 v -0.09405 c 0,-0.267216 -0.214927,-0.482142 -0.482143,-0.482142 z m 0,3.704167 c -0.2672158,0 -0.4821418,0.214926 -0.4821418,0.482142 v 0.09405 c 0,0.267216 0.214926,0.482142 0.4821418,0.482142 H 25.976189 c 0.267216,0 0.482143,-0.214926 0.482143,-0.482142 v -0.09405 c 0,-0.267216 -0.214927,-0.482142 -0.482143,-0.482142 z m 0,3.704166 c -0.2672158,0 -0.4821418,0.214926 -0.4821418,0.482142 v 0.09405 c 0,0.267216 0.214926,0.482142 0.4821418,0.482142 H 25.976189 c 0.267216,0 0.482143,-0.214926 0.482143,-0.482142 v -0.09405 c 0,-0.267216 -0.214927,-0.482142 -0.482143,-0.482142 z m 0,3.704167 c -0.2672158,0 -0.4821418,0.214926 -0.4821418,0.482142 v 0.09405 c 0,0.267216 0.214926,0.482142 0.4821418,0.482142 h 8.5607145 c 0.267216,0 0.482142,-0.214926 0.482142,-0.482142 v -0.09405 c 0,-0.267216 -0.214926,-0.482142 -0.482142,-0.482142 z"
     style="fill:#ffffff;fill-opacity:1;stroke-width:0.264583"
     id="path918"
     sodipodi:nodetypes="ssssssssssssssssssssssssssssssssssss" />
  <path
     d="m 4.2333324,7.4083338 c -1.172633,0 -2.116666,0.9440334 -2.116666,2.1166667 V 28.575005 c 0,1.172633 0.944033,2.116666 2.116666,2.116666 H 29.633334 c 1.172633,0 2.116667,-0.944033 2.116667,-2.116666 V 9.5250005 c 0,-1.1726333 -0.944034,-2.1166667 -2.116667,-2.1166667 z m 0.132292,0.2645834 H 29.501042 c 1.099344,0 1.984375,0.8850312 1.984375,1.984375 V 27.648963 c 0,1.099344 -0.885031,1.984375 -1.984375,1.984375 H 4.3656244 c -1.096911,0.0024 -1.986723,-0.887463 -1.984375,-1.984375 V 9.6572922 c 0,-1.0993438 0.885031,-1.984375 1.984375,-1.984375 z"
     style="fill:#666666;stroke-width:0.264583"
     id="path407" />
  <rect
     style="fill:#6f4400;fill-opacity:1;stroke-width:0.264583"
     id="rect49816"
     width="13.758333"
     height="12.435416"
     x="19.049999"
     y="19.314583"
     ry="2.778125" />
  <rect
     style="fill:#de8800;fill-opacity:1;stroke-width:0.264583"
     id="rect3945"
     width="13.229166"
     height="11.1125"
     x="19.314581"
     y="19.579166"
     ry="2.6458333" />
  <path
     d="m 25.929164,22.489584 c -1.796671,0.0025 -3.43681,1.029675 -4.233333,2.651125 0.79947,1.617337 2.439011,2.64 4.233333,2.640542 1.796671,-0.0026 3.43681,-1.029674 4.233333,-2.651125 -0.79947,-1.617337 -2.439011,-2.64 -4.233333,-2.640542 z m 0,0.529167 c 1.169003,0 2.116667,0.947664 2.116667,2.116667 0,1.169003 -0.947664,2.116666 -2.116667,2.116666 -1.169003,0 -2.116667,-0.947663 -2.116667,-2.116666 0,-1.169003 0.947664,-2.116667 2.116667,-2.116667 z m 0,1.058333 c -0.584501,0 -1.058333,0.473832 -1.058333,1.058334 0,0.584501 0.473832,1.058333 1.058333,1.058333 0.584501,0 1.058333,-0.473832 1.058333,-1.058333 0,-0.584502 -0.473832,-1.058334 -1.058333,-1.058334 z"
     style="fill:#ffffff;stroke-width:0.264583"
     id="path8106" />
</svg>
