<?xml version="1.0" encoding="UTF-8" standalone="no"?>
<!-- Created with Inkscape (http://www.inkscape.org/) -->

<svg
   width="128"
   height="128"
   viewBox="0 0 33.866666 33.866668"
   version="1.1"
   id="svg1099"
   inkscape:version="1.2 (dc2aedaf03, 2022-05-15)"
   sodipodi:docname="virtualbox.svg"
   xmlns:inkscape="http://www.inkscape.org/namespaces/inkscape"
   xmlns:sodipodi="http://sodipodi.sourceforge.net/DTD/sodipodi-0.dtd"
   xmlns="http://www.w3.org/2000/svg"
   xmlns:svg="http://www.w3.org/2000/svg">
  <sodipodi:namedview
     id="namedview1101"
     pagecolor="#ffffff"
     bordercolor="#666666"
     borderopacity="1.0"
     inkscape:pageshadow="2"
     inkscape:pageopacity="0.0"
     inkscape:pagecheckerboard="0"
     inkscape:document-units="px"
     showgrid="false"
     units="px"
     inkscape:zoom="4.3807475"
     inkscape:cx="18.489995"
     inkscape:cy="66.883563"
     inkscape:window-width="1920"
     inkscape:window-height="1011"
     inkscape:window-x="0"
     inkscape:window-y="0"
     inkscape:window-maximized="1"
     inkscape:current-layer="svg1099"
     inkscape:showpageshadow="2"
     inkscape:deskcolor="#d1d1d1"
     showguides="false" />
  <defs
     id="defs1096" />
  <rect
     style="opacity:1;fill:#103c6a;fill-opacity:1;stroke-width:1.05833;stroke-linecap:round"
     id="rect934"
     width="27.516666"
     height="27.516666"
     x="3.4395833"
     y="3.4395833"
     ry="2.2489583" />
  <rect
     style="fill:#2078d4;fill-opacity:1;stroke-width:0.529166"
     id="rect2485"
     width="26.987501"
     height="26.19375"
     x="3.7041667"
     y="3.7041671"
     ry="2.1166668" />
  <path
     id="path1998"
     style="fill:#ffffff;stroke-width:0.529166"
     d="m 11.906249,10.583333 c -0.586314,0 -1.058332,0.472018 -1.058332,1.058332 v 10.583334 c 0,0.586314 0.472018,1.058332 1.058332,1.058332 h 10.583334 c 0.586316,0 1.058334,-0.472018 1.058334,-1.058332 V 11.641665 c 0,-0.586314 -0.472018,-1.058332 -1.058334,-1.058332 z m 0.529168,1.058332 h 9.525 c 0.293158,0 0.529166,0.23601 0.529166,0.529168 v 5.820832 h -1.322916 l -1.852084,-4.7625 -1.322916,3.175 -1.322918,-3.175 -1.5875,5.291668 -1.190624,-3.175 h -1.984376 v -3.175 c 0,-0.293158 0.23601,-0.529168 0.529168,-0.529168 z m 4.233332,4.233334 1.322918,3.175 1.322916,-3.175 1.058334,3.175 h 2.116666 v 2.645832 c 0,0.293158 -0.236008,0.529168 -0.529166,0.529168 h -9.525 c -0.293158,0 -0.529168,-0.23601 -0.529168,-0.529168 v -5.291666 h 1.312582 l 1.862418,4.7625 z" />
</svg>
