<?xml version="1.0" encoding="UTF-8" standalone="no"?>
<!-- Created with Inkscape (http://www.inkscape.org/) -->

<svg
   width="128"
   height="128"
   viewBox="0 0 33.866666 33.866668"
   version="1.1"
   id="svg1099"
   inkscape:version="1.2 (dc2aedaf03, 2022-05-15)"
   sodipodi:docname="winetricks.svg"
   xmlns:inkscape="http://www.inkscape.org/namespaces/inkscape"
   xmlns:sodipodi="http://sodipodi.sourceforge.net/DTD/sodipodi-0.dtd"
   xmlns="http://www.w3.org/2000/svg"
   xmlns:svg="http://www.w3.org/2000/svg">
  <sodipodi:namedview
     id="namedview1101"
     pagecolor="#ffffff"
     bordercolor="#666666"
     borderopacity="1.0"
     inkscape:pageshadow="2"
     inkscape:pageopacity="0.0"
     inkscape:pagecheckerboard="0"
     inkscape:document-units="px"
     showgrid="false"
     units="px"
     inkscape:zoom="6.390625"
     inkscape:cx="64.312958"
     inkscape:cy="64"
     inkscape:window-width="1846"
     inkscape:window-height="1011"
     inkscape:window-x="0"
     inkscape:window-y="0"
     inkscape:window-maximized="1"
     inkscape:current-layer="svg1099"
     inkscape:showpageshadow="2"
     inkscape:deskcolor="#d1d1d1"
     showguides="false" />
  <defs
     id="defs1096" />
  <rect
     style="opacity:1;fill:#cf3b00;fill-opacity:1;stroke-width:1.05833;stroke-linecap:round"
     id="rect934"
     width="27.516666"
     height="27.516666"
     x="3.175"
     y="3.175"
     ry="2.2489583" />
  <path
     id="rect287"
     style="fill:#ededed;fill-opacity:1;stroke-width:0.748356"
     d="m 5.4239584,3.1750001 c -1.2459217,0 -2.2489583,1.0030366 -2.2489583,2.2489583 V 16.404167 c 2.3975569,-0.793747 4.7503444,-1.058334 6.8791669,-1.058334 2.11666,0 4.636444,0.264587 6.879167,1.058334 2.128822,0.748959 4.750345,1.058333 6.879167,1.058333 2.116659,0 4.636447,-0.264585 6.879166,-1.058333 V 5.4239584 c 0,-1.2459217 -1.003036,-2.2489583 -2.248958,-2.2489583 z"
     sodipodi:nodetypes="sscscscsss" />
  <path
     id="rect2485"
     style="opacity:0.5;fill:#000000;fill-opacity:1;stroke-width:0.529166"
     d="m 5.4239584,3.1750001 c -1.2459217,0 -2.2489583,1.0030366 -2.2489583,2.2489583 V 28.442709 c 0,1.245922 1.0030366,2.248958 2.2489583,2.248958 H 28.442709 c 1.245922,0 2.248958,-1.003036 2.248958,-2.248958 V 5.4239584 c 0,-1.2459217 -1.003036,-2.2489583 -2.248958,-2.2489583 z M 5.5562501,3.4395834 H 28.310417 c 1.172633,0 2.116667,0.9440345 2.116667,2.1166667 V 27.516667 c 0,1.172633 -0.944034,2.116667 -2.116667,2.116667 H 5.5562501 c -1.1726322,0 -2.1166667,-0.944034 -2.1166667,-2.116667 V 5.5562501 c 0,-1.1726322 0.9440345,-2.1166667 2.1166667,-2.1166667 z" />
  <rect
     style="fill:#845914;fill-opacity:1;stroke-width:0.264583"
     id="rect49816"
     width="12.7"
     height="12.435416"
     x="19.314585"
     y="19.84375"
     ry="2.778125" />
  <rect
     style="fill:#faa41a;fill-opacity:1;stroke-width:0.264583"
     id="rect3945"
     width="12.170834"
     height="11.1125"
     x="19.579166"
     y="20.108334"
     ry="2.6458333" />
  <path
     d="m 25.664318,21.431251 -1.121375,2.907953 -3.111695,0.167768 2.418442,1.964918 -0.801736,3.012205 2.616364,-1.69344 2.616364,1.69344 -0.802268,-3.012205 2.419501,-1.964918 -3.112222,-0.167768 z"
     style="color:#000000;text-indent:0;text-decoration-line:none;text-transform:none;fill:#ffffff;stroke-width:0.529198"
     id="path10219" />
</svg>
