<?xml version="1.0" encoding="UTF-8" standalone="no"?>
<!-- Created with Inkscape (http://www.inkscape.org/) -->

<svg
   width="128"
   height="128"
   viewBox="0 0 33.866666 33.866668"
   version="1.1"
   id="svg1099"
   inkscape:version="1.2 (dc2aedaf03, 2022-05-15)"
   sodipodi:docname="youtube.svg"
   xmlns:inkscape="http://www.inkscape.org/namespaces/inkscape"
   xmlns:sodipodi="http://sodipodi.sourceforge.net/DTD/sodipodi-0.dtd"
   xmlns="http://www.w3.org/2000/svg"
   xmlns:svg="http://www.w3.org/2000/svg">
  <sodipodi:namedview
     id="namedview1101"
     pagecolor="#ffffff"
     bordercolor="#666666"
     borderopacity="1.0"
     inkscape:pageshadow="2"
     inkscape:pageopacity="0.0"
     inkscape:pagecheckerboard="0"
     inkscape:document-units="px"
     showgrid="false"
     units="px"
     inkscape:zoom="6.359375"
     inkscape:cx="64"
     inkscape:cy="64"
     inkscape:window-width="1846"
     inkscape:window-height="1011"
     inkscape:window-x="0"
     inkscape:window-y="0"
     inkscape:window-maximized="1"
     inkscape:current-layer="svg1099"
     inkscape:showpageshadow="2"
     inkscape:deskcolor="#d1d1d1"
     showguides="false" />
  <defs
     id="defs1096" />
  <rect
     style="opacity:1;fill:#cf3b00;fill-opacity:1;stroke-width:1.05833;stroke-linecap:round"
     id="rect934"
     width="27.516666"
     height="27.516666"
     x="3.175"
     y="3.175"
     ry="2.2489583" />
  <path
     id="rect1772"
     style="opacity:0.5;fill:#000000;fill-opacity:1;stroke-width:0.264583"
     d="m 5.4239584,3.1750001 c -1.2459217,0 -2.2489583,1.0030366 -2.2489583,2.2489583 V 28.442709 c 0,1.245922 1.0030366,2.248958 2.2489583,2.248958 H 28.442709 c 1.245922,0 2.248958,-1.003036 2.248958,-2.248958 V 5.4239584 c 0,-1.2459217 -1.003036,-2.2489583 -2.248958,-2.2489583 z M 5.5562501,3.4395834 H 28.310417 c 1.172633,0 2.116667,0.9440345 2.116667,2.1166667 V 27.516667 c 0,1.172633 -0.944034,2.116667 -2.116667,2.116667 H 5.5562501 c -1.1726322,0 -2.1166667,-0.944034 -2.1166667,-2.116667 V 5.5562501 c 0,-1.1726322 0.9440345,-2.1166667 2.1166667,-2.1166667 z" />
  <path
     id="path11557"
     style="fill:#ffffff;stroke-width:0.225835"
     d="m 16.933943,12.170833 c -2.275146,0 -4.389605,0.07879 -4.857545,0.180865 -0.313503,0.06839 -0.562455,0.198234 -0.788577,0.411342 -0.179916,0.16956 -0.279212,0.322706 -0.38757,0.601508 -0.118981,0.306147 -0.181861,0.594979 -0.225308,1.029387 -0.08284,0.828622 -0.09732,1.238245 -0.08991,2.486649 0.0063,1.061566 0.0108,1.184173 0.07131,1.865503 0.05359,0.603749 0.111855,0.890072 0.255279,1.249529 0.156866,0.393168 0.373958,0.636454 0.723466,0.811314 0.211615,0.105885 0.39928,0.155917 0.781341,0.206701 0.520987,0.06925 1.373538,0.104325 3.472629,0.144705 1.689189,0.03251 4.620831,-0.03679 5.581009,-0.1323 0.30986,-0.03083 0.502085,-0.0793 0.703826,-0.175699 0.199239,-0.0952 0.437407,-0.283677 0.5581,-0.442346 0.175919,-0.231273 0.331893,-0.638349 0.411341,-1.072794 0.0309,-0.168981 0.07794,-0.640669 0.115755,-1.170981 0.03233,-0.453318 0.03233,-2.5416 0,-2.995141 C 23.191019,14.21402 23.144262,13.89149 23.024475,13.526812 22.908225,13.172885 22.811069,12.998206 22.621403,12.806447 22.37907,12.56144 22.130931,12.425519 21.792522,12.351698 21.324581,12.249619 19.20909,12.170833 16.933943,12.170833 Z m -1.588151,2.116648 4.233299,2.381232 -4.233299,2.381231 z"
     sodipodi:nodetypes="ssscccccssssssscssssscccc" />
</svg>
