<?xml version="1.0" encoding="UTF-8" standalone="no"?>
<!-- Created with Inkscape (http://www.inkscape.org/) -->

<svg
   width="128"
   height="128"
   viewBox="0 0 33.866666 33.866666"
   version="1.1"
   id="svg5"
   inkscape:version="1.2 (dc2aedaf03, 2022-05-15)"
   sodipodi:docname="computer-laptop.svg"
   xmlns:inkscape="http://www.inkscape.org/namespaces/inkscape"
   xmlns:sodipodi="http://sodipodi.sourceforge.net/DTD/sodipodi-0.dtd"
   xmlns="http://www.w3.org/2000/svg"
   xmlns:svg="http://www.w3.org/2000/svg">
  <sodipodi:namedview
     id="namedview7"
     pagecolor="#ffffff"
     bordercolor="#666666"
     borderopacity="1.0"
     inkscape:pageshadow="2"
     inkscape:pageopacity="0.0"
     inkscape:pagecheckerboard="0"
     inkscape:document-units="px"
     showgrid="false"
     units="px"
     height="48px"
     inkscape:zoom="3.1914063"
     inkscape:cx="-10.810281"
     inkscape:cy="91.339045"
     inkscape:window-width="1920"
     inkscape:window-height="1010"
     inkscape:window-x="0"
     inkscape:window-y="0"
     inkscape:window-maximized="1"
     inkscape:current-layer="svg5"
     inkscape:showpageshadow="2"
     inkscape:deskcolor="#d1d1d1"
     showguides="false" />
  <defs
     id="defs2" />
  <rect
     style="opacity:1;fill:#bfbfbf;fill-opacity:1;stroke-width:0.264583"
     id="rect2175"
     width="27.516666"
     height="19.314583"
     x="3.175"
     y="7.4083333"
     ry="2.1166666" />
  <path
     d="m 5.2916654,7.4083333 c -1.1726333,0 -2.1166666,0.9440334 -2.1166666,2.1166667 v 15.08125 c 0,1.172633 0.9440333,2.116667 2.1166666,2.116667 H 28.574999 c 1.172633,0 2.116667,-0.944034 2.116667,-2.116667 V 9.525 c 0,-1.1726333 -0.944034,-2.1166667 -2.116667,-2.1166667 z m 0,0.2645834 H 28.574999 c 1.026054,0 1.852083,0.8260291 1.852083,1.8520833 v 14.2875 c 0,1.026054 -0.826029,1.852083 -1.852083,1.852083 H 5.2916654 c -1.0260542,0 -1.8520833,-0.826029 -1.8520833,-1.852083 V 9.525 c 0,-1.0260542 0.8260291,-1.8520833 1.8520833,-1.8520833 z"
     style="opacity:0.5;fill:#000000;fill-opacity:1;stroke-width:0.264583"
     id="path1965" />
  <rect
     style="fill:#222222;fill-opacity:1;stroke-width:0.734567"
     id="rect1437"
     width="24.870832"
     height="15.875"
     x="4.4979157"
     y="8.7312498"
     ry="0.39687499" />
  <rect
     style="opacity:1;fill:#bfbfbf;fill-opacity:1;stroke-width:0.264583"
     id="rect1162"
     width="29.633333"
     height="4.2333331"
     x="2.1166666"
     y="26.458332"
     ry="1.0583333" />
  <path
     d="m 3.1750003,26.458332 c -0.5863166,0 -1.0583333,0.472017 -1.0583333,1.058333 v 2.116667 c 0,0.586317 0.4720167,1.058333 1.0583333,1.058333 H 30.691666 c 0.586317,0 1.058334,-0.472016 1.058334,-1.058333 v -2.116667 c 0,-0.586316 -0.472017,-1.058333 -1.058334,-1.058333 z m 0,0.264583 H 30.691666 c 0.439738,0 0.79375,0.354013 0.79375,0.79375 v 1.322917 c 0,0.439737 -0.354012,0.79375 -0.79375,0.79375 H 3.1750003 c -0.4397375,0 -0.79375,-0.354013 -0.79375,-0.79375 v -1.322917 c 0,-0.439737 0.3540125,-0.79375 0.79375,-0.79375 z"
     style="opacity:0.5;fill:#000000;fill-opacity:1;stroke-width:0.264583"
     id="path1993" />
</svg>
