<?xml version="1.0" encoding="UTF-8" standalone="no"?>
<!-- Created with Inkscape (http://www.inkscape.org/) -->

<svg
   width="128"
   height="128"
   viewBox="0 0 33.866666 33.866666"
   version="1.1"
   id="svg5"
   inkscape:version="1.2 (dc2aedaf03, 2022-05-15)"
   sodipodi:docname="media-flash.svg"
   xmlns:inkscape="http://www.inkscape.org/namespaces/inkscape"
   xmlns:sodipodi="http://sodipodi.sourceforge.net/DTD/sodipodi-0.dtd"
   xmlns="http://www.w3.org/2000/svg"
   xmlns:svg="http://www.w3.org/2000/svg">
  <sodipodi:namedview
     id="namedview7"
     pagecolor="#ffffff"
     bordercolor="#666666"
     borderopacity="1.0"
     inkscape:pageshadow="2"
     inkscape:pageopacity="0.0"
     inkscape:pagecheckerboard="0"
     inkscape:document-units="px"
     showgrid="false"
     units="px"
     height="48px"
     inkscape:zoom="4.4083688"
     inkscape:cx="21.096238"
     inkscape:cy="42.646159"
     inkscape:window-width="1846"
     inkscape:window-height="1015"
     inkscape:window-x="0"
     inkscape:window-y="0"
     inkscape:window-maximized="1"
     inkscape:current-layer="svg5"
     inkscape:showpageshadow="2"
     inkscape:deskcolor="#d1d1d1"
     showguides="false" />
  <defs
     id="defs2" />
  <path
     id="rect1249"
     style="opacity:1;fill:#483e39;fill-opacity:1;stroke-width:0.529166"
     d="m 21.166667,2.1166666 7.408334,7.408333 V 29.633333 c 0,1.172632 -0.944034,2.116666 -2.116668,2.116666 H 7.4083343 c -1.1726332,0 -2.1166664,-0.944034 -2.1166664,-2.116666 V 2.1166666 Z"
     sodipodi:nodetypes="ccsssscc" />
  <path
     d="M 5.2916666,2.1166666 V 29.633333 c 0,1.172633 0.9440333,2.116666 2.1166666,2.116666 H 26.458333 c 1.172634,0 2.116667,-0.944033 2.116667,-2.116666 V 9.5249999 L 21.166667,2.1166666 M 5.5562499,2.38125 H 20.902083 l 7.408334,7.4083332 V 28.839583 c 0,1.026054 -0.826029,1.852083 -1.852084,1.852083 H 7.4083332 c -1.0260541,0 -1.8520833,-0.826029 -1.8520833,-1.852083"
     style="opacity:0.5;fill:#ffffff;fill-opacity:1;stroke-width:0.264583"
     id="path382" />
  <rect
     style="fill:#ffce51;fill-opacity:1;stroke-width:1.05833"
     id="rect3758"
     width="19.049999"
     height="4.2333331"
     x="7.4083343"
     y="25.400003" />
</svg>
