<?xml version="1.0" encoding="UTF-8" standalone="no"?>
<!-- Created with Inkscape (http://www.inkscape.org/) -->

<svg
   width="128"
   height="128"
   viewBox="0 0 33.866666 33.866666"
   version="1.1"
   id="svg5"
   inkscape:version="1.2 (dc2aedaf03, 2022-05-15)"
   sodipodi:docname="network-firewall.svg"
   xmlns:inkscape="http://www.inkscape.org/namespaces/inkscape"
   xmlns:sodipodi="http://sodipodi.sourceforge.net/DTD/sodipodi-0.dtd"
   xmlns="http://www.w3.org/2000/svg"
   xmlns:svg="http://www.w3.org/2000/svg">
  <sodipodi:namedview
     id="namedview7"
     pagecolor="#ffffff"
     bordercolor="#666666"
     borderopacity="1.0"
     inkscape:pageshadow="2"
     inkscape:pageopacity="0.0"
     inkscape:pagecheckerboard="0"
     inkscape:document-units="px"
     showgrid="false"
     units="px"
     height="48px"
     inkscape:zoom="6.359375"
     inkscape:cx="64.550369"
     inkscape:cy="64"
     inkscape:window-width="1920"
     inkscape:window-height="1011"
     inkscape:window-x="0"
     inkscape:window-y="0"
     inkscape:window-maximized="1"
     inkscape:current-layer="svg5"
     inkscape:showpageshadow="2"
     inkscape:deskcolor="#d1d1d1"
     showguides="false" />
  <defs
     id="defs2" />
  <rect
     style="opacity:1;fill:#cf3b00;fill-opacity:1;stroke-width:0.529167"
     id="rect479"
     width="27.516666"
     height="27.516666"
     x="3.1750004"
     y="3.175"
     ry="2.1166666" />
  <path
     d="m 4.7624999,3.7041666 c -0.2931583,0 -0.5291666,0.2360084 -0.5291666,0.5291667 v 3.1749999 c 0,0.2931584 0.2360083,0.5291667 0.5291666,0.5291667 H 3.96875 c -0.2931584,0 -0.5291667,0.2360083 -0.5291667,0.5291667 v 3.1749994 c 0,0.293159 0.2360083,0.529167 0.5291667,0.529167 h 0.7937499 c -0.2931583,0 -0.5291666,0.236008 -0.5291666,0.529167 v 3.175 c 0,0.293158 0.2360083,0.529166 0.5291666,0.529166 H 3.96875 c -0.2931584,0 -0.5291667,0.236008 -0.5291667,0.529167 v 3.175 c 0,0.293158 0.2360083,0.529166 0.5291667,0.529166 h 0.7937499 c -0.2931583,0 -0.5291666,0.236009 -0.5291666,0.529167 v 3.175 c 0,0.293158 0.2360083,0.529167 0.5291666,0.529167 H 3.96875 c -0.2931584,0 -0.5291667,0.236008 -0.5291667,0.529166 v 2.38125 c 0,0.519377 0.2116005,0.987161 0.5539713,1.322917 h 2.885612 c 0.2931583,0 0.5291666,-0.236008 0.5291666,-0.529167 0,0.293159 0.2360084,0.529167 0.5291667,0.529167 h 5.2916661 c 0.293159,0 0.529167,-0.236008 0.529167,-0.529167 0,0.293159 0.236008,0.529167 0.529167,0.529167 h 5.291666 c 0.293158,0 0.529167,-0.236008 0.529167,-0.529167 0,0.293159 0.236008,0.529167 0.529166,0.529167 h 5.291667 c 0.293158,0 0.529167,-0.236008 0.529167,-0.529167 0,0.293159 0.236008,0.529167 0.529166,0.529167 h 2.885612 c 0.355415,-0.348282 0.555168,-0.825304 0.553972,-1.322917 v -2.38125 c 0,-0.293158 -0.236009,-0.529166 -0.529167,-0.529166 h -0.79375 c 0.293158,0 0.529167,-0.236009 0.529167,-0.529167 v -3.175 c 0,-0.293158 -0.236009,-0.529167 -0.529167,-0.529167 h 0.79375 c 0.293158,0 0.529167,-0.236008 0.529167,-0.529166 v -3.175 c 0,-0.293159 -0.236009,-0.529167 -0.529167,-0.529167 h -0.79375 c 0.293158,0 0.529167,-0.236008 0.529167,-0.529166 V 12.7 c 0,-0.293159 -0.236009,-0.529167 -0.529167,-0.529167 h 0.79375 c 0.293158,0 0.529167,-0.236008 0.529167,-0.529167 V 8.4666666 c 0,-0.2931584 -0.236009,-0.5291667 -0.529167,-0.5291667 h -0.79375 c 0.293158,0 0.529167,-0.2360083 0.529167,-0.5291667 V 4.2333333 c 0,-0.2931583 -0.236009,-0.5291667 -0.529167,-0.5291667 h -5.291667 c -0.293158,0 -0.529166,0.2360084 -0.529166,0.5291667 0,-0.2931583 -0.236009,-0.5291667 -0.529167,-0.5291667 h -5.291667 c -0.293158,0 -0.529166,0.2360084 -0.529166,0.5291667 0,-0.2931583 -0.236009,-0.5291667 -0.529167,-0.5291667 H 11.1125 c -0.293159,0 -0.529167,0.2360084 -0.529167,0.5291667 0,-0.2931583 -0.236008,-0.5291667 -0.529167,-0.5291667 z m 0,0.79375 h 5.2916661 c 0.14658,0 0.264584,0.1180042 0.264584,0.2645833 v 2.6458333 c 0,0.1465792 -0.118004,0.2645834 -0.264584,0.2645834 H 4.7624999 c -0.1465791,0 -0.2645833,-0.1180042 -0.2645833,-0.2645834 V 4.7624999 c 0,-0.1465791 0.1180042,-0.2645833 0.2645833,-0.2645833 z m 6.3500001,0 h 5.291666 c 0.146579,0 0.264583,0.1180042 0.264583,0.2645833 v 2.6458333 c 0,0.1465792 -0.118004,0.2645834 -0.264583,0.2645834 H 11.1125 c -0.146579,0 -0.264584,-0.1180042 -0.264584,-0.2645834 V 4.7624999 c 0,-0.1465791 0.118005,-0.2645833 0.264584,-0.2645833 z m 6.349999,0 h 5.291667 c 0.146579,0 0.264583,0.1180042 0.264583,0.2645833 v 2.6458333 c 0,0.1465792 -0.118004,0.2645834 -0.264583,0.2645834 h -5.291667 c -0.146579,0 -0.264583,-0.1180042 -0.264583,-0.2645834 V 4.7624999 c 0,-0.1465791 0.118004,-0.2645833 0.264583,-0.2645833 z m 6.35,0 h 5.291667 c 0.146579,0 0.264583,0.1180042 0.264583,0.2645833 v 2.6458333 c 0,0.1465792 -0.118004,0.2645834 -0.264583,0.2645834 h -5.291667 c -0.146579,0 -0.264583,-0.1180042 -0.264583,-0.2645834 V 4.7624999 c 0,-0.1465791 0.118004,-0.2645833 0.264583,-0.2645833 z M 10.583333,7.4083332 c 0,0.2931584 0.236008,0.5291667 0.529167,0.5291667 h -1.058334 c 0.293159,0 0.529167,-0.2360083 0.529167,-0.5291667 z m 6.35,0 c 0,0.2931584 0.236008,0.5291667 0.529166,0.5291667 h -1.058333 c 0.293158,0 0.529167,-0.2360083 0.529167,-0.5291667 z m 6.35,0 c 0,0.2931584 0.236008,0.5291667 0.529166,0.5291667 h -1.058333 c 0.293158,0 0.529167,-0.2360083 0.529167,-0.5291667 z M 6.8791666,7.9374999 h 1.0583333 c -0.2931583,0 -0.5291667,0.2360083 -0.5291667,0.5291667 0,-0.2931584 -0.2360083,-0.5291667 -0.5291666,-0.5291667 z m 6.3499994,0 H 14.2875 c -0.293159,0 -0.529167,0.2360083 -0.529167,0.5291667 0,-0.2931584 -0.236008,-0.5291667 -0.529167,-0.5291667 z m 6.35,0 h 1.058333 c -0.293158,0 -0.529166,0.2360083 -0.529166,0.5291667 0,-0.2931584 -0.236009,-0.5291667 -0.529167,-0.5291667 z m 6.35,0 h 1.058333 c -0.293158,0 -0.529166,0.2360083 -0.529166,0.5291667 0,-0.2931584 -0.236009,-0.5291667 -0.529167,-0.5291667 z M 3.96875,8.7312499 h 2.9104166 c 0.1465791,0 0.2645833,0.1180042 0.2645833,0.2645833 v 2.6458328 c 0,0.146579 -0.1180042,0.264584 -0.2645833,0.264584 H 3.96875 c -0.1465792,0 -0.2645834,-0.118005 -0.2645834,-0.264584 V 8.9958332 c 0,-0.1465791 0.1180042,-0.2645833 0.2645834,-0.2645833 z m 3.9687499,0 h 5.2916661 c 0.146579,0 0.264584,0.1180042 0.264584,0.2645833 v 2.6458328 c 0,0.146579 -0.118005,0.264584 -0.264584,0.264584 H 7.9374999 c -0.1465792,0 -0.2645833,-0.118005 -0.2645833,-0.264584 V 8.9958332 c 0,-0.1465791 0.1180041,-0.2645833 0.2645833,-0.2645833 z m 6.3500001,0 h 5.291666 c 0.146579,0 0.264583,0.1180042 0.264583,0.2645833 v 2.6458328 c 0,0.146579 -0.118004,0.264584 -0.264583,0.264584 H 14.2875 c -0.14658,0 -0.264584,-0.118005 -0.264584,-0.264584 V 8.9958332 c 0,-0.1465791 0.118004,-0.2645833 0.264584,-0.2645833 z m 6.349999,0 h 5.291667 c 0.146579,0 0.264583,0.1180042 0.264583,0.2645833 v 2.6458328 c 0,0.146579 -0.118004,0.264584 -0.264583,0.264584 h -5.291667 c -0.146579,0 -0.264583,-0.118005 -0.264583,-0.264584 V 8.9958332 c 0,-0.1465791 0.118004,-0.2645833 0.264583,-0.2645833 z m 6.35,0 h 2.910417 c 0.146579,0 0.264583,0.1180042 0.264583,0.2645833 v 2.6458328 c 0,0.146579 -0.118004,0.264584 -0.264583,0.264584 h -2.910417 c -0.146579,0 -0.264583,-0.118005 -0.264583,-0.264584 V 8.9958332 c 0,-0.1465791 0.118004,-0.2645833 0.264583,-0.2645833 z M 7.4083332,11.641666 c 0,0.293159 0.2360084,0.529167 0.5291667,0.529167 H 6.8791666 c 0.2931583,0 0.5291666,-0.236008 0.5291666,-0.529167 z m 6.3499998,0 c 0,0.293159 0.236008,0.529167 0.529167,0.529167 h -1.058334 c 0.293159,0 0.529167,-0.236008 0.529167,-0.529167 z m 6.35,0 c 0,0.293159 0.236008,0.529167 0.529166,0.529167 h -1.058333 c 0.293158,0 0.529167,-0.236008 0.529167,-0.529167 z m 6.35,0 c 0,0.293159 0.236008,0.529167 0.529166,0.529167 h -1.058333 c 0.293158,0 0.529167,-0.236008 0.529167,-0.529167 z M 10.054166,12.170833 H 11.1125 c -0.293159,0 -0.529167,0.236008 -0.529167,0.529167 0,-0.293159 -0.236008,-0.529167 -0.529167,-0.529167 z m 6.35,0 h 1.058333 c -0.293158,0 -0.529166,0.236008 -0.529166,0.529167 0,-0.293159 -0.236009,-0.529167 -0.529167,-0.529167 z m 6.35,0 h 1.058333 c -0.293158,0 -0.529166,0.236008 -0.529166,0.529167 0,-0.293159 -0.236009,-0.529167 -0.529167,-0.529167 z m -17.9916661,0.79375 h 5.2916661 c 0.14658,0 0.264584,0.118004 0.264584,0.264583 V 15.875 c 0,0.146579 -0.118004,0.264583 -0.264584,0.264583 H 4.7624999 c -0.1465791,0 -0.2645833,-0.118004 -0.2645833,-0.264583 v -2.645834 c 0,-0.146579 0.1180042,-0.264583 0.2645833,-0.264583 z m 6.3500001,0 h 5.291666 c 0.146579,0 0.264583,0.118004 0.264583,0.264583 V 15.875 c 0,0.146579 -0.118004,0.264583 -0.264583,0.264583 H 11.1125 c -0.146579,0 -0.264584,-0.118004 -0.264584,-0.264583 v -2.645834 c 0,-0.146579 0.118005,-0.264583 0.264584,-0.264583 z m 6.349999,0 h 5.291667 c 0.146579,0 0.264583,0.118004 0.264583,0.264583 V 15.875 c 0,0.146579 -0.118004,0.264583 -0.264583,0.264583 h -5.291667 c -0.146579,0 -0.264583,-0.118004 -0.264583,-0.264583 v -2.645834 c 0,-0.146579 0.118004,-0.264583 0.264583,-0.264583 z m 6.35,0 h 5.291667 c 0.146579,0 0.264583,0.118004 0.264583,0.264583 V 15.875 c 0,0.146579 -0.118004,0.264583 -0.264583,0.264583 h -5.291667 c -0.146579,0 -0.264583,-0.118004 -0.264583,-0.264583 v -2.645834 c 0,-0.146579 0.118004,-0.264583 0.264583,-0.264583 z M 10.583333,15.875 c 0,0.293158 0.236008,0.529166 0.529167,0.529166 h -1.058334 c 0.293159,0 0.529167,-0.236008 0.529167,-0.529166 z m 6.35,0 c 0,0.293158 0.236008,0.529166 0.529166,0.529166 h -1.058333 c 0.293158,0 0.529167,-0.236008 0.529167,-0.529166 z m 6.35,0 c 0,0.293158 0.236008,0.529166 0.529166,0.529166 h -1.058333 c 0.293158,0 0.529167,-0.236008 0.529167,-0.529166 z M 6.8791666,16.404166 h 1.0583333 c -0.2931583,0 -0.5291667,0.236008 -0.5291667,0.529167 0,-0.293159 -0.2360083,-0.529167 -0.5291666,-0.529167 z m 6.3499994,0 H 14.2875 c -0.293159,0 -0.529167,0.236008 -0.529167,0.529167 0,-0.293159 -0.236008,-0.529167 -0.529167,-0.529167 z m 6.35,0 h 1.058333 c -0.293158,0 -0.529166,0.236008 -0.529166,0.529167 0,-0.293159 -0.236009,-0.529167 -0.529167,-0.529167 z m 6.35,0 h 1.058333 c -0.293158,0 -0.529166,0.236008 -0.529166,0.529167 0,-0.293159 -0.236009,-0.529167 -0.529167,-0.529167 z M 3.96875,17.197916 h 2.9104166 c 0.1465791,0 0.2645833,0.118004 0.2645833,0.264583 v 2.645834 c 0,0.146579 -0.1180042,0.264583 -0.2645833,0.264583 H 3.96875 c -0.1465792,0 -0.2645834,-0.118004 -0.2645834,-0.264583 v -2.645834 c 0,-0.146579 0.1180042,-0.264583 0.2645834,-0.264583 z m 3.9687499,0 h 5.2916661 c 0.146579,0 0.264584,0.118004 0.264584,0.264583 v 2.645834 c 0,0.146579 -0.118005,0.264583 -0.264584,0.264583 H 7.9374999 c -0.1465792,0 -0.2645833,-0.118004 -0.2645833,-0.264583 v -2.645834 c 0,-0.146579 0.1180041,-0.264583 0.2645833,-0.264583 z m 6.3500001,0 h 5.291666 c 0.146579,0 0.264583,0.118004 0.264583,0.264583 v 2.645834 c 0,0.146579 -0.118004,0.264583 -0.264583,0.264583 H 14.2875 c -0.14658,0 -0.264584,-0.118004 -0.264584,-0.264583 v -2.645834 c 0,-0.146579 0.118004,-0.264583 0.264584,-0.264583 z m 6.349999,0 h 5.291667 c 0.146579,0 0.264583,0.118004 0.264583,0.264583 v 2.645834 c 0,0.146579 -0.118004,0.264583 -0.264583,0.264583 h -5.291667 c -0.146579,0 -0.264583,-0.118004 -0.264583,-0.264583 v -2.645834 c 0,-0.146579 0.118004,-0.264583 0.264583,-0.264583 z m 6.35,0 h 2.910417 c 0.146579,0 0.264583,0.118004 0.264583,0.264583 v 2.645834 c 0,0.146579 -0.118004,0.264583 -0.264583,0.264583 h -2.910417 c -0.146579,0 -0.264583,-0.118004 -0.264583,-0.264583 v -2.645834 c 0,-0.146579 0.118004,-0.264583 0.264583,-0.264583 z M 7.4083332,20.108333 c 0,0.293158 0.2360084,0.529166 0.5291667,0.529166 H 6.8791666 c 0.2931583,0 0.5291666,-0.236008 0.5291666,-0.529166 z m 6.3499998,0 c 0,0.293158 0.236008,0.529166 0.529167,0.529166 h -1.058334 c 0.293159,0 0.529167,-0.236008 0.529167,-0.529166 z m 6.35,0 c 0,0.293158 0.236008,0.529166 0.529166,0.529166 h -1.058333 c 0.293158,0 0.529167,-0.236008 0.529167,-0.529166 z m 6.35,0 c 0,0.293158 0.236008,0.529166 0.529166,0.529166 h -1.058333 c 0.293158,0 0.529167,-0.236008 0.529167,-0.529166 z M 10.054166,20.637499 H 11.1125 c -0.293159,0 -0.529167,0.236009 -0.529167,0.529167 0,-0.293158 -0.236008,-0.529167 -0.529167,-0.529167 z m 6.35,0 h 1.058333 c -0.293158,0 -0.529166,0.236009 -0.529166,0.529167 0,-0.293158 -0.236009,-0.529167 -0.529167,-0.529167 z m 6.35,0 h 1.058333 c -0.293158,0 -0.529166,0.236009 -0.529166,0.529167 0,-0.293158 -0.236009,-0.529167 -0.529167,-0.529167 z m -17.9916661,0.79375 h 5.2916661 c 0.14658,0 0.264584,0.118005 0.264584,0.264584 v 2.645833 c 0,0.146579 -0.118004,0.264583 -0.264584,0.264583 H 4.7624999 c -0.1465791,0 -0.2645833,-0.118004 -0.2645833,-0.264583 v -2.645833 c 0,-0.146579 0.1180042,-0.264584 0.2645833,-0.264584 z m 6.3500001,0 h 5.291666 c 0.146579,0 0.264583,0.118005 0.264583,0.264584 v 2.645833 c 0,0.146579 -0.118004,0.264583 -0.264583,0.264583 H 11.1125 c -0.146579,0 -0.264584,-0.118004 -0.264584,-0.264583 v -2.645833 c 0,-0.146579 0.118005,-0.264584 0.264584,-0.264584 z m 6.349999,0 h 5.291667 c 0.146579,0 0.264583,0.118005 0.264583,0.264584 v 2.645833 c 0,0.146579 -0.118004,0.264583 -0.264583,0.264583 h -5.291667 c -0.146579,0 -0.264583,-0.118004 -0.264583,-0.264583 v -2.645833 c 0,-0.146579 0.118004,-0.264584 0.264583,-0.264584 z m 6.35,0 h 5.291667 c 0.146579,0 0.264583,0.118005 0.264583,0.264584 v 2.645833 c 0,0.146579 -0.118004,0.264583 -0.264583,0.264583 h -5.291667 c -0.146579,0 -0.264583,-0.118004 -0.264583,-0.264583 v -2.645833 c 0,-0.146579 0.118004,-0.264584 0.264583,-0.264584 z m -13.229166,2.910417 c 0,0.293158 0.236008,0.529167 0.529167,0.529167 h -1.058334 c 0.293159,0 0.529167,-0.236009 0.529167,-0.529167 z m 6.35,0 c 0,0.293158 0.236008,0.529167 0.529166,0.529167 h -1.058333 c 0.293158,0 0.529167,-0.236009 0.529167,-0.529167 z m 6.35,0 c 0,0.293158 0.236008,0.529167 0.529166,0.529167 h -1.058333 c 0.293158,0 0.529167,-0.236009 0.529167,-0.529167 z M 6.8791666,24.870833 h 1.0583333 c -0.2931583,0 -0.5291667,0.236008 -0.5291667,0.529166 0,-0.293158 -0.2360083,-0.529166 -0.5291666,-0.529166 z m 6.3499994,0 H 14.2875 c -0.293159,0 -0.529167,0.236008 -0.529167,0.529166 0,-0.293158 -0.236008,-0.529166 -0.529167,-0.529166 z m 6.35,0 h 1.058333 c -0.293158,0 -0.529166,0.236008 -0.529166,0.529166 0,-0.293158 -0.236009,-0.529166 -0.529167,-0.529166 z m 6.35,0 h 1.058333 c -0.293158,0 -0.529166,0.236008 -0.529166,0.529166 0,-0.293158 -0.236009,-0.529166 -0.529167,-0.529166 z M 3.96875,25.664583 h 2.9104166 c 0.1465791,0 0.2645833,0.118004 0.2645833,0.264583 v 2.645833 c 0,0.14658 -0.1180042,0.264584 -0.2645833,0.264584 H 3.96875 c -0.1465792,0 -0.2645834,-0.118004 -0.2645834,-0.264584 v -2.645833 c 0,-0.146579 0.1180042,-0.264583 0.2645834,-0.264583 z m 3.9687499,0 h 5.2916661 c 0.146579,0 0.264584,0.118004 0.264584,0.264583 v 2.645833 c 0,0.14658 -0.118005,0.264584 -0.264584,0.264584 H 7.9374999 c -0.1465792,0 -0.2645833,-0.118004 -0.2645833,-0.264584 v -2.645833 c 0,-0.146579 0.1180041,-0.264583 0.2645833,-0.264583 z m 6.3500001,0 h 5.291666 c 0.146579,0 0.264583,0.118004 0.264583,0.264583 v 2.645833 c 0,0.14658 -0.118004,0.264584 -0.264583,0.264584 H 14.2875 c -0.14658,0 -0.264584,-0.118004 -0.264584,-0.264584 v -2.645833 c 0,-0.146579 0.118004,-0.264583 0.264584,-0.264583 z m 6.349999,0 h 5.291667 c 0.146579,0 0.264583,0.118004 0.264583,0.264583 v 2.645833 c 0,0.14658 -0.118004,0.264584 -0.264583,0.264584 h -5.291667 c -0.146579,0 -0.264583,-0.118004 -0.264583,-0.264584 v -2.645833 c 0,-0.146579 0.118004,-0.264583 0.264583,-0.264583 z m 6.35,0 h 2.910417 c 0.146579,0 0.264583,0.118004 0.264583,0.264583 v 2.645833 c 0,0.14658 -0.118004,0.264584 -0.264583,0.264584 h -2.910417 c -0.146579,0 -0.264583,-0.118004 -0.264583,-0.264584 v -2.645833 c 0,-0.146579 0.118004,-0.264583 0.264583,-0.264583 z"
     style="opacity:0.5;fill:#ffffff;fill-opacity:1;stroke-width:0.264583"
     id="path1644" />
  <path
     id="rect11390"
     style="opacity:0.5;fill:#000000;fill-opacity:1;stroke-width:0.529167;stroke-linecap:round;stroke-linejoin:bevel"
     d="m 5.2916665,3.1749999 c -1.1726321,0 -2.1166666,0.9440345 -2.1166666,2.1166666 V 28.574998 c 0,1.172633 0.9440345,2.116667 2.1166666,2.116667 H 28.574998 c 1.172632,0 2.116667,-0.944034 2.116667,-2.116667 V 5.2916665 c 0,-1.1726321 -0.944035,-2.1166666 -2.116667,-2.1166666 z m 0,0.2645833 H 28.574998 c 1.026053,0 1.852083,0.8260302 1.852083,1.8520833 V 28.045832 c 0,1.026053 -0.82603,1.852083 -1.852083,1.852083 H 5.2916665 c -1.0260531,0 -1.8520833,-0.82603 -1.8520833,-1.852083 V 5.2916665 c 0,-1.0260531 0.8260302,-1.8520833 1.8520833,-1.8520833 z"
     sodipodi:nodetypes="ssssssssssssssssss" />
</svg>
