<?xml version="1.0" encoding="UTF-8" standalone="no"?>
<!-- Created with Inkscape (http://www.inkscape.org/) -->

<svg
   width="128"
   height="128"
   viewBox="0 0 33.866666 33.866666"
   version="1.1"
   id="svg5"
   inkscape:version="1.2 (dc2aedaf03, 2022-05-15)"
   sodipodi:docname="network-server.svg"
   xmlns:inkscape="http://www.inkscape.org/namespaces/inkscape"
   xmlns:sodipodi="http://sodipodi.sourceforge.net/DTD/sodipodi-0.dtd"
   xmlns="http://www.w3.org/2000/svg"
   xmlns:svg="http://www.w3.org/2000/svg">
  <sodipodi:namedview
     id="namedview7"
     pagecolor="#ffffff"
     bordercolor="#666666"
     borderopacity="1.0"
     inkscape:pageshadow="2"
     inkscape:pageopacity="0.0"
     inkscape:pagecheckerboard="0"
     inkscape:document-units="px"
     showgrid="false"
     units="px"
     height="48px"
     inkscape:zoom="6.359375"
     inkscape:cx="64.314496"
     inkscape:cy="64"
     inkscape:window-width="1846"
     inkscape:window-height="1011"
     inkscape:window-x="0"
     inkscape:window-y="0"
     inkscape:window-maximized="1"
     inkscape:current-layer="svg5"
     inkscape:showpageshadow="2"
     inkscape:deskcolor="#d1d1d1" />
  <defs
     id="defs2" />
  <path
     id="rect951"
     style="fill:#444444;fill-opacity:1;stroke-width:0.264583"
     d="M 5.2916666 5.8208332 C 4.1190345 5.8208332 3.1749999 6.7648677 3.1749999 7.9374998 L 3.1749999 12.170833 C 3.1749999 13.083002 3.7464612 13.856441 4.5521768 14.155208 C 3.7464612 14.453975 3.1749999 15.227415 3.1749999 16.139583 L 3.1749999 20.372916 C 3.1749999 21.285085 3.7464612 22.058525 4.5521768 22.357291 C 3.7464612 22.656058 3.1749999 23.429498 3.1749999 24.341666 L 3.1749999 28.574999 C 3.1749999 29.747632 4.1190345 30.691666 5.2916666 30.691666 L 28.574999 30.691666 C 29.747632 30.691666 30.691666 29.747632 30.691666 28.574999 L 30.691666 24.341666 C 30.691666 23.429498 30.120205 22.656058 29.314489 22.357291 C 30.120205 22.058525 30.691666 21.285085 30.691666 20.372916 L 30.691666 16.139583 C 30.691666 15.227415 30.120205 14.453975 29.314489 14.155208 C 30.120205 13.856441 30.691666 13.083002 30.691666 12.170833 L 30.691666 7.9374998 C 30.691666 6.7648677 29.747632 5.8208332 28.574999 5.8208332 L 5.2916666 5.8208332 z " />
  <path
     d="m 9.7088301,6.9818267 c -0.27053,0 -0.540982,0.1037968 -0.748276,0.311091 L 5.9669385,10.286016 c -0.4145878,0.414588 -0.4145873,1.082479 1.3e-6,1.497068 0.4145867,0.414586 1.0824773,0.414587 1.4970654,-1e-6 L 10.457104,8.7894682 c 0.414589,-0.4145886 0.414587,-1.081962 0,-1.4965487 C 10.24981,7.0856253 9.9793601,6.9818267 9.7088301,6.9818267 Z m 9.2609319,-1.9e-6 c -0.270528,1.9e-6 -0.54098,0.1037987 -0.748274,0.3110929 l -2.993617,2.9936163 c -0.414587,0.414587 -0.414587,1.081962 0,1.496548 0.414588,0.414589 1.081964,0.414589 1.49655,2e-6 l 2.993617,-2.9936158 c 0.414589,-0.4145886 0.414587,-1.081962 -1e-6,-1.4965505 C 19.510744,7.0856253 19.240292,6.9818248 18.969762,6.9818248 Z m -4.62969,0.00103 c -0.270531,0 -0.54098,0.1037987 -0.748275,0.3110931 l -2.993098,2.9931001 c -0.414589,0.414589 -0.414591,1.081962 -2e-6,1.496551 0.414588,0.414588 1.081962,0.414586 1.49655,-2e-6 l 2.993615,-2.9930981 c 0.414589,-0.4145885 0.414589,-1.08196 0,-1.4965484 -0.207294,-0.2072944 -0.47826,-0.3110931 -0.74879,-0.3110931 z M 9.7088301,15.183907 c -0.27053,0 -0.540982,0.103797 -0.7482762,0.311091 l -2.9936154,2.993099 c -0.4145881,0.414589 -0.4145873,1.082479 10e-7,1.497068 0.4145868,0.414587 1.0824776,0.414587 1.4970657,-10e-7 l 2.9930988,-2.993613 c 0.414588,-0.414588 0.414587,-1.081963 1e-6,-1.496549 C 10.24981,15.287707 9.9793601,15.183909 9.7088301,15.183909 Z m 9.2609339,0 c -0.27053,0 -0.540982,0.103797 -0.748276,0.311091 l -2.993617,2.993617 c -0.414587,0.414587 -0.414586,1.081962 0,1.496548 0.414589,0.414589 1.081963,0.41459 1.49655,2e-6 l 2.993617,-2.993617 c 0.414589,-0.414588 0.414587,-1.081961 -1e-6,-1.49655 -0.207293,-0.20729 -0.477745,-0.311091 -0.748273,-0.311089 z m -4.629692,0.001 c -0.270531,0 -0.54098,0.103799 -0.748275,0.311093 l -2.993099,2.9931 c -0.414588,0.414588 -0.414589,1.081961 0,1.496549 0.414588,0.414589 1.081961,0.414588 1.496549,0 l 2.993615,-2.9931 c 0.414589,-0.414588 0.414589,-1.08196 0,-1.496548 -0.207294,-0.207294 -0.47826,-0.311093 -0.74879,-0.311093 z m -4.6312419,8.201052 c -0.27053,-1e-6 -0.540982,0.103797 -0.7482762,0.31109 l -2.9936154,2.9931 c -0.4145881,0.414588 -0.4145873,1.082479 10e-7,1.497068 0.4145868,0.414586 1.0824776,0.414586 1.4970657,-3e-6 l 2.9930988,-2.99358 c 0.414588,-0.414588 0.414587,-1.081963 1e-6,-1.496549 C 10.24981,23.489791 9.9793601,23.385993 9.7088301,23.385993 Z m 9.2609339,0 c -0.270531,0 -0.540983,0.103797 -0.748277,0.311091 l -2.993615,2.993615 c -0.414588,0.414588 -0.414587,1.081963 -10e-7,1.496549 0.414589,0.414589 1.081963,0.414589 1.496551,3e-6 L 19.718038,25.1936 c 0.414588,-0.414588 0.414587,-1.081962 -1e-6,-1.496551 -0.207293,-0.207292 -0.477745,-0.311092 -0.748273,-0.31109 z m -4.629693,0.001 c -0.27053,0 -0.54098,0.103799 -0.748274,0.311092 l -2.993099,2.9931 c -0.414588,0.414589 -0.414589,1.081961 0,1.49655 0.414588,0.414588 1.081961,0.414586 1.496549,0 l 2.993615,-2.9931 c 0.414588,-0.414588 0.414589,-1.081961 0,-1.496549 -0.207294,-0.207294 -0.478261,-0.311092 -0.748791,-0.311093 z"
     style="fill:#000000;stroke-width:0.264583"
     id="path43827" />
  <path
     id="path10117"
     style="fill:#73c48f;fill-opacity:1;stroke-width:0.163976"
     d="M 23.283332,8.9958332 C 22.698831,8.995834 22.225,9.469666 22.225,10.054167 c 0,0.584501 0.473831,1.058333 1.058332,1.058334 0.584502,0 1.058334,-0.473832 1.058334,-1.058334 0,-0.5845018 -0.473832,-1.0583341 -1.058334,-1.0583338 z m 0,8.2020818 c -0.584501,1e-6 -1.058332,0.473833 -1.058332,1.058334 0,0.584501 0.473831,1.058333 1.058332,1.058333 0.584501,10e-7 1.058334,-0.473831 1.058334,-1.058333 0,-0.584501 -0.473832,-1.058334 -1.058334,-1.058334 z m 0,8.202085 c -0.5845,1e-6 -1.058331,0.473832 -1.058332,1.058332 0,0.584501 0.473831,1.058333 1.058332,1.058334 0.584502,0 1.058334,-0.473832 1.058334,-1.058334 -1e-6,-0.584501 -0.473833,-1.058333 -1.058334,-1.058332 z"
     sodipodi:nodetypes="sssssssssssssss" />
  <path
     id="path11625"
     style="fill:#ff793e;fill-opacity:1;stroke-width:0.264582"
     d="m 25.929167,8.9958332 c -0.584502,-8e-7 -1.058335,0.4738317 -1.058335,1.0583338 0,0.584502 0.473833,1.058335 1.058335,1.058334 0.584502,0 1.058334,-0.473832 1.058334,-1.058334 0,-0.5845017 -0.473832,-1.058334 -1.058334,-1.0583338 z m 0,8.2020818 c -0.584502,0 -1.058335,0.473832 -1.058335,1.058334 0,0.584502 0.473833,1.058334 1.058335,1.058333 0.584502,10e-7 1.058334,-0.473831 1.058334,-1.058333 0,-0.584501 -0.473832,-1.058334 -1.058334,-1.058334 z m 0,8.202085 c -0.584502,-10e-7 -1.058334,0.47383 -1.058335,1.058332 0,0.584502 0.473833,1.058335 1.058335,1.058334 0.584502,0 1.058334,-0.473832 1.058334,-1.058334 C 26.9875,25.873831 26.513668,25.4 25.929167,25.4 Z"
     sodipodi:nodetypes="sssssssssssssss" />
  <path
     id="path13551"
     style="fill:#faa41a;fill-opacity:1;stroke-width:0.264582"
     d="m 28.575001,8.9958332 c -0.584502,-2e-7 -1.058334,0.4738321 -1.058334,1.0583338 0,0.584502 0.473832,1.058334 1.058334,1.058334 0.584501,-10e-7 1.058332,-0.473833 1.058332,-1.058334 0,-0.5845009 -0.473831,-1.0583329 -1.058332,-1.0583338 z m 0,8.2020818 c -0.584502,0 -1.058334,0.473833 -1.058334,1.058334 0,0.584502 0.473832,1.058334 1.058334,1.058333 0.584501,0 1.058332,-0.473832 1.058332,-1.058333 0,-0.584501 -0.473831,-1.058333 -1.058332,-1.058334 z m 0,8.202085 c -0.584501,0 -1.058333,0.473831 -1.058334,1.058332 0,0.584502 0.473832,1.058334 1.058334,1.058334 0.584501,-1e-6 1.058332,-0.473833 1.058332,-1.058334 -1e-6,-0.5845 -0.473832,-1.058331 -1.058332,-1.058332 z"
     sodipodi:nodetypes="sssssssssssssss" />
  <path
     d="m 5.2916666,5.8208332 c -1.1726333,0 -2.1166667,0.9440333 -2.1166667,2.1166666 v 4.2333332 c 0,0.914178 0.5748523,1.68705 1.3833793,1.984375 -0.808527,0.297326 -1.3833793,1.070197 -1.3833793,1.984375 v 4.233334 c 0,0.914177 0.5748523,1.687049 1.3833793,1.984374 -0.808527,0.297326 -1.3833793,1.070198 -1.3833793,1.984375 V 28.575 c 0,1.172633 0.9440334,2.116666 2.1166667,2.116666 H 28.575 c 1.172633,0 2.116667,-0.944033 2.116667,-2.116666 v -4.233334 c 0,-0.914177 -0.574853,-1.687049 -1.38338,-1.984375 0.808527,-0.297325 1.38338,-1.070197 1.38338,-1.984374 v -4.233334 c 0,-0.914178 -0.574853,-1.687049 -1.38338,-1.984375 0.808527,-0.297325 1.38338,-1.070197 1.38338,-1.984375 V 7.9374998 c 0,-1.1726333 -0.944034,-2.1166666 -2.116667,-2.1166666 z m 0,0.2645833 H 28.575 c 1.026054,0 1.852083,0.8260291 1.852083,1.8520833 v 3.4395832 c 0,1.026054 -0.826029,1.852084 -1.852083,1.852084 H 5.2916666 c -1.0260542,0 -1.8520833,-0.82603 -1.8520833,-1.852084 V 7.9374998 c 0,-1.0260542 0.8260291,-1.8520833 1.8520833,-1.8520833 z m 0,8.2020835 H 28.575 c 1.026054,0 1.852083,0.826029 1.852083,1.852083 v 3.439584 c 0,1.026054 -0.826029,1.852083 -1.852083,1.852083 H 5.2916666 c -1.0260542,0 -1.8520833,-0.826029 -1.8520833,-1.852083 v -3.439584 c 0,-1.026054 0.8260291,-1.852083 1.8520833,-1.852083 z m 0,8.202083 H 28.575 c 1.026054,0 1.852083,0.826029 1.852083,1.852083 v 3.439584 c 0,1.026054 -0.826029,1.852083 -1.852083,1.852083 H 5.2916666 c -1.0260542,0 -1.8520833,-0.826029 -1.8520833,-1.852083 v -3.439584 c 0,-1.026054 0.8260291,-1.852083 1.8520833,-1.852083 z"
     id="path40138"
     style="stroke-width:0.264583;fill:#ffffff;opacity:0.5" />
</svg>
