<?xml version="1.0" encoding="UTF-8" standalone="no"?>
<!-- Created with Inkscape (http://www.inkscape.org/) -->

<svg
   width="128"
   height="128"
   viewBox="0 0 33.866666 33.866666"
   version="1.1"
   id="svg5"
   inkscape:version="1.2 (dc2aedaf03, 2022-05-15)"
   sodipodi:docname="phone.svg"
   xmlns:inkscape="http://www.inkscape.org/namespaces/inkscape"
   xmlns:sodipodi="http://sodipodi.sourceforge.net/DTD/sodipodi-0.dtd"
   xmlns="http://www.w3.org/2000/svg"
   xmlns:svg="http://www.w3.org/2000/svg">
  <sodipodi:namedview
     id="namedview7"
     pagecolor="#ffffff"
     bordercolor="#666666"
     borderopacity="1.0"
     inkscape:pageshadow="2"
     inkscape:pageopacity="0.0"
     inkscape:pagecheckerboard="0"
     inkscape:document-units="px"
     showgrid="false"
     units="px"
     height="48px"
     inkscape:zoom="3.1796875"
     inkscape:cx="28.304668"
     inkscape:cy="62.584767"
     inkscape:window-width="1846"
     inkscape:window-height="1015"
     inkscape:window-x="0"
     inkscape:window-y="0"
     inkscape:window-maximized="1"
     inkscape:current-layer="svg5"
     inkscape:showpageshadow="2"
     inkscape:deskcolor="#d1d1d1"
     showguides="false" />
  <defs
     id="defs2" />
  <rect
     style="opacity:1;fill:#545454;fill-opacity:1;stroke-width:0.529167"
     id="rect479"
     width="23.283333"
     height="29.633333"
     x="5.291667"
     y="2.1166666"
     ry="2.1166666" />
  <path
     id="rect11390"
     style="opacity:0.5;fill:#ffffff;fill-opacity:1;stroke-width:0.529167;stroke-linecap:round;stroke-linejoin:bevel"
     d="m 7.4083332,2.1166666 c -1.1726321,0 -2.1166666,0.9440345 -2.1166666,2.1166666 V 29.633332 c 0,1.172633 0.9440345,2.116667 2.1166666,2.116667 H 26.458332 c 1.172632,0 2.116667,-0.944034 2.116667,-2.116667 V 4.2333332 c 0,-1.1726321 -0.944035,-2.1166666 -2.116667,-2.1166666 z m 0,0.2645833 H 26.458332 c 1.026053,0 1.852083,0.8260302 1.852083,1.8520833 V 29.104166 c 0,1.026053 -0.82603,1.852083 -1.852083,1.852083 H 7.4083332 c -1.0260531,0 -1.8520833,-0.82603 -1.8520833,-1.852083 V 4.2333332 c 0,-1.0260531 0.8260302,-1.8520833 1.8520833,-1.8520833 z" />
  <rect
     style="fill:#222222;fill-opacity:1;stroke-width:0.95243;stroke-linecap:round"
     id="rect1185"
     width="16.933332"
     height="22.489582"
     x="8.4666662"
     y="5.2916665" />
  <path
     d="m 18.785416,11.641666 c -0.439738,0 -0.79375,0.354014 -0.79375,0.793752 V 14.2875 l 1.207558,1.207558 c -0.56234,1.458726 -1.713206,2.613048 -3.170236,3.179762 L 14.816666,17.4625 h -1.852084 c -0.439736,0 -0.79375,0.354012 -0.79375,0.79375 v 2.116666 c 0,0.439738 0.354014,0.79375 0.79375,0.79375 h 1.058334 c 4.383618,0 7.672918,-3.2893 7.672918,-7.672916 v -1.058332 c 0,-0.439738 -0.354014,-0.793752 -0.79375,-0.793752 z"
     style="opacity:0.8;fill:#ededed;fill-opacity:1;stroke-width:0.529166;filter:url(#filter7554)"
     id="path3989" />
</svg>
