<?xml version="1.0" encoding="UTF-8" standalone="no"?>
<svg
   width="22"
   height="22"
   version="1.1"
   viewBox="0 0 22 22"
   id="svg466"
   sodipodi:docname="fcitx-vk-active.svg"
   inkscape:version="1.2 (dc2aedaf03, 2022-05-15)"
   xmlns:inkscape="http://www.inkscape.org/namespaces/inkscape"
   xmlns:sodipodi="http://sodipodi.sourceforge.net/DTD/sodipodi-0.dtd"
   xmlns="http://www.w3.org/2000/svg"
   xmlns:svg="http://www.w3.org/2000/svg">
  <sodipodi:namedview
     id="namedview468"
     pagecolor="#ffffff"
     bordercolor="#000000"
     borderopacity="0.25"
     inkscape:showpageshadow="2"
     inkscape:pageopacity="0.0"
     inkscape:pagecheckerboard="0"
     inkscape:deskcolor="#d1d1d1"
     showgrid="false"
     inkscape:zoom="17.346213"
     inkscape:cx="6.0243696"
     inkscape:cy="4.7560813"
     inkscape:window-width="1846"
     inkscape:window-height="1011"
     inkscape:window-x="0"
     inkscape:window-y="0"
     inkscape:window-maximized="1"
     inkscape:current-layer="svg466" />
  <defs
     id="defs462">
    <style
       id="current-color-scheme"
       type="text/css">
   .ColorScheme-Text { color:#f2f2f2; } .ColorScheme-Highlight { color:#5294e2; }
  </style>
  </defs>
  <path
     style="fill:currentColor"
     class="ColorScheme-Text"
     d="M 5,5 C 5,5 3,5 3,7 v 8 c 0,2 2,2 2,2 h 11 c 0,0 2,0 2,-2 V 7 C 18,5 16,5 16,5 Z m 0.25,2 h 1.5 C 6.8885,7 7,7.1115 7,7.25 v 1.5 C 7,8.8885 6.8885,9 6.75,9 H 5.25 C 5.1115,9 5,8.8885 5,8.75 V 7.25 C 5,7.1115 5.1115,7 5.25,7 Z m 3,0 h 1.5 C 9.8885,7 10,7.1115 10,7.25 v 1.5 C 10,8.8885 9.8885,9 9.75,9 H 8.25 C 8.1115,9 8,8.8885 8,8.75 V 7.25 C 8,7.1115 8.1115,7 8.25,7 Z m 3,0 h 1.5 C 12.8885,7 13,7.1115 13,7.25 v 1.5 C 13,8.8885 12.8885,9 12.75,9 h -1.5 C 11.1115,9 11,8.8885 11,8.75 V 7.25 C 11,7.1115 11.1115,7 11.25,7 Z m 3,0 h 1.5 C 15.8885,7 16,7.1115 16,7.25 v 1.5 C 16,8.8885 15.8885,9 15.75,9 h -1.5 C 14.1115,9 14,8.8885 14,8.75 V 7.25 C 14,7.1115 14.1115,7 14.25,7 Z m -9,3 h 1.5 C 6.8885,10 7,10.1115 7,10.25 v 1.5 C 7,11.8885 6.8885,12 6.75,12 H 5.25 C 5.1115,12 5,11.8885 5,11.75 v -1.5 C 5,10.1115 5.1115,10 5.25,10 Z m 3,0 h 1.5 C 9.8885,10 10,10.1115 10,10.25 v 1.5 C 10,11.8885 9.8885,12 9.75,12 H 8.25 C 8.1115,12 8,11.8885 8,11.75 v -1.5 C 8,10.1115 8.1115,10 8.25,10 Z m 3,0 h 1.5 c 0.1385,0 0.25,0.1115 0.25,0.25 v 1.5 C 13,11.8885 12.8885,12 12.75,12 h -1.5 C 11.1115,12 11,11.8885 11,11.75 v -1.5 C 11,10.1115 11.1115,10 11.25,10 Z m 3,0 h 1.5 c 0.1385,0 0.25,0.1115 0.25,0.25 v 1.5 C 16,11.8885 15.8885,12 15.75,12 h -1.5 C 14.1115,12 14,11.8885 14,11.75 v -1.5 C 14,10.1115 14.1115,10 14.25,10 Z m -7,3 h 6.5 c 0.1385,0 0.25,0.1115 0.25,0.25 v 1.5 C 14,14.8885 13.8885,15 13.75,15 H 7.25 C 7.1115,15 7,14.8885 7,14.75 v -1.5 C 7,13.1115 7.1115,13 7.25,13 Z"
     id="path464" />
</svg>
