<?xml version="1.0" encoding="UTF-8" standalone="no"?>
<svg
   viewBox="0 0 22 22"
   version="1.1"
   id="svg8"
   sodipodi:docname="application-exit.svg"
   width="22"
   height="22"
   inkscape:version="1.2 (dc2aedaf03, 2022-05-15)"
   xmlns:inkscape="http://www.inkscape.org/namespaces/inkscape"
   xmlns:sodipodi="http://sodipodi.sourceforge.net/DTD/sodipodi-0.dtd"
   xmlns="http://www.w3.org/2000/svg"
   xmlns:svg="http://www.w3.org/2000/svg">
  <defs
     id="defs12" />
  <sodipodi:namedview
     id="namedview10"
     pagecolor="#ffffff"
     bordercolor="#000000"
     borderopacity="0.25"
     inkscape:showpageshadow="2"
     inkscape:pageopacity="0.0"
     inkscape:pagecheckerboard="0"
     inkscape:deskcolor="#d1d1d1"
     showgrid="false"
     inkscape:zoom="23.15625"
     inkscape:cx="2.0944669"
     inkscape:cy="11.206478"
     inkscape:window-width="1920"
     inkscape:window-height="1017"
     inkscape:window-x="0"
     inkscape:window-y="0"
     inkscape:window-maximized="1"
     inkscape:current-layer="svg8" />
  <path
     color="#bebebe"
     d="M 0,0 H 22 V 22 H 0 Z"
     fill="#808080"
     fill-opacity="0.01"
     id="path2"
     style="stroke-width:1.375" />
  <path
     d="M 6,4 C 4.892,4 4,4.892 4,6 V 8 A 1,1 0 0 0 5,9 1,1 0 0 0 6,8.006 1,1 0 0 0 6,8 V 6 H 16 V 16 H 6 V 14 A 1,1 0 0 0 5,13 1,1 0 0 0 4,13.994 1,1 0 0 0 4,14 v 2 c 0,1.108 0.892,2 2,2 h 10 c 1.108,0 2,-0.892 2,-2 V 6 C 18,4.892 17.108,4 16,4 Z"
     fill="#f2f2f2"
     id="path4" />
  <path
     d="M 9.52,6.71 A 0.98,0.98 0 0 0 8.54,7.69 0.98,0.98 0 0 0 8.829,8.382 L 8.827,8.384 10.46,10.019 4,9.997 a 1,1 0 0 0 -1,1 1,1 0 0 0 1,1 l 6.46,0.022 -1.625,1.623 -0.01,0.01 a 0.98,0.98 0 0 0 -0.287,0.693 0.98,0.98 0 0 0 0.98,0.98 0.98,0.98 0 0 0 0.692,-0.287 L 14.212,10.998 10.236,7.022 10.222,7.007 A 0.98,0.98 0 0 0 10.21,6.997 0.98,0.98 0 0 0 9.519,6.71 Z"
     fill="#f2f2f2"
     id="path6" />
</svg>
