<?xml version="1.0" encoding="UTF-8" standalone="no"?>
<svg
   width="22"
   height="22"
   viewBox="0 0 22 22"
   version="1.1"
   id="svg7"
   sodipodi:docname="compass.svg"
   inkscape:version="1.2 (dc2aedaf03, 2022-05-15)"
   xmlns:inkscape="http://www.inkscape.org/namespaces/inkscape"
   xmlns:sodipodi="http://sodipodi.sourceforge.net/DTD/sodipodi-0.dtd"
   xmlns="http://www.w3.org/2000/svg"
   xmlns:svg="http://www.w3.org/2000/svg">
  <sodipodi:namedview
     id="namedview9"
     pagecolor="#ffffff"
     bordercolor="#000000"
     borderopacity="0.25"
     inkscape:showpageshadow="2"
     inkscape:pageopacity="0.0"
     inkscape:pagecheckerboard="0"
     inkscape:deskcolor="#d1d1d1"
     showgrid="false"
     inkscape:zoom="13.859375"
     inkscape:cx="1.3709132"
     inkscape:cy="11.580609"
     inkscape:window-width="1920"
     inkscape:window-height="1010"
     inkscape:window-x="0"
     inkscape:window-y="0"
     inkscape:window-maximized="1"
     inkscape:current-layer="svg7" />
  <defs
     id="defs3">
    <style
       id="current-color-scheme"
       type="text/css">
   .ColorScheme-Text { color:#f2f2f2; } .ColorScheme-Highlight { color:#4285f4; } .ColorScheme-NeutralText { color:#ff9800; } .ColorScheme-PositiveText { color:#4caf50; } .ColorScheme-NegativeText { color:#f44336; }
  </style>
  </defs>
  <path
     style="fill:currentColor"
     class="ColorScheme-Text"
     d="m 11,4 c -3.866,0 -7,3.134 -7,7 0,3.866 3.134,7 7,7 3.866,0 7,-3.134 7,-7 0,-3.866 -3.134,-7 -7,-7 z m 0,2 c 2.7614,0 5,2.2386 5,5 0,2.7614 -2.2386,5 -5,5 C 8.2386,16 6,13.7614 6,11 6,8.2386 8.2386,6 11,6 Z M 14.5,7.5 11,8.6660156 C 9.7783,8.6660156 8.6660156,9.7782 8.6660156,11 L 7.5,14.5 11,13.333984 c 1.2217,0 2.333984,-1.112284 2.333984,-2.333984 z M 11,9.8339844 C 11.61088,9.8339844 12.166016,10.3891 12.166016,11 12.165996,11.6108 11.61083,12.166016 11,12.166016 10.38915,12.166016 9.8339844,11.6108 9.8339844,11 9.8339544,10.3891 10.38913,9.8339844 11,9.8339844 Z"
     id="path5" />
</svg>
