<?xml version="1.0" encoding="UTF-8" standalone="no"?>
<svg
   enable-background="new"
   viewBox="0 0 22 22"
   version="1.1"
   id="svg13"
   sodipodi:docname="dialog-input-devices.svg"
   width="22"
   height="22"
   inkscape:version="1.2 (dc2aedaf03, 2022-05-15)"
   xmlns:inkscape="http://www.inkscape.org/namespaces/inkscape"
   xmlns:sodipodi="http://sodipodi.sourceforge.net/DTD/sodipodi-0.dtd"
   xmlns="http://www.w3.org/2000/svg"
   xmlns:svg="http://www.w3.org/2000/svg">
  <sodipodi:namedview
     id="namedview15"
     pagecolor="#ffffff"
     bordercolor="#000000"
     borderopacity="0.25"
     inkscape:showpageshadow="2"
     inkscape:pageopacity="0.0"
     inkscape:pagecheckerboard="0"
     inkscape:deskcolor="#d1d1d1"
     showgrid="false"
     inkscape:zoom="9.7982207"
     inkscape:cx="13.675952"
     inkscape:cy="17.197"
     inkscape:window-width="1920"
     inkscape:window-height="1010"
     inkscape:window-x="0"
     inkscape:window-y="0"
     inkscape:window-maximized="1"
     inkscape:current-layer="g11" />
  <defs
     id="defs5">
    <filter
       color-interpolation-filters="sRGB"
       height="1"
       id="a"
       width="1"
       x="0"
       y="0">
      <feBlend
         in2="BackgroundImage"
         mode="darken"
         id="feBlend2" />
    </filter>
  </defs>
  <g
     filter="url(#a)"
     transform="translate(-381,227)"
     id="g11">
    <path
       color="#bebebe"
       d="m 381,-227 h 22 v 22 h -22 z"
       enable-background="accumulate"
       fill="#808080"
       fill-opacity="0.01"
       id="path7"
       style="stroke-width:1.375" />
    <path
       d="m 392,-224 -2.5,4 h 1.5 v 5 h -3 v -1.272 a 2,2 0 0 0 1,-1.728 2,2 0 1 0 -3,1.73 v 1.27 c 0,2 2,2 2,2 h 3 v 1.272 a 2,2 0 0 0 -1,1.728 2,2 0 1 0 3,-1.73 V -213 h 3 c 0,0 2,0 2,-2 v -1 c 0,0 1.125,-0.188 1,-1 v -2 c 0.125,-1.125 -1,-1 -1,-1 h -2 c -1.063,0 -1,1 -1,1 v 2 c 0,1 1,1 1,1 v 1 h -3 v -5 h 1.5 z"
       fill="#f2f2f2"
       fill-rule="evenodd"
       id="path9" />
  </g>
</svg>
