<?xml version="1.0" encoding="UTF-8" standalone="no"?>
<svg
   width="22"
   height="22"
   version="1.1"
   id="svg516"
   sodipodi:docname="document-preview.svg"
   inkscape:version="1.2 (dc2aedaf03, 2022-05-15)"
   xmlns:inkscape="http://www.inkscape.org/namespaces/inkscape"
   xmlns:sodipodi="http://sodipodi.sourceforge.net/DTD/sodipodi-0.dtd"
   xmlns="http://www.w3.org/2000/svg"
   xmlns:svg="http://www.w3.org/2000/svg">
  <sodipodi:namedview
     id="namedview518"
     pagecolor="#ffffff"
     bordercolor="#000000"
     borderopacity="0.25"
     inkscape:showpageshadow="2"
     inkscape:pageopacity="0.0"
     inkscape:pagecheckerboard="0"
     inkscape:deskcolor="#d1d1d1"
     showgrid="false"
     inkscape:zoom="18.05332"
     inkscape:cx="9.471942"
     inkscape:cy="9.9427695"
     inkscape:window-width="1920"
     inkscape:window-height="1010"
     inkscape:window-x="0"
     inkscape:window-y="0"
     inkscape:window-maximized="1"
     inkscape:current-layer="svg516" />
  <defs
     id="defs510">
    <style
       id="current-color-scheme"
       type="text/css">
   .ColorScheme-Text { color:#f2f2f2; } .ColorScheme-Highlight { color:#4285f4; } .ColorScheme-NeutralText { color:#ff9800; } .ColorScheme-PositiveText { color:#4caf50; } .ColorScheme-NegativeText { color:#f44336; }
  </style>
  </defs>
  <path
     id="path502"
     style="fill:currentColor"
     class="ColorScheme-Text"
     d="m 7.0001326,3 c -1.024999,0 -2.0132941,0.8743316 -2,2 v 10 c 0.00118,1.020514 0.974001,2 2,2 h 5.1933594 c -1.418097,-0.536998 -2.4433594,-1.904004 -2.4433594,-3.5 0,-2.055596 1.6944044,-3.75 3.7500004,-3.75 1.595996,0 2.963002,1.025262 3.5,2.443359 V 8 C 16.990933,7.5017103 16.772521,6.9380197 16.429821,6.5761719 l -2.96875,-2.96875 C 13.084607,3.2206576 12.539865,3.0000458 12.000133,3 Z" />
  <path
     style="fill:currentColor"
     class="ColorScheme-Text"
     d="m 14.500133,15.5 2.278,2.278 c 0,0 0.5,0.5 1,0 0.5,-0.5 0,-1 0,-1 l -2.278,-2.278 z m -3.75,-2 c 0,1.5 1.25,2.75 2.75,2.75 1.5,0 2.75,-1.25 2.75,-2.75 0,-1.5 -1.25,-2.75 -2.75,-2.75 -1.5,0 -2.75,1.25 -2.75,2.75 z m 2.75,-1.75 c 1,0 1.75,0.75 1.75,1.75 0,0.32835 -0.08086,0.629747 -0.224881,0.88649 -0.294598,0.525175 -0.853469,0.86351 -1.525119,0.86351 -1,0 -1.75,-0.75 -1.75,-1.75 0,-1 0.75,-1.75 1.75,-1.75 z"
     id="path514"
     sodipodi:nodetypes="ccscccsssssssssss" />
</svg>
