<?xml version="1.0" encoding="UTF-8" standalone="no"?>
<svg
   viewBox="0 0 22 22"
   version="1.1"
   id="svg6"
   sodipodi:docname="edit-cut.svg"
   width="22"
   height="22"
   inkscape:version="1.2 (dc2aedaf03, 2022-05-15)"
   xmlns:inkscape="http://www.inkscape.org/namespaces/inkscape"
   xmlns:sodipodi="http://sodipodi.sourceforge.net/DTD/sodipodi-0.dtd"
   xmlns="http://www.w3.org/2000/svg"
   xmlns:svg="http://www.w3.org/2000/svg">
  <defs
     id="defs10" />
  <sodipodi:namedview
     id="namedview8"
     pagecolor="#ffffff"
     bordercolor="#000000"
     borderopacity="0.25"
     inkscape:showpageshadow="2"
     inkscape:pageopacity="0.0"
     inkscape:pagecheckerboard="0"
     inkscape:deskcolor="#d1d1d1"
     showgrid="false"
     inkscape:zoom="17.147339"
     inkscape:cx="-2.041133"
     inkscape:cy="15.22102"
     inkscape:window-width="1846"
     inkscape:window-height="1011"
     inkscape:window-x="0"
     inkscape:window-y="0"
     inkscape:window-maximized="1"
     inkscape:current-layer="svg6" />
  <path
     color="#bebebe"
     d="M 0,0 H 22 V 22 H 0 Z"
     fill="#808080"
     fill-opacity="0.01"
     id="path2"
     style="stroke-width:1.375" />
  <path
     d="m 7.5,5 a 2.5,2.5 0 0 0 0,5 C 7.946,10 8.356,9.861 8.719,9.656 l 1.969,1.844 -1.97,1.844 A 2.473,2.473 0 0 0 7.5,13 2.5,2.5 0 1 0 10,15.5 C 10,15.27 9.964,15.055 9.906,14.844 l 2.125,-2.063 4.469,4.22 H 18 v -1 L 9.906,8.155 A 2.46,2.46 0 0 0 10,7.5 2.5,2.5 0 0 0 7.5,5 Z m 0,1.5 a 1,1 0 1 1 0,2 1,1 0 0 1 0,-2 z M 16.5,6 12.562,9.719 13.875,11 18,7 V 6 Z m -9,8.5 a 1,1 0 1 1 0,2 1,1 0 0 1 0,-2 z"
     fill="#f2f2f2"
     id="path4" />
</svg>
