<?xml version="1.0" encoding="UTF-8" standalone="no"?>
<svg
   viewBox="0 0 22 22"
   version="1.1"
   id="svg6"
   sodipodi:docname="media-seek-backward.svg"
   width="22"
   height="22"
   inkscape:version="1.2 (dc2aedaf03, 2022-05-15)"
   xmlns:inkscape="http://www.inkscape.org/namespaces/inkscape"
   xmlns:sodipodi="http://sodipodi.sourceforge.net/DTD/sodipodi-0.dtd"
   xmlns="http://www.w3.org/2000/svg"
   xmlns:svg="http://www.w3.org/2000/svg">
  <defs
     id="defs10" />
  <sodipodi:namedview
     id="namedview8"
     pagecolor="#ffffff"
     bordercolor="#000000"
     borderopacity="0.25"
     inkscape:showpageshadow="2"
     inkscape:pageopacity="0.0"
     inkscape:pagecheckerboard="0"
     inkscape:deskcolor="#d1d1d1"
     showgrid="false"
     inkscape:zoom="36.363636"
     inkscape:cx="11.01375"
     inkscape:cy="11"
     inkscape:window-width="1920"
     inkscape:window-height="1016"
     inkscape:window-x="0"
     inkscape:window-y="0"
     inkscape:window-maximized="1"
     inkscape:current-layer="svg6" />
  <path
     color="#bebebe"
     d="M 22,0 H 0 v 22 h 22 z"
     fill="#808080"
     fill-opacity="0.01"
     id="path2"
     style="stroke-width:1.375" />
  <path
     d="M 10,7.77 A 1,1 0 0 0 9.422,7.956 l -3.854,2.21 a 1,1 0 0 0 -0.134,0.079 l -0.012,0.006 v 0.002 A 1,1 0 0 0 5,11.067 1,1 0 0 0 5.422,11.883 l 0.004,0.002 a 1,1 0 0 0 0.138,0.08 l 3.858,2.22 A 1,1 0 0 0 11,13.37 v -2.3 h 0.004 l 5.418,3.11 A 1,1 0 0 0 18,13.366 V 8.774 A 1,1 0 0 0 16.422,7.959 L 11.004,11.07 H 11 v -2.3 a 1,1 0 0 0 -1,-1 z"
     fill="#f2f2f2"
     id="path4" />
</svg>
