<?xml version="1.0" encoding="UTF-8" standalone="no"?>
<svg
   viewBox="0 0 22 22"
   version="1.1"
   id="svg10"
   sodipodi:docname="view-preview.svg"
   width="22"
   height="22"
   inkscape:version="1.2 (dc2aedaf03, 2022-05-15)"
   xmlns:inkscape="http://www.inkscape.org/namespaces/inkscape"
   xmlns:sodipodi="http://sodipodi.sourceforge.net/DTD/sodipodi-0.dtd"
   xmlns="http://www.w3.org/2000/svg"
   xmlns:svg="http://www.w3.org/2000/svg">
  <defs
     id="defs14" />
  <sodipodi:namedview
     id="namedview12"
     pagecolor="#ffffff"
     bordercolor="#000000"
     borderopacity="0.25"
     inkscape:showpageshadow="2"
     inkscape:pageopacity="0.0"
     inkscape:pagecheckerboard="0"
     inkscape:deskcolor="#d1d1d1"
     showgrid="false"
     inkscape:zoom="18.252194"
     inkscape:cx="-2.3558812"
     inkscape:cy="13.25868"
     inkscape:window-width="1920"
     inkscape:window-height="1009"
     inkscape:window-x="0"
     inkscape:window-y="0"
     inkscape:window-maximized="1"
     inkscape:current-layer="svg10" />
  <path
     color="#bebebe"
     d="M 0,0 H 22 V 22 H 0 Z"
     fill="#808080"
     fill-opacity="0.01"
     id="path2"
     style="stroke-width:1.375" />
  <path
     color="#000000"
     d="M 7,4 C 5.355,4 4,5.355 4,7 v 8 c 0,1.645 1.355,3 3,3 h 8 c 1.645,0 3,-1.355 3,-3 V 7 C 18,5.355 16.645,4 15,4 Z m 0,2 h 8 c 0.571,0 1,0.429 1,1 v 8 c 0,0.571 -0.429,1 -1,1 H 7 C 6.429,16 6,15.571 6,15 V 7 C 6,6.429 6.429,6 7,6 Z"
     fill="#f2f2f2"
     style="-inkscape-stroke:none"
     id="path4" />
  <path
     d="m 7,7 v 6 L 8.5,11.5 10,13 12.5,10.5 15,13 V 7 Z"
     fill="#f2f2f2"
     opacity="0.5"
     id="path6" />
  <path
     d="m 11,11 4,4 H 7 Z"
     fill="#f2f2f2"
     id="path8" />
</svg>
