<?xml version="1.0" encoding="UTF-8" standalone="no"?>
<svg
   viewBox="0 0 22 22"
   version="1.1"
   id="svg6"
   sodipodi:docname="window-close.svg"
   width="22"
   height="22"
   inkscape:version="1.2 (dc2aedaf03, 2022-05-15)"
   xmlns:inkscape="http://www.inkscape.org/namespaces/inkscape"
   xmlns:sodipodi="http://sodipodi.sourceforge.net/DTD/sodipodi-0.dtd"
   xmlns="http://www.w3.org/2000/svg"
   xmlns:svg="http://www.w3.org/2000/svg">
  <defs
     id="defs10" />
  <sodipodi:namedview
     id="namedview8"
     pagecolor="#ffffff"
     bordercolor="#000000"
     borderopacity="0.25"
     inkscape:showpageshadow="2"
     inkscape:pageopacity="0.0"
     inkscape:pagecheckerboard="0"
     inkscape:deskcolor="#d1d1d1"
     showgrid="false"
     inkscape:zoom="23.15625"
     inkscape:cx="2.2672065"
     inkscape:cy="12.2861"
     inkscape:window-width="1920"
     inkscape:window-height="1017"
     inkscape:window-x="0"
     inkscape:window-y="0"
     inkscape:window-maximized="1"
     inkscape:current-layer="svg6" />
  <path
     color="#bebebe"
     d="m 0,0.003 h 22 v 22 H 0 Z"
     fill="#808080"
     fill-opacity="0.01"
     id="path2"
     style="stroke-width:1.375" />
  <path
     d="M 8,7 A 1,1 0 0 0 7,8 1,1 0 0 0 7.293,8.707 L 9.586,11 7.293,13.293 A 1,1 0 0 0 7,14 1,1 0 0 0 8,15 1,1 0 0 0 8.707,14.707 L 11,12.414 13.283,14.697 A 1,1 0 0 0 14,15 1,1 0 0 0 15,14 1,1 0 0 0 14.707,13.293 L 12.414,11 14.697,8.717 A 1,1 0 0 0 15,8 1,1 0 0 0 14,7 1,1 0 0 0 13.293,7.293 L 11,9.586 8.717,7.303 A 1,1 0 0 0 8.707,7.293 1,1 0 0 0 8,7 Z"
     fill="#f2f2f2"
     id="path4" />
</svg>
