<?xml version="1.0" encoding="UTF-8" standalone="no"?>
<!-- Created with Inkscape (http://www.inkscape.org/) -->

<svg
   width="64"
   height="64"
   viewBox="0 0 16.933333 16.933334"
   version="1.1"
   id="svg1099"
   inkscape:version="1.2 (dc2aedaf03, 2022-05-15)"
   sodipodi:docname="emblem-readonly.svg"
   xmlns:inkscape="http://www.inkscape.org/namespaces/inkscape"
   xmlns:sodipodi="http://sodipodi.sourceforge.net/DTD/sodipodi-0.dtd"
   xmlns="http://www.w3.org/2000/svg"
   xmlns:svg="http://www.w3.org/2000/svg">
  <sodipodi:namedview
     id="namedview1101"
     pagecolor="#ffffff"
     bordercolor="#666666"
     borderopacity="1.0"
     inkscape:pageshadow="2"
     inkscape:pageopacity="0.0"
     inkscape:pagecheckerboard="0"
     inkscape:document-units="px"
     showgrid="false"
     units="px"
     inkscape:zoom="6.265625"
     inkscape:cx="-0.319202"
     inkscape:cy="36.069825"
     inkscape:window-width="1846"
     inkscape:window-height="1011"
     inkscape:window-x="0"
     inkscape:window-y="0"
     inkscape:window-maximized="1"
     inkscape:current-layer="svg1099"
     inkscape:showpageshadow="2"
     inkscape:deskcolor="#d1d1d1" />
  <defs
     id="defs1096" />
  <rect
     style="opacity:1;fill:#faa41a;stroke-width:0.264583;fill-opacity:1"
     id="rect1196"
     width="15.875"
     height="16.404167"
     x="0.5291667"
     y="0.5291667"
     ry="7.9375" />
  <path
     id="rect15068"
     style="opacity:0.5;fill:#000000;stroke-width:0.264583"
     d="M 8.4666667 0.52916667 C 4.0692961 0.52916667 0.52916667 4.0692961 0.52916667 8.4666667 L 0.52916667 8.9958334 C 0.52916667 13.393204 4.0692961 16.933333 8.4666667 16.933333 C 12.864037 16.933333 16.404167 13.393204 16.404167 8.9958334 L 16.404167 8.4666667 C 16.404167 4.0692961 12.864037 0.52916667 8.4666667 0.52916667 z M 8.4666667 0.79375001 A 7.6729169 7.6729169 0 0 1 16.139583 8.4666667 A 7.6729169 7.6729169 0 0 1 8.4666667 16.139583 A 7.6729169 7.6729169 0 0 1 0.79375001 8.4666667 A 7.6729169 7.6729169 0 0 1 8.4666667 0.79375001 z " />
  <path
     d="m 8.4693127,4.4979167 c -1.1726333,0 -2.1166667,0.9638771 -2.1166667,2.1497396 v 1.0252605 c -0.5863167,0 -1.0583334,0.4720167 -1.0583334,1.0583333 v 2.1156079 c 0,0.586316 0.4720167,1.058333 1.0583334,1.058333 h 4.230159 c 0.586316,0 1.058333,-0.472017 1.058333,-1.058333 V 8.7312501 c 0.0013,-0.583806 -0.471351,-1.057896 -1.055158,-1.0583333 V 6.6476563 c 0,-1.1853333 -0.9440339,-2.1497396 -2.1166673,-2.1497396 z m 0,1.0583334 c 0.5863167,0 1.0583334,0.4720166 1.0583334,1.0583333 V 7.6729168 H 7.4109794 V 6.6145834 c 0,-0.5863167 0.4720166,-1.0583333 1.0583333,-1.0583333 z"
     style="color:#000000;fill:#474341;stroke-width:0.264583"
     id="path3391" />
</svg>
