<?xml version="1.0" encoding="UTF-8" standalone="no"?>
<!-- Created with Inkscape (http://www.inkscape.org/) -->

<svg
   width="64"
   height="64"
   viewBox="0 0 16.933333 16.933334"
   version="1.1"
   id="svg1099"
   inkscape:version="1.2 (dc2aedaf03, 2022-05-15)"
   sodipodi:docname="emblem-important.svg"
   xmlns:inkscape="http://www.inkscape.org/namespaces/inkscape"
   xmlns:sodipodi="http://sodipodi.sourceforge.net/DTD/sodipodi-0.dtd"
   xmlns="http://www.w3.org/2000/svg"
   xmlns:svg="http://www.w3.org/2000/svg">
  <sodipodi:namedview
     id="namedview1101"
     pagecolor="#ffffff"
     bordercolor="#666666"
     borderopacity="1.0"
     inkscape:pageshadow="2"
     inkscape:pageopacity="0.0"
     inkscape:pagecheckerboard="0"
     inkscape:document-units="px"
     showgrid="false"
     units="px"
     inkscape:zoom="8.8609318"
     inkscape:cx="29.906561"
     inkscape:cy="39.273522"
     inkscape:window-width="1846"
     inkscape:window-height="1011"
     inkscape:window-x="0"
     inkscape:window-y="0"
     inkscape:window-maximized="1"
     inkscape:current-layer="svg1099"
     inkscape:showpageshadow="2"
     inkscape:deskcolor="#d1d1d1" />
  <defs
     id="defs1096" />
  <rect
     style="opacity:1;fill:#f25d22;stroke-width:0.264583;fill-opacity:1"
     id="rect1196"
     width="15.875"
     height="16.404167"
     x="0.5291667"
     y="0.5291667"
     ry="7.9375" />
  <path
     id="rect15068"
     style="opacity:0.5;fill:#000000;stroke-width:0.264583"
     d="M 8.4666667 0.52916667 C 4.0692961 0.52916667 0.52916667 4.0692961 0.52916667 8.4666667 L 0.52916667 8.9958334 C 0.52916667 13.393204 4.0692961 16.933333 8.4666667 16.933333 C 12.864037 16.933333 16.404167 13.393204 16.404167 8.9958334 L 16.404167 8.4666667 C 16.404167 4.0692961 12.864037 0.52916667 8.4666667 0.52916667 z M 8.4666667 0.79375001 A 7.6729169 7.6729169 0 0 1 16.139583 8.4666667 A 7.6729169 7.6729169 0 0 1 8.4666667 16.139583 A 7.6729169 7.6729169 0 0 1 0.79375001 8.4666667 A 7.6729169 7.6729169 0 0 1 8.4666667 0.79375001 z " />
  <rect
     style="fill:#cf3b00;fill-opacity:1;stroke-width:0.529167;stroke-linejoin:round"
     id="rect2591"
     width="3.175"
     height="4.7624998"
     x="6.8791666"
     y="6.0854163"
     ry="0.26458332" />
  <path
     d="m 8.466667,4.7624999 c -2.0457584,0 -3.7041668,1.6584083 -3.7041668,3.7041667 0,2.0457584 1.6584084,3.7041674 3.7041668,3.7041674 2.045758,0 3.704166,-1.658409 3.704166,-3.7041674 0,-2.0457584 -1.658408,-3.7041667 -3.704166,-3.7041667 z m -0.5291667,1.5875 h 1.0583334 v 1.5875 L 8.863542,8.9958333 H 8.0861961 L 7.9375003,7.9374999 Z M 8.466667,9.3927083 c 0.8819441,0 0.8819441,1.3229167 0,1.3229167 -0.8819441,0 -0.8819441,-1.3229167 0,-1.3229167 z"
     style="fill:#ffffff;stroke-width:0.264583"
     id="path403" />
</svg>
