<?xml version="1.0" encoding="UTF-8" standalone="no"?>
<!-- Created with Inkscape (http://www.inkscape.org/) -->

<svg
   width="64"
   height="64"
   viewBox="0 0 16.933333 16.933334"
   version="1.1"
   id="svg1099"
   inkscape:version="1.2 (dc2aedaf03, 2022-05-15)"
   sodipodi:docname="emblem-shared.svg"
   xmlns:inkscape="http://www.inkscape.org/namespaces/inkscape"
   xmlns:sodipodi="http://sodipodi.sourceforge.net/DTD/sodipodi-0.dtd"
   xmlns="http://www.w3.org/2000/svg"
   xmlns:svg="http://www.w3.org/2000/svg">
  <sodipodi:namedview
     id="namedview1101"
     pagecolor="#ffffff"
     bordercolor="#666666"
     borderopacity="1.0"
     inkscape:pageshadow="2"
     inkscape:pageopacity="0.0"
     inkscape:pagecheckerboard="0"
     inkscape:document-units="px"
     showgrid="false"
     units="px"
     inkscape:zoom="6.265625"
     inkscape:cx="-0.319202"
     inkscape:cy="36.069825"
     inkscape:window-width="1846"
     inkscape:window-height="1011"
     inkscape:window-x="0"
     inkscape:window-y="0"
     inkscape:window-maximized="1"
     inkscape:current-layer="svg1099"
     inkscape:showpageshadow="2"
     inkscape:deskcolor="#d1d1d1" />
  <defs
     id="defs1096" />
  <rect
     style="opacity:1;fill:#3f51b5;stroke-width:0.264583;fill-opacity:1"
     id="rect1196"
     width="15.875"
     height="16.404167"
     x="0.5291667"
     y="0.5291667"
     ry="7.9375" />
  <path
     id="rect15068"
     style="opacity:0.5;fill:#000000;stroke-width:0.264583"
     d="M 8.4666667 0.52916667 C 4.0692961 0.52916667 0.52916667 4.0692961 0.52916667 8.4666667 L 0.52916667 8.9958334 C 0.52916667 13.393204 4.0692961 16.933333 8.4666667 16.933333 C 12.864037 16.933333 16.404167 13.393204 16.404167 8.9958334 L 16.404167 8.4666667 C 16.404167 4.0692961 12.864037 0.52916667 8.4666667 0.52916667 z M 8.4666667 0.79375001 A 7.6729169 7.6729169 0 0 1 16.139583 8.4666667 A 7.6729169 7.6729169 0 0 1 8.4666667 16.139583 A 7.6729169 7.6729169 0 0 1 0.79375001 8.4666667 A 7.6729169 7.6729169 0 0 1 8.4666667 0.79375001 z " />
  <path
     d="m 10.583333,4.4979167 c -0.8767519,0 -1.5874999,0.7107481 -1.5874999,1.5875 0,0.1225021 0.02328,0.2328334 0.04948,0.347398 L 7.3421868,7.491148 C 7.0607386,7.265613 6.7106634,7.14304 6.3499993,7.1437501 c -0.8767528,0 -1.5874993,0.7107481 -1.5874993,1.5875 0,0.876752 0.7107465,1.5874999 1.5874993,1.5874999 0.3751791,0 0.7204604,-0.129646 0.9921875,-0.3473977 l 1.7033873,1.0583337 c -0.02646,0.114565 -0.04974,0.224896 -0.04974,0.347398 0,1.41441 1.7099569,2.122493 2.7099749,1.122475 1.000017,-1.000018 0.291934,-2.7099755 -1.122475,-2.7099755 -0.37518,0 -0.7204609,0.1296458 -0.9921879,0.3473975 L 7.8880222,9.0786481 c 0.026194,-0.1145646 0.049477,-0.2248959 0.049477,-0.347398 0,-0.122502 -0.023283,-0.2328333 -0.049477,-0.3473979 L 9.5911451,7.3255189 c 0.281448,0.225535 0.6315229,0.348108 0.9921879,0.3473979 0.876752,0 1.587499,-0.7107481 1.587499,-1.5875001 0,-0.8767519 -0.710747,-1.5875 -1.587499,-1.5875 z"
     style="fill:#ffffff;stroke-width:0.264583"
     id="path352" />
</svg>
